<?xml version="1.0" encoding="UTF-8" standalone="no"?>
<!DOCTYPE svg PUBLIC "-//W3C//DTD SVG 1.1//EN"
 "http://www.w3.org/Graphics/SVG/1.1/DTD/svg11.dtd">
<!-- Generated by graphviz version 2.30.1 (20130221.2233)
 -->
<!-- Title: Mode::set_desired_speed_to_default Pages: 1 -->
<svg width="466pt" height="79pt"
 viewBox="0.00 0.00 466.00 79.00" xmlns="http://www.w3.org/2000/svg" xmlns:xlink="http://www.w3.org/1999/xlink">
<g id="graph0" class="graph" transform="scale(1 1) rotate(0) translate(4 75)">
<title>Mode::set_desired_speed_to_default</title>
<polygon fill="white" stroke="white" points="-4,5 -4,-75 463,-75 463,5 -4,5"/>
<!-- Node602 -->
<g id="node1" class="node"><title>Node602</title>
<g id="a_node1"><a xlink:title=" ">
<polygon fill="#bfbfbf" stroke="black" points="0.460938,-22 0.460938,-54 131.539,-54 131.539,-22 0.460938,-22"/>
<text text-anchor="start" x="8.46094" y="-40" font-family="Helvetica,sans-Serif" font-size="10.00">Mode::set_desired_speed</text>
<text text-anchor="middle" x="66" y="-28" font-family="Helvetica,sans-Serif" font-size="10.00">_to_default</text>
</a>
</g>
</g>
<!-- Node603 -->
<g id="node2" class="node"><title>Node603</title>
<g id="a_node2"><a xlink:href="classMode.html#a1ffca55c69f310601e94d766c9335582" target="_top" xlink:title=" ">
<polygon fill="white" stroke="black" points="168.567,-28 168.567,-48 297.433,-48 297.433,-28 168.567,-28"/>
<text text-anchor="middle" x="233" y="-34" font-family="Helvetica,sans-Serif" font-size="10.00">Mode::get_speed_default</text>
</a>
</g>
</g>
<!-- Node602&#45;&gt;Node603 -->
<g id="edge1" class="edge"><title>Node602&#45;&gt;Node603</title>
<path fill="none" stroke="midnightblue" d="M131.739,-38C140.434,-38 149.406,-38 158.243,-38"/>
<polygon fill="midnightblue" stroke="midnightblue" points="158.529,-41.5001 168.529,-38 158.529,-34.5001 158.529,-41.5001"/>
</g>
<!-- Node604 -->
<g id="node3" class="node"><title>Node604</title>
<g id="a_node3"><a doxygen="/Users/coreyshive/Documents/schoolcode/ardupilot/docs/tags/libraries:../libraries/" xlink:href="../libraries/AP__Math_8h.html#a4e3ae698e8f99cec214348ad233e3c41" xlink:title=" ">
<polygon fill="white" stroke="black" points="364.655,-51 364.655,-71 427.345,-71 427.345,-51 364.655,-51"/>
<text text-anchor="middle" x="396" y="-57" font-family="Helvetica,sans-Serif" font-size="10.00">is_positive</text>
</a>
</g>
</g>
<!-- Node603&#45;&gt;Node604 -->
<g id="edge2" class="edge"><title>Node603&#45;&gt;Node604</title>
<path fill="none" stroke="midnightblue" d="M297.631,-47.0902C316.702,-49.8146 337.095,-52.7278 354.265,-55.1807"/>
<polygon fill="midnightblue" stroke="midnightblue" points="354.104,-58.6931 364.498,-56.6426 355.094,-51.7635 354.104,-58.6931"/>
</g>
<!-- Node605 -->
<g id="node4" class="node"><title>Node605</title>
<g id="a_node4"><a doxygen="/Users/coreyshive/Documents/schoolcode/ardupilot/docs/tags/libraries:../libraries/" xlink:href="../libraries/classAR__WPNav.html#aa2950047fb5b0948ea7ba732ae4e7344" xlink:title=" ">
<polygon fill="white" stroke="black" points="333.806,-0 333.806,-32 458.194,-32 458.194,-0 333.806,-0"/>
<text text-anchor="start" x="341.806" y="-18" font-family="Helvetica,sans-Serif" font-size="10.00">AR_WPNav::get_default</text>
<text text-anchor="middle" x="396" y="-6" font-family="Helvetica,sans-Serif" font-size="10.00">_speed</text>
</a>
</g>
</g>
<!-- Node603&#45;&gt;Node605 -->
<g id="edge3" class="edge"><title>Node603&#45;&gt;Node605</title>
<path fill="none" stroke="midnightblue" d="M297.631,-29.305C306.16,-28.1396 314.953,-26.9381 323.604,-25.756"/>
<polygon fill="midnightblue" stroke="midnightblue" points="324.236,-29.2022 333.67,-24.3805 323.288,-22.2667 324.236,-29.2022"/>
</g>
</g>
</svg>
