<?xml version="1.0" encoding="UTF-8" standalone="no"?>
<!DOCTYPE svg PUBLIC "-//W3C//DTD SVG 1.1//EN"
 "http://www.w3.org/Graphics/SVG/1.1/DTD/svg11.dtd">
<!-- Generated by graphviz version 2.30.1 (20130221.2233)
 -->
<!-- Title: ModeAuto::do_nav_guided_enable Pages: 1 -->
<svg width="798pt" height="313pt"
 viewBox="0.00 0.00 798.00 313.00" xmlns="http://www.w3.org/2000/svg" xmlns:xlink="http://www.w3.org/1999/xlink">
<g id="graph0" class="graph" transform="scale(1 1) rotate(0) translate(4 309)">
<title>ModeAuto::do_nav_guided_enable</title>
<polygon fill="white" stroke="white" points="-4,5 -4,-309 795,-309 795,5 -4,5"/>
<!-- Node72 -->
<g id="node1" class="node"><title>Node72</title>
<g id="a_node1"><a xlink:title=" ">
<polygon fill="#bfbfbf" stroke="black" points="0.229492,-89 0.229492,-121 135.771,-121 135.771,-89 0.229492,-89"/>
<text text-anchor="start" x="8.22949" y="-107" font-family="Helvetica,sans-Serif" font-size="10.00">ModeAuto::do_nav_guided</text>
<text text-anchor="middle" x="68" y="-95" font-family="Helvetica,sans-Serif" font-size="10.00">_enable</text>
</a>
</g>
</g>
<!-- Node73 -->
<g id="node2" class="node"><title>Node73</title>
<g id="a_node2"><a xlink:href="classModeAuto.html#abfeb24c23cf98e335e08d7c8b3d2c3fa" target="_top" xlink:title=" ">
<polygon fill="white" stroke="black" points="171.909,-95 171.909,-115 294.091,-115 294.091,-95 171.909,-95"/>
<text text-anchor="middle" x="233" y="-101" font-family="Helvetica,sans-Serif" font-size="10.00">ModeAuto::start_guided</text>
</a>
</g>
</g>
<!-- Node72&#45;&gt;Node73 -->
<g id="edge1" class="edge"><title>Node72&#45;&gt;Node73</title>
<path fill="none" stroke="midnightblue" d="M136.239,-105C144.594,-105 153.155,-105 161.556,-105"/>
<polygon fill="midnightblue" stroke="midnightblue" points="161.699,-108.5 171.699,-105 161.699,-101.5 161.699,-108.5"/>
</g>
<!-- Node74 -->
<g id="node3" class="node"><title>Node74</title>
<g id="a_node3"><a xlink:href="classMode.html#a3e5c3a5a842021ff17e70b0a65461af3" target="_top" xlink:title=" ">
<polygon fill="white" stroke="black" points="353.318,-136 353.318,-156 422.682,-156 422.682,-136 353.318,-136"/>
<text text-anchor="middle" x="388" y="-142" font-family="Helvetica,sans-Serif" font-size="10.00">Mode::enter</text>
</a>
</g>
</g>
<!-- Node73&#45;&gt;Node74 -->
<g id="edge2" class="edge"><title>Node73&#45;&gt;Node74</title>
<path fill="none" stroke="midnightblue" d="M271.428,-115.03C293.16,-120.853 320.642,-128.218 343.355,-134.304"/>
<polygon fill="midnightblue" stroke="midnightblue" points="342.525,-137.705 353.09,-136.913 344.337,-130.944 342.525,-137.705"/>
</g>
<!-- Node85 -->
<g id="node14" class="node"><title>Node85</title>
<g id="a_node14"><a xlink:href="classModeGuided.html#afc54f480e0bfc48c583ac9a49cab9a01" target="_top" xlink:title=" ">
<polygon fill="white" stroke="black" points="330.532,-49 330.532,-81 445.468,-81 445.468,-49 330.532,-49"/>
<text text-anchor="start" x="338.532" y="-67" font-family="Helvetica,sans-Serif" font-size="10.00">ModeGuided::limit_init</text>
<text text-anchor="middle" x="388" y="-55" font-family="Helvetica,sans-Serif" font-size="10.00">_time_and_location</text>
</a>
</g>
</g>
<!-- Node73&#45;&gt;Node85 -->
<g id="edge13" class="edge"><title>Node73&#45;&gt;Node85</title>
<path fill="none" stroke="midnightblue" d="M272.608,-94.9063C287.124,-91.1114 304.074,-86.68 320.411,-82.4089"/>
<polygon fill="midnightblue" stroke="midnightblue" points="321.687,-85.693 330.477,-79.7773 319.917,-78.9206 321.687,-85.693"/>
</g>
<!-- Node75 -->
<g id="node4" class="node"><title>Node75</title>
<g id="a_node4"><a doxygen="/Users/coreyshive/Documents/schoolcode/ardupilot/docs/tags/libraries:../libraries/" xlink:href="../libraries/classAP__HAL_1_1Util.html#a287a2b82fa30b92c8d52aad61d4d27b7" xlink:title=" ">
<polygon fill="white" stroke="black" points="486.254,-273 486.254,-305 601.746,-305 601.746,-273 486.254,-273"/>
<text text-anchor="start" x="494.254" y="-291" font-family="Helvetica,sans-Serif" font-size="10.00">AP_HAL::Util::get_soft</text>
<text text-anchor="middle" x="544" y="-279" font-family="Helvetica,sans-Serif" font-size="10.00">_armed</text>
</a>
</g>
</g>
<!-- Node74&#45;&gt;Node75 -->
<g id="edge3" class="edge"><title>Node74&#45;&gt;Node75</title>
<path fill="none" stroke="midnightblue" d="M394.67,-156.164C407.513,-178.366 440.926,-231.707 482,-263 484.275,-264.733 486.683,-266.375 489.177,-267.927"/>
<polygon fill="midnightblue" stroke="midnightblue" points="487.487,-270.992 497.917,-272.857 490.926,-264.895 487.487,-270.992"/>
</g>
<!-- Node76 -->
<g id="node5" class="node"><title>Node76</title>
<g id="a_node5"><a xlink:href="classRover.html#af202d295a4f603e08d3c8cadce0bc98d" target="_top" xlink:title=" ">
<polygon fill="white" stroke="black" points="485.138,-234 485.138,-254 602.862,-254 602.862,-234 485.138,-234"/>
<text text-anchor="middle" x="544" y="-240" font-family="Helvetica,sans-Serif" font-size="10.00">Rover::ekf_position_ok</text>
</a>
</g>
</g>
<!-- Node74&#45;&gt;Node76 -->
<g id="edge4" class="edge"><title>Node74&#45;&gt;Node76</title>
<path fill="none" stroke="midnightblue" d="M398.373,-156.035C414.171,-172.41 447.742,-204.956 482,-224 486.164,-226.315 490.639,-228.414 495.204,-230.306"/>
<polygon fill="midnightblue" stroke="midnightblue" points="494.04,-233.608 504.631,-233.899 496.533,-227.067 494.04,-233.608"/>
</g>
<!-- Node79 -->
<g id="node8" class="node"><title>Node79</title>
<g id="a_node8"><a xlink:href="classMode.html#ae5a240ec7efe2623eb88c68beda58a99" target="_top" xlink:title=" ">
<polygon fill="white" stroke="black" points="482.636,-195 482.636,-215 605.364,-215 605.364,-195 482.636,-195"/>
<text text-anchor="middle" x="544" y="-201" font-family="Helvetica,sans-Serif" font-size="10.00">Mode::requires_position</text>
</a>
</g>
</g>
<!-- Node74&#45;&gt;Node79 -->
<g id="edge7" class="edge"><title>Node74&#45;&gt;Node79</title>
<path fill="none" stroke="midnightblue" d="M411.727,-156.133C430.432,-164.326 457.721,-175.946 482,-185 488.099,-187.274 494.59,-189.552 500.977,-191.713"/>
<polygon fill="midnightblue" stroke="midnightblue" points="500.263,-195.164 510.857,-194.996 502.471,-188.521 500.263,-195.164"/>
</g>
<!-- Node80 -->
<g id="node9" class="node"><title>Node80</title>
<g id="a_node9"><a xlink:href="classMode.html#a877262e51b58f132cb52c5977bf13c51" target="_top" xlink:title=" ">
<polygon fill="white" stroke="black" points="483.197,-156 483.197,-176 604.803,-176 604.803,-156 483.197,-156"/>
<text text-anchor="middle" x="544" y="-162" font-family="Helvetica,sans-Serif" font-size="10.00">Mode::requires_velocity</text>
</a>
</g>
</g>
<!-- Node74&#45;&gt;Node80 -->
<g id="edge8" class="edge"><title>Node74&#45;&gt;Node80</title>
<path fill="none" stroke="midnightblue" d="M422.796,-150.389C437.525,-152.302 455.372,-154.62 472.756,-156.877"/>
<polygon fill="midnightblue" stroke="midnightblue" points="472.543,-160.379 482.911,-158.196 473.445,-153.437 472.543,-160.379"/>
</g>
<!-- Node81 -->
<g id="node10" class="node"><title>Node81</title>
<g id="a_node10"><a xlink:href="classMode.html#a6594030a202f6ec5918b427b8a5717e4" target="_top" xlink:title=" ">
<polygon fill="white" stroke="black" points="506.537,-117 506.537,-137 581.463,-137 581.463,-117 506.537,-117"/>
<text text-anchor="middle" x="544" y="-123" font-family="Helvetica,sans-Serif" font-size="10.00">Mode::_enter</text>
</a>
</g>
</g>
<!-- Node74&#45;&gt;Node81 -->
<g id="edge9" class="edge"><title>Node74&#45;&gt;Node81</title>
<path fill="none" stroke="midnightblue" d="M422.796,-141.83C444.314,-139.176 472.488,-135.699 496.151,-132.78"/>
<polygon fill="midnightblue" stroke="midnightblue" points="496.827,-136.223 506.323,-131.525 495.97,-129.276 496.827,-136.223"/>
</g>
<!-- Node82 -->
<g id="node11" class="node"><title>Node82</title>
<g id="a_node11"><a xlink:href="classMode.html#a1733ae28c2e308db5fca2dd79f477ddb" target="_top" xlink:title=" ">
<polygon fill="white" stroke="black" points="491.811,-78 491.811,-98 596.189,-98 596.189,-78 491.811,-78"/>
<text text-anchor="middle" x="544" y="-84" font-family="Helvetica,sans-Serif" font-size="10.00">Mode::set_reversed</text>
</a>
</g>
</g>
<!-- Node74&#45;&gt;Node82 -->
<g id="edge10" class="edge"><title>Node74&#45;&gt;Node82</title>
<path fill="none" stroke="midnightblue" d="M412.518,-135.849C431.212,-127.912 458.1,-116.788 482,-108 488.109,-105.754 494.606,-103.491 500.996,-101.337"/>
<polygon fill="midnightblue" stroke="midnightblue" points="502.488,-104.53 510.877,-98.0586 500.284,-97.8856 502.488,-104.53"/>
</g>
<!-- Node84 -->
<g id="node13" class="node"><title>Node84</title>
<g id="a_node13"><a xlink:href="classSailboat.html#a8541aa08ff963b7802bcc2792ee0887d" target="_top" xlink:title=" ">
<polygon fill="white" stroke="black" points="492.365,-39 492.365,-59 595.635,-59 595.635,-39 492.365,-39"/>
<text text-anchor="middle" x="544" y="-45" font-family="Helvetica,sans-Serif" font-size="10.00">Sailboat::clear_tack</text>
</a>
</g>
</g>
<!-- Node74&#45;&gt;Node84 -->
<g id="edge12" class="edge"><title>Node74&#45;&gt;Node84</title>
<path fill="none" stroke="midnightblue" d="M398.342,-135.908C414.094,-119.451 447.601,-86.7888 482,-68 485.514,-66.0808 489.249,-64.3252 493.074,-62.725"/>
<polygon fill="midnightblue" stroke="midnightblue" points="494.59,-65.8928 502.69,-59.0633 492.099,-59.351 494.59,-65.8928"/>
</g>
<!-- Node77 -->
<g id="node6" class="node"><title>Node77</title>
<g id="a_node6"><a doxygen="/Users/coreyshive/Documents/schoolcode/ardupilot/docs/tags/libraries:../libraries/" xlink:href="../libraries/classAP__AHRS.html#a5b4f593794f7c47d8b13ded289291a85" xlink:title=" ">
<polygon fill="white" stroke="black" points="642.685,-253 642.685,-273 789.315,-273 789.315,-253 642.685,-253"/>
<text text-anchor="middle" x="716" y="-259" font-family="Helvetica,sans-Serif" font-size="10.00">AP_AHRS::have_inertial_nav</text>
</a>
</g>
</g>
<!-- Node76&#45;&gt;Node77 -->
<g id="edge5" class="edge"><title>Node76&#45;&gt;Node77</title>
<path fill="none" stroke="midnightblue" d="M603.029,-250.486C612.551,-251.55 622.578,-252.67 632.557,-253.786"/>
<polygon fill="midnightblue" stroke="midnightblue" points="632.173,-257.265 642.5,-254.897 632.951,-250.308 632.173,-257.265"/>
</g>
<!-- Node78 -->
<g id="node7" class="node"><title>Node78</title>
<g id="a_node7"><a doxygen="/Users/coreyshive/Documents/schoolcode/ardupilot/docs/tags/libraries:../libraries/" xlink:href="../libraries/classAP__Arming.html#aededf89cac3010c297fcef7e8b38e99a" xlink:title=" ">
<polygon fill="white" stroke="black" points="659.37,-214 659.37,-234 772.63,-234 772.63,-214 659.37,-214"/>
<text text-anchor="middle" x="716" y="-220" font-family="Helvetica,sans-Serif" font-size="10.00">AP_Arming::is_armed</text>
</a>
</g>
</g>
<!-- Node76&#45;&gt;Node78 -->
<g id="edge6" class="edge"><title>Node76&#45;&gt;Node78</title>
<path fill="none" stroke="midnightblue" d="M603.029,-237.173C617.8,-235.435 633.783,-233.555 648.922,-231.774"/>
<polygon fill="midnightblue" stroke="midnightblue" points="649.72,-235.204 659.243,-230.56 648.902,-228.252 649.72,-235.204"/>
</g>
<!-- Node83 -->
<g id="node12" class="node"><title>Node83</title>
<g id="a_node12"><a doxygen="/Users/coreyshive/Documents/schoolcode/ardupilot/docs/tags/libraries:../libraries/" xlink:href="../libraries/classAR__WPNav.html#a6f090d47863c1715392b91197397e1e8" xlink:title=" ">
<polygon fill="white" stroke="black" points="649.646,-78 649.646,-98 782.354,-98 782.354,-78 649.646,-78"/>
<text text-anchor="middle" x="716" y="-84" font-family="Helvetica,sans-Serif" font-size="10.00">AR_WPNav::set_reversed</text>
</a>
</g>
</g>
<!-- Node82&#45;&gt;Node83 -->
<g id="edge11" class="edge"><title>Node82&#45;&gt;Node83</title>
<path fill="none" stroke="midnightblue" d="M596.467,-88C609.914,-88 624.695,-88 639.121,-88"/>
<polygon fill="midnightblue" stroke="midnightblue" points="639.539,-91.5001 649.539,-88 639.539,-84.5001 639.539,-91.5001"/>
</g>
<!-- Node86 -->
<g id="node15" class="node"><title>Node86</title>
<g id="a_node15"><a doxygen="/Users/coreyshive/Documents/schoolcode/ardupilot/docs/tags/libraries:../libraries/" xlink:href="../libraries/namespaceAP__HAL.html#a77dffbb18891996280308e21316ec186" xlink:title=" ">
<polygon fill="white" stroke="black" points="502.936,-0 502.936,-20 585.064,-20 585.064,-0 502.936,-0"/>
<text text-anchor="middle" x="544" y="-6" font-family="Helvetica,sans-Serif" font-size="10.00">AP_HAL::millis</text>
</a>
</g>
</g>
<!-- Node85&#45;&gt;Node86 -->
<g id="edge14" class="edge"><title>Node85&#45;&gt;Node86</title>
<path fill="none" stroke="midnightblue" d="M428.607,-48.9909C445.034,-42.5283 464.345,-35.1588 482,-29 487.636,-27.034 493.598,-25.055 499.499,-23.1553"/>
<polygon fill="midnightblue" stroke="midnightblue" points="500.83,-26.4053 509.307,-20.0494 498.717,-19.7319 500.83,-26.4053"/>
</g>
</g>
</svg>
