<?xml version="1.0" encoding="UTF-8" standalone="no"?>
<!DOCTYPE svg PUBLIC "-//W3C//DTD SVG 1.1//EN"
 "http://www.w3.org/Graphics/SVG/1.1/DTD/svg11.dtd">
<!-- Generated by graphviz version 2.30.1 (20130221.2233)
 -->
<!-- Title: ModeGuided::limit_breached Pages: 1 -->
<svg width="658pt" height="40pt"
 viewBox="0.00 0.00 658.00 40.00" xmlns="http://www.w3.org/2000/svg" xmlns:xlink="http://www.w3.org/1999/xlink">
<g id="graph0" class="graph" transform="scale(1 1) rotate(0) translate(4 36)">
<title>ModeGuided::limit_breached</title>
<polygon fill="white" stroke="white" points="-4,5 -4,-36 655,-36 655,5 -4,5"/>
<!-- Node25 -->
<g id="node1" class="node"><title>Node25</title>
<g id="a_node1"><a xlink:title=" ">
<polygon fill="#bfbfbf" stroke="black" points="506.074,-6 506.074,-26 649.926,-26 649.926,-6 506.074,-6"/>
<text text-anchor="middle" x="578" y="-12" font-family="Helvetica,sans-Serif" font-size="10.00">ModeGuided::limit_breached</text>
</a>
</g>
</g>
<!-- Node26 -->
<g id="node2" class="node"><title>Node26</title>
<g id="a_node2"><a xlink:href="classModeAuto.html#ab7a8d306e44059bf8f33ee9433303f84" target="_top" xlink:title=" ">
<polygon fill="white" stroke="black" points="356.641,-0 356.641,-32 469.359,-32 469.359,-0 356.641,-0"/>
<text text-anchor="start" x="364.641" y="-18" font-family="Helvetica,sans-Serif" font-size="10.00">ModeAuto::verify_nav</text>
<text text-anchor="middle" x="413" y="-6" font-family="Helvetica,sans-Serif" font-size="10.00">_guided_enable</text>
</a>
</g>
</g>
<!-- Node25&#45;&gt;Node26 -->
<g id="edge1" class="edge"><title>Node25&#45;&gt;Node26</title>
<path fill="none" stroke="midnightblue" d="M495.938,-16C487.021,-16 478.097,-16 469.593,-16"/>
<polygon fill="midnightblue" stroke="midnightblue" points="495.98,-19.5001 505.98,-16 495.98,-12.5001 495.98,-19.5001"/>
</g>
<!-- Node27 -->
<g id="node3" class="node"><title>Node27</title>
<g id="a_node3"><a xlink:href="classModeAuto.html#a68ae08d299120c6552dd5a37b45439f3" target="_top" xlink:title=" ">
<polygon fill="white" stroke="black" points="178.749,-6 178.749,-26 319.251,-26 319.251,-6 178.749,-6"/>
<text text-anchor="middle" x="249" y="-12" font-family="Helvetica,sans-Serif" font-size="10.00">ModeAuto::verify_command</text>
</a>
</g>
</g>
<!-- Node26&#45;&gt;Node27 -->
<g id="edge2" class="edge"><title>Node26&#45;&gt;Node27</title>
<path fill="none" stroke="midnightblue" d="M346.044,-16C337.233,-16 328.175,-16 319.308,-16"/>
<polygon fill="midnightblue" stroke="midnightblue" points="346.249,-19.5001 356.249,-16 346.249,-12.5001 346.249,-19.5001"/>
</g>
<!-- Node28 -->
<g id="node4" class="node"><title>Node28</title>
<g id="a_node4"><a xlink:href="classModeAuto.html#a1899b23f1742e4fd6a84d06f351f1577" target="_top" xlink:title=" ">
<polygon fill="white" stroke="black" points="0.749023,-0 0.749023,-32 141.251,-32 141.251,-0 0.749023,-0"/>
<text text-anchor="start" x="8.74902" y="-18" font-family="Helvetica,sans-Serif" font-size="10.00">ModeAuto::verify_command</text>
<text text-anchor="middle" x="71" y="-6" font-family="Helvetica,sans-Serif" font-size="10.00">_callback</text>
</a>
</g>
</g>
<!-- Node27&#45;&gt;Node28 -->
<g id="edge3" class="edge"><title>Node27&#45;&gt;Node28</title>
<path fill="none" stroke="midnightblue" d="M168.579,-16C159.557,-16 150.413,-16 141.533,-16"/>
<polygon fill="midnightblue" stroke="midnightblue" points="168.693,-19.5001 178.693,-16 168.693,-12.5001 168.693,-19.5001"/>
</g>
</g>
</svg>
