<?xml version="1.0" encoding="UTF-8" standalone="no"?>
<!DOCTYPE svg PUBLIC "-//W3C//DTD SVG 1.1//EN"
 "http://www.w3.org/Graphics/SVG/1.1/DTD/svg11.dtd">
<!-- Generated by graphviz version 2.30.1 (20130221.2233)
 -->
<!-- Title: Rover::Log_Write_Attitude Pages: 1 -->
<!--zoomable 658 -->
<svg id="main" version="1.1" xmlns="http://www.w3.org/2000/svg" xmlns:xlink="http://www.w3.org/1999/xlink" xml:space="preserve" onload="init(evt)">
<style type="text/css"><![CDATA[
.edge:hover path { stroke: red; }
.edge:hover polygon { stroke: red; fill: red; }
]]></style>
<script type="text/javascript"><![CDATA[
var edges = document.getElementsByTagName('g');
if (edges && edges.length) {
  for (var i=0;i<edges.length;i++) {
    if (edges[i].id.substr(0,4)=='edge') {
      edges[i].setAttribute('class','edge');
    }
  }
}
]]></script>
        <defs>
                <circle id="rim" cx="0" cy="0" r="7"/>
                <circle id="rim2" cx="0" cy="0" r="3.5"/>
                <g id="zoomPlus">
                        <use xlink:href="#rim" fill="#404040">
                                <set attributeName="fill" to="#808080" begin="zoomplus.mouseover" end="zoomplus.mouseout"/>
                        </use>
                        <path d="M-4,0h8M0,-4v8" fill="none" stroke="white" stroke-width="1.5" pointer-events="none"/>
                </g>
                <g id="zoomMin">
                        <use xlink:href="#rim" fill="#404040">
                                <set attributeName="fill" to="#808080" begin="zoomminus.mouseover" end="zoomminus.mouseout"/>
                        </use>
                        <path d="M-4,0h8" fill="none" stroke="white" stroke-width="1.5" pointer-events="none"/>
                </g>
                <g id="dirArrow">
                        <path fill="none" stroke="white" stroke-width="1.5" d="M0,-3.0v7 M-2.5,-0.5L0,-3.0L2.5,-0.5"/>
                </g>
               <g id="resetDef">
                       <use xlink:href="#rim2" fill="#404040">
                               <set attributeName="fill" to="#808080" begin="reset.mouseover" end="reset.mouseout"/>
                       </use>
               </g>
        </defs>

<script type="text/javascript">
var viewWidth = 312;
var viewHeight = 658;
var sectionId = 'dynsection-56';
</script>
<script xlink:href="svgpan.js"/>
<svg id="graph" class="graph">
<g id="viewport">
<title>Rover::Log_Write_Attitude</title>
<polygon fill="white" stroke="white" points="-4,5 -4,-654 309,-654 309,5 -4,5"/>
<!-- Node803 -->
<g id="node1" class="node"><title>Node803</title>
<g id="a_node1"><a xlink:title=" ">
<polygon fill="#bfbfbf" stroke="black" points="0.447754,-327 0.447754,-347 133.552,-347 133.552,-327 0.447754,-327"/>
<text text-anchor="middle" x="67" y="-333" font-family="Helvetica,sans-Serif" font-size="10.00">Rover::Log_Write_Attitude</text>
</a>
</g>
</g>
<!-- Node804 -->
<g id="node2" class="node"><title>Node804</title>
<g id="a_node2"><a doxygen="/Users/coreyshive/Documents/schoolcode/ardupilot/docs/tags/libraries:../libraries/" xlink:href="../libraries/classAR__AttitudeControl.html#a2084694eb9a99628d13587ad4e1b0189" xlink:title=" ">
<polygon fill="white" stroke="black" points="186.2,-618 186.2,-650 287.8,-650 287.8,-618 186.2,-618"/>
<text text-anchor="start" x="194.2" y="-636" font-family="Helvetica,sans-Serif" font-size="10.00">AR_AttitudeControl</text>
<text text-anchor="middle" x="237" y="-624" font-family="Helvetica,sans-Serif" font-size="10.00">::get_desired_pitch</text>
</a>
</g>
</g>
<!-- Node803&#45;&gt;Node804 -->
<g id="edge1" class="edge"><title>Node803&#45;&gt;Node804</title>
<path fill="none" stroke="midnightblue" d="M68.9073,-347.162C72.9337,-386.349 92.5733,-529.381 170,-608 172.147,-610.18 174.499,-612.182 176.995,-614.019"/>
<polygon fill="midnightblue" stroke="midnightblue" points="175.627,-617.293 185.955,-619.655 179.354,-611.368 175.627,-617.293"/>
</g>
<!-- Node805 -->
<g id="node3" class="node"><title>Node805</title>
<g id="a_node3"><a doxygen="/Users/coreyshive/Documents/schoolcode/ardupilot/docs/tags/libraries:../libraries/" xlink:href="../libraries/classAP__Logger.html#a4c336fe54e2d93b84e04094d506b3dd7" xlink:title=" ">
<polygon fill="white" stroke="black" points="169.889,-579 169.889,-599 304.111,-599 304.111,-579 169.889,-579"/>
<text text-anchor="middle" x="237" y="-585" font-family="Helvetica,sans-Serif" font-size="10.00">AP_Logger::Write_Attitude</text>
</a>
</g>
</g>
<!-- Node803&#45;&gt;Node805 -->
<g id="edge2" class="edge"><title>Node803&#45;&gt;Node805</title>
<path fill="none" stroke="midnightblue" d="M69.4066,-347.102C74.9443,-383.003 98.5611,-505.657 170,-569 171.999,-570.772 174.151,-572.388 176.414,-573.86"/>
<polygon fill="midnightblue" stroke="midnightblue" points="175.147,-577.155 185.604,-578.858 178.491,-571.006 175.147,-577.155"/>
</g>
<!-- Node806 -->
<g id="node4" class="node"><title>Node806</title>
<g id="a_node4"><a doxygen="/Users/coreyshive/Documents/schoolcode/ardupilot/docs/tags/libraries:../libraries/" xlink:href="../libraries/namespaceAP.html#ab742b8c41eb0a08e79d6fbec520a87a4" xlink:title=" ">
<polygon fill="white" stroke="black" points="192.313,-540 192.313,-560 281.687,-560 281.687,-540 192.313,-540"/>
<text text-anchor="middle" x="237" y="-546" font-family="Helvetica,sans-Serif" font-size="10.00">AP::ahrs_navekf</text>
</a>
</g>
</g>
<!-- Node803&#45;&gt;Node806 -->
<g id="edge3" class="edge"><title>Node803&#45;&gt;Node806</title>
<path fill="none" stroke="midnightblue" d="M70.3945,-347.16C78.4631,-379.141 107.712,-478.652 170,-530 173.785,-533.12 178.049,-535.754 182.541,-537.977"/>
<polygon fill="midnightblue" stroke="midnightblue" points="181.431,-541.307 192.004,-541.987 184.162,-534.862 181.431,-541.307"/>
</g>
<!-- Node807 -->
<g id="node5" class="node"><title>Node807</title>
<g id="a_node5"><a doxygen="/Users/coreyshive/Documents/schoolcode/ardupilot/docs/tags/libraries:../libraries/" xlink:href="../libraries/classAP__AHRS__NavEKF.html#a1c5d4cbc750d19efec25a619c34be78a" xlink:title=" ">
<polygon fill="white" stroke="black" points="173.141,-489 173.141,-521 300.859,-521 300.859,-489 173.141,-489"/>
<text text-anchor="start" x="181.141" y="-507" font-family="Helvetica,sans-Serif" font-size="10.00">AP_AHRS_NavEKF::Log</text>
<text text-anchor="middle" x="237" y="-495" font-family="Helvetica,sans-Serif" font-size="10.00">_Write</text>
</a>
</g>
</g>
<!-- Node803&#45;&gt;Node807 -->
<g id="edge4" class="edge"><title>Node803&#45;&gt;Node807</title>
<path fill="none" stroke="midnightblue" d="M72.6859,-347.11C85.0304,-372.711 120.903,-440.771 170,-479 172.277,-480.773 174.691,-482.44 177.197,-484.004"/>
<polygon fill="midnightblue" stroke="midnightblue" points="175.572,-487.106 186.008,-488.937 178.992,-480.998 175.572,-487.106"/>
</g>
<!-- Node808 -->
<g id="node6" class="node"><title>Node808</title>
<g id="a_node6"><a doxygen="/Users/coreyshive/Documents/schoolcode/ardupilot/docs/tags/libraries:../libraries/" xlink:href="../libraries/classAP__Logger.html#aed70a5399cf11fc2a6acefe9d8567981" xlink:title=" ">
<polygon fill="white" stroke="black" points="170.172,-450 170.172,-470 303.828,-470 303.828,-450 170.172,-450"/>
<text text-anchor="middle" x="237" y="-456" font-family="Helvetica,sans-Serif" font-size="10.00">AP_Logger::Write_AHRS2</text>
</a>
</g>
</g>
<!-- Node803&#45;&gt;Node808 -->
<g id="edge5" class="edge"><title>Node803&#45;&gt;Node808</title>
<path fill="none" stroke="midnightblue" d="M75.22,-347.127C90.4047,-367.691 127.75,-414.544 170,-440 173.854,-442.322 177.998,-444.393 182.265,-446.237"/>
<polygon fill="midnightblue" stroke="midnightblue" points="181.147,-449.558 191.736,-449.92 183.685,-443.034 181.147,-449.558"/>
</g>
<!-- Node809 -->
<g id="node7" class="node"><title>Node809</title>
<g id="a_node7"><a doxygen="/Users/coreyshive/Documents/schoolcode/ardupilot/docs/tags/libraries:../libraries/" xlink:href="../libraries/classAP__Logger.html#a419829e32e08996981e1b0965efcb4eb" xlink:title=" ">
<polygon fill="white" stroke="black" points="176.285,-411 176.285,-431 297.715,-431 297.715,-411 176.285,-411"/>
<text text-anchor="middle" x="237" y="-417" font-family="Helvetica,sans-Serif" font-size="10.00">AP_Logger::Write_POS</text>
</a>
</g>
</g>
<!-- Node803&#45;&gt;Node809 -->
<g id="edge6" class="edge"><title>Node803&#45;&gt;Node809</title>
<path fill="none" stroke="midnightblue" d="M81.5245,-347.142C100.455,-360.941 136.324,-385.666 170,-401 175.375,-403.448 181.129,-405.694 186.917,-407.727"/>
<polygon fill="midnightblue" stroke="midnightblue" points="186.034,-411.122 196.627,-410.943 188.235,-404.477 186.034,-411.122"/>
</g>
<!-- Node810 -->
<g id="node8" class="node"><title>Node810</title>
<g id="a_node8"><a doxygen="/Users/coreyshive/Documents/schoolcode/ardupilot/docs/tags/libraries:../libraries/" xlink:href="../libraries/classAP__Logger.html#a701a7e49b05ee33e37491945c7178c4b" xlink:title=" ">
<polygon fill="white" stroke="black" points="178.509,-372 178.509,-392 295.491,-392 295.491,-372 178.509,-372"/>
<text text-anchor="middle" x="237" y="-378" font-family="Helvetica,sans-Serif" font-size="10.00">AP_Logger::Write_PID</text>
</a>
</g>
</g>
<!-- Node803&#45;&gt;Node810 -->
<g id="edge7" class="edge"><title>Node803&#45;&gt;Node810</title>
<path fill="none" stroke="midnightblue" d="M105.702,-347.099C130.236,-353.67 162.433,-362.295 188.683,-369.326"/>
<polygon fill="midnightblue" stroke="midnightblue" points="187.858,-372.728 198.423,-371.935 189.669,-365.967 187.858,-372.728"/>
</g>
<!-- Node811 -->
<g id="node9" class="node"><title>Node811</title>
<g id="a_node9"><a doxygen="/Users/coreyshive/Documents/schoolcode/ardupilot/docs/tags/libraries:../libraries/" xlink:href="../libraries/classAR__AttitudeControl.html#a3b15bba5bc072e3ea9d7b595fd9cfd35" xlink:title=" ">
<polygon fill="white" stroke="black" points="177.853,-321 177.853,-353 296.147,-353 296.147,-321 177.853,-321"/>
<text text-anchor="start" x="185.853" y="-339" font-family="Helvetica,sans-Serif" font-size="10.00">AR_AttitudeControl</text>
<text text-anchor="middle" x="237" y="-327" font-family="Helvetica,sans-Serif" font-size="10.00">::get_steering_rate_pid</text>
</a>
</g>
</g>
<!-- Node803&#45;&gt;Node811 -->
<g id="edge8" class="edge"><title>Node803&#45;&gt;Node811</title>
<path fill="none" stroke="midnightblue" d="M133.916,-337C144.966,-337 156.454,-337 167.565,-337"/>
<polygon fill="midnightblue" stroke="midnightblue" points="167.641,-340.5 177.641,-337 167.641,-333.5 167.641,-340.5"/>
</g>
<!-- Node812 -->
<g id="node10" class="node"><title>Node812</title>
<g id="a_node10"><a doxygen="/Users/coreyshive/Documents/schoolcode/ardupilot/docs/tags/libraries:../libraries/" xlink:href="../libraries/classAC__PID.html#a76473622105f65e201cd106f127d220c" xlink:title=" ">
<polygon fill="white" stroke="black" points="180.914,-282 180.914,-302 293.086,-302 293.086,-282 180.914,-282"/>
<text text-anchor="middle" x="237" y="-288" font-family="Helvetica,sans-Serif" font-size="10.00">AC_PID::get_pid_info</text>
</a>
</g>
</g>
<!-- Node803&#45;&gt;Node812 -->
<g id="edge9" class="edge"><title>Node803&#45;&gt;Node812</title>
<path fill="none" stroke="midnightblue" d="M105.702,-326.901C130.236,-320.33 162.433,-311.705 188.683,-304.674"/>
<polygon fill="midnightblue" stroke="midnightblue" points="189.669,-308.033 198.423,-302.065 187.858,-301.272 189.669,-308.033"/>
</g>
<!-- Node813 -->
<g id="node11" class="node"><title>Node813</title>
<g id="a_node11"><a doxygen="/Users/coreyshive/Documents/schoolcode/ardupilot/docs/tags/libraries:../libraries/" xlink:href="../libraries/classAR__AttitudeControl.html#a8a151b72c407d3e2f5d51d44ba3bf86a" xlink:title=" ">
<polygon fill="white" stroke="black" points="175.348,-231 175.348,-263 298.652,-263 298.652,-231 175.348,-231"/>
<text text-anchor="start" x="183.348" y="-249" font-family="Helvetica,sans-Serif" font-size="10.00">AR_AttitudeControl</text>
<text text-anchor="middle" x="237" y="-237" font-family="Helvetica,sans-Serif" font-size="10.00">::get_throttle_speed_pid</text>
</a>
</g>
</g>
<!-- Node803&#45;&gt;Node813 -->
<g id="edge10" class="edge"><title>Node803&#45;&gt;Node813</title>
<path fill="none" stroke="midnightblue" d="M82.3654,-326.788C101.672,-313.347 137.346,-289.497 170,-273 174.004,-270.977 178.204,-269.004 182.464,-267.107"/>
<polygon fill="midnightblue" stroke="midnightblue" points="184.023,-270.246 191.832,-263.085 181.262,-263.814 184.023,-270.246"/>
</g>
<!-- Node814 -->
<g id="node12" class="node"><title>Node814</title>
<g id="a_node12"><a xlink:href="classRover.html#a9a7e3a45cefcd29348b819d4c9acc24c" target="_top" xlink:title=" ">
<polygon fill="white" stroke="black" points="182.027,-192 182.027,-212 291.973,-212 291.973,-192 182.027,-192"/>
<text text-anchor="middle" x="237" y="-198" font-family="Helvetica,sans-Serif" font-size="10.00">Rover::is_balancebot</text>
</a>
</g>
</g>
<!-- Node803&#45;&gt;Node814 -->
<g id="edge11" class="edge"><title>Node803&#45;&gt;Node814</title>
<path fill="none" stroke="midnightblue" d="M74.2675,-326.696C88.4514,-304.247 125.281,-250.646 170,-222 173.573,-219.711 177.421,-217.673 181.4,-215.86"/>
<polygon fill="midnightblue" stroke="midnightblue" points="182.903,-219.027 190.854,-212.025 180.272,-212.54 182.903,-219.027"/>
</g>
<!-- Node815 -->
<g id="node13" class="node"><title>Node815</title>
<g id="a_node13"><a doxygen="/Users/coreyshive/Documents/schoolcode/ardupilot/docs/tags/libraries:../libraries/" xlink:href="../libraries/classAR__AttitudeControl.html#a2d313517d6f23ff3de73009148c35c43" xlink:title=" ">
<polygon fill="white" stroke="black" points="171.458,-141 171.458,-173 302.542,-173 302.542,-141 171.458,-141"/>
<text text-anchor="start" x="179.458" y="-159" font-family="Helvetica,sans-Serif" font-size="10.00">AR_AttitudeControl</text>
<text text-anchor="middle" x="237" y="-147" font-family="Helvetica,sans-Serif" font-size="10.00">::get_pitch_to_throttle_pid</text>
</a>
</g>
</g>
<!-- Node803&#45;&gt;Node815 -->
<g id="edge12" class="edge"><title>Node803&#45;&gt;Node815</title>
<path fill="none" stroke="midnightblue" d="M72.1095,-326.825C83.5588,-299.678 118.405,-224.768 170,-183 172.052,-181.339 174.223,-179.774 176.479,-178.3"/>
<polygon fill="midnightblue" stroke="midnightblue" points="178.629,-181.1 185.528,-173.059 175.12,-175.042 178.629,-181.1"/>
</g>
<!-- Node816 -->
<g id="node14" class="node"><title>Node816</title>
<g id="a_node14"><a xlink:href="classSailboat.html#a1eb421469af96343d846c08c87cdcac1" target="_top" xlink:title=" ">
<polygon fill="white" stroke="black" points="190.357,-102 190.357,-122 283.643,-122 283.643,-102 190.357,-102"/>
<text text-anchor="middle" x="237" y="-108" font-family="Helvetica,sans-Serif" font-size="10.00">Sailboat::enabled</text>
</a>
</g>
</g>
<!-- Node803&#45;&gt;Node816 -->
<g id="edge13" class="edge"><title>Node803&#45;&gt;Node816</title>
<path fill="none" stroke="midnightblue" d="M70.089,-326.691C77.4038,-293.27 105.026,-186.912 170,-132 173.292,-129.218 176.963,-126.823 180.842,-124.76"/>
<polygon fill="midnightblue" stroke="midnightblue" points="182.523,-127.842 190.189,-120.528 179.635,-121.465 182.523,-127.842"/>
</g>
<!-- Node817 -->
<g id="node15" class="node"><title>Node817</title>
<g id="a_node15"><a doxygen="/Users/coreyshive/Documents/schoolcode/ardupilot/docs/tags/libraries:../libraries/" xlink:href="../libraries/classAR__AttitudeControl.html#a91c631283b9d4ee09989e43ce12b4bdb" xlink:title=" ">
<polygon fill="white" stroke="black" points="177.569,-51 177.569,-83 296.431,-83 296.431,-51 177.569,-51"/>
<text text-anchor="start" x="185.569" y="-69" font-family="Helvetica,sans-Serif" font-size="10.00">AR_AttitudeControl</text>
<text text-anchor="middle" x="237" y="-57" font-family="Helvetica,sans-Serif" font-size="10.00">::get_sailboat_heel_pid</text>
</a>
</g>
</g>
<!-- Node803&#45;&gt;Node817 -->
<g id="edge14" class="edge"><title>Node803&#45;&gt;Node817</title>
<path fill="none" stroke="midnightblue" d="M69.3865,-326.845C74.9151,-290.146 98.6605,-162.879 170,-93 171.452,-91.5781 172.99,-90.2314 174.599,-88.9563"/>
<polygon fill="midnightblue" stroke="midnightblue" points="176.833,-91.6697 183.143,-83.1586 172.903,-85.8773 176.833,-91.6697"/>
</g>
<!-- Node818 -->
<g id="node16" class="node"><title>Node818</title>
<g id="a_node16"><a doxygen="/Users/coreyshive/Documents/schoolcode/ardupilot/docs/tags/libraries:../libraries/" xlink:href="../libraries/classSITL_1_1SITL.html#a1c243fd451376bda990525985f49e046" xlink:title=" ">
<polygon fill="white" stroke="black" points="179.625,-0 179.625,-32 294.375,-32 294.375,-0 179.625,-0"/>
<text text-anchor="start" x="187.625" y="-18" font-family="Helvetica,sans-Serif" font-size="10.00">SITL::SITL::Log_Write</text>
<text text-anchor="middle" x="237" y="-6" font-family="Helvetica,sans-Serif" font-size="10.00">_SIMSTATE</text>
</a>
</g>
</g>
<!-- Node803&#45;&gt;Node818 -->
<g id="edge15" class="edge"><title>Node803&#45;&gt;Node818</title>
<path fill="none" stroke="midnightblue" d="M68.5514,-326.814C71.3242,-285.491 87.1296,-128.459 170,-42 171.374,-40.5664 172.837,-39.2102 174.372,-37.9273"/>
<polygon fill="midnightblue" stroke="midnightblue" points="176.444,-40.7491 182.571,-32.1059 172.391,-35.0415 176.444,-40.7491"/>
</g>
</g>
</svg>
        <g id="navigator" transform="translate(0 0)" fill="#404254">
                <rect fill="#f2f5e9" fill-opacity="0.5" stroke="#606060" stroke-width=".5" x="0" y="0" width="60" height="60"/>
                <use id="zoomplus" xlink:href="#zoomPlus" x="17" y="9" onmousedown="handleZoom(evt,'in')"/>
                <use id="zoomminus" xlink:href="#zoomMin" x="42" y="9" onmousedown="handleZoom(evt,'out')"/>
                <use id="reset" xlink:href="#resetDef" x="30" y="36" onmousedown="handleReset()"/>
                <g id="arrowUp" xlink:href="#dirArrow" transform="translate(30 24)" onmousedown="handlePan(0,-1)">
                  <use xlink:href="#rim" fill="#404040">
                        <set attributeName="fill" to="#808080" begin="arrowUp.mouseover" end="arrowUp.mouseout"/>
                  </use>
                  <path fill="none" stroke="white" stroke-width="1.5" d="M0,-3.0v7 M-2.5,-0.5L0,-3.0L2.5,-0.5"/>
                </g>
                <g id="arrowRight" xlink:href="#dirArrow" transform="rotate(90) translate(36 -43)" onmousedown="handlePan(1,0)">
                  <use xlink:href="#rim" fill="#404040">
                        <set attributeName="fill" to="#808080" begin="arrowRight.mouseover" end="arrowRight.mouseout"/>
                  </use>
                  <path fill="none" stroke="white" stroke-width="1.5" d="M0,-3.0v7 M-2.5,-0.5L0,-3.0L2.5,-0.5"/>
                </g>
                <g id="arrowDown" xlink:href="#dirArrow" transform="rotate(180) translate(-30 -48)" onmousedown="handlePan(0,1)">
                  <use xlink:href="#rim" fill="#404040">
                        <set attributeName="fill" to="#808080" begin="arrowDown.mouseover" end="arrowDown.mouseout"/>
                  </use>
                  <path fill="none" stroke="white" stroke-width="1.5" d="M0,-3.0v7 M-2.5,-0.5L0,-3.0L2.5,-0.5"/>
                </g>
                <g id="arrowLeft" xlink:href="#dirArrow" transform="rotate(270) translate(-36 17)" onmousedown="handlePan(-1,0)">
                  <use xlink:href="#rim" fill="#404040">
                        <set attributeName="fill" to="#808080" begin="arrowLeft.mouseover" end="arrowLeft.mouseout"/>
                  </use>
                  <path fill="none" stroke="white" stroke-width="1.5" d="M0,-3.0v7 M-2.5,-0.5L0,-3.0L2.5,-0.5"/>
                </g>
        </g>
        <svg viewBox="0 0 15 15" width="100%" height="30px" preserveAspectRatio="xMaxYMin meet">
         <g id="arrow_out" transform="scale(0.3 0.3)">
          <a xlink:href="classRover_a722c2edfb25d7a173d728b68b4247c8b_cgraph_org.svg" target="_base">
           <rect id="button" ry="5" rx="5" y="6" x="6" height="38" width="38"
                fill="#f2f5e9" fill-opacity="0.5" stroke="#606060" stroke-width="1.0"/>
           <path id="arrow"
             d="M 11.500037,31.436501 C 11.940474,20.09759 22.043105,11.32322 32.158766,21.979434 L 37.068811,17.246167 C 37.068811,17.246167 37.088388,32 37.088388,32 L 22.160133,31.978069 C 22.160133,31.978069 26.997745,27.140456 26.997745,27.140456 C 18.528582,18.264221 13.291696,25.230495 11.500037,31.436501 z"
             style="fill:#404040;"/>
          </a>
         </g>
        </svg>
</svg>
