<?xml version="1.0" encoding="UTF-8" standalone="no"?>
<!DOCTYPE svg PUBLIC "-//W3C//DTD SVG 1.1//EN"
 "http://www.w3.org/Graphics/SVG/1.1/DTD/svg11.dtd">
<!-- Generated by graphviz version 2.30.1 (20130221.2233)
 -->
<!-- Title: RC_Channel_Rover Pages: 1 -->
<svg width="207pt" height="162pt"
 viewBox="0.00 0.00 207.27 162.00" xmlns="http://www.w3.org/2000/svg" xmlns:xlink="http://www.w3.org/1999/xlink">
<g id="graph0" class="graph" transform="scale(1 1) rotate(0) translate(4 158)">
<title>RC_Channel_Rover</title>
<polygon fill="white" stroke="white" points="-4,5 -4,-158 204.271,-158 204.271,5 -4,5"/>
<!-- Node2 -->
<g id="node1" class="node"><title>Node2</title>
<g id="a_node1"><a xlink:title=" ">
<polygon fill="#bfbfbf" stroke="black" points="4.25391,-1 4.25391,-21 109.746,-21 109.746,-1 4.25391,-1"/>
<text text-anchor="middle" x="57" y="-7" font-family="Helvetica,sans-Serif" font-size="10.00">RC_Channel_Rover</text>
</a>
</g>
</g>
<!-- Node3 -->
<g id="node2" class="node"><title>Node3</title>
<g id="a_node2"><a doxygen="/Users/coreyshive/Documents/schoolcode/ardupilot/docs/tags/libraries:../libraries/" xlink:href="../libraries/classRC__Channel.html" xlink:title=" ">
<polygon fill="white" stroke="black" points="20.3721,-61 20.3721,-81 93.6279,-81 93.6279,-61 20.3721,-61"/>
<text text-anchor="middle" x="57" y="-67" font-family="Helvetica,sans-Serif" font-size="10.00">RC_Channel</text>
</a>
</g>
</g>
<!-- Node3&#45;&gt;Node2 -->
<g id="edge1" class="edge"><title>Node3&#45;&gt;Node2</title>
<path fill="none" stroke="midnightblue" d="M57,-50.7309C57,-40.7807 57,-29.1016 57,-21.1903"/>
<polygon fill="midnightblue" stroke="midnightblue" points="53.5001,-50.9375 57,-60.9375 60.5001,-50.9375 53.5001,-50.9375"/>
</g>
<!-- Node4 -->
<g id="node3" class="node"><title>Node4</title>
<g id="a_node3"><a doxygen="/Users/coreyshive/Documents/schoolcode/ardupilot/docs/tags/libraries:../libraries/" xlink:href="../libraries/structAP__Param_1_1GroupInfo.html" xlink:title=" ">
<polygon fill="white" stroke="black" points="-0.191895,-132 -0.191895,-152 114.192,-152 114.192,-132 -0.191895,-132"/>
<text text-anchor="middle" x="57" y="-138" font-family="Helvetica,sans-Serif" font-size="10.00">AP_Param::GroupInfo</text>
</a>
</g>
</g>
<!-- Node4&#45;&gt;Node3 -->
<g id="edge2" class="edge"><title>Node4&#45;&gt;Node3</title>
<path fill="none" stroke="#9a32cd" stroke-dasharray="5,2" d="M57,-121.581C57,-108.379 57,-91.5106 57,-81.243"/>
<polygon fill="#9a32cd" stroke="#9a32cd" points="53.5001,-121.979 57,-131.979 60.5001,-121.979 53.5001,-121.979"/>
<text text-anchor="middle" x="76.1772" y="-102" font-family="Helvetica,sans-Serif" font-size="10.00"> var_info</text>
</g>
<!-- Node4&#45;&gt;Node4 -->
<g id="edge3" class="edge"><title>Node4&#45;&gt;Node4</title>
<path fill="none" stroke="#9a32cd" stroke-dasharray="5,2" d="M124.441,-146.914C129.138,-145.791 132,-144.153 132,-142 132,-138.555 124.673,-136.428 114.226,-135.621"/>
<polygon fill="#9a32cd" stroke="#9a32cd" points="123.628,-143.495 114.226,-148.379 124.621,-150.424 123.628,-143.495"/>
<text text-anchor="middle" x="165.635" y="-144" font-family="Helvetica,sans-Serif" font-size="10.00"> group_info_ptr</text>
<text text-anchor="middle" x="165.635" y="-132" font-family="Helvetica,sans-Serif" font-size="10.00">group_info</text>
</g>
</g>
</svg>
