<?xml version="1.0" encoding="UTF-8" standalone="no"?>
<!DOCTYPE svg PUBLIC "-//W3C//DTD SVG 1.1//EN"
 "http://www.w3.org/Graphics/SVG/1.1/DTD/svg11.dtd">
<!-- Generated by graphviz version 2.30.1 (20130221.2233)
 -->
<!-- Title: GCS_MAVLINK_Rover::set_home_to_current_location Pages: 1 -->
<svg width="816pt" height="364pt"
 viewBox="0.00 0.00 816.00 364.00" xmlns="http://www.w3.org/2000/svg" xmlns:xlink="http://www.w3.org/1999/xlink">
<g id="graph0" class="graph" transform="scale(1 1) rotate(0) translate(4 360)">
<title>GCS_MAVLINK_Rover::set_home_to_current_location</title>
<polygon fill="white" stroke="white" points="-4,5 -4,-360 813,-360 813,5 -4,5"/>
<!-- Node208 -->
<g id="node1" class="node"><title>Node208</title>
<g id="a_node1"><a xlink:title=" ">
<polygon fill="#bfbfbf" stroke="black" points="-0.0942383,-175 -0.0942383,-219 124.094,-219 124.094,-175 -0.0942383,-175"/>
<text text-anchor="start" x="7.90576" y="-205" font-family="Helvetica,sans-Serif" font-size="10.00">GCS_MAVLINK_Rover::</text>
<text text-anchor="start" x="7.90576" y="-193" font-family="Helvetica,sans-Serif" font-size="10.00">set_home_to_current</text>
<text text-anchor="middle" x="62" y="-181" font-family="Helvetica,sans-Serif" font-size="10.00">_location</text>
</a>
</g>
</g>
<!-- Node209 -->
<g id="node2" class="node"><title>Node209</title>
<g id="a_node2"><a xlink:href="classRover.html#ad45993c4b970c37110a9762e867accf5" target="_top" xlink:title=" ">
<polygon fill="white" stroke="black" points="159.976,-181 159.976,-213 266.024,-213 266.024,-181 159.976,-181"/>
<text text-anchor="start" x="167.976" y="-199" font-family="Helvetica,sans-Serif" font-size="10.00">Rover::set_home_to</text>
<text text-anchor="middle" x="213" y="-187" font-family="Helvetica,sans-Serif" font-size="10.00">_current_location</text>
</a>
</g>
</g>
<!-- Node208&#45;&gt;Node209 -->
<g id="edge1" class="edge"><title>Node208&#45;&gt;Node209</title>
<path fill="none" stroke="midnightblue" d="M124.464,-197C132.785,-197 141.33,-197 149.665,-197"/>
<polygon fill="midnightblue" stroke="midnightblue" points="149.701,-200.5 159.701,-197 149.701,-193.5 149.701,-200.5"/>
</g>
<!-- Node210 -->
<g id="node3" class="node"><title>Node210</title>
<g id="a_node3"><a doxygen="/Users/coreyshive/Documents/schoolcode/ardupilot/docs/tags/libraries:../libraries/" xlink:href="../libraries/classAP__AHRS.html#a5b4f593794f7c47d8b13ded289291a85" xlink:title=" ">
<polygon fill="white" stroke="black" points="304.685,-246 304.685,-266 451.315,-266 451.315,-246 304.685,-246"/>
<text text-anchor="middle" x="378" y="-252" font-family="Helvetica,sans-Serif" font-size="10.00">AP_AHRS::have_inertial_nav</text>
</a>
</g>
</g>
<!-- Node209&#45;&gt;Node210 -->
<g id="edge2" class="edge"><title>Node209&#45;&gt;Node210</title>
<path fill="none" stroke="midnightblue" d="M246.933,-213.066C263.253,-220.647 283.403,-229.445 302,-236 309.328,-238.583 317.159,-241.017 324.896,-243.238"/>
<polygon fill="midnightblue" stroke="midnightblue" points="324.027,-246.629 334.599,-245.933 325.9,-239.884 324.027,-246.629"/>
</g>
<!-- Node211 -->
<g id="node4" class="node"><title>Node211</title>
<g id="a_node4"><a doxygen="/Users/coreyshive/Documents/schoolcode/ardupilot/docs/tags/libraries:../libraries/" xlink:href="../libraries/classAP__AHRS__DCM.html#a43e3b61c13ecdfd2b3b3a2b33c359993" xlink:title=" ">
<polygon fill="white" stroke="black" points="302.747,-207 302.747,-227 453.253,-227 453.253,-207 302.747,-207"/>
<text text-anchor="middle" x="378" y="-213" font-family="Helvetica,sans-Serif" font-size="10.00">AP_AHRS_DCM::get_position</text>
</a>
</g>
</g>
<!-- Node209&#45;&gt;Node211 -->
<g id="edge3" class="edge"><title>Node209&#45;&gt;Node211</title>
<path fill="none" stroke="midnightblue" d="M266.471,-203.438C274.856,-204.467 283.712,-205.554 292.615,-206.646"/>
<polygon fill="midnightblue" stroke="midnightblue" points="292.31,-210.135 302.662,-207.879 293.163,-203.187 292.31,-210.135"/>
</g>
<!-- Node212 -->
<g id="node5" class="node"><title>Node212</title>
<g id="a_node5"><a xlink:href="classRover.html#a6804571d9fda75e20e973b8c005e3bfc" target="_top" xlink:title=" ">
<polygon fill="white" stroke="black" points="331.926,-168 331.926,-188 424.074,-188 424.074,-168 331.926,-168"/>
<text text-anchor="middle" x="378" y="-174" font-family="Helvetica,sans-Serif" font-size="10.00">Rover::set_home</text>
</a>
</g>
</g>
<!-- Node209&#45;&gt;Node212 -->
<g id="edge4" class="edge"><title>Node209&#45;&gt;Node212</title>
<path fill="none" stroke="midnightblue" d="M266.471,-190.884C284.054,-188.834 303.709,-186.543 321.515,-184.468"/>
<polygon fill="midnightblue" stroke="midnightblue" points="322.227,-187.908 331.754,-183.274 321.416,-180.955 322.227,-187.908"/>
</g>
<!-- Node223 -->
<g id="node16" class="node"><title>Node223</title>
<g id="a_node16"><a doxygen="/Users/coreyshive/Documents/schoolcode/ardupilot/docs/tags/libraries:../libraries/" xlink:href="../libraries/classAP__SmartRTL.html#ab385d8b52e321f9a01d01b42e52e0c4b" xlink:title=" ">
<polygon fill="white" stroke="black" points="313.12,-129 313.12,-149 442.88,-149 442.88,-129 313.12,-129"/>
<text text-anchor="middle" x="378" y="-135" font-family="Helvetica,sans-Serif" font-size="10.00">AP_SmartRTL::set_home</text>
</a>
</g>
</g>
<!-- Node209&#45;&gt;Node223 -->
<g id="edge15" class="edge"><title>Node209&#45;&gt;Node223</title>
<path fill="none" stroke="midnightblue" d="M248.227,-180.827C264.326,-173.582 283.921,-165.276 302,-159 309.43,-156.421 317.369,-153.978 325.201,-151.744"/>
<polygon fill="midnightblue" stroke="midnightblue" points="326.31,-155.069 335.016,-149.031 324.445,-148.322 326.31,-155.069"/>
</g>
<!-- Node213 -->
<g id="node6" class="node"><title>Node213</title>
<g id="a_node6"><a doxygen="/Users/coreyshive/Documents/schoolcode/ardupilot/docs/tags/libraries:../libraries/" xlink:href="../libraries/classAP__AHRS.html#a4ffe6b0b13f7f4106740105101fed115" xlink:title=" ">
<polygon fill="white" stroke="black" points="508.53,-336 508.53,-356 633.47,-356 633.47,-336 508.53,-336"/>
<text text-anchor="middle" x="571" y="-342" font-family="Helvetica,sans-Serif" font-size="10.00">AP_AHRS::home_is_set</text>
</a>
</g>
</g>
<!-- Node212&#45;&gt;Node213 -->
<g id="edge5" class="edge"><title>Node212&#45;&gt;Node213</title>
<path fill="none" stroke="midnightblue" d="M424.161,-182.187C435.097,-185.164 445.942,-190.05 454,-198 496.07,-239.503 447.607,-284.827 490,-326 492.782,-328.702 495.872,-331.057 499.173,-333.107"/>
<polygon fill="midnightblue" stroke="midnightblue" points="497.846,-336.361 508.336,-337.851 501.065,-330.145 497.846,-336.361"/>
</g>
<!-- Node214 -->
<g id="node7" class="node"><title>Node214</title>
<g id="a_node7"><a doxygen="/Users/coreyshive/Documents/schoolcode/ardupilot/docs/tags/libraries:../libraries/" xlink:href="../libraries/classAP__AHRS__DCM.html#afaedde8606bdd549cccaab7283673e4e" xlink:title=" ">
<polygon fill="white" stroke="black" points="500.754,-297 500.754,-317 641.246,-317 641.246,-297 500.754,-297"/>
<text text-anchor="middle" x="571" y="-303" font-family="Helvetica,sans-Serif" font-size="10.00">AP_AHRS_DCM::set_home</text>
</a>
</g>
</g>
<!-- Node212&#45;&gt;Node214 -->
<g id="edge6" class="edge"><title>Node212&#45;&gt;Node214</title>
<path fill="none" stroke="midnightblue" d="M424.366,-183.02C435.047,-186.004 445.718,-190.685 454,-198 485.98,-226.248 457.801,-259.003 490,-287 492.032,-288.767 494.198,-290.383 496.467,-291.859"/>
<polygon fill="midnightblue" stroke="midnightblue" points="495.209,-295.161 505.661,-296.892 498.57,-289.02 495.209,-295.161"/>
</g>
<!-- Node215 -->
<g id="node8" class="node"><title>Node215</title>
<g id="a_node8"><a xlink:href="classRover.html#aaa1afb06ac8bd161128d1d0e9cea9913" target="_top" xlink:title=" ">
<polygon fill="white" stroke="black" points="522.697,-258 522.697,-278 619.303,-278 619.303,-258 522.697,-258"/>
<text text-anchor="middle" x="571" y="-264" font-family="Helvetica,sans-Serif" font-size="10.00">Rover::should_log</text>
</a>
</g>
</g>
<!-- Node212&#45;&gt;Node215 -->
<g id="edge7" class="edge"><title>Node212&#45;&gt;Node215</title>
<path fill="none" stroke="midnightblue" d="M424.412,-184.795C434.738,-187.738 445.236,-191.957 454,-198 476.543,-213.545 467.336,-232.632 490,-248 496.823,-252.627 504.625,-256.184 512.62,-258.919"/>
<polygon fill="midnightblue" stroke="midnightblue" points="511.83,-262.336 522.414,-261.864 513.845,-255.633 511.83,-262.336"/>
</g>
<!-- Node217 -->
<g id="node10" class="node"><title>Node217</title>
<g id="a_node10"><a doxygen="/Users/coreyshive/Documents/schoolcode/ardupilot/docs/tags/libraries:../libraries/" xlink:href="../libraries/classAP__Mission.html#aac82471fe961e31cd0fba02ba7783aba" xlink:title=" ">
<polygon fill="white" stroke="black" points="511.589,-207 511.589,-239 630.411,-239 630.411,-207 511.589,-207"/>
<text text-anchor="start" x="519.589" y="-225" font-family="Helvetica,sans-Serif" font-size="10.00">AP_Mission::read_cmd</text>
<text text-anchor="middle" x="571" y="-213" font-family="Helvetica,sans-Serif" font-size="10.00">_from_storage</text>
</a>
</g>
</g>
<!-- Node212&#45;&gt;Node217 -->
<g id="edge9" class="edge"><title>Node212&#45;&gt;Node217</title>
<path fill="none" stroke="midnightblue" d="M421.864,-188.099C445.271,-193.614 474.812,-200.574 501.344,-206.825"/>
<polygon fill="midnightblue" stroke="midnightblue" points="500.811,-210.295 511.347,-209.181 502.416,-203.481 500.811,-210.295"/>
</g>
<!-- Node218 -->
<g id="node11" class="node"><title>Node218</title>
<g id="a_node11"><a doxygen="/Users/coreyshive/Documents/schoolcode/ardupilot/docs/tags/libraries:../libraries/" xlink:href="../libraries/classAP__Logger.html#a0779d7e349d95a8ec6fc6a9b01800eb2" xlink:title=" ">
<polygon fill="white" stroke="black" points="490.559,-168 490.559,-188 651.441,-188 651.441,-168 490.559,-168"/>
<text text-anchor="middle" x="571" y="-174" font-family="Helvetica,sans-Serif" font-size="10.00">AP_Logger::Write_Mission_Cmd</text>
</a>
</g>
</g>
<!-- Node212&#45;&gt;Node218 -->
<g id="edge10" class="edge"><title>Node212&#45;&gt;Node218</title>
<path fill="none" stroke="midnightblue" d="M424.264,-178C441.08,-178 460.8,-178 480.205,-178"/>
<polygon fill="midnightblue" stroke="midnightblue" points="480.306,-181.5 490.306,-178 480.306,-174.5 480.306,-181.5"/>
</g>
<!-- Node219 -->
<g id="node12" class="node"><title>Node219</title>
<g id="a_node12"><a doxygen="/Users/coreyshive/Documents/schoolcode/ardupilot/docs/tags/libraries:../libraries/" xlink:href="../libraries/classAP__AHRS.html#ad6a99f819cfc6f0717f0a3edc2ec686b" xlink:title=" ">
<polygon fill="white" stroke="black" points="512.7,-129 512.7,-149 629.3,-149 629.3,-129 512.7,-129"/>
<text text-anchor="middle" x="571" y="-135" font-family="Helvetica,sans-Serif" font-size="10.00">AP_AHRS::lock_home</text>
</a>
</g>
</g>
<!-- Node212&#45;&gt;Node219 -->
<g id="edge11" class="edge"><title>Node212&#45;&gt;Node219</title>
<path fill="none" stroke="midnightblue" d="M424.264,-168.758C450.104,-163.481 482.803,-156.805 510.677,-151.113"/>
<polygon fill="midnightblue" stroke="midnightblue" points="511.608,-154.495 520.706,-149.065 510.208,-147.637 511.608,-154.495"/>
</g>
<!-- Node220 -->
<g id="node13" class="node"><title>Node220</title>
<g id="a_node13"><a doxygen="/Users/coreyshive/Documents/schoolcode/ardupilot/docs/tags/libraries:../libraries/" xlink:href="../libraries/classAP__Mission.html#a61244abc77366c7d3bff1cf4e23c7e77" xlink:title=" ">
<polygon fill="white" stroke="black" points="507.978,-78 507.978,-110 634.022,-110 634.022,-78 507.978,-78"/>
<text text-anchor="start" x="515.978" y="-96" font-family="Helvetica,sans-Serif" font-size="10.00">AP_Mission::write_home</text>
<text text-anchor="middle" x="571" y="-84" font-family="Helvetica,sans-Serif" font-size="10.00">_to_storage</text>
</a>
</g>
</g>
<!-- Node212&#45;&gt;Node220 -->
<g id="edge12" class="edge"><title>Node212&#45;&gt;Node220</title>
<path fill="none" stroke="midnightblue" d="M424.252,-170.231C434.474,-167.328 444.966,-163.373 454,-158 473.996,-146.109 470.33,-132.423 490,-120 493.309,-117.91 496.801,-115.973 500.403,-114.179"/>
<polygon fill="midnightblue" stroke="midnightblue" points="501.893,-117.347 509.538,-110.012 498.987,-110.978 501.893,-117.347"/>
</g>
<!-- Node221 -->
<g id="node14" class="node"><title>Node221</title>
<g id="a_node14"><a xlink:href="classRover.html#aa49315d8344d41618e6b6abfc459e89c" target="_top" xlink:title=" ">
<polygon fill="white" stroke="black" points="539.104,-39 539.104,-59 602.896,-59 602.896,-39 539.104,-39"/>
<text text-anchor="middle" x="571" y="-45" font-family="Helvetica,sans-Serif" font-size="10.00">Rover::gcs</text>
</a>
</g>
</g>
<!-- Node212&#45;&gt;Node221 -->
<g id="edge13" class="edge"><title>Node212&#45;&gt;Node221</title>
<path fill="none" stroke="midnightblue" d="M424.366,-172.98C435.047,-169.996 445.718,-165.315 454,-158 485.98,-129.752 457.801,-96.9971 490,-69 500.675,-59.7179 515.028,-54.6217 528.63,-51.8628"/>
<polygon fill="midnightblue" stroke="midnightblue" points="529.516,-55.2637 538.811,-50.178 528.373,-48.3576 529.516,-55.2637"/>
</g>
<!-- Node222 -->
<g id="node15" class="node"><title>Node222</title>
<g id="a_node15"><a doxygen="/Users/coreyshive/Documents/schoolcode/ardupilot/docs/tags/libraries:../libraries/" xlink:href="../libraries/classGCS.html#a9866f3484283db744409e40719cef765" xlink:title=" ">
<polygon fill="white" stroke="black" points="527.705,-0 527.705,-20 614.295,-20 614.295,-0 527.705,-0"/>
<text text-anchor="middle" x="571" y="-6" font-family="Helvetica,sans-Serif" font-size="10.00">GCS::send_text</text>
</a>
</g>
</g>
<!-- Node212&#45;&gt;Node222 -->
<g id="edge14" class="edge"><title>Node212&#45;&gt;Node222</title>
<path fill="none" stroke="midnightblue" d="M424.161,-173.813C435.097,-170.836 445.942,-165.95 454,-158 496.07,-116.497 447.607,-71.1729 490,-30 497.627,-22.5925 507.561,-17.7996 517.823,-14.7278"/>
<polygon fill="midnightblue" stroke="midnightblue" points="518.832,-18.0837 527.696,-12.2809 517.148,-11.2892 518.832,-18.0837"/>
</g>
<!-- Node216 -->
<g id="node9" class="node"><title>Node216</title>
<g id="a_node9"><a doxygen="/Users/coreyshive/Documents/schoolcode/ardupilot/docs/tags/libraries:../libraries/" xlink:href="../libraries/classAP__Logger.html#a8bed25359bc401b7d00def25bd8173b9" xlink:title=" ">
<polygon fill="white" stroke="black" points="688.015,-258 688.015,-278 807.985,-278 807.985,-258 688.015,-258"/>
<text text-anchor="middle" x="748" y="-264" font-family="Helvetica,sans-Serif" font-size="10.00">AP_Logger::should_log</text>
</a>
</g>
</g>
<!-- Node215&#45;&gt;Node216 -->
<g id="edge8" class="edge"><title>Node215&#45;&gt;Node216</title>
<path fill="none" stroke="midnightblue" d="M619.358,-268C637.287,-268 658.087,-268 677.626,-268"/>
<polygon fill="midnightblue" stroke="midnightblue" points="677.707,-271.5 687.707,-268 677.707,-264.5 677.707,-271.5"/>
</g>
</g>
</svg>
