<?xml version="1.0" encoding="UTF-8" standalone="no"?>
<!DOCTYPE svg PUBLIC "-//W3C//DTD SVG 1.1//EN"
 "http://www.w3.org/Graphics/SVG/1.1/DTD/svg11.dtd">
<!-- Generated by graphviz version 2.30.1 (20130221.2233)
 -->
<!-- Title: Rover::update_mission Pages: 1 -->
<svg width="310pt" height="106pt"
 viewBox="0.00 0.00 310.00 106.00" xmlns="http://www.w3.org/2000/svg" xmlns:xlink="http://www.w3.org/1999/xlink">
<g id="graph0" class="graph" transform="scale(1 1) rotate(0) translate(4 102)">
<title>Rover::update_mission</title>
<polygon fill="white" stroke="white" points="-4,5 -4,-102 307,-102 307,5 -4,5"/>
<!-- Node1859 -->
<g id="node1" class="node"><title>Node1859</title>
<g id="a_node1"><a xlink:title=" ">
<polygon fill="#bfbfbf" stroke="black" points="-0.137695,-39 -0.137695,-59 118.138,-59 118.138,-39 -0.137695,-39"/>
<text text-anchor="middle" x="59" y="-45" font-family="Helvetica,sans-Serif" font-size="10.00">Rover::update_mission</text>
</a>
</g>
</g>
<!-- Node1860 -->
<g id="node2" class="node"><title>Node1860</title>
<g id="a_node2"><a doxygen="/Users/coreyshive/Documents/schoolcode/ardupilot/docs/tags/libraries:../libraries/" xlink:href="../libraries/classAP__AHRS.html#a4ffe6b0b13f7f4106740105101fed115" xlink:title=" ">
<polygon fill="white" stroke="black" points="165.53,-78 165.53,-98 290.47,-98 290.47,-78 165.53,-78"/>
<text text-anchor="middle" x="228" y="-84" font-family="Helvetica,sans-Serif" font-size="10.00">AP_AHRS::home_is_set</text>
</a>
</g>
</g>
<!-- Node1859&#45;&gt;Node1860 -->
<g id="edge1" class="edge"><title>Node1859&#45;&gt;Node1860</title>
<path fill="none" stroke="midnightblue" d="M103.007,-59.0435C124.726,-64.1157 151.269,-70.3143 174.216,-75.6731"/>
<polygon fill="midnightblue" stroke="midnightblue" points="173.605,-79.1246 184.139,-77.9906 175.197,-72.3081 173.605,-79.1246"/>
</g>
<!-- Node1861 -->
<g id="node3" class="node"><title>Node1861</title>
<g id="a_node3"><a doxygen="/Users/coreyshive/Documents/schoolcode/ardupilot/docs/tags/libraries:../libraries/" xlink:href="../libraries/classAP__Mission.html#af26b7935304c34d8c03881b02beb3f48" xlink:title=" ">
<polygon fill="white" stroke="black" points="153.862,-39 153.862,-59 302.138,-59 302.138,-39 153.862,-39"/>
<text text-anchor="middle" x="228" y="-45" font-family="Helvetica,sans-Serif" font-size="10.00">AP_Mission::num_commands</text>
</a>
</g>
</g>
<!-- Node1859&#45;&gt;Node1861 -->
<g id="edge2" class="edge"><title>Node1859&#45;&gt;Node1861</title>
<path fill="none" stroke="midnightblue" d="M118.408,-49C126.5,-49 134.937,-49 143.377,-49"/>
<polygon fill="midnightblue" stroke="midnightblue" points="143.649,-52.5001 153.649,-49 143.649,-45.5001 143.649,-52.5001"/>
</g>
<!-- Node1862 -->
<g id="node4" class="node"><title>Node1862</title>
<g id="a_node4"><a doxygen="/Users/coreyshive/Documents/schoolcode/ardupilot/docs/tags/libraries:../libraries/" xlink:href="../libraries/classAP__Mission.html#ad27b4531fa652b277bd9300b60ca4493" xlink:title=" ">
<polygon fill="white" stroke="black" points="175.53,-0 175.53,-20 280.47,-20 280.47,-0 175.53,-0"/>
<text text-anchor="middle" x="228" y="-6" font-family="Helvetica,sans-Serif" font-size="10.00">AP_Mission::update</text>
</a>
</g>
</g>
<!-- Node1859&#45;&gt;Node1862 -->
<g id="edge3" class="edge"><title>Node1859&#45;&gt;Node1862</title>
<path fill="none" stroke="midnightblue" d="M103.007,-38.9565C124.726,-33.8843 151.269,-27.6857 174.216,-22.3269"/>
<polygon fill="midnightblue" stroke="midnightblue" points="175.197,-25.6919 184.139,-20.0094 173.605,-18.8754 175.197,-25.6919"/>
</g>
</g>
</svg>
