<?xml version="1.0" encoding="UTF-8" standalone="no"?>
<!DOCTYPE svg PUBLIC "-//W3C//DTD SVG 1.1//EN"
 "http://www.w3.org/Graphics/SVG/1.1/DTD/svg11.dtd">
<!-- Generated by graphviz version 2.30.1 (20130221.2233)
 -->
<!-- Title: ModeAuto::exit_mission Pages: 1 -->
<!--zoomable 526 -->
<svg id="main" version="1.1" xmlns="http://www.w3.org/2000/svg" xmlns:xlink="http://www.w3.org/1999/xlink" xml:space="preserve" onload="init(evt)">
<style type="text/css"><![CDATA[
.edge:hover path { stroke: red; }
.edge:hover polygon { stroke: red; fill: red; }
]]></style>
<script type="text/javascript"><![CDATA[
var edges = document.getElementsByTagName('g');
if (edges && edges.length) {
  for (var i=0;i<edges.length;i++) {
    if (edges[i].id.substr(0,4)=='edge') {
      edges[i].setAttribute('class','edge');
    }
  }
}
]]></script>
        <defs>
                <circle id="rim" cx="0" cy="0" r="7"/>
                <circle id="rim2" cx="0" cy="0" r="3.5"/>
                <g id="zoomPlus">
                        <use xlink:href="#rim" fill="#404040">
                                <set attributeName="fill" to="#808080" begin="zoomplus.mouseover" end="zoomplus.mouseout"/>
                        </use>
                        <path d="M-4,0h8M0,-4v8" fill="none" stroke="white" stroke-width="1.5" pointer-events="none"/>
                </g>
                <g id="zoomMin">
                        <use xlink:href="#rim" fill="#404040">
                                <set attributeName="fill" to="#808080" begin="zoomminus.mouseover" end="zoomminus.mouseout"/>
                        </use>
                        <path d="M-4,0h8" fill="none" stroke="white" stroke-width="1.5" pointer-events="none"/>
                </g>
                <g id="dirArrow">
                        <path fill="none" stroke="white" stroke-width="1.5" d="M0,-3.0v7 M-2.5,-0.5L0,-3.0L2.5,-0.5"/>
                </g>
               <g id="resetDef">
                       <use xlink:href="#rim2" fill="#404040">
                               <set attributeName="fill" to="#808080" begin="reset.mouseover" end="reset.mouseout"/>
                       </use>
               </g>
        </defs>

<script type="text/javascript">
var viewWidth = 800;
var viewHeight = 526;
var sectionId = 'dynsection-27';
</script>
<script xlink:href="svgpan.js"/>
<svg id="graph" class="graph">
<g id="viewport">
<title>ModeAuto::exit_mission</title>
<polygon fill="white" stroke="white" points="-4,5 -4,-522 797,-522 797,5 -4,5"/>
<!-- Node151 -->
<g id="node1" class="node"><title>Node151</title>
<g id="a_node1"><a xlink:title=" ">
<polygon fill="#bfbfbf" stroke="black" points="-0.0810547,-363 -0.0810547,-383 122.081,-383 122.081,-363 -0.0810547,-363"/>
<text text-anchor="middle" x="61" y="-369" font-family="Helvetica,sans-Serif" font-size="10.00">ModeAuto::exit_mission</text>
</a>
</g>
</g>
<!-- Node152 -->
<g id="node2" class="node"><title>Node152</title>
<g id="a_node2"><a doxygen="/Users/coreyshive/Documents/schoolcode/ardupilot/docs/tags/libraries:../libraries/" xlink:href="../libraries/GCS_8h.html#a1d3cc361b864ddf64a44c12ab3bd044e" xlink:title=" ">
<polygon fill="white" stroke="black" points="188.219,-402 188.219,-422 219.781,-422 219.781,-402 188.219,-402"/>
<text text-anchor="middle" x="204" y="-408" font-family="Helvetica,sans-Serif" font-size="10.00">gcs</text>
</a>
</g>
</g>
<!-- Node151&#45;&gt;Node152 -->
<g id="edge1" class="edge"><title>Node151&#45;&gt;Node152</title>
<path fill="none" stroke="midnightblue" d="M98.311,-383.043C123.415,-389.987 156.149,-399.041 178.28,-405.163"/>
<polygon fill="midnightblue" stroke="midnightblue" points="177.641,-408.617 188.212,-407.91 179.507,-401.871 177.641,-408.617"/>
</g>
<!-- Node153 -->
<g id="node3" class="node"><title>Node153</title>
<g id="a_node3"><a doxygen="/Users/coreyshive/Documents/schoolcode/ardupilot/docs/tags/libraries:../libraries/" xlink:href="../libraries/classGCS.html#a9866f3484283db744409e40719cef765" xlink:title=" ">
<polygon fill="white" stroke="black" points="321.705,-441 321.705,-461 408.295,-461 408.295,-441 321.705,-441"/>
<text text-anchor="middle" x="365" y="-447" font-family="Helvetica,sans-Serif" font-size="10.00">GCS::send_text</text>
</a>
</g>
</g>
<!-- Node151&#45;&gt;Node153 -->
<g id="edge2" class="edge"><title>Node151&#45;&gt;Node153</title>
<path fill="none" stroke="midnightblue" d="M122.104,-369.016C160.541,-368.906 210.426,-373.433 250,-393 270.854,-403.312 265.947,-419.205 286,-431 293.876,-435.633 302.814,-439.203 311.759,-441.952"/>
<polygon fill="midnightblue" stroke="midnightblue" points="310.847,-445.332 321.419,-444.625 312.714,-438.585 310.847,-445.332"/>
</g>
<!-- Node154 -->
<g id="node4" class="node"><title>Node154</title>
<g id="a_node4"><a xlink:href="classRover.html#afcdd0e7bf49c770f3bab460482df5134" target="_top" xlink:title=" ">
<polygon fill="white" stroke="black" points="157.926,-246 157.926,-266 250.074,-266 250.074,-246 157.926,-246"/>
<text text-anchor="middle" x="204" y="-252" font-family="Helvetica,sans-Serif" font-size="10.00">Rover::set_mode</text>
</a>
</g>
</g>
<!-- Node151&#45;&gt;Node154 -->
<g id="edge3" class="edge"><title>Node151&#45;&gt;Node154</title>
<path fill="none" stroke="midnightblue" d="M74.5128,-362.617C98.9274,-342.358 153.111,-297.397 182.719,-272.829"/>
<polygon fill="midnightblue" stroke="midnightblue" points="185.256,-275.272 190.717,-266.193 180.786,-269.885 185.256,-275.272"/>
</g>
<!-- Node155 -->
<g id="node5" class="node"><title>Node155</title>
<g id="a_node5"><a xlink:href="classMode.html#a3e5c3a5a842021ff17e70b0a65461af3" target="_top" xlink:title=" ">
<polygon fill="white" stroke="black" points="330.318,-246 330.318,-266 399.682,-266 399.682,-246 330.318,-246"/>
<text text-anchor="middle" x="365" y="-252" font-family="Helvetica,sans-Serif" font-size="10.00">Mode::enter</text>
</a>
</g>
</g>
<!-- Node154&#45;&gt;Node155 -->
<g id="edge4" class="edge"><title>Node154&#45;&gt;Node155</title>
<path fill="none" stroke="midnightblue" d="M250.138,-256C271.993,-256 298.139,-256 319.861,-256"/>
<polygon fill="midnightblue" stroke="midnightblue" points="320.131,-259.5 330.131,-256 320.131,-252.5 320.131,-259.5"/>
</g>
<!-- Node166 -->
<g id="node16" class="node"><title>Node166</title>
<g id="a_node16"><a doxygen="/Users/coreyshive/Documents/schoolcode/ardupilot/docs/tags/libraries:../libraries/" xlink:href="../libraries/namespaceAP.html#aa35bfac1ea2da16f110e8e72db7b3b20" xlink:title=" ">
<polygon fill="white" stroke="black" points="333.653,-324 333.653,-344 396.347,-344 396.347,-324 333.653,-324"/>
<text text-anchor="middle" x="365" y="-330" font-family="Helvetica,sans-Serif" font-size="10.00">AP::logger</text>
</a>
</g>
</g>
<!-- Node154&#45;&gt;Node166 -->
<g id="edge15" class="edge"><title>Node154&#45;&gt;Node166</title>
<path fill="none" stroke="midnightblue" d="M216.212,-266.126C231.106,-279.06 258.723,-301.285 286,-314 297.681,-319.445 311.064,-323.562 323.408,-326.601"/>
<polygon fill="midnightblue" stroke="midnightblue" points="322.944,-330.086 333.473,-328.906 324.507,-323.262 322.944,-330.086"/>
</g>
<!-- Node167 -->
<g id="node17" class="node"><title>Node167</title>
<g id="a_node17"><a doxygen="/Users/coreyshive/Documents/schoolcode/ardupilot/docs/tags/libraries:../libraries/" xlink:href="../libraries/classAP__Logger.html#a5f47086952bb5e841d979491e6dd562f" xlink:title=" ">
<polygon fill="white" stroke="black" points="303.733,-285 303.733,-305 426.267,-305 426.267,-285 303.733,-285"/>
<text text-anchor="middle" x="365" y="-291" font-family="Helvetica,sans-Serif" font-size="10.00">AP_Logger::Write_Error</text>
</a>
</g>
</g>
<!-- Node154&#45;&gt;Node167 -->
<g id="edge16" class="edge"><title>Node154&#45;&gt;Node167</title>
<path fill="none" stroke="midnightblue" d="M245.946,-266.043C266.533,-271.093 291.67,-277.259 313.45,-282.601"/>
<polygon fill="midnightblue" stroke="midnightblue" points="312.646,-286.008 323.192,-284.991 314.314,-279.209 312.646,-286.008"/>
</g>
<!-- Node168 -->
<g id="node18" class="node"><title>Node168</title>
<g id="a_node18"><a xlink:href="classMode.html#ac0d6e9936093df1f64ae3722405f6384" target="_top" xlink:title=" ">
<polygon fill="white" stroke="black" points="488.473,-369 488.473,-389 599.527,-389 599.527,-369 488.473,-369"/>
<text text-anchor="middle" x="544" y="-375" font-family="Helvetica,sans-Serif" font-size="10.00">Mode::mode_number</text>
</a>
</g>
</g>
<!-- Node154&#45;&gt;Node168 -->
<g id="edge17" class="edge"><title>Node154&#45;&gt;Node168</title>
<path fill="none" stroke="midnightblue" d="M210.003,-266.165C220.714,-286.691 248.016,-332.841 286,-353 345.542,-384.601 423.765,-388.056 478.204,-385.523"/>
<polygon fill="midnightblue" stroke="midnightblue" points="478.628,-389.005 488.422,-384.965 478.246,-382.016 478.628,-389.005"/>
</g>
<!-- Node169 -->
<g id="node19" class="node"><title>Node169</title>
<g id="a_node19"><a xlink:href="classRover.html#aa49315d8344d41618e6b6abfc459e89c" target="_top" xlink:title=" ">
<polygon fill="white" stroke="black" points="333.104,-207 333.104,-227 396.896,-227 396.896,-207 333.104,-207"/>
<text text-anchor="middle" x="365" y="-213" font-family="Helvetica,sans-Serif" font-size="10.00">Rover::gcs</text>
</a>
</g>
</g>
<!-- Node154&#45;&gt;Node169 -->
<g id="edge18" class="edge"><title>Node154&#45;&gt;Node169</title>
<path fill="none" stroke="midnightblue" d="M245.946,-245.957C269.697,-240.131 299.506,-232.819 323.227,-227.001"/>
<polygon fill="midnightblue" stroke="midnightblue" points="324.107,-230.389 332.985,-224.607 322.439,-223.591 324.107,-230.389"/>
</g>
<!-- Node154&#45;&gt;Node153 -->
<g id="edge19" class="edge"><title>Node154&#45;&gt;Node153</title>
<path fill="none" stroke="midnightblue" d="M209.361,-266.037C225.181,-302.365 278.988,-425.164 286,-431 293.416,-437.173 302.504,-441.471 311.822,-444.457"/>
<polygon fill="midnightblue" stroke="midnightblue" points="310.987,-447.857 321.556,-447.116 312.832,-441.104 310.987,-447.857"/>
</g>
<!-- Node170 -->
<g id="node20" class="node"><title>Node170</title>
<g id="a_node20"><a doxygen="/Users/coreyshive/Documents/schoolcode/ardupilot/docs/tags/libraries:../libraries/" xlink:href="../libraries/classAC__Fence.html#a32ddec2d811a21b723c83fca515a2004" xlink:title=" ">
<polygon fill="white" stroke="black" points="292.247,-156 292.247,-188 437.753,-188 437.753,-156 292.247,-156"/>
<text text-anchor="start" x="300.247" y="-174" font-family="Helvetica,sans-Serif" font-size="10.00">AC_Fence::manual_recovery</text>
<text text-anchor="middle" x="365" y="-162" font-family="Helvetica,sans-Serif" font-size="10.00">_start</text>
</a>
</g>
</g>
<!-- Node154&#45;&gt;Node170 -->
<g id="edge20" class="edge"><title>Node154&#45;&gt;Node170</title>
<path fill="none" stroke="midnightblue" d="M216.616,-245.95C231.724,-233.302 259.344,-211.593 286,-198 290.304,-195.805 294.833,-193.737 299.452,-191.799"/>
<polygon fill="midnightblue" stroke="midnightblue" points="301.012,-194.945 309.018,-188.006 298.432,-188.438 301.012,-194.945"/>
</g>
<!-- Node171 -->
<g id="node21" class="node"><title>Node171</title>
<g id="a_node21"><a doxygen="/Users/coreyshive/Documents/schoolcode/ardupilot/docs/tags/libraries:../libraries/" xlink:href="../libraries/classAP__Camera.html#af06fd226c451a1a96a10c5194dfcc2b6" xlink:title=" ">
<polygon fill="white" stroke="black" points="286.126,-117 286.126,-137 443.874,-137 443.874,-117 286.126,-117"/>
<text text-anchor="middle" x="365" y="-123" font-family="Helvetica,sans-Serif" font-size="10.00">AP_Camera::set_is_auto_mode</text>
</a>
</g>
</g>
<!-- Node154&#45;&gt;Node171 -->
<g id="edge21" class="edge"><title>Node154&#45;&gt;Node171</title>
<path fill="none" stroke="midnightblue" d="M209.621,-245.758C219.985,-223.997 247.246,-173.025 286,-147 289.3,-144.784 292.83,-142.813 296.497,-141.061"/>
<polygon fill="midnightblue" stroke="midnightblue" points="297.977,-144.236 305.844,-137.139 295.269,-137.781 297.977,-144.236"/>
</g>
<!-- Node172 -->
<g id="node22" class="node"><title>Node172</title>
<g id="a_node22"><a xlink:href="classMode.html#acc347b62c670471bde37a38b28d53601" target="_top" xlink:title=" ">
<polygon fill="white" stroke="black" points="333.934,-78 333.934,-98 396.066,-98 396.066,-78 333.934,-78"/>
<text text-anchor="middle" x="365" y="-84" font-family="Helvetica,sans-Serif" font-size="10.00">Mode::exit</text>
</a>
</g>
</g>
<!-- Node154&#45;&gt;Node172 -->
<g id="edge22" class="edge"><title>Node154&#45;&gt;Node172</title>
<path fill="none" stroke="midnightblue" d="M207.458,-245.799C214.55,-218.649 237.699,-144.17 286,-107 296.72,-98.7502 310.523,-94.0248 323.53,-91.3373"/>
<polygon fill="midnightblue" stroke="midnightblue" points="324.453,-94.7303 333.717,-89.5904 323.269,-87.831 324.453,-94.7303"/>
</g>
<!-- Node174 -->
<g id="node24" class="node"><title>Node174</title>
<g id="a_node24"><a doxygen="/Users/coreyshive/Documents/schoolcode/ardupilot/docs/tags/libraries:../libraries/" xlink:href="../libraries/classAP__Logger.html#a4682ceac8976f087de3b0704b34d208b" xlink:title=" ">
<polygon fill="white" stroke="black" points="302.337,-39 302.337,-59 427.663,-59 427.663,-39 302.337,-39"/>
<text text-anchor="middle" x="365" y="-45" font-family="Helvetica,sans-Serif" font-size="10.00">AP_Logger::Write_Mode</text>
</a>
</g>
</g>
<!-- Node154&#45;&gt;Node174 -->
<g id="edge24" class="edge"><title>Node154&#45;&gt;Node174</title>
<path fill="none" stroke="midnightblue" d="M206.255,-245.557C210.666,-213.642 228.445,-116.622 286,-68 288.246,-66.1027 290.651,-64.3891 293.174,-62.8418"/>
<polygon fill="midnightblue" stroke="midnightblue" points="294.876,-65.9021 302.147,-58.1963 291.658,-59.6858 294.876,-65.9021"/>
</g>
<!-- Node175 -->
<g id="node25" class="node"><title>Node175</title>
<g id="a_node25"><a doxygen="/Users/coreyshive/Documents/schoolcode/ardupilot/docs/tags/libraries:../libraries/" xlink:href="../libraries/classGCS.html#a49e7272eb586b48b04d970d13ef3d95f" xlink:title=" ">
<polygon fill="white" stroke="black" points="309.476,-0 309.476,-20 420.524,-20 420.524,-0 309.476,-0"/>
<text text-anchor="middle" x="365" y="-6" font-family="Helvetica,sans-Serif" font-size="10.00">GCS::send_message</text>
</a>
</g>
</g>
<!-- Node154&#45;&gt;Node175 -->
<g id="edge25" class="edge"><title>Node154&#45;&gt;Node175</title>
<path fill="none" stroke="midnightblue" d="M205.397,-245.538C207.354,-209.513 218.861,-89.508 286,-29 290.141,-25.2677 294.893,-22.2378 299.963,-19.7821"/>
<polygon fill="midnightblue" stroke="midnightblue" points="301.426,-22.9653 309.369,-15.954 298.788,-16.4816 301.426,-22.9653"/>
</g>
<!-- Node176 -->
<g id="node26" class="node"><title>Node176</title>
<g id="a_node26"><a xlink:href="classRover.html#af39c095722ccd8c5dd3ccb187852f02d" target="_top" xlink:title=" ">
<polygon fill="white" stroke="black" points="313.646,-402 313.646,-422 416.354,-422 416.354,-402 313.646,-402"/>
<text text-anchor="middle" x="365" y="-408" font-family="Helvetica,sans-Serif" font-size="10.00">Rover::notify_mode</text>
</a>
</g>
</g>
<!-- Node154&#45;&gt;Node176 -->
<g id="edge26" class="edge"><title>Node154&#45;&gt;Node176</title>
<path fill="none" stroke="midnightblue" d="M208.479,-266.221C217.361,-290.783 243.238,-353.566 286,-387 291.699,-391.456 298.214,-395.128 304.995,-398.153"/>
<polygon fill="midnightblue" stroke="midnightblue" points="303.769,-401.432 314.354,-401.887 306.363,-394.93 303.769,-401.432"/>
</g>
<!-- Node156 -->
<g id="node6" class="node"><title>Node156</title>
<g id="a_node6"><a doxygen="/Users/coreyshive/Documents/schoolcode/ardupilot/docs/tags/libraries:../libraries/" xlink:href="../libraries/classAP__HAL_1_1Util.html#a287a2b82fa30b92c8d52aad61d4d27b7" xlink:title=" ">
<polygon fill="white" stroke="black" points="486.254,-240 486.254,-272 601.746,-272 601.746,-240 486.254,-240"/>
<text text-anchor="start" x="494.254" y="-258" font-family="Helvetica,sans-Serif" font-size="10.00">AP_HAL::Util::get_soft</text>
<text text-anchor="middle" x="544" y="-246" font-family="Helvetica,sans-Serif" font-size="10.00">_armed</text>
</a>
</g>
</g>
<!-- Node155&#45;&gt;Node156 -->
<g id="edge5" class="edge"><title>Node155&#45;&gt;Node156</title>
<path fill="none" stroke="midnightblue" d="M399.709,-256C421.226,-256 449.868,-256 475.886,-256"/>
<polygon fill="midnightblue" stroke="midnightblue" points="476.086,-259.5 486.086,-256 476.086,-252.5 476.086,-259.5"/>
</g>
<!-- Node157 -->
<g id="node7" class="node"><title>Node157</title>
<g id="a_node7"><a xlink:href="classRover.html#af202d295a4f603e08d3c8cadce0bc98d" target="_top" xlink:title=" ">
<polygon fill="white" stroke="black" points="485.138,-201 485.138,-221 602.862,-221 602.862,-201 485.138,-201"/>
<text text-anchor="middle" x="544" y="-207" font-family="Helvetica,sans-Serif" font-size="10.00">Rover::ekf_position_ok</text>
</a>
</g>
</g>
<!-- Node155&#45;&gt;Node157 -->
<g id="edge6" class="edge"><title>Node155&#45;&gt;Node157</title>
<path fill="none" stroke="midnightblue" d="M399.709,-247.43C426.293,-240.671 463.752,-231.148 493.702,-223.533"/>
<polygon fill="midnightblue" stroke="midnightblue" points="494.716,-226.887 503.545,-221.031 492.991,-220.103 494.716,-226.887"/>
</g>
<!-- Node160 -->
<g id="node10" class="node"><title>Node160</title>
<g id="a_node10"><a xlink:href="classMode.html#ae5a240ec7efe2623eb88c68beda58a99" target="_top" xlink:title=" ">
<polygon fill="white" stroke="black" points="482.636,-162 482.636,-182 605.364,-182 605.364,-162 482.636,-162"/>
<text text-anchor="middle" x="544" y="-168" font-family="Helvetica,sans-Serif" font-size="10.00">Mode::requires_position</text>
</a>
</g>
</g>
<!-- Node155&#45;&gt;Node160 -->
<g id="edge9" class="edge"><title>Node155&#45;&gt;Node160</title>
<path fill="none" stroke="midnightblue" d="M399.746,-252.13C414.222,-249.304 430.802,-244.423 444,-236 465.299,-222.407 459.093,-206.188 480,-192 483.271,-189.78 486.803,-187.795 490.467,-186.023"/>
<polygon fill="midnightblue" stroke="midnightblue" points="491.953,-189.194 499.769,-182.04 489.198,-182.758 491.953,-189.194"/>
</g>
<!-- Node161 -->
<g id="node11" class="node"><title>Node161</title>
<g id="a_node11"><a xlink:href="classMode.html#a877262e51b58f132cb52c5977bf13c51" target="_top" xlink:title=" ">
<polygon fill="white" stroke="black" points="483.197,-123 483.197,-143 604.803,-143 604.803,-123 483.197,-123"/>
<text text-anchor="middle" x="544" y="-129" font-family="Helvetica,sans-Serif" font-size="10.00">Mode::requires_velocity</text>
</a>
</g>
</g>
<!-- Node155&#45;&gt;Node161 -->
<g id="edge10" class="edge"><title>Node155&#45;&gt;Node161</title>
<path fill="none" stroke="midnightblue" d="M399.79,-253.977C414.787,-251.53 431.769,-246.434 444,-236 474.591,-209.904 450.157,-179.948 480,-153 481.975,-151.217 484.109,-149.592 486.357,-148.113"/>
<polygon fill="midnightblue" stroke="midnightblue" points="488.417,-150.975 495.498,-143.094 485.048,-144.839 488.417,-150.975"/>
</g>
<!-- Node162 -->
<g id="node12" class="node"><title>Node162</title>
<g id="a_node12"><a xlink:href="classMode.html#a6594030a202f6ec5918b427b8a5717e4" target="_top" xlink:title=" ">
<polygon fill="white" stroke="black" points="506.537,-84 506.537,-104 581.463,-104 581.463,-84 506.537,-84"/>
<text text-anchor="middle" x="544" y="-90" font-family="Helvetica,sans-Serif" font-size="10.00">Mode::_enter</text>
</a>
</g>
</g>
<!-- Node155&#45;&gt;Node162 -->
<g id="edge11" class="edge"><title>Node155&#45;&gt;Node162</title>
<path fill="none" stroke="midnightblue" d="M400.008,-254.711C415.233,-252.435 432.341,-247.272 444,-236 484.95,-196.408 439.888,-153.441 480,-113 484.646,-108.316 490.402,-104.778 496.53,-102.108"/>
<polygon fill="midnightblue" stroke="midnightblue" points="498.128,-105.254 506.362,-98.5863 495.767,-98.6638 498.128,-105.254"/>
</g>
<!-- Node163 -->
<g id="node13" class="node"><title>Node163</title>
<g id="a_node13"><a xlink:href="classMode.html#a1733ae28c2e308db5fca2dd79f477ddb" target="_top" xlink:title=" ">
<polygon fill="white" stroke="black" points="491.811,-330 491.811,-350 596.189,-350 596.189,-330 491.811,-330"/>
<text text-anchor="middle" x="544" y="-336" font-family="Helvetica,sans-Serif" font-size="10.00">Mode::set_reversed</text>
</a>
</g>
</g>
<!-- Node155&#45;&gt;Node163 -->
<g id="edge12" class="edge"><title>Node155&#45;&gt;Node163</title>
<path fill="none" stroke="midnightblue" d="M399.746,-259.87C414.222,-262.696 430.802,-267.577 444,-276 465.299,-289.593 459.093,-305.812 480,-320 483.271,-322.22 486.803,-324.205 490.467,-325.977"/>
<polygon fill="midnightblue" stroke="midnightblue" points="489.198,-329.242 499.769,-329.96 491.953,-322.806 489.198,-329.242"/>
</g>
<!-- Node165 -->
<g id="node15" class="node"><title>Node165</title>
<g id="a_node15"><a xlink:href="classSailboat.html#a8541aa08ff963b7802bcc2792ee0887d" target="_top" xlink:title=" ">
<polygon fill="white" stroke="black" points="492.365,-291 492.365,-311 595.635,-311 595.635,-291 492.365,-291"/>
<text text-anchor="middle" x="544" y="-297" font-family="Helvetica,sans-Serif" font-size="10.00">Sailboat::clear_tack</text>
</a>
</g>
</g>
<!-- Node155&#45;&gt;Node165 -->
<g id="edge14" class="edge"><title>Node155&#45;&gt;Node165</title>
<path fill="none" stroke="midnightblue" d="M399.709,-264.57C426.293,-271.329 463.752,-280.852 493.702,-288.467"/>
<polygon fill="midnightblue" stroke="midnightblue" points="492.991,-291.897 503.545,-290.969 494.716,-285.113 492.991,-291.897"/>
</g>
<!-- Node158 -->
<g id="node8" class="node"><title>Node158</title>
<g id="a_node8"><a doxygen="/Users/coreyshive/Documents/schoolcode/ardupilot/docs/tags/libraries:../libraries/" xlink:href="../libraries/classAP__AHRS.html#a5b4f593794f7c47d8b13ded289291a85" xlink:title=" ">
<polygon fill="white" stroke="black" points="644.685,-221 644.685,-241 791.315,-241 791.315,-221 644.685,-221"/>
<text text-anchor="middle" x="718" y="-227" font-family="Helvetica,sans-Serif" font-size="10.00">AP_AHRS::have_inertial_nav</text>
</a>
</g>
</g>
<!-- Node157&#45;&gt;Node158 -->
<g id="edge7" class="edge"><title>Node157&#45;&gt;Node158</title>
<path fill="none" stroke="midnightblue" d="M603.231,-217.771C613.276,-218.939 623.886,-220.173 634.428,-221.399"/>
<polygon fill="midnightblue" stroke="midnightblue" points="634.155,-224.89 644.493,-222.569 634.964,-217.937 634.155,-224.89"/>
</g>
<!-- Node159 -->
<g id="node9" class="node"><title>Node159</title>
<g id="a_node9"><a doxygen="/Users/coreyshive/Documents/schoolcode/ardupilot/docs/tags/libraries:../libraries/" xlink:href="../libraries/classAP__Arming.html#aededf89cac3010c297fcef7e8b38e99a" xlink:title=" ">
<polygon fill="white" stroke="black" points="661.37,-182 661.37,-202 774.63,-202 774.63,-182 661.37,-182"/>
<text text-anchor="middle" x="718" y="-188" font-family="Helvetica,sans-Serif" font-size="10.00">AP_Arming::is_armed</text>
</a>
</g>
</g>
<!-- Node157&#45;&gt;Node159 -->
<g id="edge8" class="edge"><title>Node157&#45;&gt;Node159</title>
<path fill="none" stroke="midnightblue" d="M603.231,-204.567C618.581,-202.872 635.253,-201.03 650.981,-199.293"/>
<polygon fill="midnightblue" stroke="midnightblue" points="651.601,-202.746 661.157,-198.169 650.833,-195.788 651.601,-202.746"/>
</g>
<!-- Node164 -->
<g id="node14" class="node"><title>Node164</title>
<g id="a_node14"><a doxygen="/Users/coreyshive/Documents/schoolcode/ardupilot/docs/tags/libraries:../libraries/" xlink:href="../libraries/classAR__WPNav.html#a6f090d47863c1715392b91197397e1e8" xlink:title=" ">
<polygon fill="white" stroke="black" points="651.646,-330 651.646,-350 784.354,-350 784.354,-330 651.646,-330"/>
<text text-anchor="middle" x="718" y="-336" font-family="Helvetica,sans-Serif" font-size="10.00">AR_WPNav::set_reversed</text>
</a>
</g>
</g>
<!-- Node163&#45;&gt;Node164 -->
<g id="edge13" class="edge"><title>Node163&#45;&gt;Node164</title>
<path fill="none" stroke="midnightblue" d="M596.606,-340C610.595,-340 626.038,-340 641.066,-340"/>
<polygon fill="midnightblue" stroke="midnightblue" points="641.38,-343.5 651.38,-340 641.38,-336.5 641.38,-343.5"/>
</g>
<!-- Node173 -->
<g id="node23" class="node"><title>Node173</title>
<g id="a_node23"><a xlink:href="classMode.html#a469e59fc883ef9744f57377209a4036c" target="_top" xlink:title=" ">
<polygon fill="white" stroke="black" points="510.153,-45 510.153,-65 577.847,-65 577.847,-45 510.153,-45"/>
<text text-anchor="middle" x="544" y="-51" font-family="Helvetica,sans-Serif" font-size="10.00">Mode::_exit</text>
</a>
</g>
</g>
<!-- Node172&#45;&gt;Node173 -->
<g id="edge23" class="edge"><title>Node172&#45;&gt;Node173</title>
<path fill="none" stroke="midnightblue" d="M396.427,-82.3271C424.968,-77.006 467.935,-68.9952 499.979,-63.0208"/>
<polygon fill="midnightblue" stroke="midnightblue" points="500.778,-66.4323 509.967,-61.1587 499.495,-59.5509 500.778,-66.4323"/>
</g>
<!-- Node177 -->
<g id="node27" class="node"><title>Node177</title>
<g id="a_node27"><a xlink:href="classMode.html#aaf3fe35de08bf5fb5922462877b3a6e0" target="_top" xlink:title=" ">
<polygon fill="white" stroke="black" points="480.131,-498 480.131,-518 607.869,-518 607.869,-498 480.131,-498"/>
<text text-anchor="middle" x="544" y="-504" font-family="Helvetica,sans-Serif" font-size="10.00">Mode::is_autopilot_mode</text>
</a>
</g>
</g>
<!-- Node176&#45;&gt;Node177 -->
<g id="edge27" class="edge"><title>Node176&#45;&gt;Node177</title>
<path fill="none" stroke="midnightblue" d="M416.72,-419.137C426.368,-422.065 435.952,-426.191 444,-432 467.991,-449.317 456.507,-470.013 480,-488 482.642,-490.023 485.494,-491.844 488.475,-493.484"/>
<polygon fill="midnightblue" stroke="midnightblue" points="487.186,-496.746 497.72,-497.876 490.189,-490.423 487.186,-496.746"/>
</g>
<!-- Node176&#45;&gt;Node168 -->
<g id="edge28" class="edge"><title>Node176&#45;&gt;Node168</title>
<path fill="none" stroke="midnightblue" d="M416.721,-402.544C436.21,-398.91 458.709,-394.715 479.268,-390.882"/>
<polygon fill="midnightblue" stroke="midnightblue" points="479.994,-394.307 489.183,-389.034 478.711,-387.426 479.994,-394.307"/>
</g>
<!-- Node178 -->
<g id="node28" class="node"><title>Node178</title>
<g id="a_node28"><a doxygen="/Users/coreyshive/Documents/schoolcode/ardupilot/docs/tags/libraries:../libraries/" xlink:href="../libraries/classAP__Notify.html#a6933d62a710817a9f6ae4ba03634eae9" xlink:title=" ">
<polygon fill="white" stroke="black" points="490.978,-447 490.978,-479 597.022,-479 597.022,-447 490.978,-447"/>
<text text-anchor="start" x="498.978" y="-465" font-family="Helvetica,sans-Serif" font-size="10.00">AP_Notify::set_flight</text>
<text text-anchor="middle" x="544" y="-453" font-family="Helvetica,sans-Serif" font-size="10.00">_mode_str</text>
</a>
</g>
</g>
<!-- Node176&#45;&gt;Node178 -->
<g id="edge29" class="edge"><title>Node176&#45;&gt;Node178</title>
<path fill="none" stroke="midnightblue" d="M406.995,-422.081C418.959,-425.14 432.033,-428.595 444,-432 456.907,-435.673 470.687,-439.834 483.738,-443.887"/>
<polygon fill="midnightblue" stroke="midnightblue" points="482.961,-447.311 493.55,-446.956 485.051,-440.631 482.961,-447.311"/>
</g>
<!-- Node179 -->
<g id="node29" class="node"><title>Node179</title>
<g id="a_node29"><a xlink:href="classMode.html#a52eef3a6d70dcea8ca666a2dce4f35d5" target="_top" xlink:title=" ">
<polygon fill="white" stroke="black" points="505.426,-408 505.426,-428 582.574,-428 582.574,-408 505.426,-408"/>
<text text-anchor="middle" x="544" y="-414" font-family="Helvetica,sans-Serif" font-size="10.00">Mode::name4</text>
</a>
</g>
</g>
<!-- Node176&#45;&gt;Node179 -->
<g id="edge30" class="edge"><title>Node176&#45;&gt;Node179</title>
<path fill="none" stroke="midnightblue" d="M416.721,-413.719C441.391,-414.556 470.884,-415.555 495.16,-416.378"/>
<polygon fill="midnightblue" stroke="midnightblue" points="495.103,-419.878 505.216,-416.719 495.34,-412.882 495.103,-419.878"/>
</g>
</g>
</svg>
        <g id="navigator" transform="translate(0 0)" fill="#404254">
                <rect fill="#f2f5e9" fill-opacity="0.5" stroke="#606060" stroke-width=".5" x="0" y="0" width="60" height="60"/>
                <use id="zoomplus" xlink:href="#zoomPlus" x="17" y="9" onmousedown="handleZoom(evt,'in')"/>
                <use id="zoomminus" xlink:href="#zoomMin" x="42" y="9" onmousedown="handleZoom(evt,'out')"/>
                <use id="reset" xlink:href="#resetDef" x="30" y="36" onmousedown="handleReset()"/>
                <g id="arrowUp" xlink:href="#dirArrow" transform="translate(30 24)" onmousedown="handlePan(0,-1)">
                  <use xlink:href="#rim" fill="#404040">
                        <set attributeName="fill" to="#808080" begin="arrowUp.mouseover" end="arrowUp.mouseout"/>
                  </use>
                  <path fill="none" stroke="white" stroke-width="1.5" d="M0,-3.0v7 M-2.5,-0.5L0,-3.0L2.5,-0.5"/>
                </g>
                <g id="arrowRight" xlink:href="#dirArrow" transform="rotate(90) translate(36 -43)" onmousedown="handlePan(1,0)">
                  <use xlink:href="#rim" fill="#404040">
                        <set attributeName="fill" to="#808080" begin="arrowRight.mouseover" end="arrowRight.mouseout"/>
                  </use>
                  <path fill="none" stroke="white" stroke-width="1.5" d="M0,-3.0v7 M-2.5,-0.5L0,-3.0L2.5,-0.5"/>
                </g>
                <g id="arrowDown" xlink:href="#dirArrow" transform="rotate(180) translate(-30 -48)" onmousedown="handlePan(0,1)">
                  <use xlink:href="#rim" fill="#404040">
                        <set attributeName="fill" to="#808080" begin="arrowDown.mouseover" end="arrowDown.mouseout"/>
                  </use>
                  <path fill="none" stroke="white" stroke-width="1.5" d="M0,-3.0v7 M-2.5,-0.5L0,-3.0L2.5,-0.5"/>
                </g>
                <g id="arrowLeft" xlink:href="#dirArrow" transform="rotate(270) translate(-36 17)" onmousedown="handlePan(-1,0)">
                  <use xlink:href="#rim" fill="#404040">
                        <set attributeName="fill" to="#808080" begin="arrowLeft.mouseover" end="arrowLeft.mouseout"/>
                  </use>
                  <path fill="none" stroke="white" stroke-width="1.5" d="M0,-3.0v7 M-2.5,-0.5L0,-3.0L2.5,-0.5"/>
                </g>
        </g>
        <svg viewBox="0 0 15 15" width="100%" height="30px" preserveAspectRatio="xMaxYMin meet">
         <g id="arrow_out" transform="scale(0.3 0.3)">
          <a xlink:href="classModeAuto_a67d8e6dd29f7d993941c1a5abc8e5907_cgraph_org.svg" target="_base">
           <rect id="button" ry="5" rx="5" y="6" x="6" height="38" width="38"
                fill="#f2f5e9" fill-opacity="0.5" stroke="#606060" stroke-width="1.0"/>
           <path id="arrow"
             d="M 11.500037,31.436501 C 11.940474,20.09759 22.043105,11.32322 32.158766,21.979434 L 37.068811,17.246167 C 37.068811,17.246167 37.088388,32 37.088388,32 L 22.160133,31.978069 C 22.160133,31.978069 26.997745,27.140456 26.997745,27.140456 C 18.528582,18.264221 13.291696,25.230495 11.500037,31.436501 z"
             style="fill:#404040;"/>
          </a>
         </g>
        </svg>
</svg>
