<?xml version="1.0" encoding="UTF-8" standalone="no"?>
<!DOCTYPE svg PUBLIC "-//W3C//DTD SVG 1.1//EN"
 "http://www.w3.org/Graphics/SVG/1.1/DTD/svg11.dtd">
<!-- Generated by graphviz version 2.30.1 (20130221.2233)
 -->
<!-- Title: Sailboat::clear_tack Pages: 1 -->
<svg width="934pt" height="826pt"
 viewBox="0.00 0.00 934.00 826.00" xmlns="http://www.w3.org/2000/svg" xmlns:xlink="http://www.w3.org/1999/xlink">
<g id="graph0" class="graph" transform="scale(1 1) rotate(0) translate(4 822)">
<title>Sailboat::clear_tack</title>
<polygon fill="white" stroke="white" points="-4,5 -4,-822 931,-822 931,5 -4,5"/>
<!-- Node25 -->
<g id="node1" class="node"><title>Node25</title>
<g id="a_node1"><a xlink:title=" ">
<polygon fill="#bfbfbf" stroke="black" points="822.365,-432 822.365,-452 925.635,-452 925.635,-432 822.365,-432"/>
<text text-anchor="middle" x="874" y="-438" font-family="Helvetica,sans-Serif" font-size="10.00">Sailboat::clear_tack</text>
</a>
</g>
</g>
<!-- Node26 -->
<g id="node2" class="node"><title>Node26</title>
<g id="a_node2"><a xlink:href="classSailboat.html#a8a6d10de7a5dfda1cbffc864146cda14" target="_top" xlink:title=" ">
<polygon fill="white" stroke="black" points="668.685,-490 668.685,-510 785.315,-510 785.315,-490 668.685,-490"/>
<text text-anchor="middle" x="727" y="-496" font-family="Helvetica,sans-Serif" font-size="10.00">Sailboat::calc_heading</text>
</a>
</g>
</g>
<!-- Node25&#45;&gt;Node26 -->
<g id="edge1" class="edge"><title>Node25&#45;&gt;Node26</title>
<path fill="none" stroke="midnightblue" d="M838.225,-455.91C812.121,-466.351 776.974,-480.41 753.454,-489.818"/>
<polygon fill="midnightblue" stroke="midnightblue" points="839.758,-459.066 847.743,-452.103 837.158,-452.567 839.758,-459.066"/>
</g>
<!-- Node32 -->
<g id="node8" class="node"><title>Node32</title>
<g id="a_node8"><a xlink:href="classMode.html#a3e5c3a5a842021ff17e70b0a65461af3" target="_top" xlink:title=" ">
<polygon fill="white" stroke="black" points="692.318,-432 692.318,-452 761.682,-452 761.682,-432 692.318,-432"/>
<text text-anchor="middle" x="727" y="-438" font-family="Helvetica,sans-Serif" font-size="10.00">Mode::enter</text>
</a>
</g>
</g>
<!-- Node25&#45;&gt;Node32 -->
<g id="edge9" class="edge"><title>Node25&#45;&gt;Node32</title>
<path fill="none" stroke="midnightblue" d="M811.831,-442C794.808,-442 776.929,-442 762.076,-442"/>
<polygon fill="midnightblue" stroke="midnightblue" points="812.286,-445.5 822.286,-442 812.286,-438.5 812.286,-445.5"/>
</g>
<!-- Node59 -->
<g id="node35" class="node"><title>Node59</title>
<g id="a_node35"><a xlink:href="classModeAcro.html#a33c57cf1f63a49a22cd12bb186c22693" target="_top" xlink:title=" ">
<polygon fill="white" stroke="black" points="678.141,-393 678.141,-413 775.859,-413 775.859,-393 678.141,-393"/>
<text text-anchor="middle" x="727" y="-399" font-family="Helvetica,sans-Serif" font-size="10.00">ModeAcro::update</text>
</a>
</g>
</g>
<!-- Node25&#45;&gt;Node59 -->
<g id="edge40" class="edge"><title>Node25&#45;&gt;Node59</title>
<path fill="none" stroke="midnightblue" d="M825.96,-429.348C806.272,-424.053 783.716,-417.986 765.215,-413.009"/>
<polygon fill="midnightblue" stroke="midnightblue" points="825.093,-432.739 835.659,-431.957 826.911,-425.979 825.093,-432.739"/>
</g>
<!-- Node27 -->
<g id="node3" class="node"><title>Node27</title>
<g id="a_node3"><a xlink:href="classMode.html#a6450cb68cc8b517ca743a8982f5f3b7e" target="_top" xlink:title=" ">
<polygon fill="white" stroke="black" points="488.345,-720 488.345,-740 631.655,-740 631.655,-720 488.345,-720"/>
<text text-anchor="middle" x="560" y="-726" font-family="Helvetica,sans-Serif" font-size="10.00">Mode::navigate_to_waypoint</text>
</a>
</g>
</g>
<!-- Node26&#45;&gt;Node27 -->
<g id="edge2" class="edge"><title>Node26&#45;&gt;Node27</title>
<path fill="none" stroke="midnightblue" d="M722.807,-520.163C715.105,-561.994 691.543,-658.588 632,-710 627.251,-714.101 621.718,-717.365 615.876,-719.962"/>
<polygon fill="midnightblue" stroke="midnightblue" points="726.289,-520.565 724.541,-510.115 719.391,-519.374 726.289,-520.565"/>
</g>
<!-- Node28 -->
<g id="node4" class="node"><title>Node28</title>
<g id="a_node4"><a xlink:href="classModeAuto.html#a5e2c24f57899cb498ccfc9fb86af100a" target="_top" xlink:title=" ">
<polygon fill="white" stroke="black" points="151.136,-700 151.136,-720 248.864,-720 248.864,-700 151.136,-700"/>
<text text-anchor="middle" x="200" y="-706" font-family="Helvetica,sans-Serif" font-size="10.00">ModeAuto::update</text>
</a>
</g>
</g>
<!-- Node27&#45;&gt;Node28 -->
<g id="edge3" class="edge"><title>Node27&#45;&gt;Node28</title>
<path fill="none" stroke="midnightblue" d="M478.083,-725.479C407.526,-721.538 307.557,-715.953 248.978,-712.68"/>
<polygon fill="midnightblue" stroke="midnightblue" points="478.091,-728.985 488.271,-726.049 478.482,-721.996 478.091,-728.985"/>
</g>
<!-- Node29 -->
<g id="node5" class="node"><title>Node29</title>
<g id="a_node5"><a xlink:href="classModeGuided.html#af4257d14a75f566998ef6ea93aa6e096" target="_top" xlink:title=" ">
<polygon fill="white" stroke="black" points="323.298,-681 323.298,-701 432.702,-701 432.702,-681 323.298,-681"/>
<text text-anchor="middle" x="378" y="-687" font-family="Helvetica,sans-Serif" font-size="10.00">ModeGuided::update</text>
</a>
</g>
</g>
<!-- Node27&#45;&gt;Node29 -->
<g id="edge4" class="edge"><title>Node27&#45;&gt;Node29</title>
<path fill="none" stroke="midnightblue" d="M502.605,-717.781C477.704,-712.386 448.794,-706.122 425.197,-701.009"/>
<polygon fill="midnightblue" stroke="midnightblue" points="502.131,-721.26 512.646,-719.957 503.613,-714.418 502.131,-721.26"/>
</g>
<!-- Node30 -->
<g id="node6" class="node"><title>Node30</title>
<g id="a_node6"><a xlink:href="classModeRTL.html#a38eb1818b778be599f0863b838c5c90d" target="_top" xlink:title=" ">
<polygon fill="white" stroke="black" points="330.063,-759 330.063,-779 425.937,-779 425.937,-759 330.063,-759"/>
<text text-anchor="middle" x="378" y="-765" font-family="Helvetica,sans-Serif" font-size="10.00">ModeRTL::update</text>
</a>
</g>
</g>
<!-- Node27&#45;&gt;Node30 -->
<g id="edge6" class="edge"><title>Node27&#45;&gt;Node30</title>
<path fill="none" stroke="midnightblue" d="M502.605,-742.219C477.704,-747.614 448.794,-753.878 425.197,-758.991"/>
<polygon fill="midnightblue" stroke="midnightblue" points="503.613,-745.582 512.646,-740.043 502.131,-738.74 503.613,-745.582"/>
</g>
<!-- Node31 -->
<g id="node7" class="node"><title>Node31</title>
<g id="a_node7"><a xlink:href="classModeSmartRTL.html#a025fa96b94d960f45692ce9807dbabb8" target="_top" xlink:title=" ">
<polygon fill="white" stroke="black" points="316.729,-798 316.729,-818 439.271,-818 439.271,-798 316.729,-798"/>
<text text-anchor="middle" x="378" y="-804" font-family="Helvetica,sans-Serif" font-size="10.00">ModeSmartRTL::update</text>
</a>
</g>
</g>
<!-- Node27&#45;&gt;Node31 -->
<g id="edge8" class="edge"><title>Node27&#45;&gt;Node31</title>
<path fill="none" stroke="midnightblue" d="M534.579,-745.341C513.386,-758.134 481.547,-776.128 452,-788 442.489,-791.821 431.997,-795.171 422.005,-797.981"/>
<polygon fill="midnightblue" stroke="midnightblue" points="536.543,-748.243 543.247,-740.039 532.89,-742.271 536.543,-748.243"/>
</g>
<!-- Node29&#45;&gt;Node28 -->
<g id="edge5" class="edge"><title>Node29&#45;&gt;Node28</title>
<path fill="none" stroke="midnightblue" d="M313.05,-697.904C291.921,-700.185 268.788,-702.682 249.056,-704.812"/>
<polygon fill="midnightblue" stroke="midnightblue" points="313.671,-701.357 323.238,-696.804 312.92,-694.397 313.671,-701.357"/>
</g>
<!-- Node30&#45;&gt;Node28 -->
<g id="edge7" class="edge"><title>Node30&#45;&gt;Node28</title>
<path fill="none" stroke="midnightblue" d="M337.572,-755.783C305.317,-744.97 260.384,-729.907 231.002,-720.058"/>
<polygon fill="midnightblue" stroke="midnightblue" points="336.55,-759.131 347.144,-758.991 338.775,-752.494 336.55,-759.131"/>
</g>
<!-- Node33 -->
<g id="node9" class="node"><title>Node33</title>
<g id="a_node9"><a xlink:href="classRover.html#afcdd0e7bf49c770f3bab460482df5134" target="_top" xlink:title=" ">
<polygon fill="white" stroke="black" points="513.926,-348 513.926,-368 606.074,-368 606.074,-348 513.926,-348"/>
<text text-anchor="middle" x="560" y="-354" font-family="Helvetica,sans-Serif" font-size="10.00">Rover::set_mode</text>
</a>
</g>
</g>
<!-- Node32&#45;&gt;Node33 -->
<g id="edge10" class="edge"><title>Node32&#45;&gt;Node33</title>
<path fill="none" stroke="midnightblue" d="M683.541,-428.504C678.241,-426.486 672.949,-424.303 668,-422 633.46,-405.927 595.838,-381.704 575.698,-368.135"/>
<polygon fill="midnightblue" stroke="midnightblue" points="682.421,-431.821 693.015,-431.949 684.813,-425.242 682.421,-431.821"/>
</g>
<!-- Node52 -->
<g id="node28" class="node"><title>Node52</title>
<g id="a_node28"><a xlink:href="classModeAuto.html#abfeb24c23cf98e335e08d7c8b3d2c3fa" target="_top" xlink:title=" ">
<polygon fill="white" stroke="black" points="498.909,-138 498.909,-158 621.091,-158 621.091,-138 498.909,-138"/>
<text text-anchor="middle" x="560" y="-144" font-family="Helvetica,sans-Serif" font-size="10.00">ModeAuto::start_guided</text>
</a>
</g>
</g>
<!-- Node32&#45;&gt;Node52 -->
<g id="edge30" class="edge"><title>Node32&#45;&gt;Node52</title>
<path fill="none" stroke="midnightblue" d="M682.543,-433.114C677.002,-430.352 671.911,-426.735 668,-422 595.956,-334.766 705.412,-256.085 632,-170 627.73,-164.992 622.343,-161.107 616.454,-158.095"/>
<polygon fill="midnightblue" stroke="midnightblue" points="681.582,-436.5 692.165,-437.001 684.205,-430.01 681.582,-436.5"/>
</g>
<!-- Node55 -->
<g id="node31" class="node"><title>Node55</title>
<g id="a_node31"><a xlink:href="classModeAuto.html#ad98be7e08d4da5e2ae1085addcb9d380" target="_top" xlink:title=" ">
<polygon fill="white" stroke="black" points="503.086,-515 503.086,-535 616.914,-535 616.914,-515 503.086,-515"/>
<text text-anchor="middle" x="560" y="-521" font-family="Helvetica,sans-Serif" font-size="10.00">ModeAuto::start_loiter</text>
</a>
</g>
</g>
<!-- Node32&#45;&gt;Node55 -->
<g id="edge33" class="edge"><title>Node32&#45;&gt;Node55</title>
<path fill="none" stroke="midnightblue" d="M696.868,-456.654C663.547,-473.416 609.878,-500.413 580.973,-514.953"/>
<polygon fill="midnightblue" stroke="midnightblue" points="698.737,-459.632 706.097,-452.012 695.591,-453.379 698.737,-459.632"/>
</g>
<!-- Node56 -->
<g id="node32" class="node"><title>Node56</title>
<g id="a_node32"><a xlink:href="classModeGuided.html#a98078a705c63c40fe51df38d5ffd29d5" target="_top" xlink:title=" ">
<polygon fill="white" stroke="black" points="497.249,-681 497.249,-701 622.751,-701 622.751,-681 497.249,-681"/>
<text text-anchor="middle" x="560" y="-687" font-family="Helvetica,sans-Serif" font-size="10.00">ModeGuided::start_loiter</text>
</a>
</g>
</g>
<!-- Node32&#45;&gt;Node56 -->
<g id="edge35" class="edge"><title>Node32&#45;&gt;Node56</title>
<path fill="none" stroke="midnightblue" d="M696.44,-457.228C686.535,-463.342 675.991,-471.072 668,-480 652.9,-496.871 584.43,-641.217 565.731,-680.926"/>
<polygon fill="midnightblue" stroke="midnightblue" points="698.391,-460.142 705.265,-452.08 694.863,-454.096 698.391,-460.142"/>
</g>
<!-- Node57 -->
<g id="node33" class="node"><title>Node57</title>
<g id="a_node33"><a xlink:href="classModeAuto.html#a9e4b6d907dd8fafc00006d46e216683e" target="_top" xlink:title=" ">
<polygon fill="white" stroke="black" points="504.566,-180 504.566,-200 615.434,-200 615.434,-180 504.566,-180"/>
<text text-anchor="middle" x="560" y="-186" font-family="Helvetica,sans-Serif" font-size="10.00">ModeAuto::start_RTL</text>
</a>
</g>
</g>
<!-- Node32&#45;&gt;Node57 -->
<g id="edge37" class="edge"><title>Node32&#45;&gt;Node57</title>
<path fill="none" stroke="midnightblue" d="M682.448,-431.574C677.182,-429.041 672.193,-425.898 668,-422 638.252,-394.344 648.788,-374.986 632,-338 608.325,-285.84 578.058,-224.35 566.145,-200.336"/>
<polygon fill="midnightblue" stroke="midnightblue" points="681.532,-434.98 692.114,-435.506 684.17,-428.496 681.532,-434.98"/>
</g>
<!-- Node34 -->
<g id="node10" class="node"><title>Node34</title>
<g id="a_node10"><a xlink:href="classRover.html#a1cfd11d6dccd789aebb462243f05fe99" target="_top" xlink:title=" ">
<polygon fill="white" stroke="black" points="325.815,-309 325.815,-329 430.185,-329 430.185,-309 325.815,-309"/>
<text text-anchor="middle" x="378" y="-315" font-family="Helvetica,sans-Serif" font-size="10.00">Rover::crash_check</text>
</a>
</g>
</g>
<!-- Node33&#45;&gt;Node34 -->
<g id="edge11" class="edge"><title>Node33&#45;&gt;Node34</title>
<path fill="none" stroke="midnightblue" d="M503.49,-345.973C478.443,-340.546 449.197,-334.209 425.347,-329.042"/>
<polygon fill="midnightblue" stroke="midnightblue" points="503.064,-349.462 513.578,-348.159 504.546,-342.62 503.064,-349.462"/>
</g>
<!-- Node35 -->
<g id="node11" class="node"><title>Node35</title>
<g id="a_node11"><a xlink:href="classRC__Channel__Rover.html#a1e8678da7945fd86bbe616ed0404b747" target="_top" xlink:title=" ">
<polygon fill="white" stroke="black" points="304.392,-219 304.392,-251 451.608,-251 451.608,-219 304.392,-219"/>
<text text-anchor="start" x="312.392" y="-237" font-family="Helvetica,sans-Serif" font-size="10.00">RC_Channel_Rover::do</text>
<text text-anchor="middle" x="378" y="-225" font-family="Helvetica,sans-Serif" font-size="10.00">_aux_function_change_mode</text>
</a>
</g>
</g>
<!-- Node33&#45;&gt;Node35 -->
<g id="edge12" class="edge"><title>Node33&#45;&gt;Node35</title>
<path fill="none" stroke="midnightblue" d="M543.785,-340.136C524.448,-318.441 489.098,-282.023 452,-260 446.356,-256.649 440.197,-253.665 433.929,-251.03"/>
<polygon fill="midnightblue" stroke="midnightblue" points="541.387,-342.71 550.606,-347.929 546.654,-338.099 541.387,-342.71"/>
</g>
<!-- Node37 -->
<g id="node13" class="node"><title>Node37</title>
<g id="a_node13"><a xlink:href="classModeAuto.html#a67d8e6dd29f7d993941c1a5abc8e5907" target="_top" xlink:title=" ">
<polygon fill="white" stroke="black" points="316.919,-270 316.919,-290 439.081,-290 439.081,-270 316.919,-270"/>
<text text-anchor="middle" x="378" y="-276" font-family="Helvetica,sans-Serif" font-size="10.00">ModeAuto::exit_mission</text>
</a>
</g>
</g>
<!-- Node33&#45;&gt;Node37 -->
<g id="edge14" class="edge"><title>Node33&#45;&gt;Node37</title>
<path fill="none" stroke="midnightblue" d="M535.021,-342.499C513.877,-329.395 481.868,-310.904 452,-299 443.363,-295.557 433.901,-292.563 424.737,-290.033"/>
<polygon fill="midnightblue" stroke="midnightblue" points="533.323,-345.566 543.652,-347.924 537.048,-339.639 533.323,-345.566"/>
</g>
<!-- Node38 -->
<g id="node14" class="node"><title>Node38</title>
<g id="a_node14"><a xlink:href="classRover.html#a7baf121728343d1ba9aef7d1d2ffc388" target="_top" xlink:title=" ">
<polygon fill="white" stroke="black" points="328.591,-129 328.591,-161 427.409,-161 427.409,-129 328.591,-129"/>
<text text-anchor="start" x="336.591" y="-147" font-family="Helvetica,sans-Serif" font-size="10.00">Rover::failsafe_ekf</text>
<text text-anchor="middle" x="378" y="-135" font-family="Helvetica,sans-Serif" font-size="10.00">_event</text>
</a>
</g>
</g>
<!-- Node33&#45;&gt;Node38 -->
<g id="edge15" class="edge"><title>Node33&#45;&gt;Node38</title>
<path fill="none" stroke="midnightblue" d="M550.023,-338.366C529.947,-295.194 480.92,-193.949 452,-170 444.881,-164.104 436.296,-159.571 427.553,-156.093"/>
<polygon fill="midnightblue" stroke="midnightblue" points="546.898,-339.948 554.267,-347.56 553.253,-337.013 546.898,-339.948"/>
</g>
<!-- Node40 -->
<g id="node16" class="node"><title>Node40</title>
<g id="a_node16"><a xlink:href="classRover.html#acda484bf8853dc17d7956fd4db568650" target="_top" xlink:title=" ">
<polygon fill="white" stroke="black" points="321.089,-90 321.089,-110 434.911,-110 434.911,-90 321.089,-90"/>
<text text-anchor="middle" x="378" y="-96" font-family="Helvetica,sans-Serif" font-size="10.00">Rover::failsafe_trigger</text>
</a>
</g>
</g>
<!-- Node33&#45;&gt;Node40 -->
<g id="edge17" class="edge"><title>Node33&#45;&gt;Node40</title>
<path fill="none" stroke="midnightblue" d="M549.389,-338.85C535.354,-310.661 508.672,-256.226 488,-209 470.725,-169.534 484.319,-147.487 452,-119 447.088,-114.67 441.31,-111.307 435.191,-108.698"/>
<polygon fill="midnightblue" stroke="midnightblue" points="546.353,-340.604 553.954,-347.986 552.615,-337.476 546.353,-340.604"/>
</g>
<!-- Node44 -->
<g id="node20" class="node"><title>Node44</title>
<g id="a_node20"><a xlink:href="classRover.html#a73d9e55054d789a1bb3950382d01e0b2" target="_top" xlink:title=" ">
<polygon fill="white" stroke="black" points="325.811,-180 325.811,-200 430.189,-200 430.189,-180 325.811,-180"/>
<text text-anchor="middle" x="378" y="-186" font-family="Helvetica,sans-Serif" font-size="10.00">Rover::fence_check</text>
</a>
</g>
</g>
<!-- Node33&#45;&gt;Node44 -->
<g id="edge21" class="edge"><title>Node33&#45;&gt;Node44</title>
<path fill="none" stroke="midnightblue" d="M550.521,-338.594C535.486,-306.519 501.051,-242.653 452,-209 445.521,-204.555 438.069,-201.15 430.456,-198.541"/>
<polygon fill="midnightblue" stroke="midnightblue" points="547.388,-340.159 554.715,-347.812 553.76,-337.261 547.388,-340.159"/>
</g>
<!-- Node45 -->
<g id="node21" class="node"><title>Node45</title>
<g id="a_node21"><a xlink:href="classRover.html#aaa23e838e0ea7258132f853c02759f36" target="_top" xlink:title=" ">
<polygon fill="white" stroke="black" points="320.803,-591 320.803,-623 435.197,-623 435.197,-591 320.803,-591"/>
<text text-anchor="start" x="328.803" y="-609" font-family="Helvetica,sans-Serif" font-size="10.00">Rover::handle_battery</text>
<text text-anchor="middle" x="378" y="-597" font-family="Helvetica,sans-Serif" font-size="10.00">_failsafe</text>
</a>
</g>
</g>
<!-- Node33&#45;&gt;Node45 -->
<g id="edge22" class="edge"><title>Node33&#45;&gt;Node45</title>
<path fill="none" stroke="midnightblue" d="M549.539,-377.468C535.886,-405.59 509.893,-459.23 488,-505 471.872,-538.717 479.719,-555.928 452,-581 447.111,-585.422 441.419,-589.104 435.411,-592.167"/>
<polygon fill="midnightblue" stroke="midnightblue" points="552.76,-378.848 553.98,-368.324 546.463,-375.79 552.76,-378.848"/>
</g>
<!-- Node46 -->
<g id="node22" class="node"><title>Node46</title>
<g id="a_node22"><a xlink:href="classGCS__MAVLINK__Rover.html#a46580d8a9c126a95b84791c4f1069102" target="_top" xlink:title=" ">
<polygon fill="white" stroke="black" points="315.906,-528 315.906,-572 440.094,-572 440.094,-528 315.906,-528"/>
<text text-anchor="start" x="323.906" y="-558" font-family="Helvetica,sans-Serif" font-size="10.00">GCS_MAVLINK_Rover::</text>
<text text-anchor="start" x="323.906" y="-546" font-family="Helvetica,sans-Serif" font-size="10.00">handle_command_long</text>
<text text-anchor="middle" x="378" y="-534" font-family="Helvetica,sans-Serif" font-size="10.00">_packet</text>
</a>
</g>
</g>
<!-- Node33&#45;&gt;Node46 -->
<g id="edge23" class="edge"><title>Node33&#45;&gt;Node46</title>
<path fill="none" stroke="midnightblue" d="M549.62,-377.516C533.492,-409.379 497.782,-473.02 452,-513 445.686,-518.514 438.404,-523.452 430.937,-527.786"/>
<polygon fill="midnightblue" stroke="midnightblue" points="552.854,-378.873 554.156,-368.358 546.581,-375.766 552.854,-378.873"/>
</g>
<!-- Node47 -->
<g id="node23" class="node"><title>Node47</title>
<g id="a_node23"><a xlink:href="classRover.html#a90f48660f49aa6c8184a46161c8c66bf" target="_top" xlink:title=" ">
<polygon fill="white" stroke="black" points="147.532,-418 147.532,-438 252.468,-438 252.468,-418 147.532,-418"/>
<text text-anchor="middle" x="200" y="-424" font-family="Helvetica,sans-Serif" font-size="10.00">Rover::init_ardupilot</text>
</a>
</g>
</g>
<!-- Node33&#45;&gt;Node47 -->
<g id="edge24" class="edge"><title>Node33&#45;&gt;Node47</title>
<path fill="none" stroke="midnightblue" d="M549.139,-377.003C533.165,-405.442 498.655,-457.977 452,-479 392.03,-506.023 368.047,-493.988 304,-479 270.388,-471.134 235.166,-450.609 215.861,-438.126"/>
<polygon fill="midnightblue" stroke="midnightblue" points="552.309,-378.498 554.005,-368.04 546.158,-375.158 552.309,-378.498"/>
</g>
<!-- Node49 -->
<g id="node25" class="node"><title>Node49</title>
<g id="a_node25"><a xlink:href="classRC__Channel__Rover.html#a63911d9adfcda56f8ce438a248735046" target="_top" xlink:title=" ">
<polygon fill="white" stroke="black" points="309.968,-438 309.968,-470 446.032,-470 446.032,-438 309.968,-438"/>
<text text-anchor="start" x="317.968" y="-456" font-family="Helvetica,sans-Serif" font-size="10.00">RC_Channel_Rover::mode</text>
<text text-anchor="middle" x="378" y="-444" font-family="Helvetica,sans-Serif" font-size="10.00">_switch_changed</text>
</a>
</g>
</g>
<!-- Node33&#45;&gt;Node49 -->
<g id="edge26" class="edge"><title>Node33&#45;&gt;Node49</title>
<path fill="none" stroke="midnightblue" d="M537.577,-374.211C516.6,-389.542 483.317,-412.455 452,-428 444.77,-431.589 436.919,-434.924 429.135,-437.927"/>
<polygon fill="midnightblue" stroke="midnightblue" points="539.814,-376.909 545.771,-368.148 535.651,-371.282 539.814,-376.909"/>
</g>
<!-- Node50 -->
<g id="node26" class="node"><title>Node50</title>
<g id="a_node26"><a xlink:href="classGCS__MAVLINK__Rover.html#a80ef1e75ce51230b30adf34023019f16" target="_top" xlink:title=" ">
<polygon fill="white" stroke="black" points="315.906,-387 315.906,-419 440.094,-419 440.094,-387 315.906,-387"/>
<text text-anchor="start" x="323.906" y="-405" font-family="Helvetica,sans-Serif" font-size="10.00">GCS_MAVLINK_Rover::</text>
<text text-anchor="middle" x="378" y="-393" font-family="Helvetica,sans-Serif" font-size="10.00">set_mode</text>
</a>
</g>
</g>
<!-- Node33&#45;&gt;Node50 -->
<g id="edge27" class="edge"><title>Node33&#45;&gt;Node50</title>
<path fill="none" stroke="midnightblue" d="M508.793,-370.552C487.5,-375.875 462.487,-382.128 440.131,-387.717"/>
<polygon fill="midnightblue" stroke="midnightblue" points="509.752,-373.92 518.604,-368.099 508.054,-367.129 509.752,-373.92"/>
</g>
<!-- Node51 -->
<g id="node27" class="node"><title>Node51</title>
<g id="a_node27"><a xlink:href="classRover.html#a279d4dab20276555d76ab0f28a7c5aee" target="_top" xlink:title=" ">
<polygon fill="white" stroke="black" points="320.249,-348 320.249,-368 435.751,-368 435.751,-348 320.249,-348"/>
<text text-anchor="middle" x="378" y="-354" font-family="Helvetica,sans-Serif" font-size="10.00">Rover::startup_ground</text>
</a>
</g>
</g>
<!-- Node33&#45;&gt;Node51 -->
<g id="edge28" class="edge"><title>Node33&#45;&gt;Node51</title>
<path fill="none" stroke="midnightblue" d="M503.352,-358C481.969,-358 457.542,-358 436.03,-358"/>
<polygon fill="midnightblue" stroke="midnightblue" points="503.578,-361.5 513.578,-358 503.578,-354.5 503.578,-361.5"/>
</g>
<!-- Node36 -->
<g id="node12" class="node"><title>Node36</title>
<g id="a_node12"><a xlink:href="classRC__Channel__Rover.html#abeef07ee78896cacb25340467bd6255d" target="_top" xlink:title=" ">
<polygon fill="white" stroke="black" points="138.914,-219 138.914,-251 261.086,-251 261.086,-219 138.914,-219"/>
<text text-anchor="start" x="146.914" y="-237" font-family="Helvetica,sans-Serif" font-size="10.00">RC_Channel_Rover::do</text>
<text text-anchor="middle" x="200" y="-225" font-family="Helvetica,sans-Serif" font-size="10.00">_aux_function</text>
</a>
</g>
</g>
<!-- Node35&#45;&gt;Node36 -->
<g id="edge13" class="edge"><title>Node35&#45;&gt;Node36</title>
<path fill="none" stroke="midnightblue" d="M294.033,-235C282.969,-235 271.799,-235 261.224,-235"/>
<polygon fill="midnightblue" stroke="midnightblue" points="294.144,-238.5 304.144,-235 294.144,-231.5 294.144,-238.5"/>
</g>
<!-- Node39 -->
<g id="node15" class="node"><title>Node39</title>
<g id="a_node15"><a xlink:href="classRover.html#abe3c868752daa20600110fc80bdae45c" target="_top" xlink:title=" ">
<polygon fill="white" stroke="black" points="153.372,-147 153.372,-167 246.628,-167 246.628,-147 153.372,-147"/>
<text text-anchor="middle" x="200" y="-153" font-family="Helvetica,sans-Serif" font-size="10.00">Rover::ekf_check</text>
</a>
</g>
</g>
<!-- Node38&#45;&gt;Node39 -->
<g id="edge16" class="edge"><title>Node38&#45;&gt;Node39</title>
<path fill="none" stroke="midnightblue" d="M318.311,-149.001C294.978,-150.592 268.541,-152.395 246.678,-153.886"/>
<polygon fill="midnightblue" stroke="midnightblue" points="318.703,-152.483 328.441,-148.311 318.226,-145.499 318.703,-152.483"/>
</g>
<!-- Node41 -->
<g id="node17" class="node"><title>Node41</title>
<g id="a_node17"><a xlink:href="classRover.html#a9b38b6c9e3610fb8636d7941e5d748f0" target="_top" xlink:title=" ">
<polygon fill="white" stroke="black" points="149.48,-45 149.48,-77 250.52,-77 250.52,-45 149.48,-45"/>
<text text-anchor="start" x="157.48" y="-63" font-family="Helvetica,sans-Serif" font-size="10.00">Rover::gcs_failsafe</text>
<text text-anchor="middle" x="200" y="-51" font-family="Helvetica,sans-Serif" font-size="10.00">_check</text>
</a>
</g>
</g>
<!-- Node40&#45;&gt;Node41 -->
<g id="edge18" class="edge"><title>Node40&#45;&gt;Node41</title>
<path fill="none" stroke="midnightblue" d="M321.832,-87.7753C299.101,-82.7382 272.957,-76.9451 250.815,-72.0386"/>
<polygon fill="midnightblue" stroke="midnightblue" points="321.155,-91.2101 331.676,-89.9565 322.67,-84.3759 321.155,-91.2101"/>
</g>
<!-- Node42 -->
<g id="node18" class="node"><title>Node42</title>
<g id="a_node18"><a xlink:href="classRover.html#a7174fbc056d818daf4e28678b5ffaa0b" target="_top" xlink:title=" ">
<polygon fill="white" stroke="black" points="146.143,-96 146.143,-128 253.857,-128 253.857,-96 146.143,-96"/>
<text text-anchor="start" x="154.143" y="-114" font-family="Helvetica,sans-Serif" font-size="10.00">Rover::radio_failsafe</text>
<text text-anchor="middle" x="200" y="-102" font-family="Helvetica,sans-Serif" font-size="10.00">_check</text>
</a>
</g>
</g>
<!-- Node40&#45;&gt;Node42 -->
<g id="edge19" class="edge"><title>Node40&#45;&gt;Node42</title>
<path fill="none" stroke="midnightblue" d="M310.594,-104.528C291.874,-105.804 271.763,-107.175 253.945,-108.39"/>
<polygon fill="midnightblue" stroke="midnightblue" points="311.09,-108.002 320.829,-103.83 310.614,-101.018 311.09,-108.002"/>
</g>
<!-- Node43 -->
<g id="node19" class="node"><title>Node43</title>
<g id="a_node19"><a xlink:href="classRover.html#a6578ee76e373ab207951dff1ffd93d0d" target="_top" xlink:title=" ">
<polygon fill="white" stroke="black" points="-0.0219727,-102 -0.0219727,-122 96.022,-122 96.022,-102 -0.0219727,-102"/>
<text text-anchor="middle" x="48" y="-108" font-family="Helvetica,sans-Serif" font-size="10.00">Rover::read_radio</text>
</a>
</g>
</g>
<!-- Node42&#45;&gt;Node43 -->
<g id="edge20" class="edge"><title>Node42&#45;&gt;Node43</title>
<path fill="none" stroke="midnightblue" d="M136.089,-112C122.806,-112 109.005,-112 96.4094,-112"/>
<polygon fill="midnightblue" stroke="midnightblue" points="136.116,-115.5 146.116,-112 136.116,-108.5 136.116,-115.5"/>
</g>
<!-- Node48 -->
<g id="node24" class="node"><title>Node48</title>
<g id="a_node24"><a xlink:href="classRover.html#aa8facf471cdb4f4d59ba165f28f15fcd" target="_top" xlink:title=" ">
<polygon fill="white" stroke="black" points="11.6528,-418 11.6528,-438 84.3472,-438 84.3472,-418 11.6528,-418"/>
<text text-anchor="middle" x="48" y="-424" font-family="Helvetica,sans-Serif" font-size="10.00">Rover::setup</text>
</a>
</g>
</g>
<!-- Node47&#45;&gt;Node48 -->
<g id="edge25" class="edge"><title>Node47&#45;&gt;Node48</title>
<path fill="none" stroke="midnightblue" d="M137.27,-428C119.351,-428 100.387,-428 84.6489,-428"/>
<polygon fill="midnightblue" stroke="midnightblue" points="137.379,-431.5 147.379,-428 137.378,-424.5 137.379,-431.5"/>
</g>
<!-- Node51&#45;&gt;Node47 -->
<g id="edge29" class="edge"><title>Node51&#45;&gt;Node47</title>
<path fill="none" stroke="midnightblue" d="M322.621,-370.828C316.283,-372.713 309.958,-374.776 304,-377 272.967,-388.581 238.871,-406.587 218.734,-417.816"/>
<polygon fill="midnightblue" stroke="midnightblue" points="323.873,-374.111 332.539,-368.017 321.964,-367.376 323.873,-374.111"/>
</g>
<!-- Node53 -->
<g id="node29" class="node"><title>Node53</title>
<g id="a_node29"><a xlink:href="classModeAuto.html#a9acc6031ca1070c14f5a07b41bf04404" target="_top" xlink:title=" ">
<polygon fill="white" stroke="black" points="310.229,-0 310.229,-32 445.771,-32 445.771,-0 310.229,-0"/>
<text text-anchor="start" x="318.229" y="-18" font-family="Helvetica,sans-Serif" font-size="10.00">ModeAuto::do_nav_guided</text>
<text text-anchor="middle" x="378" y="-6" font-family="Helvetica,sans-Serif" font-size="10.00">_enable</text>
</a>
</g>
</g>
<!-- Node52&#45;&gt;Node53 -->
<g id="edge31" class="edge"><title>Node52&#45;&gt;Node53</title>
<path fill="none" stroke="midnightblue" d="M545.257,-129.822C526.557,-106.249 490.938,-65.2862 452,-41 446.658,-37.668 440.816,-34.7167 434.84,-32.1188"/>
<polygon fill="midnightblue" stroke="midnightblue" points="542.664,-132.19 551.567,-137.934 548.19,-127.892 542.664,-132.19"/>
</g>
<!-- Node54 -->
<g id="node30" class="node"><title>Node54</title>
<g id="a_node30"><a xlink:href="classModeAuto.html#a31ef596d25ce081bc7fa4e14c7691baa" target="_top" xlink:title=" ">
<polygon fill="white" stroke="black" points="131.971,-6 131.971,-26 268.029,-26 268.029,-6 131.971,-6"/>
<text text-anchor="middle" x="200" y="-12" font-family="Helvetica,sans-Serif" font-size="10.00">ModeAuto::start_command</text>
</a>
</g>
</g>
<!-- Node53&#45;&gt;Node54 -->
<g id="edge32" class="edge"><title>Node53&#45;&gt;Node54</title>
<path fill="none" stroke="midnightblue" d="M300.069,-16C289.398,-16 278.506,-16 268.035,-16"/>
<polygon fill="midnightblue" stroke="midnightblue" points="300.211,-19.5001 310.211,-16 300.211,-12.5001 300.211,-19.5001"/>
</g>
<!-- Node55&#45;&gt;Node28 -->
<g id="edge34" class="edge"><title>Node55&#45;&gt;Node28</title>
<path fill="none" stroke="midnightblue" d="M545.493,-543.571C527.053,-567.575 491.718,-609.011 452,-632 393.028,-666.133 368.917,-651.298 304,-672 277.125,-680.571 246.898,-691.932 226.178,-699.993"/>
<polygon fill="midnightblue" stroke="midnightblue" points="548.499,-545.397 551.707,-535.299 542.902,-541.192 548.499,-545.397"/>
</g>
<!-- Node56&#45;&gt;Node29 -->
<g id="edge36" class="edge"><title>Node56&#45;&gt;Node29</title>
<path fill="none" stroke="midnightblue" d="M486.887,-691C468.889,-691 449.896,-691 432.947,-691"/>
<polygon fill="midnightblue" stroke="midnightblue" points="487.054,-694.5 497.054,-691 487.054,-687.5 487.054,-694.5"/>
</g>
<!-- Node58 -->
<g id="node34" class="node"><title>Node58</title>
<g id="a_node34"><a xlink:href="classModeAuto.html#a96fb29f0524e63bdfd904afc6ec42ede" target="_top" xlink:title=" ">
<polygon fill="white" stroke="black" points="326.729,-51 326.729,-71 429.271,-71 429.271,-51 326.729,-51"/>
<text text-anchor="middle" x="378" y="-57" font-family="Helvetica,sans-Serif" font-size="10.00">ModeAuto::do_RTL</text>
</a>
</g>
</g>
<!-- Node57&#45;&gt;Node58 -->
<g id="edge38" class="edge"><title>Node57&#45;&gt;Node58</title>
<path fill="none" stroke="midnightblue" d="M499.891,-175.524C495.595,-173.108 491.56,-170.289 488,-167 457.264,-138.603 483.556,-107.484 452,-80 445.581,-74.4093 437.715,-70.4327 429.552,-67.611"/>
<polygon fill="midnightblue" stroke="midnightblue" points="498.481,-178.73 509.007,-179.939 501.532,-172.43 498.481,-178.73"/>
</g>
<!-- Node58&#45;&gt;Node54 -->
<g id="edge39" class="edge"><title>Node58&#45;&gt;Node54</title>
<path fill="none" stroke="midnightblue" d="M327.652,-48.3825C300.065,-41.3291 266.154,-32.6587 240.366,-26.0652"/>
<polygon fill="midnightblue" stroke="midnightblue" points="326.947,-51.8148 337.502,-50.9011 328.681,-45.033 326.947,-51.8148"/>
</g>
</g>
</svg>
