<?xml version="1.0" encoding="UTF-8" standalone="no"?>
<!DOCTYPE svg PUBLIC "-//W3C//DTD SVG 1.1//EN"
 "http://www.w3.org/Graphics/SVG/1.1/DTD/svg11.dtd">
<!-- Generated by graphviz version 2.30.1 (20130221.2233)
 -->
<!-- Title: Rover::crash_check Pages: 1 -->
<svg width="840pt" height="813pt"
 viewBox="0.00 0.00 840.00 813.48" xmlns="http://www.w3.org/2000/svg" xmlns:xlink="http://www.w3.org/1999/xlink">
<g id="graph0" class="graph" transform="scale(1 1) rotate(0) translate(4 809.481)">
<title>Rover::crash_check</title>
<polygon fill="white" stroke="white" points="-4,5 -4,-809.481 837,-809.481 837,5 -4,5"/>
<!-- Node115 -->
<g id="node1" class="node"><title>Node115</title>
<g id="a_node1"><a xlink:title=" ">
<polygon fill="#bfbfbf" stroke="black" points="-0.18457,-402 -0.18457,-422 104.185,-422 104.185,-402 -0.18457,-402"/>
<text text-anchor="middle" x="52" y="-408" font-family="Helvetica,sans-Serif" font-size="10.00">Rover::crash_check</text>
</a>
</g>
</g>
<!-- Node116 -->
<g id="node2" class="node"><title>Node116</title>
<g id="a_node2"><a doxygen="/Users/coreyshive/Documents/schoolcode/ardupilot/docs/tags/libraries:../libraries/" xlink:href="../libraries/classAP__Arming.html#aededf89cac3010c297fcef7e8b38e99a" xlink:title=" ">
<polygon fill="white" stroke="black" points="701.37,-78 701.37,-98 814.63,-98 814.63,-78 701.37,-78"/>
<text text-anchor="middle" x="758" y="-84" font-family="Helvetica,sans-Serif" font-size="10.00">AP_Arming::is_armed</text>
</a>
</g>
</g>
<!-- Node115&#45;&gt;Node116 -->
<g id="edge1" class="edge"><title>Node115&#45;&gt;Node116</title>
<path fill="none" stroke="midnightblue" d="M68.1376,-401.954C85.0543,-391.096 113.55,-373.887 140,-363 200.521,-338.088 238.18,-372.614 282,-324 347.455,-251.384 244.813,-171.817 318,-107 371.527,-59.5947 582.045,-71.4261 690.945,-81.1608"/>
<polygon fill="midnightblue" stroke="midnightblue" points="690.88,-84.6695 701.157,-82.0943 691.517,-77.6985 690.88,-84.6695"/>
</g>
<!-- Node117 -->
<g id="node3" class="node"><title>Node117</title>
<g id="a_node3"><a xlink:href="classMode.html#aaf3fe35de08bf5fb5922462877b3a6e0" target="_top" xlink:title=" ">
<polygon fill="white" stroke="black" points="516.131,-493 516.131,-513 643.869,-513 643.869,-493 516.131,-493"/>
<text text-anchor="middle" x="580" y="-499" font-family="Helvetica,sans-Serif" font-size="10.00">Mode::is_autopilot_mode</text>
</a>
</g>
</g>
<!-- Node115&#45;&gt;Node117 -->
<g id="edge2" class="edge"><title>Node115&#45;&gt;Node117</title>
<path fill="none" stroke="midnightblue" d="M64.1701,-422.162C79.8929,-435.889 109.997,-460.119 140,-473 260.145,-524.581 415.866,-520.601 505.89,-512.296"/>
<polygon fill="midnightblue" stroke="midnightblue" points="506.383,-515.765 516,-511.32 505.71,-508.797 506.383,-515.765"/>
</g>
<!-- Node118 -->
<g id="node4" class="node"><title>Node118</title>
<g id="a_node4"><a xlink:href="classRover.html#a9a7e3a45cefcd29348b819d4c9acc24c" target="_top" xlink:title=" ">
<polygon fill="white" stroke="black" points="156.027,-295 156.027,-315 265.973,-315 265.973,-295 156.027,-295"/>
<text text-anchor="middle" x="211" y="-301" font-family="Helvetica,sans-Serif" font-size="10.00">Rover::is_balancebot</text>
</a>
</g>
</g>
<!-- Node115&#45;&gt;Node118 -->
<g id="edge3" class="edge"><title>Node115&#45;&gt;Node118</title>
<path fill="none" stroke="midnightblue" d="M61.3398,-401.757C75.7346,-384.68 106.899,-350.268 140,-330 147.277,-325.544 155.465,-321.722 163.608,-318.504"/>
<polygon fill="midnightblue" stroke="midnightblue" points="164.922,-321.75 173.09,-315.001 162.496,-315.184 164.922,-321.75"/>
</g>
<!-- Node119 -->
<g id="node5" class="node"><title>Node119</title>
<g id="a_node5"><a doxygen="/Users/coreyshive/Documents/schoolcode/ardupilot/docs/tags/libraries:../libraries/" xlink:href="../libraries/classAP__AHRS.html#a11efcc2b48256bf736f33ac26063ae16" xlink:title=" ">
<polygon fill="white" stroke="black" points="147.688,-256 147.688,-276 274.312,-276 274.312,-256 147.688,-256"/>
<text text-anchor="middle" x="211" y="-262" font-family="Helvetica,sans-Serif" font-size="10.00">AP_AHRS::groundspeed</text>
</a>
</g>
</g>
<!-- Node115&#45;&gt;Node119 -->
<g id="edge4" class="edge"><title>Node115&#45;&gt;Node119</title>
<path fill="none" stroke="midnightblue" d="M56.9554,-401.963C66.98,-377.866 95.7689,-316.418 140,-285 142.406,-283.291 144.958,-281.735 147.61,-280.32"/>
<polygon fill="midnightblue" stroke="midnightblue" points="149.319,-283.387 156.939,-276.026 146.392,-277.028 149.319,-283.387"/>
</g>
<!-- Node120 -->
<g id="node6" class="node"><title>Node120</title>
<g id="a_node6"><a doxygen="/Users/coreyshive/Documents/schoolcode/ardupilot/docs/tags/libraries:../libraries/" xlink:href="../libraries/classAP__AHRS__DCM.html#a5d714010e1c33a42c22d8c80b5668ce9" xlink:title=" ">
<polygon fill="white" stroke="black" points="143.254,-217 143.254,-237 278.746,-237 278.746,-217 143.254,-217"/>
<text text-anchor="middle" x="211" y="-223" font-family="Helvetica,sans-Serif" font-size="10.00">AP_AHRS_DCM::get_gyro</text>
</a>
</g>
</g>
<!-- Node115&#45;&gt;Node120 -->
<g id="edge5" class="edge"><title>Node115&#45;&gt;Node120</title>
<path fill="none" stroke="midnightblue" d="M55.2569,-401.991C62.3096,-373.078 86.7213,-288.781 140,-246 141.835,-244.527 143.775,-243.167 145.795,-241.913"/>
<polygon fill="midnightblue" stroke="midnightblue" points="147.844,-244.791 155.086,-237.059 144.602,-238.587 147.844,-244.791"/>
</g>
<!-- Node121 -->
<g id="node7" class="node"><title>Node121</title>
<g id="a_node7"><a xlink:href="classAP__MotorsUGV.html#a54d9d572b65b97f03c1db8484b896118" target="_top" xlink:title=" ">
<polygon fill="white" stroke="black" points="139.821,-178 139.821,-198 282.179,-198 282.179,-178 139.821,-178"/>
<text text-anchor="middle" x="211" y="-184" font-family="Helvetica,sans-Serif" font-size="10.00">AP_MotorsUGV::get_throttle</text>
</a>
</g>
</g>
<!-- Node115&#45;&gt;Node121 -->
<g id="edge6" class="edge"><title>Node115&#45;&gt;Node121</title>
<path fill="none" stroke="midnightblue" d="M54.2218,-401.648C58.7455,-368.097 77.6468,-261.385 140,-207 141.566,-205.634 143.221,-204.366 144.946,-203.187"/>
<polygon fill="midnightblue" stroke="midnightblue" points="147.104,-205.988 154.084,-198.016 143.657,-199.896 147.104,-205.988"/>
</g>
<!-- Node122 -->
<g id="node8" class="node"><title>Node122</title>
<g id="a_node8"><a doxygen="/Users/coreyshive/Documents/schoolcode/ardupilot/docs/tags/libraries:../libraries/" xlink:href="../libraries/namespaceAP.html#aa35bfac1ea2da16f110e8e72db7b3b20" xlink:title=" ">
<polygon fill="white" stroke="black" points="726.653,-648 726.653,-668 789.347,-668 789.347,-648 726.653,-648"/>
<text text-anchor="middle" x="758" y="-654" font-family="Helvetica,sans-Serif" font-size="10.00">AP::logger</text>
</a>
</g>
</g>
<!-- Node115&#45;&gt;Node122 -->
<g id="edge7" class="edge"><title>Node115&#45;&gt;Node122</title>
<path fill="none" stroke="midnightblue" d="M54.0069,-422.103C58.161,-459.298 76.8415,-590.766 140,-674 197.673,-750.005 226.756,-766.116 318,-794 478.366,-843.008 671.296,-719.89 735.242,-674.232"/>
<polygon fill="midnightblue" stroke="midnightblue" points="737.678,-676.789 743.722,-668.087 733.571,-671.121 737.678,-676.789"/>
</g>
<!-- Node123 -->
<g id="node9" class="node"><title>Node123</title>
<g id="a_node9"><a doxygen="/Users/coreyshive/Documents/schoolcode/ardupilot/docs/tags/libraries:../libraries/" xlink:href="../libraries/classAP__Logger.html#a5f47086952bb5e841d979491e6dd562f" xlink:title=" ">
<polygon fill="white" stroke="black" points="335.733,-480 335.733,-500 458.267,-500 458.267,-480 335.733,-480"/>
<text text-anchor="middle" x="397" y="-486" font-family="Helvetica,sans-Serif" font-size="10.00">AP_Logger::Write_Error</text>
</a>
</g>
</g>
<!-- Node115&#45;&gt;Node123 -->
<g id="edge8" class="edge"><title>Node115&#45;&gt;Node123</title>
<path fill="none" stroke="midnightblue" d="M77.0074,-422.12C94.2755,-429.079 118.256,-438.096 140,-444 201.793,-460.778 273.673,-473.082 325.507,-480.721"/>
<polygon fill="midnightblue" stroke="midnightblue" points="325.199,-484.213 335.598,-482.187 326.205,-477.286 325.199,-484.213"/>
</g>
<!-- Node124 -->
<g id="node10" class="node"><title>Node124</title>
<g id="a_node10"><a xlink:href="classRover.html#aa49315d8344d41618e6b6abfc459e89c" target="_top" xlink:title=" ">
<polygon fill="white" stroke="black" points="365.104,-441 365.104,-461 428.896,-461 428.896,-441 365.104,-441"/>
<text text-anchor="middle" x="397" y="-447" font-family="Helvetica,sans-Serif" font-size="10.00">Rover::gcs</text>
</a>
</g>
</g>
<!-- Node115&#45;&gt;Node124 -->
<g id="edge9" class="edge"><title>Node115&#45;&gt;Node124</title>
<path fill="none" stroke="midnightblue" d="M104.351,-417.839C172.543,-425.592 291.669,-439.137 354.494,-446.281"/>
<polygon fill="midnightblue" stroke="midnightblue" points="354.48,-449.802 364.811,-447.454 355.271,-442.846 354.48,-449.802"/>
</g>
<!-- Node125 -->
<g id="node11" class="node"><title>Node125</title>
<g id="a_node11"><a doxygen="/Users/coreyshive/Documents/schoolcode/ardupilot/docs/tags/libraries:../libraries/" xlink:href="../libraries/classGCS.html#a9866f3484283db744409e40719cef765" xlink:title=" ">
<polygon fill="white" stroke="black" points="353.705,-558 353.705,-578 440.295,-578 440.295,-558 353.705,-558"/>
<text text-anchor="middle" x="397" y="-564" font-family="Helvetica,sans-Serif" font-size="10.00">GCS::send_text</text>
</a>
</g>
</g>
<!-- Node115&#45;&gt;Node125 -->
<g id="edge10" class="edge"><title>Node115&#45;&gt;Node125</title>
<path fill="none" stroke="midnightblue" d="M56.2705,-422.094C65.0953,-447.513 92.0228,-514.179 140,-543 202.214,-580.374 288.615,-580.369 343.416,-575.383"/>
<polygon fill="midnightblue" stroke="midnightblue" points="344,-578.842 353.603,-574.366 343.305,-571.877 344,-578.842"/>
</g>
<!-- Node126 -->
<g id="node12" class="node"><title>Node126</title>
<g id="a_node12"><a xlink:href="classAP__Arming__Rover.html#aae21ea100b949337d7b6f81ac3898c72" target="_top" xlink:title=" ">
<polygon fill="white" stroke="black" points="143.813,-645 143.813,-665 278.187,-665 278.187,-645 143.813,-645"/>
<text text-anchor="middle" x="211" y="-651" font-family="Helvetica,sans-Serif" font-size="10.00">AP_Arming_Rover::disarm</text>
</a>
</g>
</g>
<!-- Node115&#45;&gt;Node126 -->
<g id="edge11" class="edge"><title>Node115&#45;&gt;Node126</title>
<path fill="none" stroke="midnightblue" d="M56.9671,-422.156C67.8797,-449.448 100.196,-526.093 140,-582 154.951,-603 175.776,-623.922 190.82,-637.949"/>
<polygon fill="midnightblue" stroke="midnightblue" points="188.77,-640.818 198.509,-644.989 193.497,-635.655 188.77,-640.818"/>
</g>
<!-- Node137 -->
<g id="node23" class="node"><title>Node137</title>
<g id="a_node23"><a xlink:href="classRover.html#afcdd0e7bf49c770f3bab460482df5134" target="_top" xlink:title=" ">
<polygon fill="white" stroke="black" points="164.926,-373 164.926,-393 257.074,-393 257.074,-373 164.926,-373"/>
<text text-anchor="middle" x="211" y="-379" font-family="Helvetica,sans-Serif" font-size="10.00">Rover::set_mode</text>
</a>
</g>
</g>
<!-- Node115&#45;&gt;Node137 -->
<g id="edge25" class="edge"><title>Node115&#45;&gt;Node137</title>
<path fill="none" stroke="midnightblue" d="M104.408,-402.504C120.552,-399.522 138.44,-396.218 154.834,-393.19"/>
<polygon fill="midnightblue" stroke="midnightblue" points="155.622,-396.604 164.819,-391.345 154.35,-389.72 155.622,-396.604"/>
</g>
<!-- Node127 -->
<g id="node13" class="node"><title>Node127</title>
<g id="a_node13"><a doxygen="/Users/coreyshive/Documents/schoolcode/ardupilot/docs/tags/libraries:../libraries/" xlink:href="../libraries/classAP__Arming.html#a1cd502992feb63526f3e2942576d4c03" xlink:title=" ">
<polygon fill="white" stroke="black" points="345.931,-765 345.931,-785 448.069,-785 448.069,-765 345.931,-765"/>
<text text-anchor="middle" x="397" y="-771" font-family="Helvetica,sans-Serif" font-size="10.00">AP_Arming::disarm</text>
</a>
</g>
</g>
<!-- Node126&#45;&gt;Node127 -->
<g id="edge12" class="edge"><title>Node126&#45;&gt;Node127</title>
<path fill="none" stroke="midnightblue" d="M219.827,-665.272C235.906,-685.632 274.792,-731.19 318,-755 323.625,-758.099 329.742,-760.73 335.995,-762.961"/>
<polygon fill="midnightblue" stroke="midnightblue" points="335.288,-766.411 345.88,-766.148 337.436,-759.748 335.288,-766.411"/>
</g>
<!-- Node128 -->
<g id="node14" class="node"><title>Node128</title>
<g id="a_node14"><a doxygen="/Users/coreyshive/Documents/schoolcode/ardupilot/docs/tags/libraries:../libraries/" xlink:href="../libraries/classAP__Mission.html#a1d61da109874e0fefc6ee9a751547aee" xlink:title=" ">
<polygon fill="white" stroke="black" points="348.707,-726 348.707,-746 445.293,-746 445.293,-726 348.707,-726"/>
<text text-anchor="middle" x="397" y="-732" font-family="Helvetica,sans-Serif" font-size="10.00">AP_Mission::reset</text>
</a>
</g>
</g>
<!-- Node126&#45;&gt;Node128 -->
<g id="edge13" class="edge"><title>Node126&#45;&gt;Node128</title>
<path fill="none" stroke="midnightblue" d="M226.445,-665.02C246.266,-678.362 283.389,-701.91 318,-716 324.438,-718.621 331.317,-720.978 338.223,-723.075"/>
<polygon fill="midnightblue" stroke="midnightblue" points="337.736,-726.576 348.313,-725.962 339.661,-719.846 337.736,-726.576"/>
</g>
<!-- Node129 -->
<g id="node15" class="node"><title>Node129</title>
<g id="a_node15"><a xlink:href="classAP__Arming__Rover.html#a472ddd48426f57399a320baba73e1bea" target="_top" xlink:title=" ">
<polygon fill="white" stroke="black" points="328.412,-597 328.412,-629 465.588,-629 465.588,-597 328.412,-597"/>
<text text-anchor="start" x="336.412" y="-615" font-family="Helvetica,sans-Serif" font-size="10.00">AP_Arming_Rover::change</text>
<text text-anchor="middle" x="397" y="-603" font-family="Helvetica,sans-Serif" font-size="10.00">_arm_state</text>
</a>
</g>
</g>
<!-- Node126&#45;&gt;Node129 -->
<g id="edge14" class="edge"><title>Node126&#45;&gt;Node129</title>
<path fill="none" stroke="midnightblue" d="M256.073,-644.94C274.704,-640.687 296.975,-635.604 318.21,-630.756"/>
<polygon fill="midnightblue" stroke="midnightblue" points="319.232,-634.113 328.203,-628.475 317.675,-627.289 319.232,-634.113"/>
</g>
<!-- Node136 -->
<g id="node22" class="node"><title>Node136</title>
<g id="a_node22"><a doxygen="/Users/coreyshive/Documents/schoolcode/ardupilot/docs/tags/libraries:../libraries/" xlink:href="../libraries/GCS_8h.html#a1d3cc361b864ddf64a44c12ab3bd044e" xlink:title=" ">
<polygon fill="white" stroke="black" points="381.219,-687 381.219,-707 412.781,-707 412.781,-687 381.219,-687"/>
<text text-anchor="middle" x="397" y="-693" font-family="Helvetica,sans-Serif" font-size="10.00">gcs</text>
</a>
</g>
</g>
<!-- Node126&#45;&gt;Node136 -->
<g id="edge23" class="edge"><title>Node126&#45;&gt;Node136</title>
<path fill="none" stroke="midnightblue" d="M256.073,-665.06C292.055,-673.273 341.607,-684.584 371.067,-691.309"/>
<polygon fill="midnightblue" stroke="midnightblue" points="370.422,-694.751 380.95,-693.565 371.979,-687.927 370.422,-694.751"/>
</g>
<!-- Node126&#45;&gt;Node125 -->
<g id="edge24" class="edge"><title>Node126&#45;&gt;Node125</title>
<path fill="none" stroke="midnightblue" d="M224.966,-644.896C244.232,-630.342 282.019,-603.525 318,-588 326.114,-584.499 334.976,-581.508 343.723,-578.988"/>
<polygon fill="midnightblue" stroke="midnightblue" points="344.765,-582.332 353.503,-576.341 342.936,-575.575 344.765,-582.332"/>
</g>
<!-- Node130 -->
<g id="node16" class="node"><title>Node130</title>
<g id="a_node16"><a doxygen="/Users/coreyshive/Documents/schoolcode/ardupilot/docs/tags/libraries:../libraries/" xlink:href="../libraries/classAP__Arming.html#acd102c420e857b1e10515bf1c8102876" xlink:title=" ">
<polygon fill="white" stroke="black" points="521.233,-597 521.233,-629 638.767,-629 638.767,-597 521.233,-597"/>
<text text-anchor="start" x="529.233" y="-615" font-family="Helvetica,sans-Serif" font-size="10.00">AP_Arming::Log_Write</text>
<text text-anchor="middle" x="580" y="-603" font-family="Helvetica,sans-Serif" font-size="10.00">_Arm_Disarm</text>
</a>
</g>
</g>
<!-- Node129&#45;&gt;Node130 -->
<g id="edge15" class="edge"><title>Node129&#45;&gt;Node130</title>
<path fill="none" stroke="midnightblue" d="M465.655,-613C480.503,-613 496.23,-613 511.088,-613"/>
<polygon fill="midnightblue" stroke="midnightblue" points="511.214,-616.5 521.214,-613 511.214,-609.5 511.214,-616.5"/>
</g>
<!-- Node131 -->
<g id="node17" class="node"><title>Node131</title>
<g id="a_node17"><a xlink:href="classAP__Arming__Rover.html#a4a755215b7b618c8a46fd96a35186ad9" target="_top" xlink:title=" ">
<polygon fill="white" stroke="black" points="512.522,-539 512.522,-571 647.478,-571 647.478,-539 512.522,-539"/>
<text text-anchor="start" x="520.522" y="-557" font-family="Helvetica,sans-Serif" font-size="10.00">AP_Arming_Rover::update</text>
<text text-anchor="middle" x="580" y="-545" font-family="Helvetica,sans-Serif" font-size="10.00">_soft_armed</text>
</a>
</g>
</g>
<!-- Node129&#45;&gt;Node131 -->
<g id="edge16" class="edge"><title>Node129&#45;&gt;Node131</title>
<path fill="none" stroke="midnightblue" d="M447.938,-596.998C470.004,-589.927 496.126,-581.556 519.22,-574.156"/>
<polygon fill="midnightblue" stroke="midnightblue" points="520.456,-577.435 528.911,-571.051 518.32,-570.769 520.456,-577.435"/>
</g>
<!-- Node132 -->
<g id="node18" class="node"><title>Node132</title>
<g id="a_node18"><a doxygen="/Users/coreyshive/Documents/schoolcode/ardupilot/docs/tags/libraries:../libraries/" xlink:href="../libraries/classAP__HAL_1_1Util.html#a1f79cc2bff40a44454c576cbc2c2528a" xlink:title=" ">
<polygon fill="white" stroke="black" points="700.535,-488 700.535,-520 815.465,-520 815.465,-488 700.535,-488"/>
<text text-anchor="start" x="708.535" y="-506" font-family="Helvetica,sans-Serif" font-size="10.00">AP_HAL::Util::set_soft</text>
<text text-anchor="middle" x="758" y="-494" font-family="Helvetica,sans-Serif" font-size="10.00">_armed</text>
</a>
</g>
</g>
<!-- Node131&#45;&gt;Node132 -->
<g id="edge17" class="edge"><title>Node131&#45;&gt;Node132</title>
<path fill="none" stroke="midnightblue" d="M636.688,-538.863C654.273,-533.768 673.857,-528.092 692.032,-522.826"/>
<polygon fill="midnightblue" stroke="midnightblue" points="693.044,-526.177 701.675,-520.032 691.096,-519.453 693.044,-526.177"/>
</g>
<!-- Node131&#45;&gt;Node116 -->
<g id="edge18" class="edge"><title>Node131&#45;&gt;Node116</title>
<path fill="none" stroke="midnightblue" d="M628.59,-538.865C636.049,-534.448 642.949,-528.908 648,-522 711.401,-435.285 657.023,-386.978 684,-283 701.113,-217.044 732.603,-142.493 748.02,-107.765"/>
<polygon fill="midnightblue" stroke="midnightblue" points="751.357,-108.876 752.255,-98.3196 744.97,-106.013 751.357,-108.876"/>
</g>
<!-- Node133 -->
<g id="node19" class="node"><title>Node133</title>
<g id="a_node19"><a doxygen="/Users/coreyshive/Documents/schoolcode/ardupilot/docs/tags/libraries:../libraries/" xlink:href="../libraries/classAP__HAL_1_1Util.html#a9cd8bcd13d4c3c74c665b0702f86451b" xlink:title=" ">
<polygon fill="white" stroke="black" points="704.705,-590 704.705,-622 811.295,-622 811.295,-590 704.705,-590"/>
<text text-anchor="start" x="712.705" y="-608" font-family="Helvetica,sans-Serif" font-size="10.00">AP_HAL::Util::safety</text>
<text text-anchor="middle" x="758" y="-596" font-family="Helvetica,sans-Serif" font-size="10.00">_switch_state</text>
</a>
</g>
</g>
<!-- Node131&#45;&gt;Node133 -->
<g id="edge19" class="edge"><title>Node131&#45;&gt;Node133</title>
<path fill="none" stroke="midnightblue" d="M636.688,-571.137C655.211,-576.504 675.954,-582.515 694.93,-588.014"/>
<polygon fill="midnightblue" stroke="midnightblue" points="694.092,-591.415 704.671,-590.836 696.04,-584.691 694.092,-591.415"/>
</g>
<!-- Node131&#45;&gt;Node122 -->
<g id="edge20" class="edge"><title>Node131&#45;&gt;Node122</title>
<path fill="none" stroke="midnightblue" d="M620.542,-571.086C629.999,-575.828 639.74,-581.513 648,-588 667.603,-603.394 663.628,-616.64 684,-631 693.824,-637.925 705.633,-643.297 716.863,-647.359"/>
<polygon fill="midnightblue" stroke="midnightblue" points="715.924,-650.736 726.518,-650.599 718.15,-644.1 715.924,-650.736"/>
</g>
<!-- Node134 -->
<g id="node20" class="node"><title>Node134</title>
<g id="a_node20"><a doxygen="/Users/coreyshive/Documents/schoolcode/ardupilot/docs/tags/libraries:../libraries/" xlink:href="../libraries/classAP__Logger.html#ada8328cee0a4d5e6b64a235a5d2f273b" xlink:title=" ">
<polygon fill="white" stroke="black" points="697.188,-539 697.188,-571 818.812,-571 818.812,-539 697.188,-539"/>
<text text-anchor="start" x="705.188" y="-557" font-family="Helvetica,sans-Serif" font-size="10.00">AP_Logger::set_vehicle</text>
<text text-anchor="middle" x="758" y="-545" font-family="Helvetica,sans-Serif" font-size="10.00">_armed</text>
</a>
</g>
</g>
<!-- Node131&#45;&gt;Node134 -->
<g id="edge21" class="edge"><title>Node131&#45;&gt;Node134</title>
<path fill="none" stroke="midnightblue" d="M647.538,-555C660.365,-555 673.841,-555 686.781,-555"/>
<polygon fill="midnightblue" stroke="midnightblue" points="687.021,-558.5 697.021,-555 687.021,-551.5 687.021,-558.5"/>
</g>
<!-- Node135 -->
<g id="node21" class="node"><title>Node135</title>
<g id="a_node21"><a doxygen="/Users/coreyshive/Documents/schoolcode/ardupilot/docs/tags/libraries:../libraries/" xlink:href="../libraries/classAP__HAL_1_1Util.html#a287a2b82fa30b92c8d52aad61d4d27b7" xlink:title=" ">
<polygon fill="white" stroke="black" points="700.254,-293 700.254,-325 815.746,-325 815.746,-293 700.254,-293"/>
<text text-anchor="start" x="708.254" y="-311" font-family="Helvetica,sans-Serif" font-size="10.00">AP_HAL::Util::get_soft</text>
<text text-anchor="middle" x="758" y="-299" font-family="Helvetica,sans-Serif" font-size="10.00">_armed</text>
</a>
</g>
</g>
<!-- Node131&#45;&gt;Node135 -->
<g id="edge22" class="edge"><title>Node131&#45;&gt;Node135</title>
<path fill="none" stroke="midnightblue" d="M624.075,-538.887C632.681,-534.33 641.163,-528.733 648,-522 703.506,-467.338 736.184,-378.456 749.692,-334.825"/>
<polygon fill="midnightblue" stroke="midnightblue" points="753.118,-335.585 752.644,-325 746.415,-333.57 753.118,-335.585"/>
</g>
<!-- Node138 -->
<g id="node24" class="node"><title>Node138</title>
<g id="a_node24"><a xlink:href="classMode.html#a3e5c3a5a842021ff17e70b0a65461af3" target="_top" xlink:title=" ">
<polygon fill="white" stroke="black" points="362.318,-117 362.318,-137 431.682,-137 431.682,-117 362.318,-117"/>
<text text-anchor="middle" x="397" y="-123" font-family="Helvetica,sans-Serif" font-size="10.00">Mode::enter</text>
</a>
</g>
</g>
<!-- Node137&#45;&gt;Node138 -->
<g id="edge26" class="edge"><title>Node137&#45;&gt;Node138</title>
<path fill="none" stroke="midnightblue" d="M257.082,-374.733C266.506,-371.045 275.531,-365.712 282,-358 343.421,-284.78 252.853,-215.926 318,-146 326.846,-136.505 339.576,-131.403 352.193,-128.755"/>
<polygon fill="midnightblue" stroke="midnightblue" points="352.906,-132.185 362.212,-127.121 351.779,-125.277 352.906,-132.185"/>
</g>
<!-- Node137&#45;&gt;Node122 -->
<g id="edge37" class="edge"><title>Node137&#45;&gt;Node122</title>
<path fill="none" stroke="midnightblue" d="M212.574,-393.119C215.422,-432.653 231.619,-577.474 318,-638 381.387,-682.414 620.053,-668.99 716.346,-661.509"/>
<polygon fill="midnightblue" stroke="midnightblue" points="716.868,-664.979 726.558,-660.696 716.312,-658.001 716.868,-664.979"/>
</g>
<!-- Node137&#45;&gt;Node123 -->
<g id="edge38" class="edge"><title>Node137&#45;&gt;Node123</title>
<path fill="none" stroke="midnightblue" d="M221.186,-393.002C238.398,-411.131 277.44,-449.441 318,-470 322.988,-472.528 328.321,-474.755 333.77,-476.712"/>
<polygon fill="midnightblue" stroke="midnightblue" points="333.062,-480.163 343.654,-479.951 335.242,-473.511 333.062,-480.163"/>
</g>
<!-- Node147 -->
<g id="node33" class="node"><title>Node147</title>
<g id="a_node33"><a xlink:href="classMode.html#ac0d6e9936093df1f64ae3722405f6384" target="_top" xlink:title=" ">
<polygon fill="white" stroke="black" points="524.473,-357 524.473,-377 635.527,-377 635.527,-357 524.473,-357"/>
<text text-anchor="middle" x="580" y="-363" font-family="Helvetica,sans-Serif" font-size="10.00">Mode::mode_number</text>
</a>
</g>
</g>
<!-- Node137&#45;&gt;Node147 -->
<g id="edge39" class="edge"><title>Node137&#45;&gt;Node147</title>
<path fill="none" stroke="midnightblue" d="M257.292,-373.993C266.479,-370.34 275.35,-365.209 282,-358 323.814,-312.674 269.064,-261.525 318,-224 373.725,-181.27 419.514,-182.281 476,-224 519.764,-256.323 474.932,-301.176 512,-341 516.296,-345.615 521.506,-349.421 527.102,-352.558"/>
<polygon fill="midnightblue" stroke="midnightblue" points="525.615,-355.727 536.139,-356.956 528.679,-349.433 525.615,-355.727"/>
</g>
<!-- Node137&#45;&gt;Node124 -->
<g id="edge40" class="edge"><title>Node137&#45;&gt;Node124</title>
<path fill="none" stroke="midnightblue" d="M231.504,-393.077C252.456,-403.604 286.936,-420.078 318,-431 329.849,-435.166 342.988,-438.871 355.052,-441.926"/>
<polygon fill="midnightblue" stroke="midnightblue" points="354.336,-445.354 364.882,-444.335 356.002,-438.555 354.336,-445.354"/>
</g>
<!-- Node137&#45;&gt;Node125 -->
<g id="edge41" class="edge"><title>Node137&#45;&gt;Node125</title>
<path fill="none" stroke="midnightblue" d="M219.289,-393.132C235.577,-415.42 276.746,-469.83 318,-509 334.934,-525.079 356.186,-540.91 372.228,-552.119"/>
<polygon fill="midnightblue" stroke="midnightblue" points="370.322,-555.056 380.544,-557.843 374.291,-549.29 370.322,-555.056"/>
</g>
<!-- Node148 -->
<g id="node34" class="node"><title>Node148</title>
<g id="a_node34"><a doxygen="/Users/coreyshive/Documents/schoolcode/ardupilot/docs/tags/libraries:../libraries/" xlink:href="../libraries/classAC__Fence.html#a32ddec2d811a21b723c83fca515a2004" xlink:title=" ">
<polygon fill="white" stroke="black" points="324.247,-273 324.247,-305 469.753,-305 469.753,-273 324.247,-273"/>
<text text-anchor="start" x="332.247" y="-291" font-family="Helvetica,sans-Serif" font-size="10.00">AC_Fence::manual_recovery</text>
<text text-anchor="middle" x="397" y="-279" font-family="Helvetica,sans-Serif" font-size="10.00">_start</text>
</a>
</g>
</g>
<!-- Node137&#45;&gt;Node148 -->
<g id="edge42" class="edge"><title>Node137&#45;&gt;Node148</title>
<path fill="none" stroke="midnightblue" d="M251.973,-372.898C262.306,-369.199 273.035,-364.32 282,-358 302.651,-343.442 297.112,-328.217 318,-314 320.16,-312.53 322.412,-311.142 324.731,-309.832"/>
<polygon fill="midnightblue" stroke="midnightblue" points="326.621,-312.798 333.96,-305.157 323.458,-306.554 326.621,-312.798"/>
</g>
<!-- Node149 -->
<g id="node35" class="node"><title>Node149</title>
<g id="a_node35"><a doxygen="/Users/coreyshive/Documents/schoolcode/ardupilot/docs/tags/libraries:../libraries/" xlink:href="../libraries/classAP__Camera.html#af06fd226c451a1a96a10c5194dfcc2b6" xlink:title=" ">
<polygon fill="white" stroke="black" points="318.126,-234 318.126,-254 475.874,-254 475.874,-234 318.126,-234"/>
<text text-anchor="middle" x="397" y="-240" font-family="Helvetica,sans-Serif" font-size="10.00">AP_Camera::set_is_auto_mode</text>
</a>
</g>
</g>
<!-- Node137&#45;&gt;Node149 -->
<g id="edge43" class="edge"><title>Node137&#45;&gt;Node149</title>
<path fill="none" stroke="midnightblue" d="M257.135,-373.344C266.222,-369.73 275.091,-364.778 282,-358 314.232,-326.381 284.166,-292.9 318,-263 319.527,-261.65 321.135,-260.393 322.808,-259.221"/>
<polygon fill="midnightblue" stroke="midnightblue" points="324.789,-262.118 331.659,-254.052 321.259,-256.073 324.789,-262.118"/>
</g>
<!-- Node150 -->
<g id="node36" class="node"><title>Node150</title>
<g id="a_node36"><a xlink:href="classMode.html#acc347b62c670471bde37a38b28d53601" target="_top" xlink:title=" ">
<polygon fill="white" stroke="black" points="365.934,-156 365.934,-176 428.066,-176 428.066,-156 365.934,-156"/>
<text text-anchor="middle" x="397" y="-162" font-family="Helvetica,sans-Serif" font-size="10.00">Mode::exit</text>
</a>
</g>
</g>
<!-- Node137&#45;&gt;Node150 -->
<g id="edge44" class="edge"><title>Node137&#45;&gt;Node150</title>
<path fill="none" stroke="midnightblue" d="M257.201,-374.381C266.504,-370.708 275.448,-365.47 282,-358 332.068,-300.92 267.001,-247.25 318,-191 327.761,-180.234 342.159,-174.079 355.936,-170.57"/>
<polygon fill="midnightblue" stroke="midnightblue" points="356.742,-173.977 365.783,-168.455 355.271,-167.133 356.742,-173.977"/>
</g>
<!-- Node152 -->
<g id="node38" class="node"><title>Node152</title>
<g id="a_node38"><a doxygen="/Users/coreyshive/Documents/schoolcode/ardupilot/docs/tags/libraries:../libraries/" xlink:href="../libraries/classAP__Logger.html#a4682ceac8976f087de3b0704b34d208b" xlink:title=" ">
<polygon fill="white" stroke="black" points="334.337,-363 334.337,-383 459.663,-383 459.663,-363 334.337,-363"/>
<text text-anchor="middle" x="397" y="-369" font-family="Helvetica,sans-Serif" font-size="10.00">AP_Logger::Write_Mode</text>
</a>
</g>
</g>
<!-- Node137&#45;&gt;Node152 -->
<g id="edge46" class="edge"><title>Node137&#45;&gt;Node152</title>
<path fill="none" stroke="midnightblue" d="M257.483,-380.528C277.509,-379.44 301.526,-378.134 323.895,-376.919"/>
<polygon fill="midnightblue" stroke="midnightblue" points="324.241,-380.405 334.037,-376.368 323.861,-373.416 324.241,-380.405"/>
</g>
<!-- Node153 -->
<g id="node39" class="node"><title>Node153</title>
<g id="a_node39"><a doxygen="/Users/coreyshive/Documents/schoolcode/ardupilot/docs/tags/libraries:../libraries/" xlink:href="../libraries/classGCS.html#a49e7272eb586b48b04d970d13ef3d95f" xlink:title=" ">
<polygon fill="white" stroke="black" points="341.476,-324 341.476,-344 452.524,-344 452.524,-324 341.476,-324"/>
<text text-anchor="middle" x="397" y="-330" font-family="Helvetica,sans-Serif" font-size="10.00">GCS::send_message</text>
</a>
</g>
</g>
<!-- Node137&#45;&gt;Node153 -->
<g id="edge47" class="edge"><title>Node137&#45;&gt;Node153</title>
<path fill="none" stroke="midnightblue" d="M246.284,-372.951C266.997,-366.966 293.956,-359.329 318,-353 326.235,-350.833 334.981,-348.618 343.526,-346.501"/>
<polygon fill="midnightblue" stroke="midnightblue" points="344.546,-349.855 353.422,-344.071 342.876,-343.057 344.546,-349.855"/>
</g>
<!-- Node154 -->
<g id="node40" class="node"><title>Node154</title>
<g id="a_node40"><a xlink:href="classRover.html#af39c095722ccd8c5dd3ccb187852f02d" target="_top" xlink:title=" ">
<polygon fill="white" stroke="black" points="345.646,-402 345.646,-422 448.354,-422 448.354,-402 345.646,-402"/>
<text text-anchor="middle" x="397" y="-408" font-family="Helvetica,sans-Serif" font-size="10.00">Rover::notify_mode</text>
</a>
</g>
</g>
<!-- Node137&#45;&gt;Node154 -->
<g id="edge48" class="edge"><title>Node137&#45;&gt;Node154</title>
<path fill="none" stroke="midnightblue" d="M257.483,-390.169C281.065,-393.885 310.179,-398.474 335.621,-402.484"/>
<polygon fill="midnightblue" stroke="midnightblue" points="335.114,-405.947 345.537,-404.047 336.204,-399.032 335.114,-405.947"/>
</g>
<!-- Node138&#45;&gt;Node135 -->
<g id="edge27" class="edge"><title>Node138&#45;&gt;Node135</title>
<path fill="none" stroke="midnightblue" d="M432.038,-132.247C491.557,-141.852 611.67,-163.28 648,-185 689.512,-209.817 723.656,-255.792 742.11,-284.25"/>
<polygon fill="midnightblue" stroke="midnightblue" points="739.233,-286.249 747.539,-292.825 745.147,-282.504 739.233,-286.249"/>
</g>
<!-- Node139 -->
<g id="node25" class="node"><title>Node139</title>
<g id="a_node25"><a xlink:href="classRover.html#af202d295a4f603e08d3c8cadce0bc98d" target="_top" xlink:title=" ">
<polygon fill="white" stroke="black" points="521.138,-39 521.138,-59 638.862,-59 638.862,-39 521.138,-39"/>
<text text-anchor="middle" x="580" y="-45" font-family="Helvetica,sans-Serif" font-size="10.00">Rover::ekf_position_ok</text>
</a>
</g>
</g>
<!-- Node138&#45;&gt;Node139 -->
<g id="edge28" class="edge"><title>Node138&#45;&gt;Node139</title>
<path fill="none" stroke="midnightblue" d="M421.292,-116.963C452.972,-103.31 509.825,-78.8102 545.919,-63.2559"/>
<polygon fill="midnightblue" stroke="midnightblue" points="547.712,-66.2943 555.511,-59.1225 544.942,-59.8658 547.712,-66.2943"/>
</g>
<!-- Node141 -->
<g id="node27" class="node"><title>Node141</title>
<g id="a_node27"><a xlink:href="classMode.html#ae5a240ec7efe2623eb88c68beda58a99" target="_top" xlink:title=" ">
<polygon fill="white" stroke="black" points="518.636,-273 518.636,-293 641.364,-293 641.364,-273 518.636,-273"/>
<text text-anchor="middle" x="580" y="-279" font-family="Helvetica,sans-Serif" font-size="10.00">Mode::requires_position</text>
</a>
</g>
</g>
<!-- Node138&#45;&gt;Node141 -->
<g id="edge31" class="edge"><title>Node138&#45;&gt;Node141</title>
<path fill="none" stroke="midnightblue" d="M431.91,-127.885C447.114,-129.973 464.232,-134.913 476,-146 515.599,-183.308 473.368,-224.691 512,-263 513.681,-264.667 515.494,-266.196 517.411,-267.598"/>
<polygon fill="midnightblue" stroke="midnightblue" points="516,-270.833 526.377,-272.971 519.598,-264.829 516,-270.833"/>
</g>
<!-- Node142 -->
<g id="node28" class="node"><title>Node142</title>
<g id="a_node28"><a xlink:href="classMode.html#a877262e51b58f132cb52c5977bf13c51" target="_top" xlink:title=" ">
<polygon fill="white" stroke="black" points="519.197,-234 519.197,-254 640.803,-254 640.803,-234 519.197,-234"/>
<text text-anchor="middle" x="580" y="-240" font-family="Helvetica,sans-Serif" font-size="10.00">Mode::requires_velocity</text>
</a>
</g>
</g>
<!-- Node138&#45;&gt;Node142 -->
<g id="edge32" class="edge"><title>Node138&#45;&gt;Node142</title>
<path fill="none" stroke="midnightblue" d="M432.049,-128.732C446.923,-131.03 463.732,-135.903 476,-146 505.479,-170.264 483.151,-198.99 512,-224 514.193,-225.901 516.56,-227.621 519.051,-229.178"/>
<polygon fill="midnightblue" stroke="midnightblue" points="517.441,-232.286 527.917,-233.866 520.713,-226.098 517.441,-232.286"/>
</g>
<!-- Node143 -->
<g id="node29" class="node"><title>Node143</title>
<g id="a_node29"><a xlink:href="classMode.html#a6594030a202f6ec5918b427b8a5717e4" target="_top" xlink:title=" ">
<polygon fill="white" stroke="black" points="542.537,-195 542.537,-215 617.463,-215 617.463,-195 542.537,-195"/>
<text text-anchor="middle" x="580" y="-201" font-family="Helvetica,sans-Serif" font-size="10.00">Mode::_enter</text>
</a>
</g>
</g>
<!-- Node138&#45;&gt;Node143 -->
<g id="edge33" class="edge"><title>Node138&#45;&gt;Node143</title>
<path fill="none" stroke="midnightblue" d="M432.029,-131.346C446.234,-134.141 462.53,-138.678 476,-146 495.336,-156.51 493.319,-168.366 512,-180 518.968,-184.339 526.806,-188.105 534.599,-191.303"/>
<polygon fill="midnightblue" stroke="midnightblue" points="533.433,-194.604 544.023,-194.924 535.943,-188.07 533.433,-194.604"/>
</g>
<!-- Node144 -->
<g id="node30" class="node"><title>Node144</title>
<g id="a_node30"><a xlink:href="classMode.html#a1733ae28c2e308db5fca2dd79f477ddb" target="_top" xlink:title=" ">
<polygon fill="white" stroke="black" points="527.811,-0 527.811,-20 632.189,-20 632.189,-0 527.811,-0"/>
<text text-anchor="middle" x="580" y="-6" font-family="Helvetica,sans-Serif" font-size="10.00">Mode::set_reversed</text>
</a>
</g>
</g>
<!-- Node138&#45;&gt;Node144 -->
<g id="edge34" class="edge"><title>Node138&#45;&gt;Node144</title>
<path fill="none" stroke="midnightblue" d="M406.973,-116.758C424.93,-96.8908 467.401,-52.972 512,-29 515.714,-27.0037 519.66,-25.1986 523.705,-23.5699"/>
<polygon fill="midnightblue" stroke="midnightblue" points="525.068,-26.7983 533.262,-20.0821 522.668,-20.2225 525.068,-26.7983"/>
</g>
<!-- Node146 -->
<g id="node32" class="node"><title>Node146</title>
<g id="a_node32"><a xlink:href="classSailboat.html#a8541aa08ff963b7802bcc2792ee0887d" target="_top" xlink:title=" ">
<polygon fill="white" stroke="black" points="528.365,-117 528.365,-137 631.635,-137 631.635,-117 528.365,-117"/>
<text text-anchor="middle" x="580" y="-123" font-family="Helvetica,sans-Serif" font-size="10.00">Sailboat::clear_tack</text>
</a>
</g>
</g>
<!-- Node138&#45;&gt;Node146 -->
<g id="edge36" class="edge"><title>Node138&#45;&gt;Node146</title>
<path fill="none" stroke="midnightblue" d="M432.045,-127C456.214,-127 489.327,-127 518.003,-127"/>
<polygon fill="midnightblue" stroke="midnightblue" points="518.343,-130.5 528.343,-127 518.343,-123.5 518.343,-130.5"/>
</g>
<!-- Node140 -->
<g id="node26" class="node"><title>Node140</title>
<g id="a_node26"><a doxygen="/Users/coreyshive/Documents/schoolcode/ardupilot/docs/tags/libraries:../libraries/" xlink:href="../libraries/classAP__AHRS.html#a5b4f593794f7c47d8b13ded289291a85" xlink:title=" ">
<polygon fill="white" stroke="black" points="684.685,-39 684.685,-59 831.315,-59 831.315,-39 684.685,-39"/>
<text text-anchor="middle" x="758" y="-45" font-family="Helvetica,sans-Serif" font-size="10.00">AP_AHRS::have_inertial_nav</text>
</a>
</g>
</g>
<!-- Node139&#45;&gt;Node140 -->
<g id="edge29" class="edge"><title>Node139&#45;&gt;Node140</title>
<path fill="none" stroke="midnightblue" d="M639.117,-49C650.346,-49 662.312,-49 674.152,-49"/>
<polygon fill="midnightblue" stroke="midnightblue" points="674.504,-52.5001 684.504,-49 674.504,-45.5001 674.504,-52.5001"/>
</g>
<!-- Node139&#45;&gt;Node116 -->
<g id="edge30" class="edge"><title>Node139&#45;&gt;Node116</title>
<path fill="none" stroke="midnightblue" d="M626.324,-59.0435C649.42,-64.1612 677.69,-70.4256 702.021,-75.8171"/>
<polygon fill="midnightblue" stroke="midnightblue" points="701.309,-79.2442 711.829,-77.9906 702.823,-72.4099 701.309,-79.2442"/>
</g>
<!-- Node145 -->
<g id="node31" class="node"><title>Node145</title>
<g id="a_node31"><a doxygen="/Users/coreyshive/Documents/schoolcode/ardupilot/docs/tags/libraries:../libraries/" xlink:href="../libraries/classAR__WPNav.html#a6f090d47863c1715392b91197397e1e8" xlink:title=" ">
<polygon fill="white" stroke="black" points="691.646,-0 691.646,-20 824.354,-20 824.354,-0 691.646,-0"/>
<text text-anchor="middle" x="758" y="-6" font-family="Helvetica,sans-Serif" font-size="10.00">AR_WPNav::set_reversed</text>
</a>
</g>
</g>
<!-- Node144&#45;&gt;Node145 -->
<g id="edge35" class="edge"><title>Node144&#45;&gt;Node145</title>
<path fill="none" stroke="midnightblue" d="M632.38,-10C647.672,-10 664.76,-10 681.261,-10"/>
<polygon fill="midnightblue" stroke="midnightblue" points="681.439,-13.5001 691.439,-10 681.439,-6.5001 681.439,-13.5001"/>
</g>
<!-- Node151 -->
<g id="node37" class="node"><title>Node151</title>
<g id="a_node37"><a xlink:href="classMode.html#a469e59fc883ef9744f57377209a4036c" target="_top" xlink:title=" ">
<polygon fill="white" stroke="black" points="546.153,-312 546.153,-332 613.847,-332 613.847,-312 546.153,-312"/>
<text text-anchor="middle" x="580" y="-318" font-family="Helvetica,sans-Serif" font-size="10.00">Mode::_exit</text>
</a>
</g>
</g>
<!-- Node150&#45;&gt;Node151 -->
<g id="edge45" class="edge"><title>Node150&#45;&gt;Node151</title>
<path fill="none" stroke="midnightblue" d="M428.096,-169.008C444.215,-172.098 463.309,-178.352 476,-191 512.736,-227.609 474.898,-265.761 512,-302 518.696,-308.54 527.437,-312.955 536.384,-315.932"/>
<polygon fill="midnightblue" stroke="midnightblue" points="535.513,-319.322 546.085,-318.629 537.388,-312.578 535.513,-319.322"/>
</g>
<!-- Node154&#45;&gt;Node117 -->
<g id="edge49" class="edge"><title>Node154&#45;&gt;Node117</title>
<path fill="none" stroke="midnightblue" d="M448.387,-418.89C458.061,-421.663 467.74,-425.551 476,-431 498.26,-445.683 490.541,-463.168 512,-479 517.22,-482.851 523.117,-486.132 529.193,-488.915"/>
<polygon fill="midnightblue" stroke="midnightblue" points="528.239,-492.307 538.818,-492.888 530.91,-485.837 528.239,-492.307"/>
</g>
<!-- Node154&#45;&gt;Node147 -->
<g id="edge50" class="edge"><title>Node154&#45;&gt;Node147</title>
<path fill="none" stroke="midnightblue" d="M438.62,-401.901C465.285,-395.272 500.352,-386.553 528.767,-379.489"/>
<polygon fill="midnightblue" stroke="midnightblue" points="529.656,-382.875 538.516,-377.065 527.967,-376.081 529.656,-382.875"/>
</g>
<!-- Node155 -->
<g id="node41" class="node"><title>Node155</title>
<g id="a_node41"><a doxygen="/Users/coreyshive/Documents/schoolcode/ardupilot/docs/tags/libraries:../libraries/" xlink:href="../libraries/classAP__Notify.html#a6933d62a710817a9f6ae4ba03634eae9" xlink:title=" ">
<polygon fill="white" stroke="black" points="526.978,-438 526.978,-470 633.022,-470 633.022,-438 526.978,-438"/>
<text text-anchor="start" x="534.978" y="-456" font-family="Helvetica,sans-Serif" font-size="10.00">AP_Notify::set_flight</text>
<text text-anchor="middle" x="580" y="-444" font-family="Helvetica,sans-Serif" font-size="10.00">_mode_str</text>
</a>
</g>
</g>
<!-- Node154&#45;&gt;Node155 -->
<g id="edge51" class="edge"><title>Node154&#45;&gt;Node155</title>
<path fill="none" stroke="midnightblue" d="M441.354,-422.06C463.874,-427.286 491.799,-433.765 516.598,-439.52"/>
<polygon fill="midnightblue" stroke="midnightblue" points="516.116,-443.001 526.648,-441.852 517.698,-436.182 516.116,-443.001"/>
</g>
<!-- Node156 -->
<g id="node42" class="node"><title>Node156</title>
<g id="a_node42"><a xlink:href="classMode.html#a52eef3a6d70dcea8ca666a2dce4f35d5" target="_top" xlink:title=" ">
<polygon fill="white" stroke="black" points="541.426,-399 541.426,-419 618.574,-419 618.574,-399 541.426,-399"/>
<text text-anchor="middle" x="580" y="-405" font-family="Helvetica,sans-Serif" font-size="10.00">Mode::name4</text>
</a>
</g>
</g>
<!-- Node154&#45;&gt;Node156 -->
<g id="edge52" class="edge"><title>Node154&#45;&gt;Node156</title>
<path fill="none" stroke="midnightblue" d="M448.419,-411.164C474.253,-410.736 505.547,-410.217 531.023,-409.795"/>
<polygon fill="midnightblue" stroke="midnightblue" points="531.252,-413.292 541.192,-409.627 531.136,-406.293 531.252,-413.292"/>
</g>
</g>
</svg>
