<?xml version="1.0" encoding="UTF-8" standalone="no"?>
<!DOCTYPE svg PUBLIC "-//W3C//DTD SVG 1.1//EN"
 "http://www.w3.org/Graphics/SVG/1.1/DTD/svg11.dtd">
<!-- Generated by graphviz version 2.30.1 (20130221.2233)
 -->
<!-- Title: Rover::ekf_position_ok Pages: 1 -->
<svg width="310pt" height="67pt"
 viewBox="0.00 0.00 310.00 67.00" xmlns="http://www.w3.org/2000/svg" xmlns:xlink="http://www.w3.org/1999/xlink">
<g id="graph0" class="graph" transform="scale(1 1) rotate(0) translate(4 63)">
<title>Rover::ekf_position_ok</title>
<polygon fill="white" stroke="white" points="-4,5 -4,-63 307,-63 307,5 -4,5"/>
<!-- Node249 -->
<g id="node1" class="node"><title>Node249</title>
<g id="a_node1"><a xlink:title=" ">
<polygon fill="#bfbfbf" stroke="black" points="0.138184,-19 0.138184,-39 117.862,-39 117.862,-19 0.138184,-19"/>
<text text-anchor="middle" x="59" y="-25" font-family="Helvetica,sans-Serif" font-size="10.00">Rover::ekf_position_ok</text>
</a>
</g>
</g>
<!-- Node250 -->
<g id="node2" class="node"><title>Node250</title>
<g id="a_node2"><a doxygen="/Users/coreyshive/Documents/schoolcode/ardupilot/docs/tags/libraries:../libraries/" xlink:href="../libraries/classAP__AHRS.html#a5b4f593794f7c47d8b13ded289291a85" xlink:title=" ">
<polygon fill="white" stroke="black" points="154.685,-39 154.685,-59 301.315,-59 301.315,-39 154.685,-39"/>
<text text-anchor="middle" x="228" y="-45" font-family="Helvetica,sans-Serif" font-size="10.00">AP_AHRS::have_inertial_nav</text>
</a>
</g>
</g>
<!-- Node249&#45;&gt;Node250 -->
<g id="edge1" class="edge"><title>Node249&#45;&gt;Node250</title>
<path fill="none" stroke="midnightblue" d="M117.94,-35.9389C126.496,-36.9636 135.448,-38.0357 144.386,-39.1061"/>
<polygon fill="midnightblue" stroke="midnightblue" points="144.105,-42.5974 154.451,-40.3114 144.938,-35.6471 144.105,-42.5974"/>
</g>
<!-- Node251 -->
<g id="node3" class="node"><title>Node251</title>
<g id="a_node3"><a doxygen="/Users/coreyshive/Documents/schoolcode/ardupilot/docs/tags/libraries:../libraries/" xlink:href="../libraries/classAP__Arming.html#aededf89cac3010c297fcef7e8b38e99a" xlink:title=" ">
<polygon fill="white" stroke="black" points="171.37,-0 171.37,-20 284.63,-20 284.63,-0 171.37,-0"/>
<text text-anchor="middle" x="228" y="-6" font-family="Helvetica,sans-Serif" font-size="10.00">AP_Arming::is_armed</text>
</a>
</g>
</g>
<!-- Node249&#45;&gt;Node251 -->
<g id="edge2" class="edge"><title>Node249&#45;&gt;Node251</title>
<path fill="none" stroke="midnightblue" d="M117.94,-22.408C131.812,-20.8297 146.727,-19.1329 160.936,-17.5163"/>
<polygon fill="midnightblue" stroke="midnightblue" points="161.593,-20.9642 171.133,-16.3561 160.801,-14.0091 161.593,-20.9642"/>
</g>
</g>
</svg>
