<?xml version="1.0" encoding="UTF-8" standalone="no"?>
<!DOCTYPE svg PUBLIC "-//W3C//DTD SVG 1.1//EN"
 "http://www.w3.org/Graphics/SVG/1.1/DTD/svg11.dtd">
<!-- Generated by graphviz version 2.30.1 (20130221.2233)
 -->
<!-- Title: ModeAuto::set_desired_location Pages: 1 -->
<svg width="454pt" height="40pt"
 viewBox="0.00 0.00 454.00 40.00" xmlns="http://www.w3.org/2000/svg" xmlns:xlink="http://www.w3.org/1999/xlink">
<g id="graph0" class="graph" transform="scale(1 1) rotate(0) translate(4 36)">
<title>ModeAuto::set_desired_location</title>
<polygon fill="white" stroke="white" points="-4,5 -4,-36 451,-36 451,5 -4,5"/>
<!-- Node238 -->
<g id="node1" class="node"><title>Node238</title>
<g id="a_node1"><a xlink:title=" ">
<polygon fill="#bfbfbf" stroke="black" points="326.579,-0 326.579,-32 445.421,-32 445.421,-0 326.579,-0"/>
<text text-anchor="start" x="334.579" y="-18" font-family="Helvetica,sans-Serif" font-size="10.00">ModeAuto::set_desired</text>
<text text-anchor="middle" x="386" y="-6" font-family="Helvetica,sans-Serif" font-size="10.00">_location</text>
</a>
</g>
</g>
<!-- Node239 -->
<g id="node2" class="node"><title>Node239</title>
<g id="a_node2"><a xlink:href="classModeAuto.html#a8cfa2f6a2d18686883f38d08daab4b40" target="_top" xlink:title=" ">
<polygon fill="white" stroke="black" points="171.853,-6 171.853,-26 290.147,-26 290.147,-6 171.853,-6"/>
<text text-anchor="middle" x="231" y="-12" font-family="Helvetica,sans-Serif" font-size="10.00">ModeAuto::do_nav_wp</text>
</a>
</g>
</g>
<!-- Node238&#45;&gt;Node239 -->
<g id="edge1" class="edge"><title>Node238&#45;&gt;Node239</title>
<path fill="none" stroke="midnightblue" d="M316.214,-16C307.562,-16 298.776,-16 290.306,-16"/>
<polygon fill="midnightblue" stroke="midnightblue" points="316.284,-19.5001 326.284,-16 316.284,-12.5001 316.284,-19.5001"/>
</g>
<!-- Node240 -->
<g id="node3" class="node"><title>Node240</title>
<g id="a_node3"><a xlink:href="classModeAuto.html#a31ef596d25ce081bc7fa4e14c7691baa" target="_top" xlink:title=" ">
<polygon fill="white" stroke="black" points="-0.0292969,-6 -0.0292969,-26 136.029,-26 136.029,-6 -0.0292969,-6"/>
<text text-anchor="middle" x="68" y="-12" font-family="Helvetica,sans-Serif" font-size="10.00">ModeAuto::start_command</text>
</a>
</g>
</g>
<!-- Node239&#45;&gt;Node240 -->
<g id="edge2" class="edge"><title>Node239&#45;&gt;Node240</title>
<path fill="none" stroke="midnightblue" d="M161.383,-16C153.064,-16 144.571,-16 136.272,-16"/>
<polygon fill="midnightblue" stroke="midnightblue" points="161.42,-19.5001 171.42,-16 161.42,-12.5001 161.42,-19.5001"/>
</g>
</g>
</svg>
