<?xml version="1.0" encoding="UTF-8" standalone="no"?>
<!DOCTYPE svg PUBLIC "-//W3C//DTD SVG 1.1//EN"
 "http://www.w3.org/Graphics/SVG/1.1/DTD/svg11.dtd">
<!-- Generated by graphviz version 2.30.1 (20130221.2233)
 -->
<!-- Title: ModeHold::update Pages: 1 -->
<svg width="470pt" height="298pt"
 viewBox="0.00 0.00 470.00 298.00" xmlns="http://www.w3.org/2000/svg" xmlns:xlink="http://www.w3.org/1999/xlink">
<g id="graph0" class="graph" transform="scale(1 1) rotate(0) translate(4 294)">
<title>ModeHold::update</title>
<polygon fill="white" stroke="white" points="-4,5 -4,-294 467,-294 467,5 -4,5"/>
<!-- Node10 -->
<g id="node1" class="node"><title>Node10</title>
<g id="a_node1"><a xlink:title=" ">
<polygon fill="#bfbfbf" stroke="black" points="0.138184,-90 0.138184,-110 97.8618,-110 97.8618,-90 0.138184,-90"/>
<text text-anchor="middle" x="49" y="-96" font-family="Helvetica,sans-Serif" font-size="10.00">ModeHold::update</text>
</a>
</g>
</g>
<!-- Node11 -->
<g id="node2" class="node"><title>Node11</title>
<g id="a_node2"><a xlink:href="classRover.html#a9a7e3a45cefcd29348b819d4c9acc24c" target="_top" xlink:title=" ">
<polygon fill="white" stroke="black" points="153.027,-183 153.027,-203 262.973,-203 262.973,-183 153.027,-183"/>
<text text-anchor="middle" x="208" y="-189" font-family="Helvetica,sans-Serif" font-size="10.00">Rover::is_balancebot</text>
</a>
</g>
</g>
<!-- Node10&#45;&gt;Node11 -->
<g id="edge1" class="edge"><title>Node10&#45;&gt;Node11</title>
<path fill="none" stroke="midnightblue" d="M58.7581,-110.094C72.9749,-125.852 102.657,-156.224 134,-173 138.589,-175.456 143.505,-177.631 148.538,-179.553"/>
<polygon fill="midnightblue" stroke="midnightblue" points="147.71,-182.97 158.305,-182.944 150.006,-176.357 147.71,-182.97"/>
</g>
<!-- Node12 -->
<g id="node3" class="node"><title>Node12</title>
<g id="a_node3"><a xlink:href="classRover.html#ab1104c89e6257fa36c5ef3aa5b7889cc" target="_top" xlink:title=" ">
<polygon fill="white" stroke="black" points="146.077,-132 146.077,-164 269.923,-164 269.923,-132 146.077,-132"/>
<text text-anchor="start" x="154.077" y="-150" font-family="Helvetica,sans-Serif" font-size="10.00">Rover::balancebot_pitch</text>
<text text-anchor="middle" x="208" y="-138" font-family="Helvetica,sans-Serif" font-size="10.00">_control</text>
</a>
</g>
</g>
<!-- Node10&#45;&gt;Node12 -->
<g id="edge2" class="edge"><title>Node10&#45;&gt;Node12</title>
<path fill="none" stroke="midnightblue" d="M82.9123,-110.062C100.925,-115.569 123.837,-122.574 145.058,-129.062"/>
<polygon fill="midnightblue" stroke="midnightblue" points="144.079,-132.423 154.666,-132 146.126,-125.729 144.079,-132.423"/>
</g>
<!-- Node19 -->
<g id="node10" class="node"><title>Node19</title>
<g id="a_node10"><a xlink:href="classAP__MotorsUGV.html#a0bba981606c09e5759b6f3c653e1f2aa" target="_top" xlink:title=" ">
<polygon fill="white" stroke="black" points="134.048,-90 134.048,-110 281.952,-110 281.952,-90 134.048,-90"/>
<text text-anchor="middle" x="208" y="-96" font-family="Helvetica,sans-Serif" font-size="10.00">AP_MotorsUGV::set_mainsail</text>
</a>
</g>
</g>
<!-- Node10&#45;&gt;Node19 -->
<g id="edge9" class="edge"><title>Node10&#45;&gt;Node19</title>
<path fill="none" stroke="midnightblue" d="M97.9583,-100C106.214,-100 115.003,-100 123.872,-100"/>
<polygon fill="midnightblue" stroke="midnightblue" points="123.894,-103.5 133.894,-100 123.894,-96.5001 123.894,-103.5"/>
</g>
<!-- Node20 -->
<g id="node11" class="node"><title>Node20</title>
<g id="a_node11"><a xlink:href="classAP__MotorsUGV.html#ad51931763e093262c254c2338e92f813" target="_top" xlink:title=" ">
<polygon fill="white" stroke="black" points="137.102,-51 137.102,-71 278.898,-71 278.898,-51 137.102,-51"/>
<text text-anchor="middle" x="208" y="-57" font-family="Helvetica,sans-Serif" font-size="10.00">AP_MotorsUGV::set_throttle</text>
</a>
</g>
</g>
<!-- Node10&#45;&gt;Node20 -->
<g id="edge11" class="edge"><title>Node10&#45;&gt;Node20</title>
<path fill="none" stroke="midnightblue" d="M90.4314,-89.9565C110.667,-84.9298 135.356,-78.7968 156.795,-73.4713"/>
<polygon fill="midnightblue" stroke="midnightblue" points="157.844,-76.8171 166.706,-71.0094 156.157,-70.0235 157.844,-76.8171"/>
</g>
<!-- Node22 -->
<g id="node13" class="node"><title>Node22</title>
<g id="a_node13"><a xlink:href="classAP__MotorsUGV.html#ad962f64af80f94519b7e5de9f2973046" target="_top" xlink:title=" ">
<polygon fill="white" stroke="black" points="134.6,-12 134.6,-32 281.4,-32 281.4,-12 134.6,-12"/>
<text text-anchor="middle" x="208" y="-18" font-family="Helvetica,sans-Serif" font-size="10.00">AP_MotorsUGV::set_steering</text>
</a>
</g>
</g>
<!-- Node10&#45;&gt;Node22 -->
<g id="edge14" class="edge"><title>Node10&#45;&gt;Node22</title>
<path fill="none" stroke="midnightblue" d="M61.73,-89.967C77.2865,-77.1346 106.047,-55.0187 134,-42 139.418,-39.4766 145.215,-37.2185 151.086,-35.2112"/>
<polygon fill="midnightblue" stroke="midnightblue" points="152.511,-38.431 160.981,-32.067 150.391,-31.7597 152.511,-38.431"/>
</g>
<!-- Node13 -->
<g id="node4" class="node"><title>Node13</title>
<g id="a_node4"><a doxygen="/Users/coreyshive/Documents/schoolcode/ardupilot/docs/tags/libraries:../libraries/" xlink:href="../libraries/classAP__WheelEncoder.html#a3a8d396a989538f6525de3b76afec8eb" xlink:title=" ">
<polygon fill="white" stroke="black" points="319.18,-270 319.18,-290 460.82,-290 460.82,-270 319.18,-270"/>
<text text-anchor="middle" x="390" y="-276" font-family="Helvetica,sans-Serif" font-size="10.00">AP_WheelEncoder::enabled</text>
</a>
</g>
</g>
<!-- Node12&#45;&gt;Node13 -->
<g id="edge3" class="edge"><title>Node12&#45;&gt;Node13</title>
<path fill="none" stroke="midnightblue" d="M268.508,-164.187C273.401,-166.962 277.995,-170.207 282,-174 312.084,-202.494 286.971,-232.539 318,-260 320.014,-261.782 322.175,-263.407 324.446,-264.887"/>
<polygon fill="midnightblue" stroke="midnightblue" points="323.213,-268.201 333.669,-269.914 326.563,-262.055 323.213,-268.201"/>
</g>
<!-- Node14 -->
<g id="node5" class="node"><title>Node14</title>
<g id="a_node5"><a doxygen="/Users/coreyshive/Documents/schoolcode/ardupilot/docs/tags/libraries:../libraries/" xlink:href="../libraries/AP__Math_8h.html#a4e3ae698e8f99cec214348ad233e3c41" xlink:title=" ">
<polygon fill="white" stroke="black" points="358.655,-231 358.655,-251 421.345,-251 421.345,-231 358.655,-231"/>
<text text-anchor="middle" x="390" y="-237" font-family="Helvetica,sans-Serif" font-size="10.00">is_positive</text>
</a>
</g>
</g>
<!-- Node12&#45;&gt;Node14 -->
<g id="edge4" class="edge"><title>Node12&#45;&gt;Node14</title>
<path fill="none" stroke="midnightblue" d="M264.927,-164.069C270.952,-166.907 276.781,-170.197 282,-174 303.266,-189.495 296.222,-206.233 318,-221 327.076,-227.155 338.025,-231.43 348.578,-234.394"/>
<polygon fill="midnightblue" stroke="midnightblue" points="347.951,-237.844 358.5,-236.853 349.635,-231.05 347.951,-237.844"/>
</g>
<!-- Node15 -->
<g id="node6" class="node"><title>Node15</title>
<g id="a_node6"><a doxygen="/Users/coreyshive/Documents/schoolcode/ardupilot/docs/tags/libraries:../libraries/" xlink:href="../libraries/classAP__WheelRateControl.html#abeb9b9be42b6018addae7c3931dbcb79" xlink:title=" ">
<polygon fill="white" stroke="black" points="331.697,-180 331.697,-212 448.303,-212 448.303,-180 331.697,-180"/>
<text text-anchor="start" x="339.697" y="-198" font-family="Helvetica,sans-Serif" font-size="10.00">AP_WheelRateControl</text>
<text text-anchor="middle" x="390" y="-186" font-family="Helvetica,sans-Serif" font-size="10.00">::get_rate_max_rads</text>
</a>
</g>
</g>
<!-- Node12&#45;&gt;Node15 -->
<g id="edge5" class="edge"><title>Node12&#45;&gt;Node15</title>
<path fill="none" stroke="midnightblue" d="M269.188,-164.05C286.018,-168.538 304.417,-173.444 321.634,-178.036"/>
<polygon fill="midnightblue" stroke="midnightblue" points="321.049,-181.502 331.613,-180.697 322.853,-174.738 321.049,-181.502"/>
</g>
<!-- Node16 -->
<g id="node7" class="node"><title>Node16</title>
<g id="a_node7"><a doxygen="/Users/coreyshive/Documents/schoolcode/ardupilot/docs/tags/libraries:../libraries/" xlink:href="../libraries/classAP__WheelEncoder.html#a53d18a4c340562ae7a614cca2c7c5cb7" xlink:title=" ">
<polygon fill="white" stroke="black" points="318.628,-141 318.628,-161 461.372,-161 461.372,-141 318.628,-141"/>
<text text-anchor="middle" x="390" y="-147" font-family="Helvetica,sans-Serif" font-size="10.00">AP_WheelEncoder::get_rate</text>
</a>
</g>
</g>
<!-- Node12&#45;&gt;Node16 -->
<g id="edge6" class="edge"><title>Node12&#45;&gt;Node16</title>
<path fill="none" stroke="midnightblue" d="M269.94,-149.016C282.253,-149.221 295.379,-149.44 308.25,-149.654"/>
<polygon fill="midnightblue" stroke="midnightblue" points="308.44,-153.158 318.497,-149.825 308.557,-146.159 308.44,-153.158"/>
</g>
<!-- Node17 -->
<g id="node8" class="node"><title>Node17</title>
<g id="a_node8"><a doxygen="/Users/coreyshive/Documents/schoolcode/ardupilot/docs/tags/libraries:../libraries/" xlink:href="../libraries/AP__Math_8h.html#ad525609d9dba6ffa556a0fbf08a3f9b4" xlink:title=" ">
<polygon fill="white" stroke="black" points="349.48,-51 349.48,-71 430.52,-71 430.52,-51 349.48,-51"/>
<text text-anchor="middle" x="390" y="-57" font-family="Helvetica,sans-Serif" font-size="10.00">constrain_float</text>
</a>
</g>
</g>
<!-- Node12&#45;&gt;Node17 -->
<g id="edge7" class="edge"><title>Node12&#45;&gt;Node17</title>
<path fill="none" stroke="midnightblue" d="M258.015,-131.96C266.342,-128.286 274.661,-123.97 282,-119 301.263,-105.955 298.088,-93.0308 318,-81 324.554,-77.04 331.92,-73.8387 339.361,-71.2578"/>
<polygon fill="midnightblue" stroke="midnightblue" points="340.622,-74.5311 349.125,-68.2107 338.536,-67.849 340.622,-74.5311"/>
</g>
<!-- Node18 -->
<g id="node9" class="node"><title>Node18</title>
<g id="a_node9"><a doxygen="/Users/coreyshive/Documents/schoolcode/ardupilot/docs/tags/libraries:../libraries/" xlink:href="../libraries/classAR__AttitudeControl.html#a47e559a2d86de77ef1ce3513f5ce159e" xlink:title=" ">
<polygon fill="white" stroke="black" points="318.35,-90 318.35,-122 461.65,-122 461.65,-90 318.35,-90"/>
<text text-anchor="start" x="326.35" y="-108" font-family="Helvetica,sans-Serif" font-size="10.00">AR_AttitudeControl</text>
<text text-anchor="middle" x="390" y="-96" font-family="Helvetica,sans-Serif" font-size="10.00">::get_throttle_out_from_pitch</text>
</a>
</g>
</g>
<!-- Node12&#45;&gt;Node18 -->
<g id="edge8" class="edge"><title>Node12&#45;&gt;Node18</title>
<path fill="none" stroke="midnightblue" d="M269.94,-133.781C282.989,-130.736 296.951,-127.478 310.556,-124.304"/>
<polygon fill="midnightblue" stroke="midnightblue" points="311.437,-127.692 320.38,-122.011 309.846,-120.875 311.437,-127.692"/>
</g>
<!-- Node19&#45;&gt;Node17 -->
<g id="edge10" class="edge"><title>Node19&#45;&gt;Node17</title>
<path fill="none" stroke="midnightblue" d="M255.354,-89.9565C281.011,-84.3976 312.911,-77.4859 339.11,-71.8094"/>
<polygon fill="midnightblue" stroke="midnightblue" points="340.182,-75.1585 349.214,-69.6202 338.7,-68.3172 340.182,-75.1585"/>
</g>
<!-- Node21 -->
<g id="node12" class="node"><title>Node21</title>
<g id="a_node12"><a doxygen="/Users/coreyshive/Documents/schoolcode/ardupilot/docs/tags/libraries:../libraries/" xlink:href="../libraries/classAP__HAL_1_1Util.html#a287a2b82fa30b92c8d52aad61d4d27b7" xlink:title=" ">
<polygon fill="white" stroke="black" points="332.254,-0 332.254,-32 447.746,-32 447.746,-0 332.254,-0"/>
<text text-anchor="start" x="340.254" y="-18" font-family="Helvetica,sans-Serif" font-size="10.00">AP_HAL::Util::get_soft</text>
<text text-anchor="middle" x="390" y="-6" font-family="Helvetica,sans-Serif" font-size="10.00">_armed</text>
</a>
</g>
</g>
<!-- Node20&#45;&gt;Node21 -->
<g id="edge12" class="edge"><title>Node20&#45;&gt;Node21</title>
<path fill="none" stroke="midnightblue" d="M249.396,-50.9011C270.804,-45.549 297.659,-38.8353 322.081,-32.7297"/>
<polygon fill="midnightblue" stroke="midnightblue" points="323.164,-36.0667 332.017,-30.2458 321.467,-29.2757 323.164,-36.0667"/>
</g>
<!-- Node20&#45;&gt;Node17 -->
<g id="edge13" class="edge"><title>Node20&#45;&gt;Node17</title>
<path fill="none" stroke="midnightblue" d="M279.108,-61C299.088,-61 320.444,-61 338.967,-61"/>
<polygon fill="midnightblue" stroke="midnightblue" points="339.225,-64.5001 349.225,-61 339.225,-57.5001 339.225,-64.5001"/>
</g>
</g>
</svg>
