<?xml version="1.0" encoding="UTF-8" standalone="no"?>
<!DOCTYPE svg PUBLIC "-//W3C//DTD SVG 1.1//EN"
 "http://www.w3.org/Graphics/SVG/1.1/DTD/svg11.dtd">
<!-- Generated by graphviz version 2.30.1 (20130221.2233)
 -->
<!-- Title: GCS_Rover::num_gcs Pages: 1 -->
<svg width="718pt" height="85pt"
 viewBox="0.00 0.00 718.00 85.00" xmlns="http://www.w3.org/2000/svg" xmlns:xlink="http://www.w3.org/1999/xlink">
<g id="graph0" class="graph" transform="scale(1 1) rotate(0) translate(4 81)">
<title>GCS_Rover::num_gcs</title>
<polygon fill="white" stroke="white" points="-4,5 -4,-81 715,-81 715,5 -4,5"/>
<!-- Node22 -->
<g id="node1" class="node"><title>Node22</title>
<g id="a_node1"><a xlink:title=" ">
<polygon fill="#bfbfbf" stroke="black" points="593.98,-34 593.98,-54 710.02,-54 710.02,-34 593.98,-34"/>
<text text-anchor="middle" x="652" y="-40" font-family="Helvetica,sans-Serif" font-size="10.00">GCS_Rover::num_gcs</text>
</a>
</g>
</g>
<!-- Node23 -->
<g id="node2" class="node"><title>Node23</title>
<g id="a_node2"><a xlink:href="classGCS__Rover.html#a66da5c0ac1e4126f553209c1245c3af1" target="_top" xlink:title=" ">
<polygon fill="white" stroke="black" points="460.426,-34 460.426,-54 557.574,-54 557.574,-34 460.426,-34"/>
<text text-anchor="middle" x="509" y="-40" font-family="Helvetica,sans-Serif" font-size="10.00">GCS_Rover::chan</text>
</a>
</g>
</g>
<!-- Node22&#45;&gt;Node23 -->
<g id="edge1" class="edge"><title>Node22&#45;&gt;Node23</title>
<path fill="none" stroke="midnightblue" d="M583.523,-44C574.846,-44 566.107,-44 557.835,-44"/>
<polygon fill="midnightblue" stroke="midnightblue" points="583.65,-47.5001 593.65,-44 583.65,-40.5001 583.65,-47.5001"/>
</g>
<!-- Node24 -->
<g id="node3" class="node"><title>Node24</title>
<g id="a_node3"><a xlink:href="classRover.html#a90f48660f49aa6c8184a46161c8c66bf" target="_top" xlink:title=" ">
<polygon fill="white" stroke="black" points="314.532,-57 314.532,-77 419.468,-77 419.468,-57 314.532,-57"/>
<text text-anchor="middle" x="367" y="-63" font-family="Helvetica,sans-Serif" font-size="10.00">Rover::init_ardupilot</text>
</a>
</g>
</g>
<!-- Node23&#45;&gt;Node24 -->
<g id="edge2" class="edge"><title>Node23&#45;&gt;Node24</title>
<path fill="none" stroke="midnightblue" d="M450.287,-53.4814C440.214,-55.1363 429.79,-56.8488 419.885,-58.476"/>
<polygon fill="midnightblue" stroke="midnightblue" points="450.911,-56.9259 460.212,-51.851 449.776,-50.0185 450.911,-56.9259"/>
</g>
<!-- Node26 -->
<g id="node5" class="node"><title>Node26</title>
<g id="a_node5"><a xlink:href="classRover.html#aec9757b3e0c2102af1808d93faace667" target="_top" xlink:title=" ">
<polygon fill="white" stroke="black" points="310.375,-6 310.375,-38 423.625,-38 423.625,-6 310.375,-6"/>
<text text-anchor="start" x="318.375" y="-24" font-family="Helvetica,sans-Serif" font-size="10.00">Rover::mavlink_motor</text>
<text text-anchor="middle" x="367" y="-12" font-family="Helvetica,sans-Serif" font-size="10.00">_test_check</text>
</a>
</g>
</g>
<!-- Node23&#45;&gt;Node26 -->
<g id="edge4" class="edge"><title>Node23&#45;&gt;Node26</title>
<path fill="none" stroke="midnightblue" d="M450.133,-34.9067C441.419,-33.5372 432.445,-32.127 423.775,-30.7646"/>
<polygon fill="midnightblue" stroke="midnightblue" points="449.789,-38.3955 460.212,-36.4904 450.876,-31.4803 449.789,-38.3955"/>
</g>
<!-- Node25 -->
<g id="node4" class="node"><title>Node25</title>
<g id="a_node4"><a xlink:href="classRover.html#aa8facf471cdb4f4d59ba165f28f15fcd" target="_top" xlink:title=" ">
<polygon fill="white" stroke="black" points="180.653,-57 180.653,-77 253.347,-77 253.347,-57 180.653,-57"/>
<text text-anchor="middle" x="217" y="-63" font-family="Helvetica,sans-Serif" font-size="10.00">Rover::setup</text>
</a>
</g>
</g>
<!-- Node24&#45;&gt;Node25 -->
<g id="edge3" class="edge"><title>Node24&#45;&gt;Node25</title>
<path fill="none" stroke="midnightblue" d="M304.226,-67C286.997,-67 268.857,-67 253.685,-67"/>
<polygon fill="midnightblue" stroke="midnightblue" points="304.237,-70.5001 314.237,-67 304.237,-63.5001 304.237,-70.5001"/>
</g>
<!-- Node27 -->
<g id="node6" class="node"><title>Node27</title>
<g id="a_node6"><a xlink:href="classRover.html#a34cf7d06f8f26c791bda383a0f35532b" target="_top" xlink:title=" ">
<polygon fill="white" stroke="black" points="160.375,-6 160.375,-38 273.625,-38 273.625,-6 160.375,-6"/>
<text text-anchor="start" x="168.375" y="-24" font-family="Helvetica,sans-Serif" font-size="10.00">Rover::mavlink_motor</text>
<text text-anchor="middle" x="217" y="-12" font-family="Helvetica,sans-Serif" font-size="10.00">_test_start</text>
</a>
</g>
</g>
<!-- Node26&#45;&gt;Node27 -->
<g id="edge5" class="edge"><title>Node26&#45;&gt;Node27</title>
<path fill="none" stroke="midnightblue" d="M299.976,-22C291.315,-22 282.506,-22 274.032,-22"/>
<polygon fill="midnightblue" stroke="midnightblue" points="300.048,-25.5001 310.048,-22 300.048,-18.5001 300.048,-25.5001"/>
</g>
<!-- Node28 -->
<g id="node7" class="node"><title>Node28</title>
<g id="a_node7"><a xlink:href="classGCS__MAVLINK__Rover.html#a46580d8a9c126a95b84791c4f1069102" target="_top" xlink:title=" ">
<polygon fill="white" stroke="black" points="-0.0942383,-0 -0.0942383,-44 124.094,-44 124.094,-0 -0.0942383,-0"/>
<text text-anchor="start" x="7.90576" y="-30" font-family="Helvetica,sans-Serif" font-size="10.00">GCS_MAVLINK_Rover::</text>
<text text-anchor="start" x="7.90576" y="-18" font-family="Helvetica,sans-Serif" font-size="10.00">handle_command_long</text>
<text text-anchor="middle" x="62" y="-6" font-family="Helvetica,sans-Serif" font-size="10.00">_packet</text>
</a>
</g>
</g>
<!-- Node27&#45;&gt;Node28 -->
<g id="edge6" class="edge"><title>Node27&#45;&gt;Node28</title>
<path fill="none" stroke="midnightblue" d="M150.314,-22C141.685,-22 132.868,-22 124.316,-22"/>
<polygon fill="midnightblue" stroke="midnightblue" points="150.331,-25.5001 160.331,-22 150.331,-18.5001 150.331,-25.5001"/>
</g>
</g>
</svg>
