<?xml version="1.0" encoding="UTF-8" standalone="no"?>
<!DOCTYPE svg PUBLIC "-//W3C//DTD SVG 1.1//EN"
 "http://www.w3.org/Graphics/SVG/1.1/DTD/svg11.dtd">
<!-- Generated by graphviz version 2.30.1 (20130221.2233)
 -->
<!-- Title: Rover::cruise_learn_complete Pages: 1 -->
<svg width="410pt" height="208pt"
 viewBox="0.00 0.00 410.00 207.71" xmlns="http://www.w3.org/2000/svg" xmlns:xlink="http://www.w3.org/1999/xlink">
<g id="graph0" class="graph" transform="scale(1 1) rotate(0) translate(4 203.707)">
<title>Rover::cruise_learn_complete</title>
<polygon fill="white" stroke="white" points="-4,5 -4,-203.707 407,-203.707 407,5 -4,5"/>
<!-- Node158 -->
<g id="node1" class="node"><title>Node158</title>
<g id="a_node1"><a xlink:title=" ">
<polygon fill="#bfbfbf" stroke="black" points="0.647949,-117 0.647949,-149 103.352,-149 103.352,-117 0.647949,-117"/>
<text text-anchor="start" x="8.64795" y="-135" font-family="Helvetica,sans-Serif" font-size="10.00">Rover::cruise_learn</text>
<text text-anchor="middle" x="52" y="-123" font-family="Helvetica,sans-Serif" font-size="10.00">_complete</text>
</a>
</g>
</g>
<!-- Node159 -->
<g id="node2" class="node"><title>Node159</title>
<g id="a_node2"><a doxygen="/Users/coreyshive/Documents/schoolcode/ardupilot/docs/tags/libraries:../libraries/" xlink:href="../libraries/classLowPassFilter.html#a34bc75aa770bc6cc0facee3b43a05bec" xlink:title=" ">
<polygon fill="white" stroke="black" points="295.841,-156 295.841,-188 402.159,-188 402.159,-156 295.841,-156"/>
<text text-anchor="start" x="303.841" y="-174" font-family="Helvetica,sans-Serif" font-size="10.00">LowPassFilter&lt; float</text>
<text text-anchor="middle" x="349" y="-162" font-family="Helvetica,sans-Serif" font-size="10.00"> &gt;::get</text>
</a>
</g>
</g>
<!-- Node158&#45;&gt;Node159 -->
<g id="edge1" class="edge"><title>Node158&#45;&gt;Node159</title>
<path fill="none" stroke="midnightblue" d="M70.3652,-149.153C86.8572,-163.304 113.07,-182.846 140,-191 187.552,-205.398 243.786,-198.941 285.787,-189.829"/>
<polygon fill="midnightblue" stroke="midnightblue" points="286.628,-193.227 295.602,-187.595 285.074,-186.401 286.628,-193.227"/>
</g>
<!-- Node160 -->
<g id="node3" class="node"><title>Node160</title>
<g id="a_node3"><a doxygen="/Users/coreyshive/Documents/schoolcode/ardupilot/docs/tags/libraries:../libraries/" xlink:href="../libraries/AP__Math_8h.html#a4e3ae698e8f99cec214348ad233e3c41" xlink:title=" ">
<polygon fill="white" stroke="black" points="168.655,-162 168.655,-182 231.345,-182 231.345,-162 168.655,-162"/>
<text text-anchor="middle" x="200" y="-168" font-family="Helvetica,sans-Serif" font-size="10.00">is_positive</text>
</a>
</g>
</g>
<!-- Node158&#45;&gt;Node160 -->
<g id="edge2" class="edge"><title>Node158&#45;&gt;Node160</title>
<path fill="none" stroke="midnightblue" d="M103.654,-146.531C121.524,-151.304 141.37,-156.606 158.309,-161.131"/>
<polygon fill="midnightblue" stroke="midnightblue" points="157.872,-164.636 168.437,-163.836 159.679,-157.874 157.872,-164.636"/>
</g>
<!-- Node161 -->
<g id="node4" class="node"><title>Node161</title>
<g id="a_node4"><a xlink:href="classRover.html#aa49315d8344d41618e6b6abfc459e89c" target="_top" xlink:title=" ">
<polygon fill="white" stroke="black" points="168.104,-123 168.104,-143 231.896,-143 231.896,-123 168.104,-123"/>
<text text-anchor="middle" x="200" y="-129" font-family="Helvetica,sans-Serif" font-size="10.00">Rover::gcs</text>
</a>
</g>
</g>
<!-- Node158&#45;&gt;Node161 -->
<g id="edge3" class="edge"><title>Node158&#45;&gt;Node161</title>
<path fill="none" stroke="midnightblue" d="M103.654,-133C121.387,-133 141.067,-133 157.921,-133"/>
<polygon fill="midnightblue" stroke="midnightblue" points="158.006,-136.5 168.006,-133 158.006,-129.5 158.006,-136.5"/>
</g>
<!-- Node162 -->
<g id="node5" class="node"><title>Node162</title>
<g id="a_node5"><a doxygen="/Users/coreyshive/Documents/schoolcode/ardupilot/docs/tags/libraries:../libraries/" xlink:href="../libraries/classGCS.html#a9866f3484283db744409e40719cef765" xlink:title=" ">
<polygon fill="white" stroke="black" points="156.705,-84 156.705,-104 243.295,-104 243.295,-84 156.705,-84"/>
<text text-anchor="middle" x="200" y="-90" font-family="Helvetica,sans-Serif" font-size="10.00">GCS::send_text</text>
</a>
</g>
</g>
<!-- Node158&#45;&gt;Node162 -->
<g id="edge4" class="edge"><title>Node158&#45;&gt;Node162</title>
<path fill="none" stroke="midnightblue" d="M103.654,-119.469C119.193,-115.318 136.227,-110.768 151.544,-106.677"/>
<polygon fill="midnightblue" stroke="midnightblue" points="152.571,-110.025 161.329,-104.063 150.764,-103.262 152.571,-110.025"/>
</g>
<!-- Node163 -->
<g id="node6" class="node"><title>Node163</title>
<g id="a_node6"><a xlink:href="classRover.html#a743d410ae9d144530ab4fe91b4d37c54" target="_top" xlink:title=" ">
<polygon fill="white" stroke="black" points="139.756,-33 139.756,-65 260.244,-65 260.244,-33 139.756,-33"/>
<text text-anchor="start" x="147.756" y="-51" font-family="Helvetica,sans-Serif" font-size="10.00">Rover::log_write_cruise</text>
<text text-anchor="middle" x="200" y="-39" font-family="Helvetica,sans-Serif" font-size="10.00">_learn</text>
</a>
</g>
</g>
<!-- Node158&#45;&gt;Node163 -->
<g id="edge5" class="edge"><title>Node158&#45;&gt;Node163</title>
<path fill="none" stroke="midnightblue" d="M74.0697,-116.994C91.2473,-104.373 116.436,-86.8229 140,-74 142.883,-72.4314 145.884,-70.8923 148.939,-69.3968"/>
<polygon fill="midnightblue" stroke="midnightblue" points="150.631,-72.4693 158.199,-65.0549 147.659,-66.1315 150.631,-72.4693"/>
</g>
<!-- Node164 -->
<g id="node7" class="node"><title>Node164</title>
<g id="a_node7"><a doxygen="/Users/coreyshive/Documents/schoolcode/ardupilot/docs/tags/libraries:../libraries/" xlink:href="../libraries/namespaceAP.html#aa35bfac1ea2da16f110e8e72db7b3b20" xlink:title=" ">
<polygon fill="white" stroke="black" points="317.653,-78 317.653,-98 380.347,-98 380.347,-78 317.653,-78"/>
<text text-anchor="middle" x="349" y="-84" font-family="Helvetica,sans-Serif" font-size="10.00">AP::logger</text>
</a>
</g>
</g>
<!-- Node163&#45;&gt;Node164 -->
<g id="edge6" class="edge"><title>Node163&#45;&gt;Node164</title>
<path fill="none" stroke="midnightblue" d="M260.367,-64.7504C276.294,-68.9758 293.14,-73.4454 307.762,-77.3245"/>
<polygon fill="midnightblue" stroke="midnightblue" points="306.927,-80.724 317.49,-79.9055 308.722,-73.9581 306.927,-80.724"/>
</g>
<!-- Node165 -->
<g id="node8" class="node"><title>Node165</title>
<g id="a_node8"><a doxygen="/Users/coreyshive/Documents/schoolcode/ardupilot/docs/tags/libraries:../libraries/" xlink:href="../libraries/classAP__Logger.html#a320182e24dfaf50d436cf065c97169bb" xlink:title=" ">
<polygon fill="white" stroke="black" points="301.625,-39 301.625,-59 396.375,-59 396.375,-39 301.625,-39"/>
<text text-anchor="middle" x="349" y="-45" font-family="Helvetica,sans-Serif" font-size="10.00">AP_Logger::Write</text>
</a>
</g>
</g>
<!-- Node163&#45;&gt;Node165 -->
<g id="edge7" class="edge"><title>Node163&#45;&gt;Node165</title>
<path fill="none" stroke="midnightblue" d="M260.367,-49C270.646,-49 281.308,-49 291.508,-49"/>
<polygon fill="midnightblue" stroke="midnightblue" points="291.523,-52.5001 301.523,-49 291.523,-45.5001 291.523,-52.5001"/>
</g>
<!-- Node166 -->
<g id="node9" class="node"><title>Node166</title>
<g id="a_node9"><a doxygen="/Users/coreyshive/Documents/schoolcode/ardupilot/docs/tags/libraries:../libraries/" xlink:href="../libraries/namespaceAP__HAL.html#a7aa0ce7625c9680e30ff4a99940907a5" xlink:title=" ">
<polygon fill="white" stroke="black" points="298.761,-0 298.761,-20 399.239,-20 399.239,-0 298.761,-0"/>
<text text-anchor="middle" x="349" y="-6" font-family="Helvetica,sans-Serif" font-size="10.00">AP_HAL::micros64</text>
</a>
</g>
</g>
<!-- Node163&#45;&gt;Node166 -->
<g id="edge8" class="edge"><title>Node163&#45;&gt;Node166</title>
<path fill="none" stroke="midnightblue" d="M260.367,-33.2496C273.571,-29.7466 287.407,-26.0758 300.083,-22.7127"/>
<polygon fill="midnightblue" stroke="midnightblue" points="301.198,-26.038 309.966,-20.0906 299.403,-19.2721 301.198,-26.038"/>
</g>
<!-- Node163&#45;&gt;Node159 -->
<g id="edge9" class="edge"><title>Node163&#45;&gt;Node159</title>
<path fill="none" stroke="midnightblue" d="M245.025,-65.0774C250.263,-67.7285 255.382,-70.7037 260,-74 275.366,-84.969 307.523,-122.562 328.416,-147.868"/>
<polygon fill="midnightblue" stroke="midnightblue" points="325.717,-150.097 334.768,-155.604 331.127,-145.654 325.717,-150.097"/>
</g>
</g>
</svg>
