<?xml version="1.0" encoding="UTF-8" standalone="no"?>
<!DOCTYPE svg PUBLIC "-//W3C//DTD SVG 1.1//EN"
 "http://www.w3.org/Graphics/SVG/1.1/DTD/svg11.dtd">
<!-- Generated by graphviz version 2.30.1 (20130221.2233)
 -->
<!-- Title: ModeAuto::verify_loiter_time Pages: 1 -->
<!--zoomable 149 -->
<svg id="main" version="1.1" xmlns="http://www.w3.org/2000/svg" xmlns:xlink="http://www.w3.org/1999/xlink" xml:space="preserve" onload="init(evt)">
<style type="text/css"><![CDATA[
.edge:hover path { stroke: red; }
.edge:hover polygon { stroke: red; fill: red; }
]]></style>
<script type="text/javascript"><![CDATA[
var edges = document.getElementsByTagName('g');
if (edges && edges.length) {
  for (var i=0;i<edges.length;i++) {
    if (edges[i].id.substr(0,4)=='edge') {
      edges[i].setAttribute('class','edge');
    }
  }
}
]]></script>
        <defs>
                <circle id="rim" cx="0" cy="0" r="7"/>
                <circle id="rim2" cx="0" cy="0" r="3.5"/>
                <g id="zoomPlus">
                        <use xlink:href="#rim" fill="#404040">
                                <set attributeName="fill" to="#808080" begin="zoomplus.mouseover" end="zoomplus.mouseout"/>
                        </use>
                        <path d="M-4,0h8M0,-4v8" fill="none" stroke="white" stroke-width="1.5" pointer-events="none"/>
                </g>
                <g id="zoomMin">
                        <use xlink:href="#rim" fill="#404040">
                                <set attributeName="fill" to="#808080" begin="zoomminus.mouseover" end="zoomminus.mouseout"/>
                        </use>
                        <path d="M-4,0h8" fill="none" stroke="white" stroke-width="1.5" pointer-events="none"/>
                </g>
                <g id="dirArrow">
                        <path fill="none" stroke="white" stroke-width="1.5" d="M0,-3.0v7 M-2.5,-0.5L0,-3.0L2.5,-0.5"/>
                </g>
               <g id="resetDef">
                       <use xlink:href="#rim2" fill="#404040">
                               <set attributeName="fill" to="#808080" begin="reset.mouseover" end="reset.mouseout"/>
                       </use>
               </g>
        </defs>

<script type="text/javascript">
var viewWidth = 908;
var viewHeight = 149;
var sectionId = 'dynsection-51';
</script>
<script xlink:href="svgpan.js"/>
<svg id="graph" class="graph">
<g id="viewport">
<title>ModeAuto::verify_loiter_time</title>
<polygon fill="white" stroke="white" points="-4,5 -4,-144.712 905,-144.712 905,5 -4,5"/>
<!-- Node498 -->
<g id="node1" class="node"><title>Node498</title>
<g id="a_node1"><a xlink:title=" ">
<polygon fill="#bfbfbf" stroke="black" points="0.638184,-68 0.638184,-88 143.362,-88 143.362,-68 0.638184,-68"/>
<text text-anchor="middle" x="72" y="-74" font-family="Helvetica,sans-Serif" font-size="10.00">ModeAuto::verify_loiter_time</text>
</a>
</g>
</g>
<!-- Node499 -->
<g id="node2" class="node"><title>Node499</title>
<g id="a_node2"><a xlink:href="classModeAuto.html#a4715765c3b0cc0ec5ade3df9a673c57b" target="_top" xlink:title=" ">
<polygon fill="white" stroke="black" points="180.468,-68 180.468,-88 311.532,-88 311.532,-68 180.468,-68"/>
<text text-anchor="middle" x="246" y="-74" font-family="Helvetica,sans-Serif" font-size="10.00">ModeAuto::verify_nav_wp</text>
</a>
</g>
</g>
<!-- Node498&#45;&gt;Node499 -->
<g id="edge1" class="edge"><title>Node498&#45;&gt;Node499</title>
<path fill="none" stroke="midnightblue" d="M143.455,-78C152.353,-78 161.48,-78 170.439,-78"/>
<polygon fill="midnightblue" stroke="midnightblue" points="170.46,-81.5001 180.46,-78 170.46,-74.5001 170.46,-81.5001"/>
</g>
<!-- Node505 -->
<g id="node8" class="node"><title>Node505</title>
<g id="a_node8"><a doxygen="/Users/coreyshive/Documents/schoolcode/ardupilot/docs/tags/libraries:../libraries/" xlink:href="../libraries/GCS_8h.html#a1d3cc361b864ddf64a44c12ab3bd044e" xlink:title=" ">
<polygon fill="white" stroke="black" points="411.219,-117 411.219,-137 442.781,-137 442.781,-117 411.219,-117"/>
<text text-anchor="middle" x="427" y="-123" font-family="Helvetica,sans-Serif" font-size="10.00">gcs</text>
</a>
</g>
</g>
<!-- Node498&#45;&gt;Node505 -->
<g id="edge11" class="edge"><title>Node498&#45;&gt;Node505</title>
<path fill="none" stroke="midnightblue" d="M126.244,-88.0429C143.375,-91.1163 162.46,-94.3752 180,-97 260.415,-109.034 356.164,-119.65 400.784,-124.383"/>
<polygon fill="midnightblue" stroke="midnightblue" points="400.675,-127.891 410.986,-125.457 401.408,-120.929 400.675,-127.891"/>
</g>
<!-- Node506 -->
<g id="node9" class="node"><title>Node506</title>
<g id="a_node9"><a doxygen="/Users/coreyshive/Documents/schoolcode/ardupilot/docs/tags/libraries:../libraries/" xlink:href="../libraries/classGCS.html#a9866f3484283db744409e40719cef765" xlink:title=" ">
<polygon fill="white" stroke="black" points="383.705,-0 383.705,-20 470.295,-20 470.295,-0 383.705,-0"/>
<text text-anchor="middle" x="427" y="-6" font-family="Helvetica,sans-Serif" font-size="10.00">GCS::send_text</text>
</a>
</g>
</g>
<!-- Node498&#45;&gt;Node506 -->
<g id="edge12" class="edge"><title>Node498&#45;&gt;Node506</title>
<path fill="none" stroke="midnightblue" d="M125.086,-67.9664C191.852,-55.1051 306.942,-32.9347 373.774,-20.0605"/>
<polygon fill="midnightblue" stroke="midnightblue" points="374.515,-23.4823 383.672,-18.1538 373.191,-16.6087 374.515,-23.4823"/>
</g>
<!-- Node500 -->
<g id="node3" class="node"><title>Node500</title>
<g id="a_node3"><a xlink:href="classModeAuto.html#a1e5ee0c0ba4e4e7c46506db0c6384682" target="_top" xlink:title=" ">
<polygon fill="white" stroke="black" points="348.395,-78 348.395,-98 505.605,-98 505.605,-78 348.395,-78"/>
<text text-anchor="middle" x="427" y="-84" font-family="Helvetica,sans-Serif" font-size="10.00">ModeAuto::reached_destination</text>
</a>
</g>
</g>
<!-- Node499&#45;&gt;Node500 -->
<g id="edge2" class="edge"><title>Node499&#45;&gt;Node500</title>
<path fill="none" stroke="midnightblue" d="M311.623,-81.6102C320.281,-82.0939 329.277,-82.5965 338.249,-83.0977"/>
<polygon fill="midnightblue" stroke="midnightblue" points="338.171,-86.5987 348.35,-83.662 338.561,-79.6096 338.171,-86.5987"/>
</g>
<!-- Node499&#45;&gt;Node505 -->
<g id="edge8" class="edge"><title>Node499&#45;&gt;Node505</title>
<path fill="none" stroke="midnightblue" d="M281.06,-88.0422C300.61,-93.7404 325.642,-100.925 348,-107 365.757,-111.825 385.874,-116.975 401.23,-120.841"/>
<polygon fill="midnightblue" stroke="midnightblue" points="400.463,-124.257 411.013,-123.293 402.164,-117.467 400.463,-124.257"/>
</g>
<!-- Node499&#45;&gt;Node506 -->
<g id="edge9" class="edge"><title>Node499&#45;&gt;Node506</title>
<path fill="none" stroke="midnightblue" d="M264.743,-67.9534C284.53,-57.0942 317.741,-39.8851 348,-29 356.195,-26.0521 365.036,-23.4113 373.72,-21.1034"/>
<polygon fill="midnightblue" stroke="midnightblue" points="374.584,-24.495 383.415,-18.6404 372.861,-17.7105 374.584,-24.495"/>
</g>
<!-- Node507 -->
<g id="node10" class="node"><title>Node507</title>
<g id="a_node10"><a doxygen="/Users/coreyshive/Documents/schoolcode/ardupilot/docs/tags/libraries:../libraries/" xlink:href="../libraries/namespaceAP__HAL.html#a77dffbb18891996280308e21316ec186" xlink:title=" ">
<polygon fill="white" stroke="black" points="407.892,-39 407.892,-59 446.108,-59 446.108,-39 407.892,-39"/>
<text text-anchor="middle" x="427" y="-45" font-family="Helvetica,sans-Serif" font-size="10.00">millis</text>
</a>
</g>
</g>
<!-- Node499&#45;&gt;Node507 -->
<g id="edge10" class="edge"><title>Node499&#45;&gt;Node507</title>
<path fill="none" stroke="midnightblue" d="M308.852,-67.9792C338.998,-63.0953 373.783,-57.4597 397.569,-53.6062"/>
<polygon fill="midnightblue" stroke="midnightblue" points="398.355,-57.0245 407.667,-51.9702 397.236,-50.1146 398.355,-57.0245"/>
</g>
<!-- Node501 -->
<g id="node4" class="node"><title>Node501</title>
<g id="a_node4"><a doxygen="/Users/coreyshive/Documents/schoolcode/ardupilot/docs/tags/libraries:../libraries/" xlink:href="../libraries/classAR__WPNav.html#acde2c25f75578f39ab8c84dfcaec4afd" xlink:title=" ">
<polygon fill="white" stroke="black" points="734.515,-117 734.515,-137 899.485,-137 899.485,-117 734.515,-117"/>
<text text-anchor="middle" x="817" y="-123" font-family="Helvetica,sans-Serif" font-size="10.00">AR_WPNav::reached_destination</text>
</a>
</g>
</g>
<!-- Node500&#45;&gt;Node501 -->
<g id="edge3" class="edge"><title>Node500&#45;&gt;Node501</title>
<path fill="none" stroke="midnightblue" d="M478.134,-98.1023C487.534,-100.587 497.174,-103.546 506,-107 523.045,-113.67 524.282,-122.409 542,-127 603.883,-143.035 676.301,-142.235 731.14,-137.857"/>
<polygon fill="midnightblue" stroke="midnightblue" points="731.503,-141.338 741.169,-137 730.907,-134.364 731.503,-141.338"/>
</g>
<!-- Node502 -->
<g id="node5" class="node"><title>Node502</title>
<g id="a_node5"><a xlink:href="classModeRTL.html#a9ea71c3331787dfe8cb0d73629499e98" target="_top" xlink:title=" ">
<polygon fill="white" stroke="black" points="542.322,-98 542.322,-118 697.678,-118 697.678,-98 542.322,-98"/>
<text text-anchor="middle" x="620" y="-104" font-family="Helvetica,sans-Serif" font-size="10.00">ModeRTL::reached_destination</text>
</a>
</g>
</g>
<!-- Node500&#45;&gt;Node502 -->
<g id="edge4" class="edge"><title>Node500&#45;&gt;Node502</title>
<path fill="none" stroke="midnightblue" d="M505.687,-96.1348C514.467,-97.0541 523.454,-97.9952 532.339,-98.9256"/>
<polygon fill="midnightblue" stroke="midnightblue" points="532,-102.409 542.31,-99.9697 532.729,-95.4472 532,-102.409"/>
</g>
<!-- Node503 -->
<g id="node6" class="node"><title>Node503</title>
<g id="a_node6"><a xlink:href="classMode.html#a9f21551874f70af04b63cb7f18526c5a" target="_top" xlink:title=" ">
<polygon fill="white" stroke="black" points="551.68,-59 551.68,-79 688.32,-79 688.32,-59 551.68,-59"/>
<text text-anchor="middle" x="620" y="-65" font-family="Helvetica,sans-Serif" font-size="10.00">Mode::reached_destination</text>
</a>
</g>
</g>
<!-- Node500&#45;&gt;Node503 -->
<g id="edge6" class="edge"><title>Node500&#45;&gt;Node503</title>
<path fill="none" stroke="midnightblue" d="M505.687,-80.272C517.429,-79.1039 529.544,-77.8987 541.287,-76.7306"/>
<polygon fill="midnightblue" stroke="midnightblue" points="541.888,-80.1882 551.493,-75.7154 541.195,-73.2226 541.888,-80.1882"/>
</g>
<!-- Node504 -->
<g id="node7" class="node"><title>Node504</title>
<g id="a_node7"><a xlink:href="classModeGuided.html#aa52b5762a3918a5e17d7f6c46d4bb19c" target="_top" xlink:title=" ">
<polygon fill="white" stroke="black" points="562.522,-8 562.522,-40 677.478,-40 677.478,-8 562.522,-8"/>
<text text-anchor="start" x="570.522" y="-26" font-family="Helvetica,sans-Serif" font-size="10.00">ModeGuided::reached</text>
<text text-anchor="middle" x="620" y="-14" font-family="Helvetica,sans-Serif" font-size="10.00">_destination</text>
</a>
</g>
</g>
<!-- Node500&#45;&gt;Node504 -->
<g id="edge7" class="edge"><title>Node500&#45;&gt;Node504</title>
<path fill="none" stroke="midnightblue" d="M474.757,-77.915C485.187,-75.142 496.088,-71.8253 506,-68 522.878,-61.4862 525.335,-56.0416 542,-49 546.459,-47.1161 551.111,-45.2867 555.824,-43.5311"/>
<polygon fill="midnightblue" stroke="midnightblue" points="557.316,-46.7143 565.542,-40.0376 554.948,-40.127 557.316,-46.7143"/>
</g>
<!-- Node502&#45;&gt;Node501 -->
<g id="edge5" class="edge"><title>Node502&#45;&gt;Node501</title>
<path fill="none" stroke="midnightblue" d="M697.789,-115.482C706.54,-116.335 715.523,-117.21 724.44,-118.079"/>
<polygon fill="midnightblue" stroke="midnightblue" points="724.171,-121.569 734.464,-119.055 724.85,-114.602 724.171,-121.569"/>
</g>
</g>
</svg>
        <g id="navigator" transform="translate(0 0)" fill="#404254">
                <rect fill="#f2f5e9" fill-opacity="0.5" stroke="#606060" stroke-width=".5" x="0" y="0" width="60" height="60"/>
                <use id="zoomplus" xlink:href="#zoomPlus" x="17" y="9" onmousedown="handleZoom(evt,'in')"/>
                <use id="zoomminus" xlink:href="#zoomMin" x="42" y="9" onmousedown="handleZoom(evt,'out')"/>
                <use id="reset" xlink:href="#resetDef" x="30" y="36" onmousedown="handleReset()"/>
                <g id="arrowUp" xlink:href="#dirArrow" transform="translate(30 24)" onmousedown="handlePan(0,-1)">
                  <use xlink:href="#rim" fill="#404040">
                        <set attributeName="fill" to="#808080" begin="arrowUp.mouseover" end="arrowUp.mouseout"/>
                  </use>
                  <path fill="none" stroke="white" stroke-width="1.5" d="M0,-3.0v7 M-2.5,-0.5L0,-3.0L2.5,-0.5"/>
                </g>
                <g id="arrowRight" xlink:href="#dirArrow" transform="rotate(90) translate(36 -43)" onmousedown="handlePan(1,0)">
                  <use xlink:href="#rim" fill="#404040">
                        <set attributeName="fill" to="#808080" begin="arrowRight.mouseover" end="arrowRight.mouseout"/>
                  </use>
                  <path fill="none" stroke="white" stroke-width="1.5" d="M0,-3.0v7 M-2.5,-0.5L0,-3.0L2.5,-0.5"/>
                </g>
                <g id="arrowDown" xlink:href="#dirArrow" transform="rotate(180) translate(-30 -48)" onmousedown="handlePan(0,1)">
                  <use xlink:href="#rim" fill="#404040">
                        <set attributeName="fill" to="#808080" begin="arrowDown.mouseover" end="arrowDown.mouseout"/>
                  </use>
                  <path fill="none" stroke="white" stroke-width="1.5" d="M0,-3.0v7 M-2.5,-0.5L0,-3.0L2.5,-0.5"/>
                </g>
                <g id="arrowLeft" xlink:href="#dirArrow" transform="rotate(270) translate(-36 17)" onmousedown="handlePan(-1,0)">
                  <use xlink:href="#rim" fill="#404040">
                        <set attributeName="fill" to="#808080" begin="arrowLeft.mouseover" end="arrowLeft.mouseout"/>
                  </use>
                  <path fill="none" stroke="white" stroke-width="1.5" d="M0,-3.0v7 M-2.5,-0.5L0,-3.0L2.5,-0.5"/>
                </g>
        </g>
        <svg viewBox="0 0 15 15" width="100%" height="30px" preserveAspectRatio="xMaxYMin meet">
         <g id="arrow_out" transform="scale(0.3 0.3)">
          <a xlink:href="classModeAuto_a9794927073e249e3be00ca04771ec1bb_cgraph_org.svg" target="_base">
           <rect id="button" ry="5" rx="5" y="6" x="6" height="38" width="38"
                fill="#f2f5e9" fill-opacity="0.5" stroke="#606060" stroke-width="1.0"/>
           <path id="arrow"
             d="M 11.500037,31.436501 C 11.940474,20.09759 22.043105,11.32322 32.158766,21.979434 L 37.068811,17.246167 C 37.068811,17.246167 37.088388,32 37.088388,32 L 22.160133,31.978069 C 22.160133,31.978069 26.997745,27.140456 26.997745,27.140456 C 18.528582,18.264221 13.291696,25.230495 11.500037,31.436501 z"
             style="fill:#404040;"/>
          </a>
         </g>
        </svg>
</svg>
