<?xml version="1.0" encoding="UTF-8" standalone="no"?>
<!DOCTYPE svg PUBLIC "-//W3C//DTD SVG 1.1//EN"
 "http://www.w3.org/Graphics/SVG/1.1/DTD/svg11.dtd">
<!-- Generated by graphviz version 2.30.1 (20130221.2233)
 -->
<!-- Title: APMrover2/Parameters.h Pages: 1 -->
<!--zoomable 216 -->
<svg id="main" version="1.1" xmlns="http://www.w3.org/2000/svg" xmlns:xlink="http://www.w3.org/1999/xlink" xml:space="preserve" onload="init(evt)">
<style type="text/css"><![CDATA[
.edge:hover path { stroke: red; }
.edge:hover polygon { stroke: red; fill: red; }
]]></style>
<script type="text/javascript"><![CDATA[
var edges = document.getElementsByTagName('g');
if (edges && edges.length) {
  for (var i=0;i<edges.length;i++) {
    if (edges[i].id.substr(0,4)=='edge') {
      edges[i].setAttribute('class','edge');
    }
  }
}
]]></script>
        <defs>
                <circle id="rim" cx="0" cy="0" r="7"/>
                <circle id="rim2" cx="0" cy="0" r="3.5"/>
                <g id="zoomPlus">
                        <use xlink:href="#rim" fill="#404040">
                                <set attributeName="fill" to="#808080" begin="zoomplus.mouseover" end="zoomplus.mouseout"/>
                        </use>
                        <path d="M-4,0h8M0,-4v8" fill="none" stroke="white" stroke-width="1.5" pointer-events="none"/>
                </g>
                <g id="zoomMin">
                        <use xlink:href="#rim" fill="#404040">
                                <set attributeName="fill" to="#808080" begin="zoomminus.mouseover" end="zoomminus.mouseout"/>
                        </use>
                        <path d="M-4,0h8" fill="none" stroke="white" stroke-width="1.5" pointer-events="none"/>
                </g>
                <g id="dirArrow">
                        <path fill="none" stroke="white" stroke-width="1.5" d="M0,-3.0v7 M-2.5,-0.5L0,-3.0L2.5,-0.5"/>
                </g>
               <g id="resetDef">
                       <use xlink:href="#rim2" fill="#404040">
                               <set attributeName="fill" to="#808080" begin="reset.mouseover" end="reset.mouseout"/>
                       </use>
               </g>
        </defs>

<script type="text/javascript">
var viewWidth = 5454;
var viewHeight = 216;
var sectionId = 'dynsection-1';
</script>
<script xlink:href="svgpan.js"/>
<svg id="graph" class="graph">
<g id="viewport">
<title>APMrover2/Parameters.h</title>
<polygon fill="white" stroke="white" points="-4,5 -4,-212 5451,-212 5451,5 -4,5"/>
<!-- Node190 -->
<g id="node1" class="node"><title>Node190</title>
<g id="a_node1"><a xlink:title=" ">
<polygon fill="#bfbfbf" stroke="black" points="1896.59,-187 1896.59,-207 2025.41,-207 2025.41,-187 1896.59,-187"/>
<text text-anchor="middle" x="1961" y="-193" font-family="Helvetica,sans-Serif" font-size="10.00">APMrover2/Parameters.h</text>
</a>
</g>
</g>
<!-- Node191 -->
<g id="node2" class="node"><title>Node191</title>
<g id="a_node2"><a xlink:href="Rover_8h.html" target="_top" xlink:title=" ">
<polygon fill="white" stroke="black" points="2567.37,-129 2567.37,-149 2670.63,-149 2670.63,-129 2567.37,-129"/>
<text text-anchor="middle" x="2619" y="-135" font-family="Helvetica,sans-Serif" font-size="10.00">APMrover2/Rover.h</text>
</a>
</g>
</g>
<!-- Node190&#45;&gt;Node191 -->
<g id="edge1" class="edge"><title>Node190&#45;&gt;Node191</title>
<path fill="none" stroke="midnightblue" d="M2035.83,-189.632C2170.65,-178.158 2451.09,-154.29 2567.07,-144.42"/>
<polygon fill="midnightblue" stroke="midnightblue" points="2035.26,-186.167 2025.59,-190.503 2035.85,-193.142 2035.26,-186.167"/>
</g>
<!-- Node192 -->
<g id="node3" class="node"><title>Node192</title>
<g id="a_node3"><a xlink:href="afs__rover_8cpp.html" target="_top" xlink:title=" ">
<polygon fill="white" stroke="black" points="152.584,-65 152.584,-85 281.416,-85 281.416,-65 152.584,-65"/>
<text text-anchor="middle" x="217" y="-71" font-family="Helvetica,sans-Serif" font-size="10.00">APMrover2/afs_rover.cpp</text>
</a>
</g>
</g>
<!-- Node191&#45;&gt;Node192 -->
<g id="edge2" class="edge"><title>Node191&#45;&gt;Node192</title>
<path fill="none" stroke="midnightblue" d="M2557.26,-137.493C2211.38,-134.559 521.484,-118.938 291,-92 278.206,-90.5047 264.363,-87.8095 252.149,-85.0522"/>
<polygon fill="midnightblue" stroke="midnightblue" points="2557.3,-140.994 2567.33,-137.578 2557.36,-133.994 2557.3,-140.994"/>
</g>
<!-- Node193 -->
<g id="node4" class="node"><title>Node193</title>
<g id="a_node4"><a xlink:href="RC__Channel_8h.html" target="_top" xlink:title=" ">
<polygon fill="white" stroke="black" points="-0.194336,-65 -0.194336,-85 134.194,-85 134.194,-65 -0.194336,-65"/>
<text text-anchor="middle" x="67" y="-71" font-family="Helvetica,sans-Serif" font-size="10.00">APMrover2/RC_Channel.h</text>
</a>
</g>
</g>
<!-- Node191&#45;&gt;Node193 -->
<g id="edge3" class="edge"><title>Node191&#45;&gt;Node193</title>
<path fill="none" stroke="midnightblue" d="M2557.05,-137.558C2196.97,-134.847 381.544,-119.662 135,-92 121.703,-90.5081 107.302,-87.8137 95.0968,-85.0561"/>
<polygon fill="midnightblue" stroke="midnightblue" points="2557.25,-141.06 2567.28,-137.635 2557.3,-134.06 2557.25,-141.06"/>
</g>
<!-- Node195 -->
<g id="node6" class="node"><title>Node195</title>
<g id="a_node6"><a xlink:href="AP__Arming_8cpp.html" target="_top" xlink:title=" ">
<polygon fill="white" stroke="black" points="299.865,-65 299.865,-85 438.135,-85 438.135,-65 299.865,-65"/>
<text text-anchor="middle" x="369" y="-71" font-family="Helvetica,sans-Serif" font-size="10.00">APMrover2/AP_Arming.cpp</text>
</a>
</g>
</g>
<!-- Node191&#45;&gt;Node195 -->
<g id="edge7" class="edge"><title>Node191&#45;&gt;Node195</title>
<path fill="none" stroke="midnightblue" d="M2556.69,-137.354C2223.68,-133.813 661.131,-116.029 447,-92 433.537,-90.4893 418.951,-87.7905 406.075,-85.0346"/>
<polygon fill="midnightblue" stroke="midnightblue" points="2557.06,-140.858 2567.1,-137.465 2557.13,-133.859 2557.06,-140.858"/>
</g>
<!-- Node196 -->
<g id="node7" class="node"><title>Node196</title>
<g id="a_node7"><a xlink:href="AP__MotorsUGV_8cpp.html" target="_top" xlink:title=" ">
<polygon fill="white" stroke="black" points="456.045,-65 456.045,-85 613.955,-85 613.955,-65 456.045,-65"/>
<text text-anchor="middle" x="535" y="-71" font-family="Helvetica,sans-Serif" font-size="10.00">APMrover2/AP_MotorsUGV.cpp</text>
</a>
</g>
</g>
<!-- Node191&#45;&gt;Node196 -->
<g id="edge8" class="edge"><title>Node191&#45;&gt;Node196</title>
<path fill="none" stroke="midnightblue" d="M2557.12,-137.882C2263.83,-137.121 1011.72,-131.571 623,-92 608.015,-90.4746 591.752,-87.808 577.33,-85.0841"/>
<polygon fill="midnightblue" stroke="midnightblue" points="2557.14,-141.382 2567.15,-137.907 2557.16,-134.382 2557.14,-141.382"/>
</g>
<!-- Node197 -->
<g id="node8" class="node"><title>Node197</title>
<g id="a_node8"><a xlink:href="AP__Rally_8cpp.html" target="_top" xlink:title=" ">
<polygon fill="white" stroke="black" points="631.958,-65 631.958,-85 760.042,-85 760.042,-65 631.958,-65"/>
<text text-anchor="middle" x="696" y="-71" font-family="Helvetica,sans-Serif" font-size="10.00">APMrover2/AP_Rally.cpp</text>
</a>
</g>
</g>
<!-- Node191&#45;&gt;Node197 -->
<g id="edge9" class="edge"><title>Node191&#45;&gt;Node197</title>
<path fill="none" stroke="midnightblue" d="M2556.7,-138.048C2275.93,-138.019 1126.42,-135.211 769,-92 756.377,-90.4739 742.721,-87.7715 730.672,-85.017"/>
<polygon fill="midnightblue" stroke="midnightblue" points="2557.09,-141.548 2567.09,-138.048 2557.09,-134.548 2557.09,-141.548"/>
</g>
<!-- Node198 -->
<g id="node9" class="node"><title>Node198</title>
<g id="a_node9"><a xlink:href="balance__bot_8cpp.html" target="_top" xlink:title=" ">
<polygon fill="white" stroke="black" points="777.907,-65 777.907,-85 920.093,-85 920.093,-65 777.907,-65"/>
<text text-anchor="middle" x="849" y="-71" font-family="Helvetica,sans-Serif" font-size="10.00">APMrover2/balance_bot.cpp</text>
</a>
</g>
</g>
<!-- Node191&#45;&gt;Node198 -->
<g id="edge10" class="edge"><title>Node191&#45;&gt;Node198</title>
<path fill="none" stroke="midnightblue" d="M2556.96,-137.726C2291.96,-136.336 1253.69,-128.618 929,-92 915.348,-90.4603 900.555,-87.7903 887.448,-85.0676"/>
<polygon fill="midnightblue" stroke="midnightblue" points="2557.15,-141.227 2567.17,-137.778 2557.18,-134.227 2557.15,-141.227"/>
</g>
<!-- Node199 -->
<g id="node10" class="node"><title>Node199</title>
<g id="a_node10"><a xlink:href="commands_8cpp.html" target="_top" xlink:title=" ">
<polygon fill="white" stroke="black" points="937.7,-65 937.7,-85 1074.3,-85 1074.3,-65 937.7,-65"/>
<text text-anchor="middle" x="1006" y="-71" font-family="Helvetica,sans-Serif" font-size="10.00">APMrover2/commands.cpp</text>
</a>
</g>
</g>
<!-- Node191&#45;&gt;Node199 -->
<g id="edge11" class="edge"><title>Node191&#45;&gt;Node199</title>
<path fill="none" stroke="midnightblue" d="M2557.01,-137.569C2307.57,-135.612 1376.56,-126.131 1084,-92 1070.68,-90.4462 1056.26,-87.7728 1043.48,-85.0512"/>
<polygon fill="midnightblue" stroke="midnightblue" points="2557.31,-141.071 2567.34,-137.648 2557.36,-134.071 2557.31,-141.071"/>
</g>
<!-- Node200 -->
<g id="node11" class="node"><title>Node200</title>
<g id="a_node11"><a xlink:href="compat_8cpp.html" target="_top" xlink:title=" ">
<polygon fill="white" stroke="black" points="1092.76,-65 1092.76,-85 1213.24,-85 1213.24,-65 1092.76,-65"/>
<text text-anchor="middle" x="1153" y="-71" font-family="Helvetica,sans-Serif" font-size="10.00">APMrover2/compat.cpp</text>
</a>
</g>
</g>
<!-- Node191&#45;&gt;Node200 -->
<g id="edge12" class="edge"><title>Node191&#45;&gt;Node200</title>
<path fill="none" stroke="midnightblue" d="M2557.17,-137.566C2322.36,-135.671 1485.75,-126.586 1222,-92 1210.17,-90.4491 1197.4,-87.7764 1186.1,-85.0547"/>
<polygon fill="midnightblue" stroke="midnightblue" points="2557.22,-141.067 2567.24,-137.646 2557.27,-134.067 2557.22,-141.067"/>
</g>
<!-- Node201 -->
<g id="node12" class="node"><title>Node201</title>
<g id="a_node12"><a xlink:href="crash__check_8cpp.html" target="_top" xlink:title=" ">
<polygon fill="white" stroke="black" points="1231.08,-65 1231.08,-85 1374.92,-85 1374.92,-65 1231.08,-65"/>
<text text-anchor="middle" x="1303" y="-71" font-family="Helvetica,sans-Serif" font-size="10.00">APMrover2/crash_check.cpp</text>
</a>
</g>
</g>
<!-- Node191&#45;&gt;Node201 -->
<g id="edge13" class="edge"><title>Node191&#45;&gt;Node201</title>
<path fill="none" stroke="midnightblue" d="M2556.95,-136.985C2339.82,-133.231 1614.91,-118.936 1384,-92 1370.33,-90.4056 1355.52,-87.757 1342.35,-85.0691"/>
<polygon fill="midnightblue" stroke="midnightblue" points="2557.15,-140.489 2567.2,-137.161 2557.27,-133.49 2557.15,-140.489"/>
</g>
<!-- Node202 -->
<g id="node13" class="node"><title>Node202</title>
<g id="a_node13"><a xlink:href="cruise__learn_8cpp.html" target="_top" xlink:title=" ">
<polygon fill="white" stroke="black" points="1392.92,-65 1392.92,-85 1535.08,-85 1535.08,-65 1392.92,-65"/>
<text text-anchor="middle" x="1464" y="-71" font-family="Helvetica,sans-Serif" font-size="10.00">APMrover2/cruise_learn.cpp</text>
</a>
</g>
</g>
<!-- Node191&#45;&gt;Node202 -->
<g id="edge14" class="edge"><title>Node191&#45;&gt;Node202</title>
<path fill="none" stroke="midnightblue" d="M2556.84,-138.689C2391.42,-139.8 1926.91,-138.202 1544,-92 1530.5,-90.3711 1515.88,-87.7139 1502.87,-85.0287"/>
<polygon fill="midnightblue" stroke="midnightblue" points="2557.33,-142.186 2567.3,-138.612 2557.28,-135.186 2557.33,-142.186"/>
</g>
<!-- Node203 -->
<g id="node14" class="node"><title>Node203</title>
<g id="a_node14"><a xlink:href="ekf__check_8cpp.html" target="_top" xlink:title=" ">
<polygon fill="white" stroke="black" points="1552.64,-65 1552.64,-85 1685.36,-85 1685.36,-65 1552.64,-65"/>
<text text-anchor="middle" x="1619" y="-71" font-family="Helvetica,sans-Serif" font-size="10.00">APMrover2/ekf_check.cpp</text>
</a>
</g>
</g>
<!-- Node191&#45;&gt;Node203 -->
<g id="edge15" class="edge"><title>Node191&#45;&gt;Node203</title>
<path fill="none" stroke="midnightblue" d="M2557.02,-138.34C2407.78,-138.416 2016.88,-134.191 1694,-92 1681.46,-90.3612 1667.9,-87.7353 1655.8,-85.0806"/>
<polygon fill="midnightblue" stroke="midnightblue" points="2557.35,-141.84 2567.35,-138.328 2557.34,-134.84 2557.35,-141.84"/>
</g>
<!-- Node204 -->
<g id="node15" class="node"><title>Node204</title>
<g id="a_node15"><a xlink:href="failsafe_8cpp.html" target="_top" xlink:title=" ">
<polygon fill="white" stroke="black" points="1703.31,-65 1703.31,-85 1822.69,-85 1822.69,-65 1703.31,-65"/>
<text text-anchor="middle" x="1763" y="-71" font-family="Helvetica,sans-Serif" font-size="10.00">APMrover2/failsafe.cpp</text>
</a>
</g>
</g>
<!-- Node191&#45;&gt;Node204 -->
<g id="edge16" class="edge"><title>Node191&#45;&gt;Node204</title>
<path fill="none" stroke="midnightblue" d="M2557.11,-137.936C2423.82,-137.022 2100.01,-130.622 1832,-92 1820.44,-90.3337 1807.95,-87.7008 1796.83,-85.0481"/>
<polygon fill="midnightblue" stroke="midnightblue" points="2557.11,-141.436 2567.13,-137.997 2557.15,-134.436 2557.11,-141.436"/>
</g>
<!-- Node205 -->
<g id="node16" class="node"><title>Node205</title>
<g id="a_node16"><a xlink:href="fence_8cpp.html" target="_top" xlink:title=" ">
<polygon fill="white" stroke="black" points="1840.92,-65 1840.92,-85 1953.08,-85 1953.08,-65 1840.92,-65"/>
<text text-anchor="middle" x="1897" y="-71" font-family="Helvetica,sans-Serif" font-size="10.00">APMrover2/fence.cpp</text>
</a>
</g>
</g>
<!-- Node191&#45;&gt;Node205 -->
<g id="edge17" class="edge"><title>Node191&#45;&gt;Node205</title>
<path fill="none" stroke="midnightblue" d="M2556.93,-137.191C2439.89,-134.885 2178.83,-126.021 1962,-92 1951.21,-90.3067 1939.58,-87.6997 1929.18,-85.0783"/>
<polygon fill="midnightblue" stroke="midnightblue" points="2557.06,-140.694 2567.13,-137.383 2557.2,-133.696 2557.06,-140.694"/>
</g>
<!-- Node206 -->
<g id="node17" class="node"><title>Node206</title>
<g id="a_node17"><a xlink:href="GCS__Mavlink_8cpp.html" target="_top" xlink:title=" ">
<polygon fill="white" stroke="black" points="1970.59,-65 1970.59,-85 2119.41,-85 2119.41,-65 1970.59,-65"/>
<text text-anchor="middle" x="2045" y="-71" font-family="Helvetica,sans-Serif" font-size="10.00">APMrover2/GCS_Mavlink.cpp</text>
</a>
</g>
</g>
<!-- Node191&#45;&gt;Node206 -->
<g id="edge18" class="edge"><title>Node191&#45;&gt;Node206</title>
<path fill="none" stroke="midnightblue" d="M2557.09,-134.134C2463.75,-127.87 2281.58,-113.945 2128,-92 2114.78,-90.1111 2100.47,-87.5433 2087.52,-85.018"/>
<polygon fill="midnightblue" stroke="midnightblue" points="2556.99,-137.636 2567.2,-134.807 2557.46,-130.651 2556.99,-137.636"/>
</g>
<!-- Node207 -->
<g id="node18" class="node"><title>Node207</title>
<g id="a_node18"><a xlink:href="GCS__Rover_8cpp.html" target="_top" xlink:title=" ">
<polygon fill="white" stroke="black" points="2137.47,-65 2137.47,-85 2278.53,-85 2278.53,-65 2137.47,-65"/>
<text text-anchor="middle" x="2208" y="-71" font-family="Helvetica,sans-Serif" font-size="10.00">APMrover2/GCS_Rover.cpp</text>
</a>
</g>
</g>
<!-- Node191&#45;&gt;Node207 -->
<g id="edge19" class="edge"><title>Node191&#45;&gt;Node207</title>
<path fill="none" stroke="midnightblue" d="M2556.93,-130.49C2490.29,-122.167 2381.39,-107.815 2288,-92 2275.85,-89.9427 2262.72,-87.4358 2250.68,-85.0225"/>
<polygon fill="midnightblue" stroke="midnightblue" points="2556.9,-134.013 2567.25,-131.774 2557.76,-127.067 2556.9,-134.013"/>
</g>
<!-- Node208 -->
<g id="node19" class="node"><title>Node208</title>
<g id="a_node19"><a xlink:href="Log_8cpp.html" target="_top" xlink:title=" ">
<polygon fill="white" stroke="black" points="2296.81,-65 2296.81,-85 2401.19,-85 2401.19,-65 2296.81,-65"/>
<text text-anchor="middle" x="2349" y="-71" font-family="Helvetica,sans-Serif" font-size="10.00">APMrover2/Log.cpp</text>
</a>
</g>
</g>
<!-- Node191&#45;&gt;Node208 -->
<g id="edge20" class="edge"><title>Node191&#45;&gt;Node208</title>
<path fill="none" stroke="midnightblue" d="M2565.85,-126.78C2523.75,-117.765 2463.5,-104.575 2411,-92 2401.92,-89.8248 2392.12,-87.3544 2383.06,-85.0168"/>
<polygon fill="midnightblue" stroke="midnightblue" points="2565.37,-130.256 2575.88,-128.922 2566.83,-123.41 2565.37,-130.256"/>
</g>
<!-- Node209 -->
<g id="node20" class="node"><title>Node209</title>
<g id="a_node20"><a xlink:href="mode_8cpp.html" target="_top" xlink:title=" ">
<polygon fill="white" stroke="black" points="2419.65,-65 2419.65,-85 2532.35,-85 2532.35,-65 2419.65,-65"/>
<text text-anchor="middle" x="2476" y="-71" font-family="Helvetica,sans-Serif" font-size="10.00">APMrover2/mode.cpp</text>
</a>
</g>
</g>
<!-- Node191&#45;&gt;Node209 -->
<g id="edge21" class="edge"><title>Node191&#45;&gt;Node209</title>
<path fill="none" stroke="midnightblue" d="M2589.01,-124.996C2561.37,-113.014 2521.08,-95.546 2496.82,-85.0262"/>
<polygon fill="midnightblue" stroke="midnightblue" points="2587.64,-128.218 2598.21,-128.985 2590.42,-121.796 2587.64,-128.218"/>
</g>
<!-- Node210 -->
<g id="node21" class="node"><title>Node210</title>
<g id="a_node21"><a xlink:href="mode__acro_8cpp.html" target="_top" xlink:title=" ">
<polygon fill="white" stroke="black" points="2550.14,-65 2550.14,-85 2687.86,-85 2687.86,-65 2550.14,-65"/>
<text text-anchor="middle" x="2619" y="-71" font-family="Helvetica,sans-Serif" font-size="10.00">APMrover2/mode_acro.cpp</text>
</a>
</g>
</g>
<!-- Node191&#45;&gt;Node210 -->
<g id="edge22" class="edge"><title>Node191&#45;&gt;Node210</title>
<path fill="none" stroke="midnightblue" d="M2619,-118.735C2619,-107.557 2619,-93.991 2619,-85.1858"/>
<polygon fill="midnightblue" stroke="midnightblue" points="2615.5,-118.852 2619,-128.852 2622.5,-118.852 2615.5,-118.852"/>
</g>
<!-- Node211 -->
<g id="node22" class="node"><title>Node211</title>
<g id="a_node22"><a xlink:href="mode__auto_8cpp.html" target="_top" xlink:title=" ">
<polygon fill="white" stroke="black" points="2706.13,-65 2706.13,-85 2843.87,-85 2843.87,-65 2706.13,-65"/>
<text text-anchor="middle" x="2775" y="-71" font-family="Helvetica,sans-Serif" font-size="10.00">APMrover2/mode_auto.cpp</text>
</a>
</g>
</g>
<!-- Node191&#45;&gt;Node211 -->
<g id="edge23" class="edge"><title>Node191&#45;&gt;Node211</title>
<path fill="none" stroke="midnightblue" d="M2651.33,-125.152C2681.48,-113.167 2725.7,-95.592 2752.29,-85.0262"/>
<polygon fill="midnightblue" stroke="midnightblue" points="2649.68,-122.039 2641.68,-128.985 2652.27,-128.544 2649.68,-122.039"/>
</g>
<!-- Node212 -->
<g id="node23" class="node"><title>Node212</title>
<g id="a_node23"><a xlink:href="mode__follow_8cpp.html" target="_top" xlink:title=" ">
<polygon fill="white" stroke="black" points="2862.35,-65 2862.35,-85 3005.65,-85 3005.65,-65 2862.35,-65"/>
<text text-anchor="middle" x="2934" y="-71" font-family="Helvetica,sans-Serif" font-size="10.00">APMrover2/mode_follow.cpp</text>
</a>
</g>
</g>
<!-- Node191&#45;&gt;Node212 -->
<g id="edge24" class="edge"><title>Node191&#45;&gt;Node212</title>
<path fill="none" stroke="midnightblue" d="M2674.98,-126.981C2735.75,-115.02 2831.66,-96.1432 2888.14,-85.0262"/>
<polygon fill="midnightblue" stroke="midnightblue" points="2673.94,-123.619 2664.8,-128.985 2675.29,-130.488 2673.94,-123.619"/>
</g>
<!-- Node213 -->
<g id="node24" class="node"><title>Node213</title>
<g id="a_node24"><a xlink:href="mode__guided_8cpp.html" target="_top" xlink:title=" ">
<polygon fill="white" stroke="black" points="3023.85,-65 3023.85,-85 3172.15,-85 3172.15,-65 3023.85,-65"/>
<text text-anchor="middle" x="3098" y="-71" font-family="Helvetica,sans-Serif" font-size="10.00">APMrover2/mode_guided.cpp</text>
</a>
</g>
</g>
<!-- Node191&#45;&gt;Node213 -->
<g id="edge25" class="edge"><title>Node191&#45;&gt;Node213</title>
<path fill="none" stroke="midnightblue" d="M2681.05,-132.174C2759,-124.535 2896.77,-109.967 3014,-92 3026.91,-90.0209 3040.87,-87.5118 3053.64,-85.0709"/>
<polygon fill="midnightblue" stroke="midnightblue" points="2680.53,-128.708 2670.92,-133.161 2681.21,-135.675 2680.53,-128.708"/>
</g>
<!-- Node214 -->
<g id="node25" class="node"><title>Node214</title>
<g id="a_node25"><a xlink:href="mode__hold_8cpp.html" target="_top" xlink:title=" ">
<polygon fill="white" stroke="black" points="3190.41,-65 3190.41,-85 3327.59,-85 3327.59,-65 3190.41,-65"/>
<text text-anchor="middle" x="3259" y="-71" font-family="Helvetica,sans-Serif" font-size="10.00">APMrover2/mode_hold.cpp</text>
</a>
</g>
</g>
<!-- Node191&#45;&gt;Node214 -->
<g id="edge26" class="edge"><title>Node191&#45;&gt;Node214</title>
<path fill="none" stroke="midnightblue" d="M2681.06,-135.371C2784.94,-130.423 3000.41,-117.817 3181,-92 3193.59,-90.2002 3207.2,-87.6276 3219.48,-85.0701"/>
<polygon fill="midnightblue" stroke="midnightblue" points="2680.58,-131.889 2670.76,-135.854 2680.91,-138.882 2680.58,-131.889"/>
</g>
<!-- Node215 -->
<g id="node26" class="node"><title>Node215</title>
<g id="a_node26"><a xlink:href="mode__loiter_8cpp.html" target="_top" xlink:title=" ">
<polygon fill="white" stroke="black" points="3345.3,-65 3345.3,-85 3484.7,-85 3484.7,-65 3345.3,-65"/>
<text text-anchor="middle" x="3415" y="-71" font-family="Helvetica,sans-Serif" font-size="10.00">APMrover2/mode_loiter.cpp</text>
</a>
</g>
</g>
<!-- Node191&#45;&gt;Node215 -->
<g id="edge27" class="edge"><title>Node191&#45;&gt;Node215</title>
<path fill="none" stroke="midnightblue" d="M2681.09,-136.85C2805.75,-133.917 3095.16,-123.964 3336,-92 3349.04,-90.2694 3363.15,-87.6524 3375.8,-85.0334"/>
<polygon fill="midnightblue" stroke="midnightblue" points="2680.89,-133.354 2670.97,-137.081 2681.05,-140.352 2680.89,-133.354"/>
</g>
<!-- Node216 -->
<g id="node27" class="node"><title>Node216</title>
<g id="a_node27"><a xlink:href="mode__manual_8cpp.html" target="_top" xlink:title=" ">
<polygon fill="white" stroke="black" points="3502.47,-65 3502.47,-85 3653.53,-85 3653.53,-65 3502.47,-65"/>
<text text-anchor="middle" x="3578" y="-71" font-family="Helvetica,sans-Serif" font-size="10.00">APMrover2/mode_manual.cpp</text>
</a>
</g>
</g>
<!-- Node191&#45;&gt;Node216 -->
<g id="edge28" class="edge"><title>Node191&#45;&gt;Node216</title>
<path fill="none" stroke="midnightblue" d="M2681.29,-137.57C2824.9,-135.958 3190.17,-128.306 3493,-92 3507.16,-90.3019 3522.52,-87.6607 3536.24,-85.0103"/>
<polygon fill="midnightblue" stroke="midnightblue" points="2680.89,-134.074 2670.92,-137.68 2680.96,-141.074 2680.89,-134.074"/>
</g>
<!-- Node217 -->
<g id="node28" class="node"><title>Node217</title>
<g id="a_node28"><a xlink:href="mode__rtl_8cpp.html" target="_top" xlink:title=" ">
<polygon fill="white" stroke="black" points="3671.7,-65 3671.7,-85 3798.3,-85 3798.3,-65 3671.7,-65"/>
<text text-anchor="middle" x="3735" y="-71" font-family="Helvetica,sans-Serif" font-size="10.00">APMrover2/mode_rtl.cpp</text>
</a>
</g>
</g>
<!-- Node191&#45;&gt;Node217 -->
<g id="edge29" class="edge"><title>Node191&#45;&gt;Node217</title>
<path fill="none" stroke="midnightblue" d="M2680.69,-136.671C2874.62,-132.273 3470.43,-117.03 3662,-92 3674.35,-90.3863 3687.7,-87.7329 3699.57,-85.0465"/>
<polygon fill="midnightblue" stroke="midnightblue" points="2680.59,-133.172 2670.67,-136.896 2680.74,-140.17 2680.59,-133.172"/>
</g>
<!-- Node218 -->
<g id="node29" class="node"><title>Node218</title>
<g id="a_node29"><a xlink:href="mode__simple_8cpp.html" target="_top" xlink:title=" ">
<polygon fill="white" stroke="black" points="3816.42,-65 3816.42,-85 3963.58,-85 3963.58,-65 3816.42,-65"/>
<text text-anchor="middle" x="3890" y="-71" font-family="Helvetica,sans-Serif" font-size="10.00">APMrover2/mode_simple.cpp</text>
</a>
</g>
</g>
<!-- Node191&#45;&gt;Node218 -->
<g id="edge30" class="edge"><title>Node191&#45;&gt;Node218</title>
<path fill="none" stroke="midnightblue" d="M2681.15,-136.84C2892.97,-132.691 3585.69,-117.466 3807,-92 3821,-90.3895 3836.17,-87.7369 3849.66,-85.0502"/>
<polygon fill="midnightblue" stroke="midnightblue" points="2680.77,-133.347 2670.84,-137.041 2680.91,-140.345 2680.77,-133.347"/>
</g>
<!-- Node219 -->
<g id="node30" class="node"><title>Node219</title>
<g id="a_node30"><a xlink:href="mode__smart__rtl_8cpp.html" target="_top" xlink:title=" ">
<polygon fill="white" stroke="black" points="3981.82,-59 3981.82,-91 4106.18,-91 4106.18,-59 3981.82,-59"/>
<text text-anchor="start" x="3989.82" y="-77" font-family="Helvetica,sans-Serif" font-size="10.00">APMrover2/mode_smart</text>
<text text-anchor="middle" x="4044" y="-65" font-family="Helvetica,sans-Serif" font-size="10.00">_rtl.cpp</text>
</a>
</g>
</g>
<!-- Node191&#45;&gt;Node219 -->
<g id="edge31" class="edge"><title>Node191&#45;&gt;Node219</title>
<path fill="none" stroke="midnightblue" d="M2681.14,-137.411C2911.61,-134.99 3717.25,-124.354 3972,-92 3975.18,-91.5967 3978.42,-91.1195 3981.68,-90.5868"/>
<polygon fill="midnightblue" stroke="midnightblue" points="2680.89,-133.913 2670.93,-137.517 2680.96,-140.913 2680.89,-133.913"/>
</g>
<!-- Node220 -->
<g id="node31" class="node"><title>Node220</title>
<g id="a_node31"><a xlink:href="mode__steering_8cpp.html" target="_top" xlink:title=" ">
<polygon fill="white" stroke="black" points="4124.08,-65 4124.08,-85 4277.92,-85 4277.92,-65 4124.08,-65"/>
<text text-anchor="middle" x="4201" y="-71" font-family="Helvetica,sans-Serif" font-size="10.00">APMrover2/mode_steering.cpp</text>
</a>
</g>
</g>
<!-- Node191&#45;&gt;Node220 -->
<g id="edge32" class="edge"><title>Node191&#45;&gt;Node220</title>
<path fill="none" stroke="midnightblue" d="M2681.03,-137.361C2926.48,-134.634 3830.22,-122.686 4115,-92 4129.65,-90.4218 4145.54,-87.7424 4159.63,-85.023"/>
<polygon fill="midnightblue" stroke="midnightblue" points="2680.83,-133.863 2670.87,-137.472 2680.9,-140.862 2680.83,-133.863"/>
</g>
<!-- Node221 -->
<g id="node32" class="node"><title>Node221</title>
<g id="a_node32"><a xlink:href="motor__test_8cpp.html" target="_top" xlink:title=" ">
<polygon fill="white" stroke="black" points="4295.53,-65 4295.53,-85 4430.47,-85 4430.47,-65 4295.53,-65"/>
<text text-anchor="middle" x="4363" y="-71" font-family="Helvetica,sans-Serif" font-size="10.00">APMrover2/motor_test.cpp</text>
</a>
</g>
</g>
<!-- Node191&#45;&gt;Node221 -->
<g id="edge33" class="edge"><title>Node191&#45;&gt;Node221</title>
<path fill="none" stroke="midnightblue" d="M2681.07,-137.76C2943.9,-136.518 3966.22,-129.337 4286,-92 4299.15,-90.4641 4313.4,-87.795 4326.01,-85.072"/>
<polygon fill="midnightblue" stroke="midnightblue" points="2680.93,-134.261 2670.95,-137.807 2680.97,-141.261 2680.93,-134.261"/>
</g>
<!-- Node222 -->
<g id="node33" class="node"><title>Node222</title>
<g id="a_node33"><a xlink:href="Parameters_8cpp.html" target="_top" xlink:title=" ">
<polygon fill="white" stroke="black" points="4448.31,-65 4448.31,-85 4587.69,-85 4587.69,-65 4448.31,-65"/>
<text text-anchor="middle" x="4518" y="-71" font-family="Helvetica,sans-Serif" font-size="10.00">APMrover2/Parameters.cpp</text>
</a>
</g>
</g>
<!-- Node191&#45;&gt;Node222 -->
<g id="edge34" class="edge"><title>Node191&#45;&gt;Node222</title>
<path fill="none" stroke="midnightblue" d="M2681.19,-137.886C2958.92,-137.152 4087.44,-131.736 4439,-92 4452.63,-90.4598 4467.4,-87.7541 4480.44,-85.0009"/>
<polygon fill="midnightblue" stroke="midnightblue" points="2680.9,-134.387 2670.9,-137.912 2680.91,-141.386 2680.9,-134.387"/>
</g>
<!-- Node223 -->
<g id="node34" class="node"><title>Node223</title>
<g id="a_node34"><a xlink:href="radio_8cpp.html" target="_top" xlink:title=" ">
<polygon fill="white" stroke="black" points="4606.03,-65 4606.03,-85 4715.97,-85 4715.97,-65 4606.03,-65"/>
<text text-anchor="middle" x="4661" y="-71" font-family="Helvetica,sans-Serif" font-size="10.00">APMrover2/radio.cpp</text>
</a>
</g>
</g>
<!-- Node191&#45;&gt;Node223 -->
<g id="edge35" class="edge"><title>Node191&#45;&gt;Node223</title>
<path fill="none" stroke="midnightblue" d="M2681.22,-137.36C2995.68,-134.016 4402.72,-117.723 4596,-92 4607.29,-90.4975 4619.46,-87.8006 4630.18,-85.044"/>
<polygon fill="midnightblue" stroke="midnightblue" points="2680.89,-133.863 2670.93,-137.469 2680.97,-140.863 2680.89,-133.863"/>
</g>
<!-- Node194 -->
<g id="node5" class="node"><title>Node194</title>
<g id="a_node5"><a xlink:href="RC__Channel_8cpp.html" target="_top" xlink:title=" ">
<polygon fill="white" stroke="black" points="2332.52,-1 2332.52,-21 2477.48,-21 2477.48,-1 2332.52,-1"/>
<text text-anchor="middle" x="2405" y="-7" font-family="Helvetica,sans-Serif" font-size="10.00">APMrover2/RC_Channel.cpp</text>
</a>
</g>
</g>
<!-- Node191&#45;&gt;Node194 -->
<g id="edge36" class="edge"><title>Node191&#45;&gt;Node194</title>
<path fill="none" stroke="midnightblue" d="M2680.86,-137.828C3024.77,-136.728 4687.33,-129.477 4724,-92 4734.57,-81.1987 4734.58,-68.7906 4724,-58 4683.72,-16.9118 2865.83,-12.5245 2477.5,-12.056"/>
<polygon fill="midnightblue" stroke="midnightblue" points="2680.82,-134.328 2670.83,-137.859 2680.84,-141.328 2680.82,-134.328"/>
</g>
<!-- Node224 -->
<g id="node35" class="node"><title>Node224</title>
<g id="a_node35"><a xlink:href="Rover_8cpp.html" target="_top" xlink:title=" ">
<polygon fill="white" stroke="black" points="4772.09,-65 4772.09,-85 4885.91,-85 4885.91,-65 4772.09,-65"/>
<text text-anchor="middle" x="4829" y="-71" font-family="Helvetica,sans-Serif" font-size="10.00">APMrover2/Rover.cpp</text>
</a>
</g>
</g>
<!-- Node191&#45;&gt;Node224 -->
<g id="edge37" class="edge"><title>Node191&#45;&gt;Node224</title>
<path fill="none" stroke="midnightblue" d="M2680.82,-138.34C2986.72,-139.765 4340.35,-143.027 4758,-92 4770.29,-90.4983 4783.58,-87.8016 4795.29,-85.0449"/>
<polygon fill="midnightblue" stroke="midnightblue" points="2680.82,-134.84 2670.81,-138.292 2680.79,-141.84 2680.82,-134.84"/>
</g>
<!-- Node225 -->
<g id="node36" class="node"><title>Node225</title>
<g id="a_node36"><a xlink:href="sailboat_8cpp.html" target="_top" xlink:title=" ">
<polygon fill="white" stroke="black" points="4903.92,-65 4903.92,-85 5026.08,-85 5026.08,-65 4903.92,-65"/>
<text text-anchor="middle" x="4965" y="-71" font-family="Helvetica,sans-Serif" font-size="10.00">APMrover2/sailboat.cpp</text>
</a>
</g>
</g>
<!-- Node191&#45;&gt;Node225 -->
<g id="edge38" class="edge"><title>Node191&#45;&gt;Node225</title>
<path fill="none" stroke="midnightblue" d="M2680.97,-137.493C3022.63,-134.597 4669.24,-119.314 4894,-92 4906.29,-90.5062 4919.58,-87.8113 4931.3,-85.0539"/>
<polygon fill="midnightblue" stroke="midnightblue" points="2680.74,-133.995 2670.77,-137.579 2680.8,-140.994 2680.74,-133.995"/>
</g>
<!-- Node226 -->
<g id="node37" class="node"><title>Node226</title>
<g id="a_node37"><a xlink:href="sensors_8cpp.html" target="_top" xlink:title=" ">
<polygon fill="white" stroke="black" points="5043.65,-65 5043.65,-85 5166.35,-85 5166.35,-65 5043.65,-65"/>
<text text-anchor="middle" x="5105" y="-71" font-family="Helvetica,sans-Serif" font-size="10.00">APMrover2/sensors.cpp</text>
</a>
</g>
</g>
<!-- Node191&#45;&gt;Node226 -->
<g id="edge39" class="edge"><title>Node191&#45;&gt;Node226</title>
<path fill="none" stroke="midnightblue" d="M2680.8,-137.584C3034.58,-135.1 4795.45,-121.34 5035,-92 5047.13,-90.5148 5060.23,-87.8219 5071.78,-85.0637"/>
<polygon fill="midnightblue" stroke="midnightblue" points="2680.72,-134.084 2670.75,-137.654 2680.77,-141.084 2680.72,-134.084"/>
</g>
<!-- Node227 -->
<g id="node38" class="node"><title>Node227</title>
<g id="a_node38"><a xlink:href="Steering_8cpp.html" target="_top" xlink:title=" ">
<polygon fill="white" stroke="black" points="5184.53,-65 5184.53,-85 5309.47,-85 5309.47,-65 5184.53,-65"/>
<text text-anchor="middle" x="5247" y="-71" font-family="Helvetica,sans-Serif" font-size="10.00">APMrover2/Steering.cpp</text>
</a>
</g>
</g>
<!-- Node191&#45;&gt;Node227 -->
<g id="edge40" class="edge"><title>Node191&#45;&gt;Node227</title>
<path fill="none" stroke="midnightblue" d="M2680.83,-137.631C3046.68,-135.346 4920.66,-122.238 5175,-92 5187.46,-90.5185 5200.93,-87.8266 5212.82,-85.068"/>
<polygon fill="midnightblue" stroke="midnightblue" points="2680.68,-134.131 2670.7,-137.694 2680.72,-141.131 2680.68,-134.131"/>
</g>
<!-- Node228 -->
<g id="node39" class="node"><title>Node228</title>
<g id="a_node39"><a xlink:href="system_8cpp.html" target="_top" xlink:title=" ">
<polygon fill="white" stroke="black" points="5327.32,-65 5327.32,-85 5446.68,-85 5446.68,-65 5327.32,-65"/>
<text text-anchor="middle" x="5387" y="-71" font-family="Helvetica,sans-Serif" font-size="10.00">APMrover2/system.cpp</text>
</a>
</g>
</g>
<!-- Node191&#45;&gt;Node228 -->
<g id="edge41" class="edge"><title>Node191&#45;&gt;Node228</title>
<path fill="none" stroke="midnightblue" d="M2680.94,-137.727C3059.02,-135.96 5048.78,-125.132 5318,-92 5329.96,-90.528 5342.88,-87.8383 5354.26,-85.0789"/>
<polygon fill="midnightblue" stroke="midnightblue" points="2680.73,-134.228 2670.74,-137.775 2680.76,-141.228 2680.73,-134.228"/>
</g>
<!-- Node193&#45;&gt;Node190 -->
<g id="edge4" class="edge"><title>Node193&#45;&gt;Node190</title>
<path fill="none" stroke="midnightblue" d="M114.662,-87.0464C124.328,-88.9636 134.456,-90.7422 144,-92 825.339,-181.787 1660.51,-194.077 1896.3,-195.743"/>
<polygon fill="midnightblue" stroke="midnightblue" points="115.3,-83.6045 104.8,-85.0144 113.888,-90.4605 115.3,-83.6045"/>
</g>
<!-- Node193&#45;&gt;Node191 -->
<g id="edge5" class="edge"><title>Node193&#45;&gt;Node191</title>
<path fill="none" stroke="midnightblue" d="M122.185,-87.0947C132.434,-89.0857 143.027,-90.8811 153,-92 400.841,-119.807 2234.11,-135.007 2567.19,-137.6"/>
<polygon fill="midnightblue" stroke="midnightblue" points="122.582,-83.6042 112.087,-85.0561 121.197,-90.4658 122.582,-83.6042"/>
</g>
<!-- Node193&#45;&gt;Node194 -->
<g id="edge6" class="edge"><title>Node193&#45;&gt;Node194</title>
<path fill="none" stroke="midnightblue" d="M113.4,-62.9187C123.435,-60.9268 134.028,-59.1277 144,-58 582.652,-8.39383 1995.29,-10.4431 2332.31,-11.6747"/>
<polygon fill="midnightblue" stroke="midnightblue" points="112.672,-59.4951 103.593,-64.9572 114.096,-66.3486 112.672,-59.4951"/>
</g>
</g>
</svg>
        <g id="navigator" transform="translate(0 0)" fill="#404254">
                <rect fill="#f2f5e9" fill-opacity="0.5" stroke="#606060" stroke-width=".5" x="0" y="0" width="60" height="60"/>
                <use id="zoomplus" xlink:href="#zoomPlus" x="17" y="9" onmousedown="handleZoom(evt,'in')"/>
                <use id="zoomminus" xlink:href="#zoomMin" x="42" y="9" onmousedown="handleZoom(evt,'out')"/>
                <use id="reset" xlink:href="#resetDef" x="30" y="36" onmousedown="handleReset()"/>
                <g id="arrowUp" xlink:href="#dirArrow" transform="translate(30 24)" onmousedown="handlePan(0,-1)">
                  <use xlink:href="#rim" fill="#404040">
                        <set attributeName="fill" to="#808080" begin="arrowUp.mouseover" end="arrowUp.mouseout"/>
                  </use>
                  <path fill="none" stroke="white" stroke-width="1.5" d="M0,-3.0v7 M-2.5,-0.5L0,-3.0L2.5,-0.5"/>
                </g>
                <g id="arrowRight" xlink:href="#dirArrow" transform="rotate(90) translate(36 -43)" onmousedown="handlePan(1,0)">
                  <use xlink:href="#rim" fill="#404040">
                        <set attributeName="fill" to="#808080" begin="arrowRight.mouseover" end="arrowRight.mouseout"/>
                  </use>
                  <path fill="none" stroke="white" stroke-width="1.5" d="M0,-3.0v7 M-2.5,-0.5L0,-3.0L2.5,-0.5"/>
                </g>
                <g id="arrowDown" xlink:href="#dirArrow" transform="rotate(180) translate(-30 -48)" onmousedown="handlePan(0,1)">
                  <use xlink:href="#rim" fill="#404040">
                        <set attributeName="fill" to="#808080" begin="arrowDown.mouseover" end="arrowDown.mouseout"/>
                  </use>
                  <path fill="none" stroke="white" stroke-width="1.5" d="M0,-3.0v7 M-2.5,-0.5L0,-3.0L2.5,-0.5"/>
                </g>
                <g id="arrowLeft" xlink:href="#dirArrow" transform="rotate(270) translate(-36 17)" onmousedown="handlePan(-1,0)">
                  <use xlink:href="#rim" fill="#404040">
                        <set attributeName="fill" to="#808080" begin="arrowLeft.mouseover" end="arrowLeft.mouseout"/>
                  </use>
                  <path fill="none" stroke="white" stroke-width="1.5" d="M0,-3.0v7 M-2.5,-0.5L0,-3.0L2.5,-0.5"/>
                </g>
        </g>
        <svg viewBox="0 0 15 15" width="100%" height="30px" preserveAspectRatio="xMaxYMin meet">
         <g id="arrow_out" transform="scale(0.3 0.3)">
          <a xlink:href="Parameters_8h__dep__incl_org.svg" target="_base">
           <rect id="button" ry="5" rx="5" y="6" x="6" height="38" width="38"
                fill="#f2f5e9" fill-opacity="0.5" stroke="#606060" stroke-width="1.0"/>
           <path id="arrow"
             d="M 11.500037,31.436501 C 11.940474,20.09759 22.043105,11.32322 32.158766,21.979434 L 37.068811,17.246167 C 37.068811,17.246167 37.088388,32 37.088388,32 L 22.160133,31.978069 C 22.160133,31.978069 26.997745,27.140456 26.997745,27.140456 C 18.528582,18.264221 13.291696,25.230495 11.500037,31.436501 z"
             style="fill:#404040;"/>
          </a>
         </g>
        </svg>
</svg>
