<?xml version="1.0" encoding="UTF-8" standalone="no"?>
<!DOCTYPE svg PUBLIC "-//W3C//DTD SVG 1.1//EN"
 "http://www.w3.org/Graphics/SVG/1.1/DTD/svg11.dtd">
<!-- Generated by graphviz version 2.30.1 (20130221.2233)
 -->
<!-- Title: libraries/AC_PrecLand/AC_PrecLand_Companion.h Pages: 1 -->
<svg width="298pt" height="112pt"
 viewBox="0.00 0.00 298.00 112.00" xmlns="http://www.w3.org/2000/svg" xmlns:xlink="http://www.w3.org/1999/xlink">
<g id="graph0" class="graph" transform="scale(1 1) rotate(0) translate(4 108)">
<title>libraries/AC_PrecLand/AC_PrecLand_Companion.h</title>
<polygon fill="white" stroke="white" points="-4,5 -4,-108 295,-108 295,5 -4,5"/>
<!-- Node138 -->
<g id="node1" class="node"><title>Node138</title>
<g id="a_node1"><a xlink:title=" ">
<polygon fill="#bfbfbf" stroke="black" points="61.9585,-71 61.9585,-103 208.042,-103 208.042,-71 61.9585,-71"/>
<text text-anchor="start" x="69.9585" y="-89" font-family="Helvetica,sans-Serif" font-size="10.00">libraries/AC_PrecLand</text>
<text text-anchor="middle" x="135" y="-77" font-family="Helvetica,sans-Serif" font-size="10.00">/AC_PrecLand_Companion.h</text>
</a>
</g>
</g>
<!-- Node139 -->
<g id="node2" class="node"><title>Node139</title>
<g id="a_node2"><a xlink:href="AC__PrecLand_8cpp.html" target="_top" xlink:title=" ">
<polygon fill="white" stroke="black" points="-0.0244141,-1 -0.0244141,-33 116.024,-33 116.024,-1 -0.0244141,-1"/>
<text text-anchor="start" x="7.97559" y="-19" font-family="Helvetica,sans-Serif" font-size="10.00">libraries/AC_PrecLand</text>
<text text-anchor="middle" x="58" y="-7" font-family="Helvetica,sans-Serif" font-size="10.00">/AC_PrecLand.cpp</text>
</a>
</g>
</g>
<!-- Node138&#45;&gt;Node139 -->
<g id="edge1" class="edge"><title>Node138&#45;&gt;Node139</title>
<path fill="none" stroke="midnightblue" d="M110.309,-64.195C98.8027,-54.0335 85.3994,-42.1968 75.041,-33.0492"/>
<polygon fill="midnightblue" stroke="midnightblue" points="108.099,-66.9126 117.911,-70.9086 112.732,-61.6657 108.099,-66.9126"/>
</g>
<!-- Node140 -->
<g id="node3" class="node"><title>Node140</title>
<g id="a_node3"><a xlink:href="AC__PrecLand__Companion_8cpp.html" target="_top" xlink:title=" ">
<polygon fill="white" stroke="black" points="133.678,-1 133.678,-33 290.322,-33 290.322,-1 133.678,-1"/>
<text text-anchor="start" x="141.678" y="-19" font-family="Helvetica,sans-Serif" font-size="10.00">libraries/AC_PrecLand</text>
<text text-anchor="middle" x="212" y="-7" font-family="Helvetica,sans-Serif" font-size="10.00">/AC_PrecLand_Companion.cpp</text>
</a>
</g>
</g>
<!-- Node138&#45;&gt;Node140 -->
<g id="edge2" class="edge"><title>Node138&#45;&gt;Node140</title>
<path fill="none" stroke="midnightblue" d="M159.691,-64.195C171.197,-54.0335 184.601,-42.1968 194.959,-33.0492"/>
<polygon fill="midnightblue" stroke="midnightblue" points="157.268,-61.6657 152.089,-70.9086 161.901,-66.9126 157.268,-61.6657"/>
</g>
</g>
</svg>
