<?xml version="1.0" encoding="UTF-8" standalone="no"?>
<!DOCTYPE svg PUBLIC "-//W3C//DTD SVG 1.1//EN"
 "http://www.w3.org/Graphics/SVG/1.1/DTD/svg11.dtd">
<!-- Generated by graphviz version 2.30.1 (20130221.2233)
 -->
<!-- Title: libraries/AP_WindVane/AP_WindVane_SITL.h Pages: 1 -->
<svg width="272pt" height="112pt"
 viewBox="0.00 0.00 272.00 112.00" xmlns="http://www.w3.org/2000/svg" xmlns:xlink="http://www.w3.org/1999/xlink">
<g id="graph0" class="graph" transform="scale(1 1) rotate(0) translate(4 108)">
<title>libraries/AP_WindVane/AP_WindVane_SITL.h</title>
<polygon fill="white" stroke="white" points="-4,5 -4,-108 269,-108 269,5 -4,5"/>
<!-- Node118 -->
<g id="node1" class="node"><title>Node118</title>
<g id="a_node1"><a xlink:title=" ">
<polygon fill="#bfbfbf" stroke="black" points="69.9502,-71 69.9502,-103 188.05,-103 188.05,-71 69.9502,-71"/>
<text text-anchor="start" x="77.9502" y="-89" font-family="Helvetica,sans-Serif" font-size="10.00">libraries/AP_WindVane</text>
<text text-anchor="middle" x="129" y="-77" font-family="Helvetica,sans-Serif" font-size="10.00">/AP_WindVane_SITL.h</text>
</a>
</g>
</g>
<!-- Node119 -->
<g id="node2" class="node"><title>Node119</title>
<g id="a_node2"><a xlink:href="AP__WindVane_8cpp.html" target="_top" xlink:title=" ">
<polygon fill="white" stroke="black" points="-0.0449219,-1 -0.0449219,-33 118.045,-33 118.045,-1 -0.0449219,-1"/>
<text text-anchor="start" x="7.95508" y="-19" font-family="Helvetica,sans-Serif" font-size="10.00">libraries/AP_WindVane</text>
<text text-anchor="middle" x="59" y="-7" font-family="Helvetica,sans-Serif" font-size="10.00">/AP_WindVane.cpp</text>
</a>
</g>
</g>
<!-- Node118&#45;&gt;Node119 -->
<g id="edge1" class="edge"><title>Node118&#45;&gt;Node119</title>
<path fill="none" stroke="midnightblue" d="M106.251,-63.9014C95.8593,-53.8062 83.818,-42.1089 74.4918,-33.0492"/>
<polygon fill="midnightblue" stroke="midnightblue" points="103.853,-66.4512 113.465,-70.9086 108.731,-61.4302 103.853,-66.4512"/>
</g>
<!-- Node120 -->
<g id="node3" class="node"><title>Node120</title>
<g id="a_node3"><a xlink:href="AP__WindVane__SITL_8cpp.html" target="_top" xlink:title=" ">
<polygon fill="white" stroke="black" points="135.669,-1 135.669,-33 264.331,-33 264.331,-1 135.669,-1"/>
<text text-anchor="start" x="143.669" y="-19" font-family="Helvetica,sans-Serif" font-size="10.00">libraries/AP_WindVane</text>
<text text-anchor="middle" x="200" y="-7" font-family="Helvetica,sans-Serif" font-size="10.00">/AP_WindVane_SITL.cpp</text>
</a>
</g>
</g>
<!-- Node118&#45;&gt;Node120 -->
<g id="edge2" class="edge"><title>Node118&#45;&gt;Node120</title>
<path fill="none" stroke="midnightblue" d="M152.074,-63.9014C162.614,-53.8062 174.827,-42.1089 184.287,-33.0492"/>
<polygon fill="midnightblue" stroke="midnightblue" points="149.558,-61.464 144.757,-70.9086 154.4,-66.5194 149.558,-61.464"/>
</g>
</g>
</svg>
