<?xml version="1.0" encoding="UTF-8" standalone="no"?>
<!DOCTYPE svg PUBLIC "-//W3C//DTD SVG 1.1//EN"
 "http://www.w3.org/Graphics/SVG/1.1/DTD/svg11.dtd">
<!-- Generated by graphviz version 2.30.1 (20130221.2233)
 -->
<!-- Title: libraries/AP_Math/AP_GeodesicGrid.h Pages: 1 -->
<svg width="571pt" height="112pt"
 viewBox="0.00 0.00 571.00 112.00" xmlns="http://www.w3.org/2000/svg" xmlns:xlink="http://www.w3.org/1999/xlink">
<g id="graph0" class="graph" transform="scale(1 1) rotate(0) translate(4 108)">
<title>libraries/AP_Math/AP_GeodesicGrid.h</title>
<polygon fill="white" stroke="white" points="-4,5 -4,-108 568,-108 568,5 -4,5"/>
<!-- Node52 -->
<g id="node1" class="node"><title>Node52</title>
<g id="a_node1"><a xlink:title=" ">
<polygon fill="#bfbfbf" stroke="black" points="215.48,-71 215.48,-103 326.52,-103 326.52,-71 215.48,-71"/>
<text text-anchor="start" x="223.48" y="-89" font-family="Helvetica,sans-Serif" font-size="10.00">libraries/AP_Math/AP</text>
<text text-anchor="middle" x="271" y="-77" font-family="Helvetica,sans-Serif" font-size="10.00">_GeodesicGrid.h</text>
</a>
</g>
</g>
<!-- Node53 -->
<g id="node2" class="node"><title>Node53</title>
<g id="a_node2"><a xlink:href="CompassCalibrator_8cpp.html" target="_top" xlink:title=" ">
<polygon fill="white" stroke="black" points="-0.359375,-1 -0.359375,-33 122.359,-33 122.359,-1 -0.359375,-1"/>
<text text-anchor="start" x="7.64062" y="-19" font-family="Helvetica,sans-Serif" font-size="10.00">libraries/AP_Compass</text>
<text text-anchor="middle" x="61" y="-7" font-family="Helvetica,sans-Serif" font-size="10.00">/CompassCalibrator.cpp</text>
</a>
</g>
</g>
<!-- Node52&#45;&gt;Node53 -->
<g id="edge1" class="edge"><title>Node52&#45;&gt;Node53</title>
<path fill="none" stroke="midnightblue" d="M214.991,-67.8636C181.447,-57.0017 139.304,-43.3557 107.59,-33.0861"/>
<polygon fill="midnightblue" stroke="midnightblue" points="214.063,-71.242 224.655,-70.9929 216.219,-64.5825 214.063,-71.242"/>
</g>
<!-- Node54 -->
<g id="node3" class="node"><title>Node54</title>
<g id="a_node3"><a xlink:href="AP__GeodesicGrid_8cpp.html" target="_top" xlink:title=" ">
<polygon fill="white" stroke="black" points="140.48,-1 140.48,-33 251.52,-33 251.52,-1 140.48,-1"/>
<text text-anchor="start" x="148.48" y="-19" font-family="Helvetica,sans-Serif" font-size="10.00">libraries/AP_Math/AP</text>
<text text-anchor="middle" x="196" y="-7" font-family="Helvetica,sans-Serif" font-size="10.00">_GeodesicGrid.cpp</text>
</a>
</g>
</g>
<!-- Node52&#45;&gt;Node54 -->
<g id="edge2" class="edge"><title>Node52&#45;&gt;Node54</title>
<path fill="none" stroke="midnightblue" d="M246.627,-63.9014C235.492,-53.8062 222.591,-42.1089 212.598,-33.0492"/>
<polygon fill="midnightblue" stroke="midnightblue" points="244.596,-66.7846 254.355,-70.9086 249.298,-61.5988 244.596,-66.7846"/>
</g>
<!-- Node55 -->
<g id="node4" class="node"><title>Node55</title>
<g id="a_node4"><a xlink:href="benchmark__geodesic__grid_8cpp.html" target="_top" xlink:title=" ">
<polygon fill="white" stroke="black" points="269.513,-1 269.513,-33 424.487,-33 424.487,-1 269.513,-1"/>
<text text-anchor="start" x="277.513" y="-19" font-family="Helvetica,sans-Serif" font-size="10.00">libraries/AP_Math/benchmarks</text>
<text text-anchor="middle" x="347" y="-7" font-family="Helvetica,sans-Serif" font-size="10.00">/benchmark_geodesic_grid.cpp</text>
</a>
</g>
</g>
<!-- Node52&#45;&gt;Node55 -->
<g id="edge3" class="edge"><title>Node52&#45;&gt;Node55</title>
<path fill="none" stroke="midnightblue" d="M295.37,-64.195C306.727,-54.0335 319.956,-42.1968 330.18,-33.0492"/>
<polygon fill="midnightblue" stroke="midnightblue" points="292.986,-61.6323 287.867,-70.9086 297.653,-66.849 292.986,-61.6323"/>
</g>
<!-- Node56 -->
<g id="node5" class="node"><title>Node56</title>
<g id="a_node5"><a xlink:href="test__geodesic__grid_8cpp.html" target="_top" xlink:title=" ">
<polygon fill="white" stroke="black" points="442.188,-1 442.188,-33 563.812,-33 563.812,-1 442.188,-1"/>
<text text-anchor="start" x="450.188" y="-19" font-family="Helvetica,sans-Serif" font-size="10.00">libraries/AP_Math/tests</text>
<text text-anchor="middle" x="503" y="-7" font-family="Helvetica,sans-Serif" font-size="10.00">/test_geodesic_grid.cpp</text>
</a>
</g>
</g>
<!-- Node52&#45;&gt;Node56 -->
<g id="edge4" class="edge"><title>Node52&#45;&gt;Node56</title>
<path fill="none" stroke="midnightblue" d="M331.925,-68.1427C369.135,-57.2363 416.192,-43.4439 451.53,-33.0861"/>
<polygon fill="midnightblue" stroke="midnightblue" points="330.812,-64.8215 322.201,-70.9929 332.781,-71.5389 330.812,-64.8215"/>
</g>
</g>
</svg>
