<?xml version="1.0" encoding="UTF-8" standalone="no"?>
<!DOCTYPE svg PUBLIC "-//W3C//DTD SVG 1.1//EN"
 "http://www.w3.org/Graphics/SVG/1.1/DTD/svg11.dtd">
<!-- Generated by graphviz version 2.30.1 (20130221.2233)
 -->
<!-- Title: libraries/AC_Avoidance/AP_OABendyRuler.h Pages: 1 -->
<svg width="345pt" height="252pt"
 viewBox="0.00 0.00 345.00 252.00" xmlns="http://www.w3.org/2000/svg" xmlns:xlink="http://www.w3.org/1999/xlink">
<g id="graph0" class="graph" transform="scale(1 1) rotate(0) translate(4 248)">
<title>libraries/AC_Avoidance/AP_OABendyRuler.h</title>
<polygon fill="white" stroke="white" points="-4,5 -4,-248 342,-248 342,5 -4,5"/>
<!-- Node62 -->
<g id="node1" class="node"><title>Node62</title>
<g id="a_node1"><a xlink:title=" ">
<polygon fill="#bfbfbf" stroke="black" points="90.1177,-211 90.1177,-243 209.882,-243 209.882,-211 90.1177,-211"/>
<text text-anchor="start" x="98.1177" y="-229" font-family="Helvetica,sans-Serif" font-size="10.00">libraries/AC_Avoidance</text>
<text text-anchor="middle" x="150" y="-217" font-family="Helvetica,sans-Serif" font-size="10.00">/AP_OABendyRuler.h</text>
</a>
</g>
</g>
<!-- Node63 -->
<g id="node2" class="node"><title>Node63</title>
<g id="a_node2"><a xlink:href="AP__OABendyRuler_8cpp.html" target="_top" xlink:title=" ">
<polygon fill="white" stroke="black" points="-0.366699,-141 -0.366699,-173 122.367,-173 122.367,-141 -0.366699,-141"/>
<text text-anchor="start" x="7.6333" y="-159" font-family="Helvetica,sans-Serif" font-size="10.00">libraries/AC_Avoidance</text>
<text text-anchor="middle" x="61" y="-147" font-family="Helvetica,sans-Serif" font-size="10.00">/AP_OABendyRuler.cpp</text>
</a>
</g>
</g>
<!-- Node62&#45;&gt;Node63 -->
<g id="edge1" class="edge"><title>Node62&#45;&gt;Node63</title>
<path fill="none" stroke="midnightblue" d="M122.226,-204.779C108.759,-194.49 92.8996,-182.373 80.6968,-173.049"/>
<polygon fill="midnightblue" stroke="midnightblue" points="120.177,-207.619 130.248,-210.909 124.427,-202.056 120.177,-207.619"/>
</g>
<!-- Node64 -->
<g id="node3" class="node"><title>Node64</title>
<g id="a_node3"><a xlink:href="AP__OAPathPlanner_8h.html" target="_top" xlink:title=" ">
<polygon fill="white" stroke="black" points="178.118,-141 178.118,-173 297.882,-173 297.882,-141 178.118,-141"/>
<text text-anchor="start" x="186.118" y="-159" font-family="Helvetica,sans-Serif" font-size="10.00">libraries/AC_Avoidance</text>
<text text-anchor="middle" x="238" y="-147" font-family="Helvetica,sans-Serif" font-size="10.00">/AP_OAPathPlanner.h</text>
</a>
</g>
</g>
<!-- Node62&#45;&gt;Node64 -->
<g id="edge2" class="edge"><title>Node62&#45;&gt;Node64</title>
<path fill="none" stroke="midnightblue" d="M177.462,-204.779C190.778,-194.49 206.459,-182.373 218.525,-173.049"/>
<polygon fill="midnightblue" stroke="midnightblue" points="175.303,-202.025 169.53,-210.909 179.583,-207.564 175.303,-202.025"/>
</g>
<!-- Node65 -->
<g id="node4" class="node"><title>Node65</title>
<g id="a_node4"><a xlink:href="AP__OAPathPlanner_8cpp.html" target="_top" xlink:title=" ">
<polygon fill="white" stroke="black" points="87.2393,-71 87.2393,-103 212.761,-103 212.761,-71 87.2393,-71"/>
<text text-anchor="start" x="95.2393" y="-89" font-family="Helvetica,sans-Serif" font-size="10.00">libraries/AC_Avoidance</text>
<text text-anchor="middle" x="150" y="-77" font-family="Helvetica,sans-Serif" font-size="10.00">/AP_OAPathPlanner.cpp</text>
</a>
</g>
</g>
<!-- Node62&#45;&gt;Node65 -->
<g id="edge6" class="edge"><title>Node62&#45;&gt;Node65</title>
<path fill="none" stroke="midnightblue" d="M150,-200.939C150,-172.354 150,-126.539 150,-103.013"/>
<polygon fill="midnightblue" stroke="midnightblue" points="146.5,-200.969 150,-210.969 153.5,-200.969 146.5,-200.969"/>
</g>
<!-- Node64&#45;&gt;Node65 -->
<g id="edge3" class="edge"><title>Node64&#45;&gt;Node65</title>
<path fill="none" stroke="midnightblue" d="M210.538,-134.779C197.222,-124.49 181.541,-112.373 169.475,-103.049"/>
<polygon fill="midnightblue" stroke="midnightblue" points="208.417,-137.564 218.47,-140.909 212.697,-132.025 208.417,-137.564"/>
</g>
<!-- Node66 -->
<g id="node5" class="node"><title>Node66</title>
<g id="a_node5"><a xlink:href="AR__WPNav_8h.html" target="_top" xlink:title=" ">
<polygon fill="white" stroke="black" points="230.434,-71 230.434,-103 337.566,-103 337.566,-71 230.434,-71"/>
<text text-anchor="start" x="238.434" y="-89" font-family="Helvetica,sans-Serif" font-size="10.00">libraries/AR_WPNav</text>
<text text-anchor="middle" x="284" y="-77" font-family="Helvetica,sans-Serif" font-size="10.00">/AR_WPNav.h</text>
</a>
</g>
</g>
<!-- Node64&#45;&gt;Node66 -->
<g id="edge4" class="edge"><title>Node64&#45;&gt;Node66</title>
<path fill="none" stroke="midnightblue" d="M253.951,-132.42C260.542,-122.677 267.989,-111.669 273.82,-103.049"/>
<polygon fill="midnightblue" stroke="midnightblue" points="250.913,-130.665 248.209,-140.909 256.711,-134.587 250.913,-130.665"/>
</g>
<!-- Node67 -->
<g id="node6" class="node"><title>Node67</title>
<g id="a_node6"><a xlink:href="AR__WPNav_8cpp.html" target="_top" xlink:title=" ">
<polygon fill="white" stroke="black" points="230.434,-1 230.434,-33 337.566,-33 337.566,-1 230.434,-1"/>
<text text-anchor="start" x="238.434" y="-19" font-family="Helvetica,sans-Serif" font-size="10.00">libraries/AR_WPNav</text>
<text text-anchor="middle" x="284" y="-7" font-family="Helvetica,sans-Serif" font-size="10.00">/AR_WPNav.cpp</text>
</a>
</g>
</g>
<!-- Node66&#45;&gt;Node67 -->
<g id="edge5" class="edge"><title>Node66&#45;&gt;Node67</title>
<path fill="none" stroke="midnightblue" d="M284,-60.6174C284,-51.3378 284,-41.1413 284,-33.0492"/>
<polygon fill="midnightblue" stroke="midnightblue" points="280.5,-60.9086 284,-70.9086 287.5,-60.9086 280.5,-60.9086"/>
</g>
</g>
</svg>
