<?xml version="1.0" encoding="UTF-8" standalone="no"?>
<!DOCTYPE svg PUBLIC "-//W3C//DTD SVG 1.1//EN"
 "http://www.w3.org/Graphics/SVG/1.1/DTD/svg11.dtd">
<!-- Generated by graphviz version 2.30.1 (20130221.2233)
 -->
<!-- Title: libraries/AP_UAVCAN/AP_UAVCAN_Servers.h Pages: 1 -->
<svg width="708pt" height="182pt"
 viewBox="0.00 0.00 708.00 182.00" xmlns="http://www.w3.org/2000/svg" xmlns:xlink="http://www.w3.org/1999/xlink">
<g id="graph0" class="graph" transform="scale(1 1) rotate(0) translate(4 178)">
<title>libraries/AP_UAVCAN/AP_UAVCAN_Servers.h</title>
<polygon fill="white" stroke="white" points="-4,5 -4,-178 705,-178 705,5 -4,5"/>
<!-- Node32 -->
<g id="node1" class="node"><title>Node32</title>
<g id="a_node1"><a xlink:title=" ">
<polygon fill="#bfbfbf" stroke="black" points="285.514,-141 285.514,-173 412.486,-173 412.486,-141 285.514,-141"/>
<text text-anchor="start" x="293.514" y="-159" font-family="Helvetica,sans-Serif" font-size="10.00">libraries/AP_UAVCAN</text>
<text text-anchor="middle" x="349" y="-147" font-family="Helvetica,sans-Serif" font-size="10.00">/AP_UAVCAN_Servers.h</text>
</a>
</g>
</g>
<!-- Node33 -->
<g id="node2" class="node"><title>Node33</title>
<g id="a_node2"><a xlink:href="AP__UAVCAN_8h.html" target="_top" xlink:title=" ">
<polygon fill="white" stroke="black" points="292.187,-71 292.187,-103 405.813,-103 405.813,-71 292.187,-71"/>
<text text-anchor="start" x="300.187" y="-89" font-family="Helvetica,sans-Serif" font-size="10.00">libraries/AP_UAVCAN</text>
<text text-anchor="middle" x="349" y="-77" font-family="Helvetica,sans-Serif" font-size="10.00">/AP_UAVCAN.h</text>
</a>
</g>
</g>
<!-- Node32&#45;&gt;Node33 -->
<g id="edge1" class="edge"><title>Node32&#45;&gt;Node33</title>
<path fill="none" stroke="midnightblue" d="M349,-130.617C349,-121.338 349,-111.141 349,-103.049"/>
<polygon fill="midnightblue" stroke="midnightblue" points="345.5,-130.909 349,-140.909 352.5,-130.909 345.5,-130.909"/>
</g>
<!-- Node34 -->
<g id="node3" class="node"><title>Node34</title>
<g id="a_node3"><a xlink:href="AP__Airspeed__UAVCAN_8h.html" target="_top" xlink:title=" ">
<polygon fill="white" stroke="black" points="-0.993164,-1 -0.993164,-33 130.993,-33 130.993,-1 -0.993164,-1"/>
<text text-anchor="start" x="7.00684" y="-19" font-family="Helvetica,sans-Serif" font-size="10.00">libraries/AP_Airspeed</text>
<text text-anchor="middle" x="65" y="-7" font-family="Helvetica,sans-Serif" font-size="10.00">/AP_Airspeed_UAVCAN.h</text>
</a>
</g>
</g>
<!-- Node33&#45;&gt;Node34 -->
<g id="edge2" class="edge"><title>Node33&#45;&gt;Node34</title>
<path fill="none" stroke="midnightblue" d="M281.852,-69.9223C235.176,-58.7463 173.391,-43.9528 127.714,-33.016"/>
<polygon fill="midnightblue" stroke="midnightblue" points="281.33,-73.3962 291.87,-72.321 282.96,-66.5886 281.33,-73.3962"/>
</g>
<!-- Node35 -->
<g id="node4" class="node"><title>Node35</title>
<g id="a_node4"><a xlink:href="AP__Baro__UAVCAN_8h.html" target="_top" xlink:title=" ">
<polygon fill="white" stroke="black" points="149.035,-1 149.035,-33 258.965,-33 258.965,-1 149.035,-1"/>
<text text-anchor="start" x="157.035" y="-19" font-family="Helvetica,sans-Serif" font-size="10.00">libraries/AP_Baro/AP</text>
<text text-anchor="middle" x="204" y="-7" font-family="Helvetica,sans-Serif" font-size="10.00">_Baro_UAVCAN.h</text>
</a>
</g>
</g>
<!-- Node33&#45;&gt;Node35 -->
<g id="edge3" class="edge"><title>Node33&#45;&gt;Node35</title>
<path fill="none" stroke="midnightblue" d="M307.74,-66.6506C285,-55.9863 257.19,-42.9445 236.09,-33.0492"/>
<polygon fill="midnightblue" stroke="midnightblue" points="306.28,-69.8314 316.82,-70.9086 309.252,-63.4938 306.28,-69.8314"/>
</g>
<!-- Node36 -->
<g id="node5" class="node"><title>Node36</title>
<g id="a_node5"><a xlink:href="AP__BattMonitor__UAVCAN_8h.html" target="_top" xlink:title=" ">
<polygon fill="white" stroke="black" points="277.174,-1 277.174,-33 420.826,-33 420.826,-1 277.174,-1"/>
<text text-anchor="start" x="285.174" y="-19" font-family="Helvetica,sans-Serif" font-size="10.00">libraries/AP_BattMonitor</text>
<text text-anchor="middle" x="349" y="-7" font-family="Helvetica,sans-Serif" font-size="10.00">/AP_BattMonitor_UAVCAN.h</text>
</a>
</g>
</g>
<!-- Node33&#45;&gt;Node36 -->
<g id="edge4" class="edge"><title>Node33&#45;&gt;Node36</title>
<path fill="none" stroke="midnightblue" d="M349,-60.6174C349,-51.3378 349,-41.1413 349,-33.0492"/>
<polygon fill="midnightblue" stroke="midnightblue" points="345.5,-60.9086 349,-70.9086 352.5,-60.9086 345.5,-60.9086"/>
</g>
<!-- Node37 -->
<g id="node6" class="node"><title>Node37</title>
<g id="a_node6"><a xlink:href="AP__Compass__UAVCAN_8h.html" target="_top" xlink:title=" ">
<polygon fill="white" stroke="black" points="438.623,-1 438.623,-33 573.377,-33 573.377,-1 438.623,-1"/>
<text text-anchor="start" x="446.623" y="-19" font-family="Helvetica,sans-Serif" font-size="10.00">libraries/AP_Compass</text>
<text text-anchor="middle" x="506" y="-7" font-family="Helvetica,sans-Serif" font-size="10.00">/AP_Compass_UAVCAN.h</text>
</a>
</g>
</g>
<!-- Node33&#45;&gt;Node37 -->
<g id="edge5" class="edge"><title>Node33&#45;&gt;Node37</title>
<path fill="none" stroke="midnightblue" d="M393.346,-66.7926C418.028,-56.1023 448.306,-42.9885 471.254,-33.0492"/>
<polygon fill="midnightblue" stroke="midnightblue" points="391.629,-63.7224 383.843,-70.9086 394.411,-70.1458 391.629,-63.7224"/>
</g>
<!-- Node38 -->
<g id="node7" class="node"><title>Node38</title>
<g id="a_node7"><a xlink:href="AP__GPS__UAVCAN_8h.html" target="_top" xlink:title=" ">
<polygon fill="white" stroke="black" points="591.037,-1 591.037,-33 700.963,-33 700.963,-1 591.037,-1"/>
<text text-anchor="start" x="599.037" y="-19" font-family="Helvetica,sans-Serif" font-size="10.00">libraries/AP_GPS/AP</text>
<text text-anchor="middle" x="646" y="-7" font-family="Helvetica,sans-Serif" font-size="10.00">_GPS_UAVCAN.h</text>
</a>
</g>
</g>
<!-- Node33&#45;&gt;Node38 -->
<g id="edge6" class="edge"><title>Node33&#45;&gt;Node38</title>
<path fill="none" stroke="midnightblue" d="M416.045,-71.5099C462.661,-61.3194 526.199,-47.1996 582,-34 584.898,-33.3145 587.867,-32.6032 590.864,-31.8785"/>
<polygon fill="midnightblue" stroke="midnightblue" points="415.091,-68.1357 406.067,-73.6876 416.584,-74.9747 415.091,-68.1357"/>
</g>
</g>
</svg>
