<?xml version="1.0" encoding="UTF-8" standalone="no"?>
<!DOCTYPE svg PUBLIC "-//W3C//DTD SVG 1.1//EN"
 "http://www.w3.org/Graphics/SVG/1.1/DTD/svg11.dtd">
<!-- Generated by graphviz version 2.30.1 (20130221.2233)
 -->
<!-- Title: libraries/AP_RangeFinder/AP_RangeFinder_PulsedLightLRF.h Pages: 1 -->
<svg width="345pt" height="112pt"
 viewBox="0.00 0.00 345.00 112.00" xmlns="http://www.w3.org/2000/svg" xmlns:xlink="http://www.w3.org/1999/xlink">
<g id="graph0" class="graph" transform="scale(1 1) rotate(0) translate(4 108)">
<title>libraries/AP_RangeFinder/AP_RangeFinder_PulsedLightLRF.h</title>
<polygon fill="white" stroke="white" points="-4,5 -4,-108 342,-108 342,5 -4,5"/>
<!-- Node62 -->
<g id="node1" class="node"><title>Node62</title>
<g id="a_node1"><a xlink:title=" ">
<polygon fill="#bfbfbf" stroke="black" points="93.2812,-71 93.2812,-103 272.719,-103 272.719,-71 93.2812,-71"/>
<text text-anchor="start" x="101.281" y="-89" font-family="Helvetica,sans-Serif" font-size="10.00">libraries/AP_RangeFinder</text>
<text text-anchor="middle" x="183" y="-77" font-family="Helvetica,sans-Serif" font-size="10.00">/AP_RangeFinder_PulsedLightLRF.h</text>
</a>
</g>
</g>
<!-- Node63 -->
<g id="node2" class="node"><title>Node63</title>
<g id="a_node2"><a xlink:href="AP__RangeFinder__PulsedLightLRF_8cpp.html" target="_top" xlink:title=" ">
<polygon fill="white" stroke="black" points="-0.999512,-1 -0.999512,-33 189,-33 189,-1 -0.999512,-1"/>
<text text-anchor="start" x="7.00049" y="-19" font-family="Helvetica,sans-Serif" font-size="10.00">libraries/AP_RangeFinder</text>
<text text-anchor="middle" x="94" y="-7" font-family="Helvetica,sans-Serif" font-size="10.00">/AP_RangeFinder_PulsedLightLRF.cpp</text>
</a>
</g>
</g>
<!-- Node62&#45;&gt;Node63 -->
<g id="edge1" class="edge"><title>Node62&#45;&gt;Node63</title>
<path fill="none" stroke="midnightblue" d="M155.226,-64.7794C141.759,-54.4898 125.9,-42.3727 113.697,-33.0492"/>
<polygon fill="midnightblue" stroke="midnightblue" points="153.177,-67.6185 163.248,-70.9086 157.427,-62.0562 153.177,-67.6185"/>
</g>
<!-- Node64 -->
<g id="node3" class="node"><title>Node64</title>
<g id="a_node3"><a xlink:href="RangeFinder_8cpp.html" target="_top" xlink:title=" ">
<polygon fill="white" stroke="black" points="206.749,-1 206.749,-33 337.251,-33 337.251,-1 206.749,-1"/>
<text text-anchor="start" x="214.749" y="-19" font-family="Helvetica,sans-Serif" font-size="10.00">libraries/AP_RangeFinder</text>
<text text-anchor="middle" x="272" y="-7" font-family="Helvetica,sans-Serif" font-size="10.00">/RangeFinder.cpp</text>
</a>
</g>
</g>
<!-- Node62&#45;&gt;Node64 -->
<g id="edge2" class="edge"><title>Node62&#45;&gt;Node64</title>
<path fill="none" stroke="midnightblue" d="M210.774,-64.7794C224.241,-54.4898 240.1,-42.3727 252.303,-33.0492"/>
<polygon fill="midnightblue" stroke="midnightblue" points="208.573,-62.0562 202.752,-70.9086 212.823,-67.6185 208.573,-62.0562"/>
</g>
</g>
</svg>
