<?xml version="1.0" encoding="UTF-8" standalone="no"?>
<!DOCTYPE svg PUBLIC "-//W3C//DTD SVG 1.1//EN"
 "http://www.w3.org/Graphics/SVG/1.1/DTD/svg11.dtd">
<!-- Generated by graphviz version 2.30.1 (20130221.2233)
 -->
<!-- Title: libraries/AP_IRLock/AP_IRLock_SITL_Gazebo.h Pages: 1 -->
<svg width="518pt" height="182pt"
 viewBox="0.00 0.00 518.00 182.00" xmlns="http://www.w3.org/2000/svg" xmlns:xlink="http://www.w3.org/1999/xlink">
<g id="graph0" class="graph" transform="scale(1 1) rotate(0) translate(4 178)">
<title>libraries/AP_IRLock/AP_IRLock_SITL_Gazebo.h</title>
<polygon fill="white" stroke="white" points="-4,5 -4,-178 515,-178 515,5 -4,5"/>
<!-- Node54 -->
<g id="node1" class="node"><title>Node54</title>
<g id="a_node1"><a xlink:title=" ">
<polygon fill="#bfbfbf" stroke="black" points="213.796,-141 213.796,-173 358.204,-173 358.204,-141 213.796,-141"/>
<text text-anchor="start" x="221.796" y="-159" font-family="Helvetica,sans-Serif" font-size="10.00">libraries/AP_IRLock</text>
<text text-anchor="middle" x="286" y="-147" font-family="Helvetica,sans-Serif" font-size="10.00">/AP_IRLock_SITL_Gazebo.h</text>
</a>
</g>
</g>
<!-- Node55 -->
<g id="node2" class="node"><title>Node55</title>
<g id="a_node2"><a xlink:href="AC__PrecLand__SITL__Gazebo_8h.html" target="_top" xlink:title=" ">
<polygon fill="white" stroke="black" points="59.6777,-71 59.6777,-103 216.322,-103 216.322,-71 59.6777,-71"/>
<text text-anchor="start" x="67.6777" y="-89" font-family="Helvetica,sans-Serif" font-size="10.00">libraries/AC_PrecLand</text>
<text text-anchor="middle" x="138" y="-77" font-family="Helvetica,sans-Serif" font-size="10.00">/AC_PrecLand_SITL_Gazebo.h</text>
</a>
</g>
</g>
<!-- Node54&#45;&gt;Node55 -->
<g id="edge1" class="edge"><title>Node54&#45;&gt;Node55</title>
<path fill="none" stroke="midnightblue" d="M243.887,-136.651C220.676,-125.986 192.291,-112.944 170.754,-103.049"/>
<polygon fill="midnightblue" stroke="midnightblue" points="242.606,-139.914 253.154,-140.909 245.528,-133.553 242.606,-139.914"/>
</g>
<!-- Node58 -->
<g id="node5" class="node"><title>Node58</title>
<g id="a_node5"><a xlink:href="AP__IRLock_8h.html" target="_top" xlink:title=" ">
<polygon fill="white" stroke="black" points="234.094,-71 234.094,-103 337.906,-103 337.906,-71 234.094,-71"/>
<text text-anchor="start" x="242.094" y="-89" font-family="Helvetica,sans-Serif" font-size="10.00">libraries/AP_IRLock</text>
<text text-anchor="middle" x="286" y="-77" font-family="Helvetica,sans-Serif" font-size="10.00">/AP_IRLock.h</text>
</a>
</g>
</g>
<!-- Node54&#45;&gt;Node58 -->
<g id="edge4" class="edge"><title>Node54&#45;&gt;Node58</title>
<path fill="none" stroke="midnightblue" d="M286,-130.617C286,-121.338 286,-111.141 286,-103.049"/>
<polygon fill="midnightblue" stroke="midnightblue" points="282.5,-130.909 286,-140.909 289.5,-130.909 282.5,-130.909"/>
</g>
<!-- Node59 -->
<g id="node6" class="node"><title>Node59</title>
<g id="a_node6"><a xlink:href="AP__IRLock__SITL__Gazebo_8cpp.html" target="_top" xlink:title=" ">
<polygon fill="white" stroke="black" points="355.515,-71 355.515,-103 510.485,-103 510.485,-71 355.515,-71"/>
<text text-anchor="start" x="363.515" y="-89" font-family="Helvetica,sans-Serif" font-size="10.00">libraries/AP_IRLock</text>
<text text-anchor="middle" x="433" y="-77" font-family="Helvetica,sans-Serif" font-size="10.00">/AP_IRLock_SITL_Gazebo.cpp</text>
</a>
</g>
</g>
<!-- Node54&#45;&gt;Node59 -->
<g id="edge5" class="edge"><title>Node54&#45;&gt;Node59</title>
<path fill="none" stroke="midnightblue" d="M327.829,-136.651C350.882,-125.986 379.076,-112.944 400.467,-103.049"/>
<polygon fill="midnightblue" stroke="midnightblue" points="326.231,-133.534 318.624,-140.909 329.17,-139.887 326.231,-133.534"/>
</g>
<!-- Node56 -->
<g id="node3" class="node"><title>Node56</title>
<g id="a_node3"><a xlink:href="AC__PrecLand_8cpp.html" target="_top" xlink:title=" ">
<polygon fill="white" stroke="black" points="-0.0244141,-1 -0.0244141,-33 116.024,-33 116.024,-1 -0.0244141,-1"/>
<text text-anchor="start" x="7.97559" y="-19" font-family="Helvetica,sans-Serif" font-size="10.00">libraries/AC_PrecLand</text>
<text text-anchor="middle" x="58" y="-7" font-family="Helvetica,sans-Serif" font-size="10.00">/AC_PrecLand.cpp</text>
</a>
</g>
</g>
<!-- Node55&#45;&gt;Node56 -->
<g id="edge2" class="edge"><title>Node55&#45;&gt;Node56</title>
<path fill="none" stroke="midnightblue" d="M112.347,-64.195C100.392,-54.0335 86.4669,-42.1968 75.705,-33.0492"/>
<polygon fill="midnightblue" stroke="midnightblue" points="110.359,-67.0989 120.245,-70.9086 114.893,-61.7653 110.359,-67.0989"/>
</g>
<!-- Node57 -->
<g id="node4" class="node"><title>Node57</title>
<g id="a_node4"><a xlink:href="AC__PrecLand__SITL__Gazebo_8cpp.html" target="_top" xlink:title=" ">
<polygon fill="white" stroke="black" points="134.397,-1 134.397,-33 301.603,-33 301.603,-1 134.397,-1"/>
<text text-anchor="start" x="142.397" y="-19" font-family="Helvetica,sans-Serif" font-size="10.00">libraries/AC_PrecLand</text>
<text text-anchor="middle" x="218" y="-7" font-family="Helvetica,sans-Serif" font-size="10.00">/AC_PrecLand_SITL_Gazebo.cpp</text>
</a>
</g>
</g>
<!-- Node55&#45;&gt;Node57 -->
<g id="edge3" class="edge"><title>Node55&#45;&gt;Node57</title>
<path fill="none" stroke="midnightblue" d="M163.653,-64.195C175.608,-54.0335 189.533,-42.1968 200.295,-33.0492"/>
<polygon fill="midnightblue" stroke="midnightblue" points="161.107,-61.7653 155.755,-70.9086 165.641,-67.0989 161.107,-61.7653"/>
</g>
</g>
</svg>
