<?xml version="1.0" encoding="UTF-8" standalone="no"?>
<!DOCTYPE svg PUBLIC "-//W3C//DTD SVG 1.1//EN"
 "http://www.w3.org/Graphics/SVG/1.1/DTD/svg11.dtd">
<!-- Generated by graphviz version 2.30.1 (20130221.2233)
 -->
<!-- Title: constrain_value Pages: 1 -->
<!--zoomable 95 -->
<svg id="main" version="1.1" xmlns="http://www.w3.org/2000/svg" xmlns:xlink="http://www.w3.org/1999/xlink" xml:space="preserve" onload="init(evt)">
<style type="text/css"><![CDATA[
.edge:hover path { stroke: red; }
.edge:hover polygon { stroke: red; fill: red; }
]]></style>
<script type="text/javascript"><![CDATA[
var edges = document.getElementsByTagName('g');
if (edges && edges.length) {
  for (var i=0;i<edges.length;i++) {
    if (edges[i].id.substr(0,4)=='edge') {
      edges[i].setAttribute('class','edge');
    }
  }
}
]]></script>
        <defs>
                <circle id="rim" cx="0" cy="0" r="7"/>
                <circle id="rim2" cx="0" cy="0" r="3.5"/>
                <g id="zoomPlus">
                        <use xlink:href="#rim" fill="#404040">
                                <set attributeName="fill" to="#808080" begin="zoomplus.mouseover" end="zoomplus.mouseout"/>
                        </use>
                        <path d="M-4,0h8M0,-4v8" fill="none" stroke="white" stroke-width="1.5" pointer-events="none"/>
                </g>
                <g id="zoomMin">
                        <use xlink:href="#rim" fill="#404040">
                                <set attributeName="fill" to="#808080" begin="zoomminus.mouseover" end="zoomminus.mouseout"/>
                        </use>
                        <path d="M-4,0h8" fill="none" stroke="white" stroke-width="1.5" pointer-events="none"/>
                </g>
                <g id="dirArrow">
                        <path fill="none" stroke="white" stroke-width="1.5" d="M0,-3.0v7 M-2.5,-0.5L0,-3.0L2.5,-0.5"/>
                </g>
               <g id="resetDef">
                       <use xlink:href="#rim2" fill="#404040">
                               <set attributeName="fill" to="#808080" begin="reset.mouseover" end="reset.mouseout"/>
                       </use>
               </g>
        </defs>

<script type="text/javascript">
var viewWidth = 514;
var viewHeight = 95;
var sectionId = 'dynsection-8';
</script>
<script xlink:href="svgpan.js"/>
<svg id="graph" class="graph">
<g id="viewport">
<title>constrain_value</title>
<polygon fill="white" stroke="white" points="-4,5 -4,-91 511,-91 511,5 -4,5"/>
<!-- Node1622 -->
<g id="node1" class="node"><title>Node1622</title>
<g id="a_node1"><a xlink:title=" ">
<polygon fill="#bfbfbf" stroke="black" points="-0.0219727,-47 -0.0219727,-67 86.022,-67 86.022,-47 -0.0219727,-47"/>
<text text-anchor="middle" x="43" y="-53" font-family="Helvetica,sans-Serif" font-size="10.00">constrain_value</text>
</a>
</g>
</g>
<!-- Node1623 -->
<g id="node2" class="node"><title>Node1623</title>
<g id="a_node2"><a xlink:href="namespaceAP.html#afceb236ff617aaaa2b08afacd72532b0" target="_top" xlink:title=" ">
<polygon fill="white" stroke="black" points="136.596,-67 136.596,-87 225.404,-87 225.404,-67 136.596,-67"/>
<text text-anchor="middle" x="181" y="-73" font-family="Helvetica,sans-Serif" font-size="10.00">AP::internalerror</text>
</a>
</g>
</g>
<!-- Node1622&#45;&gt;Node1623 -->
<g id="edge1" class="edge"><title>Node1622&#45;&gt;Node1623</title>
<path fill="none" stroke="midnightblue" d="M86.2858,-63.2185C98.9615,-65.0826 113.035,-67.1523 126.342,-69.1091"/>
<polygon fill="midnightblue" stroke="midnightblue" points="125.929,-72.5859 136.331,-70.5782 126.947,-65.6604 125.929,-72.5859"/>
</g>
<!-- Node1624 -->
<g id="node3" class="node"><title>Node1624</title>
<g id="a_node3"><a xlink:href="classAP__InternalError.html#ab34174ba770b976b39a18c2b23e854f2" target="_top" xlink:title=" ">
<polygon fill="white" stroke="black" points="122.426,-28 122.426,-48 239.574,-48 239.574,-28 122.426,-28"/>
<text text-anchor="middle" x="181" y="-34" font-family="Helvetica,sans-Serif" font-size="10.00">AP_InternalError::error</text>
</a>
</g>
</g>
<!-- Node1622&#45;&gt;Node1624 -->
<g id="edge2" class="edge"><title>Node1622&#45;&gt;Node1624</title>
<path fill="none" stroke="midnightblue" d="M86.2858,-51.0924C94.5572,-49.9369 103.424,-48.6981 112.284,-47.4603"/>
<polygon fill="midnightblue" stroke="midnightblue" points="112.833,-50.9177 122.253,-46.0676 111.865,-43.985 112.833,-50.9177"/>
</g>
<!-- Node1625 -->
<g id="node4" class="node"><title>Node1625</title>
<g id="a_node4"><a xlink:href="namespaceAP__HAL.html#a71832f03d849a0c088f04fc98d3c8143" target="_top" xlink:title=" ">
<polygon fill="white" stroke="black" points="276.091,-28 276.091,-48 359.909,-48 359.909,-28 276.091,-28"/>
<text text-anchor="middle" x="318" y="-34" font-family="Helvetica,sans-Serif" font-size="10.00">AP_HAL::panic</text>
</a>
</g>
</g>
<!-- Node1624&#45;&gt;Node1625 -->
<g id="edge3" class="edge"><title>Node1624&#45;&gt;Node1625</title>
<path fill="none" stroke="midnightblue" d="M239.644,-38C248.305,-38 257.188,-38 265.705,-38"/>
<polygon fill="midnightblue" stroke="midnightblue" points="265.873,-41.5001 275.873,-38 265.872,-34.5001 265.873,-41.5001"/>
</g>
<!-- Node1626 -->
<g id="node5" class="node"><title>Node1626</title>
<g id="a_node5"><a xlink:href="stdio_8h.html#aae132cc6af1eb6cf43bf011d8d63e854" target="_top" xlink:title=" ">
<polygon fill="white" stroke="black" points="429.384,-51 429.384,-71 472.616,-71 472.616,-51 429.384,-51"/>
<text text-anchor="middle" x="451" y="-57" font-family="Helvetica,sans-Serif" font-size="10.00">vprintf</text>
</a>
</g>
</g>
<!-- Node1625&#45;&gt;Node1626 -->
<g id="edge4" class="edge"><title>Node1625&#45;&gt;Node1626</title>
<path fill="none" stroke="midnightblue" d="M360.09,-45.2142C379.104,-48.5526 401.321,-52.4533 418.913,-55.542"/>
<polygon fill="midnightblue" stroke="midnightblue" points="418.744,-59.0658 429.199,-57.3478 419.954,-52.1712 418.744,-59.0658"/>
</g>
<!-- Node1627 -->
<g id="node6" class="node"><title>Node1627</title>
<g id="a_node6"><a xlink:href="classAP__HAL_1_1Scheduler.html#a78c4f1b1f192ac1c99544b6cc8f099b0" target="_top" xlink:title=" ">
<polygon fill="white" stroke="black" points="395.751,-0 395.751,-32 506.249,-32 506.249,-0 395.751,-0"/>
<text text-anchor="start" x="403.751" y="-18" font-family="Helvetica,sans-Serif" font-size="10.00">AP_HAL::Scheduler::</text>
<text text-anchor="middle" x="451" y="-6" font-family="Helvetica,sans-Serif" font-size="10.00">delay_microseconds</text>
</a>
</g>
</g>
<!-- Node1625&#45;&gt;Node1627 -->
<g id="edge5" class="edge"><title>Node1625&#45;&gt;Node1627</title>
<path fill="none" stroke="midnightblue" d="M360.09,-31.0994C368.18,-29.7408 376.849,-28.2849 385.495,-26.8329"/>
<polygon fill="midnightblue" stroke="midnightblue" points="386.316,-30.2441 395.599,-25.1361 385.157,-23.3407 386.316,-30.2441"/>
</g>
</g>
</svg>
        <g id="navigator" transform="translate(0 0)" fill="#404254">
                <rect fill="#f2f5e9" fill-opacity="0.5" stroke="#606060" stroke-width=".5" x="0" y="0" width="60" height="60"/>
                <use id="zoomplus" xlink:href="#zoomPlus" x="17" y="9" onmousedown="handleZoom(evt,'in')"/>
                <use id="zoomminus" xlink:href="#zoomMin" x="42" y="9" onmousedown="handleZoom(evt,'out')"/>
                <use id="reset" xlink:href="#resetDef" x="30" y="36" onmousedown="handleReset()"/>
                <g id="arrowUp" xlink:href="#dirArrow" transform="translate(30 24)" onmousedown="handlePan(0,-1)">
                  <use xlink:href="#rim" fill="#404040">
                        <set attributeName="fill" to="#808080" begin="arrowUp.mouseover" end="arrowUp.mouseout"/>
                  </use>
                  <path fill="none" stroke="white" stroke-width="1.5" d="M0,-3.0v7 M-2.5,-0.5L0,-3.0L2.5,-0.5"/>
                </g>
                <g id="arrowRight" xlink:href="#dirArrow" transform="rotate(90) translate(36 -43)" onmousedown="handlePan(1,0)">
                  <use xlink:href="#rim" fill="#404040">
                        <set attributeName="fill" to="#808080" begin="arrowRight.mouseover" end="arrowRight.mouseout"/>
                  </use>
                  <path fill="none" stroke="white" stroke-width="1.5" d="M0,-3.0v7 M-2.5,-0.5L0,-3.0L2.5,-0.5"/>
                </g>
                <g id="arrowDown" xlink:href="#dirArrow" transform="rotate(180) translate(-30 -48)" onmousedown="handlePan(0,1)">
                  <use xlink:href="#rim" fill="#404040">
                        <set attributeName="fill" to="#808080" begin="arrowDown.mouseover" end="arrowDown.mouseout"/>
                  </use>
                  <path fill="none" stroke="white" stroke-width="1.5" d="M0,-3.0v7 M-2.5,-0.5L0,-3.0L2.5,-0.5"/>
                </g>
                <g id="arrowLeft" xlink:href="#dirArrow" transform="rotate(270) translate(-36 17)" onmousedown="handlePan(-1,0)">
                  <use xlink:href="#rim" fill="#404040">
                        <set attributeName="fill" to="#808080" begin="arrowLeft.mouseover" end="arrowLeft.mouseout"/>
                  </use>
                  <path fill="none" stroke="white" stroke-width="1.5" d="M0,-3.0v7 M-2.5,-0.5L0,-3.0L2.5,-0.5"/>
                </g>
        </g>
        <svg viewBox="0 0 15 15" width="100%" height="30px" preserveAspectRatio="xMaxYMin meet">
         <g id="arrow_out" transform="scale(0.3 0.3)">
          <a xlink:href="AP__Math_8h_a20e8f8671c282c69c1954652b6d61585_cgraph_org.svg" target="_base">
           <rect id="button" ry="5" rx="5" y="6" x="6" height="38" width="38"
                fill="#f2f5e9" fill-opacity="0.5" stroke="#606060" stroke-width="1.0"/>
           <path id="arrow"
             d="M 11.500037,31.436501 C 11.940474,20.09759 22.043105,11.32322 32.158766,21.979434 L 37.068811,17.246167 C 37.068811,17.246167 37.088388,32 37.088388,32 L 22.160133,31.978069 C 22.160133,31.978069 26.997745,27.140456 26.997745,27.140456 C 18.528582,18.264221 13.291696,25.230495 11.500037,31.436501 z"
             style="fill:#404040;"/>
          </a>
         </g>
        </svg>
</svg>
