<?xml version="1.0" encoding="UTF-8" standalone="no"?>
<!DOCTYPE svg PUBLIC "-//W3C//DTD SVG 1.1//EN"
 "http://www.w3.org/Graphics/SVG/1.1/DTD/svg11.dtd">
<!-- Generated by graphviz version 2.30.1 (20130221.2233)
 -->
<!-- Title: libraries/AP_RangeFinder/AP_RangeFinder_Wasp.h Pages: 1 -->
<svg width="301pt" height="112pt"
 viewBox="0.00 0.00 301.00 112.00" xmlns="http://www.w3.org/2000/svg" xmlns:xlink="http://www.w3.org/1999/xlink">
<g id="graph0" class="graph" transform="scale(1 1) rotate(0) translate(4 108)">
<title>libraries/AP_RangeFinder/AP_RangeFinder_Wasp.h</title>
<polygon fill="white" stroke="white" points="-4,5 -4,-108 298,-108 298,5 -4,5"/>
<!-- Node60 -->
<g id="node1" class="node"><title>Node60</title>
<g id="a_node1"><a xlink:title=" ">
<polygon fill="#bfbfbf" stroke="black" points="82.7056,-71 82.7056,-103 217.294,-103 217.294,-71 82.7056,-71"/>
<text text-anchor="start" x="90.7056" y="-89" font-family="Helvetica,sans-Serif" font-size="10.00">libraries/AP_RangeFinder</text>
<text text-anchor="middle" x="150" y="-77" font-family="Helvetica,sans-Serif" font-size="10.00">/AP_RangeFinder_Wasp.h</text>
</a>
</g>
</g>
<!-- Node61 -->
<g id="node2" class="node"><title>Node61</title>
<g id="a_node2"><a xlink:href="AP__RangeFinder__Wasp_8cpp.html" target="_top" xlink:title=" ">
<polygon fill="white" stroke="black" points="-0.575195,-1 -0.575195,-33 144.575,-33 144.575,-1 -0.575195,-1"/>
<text text-anchor="start" x="7.4248" y="-19" font-family="Helvetica,sans-Serif" font-size="10.00">libraries/AP_RangeFinder</text>
<text text-anchor="middle" x="72" y="-7" font-family="Helvetica,sans-Serif" font-size="10.00">/AP_RangeFinder_Wasp.cpp</text>
</a>
</g>
</g>
<!-- Node60&#45;&gt;Node61 -->
<g id="edge1" class="edge"><title>Node60&#45;&gt;Node61</title>
<path fill="none" stroke="midnightblue" d="M124.988,-64.195C113.333,-54.0335 99.7552,-42.1968 89.2623,-33.0492"/>
<polygon fill="midnightblue" stroke="midnightblue" points="122.852,-66.9754 132.689,-70.9086 127.452,-61.699 122.852,-66.9754"/>
</g>
<!-- Node62 -->
<g id="node3" class="node"><title>Node62</title>
<g id="a_node3"><a xlink:href="RangeFinder_8cpp.html" target="_top" xlink:title=" ">
<polygon fill="white" stroke="black" points="162.749,-1 162.749,-33 293.251,-33 293.251,-1 162.749,-1"/>
<text text-anchor="start" x="170.749" y="-19" font-family="Helvetica,sans-Serif" font-size="10.00">libraries/AP_RangeFinder</text>
<text text-anchor="middle" x="228" y="-7" font-family="Helvetica,sans-Serif" font-size="10.00">/RangeFinder.cpp</text>
</a>
</g>
</g>
<!-- Node60&#45;&gt;Node62 -->
<g id="edge2" class="edge"><title>Node60&#45;&gt;Node62</title>
<path fill="none" stroke="midnightblue" d="M175.012,-64.195C186.667,-54.0335 200.245,-42.1968 210.738,-33.0492"/>
<polygon fill="midnightblue" stroke="midnightblue" points="172.548,-61.699 167.311,-70.9086 177.148,-66.9754 172.548,-61.699"/>
</g>
</g>
</svg>
