<?xml version="1.0" encoding="UTF-8" standalone="no"?>
<!DOCTYPE svg PUBLIC "-//W3C//DTD SVG 1.1//EN"
 "http://www.w3.org/Graphics/SVG/1.1/DTD/svg11.dtd">
<!-- Generated by graphviz version 2.30.1 (20130221.2233)
 -->
<!-- Title: libraries/AP_RAMTRON/AP_RAMTRON.h Pages: 1 -->
<svg width="458pt" height="252pt"
 viewBox="0.00 0.00 458.00 252.00" xmlns="http://www.w3.org/2000/svg" xmlns:xlink="http://www.w3.org/1999/xlink">
<g id="graph0" class="graph" transform="scale(1 1) rotate(0) translate(4 248)">
<title>libraries/AP_RAMTRON/AP_RAMTRON.h</title>
<polygon fill="white" stroke="white" points="-4,5 -4,-248 455,-248 455,5 -4,5"/>
<!-- Node32 -->
<g id="node1" class="node"><title>Node32</title>
<g id="a_node1"><a xlink:title=" ">
<polygon fill="#bfbfbf" stroke="black" points="241.379,-211 241.379,-243 364.621,-243 364.621,-211 241.379,-211"/>
<text text-anchor="start" x="249.379" y="-229" font-family="Helvetica,sans-Serif" font-size="10.00">libraries/AP_RAMTRON</text>
<text text-anchor="middle" x="303" y="-217" font-family="Helvetica,sans-Serif" font-size="10.00">/AP_RAMTRON.h</text>
</a>
</g>
</g>
<!-- Node33 -->
<g id="node2" class="node"><title>Node33</title>
<g id="a_node2"><a xlink:href="ChibiOS_2Storage_8h.html" target="_top" xlink:title=" ">
<polygon fill="white" stroke="black" points="162.53,-141 162.53,-173 297.47,-173 297.47,-141 162.53,-141"/>
<text text-anchor="start" x="170.53" y="-159" font-family="Helvetica,sans-Serif" font-size="10.00">libraries/AP_HAL_ChibiOS</text>
<text text-anchor="middle" x="230" y="-147" font-family="Helvetica,sans-Serif" font-size="10.00">/Storage.h</text>
</a>
</g>
</g>
<!-- Node32&#45;&gt;Node33 -->
<g id="edge1" class="edge"><title>Node32&#45;&gt;Node33</title>
<path fill="none" stroke="midnightblue" d="M279.277,-203.901C268.439,-193.806 255.882,-182.109 246.156,-173.049"/>
<polygon fill="midnightblue" stroke="midnightblue" points="277.096,-206.654 286.799,-210.909 281.867,-201.531 277.096,-206.654"/>
</g>
<!-- Node38 -->
<g id="node7" class="node"><title>Node38</title>
<g id="a_node7"><a xlink:href="AP__RAMTRON_8cpp.html" target="_top" xlink:title=" ">
<polygon fill="white" stroke="black" points="315.379,-141 315.379,-173 438.621,-173 438.621,-141 315.379,-141"/>
<text text-anchor="start" x="323.379" y="-159" font-family="Helvetica,sans-Serif" font-size="10.00">libraries/AP_RAMTRON</text>
<text text-anchor="middle" x="377" y="-147" font-family="Helvetica,sans-Serif" font-size="10.00">/AP_RAMTRON.cpp</text>
</a>
</g>
</g>
<!-- Node32&#45;&gt;Node38 -->
<g id="edge6" class="edge"><title>Node32&#45;&gt;Node38</title>
<path fill="none" stroke="midnightblue" d="M327.048,-203.901C338.034,-193.806 350.764,-182.109 360.623,-173.049"/>
<polygon fill="midnightblue" stroke="midnightblue" points="324.418,-201.565 319.423,-210.909 329.154,-206.719 324.418,-201.565"/>
</g>
<!-- Node34 -->
<g id="node3" class="node"><title>Node34</title>
<g id="a_node3"><a xlink:href="AP__HAL__ChibiOS__Private_8h.html" target="_top" xlink:title=" ">
<polygon fill="white" stroke="black" points="-0.477539,-71 -0.477539,-103 144.478,-103 144.478,-71 -0.477539,-71"/>
<text text-anchor="start" x="7.52246" y="-89" font-family="Helvetica,sans-Serif" font-size="10.00">libraries/AP_HAL_ChibiOS</text>
<text text-anchor="middle" x="72" y="-77" font-family="Helvetica,sans-Serif" font-size="10.00">/AP_HAL_ChibiOS_Private.h</text>
</a>
</g>
</g>
<!-- Node33&#45;&gt;Node34 -->
<g id="edge2" class="edge"><title>Node33&#45;&gt;Node34</title>
<path fill="none" stroke="midnightblue" d="M185.7,-136.934C160.802,-126.218 130.164,-113.032 106.967,-103.049"/>
<polygon fill="midnightblue" stroke="midnightblue" points="184.366,-140.17 194.935,-140.909 187.133,-133.74 184.366,-140.17"/>
</g>
<!-- Node36 -->
<g id="node5" class="node"><title>Node36</title>
<g id="a_node5"><a xlink:href="ChibiOS_2Scheduler_8cpp.html" target="_top" xlink:title=" ">
<polygon fill="white" stroke="black" points="162.53,-71 162.53,-103 297.47,-103 297.47,-71 162.53,-71"/>
<text text-anchor="start" x="170.53" y="-89" font-family="Helvetica,sans-Serif" font-size="10.00">libraries/AP_HAL_ChibiOS</text>
<text text-anchor="middle" x="230" y="-77" font-family="Helvetica,sans-Serif" font-size="10.00">/Scheduler.cpp</text>
</a>
</g>
</g>
<!-- Node33&#45;&gt;Node36 -->
<g id="edge4" class="edge"><title>Node33&#45;&gt;Node36</title>
<path fill="none" stroke="midnightblue" d="M230,-130.617C230,-121.338 230,-111.141 230,-103.049"/>
<polygon fill="midnightblue" stroke="midnightblue" points="226.5,-130.909 230,-140.909 233.5,-130.909 226.5,-130.909"/>
</g>
<!-- Node37 -->
<g id="node6" class="node"><title>Node37</title>
<g id="a_node6"><a xlink:href="ChibiOS_2Storage_8cpp.html" target="_top" xlink:title=" ">
<polygon fill="white" stroke="black" points="315.53,-71 315.53,-103 450.47,-103 450.47,-71 315.53,-71"/>
<text text-anchor="start" x="323.53" y="-89" font-family="Helvetica,sans-Serif" font-size="10.00">libraries/AP_HAL_ChibiOS</text>
<text text-anchor="middle" x="383" y="-77" font-family="Helvetica,sans-Serif" font-size="10.00">/Storage.cpp</text>
</a>
</g>
</g>
<!-- Node33&#45;&gt;Node37 -->
<g id="edge5" class="edge"><title>Node33&#45;&gt;Node37</title>
<path fill="none" stroke="midnightblue" d="M273.217,-136.793C297.27,-126.102 326.776,-112.988 349.139,-103.049"/>
<polygon fill="midnightblue" stroke="midnightblue" points="271.672,-133.649 263.956,-140.909 274.515,-140.045 271.672,-133.649"/>
</g>
<!-- Node35 -->
<g id="node4" class="node"><title>Node35</title>
<g id="a_node4"><a xlink:href="HAL__ChibiOS__Class_8cpp.html" target="_top" xlink:title=" ">
<polygon fill="white" stroke="black" points="4.52979,-1 4.52979,-33 139.47,-33 139.47,-1 4.52979,-1"/>
<text text-anchor="start" x="12.5298" y="-19" font-family="Helvetica,sans-Serif" font-size="10.00">libraries/AP_HAL_ChibiOS</text>
<text text-anchor="middle" x="72" y="-7" font-family="Helvetica,sans-Serif" font-size="10.00">/HAL_ChibiOS_Class.cpp</text>
</a>
</g>
</g>
<!-- Node34&#45;&gt;Node35 -->
<g id="edge3" class="edge"><title>Node34&#45;&gt;Node35</title>
<path fill="none" stroke="midnightblue" d="M72,-60.6174C72,-51.3378 72,-41.1413 72,-33.0492"/>
<polygon fill="midnightblue" stroke="midnightblue" points="68.5001,-60.9086 72,-70.9086 75.5001,-60.9086 68.5001,-60.9086"/>
</g>
</g>
</svg>
