<?xml version="1.0" encoding="UTF-8" standalone="no"?>
<!DOCTYPE svg PUBLIC "-//W3C//DTD SVG 1.1//EN"
 "http://www.w3.org/Graphics/SVG/1.1/DTD/svg11.dtd">
<!-- Generated by graphviz version 2.30.1 (20130221.2233)
 -->
<!-- Title: libraries/APM_Control/AR_AttitudeControl.h Pages: 1 -->
<svg width="255pt" height="182pt"
 viewBox="0.00 0.00 255.00 182.00" xmlns="http://www.w3.org/2000/svg" xmlns:xlink="http://www.w3.org/1999/xlink">
<g id="graph0" class="graph" transform="scale(1 1) rotate(0) translate(4 178)">
<title>libraries/APM_Control/AR_AttitudeControl.h</title>
<polygon fill="white" stroke="white" points="-4,5 -4,-178 252,-178 252,5 -4,5"/>
<!-- Node136 -->
<g id="node1" class="node"><title>Node136</title>
<g id="a_node1"><a xlink:title=" ">
<polygon fill="#bfbfbf" stroke="black" points="70.3721,-141 70.3721,-173 183.628,-173 183.628,-141 70.3721,-141"/>
<text text-anchor="start" x="78.3721" y="-159" font-family="Helvetica,sans-Serif" font-size="10.00">libraries/APM_Control</text>
<text text-anchor="middle" x="127" y="-147" font-family="Helvetica,sans-Serif" font-size="10.00">/AR_AttitudeControl.h</text>
</a>
</g>
</g>
<!-- Node137 -->
<g id="node2" class="node"><title>Node137</title>
<g id="a_node2"><a xlink:href="AR__AttitudeControl_8cpp.html" target="_top" xlink:title=" ">
<polygon fill="white" stroke="black" points="-0.640137,-71 -0.640137,-103 122.64,-103 122.64,-71 -0.640137,-71"/>
<text text-anchor="start" x="7.35986" y="-89" font-family="Helvetica,sans-Serif" font-size="10.00">libraries/APM_Control</text>
<text text-anchor="middle" x="61" y="-77" font-family="Helvetica,sans-Serif" font-size="10.00">/AR_AttitudeControl.cpp</text>
</a>
</g>
</g>
<!-- Node136&#45;&gt;Node137 -->
<g id="edge1" class="edge"><title>Node136&#45;&gt;Node137</title>
<path fill="none" stroke="midnightblue" d="M105.266,-133.607C95.5328,-123.579 84.3144,-112.021 75.6066,-103.049"/>
<polygon fill="midnightblue" stroke="midnightblue" points="102.876,-136.17 112.352,-140.909 107.899,-131.295 102.876,-136.17"/>
</g>
<!-- Node138 -->
<g id="node3" class="node"><title>Node138</title>
<g id="a_node3"><a xlink:href="AR__WPNav_8h.html" target="_top" xlink:title=" ">
<polygon fill="white" stroke="black" points="140.434,-71 140.434,-103 247.566,-103 247.566,-71 140.434,-71"/>
<text text-anchor="start" x="148.434" y="-89" font-family="Helvetica,sans-Serif" font-size="10.00">libraries/AR_WPNav</text>
<text text-anchor="middle" x="194" y="-77" font-family="Helvetica,sans-Serif" font-size="10.00">/AR_WPNav.h</text>
</a>
</g>
</g>
<!-- Node136&#45;&gt;Node138 -->
<g id="edge2" class="edge"><title>Node136&#45;&gt;Node138</title>
<path fill="none" stroke="midnightblue" d="M149.064,-133.607C158.944,-123.579 170.332,-112.021 179.172,-103.049"/>
<polygon fill="midnightblue" stroke="midnightblue" points="146.395,-131.329 141.869,-140.909 151.381,-136.242 146.395,-131.329"/>
</g>
<!-- Node139 -->
<g id="node4" class="node"><title>Node139</title>
<g id="a_node4"><a xlink:href="AR__WPNav_8cpp.html" target="_top" xlink:title=" ">
<polygon fill="white" stroke="black" points="140.434,-1 140.434,-33 247.566,-33 247.566,-1 140.434,-1"/>
<text text-anchor="start" x="148.434" y="-19" font-family="Helvetica,sans-Serif" font-size="10.00">libraries/AR_WPNav</text>
<text text-anchor="middle" x="194" y="-7" font-family="Helvetica,sans-Serif" font-size="10.00">/AR_WPNav.cpp</text>
</a>
</g>
</g>
<!-- Node138&#45;&gt;Node139 -->
<g id="edge3" class="edge"><title>Node138&#45;&gt;Node139</title>
<path fill="none" stroke="midnightblue" d="M194,-60.6174C194,-51.3378 194,-41.1413 194,-33.0492"/>
<polygon fill="midnightblue" stroke="midnightblue" points="190.5,-60.9086 194,-70.9086 197.5,-60.9086 190.5,-60.9086"/>
</g>
</g>
</svg>
