<?xml version="1.0" encoding="UTF-8" standalone="no"?>
<!DOCTYPE svg PUBLIC "-//W3C//DTD SVG 1.1//EN"
 "http://www.w3.org/Graphics/SVG/1.1/DTD/svg11.dtd">
<!-- Generated by graphviz version 2.30.1 (20130221.2233)
 -->
<!-- Title: Compass::_have_i2c_driver Pages: 1 -->
<svg width="458pt" height="91pt"
 viewBox="0.00 0.00 458.00 91.00" xmlns="http://www.w3.org/2000/svg" xmlns:xlink="http://www.w3.org/1999/xlink">
<g id="graph0" class="graph" transform="scale(1 1) rotate(0) translate(4 87)">
<title>Compass::_have_i2c_driver</title>
<polygon fill="white" stroke="white" points="-4,5 -4,-87 455,-87 455,5 -4,5"/>
<!-- Node1306 -->
<g id="node1" class="node"><title>Node1306</title>
<g id="a_node1"><a xlink:title=" ">
<polygon fill="#bfbfbf" stroke="black" points="0.308105,-25 0.308105,-57 109.692,-57 109.692,-25 0.308105,-25"/>
<text text-anchor="start" x="8.30811" y="-43" font-family="Helvetica,sans-Serif" font-size="10.00">Compass::_have_i2c</text>
<text text-anchor="middle" x="55" y="-31" font-family="Helvetica,sans-Serif" font-size="10.00">_driver</text>
</a>
</g>
</g>
<!-- Node1307 -->
<g id="node2" class="node"><title>Node1307</title>
<g id="a_node2"><a xlink:href="classAP__HAL_1_1Device.html#a368ef415e1e4efed7c05a48456a0ae83" target="_top" xlink:title=" ">
<polygon fill="white" stroke="black" points="150.756,-51 150.756,-83 271.244,-83 271.244,-51 150.756,-51"/>
<text text-anchor="start" x="158.756" y="-69" font-family="Helvetica,sans-Serif" font-size="10.00">AP_HAL::Device::make</text>
<text text-anchor="middle" x="211" y="-57" font-family="Helvetica,sans-Serif" font-size="10.00">_bus_id</text>
</a>
</g>
</g>
<!-- Node1306&#45;&gt;Node1307 -->
<g id="edge1" class="edge"><title>Node1306&#45;&gt;Node1307</title>
<path fill="none" stroke="midnightblue" d="M109.862,-50.0935C119.853,-51.7803 130.417,-53.5638 140.79,-55.3152"/>
<polygon fill="midnightblue" stroke="midnightblue" points="140.209,-58.7666 150.652,-56.9803 141.375,-51.8643 140.209,-58.7666"/>
</g>
<!-- Node1309 -->
<g id="node4" class="node"><title>Node1309</title>
<g id="a_node4"><a xlink:href="classAP__HAL_1_1Device.html#a663eff6026e905d17cbfa61853f8b032" target="_top" xlink:title=" ">
<polygon fill="white" stroke="black" points="146.579,-0 146.579,-32 275.421,-32 275.421,-0 146.579,-0"/>
<text text-anchor="start" x="154.579" y="-18" font-family="Helvetica,sans-Serif" font-size="10.00">AP_HAL::Device::change</text>
<text text-anchor="middle" x="211" y="-6" font-family="Helvetica,sans-Serif" font-size="10.00">_bus_id</text>
</a>
</g>
</g>
<!-- Node1306&#45;&gt;Node1309 -->
<g id="edge3" class="edge"><title>Node1306&#45;&gt;Node1309</title>
<path fill="none" stroke="midnightblue" d="M109.862,-32.2562C118.432,-30.8649 127.425,-29.4051 136.357,-27.9551"/>
<polygon fill="midnightblue" stroke="midnightblue" points="137.08,-31.3836 146.39,-26.3263 135.958,-24.474 137.08,-31.3836"/>
</g>
<!-- Node1308 -->
<g id="node3" class="node"><title>Node1308</title>
<g id="a_node3"><a xlink:href="classAP__HAL_1_1Device.html#a1a5cc08a6d02761ffb62e2a46aab11e3" target="_top" xlink:title=" ">
<polygon fill="white" stroke="black" points="312.69,-57 312.69,-77 449.31,-77 449.31,-57 312.69,-57"/>
<text text-anchor="middle" x="381" y="-63" font-family="Helvetica,sans-Serif" font-size="10.00">AP_HAL::Device::bus_type</text>
</a>
</g>
</g>
<!-- Node1307&#45;&gt;Node1308 -->
<g id="edge2" class="edge"><title>Node1307&#45;&gt;Node1308</title>
<path fill="none" stroke="midnightblue" d="M271.704,-67C281.606,-67 292.002,-67 302.272,-67"/>
<polygon fill="midnightblue" stroke="midnightblue" points="302.477,-70.5001 312.477,-67 302.477,-63.5001 302.477,-70.5001"/>
</g>
</g>
</svg>
