<?xml version="1.0" encoding="UTF-8" standalone="no"?>
<!DOCTYPE svg PUBLIC "-//W3C//DTD SVG 1.1//EN"
 "http://www.w3.org/Graphics/SVG/1.1/DTD/svg11.dtd">
<!-- Generated by graphviz version 2.30.1 (20130221.2233)
 -->
<!-- Title: SITL::Aircraft::adjust_frame_time Pages: 1 -->
<svg width="450pt" height="208pt"
 viewBox="0.00 0.00 450.00 208.00" xmlns="http://www.w3.org/2000/svg" xmlns:xlink="http://www.w3.org/1999/xlink">
<g id="graph0" class="graph" transform="scale(1 1) rotate(0) translate(4 204)">
<title>SITL::Aircraft::adjust_frame_time</title>
<polygon fill="white" stroke="white" points="-4,5 -4,-204 447,-204 447,5 -4,5"/>
<!-- Node39 -->
<g id="node1" class="node"><title>Node39</title>
<g id="a_node1"><a xlink:title=" ">
<polygon fill="#bfbfbf" stroke="black" points="334.707,-78 334.707,-110 441.293,-110 441.293,-78 334.707,-78"/>
<text text-anchor="start" x="342.707" y="-96" font-family="Helvetica,sans-Serif" font-size="10.00">SITL::Aircraft::adjust</text>
<text text-anchor="middle" x="388" y="-84" font-family="Helvetica,sans-Serif" font-size="10.00">_frame_time</text>
</a>
</g>
</g>
<!-- Node40 -->
<g id="node2" class="node"><title>Node40</title>
<g id="a_node2"><a xlink:href="classSITL_1_1SilentWings.html#a5d6273b18b20063d6a5a48c02a62f734" target="_top" xlink:title=" ">
<polygon fill="white" stroke="black" points="179.485,-168 179.485,-200 280.515,-200 280.515,-168 179.485,-168"/>
<text text-anchor="start" x="187.485" y="-186" font-family="Helvetica,sans-Serif" font-size="10.00">SITL::SilentWings::</text>
<text text-anchor="middle" x="230" y="-174" font-family="Helvetica,sans-Serif" font-size="10.00">process_packet</text>
</a>
</g>
</g>
<!-- Node39&#45;&gt;Node40 -->
<g id="edge1" class="edge"><title>Node39&#45;&gt;Node40</title>
<path fill="none" stroke="midnightblue" d="M359.929,-116.229C342.878,-129.515 319.999,-146.073 298,-158 291.419,-161.568 284.242,-164.892 277.111,-167.89"/>
<polygon fill="midnightblue" stroke="midnightblue" points="362.129,-118.952 367.803,-110.004 357.788,-113.461 362.129,-118.952"/>
</g>
<!-- Node42 -->
<g id="node4" class="node"><title>Node42</title>
<g id="a_node4"><a xlink:href="classSITL_1_1Gazebo.html#a8edd0b56ac305de43643a755502c2adc" target="_top" xlink:title=" ">
<polygon fill="white" stroke="black" points="167.811,-129 167.811,-149 292.189,-149 292.189,-129 167.811,-129"/>
<text text-anchor="middle" x="230" y="-135" font-family="Helvetica,sans-Serif" font-size="10.00">SITL::Gazebo::recv_fdm</text>
</a>
</g>
</g>
<!-- Node39&#45;&gt;Node42 -->
<g id="edge3" class="edge"><title>Node39&#45;&gt;Node42</title>
<path fill="none" stroke="midnightblue" d="M324.893,-111.916C304.787,-117.715 283.209,-123.94 265.815,-128.957"/>
<polygon fill="midnightblue" stroke="midnightblue" points="325.982,-115.244 334.62,-109.11 324.042,-108.518 325.982,-115.244"/>
</g>
<!-- Node44 -->
<g id="node6" class="node"><title>Node44</title>
<g id="a_node6"><a xlink:href="classSITL_1_1last__letter.html#a72563412c7f55424c3b1efd938995757" target="_top" xlink:title=" ">
<polygon fill="white" stroke="black" points="184.207,-78 184.207,-110 275.793,-110 275.793,-78 184.207,-78"/>
<text text-anchor="start" x="192.207" y="-96" font-family="Helvetica,sans-Serif" font-size="10.00">SITL::last_letter::</text>
<text text-anchor="middle" x="230" y="-84" font-family="Helvetica,sans-Serif" font-size="10.00">recv_fdm</text>
</a>
</g>
</g>
<!-- Node39&#45;&gt;Node44 -->
<g id="edge5" class="edge"><title>Node39&#45;&gt;Node44</title>
<path fill="none" stroke="midnightblue" d="M324.17,-94C308.024,-94 290.976,-94 275.939,-94"/>
<polygon fill="midnightblue" stroke="midnightblue" points="324.62,-97.5001 334.62,-94 324.62,-90.5001 324.62,-97.5001"/>
</g>
<!-- Node46 -->
<g id="node8" class="node"><title>Node46</title>
<g id="a_node8"><a xlink:href="classSITL_1_1CRRCSim.html#a710d8276d948bfc5b82c8b57f406b65e" target="_top" xlink:title=" ">
<polygon fill="white" stroke="black" points="162.269,-39 162.269,-59 297.731,-59 297.731,-39 162.269,-39"/>
<text text-anchor="middle" x="230" y="-45" font-family="Helvetica,sans-Serif" font-size="10.00">SITL::CRRCSim::recv_fdm</text>
</a>
</g>
</g>
<!-- Node39&#45;&gt;Node46 -->
<g id="edge7" class="edge"><title>Node39&#45;&gt;Node46</title>
<path fill="none" stroke="midnightblue" d="M324.893,-76.0845C304.787,-70.2846 283.209,-64.0603 265.815,-59.0429"/>
<polygon fill="midnightblue" stroke="midnightblue" points="324.042,-79.4817 334.62,-78.8905 325.982,-72.7559 324.042,-79.4817"/>
</g>
<!-- Node48 -->
<g id="node10" class="node"><title>Node48</title>
<g id="a_node10"><a xlink:href="classSITL_1_1JSBSim.html#afed9e8690c5a59cbb44faf5cbaac5c74" target="_top" xlink:title=" ">
<polygon fill="white" stroke="black" points="172.811,-0 172.811,-20 287.189,-20 287.189,-0 172.811,-0"/>
<text text-anchor="middle" x="230" y="-6" font-family="Helvetica,sans-Serif" font-size="10.00">SITL::JSBSim::update</text>
</a>
</g>
</g>
<!-- Node39&#45;&gt;Node48 -->
<g id="edge9" class="edge"><title>Node39&#45;&gt;Node48</title>
<path fill="none" stroke="midnightblue" d="M360.587,-71.4038C343.624,-57.836 320.605,-41.1086 298,-30 290.047,-26.0917 281.181,-22.786 272.571,-20.0572"/>
<polygon fill="midnightblue" stroke="midnightblue" points="358.437,-74.1668 368.4,-77.7722 362.86,-68.741 358.437,-74.1668"/>
</g>
<!-- Node41 -->
<g id="node3" class="node"><title>Node41</title>
<g id="a_node3"><a xlink:href="classSITL_1_1SilentWings.html#af84ce567ecebd0155e2ebdaa38173ffd" target="_top" xlink:title=" ">
<polygon fill="white" stroke="black" points="12.4854,-168 12.4854,-200 113.515,-200 113.515,-168 12.4854,-168"/>
<text text-anchor="start" x="20.4854" y="-186" font-family="Helvetica,sans-Serif" font-size="10.00">SITL::SilentWings::</text>
<text text-anchor="middle" x="63" y="-174" font-family="Helvetica,sans-Serif" font-size="10.00">update</text>
</a>
</g>
</g>
<!-- Node40&#45;&gt;Node41 -->
<g id="edge2" class="edge"><title>Node40&#45;&gt;Node41</title>
<path fill="none" stroke="midnightblue" d="M168.889,-184C150.789,-184 131.134,-184 113.783,-184"/>
<polygon fill="midnightblue" stroke="midnightblue" points="169.047,-187.5 179.047,-184 169.047,-180.5 169.047,-187.5"/>
</g>
<!-- Node43 -->
<g id="node5" class="node"><title>Node43</title>
<g id="a_node5"><a xlink:href="classSITL_1_1Gazebo.html#a6916d6388c598bd8c71445f86b9cd1de" target="_top" xlink:title=" ">
<polygon fill="white" stroke="black" points="6.0791,-129 6.0791,-149 119.921,-149 119.921,-129 6.0791,-129"/>
<text text-anchor="middle" x="63" y="-135" font-family="Helvetica,sans-Serif" font-size="10.00">SITL::Gazebo::update</text>
</a>
</g>
</g>
<!-- Node42&#45;&gt;Node43 -->
<g id="edge4" class="edge"><title>Node42&#45;&gt;Node43</title>
<path fill="none" stroke="midnightblue" d="M157.21,-139C144.765,-139 131.989,-139 120.041,-139"/>
<polygon fill="midnightblue" stroke="midnightblue" points="157.56,-142.5 167.56,-139 157.56,-135.5 157.56,-142.5"/>
</g>
<!-- Node45 -->
<g id="node7" class="node"><title>Node45</title>
<g id="a_node7"><a xlink:href="classSITL_1_1last__letter.html#ac120b75763b44fd446101dfea68cc063" target="_top" xlink:title=" ">
<polygon fill="white" stroke="black" points="17.207,-78 17.207,-110 108.793,-110 108.793,-78 17.207,-78"/>
<text text-anchor="start" x="25.207" y="-96" font-family="Helvetica,sans-Serif" font-size="10.00">SITL::last_letter::</text>
<text text-anchor="middle" x="63" y="-84" font-family="Helvetica,sans-Serif" font-size="10.00">update</text>
</a>
</g>
</g>
<!-- Node44&#45;&gt;Node45 -->
<g id="edge6" class="edge"><title>Node44&#45;&gt;Node45</title>
<path fill="none" stroke="midnightblue" d="M173.82,-94C152.765,-94 129.033,-94 109.032,-94"/>
<polygon fill="midnightblue" stroke="midnightblue" points="173.913,-97.5001 183.913,-94 173.913,-90.5001 173.913,-97.5001"/>
</g>
<!-- Node47 -->
<g id="node9" class="node"><title>Node47</title>
<g id="a_node9"><a xlink:href="classSITL_1_1CRRCSim.html#ae6d457d98f3bcb60f2f3ac596b2bd112" target="_top" xlink:title=" ">
<polygon fill="white" stroke="black" points="0.537109,-39 0.537109,-59 125.463,-59 125.463,-39 0.537109,-39"/>
<text text-anchor="middle" x="63" y="-45" font-family="Helvetica,sans-Serif" font-size="10.00">SITL::CRRCSim::update</text>
</a>
</g>
</g>
<!-- Node46&#45;&gt;Node47 -->
<g id="edge8" class="edge"><title>Node46&#45;&gt;Node47</title>
<path fill="none" stroke="midnightblue" d="M151.642,-49C142.862,-49 134.005,-49 125.469,-49"/>
<polygon fill="midnightblue" stroke="midnightblue" points="151.888,-52.5001 161.888,-49 151.888,-45.5001 151.888,-52.5001"/>
</g>
</g>
</svg>
