<?xml version="1.0" encoding="UTF-8" standalone="no"?>
<!DOCTYPE svg PUBLIC "-//W3C//DTD SVG 1.1//EN"
 "http://www.w3.org/Graphics/SVG/1.1/DTD/svg11.dtd">
<!-- Generated by graphviz version 2.30.1 (20130221.2233)
 -->
<!-- Title: AP_Logger::Write_VisualOdom Pages: 1 -->
<svg width="430pt" height="67pt"
 viewBox="0.00 0.00 430.00 67.00" xmlns="http://www.w3.org/2000/svg" xmlns:xlink="http://www.w3.org/1999/xlink">
<g id="graph0" class="graph" transform="scale(1 1) rotate(0) translate(4 63)">
<title>AP_Logger::Write_VisualOdom</title>
<polygon fill="white" stroke="white" points="-4,5 -4,-63 427,-63 427,5 -4,5"/>
<!-- Node5221 -->
<g id="node1" class="node"><title>Node5221</title>
<g id="a_node1"><a xlink:title=" ">
<polygon fill="#bfbfbf" stroke="black" points="0.698242,-19 0.698242,-39 155.302,-39 155.302,-19 0.698242,-19"/>
<text text-anchor="middle" x="78" y="-25" font-family="Helvetica,sans-Serif" font-size="10.00">AP_Logger::Write_VisualOdom</text>
</a>
</g>
</g>
<!-- Node5222 -->
<g id="node2" class="node"><title>Node5222</title>
<g id="a_node2"><a xlink:href="namespaceAP__HAL.html#a7aa0ce7625c9680e30ff4a99940907a5" target="_top" xlink:title=" ">
<polygon fill="white" stroke="black" points="201.761,-39 201.761,-59 302.239,-59 302.239,-39 201.761,-39"/>
<text text-anchor="middle" x="252" y="-45" font-family="Helvetica,sans-Serif" font-size="10.00">AP_HAL::micros64</text>
</a>
</g>
</g>
<!-- Node5221&#45;&gt;Node5222 -->
<g id="edge1" class="edge"><title>Node5221&#45;&gt;Node5222</title>
<path fill="none" stroke="midnightblue" d="M155.443,-37.8888C167.518,-39.2928 179.847,-40.7264 191.462,-42.077"/>
<polygon fill="midnightblue" stroke="midnightblue" points="191.124,-45.5612 201.461,-43.2397 191.933,-38.608 191.124,-45.5612"/>
</g>
<!-- Node5224 -->
<g id="node4" class="node"><title>Node5224</title>
<g id="a_node4"><a xlink:href="classAP__Logger.html#ada8172473eb14aabbf121c20ef6ad76b" target="_top" xlink:title=" ">
<polygon fill="white" stroke="black" points="192.398,-0 192.398,-20 311.602,-20 311.602,-0 192.398,-0"/>
<text text-anchor="middle" x="252" y="-6" font-family="Helvetica,sans-Serif" font-size="10.00">AP_Logger::WriteBlock</text>
</a>
</g>
</g>
<!-- Node5221&#45;&gt;Node5224 -->
<g id="edge3" class="edge"><title>Node5221&#45;&gt;Node5224</title>
<path fill="none" stroke="midnightblue" d="M155.443,-20.5557C164.343,-19.5726 173.38,-18.5743 182.168,-17.6035"/>
<polygon fill="midnightblue" stroke="midnightblue" points="182.791,-21.0561 192.347,-16.4792 182.023,-14.0984 182.791,-21.0561"/>
</g>
<!-- Node5223 -->
<g id="node3" class="node"><title>Node5223</title>
<g id="a_node3"><a xlink:href="hrt_8c.html#a152c3348a8e83f2dfe35b44cc2e30362" target="_top" xlink:title=" ">
<polygon fill="white" stroke="black" points="348.101,-39 348.101,-59 421.899,-59 421.899,-39 348.101,-39"/>
<text text-anchor="middle" x="385" y="-45" font-family="Helvetica,sans-Serif" font-size="10.00">hrt_micros64</text>
</a>
</g>
</g>
<!-- Node5222&#45;&gt;Node5223 -->
<g id="edge2" class="edge"><title>Node5222&#45;&gt;Node5223</title>
<path fill="none" stroke="midnightblue" d="M302.525,-49C314.064,-49 326.307,-49 337.699,-49"/>
<polygon fill="midnightblue" stroke="midnightblue" points="337.879,-52.5001 347.879,-49 337.879,-45.5001 337.879,-52.5001"/>
</g>
</g>
</svg>
