<?xml version="1.0" encoding="UTF-8" standalone="no"?>
<!DOCTYPE svg PUBLIC "-//W3C//DTD SVG 1.1//EN"
 "http://www.w3.org/Graphics/SVG/1.1/DTD/svg11.dtd">
<!-- Generated by graphviz version 2.30.1 (20130221.2233)
 -->
<!-- Title: Buzzer::update Pages: 1 -->
<svg width="646pt" height="144pt"
 viewBox="0.00 0.00 646.00 144.00" xmlns="http://www.w3.org/2000/svg" xmlns:xlink="http://www.w3.org/1999/xlink">
<g id="graph0" class="graph" transform="scale(1 1) rotate(0) translate(4 140)">
<title>Buzzer::update</title>
<polygon fill="white" stroke="white" points="-4,5 -4,-140 643,-140 643,5 -4,5"/>
<!-- Node21 -->
<g id="node1" class="node"><title>Node21</title>
<g id="a_node1"><a xlink:title="update &#45; updates buzzer according to timed_updated. Should be called at 50Hz">
<polygon fill="#bfbfbf" stroke="black" points="0.367188,-57 0.367188,-77 83.6328,-77 83.6328,-57 0.367188,-57"/>
<text text-anchor="middle" x="42" y="-63" font-family="Helvetica,sans-Serif" font-size="10.00">Buzzer::update</text>
</a>
</g>
</g>
<!-- Node22 -->
<g id="node2" class="node"><title>Node22</title>
<g id="a_node2"><a xlink:href="classBuzzer.html#ac17dd48ddca77c7f804c7df9f0b1d5f2" target="_top" xlink:title=" ">
<polygon fill="white" stroke="black" points="121.02,-77 121.02,-109 240.98,-109 240.98,-77 121.02,-77"/>
<text text-anchor="start" x="129.02" y="-95" font-family="Helvetica,sans-Serif" font-size="10.00">Buzzer::update_pattern</text>
<text text-anchor="middle" x="181" y="-83" font-family="Helvetica,sans-Serif" font-size="10.00">_to_play</text>
</a>
</g>
</g>
<!-- Node21&#45;&gt;Node22 -->
<g id="edge1" class="edge"><title>Node21&#45;&gt;Node22</title>
<path fill="none" stroke="midnightblue" d="M83.7336,-74.7305C92.3063,-76.3574 101.577,-78.1169 110.864,-79.8793"/>
<polygon fill="midnightblue" stroke="midnightblue" points="110.438,-83.3608 120.915,-81.7868 111.743,-76.4835 110.438,-83.3608"/>
</g>
<!-- Node26 -->
<g id="node6" class="node"><title>Node26</title>
<g id="a_node6"><a xlink:href="classBuzzer.html#aa168040cd88ed6ad732e2e05c1482e09" target="_top" xlink:title=" ">
<polygon fill="white" stroke="black" points="120.742,-26 120.742,-58 241.258,-58 241.258,-26 120.742,-26"/>
<text text-anchor="start" x="128.742" y="-44" font-family="Helvetica,sans-Serif" font-size="10.00">Buzzer::update_playing</text>
<text text-anchor="middle" x="181" y="-32" font-family="Helvetica,sans-Serif" font-size="10.00">_pattern</text>
</a>
</g>
</g>
<!-- Node21&#45;&gt;Node26 -->
<g id="edge6" class="edge"><title>Node21&#45;&gt;Node26</title>
<path fill="none" stroke="midnightblue" d="M83.7336,-59.5669C92.2484,-58.0131 101.452,-56.3335 110.676,-54.6504"/>
<polygon fill="midnightblue" stroke="midnightblue" points="111.452,-58.0667 120.661,-52.8283 110.195,-51.1804 111.452,-58.0667"/>
</g>
<!-- Node23 -->
<g id="node3" class="node"><title>Node23</title>
<g id="a_node3"><a xlink:href="classBuzzer.html#a756d95f57935decea40b5df0f716dc07" target="_top" xlink:title="play_pattern &#45; plays the defined buzzer pattern">
<polygon fill="white" stroke="black" points="278.141,-116 278.141,-136 385.859,-136 385.859,-116 278.141,-116"/>
<text text-anchor="middle" x="332" y="-122" font-family="Helvetica,sans-Serif" font-size="10.00">Buzzer::play_pattern</text>
</a>
</g>
</g>
<!-- Node22&#45;&gt;Node23 -->
<g id="edge2" class="edge"><title>Node22&#45;&gt;Node23</title>
<path fill="none" stroke="midnightblue" d="M241.317,-106.137C252.625,-108.642 264.421,-111.254 275.601,-113.731"/>
<polygon fill="midnightblue" stroke="midnightblue" points="275.144,-117.214 285.664,-115.959 276.658,-110.38 275.144,-117.214"/>
</g>
<!-- Node24 -->
<g id="node4" class="node"><title>Node24</title>
<g id="a_node4"><a xlink:href="namespaceAP__HAL.html#a77dffbb18891996280308e21316ec186" target="_top" xlink:title=" ">
<polygon fill="white" stroke="black" points="436.936,-77 436.936,-97 519.064,-97 519.064,-77 436.936,-77"/>
<text text-anchor="middle" x="478" y="-83" font-family="Helvetica,sans-Serif" font-size="10.00">AP_HAL::millis</text>
</a>
</g>
</g>
<!-- Node22&#45;&gt;Node24 -->
<g id="edge5" class="edge"><title>Node22&#45;&gt;Node24</title>
<path fill="none" stroke="midnightblue" d="M240.989,-91.8002C295.259,-90.6964 374.897,-89.0767 426.352,-88.0301"/>
<polygon fill="midnightblue" stroke="midnightblue" points="426.641,-91.5251 436.568,-87.8224 426.498,-84.5265 426.641,-91.5251"/>
</g>
<!-- Node23&#45;&gt;Node24 -->
<g id="edge3" class="edge"><title>Node23&#45;&gt;Node24</title>
<path fill="none" stroke="midnightblue" d="M370.084,-115.957C388.392,-110.998 410.675,-104.963 430.15,-99.6886"/>
<polygon fill="midnightblue" stroke="midnightblue" points="431.305,-103.002 440.042,-97.0094 429.475,-96.2454 431.305,-103.002"/>
</g>
<!-- Node25 -->
<g id="node5" class="node"><title>Node25</title>
<g id="a_node5"><a xlink:href="hrt_8c.html#a1295f128f60d29874243b5733c4db025" target="_top" xlink:title=" ">
<polygon fill="white" stroke="black" points="570.714,-77 570.714,-97 637.286,-97 637.286,-77 570.714,-77"/>
<text text-anchor="middle" x="604" y="-83" font-family="Helvetica,sans-Serif" font-size="10.00">hrt_millis32</text>
</a>
</g>
</g>
<!-- Node24&#45;&gt;Node25 -->
<g id="edge4" class="edge"><title>Node24&#45;&gt;Node25</title>
<path fill="none" stroke="midnightblue" d="M519.259,-87C532.317,-87 546.847,-87 560.09,-87"/>
<polygon fill="midnightblue" stroke="midnightblue" points="560.381,-90.5001 570.381,-87 560.381,-83.5001 560.381,-90.5001"/>
</g>
<!-- Node26&#45;&gt;Node24 -->
<g id="edge7" class="edge"><title>Node26&#45;&gt;Node24</title>
<path fill="none" stroke="midnightblue" d="M241.343,-51.0523C295.648,-59.3362 375.136,-71.4614 426.475,-79.2929"/>
<polygon fill="midnightblue" stroke="midnightblue" points="426.255,-82.7996 436.668,-80.8477 427.31,-75.8796 426.255,-82.7996"/>
</g>
<!-- Node27 -->
<g id="node7" class="node"><title>Node27</title>
<g id="a_node7"><a xlink:href="classBuzzer.html#a7febd0198541a90c55bae1fd5db8aa0a" target="_top" xlink:title="on &#45; turns the buzzer on or off">
<polygon fill="white" stroke="black" points="300.099,-0 300.099,-20 363.901,-20 363.901,-0 300.099,-0"/>
<text text-anchor="middle" x="332" y="-6" font-family="Helvetica,sans-Serif" font-size="10.00">Buzzer::on</text>
</a>
</g>
</g>
<!-- Node26&#45;&gt;Node27 -->
<g id="edge8" class="edge"><title>Node26&#45;&gt;Node27</title>
<path fill="none" stroke="midnightblue" d="M241.317,-29.2608C257.538,-25.7771 274.761,-22.0781 289.733,-18.8627"/>
<polygon fill="midnightblue" stroke="midnightblue" points="290.656,-22.2444 299.698,-16.7226 289.186,-15.4004 290.656,-22.2444"/>
</g>
<!-- Node28 -->
<g id="node8" class="node"><title>Node28</title>
<g id="a_node8"><a xlink:href="classAP__HAL_1_1GPIO.html#a2b0664bdab1876e3b0bbcd9064eec88e" target="_top" xlink:title=" ">
<polygon fill="white" stroke="black" points="422.207,-0 422.207,-20 533.793,-20 533.793,-0 422.207,-0"/>
<text text-anchor="middle" x="478" y="-6" font-family="Helvetica,sans-Serif" font-size="10.00">AP_HAL::GPIO::write</text>
</a>
</g>
</g>
<!-- Node27&#45;&gt;Node28 -->
<g id="edge9" class="edge"><title>Node27&#45;&gt;Node28</title>
<path fill="none" stroke="midnightblue" d="M364.246,-10C378.22,-10 395.248,-10 411.793,-10"/>
<polygon fill="midnightblue" stroke="midnightblue" points="412.001,-13.5001 422.001,-10 412.001,-6.5001 412.001,-13.5001"/>
</g>
</g>
</svg>
