<?xml version="1.0" encoding="UTF-8" standalone="no"?>
<!DOCTYPE svg PUBLIC "-//W3C//DTD SVG 1.1//EN"
 "http://www.w3.org/Graphics/SVG/1.1/DTD/svg11.dtd">
<!-- Generated by graphviz version 2.30.1 (20130221.2233)
 -->
<!-- Title: NavEKF2::getHAGL Pages: 1 -->
<!--zoomable 86 -->
<svg id="main" version="1.1" xmlns="http://www.w3.org/2000/svg" xmlns:xlink="http://www.w3.org/1999/xlink" xml:space="preserve" onload="init(evt)">
<style type="text/css"><![CDATA[
.edge:hover path { stroke: red; }
.edge:hover polygon { stroke: red; fill: red; }
]]></style>
<script type="text/javascript"><![CDATA[
var edges = document.getElementsByTagName('g');
if (edges && edges.length) {
  for (var i=0;i<edges.length;i++) {
    if (edges[i].id.substr(0,4)=='edge') {
      edges[i].setAttribute('class','edge');
    }
  }
}
]]></script>
        <defs>
                <circle id="rim" cx="0" cy="0" r="7"/>
                <circle id="rim2" cx="0" cy="0" r="3.5"/>
                <g id="zoomPlus">
                        <use xlink:href="#rim" fill="#404040">
                                <set attributeName="fill" to="#808080" begin="zoomplus.mouseover" end="zoomplus.mouseout"/>
                        </use>
                        <path d="M-4,0h8M0,-4v8" fill="none" stroke="white" stroke-width="1.5" pointer-events="none"/>
                </g>
                <g id="zoomMin">
                        <use xlink:href="#rim" fill="#404040">
                                <set attributeName="fill" to="#808080" begin="zoomminus.mouseover" end="zoomminus.mouseout"/>
                        </use>
                        <path d="M-4,0h8" fill="none" stroke="white" stroke-width="1.5" pointer-events="none"/>
                </g>
                <g id="dirArrow">
                        <path fill="none" stroke="white" stroke-width="1.5" d="M0,-3.0v7 M-2.5,-0.5L0,-3.0L2.5,-0.5"/>
                </g>
               <g id="resetDef">
                       <use xlink:href="#rim2" fill="#404040">
                               <set attributeName="fill" to="#808080" begin="reset.mouseover" end="reset.mouseout"/>
                       </use>
               </g>
        </defs>

<script type="text/javascript">
var viewWidth = 766;
var viewHeight = 86;
var sectionId = 'dynsection-32';
</script>
<script xlink:href="svgpan.js"/>
<svg id="graph" class="graph">
<g id="viewport">
<title>NavEKF2::getHAGL</title>
<polygon fill="white" stroke="white" points="-4,5 -4,-82 763,-82 763,5 -4,5"/>
<!-- Node550 -->
<g id="node1" class="node"><title>Node550</title>
<g id="a_node1"><a xlink:title=" ">
<polygon fill="#bfbfbf" stroke="black" points="0.258789,-19 0.258789,-39 105.741,-39 105.741,-19 0.258789,-19"/>
<text text-anchor="middle" x="53" y="-25" font-family="Helvetica,sans-Serif" font-size="10.00">NavEKF2::getHAGL</text>
</a>
</g>
</g>
<!-- Node551 -->
<g id="node2" class="node"><title>Node551</title>
<g id="a_node2"><a xlink:href="classNavEKF2__core.html#aa150c335cc5920be7b579e0b55a4e9eb" target="_top" xlink:title=" ">
<polygon fill="white" stroke="black" points="141.751,-19 141.751,-39 272.249,-39 272.249,-19 141.751,-19"/>
<text text-anchor="middle" x="207" y="-25" font-family="Helvetica,sans-Serif" font-size="10.00">NavEKF2_core::getHAGL</text>
</a>
</g>
</g>
<!-- Node550&#45;&gt;Node551 -->
<g id="edge1" class="edge"><title>Node550&#45;&gt;Node551</title>
<path fill="none" stroke="midnightblue" d="M105.885,-29C114.168,-29 122.877,-29 131.56,-29"/>
<polygon fill="midnightblue" stroke="midnightblue" points="131.712,-32.5001 141.712,-29 131.712,-25.5001 131.712,-32.5001"/>
</g>
<!-- Node552 -->
<g id="node3" class="node"><title>Node552</title>
<g id="a_node3"><a xlink:href="classNavEKF2__core.html#a66754380c8cb82819db95fc2b3838037" target="_top" xlink:title=" ">
<polygon fill="white" stroke="black" points="308.195,-19 308.195,-39 429.805,-39 429.805,-19 308.195,-19"/>
<text text-anchor="middle" x="369" y="-25" font-family="Helvetica,sans-Serif" font-size="10.00">NavEKF2_core::healthy</text>
</a>
</g>
</g>
<!-- Node551&#45;&gt;Node552 -->
<g id="edge2" class="edge"><title>Node551&#45;&gt;Node552</title>
<path fill="none" stroke="midnightblue" d="M272.617,-29C280.941,-29 289.496,-29 297.903,-29"/>
<polygon fill="midnightblue" stroke="midnightblue" points="298.058,-32.5001 308.058,-29 298.058,-25.5001 298.058,-32.5001"/>
</g>
<!-- Node553 -->
<g id="node4" class="node"><title>Node553</title>
<g id="a_node4"><a xlink:href="classNavEKF2__core.html#a592b9676c553d0032005f9dba248f983" target="_top" xlink:title=" ">
<polygon fill="white" stroke="black" points="466.641,-39 466.641,-59 619.359,-59 619.359,-39 466.641,-39"/>
<text text-anchor="middle" x="543" y="-45" font-family="Helvetica,sans-Serif" font-size="10.00">NavEKF2_core::getFilterFaults</text>
</a>
</g>
</g>
<!-- Node552&#45;&gt;Node553 -->
<g id="edge3" class="edge"><title>Node552&#45;&gt;Node553</title>
<path fill="none" stroke="midnightblue" d="M430.157,-35.995C438.674,-36.9853 447.563,-38.019 456.446,-39.0519"/>
<polygon fill="midnightblue" stroke="midnightblue" points="456.115,-42.5369 466.453,-40.2154 456.924,-35.5838 456.115,-42.5369"/>
</g>
<!-- Node556 -->
<g id="node7" class="node"><title>Node556</title>
<g id="a_node7"><a xlink:href="AP__Math_8h.html#a0375e3d67fd3911cacee5c3e1408c0f2" target="_top" xlink:title=" ">
<polygon fill="white" stroke="black" points="528.5,-0 528.5,-20 557.5,-20 557.5,-0 528.5,-0"/>
<text text-anchor="middle" x="543" y="-6" font-family="Helvetica,sans-Serif" font-size="10.00">sq</text>
</a>
</g>
</g>
<!-- Node552&#45;&gt;Node556 -->
<g id="edge6" class="edge"><title>Node552&#45;&gt;Node556</title>
<path fill="none" stroke="midnightblue" d="M430.157,-22.3547C460.461,-19.0072 495.484,-15.1384 518.148,-12.6348"/>
<polygon fill="midnightblue" stroke="midnightblue" points="518.651,-16.1006 528.206,-11.5237 517.882,-9.14295 518.651,-16.1006"/>
</g>
<!-- Node554 -->
<g id="node5" class="node"><title>Node554</title>
<g id="a_node5"><a xlink:href="classQuaternion.html#abcf4d5106b0d09f6a443050bfd8b4bc9" target="_top" xlink:title=" ">
<polygon fill="white" stroke="black" points="656.749,-58 656.749,-78 757.251,-78 757.251,-58 656.749,-58"/>
<text text-anchor="middle" x="707" y="-64" font-family="Helvetica,sans-Serif" font-size="10.00">Quaternion::is_nan</text>
</a>
</g>
</g>
<!-- Node553&#45;&gt;Node554 -->
<g id="edge4" class="edge"><title>Node553&#45;&gt;Node554</title>
<path fill="none" stroke="midnightblue" d="M619.783,-57.8881C628.779,-58.9432 637.862,-60.0085 646.584,-61.0315"/>
<polygon fill="midnightblue" stroke="midnightblue" points="646.292,-64.5211 656.632,-62.2099 647.107,-57.5688 646.292,-64.5211"/>
</g>
<!-- Node555 -->
<g id="node6" class="node"><title>Node555</title>
<g id="a_node6"><a xlink:href="classVector3.html#a938ff6c07ddb4789f64e2c1709a590b5" target="_top" xlink:title=" ">
<polygon fill="white" stroke="black" points="664.53,-19 664.53,-39 749.47,-39 749.47,-19 664.53,-19"/>
<text text-anchor="middle" x="707" y="-25" font-family="Helvetica,sans-Serif" font-size="10.00">Vector3::is_nan</text>
</a>
</g>
</g>
<!-- Node553&#45;&gt;Node555 -->
<g id="edge5" class="edge"><title>Node553&#45;&gt;Node555</title>
<path fill="none" stroke="midnightblue" d="M619.783,-39.6441C631.39,-38.2111 643.14,-36.7604 654.076,-35.4104"/>
<polygon fill="midnightblue" stroke="midnightblue" points="654.784,-38.8497 664.279,-34.1507 653.926,-31.9024 654.784,-38.8497"/>
</g>
</g>
</svg>
        <g id="navigator" transform="translate(0 0)" fill="#404254">
                <rect fill="#f2f5e9" fill-opacity="0.5" stroke="#606060" stroke-width=".5" x="0" y="0" width="60" height="60"/>
                <use id="zoomplus" xlink:href="#zoomPlus" x="17" y="9" onmousedown="handleZoom(evt,'in')"/>
                <use id="zoomminus" xlink:href="#zoomMin" x="42" y="9" onmousedown="handleZoom(evt,'out')"/>
                <use id="reset" xlink:href="#resetDef" x="30" y="36" onmousedown="handleReset()"/>
                <g id="arrowUp" xlink:href="#dirArrow" transform="translate(30 24)" onmousedown="handlePan(0,-1)">
                  <use xlink:href="#rim" fill="#404040">
                        <set attributeName="fill" to="#808080" begin="arrowUp.mouseover" end="arrowUp.mouseout"/>
                  </use>
                  <path fill="none" stroke="white" stroke-width="1.5" d="M0,-3.0v7 M-2.5,-0.5L0,-3.0L2.5,-0.5"/>
                </g>
                <g id="arrowRight" xlink:href="#dirArrow" transform="rotate(90) translate(36 -43)" onmousedown="handlePan(1,0)">
                  <use xlink:href="#rim" fill="#404040">
                        <set attributeName="fill" to="#808080" begin="arrowRight.mouseover" end="arrowRight.mouseout"/>
                  </use>
                  <path fill="none" stroke="white" stroke-width="1.5" d="M0,-3.0v7 M-2.5,-0.5L0,-3.0L2.5,-0.5"/>
                </g>
                <g id="arrowDown" xlink:href="#dirArrow" transform="rotate(180) translate(-30 -48)" onmousedown="handlePan(0,1)">
                  <use xlink:href="#rim" fill="#404040">
                        <set attributeName="fill" to="#808080" begin="arrowDown.mouseover" end="arrowDown.mouseout"/>
                  </use>
                  <path fill="none" stroke="white" stroke-width="1.5" d="M0,-3.0v7 M-2.5,-0.5L0,-3.0L2.5,-0.5"/>
                </g>
                <g id="arrowLeft" xlink:href="#dirArrow" transform="rotate(270) translate(-36 17)" onmousedown="handlePan(-1,0)">
                  <use xlink:href="#rim" fill="#404040">
                        <set attributeName="fill" to="#808080" begin="arrowLeft.mouseover" end="arrowLeft.mouseout"/>
                  </use>
                  <path fill="none" stroke="white" stroke-width="1.5" d="M0,-3.0v7 M-2.5,-0.5L0,-3.0L2.5,-0.5"/>
                </g>
        </g>
        <svg viewBox="0 0 15 15" width="100%" height="30px" preserveAspectRatio="xMaxYMin meet">
         <g id="arrow_out" transform="scale(0.3 0.3)">
          <a xlink:href="classNavEKF2_ab3aa381ed30686159cfcf0dd38e7eb29_cgraph_org.svg" target="_base">
           <rect id="button" ry="5" rx="5" y="6" x="6" height="38" width="38"
                fill="#f2f5e9" fill-opacity="0.5" stroke="#606060" stroke-width="1.0"/>
           <path id="arrow"
             d="M 11.500037,31.436501 C 11.940474,20.09759 22.043105,11.32322 32.158766,21.979434 L 37.068811,17.246167 C 37.068811,17.246167 37.088388,32 37.088388,32 L 22.160133,31.978069 C 22.160133,31.978069 26.997745,27.140456 26.997745,27.140456 C 18.528582,18.264221 13.291696,25.230495 11.500037,31.436501 z"
             style="fill:#404040;"/>
          </a>
         </g>
        </svg>
</svg>
