<?xml version="1.0" encoding="UTF-8" standalone="no"?>
<!DOCTYPE svg PUBLIC "-//W3C//DTD SVG 1.1//EN"
 "http://www.w3.org/Graphics/SVG/1.1/DTD/svg11.dtd">
<!-- Generated by graphviz version 2.30.1 (20130221.2233)
 -->
<!-- Title: Linux::GPIO_Sysfs::write Pages: 1 -->
<svg width="958pt" height="536pt"
 viewBox="0.00 0.00 958.00 535.55" xmlns="http://www.w3.org/2000/svg" xmlns:xlink="http://www.w3.org/1999/xlink">
<g id="graph0" class="graph" transform="scale(1 1) rotate(0) translate(4 531.549)">
<title>Linux::GPIO_Sysfs::write</title>
<polygon fill="white" stroke="white" points="-4,5 -4,-531.549 955,-531.549 955,5 -4,5"/>
<!-- Node214 -->
<g id="node1" class="node"><title>Node214</title>
<g id="a_node1"><a xlink:title=" ">
<polygon fill="#bfbfbf" stroke="black" points="-0.0170898,-314.549 -0.0170898,-346.549 106.017,-346.549 106.017,-314.549 -0.0170898,-314.549"/>
<text text-anchor="start" x="7.98291" y="-332.549" font-family="Helvetica,sans-Serif" font-size="10.00">Linux::GPIO_Sysfs::</text>
<text text-anchor="middle" x="53" y="-320.549" font-family="Helvetica,sans-Serif" font-size="10.00">write</text>
</a>
</g>
</g>
<!-- Node215 -->
<g id="node2" class="node"><title>Node215</title>
<g id="a_node2"><a xlink:href="classLinux_1_1GPIO__Sysfs.html#a725e9f1723b9588623594118392c771f" target="_top" xlink:title=" ">
<polygon fill="white" stroke="black" points="141.983,-264.549 141.983,-296.549 248.017,-296.549 248.017,-264.549 141.983,-264.549"/>
<text text-anchor="start" x="149.983" y="-282.549" font-family="Helvetica,sans-Serif" font-size="10.00">Linux::GPIO_Sysfs::</text>
<text text-anchor="middle" x="195" y="-270.549" font-family="Helvetica,sans-Serif" font-size="10.00">_open_pin_value</text>
</a>
</g>
</g>
<!-- Node214&#45;&gt;Node215 -->
<g id="edge1" class="edge"><title>Node214&#45;&gt;Node215</title>
<path fill="none" stroke="midnightblue" d="M99.0675,-314.453C111.932,-309.859 126.089,-304.803 139.454,-300.03"/>
<polygon fill="midnightblue" stroke="midnightblue" points="140.777,-303.274 149.017,-296.614 138.422,-296.682 140.777,-303.274"/>
</g>
<!-- Node239 -->
<g id="node26" class="node"><title>Node239</title>
<g id="a_node26"><a xlink:href="main_8c.html#a9d87237c8a191a7bb92fc78770e62592" target="_top" xlink:title=" ">
<polygon fill="white" stroke="black" points="176.443,-336.549 176.443,-356.549 213.557,-356.549 213.557,-336.549 176.443,-336.549"/>
<text text-anchor="middle" x="195" y="-342.549" font-family="Helvetica,sans-Serif" font-size="10.00">error</text>
</a>
</g>
</g>
<!-- Node214&#45;&gt;Node239 -->
<g id="edge38" class="edge"><title>Node214&#45;&gt;Node239</title>
<path fill="none" stroke="midnightblue" d="M106.131,-336.507C126.411,-338.824 148.835,-341.387 165.954,-343.344"/>
<polygon fill="midnightblue" stroke="midnightblue" points="166.029,-346.875 176.362,-344.533 166.824,-339.92 166.029,-346.875"/>
</g>
<!-- Node240 -->
<g id="node27" class="node"><title>Node240</title>
<g id="a_node27"><a xlink:href="posix_8c.html#a8877deace0c63591fee0cc9c94d249d3" target="_top" xlink:title="POSIX Close a file with fileno handel.">
<polygon fill="white" stroke="black" points="324.328,-81.549 324.328,-101.549 363.672,-101.549 363.672,-81.549 324.328,-81.549"/>
<text text-anchor="middle" x="344" y="-87.549" font-family="Helvetica,sans-Serif" font-size="10.00">close</text>
</a>
</g>
</g>
<!-- Node214&#45;&gt;Node240 -->
<g id="edge40" class="edge"><title>Node214&#45;&gt;Node240</title>
<path fill="none" stroke="midnightblue" d="M72.3986,-314.368C90.1043,-298.866 117.696,-274.89 142,-254.549 207.068,-200.09 285.525,-137.271 322.202,-108.066"/>
<polygon fill="midnightblue" stroke="midnightblue" points="324.543,-110.676 330.189,-101.712 320.185,-105.198 324.543,-110.676"/>
</g>
<!-- Node231 -->
<g id="node18" class="node"><title>Node231</title>
<g id="a_node18"><a xlink:href="classAP__HAL_1_1BetterStream.html#a8534aa004599bb81ad60f3e762791032" target="_top" xlink:title=" ">
<polygon fill="white" stroke="black" points="284.589,-430.549 284.589,-462.549 403.411,-462.549 403.411,-430.549 284.589,-430.549"/>
<text text-anchor="start" x="292.589" y="-448.549" font-family="Helvetica,sans-Serif" font-size="10.00">AP_HAL::BetterStream</text>
<text text-anchor="middle" x="344" y="-436.549" font-family="Helvetica,sans-Serif" font-size="10.00">::printf</text>
</a>
</g>
</g>
<!-- Node214&#45;&gt;Node231 -->
<g id="edge46" class="edge"><title>Node214&#45;&gt;Node231</title>
<path fill="none" stroke="midnightblue" d="M93.8808,-346.556C145.991,-367.473 237.224,-404.092 293.638,-426.736"/>
<polygon fill="midnightblue" stroke="midnightblue" points="292.481,-430.043 303.065,-430.52 295.088,-423.546 292.481,-430.043"/>
</g>
<!-- Node216 -->
<g id="node3" class="node"><title>Node216</title>
<g id="a_node3"><a xlink:href="stdio_8h.html#a37c1e8ce8a2b411fa666dc33972a2cec" target="_top" xlink:title=" ">
<polygon fill="white" stroke="black" points="319.604,-216.549 319.604,-236.549 368.396,-236.549 368.396,-216.549 319.604,-216.549"/>
<text text-anchor="middle" x="344" y="-222.549" font-family="Helvetica,sans-Serif" font-size="10.00">snprintf</text>
</a>
</g>
</g>
<!-- Node215&#45;&gt;Node216 -->
<g id="edge2" class="edge"><title>Node215&#45;&gt;Node216</title>
<path fill="none" stroke="midnightblue" d="M234.775,-264.478C250.03,-258.326 267.754,-251.388 284,-245.549 292.298,-242.567 301.328,-239.547 309.772,-236.819"/>
<polygon fill="midnightblue" stroke="midnightblue" points="310.87,-240.143 319.336,-233.771 308.745,-233.473 310.87,-240.143"/>
</g>
<!-- Node217 -->
<g id="node4" class="node"><title>Node217</title>
<g id="a_node4"><a xlink:href="posix_8c.html#adcb60598073f6f9cbb0091ef6768fa5c" target="_top" xlink:title="POSIX Open a file with integer mode flags.">
<polygon fill="white" stroke="black" points="324.877,-255.549 324.877,-275.549 363.123,-275.549 363.123,-255.549 324.877,-255.549"/>
<text text-anchor="middle" x="344" y="-261.549" font-family="Helvetica,sans-Serif" font-size="10.00">open</text>
</a>
</g>
</g>
<!-- Node215&#45;&gt;Node217 -->
<g id="edge3" class="edge"><title>Node215&#45;&gt;Node217</title>
<path fill="none" stroke="midnightblue" d="M248.241,-275.218C270.696,-272.927 296.048,-270.34 314.875,-268.419"/>
<polygon fill="midnightblue" stroke="midnightblue" points="315.276,-271.896 324.869,-267.399 314.565,-264.932 315.276,-271.896"/>
</g>
<!-- Node215&#45;&gt;Node231 -->
<g id="edge28" class="edge"><title>Node215&#45;&gt;Node231</title>
<path fill="none" stroke="midnightblue" d="M216.015,-296.81C226.008,-305.282 238.056,-316.046 248,-326.549 277.416,-357.617 307.41,-397.075 325.619,-422.079"/>
<polygon fill="midnightblue" stroke="midnightblue" points="322.854,-424.228 331.548,-430.283 328.527,-420.128 322.854,-424.228"/>
</g>
<!-- Node218 -->
<g id="node5" class="node"><title>Node218</title>
<g id="a_node5"><a xlink:href="posix_8c.html#af86fa14728c9bad5418a6d29cad9f9ff" target="_top" xlink:title="Convert POSIX stream pointer to POSIX fileno (index of __iob[])">
<polygon fill="white" stroke="black" points="762.047,-61.549 762.047,-81.549 801.953,-81.549 801.953,-61.549 762.047,-61.549"/>
<text text-anchor="middle" x="782" y="-67.549" font-family="Helvetica,sans-Serif" font-size="10.00">fileno</text>
</a>
</g>
</g>
<!-- Node217&#45;&gt;Node218 -->
<g id="edge4" class="edge"><title>Node217&#45;&gt;Node218</title>
<path fill="none" stroke="midnightblue" d="M363.4,-265.588C426.283,-265.406 631.747,-262.124 686,-227.549 736.431,-195.409 764.115,-125.962 775.198,-91.6171"/>
<polygon fill="midnightblue" stroke="midnightblue" points="778.626,-92.3783 778.221,-81.7913 771.935,-90.3201 778.626,-92.3783"/>
</g>
<!-- Node219 -->
<g id="node6" class="node"><title>Node219</title>
<g id="a_node6"><a xlink:href="posix_8c.html#aeb68afd2fdf966f8d89cc7aaa9aa7c23" target="_top" xlink:title="Convert FafFs error result to POSIX errno. NOT POSIX.">
<polygon fill="white" stroke="black" points="602.148,-295.549 602.148,-315.549 679.852,-315.549 679.852,-295.549 602.148,-295.549"/>
<text text-anchor="middle" x="641" y="-301.549" font-family="Helvetica,sans-Serif" font-size="10.00">fatfs_to_errno</text>
</a>
</g>
</g>
<!-- Node217&#45;&gt;Node219 -->
<g id="edge5" class="edge"><title>Node217&#45;&gt;Node219</title>
<path fill="none" stroke="midnightblue" d="M353.075,-275.704C367.986,-293.538 401.826,-329.885 440,-343.549 490.214,-361.522 507.972,-355.278 560,-343.549 579.626,-339.125 600.089,-329.296 615.406,-320.743"/>
<polygon fill="midnightblue" stroke="midnightblue" points="617.32,-323.679 624.224,-315.643 613.815,-317.62 617.32,-323.679"/>
</g>
<!-- Node220 -->
<g id="node7" class="node"><title>Node220</title>
<g id="a_node7"><a xlink:href="posix_8c.html#a96d98c05b05d85e1ae97953f04f5b386" target="_top" xlink:title="Allocate a POSIX FILE descriptor. NOT POSIX.">
<polygon fill="white" stroke="black" points="448.921,-159.549 448.921,-179.549 551.079,-179.549 551.079,-159.549 448.921,-159.549"/>
<text text-anchor="middle" x="500" y="-165.549" font-family="Helvetica,sans-Serif" font-size="10.00">new_file_descriptor</text>
</a>
</g>
</g>
<!-- Node217&#45;&gt;Node220 -->
<g id="edge6" class="edge"><title>Node217&#45;&gt;Node220</title>
<path fill="none" stroke="midnightblue" d="M363.233,-261.14C375.252,-257.814 391.097,-252.611 404,-245.549 433.563,-229.368 463.18,-203.833 481.299,-186.89"/>
<polygon fill="midnightblue" stroke="midnightblue" points="483.944,-189.205 488.773,-179.775 479.117,-184.135 483.944,-189.205"/>
</g>
<!-- Node226 -->
<g id="node13" class="node"><title>Node226</title>
<g id="a_node13"><a xlink:href="posix_8c.html#ae0821388c321f66b16fbca4a625022de" target="_top" xlink:title="Convert POSIX fileno to POSIX FILE stream pointer. NOT POSIX.">
<polygon fill="white" stroke="black" points="596.035,-42.549 596.035,-62.549 685.965,-62.549 685.965,-42.549 596.035,-42.549"/>
<text text-anchor="middle" x="641" y="-48.549" font-family="Helvetica,sans-Serif" font-size="10.00">fileno_to_stream</text>
</a>
</g>
</g>
<!-- Node217&#45;&gt;Node226 -->
<g id="edge13" class="edge"><title>Node217&#45;&gt;Node226</title>
<path fill="none" stroke="midnightblue" d="M363.161,-263.899C376.261,-261.759 393.432,-256.841 404,-245.549 446.431,-200.21 396.569,-154.931 440,-110.549 450.525,-99.7932 531.964,-78.4933 587.619,-64.915"/>
<polygon fill="midnightblue" stroke="midnightblue" points="588.45,-68.3149 597.344,-62.5567 586.801,-61.512 588.45,-68.3149"/>
</g>
<!-- Node227 -->
<g id="node14" class="node"><title>Node227</title>
<g id="a_node14"><a xlink:href="posix_8c.html#a9d5502ebc4eba38ea5ef6ca4ba71bc02" target="_top" xlink:title="Free POSIX fileno FILE descriptor. NOT POSIX.">
<polygon fill="white" stroke="black" points="449.478,-120.549 449.478,-140.549 550.522,-140.549 550.522,-120.549 449.478,-120.549"/>
<text text-anchor="middle" x="500" y="-126.549" font-family="Helvetica,sans-Serif" font-size="10.00">free_file_descriptor</text>
</a>
</g>
</g>
<!-- Node217&#45;&gt;Node227 -->
<g id="edge15" class="edge"><title>Node217&#45;&gt;Node227</title>
<path fill="none" stroke="midnightblue" d="M363.39,-263.49C376.26,-261.148 393.046,-256.159 404,-245.549 436.732,-213.846 407.027,-181.001 440,-149.549 441.431,-148.184 442.96,-146.917 444.567,-145.742"/>
<polygon fill="midnightblue" stroke="midnightblue" points="446.373,-148.74 453.141,-140.588 442.767,-142.74 446.373,-148.74"/>
</g>
<!-- Node228 -->
<g id="node15" class="node"><title>Node228</title>
<g id="a_node15"><a xlink:href="posix_8c.html#a1eeda4d85cf3cae5cf1ee8c1e196a686" target="_top" xlink:title="Convert POSIX fileno to FatFS handle NOT POSIX.">
<polygon fill="white" stroke="black" points="460.867,-42.549 460.867,-62.549 539.133,-62.549 539.133,-42.549 460.867,-42.549"/>
<text text-anchor="middle" x="500" y="-48.549" font-family="Helvetica,sans-Serif" font-size="10.00">fileno_to_fatfs</text>
</a>
</g>
</g>
<!-- Node217&#45;&gt;Node228 -->
<g id="edge20" class="edge"><title>Node217&#45;&gt;Node228</title>
<path fill="none" stroke="midnightblue" d="M363.326,-264.05C376.51,-261.986 393.715,-257.099 404,-245.549 454.783,-188.521 391.361,-136.416 440,-77.549 443.325,-73.525 447.413,-70.1362 451.873,-67.285"/>
<polygon fill="midnightblue" stroke="midnightblue" points="453.684,-70.2842 460.805,-62.4389 450.346,-64.1315 453.684,-70.2842"/>
</g>
<!-- Node229 -->
<g id="node16" class="node"><title>Node229</title>
<g id="a_node16"><a xlink:href="posix_8c.html#a90d998e82aa4f903a1570c0c48aeae59" target="_top" xlink:title="Private FatFs function called by fputc() to put a byte from file stream NOT POSIX open() assigns stre...">
<polygon fill="white" stroke="black" points="470.32,-314.549 470.32,-334.549 529.68,-334.549 529.68,-314.549 470.32,-314.549"/>
<text text-anchor="middle" x="500" y="-320.549" font-family="Helvetica,sans-Serif" font-size="10.00">fatfs_putc</text>
</a>
</g>
</g>
<!-- Node217&#45;&gt;Node229 -->
<g id="edge24" class="edge"><title>Node217&#45;&gt;Node229</title>
<path fill="none" stroke="midnightblue" d="M363.432,-273.518C382.473,-281.655 413.117,-294.486 440,-304.549 446.533,-306.995 453.52,-309.477 460.316,-311.824"/>
<polygon fill="midnightblue" stroke="midnightblue" points="459.469,-315.232 470.063,-315.143 461.725,-308.606 459.469,-315.232"/>
</g>
<!-- Node230 -->
<g id="node17" class="node"><title>Node230</title>
<g id="a_node17"><a xlink:href="posix_8c.html#a479c82c9a415915568fb1e799bc545c9" target="_top" xlink:title="Formt SD card.">
<polygon fill="white" stroke="black" points="470.32,-275.549 470.32,-295.549 529.68,-295.549 529.68,-275.549 470.32,-275.549"/>
<text text-anchor="middle" x="500" y="-281.549" font-family="Helvetica,sans-Serif" font-size="10.00">fatfs_getc</text>
</a>
</g>
</g>
<!-- Node217&#45;&gt;Node230 -->
<g id="edge26" class="edge"><title>Node217&#45;&gt;Node230</title>
<path fill="none" stroke="midnightblue" d="M363.271,-267.922C387.036,-271.008 429.177,-276.481 460.218,-280.512"/>
<polygon fill="midnightblue" stroke="midnightblue" points="459.909,-284.002 470.276,-281.819 460.811,-277.06 459.909,-284.002"/>
</g>
<!-- Node221 -->
<g id="node8" class="node"><title>Node221</title>
<g id="a_node8"><a xlink:href="posix_8c.html#aeac589354c9d47c7d9c7c49ba4b0d266" target="_top" xlink:title="Test POSIX fileno if it is a Serial Console/TTY.">
<polygon fill="white" stroke="black" points="621.33,-81.549 621.33,-101.549 660.67,-101.549 660.67,-81.549 621.33,-81.549"/>
<text text-anchor="middle" x="641" y="-87.549" font-family="Helvetica,sans-Serif" font-size="10.00">isatty</text>
</a>
</g>
</g>
<!-- Node220&#45;&gt;Node221 -->
<g id="edge7" class="edge"><title>Node220&#45;&gt;Node221</title>
<path fill="none" stroke="midnightblue" d="M536.347,-159.497C544.316,-156.706 552.602,-153.373 560,-149.549 582.245,-138.051 605.132,-120.808 620.696,-108.11"/>
<polygon fill="midnightblue" stroke="midnightblue" points="623.088,-110.673 628.539,-101.589 618.612,-105.291 623.088,-110.673"/>
</g>
<!-- Node222 -->
<g id="node9" class="node"><title>Node222</title>
<g id="a_node9"><a xlink:href="malloc_8c.html#a62b7798461bd461da64c5f9d35feddf7" target="_top" xlink:title=" ">
<polygon fill="white" stroke="black" points="620.217,-198.549 620.217,-218.549 661.783,-218.549 661.783,-198.549 620.217,-198.549"/>
<text text-anchor="middle" x="641" y="-204.549" font-family="Helvetica,sans-Serif" font-size="10.00">calloc</text>
</a>
</g>
</g>
<!-- Node220&#45;&gt;Node222 -->
<g id="edge9" class="edge"><title>Node220&#45;&gt;Node222</title>
<path fill="none" stroke="midnightblue" d="M536.796,-179.592C559.608,-185.993 588.812,-194.187 610.328,-200.224"/>
<polygon fill="midnightblue" stroke="midnightblue" points="609.638,-203.665 620.212,-202.997 611.529,-196.925 609.638,-203.665"/>
</g>
<!-- Node225 -->
<g id="node12" class="node"><title>Node225</title>
<g id="a_node12"><a xlink:href="malloc_8c.html#afbedc913aa4651b3c3b4b3aecd9b4711" target="_top" xlink:title=" ">
<polygon fill="white" stroke="black" points="624.384,-159.549 624.384,-179.549 657.616,-179.549 657.616,-159.549 624.384,-159.549"/>
<text text-anchor="middle" x="641" y="-165.549" font-family="Helvetica,sans-Serif" font-size="10.00">free</text>
</a>
</g>
</g>
<!-- Node220&#45;&gt;Node225 -->
<g id="edge12" class="edge"><title>Node220&#45;&gt;Node225</title>
<path fill="none" stroke="midnightblue" d="M551.182,-169.549C572.562,-169.549 596.592,-169.549 614.26,-169.549"/>
<polygon fill="midnightblue" stroke="midnightblue" points="614.359,-173.049 624.359,-169.549 614.359,-166.049 614.359,-173.049"/>
</g>
<!-- Node221&#45;&gt;Node218 -->
<g id="edge8" class="edge"><title>Node221&#45;&gt;Node218</title>
<path fill="none" stroke="midnightblue" d="M660.746,-88.8517C684.036,-85.5007 724.044,-79.7441 751.47,-75.7978"/>
<polygon fill="midnightblue" stroke="midnightblue" points="752.259,-79.2205 761.659,-74.3319 751.262,-72.2918 752.259,-79.2205"/>
</g>
<!-- Node223 -->
<g id="node10" class="node"><title>Node223</title>
<g id="a_node10"><a xlink:href="malloc_8c.html#a7ac38fce3243a7dcf448301ee9ffd392" target="_top" xlink:title=" ">
<polygon fill="white" stroke="black" points="759.552,-268.549 759.552,-288.549 804.448,-288.549 804.448,-268.549 759.552,-268.549"/>
<text text-anchor="middle" x="782" y="-274.549" font-family="Helvetica,sans-Serif" font-size="10.00">malloc</text>
</a>
</g>
</g>
<!-- Node222&#45;&gt;Node223 -->
<g id="edge10" class="edge"><title>Node222&#45;&gt;Node223</title>
<path fill="none" stroke="midnightblue" d="M661.915,-218.578C685.552,-230.482 725.156,-250.426 752.147,-264.019"/>
<polygon fill="midnightblue" stroke="midnightblue" points="750.616,-267.166 761.122,-268.538 753.764,-260.914 750.616,-267.166"/>
</g>
<!-- Node224 -->
<g id="node11" class="node"><title>Node224</title>
<g id="a_node11"><a xlink:href="malloc_8c.html#aa5c105052a59261e63119d5203374a41" target="_top" xlink:title=" ">
<polygon fill="white" stroke="black" points="878.209,-268.549 878.209,-288.549 949.791,-288.549 949.791,-268.549 878.209,-268.549"/>
<text text-anchor="middle" x="914" y="-274.549" font-family="Helvetica,sans-Serif" font-size="10.00">malloc_flags</text>
</a>
</g>
</g>
<!-- Node223&#45;&gt;Node224 -->
<g id="edge11" class="edge"><title>Node223&#45;&gt;Node224</title>
<path fill="none" stroke="midnightblue" d="M804.467,-278.549C821.634,-278.549 846.299,-278.549 867.779,-278.549"/>
<polygon fill="midnightblue" stroke="midnightblue" points="868.021,-282.049 878.021,-278.549 868.021,-275.049 868.021,-282.049"/>
</g>
<!-- Node226&#45;&gt;Node218 -->
<g id="edge14" class="edge"><title>Node226&#45;&gt;Node218</title>
<path fill="none" stroke="midnightblue" d="M685.98,-58.5607C707.489,-61.5008 732.785,-64.9585 751.867,-67.5668"/>
<polygon fill="midnightblue" stroke="midnightblue" points="751.655,-71.0702 762.037,-68.9569 752.603,-64.1347 751.655,-71.0702"/>
</g>
<!-- Node227&#45;&gt;Node221 -->
<g id="edge16" class="edge"><title>Node227&#45;&gt;Node221</title>
<path fill="none" stroke="midnightblue" d="M536.796,-120.506C559.884,-114.027 589.521,-105.712 611.107,-99.6556"/>
<polygon fill="midnightblue" stroke="midnightblue" points="612.311,-102.953 620.994,-96.8817 610.42,-96.2133 612.311,-102.953"/>
</g>
<!-- Node227&#45;&gt;Node218 -->
<g id="edge17" class="edge"><title>Node227&#45;&gt;Node218</title>
<path fill="none" stroke="midnightblue" d="M550.748,-128.965C588.379,-126.859 641.067,-121.956 686,-110.549 709.25,-104.646 734.303,-94.1754 752.841,-85.5685"/>
<polygon fill="midnightblue" stroke="midnightblue" points="754.363,-88.7205 761.897,-81.2717 751.362,-82.3962 754.363,-88.7205"/>
</g>
<!-- Node227&#45;&gt;Node226 -->
<g id="edge18" class="edge"><title>Node227&#45;&gt;Node226</title>
<path fill="none" stroke="midnightblue" d="M530.553,-120.428C540.308,-116.471 550.967,-111.452 560,-105.549 578.423,-93.51 577.618,-83.6509 596,-71.549 598.411,-69.9619 600.976,-68.456 603.61,-67.0386"/>
<polygon fill="midnightblue" stroke="midnightblue" points="605.271,-70.1219 612.702,-62.5701 602.184,-63.8396 605.271,-70.1219"/>
</g>
<!-- Node227&#45;&gt;Node225 -->
<g id="edge19" class="edge"><title>Node227&#45;&gt;Node225</title>
<path fill="none" stroke="midnightblue" d="M536.796,-140.592C561.129,-147.42 592.734,-156.287 614.525,-162.401"/>
<polygon fill="midnightblue" stroke="midnightblue" points="613.785,-165.829 624.359,-165.16 615.676,-159.089 613.785,-165.829"/>
</g>
<!-- Node228&#45;&gt;Node221 -->
<g id="edge21" class="edge"><title>Node228&#45;&gt;Node221</title>
<path fill="none" stroke="midnightblue" d="M536.796,-62.5924C559.884,-69.0705 589.521,-77.3858 611.107,-83.4424"/>
<polygon fill="midnightblue" stroke="midnightblue" points="610.42,-86.8846 620.994,-86.2162 612.311,-80.1449 610.42,-86.8846"/>
</g>
<!-- Node228&#45;&gt;Node218 -->
<g id="edge22" class="edge"><title>Node228&#45;&gt;Node218</title>
<path fill="none" stroke="midnightblue" d="M536.052,-42.5133C573.463,-33.2524 634.338,-22.3574 686,-32.549 709.832,-37.2505 735.206,-47.9948 753.73,-57.0179"/>
<polygon fill="midnightblue" stroke="midnightblue" points="752.24,-60.1859 762.748,-61.5383 755.377,-53.9281 752.24,-60.1859"/>
</g>
<!-- Node228&#45;&gt;Node226 -->
<g id="edge23" class="edge"><title>Node228&#45;&gt;Node226</title>
<path fill="none" stroke="midnightblue" d="M539.35,-52.549C553.721,-52.549 570.331,-52.549 585.864,-52.549"/>
<polygon fill="midnightblue" stroke="midnightblue" points="585.881,-56.0491 595.881,-52.549 585.881,-49.0491 585.881,-56.0491"/>
</g>
<!-- Node229&#45;&gt;Node219 -->
<g id="edge25" class="edge"><title>Node229&#45;&gt;Node219</title>
<path fill="none" stroke="midnightblue" d="M529.801,-320.612C547.774,-318.155 571.353,-314.932 592.086,-312.098"/>
<polygon fill="midnightblue" stroke="midnightblue" points="592.565,-315.566 601.999,-310.743 591.617,-308.63 592.565,-315.566"/>
</g>
<!-- Node230&#45;&gt;Node219 -->
<g id="edge27" class="edge"><title>Node230&#45;&gt;Node219</title>
<path fill="none" stroke="midnightblue" d="M529.801,-289.693C547.774,-292.279 571.353,-295.672 592.086,-298.655"/>
<polygon fill="midnightblue" stroke="midnightblue" points="591.602,-302.121 601.999,-300.081 592.599,-295.193 591.602,-302.121"/>
</g>
<!-- Node232 -->
<g id="node19" class="node"><title>Node232</title>
<g id="a_node19"><a xlink:href="classAP__HAL_1_1BetterStream.html#aa730be451d385d7ba03ee9677e6d91a2" target="_top" xlink:title=" ">
<polygon fill="white" stroke="black" points="440.589,-430.549 440.589,-462.549 559.411,-462.549 559.411,-430.549 440.589,-430.549"/>
<text text-anchor="start" x="448.589" y="-448.549" font-family="Helvetica,sans-Serif" font-size="10.00">AP_HAL::BetterStream</text>
<text text-anchor="middle" x="500" y="-436.549" font-family="Helvetica,sans-Serif" font-size="10.00">::vprintf</text>
</a>
</g>
</g>
<!-- Node231&#45;&gt;Node232 -->
<g id="edge29" class="edge"><title>Node231&#45;&gt;Node232</title>
<path fill="none" stroke="midnightblue" d="M403.66,-446.549C412.43,-446.549 421.536,-446.549 430.488,-446.549"/>
<polygon fill="midnightblue" stroke="midnightblue" points="430.503,-450.049 440.503,-446.549 430.503,-443.049 430.503,-450.049"/>
</g>
<!-- Node233 -->
<g id="node20" class="node"><title>Node233</title>
<g id="a_node20"><a xlink:href="print__vprintf_8cpp.html#a98e0d5bb436a207f576379beaa786040" target="_top" xlink:title=" ">
<polygon fill="white" stroke="black" points="606.877,-436.549 606.877,-456.549 675.123,-456.549 675.123,-436.549 606.877,-436.549"/>
<text text-anchor="middle" x="641" y="-442.549" font-family="Helvetica,sans-Serif" font-size="10.00">print_vprintf</text>
</a>
</g>
</g>
<!-- Node232&#45;&gt;Node233 -->
<g id="edge30" class="edge"><title>Node232&#45;&gt;Node233</title>
<path fill="none" stroke="midnightblue" d="M559.546,-446.549C571.816,-446.549 584.553,-446.549 596.175,-446.549"/>
<polygon fill="midnightblue" stroke="midnightblue" points="596.49,-450.049 606.49,-446.549 596.49,-443.049 596.49,-450.049"/>
</g>
<!-- Node234 -->
<g id="node21" class="node"><title>Node234</title>
<g id="a_node21"><a xlink:href="classAP__HAL_1_1BetterStream.html#a915cc01273d4b418c2fb2989fb31a508" target="_top" xlink:title=" ">
<polygon fill="white" stroke="black" points="722.589,-494.549 722.589,-526.549 841.411,-526.549 841.411,-494.549 722.589,-494.549"/>
<text text-anchor="start" x="730.589" y="-512.549" font-family="Helvetica,sans-Serif" font-size="10.00">AP_HAL::BetterStream</text>
<text text-anchor="middle" x="782" y="-500.549" font-family="Helvetica,sans-Serif" font-size="10.00">::write</text>
</a>
</g>
</g>
<!-- Node233&#45;&gt;Node234 -->
<g id="edge31" class="edge"><title>Node233&#45;&gt;Node234</title>
<path fill="none" stroke="midnightblue" d="M662.644,-456.552C678.755,-464.311 701.727,-475.27 722,-484.549 726.119,-486.434 730.41,-488.373 734.716,-490.302"/>
<polygon fill="midnightblue" stroke="midnightblue" points="733.546,-493.612 744.105,-494.482 736.393,-487.217 733.546,-493.612"/>
</g>
<!-- Node235 -->
<g id="node22" class="node"><title>Node235</title>
<g id="a_node22"><a xlink:href="ftoa__engine_8cpp.html#a1c28234da8f20b43c85890d4bb452947" target="_top" xlink:title=" ">
<polygon fill="white" stroke="black" points="747.865,-455.549 747.865,-475.549 816.135,-475.549 816.135,-455.549 747.865,-455.549"/>
<text text-anchor="middle" x="782" y="-461.549" font-family="Helvetica,sans-Serif" font-size="10.00">ftoa_engine</text>
</a>
</g>
</g>
<!-- Node233&#45;&gt;Node235 -->
<g id="edge32" class="edge"><title>Node233&#45;&gt;Node235</title>
<path fill="none" stroke="midnightblue" d="M675.294,-451.1C693.897,-453.643 717.302,-456.842 737.357,-459.583"/>
<polygon fill="midnightblue" stroke="midnightblue" points="737.114,-463.083 747.496,-460.969 738.062,-456.147 737.114,-463.083"/>
</g>
<!-- Node237 -->
<g id="node24" class="node"><title>Node237</title>
<g id="a_node24"><a xlink:href="utoa__invert_8cpp.html#a34926f552460b47c414ec4d83b32815c" target="_top" xlink:title=" ">
<polygon fill="white" stroke="black" points="747.04,-416.549 747.04,-436.549 816.96,-436.549 816.96,-416.549 747.04,-416.549"/>
<text text-anchor="middle" x="782" y="-422.549" font-family="Helvetica,sans-Serif" font-size="10.00">ulltoa_invert</text>
</a>
</g>
</g>
<!-- Node233&#45;&gt;Node237 -->
<g id="edge34" class="edge"><title>Node233&#45;&gt;Node237</title>
<path fill="none" stroke="midnightblue" d="M675.294,-441.758C693.76,-439.101 716.958,-435.764 736.914,-432.892"/>
<polygon fill="midnightblue" stroke="midnightblue" points="737.612,-436.328 747.012,-431.439 736.616,-429.399 737.612,-436.328"/>
</g>
<!-- Node238 -->
<g id="node25" class="node"><title>Node238</title>
<g id="a_node25"><a xlink:href="utoa__invert_8cpp.html#a5d99bba8e697c1e11da489d88fca8559" target="_top" xlink:title=" ">
<polygon fill="white" stroke="black" points="748.15,-377.549 748.15,-397.549 815.85,-397.549 815.85,-377.549 748.15,-377.549"/>
<text text-anchor="middle" x="782" y="-383.549" font-family="Helvetica,sans-Serif" font-size="10.00">ultoa_invert</text>
</a>
</g>
</g>
<!-- Node233&#45;&gt;Node238 -->
<g id="edge36" class="edge"><title>Node233&#45;&gt;Node238</title>
<path fill="none" stroke="midnightblue" d="M660.062,-436.525C676.042,-427.899 700.148,-415.47 722,-406.549 727.168,-404.439 732.665,-402.404 738.144,-400.5"/>
<polygon fill="midnightblue" stroke="midnightblue" points="739.543,-403.723 747.913,-397.227 737.319,-397.085 739.543,-403.723"/>
</g>
<!-- Node236 -->
<g id="node23" class="node"><title>Node236</title>
<g id="a_node23"><a xlink:href="lstrlib_8c.html#a9605f4d16ae762782f8be8b54aef0a22" target="_top" xlink:title=" ">
<polygon fill="white" stroke="black" points="896.828,-416.549 896.828,-436.549 931.172,-436.549 931.172,-416.549 896.828,-416.549"/>
<text text-anchor="middle" x="914" y="-422.549" font-family="Helvetica,sans-Serif" font-size="10.00">digit</text>
</a>
</g>
</g>
<!-- Node235&#45;&gt;Node236 -->
<g id="edge33" class="edge"><title>Node235&#45;&gt;Node236</title>
<path fill="none" stroke="midnightblue" d="M816.141,-455.607C838.049,-449.034 866.373,-440.537 886.725,-434.431"/>
<polygon fill="midnightblue" stroke="midnightblue" points="887.993,-437.705 896.565,-431.479 885.981,-431.001 887.993,-437.705"/>
</g>
<!-- Node237&#45;&gt;Node236 -->
<g id="edge35" class="edge"><title>Node237&#45;&gt;Node236</title>
<path fill="none" stroke="midnightblue" d="M817.156,-426.549C838.864,-426.549 866.547,-426.549 886.575,-426.549"/>
<polygon fill="midnightblue" stroke="midnightblue" points="886.827,-430.049 896.827,-426.549 886.827,-423.049 886.827,-430.049"/>
</g>
<!-- Node238&#45;&gt;Node236 -->
<g id="edge37" class="edge"><title>Node238&#45;&gt;Node236</title>
<path fill="none" stroke="midnightblue" d="M816.141,-397.491C838.049,-404.064 866.373,-412.561 886.725,-418.667"/>
<polygon fill="midnightblue" stroke="midnightblue" points="885.981,-422.097 896.565,-421.619 887.993,-415.393 885.981,-422.097"/>
</g>
<!-- Node239&#45;&gt;Node223 -->
<g id="edge39" class="edge"><title>Node239&#45;&gt;Node223</title>
<path fill="none" stroke="midnightblue" d="M213.93,-349.856C267.087,-359.133 428.328,-383.461 560,-363.549 633.377,-352.453 713.165,-314.737 753.834,-293.463"/>
<polygon fill="midnightblue" stroke="midnightblue" points="755.644,-296.465 762.837,-288.686 752.363,-290.281 755.644,-296.465"/>
</g>
<!-- Node240&#45;&gt;Node226 -->
<g id="edge41" class="edge"><title>Node240&#45;&gt;Node226</title>
<path fill="none" stroke="midnightblue" d="M356.543,-81.3343C373.45,-67.1293 406.58,-42.0822 440,-32.549 493.673,-17.2384 558.349,-28.8667 599.328,-39.7484"/>
<polygon fill="midnightblue" stroke="midnightblue" points="598.643,-43.1903 609.214,-42.4819 600.509,-36.4435 598.643,-43.1903"/>
</g>
<!-- Node240&#45;&gt;Node218 -->
<g id="edge42" class="edge"><title>Node240&#45;&gt;Node218</title>
<path fill="none" stroke="midnightblue" d="M354.304,-81.3784C370.053,-65.0075 403.799,-33.4457 440,-21.549 543.876,12.588 579.835,1.61344 686,-24.549 711.831,-30.9144 738.785,-45.0801 757.355,-56.2056"/>
<polygon fill="midnightblue" stroke="midnightblue" points="755.653,-59.2682 766.004,-61.532 759.324,-53.3078 755.653,-59.2682"/>
</g>
<!-- Node240&#45;&gt;Node228 -->
<g id="edge43" class="edge"><title>Node240&#45;&gt;Node228</title>
<path fill="none" stroke="midnightblue" d="M363.883,-86.7668C385.459,-81.3028 421.59,-72.1529 451.063,-64.689"/>
<polygon fill="midnightblue" stroke="midnightblue" points="451.937,-68.0781 460.772,-62.2301 450.219,-61.2923 451.937,-68.0781"/>
</g>
<!-- Node240&#45;&gt;Node227 -->
<g id="edge44" class="edge"><title>Node240&#45;&gt;Node227</title>
<path fill="none" stroke="midnightblue" d="M363.883,-96.3311C385.006,-101.68 420.079,-110.562 449.197,-117.937"/>
<polygon fill="midnightblue" stroke="midnightblue" points="448.663,-121.412 459.216,-120.474 450.381,-114.626 448.663,-121.412"/>
</g>
<!-- Node240&#45;&gt;Node219 -->
<g id="edge45" class="edge"><title>Node240&#45;&gt;Node219</title>
<path fill="none" stroke="midnightblue" d="M353.398,-101.777C369.093,-120.49 404.504,-160.854 440,-188.549 495.641,-231.961 568.947,-270.82 609.576,-290.978"/>
<polygon fill="midnightblue" stroke="midnightblue" points="608.173,-294.188 618.691,-295.458 611.26,-287.906 608.173,-294.188"/>
</g>
</g>
</svg>
