<?xml version="1.0" encoding="UTF-8" standalone="no"?>
<!DOCTYPE svg PUBLIC "-//W3C//DTD SVG 1.1//EN"
 "http://www.w3.org/Graphics/SVG/1.1/DTD/svg11.dtd">
<!-- Generated by graphviz version 2.30.1 (20130221.2233)
 -->
<!-- Title: AP_Stats::get_flight_time_s Pages: 1 -->
<svg width="510pt" height="40pt"
 viewBox="0.00 0.00 510.00 40.00" xmlns="http://www.w3.org/2000/svg" xmlns:xlink="http://www.w3.org/1999/xlink">
<g id="graph0" class="graph" transform="scale(1 1) rotate(0) translate(4 36)">
<title>AP_Stats::get_flight_time_s</title>
<polygon fill="white" stroke="white" points="-4,5 -4,-36 507,-36 507,5 -4,5"/>
<!-- Node9 -->
<g id="node1" class="node"><title>Node9</title>
<g id="a_node1"><a xlink:title=" ">
<polygon fill="#bfbfbf" stroke="black" points="0.0839844,-0 0.0839844,-32 103.916,-32 103.916,-0 0.0839844,-0"/>
<text text-anchor="start" x="8.08398" y="-18" font-family="Helvetica,sans-Serif" font-size="10.00">AP_Stats::get_flight</text>
<text text-anchor="middle" x="52" y="-6" font-family="Helvetica,sans-Serif" font-size="10.00">_time_s</text>
</a>
</g>
</g>
<!-- Node10 -->
<g id="node2" class="node"><title>Node10</title>
<g id="a_node2"><a xlink:href="classAP__Stats.html#a2e7081a97c7ba47a96f70a8f2071aa24" target="_top" xlink:title=" ">
<polygon fill="white" stroke="black" points="140.296,-6 140.296,-26 279.704,-26 279.704,-6 140.296,-6"/>
<text text-anchor="middle" x="210" y="-12" font-family="Helvetica,sans-Serif" font-size="10.00">AP_Stats::update_flighttime</text>
</a>
</g>
</g>
<!-- Node9&#45;&gt;Node10 -->
<g id="edge1" class="edge"><title>Node9&#45;&gt;Node10</title>
<path fill="none" stroke="midnightblue" d="M104.08,-16C112.473,-16 121.34,-16 130.221,-16"/>
<polygon fill="midnightblue" stroke="midnightblue" points="130.229,-19.5001 140.228,-16 130.228,-12.5001 130.229,-19.5001"/>
</g>
<!-- Node11 -->
<g id="node3" class="node"><title>Node11</title>
<g id="a_node3"><a xlink:href="namespaceAP__HAL.html#a77dffbb18891996280308e21316ec186" target="_top" xlink:title=" ">
<polygon fill="white" stroke="black" points="315.936,-6 315.936,-26 398.064,-26 398.064,-6 315.936,-6"/>
<text text-anchor="middle" x="357" y="-12" font-family="Helvetica,sans-Serif" font-size="10.00">AP_HAL::millis</text>
</a>
</g>
</g>
<!-- Node10&#45;&gt;Node11 -->
<g id="edge2" class="edge"><title>Node10&#45;&gt;Node11</title>
<path fill="none" stroke="midnightblue" d="M280.103,-16C288.719,-16 297.399,-16 305.656,-16"/>
<polygon fill="midnightblue" stroke="midnightblue" points="305.85,-19.5001 315.85,-16 305.85,-12.5001 305.85,-19.5001"/>
</g>
<!-- Node12 -->
<g id="node4" class="node"><title>Node12</title>
<g id="a_node4"><a xlink:href="hrt_8c.html#a1295f128f60d29874243b5733c4db025" target="_top" xlink:title=" ">
<polygon fill="white" stroke="black" points="434.714,-6 434.714,-26 501.286,-26 501.286,-6 434.714,-6"/>
<text text-anchor="middle" x="468" y="-12" font-family="Helvetica,sans-Serif" font-size="10.00">hrt_millis32</text>
</a>
</g>
</g>
<!-- Node11&#45;&gt;Node12 -->
<g id="edge3" class="edge"><title>Node11&#45;&gt;Node12</title>
<path fill="none" stroke="midnightblue" d="M398.278,-16C406.815,-16 415.852,-16 424.469,-16"/>
<polygon fill="midnightblue" stroke="midnightblue" points="424.71,-19.5001 434.71,-16 424.71,-12.5001 424.71,-19.5001"/>
</g>
</g>
</svg>
