<?xml version="1.0" encoding="UTF-8" standalone="no"?>
<!DOCTYPE svg PUBLIC "-//W3C//DTD SVG 1.1//EN"
 "http://www.w3.org/Graphics/SVG/1.1/DTD/svg11.dtd">
<!-- Generated by graphviz version 2.30.1 (20130221.2233)
 -->
<!-- Title: AP_MotorsMulticopter::get_throttle_hover Pages: 1 -->
<svg width="908pt" height="79pt"
 viewBox="0.00 0.00 908.00 79.00" xmlns="http://www.w3.org/2000/svg" xmlns:xlink="http://www.w3.org/1999/xlink">
<g id="graph0" class="graph" transform="scale(1 1) rotate(0) translate(4 75)">
<title>AP_MotorsMulticopter::get_throttle_hover</title>
<polygon fill="white" stroke="white" points="-4,5 -4,-75 905,-75 905,5 -4,5"/>
<!-- Node136 -->
<g id="node1" class="node"><title>Node136</title>
<g id="a_node1"><a xlink:title=" ">
<polygon fill="#bfbfbf" stroke="black" points="785.815,-16 785.815,-48 900.185,-48 900.185,-16 785.815,-16"/>
<text text-anchor="start" x="793.815" y="-34" font-family="Helvetica,sans-Serif" font-size="10.00">AP_MotorsMulticopter</text>
<text text-anchor="middle" x="843" y="-22" font-family="Helvetica,sans-Serif" font-size="10.00">::get_throttle_hover</text>
</a>
</g>
</g>
<!-- Node137 -->
<g id="node2" class="node"><title>Node137</title>
<g id="a_node2"><a xlink:href="classAP__MotorsMulticopter.html#a19f40d1fe87f44055e2ee89b9470d11c" target="_top" xlink:title=" ">
<polygon fill="white" stroke="black" points="630.035,-10 630.035,-54 749.965,-54 749.965,-10 630.035,-10"/>
<text text-anchor="start" x="638.035" y="-40" font-family="Helvetica,sans-Serif" font-size="10.00">AP_MotorsMulticopter</text>
<text text-anchor="start" x="638.035" y="-28" font-family="Helvetica,sans-Serif" font-size="10.00">::get_current_limit_max</text>
<text text-anchor="middle" x="690" y="-16" font-family="Helvetica,sans-Serif" font-size="10.00">_throttle</text>
</a>
</g>
</g>
<!-- Node136&#45;&gt;Node137 -->
<g id="edge1" class="edge"><title>Node136&#45;&gt;Node137</title>
<path fill="none" stroke="midnightblue" d="M775.531,-32C767.047,-32 758.409,-32 750.053,-32"/>
<polygon fill="midnightblue" stroke="midnightblue" points="775.773,-35.5001 785.773,-32 775.773,-28.5001 775.773,-35.5001"/>
</g>
<!-- Node138 -->
<g id="node3" class="node"><title>Node138</title>
<g id="a_node3"><a xlink:href="classAP__MotorsMulticopter.html#a5f8d52cbd1cd93c53f81767a3ad3d3bf" target="_top" xlink:title=" ">
<polygon fill="white" stroke="black" points="479.815,-16 479.815,-48 594.185,-48 594.185,-16 479.815,-16"/>
<text text-anchor="start" x="487.815" y="-34" font-family="Helvetica,sans-Serif" font-size="10.00">AP_MotorsMulticopter</text>
<text text-anchor="middle" x="537" y="-22" font-family="Helvetica,sans-Serif" font-size="10.00">::output_logic</text>
</a>
</g>
</g>
<!-- Node137&#45;&gt;Node138 -->
<g id="edge2" class="edge"><title>Node137&#45;&gt;Node138</title>
<path fill="none" stroke="midnightblue" d="M619.617,-32C611.243,-32 602.767,-32 594.606,-32"/>
<polygon fill="midnightblue" stroke="midnightblue" points="619.754,-35.5001 629.754,-32 619.754,-28.5001 619.754,-35.5001"/>
</g>
<!-- Node139 -->
<g id="node4" class="node"><title>Node139</title>
<g id="a_node4"><a xlink:href="classAP__MotorsMulticopter.html#ae711bfb73844f124fb762c39cd01e060" target="_top" xlink:title=" ">
<polygon fill="white" stroke="black" points="329.815,-16 329.815,-48 444.185,-48 444.185,-16 329.815,-16"/>
<text text-anchor="start" x="337.815" y="-34" font-family="Helvetica,sans-Serif" font-size="10.00">AP_MotorsMulticopter</text>
<text text-anchor="middle" x="387" y="-22" font-family="Helvetica,sans-Serif" font-size="10.00">::output</text>
</a>
</g>
</g>
<!-- Node138&#45;&gt;Node139 -->
<g id="edge3" class="edge"><title>Node138&#45;&gt;Node139</title>
<path fill="none" stroke="midnightblue" d="M469.442,-32C461.016,-32 452.461,-32 444.218,-32"/>
<polygon fill="midnightblue" stroke="midnightblue" points="469.625,-35.5001 479.625,-32 469.625,-28.5001 469.625,-35.5001"/>
</g>
<!-- Node140 -->
<g id="node5" class="node"><title>Node140</title>
<g id="a_node5"><a xlink:href="classAP__MotorsMulticopter.html#a5c1f9a311308cd7a28bb800b5ef071de" target="_top" xlink:title=" ">
<polygon fill="white" stroke="black" points="179.815,-39 179.815,-71 294.185,-71 294.185,-39 179.815,-39"/>
<text text-anchor="start" x="187.815" y="-57" font-family="Helvetica,sans-Serif" font-size="10.00">AP_MotorsMulticopter</text>
<text text-anchor="middle" x="237" y="-45" font-family="Helvetica,sans-Serif" font-size="10.00">::output_min</text>
</a>
</g>
</g>
<!-- Node139&#45;&gt;Node140 -->
<g id="edge4" class="edge"><title>Node139&#45;&gt;Node140</title>
<path fill="none" stroke="midnightblue" d="M319.72,-42.3003C311.204,-43.6236 302.551,-44.9684 294.218,-46.2634"/>
<polygon fill="midnightblue" stroke="midnightblue" points="320.281,-45.7551 329.625,-40.7609 319.206,-38.8381 320.281,-45.7551"/>
</g>
<!-- Node142 -->
<g id="node7" class="node"><title>Node142</title>
<g id="a_node7"><a xlink:href="AP__Motors__test_8cpp.html#a1f08b35b02317dc83a8acfc5e1861364" target="_top" xlink:title=" ">
<polygon fill="white" stroke="black" points="195.646,-0 195.646,-20 278.354,-20 278.354,-0 195.646,-0"/>
<text text-anchor="middle" x="237" y="-6" font-family="Helvetica,sans-Serif" font-size="10.00">update_motors</text>
</a>
</g>
</g>
<!-- Node139&#45;&gt;Node142 -->
<g id="edge6" class="edge"><title>Node139&#45;&gt;Node142</title>
<path fill="none" stroke="midnightblue" d="M319.548,-22.122C305.58,-20.0457 291.25,-17.9156 278.576,-16.0316"/>
<polygon fill="midnightblue" stroke="midnightblue" points="319.219,-25.6115 329.625,-23.62 320.249,-18.6876 319.219,-25.6115"/>
</g>
<!-- Node141 -->
<g id="node6" class="node"><title>Node141</title>
<g id="a_node6"><a xlink:href="AP__Motors__test_8cpp.html#a4fc01d736fe50cf5b977f755b675f11d" target="_top" xlink:title=" ">
<polygon fill="white" stroke="black" points="87.7686,-45 87.7686,-65 128.231,-65 128.231,-45 87.7686,-45"/>
<text text-anchor="middle" x="108" y="-51" font-family="Helvetica,sans-Serif" font-size="10.00">setup</text>
</a>
</g>
</g>
<!-- Node140&#45;&gt;Node141 -->
<g id="edge5" class="edge"><title>Node140&#45;&gt;Node141</title>
<path fill="none" stroke="midnightblue" d="M169.229,-55C154.308,-55 139.629,-55 128.498,-55"/>
<polygon fill="midnightblue" stroke="midnightblue" points="169.556,-58.5001 179.556,-55 169.556,-51.5001 169.556,-58.5001"/>
</g>
<!-- Node143 -->
<g id="node8" class="node"><title>Node143</title>
<g id="a_node8"><a xlink:href="AP__Motors__test_8cpp.html#a7f47bb79f883994514efee9d8de3ec0c" target="_top" xlink:title=" ">
<polygon fill="white" stroke="black" points="72.4878,-0 72.4878,-20 143.512,-20 143.512,-0 72.4878,-0"/>
<text text-anchor="middle" x="108" y="-6" font-family="Helvetica,sans-Serif" font-size="10.00">stability_test</text>
</a>
</g>
</g>
<!-- Node142&#45;&gt;Node143 -->
<g id="edge7" class="edge"><title>Node142&#45;&gt;Node143</title>
<path fill="none" stroke="midnightblue" d="M185.446,-10C171.412,-10 156.497,-10 143.602,-10"/>
<polygon fill="midnightblue" stroke="midnightblue" points="185.467,-13.5001 195.467,-10 185.467,-6.5001 185.467,-13.5001"/>
</g>
<!-- Node144 -->
<g id="node9" class="node"><title>Node144</title>
<g id="a_node9"><a xlink:href="AP__Motors__test_8cpp.html#afe461d27b9c48d5921c00d521181f12f" target="_top" xlink:title=" ">
<polygon fill="white" stroke="black" points="0.546875,-0 0.546875,-20 35.4531,-20 35.4531,-0 0.546875,-0"/>
<text text-anchor="middle" x="18" y="-6" font-family="Helvetica,sans-Serif" font-size="10.00">loop</text>
</a>
</g>
</g>
<!-- Node143&#45;&gt;Node144 -->
<g id="edge8" class="edge"><title>Node143&#45;&gt;Node144</title>
<path fill="none" stroke="midnightblue" d="M62.1931,-10C52.6599,-10 43.1772,-10 35.536,-10"/>
<polygon fill="midnightblue" stroke="midnightblue" points="62.4727,-13.5001 72.4726,-10 62.4726,-6.5001 62.4727,-13.5001"/>
</g>
</g>
</svg>
