<?xml version="1.0" encoding="UTF-8" standalone="no"?>
<!DOCTYPE svg PUBLIC "-//W3C//DTD SVG 1.1//EN"
 "http://www.w3.org/Graphics/SVG/1.1/DTD/svg11.dtd">
<!-- Generated by graphviz version 2.30.1 (20130221.2233)
 -->
<!-- Title: AP_Logger_Backend::WritePrioritisedBlock Pages: 1 -->
<svg width="748pt" height="571pt"
 viewBox="0.00 0.00 748.00 571.00" xmlns="http://www.w3.org/2000/svg" xmlns:xlink="http://www.w3.org/1999/xlink">
<g id="graph0" class="graph" transform="scale(1 1) rotate(0) translate(4 567)">
<title>AP_Logger_Backend::WritePrioritisedBlock</title>
<polygon fill="white" stroke="white" points="-4,5 -4,-567 745,-567 745,5 -4,5"/>
<!-- Node2681 -->
<g id="node1" class="node"><title>Node2681</title>
<g id="a_node1"><a xlink:title=" ">
<polygon fill="#bfbfbf" stroke="black" points="-0.0366211,-127 -0.0366211,-159 116.037,-159 116.037,-127 -0.0366211,-127"/>
<text text-anchor="start" x="7.96338" y="-145" font-family="Helvetica,sans-Serif" font-size="10.00">AP_Logger_Backend::</text>
<text text-anchor="middle" x="58" y="-133" font-family="Helvetica,sans-Serif" font-size="10.00">WritePrioritisedBlock</text>
</a>
</g>
</g>
<!-- Node2682 -->
<g id="node2" class="node"><title>Node2682</title>
<g id="a_node2"><a xlink:href="classAP__Logger__Backend.html#ab92d531ecdcbc5730b974fddc52aac97" target="_top" xlink:title=" ">
<polygon fill="white" stroke="black" points="151.953,-421 151.953,-453 300.047,-453 300.047,-421 151.953,-421"/>
<text text-anchor="start" x="159.953" y="-439" font-family="Helvetica,sans-Serif" font-size="10.00">AP_Logger_Backend::</text>
<text text-anchor="middle" x="226" y="-427" font-family="Helvetica,sans-Serif" font-size="10.00">validate_WritePrioritisedBlock</text>
</a>
</g>
</g>
<!-- Node2681&#45;&gt;Node2682 -->
<g id="edge1" class="edge"><title>Node2681&#45;&gt;Node2682</title>
<path fill="none" stroke="midnightblue" d="M68.1613,-159.225C95.6536,-207.917 177.592,-353.036 210.793,-411.838"/>
<polygon fill="midnightblue" stroke="midnightblue" points="207.903,-413.838 215.867,-420.825 213.998,-410.396 207.903,-413.838"/>
</g>
<!-- Node2689 -->
<g id="node9" class="node"><title>Node2689</title>
<g id="a_node9"><a xlink:href="classAP__Logger__Backend.html#a78f7474b65a1124818be394886b9d0fb" target="_top" xlink:title=" ">
<polygon fill="white" stroke="black" points="167.963,-229 167.963,-261 284.037,-261 284.037,-229 167.963,-229"/>
<text text-anchor="start" x="175.963" y="-247" font-family="Helvetica,sans-Serif" font-size="10.00">AP_Logger_Backend::</text>
<text text-anchor="middle" x="226" y="-235" font-family="Helvetica,sans-Serif" font-size="10.00">ShouldLog</text>
</a>
</g>
</g>
<!-- Node2681&#45;&gt;Node2689 -->
<g id="edge8" class="edge"><title>Node2681&#45;&gt;Node2689</title>
<path fill="none" stroke="midnightblue" d="M85.3032,-159.162C113.594,-176.546 158.718,-204.272 189.993,-223.489"/>
<polygon fill="midnightblue" stroke="midnightblue" points="188.467,-226.66 198.82,-228.913 192.132,-220.696 188.467,-226.66"/>
</g>
<!-- Node2699 -->
<g id="node19" class="node"><title>Node2699</title>
<g id="a_node19"><a xlink:href="classAP__Logger__Backend.html#a819d8bdf6a09b180c7608c72849619bf" target="_top" xlink:title=" ">
<polygon fill="white" stroke="black" points="167.963,-153 167.963,-185 284.037,-185 284.037,-153 167.963,-153"/>
<text text-anchor="start" x="175.963" y="-171" font-family="Helvetica,sans-Serif" font-size="10.00">AP_Logger_Backend::</text>
<text text-anchor="middle" x="226" y="-159" font-family="Helvetica,sans-Serif" font-size="10.00">StartNewLogOK</text>
</a>
</g>
</g>
<!-- Node2681&#45;&gt;Node2699 -->
<g id="edge18" class="edge"><title>Node2681&#45;&gt;Node2699</title>
<path fill="none" stroke="midnightblue" d="M116.128,-151.948C129.561,-154.052 143.999,-156.313 157.828,-158.479"/>
<polygon fill="midnightblue" stroke="midnightblue" points="157.346,-161.946 167.767,-160.036 158.429,-155.03 157.346,-161.946"/>
</g>
<!-- Node2702 -->
<g id="node22" class="node"><title>Node2702</title>
<g id="a_node22"><a xlink:href="classAP__Logger__Backend.html#a78de993b21ba40b94442cb38035149b1" target="_top" xlink:title=" ">
<polygon fill="white" stroke="black" points="167.963,-102 167.963,-134 284.037,-134 284.037,-102 167.963,-102"/>
<text text-anchor="start" x="175.963" y="-120" font-family="Helvetica,sans-Serif" font-size="10.00">AP_Logger_Backend::</text>
<text text-anchor="middle" x="226" y="-108" font-family="Helvetica,sans-Serif" font-size="10.00">start_new_log</text>
</a>
</g>
</g>
<!-- Node2681&#45;&gt;Node2702 -->
<g id="edge22" class="edge"><title>Node2681&#45;&gt;Node2702</title>
<path fill="none" stroke="midnightblue" d="M116.128,-134.396C129.561,-132.373 143.999,-130.199 157.828,-128.116"/>
<polygon fill="midnightblue" stroke="midnightblue" points="158.4,-131.57 167.767,-126.619 157.357,-124.648 158.4,-131.57"/>
</g>
<!-- Node2703 -->
<g id="node23" class="node"><title>Node2703</title>
<g id="a_node23"><a xlink:href="classAP__Logger__Backend.html#a0f2ae17abc0d5faf3dd2c4a47f3a57fc" target="_top" xlink:title=" ">
<polygon fill="white" stroke="black" points="167.963,-51 167.963,-83 284.037,-83 284.037,-51 167.963,-51"/>
<text text-anchor="start" x="175.963" y="-69" font-family="Helvetica,sans-Serif" font-size="10.00">AP_Logger_Backend::</text>
<text text-anchor="middle" x="226" y="-57" font-family="Helvetica,sans-Serif" font-size="10.00">WritesOK</text>
</a>
</g>
</g>
<!-- Node2681&#45;&gt;Node2703 -->
<g id="edge23" class="edge"><title>Node2681&#45;&gt;Node2703</title>
<path fill="none" stroke="midnightblue" d="M85.6436,-126.79C103.91,-116.079 128.922,-102.189 152,-92 156.109,-90.1857 160.394,-88.4178 164.739,-86.7152"/>
<polygon fill="midnightblue" stroke="midnightblue" points="166.184,-89.9108 174.299,-83.0998 163.708,-83.3633 166.184,-89.9108"/>
</g>
<!-- Node2704 -->
<g id="node24" class="node"><title>Node2704</title>
<g id="a_node24"><a xlink:href="classAP__Logger__Backend.html#a22be4b8bb20ba7bed2fa28eef632b13c" target="_top" xlink:title=" ">
<polygon fill="white" stroke="black" points="167.963,-0 167.963,-32 284.037,-32 284.037,-0 167.963,-0"/>
<text text-anchor="start" x="175.963" y="-18" font-family="Helvetica,sans-Serif" font-size="10.00">AP_Logger_Backend::</text>
<text text-anchor="middle" x="226" y="-6" font-family="Helvetica,sans-Serif" font-size="10.00">_WritePrioritisedBlock</text>
</a>
</g>
</g>
<!-- Node2681&#45;&gt;Node2704 -->
<g id="edge24" class="edge"><title>Node2681&#45;&gt;Node2704</title>
<path fill="none" stroke="midnightblue" d="M69.7075,-126.881C85.3062,-104.574 116.337,-64.4026 152,-41 154.415,-39.4152 156.941,-37.9201 159.542,-36.5107"/>
<polygon fill="midnightblue" stroke="midnightblue" points="161.196,-39.5978 168.625,-32.0435 158.106,-33.3165 161.196,-39.5978"/>
</g>
<!-- Node2683 -->
<g id="node3" class="node"><title>Node2683</title>
<g id="a_node3"><a xlink:href="namespaceAP__HAL.html#a71832f03d849a0c088f04fc98d3c8143" target="_top" xlink:title=" ">
<polygon fill="white" stroke="black" points="368.091,-498 368.091,-518 451.909,-518 451.909,-498 368.091,-498"/>
<text text-anchor="middle" x="410" y="-504" font-family="Helvetica,sans-Serif" font-size="10.00">AP_HAL::panic</text>
</a>
</g>
</g>
<!-- Node2682&#45;&gt;Node2683 -->
<g id="edge2" class="edge"><title>Node2682&#45;&gt;Node2683</title>
<path fill="none" stroke="midnightblue" d="M257.879,-453.173C279.381,-464.003 308.941,-478.045 336,-488 343.117,-490.618 350.735,-493.073 358.267,-495.304"/>
<polygon fill="midnightblue" stroke="midnightblue" points="357.492,-498.722 368.069,-498.103 359.414,-491.991 357.492,-498.722"/>
</g>
<!-- Node2686 -->
<g id="node6" class="node"><title>Node2686</title>
<g id="a_node6"><a xlink:href="classAP__Logger.html#a46b9809021c0087f395f2c1cb09bd9c9" target="_top" xlink:title=" ">
<polygon fill="white" stroke="black" points="354.751,-447 354.751,-479 465.249,-479 465.249,-447 354.751,-447"/>
<text text-anchor="start" x="362.751" y="-465" font-family="Helvetica,sans-Serif" font-size="10.00">AP_Logger::structure</text>
<text text-anchor="middle" x="410" y="-453" font-family="Helvetica,sans-Serif" font-size="10.00">_for_msg_type</text>
</a>
</g>
</g>
<!-- Node2682&#45;&gt;Node2686 -->
<g id="edge5" class="edge"><title>Node2682&#45;&gt;Node2686</title>
<path fill="none" stroke="midnightblue" d="M300.24,-447.463C314.865,-449.552 330.126,-451.732 344.433,-453.776"/>
<polygon fill="midnightblue" stroke="midnightblue" points="344.265,-457.288 354.66,-455.237 345.255,-450.358 344.265,-457.288"/>
</g>
<!-- Node2688 -->
<g id="node8" class="node"><title>Node2688</title>
<g id="a_node8"><a xlink:href="classAP__Logger.html#ac24c3dd3709f28a0442afbdf963ddf2b" target="_top" xlink:title=" ">
<polygon fill="white" stroke="black" points="354.192,-396 354.192,-428 465.808,-428 465.808,-396 354.192,-396"/>
<text text-anchor="start" x="362.192" y="-414" font-family="Helvetica,sans-Serif" font-size="10.00">AP_Logger::log_write</text>
<text text-anchor="middle" x="410" y="-402" font-family="Helvetica,sans-Serif" font-size="10.00">_fmt_for_msg_type</text>
</a>
</g>
</g>
<!-- Node2682&#45;&gt;Node2688 -->
<g id="edge7" class="edge"><title>Node2682&#45;&gt;Node2688</title>
<path fill="none" stroke="midnightblue" d="M300.24,-426.94C314.706,-424.953 329.795,-422.88 343.967,-420.933"/>
<polygon fill="midnightblue" stroke="midnightblue" points="344.671,-424.369 354.102,-419.541 343.719,-417.434 344.671,-424.369"/>
</g>
<!-- Node2684 -->
<g id="node4" class="node"><title>Node2684</title>
<g id="a_node4"><a xlink:href="stdio_8h.html#aae132cc6af1eb6cf43bf011d8d63e854" target="_top" xlink:title=" ">
<polygon fill="white" stroke="black" points="556.384,-543 556.384,-563 599.616,-563 599.616,-543 556.384,-543"/>
<text text-anchor="middle" x="578" y="-549" font-family="Helvetica,sans-Serif" font-size="10.00">vprintf</text>
</a>
</g>
</g>
<!-- Node2683&#45;&gt;Node2684 -->
<g id="edge3" class="edge"><title>Node2683&#45;&gt;Node2684</title>
<path fill="none" stroke="midnightblue" d="M448.254,-518.099C477.751,-526.095 518.458,-537.13 546.148,-544.637"/>
<polygon fill="midnightblue" stroke="midnightblue" points="545.506,-548.089 556.073,-547.327 547.337,-541.333 545.506,-548.089"/>
</g>
<!-- Node2685 -->
<g id="node5" class="node"><title>Node2685</title>
<g id="a_node5"><a xlink:href="classAP__HAL_1_1Scheduler.html#a78c4f1b1f192ac1c99544b6cc8f099b0" target="_top" xlink:title=" ">
<polygon fill="white" stroke="black" points="522.751,-492 522.751,-524 633.249,-524 633.249,-492 522.751,-492"/>
<text text-anchor="start" x="530.751" y="-510" font-family="Helvetica,sans-Serif" font-size="10.00">AP_HAL::Scheduler::</text>
<text text-anchor="middle" x="578" y="-498" font-family="Helvetica,sans-Serif" font-size="10.00">delay_microseconds</text>
</a>
</g>
</g>
<!-- Node2683&#45;&gt;Node2685 -->
<g id="edge4" class="edge"><title>Node2683&#45;&gt;Node2685</title>
<path fill="none" stroke="midnightblue" d="M452.034,-508C470.267,-508 492.168,-508 512.507,-508"/>
<polygon fill="midnightblue" stroke="midnightblue" points="512.656,-511.5 522.656,-508 512.656,-504.5 512.656,-511.5"/>
</g>
<!-- Node2687 -->
<g id="node7" class="node"><title>Node2687</title>
<g id="a_node7"><a xlink:href="classAP__Logger.html#a2c8453adaaf9f8678f8f04553075b3cb" target="_top" xlink:title=" ">
<polygon fill="white" stroke="black" points="522.751,-453 522.751,-473 633.249,-473 633.249,-453 522.751,-453"/>
<text text-anchor="middle" x="578" y="-459" font-family="Helvetica,sans-Serif" font-size="10.00">AP_Logger::structure</text>
</a>
</g>
</g>
<!-- Node2686&#45;&gt;Node2687 -->
<g id="edge6" class="edge"><title>Node2686&#45;&gt;Node2687</title>
<path fill="none" stroke="midnightblue" d="M465.355,-463C480.402,-463 496.882,-463 512.449,-463"/>
<polygon fill="midnightblue" stroke="midnightblue" points="512.523,-466.5 522.523,-463 512.523,-459.5 512.523,-466.5"/>
</g>
<!-- Node2690 -->
<g id="node10" class="node"><title>Node2690</title>
<g id="a_node10"><a xlink:href="classAP__Logger.html#a85b93103598d68270b8a3076020b1d87" target="_top" xlink:title=" ">
<polygon fill="white" stroke="black" points="341.775,-357 341.775,-377 478.225,-377 478.225,-357 341.775,-357"/>
<text text-anchor="middle" x="410" y="-363" font-family="Helvetica,sans-Serif" font-size="10.00">AP_Logger::WritesEnabled</text>
</a>
</g>
</g>
<!-- Node2689&#45;&gt;Node2690 -->
<g id="edge9" class="edge"><title>Node2689&#45;&gt;Node2690</title>
<path fill="none" stroke="midnightblue" d="M239.977,-261.367C258.766,-283.968 295.734,-324.486 336,-347 340.403,-349.462 345.128,-351.635 349.978,-353.551"/>
<polygon fill="midnightblue" stroke="midnightblue" points="348.813,-356.852 359.408,-356.927 351.172,-350.261 348.813,-356.852"/>
</g>
<!-- Node2691 -->
<g id="node11" class="node"><title>Node2691</title>
<g id="a_node11"><a xlink:href="classLoggerMessageWriter.html#a78cf43b4f6c097eec1790015fed5fb98" target="_top" xlink:title=" ">
<polygon fill="white" stroke="black" points="352.901,-306 352.901,-338 467.099,-338 467.099,-306 352.901,-306"/>
<text text-anchor="start" x="360.901" y="-324" font-family="Helvetica,sans-Serif" font-size="10.00">LoggerMessageWriter</text>
<text text-anchor="middle" x="410" y="-312" font-family="Helvetica,sans-Serif" font-size="10.00">::finished</text>
</a>
</g>
</g>
<!-- Node2689&#45;&gt;Node2691 -->
<g id="edge10" class="edge"><title>Node2689&#45;&gt;Node2691</title>
<path fill="none" stroke="midnightblue" d="M259.549,-261.225C281.027,-271.683 309.912,-285.28 336,-296 341.133,-298.109 346.507,-300.214 351.912,-302.261"/>
<polygon fill="midnightblue" stroke="midnightblue" points="351.034,-305.668 361.626,-305.871 353.472,-299.106 351.034,-305.668"/>
</g>
<!-- Node2692 -->
<g id="node12" class="node"><title>Node2692</title>
<g id="a_node12"><a xlink:href="classAP__HAL_1_1Scheduler.html#a555ccd11a987cf0fd4bfdf7edcd67028" target="_top" xlink:title=" ">
<polygon fill="white" stroke="black" points="354.751,-153 354.751,-185 465.249,-185 465.249,-153 354.751,-153"/>
<text text-anchor="start" x="362.751" y="-171" font-family="Helvetica,sans-Serif" font-size="10.00">AP_HAL::Scheduler::</text>
<text text-anchor="middle" x="410" y="-159" font-family="Helvetica,sans-Serif" font-size="10.00">in_main_thread</text>
</a>
</g>
</g>
<!-- Node2689&#45;&gt;Node2692 -->
<g id="edge11" class="edge"><title>Node2689&#45;&gt;Node2692</title>
<path fill="none" stroke="midnightblue" d="M260.062,-228.915C281.503,-218.713 310.156,-205.506 336,-195 341.349,-192.825 346.957,-190.649 352.586,-188.533"/>
<polygon fill="midnightblue" stroke="midnightblue" points="353.872,-191.789 362.038,-185.039 351.444,-185.223 353.872,-191.789"/>
</g>
<!-- Node2693 -->
<g id="node13" class="node"><title>Node2693</title>
<g id="a_node13"><a xlink:href="classAP__Logger.html#ae4fe1337d154fa1508237f006d9f0a82" target="_top" xlink:title=" ">
<polygon fill="white" stroke="black" points="358.638,-255 358.638,-287 461.362,-287 461.362,-255 358.638,-255"/>
<text text-anchor="start" x="366.638" y="-273" font-family="Helvetica,sans-Serif" font-size="10.00">AP_Logger::vehicle</text>
<text text-anchor="middle" x="410" y="-261" font-family="Helvetica,sans-Serif" font-size="10.00">_is_armed</text>
</a>
</g>
</g>
<!-- Node2689&#45;&gt;Node2693 -->
<g id="edge12" class="edge"><title>Node2689&#45;&gt;Node2693</title>
<path fill="none" stroke="midnightblue" d="M284.087,-253.155C304.602,-256.086 327.801,-259.4 348.59,-262.37"/>
<polygon fill="midnightblue" stroke="midnightblue" points="348.185,-265.848 358.579,-263.797 349.175,-258.918 348.185,-265.848"/>
</g>
<!-- Node2694 -->
<g id="node14" class="node"><title>Node2694</title>
<g id="a_node14"><a xlink:href="classAP__Logger.html#af5b52fbea289c0b3267417f7ba3b619f" target="_top" xlink:title=" ">
<polygon fill="white" stroke="black" points="353.355,-204 353.355,-236 466.645,-236 466.645,-204 353.355,-204"/>
<text text-anchor="start" x="361.355" y="-222" font-family="Helvetica,sans-Serif" font-size="10.00">AP_Logger::log_while</text>
<text text-anchor="middle" x="410" y="-210" font-family="Helvetica,sans-Serif" font-size="10.00">_disarmed</text>
</a>
</g>
</g>
<!-- Node2689&#45;&gt;Node2694 -->
<g id="edge13" class="edge"><title>Node2689&#45;&gt;Node2694</title>
<path fill="none" stroke="midnightblue" d="M284.087,-237.158C302.818,-234.585 323.786,-231.705 343.114,-229.05"/>
<polygon fill="midnightblue" stroke="midnightblue" points="343.621,-232.514 353.051,-227.685 342.668,-225.579 343.621,-232.514"/>
</g>
<!-- Node2695 -->
<g id="node15" class="node"><title>Node2695</title>
<g id="a_node15"><a xlink:href="namespaceAP__HAL.html#a77dffbb18891996280308e21316ec186" target="_top" xlink:title=" ">
<polygon fill="white" stroke="black" points="536.936,-255 536.936,-275 619.064,-275 619.064,-255 536.936,-255"/>
<text text-anchor="middle" x="578" y="-261" font-family="Helvetica,sans-Serif" font-size="10.00">AP_HAL::millis</text>
</a>
</g>
</g>
<!-- Node2694&#45;&gt;Node2695 -->
<g id="edge14" class="edge"><title>Node2694&#45;&gt;Node2695</title>
<path fill="none" stroke="midnightblue" d="M466.737,-235.11C487.365,-240.701 510.519,-246.978 530.265,-252.331"/>
<polygon fill="midnightblue" stroke="midnightblue" points="529.386,-255.719 539.953,-254.957 531.217,-248.963 529.386,-255.719"/>
</g>
<!-- Node2697 -->
<g id="node17" class="node"><title>Node2697</title>
<g id="a_node17"><a xlink:href="classAP__HAL_1_1Util.html#a0321a03bc467b55d887de4587750b599" target="_top" xlink:title=" ">
<polygon fill="white" stroke="black" points="520.532,-204 520.532,-236 635.468,-236 635.468,-204 520.532,-204"/>
<text text-anchor="start" x="528.532" y="-222" font-family="Helvetica,sans-Serif" font-size="10.00">AP_HAL::Util::get_last</text>
<text text-anchor="middle" x="578" y="-210" font-family="Helvetica,sans-Serif" font-size="10.00">_armed_change</text>
</a>
</g>
</g>
<!-- Node2694&#45;&gt;Node2697 -->
<g id="edge16" class="edge"><title>Node2694&#45;&gt;Node2697</title>
<path fill="none" stroke="midnightblue" d="M466.737,-220C480.607,-220 495.62,-220 509.971,-220"/>
<polygon fill="midnightblue" stroke="midnightblue" points="510.278,-223.5 520.278,-220 510.278,-216.5 510.278,-223.5"/>
</g>
<!-- Node2698 -->
<g id="node18" class="node"><title>Node2698</title>
<g id="a_node18"><a xlink:href="classAP__HAL_1_1Util.html#a287a2b82fa30b92c8d52aad61d4d27b7" target="_top" xlink:title=" ">
<polygon fill="white" stroke="black" points="520.254,-153 520.254,-185 635.746,-185 635.746,-153 520.254,-153"/>
<text text-anchor="start" x="528.254" y="-171" font-family="Helvetica,sans-Serif" font-size="10.00">AP_HAL::Util::get_soft</text>
<text text-anchor="middle" x="578" y="-159" font-family="Helvetica,sans-Serif" font-size="10.00">_armed</text>
</a>
</g>
</g>
<!-- Node2694&#45;&gt;Node2698 -->
<g id="edge17" class="edge"><title>Node2694&#45;&gt;Node2698</title>
<path fill="none" stroke="midnightblue" d="M463.523,-203.863C479.88,-198.838 498.071,-193.249 515.012,-188.045"/>
<polygon fill="midnightblue" stroke="midnightblue" points="516.287,-191.314 524.818,-185.032 514.231,-184.623 516.287,-191.314"/>
</g>
<!-- Node2696 -->
<g id="node16" class="node"><title>Node2696</title>
<g id="a_node16"><a xlink:href="hrt_8c.html#a1295f128f60d29874243b5733c4db025" target="_top" xlink:title=" ">
<polygon fill="white" stroke="black" points="672.714,-255 672.714,-275 739.286,-275 739.286,-255 672.714,-255"/>
<text text-anchor="middle" x="706" y="-261" font-family="Helvetica,sans-Serif" font-size="10.00">hrt_millis32</text>
</a>
</g>
</g>
<!-- Node2695&#45;&gt;Node2696 -->
<g id="edge15" class="edge"><title>Node2695&#45;&gt;Node2696</title>
<path fill="none" stroke="midnightblue" d="M619.214,-265C632.873,-265 648.184,-265 662.048,-265"/>
<polygon fill="midnightblue" stroke="midnightblue" points="662.318,-268.5 672.318,-265 662.317,-261.5 662.318,-268.5"/>
</g>
<!-- Node2700 -->
<g id="node20" class="node"><title>Node2700</title>
<g id="a_node20"><a xlink:href="classAP__Logger__Backend.html#ac8afcda5cd041342ea728d45a244c363" target="_top" xlink:title=" ">
<polygon fill="white" stroke="black" points="351.963,-102 351.963,-134 468.037,-134 468.037,-102 351.963,-102"/>
<text text-anchor="start" x="359.963" y="-120" font-family="Helvetica,sans-Serif" font-size="10.00">AP_Logger_Backend::</text>
<text text-anchor="middle" x="410" y="-108" font-family="Helvetica,sans-Serif" font-size="10.00">logging_started</text>
</a>
</g>
</g>
<!-- Node2699&#45;&gt;Node2700 -->
<g id="edge19" class="edge"><title>Node2699&#45;&gt;Node2700</title>
<path fill="none" stroke="midnightblue" d="M284.087,-153.003C302.463,-147.854 322.992,-142.101 342.013,-136.771"/>
<polygon fill="midnightblue" stroke="midnightblue" points="343.119,-140.096 351.803,-134.028 341.23,-133.356 343.119,-140.096"/>
</g>
<!-- Node2701 -->
<g id="node21" class="node"><title>Node2701</title>
<g id="a_node21"><a xlink:href="classAP__Logger.html#a3af6ee4664cc4b54ad6990a7eed7f766" target="_top" xlink:title=" ">
<polygon fill="white" stroke="black" points="336.67,-63 336.67,-83 483.33,-83 483.33,-63 336.67,-63"/>
<text text-anchor="middle" x="410" y="-69" font-family="Helvetica,sans-Serif" font-size="10.00">AP_Logger::in_log_download</text>
</a>
</g>
</g>
<!-- Node2699&#45;&gt;Node2701 -->
<g id="edge20" class="edge"><title>Node2699&#45;&gt;Node2701</title>
<path fill="none" stroke="midnightblue" d="M283.45,-152.95C289.315,-150.118 294.963,-146.822 300,-143 322.102,-126.228 313.186,-107.789 336,-92 338.556,-90.2312 341.265,-88.6271 344.078,-87.1722"/>
<polygon fill="midnightblue" stroke="midnightblue" points="345.656,-90.3002 353.349,-83.0154 342.793,-83.9128 345.656,-90.3002"/>
</g>
<!-- Node2699&#45;&gt;Node2692 -->
<g id="edge21" class="edge"><title>Node2699&#45;&gt;Node2692</title>
<path fill="none" stroke="midnightblue" d="M284.087,-169C303.262,-169 324.781,-169 344.485,-169"/>
<polygon fill="midnightblue" stroke="midnightblue" points="344.602,-172.5 354.602,-169 344.602,-165.5 344.602,-172.5"/>
</g>
</g>
</svg>
