<?xml version="1.0" encoding="UTF-8" standalone="no"?>
<!DOCTYPE svg PUBLIC "-//W3C//DTD SVG 1.1//EN"
 "http://www.w3.org/Graphics/SVG/1.1/DTD/svg11.dtd">
<!-- Generated by graphviz version 2.30.1 (20130221.2233)
 -->
<!-- Title: AP_Logger_Backend::num_types Pages: 1 -->
<svg width="276pt" height="91pt"
 viewBox="0.00 0.00 276.00 91.00" xmlns="http://www.w3.org/2000/svg" xmlns:xlink="http://www.w3.org/1999/xlink">
<g id="graph0" class="graph" transform="scale(1 1) rotate(0) translate(4 87)">
<title>AP_Logger_Backend::num_types</title>
<polygon fill="white" stroke="white" points="-4,5 -4,-87 273,-87 273,5 -4,5"/>
<!-- Node711 -->
<g id="node1" class="node"><title>Node711</title>
<g id="a_node1"><a xlink:title=" ">
<polygon fill="#bfbfbf" stroke="black" points="151.963,-25 151.963,-57 268.037,-57 268.037,-25 151.963,-25"/>
<text text-anchor="start" x="159.963" y="-43" font-family="Helvetica,sans-Serif" font-size="10.00">AP_Logger_Backend::</text>
<text text-anchor="middle" x="210" y="-31" font-family="Helvetica,sans-Serif" font-size="10.00">num_types</text>
</a>
</g>
</g>
<!-- Node712 -->
<g id="node2" class="node"><title>Node712</title>
<g id="a_node2"><a xlink:href="classAP__Logger__Block.html#abc16f2037cab85d9fcc9cbe94669d29d" target="_top" xlink:title=" ">
<polygon fill="white" stroke="black" points="0.244141,-51 0.244141,-83 115.756,-83 115.756,-51 0.244141,-51"/>
<text text-anchor="start" x="8.24414" y="-69" font-family="Helvetica,sans-Serif" font-size="10.00">AP_Logger_Block::get</text>
<text text-anchor="middle" x="58" y="-57" font-family="Helvetica,sans-Serif" font-size="10.00">_log_data</text>
</a>
</g>
</g>
<!-- Node711&#45;&gt;Node712 -->
<g id="edge1" class="edge"><title>Node711&#45;&gt;Node712</title>
<path fill="none" stroke="midnightblue" d="M141.824,-52.6438C133.194,-54.1398 124.424,-55.6599 115.978,-57.1239"/>
<polygon fill="midnightblue" stroke="midnightblue" points="142.608,-56.0602 151.864,-50.9037 141.413,-49.163 142.608,-56.0602"/>
</g>
<!-- Node713 -->
<g id="node3" class="node"><title>Node713</title>
<g id="a_node3"><a xlink:href="classAP__Logger.html#a90b134cb69a3268e52a8c7496558df9e" target="_top" xlink:title=" ">
<polygon fill="white" stroke="black" points="3.0249,-0 3.0249,-32 112.975,-32 112.975,-0 3.0249,-0"/>
<text text-anchor="start" x="11.0249" y="-18" font-family="Helvetica,sans-Serif" font-size="10.00">AP_Logger::set_num</text>
<text text-anchor="middle" x="58" y="-6" font-family="Helvetica,sans-Serif" font-size="10.00">_types</text>
</a>
</g>
</g>
<!-- Node711&#45;&gt;Node713 -->
<g id="edge2" class="edge"><title>Node711&#45;&gt;Node713</title>
<path fill="none" stroke="midnightblue" d="M141.884,-29.8139C132.219,-28.2032 122.379,-26.5631 113.013,-25.0021"/>
<polygon fill="midnightblue" stroke="midnightblue" points="141.424,-33.2856 151.864,-31.4773 142.575,-26.3808 141.424,-33.2856"/>
</g>
</g>
</svg>
