<?xml version="1.0" encoding="UTF-8" standalone="no"?>
<!DOCTYPE svg PUBLIC "-//W3C//DTD SVG 1.1//EN"
 "http://www.w3.org/Graphics/SVG/1.1/DTD/svg11.dtd">
<!-- Generated by graphviz version 2.30.1 (20130221.2233)
 -->
<!-- Title: ChibiOS::Scheduler::delay Pages: 1 -->
<svg width="390pt" height="181pt"
 viewBox="0.00 0.00 390.00 181.00" xmlns="http://www.w3.org/2000/svg" xmlns:xlink="http://www.w3.org/1999/xlink">
<g id="graph0" class="graph" transform="scale(1 1) rotate(0) translate(4 177)">
<title>ChibiOS::Scheduler::delay</title>
<polygon fill="white" stroke="white" points="-4,5 -4,-177 387,-177 387,5 -4,5"/>
<!-- Node126 -->
<g id="node1" class="node"><title>Node126</title>
<g id="a_node1"><a xlink:title=" ">
<polygon fill="#bfbfbf" stroke="black" points="0.0888672,-76 0.0888672,-108 103.911,-108 103.911,-76 0.0888672,-76"/>
<text text-anchor="start" x="8.08887" y="-94" font-family="Helvetica,sans-Serif" font-size="10.00">ChibiOS::Scheduler</text>
<text text-anchor="middle" x="52" y="-82" font-family="Helvetica,sans-Serif" font-size="10.00">::delay</text>
</a>
</g>
</g>
<!-- Node127 -->
<g id="node2" class="node"><title>Node127</title>
<g id="a_node2"><a xlink:href="namespaceAP__HAL.html#a7aa0ce7625c9680e30ff4a99940907a5" target="_top" xlink:title=" ">
<polygon fill="white" stroke="black" points="146.761,-153 146.761,-173 247.239,-173 247.239,-153 146.761,-153"/>
<text text-anchor="middle" x="197" y="-159" font-family="Helvetica,sans-Serif" font-size="10.00">AP_HAL::micros64</text>
</a>
</g>
</g>
<!-- Node126&#45;&gt;Node127 -->
<g id="edge1" class="edge"><title>Node126&#45;&gt;Node127</title>
<path fill="none" stroke="midnightblue" d="M77.4574,-108.005C94.5348,-118.761 118.106,-132.783 140,-143 144.732,-145.208 149.78,-147.324 154.834,-149.299"/>
<polygon fill="midnightblue" stroke="midnightblue" points="153.888,-152.682 164.481,-152.908 156.341,-146.126 153.888,-152.682"/>
</g>
<!-- Node129 -->
<g id="node4" class="node"><title>Node129</title>
<g id="a_node4"><a xlink:href="classChibiOS_1_1Scheduler.html#a332cd2e17889c12f84b469eaf9f24fc8" target="_top" xlink:title=" ">
<polygon fill="white" stroke="black" points="140.643,-102 140.643,-134 253.357,-134 253.357,-102 140.643,-102"/>
<text text-anchor="start" x="148.643" y="-120" font-family="Helvetica,sans-Serif" font-size="10.00">ChibiOS::Scheduler</text>
<text text-anchor="middle" x="197" y="-108" font-family="Helvetica,sans-Serif" font-size="10.00">::delay_microseconds</text>
</a>
</g>
</g>
<!-- Node126&#45;&gt;Node129 -->
<g id="edge3" class="edge"><title>Node126&#45;&gt;Node129</title>
<path fill="none" stroke="midnightblue" d="M104.222,-101.313C112.724,-102.859 121.642,-104.48 130.439,-106.08"/>
<polygon fill="midnightblue" stroke="midnightblue" points="129.827,-109.526 140.292,-107.871 131.079,-102.639 129.827,-109.526"/>
</g>
<!-- Node130 -->
<g id="node5" class="node"><title>Node130</title>
<g id="a_node5"><a xlink:href="classChibiOS_1_1Scheduler.html#a7d57edeaf35ec698eadeee0b82e19350" target="_top" xlink:title=" ">
<polygon fill="white" stroke="black" points="145.089,-51 145.089,-83 248.911,-83 248.911,-51 145.089,-51"/>
<text text-anchor="start" x="153.089" y="-69" font-family="Helvetica,sans-Serif" font-size="10.00">ChibiOS::Scheduler</text>
<text text-anchor="middle" x="197" y="-57" font-family="Helvetica,sans-Serif" font-size="10.00">::in_main_thread</text>
</a>
</g>
</g>
<!-- Node126&#45;&gt;Node130 -->
<g id="edge4" class="edge"><title>Node126&#45;&gt;Node130</title>
<path fill="none" stroke="midnightblue" d="M104.222,-83.045C114.08,-81.3217 124.498,-79.5004 134.638,-77.7276"/>
<polygon fill="midnightblue" stroke="midnightblue" points="135.407,-81.1464 144.655,-75.9765 134.201,-74.251 135.407,-81.1464"/>
</g>
<!-- Node132 -->
<g id="node7" class="node"><title>Node132</title>
<g id="a_node7"><a xlink:href="classAP__HAL_1_1Scheduler.html#a1559f4115760bed85bbbbc717360b806" target="_top" xlink:title=" ">
<polygon fill="white" stroke="black" points="141.751,-0 141.751,-32 252.249,-32 252.249,-0 141.751,-0"/>
<text text-anchor="start" x="149.751" y="-18" font-family="Helvetica,sans-Serif" font-size="10.00">AP_HAL::Scheduler::</text>
<text text-anchor="middle" x="197" y="-6" font-family="Helvetica,sans-Serif" font-size="10.00">call_delay_cb</text>
</a>
</g>
</g>
<!-- Node126&#45;&gt;Node132 -->
<g id="edge6" class="edge"><title>Node126&#45;&gt;Node132</title>
<path fill="none" stroke="midnightblue" d="M79.7058,-75.8475C96.7498,-65.7404 119.429,-52.6612 140,-42 143.539,-40.1659 147.232,-38.3159 150.958,-36.4935"/>
<polygon fill="midnightblue" stroke="midnightblue" points="152.725,-39.5281 160.225,-32.0449 149.695,-33.2177 152.725,-39.5281"/>
</g>
<!-- Node128 -->
<g id="node3" class="node"><title>Node128</title>
<g id="a_node3"><a xlink:href="hrt_8c.html#a152c3348a8e83f2dfe35b44cc2e30362" target="_top" xlink:title=" ">
<polygon fill="white" stroke="black" points="299.101,-153 299.101,-173 372.899,-173 372.899,-153 299.101,-153"/>
<text text-anchor="middle" x="336" y="-159" font-family="Helvetica,sans-Serif" font-size="10.00">hrt_micros64</text>
</a>
</g>
</g>
<!-- Node127&#45;&gt;Node128 -->
<g id="edge2" class="edge"><title>Node127&#45;&gt;Node128</title>
<path fill="none" stroke="midnightblue" d="M247.46,-163C260.886,-163 275.372,-163 288.621,-163"/>
<polygon fill="midnightblue" stroke="midnightblue" points="288.938,-166.5 298.938,-163 288.938,-159.5 288.938,-166.5"/>
</g>
<!-- Node131 -->
<g id="node6" class="node"><title>Node131</title>
<g id="a_node6"><a xlink:href="HAL__ChibiOS__Class_8cpp.html#ab846d7fcc837e93db24c728b27dda2c0" target="_top" xlink:title=" ">
<polygon fill="white" stroke="black" points="290.473,-57 290.473,-77 381.527,-77 381.527,-57 290.473,-57"/>
<text text-anchor="middle" x="336" y="-63" font-family="Helvetica,sans-Serif" font-size="10.00">get_main_thread</text>
</a>
</g>
</g>
<!-- Node130&#45;&gt;Node131 -->
<g id="edge5" class="edge"><title>Node130&#45;&gt;Node131</title>
<path fill="none" stroke="midnightblue" d="M249.014,-67C259.17,-67 269.876,-67 280.154,-67"/>
<polygon fill="midnightblue" stroke="midnightblue" points="280.254,-70.5001 290.254,-67 280.254,-63.5001 280.254,-70.5001"/>
</g>
</g>
</svg>
