<?xml version="1.0" encoding="UTF-8" standalone="no"?>
<!DOCTYPE svg PUBLIC "-//W3C//DTD SVG 1.1//EN"
 "http://www.w3.org/Graphics/SVG/1.1/DTD/svg11.dtd">
<!-- Generated by graphviz version 2.30.1 (20130221.2233)
 -->
<!-- Title: MAVLink_routing::send_to_components Pages: 1 -->
<!--zoomable 163 -->
<svg id="main" version="1.1" xmlns="http://www.w3.org/2000/svg" xmlns:xlink="http://www.w3.org/1999/xlink" xml:space="preserve" onload="init(evt)">
<style type="text/css"><![CDATA[
.edge:hover path { stroke: red; }
.edge:hover polygon { stroke: red; fill: red; }
]]></style>
<script type="text/javascript"><![CDATA[
var edges = document.getElementsByTagName('g');
if (edges && edges.length) {
  for (var i=0;i<edges.length;i++) {
    if (edges[i].id.substr(0,4)=='edge') {
      edges[i].setAttribute('class','edge');
    }
  }
}
]]></script>
        <defs>
                <circle id="rim" cx="0" cy="0" r="7"/>
                <circle id="rim2" cx="0" cy="0" r="3.5"/>
                <g id="zoomPlus">
                        <use xlink:href="#rim" fill="#404040">
                                <set attributeName="fill" to="#808080" begin="zoomplus.mouseover" end="zoomplus.mouseout"/>
                        </use>
                        <path d="M-4,0h8M0,-4v8" fill="none" stroke="white" stroke-width="1.5" pointer-events="none"/>
                </g>
                <g id="zoomMin">
                        <use xlink:href="#rim" fill="#404040">
                                <set attributeName="fill" to="#808080" begin="zoomminus.mouseover" end="zoomminus.mouseout"/>
                        </use>
                        <path d="M-4,0h8" fill="none" stroke="white" stroke-width="1.5" pointer-events="none"/>
                </g>
                <g id="dirArrow">
                        <path fill="none" stroke="white" stroke-width="1.5" d="M0,-3.0v7 M-2.5,-0.5L0,-3.0L2.5,-0.5"/>
                </g>
               <g id="resetDef">
                       <use xlink:href="#rim2" fill="#404040">
                               <set attributeName="fill" to="#808080" begin="reset.mouseover" end="reset.mouseout"/>
                       </use>
               </g>
        </defs>

<script type="text/javascript">
var viewWidth = 546;
var viewHeight = 163;
var sectionId = 'dynsection-9';
</script>
<script xlink:href="svgpan.js"/>
<svg id="graph" class="graph">
<g id="viewport">
<title>MAVLink_routing::send_to_components</title>
<polygon fill="white" stroke="white" points="-4,5 -4,-159 543,-159 543,5 -4,5"/>
<!-- Node111 -->
<g id="node1" class="node"><title>Node111</title>
<g id="a_node1"><a xlink:title=" ">
<polygon fill="#bfbfbf" stroke="black" points="0.671875,-39 0.671875,-71 119.328,-71 119.328,-39 0.671875,-39"/>
<text text-anchor="start" x="8.67188" y="-57" font-family="Helvetica,sans-Serif" font-size="10.00">MAVLink_routing::send</text>
<text text-anchor="middle" x="60" y="-45" font-family="Helvetica,sans-Serif" font-size="10.00">_to_components</text>
</a>
</g>
</g>
<!-- Node112 -->
<g id="node2" class="node"><title>Node112</title>
<g id="a_node2"><a xlink:href="GCS__MAVLink_8cpp.html#a2a0fd455fd37f642e9eb67373a14b7d9" target="_top" xlink:title=" ">
<polygon fill="white" stroke="black" points="165.646,-90 165.646,-110 268.354,-110 268.354,-90 165.646,-90"/>
<text text-anchor="middle" x="217" y="-96" font-family="Helvetica,sans-Serif" font-size="10.00">comm_get_txspace</text>
</a>
</g>
</g>
<!-- Node111&#45;&gt;Node112 -->
<g id="edge1" class="edge"><title>Node111&#45;&gt;Node112</title>
<path fill="none" stroke="midnightblue" d="M116.521,-71.1189C134.529,-76.3472 154.264,-82.0766 171.374,-87.0441"/>
<polygon fill="midnightblue" stroke="midnightblue" points="170.533,-90.4444 181.112,-89.8713 172.485,-83.7219 170.533,-90.4444"/>
</g>
<!-- Node115 -->
<g id="node5" class="node"><title>Node115</title>
<g id="a_node5"><a xlink:href="structGCS__MAVLINK.html#a4f0bacad6b801524e0a56fdfca58619d" target="_top" xlink:title=" ">
<polygon fill="white" stroke="black" points="156.292,-39 156.292,-71 277.708,-71 277.708,-39 156.292,-39"/>
<text text-anchor="start" x="164.292" y="-57" font-family="Helvetica,sans-Serif" font-size="10.00">GCS_MAVLINK::packet</text>
<text text-anchor="middle" x="217" y="-45" font-family="Helvetica,sans-Serif" font-size="10.00">_overhead_chan</text>
</a>
</g>
</g>
<!-- Node111&#45;&gt;Node115 -->
<g id="edge4" class="edge"><title>Node111&#45;&gt;Node115</title>
<path fill="none" stroke="midnightblue" d="M119.599,-55C128.225,-55 137.185,-55 146.013,-55"/>
<polygon fill="midnightblue" stroke="midnightblue" points="146.288,-58.5001 156.288,-55 146.288,-51.5001 146.288,-58.5001"/>
</g>
<!-- Node118 -->
<g id="node8" class="node"><title>Node118</title>
<g id="a_node8"><a xlink:href="stdio_8h.html#a55f3d956bb2ba20b5059e9e25484a47f" target="_top" xlink:title=" ">
<polygon fill="white" stroke="black" points="197.884,-0 197.884,-20 236.116,-20 236.116,-0 197.884,-0"/>
<text text-anchor="middle" x="217" y="-6" font-family="Helvetica,sans-Serif" font-size="10.00">printf</text>
</a>
</g>
</g>
<!-- Node111&#45;&gt;Node118 -->
<g id="edge7" class="edge"><title>Node111&#45;&gt;Node118</title>
<path fill="none" stroke="midnightblue" d="M116.521,-38.8811C140.784,-31.837 168.18,-23.8833 188.07,-18.1088"/>
<polygon fill="midnightblue" stroke="midnightblue" points="189.103,-21.4535 197.73,-15.3041 187.151,-14.7311 189.103,-21.4535"/>
</g>
<!-- Node113 -->
<g id="node3" class="node"><title>Node113</title>
<g id="a_node3"><a xlink:href="GCS__MAVLink_8h.html#a17ee8d1ce05b7d160ccc6a78b92b774f" target="_top" xlink:title=" ">
<polygon fill="white" stroke="black" points="335.421,-135 335.421,-155 412.579,-155 412.579,-135 335.421,-135"/>
<text text-anchor="middle" x="374" y="-141" font-family="Helvetica,sans-Serif" font-size="10.00">valid_channel</text>
</a>
</g>
</g>
<!-- Node112&#45;&gt;Node113 -->
<g id="edge2" class="edge"><title>Node112&#45;&gt;Node113</title>
<path fill="none" stroke="midnightblue" d="M252.785,-110.099C275.221,-116.613 304.603,-125.143 328.703,-132.139"/>
<polygon fill="midnightblue" stroke="midnightblue" points="327.752,-135.508 338.331,-134.935 329.703,-128.785 327.752,-135.508"/>
</g>
<!-- Node114 -->
<g id="node4" class="node"><title>Node114</title>
<g id="a_node4"><a xlink:href="classAP__HAL_1_1BetterStream.html#ab0193c7791fd95eb2bfbfd6597bdf6d8" target="_top" xlink:title=" ">
<polygon fill="white" stroke="black" points="314.589,-84 314.589,-116 433.411,-116 433.411,-84 314.589,-84"/>
<text text-anchor="start" x="322.589" y="-102" font-family="Helvetica,sans-Serif" font-size="10.00">AP_HAL::BetterStream</text>
<text text-anchor="middle" x="374" y="-90" font-family="Helvetica,sans-Serif" font-size="10.00">::txspace</text>
</a>
</g>
</g>
<!-- Node112&#45;&gt;Node114 -->
<g id="edge3" class="edge"><title>Node112&#45;&gt;Node114</title>
<path fill="none" stroke="midnightblue" d="M268.753,-100C280.02,-100 292.147,-100 304.005,-100"/>
<polygon fill="midnightblue" stroke="midnightblue" points="304.329,-103.5 314.329,-100 304.329,-96.5001 304.329,-103.5"/>
</g>
<!-- Node116 -->
<g id="node6" class="node"><title>Node116</title>
<g id="a_node6"><a xlink:href="namespaceAP__HAL.html#a77dffbb18891996280308e21316ec186" target="_top" xlink:title=" ">
<polygon fill="white" stroke="black" points="332.936,-45 332.936,-65 415.064,-65 415.064,-45 332.936,-45"/>
<text text-anchor="middle" x="374" y="-51" font-family="Helvetica,sans-Serif" font-size="10.00">AP_HAL::millis</text>
</a>
</g>
</g>
<!-- Node115&#45;&gt;Node116 -->
<g id="edge5" class="edge"><title>Node115&#45;&gt;Node116</title>
<path fill="none" stroke="midnightblue" d="M277.927,-55C292.734,-55 308.444,-55 322.738,-55"/>
<polygon fill="midnightblue" stroke="midnightblue" points="322.863,-58.5001 332.863,-55 322.863,-51.5001 322.863,-58.5001"/>
</g>
<!-- Node117 -->
<g id="node7" class="node"><title>Node117</title>
<g id="a_node7"><a xlink:href="hrt_8c.html#a1295f128f60d29874243b5733c4db025" target="_top" xlink:title=" ">
<polygon fill="white" stroke="black" points="470.714,-45 470.714,-65 537.286,-65 537.286,-45 470.714,-45"/>
<text text-anchor="middle" x="504" y="-51" font-family="Helvetica,sans-Serif" font-size="10.00">hrt_millis32</text>
</a>
</g>
</g>
<!-- Node116&#45;&gt;Node117 -->
<g id="edge6" class="edge"><title>Node116&#45;&gt;Node117</title>
<path fill="none" stroke="midnightblue" d="M415.149,-55C429.544,-55 445.818,-55 460.413,-55"/>
<polygon fill="midnightblue" stroke="midnightblue" points="460.692,-58.5001 470.692,-55 460.692,-51.5001 460.692,-58.5001"/>
</g>
</g>
</svg>
        <g id="navigator" transform="translate(0 0)" fill="#404254">
                <rect fill="#f2f5e9" fill-opacity="0.5" stroke="#606060" stroke-width=".5" x="0" y="0" width="60" height="60"/>
                <use id="zoomplus" xlink:href="#zoomPlus" x="17" y="9" onmousedown="handleZoom(evt,'in')"/>
                <use id="zoomminus" xlink:href="#zoomMin" x="42" y="9" onmousedown="handleZoom(evt,'out')"/>
                <use id="reset" xlink:href="#resetDef" x="30" y="36" onmousedown="handleReset()"/>
                <g id="arrowUp" xlink:href="#dirArrow" transform="translate(30 24)" onmousedown="handlePan(0,-1)">
                  <use xlink:href="#rim" fill="#404040">
                        <set attributeName="fill" to="#808080" begin="arrowUp.mouseover" end="arrowUp.mouseout"/>
                  </use>
                  <path fill="none" stroke="white" stroke-width="1.5" d="M0,-3.0v7 M-2.5,-0.5L0,-3.0L2.5,-0.5"/>
                </g>
                <g id="arrowRight" xlink:href="#dirArrow" transform="rotate(90) translate(36 -43)" onmousedown="handlePan(1,0)">
                  <use xlink:href="#rim" fill="#404040">
                        <set attributeName="fill" to="#808080" begin="arrowRight.mouseover" end="arrowRight.mouseout"/>
                  </use>
                  <path fill="none" stroke="white" stroke-width="1.5" d="M0,-3.0v7 M-2.5,-0.5L0,-3.0L2.5,-0.5"/>
                </g>
                <g id="arrowDown" xlink:href="#dirArrow" transform="rotate(180) translate(-30 -48)" onmousedown="handlePan(0,1)">
                  <use xlink:href="#rim" fill="#404040">
                        <set attributeName="fill" to="#808080" begin="arrowDown.mouseover" end="arrowDown.mouseout"/>
                  </use>
                  <path fill="none" stroke="white" stroke-width="1.5" d="M0,-3.0v7 M-2.5,-0.5L0,-3.0L2.5,-0.5"/>
                </g>
                <g id="arrowLeft" xlink:href="#dirArrow" transform="rotate(270) translate(-36 17)" onmousedown="handlePan(-1,0)">
                  <use xlink:href="#rim" fill="#404040">
                        <set attributeName="fill" to="#808080" begin="arrowLeft.mouseover" end="arrowLeft.mouseout"/>
                  </use>
                  <path fill="none" stroke="white" stroke-width="1.5" d="M0,-3.0v7 M-2.5,-0.5L0,-3.0L2.5,-0.5"/>
                </g>
        </g>
        <svg viewBox="0 0 15 15" width="100%" height="30px" preserveAspectRatio="xMaxYMin meet">
         <g id="arrow_out" transform="scale(0.3 0.3)">
          <a xlink:href="classMAVLink__routing_ace8e55f8db025f01d4309de699de5460_cgraph_org.svg" target="_base">
           <rect id="button" ry="5" rx="5" y="6" x="6" height="38" width="38"
                fill="#f2f5e9" fill-opacity="0.5" stroke="#606060" stroke-width="1.0"/>
           <path id="arrow"
             d="M 11.500037,31.436501 C 11.940474,20.09759 22.043105,11.32322 32.158766,21.979434 L 37.068811,17.246167 C 37.068811,17.246167 37.088388,32 37.088388,32 L 22.160133,31.978069 C 22.160133,31.978069 26.997745,27.140456 26.997745,27.140456 C 18.528582,18.264221 13.291696,25.230495 11.500037,31.436501 z"
             style="fill:#404040;"/>
          </a>
         </g>
        </svg>
</svg>
