<?xml version="1.0" encoding="UTF-8" standalone="no"?>
<!DOCTYPE svg PUBLIC "-//W3C//DTD SVG 1.1//EN"
 "http://www.w3.org/Graphics/SVG/1.1/DTD/svg11.dtd">
<!-- Generated by graphviz version 2.30.1 (20130221.2233)
 -->
<!-- Title: AP_Param::find_key_by_pointer Pages: 1 -->
<svg width="582pt" height="121pt"
 viewBox="0.00 0.00 582.00 121.00" xmlns="http://www.w3.org/2000/svg" xmlns:xlink="http://www.w3.org/1999/xlink">
<g id="graph0" class="graph" transform="scale(1 1) rotate(0) translate(4 117)">
<title>AP_Param::find_key_by_pointer</title>
<polygon fill="white" stroke="white" points="-4,5 -4,-117 579,-117 579,5 -4,5"/>
<!-- Node656 -->
<g id="node1" class="node"><title>Node656</title>
<g id="a_node1"><a xlink:title=" ">
<polygon fill="#bfbfbf" stroke="black" points="0.421387,-65 0.421387,-97 107.579,-97 107.579,-65 0.421387,-65"/>
<text text-anchor="start" x="8.42139" y="-83" font-family="Helvetica,sans-Serif" font-size="10.00">AP_Param::find_key</text>
<text text-anchor="middle" x="54" y="-71" font-family="Helvetica,sans-Serif" font-size="10.00">_by_pointer</text>
</a>
</g>
</g>
<!-- Node657 -->
<g id="node2" class="node"><title>Node657</title>
<g id="a_node2"><a xlink:href="classAP__Param.html#a69baa95e011c7a8c4a29625c558c5501" target="_top" xlink:title="get group_info pointer based on flags">
<polygon fill="white" stroke="black" points="288.683,-93 288.683,-113 425.317,-113 425.317,-93 288.683,-93"/>
<text text-anchor="middle" x="357" y="-99" font-family="Helvetica,sans-Serif" font-size="10.00">AP_Param::get_group_info</text>
</a>
</g>
</g>
<!-- Node656&#45;&gt;Node657 -->
<g id="edge1" class="edge"><title>Node656&#45;&gt;Node657</title>
<path fill="none" stroke="midnightblue" d="M107.775,-84.8573C154.977,-88.3073 224.774,-93.4087 278.344,-97.3242"/>
<polygon fill="midnightblue" stroke="midnightblue" points="278.261,-100.827 288.489,-98.0657 278.771,-93.8459 278.261,-100.827"/>
</g>
<!-- Node658 -->
<g id="node3" class="node"><title>Node658</title>
<g id="a_node3"><a xlink:href="classAP__Param.html#aa15dd4117be49f3d129f4c3c1799644b" target="_top" xlink:title=" ">
<polygon fill="white" stroke="black" points="144.421,-43 144.421,-75 251.579,-75 251.579,-43 144.421,-43"/>
<text text-anchor="start" x="152.421" y="-61" font-family="Helvetica,sans-Serif" font-size="10.00">AP_Param::find_key</text>
<text text-anchor="middle" x="198" y="-49" font-family="Helvetica,sans-Serif" font-size="10.00">_by_pointer_group</text>
</a>
</g>
</g>
<!-- Node656&#45;&gt;Node658 -->
<g id="edge2" class="edge"><title>Node656&#45;&gt;Node658</title>
<path fill="none" stroke="midnightblue" d="M107.876,-72.808C116.377,-71.4909 125.25,-70.1162 133.961,-68.7667"/>
<polygon fill="midnightblue" stroke="midnightblue" points="134.734,-72.1887 144.08,-67.1988 133.662,-65.2712 134.734,-72.1887"/>
</g>
<!-- Node659 -->
<g id="node4" class="node"><title>Node659</title>
<g id="a_node4"><a xlink:href="classAP__Param.html#a1dcc7820ea51e29cfb762387a9212818" target="_top" xlink:title=" ">
<polygon fill="white" stroke="black" points="462.471,-28 462.471,-48 573.529,-48 573.529,-28 462.471,-28"/>
<text text-anchor="middle" x="518" y="-34" font-family="Helvetica,sans-Serif" font-size="10.00">AP_Param::get_base</text>
</a>
</g>
</g>
<!-- Node658&#45;&gt;Node659 -->
<g id="edge3" class="edge"><title>Node658&#45;&gt;Node659</title>
<path fill="none" stroke="midnightblue" d="M251.868,-55.5087C306.849,-51.8779 392.988,-46.1895 452.069,-42.2879"/>
<polygon fill="midnightblue" stroke="midnightblue" points="452.658,-45.7567 462.406,-41.6053 452.197,-38.7719 452.658,-45.7567"/>
</g>
<!-- Node660 -->
<g id="node5" class="node"><title>Node660</title>
<g id="a_node5"><a xlink:href="classAP__Param.html#aa8b43d95bca6adbf5497e8102cf73857" target="_top" xlink:title=" ">
<polygon fill="white" stroke="black" points="293.133,-0 293.133,-32 420.867,-32 420.867,-0 293.133,-0"/>
<text text-anchor="start" x="301.133" y="-18" font-family="Helvetica,sans-Serif" font-size="10.00">AP_Param::adjust_group</text>
<text text-anchor="middle" x="357" y="-6" font-family="Helvetica,sans-Serif" font-size="10.00">_offset</text>
</a>
</g>
</g>
<!-- Node658&#45;&gt;Node660 -->
<g id="edge4" class="edge"><title>Node658&#45;&gt;Node660</title>
<path fill="none" stroke="midnightblue" d="M251.715,-44.562C263.199,-41.4169 275.51,-38.045 287.505,-34.7598"/>
<polygon fill="midnightblue" stroke="midnightblue" points="288.76,-38.0449 297.481,-32.0276 286.911,-31.2936 288.76,-38.0449"/>
</g>
<!-- Node658&#45;&gt;Node657 -->
<g id="edge6" class="edge"><title>Node658&#45;&gt;Node657</title>
<path fill="none" stroke="midnightblue" d="M251.715,-73.7738C270.657,-79.0821 291.851,-85.0219 310.16,-90.1532"/>
<polygon fill="midnightblue" stroke="midnightblue" points="309.429,-93.5831 320.003,-92.9115 311.318,-86.8428 309.429,-93.5831"/>
</g>
<!-- Node660&#45;&gt;Node659 -->
<g id="edge5" class="edge"><title>Node660&#45;&gt;Node659</title>
<path fill="none" stroke="midnightblue" d="M421.298,-24.7582C431.495,-26.1691 442.064,-27.6315 452.294,-29.047"/>
<polygon fill="midnightblue" stroke="midnightblue" points="451.999,-32.5395 462.385,-30.4432 452.959,-25.6055 451.999,-32.5395"/>
</g>
</g>
</svg>
