<?xml version="1.0" encoding="UTF-8" standalone="no"?>
<!DOCTYPE svg PUBLIC "-//W3C//DTD SVG 1.1//EN"
 "http://www.w3.org/Graphics/SVG/1.1/DTD/svg11.dtd">
<!-- Generated by graphviz version 2.30.1 (20130221.2233)
 -->
<!-- Title: AP_WindVane_NMEA::init Pages: 1 -->
<svg width="640pt" height="142pt"
 viewBox="0.00 0.00 640.00 142.00" xmlns="http://www.w3.org/2000/svg" xmlns:xlink="http://www.w3.org/1999/xlink">
<g id="graph0" class="graph" transform="scale(1 1) rotate(0) translate(4 138)">
<title>AP_WindVane_NMEA::init</title>
<polygon fill="white" stroke="white" points="-4,5 -4,-138 637,-138 637,5 -4,5"/>
<!-- Node25 -->
<g id="node1" class="node"><title>Node25</title>
<g id="a_node1"><a xlink:title=" ">
<polygon fill="#bfbfbf" stroke="black" points="0.452637,-57 0.452637,-77 133.547,-77 133.547,-57 0.452637,-57"/>
<text text-anchor="middle" x="67" y="-63" font-family="Helvetica,sans-Serif" font-size="10.00">AP_WindVane_NMEA::init</text>
</a>
</g>
</g>
<!-- Node26 -->
<g id="node2" class="node"><title>Node26</title>
<g id="a_node2"><a xlink:href="classAP__SerialManager.html#a58cb32ebb77d9fc18e4756d0270d1970" target="_top" xlink:title=" ">
<polygon fill="white" stroke="black" points="170.192,-102 170.192,-134 291.808,-134 291.808,-102 170.192,-102"/>
<text text-anchor="start" x="178.192" y="-120" font-family="Helvetica,sans-Serif" font-size="10.00">AP_SerialManager::find</text>
<text text-anchor="middle" x="231" y="-108" font-family="Helvetica,sans-Serif" font-size="10.00">_serial</text>
</a>
</g>
</g>
<!-- Node25&#45;&gt;Node26 -->
<g id="edge1" class="edge"><title>Node25&#45;&gt;Node26</title>
<path fill="none" stroke="midnightblue" d="M100.006,-77.076C119.781,-83.3014 145.796,-91.4914 169.355,-98.908"/>
<polygon fill="midnightblue" stroke="midnightblue" points="168.34,-102.258 178.93,-101.922 170.442,-95.5809 168.34,-102.258"/>
</g>
<!-- Node29 -->
<g id="node5" class="node"><title>Node29</title>
<g id="a_node5"><a xlink:href="classAP__HAL_1_1UARTDriver.html#a2a83124757f6f8f6eb4d25b11c9cb97e" target="_top" xlink:title=" ">
<polygon fill="white" stroke="black" points="174.189,-51 174.189,-83 287.811,-83 287.811,-51 174.189,-51"/>
<text text-anchor="start" x="182.189" y="-69" font-family="Helvetica,sans-Serif" font-size="10.00">AP_HAL::UARTDriver</text>
<text text-anchor="middle" x="231" y="-57" font-family="Helvetica,sans-Serif" font-size="10.00">::begin</text>
</a>
</g>
</g>
<!-- Node25&#45;&gt;Node29 -->
<g id="edge4" class="edge"><title>Node25&#45;&gt;Node29</title>
<path fill="none" stroke="midnightblue" d="M133.892,-67C143.774,-67 153.967,-67 163.855,-67"/>
<polygon fill="midnightblue" stroke="midnightblue" points="164.022,-70.5001 174.022,-67 164.022,-63.5001 164.022,-70.5001"/>
</g>
<!-- Node30 -->
<g id="node6" class="node"><title>Node30</title>
<g id="a_node6"><a xlink:href="classAP__SerialManager.html#a5e363f0274897cdcf5a427d5bbe3eb51" target="_top" xlink:title=" ">
<polygon fill="white" stroke="black" points="170.192,-0 170.192,-32 291.808,-32 291.808,-0 170.192,-0"/>
<text text-anchor="start" x="178.192" y="-18" font-family="Helvetica,sans-Serif" font-size="10.00">AP_SerialManager::find</text>
<text text-anchor="middle" x="231" y="-6" font-family="Helvetica,sans-Serif" font-size="10.00">_baudrate</text>
</a>
</g>
</g>
<!-- Node25&#45;&gt;Node30 -->
<g id="edge5" class="edge"><title>Node25&#45;&gt;Node30</title>
<path fill="none" stroke="midnightblue" d="M100.006,-56.924C119.781,-50.6986 145.796,-42.5086 169.355,-35.092"/>
<polygon fill="midnightblue" stroke="midnightblue" points="170.442,-38.4191 178.93,-32.0777 168.34,-31.7421 170.442,-38.4191"/>
</g>
<!-- Node27 -->
<g id="node3" class="node"><title>Node27</title>
<g id="a_node3"><a xlink:href="classAP__SerialManager.html#a073cb2777b00ddb4695dea07acc786d9" target="_top" xlink:title=" ">
<polygon fill="white" stroke="black" points="330.192,-76 330.192,-108 451.808,-108 451.808,-76 330.192,-76"/>
<text text-anchor="start" x="338.192" y="-94" font-family="Helvetica,sans-Serif" font-size="10.00">AP_SerialManager::find</text>
<text text-anchor="middle" x="391" y="-82" font-family="Helvetica,sans-Serif" font-size="10.00">_protocol_instance</text>
</a>
</g>
</g>
<!-- Node26&#45;&gt;Node27 -->
<g id="edge2" class="edge"><title>Node26&#45;&gt;Node27</title>
<path fill="none" stroke="midnightblue" d="M292.184,-108.096C301.278,-106.6 310.725,-105.045 320.005,-103.518"/>
<polygon fill="midnightblue" stroke="midnightblue" points="320.685,-106.953 329.984,-101.876 319.548,-100.046 320.685,-106.953"/>
</g>
<!-- Node28 -->
<g id="node4" class="node"><title>Node28</title>
<g id="a_node4"><a xlink:href="classAP__SerialManager.html#aeecba06b097b0443637b7cf5349fdf68" target="_top" xlink:title=" ">
<polygon fill="white" stroke="black" points="490.466,-76 490.466,-108 631.534,-108 631.534,-76 490.466,-76"/>
<text text-anchor="start" x="498.466" y="-94" font-family="Helvetica,sans-Serif" font-size="10.00">AP_SerialManager::protocol</text>
<text text-anchor="middle" x="561" y="-82" font-family="Helvetica,sans-Serif" font-size="10.00">_match</text>
</a>
</g>
</g>
<!-- Node27&#45;&gt;Node28 -->
<g id="edge3" class="edge"><title>Node27&#45;&gt;Node28</title>
<path fill="none" stroke="midnightblue" d="M452.177,-92C461.235,-92 470.696,-92 480.088,-92"/>
<polygon fill="midnightblue" stroke="midnightblue" points="480.23,-95.5001 490.23,-92 480.23,-88.5001 480.23,-95.5001"/>
</g>
<!-- Node30&#45;&gt;Node27 -->
<g id="edge6" class="edge"><title>Node30&#45;&gt;Node27</title>
<path fill="none" stroke="midnightblue" d="M271.906,-32.0691C278.655,-34.9461 285.56,-37.9891 292,-41 311.974,-50.3381 333.772,-61.5741 351.727,-71.1202"/>
<polygon fill="midnightblue" stroke="midnightblue" points="350.267,-74.3087 360.736,-75.9392 353.569,-68.1363 350.267,-74.3087"/>
</g>
<!-- Node31 -->
<g id="node7" class="node"><title>Node31</title>
<g id="a_node7"><a xlink:href="classAP__SerialManager.html#a0b46c00a7f296e98ee118821a2481ffc" target="_top" xlink:title=" ">
<polygon fill="white" stroke="black" points="328.527,-0 328.527,-32 453.473,-32 453.473,-0 328.527,-0"/>
<text text-anchor="start" x="336.527" y="-18" font-family="Helvetica,sans-Serif" font-size="10.00">AP_SerialManager::map</text>
<text text-anchor="middle" x="391" y="-6" font-family="Helvetica,sans-Serif" font-size="10.00">_baudrate</text>
</a>
</g>
</g>
<!-- Node30&#45;&gt;Node31 -->
<g id="edge7" class="edge"><title>Node30&#45;&gt;Node31</title>
<path fill="none" stroke="midnightblue" d="M292.184,-16C300.708,-16 309.543,-16 318.259,-16"/>
<polygon fill="midnightblue" stroke="midnightblue" points="318.411,-19.5001 328.411,-16 318.411,-12.5001 318.411,-19.5001"/>
</g>
</g>
</svg>
