<?xml version="1.0" encoding="UTF-8" standalone="no"?>
<!DOCTYPE svg PUBLIC "-//W3C//DTD SVG 1.1//EN"
 "http://www.w3.org/Graphics/SVG/1.1/DTD/svg11.dtd">
<!-- Generated by graphviz version 2.30.1 (20130221.2233)
 -->
<!-- Title: AP_RCProtocol_SRXL::srxl_channels_get_v1v2 Pages: 1 -->
<!--zoomable 654 -->
<svg id="main" version="1.1" xmlns="http://www.w3.org/2000/svg" xmlns:xlink="http://www.w3.org/1999/xlink" xml:space="preserve" onload="init(evt)">
<style type="text/css"><![CDATA[
.edge:hover path { stroke: red; }
.edge:hover polygon { stroke: red; fill: red; }
]]></style>
<script type="text/javascript"><![CDATA[
var edges = document.getElementsByTagName('g');
if (edges && edges.length) {
  for (var i=0;i<edges.length;i++) {
    if (edges[i].id.substr(0,4)=='edge') {
      edges[i].setAttribute('class','edge');
    }
  }
}
]]></script>
        <defs>
                <circle id="rim" cx="0" cy="0" r="7"/>
                <circle id="rim2" cx="0" cy="0" r="3.5"/>
                <g id="zoomPlus">
                        <use xlink:href="#rim" fill="#404040">
                                <set attributeName="fill" to="#808080" begin="zoomplus.mouseover" end="zoomplus.mouseout"/>
                        </use>
                        <path d="M-4,0h8M0,-4v8" fill="none" stroke="white" stroke-width="1.5" pointer-events="none"/>
                </g>
                <g id="zoomMin">
                        <use xlink:href="#rim" fill="#404040">
                                <set attributeName="fill" to="#808080" begin="zoomminus.mouseover" end="zoomminus.mouseout"/>
                        </use>
                        <path d="M-4,0h8" fill="none" stroke="white" stroke-width="1.5" pointer-events="none"/>
                </g>
                <g id="dirArrow">
                        <path fill="none" stroke="white" stroke-width="1.5" d="M0,-3.0v7 M-2.5,-0.5L0,-3.0L2.5,-0.5"/>
                </g>
               <g id="resetDef">
                       <use xlink:href="#rim2" fill="#404040">
                               <set attributeName="fill" to="#808080" begin="reset.mouseover" end="reset.mouseout"/>
                       </use>
               </g>
        </defs>

<script type="text/javascript">
var viewWidth = 1592;
var viewHeight = 654;
var sectionId = 'dynsection-6';
</script>
<script xlink:href="svgpan.js"/>
<svg id="graph" class="graph">
<g id="viewport">
<title>AP_RCProtocol_SRXL::srxl_channels_get_v1v2</title>
<polygon fill="white" stroke="white" points="-4,5 -4,-650 1589,-650 1589,5 -4,5"/>
<!-- Node181 -->
<g id="node1" class="node"><title>Node181</title>
<g id="a_node1"><a xlink:title=" ">
<polygon fill="#bfbfbf" stroke="black" points="0.57666,-280 0.57666,-312 129.423,-312 129.423,-280 0.57666,-280"/>
<text text-anchor="start" x="8.57666" y="-298" font-family="Helvetica,sans-Serif" font-size="10.00">AP_RCProtocol_SRXL</text>
<text text-anchor="middle" x="65" y="-286" font-family="Helvetica,sans-Serif" font-size="10.00">::srxl_channels_get_v1v2</text>
</a>
</g>
</g>
<!-- Node182 -->
<g id="node2" class="node"><title>Node182</title>
<g id="a_node2"><a xlink:href="AC__PID__test_8cpp.html#afe461d27b9c48d5921c00d521181f12f" target="_top" xlink:title=" ">
<polygon fill="white" stroke="black" points="166.547,-286 166.547,-306 201.453,-306 201.453,-286 166.547,-286"/>
<text text-anchor="middle" x="184" y="-292" font-family="Helvetica,sans-Serif" font-size="10.00">loop</text>
</a>
</g>
</g>
<!-- Node181&#45;&gt;Node182 -->
<g id="edge1" class="edge"><title>Node181&#45;&gt;Node182</title>
<path fill="none" stroke="midnightblue" d="M129.636,-296C138.921,-296 148.033,-296 156.025,-296"/>
<polygon fill="midnightblue" stroke="midnightblue" points="156.141,-299.5 166.141,-296 156.141,-292.5 156.141,-299.5"/>
</g>
<!-- Node183 -->
<g id="node3" class="node"><title>Node183</title>
<g id="a_node3"><a xlink:href="classAP__HAL_1_1BetterStream.html#a8534aa004599bb81ad60f3e762791032" target="_top" xlink:title=" ">
<polygon fill="white" stroke="black" points="247.589,-559 247.589,-591 366.411,-591 366.411,-559 247.589,-559"/>
<text text-anchor="start" x="255.589" y="-577" font-family="Helvetica,sans-Serif" font-size="10.00">AP_HAL::BetterStream</text>
<text text-anchor="middle" x="307" y="-565" font-family="Helvetica,sans-Serif" font-size="10.00">::printf</text>
</a>
</g>
</g>
<!-- Node182&#45;&gt;Node183 -->
<g id="edge2" class="edge"><title>Node182&#45;&gt;Node183</title>
<path fill="none" stroke="midnightblue" d="M185.846,-306.197C189.558,-348.672 205.679,-511.095 238,-549 239.025,-550.202 240.112,-551.349 241.253,-552.443"/>
<polygon fill="midnightblue" stroke="midnightblue" points="239.448,-555.477 249.467,-558.922 243.783,-549.981 239.448,-555.477"/>
</g>
<!-- Node191 -->
<g id="node11" class="node"><title>Node191</title>
<g id="a_node11"><a xlink:href="classAC__PID.html#ac29a8c72a8618d87886599204dcb5b79" target="_top" xlink:title=" ">
<polygon fill="white" stroke="black" points="272.325,-520 272.325,-540 341.675,-540 341.675,-520 272.325,-520"/>
<text text-anchor="middle" x="307" y="-526" font-family="Helvetica,sans-Serif" font-size="10.00">AC_PID::kP</text>
</a>
</g>
</g>
<!-- Node182&#45;&gt;Node191 -->
<g id="edge12" class="edge"><title>Node182&#45;&gt;Node191</title>
<path fill="none" stroke="midnightblue" d="M186.185,-306.222C190.834,-344.639 209.012,-479.73 238,-510 244.563,-516.853 253.342,-521.392 262.406,-524.39"/>
<polygon fill="midnightblue" stroke="midnightblue" points="261.694,-527.823 272.262,-527.074 263.533,-521.069 261.694,-527.823"/>
</g>
<!-- Node192 -->
<g id="node12" class="node"><title>Node192</title>
<g id="a_node12"><a xlink:href="classAC__PID.html#af27f5e854a44864911720c12c3d1af0a" target="_top" xlink:title=" ">
<polygon fill="white" stroke="black" points="274.271,-481 274.271,-501 339.729,-501 339.729,-481 274.271,-481"/>
<text text-anchor="middle" x="307" y="-487" font-family="Helvetica,sans-Serif" font-size="10.00">AC_PID::kI</text>
</a>
</g>
</g>
<!-- Node182&#45;&gt;Node192 -->
<g id="edge13" class="edge"><title>Node182&#45;&gt;Node192</title>
<path fill="none" stroke="midnightblue" d="M184.934,-306.373C185.327,-336.368 190.673,-424.051 238,-471 245.132,-478.075 254.631,-482.672 264.262,-485.651"/>
<polygon fill="midnightblue" stroke="midnightblue" points="263.697,-489.119 274.252,-488.207 265.432,-482.338 263.697,-489.119"/>
</g>
<!-- Node193 -->
<g id="node13" class="node"><title>Node193</title>
<g id="a_node13"><a xlink:href="classAC__PID.html#a2d7be199fbc437ee472fad5a4308c668" target="_top" xlink:title=" ">
<polygon fill="white" stroke="black" points="272.049,-442 272.049,-462 341.951,-462 341.951,-442 272.049,-442"/>
<text text-anchor="middle" x="307" y="-448" font-family="Helvetica,sans-Serif" font-size="10.00">AC_PID::kD</text>
</a>
</g>
</g>
<!-- Node182&#45;&gt;Node193 -->
<g id="edge14" class="edge"><title>Node182&#45;&gt;Node193</title>
<path fill="none" stroke="midnightblue" d="M185.958,-306.227C188.873,-331.437 199.916,-397.043 238,-432 244.718,-438.167 253.246,-442.439 261.971,-445.397"/>
<polygon fill="midnightblue" stroke="midnightblue" points="261.245,-448.83 271.822,-448.21 263.167,-442.099 261.245,-448.83"/>
</g>
<!-- Node194 -->
<g id="node14" class="node"><title>Node194</title>
<g id="a_node14"><a xlink:href="classAC__PID.html#a6550a7089832427fa7cc060b71cd9f87" target="_top" xlink:title=" ">
<polygon fill="white" stroke="black" points="267.604,-403 267.604,-423 346.396,-423 346.396,-403 267.604,-403"/>
<text text-anchor="middle" x="307" y="-409" font-family="Helvetica,sans-Serif" font-size="10.00">AC_PID::imax</text>
</a>
</g>
</g>
<!-- Node182&#45;&gt;Node194 -->
<g id="edge15" class="edge"><title>Node182&#45;&gt;Node194</title>
<path fill="none" stroke="midnightblue" d="M188.207,-306.099C194.656,-324.847 210.936,-365.194 238,-388 243.819,-392.904 250.686,-396.886 257.78,-400.108"/>
<polygon fill="midnightblue" stroke="midnightblue" points="256.934,-403.542 267.517,-404.047 259.559,-397.052 256.934,-403.542"/>
</g>
<!-- Node195 -->
<g id="node15" class="node"><title>Node195</title>
<g id="a_node15"><a xlink:href="RC__Channel_8h.html#acb66f35c4fe350096704f48e4c651948" target="_top" xlink:title=" ">
<polygon fill="white" stroke="black" points="787.5,-267 787.5,-287 816.5,-287 816.5,-267 787.5,-267"/>
<text text-anchor="middle" x="802" y="-273" font-family="Helvetica,sans-Serif" font-size="10.00">rc</text>
</a>
</g>
</g>
<!-- Node182&#45;&gt;Node195 -->
<g id="edge16" class="edge"><title>Node182&#45;&gt;Node195</title>
<path fill="none" stroke="midnightblue" d="M201.477,-295.492C286.677,-292.864 677.181,-280.819 777.469,-277.726"/>
<polygon fill="midnightblue" stroke="midnightblue" points="777.606,-281.223 787.493,-277.417 777.39,-274.227 777.606,-281.223"/>
</g>
<!-- Node197 -->
<g id="node17" class="node"><title>Node197</title>
<g id="a_node17"><a xlink:href="classRC__Channels.html#a305bdcb535ed4055e86125c65bc6ba0c" target="_top" xlink:title=" ">
<polygon fill="white" stroke="black" points="412.579,-157 412.579,-177 531.421,-177 531.421,-157 412.579,-157"/>
<text text-anchor="middle" x="472" y="-163" font-family="Helvetica,sans-Serif" font-size="10.00">RC_Channels::channel</text>
</a>
</g>
</g>
<!-- Node182&#45;&gt;Node197 -->
<g id="edge18" class="edge"><title>Node182&#45;&gt;Node197</title>
<path fill="none" stroke="midnightblue" d="M191.626,-285.817C200.603,-272.823 217.844,-250.532 238,-238 292.23,-204.282 314.971,-216.796 376,-198 394.295,-192.365 414.469,-185.828 431.502,-180.214"/>
<polygon fill="midnightblue" stroke="midnightblue" points="432.736,-183.493 441.131,-177.029 430.537,-176.847 432.736,-183.493"/>
</g>
<!-- Node198 -->
<g id="node18" class="node"><title>Node198</title>
<g id="a_node18"><a xlink:href="classAP__HAL_1_1Scheduler.html#ab3175e2e6223ccfe82f957e41cc12b26" target="_top" xlink:title=" ">
<polygon fill="white" stroke="black" points="251.751,-157 251.751,-189 362.249,-189 362.249,-157 251.751,-157"/>
<text text-anchor="start" x="259.751" y="-175" font-family="Helvetica,sans-Serif" font-size="10.00">AP_HAL::Scheduler::</text>
<text text-anchor="middle" x="307" y="-163" font-family="Helvetica,sans-Serif" font-size="10.00">delay</text>
</a>
</g>
</g>
<!-- Node182&#45;&gt;Node198 -->
<g id="edge19" class="edge"><title>Node182&#45;&gt;Node198</title>
<path fill="none" stroke="midnightblue" d="M188.478,-285.8C195.27,-267.24 211.952,-227.686 238,-204 242.02,-200.345 246.544,-197.056 251.3,-194.111"/>
<polygon fill="midnightblue" stroke="midnightblue" points="253.059,-197.138 260.052,-189.178 249.622,-191.04 253.059,-197.138"/>
</g>
<!-- Node199 -->
<g id="node19" class="node"><title>Node199</title>
<g id="a_node19"><a xlink:href="classRC__Channel.html#a35dd43d363695269b38277306426f883" target="_top" xlink:title=" ">
<polygon fill="white" stroke="black" points="240.072,-118 240.072,-138 373.928,-138 373.928,-118 240.072,-118"/>
<text text-anchor="middle" x="307" y="-124" font-family="Helvetica,sans-Serif" font-size="10.00">RC_Channel::get_radio_in</text>
</a>
</g>
</g>
<!-- Node182&#45;&gt;Node199 -->
<g id="edge20" class="edge"><title>Node182&#45;&gt;Node199</title>
<path fill="none" stroke="midnightblue" d="M185.596,-285.684C187.71,-258.907 197.112,-186.589 238,-148 239.879,-146.226 241.908,-144.609 244.049,-143.134"/>
<polygon fill="midnightblue" stroke="midnightblue" points="245.85,-146.136 252.783,-138.125 242.367,-140.064 245.85,-146.136"/>
</g>
<!-- Node200 -->
<g id="node20" class="node"><title>Node200</title>
<g id="a_node20"><a xlink:href="classRC__Channels.html#a083e607f30ee868a32bff10335e2f0db" target="_top" xlink:title=" ">
<polygon fill="white" stroke="black" points="241.463,-247 241.463,-267 372.537,-267 372.537,-247 241.463,-247"/>
<text text-anchor="middle" x="307" y="-253" font-family="Helvetica,sans-Serif" font-size="10.00">RC_Channels::read_input</text>
</a>
</g>
</g>
<!-- Node182&#45;&gt;Node200 -->
<g id="edge21" class="edge"><title>Node182&#45;&gt;Node200</title>
<path fill="none" stroke="midnightblue" d="M201.825,-290.577C218.155,-285.314 243.576,-277.12 265.218,-270.145"/>
<polygon fill="midnightblue" stroke="midnightblue" points="266.405,-273.439 274.849,-267.04 264.258,-266.777 266.405,-273.439"/>
</g>
<!-- Node221 -->
<g id="node41" class="node"><title>Node221</title>
<g id="a_node41"><a xlink:href="main_8c.html#a9d87237c8a191a7bb92fc78770e62592" target="_top" xlink:title=" ">
<polygon fill="white" stroke="black" points="288.443,-79 288.443,-99 325.557,-99 325.557,-79 288.443,-79"/>
<text text-anchor="middle" x="307" y="-85" font-family="Helvetica,sans-Serif" font-size="10.00">error</text>
</a>
</g>
</g>
<!-- Node182&#45;&gt;Node221 -->
<g id="edge45" class="edge"><title>Node182&#45;&gt;Node221</title>
<path fill="none" stroke="midnightblue" d="M184.698,-285.831C184.351,-254.717 187.666,-159.834 238,-109 248.556,-98.3389 264.481,-93.2962 278.267,-90.9385"/>
<polygon fill="midnightblue" stroke="midnightblue" points="278.816,-94.3965 288.268,-89.6103 277.894,-87.4574 278.816,-94.3965"/>
</g>
<!-- Node224 -->
<g id="node44" class="node"><title>Node224</title>
<g id="a_node44"><a xlink:href="classAC__PID.html#ac267330f1299f011febcaaba47994af7" target="_top" xlink:title=" ">
<polygon fill="white" stroke="black" points="237.857,-325 237.857,-345 376.143,-345 376.143,-325 237.857,-325"/>
<text text-anchor="middle" x="307" y="-331" font-family="Helvetica,sans-Serif" font-size="10.00">AC_PID::set_input_filter_all</text>
</a>
</g>
</g>
<!-- Node182&#45;&gt;Node224 -->
<g id="edge48" class="edge"><title>Node182&#45;&gt;Node224</title>
<path fill="none" stroke="midnightblue" d="M201.825,-301.423C218.155,-306.686 243.576,-314.88 265.218,-321.855"/>
<polygon fill="midnightblue" stroke="midnightblue" points="264.258,-325.223 274.849,-324.96 266.405,-318.561 264.258,-325.223"/>
</g>
<!-- Node227 -->
<g id="node47" class="node"><title>Node227</title>
<g id="a_node47"><a xlink:href="classAC__PID.html#a4808bb2656a1e8d94c713e58a7a2a222" target="_top" xlink:title=" ">
<polygon fill="white" stroke="black" points="265.648,-40 265.648,-60 348.352,-60 348.352,-40 265.648,-40"/>
<text text-anchor="middle" x="307" y="-46" font-family="Helvetica,sans-Serif" font-size="10.00">AC_PID::get_p</text>
</a>
</g>
</g>
<!-- Node182&#45;&gt;Node227 -->
<g id="edge52" class="edge"><title>Node182&#45;&gt;Node227</title>
<path fill="none" stroke="midnightblue" d="M186.042,-285.76C190.291,-245.965 207.539,-102.207 238,-70 242.886,-64.8342 249.03,-60.9814 255.616,-58.1121"/>
<polygon fill="midnightblue" stroke="midnightblue" points="257.254,-61.2431 265.486,-54.5736 254.892,-54.6538 257.254,-61.2431"/>
</g>
<!-- Node228 -->
<g id="node48" class="node"><title>Node228</title>
<g id="a_node48"><a xlink:href="classAC__PID.html#a2d5bf9811a78c93a396ec1e37ae6fa0a" target="_top" xlink:title=" ">
<polygon fill="white" stroke="black" points="432.318,-364 432.318,-384 511.682,-384 511.682,-364 432.318,-364"/>
<text text-anchor="middle" x="472" y="-370" font-family="Helvetica,sans-Serif" font-size="10.00">AC_PID::get_i</text>
</a>
</g>
</g>
<!-- Node182&#45;&gt;Node228 -->
<g id="edge53" class="edge"><title>Node182&#45;&gt;Node228</title>
<path fill="none" stroke="midnightblue" d="M190.984,-306.342C199.491,-319.951 216.467,-343.385 238,-354 296.305,-382.744 372.821,-383.356 421.96,-379.782"/>
<polygon fill="midnightblue" stroke="midnightblue" points="422.331,-383.264 432.014,-378.965 421.763,-376.287 422.331,-383.264"/>
</g>
<!-- Node229 -->
<g id="node49" class="node"><title>Node229</title>
<g id="a_node49"><a xlink:href="classAC__PID.html#ad0c0510049ea37401920792e843bec86" target="_top" xlink:title=" ">
<polygon fill="white" stroke="black" points="265.648,-1 265.648,-21 348.352,-21 348.352,-1 265.648,-1"/>
<text text-anchor="middle" x="307" y="-7" font-family="Helvetica,sans-Serif" font-size="10.00">AC_PID::get_d</text>
</a>
</g>
</g>
<!-- Node182&#45;&gt;Node229 -->
<g id="edge55" class="edge"><title>Node182&#45;&gt;Node229</title>
<path fill="none" stroke="midnightblue" d="M185.655,-285.849C188.679,-242.033 202.684,-69.5942 238,-31 242.8,-25.7544 248.897,-21.8578 255.462,-18.9686"/>
<polygon fill="midnightblue" stroke="midnightblue" points="257.097,-22.0999 265.318,-15.4165 254.723,-15.5146 257.097,-22.0999"/>
</g>
<!-- Node184 -->
<g id="node4" class="node"><title>Node184</title>
<g id="a_node4"><a xlink:href="classAP__HAL_1_1BetterStream.html#aa730be451d385d7ba03ee9677e6d91a2" target="_top" xlink:title=" ">
<polygon fill="white" stroke="black" points="412.589,-559 412.589,-591 531.411,-591 531.411,-559 412.589,-559"/>
<text text-anchor="start" x="420.589" y="-577" font-family="Helvetica,sans-Serif" font-size="10.00">AP_HAL::BetterStream</text>
<text text-anchor="middle" x="472" y="-565" font-family="Helvetica,sans-Serif" font-size="10.00">::vprintf</text>
</a>
</g>
</g>
<!-- Node183&#45;&gt;Node184 -->
<g id="edge3" class="edge"><title>Node183&#45;&gt;Node184</title>
<path fill="none" stroke="midnightblue" d="M366.847,-575C378.343,-575 390.493,-575 402.277,-575"/>
<polygon fill="midnightblue" stroke="midnightblue" points="402.513,-578.5 412.513,-575 402.513,-571.5 402.513,-578.5"/>
</g>
<!-- Node185 -->
<g id="node5" class="node"><title>Node185</title>
<g id="a_node5"><a xlink:href="print__vprintf_8cpp.html#a98e0d5bb436a207f576379beaa786040" target="_top" xlink:title=" ">
<polygon fill="white" stroke="black" points="602.877,-565 602.877,-585 671.123,-585 671.123,-565 602.877,-565"/>
<text text-anchor="middle" x="637" y="-571" font-family="Helvetica,sans-Serif" font-size="10.00">print_vprintf</text>
</a>
</g>
</g>
<!-- Node184&#45;&gt;Node185 -->
<g id="edge4" class="edge"><title>Node184&#45;&gt;Node185</title>
<path fill="none" stroke="midnightblue" d="M531.847,-575C551.912,-575 573.968,-575 592.597,-575"/>
<polygon fill="midnightblue" stroke="midnightblue" points="592.843,-578.5 602.843,-575 592.843,-571.5 592.843,-578.5"/>
</g>
<!-- Node186 -->
<g id="node6" class="node"><title>Node186</title>
<g id="a_node6"><a xlink:href="classAP__HAL_1_1BetterStream.html#a915cc01273d4b418c2fb2989fb31a508" target="_top" xlink:title=" ">
<polygon fill="white" stroke="black" points="742.589,-536 742.589,-568 861.411,-568 861.411,-536 742.589,-536"/>
<text text-anchor="start" x="750.589" y="-554" font-family="Helvetica,sans-Serif" font-size="10.00">AP_HAL::BetterStream</text>
<text text-anchor="middle" x="802" y="-542" font-family="Helvetica,sans-Serif" font-size="10.00">::write</text>
</a>
</g>
</g>
<!-- Node185&#45;&gt;Node186 -->
<g id="edge5" class="edge"><title>Node185&#45;&gt;Node186</title>
<path fill="none" stroke="midnightblue" d="M671.379,-570.29C688.988,-567.805 711.266,-564.662 732.364,-561.685"/>
<polygon fill="midnightblue" stroke="midnightblue" points="732.864,-565.149 742.277,-560.286 731.886,-558.218 732.864,-565.149"/>
</g>
<!-- Node187 -->
<g id="node7" class="node"><title>Node187</title>
<g id="a_node7"><a xlink:href="ftoa__engine_8cpp.html#a1c28234da8f20b43c85890d4bb452947" target="_top" xlink:title=" ">
<polygon fill="white" stroke="black" points="767.865,-497 767.865,-517 836.135,-517 836.135,-497 767.865,-497"/>
<text text-anchor="middle" x="802" y="-503" font-family="Helvetica,sans-Serif" font-size="10.00">ftoa_engine</text>
</a>
</g>
</g>
<!-- Node185&#45;&gt;Node187 -->
<g id="edge6" class="edge"><title>Node185&#45;&gt;Node187</title>
<path fill="none" stroke="midnightblue" d="M658.051,-564.977C678.795,-554.79 712.263,-538.864 742,-527 747.599,-524.766 753.556,-522.557 759.451,-520.468"/>
<polygon fill="midnightblue" stroke="midnightblue" points="760.932,-523.659 769.237,-517.082 758.643,-517.044 760.932,-523.659"/>
</g>
<!-- Node189 -->
<g id="node9" class="node"><title>Node189</title>
<g id="a_node9"><a xlink:href="utoa__invert_8cpp.html#a34926f552460b47c414ec4d83b32815c" target="_top" xlink:title=" ">
<polygon fill="white" stroke="black" points="767.04,-626 767.04,-646 836.96,-646 836.96,-626 767.04,-626"/>
<text text-anchor="middle" x="802" y="-632" font-family="Helvetica,sans-Serif" font-size="10.00">ulltoa_invert</text>
</a>
</g>
</g>
<!-- Node185&#45;&gt;Node189 -->
<g id="edge8" class="edge"><title>Node185&#45;&gt;Node189</title>
<path fill="none" stroke="midnightblue" d="M662.666,-585.116C683.657,-593.63 714.665,-605.985 742,-616 747.998,-618.197 754.369,-620.446 760.621,-622.604"/>
<polygon fill="midnightblue" stroke="midnightblue" points="759.684,-625.982 770.278,-625.902 761.946,-619.358 759.684,-625.982"/>
</g>
<!-- Node190 -->
<g id="node10" class="node"><title>Node190</title>
<g id="a_node10"><a xlink:href="utoa__invert_8cpp.html#a5d99bba8e697c1e11da489d88fca8559" target="_top" xlink:title=" ">
<polygon fill="white" stroke="black" points="768.15,-587 768.15,-607 835.85,-607 835.85,-587 768.15,-587"/>
<text text-anchor="middle" x="802" y="-593" font-family="Helvetica,sans-Serif" font-size="10.00">ultoa_invert</text>
</a>
</g>
</g>
<!-- Node185&#45;&gt;Node190 -->
<g id="edge10" class="edge"><title>Node185&#45;&gt;Node190</title>
<path fill="none" stroke="midnightblue" d="M671.379,-579.505C696.403,-582.883 730.858,-587.533 757.955,-591.19"/>
<polygon fill="midnightblue" stroke="midnightblue" points="757.566,-594.669 767.945,-592.539 758.503,-587.732 757.566,-594.669"/>
</g>
<!-- Node188 -->
<g id="node8" class="node"><title>Node188</title>
<g id="a_node8"><a xlink:href="lstrlib_8c.html#a9605f4d16ae762782f8be8b54aef0a22" target="_top" xlink:title=" ">
<polygon fill="white" stroke="black" points="952.828,-587 952.828,-607 987.172,-607 987.172,-587 952.828,-587"/>
<text text-anchor="middle" x="970" y="-593" font-family="Helvetica,sans-Serif" font-size="10.00">digit</text>
</a>
</g>
</g>
<!-- Node187&#45;&gt;Node188 -->
<g id="edge7" class="edge"><title>Node187&#45;&gt;Node188</title>
<path fill="none" stroke="midnightblue" d="M836.358,-516.673C844.889,-519.587 853.929,-523.071 862,-527 893.435,-542.304 926.691,-565.273 947.629,-580.683"/>
<polygon fill="midnightblue" stroke="midnightblue" points="945.698,-583.608 955.807,-586.779 949.882,-577.996 945.698,-583.608"/>
</g>
<!-- Node189&#45;&gt;Node188 -->
<g id="edge9" class="edge"><title>Node189&#45;&gt;Node188</title>
<path fill="none" stroke="midnightblue" d="M836.993,-628.014C868.282,-620.663 914.046,-609.911 942.647,-603.191"/>
<polygon fill="midnightblue" stroke="midnightblue" points="943.768,-606.523 952.703,-600.829 942.167,-599.709 943.768,-606.523"/>
</g>
<!-- Node190&#45;&gt;Node188 -->
<g id="edge11" class="edge"><title>Node190&#45;&gt;Node188</title>
<path fill="none" stroke="midnightblue" d="M836.194,-597C867.403,-597 913.522,-597 942.386,-597"/>
<polygon fill="midnightblue" stroke="midnightblue" points="942.536,-600.5 952.536,-597 942.536,-593.5 942.536,-600.5"/>
</g>
<!-- Node196 -->
<g id="node16" class="node"><title>Node196</title>
<g id="a_node16"><a xlink:href="classRC__Channels.html#aff83e1bebc777f76d2c19fc601c40c4f" target="_top" xlink:title=" ">
<polygon fill="white" stroke="black" points="898.348,-267 898.348,-287 1041.65,-287 1041.65,-267 898.348,-267"/>
<text text-anchor="middle" x="970" y="-273" font-family="Helvetica,sans-Serif" font-size="10.00">RC_Channels::get_singleton</text>
</a>
</g>
</g>
<!-- Node195&#45;&gt;Node196 -->
<g id="edge17" class="edge"><title>Node195&#45;&gt;Node196</title>
<path fill="none" stroke="midnightblue" d="M816.584,-277C832.584,-277 860.493,-277 888.093,-277"/>
<polygon fill="midnightblue" stroke="midnightblue" points="888.225,-280.5 898.225,-277 888.225,-273.5 888.225,-280.5"/>
</g>
<!-- Node201 -->
<g id="node21" class="node"><title>Node201</title>
<g id="a_node21"><a xlink:href="classAP__HAL_1_1RCInput.html#aee1fade33080edef83dd7db0fad0f7da" target="_top" xlink:title=" ">
<polygon fill="white" stroke="black" points="411.751,-235 411.751,-267 532.249,-267 532.249,-235 411.751,-235"/>
<text text-anchor="start" x="419.751" y="-253" font-family="Helvetica,sans-Serif" font-size="10.00">AP_HAL::RCInput::new</text>
<text text-anchor="middle" x="472" y="-241" font-family="Helvetica,sans-Serif" font-size="10.00">_input</text>
</a>
</g>
</g>
<!-- Node200&#45;&gt;Node201 -->
<g id="edge22" class="edge"><title>Node200&#45;&gt;Node201</title>
<path fill="none" stroke="midnightblue" d="M372.89,-254.611C382.279,-254.266 391.974,-253.909 401.45,-253.56"/>
<polygon fill="midnightblue" stroke="midnightblue" points="401.756,-257.051 411.62,-253.186 401.498,-250.056 401.756,-257.051"/>
</g>
<!-- Node200&#45;&gt;Node197 -->
<g id="edge23" class="edge"><title>Node200&#45;&gt;Node197</title>
<path fill="none" stroke="midnightblue" d="M346.522,-246.932C356.668,-243.218 367.222,-238.322 376,-232 396.783,-217.031 391.028,-201.703 412,-187 415.058,-184.856 418.365,-182.927 421.797,-181.193"/>
<polygon fill="midnightblue" stroke="midnightblue" points="423.385,-184.317 431.092,-177.047 420.534,-177.924 423.385,-184.317"/>
</g>
<!-- Node202 -->
<g id="node22" class="node"><title>Node202</title>
<g id="a_node22"><a xlink:href="classRC__Channel.html#acfb55c691cc94e477c8d11deb3fe1687" target="_top" xlink:title=" ">
<polygon fill="white" stroke="black" points="417.301,-196 417.301,-216 526.699,-216 526.699,-196 417.301,-196"/>
<text text-anchor="middle" x="472" y="-202" font-family="Helvetica,sans-Serif" font-size="10.00">RC_Channel::update</text>
</a>
</g>
</g>
<!-- Node200&#45;&gt;Node202 -->
<g id="edge24" class="edge"><title>Node200&#45;&gt;Node202</title>
<path fill="none" stroke="midnightblue" d="M340.204,-246.924C365.654,-238.961 401.378,-227.784 429.062,-219.122"/>
<polygon fill="midnightblue" stroke="midnightblue" points="430.365,-222.381 438.863,-216.055 428.274,-215.701 430.365,-222.381"/>
</g>
<!-- Node203 -->
<g id="node23" class="node"><title>Node203</title>
<g id="a_node23"><a xlink:href="classRC__Channel.html#af70bb81d28a7c891649384227f7922a3" target="_top" xlink:title=" ">
<polygon fill="white" stroke="black" points="568.688,-107 568.688,-127 705.312,-127 705.312,-107 568.688,-107"/>
<text text-anchor="middle" x="637" y="-113" font-family="Helvetica,sans-Serif" font-size="10.00">RC_Channel::has_override</text>
</a>
</g>
</g>
<!-- Node202&#45;&gt;Node203 -->
<g id="edge25" class="edge"><title>Node202&#45;&gt;Node203</title>
<path fill="none" stroke="midnightblue" d="M513.665,-195.901C520.137,-193.281 526.502,-190.025 532,-186 553.804,-170.036 545.875,-152.516 568,-137 571.104,-134.823 574.446,-132.88 577.924,-131.147"/>
<polygon fill="midnightblue" stroke="midnightblue" points="579.605,-134.232 587.377,-127.031 576.811,-127.814 579.605,-134.232"/>
</g>
<!-- Node202&#45;&gt;Node195 -->
<g id="edge31" class="edge"><title>Node202&#45;&gt;Node195</title>
<path fill="none" stroke="midnightblue" d="M502.602,-216.033C529.853,-225.26 566.317,-237.579 568,-238 643.418,-256.886 734.899,-269.187 777.304,-274.299"/>
<polygon fill="midnightblue" stroke="midnightblue" points="777.108,-277.8 787.45,-275.497 777.929,-270.849 777.108,-277.8"/>
</g>
<!-- Node208 -->
<g id="node28" class="node"><title>Node208</title>
<g id="a_node28"><a xlink:href="classAP__HAL_1_1RCInput.html#a078fd7e6d2e6a899009ec674a8e03498" target="_top" xlink:title=" ">
<polygon fill="white" stroke="black" points="575.917,-68 575.917,-88 698.083,-88 698.083,-68 575.917,-68"/>
<text text-anchor="middle" x="637" y="-74" font-family="Helvetica,sans-Serif" font-size="10.00">AP_HAL::RCInput::read</text>
</a>
</g>
</g>
<!-- Node202&#45;&gt;Node208 -->
<g id="edge32" class="edge"><title>Node202&#45;&gt;Node208</title>
<path fill="none" stroke="midnightblue" d="M516.986,-195.909C522.472,-193.322 527.666,-190.075 532,-186 562.785,-157.052 536.631,-126.314 568,-98 569.998,-96.1964 572.151,-94.5549 574.419,-93.0611"/>
<polygon fill="midnightblue" stroke="midnightblue" points="576.558,-95.8797 583.641,-88.0007 573.19,-89.7428 576.558,-95.8797"/>
</g>
<!-- Node209 -->
<g id="node29" class="node"><title>Node209</title>
<g id="a_node29"><a xlink:href="classRC__Channel.html#a710ec00169e71f90318ebf0640fb86f4" target="_top" xlink:title=" ">
<polygon fill="white" stroke="black" points="580.086,-197 580.086,-229 693.914,-229 693.914,-197 580.086,-197"/>
<text text-anchor="start" x="588.086" y="-215" font-family="Helvetica,sans-Serif" font-size="10.00">RC_Channel::pwm_to</text>
<text text-anchor="middle" x="637" y="-203" font-family="Helvetica,sans-Serif" font-size="10.00">_range</text>
</a>
</g>
</g>
<!-- Node202&#45;&gt;Node209 -->
<g id="edge33" class="edge"><title>Node202&#45;&gt;Node209</title>
<path fill="none" stroke="midnightblue" d="M526.824,-208.311C540.554,-208.901 555.473,-209.542 569.745,-210.155"/>
<polygon fill="midnightblue" stroke="midnightblue" points="569.856,-213.663 579.997,-210.595 570.157,-206.669 569.856,-213.663"/>
</g>
<!-- Node218 -->
<g id="node38" class="node"><title>Node218</title>
<g id="a_node38"><a xlink:href="classRC__Channel.html#a087c1f776cc2c0e2a540dd9742d96a49" target="_top" xlink:title=" ">
<polygon fill="white" stroke="black" points="580.086,-146 580.086,-178 693.914,-178 693.914,-146 580.086,-146"/>
<text text-anchor="start" x="588.086" y="-164" font-family="Helvetica,sans-Serif" font-size="10.00">RC_Channel::pwm_to</text>
<text text-anchor="middle" x="637" y="-152" font-family="Helvetica,sans-Serif" font-size="10.00">_angle</text>
</a>
</g>
</g>
<!-- Node202&#45;&gt;Node218 -->
<g id="edge42" class="edge"><title>Node202&#45;&gt;Node218</title>
<path fill="none" stroke="midnightblue" d="M510.395,-195.906C528.085,-191.13 549.741,-185.285 570.057,-179.8"/>
<polygon fill="midnightblue" stroke="midnightblue" points="571.158,-183.129 579.9,-177.144 569.334,-176.371 571.158,-183.129"/>
</g>
<!-- Node203&#45;&gt;Node195 -->
<g id="edge26" class="edge"><title>Node203&#45;&gt;Node195</title>
<path fill="none" stroke="midnightblue" d="M691.223,-127.119C696.634,-129.704 701.707,-132.943 706,-137 740.633,-169.735 712.611,-200.486 742,-238 751.56,-250.203 766.04,-259.855 778.263,-266.504"/>
<polygon fill="midnightblue" stroke="midnightblue" points="776.945,-269.761 787.443,-271.184 780.124,-263.524 776.945,-269.761"/>
</g>
<!-- Node204 -->
<g id="node24" class="node"><title>Node204</title>
<g id="a_node24"><a xlink:href="classRC__Channels.html#ad061d265dc67222805e126f980ff4879" target="_top" xlink:title=" ">
<polygon fill="white" stroke="black" points="742.03,-56 742.03,-88 861.97,-88 861.97,-56 742.03,-56"/>
<text text-anchor="start" x="750.03" y="-74" font-family="Helvetica,sans-Serif" font-size="10.00">RC_Channels::override</text>
<text text-anchor="middle" x="802" y="-62" font-family="Helvetica,sans-Serif" font-size="10.00">_timeout_ms</text>
</a>
</g>
</g>
<!-- Node203&#45;&gt;Node204 -->
<g id="edge27" class="edge"><title>Node203&#45;&gt;Node204</title>
<path fill="none" stroke="midnightblue" d="M674.58,-106.901C691.842,-102.136 713.014,-96.2906 733.06,-90.7565"/>
<polygon fill="midnightblue" stroke="midnightblue" points="734.08,-94.1059 742.788,-88.0708 732.217,-87.3583 734.08,-94.1059"/>
</g>
<!-- Node205 -->
<g id="node25" class="node"><title>Node205</title>
<g id="a_node25"><a xlink:href="AP__Math_8h.html#a4e3ae698e8f99cec214348ad233e3c41" target="_top" xlink:title=" ">
<polygon fill="white" stroke="black" points="770.655,-17 770.655,-37 833.345,-37 833.345,-17 770.655,-17"/>
<text text-anchor="middle" x="802" y="-23" font-family="Helvetica,sans-Serif" font-size="10.00">is_positive</text>
</a>
</g>
</g>
<!-- Node203&#45;&gt;Node205 -->
<g id="edge28" class="edge"><title>Node203&#45;&gt;Node205</title>
<path fill="none" stroke="midnightblue" d="M687.013,-106.884C693.731,-104.296 700.277,-101.055 706,-97 728.343,-81.1696 719.984,-63.2826 742,-47 747.609,-42.8519 754.137,-39.5244 760.764,-36.8674"/>
<polygon fill="midnightblue" stroke="midnightblue" points="762.193,-40.0745 770.451,-33.4368 759.856,-33.4761 762.193,-40.0745"/>
</g>
<!-- Node206 -->
<g id="node26" class="node"><title>Node206</title>
<g id="a_node26"><a xlink:href="namespaceAP__HAL.html#a77dffbb18891996280308e21316ec186" target="_top" xlink:title=" ">
<polygon fill="white" stroke="black" points="760.936,-107 760.936,-127 843.064,-127 843.064,-107 760.936,-107"/>
<text text-anchor="middle" x="802" y="-113" font-family="Helvetica,sans-Serif" font-size="10.00">AP_HAL::millis</text>
</a>
</g>
</g>
<!-- Node203&#45;&gt;Node206 -->
<g id="edge29" class="edge"><title>Node203&#45;&gt;Node206</title>
<path fill="none" stroke="midnightblue" d="M705.711,-117C720.773,-117 736.483,-117 750.7,-117"/>
<polygon fill="midnightblue" stroke="midnightblue" points="750.759,-120.5 760.759,-117 750.758,-113.5 750.759,-120.5"/>
</g>
<!-- Node207 -->
<g id="node27" class="node"><title>Node207</title>
<g id="a_node27"><a xlink:href="hrt_8c.html#a1295f128f60d29874243b5733c4db025" target="_top" xlink:title=" ">
<polygon fill="white" stroke="black" points="936.714,-107 936.714,-127 1003.29,-127 1003.29,-107 936.714,-107"/>
<text text-anchor="middle" x="970" y="-113" font-family="Helvetica,sans-Serif" font-size="10.00">hrt_millis32</text>
</a>
</g>
</g>
<!-- Node206&#45;&gt;Node207 -->
<g id="edge30" class="edge"><title>Node206&#45;&gt;Node207</title>
<path fill="none" stroke="midnightblue" d="M843.184,-117C868.4,-117 900.876,-117 926.517,-117"/>
<polygon fill="midnightblue" stroke="midnightblue" points="926.689,-120.5 936.689,-117 926.689,-113.5 926.689,-120.5"/>
</g>
<!-- Node210 -->
<g id="node30" class="node"><title>Node210</title>
<g id="a_node30"><a xlink:href="classRC__Channel.html#a4722e4a0f1e7bf5ac496bf5213a3a6bd" target="_top" xlink:title=" ">
<polygon fill="white" stroke="black" points="745.086,-197 745.086,-229 858.914,-229 858.914,-197 745.086,-197"/>
<text text-anchor="start" x="753.086" y="-215" font-family="Helvetica,sans-Serif" font-size="10.00">RC_Channel::pwm_to</text>
<text text-anchor="middle" x="802" y="-203" font-family="Helvetica,sans-Serif" font-size="10.00">_range_dz</text>
</a>
</g>
</g>
<!-- Node209&#45;&gt;Node210 -->
<g id="edge34" class="edge"><title>Node209&#45;&gt;Node210</title>
<path fill="none" stroke="midnightblue" d="M694.095,-213C707.231,-213 721.345,-213 734.873,-213"/>
<polygon fill="midnightblue" stroke="midnightblue" points="735.078,-216.5 745.077,-213 735.077,-209.5 735.078,-216.5"/>
</g>
<!-- Node211 -->
<g id="node31" class="node"><title>Node211</title>
<g id="a_node31"><a xlink:href="AP__Math_8h.html#a68558c4f79a8582543daefde13c64abc" target="_top" xlink:title=" ">
<polygon fill="white" stroke="black" points="928.089,-203 928.089,-223 1011.91,-223 1011.91,-203 928.089,-203"/>
<text text-anchor="middle" x="970" y="-209" font-family="Helvetica,sans-Serif" font-size="10.00">constrain_int16</text>
</a>
</g>
</g>
<!-- Node210&#45;&gt;Node211 -->
<g id="edge35" class="edge"><title>Node210&#45;&gt;Node211</title>
<path fill="none" stroke="midnightblue" d="M859.2,-213C878.247,-213 899.403,-213 918.02,-213"/>
<polygon fill="midnightblue" stroke="midnightblue" points="918.073,-216.5 928.073,-213 918.073,-209.5 918.073,-216.5"/>
</g>
<!-- Node212 -->
<g id="node32" class="node"><title>Node212</title>
<g id="a_node32"><a xlink:href="AP__Math_8h.html#a20e8f8671c282c69c1954652b6d61585" target="_top" xlink:title=" ">
<polygon fill="white" stroke="black" points="1077.98,-203 1077.98,-223 1164.02,-223 1164.02,-203 1077.98,-203"/>
<text text-anchor="middle" x="1121" y="-209" font-family="Helvetica,sans-Serif" font-size="10.00">constrain_value</text>
</a>
</g>
</g>
<!-- Node211&#45;&gt;Node212 -->
<g id="edge36" class="edge"><title>Node211&#45;&gt;Node212</title>
<path fill="none" stroke="midnightblue" d="M1012.11,-213C1029.25,-213 1049.37,-213 1067.57,-213"/>
<polygon fill="midnightblue" stroke="midnightblue" points="1067.73,-216.5 1077.73,-213 1067.73,-209.5 1067.73,-216.5"/>
</g>
<!-- Node213 -->
<g id="node33" class="node"><title>Node213</title>
<g id="a_node33"><a xlink:href="namespaceAP.html#afceb236ff617aaaa2b08afacd72532b0" target="_top" xlink:title=" ">
<polygon fill="white" stroke="black" points="1214.6,-223 1214.6,-243 1303.4,-243 1303.4,-223 1214.6,-223"/>
<text text-anchor="middle" x="1259" y="-229" font-family="Helvetica,sans-Serif" font-size="10.00">AP::internalerror</text>
</a>
</g>
</g>
<!-- Node212&#45;&gt;Node213 -->
<g id="edge37" class="edge"><title>Node212&#45;&gt;Node213</title>
<path fill="none" stroke="midnightblue" d="M1164.29,-219.218C1176.96,-221.083 1191.04,-223.152 1204.34,-225.109"/>
<polygon fill="midnightblue" stroke="midnightblue" points="1203.93,-228.586 1214.33,-226.578 1204.95,-221.66 1203.93,-228.586"/>
</g>
<!-- Node214 -->
<g id="node34" class="node"><title>Node214</title>
<g id="a_node34"><a xlink:href="classAP__InternalError.html#ab34174ba770b976b39a18c2b23e854f2" target="_top" xlink:title=" ">
<polygon fill="white" stroke="black" points="1200.43,-184 1200.43,-204 1317.57,-204 1317.57,-184 1200.43,-184"/>
<text text-anchor="middle" x="1259" y="-190" font-family="Helvetica,sans-Serif" font-size="10.00">AP_InternalError::error</text>
</a>
</g>
</g>
<!-- Node212&#45;&gt;Node214 -->
<g id="edge38" class="edge"><title>Node212&#45;&gt;Node214</title>
<path fill="none" stroke="midnightblue" d="M1164.29,-207.092C1172.56,-205.937 1181.42,-204.698 1190.28,-203.46"/>
<polygon fill="midnightblue" stroke="midnightblue" points="1190.83,-206.918 1200.25,-202.068 1189.86,-199.985 1190.83,-206.918"/>
</g>
<!-- Node215 -->
<g id="node35" class="node"><title>Node215</title>
<g id="a_node35"><a xlink:href="namespaceAP__HAL.html#a71832f03d849a0c088f04fc98d3c8143" target="_top" xlink:title=" ">
<polygon fill="white" stroke="black" points="1354.09,-184 1354.09,-204 1437.91,-204 1437.91,-184 1354.09,-184"/>
<text text-anchor="middle" x="1396" y="-190" font-family="Helvetica,sans-Serif" font-size="10.00">AP_HAL::panic</text>
</a>
</g>
</g>
<!-- Node214&#45;&gt;Node215 -->
<g id="edge39" class="edge"><title>Node214&#45;&gt;Node215</title>
<path fill="none" stroke="midnightblue" d="M1317.64,-194C1326.31,-194 1335.19,-194 1343.7,-194"/>
<polygon fill="midnightblue" stroke="midnightblue" points="1343.87,-197.5 1353.87,-194 1343.87,-190.5 1343.87,-197.5"/>
</g>
<!-- Node216 -->
<g id="node36" class="node"><title>Node216</title>
<g id="a_node36"><a xlink:href="stdio_8h.html#aae132cc6af1eb6cf43bf011d8d63e854" target="_top" xlink:title=" ">
<polygon fill="white" stroke="black" points="1507.38,-207 1507.38,-227 1550.62,-227 1550.62,-207 1507.38,-207"/>
<text text-anchor="middle" x="1529" y="-213" font-family="Helvetica,sans-Serif" font-size="10.00">vprintf</text>
</a>
</g>
</g>
<!-- Node215&#45;&gt;Node216 -->
<g id="edge40" class="edge"><title>Node215&#45;&gt;Node216</title>
<path fill="none" stroke="midnightblue" d="M1438.09,-201.214C1457.1,-204.553 1479.32,-208.453 1496.91,-211.542"/>
<polygon fill="midnightblue" stroke="midnightblue" points="1496.74,-215.066 1507.2,-213.348 1497.95,-208.171 1496.74,-215.066"/>
</g>
<!-- Node217 -->
<g id="node37" class="node"><title>Node217</title>
<g id="a_node37"><a xlink:href="classAP__HAL_1_1Scheduler.html#a78c4f1b1f192ac1c99544b6cc8f099b0" target="_top" xlink:title=" ">
<polygon fill="white" stroke="black" points="1473.75,-156 1473.75,-188 1584.25,-188 1584.25,-156 1473.75,-156"/>
<text text-anchor="start" x="1481.75" y="-174" font-family="Helvetica,sans-Serif" font-size="10.00">AP_HAL::Scheduler::</text>
<text text-anchor="middle" x="1529" y="-162" font-family="Helvetica,sans-Serif" font-size="10.00">delay_microseconds</text>
</a>
</g>
</g>
<!-- Node215&#45;&gt;Node217 -->
<g id="edge41" class="edge"><title>Node215&#45;&gt;Node217</title>
<path fill="none" stroke="midnightblue" d="M1438.09,-187.099C1446.18,-185.741 1454.85,-184.285 1463.5,-182.833"/>
<polygon fill="midnightblue" stroke="midnightblue" points="1464.32,-186.244 1473.6,-181.136 1463.16,-179.341 1464.32,-186.244"/>
</g>
<!-- Node219 -->
<g id="node39" class="node"><title>Node219</title>
<g id="a_node39"><a xlink:href="classRC__Channel.html#a6cd7026f64767a30bfcd71e53e5c5092" target="_top" xlink:title=" ">
<polygon fill="white" stroke="black" points="745.086,-146 745.086,-178 858.914,-178 858.914,-146 745.086,-146"/>
<text text-anchor="start" x="753.086" y="-164" font-family="Helvetica,sans-Serif" font-size="10.00">RC_Channel::pwm_to</text>
<text text-anchor="middle" x="802" y="-152" font-family="Helvetica,sans-Serif" font-size="10.00">_angle_dz</text>
</a>
</g>
</g>
<!-- Node218&#45;&gt;Node219 -->
<g id="edge43" class="edge"><title>Node218&#45;&gt;Node219</title>
<path fill="none" stroke="midnightblue" d="M694.095,-162C707.231,-162 721.345,-162 734.873,-162"/>
<polygon fill="midnightblue" stroke="midnightblue" points="735.078,-165.5 745.077,-162 735.077,-158.5 735.078,-165.5"/>
</g>
<!-- Node220 -->
<g id="node40" class="node"><title>Node220</title>
<g id="a_node40"><a xlink:href="classRC__Channel.html#ace0ba2aadcc29da753f9511c5546ed48" target="_top" xlink:title=" ">
<polygon fill="white" stroke="black" points="913.086,-146 913.086,-178 1026.91,-178 1026.91,-146 913.086,-146"/>
<text text-anchor="start" x="921.086" y="-164" font-family="Helvetica,sans-Serif" font-size="10.00">RC_Channel::pwm_to</text>
<text text-anchor="middle" x="970" y="-152" font-family="Helvetica,sans-Serif" font-size="10.00">_angle_dz_trim</text>
</a>
</g>
</g>
<!-- Node219&#45;&gt;Node220 -->
<g id="edge44" class="edge"><title>Node219&#45;&gt;Node220</title>
<path fill="none" stroke="midnightblue" d="M859.2,-162C873.127,-162 888.181,-162 902.546,-162"/>
<polygon fill="midnightblue" stroke="midnightblue" points="902.858,-165.5 912.858,-162 902.858,-158.5 902.858,-165.5"/>
</g>
<!-- Node222 -->
<g id="node42" class="node"><title>Node222</title>
<g id="a_node42"><a xlink:href="malloc_8c.html#a7ac38fce3243a7dcf448301ee9ffd392" target="_top" xlink:title=" ">
<polygon fill="white" stroke="black" points="449.552,-54 449.552,-74 494.448,-74 494.448,-54 449.552,-54"/>
<text text-anchor="middle" x="472" y="-60" font-family="Helvetica,sans-Serif" font-size="10.00">malloc</text>
</a>
</g>
</g>
<!-- Node221&#45;&gt;Node222 -->
<g id="edge46" class="edge"><title>Node221&#45;&gt;Node222</title>
<path fill="none" stroke="midnightblue" d="M325.754,-86.277C352.93,-82.1089 405.245,-74.0851 439.112,-68.8908"/>
<polygon fill="midnightblue" stroke="midnightblue" points="440.05,-72.2879 449.404,-67.3122 438.989,-65.3688 440.05,-72.2879"/>
</g>
<!-- Node223 -->
<g id="node43" class="node"><title>Node223</title>
<g id="a_node43"><a xlink:href="malloc_8c.html#aa5c105052a59261e63119d5203374a41" target="_top" xlink:title=" ">
<polygon fill="white" stroke="black" points="601.209,-29 601.209,-49 672.791,-49 672.791,-29 601.209,-29"/>
<text text-anchor="middle" x="637" y="-35" font-family="Helvetica,sans-Serif" font-size="10.00">malloc_flags</text>
</a>
</g>
</g>
<!-- Node222&#45;&gt;Node223 -->
<g id="edge47" class="edge"><title>Node222&#45;&gt;Node223</title>
<path fill="none" stroke="midnightblue" d="M494.645,-60.6802C519.076,-56.9332 559.499,-50.7333 590.874,-45.9212"/>
<polygon fill="midnightblue" stroke="midnightblue" points="591.777,-49.3237 601.131,-44.348 590.716,-42.4046 591.777,-49.3237"/>
</g>
<!-- Node225 -->
<g id="node45" class="node"><title>Node225</title>
<g id="a_node45"><a xlink:href="classAC__PID.html#a0fff9a598969ca892c013cf7f5fcbb36" target="_top" xlink:title=" ">
<polygon fill="white" stroke="black" points="413.414,-325 413.414,-345 530.586,-345 530.586,-325 413.414,-325"/>
<text text-anchor="middle" x="472" y="-331" font-family="Helvetica,sans-Serif" font-size="10.00">AC_PID::get_filt_alpha</text>
</a>
</g>
</g>
<!-- Node224&#45;&gt;Node225 -->
<g id="edge49" class="edge"><title>Node224&#45;&gt;Node225</title>
<path fill="none" stroke="midnightblue" d="M376.182,-335C385.023,-335 394.079,-335 402.919,-335"/>
<polygon fill="midnightblue" stroke="midnightblue" points="403.17,-338.5 413.17,-335 403.17,-331.5 403.17,-338.5"/>
</g>
<!-- Node226 -->
<g id="node46" class="node"><title>Node226</title>
<g id="a_node46"><a xlink:href="AP__Math_8h.html#a2a12cce483e9b870da70d30406d82c60" target="_top" xlink:title=" ">
<polygon fill="white" stroke="black" points="612.882,-363 612.882,-383 661.118,-383 661.118,-363 612.882,-363"/>
<text text-anchor="middle" x="637" y="-369" font-family="Helvetica,sans-Serif" font-size="10.00">is_zero</text>
</a>
</g>
</g>
<!-- Node225&#45;&gt;Node226 -->
<g id="edge50" class="edge"><title>Node225&#45;&gt;Node226</title>
<path fill="none" stroke="midnightblue" d="M516.253,-345.084C543.442,-351.422 577.977,-359.473 602.965,-365.299"/>
<polygon fill="midnightblue" stroke="midnightblue" points="602.172,-368.708 612.706,-367.569 603.761,-361.89 602.172,-368.708"/>
</g>
<!-- Node225&#45;&gt;Node195 -->
<g id="edge51" class="edge"><title>Node225&#45;&gt;Node195</title>
<path fill="none" stroke="midnightblue" d="M531.048,-332.441C578.552,-329.473 647.248,-323.176 706,-310 731.272,-304.333 759.154,-294.153 778.136,-286.593"/>
<polygon fill="midnightblue" stroke="midnightblue" points="779.494,-289.819 787.441,-282.812 776.859,-283.334 779.494,-289.819"/>
</g>
<!-- Node228&#45;&gt;Node226 -->
<g id="edge54" class="edge"><title>Node228&#45;&gt;Node226</title>
<path fill="none" stroke="midnightblue" d="M512.043,-373.76C539.691,-373.591 576.383,-373.366 602.66,-373.205"/>
<polygon fill="midnightblue" stroke="midnightblue" points="602.899,-376.703 612.877,-373.142 602.856,-369.703 602.899,-376.703"/>
</g>
</g>
</svg>
        <g id="navigator" transform="translate(0 0)" fill="#404254">
                <rect fill="#f2f5e9" fill-opacity="0.5" stroke="#606060" stroke-width=".5" x="0" y="0" width="60" height="60"/>
                <use id="zoomplus" xlink:href="#zoomPlus" x="17" y="9" onmousedown="handleZoom(evt,'in')"/>
                <use id="zoomminus" xlink:href="#zoomMin" x="42" y="9" onmousedown="handleZoom(evt,'out')"/>
                <use id="reset" xlink:href="#resetDef" x="30" y="36" onmousedown="handleReset()"/>
                <g id="arrowUp" xlink:href="#dirArrow" transform="translate(30 24)" onmousedown="handlePan(0,-1)">
                  <use xlink:href="#rim" fill="#404040">
                        <set attributeName="fill" to="#808080" begin="arrowUp.mouseover" end="arrowUp.mouseout"/>
                  </use>
                  <path fill="none" stroke="white" stroke-width="1.5" d="M0,-3.0v7 M-2.5,-0.5L0,-3.0L2.5,-0.5"/>
                </g>
                <g id="arrowRight" xlink:href="#dirArrow" transform="rotate(90) translate(36 -43)" onmousedown="handlePan(1,0)">
                  <use xlink:href="#rim" fill="#404040">
                        <set attributeName="fill" to="#808080" begin="arrowRight.mouseover" end="arrowRight.mouseout"/>
                  </use>
                  <path fill="none" stroke="white" stroke-width="1.5" d="M0,-3.0v7 M-2.5,-0.5L0,-3.0L2.5,-0.5"/>
                </g>
                <g id="arrowDown" xlink:href="#dirArrow" transform="rotate(180) translate(-30 -48)" onmousedown="handlePan(0,1)">
                  <use xlink:href="#rim" fill="#404040">
                        <set attributeName="fill" to="#808080" begin="arrowDown.mouseover" end="arrowDown.mouseout"/>
                  </use>
                  <path fill="none" stroke="white" stroke-width="1.5" d="M0,-3.0v7 M-2.5,-0.5L0,-3.0L2.5,-0.5"/>
                </g>
                <g id="arrowLeft" xlink:href="#dirArrow" transform="rotate(270) translate(-36 17)" onmousedown="handlePan(-1,0)">
                  <use xlink:href="#rim" fill="#404040">
                        <set attributeName="fill" to="#808080" begin="arrowLeft.mouseover" end="arrowLeft.mouseout"/>
                  </use>
                  <path fill="none" stroke="white" stroke-width="1.5" d="M0,-3.0v7 M-2.5,-0.5L0,-3.0L2.5,-0.5"/>
                </g>
        </g>
        <svg viewBox="0 0 15 15" width="100%" height="30px" preserveAspectRatio="xMaxYMin meet">
         <g id="arrow_out" transform="scale(0.3 0.3)">
          <a xlink:href="classAP__RCProtocol__SRXL_a4c91b46bbc5acee440f84e88926f189d_cgraph_org.svg" target="_base">
           <rect id="button" ry="5" rx="5" y="6" x="6" height="38" width="38"
                fill="#f2f5e9" fill-opacity="0.5" stroke="#606060" stroke-width="1.0"/>
           <path id="arrow"
             d="M 11.500037,31.436501 C 11.940474,20.09759 22.043105,11.32322 32.158766,21.979434 L 37.068811,17.246167 C 37.068811,17.246167 37.088388,32 37.088388,32 L 22.160133,31.978069 C 22.160133,31.978069 26.997745,27.140456 26.997745,27.140456 C 18.528582,18.264221 13.291696,25.230495 11.500037,31.436501 z"
             style="fill:#404040;"/>
          </a>
         </g>
        </svg>
</svg>
