<?xml version="1.0" encoding="UTF-8" standalone="no"?>
<!DOCTYPE svg PUBLIC "-//W3C//DTD SVG 1.1//EN"
 "http://www.w3.org/Graphics/SVG/1.1/DTD/svg11.dtd">
<!-- Generated by graphviz version 2.30.1 (20130221.2233)
 -->
<!-- Title: MMLPlayer::next_action Pages: 1 -->
<svg width="922pt" height="143pt"
 viewBox="0.00 0.00 922.00 143.00" xmlns="http://www.w3.org/2000/svg" xmlns:xlink="http://www.w3.org/1999/xlink">
<g id="graph0" class="graph" transform="scale(1 1) rotate(0) translate(4 139)">
<title>MMLPlayer::next_action</title>
<polygon fill="white" stroke="white" points="-4,5 -4,-139 919,-139 919,5 -4,5"/>
<!-- Node19 -->
<g id="node1" class="node"><title>Node19</title>
<g id="a_node1"><a xlink:title=" ">
<polygon fill="#bfbfbf" stroke="black" points="790.365,-45 790.365,-65 913.635,-65 913.635,-45 790.365,-45"/>
<text text-anchor="middle" x="852" y="-51" font-family="Helvetica,sans-Serif" font-size="10.00">MMLPlayer::next_action</text>
</a>
</g>
</g>
<!-- Node20 -->
<g id="node2" class="node"><title>Node20</title>
<g id="a_node2"><a xlink:href="classMMLPlayer.html#aca473b99b4ade0145244b2959efca869" target="_top" xlink:title=" ">
<polygon fill="white" stroke="black" points="656.766,-45 656.766,-65 747.234,-65 747.234,-45 656.766,-45"/>
<text text-anchor="middle" x="702" y="-51" font-family="Helvetica,sans-Serif" font-size="10.00">MMLPlayer::play</text>
</a>
</g>
</g>
<!-- Node19&#45;&gt;Node20 -->
<g id="edge1" class="edge"><title>Node19&#45;&gt;Node20</title>
<path fill="none" stroke="midnightblue" d="M779.903,-48.2546C768.908,-48.2196 757.827,-48.3836 747.634,-48.7465"/>
<polygon fill="midnightblue" stroke="midnightblue" points="779.918,-51.7548 789.948,-48.3427 779.979,-44.7551 779.918,-51.7548"/>
</g>
<!-- Node28 -->
<g id="node10" class="node"><title>Node28</title>
<g id="a_node10"><a xlink:href="classMMLPlayer.html#a6374390c3ee357d5fd9e455da7f8d74e" target="_top" xlink:title=" ">
<polygon fill="white" stroke="black" points="650.646,-3 650.646,-23 753.354,-23 753.354,-3 650.646,-3"/>
<text text-anchor="middle" x="702" y="-9" font-family="Helvetica,sans-Serif" font-size="10.00">MMLPlayer::update</text>
</a>
</g>
</g>
<!-- Node19&#45;&gt;Node28 -->
<g id="edge12" class="edge"><title>Node19&#45;&gt;Node28</title>
<path fill="none" stroke="midnightblue" d="M805.906,-42.203C784.242,-36.0551 758.656,-28.7943 738.417,-23.0507"/>
<polygon fill="midnightblue" stroke="midnightblue" points="804.975,-45.5769 815.55,-44.94 806.886,-38.8428 804.975,-45.5769"/>
</g>
<!-- Node21 -->
<g id="node3" class="node"><title>Node21</title>
<g id="a_node3"><a xlink:href="classAP__ToneAlarm.html#ae3531242be62545878e5c64d045a3f57" target="_top" xlink:title=" ">
<polygon fill="white" stroke="black" points="482.188,-45 482.188,-65 613.812,-65 613.812,-45 482.188,-45"/>
<text text-anchor="middle" x="548" y="-51" font-family="Helvetica,sans-Serif" font-size="10.00">AP_ToneAlarm::play_tune</text>
</a>
</g>
</g>
<!-- Node20&#45;&gt;Node21 -->
<g id="edge2" class="edge"><title>Node20&#45;&gt;Node21</title>
<path fill="none" stroke="midnightblue" d="M646.374,-55C635.892,-55 624.82,-55 614.047,-55"/>
<polygon fill="midnightblue" stroke="midnightblue" points="646.627,-58.5001 656.627,-55 646.627,-51.5001 646.627,-58.5001"/>
</g>
<!-- Node27 -->
<g id="node9" class="node"><title>Node27</title>
<g id="a_node9"><a xlink:href="classAP__ToneAlarm.html#a6dafef88b98ae819c6a37e119ffef30f" target="_top" xlink:title=" ">
<polygon fill="white" stroke="black" points="488.857,-84 488.857,-116 607.143,-116 607.143,-84 488.857,-84"/>
<text text-anchor="start" x="496.857" y="-102" font-family="Helvetica,sans-Serif" font-size="10.00">AP_ToneAlarm::handle</text>
<text text-anchor="middle" x="548" y="-90" font-family="Helvetica,sans-Serif" font-size="10.00">_play_tune</text>
</a>
</g>
</g>
<!-- Node20&#45;&gt;Node27 -->
<g id="edge10" class="edge"><title>Node20&#45;&gt;Node27</title>
<path fill="none" stroke="midnightblue" d="M656.83,-68.0766C640.094,-73.0314 620.845,-78.7302 603.284,-83.9292"/>
<polygon fill="midnightblue" stroke="midnightblue" points="658.293,-71.2937 666.888,-65.0989 656.306,-64.5817 658.293,-71.2937"/>
</g>
<!-- Node20&#45;&gt;Node19 -->
<g id="edge11" class="edge"><title>Node20&#45;&gt;Node19</title>
<path fill="none" stroke="midnightblue" d="M757.869,-61.5454C768.32,-61.7736 779.318,-61.8109 789.948,-61.6573"/>
<polygon fill="midnightblue" stroke="midnightblue" points="757.73,-58.0401 747.634,-61.2535 757.53,-65.0372 757.73,-58.0401"/>
</g>
<!-- Node22 -->
<g id="node4" class="node"><title>Node22</title>
<g id="a_node4"><a xlink:href="classAP__ToneAlarm.html#af1b50b4a6394c07af71a2bacc7ef57a7" target="_top" xlink:title="play_tune &#45; play one of the pre&#45;defined tunes">
<polygon fill="white" stroke="black" points="310.188,-45 310.188,-65 441.812,-65 441.812,-45 310.188,-45"/>
<text text-anchor="middle" x="376" y="-51" font-family="Helvetica,sans-Serif" font-size="10.00">AP_ToneAlarm::play_tone</text>
</a>
</g>
</g>
<!-- Node21&#45;&gt;Node22 -->
<g id="edge3" class="edge"><title>Node21&#45;&gt;Node22</title>
<path fill="none" stroke="midnightblue" d="M471.585,-55C461.74,-55 451.721,-55 442.066,-55"/>
<polygon fill="midnightblue" stroke="midnightblue" points="471.76,-58.5001 481.76,-55 471.76,-51.5001 471.76,-58.5001"/>
</g>
<!-- Node26 -->
<g id="node8" class="node"><title>Node26</title>
<g id="a_node8"><a xlink:href="classAP__ToneAlarm.html#a04b6a3ffeb1cb7dc7aebff49de31b3e4" target="_top" xlink:title=" ">
<polygon fill="white" stroke="black" points="322.421,-103 322.421,-135 429.579,-135 429.579,-103 322.421,-103"/>
<text text-anchor="start" x="330.421" y="-121" font-family="Helvetica,sans-Serif" font-size="10.00">AP_ToneAlarm::stop</text>
<text text-anchor="middle" x="376" y="-109" font-family="Helvetica,sans-Serif" font-size="10.00">_cont_tone</text>
</a>
</g>
</g>
<!-- Node21&#45;&gt;Node26 -->
<g id="edge8" class="edge"><title>Node21&#45;&gt;Node26</title>
<path fill="none" stroke="midnightblue" d="M499.655,-68.1137C493.677,-69.9821 487.671,-71.9643 482,-74 458.107,-82.5768 431.857,-93.8268 411.58,-102.933"/>
<polygon fill="midnightblue" stroke="midnightblue" points="501.076,-71.3405 509.628,-65.0873 499.043,-64.6421 501.076,-71.3405"/>
</g>
<!-- Node23 -->
<g id="node5" class="node"><title>Node23</title>
<g id="a_node5"><a xlink:href="classAP__ToneAlarm.html#aff7efe6cee998dcabfc01f782a93ac3d" target="_top" xlink:title=" ">
<polygon fill="white" stroke="black" points="155.811,-39 155.811,-71 270.189,-71 270.189,-39 155.811,-39"/>
<text text-anchor="start" x="163.811" y="-57" font-family="Helvetica,sans-Serif" font-size="10.00">AP_ToneAlarm::check</text>
<text text-anchor="middle" x="213" y="-45" font-family="Helvetica,sans-Serif" font-size="10.00">_cont_tone</text>
</a>
</g>
</g>
<!-- Node22&#45;&gt;Node23 -->
<g id="edge4" class="edge"><title>Node22&#45;&gt;Node23</title>
<path fill="none" stroke="midnightblue" d="M299.698,-55C289.77,-55 279.737,-55 270.205,-55"/>
<polygon fill="midnightblue" stroke="midnightblue" points="299.979,-58.5001 309.979,-55 299.979,-51.5001 299.979,-58.5001"/>
</g>
<!-- Node25 -->
<g id="node7" class="node"><title>Node25</title>
<g id="a_node7"><a xlink:href="classAP__ToneAlarm.html#a8a95fc204fe7bd62fb3c227d2d84cf94" target="_top" xlink:title="init &#45; initialised the tone alarm">
<polygon fill="white" stroke="black" points="162.48,-0 162.48,-20 263.52,-20 263.52,-0 162.48,-0"/>
<text text-anchor="middle" x="213" y="-6" font-family="Helvetica,sans-Serif" font-size="10.00">AP_ToneAlarm::init</text>
</a>
</g>
</g>
<!-- Node22&#45;&gt;Node25 -->
<g id="edge6" class="edge"><title>Node22&#45;&gt;Node25</title>
<path fill="none" stroke="midnightblue" d="M329.192,-42.1965C304.078,-35.1771 273.394,-26.6008 250.011,-20.0652"/>
<polygon fill="midnightblue" stroke="midnightblue" points="328.295,-45.58 338.868,-44.9011 330.18,-38.8384 328.295,-45.58"/>
</g>
<!-- Node24 -->
<g id="node6" class="node"><title>Node24</title>
<g id="a_node6"><a xlink:href="classAP__ToneAlarm.html#a609a448b91c414d9f9c4558b0039efde" target="_top" xlink:title="update &#45; updates led according to timed_updated. Should be called at 50Hz">
<polygon fill="white" stroke="black" points="0.579102,-90 0.579102,-110 119.421,-110 119.421,-90 0.579102,-90"/>
<text text-anchor="middle" x="60" y="-96" font-family="Helvetica,sans-Serif" font-size="10.00">AP_ToneAlarm::update</text>
</a>
</g>
</g>
<!-- Node22&#45;&gt;Node24 -->
<g id="edge7" class="edge"><title>Node22&#45;&gt;Node24</title>
<path fill="none" stroke="midnightblue" d="M328.566,-67.5168C310.41,-72.0257 289.341,-76.788 270,-80 219.659,-88.3604 161.872,-93.5581 119.839,-96.5519"/>
<polygon fill="midnightblue" stroke="midnightblue" points="329.486,-70.8944 338.323,-65.0494 327.77,-64.108 329.486,-70.8944"/>
</g>
<!-- Node23&#45;&gt;Node24 -->
<g id="edge5" class="edge"><title>Node23&#45;&gt;Node24</title>
<path fill="none" stroke="midnightblue" d="M148.178,-74.0197C129.91,-79.4639 110.707,-85.1867 94.9873,-89.8713"/>
<polygon fill="midnightblue" stroke="midnightblue" points="149.328,-77.3292 157.912,-71.1189 147.329,-70.6208 149.328,-77.3292"/>
</g>
<!-- Node26&#45;&gt;Node24 -->
<g id="edge9" class="edge"><title>Node26&#45;&gt;Node24</title>
<path fill="none" stroke="midnightblue" d="M312.023,-119.619C268.197,-119.546 208.448,-118.446 156,-114 144.206,-113 131.646,-111.478 119.653,-109.8"/>
<polygon fill="midnightblue" stroke="midnightblue" points="312.244,-123.119 322.244,-119.618 312.243,-116.119 312.244,-123.119"/>
</g>
<!-- Node29 -->
<g id="node11" class="node"><title>Node29</title>
<g id="a_node11"><a xlink:href="classAP__ToneAlarm.html#a73f31fa8001c65914a578d975f148c7e" target="_top" xlink:title=" ">
<polygon fill="white" stroke="black" points="306.03,-1 306.03,-21 445.97,-21 445.97,-1 306.03,-1"/>
<text text-anchor="middle" x="376" y="-7" font-family="Helvetica,sans-Serif" font-size="10.00">AP_ToneAlarm::_timer_task</text>
</a>
</g>
</g>
<!-- Node28&#45;&gt;Node29 -->
<g id="edge13" class="edge"><title>Node28&#45;&gt;Node29</title>
<path fill="none" stroke="midnightblue" d="M640.051,-12.6238C584.912,-12.2834 503.769,-11.7825 446.208,-11.4272"/>
<polygon fill="midnightblue" stroke="midnightblue" points="640.354,-16.1256 650.375,-12.6875 640.397,-9.12574 640.354,-16.1256"/>
</g>
<!-- Node29&#45;&gt;Node25 -->
<g id="edge14" class="edge"><title>Node29&#45;&gt;Node25</title>
<path fill="none" stroke="midnightblue" d="M295.784,-10.508C284.858,-10.4401 273.899,-10.372 263.715,-10.3088"/>
<polygon fill="midnightblue" stroke="midnightblue" points="295.766,-14.0078 305.787,-10.5701 295.809,-7.00796 295.766,-14.0078"/>
</g>
</g>
</svg>
