<?xml version="1.0" encoding="UTF-8" standalone="no"?>
<!DOCTYPE svg PUBLIC "-//W3C//DTD SVG 1.1//EN"
 "http://www.w3.org/Graphics/SVG/1.1/DTD/svg11.dtd">
<!-- Generated by graphviz version 2.30.1 (20130221.2233)
 -->
<!-- Title: AC_PI_2D::get_pi Pages: 1 -->
<svg width="354pt" height="106pt"
 viewBox="0.00 0.00 354.00 106.00" xmlns="http://www.w3.org/2000/svg" xmlns:xlink="http://www.w3.org/1999/xlink">
<g id="graph0" class="graph" transform="scale(1 1) rotate(0) translate(4 102)">
<title>AC_PI_2D::get_pi</title>
<polygon fill="white" stroke="white" points="-4,5 -4,-102 351,-102 351,5 -4,5"/>
<!-- Node44 -->
<g id="node1" class="node"><title>Node44</title>
<g id="a_node1"><a xlink:title=" ">
<polygon fill="#bfbfbf" stroke="black" points="-0.0244141,-58 -0.0244141,-78 96.0244,-78 96.0244,-58 -0.0244141,-58"/>
<text text-anchor="middle" x="48" y="-64" font-family="Helvetica,sans-Serif" font-size="10.00">AC_PI_2D::get_pi</text>
</a>
</g>
</g>
<!-- Node45 -->
<g id="node2" class="node"><title>Node45</title>
<g id="a_node2"><a xlink:href="classAC__PI__2D.html#a6a0aff37e315bd5b68ec0e21e0ee2f7f" target="_top" xlink:title=" ">
<polygon fill="white" stroke="black" points="132.086,-78 132.086,-98 225.914,-98 225.914,-78 132.086,-78"/>
<text text-anchor="middle" x="179" y="-84" font-family="Helvetica,sans-Serif" font-size="10.00">AC_PI_2D::get_p</text>
</a>
</g>
</g>
<!-- Node44&#45;&gt;Node45 -->
<g id="edge1" class="edge"><title>Node44&#45;&gt;Node45</title>
<path fill="none" stroke="midnightblue" d="M96.3023,-75.3337C104.675,-76.6318 113.465,-77.9945 122.049,-79.3254"/>
<polygon fill="midnightblue" stroke="midnightblue" points="121.576,-82.7938 131.994,-80.8673 122.649,-75.8765 121.576,-82.7938"/>
</g>
<!-- Node46 -->
<g id="node3" class="node"><title>Node46</title>
<g id="a_node3"><a xlink:href="classAC__PI__2D.html#af464bd8936fccc9a0b11ab183e9ca384" target="_top" xlink:title=" ">
<polygon fill="white" stroke="black" points="133.756,-39 133.756,-59 224.244,-59 224.244,-39 133.756,-39"/>
<text text-anchor="middle" x="179" y="-45" font-family="Helvetica,sans-Serif" font-size="10.00">AC_PI_2D::get_i</text>
</a>
</g>
</g>
<!-- Node44&#45;&gt;Node46 -->
<g id="edge2" class="edge"><title>Node44&#45;&gt;Node46</title>
<path fill="none" stroke="midnightblue" d="M96.3023,-61.033C105.184,-59.7248 114.535,-58.3476 123.612,-57.0106"/>
<polygon fill="midnightblue" stroke="midnightblue" points="124.321,-60.4441 133.704,-55.5242 123.301,-53.5188 124.321,-60.4441"/>
</g>
<!-- Node47 -->
<g id="node4" class="node"><title>Node47</title>
<g id="a_node4"><a xlink:href="AP__Math_8h.html#a2a12cce483e9b870da70d30406d82c60" target="_top" xlink:title=" ">
<polygon fill="white" stroke="black" points="279.882,-78 279.882,-98 328.118,-98 328.118,-78 279.882,-78"/>
<text text-anchor="middle" x="304" y="-84" font-family="Helvetica,sans-Serif" font-size="10.00">is_zero</text>
</a>
</g>
</g>
<!-- Node46&#45;&gt;Node47 -->
<g id="edge3" class="edge"><title>Node46&#45;&gt;Node47</title>
<path fill="none" stroke="midnightblue" d="M211.676,-59.0435C229.573,-64.7182 251.916,-71.8027 270.023,-77.5438"/>
<polygon fill="midnightblue" stroke="midnightblue" points="269.001,-80.8914 279.591,-80.5776 271.117,-74.2188 269.001,-80.8914"/>
</g>
<!-- Node48 -->
<g id="node5" class="node"><title>Node48</title>
<g id="a_node5"><a xlink:href="structVector2.html#a671d712528ea3b2cc21fd4616eea8f98" target="_top" xlink:title=" ">
<polygon fill="white" stroke="black" points="262.641,-39 262.641,-59 345.359,-59 345.359,-39 262.641,-39"/>
<text text-anchor="middle" x="304" y="-45" font-family="Helvetica,sans-Serif" font-size="10.00">Vector2::length</text>
</a>
</g>
</g>
<!-- Node46&#45;&gt;Node48 -->
<g id="edge4" class="edge"><title>Node46&#45;&gt;Node48</title>
<path fill="none" stroke="midnightblue" d="M224.406,-49C233.405,-49 242.935,-49 252.137,-49"/>
<polygon fill="midnightblue" stroke="midnightblue" points="252.342,-52.5001 262.342,-49 252.342,-45.5001 252.342,-52.5001"/>
</g>
<!-- Node49 -->
<g id="node6" class="node"><title>Node49</title>
<g id="a_node6"><a xlink:href="AP__Math_8h.html#a4e3ae698e8f99cec214348ad233e3c41" target="_top" xlink:title=" ">
<polygon fill="white" stroke="black" points="272.655,-0 272.655,-20 335.345,-20 335.345,-0 272.655,-0"/>
<text text-anchor="middle" x="304" y="-6" font-family="Helvetica,sans-Serif" font-size="10.00">is_positive</text>
</a>
</g>
</g>
<!-- Node46&#45;&gt;Node49 -->
<g id="edge5" class="edge"><title>Node46&#45;&gt;Node49</title>
<path fill="none" stroke="midnightblue" d="M211.676,-38.9565C227.119,-34.0597 245.874,-28.1132 262.36,-22.8859"/>
<polygon fill="midnightblue" stroke="midnightblue" points="263.807,-26.0988 272.282,-19.74 261.691,-19.4262 263.807,-26.0988"/>
</g>
</g>
</svg>
