<?xml version="1.0" encoding="UTF-8" standalone="no"?>
<!DOCTYPE svg PUBLIC "-//W3C//DTD SVG 1.1//EN"
 "http://www.w3.org/Graphics/SVG/1.1/DTD/svg11.dtd">
<!-- Generated by graphviz version 2.30.1 (20130221.2233)
 -->
<!-- Title: AP_Airspeed_UAVCAN Pages: 1 -->
<!--zoomable 234 -->
<svg id="main" version="1.1" xmlns="http://www.w3.org/2000/svg" xmlns:xlink="http://www.w3.org/1999/xlink" xml:space="preserve" onload="init(evt)">
<style type="text/css"><![CDATA[
.edge:hover path { stroke: red; }
.edge:hover polygon { stroke: red; fill: red; }
]]></style>
<script type="text/javascript"><![CDATA[
var edges = document.getElementsByTagName('g');
if (edges && edges.length) {
  for (var i=0;i<edges.length;i++) {
    if (edges[i].id.substr(0,4)=='edge') {
      edges[i].setAttribute('class','edge');
    }
  }
}
]]></script>
        <defs>
                <circle id="rim" cx="0" cy="0" r="7"/>
                <circle id="rim2" cx="0" cy="0" r="3.5"/>
                <g id="zoomPlus">
                        <use xlink:href="#rim" fill="#404040">
                                <set attributeName="fill" to="#808080" begin="zoomplus.mouseover" end="zoomplus.mouseout"/>
                        </use>
                        <path d="M-4,0h8M0,-4v8" fill="none" stroke="white" stroke-width="1.5" pointer-events="none"/>
                </g>
                <g id="zoomMin">
                        <use xlink:href="#rim" fill="#404040">
                                <set attributeName="fill" to="#808080" begin="zoomminus.mouseover" end="zoomminus.mouseout"/>
                        </use>
                        <path d="M-4,0h8" fill="none" stroke="white" stroke-width="1.5" pointer-events="none"/>
                </g>
                <g id="dirArrow">
                        <path fill="none" stroke="white" stroke-width="1.5" d="M0,-3.0v7 M-2.5,-0.5L0,-3.0L2.5,-0.5"/>
                </g>
               <g id="resetDef">
                       <use xlink:href="#rim2" fill="#404040">
                               <set attributeName="fill" to="#808080" begin="reset.mouseover" end="reset.mouseout"/>
                       </use>
               </g>
        </defs>

<script type="text/javascript">
var viewWidth = 1398;
var viewHeight = 234;
var sectionId = 'dynsection-1';
</script>
<script xlink:href="svgpan.js"/>
<svg id="graph" class="graph">
<g id="viewport">
<title>AP_Airspeed_UAVCAN</title>
<polygon fill="white" stroke="white" points="-4,5 -4,-230 1395,-230 1395,5 -4,5"/>
<!-- Node2 -->
<g id="node1" class="node"><title>Node2</title>
<g id="a_node1"><a xlink:title=" ">
<polygon fill="#bfbfbf" stroke="black" points="1020.57,-92 1020.57,-112 1141.43,-112 1141.43,-92 1020.57,-92"/>
<text text-anchor="middle" x="1081" y="-98" font-family="Helvetica,sans-Serif" font-size="10.00">AP_Airspeed_UAVCAN</text>
</a>
</g>
</g>
<!-- Node10 -->
<g id="node9" class="node"><title>Node10</title>
<g id="a_node9"><a xlink:href="structAP__Airspeed__UAVCAN_1_1DetectedModules.html" target="_top" xlink:title=" ">
<polygon fill="white" stroke="black" points="1268.57,-66 1268.57,-98 1389.43,-98 1389.43,-66 1268.57,-66"/>
<text text-anchor="start" x="1276.57" y="-84" font-family="Helvetica,sans-Serif" font-size="10.00">AP_Airspeed_UAVCAN</text>
<text text-anchor="middle" x="1329" y="-72" font-family="Helvetica,sans-Serif" font-size="10.00">::DetectedModules</text>
</a>
</g>
</g>
<!-- Node2&#45;&gt;Node10 -->
<g id="edge13" class="edge"><title>Node2&#45;&gt;Node10</title>
<path fill="none" stroke="#9a32cd" stroke-dasharray="5,2" d="M1120.16,-88.9772C1132.7,-85.3103 1146.8,-81.8255 1160,-80 1195.68,-75.064 1236.04,-75.3559 1268.25,-76.9804"/>
<polygon fill="#9a32cd" stroke="#9a32cd" points="1119.03,-85.662 1110.49,-91.9289 1121.08,-92.357 1119.03,-85.662"/>
<text text-anchor="middle" x="1205" y="-82" font-family="Helvetica,sans-Serif" font-size="10.00"> driver</text>
</g>
<!-- Node3 -->
<g id="node2" class="node"><title>Node3</title>
<g id="a_node2"><a xlink:href="classAP__Airspeed__Backend.html" target="_top" xlink:title=" ">
<polygon fill="white" stroke="black" points="812.577,-92 812.577,-112 931.423,-112 931.423,-92 812.577,-92"/>
<text text-anchor="middle" x="872" y="-98" font-family="Helvetica,sans-Serif" font-size="10.00">AP_Airspeed_Backend</text>
</a>
</g>
</g>
<!-- Node3&#45;&gt;Node2 -->
<g id="edge1" class="edge"><title>Node3&#45;&gt;Node2</title>
<path fill="none" stroke="midnightblue" d="M941.781,-102C967.163,-102 995.696,-102 1020.22,-102"/>
<polygon fill="midnightblue" stroke="midnightblue" points="941.488,-98.5001 931.488,-102 941.488,-105.5 941.488,-98.5001"/>
</g>
<!-- Node4 -->
<g id="node3" class="node"><title>Node4</title>
<g id="a_node3"><a xlink:href="classAP__Airspeed.html" target="_top" xlink:title=" ">
<polygon fill="white" stroke="black" points="660.815,-107 660.815,-127 735.185,-127 735.185,-107 660.815,-107"/>
<text text-anchor="middle" x="698" y="-113" font-family="Helvetica,sans-Serif" font-size="10.00">AP_Airspeed</text>
</a>
</g>
</g>
<!-- Node3&#45;&gt;Node4 -->
<g id="edge6" class="edge"><title>Node3&#45;&gt;Node4</title>
<path fill="none" stroke="#9a32cd" stroke-dasharray="5,2" d="M802.759,-91.2549C786.662,-90.3935 769.638,-90.8619 754,-94 741.417,-96.525 728.12,-102 717.752,-106.975"/>
<polygon fill="#9a32cd" stroke="#9a32cd" points="802.955,-94.7777 813.179,-91.9982 803.453,-87.7954 802.955,-94.7777"/>
<text text-anchor="middle" x="774" y="-96" font-family="Helvetica,sans-Serif" font-size="10.00"> sensor</text>
</g>
<!-- Node4&#45;&gt;Node3 -->
<g id="edge2" class="edge"><title>Node4&#45;&gt;Node3</title>
<path fill="none" stroke="#9a32cd" stroke-dasharray="5,2" d="M745.531,-112.942C766.076,-111.15 790.46,-109.024 812.243,-107.124"/>
<polygon fill="#9a32cd" stroke="#9a32cd" points="745.135,-109.463 735.477,-113.819 745.743,-116.437 745.135,-109.463"/>
<text text-anchor="middle" x="774" y="-115" font-family="Helvetica,sans-Serif" font-size="10.00"> frontend</text>
</g>
<!-- Node4&#45;&gt;Node4 -->
<g id="edge5" class="edge"><title>Node4&#45;&gt;Node4</title>
<path fill="none" stroke="#9a32cd" stroke-dasharray="5,2" d="M684.409,-136.922C685.543,-141.573 690.073,-145 698,-145 711.008,-145 714.87,-135.771 709.585,-127.048"/>
<polygon fill="#9a32cd" stroke="#9a32cd" points="687.854,-137.544 686.415,-127.048 680.994,-136.151 687.854,-137.544"/>
<text text-anchor="middle" x="698" y="-147" font-family="Helvetica,sans-Serif" font-size="10.00"> _singleton</text>
</g>
<!-- Node5 -->
<g id="node4" class="node"><title>Node5</title>
<g id="a_node4"><a xlink:href="structAP__Param_1_1GroupInfo.html" target="_top" xlink:title=" ">
<polygon fill="white" stroke="black" points="463.808,-78 463.808,-98 578.192,-98 578.192,-78 463.808,-78"/>
<text text-anchor="middle" x="521" y="-84" font-family="Helvetica,sans-Serif" font-size="10.00">AP_Param::GroupInfo</text>
</a>
</g>
</g>
<!-- Node5&#45;&gt;Node4 -->
<g id="edge3" class="edge"><title>Node5&#45;&gt;Node4</title>
<path fill="none" stroke="#9a32cd" stroke-dasharray="5,2" d="M588.313,-98.989C612.833,-103.052 639.716,-107.507 660.61,-110.97"/>
<polygon fill="#9a32cd" stroke="#9a32cd" points="588.772,-95.5174 578.334,-97.3354 587.628,-102.423 588.772,-95.5174"/>
<text text-anchor="middle" x="623" y="-110" font-family="Helvetica,sans-Serif" font-size="10.00"> var_info</text>
</g>
<!-- Node5&#45;&gt;Node5 -->
<g id="edge4" class="edge"><title>Node5&#45;&gt;Node5</title>
<path fill="none" stroke="#9a32cd" stroke-dasharray="5,2" d="M502.266,-107.922C503.83,-112.573 510.074,-116 521,-116 538.93,-116 544.253,-106.771 536.969,-98.0477"/>
<polygon fill="#9a32cd" stroke="#9a32cd" points="505.705,-108.621 505.031,-98.0477 498.964,-106.733 505.705,-108.621"/>
<text text-anchor="middle" x="521" y="-130" font-family="Helvetica,sans-Serif" font-size="10.00"> group_info_ptr</text>
<text text-anchor="middle" x="521" y="-118" font-family="Helvetica,sans-Serif" font-size="10.00">group_info</text>
</g>
<!-- Node11 -->
<g id="node10" class="node"><title>Node11</title>
<g id="a_node10"><a xlink:href="classAP__UAVCAN.html" target="_top" xlink:title=" ">
<polygon fill="white" stroke="black" points="660.081,-39 660.081,-59 735.919,-59 735.919,-39 660.081,-39"/>
<text text-anchor="middle" x="698" y="-45" font-family="Helvetica,sans-Serif" font-size="10.00">AP_UAVCAN</text>
</a>
</g>
</g>
<!-- Node5&#45;&gt;Node11 -->
<g id="edge16" class="edge"><title>Node5&#45;&gt;Node11</title>
<path fill="none" stroke="#9a32cd" stroke-dasharray="5,2" d="M577.162,-75.7067C604.183,-69.6849 635.992,-62.596 660.046,-57.2355"/>
<polygon fill="#9a32cd" stroke="#9a32cd" points="576.066,-72.365 567.067,-77.9565 577.589,-79.1974 576.066,-72.365"/>
<text text-anchor="middle" x="623" y="-72" font-family="Helvetica,sans-Serif" font-size="10.00"> var_info</text>
</g>
<!-- Node6 -->
<g id="node5" class="node"><title>Node6</title>
<g id="a_node5"><a xlink:href="structAP__Airspeed_1_1airspeed__state.html" target="_top" xlink:title=" ">
<polygon fill="white" stroke="black" points="461.857,-159 461.857,-191 580.143,-191 580.143,-159 461.857,-159"/>
<text text-anchor="start" x="469.857" y="-177" font-family="Helvetica,sans-Serif" font-size="10.00">AP_Airspeed::airspeed</text>
<text text-anchor="middle" x="521" y="-165" font-family="Helvetica,sans-Serif" font-size="10.00">_state</text>
</a>
</g>
</g>
<!-- Node6&#45;&gt;Node4 -->
<g id="edge7" class="edge"><title>Node6&#45;&gt;Node4</title>
<path fill="none" stroke="#9a32cd" stroke-dasharray="5,2" d="M579.917,-155.805C608.945,-146.184 642.896,-134.932 666.741,-127.029"/>
<polygon fill="#9a32cd" stroke="#9a32cd" points="578.674,-152.529 570.283,-158.998 580.876,-159.174 578.674,-152.529"/>
<text text-anchor="middle" x="623" y="-150" font-family="Helvetica,sans-Serif" font-size="10.00"> state</text>
</g>
<!-- Node7 -->
<g id="node6" class="node"><title>Node7</title>
<g id="a_node6"><a xlink:href="classAirspeed__Calibration.html" target="_top" xlink:title=" ">
<polygon fill="white" stroke="black" points="262.584,-165 262.584,-185 371.416,-185 371.416,-165 262.584,-165"/>
<text text-anchor="middle" x="317" y="-171" font-family="Helvetica,sans-Serif" font-size="10.00">Airspeed_Calibration</text>
</a>
</g>
</g>
<!-- Node7&#45;&gt;Node6 -->
<g id="edge8" class="edge"><title>Node7&#45;&gt;Node6</title>
<path fill="none" stroke="#9a32cd" stroke-dasharray="5,2" d="M381.915,-175C407.421,-175 436.592,-175 461.53,-175"/>
<polygon fill="#9a32cd" stroke="#9a32cd" points="381.602,-171.5 371.602,-175 381.602,-178.5 381.602,-171.5"/>
<text text-anchor="middle" x="414" y="-177" font-family="Helvetica,sans-Serif" font-size="10.00"> calibration</text>
</g>
<!-- Node8 -->
<g id="node7" class="node"><title>Node8</title>
<g id="a_node7"><a xlink:href="classMatrix3.html" target="_top" xlink:title=" ">
<polygon fill="white" stroke="black" points="130.54,-190 130.54,-210 215.46,-210 215.46,-190 130.54,-190"/>
<text text-anchor="middle" x="173" y="-196" font-family="Helvetica,sans-Serif" font-size="10.00">Matrix3&lt; float &gt;</text>
</a>
</g>
</g>
<!-- Node8&#45;&gt;Node7 -->
<g id="edge9" class="edge"><title>Node8&#45;&gt;Node7</title>
<path fill="none" stroke="#9a32cd" stroke-dasharray="5,2" d="M226.003,-190.845C237.835,-188.761 250.428,-186.544 262.329,-184.449"/>
<polygon fill="#9a32cd" stroke="#9a32cd" points="225.078,-187.453 215.837,-192.634 226.292,-194.347 225.078,-187.453"/>
<text text-anchor="middle" x="239" y="-191" font-family="Helvetica,sans-Serif" font-size="10.00"> P</text>
</g>
<!-- Node9 -->
<g id="node8" class="node"><title>Node9</title>
<g id="a_node8"><a xlink:href="classVector3.html" target="_top" xlink:title=" ">
<polygon fill="white" stroke="black" points="-0.0268555,-167 -0.0268555,-187 86.0269,-187 86.0269,-167 -0.0268555,-167"/>
<text text-anchor="middle" x="43" y="-173" font-family="Helvetica,sans-Serif" font-size="10.00">Vector3&lt; float &gt;</text>
</a>
</g>
</g>
<!-- Node9&#45;&gt;Node8 -->
<g id="edge10" class="edge"><title>Node9&#45;&gt;Node8</title>
<path fill="none" stroke="#9a32cd" stroke-dasharray="5,2" d="M96.4222,-186.42C107.677,-188.442 119.426,-190.553 130.214,-192.492"/>
<polygon fill="#9a32cd" stroke="#9a32cd" points="96.7281,-182.919 86.2667,-184.595 95.4901,-189.808 96.7281,-182.919"/>
<text text-anchor="middle" x="108" y="-216" font-family="Helvetica,sans-Serif" font-size="10.00"> a</text>
<text text-anchor="middle" x="108" y="-204" font-family="Helvetica,sans-Serif" font-size="10.00">b</text>
<text text-anchor="middle" x="108" y="-192" font-family="Helvetica,sans-Serif" font-size="10.00">c</text>
</g>
<!-- Node9&#45;&gt;Node7 -->
<g id="edge11" class="edge"><title>Node9&#45;&gt;Node7</title>
<path fill="none" stroke="#9a32cd" stroke-dasharray="5,2" d="M96.3536,-170.642C107.446,-169.541 119.096,-168.569 130,-168 174.533,-165.676 225.104,-167.892 262.261,-170.428"/>
<polygon fill="#9a32cd" stroke="#9a32cd" points="95.9458,-167.165 86.3612,-171.68 96.6695,-174.127 95.9458,-167.165"/>
<text text-anchor="middle" x="173" y="-170" font-family="Helvetica,sans-Serif" font-size="10.00"> state</text>
</g>
<!-- Node10&#45;&gt;Node2 -->
<g id="edge12" class="edge"><title>Node10&#45;&gt;Node2</title>
<path fill="none" stroke="#9a32cd" stroke-dasharray="5,2" d="M1258.29,-94.0551C1255.49,-94.4001 1252.72,-94.7175 1250,-95 1214.14,-98.721 1173.78,-100.481 1141.61,-101.306"/>
<polygon fill="#9a32cd" stroke="#9a32cd" points="1259.03,-97.4874 1268.48,-92.6972 1258.11,-90.5487 1259.03,-97.4874"/>
<text text-anchor="middle" x="1205" y="-103" font-family="Helvetica,sans-Serif" font-size="10.00"> _detected_modules</text>
</g>
<!-- Node11&#45;&gt;Node10 -->
<g id="edge14" class="edge"><title>Node11&#45;&gt;Node10</title>
<path fill="none" stroke="#9a32cd" stroke-dasharray="5,2" d="M746.342,-49.6091C841.778,-51.1386 1064.02,-56.2262 1250,-72 1255.99,-72.5077 1262.22,-73.1363 1268.44,-73.8292"/>
<polygon fill="#9a32cd" stroke="#9a32cd" points="746.206,-46.1067 736.153,-49.4517 746.098,-53.1058 746.206,-46.1067"/>
<text text-anchor="middle" x="976" y="-59" font-family="Helvetica,sans-Serif" font-size="10.00"> ap_uavcan</text>
</g>
<!-- Node12 -->
<g id="node11" class="node"><title>Node12</title>
<g id="a_node11"><a xlink:title=" ">
<polygon fill="white" stroke="#bfbfbf" points="462.146,-39 462.146,-59 579.854,-59 579.854,-39 462.146,-39"/>
<text text-anchor="middle" x="521" y="-45" font-family="Helvetica,sans-Serif" font-size="10.00">AP_HAL::CANProtocol</text>
</a>
</g>
</g>
<!-- Node12&#45;&gt;Node11 -->
<g id="edge15" class="edge"><title>Node12&#45;&gt;Node11</title>
<path fill="none" stroke="midnightblue" d="M590.28,-49C613.964,-49 639.625,-49 659.847,-49"/>
<polygon fill="midnightblue" stroke="midnightblue" points="590.273,-45.5001 580.272,-49 590.272,-52.5001 590.273,-45.5001"/>
</g>
<!-- Node13 -->
<g id="node12" class="node"><title>Node13</title>
<g id="a_node12"><a xlink:href="structAP__UAVCAN_1_1led__device.html" target="_top" xlink:title=" ">
<polygon fill="white" stroke="black" points="456.396,-0 456.396,-20 585.604,-20 585.604,-0 456.396,-0"/>
<text text-anchor="middle" x="521" y="-6" font-family="Helvetica,sans-Serif" font-size="10.00">AP_UAVCAN::led_device</text>
</a>
</g>
</g>
<!-- Node13&#45;&gt;Node11 -->
<g id="edge17" class="edge"><title>Node13&#45;&gt;Node11</title>
<path fill="none" stroke="#9a32cd" stroke-dasharray="5,2" d="M590.089,-21.9013C607.109,-25.1915 625.277,-28.9744 642,-33 649.251,-34.7456 656.974,-36.8416 664.27,-38.933"/>
<polygon fill="#9a32cd" stroke="#9a32cd" points="590.698,-18.4545 580.22,-20.023 589.389,-25.3311 590.698,-18.4545"/>
<text text-anchor="middle" x="623" y="-35" font-family="Helvetica,sans-Serif" font-size="10.00"> devices</text>
</g>
</g>
</svg>
        <g id="navigator" transform="translate(0 0)" fill="#404254">
                <rect fill="#f2f5e9" fill-opacity="0.5" stroke="#606060" stroke-width=".5" x="0" y="0" width="60" height="60"/>
                <use id="zoomplus" xlink:href="#zoomPlus" x="17" y="9" onmousedown="handleZoom(evt,'in')"/>
                <use id="zoomminus" xlink:href="#zoomMin" x="42" y="9" onmousedown="handleZoom(evt,'out')"/>
                <use id="reset" xlink:href="#resetDef" x="30" y="36" onmousedown="handleReset()"/>
                <g id="arrowUp" xlink:href="#dirArrow" transform="translate(30 24)" onmousedown="handlePan(0,-1)">
                  <use xlink:href="#rim" fill="#404040">
                        <set attributeName="fill" to="#808080" begin="arrowUp.mouseover" end="arrowUp.mouseout"/>
                  </use>
                  <path fill="none" stroke="white" stroke-width="1.5" d="M0,-3.0v7 M-2.5,-0.5L0,-3.0L2.5,-0.5"/>
                </g>
                <g id="arrowRight" xlink:href="#dirArrow" transform="rotate(90) translate(36 -43)" onmousedown="handlePan(1,0)">
                  <use xlink:href="#rim" fill="#404040">
                        <set attributeName="fill" to="#808080" begin="arrowRight.mouseover" end="arrowRight.mouseout"/>
                  </use>
                  <path fill="none" stroke="white" stroke-width="1.5" d="M0,-3.0v7 M-2.5,-0.5L0,-3.0L2.5,-0.5"/>
                </g>
                <g id="arrowDown" xlink:href="#dirArrow" transform="rotate(180) translate(-30 -48)" onmousedown="handlePan(0,1)">
                  <use xlink:href="#rim" fill="#404040">
                        <set attributeName="fill" to="#808080" begin="arrowDown.mouseover" end="arrowDown.mouseout"/>
                  </use>
                  <path fill="none" stroke="white" stroke-width="1.5" d="M0,-3.0v7 M-2.5,-0.5L0,-3.0L2.5,-0.5"/>
                </g>
                <g id="arrowLeft" xlink:href="#dirArrow" transform="rotate(270) translate(-36 17)" onmousedown="handlePan(-1,0)">
                  <use xlink:href="#rim" fill="#404040">
                        <set attributeName="fill" to="#808080" begin="arrowLeft.mouseover" end="arrowLeft.mouseout"/>
                  </use>
                  <path fill="none" stroke="white" stroke-width="1.5" d="M0,-3.0v7 M-2.5,-0.5L0,-3.0L2.5,-0.5"/>
                </g>
        </g>
        <svg viewBox="0 0 15 15" width="100%" height="30px" preserveAspectRatio="xMaxYMin meet">
         <g id="arrow_out" transform="scale(0.3 0.3)">
          <a xlink:href="classAP__Airspeed__UAVCAN__coll__graph_org.svg" target="_base">
           <rect id="button" ry="5" rx="5" y="6" x="6" height="38" width="38"
                fill="#f2f5e9" fill-opacity="0.5" stroke="#606060" stroke-width="1.0"/>
           <path id="arrow"
             d="M 11.500037,31.436501 C 11.940474,20.09759 22.043105,11.32322 32.158766,21.979434 L 37.068811,17.246167 C 37.068811,17.246167 37.088388,32 37.088388,32 L 22.160133,31.978069 C 22.160133,31.978069 26.997745,27.140456 26.997745,27.140456 C 18.528582,18.264221 13.291696,25.230495 11.500037,31.436501 z"
             style="fill:#404040;"/>
          </a>
         </g>
        </svg>
</svg>
