<?xml version="1.0" encoding="UTF-8" standalone="no"?>
<!DOCTYPE svg PUBLIC "-//W3C//DTD SVG 1.1//EN"
 "http://www.w3.org/Graphics/SVG/1.1/DTD/svg11.dtd">
<!-- Generated by graphviz version 2.30.1 (20130221.2233)
 -->
<!-- Title: FilterWithBuffer&lt; T, FILTER_SIZE &gt; Pages: 1 -->
<svg width="128pt" height="112pt"
 viewBox="0.00 0.00 128.01 112.00" xmlns="http://www.w3.org/2000/svg" xmlns:xlink="http://www.w3.org/1999/xlink">
<g id="graph0" class="graph" transform="scale(1 1) rotate(0) translate(4 108)">
<title>FilterWithBuffer&lt; T, FILTER_SIZE &gt;</title>
<polygon fill="white" stroke="white" points="-4,5 -4,-108 125.015,-108 125.015,5 -4,5"/>
<!-- Node6 -->
<g id="node1" class="node"><title>Node6</title>
<g id="a_node1"><a xlink:title=" ">
<polygon fill="#bfbfbf" stroke="black" points="10.5269,-1 10.5269,-33 111.473,-33 111.473,-1 10.5269,-1"/>
<text text-anchor="start" x="18.5269" y="-19" font-family="Helvetica,sans-Serif" font-size="10.00">FilterWithBuffer&lt; T,</text>
<text text-anchor="middle" x="61" y="-7" font-family="Helvetica,sans-Serif" font-size="10.00"> FILTER_SIZE &gt;</text>
</a>
</g>
</g>
<!-- Node7 -->
<g id="node2" class="node"><title>Node7</title>
<g id="a_node2"><a xlink:href="classFilter.html" target="_top" xlink:title=" ">
<polygon fill="white" stroke="black" points="-0.607422,-83 -0.607422,-103 60.6074,-103 60.6074,-83 -0.607422,-83"/>
<text text-anchor="middle" x="30" y="-89" font-family="Helvetica,sans-Serif" font-size="10.00">Filter&lt; T &gt;</text>
</a>
</g>
</g>
<!-- Node7&#45;&gt;Node6 -->
<g id="edge1" class="edge"><title>Node7&#45;&gt;Node6</title>
<path fill="none" stroke="midnightblue" d="M37.745,-73.512C42.9761,-61.0248 49.7946,-44.7483 54.694,-33.053"/>
<polygon fill="midnightblue" stroke="midnightblue" points="34.4369,-72.3504 33.8012,-82.9261 40.8933,-75.0551 34.4369,-72.3504"/>
</g>
<!-- Node8 -->
<g id="node3" class="node"><title>Node8</title>
<g id="a_node3"><a xlink:title=" ">
<polygon fill="white" stroke="#bfbfbf" points="78.5,-83 78.5,-103 107.5,-103 107.5,-83 78.5,-83"/>
<text text-anchor="middle" x="92.5542" y="-89" font-family="Helvetica,sans-Serif" font-size="10.00">T</text>
</a>
</g>
</g>
<!-- Node8&#45;&gt;Node6 -->
<g id="edge2" class="edge"><title>Node8&#45;&gt;Node6</title>
<path fill="none" stroke="#9a32cd" stroke-dasharray="5,2" d="M85.0052,-73.512C79.6053,-61.0248 72.5668,-44.7483 67.5094,-33.053"/>
<polygon fill="#9a32cd" stroke="#9a32cd" points="81.8945,-75.1368 89.0762,-82.9261 88.3195,-72.3584 81.8945,-75.1368"/>
<text text-anchor="middle" x="100.007" y="-54" font-family="Helvetica,sans-Serif" font-size="10.00"> samples</text>
</g>
</g>
</svg>
