<?xml version="1.0" encoding="UTF-8" standalone="no"?>
<!DOCTYPE svg PUBLIC "-//W3C//DTD SVG 1.1//EN"
 "http://www.w3.org/Graphics/SVG/1.1/DTD/svg11.dtd">
<!-- Generated by graphviz version 2.30.1 (20130221.2233)
 -->
<!-- Title: Compass::_setup_earth_field Pages: 1 -->
<svg width="830pt" height="130pt"
 viewBox="0.00 0.00 830.00 130.00" xmlns="http://www.w3.org/2000/svg" xmlns:xlink="http://www.w3.org/1999/xlink">
<g id="graph0" class="graph" transform="scale(1 1) rotate(0) translate(4 126)">
<title>Compass::_setup_earth_field</title>
<polygon fill="white" stroke="white" points="-4,5 -4,-126 827,-126 827,5 -4,5"/>
<!-- Node1789 -->
<g id="node1" class="node"><title>Node1789</title>
<g id="a_node1"><a xlink:title=" ">
<polygon fill="#bfbfbf" stroke="black" points="699.914,-39 699.914,-71 822.086,-71 822.086,-39 699.914,-39"/>
<text text-anchor="start" x="707.914" y="-57" font-family="Helvetica,sans-Serif" font-size="10.00">Compass::_setup_earth</text>
<text text-anchor="middle" x="761" y="-45" font-family="Helvetica,sans-Serif" font-size="10.00">_field</text>
</a>
</g>
</g>
<!-- Node1790 -->
<g id="node2" class="node"><title>Node1790</title>
<g id="a_node2"><a xlink:href="classAP__Compass__HIL.html#a54036d8a8354e8484db9f1ca33af9572" target="_top" xlink:title=" ">
<polygon fill="white" stroke="black" points="543.421,-90 543.421,-122 660.579,-122 660.579,-90 543.421,-90"/>
<text text-anchor="start" x="551.421" y="-108" font-family="Helvetica,sans-Serif" font-size="10.00">AP_Compass_HIL::AP</text>
<text text-anchor="middle" x="602" y="-96" font-family="Helvetica,sans-Serif" font-size="10.00">_Compass_HIL</text>
</a>
</g>
</g>
<!-- Node1789&#45;&gt;Node1790 -->
<g id="edge1" class="edge"><title>Node1789&#45;&gt;Node1790</title>
<path fill="none" stroke="midnightblue" d="M700.587,-74.2997C684.677,-79.4678 667.654,-84.9977 652.353,-89.9683"/>
<polygon fill="midnightblue" stroke="midnightblue" points="701.895,-77.5551 710.324,-71.1367 699.732,-70.8975 701.895,-77.5551"/>
</g>
<!-- Node1795 -->
<g id="node7" class="node"><title>Node1795</title>
<g id="a_node7"><a xlink:href="classAP__Compass__SITL.html#aacc264a1f9b35187b6832313059af7df" target="_top" xlink:title=" ">
<polygon fill="white" stroke="black" points="540.643,-39 540.643,-71 663.357,-71 663.357,-39 540.643,-39"/>
<text text-anchor="start" x="548.643" y="-57" font-family="Helvetica,sans-Serif" font-size="10.00">AP_Compass_SITL::AP</text>
<text text-anchor="middle" x="602" y="-45" font-family="Helvetica,sans-Serif" font-size="10.00">_Compass_SITL</text>
</a>
</g>
</g>
<!-- Node1789&#45;&gt;Node1795 -->
<g id="edge6" class="edge"><title>Node1789&#45;&gt;Node1795</title>
<path fill="none" stroke="midnightblue" d="M689.639,-55C680.953,-55 672.132,-55 663.609,-55"/>
<polygon fill="midnightblue" stroke="midnightblue" points="689.749,-58.5001 699.749,-55 689.749,-51.5001 689.749,-58.5001"/>
</g>
<!-- Node1796 -->
<g id="node8" class="node"><title>Node1796</title>
<g id="a_node8"><a xlink:href="classCompass.html#a30a8fa22b1e7ee8eec8143732d40716d" target="_top" xlink:title=" ">
<polygon fill="white" stroke="black" points="555.653,-0 555.653,-20 648.347,-20 648.347,-0 555.653,-0"/>
<text text-anchor="middle" x="602" y="-6" font-family="Helvetica,sans-Serif" font-size="10.00">Compass::setHIL</text>
</a>
</g>
</g>
<!-- Node1789&#45;&gt;Node1796 -->
<g id="edge7" class="edge"><title>Node1789&#45;&gt;Node1796</title>
<path fill="none" stroke="midnightblue" d="M693.905,-36.0556C674.832,-30.5889 654.757,-24.8348 638.338,-20.1287"/>
<polygon fill="midnightblue" stroke="midnightblue" points="693.186,-39.4902 703.763,-38.8811 695.114,-32.7612 693.186,-39.4902"/>
</g>
<!-- Node1791 -->
<g id="node3" class="node"><title>Node1791</title>
<g id="a_node3"><a xlink:href="classAP__Compass__HIL.html#af9fccad707f6720c8e26de4d358938d7" target="_top" xlink:title=" ">
<polygon fill="white" stroke="black" points="372.471,-96 372.471,-116 503.529,-116 503.529,-96 372.471,-96"/>
<text text-anchor="middle" x="438" y="-102" font-family="Helvetica,sans-Serif" font-size="10.00">AP_Compass_HIL::detect</text>
</a>
</g>
</g>
<!-- Node1790&#45;&gt;Node1791 -->
<g id="edge2" class="edge"><title>Node1790&#45;&gt;Node1791</title>
<path fill="none" stroke="midnightblue" d="M532.695,-106C523.113,-106 513.287,-106 503.772,-106"/>
<polygon fill="midnightblue" stroke="midnightblue" points="532.972,-109.5 542.972,-106 532.972,-102.5 532.972,-109.5"/>
</g>
<!-- Node1792 -->
<g id="node4" class="node"><title>Node1792</title>
<g id="a_node4"><a xlink:href="classCompass.html#a1c48170d8c8966b22fb150b1634443ec" target="_top" xlink:title=" ">
<polygon fill="white" stroke="black" points="190.518,-96 190.518,-116 335.482,-116 335.482,-96 190.518,-96"/>
<text text-anchor="middle" x="263" y="-102" font-family="Helvetica,sans-Serif" font-size="10.00">Compass::_detect_backends</text>
</a>
</g>
</g>
<!-- Node1791&#45;&gt;Node1792 -->
<g id="edge3" class="edge"><title>Node1791&#45;&gt;Node1792</title>
<path fill="none" stroke="midnightblue" d="M361.942,-106C353.217,-106 344.335,-106 335.658,-106"/>
<polygon fill="midnightblue" stroke="midnightblue" points="362.089,-109.5 372.089,-106 362.089,-102.5 362.089,-109.5"/>
</g>
<!-- Node1793 -->
<g id="node5" class="node"><title>Node1793</title>
<g id="a_node5"><a xlink:href="classCompass.html#a79db6bfd3fe309c6258d783f126326c6" target="_top" xlink:title=" ">
<polygon fill="white" stroke="black" points="76.7119,-96 76.7119,-116 153.288,-116 153.288,-96 76.7119,-96"/>
<text text-anchor="middle" x="115" y="-102" font-family="Helvetica,sans-Serif" font-size="10.00">Compass::init</text>
</a>
</g>
</g>
<!-- Node1792&#45;&gt;Node1793 -->
<g id="edge4" class="edge"><title>Node1792&#45;&gt;Node1793</title>
<path fill="none" stroke="midnightblue" d="M180.187,-106C170.925,-106 161.856,-106 153.587,-106"/>
<polygon fill="midnightblue" stroke="midnightblue" points="180.283,-109.5 190.283,-106 180.283,-102.5 180.283,-109.5"/>
</g>
<!-- Node1794 -->
<g id="node6" class="node"><title>Node1794</title>
<g id="a_node6"><a xlink:href="AHRS__Test_8cpp.html#a4fc01d736fe50cf5b977f755b675f11d" target="_top" xlink:title=" ">
<polygon fill="white" stroke="black" points="-0.231445,-96 -0.231445,-116 40.2314,-116 40.2314,-96 -0.231445,-96"/>
<text text-anchor="middle" x="20" y="-102" font-family="Helvetica,sans-Serif" font-size="10.00">setup</text>
</a>
</g>
</g>
<!-- Node1793&#45;&gt;Node1794 -->
<g id="edge5" class="edge"><title>Node1793&#45;&gt;Node1794</title>
<path fill="none" stroke="midnightblue" d="M66.6796,-106C57.3877,-106 48.1395,-106 40.4198,-106"/>
<polygon fill="midnightblue" stroke="midnightblue" points="66.7092,-109.5 76.7092,-106 66.7092,-102.5 66.7092,-109.5"/>
</g>
</g>
</svg>
