<?xml version="1.0" encoding="UTF-8" standalone="no"?>
<!DOCTYPE svg PUBLIC "-//W3C//DTD SVG 1.1//EN"
 "http://www.w3.org/Graphics/SVG/1.1/DTD/svg11.dtd">
<!-- Generated by graphviz version 2.30.1 (20130221.2233)
 -->
<!-- Title: NavEKF2_core::checkGyroCalStatus Pages: 1 -->
<svg width="246pt" height="67pt"
 viewBox="0.00 0.00 246.00 67.00" xmlns="http://www.w3.org/2000/svg" xmlns:xlink="http://www.w3.org/1999/xlink">
<g id="graph0" class="graph" transform="scale(1 1) rotate(0) translate(4 63)">
<title>NavEKF2_core::checkGyroCalStatus</title>
<polygon fill="white" stroke="white" points="-4,5 -4,-63 243,-63 243,5 -4,5"/>
<!-- Node372 -->
<g id="node1" class="node"><title>Node372</title>
<g id="a_node1"><a xlink:title=" ">
<polygon fill="#bfbfbf" stroke="black" points="-0.0810547,-13 -0.0810547,-45 152.081,-45 152.081,-13 -0.0810547,-13"/>
<text text-anchor="start" x="7.91895" y="-31" font-family="Helvetica,sans-Serif" font-size="10.00">NavEKF2_core::checkGyroCal</text>
<text text-anchor="middle" x="76" y="-19" font-family="Helvetica,sans-Serif" font-size="10.00">Status</text>
</a>
</g>
</g>
<!-- Node373 -->
<g id="node2" class="node"><title>Node373</title>
<g id="a_node2"><a xlink:href="AP__Math_8h.html#a0375e3d67fd3911cacee5c3e1408c0f2" target="_top" xlink:title=" ">
<polygon fill="white" stroke="black" points="198.5,-39 198.5,-59 227.5,-59 227.5,-39 198.5,-39"/>
<text text-anchor="middle" x="213" y="-45" font-family="Helvetica,sans-Serif" font-size="10.00">sq</text>
</a>
</g>
</g>
<!-- Node372&#45;&gt;Node373 -->
<g id="edge1" class="edge"><title>Node372&#45;&gt;Node373</title>
<path fill="none" stroke="midnightblue" d="M152.394,-40.1695C165.345,-42.0882 177.904,-43.9487 188.127,-45.4632"/>
<polygon fill="midnightblue" stroke="midnightblue" points="187.806,-48.9538 198.211,-46.9571 188.832,-42.0293 187.806,-48.9538"/>
</g>
<!-- Node374 -->
<g id="node3" class="node"><title>Node374</title>
<g id="a_node3"><a xlink:href="AP__Math_8h.html#a37d7c62a8231d9d22826261297b99da4" target="_top" xlink:title=" ">
<polygon fill="white" stroke="black" points="188.601,-0 188.601,-20 237.399,-20 237.399,-0 188.601,-0"/>
<text text-anchor="middle" x="213" y="-6" font-family="Helvetica,sans-Serif" font-size="10.00">radians</text>
</a>
</g>
</g>
<!-- Node372&#45;&gt;Node374 -->
<g id="edge2" class="edge"><title>Node372&#45;&gt;Node374</title>
<path fill="none" stroke="midnightblue" d="M152.394,-18.389C161.465,-17.1123 170.343,-15.8628 178.361,-14.7344"/>
<polygon fill="midnightblue" stroke="midnightblue" points="178.935,-18.1882 188.35,-13.3286 177.959,-11.2565 178.935,-18.1882"/>
</g>
</g>
</svg>
