<?xml version="1.0" encoding="UTF-8" standalone="no"?>
<!DOCTYPE svg PUBLIC "-//W3C//DTD SVG 1.1//EN"
 "http://www.w3.org/Graphics/SVG/1.1/DTD/svg11.dtd">
<!-- Generated by graphviz version 2.30.1 (20130221.2233)
 -->
<!-- Title: AR_AttitudeControl::get_lat_accel Pages: 1 -->
<svg width="718pt" height="391pt"
 viewBox="0.00 0.00 718.00 391.00" xmlns="http://www.w3.org/2000/svg" xmlns:xlink="http://www.w3.org/1999/xlink">
<g id="graph0" class="graph" transform="scale(1 1) rotate(0) translate(4 387)">
<title>AR_AttitudeControl::get_lat_accel</title>
<polygon fill="white" stroke="white" points="-4,5 -4,-387 715,-387 715,5 -4,5"/>
<!-- Node89 -->
<g id="node1" class="node"><title>Node89</title>
<g id="a_node1"><a xlink:title=" ">
<polygon fill="#bfbfbf" stroke="black" points="0.199707,-123 0.199707,-155 101.8,-155 101.8,-123 0.199707,-123"/>
<text text-anchor="start" x="8.19971" y="-141" font-family="Helvetica,sans-Serif" font-size="10.00">AR_AttitudeControl</text>
<text text-anchor="middle" x="51" y="-129" font-family="Helvetica,sans-Serif" font-size="10.00">::get_lat_accel</text>
</a>
</g>
</g>
<!-- Node90 -->
<g id="node2" class="node"><title>Node90</title>
<g id="a_node2"><a xlink:href="classAR__AttitudeControl.html#a329178791a21e75f4bb6a3336cd2fea3" target="_top" xlink:title=" ">
<polygon fill="white" stroke="black" points="148.414,-201 148.414,-233 255.586,-233 255.586,-201 148.414,-201"/>
<text text-anchor="start" x="156.414" y="-219" font-family="Helvetica,sans-Serif" font-size="10.00">AR_AttitudeControl</text>
<text text-anchor="middle" x="202" y="-207" font-family="Helvetica,sans-Serif" font-size="10.00">::get_forward_speed</text>
</a>
</g>
</g>
<!-- Node89&#45;&gt;Node90 -->
<g id="edge1" class="edge"><title>Node89&#45;&gt;Node90</title>
<path fill="none" stroke="midnightblue" d="M82.8729,-155.162C105.624,-167.071 136.756,-183.369 161.348,-196.243"/>
<polygon fill="midnightblue" stroke="midnightblue" points="159.939,-199.456 170.422,-200.993 163.186,-193.254 159.939,-199.456"/>
</g>
<!-- Node104 -->
<g id="node16" class="node"><title>Node104</title>
<g id="a_node16"><a xlink:href="classAP__AHRS.html#aceff0a785eb88258c2428298f5c5839a" target="_top" xlink:title=" ">
<polygon fill="white" stroke="black" points="137.86,-45 137.86,-77 266.14,-77 266.14,-45 137.86,-45"/>
<text text-anchor="start" x="145.86" y="-63" font-family="Helvetica,sans-Serif" font-size="10.00">AP_AHRS::get_yaw_rate</text>
<text text-anchor="middle" x="202" y="-51" font-family="Helvetica,sans-Serif" font-size="10.00">_earth</text>
</a>
</g>
</g>
<!-- Node89&#45;&gt;Node104 -->
<g id="edge15" class="edge"><title>Node89&#45;&gt;Node104</title>
<path fill="none" stroke="midnightblue" d="M82.8729,-122.838C105.624,-110.929 136.756,-94.6313 161.348,-81.7575"/>
<polygon fill="midnightblue" stroke="midnightblue" points="163.186,-84.746 170.422,-77.0073 159.939,-78.5444 163.186,-84.746"/>
</g>
<!-- Node91 -->
<g id="node3" class="node"><title>Node91</title>
<g id="a_node3"><a xlink:href="classAP__AHRS.html#a69b21caefc3aab8edc889cb7a181a756" target="_top" xlink:title=" ">
<polygon fill="white" stroke="black" points="302.138,-363 302.138,-383 449.862,-383 449.862,-363 302.138,-363"/>
<text text-anchor="middle" x="376" y="-369" font-family="Helvetica,sans-Serif" font-size="10.00">AP_AHRS::get_velocity_NED</text>
</a>
</g>
</g>
<!-- Node90&#45;&gt;Node91 -->
<g id="edge2" class="edge"><title>Node90&#45;&gt;Node91</title>
<path fill="none" stroke="midnightblue" d="M210.244,-233.169C223.926,-261.825 256.345,-321.464 302,-353 305.252,-355.246 308.748,-357.241 312.385,-359.012"/>
<polygon fill="midnightblue" stroke="midnightblue" points="311.087,-362.263 321.658,-362.969 313.835,-355.825 311.087,-362.263"/>
</g>
<!-- Node92 -->
<g id="node4" class="node"><title>Node92</title>
<g id="a_node4"><a xlink:href="namespaceAP.html#ae6eeec356455220f913e47e323057cd5" target="_top" xlink:title=" ">
<polygon fill="white" stroke="black" points="350.49,-324 350.49,-344 401.51,-344 401.51,-324 350.49,-324"/>
<text text-anchor="middle" x="376" y="-330" font-family="Helvetica,sans-Serif" font-size="10.00">AP::gps</text>
</a>
</g>
</g>
<!-- Node90&#45;&gt;Node92 -->
<g id="edge3" class="edge"><title>Node90&#45;&gt;Node92</title>
<path fill="none" stroke="midnightblue" d="M215.202,-233.319C232.254,-254.971 265.275,-292.909 302,-314 313.779,-320.765 327.947,-325.327 340.655,-328.363"/>
<polygon fill="midnightblue" stroke="midnightblue" points="339.946,-331.79 350.46,-330.483 341.426,-324.949 339.946,-331.79"/>
</g>
<!-- Node94 -->
<g id="node6" class="node"><title>Node94</title>
<g id="a_node6"><a xlink:href="classAP__GPS.html#ac22b61d2e6cf0b6ff647173ea336de01" target="_top" xlink:title="Query GPS status.">
<polygon fill="white" stroke="black" points="331.872,-285 331.872,-305 420.128,-305 420.128,-285 331.872,-285"/>
<text text-anchor="middle" x="376" y="-291" font-family="Helvetica,sans-Serif" font-size="10.00">AP_GPS::status</text>
</a>
</g>
</g>
<!-- Node90&#45;&gt;Node94 -->
<g id="edge5" class="edge"><title>Node90&#45;&gt;Node94</title>
<path fill="none" stroke="midnightblue" d="M226.486,-233.148C245.987,-245.958 274.831,-263.555 302,-275 308.265,-277.639 314.979,-280.028 321.705,-282.161"/>
<polygon fill="midnightblue" stroke="midnightblue" points="320.933,-285.583 331.517,-285.101 322.942,-278.878 320.933,-285.583"/>
</g>
<!-- Node96 -->
<g id="node8" class="node"><title>Node96</title>
<g id="a_node8"><a xlink:href="AP__Math_8cpp.html#a4e136782e86e2adaaf7f0f759067dfe1" target="_top" xlink:title=" ">
<polygon fill="white" stroke="black" points="337.978,-246 337.978,-266 414.022,-266 414.022,-246 337.978,-246"/>
<text text-anchor="middle" x="376" y="-252" font-family="Helvetica,sans-Serif" font-size="10.00">wrap_180_cd</text>
</a>
</g>
</g>
<!-- Node90&#45;&gt;Node96 -->
<g id="edge7" class="edge"><title>Node90&#45;&gt;Node96</title>
<path fill="none" stroke="midnightblue" d="M256.009,-229.02C279.035,-234.24 305.779,-240.305 328.074,-245.36"/>
<polygon fill="midnightblue" stroke="midnightblue" points="327.449,-248.807 337.975,-247.605 328.997,-241.98 327.449,-248.807"/>
</g>
<!-- Node99 -->
<g id="node11" class="node"><title>Node99</title>
<g id="a_node11"><a xlink:href="classAP__GPS.html#ae4e07a8489e0a7dcb1acbea52c687c0e" target="_top" xlink:title=" ">
<polygon fill="white" stroke="black" points="303.793,-207 303.793,-227 448.207,-227 448.207,-207 303.793,-207"/>
<text text-anchor="middle" x="376" y="-213" font-family="Helvetica,sans-Serif" font-size="10.00">AP_GPS::ground_course_cd</text>
</a>
</g>
</g>
<!-- Node90&#45;&gt;Node99 -->
<g id="edge10" class="edge"><title>Node90&#45;&gt;Node99</title>
<path fill="none" stroke="midnightblue" d="M256.009,-217C267.848,-217 280.669,-217 293.364,-217"/>
<polygon fill="midnightblue" stroke="midnightblue" points="293.496,-220.5 303.496,-217 293.496,-213.5 293.496,-220.5"/>
</g>
<!-- Node101 -->
<g id="node13" class="node"><title>Node101</title>
<g id="a_node13"><a xlink:href="classAP__GPS.html#ae7f097588dd863d4624f6fec1509e0e6" target="_top" xlink:title=" ">
<polygon fill="white" stroke="black" points="313.239,-168 313.239,-188 438.761,-188 438.761,-168 313.239,-168"/>
<text text-anchor="middle" x="376" y="-174" font-family="Helvetica,sans-Serif" font-size="10.00">AP_GPS::ground_speed</text>
</a>
</g>
</g>
<!-- Node90&#45;&gt;Node101 -->
<g id="edge12" class="edge"><title>Node90&#45;&gt;Node101</title>
<path fill="none" stroke="midnightblue" d="M256.009,-204.98C276.622,-200.307 300.215,-194.957 320.928,-190.261"/>
<polygon fill="midnightblue" stroke="midnightblue" points="321.861,-193.638 330.839,-188.013 320.313,-186.811 321.861,-193.638"/>
</g>
<!-- Node102 -->
<g id="node14" class="node"><title>Node102</title>
<g id="a_node14"><a xlink:href="classAP__AHRS.html#a148f6eb0063fd0e99f11c0f4d047a3c7" target="_top" xlink:title=" ">
<polygon fill="white" stroke="black" points="322.426,-129 322.426,-149 429.574,-149 429.574,-129 322.426,-129"/>
<text text-anchor="middle" x="376" y="-135" font-family="Helvetica,sans-Serif" font-size="10.00">AP_AHRS::cos_yaw</text>
</a>
</g>
</g>
<!-- Node90&#45;&gt;Node102 -->
<g id="edge13" class="edge"><title>Node90&#45;&gt;Node102</title>
<path fill="none" stroke="midnightblue" d="M225.622,-200.985C245.081,-187.844 274.311,-169.578 302,-158 307.341,-155.767 313.014,-153.739 318.745,-151.911"/>
<polygon fill="midnightblue" stroke="midnightblue" points="319.819,-155.243 328.396,-149.023 317.812,-148.536 319.819,-155.243"/>
</g>
<!-- Node103 -->
<g id="node15" class="node"><title>Node103</title>
<g id="a_node15"><a xlink:href="classAP__AHRS.html#ac02845bd9663dcb4507ed975b3f0aad9" target="_top" xlink:title=" ">
<polygon fill="white" stroke="black" points="323.815,-90 323.815,-110 428.185,-110 428.185,-90 323.815,-90"/>
<text text-anchor="middle" x="376" y="-96" font-family="Helvetica,sans-Serif" font-size="10.00">AP_AHRS::sin_yaw</text>
</a>
</g>
</g>
<!-- Node90&#45;&gt;Node103 -->
<g id="edge14" class="edge"><title>Node90&#45;&gt;Node103</title>
<path fill="none" stroke="midnightblue" d="M214.836,-200.812C231.713,-178.918 264.798,-140.176 302,-119 305.882,-116.79 310.026,-114.832 314.292,-113.098"/>
<polygon fill="midnightblue" stroke="midnightblue" points="315.574,-116.356 323.774,-109.647 313.18,-109.778 315.574,-116.356"/>
</g>
<!-- Node93 -->
<g id="node5" class="node"><title>Node93</title>
<g id="a_node5"><a xlink:href="classAP__GPS.html#a08d0437767d62a318e59b40cf323a31a" target="_top" xlink:title=" ">
<polygon fill="white" stroke="black" points="489.466,-324 489.466,-344 610.534,-344 610.534,-324 489.466,-324"/>
<text text-anchor="middle" x="550" y="-330" font-family="Helvetica,sans-Serif" font-size="10.00">AP_GPS::get_singleton</text>
</a>
</g>
</g>
<!-- Node92&#45;&gt;Node93 -->
<g id="edge4" class="edge"><title>Node92&#45;&gt;Node93</title>
<path fill="none" stroke="midnightblue" d="M401.643,-334C421.823,-334 451.408,-334 478.783,-334"/>
<polygon fill="midnightblue" stroke="midnightblue" points="479.143,-337.5 489.143,-334 479.143,-330.5 479.143,-337.5"/>
</g>
<!-- Node95 -->
<g id="node7" class="node"><title>Node95</title>
<g id="a_node7"><a xlink:href="classAP__GPS.html#a23a9fce42abaf8f53d5a3f64c84461e7" target="_top" xlink:title=" ">
<polygon fill="white" stroke="black" points="505.872,-285 505.872,-305 594.128,-305 594.128,-285 505.872,-285"/>
<text text-anchor="middle" x="550" y="-291" font-family="Helvetica,sans-Serif" font-size="10.00">AP_GPS::status</text>
</a>
</g>
</g>
<!-- Node94&#45;&gt;Node95 -->
<g id="edge6" class="edge"><title>Node94&#45;&gt;Node95</title>
<path fill="none" stroke="midnightblue" d="M420.403,-295C443.218,-295 471.383,-295 495.534,-295"/>
<polygon fill="midnightblue" stroke="midnightblue" points="495.611,-298.5 505.611,-295 495.611,-291.5 495.611,-298.5"/>
</g>
<!-- Node97 -->
<g id="node9" class="node"><title>Node97</title>
<g id="a_node9"><a xlink:href="AP__Math_8cpp.html#a603d717bc95dd546b9e2c4da57b88a39" target="_top" xlink:title=" ">
<polygon fill="white" stroke="black" points="520.04,-246 520.04,-266 579.96,-266 579.96,-246 520.04,-246"/>
<text text-anchor="middle" x="550" y="-252" font-family="Helvetica,sans-Serif" font-size="10.00">wrap_180</text>
</a>
</g>
</g>
<!-- Node96&#45;&gt;Node97 -->
<g id="edge8" class="edge"><title>Node96&#45;&gt;Node97</title>
<path fill="none" stroke="midnightblue" d="M414.321,-256C442.568,-256 481.261,-256 509.928,-256"/>
<polygon fill="midnightblue" stroke="midnightblue" points="509.997,-259.5 519.997,-256 509.997,-252.5 509.997,-259.5"/>
</g>
<!-- Node98 -->
<g id="node10" class="node"><title>Node98</title>
<g id="a_node10"><a xlink:href="AP__Math_8cpp.html#aac44349f9b159f31fc43fe924d52f7fc" target="_top" xlink:title=" ">
<polygon fill="white" stroke="black" points="650.04,-246 650.04,-266 709.96,-266 709.96,-246 650.04,-246"/>
<text text-anchor="middle" x="680" y="-252" font-family="Helvetica,sans-Serif" font-size="10.00">wrap_360</text>
</a>
</g>
</g>
<!-- Node97&#45;&gt;Node98 -->
<g id="edge9" class="edge"><title>Node97&#45;&gt;Node98</title>
<path fill="none" stroke="midnightblue" d="M580.045,-256C597.596,-256 620.205,-256 639.381,-256"/>
<polygon fill="midnightblue" stroke="midnightblue" points="639.627,-259.5 649.627,-256 639.627,-252.5 639.627,-259.5"/>
</g>
<!-- Node100 -->
<g id="node12" class="node"><title>Node100</title>
<g id="a_node12"><a xlink:href="classAP__GPS.html#aa7e3f1447d7a25eebcc5f06d66cbf395" target="_top" xlink:title=" ">
<polygon fill="white" stroke="black" points="485.855,-207 485.855,-227 614.145,-227 614.145,-207 485.855,-207"/>
<text text-anchor="middle" x="550" y="-213" font-family="Helvetica,sans-Serif" font-size="10.00">AP_GPS::ground_course</text>
</a>
</g>
</g>
<!-- Node99&#45;&gt;Node100 -->
<g id="edge11" class="edge"><title>Node99&#45;&gt;Node100</title>
<path fill="none" stroke="midnightblue" d="M448.449,-217C457.435,-217 466.64,-217 475.655,-217"/>
<polygon fill="midnightblue" stroke="midnightblue" points="475.73,-220.5 485.73,-217 475.73,-213.5 475.73,-220.5"/>
</g>
<!-- Node105 -->
<g id="node17" class="node"><title>Node105</title>
<g id="a_node17"><a xlink:href="classAP__AHRS.html#a73669ea2a3cea5b5348915f7a333f840" target="_top" xlink:title=" ">
<polygon fill="white" stroke="black" points="322.421,-51 322.421,-71 429.579,-71 429.579,-51 322.421,-51"/>
<text text-anchor="middle" x="376" y="-57" font-family="Helvetica,sans-Serif" font-size="10.00">AP_AHRS::get_gyro</text>
</a>
</g>
</g>
<!-- Node104&#45;&gt;Node105 -->
<g id="edge16" class="edge"><title>Node104&#45;&gt;Node105</title>
<path fill="none" stroke="midnightblue" d="M266.558,-61C281.486,-61 297.385,-61 312.277,-61"/>
<polygon fill="midnightblue" stroke="midnightblue" points="312.401,-64.5001 322.401,-61 312.401,-57.5001 312.401,-64.5001"/>
</g>
<!-- Node106 -->
<g id="node18" class="node"><title>Node106</title>
<g id="a_node18"><a xlink:href="classAP__AHRS.html#a8a1988bb283c488c86b329be18271fbf" target="_top" xlink:title=" ">
<polygon fill="white" stroke="black" points="315.471,-0 315.471,-32 436.529,-32 436.529,-0 315.471,-0"/>
<text text-anchor="start" x="323.471" y="-18" font-family="Helvetica,sans-Serif" font-size="10.00">AP_AHRS::get_rotation</text>
<text text-anchor="middle" x="376" y="-6" font-family="Helvetica,sans-Serif" font-size="10.00">_body_to_ned</text>
</a>
</g>
</g>
<!-- Node104&#45;&gt;Node106 -->
<g id="edge17" class="edge"><title>Node104&#45;&gt;Node106</title>
<path fill="none" stroke="midnightblue" d="M264.61,-44.8811C277.874,-41.4109 291.982,-37.7199 305.522,-34.1774"/>
<polygon fill="midnightblue" stroke="midnightblue" points="306.472,-37.5467 315.26,-31.6295 304.7,-30.7747 306.472,-37.5467"/>
</g>
</g>
</svg>
