<?xml version="1.0" encoding="UTF-8" standalone="no"?>
<!DOCTYPE svg PUBLIC "-//W3C//DTD SVG 1.1//EN"
 "http://www.w3.org/Graphics/SVG/1.1/DTD/svg11.dtd">
<!-- Generated by graphviz version 2.30.1 (20130221.2233)
 -->
<!-- Title: AC_AttitudeControl::ang_vel_to_euler_rate Pages: 1 -->
<svg width="608pt" height="508pt"
 viewBox="0.00 0.00 608.00 508.00" xmlns="http://www.w3.org/2000/svg" xmlns:xlink="http://www.w3.org/1999/xlink">
<g id="graph0" class="graph" transform="scale(1 1) rotate(0) translate(4 504)">
<title>AC_AttitudeControl::ang_vel_to_euler_rate</title>
<polygon fill="white" stroke="white" points="-4,5 -4,-504 605,-504 605,5 -4,5"/>
<!-- Node37 -->
<g id="node1" class="node"><title>Node37</title>
<g id="a_node1"><a xlink:title=" ">
<polygon fill="#bfbfbf" stroke="black" points="478.461,-214 478.461,-246 599.539,-246 599.539,-214 478.461,-214"/>
<text text-anchor="start" x="486.461" y="-232" font-family="Helvetica,sans-Serif" font-size="10.00">AC_AttitudeControl</text>
<text text-anchor="middle" x="539" y="-220" font-family="Helvetica,sans-Serif" font-size="10.00">::ang_vel_to_euler_rate</text>
</a>
</g>
</g>
<!-- Node38 -->
<g id="node2" class="node"><title>Node38</title>
<g id="a_node2"><a xlink:href="classAC__AttitudeControl.html#af0e7aef643e29d1f1af2a9cd1945d426" target="_top" xlink:title=" ">
<polygon fill="white" stroke="black" points="306.242,-417 306.242,-461 441.758,-461 441.758,-417 306.242,-417"/>
<text text-anchor="start" x="314.242" y="-447" font-family="Helvetica,sans-Serif" font-size="10.00">AC_AttitudeControl</text>
<text text-anchor="start" x="314.242" y="-435" font-family="Helvetica,sans-Serif" font-size="10.00">::input_euler_angle</text>
<text text-anchor="middle" x="374" y="-423" font-family="Helvetica,sans-Serif" font-size="10.00">_roll_pitch_euler_rate_yaw</text>
</a>
</g>
</g>
<!-- Node37&#45;&gt;Node38 -->
<g id="edge1" class="edge"><title>Node37&#45;&gt;Node38</title>
<path fill="none" stroke="midnightblue" d="M529.819,-255.748C516.719,-293.353 487.756,-363.537 442,-407 438.168,-410.64 433.845,-413.935 429.286,-416.902"/>
<polygon fill="midnightblue" stroke="midnightblue" points="533.209,-256.649 533.094,-246.055 526.577,-254.409 533.209,-256.649"/>
</g>
<!-- Node41 -->
<g id="node5" class="node"><title>Node41</title>
<g id="a_node5"><a xlink:href="classAC__AttitudeControl.html#aa111691a6822ceea4c70c434ee6d38e7" target="_top" xlink:title=" ">
<polygon fill="white" stroke="black" points="323.2,-354 323.2,-398 424.8,-398 424.8,-354 323.2,-354"/>
<text text-anchor="start" x="331.2" y="-384" font-family="Helvetica,sans-Serif" font-size="10.00">AC_AttitudeControl</text>
<text text-anchor="start" x="331.2" y="-372" font-family="Helvetica,sans-Serif" font-size="10.00">::input_euler_angle</text>
<text text-anchor="middle" x="374" y="-360" font-family="Helvetica,sans-Serif" font-size="10.00">_roll_pitch_yaw</text>
</a>
</g>
</g>
<!-- Node37&#45;&gt;Node41 -->
<g id="edge4" class="edge"><title>Node37&#45;&gt;Node41</title>
<path fill="none" stroke="midnightblue" d="M521.831,-254.823C504.503,-279.9 474.996,-318.485 442,-344 436.799,-348.022 431.012,-351.711 425.077,-355.041"/>
<polygon fill="midnightblue" stroke="midnightblue" points="524.933,-256.485 527.648,-246.244 519.139,-252.556 524.933,-256.485"/>
</g>
<!-- Node44 -->
<g id="node8" class="node"><title>Node44</title>
<g id="a_node8"><a xlink:href="classAC__AttitudeControl.html#aa534dbef87d61ff598744ffa60782bbc" target="_top" xlink:title=" ">
<polygon fill="white" stroke="black" points="323.2,-303 323.2,-335 424.8,-335 424.8,-303 323.2,-303"/>
<text text-anchor="start" x="331.2" y="-321" font-family="Helvetica,sans-Serif" font-size="10.00">AC_AttitudeControl</text>
<text text-anchor="middle" x="374" y="-309" font-family="Helvetica,sans-Serif" font-size="10.00">::input_quaternion</text>
</a>
</g>
</g>
<!-- Node37&#45;&gt;Node44 -->
<g id="edge8" class="edge"><title>Node37&#45;&gt;Node44</title>
<path fill="none" stroke="midnightblue" d="M508.021,-252.034C489.57,-264.989 465.104,-281.105 442,-293 435.122,-296.541 427.646,-299.892 420.265,-302.937"/>
<polygon fill="midnightblue" stroke="midnightblue" points="510.181,-254.793 516.305,-246.147 506.126,-249.087 510.181,-254.793"/>
</g>
<!-- Node45 -->
<g id="node9" class="node"><title>Node45</title>
<g id="a_node9"><a xlink:href="classAC__AttitudeControl.html#a2ca277e7c4a5ac2980814673aae2d037" target="_top" xlink:title=" ">
<polygon fill="white" stroke="black" points="323.2,-240 323.2,-284 424.8,-284 424.8,-240 323.2,-240"/>
<text text-anchor="start" x="331.2" y="-270" font-family="Helvetica,sans-Serif" font-size="10.00">AC_AttitudeControl</text>
<text text-anchor="start" x="331.2" y="-258" font-family="Helvetica,sans-Serif" font-size="10.00">::input_rate_bf_roll</text>
<text text-anchor="middle" x="374" y="-246" font-family="Helvetica,sans-Serif" font-size="10.00">_pitch_yaw</text>
</a>
</g>
</g>
<!-- Node37&#45;&gt;Node45 -->
<g id="edge9" class="edge"><title>Node37&#45;&gt;Node45</title>
<path fill="none" stroke="midnightblue" d="M468.237,-243.696C453.651,-246.559 438.552,-249.524 424.862,-252.211"/>
<polygon fill="midnightblue" stroke="midnightblue" points="469.092,-247.095 478.23,-241.734 467.743,-240.226 469.092,-247.095"/>
</g>
<!-- Node47 -->
<g id="node11" class="node"><title>Node47</title>
<g id="a_node11"><a xlink:href="classAC__AttitudeControl.html#ae23c97bb2a32c96c680959fd586d9e61" target="_top" xlink:title=" ">
<polygon fill="white" stroke="black" points="323.2,-177 323.2,-221 424.8,-221 424.8,-177 323.2,-177"/>
<text text-anchor="start" x="331.2" y="-207" font-family="Helvetica,sans-Serif" font-size="10.00">AC_AttitudeControl</text>
<text text-anchor="start" x="331.2" y="-195" font-family="Helvetica,sans-Serif" font-size="10.00">::input_rate_bf_roll</text>
<text text-anchor="middle" x="374" y="-183" font-family="Helvetica,sans-Serif" font-size="10.00">_pitch_yaw_2</text>
</a>
</g>
</g>
<!-- Node37&#45;&gt;Node47 -->
<g id="edge12" class="edge"><title>Node37&#45;&gt;Node47</title>
<path fill="none" stroke="midnightblue" d="M468.237,-216.732C453.651,-213.958 438.552,-211.086 424.862,-208.483"/>
<polygon fill="midnightblue" stroke="midnightblue" points="467.753,-220.203 478.23,-218.633 469.06,-213.326 467.753,-220.203"/>
</g>
<!-- Node48 -->
<g id="node12" class="node"><title>Node48</title>
<g id="a_node12"><a xlink:href="classAC__AttitudeControl.html#ae23959f7f64068fed032553f5d66eeb9" target="_top" xlink:title=" ">
<polygon fill="white" stroke="black" points="323.2,-114 323.2,-158 424.8,-158 424.8,-114 323.2,-114"/>
<text text-anchor="start" x="331.2" y="-144" font-family="Helvetica,sans-Serif" font-size="10.00">AC_AttitudeControl</text>
<text text-anchor="start" x="331.2" y="-132" font-family="Helvetica,sans-Serif" font-size="10.00">::input_rate_bf_roll</text>
<text text-anchor="middle" x="374" y="-120" font-family="Helvetica,sans-Serif" font-size="10.00">_pitch_yaw_3</text>
</a>
</g>
</g>
<!-- Node37&#45;&gt;Node48 -->
<g id="edge13" class="edge"><title>Node37&#45;&gt;Node48</title>
<path fill="none" stroke="midnightblue" d="M506.526,-208.222C488.082,-195.83 464.129,-180.364 442,-168 436.036,-164.668 429.669,-161.344 423.323,-158.167"/>
<polygon fill="midnightblue" stroke="midnightblue" points="504.602,-211.146 514.845,-213.854 508.526,-205.349 504.602,-211.146"/>
</g>
<!-- Node49 -->
<g id="node13" class="node"><title>Node49</title>
<g id="a_node13"><a xlink:href="classAC__AttitudeControl__Heli.html#a3741c5f0deabfef2c6889171b5c4a217" target="_top" xlink:title=" ">
<polygon fill="white" stroke="black" points="317.357,-51 317.357,-95 430.643,-95 430.643,-51 317.357,-51"/>
<text text-anchor="start" x="325.357" y="-81" font-family="Helvetica,sans-Serif" font-size="10.00">AC_AttitudeControl</text>
<text text-anchor="start" x="325.357" y="-69" font-family="Helvetica,sans-Serif" font-size="10.00">_Heli::passthrough_bf</text>
<text text-anchor="middle" x="374" y="-57" font-family="Helvetica,sans-Serif" font-size="10.00">_roll_pitch_rate_yaw</text>
</a>
</g>
</g>
<!-- Node37&#45;&gt;Node49 -->
<g id="edge14" class="edge"><title>Node37&#45;&gt;Node49</title>
<path fill="none" stroke="midnightblue" d="M523.899,-205.219C507.26,-177.771 477.343,-133.623 442,-105 437.592,-101.43 432.721,-98.1425 427.674,-95.145"/>
<polygon fill="midnightblue" stroke="midnightblue" points="520.904,-207.031 529.021,-213.84 526.922,-203.455 520.904,-207.031"/>
</g>
<!-- Node50 -->
<g id="node14" class="node"><title>Node50</title>
<g id="a_node14"><a xlink:href="classAC__AttitudeControl.html#ad5f06ff5ba37d9af1afdb1ab18827a06" target="_top" xlink:title=" ">
<polygon fill="white" stroke="black" points="307.357,-0 307.357,-32 440.643,-32 440.643,-0 307.357,-0"/>
<text text-anchor="start" x="315.357" y="-18" font-family="Helvetica,sans-Serif" font-size="10.00">AC_AttitudeControl</text>
<text text-anchor="middle" x="374" y="-6" font-family="Helvetica,sans-Serif" font-size="10.00">::relax_attitude_controllers</text>
</a>
</g>
</g>
<!-- Node37&#45;&gt;Node50 -->
<g id="edge15" class="edge"><title>Node37&#45;&gt;Node50</title>
<path fill="none" stroke="midnightblue" d="M531.29,-204.211C519.624,-164.199 491.939,-87.0906 442,-42 437.74,-38.1537 432.848,-34.8501 427.688,-32.0185"/>
<polygon fill="midnightblue" stroke="midnightblue" points="527.965,-205.317 534.038,-213.999 534.705,-203.425 527.965,-205.317"/>
</g>
<!-- Node39 -->
<g id="node3" class="node"><title>Node39</title>
<g id="a_node3"><a xlink:href="classAC__AttitudeControl__Heli.html#a96317d64d32a0d29202c4f443bd06076" target="_top" xlink:title=" ">
<polygon fill="white" stroke="black" points="134.242,-456 134.242,-500 269.758,-500 269.758,-456 134.242,-456"/>
<text text-anchor="start" x="142.242" y="-486" font-family="Helvetica,sans-Serif" font-size="10.00">AC_AttitudeControl</text>
<text text-anchor="start" x="142.242" y="-474" font-family="Helvetica,sans-Serif" font-size="10.00">_Heli::input_euler_angle</text>
<text text-anchor="middle" x="202" y="-462" font-family="Helvetica,sans-Serif" font-size="10.00">_roll_pitch_euler_rate_yaw</text>
</a>
</g>
</g>
<!-- Node38&#45;&gt;Node39 -->
<g id="edge2" class="edge"><title>Node38&#45;&gt;Node39</title>
<path fill="none" stroke="midnightblue" d="M296.055,-456.652C287.354,-458.648 278.538,-460.671 269.979,-462.634"/>
<polygon fill="midnightblue" stroke="midnightblue" points="296.847,-460.061 305.811,-454.414 295.282,-453.239 296.847,-460.061"/>
</g>
<!-- Node40 -->
<g id="node4" class="node"><title>Node40</title>
<g id="a_node4"><a xlink:href="classAC__AutoTune.html#a1a880de557aca3dc882924b746bcf383" target="_top" xlink:title=" ">
<polygon fill="white" stroke="black" points="-0.230469,-363 -0.230469,-383 98.2305,-383 98.2305,-363 -0.230469,-363"/>
<text text-anchor="middle" x="49" y="-369" font-family="Helvetica,sans-Serif" font-size="10.00">AC_AutoTune::run</text>
</a>
</g>
</g>
<!-- Node38&#45;&gt;Node40 -->
<g id="edge3" class="edge"><title>Node38&#45;&gt;Node40</title>
<path fill="none" stroke="midnightblue" d="M296.01,-433.64C248.693,-429.132 187.16,-421.076 134,-407 111.643,-401.08 87.265,-390.748 70.5581,-383.023"/>
<polygon fill="midnightblue" stroke="midnightblue" points="295.908,-437.146 306.187,-434.576 296.549,-430.175 295.908,-437.146"/>
</g>
<!-- Node42 -->
<g id="node6" class="node"><title>Node42</title>
<g id="a_node6"><a xlink:href="classAC__AttitudeControl__Heli.html#a8720532877383f5bc054862f88e64dfe" target="_top" xlink:title=" ">
<polygon fill="white" stroke="black" points="140.072,-354 140.072,-398 263.928,-398 263.928,-354 140.072,-354"/>
<text text-anchor="start" x="148.072" y="-384" font-family="Helvetica,sans-Serif" font-size="10.00">AC_AttitudeControl</text>
<text text-anchor="start" x="148.072" y="-372" font-family="Helvetica,sans-Serif" font-size="10.00">_Heli::input_euler_angle</text>
<text text-anchor="middle" x="202" y="-360" font-family="Helvetica,sans-Serif" font-size="10.00">_roll_pitch_yaw</text>
</a>
</g>
</g>
<!-- Node41&#45;&gt;Node42 -->
<g id="edge5" class="edge"><title>Node41&#45;&gt;Node42</title>
<path fill="none" stroke="midnightblue" d="M312.758,-376C296.991,-376 279.978,-376 264.164,-376"/>
<polygon fill="midnightblue" stroke="midnightblue" points="312.914,-379.5 322.914,-376 312.914,-372.5 312.914,-379.5"/>
</g>
<!-- Node43 -->
<g id="node7" class="node"><title>Node43</title>
<g id="a_node7"><a xlink:href="classAC__AutoTune.html#a7553749cc2b73850fcf4b14a61e384bb" target="_top" xlink:title=" ">
<polygon fill="white" stroke="black" points="144.989,-303 144.989,-335 259.011,-335 259.011,-303 144.989,-303"/>
<text text-anchor="start" x="152.989" y="-321" font-family="Helvetica,sans-Serif" font-size="10.00">AC_AutoTune::control</text>
<text text-anchor="middle" x="202" y="-309" font-family="Helvetica,sans-Serif" font-size="10.00">_attitude</text>
</a>
</g>
</g>
<!-- Node41&#45;&gt;Node43 -->
<g id="edge6" class="edge"><title>Node41&#45;&gt;Node43</title>
<path fill="none" stroke="midnightblue" d="M313.389,-356.013C292.957,-349.162 270.369,-341.588 250.977,-335.086"/>
<polygon fill="midnightblue" stroke="midnightblue" points="312.32,-359.346 322.914,-359.206 314.545,-352.709 312.32,-359.346"/>
</g>
<!-- Node43&#45;&gt;Node40 -->
<g id="edge7" class="edge"><title>Node43&#45;&gt;Node40</title>
<path fill="none" stroke="midnightblue" d="M146.421,-338.518C123.358,-346.766 97.4668,-356.025 78.3258,-362.87"/>
<polygon fill="midnightblue" stroke="midnightblue" points="147.866,-341.719 156.104,-335.056 145.509,-335.127 147.866,-341.719"/>
</g>
<!-- Node46 -->
<g id="node10" class="node"><title>Node46</title>
<g id="a_node10"><a xlink:href="classAC__AttitudeControl__Heli.html#aa78e07c940c43aa150caf3c52cf76809" target="_top" xlink:title=" ">
<polygon fill="white" stroke="black" points="150.638,-240 150.638,-284 253.362,-284 253.362,-240 150.638,-240"/>
<text text-anchor="start" x="158.638" y="-270" font-family="Helvetica,sans-Serif" font-size="10.00">AC_AttitudeControl</text>
<text text-anchor="start" x="158.638" y="-258" font-family="Helvetica,sans-Serif" font-size="10.00">_Heli::input_rate_bf</text>
<text text-anchor="middle" x="202" y="-246" font-family="Helvetica,sans-Serif" font-size="10.00">_roll_pitch_yaw</text>
</a>
</g>
</g>
<!-- Node45&#45;&gt;Node46 -->
<g id="edge10" class="edge"><title>Node45&#45;&gt;Node46</title>
<path fill="none" stroke="midnightblue" d="M312.699,-262C293.369,-262 272.174,-262 253.61,-262"/>
<polygon fill="midnightblue" stroke="midnightblue" points="312.914,-265.5 322.914,-262 312.914,-258.5 312.914,-265.5"/>
</g>
<!-- Node45&#45;&gt;Node43 -->
<g id="edge11" class="edge"><title>Node45&#45;&gt;Node43</title>
<path fill="none" stroke="midnightblue" d="M313.389,-281.987C292.957,-288.838 270.369,-296.412 250.977,-302.914"/>
<polygon fill="midnightblue" stroke="midnightblue" points="314.545,-285.291 322.914,-278.794 312.32,-278.654 314.545,-285.291"/>
</g>
</g>
</svg>
