<?xml version="1.0" encoding="UTF-8" standalone="no"?>
<!DOCTYPE svg PUBLIC "-//W3C//DTD SVG 1.1//EN"
 "http://www.w3.org/Graphics/SVG/1.1/DTD/svg11.dtd">
<!-- Generated by graphviz version 2.30.1 (20130221.2233)
 -->
<!-- Title: AP_Proximity_Backend::get_ignore_area_count Pages: 1 -->
<!--zoomable 91 -->
<svg id="main" version="1.1" xmlns="http://www.w3.org/2000/svg" xmlns:xlink="http://www.w3.org/1999/xlink" xml:space="preserve" onload="init(evt)">
<style type="text/css"><![CDATA[
.edge:hover path { stroke: red; }
.edge:hover polygon { stroke: red; fill: red; }
]]></style>
<script type="text/javascript"><![CDATA[
var edges = document.getElementsByTagName('g');
if (edges && edges.length) {
  for (var i=0;i<edges.length;i++) {
    if (edges[i].id.substr(0,4)=='edge') {
      edges[i].setAttribute('class','edge');
    }
  }
}
]]></script>
        <defs>
                <circle id="rim" cx="0" cy="0" r="7"/>
                <circle id="rim2" cx="0" cy="0" r="3.5"/>
                <g id="zoomPlus">
                        <use xlink:href="#rim" fill="#404040">
                                <set attributeName="fill" to="#808080" begin="zoomplus.mouseover" end="zoomplus.mouseout"/>
                        </use>
                        <path d="M-4,0h8M0,-4v8" fill="none" stroke="white" stroke-width="1.5" pointer-events="none"/>
                </g>
                <g id="zoomMin">
                        <use xlink:href="#rim" fill="#404040">
                                <set attributeName="fill" to="#808080" begin="zoomminus.mouseover" end="zoomminus.mouseout"/>
                        </use>
                        <path d="M-4,0h8" fill="none" stroke="white" stroke-width="1.5" pointer-events="none"/>
                </g>
                <g id="dirArrow">
                        <path fill="none" stroke="white" stroke-width="1.5" d="M0,-3.0v7 M-2.5,-0.5L0,-3.0L2.5,-0.5"/>
                </g>
               <g id="resetDef">
                       <use xlink:href="#rim2" fill="#404040">
                               <set attributeName="fill" to="#808080" begin="reset.mouseover" end="reset.mouseout"/>
                       </use>
               </g>
        </defs>

<script type="text/javascript">
var viewWidth = 696;
var viewHeight = 91;
var sectionId = 'dynsection-16';
</script>
<script xlink:href="svgpan.js"/>
<svg id="graph" class="graph">
<g id="viewport">
<title>AP_Proximity_Backend::get_ignore_area_count</title>
<polygon fill="white" stroke="white" points="-4,5 -4,-87 693,-87 693,5 -4,5"/>
<!-- Node172 -->
<g id="node1" class="node"><title>Node172</title>
<g id="a_node1"><a xlink:title=" ">
<polygon fill="#bfbfbf" stroke="black" points="563.791,-25 563.791,-57 688.209,-57 688.209,-25 563.791,-25"/>
<text text-anchor="start" x="571.791" y="-43" font-family="Helvetica,sans-Serif" font-size="10.00">AP_Proximity_Backend</text>
<text text-anchor="middle" x="626" y="-31" font-family="Helvetica,sans-Serif" font-size="10.00">::get_ignore_area_count</text>
</a>
</g>
</g>
<!-- Node173 -->
<g id="node2" class="node"><title>Node173</title>
<g id="a_node2"><a xlink:href="classAP__Proximity__LightWareSF40C.html#a352a1e0704cc1321d2dd6768af5fa28a" target="_top" xlink:title=" ">
<polygon fill="white" stroke="black" points="376.656,-51 376.656,-83 527.344,-83 527.344,-51 376.656,-51"/>
<text text-anchor="start" x="384.656" y="-69" font-family="Helvetica,sans-Serif" font-size="10.00">AP_Proximity_LightWareSF40</text>
<text text-anchor="middle" x="452" y="-57" font-family="Helvetica,sans-Serif" font-size="10.00">C::init_sectors</text>
</a>
</g>
</g>
<!-- Node172&#45;&gt;Node173 -->
<g id="edge1" class="edge"><title>Node172&#45;&gt;Node173</title>
<path fill="none" stroke="midnightblue" d="M553.415,-51.821C544.823,-53.1198 536.033,-54.4486 527.401,-55.7533"/>
<polygon fill="midnightblue" stroke="midnightblue" points="554.025,-55.2686 563.39,-50.3132 552.979,-48.3472 554.025,-55.2686"/>
</g>
<!-- Node176 -->
<g id="node5" class="node"><title>Node176</title>
<g id="a_node5"><a xlink:href="classAP__Proximity__RPLidarA2.html#a5e6829d9d03fc3a51eb3c8108e08385d" target="_top" xlink:title=" ">
<polygon fill="white" stroke="black" points="387.032,-0 387.032,-32 516.968,-32 516.968,-0 387.032,-0"/>
<text text-anchor="start" x="395.032" y="-18" font-family="Helvetica,sans-Serif" font-size="10.00">AP_Proximity_RPLidarA2</text>
<text text-anchor="middle" x="452" y="-6" font-family="Helvetica,sans-Serif" font-size="10.00">::init_sectors</text>
</a>
</g>
</g>
<!-- Node172&#45;&gt;Node176 -->
<g id="edge4" class="edge"><title>Node172&#45;&gt;Node176</title>
<path fill="none" stroke="midnightblue" d="M553.387,-30.5912C541.346,-28.8409 528.916,-27.0344 517.081,-25.3141"/>
<polygon fill="midnightblue" stroke="midnightblue" points="552.99,-34.0702 563.39,-32.045 553.997,-27.143 552.99,-34.0702"/>
</g>
<!-- Node174 -->
<g id="node3" class="node"><title>Node174</title>
<g id="a_node3"><a xlink:href="classAP__Proximity__LightWareSF40C.html#ad1302483409899abe3a4812e7b81bf8c" target="_top" xlink:title=" ">
<polygon fill="white" stroke="black" points="188.656,-51 188.656,-83 339.344,-83 339.344,-51 188.656,-51"/>
<text text-anchor="start" x="196.656" y="-69" font-family="Helvetica,sans-Serif" font-size="10.00">AP_Proximity_LightWareSF40</text>
<text text-anchor="middle" x="264" y="-57" font-family="Helvetica,sans-Serif" font-size="10.00">C::initialise</text>
</a>
</g>
</g>
<!-- Node173&#45;&gt;Node174 -->
<g id="edge2" class="edge"><title>Node173&#45;&gt;Node174</title>
<path fill="none" stroke="midnightblue" d="M366.39,-67C357.452,-67 348.41,-67 339.598,-67"/>
<polygon fill="midnightblue" stroke="midnightblue" points="366.418,-70.5001 376.418,-67 366.418,-63.5001 366.418,-70.5001"/>
</g>
<!-- Node175 -->
<g id="node4" class="node"><title>Node175</title>
<g id="a_node4"><a xlink:href="classAP__Proximity__LightWareSF40C.html#ad07c8775f2bfddc5bcb84736a157d1a8" target="_top" xlink:title=" ">
<polygon fill="white" stroke="black" points="0.65625,-51 0.65625,-83 151.344,-83 151.344,-51 0.65625,-51"/>
<text text-anchor="start" x="8.65625" y="-69" font-family="Helvetica,sans-Serif" font-size="10.00">AP_Proximity_LightWareSF40</text>
<text text-anchor="middle" x="76" y="-57" font-family="Helvetica,sans-Serif" font-size="10.00">C::update</text>
</a>
</g>
</g>
<!-- Node174&#45;&gt;Node175 -->
<g id="edge3" class="edge"><title>Node174&#45;&gt;Node175</title>
<path fill="none" stroke="midnightblue" d="M178.39,-67C169.452,-67 160.41,-67 151.598,-67"/>
<polygon fill="midnightblue" stroke="midnightblue" points="178.418,-70.5001 188.418,-67 178.418,-63.5001 178.418,-70.5001"/>
</g>
<!-- Node177 -->
<g id="node6" class="node"><title>Node177</title>
<g id="a_node6"><a xlink:href="classAP__Proximity__RPLidarA2.html#a72b0ccfaee89050ffe5874dd4b8ea6ec" target="_top" xlink:title=" ">
<polygon fill="white" stroke="black" points="199.032,-0 199.032,-32 328.968,-32 328.968,-0 199.032,-0"/>
<text text-anchor="start" x="207.032" y="-18" font-family="Helvetica,sans-Serif" font-size="10.00">AP_Proximity_RPLidarA2</text>
<text text-anchor="middle" x="264" y="-6" font-family="Helvetica,sans-Serif" font-size="10.00">::initialise</text>
</a>
</g>
</g>
<!-- Node176&#45;&gt;Node177 -->
<g id="edge5" class="edge"><title>Node176&#45;&gt;Node177</title>
<path fill="none" stroke="midnightblue" d="M376.758,-16C360.993,-16 344.479,-16 329.129,-16"/>
<polygon fill="midnightblue" stroke="midnightblue" points="376.989,-19.5001 386.989,-16 376.989,-12.5001 376.989,-19.5001"/>
</g>
<!-- Node178 -->
<g id="node7" class="node"><title>Node178</title>
<g id="a_node7"><a xlink:href="classAP__Proximity__RPLidarA2.html#a1be65ea5dc6fcc4790bdca6c0d704ee8" target="_top" xlink:title=" ">
<polygon fill="white" stroke="black" points="11.0322,-0 11.0322,-32 140.968,-32 140.968,-0 11.0322,-0"/>
<text text-anchor="start" x="19.0322" y="-18" font-family="Helvetica,sans-Serif" font-size="10.00">AP_Proximity_RPLidarA2</text>
<text text-anchor="middle" x="76" y="-6" font-family="Helvetica,sans-Serif" font-size="10.00">::update</text>
</a>
</g>
</g>
<!-- Node177&#45;&gt;Node178 -->
<g id="edge6" class="edge"><title>Node177&#45;&gt;Node178</title>
<path fill="none" stroke="midnightblue" d="M188.758,-16C172.993,-16 156.479,-16 141.129,-16"/>
<polygon fill="midnightblue" stroke="midnightblue" points="188.989,-19.5001 198.989,-16 188.989,-12.5001 188.989,-19.5001"/>
</g>
</g>
</svg>
        <g id="navigator" transform="translate(0 0)" fill="#404254">
                <rect fill="#f2f5e9" fill-opacity="0.5" stroke="#606060" stroke-width=".5" x="0" y="0" width="60" height="60"/>
                <use id="zoomplus" xlink:href="#zoomPlus" x="17" y="9" onmousedown="handleZoom(evt,'in')"/>
                <use id="zoomminus" xlink:href="#zoomMin" x="42" y="9" onmousedown="handleZoom(evt,'out')"/>
                <use id="reset" xlink:href="#resetDef" x="30" y="36" onmousedown="handleReset()"/>
                <g id="arrowUp" xlink:href="#dirArrow" transform="translate(30 24)" onmousedown="handlePan(0,-1)">
                  <use xlink:href="#rim" fill="#404040">
                        <set attributeName="fill" to="#808080" begin="arrowUp.mouseover" end="arrowUp.mouseout"/>
                  </use>
                  <path fill="none" stroke="white" stroke-width="1.5" d="M0,-3.0v7 M-2.5,-0.5L0,-3.0L2.5,-0.5"/>
                </g>
                <g id="arrowRight" xlink:href="#dirArrow" transform="rotate(90) translate(36 -43)" onmousedown="handlePan(1,0)">
                  <use xlink:href="#rim" fill="#404040">
                        <set attributeName="fill" to="#808080" begin="arrowRight.mouseover" end="arrowRight.mouseout"/>
                  </use>
                  <path fill="none" stroke="white" stroke-width="1.5" d="M0,-3.0v7 M-2.5,-0.5L0,-3.0L2.5,-0.5"/>
                </g>
                <g id="arrowDown" xlink:href="#dirArrow" transform="rotate(180) translate(-30 -48)" onmousedown="handlePan(0,1)">
                  <use xlink:href="#rim" fill="#404040">
                        <set attributeName="fill" to="#808080" begin="arrowDown.mouseover" end="arrowDown.mouseout"/>
                  </use>
                  <path fill="none" stroke="white" stroke-width="1.5" d="M0,-3.0v7 M-2.5,-0.5L0,-3.0L2.5,-0.5"/>
                </g>
                <g id="arrowLeft" xlink:href="#dirArrow" transform="rotate(270) translate(-36 17)" onmousedown="handlePan(-1,0)">
                  <use xlink:href="#rim" fill="#404040">
                        <set attributeName="fill" to="#808080" begin="arrowLeft.mouseover" end="arrowLeft.mouseout"/>
                  </use>
                  <path fill="none" stroke="white" stroke-width="1.5" d="M0,-3.0v7 M-2.5,-0.5L0,-3.0L2.5,-0.5"/>
                </g>
        </g>
        <svg viewBox="0 0 15 15" width="100%" height="30px" preserveAspectRatio="xMaxYMin meet">
         <g id="arrow_out" transform="scale(0.3 0.3)">
          <a xlink:href="classAP__Proximity__Backend_a5677b662feaf4ada3c936a880a742e4d_icgraph_org.svg" target="_base">
           <rect id="button" ry="5" rx="5" y="6" x="6" height="38" width="38"
                fill="#f2f5e9" fill-opacity="0.5" stroke="#606060" stroke-width="1.0"/>
           <path id="arrow"
             d="M 11.500037,31.436501 C 11.940474,20.09759 22.043105,11.32322 32.158766,21.979434 L 37.068811,17.246167 C 37.068811,17.246167 37.088388,32 37.088388,32 L 22.160133,31.978069 C 22.160133,31.978069 26.997745,27.140456 26.997745,27.140456 C 18.528582,18.264221 13.291696,25.230495 11.500037,31.436501 z"
             style="fill:#404040;"/>
          </a>
         </g>
        </svg>
</svg>
