<?xml version="1.0" encoding="UTF-8" standalone="no"?>
<!DOCTYPE svg PUBLIC "-//W3C//DTD SVG 1.1//EN"
 "http://www.w3.org/Graphics/SVG/1.1/DTD/svg11.dtd">
<!-- Generated by graphviz version 2.30.1 (20130221.2233)
 -->
<!-- Title: AP_Compass_Backend::drain_accumulated_samples Pages: 1 -->
<svg width="524pt" height="67pt"
 viewBox="0.00 0.00 524.00 67.00" xmlns="http://www.w3.org/2000/svg" xmlns:xlink="http://www.w3.org/1999/xlink">
<g id="graph0" class="graph" transform="scale(1 1) rotate(0) translate(4 63)">
<title>AP_Compass_Backend::drain_accumulated_samples</title>
<polygon fill="white" stroke="white" points="-4,5 -4,-63 521,-63 521,5 -4,5"/>
<!-- Node506 -->
<g id="node1" class="node"><title>Node506</title>
<g id="a_node1"><a xlink:title=" ">
<polygon fill="#bfbfbf" stroke="black" points="0.192383,-7 0.192383,-51 121.808,-51 121.808,-7 0.192383,-7"/>
<text text-anchor="start" x="8.19238" y="-37" font-family="Helvetica,sans-Serif" font-size="10.00">AP_Compass_Backend</text>
<text text-anchor="start" x="8.19238" y="-25" font-family="Helvetica,sans-Serif" font-size="10.00">::drain_accumulated</text>
<text text-anchor="middle" x="61" y="-13" font-family="Helvetica,sans-Serif" font-size="10.00">_samples</text>
</a>
</g>
</g>
<!-- Node507 -->
<g id="node2" class="node"><title>Node507</title>
<g id="a_node2"><a xlink:href="classAP__Compass__Backend.html#af32338076ec4e219abfa6c9b703d1477" target="_top" xlink:title=" ">
<polygon fill="white" stroke="black" points="158.192,-13 158.192,-45 279.808,-45 279.808,-13 158.192,-13"/>
<text text-anchor="start" x="166.192" y="-31" font-family="Helvetica,sans-Serif" font-size="10.00">AP_Compass_Backend</text>
<text text-anchor="middle" x="219" y="-19" font-family="Helvetica,sans-Serif" font-size="10.00">::publish_filtered_field</text>
</a>
</g>
</g>
<!-- Node506&#45;&gt;Node507 -->
<g id="edge1" class="edge"><title>Node506&#45;&gt;Node507</title>
<path fill="none" stroke="midnightblue" d="M121.868,-29C130.39,-29 139.218,-29 147.914,-29"/>
<polygon fill="midnightblue" stroke="midnightblue" points="148.035,-32.5001 158.035,-29 148.035,-25.5001 148.035,-32.5001"/>
</g>
<!-- Node508 -->
<g id="node3" class="node"><title>Node508</title>
<g id="a_node3"><a xlink:href="namespaceAP__HAL.html#a77dffbb18891996280308e21316ec186" target="_top" xlink:title=" ">
<polygon fill="white" stroke="black" points="319.936,-39 319.936,-59 402.064,-59 402.064,-39 319.936,-39"/>
<text text-anchor="middle" x="361" y="-45" font-family="Helvetica,sans-Serif" font-size="10.00">AP_HAL::millis</text>
</a>
</g>
</g>
<!-- Node507&#45;&gt;Node508 -->
<g id="edge2" class="edge"><title>Node507&#45;&gt;Node508</title>
<path fill="none" stroke="midnightblue" d="M280.185,-37.5979C289.982,-38.9974 300.04,-40.4343 309.572,-41.7959"/>
<polygon fill="midnightblue" stroke="midnightblue" points="309.276,-45.2892 319.671,-43.2387 310.266,-38.3595 309.276,-45.2892"/>
</g>
<!-- Node510 -->
<g id="node5" class="node"><title>Node510</title>
<g id="a_node5"><a xlink:href="namespaceAP__HAL.html#a8293355e35887733b1fd151aef08a787" target="_top" xlink:title=" ">
<polygon fill="white" stroke="black" points="316.323,-0 316.323,-20 405.677,-20 405.677,-0 316.323,-0"/>
<text text-anchor="middle" x="361" y="-6" font-family="Helvetica,sans-Serif" font-size="10.00">AP_HAL::micros</text>
</a>
</g>
</g>
<!-- Node507&#45;&gt;Node510 -->
<g id="edge4" class="edge"><title>Node507&#45;&gt;Node510</title>
<path fill="none" stroke="midnightblue" d="M280.185,-20.832C288.721,-19.6736 297.455,-18.4883 305.866,-17.3467"/>
<polygon fill="midnightblue" stroke="midnightblue" points="306.493,-20.7939 315.931,-15.9808 305.551,-13.8574 306.493,-20.7939"/>
</g>
<!-- Node509 -->
<g id="node4" class="node"><title>Node509</title>
<g id="a_node4"><a xlink:href="hrt_8c.html#a1295f128f60d29874243b5733c4db025" target="_top" xlink:title=" ">
<polygon fill="white" stroke="black" points="445.714,-39 445.714,-59 512.286,-59 512.286,-39 445.714,-39"/>
<text text-anchor="middle" x="479" y="-45" font-family="Helvetica,sans-Serif" font-size="10.00">hrt_millis32</text>
</a>
</g>
</g>
<!-- Node508&#45;&gt;Node509 -->
<g id="edge3" class="edge"><title>Node508&#45;&gt;Node509</title>
<path fill="none" stroke="midnightblue" d="M402.246,-49C412.957,-49 424.562,-49 435.395,-49"/>
<polygon fill="midnightblue" stroke="midnightblue" points="435.49,-52.5001 445.49,-49 435.49,-45.5001 435.49,-52.5001"/>
</g>
<!-- Node511 -->
<g id="node6" class="node"><title>Node511</title>
<g id="a_node6"><a xlink:href="hrt_8c.html#aaec580bcdf1351b82110305f0f6dd437" target="_top" xlink:title=" ">
<polygon fill="white" stroke="black" points="442.101,-0 442.101,-20 515.899,-20 515.899,-0 442.101,-0"/>
<text text-anchor="middle" x="479" y="-6" font-family="Helvetica,sans-Serif" font-size="10.00">hrt_micros32</text>
</a>
</g>
</g>
<!-- Node510&#45;&gt;Node511 -->
<g id="edge5" class="edge"><title>Node510&#45;&gt;Node511</title>
<path fill="none" stroke="midnightblue" d="M405.855,-10C414.339,-10 423.253,-10 431.809,-10"/>
<polygon fill="midnightblue" stroke="midnightblue" points="432.015,-13.5001 442.015,-10 432.014,-6.5001 432.015,-13.5001"/>
</g>
</g>
</svg>
