<?xml version="1.0" encoding="UTF-8" standalone="no"?>
<!DOCTYPE svg PUBLIC "-//W3C//DTD SVG 1.1//EN"
 "http://www.w3.org/Graphics/SVG/1.1/DTD/svg11.dtd">
<!-- Generated by graphviz version 2.30.1 (20130221.2233)
 -->
<!-- Title: SITL::Aircraft::get_attitude Pages: 1 -->
<svg width="268pt" height="40pt"
 viewBox="0.00 0.00 268.00 40.00" xmlns="http://www.w3.org/2000/svg" xmlns:xlink="http://www.w3.org/1999/xlink">
<g id="graph0" class="graph" transform="scale(1 1) rotate(0) translate(4 36)">
<title>SITL::Aircraft::get_attitude</title>
<polygon fill="white" stroke="white" points="-4,5 -4,-36 265,-36 265,5 -4,5"/>
<!-- Node173 -->
<g id="node1" class="node"><title>Node173</title>
<g id="a_node1"><a xlink:title=" ">
<polygon fill="#bfbfbf" stroke="black" points="0.0986328,-0 0.0986328,-32 93.9014,-32 93.9014,-0 0.0986328,-0"/>
<text text-anchor="start" x="8.09863" y="-18" font-family="Helvetica,sans-Serif" font-size="10.00">SITL::Aircraft::get</text>
<text text-anchor="middle" x="47" y="-6" font-family="Helvetica,sans-Serif" font-size="10.00">_attitude</text>
</a>
</g>
</g>
<!-- Node174 -->
<g id="node2" class="node"><title>Node174</title>
<g id="a_node2"><a xlink:href="classQuaternion.html#a5ee01ee833114be6181887d0dcfb33b1" target="_top" xlink:title=" ">
<polygon fill="white" stroke="black" points="130.025,-0 130.025,-32 259.975,-32 259.975,-0 130.025,-0"/>
<text text-anchor="start" x="138.025" y="-18" font-family="Helvetica,sans-Serif" font-size="10.00">Quaternion::from_rotation</text>
<text text-anchor="middle" x="195" y="-6" font-family="Helvetica,sans-Serif" font-size="10.00">_matrix</text>
</a>
</g>
</g>
<!-- Node173&#45;&gt;Node174 -->
<g id="edge1" class="edge"><title>Node173&#45;&gt;Node174</title>
<path fill="none" stroke="midnightblue" d="M94.1953,-16C102.362,-16 111.047,-16 119.757,-16"/>
<polygon fill="midnightblue" stroke="midnightblue" points="119.962,-19.5001 129.962,-16 119.962,-12.5001 119.962,-19.5001"/>
</g>
</g>
</svg>
