<?xml version="1.0" encoding="UTF-8" standalone="no"?>
<!DOCTYPE svg PUBLIC "-//W3C//DTD SVG 1.1//EN"
 "http://www.w3.org/Graphics/SVG/1.1/DTD/svg11.dtd">
<!-- Generated by graphviz version 2.30.1 (20130221.2233)
 -->
<!-- Title: AP_WheelRateControl::get_rate_max_rads Pages: 1 -->
<svg width="280pt" height="52pt"
 viewBox="0.00 0.00 280.00 52.00" xmlns="http://www.w3.org/2000/svg" xmlns:xlink="http://www.w3.org/1999/xlink">
<g id="graph0" class="graph" transform="scale(1 1) rotate(0) translate(4 48)">
<title>AP_WheelRateControl::get_rate_max_rads</title>
<polygon fill="white" stroke="white" points="-4,5 -4,-48 277,-48 277,5 -4,5"/>
<!-- Node39 -->
<g id="node1" class="node"><title>Node39</title>
<g id="a_node1"><a xlink:title=" ">
<polygon fill="#bfbfbf" stroke="black" points="154.697,-6 154.697,-38 271.303,-38 271.303,-6 154.697,-6"/>
<text text-anchor="start" x="162.697" y="-24" font-family="Helvetica,sans-Serif" font-size="10.00">AP_WheelRateControl</text>
<text text-anchor="middle" x="213" y="-12" font-family="Helvetica,sans-Serif" font-size="10.00">::get_rate_max_rads</text>
</a>
</g>
</g>
<!-- Node40 -->
<g id="node2" class="node"><title>Node40</title>
<g id="a_node2"><a xlink:href="classAP__WheelRateControl.html#aa11e56bbe3141ebf5acdae6cb885f2b7" target="_top" xlink:title=" ">
<polygon fill="white" stroke="black" points="0.697266,-0 0.697266,-44 117.303,-44 117.303,-0 0.697266,-0"/>
<text text-anchor="start" x="8.69727" y="-30" font-family="Helvetica,sans-Serif" font-size="10.00">AP_WheelRateControl</text>
<text text-anchor="start" x="8.69727" y="-18" font-family="Helvetica,sans-Serif" font-size="10.00">::get_rate_controlled</text>
<text text-anchor="middle" x="59" y="-6" font-family="Helvetica,sans-Serif" font-size="10.00">_throttle</text>
</a>
</g>
</g>
<!-- Node39&#45;&gt;Node40 -->
<g id="edge1" class="edge"><title>Node39&#45;&gt;Node40</title>
<path fill="none" stroke="midnightblue" d="M144.482,-22C135.493,-22 126.344,-22 117.546,-22"/>
<polygon fill="midnightblue" stroke="midnightblue" points="144.535,-25.5001 154.535,-22 144.535,-18.5001 144.535,-25.5001"/>
</g>
</g>
</svg>
