<?xml version="1.0" encoding="UTF-8" standalone="no"?>
<!DOCTYPE svg PUBLIC "-//W3C//DTD SVG 1.1//EN"
 "http://www.w3.org/Graphics/SVG/1.1/DTD/svg11.dtd">
<!-- Generated by graphviz version 2.30.1 (20130221.2233)
 -->
<!-- Title: AP_Proximity::get_singleton Pages: 1 -->
<svg width="2326pt" height="406pt"
 viewBox="0.00 0.00 2326.00 406.00" xmlns="http://www.w3.org/2000/svg" xmlns:xlink="http://www.w3.org/1999/xlink">
<g id="graph0" class="graph" transform="scale(1 1) rotate(0) translate(4 402)">
<title>AP_Proximity::get_singleton</title>
<polygon fill="white" stroke="white" points="-4,5 -4,-402 2323,-402 2323,5 -4,5"/>
<!-- Node180 -->
<g id="node1" class="node"><title>Node180</title>
<g id="a_node1"><a xlink:title=" ">
<polygon fill="#bfbfbf" stroke="black" points="2176.47,-121 2176.47,-141 2317.53,-141 2317.53,-121 2176.47,-121"/>
<text text-anchor="middle" x="2247" y="-127" font-family="Helvetica,sans-Serif" font-size="10.00">AP_Proximity::get_singleton</text>
</a>
</g>
</g>
<!-- Node181 -->
<g id="node2" class="node"><title>Node181</title>
<g id="a_node2"><a xlink:href="classAP__OABendyRuler.html#ac4029bd72b5622da50854e6973577b2c" target="_top" xlink:title=" ">
<polygon fill="white" stroke="black" points="2014.53,-292 2014.53,-336 2139.47,-336 2139.47,-292 2014.53,-292"/>
<text text-anchor="start" x="2022.53" y="-322" font-family="Helvetica,sans-Serif" font-size="10.00">AP_OABendyRuler::calc</text>
<text text-anchor="start" x="2022.53" y="-310" font-family="Helvetica,sans-Serif" font-size="10.00">_margin_from_proximity</text>
<text text-anchor="middle" x="2077" y="-298" font-family="Helvetica,sans-Serif" font-size="10.00">_sensors</text>
</a>
</g>
</g>
<!-- Node180&#45;&gt;Node181 -->
<g id="edge1" class="edge"><title>Node180&#45;&gt;Node181</title>
<path fill="none" stroke="midnightblue" d="M2229.71,-148.743C2198.9,-182.302 2132.17,-254.996 2098.42,-291.756"/>
<polygon fill="midnightblue" stroke="midnightblue" points="2232.54,-150.833 2236.73,-141.1 2227.39,-146.099 2232.54,-150.833"/>
</g>
<!-- Node187 -->
<g id="node8" class="node"><title>Node187</title>
<g id="a_node8"><a xlink:href="namespaceAP.html#a8b4b4424addfab0bbe9a7290107af2d7" target="_top" xlink:title=" ">
<polygon fill="white" stroke="black" points="2039.55,-163 2039.55,-183 2114.45,-183 2114.45,-163 2039.55,-163"/>
<text text-anchor="middle" x="2077" y="-169" font-family="Helvetica,sans-Serif" font-size="10.00">AP::proximity</text>
</a>
</g>
</g>
<!-- Node180&#45;&gt;Node187 -->
<g id="edge7" class="edge"><title>Node180&#45;&gt;Node187</title>
<path fill="none" stroke="midnightblue" d="M2196.01,-143.497C2169.83,-150.043 2138.34,-157.916 2114.47,-163.881"/>
<polygon fill="midnightblue" stroke="midnightblue" points="2196.91,-146.881 2205.76,-141.06 2195.21,-140.09 2196.91,-146.881"/>
</g>
<!-- Node209 -->
<g id="node30" class="node"><title>Node209</title>
<g id="a_node30"><a xlink:href="structGCS__MAVLINK.html#a721836da33de06f2dc29f5331dd8157a" target="_top" xlink:title=" ">
<polygon fill="white" stroke="black" points="1625.78,-51 1625.78,-83 1782.22,-83 1782.22,-51 1625.78,-51"/>
<text text-anchor="start" x="1633.78" y="-69" font-family="Helvetica,sans-Serif" font-size="10.00">GCS_MAVLINK::send_distance</text>
<text text-anchor="middle" x="1704" y="-57" font-family="Helvetica,sans-Serif" font-size="10.00">_sensor</text>
</a>
</g>
</g>
<!-- Node180&#45;&gt;Node209 -->
<g id="edge58" class="edge"><title>Node180&#45;&gt;Node209</title>
<path fill="none" stroke="midnightblue" d="M2215.95,-116.67C2195.01,-107.072 2166.22,-94.6567 2140,-86 2003.11,-40.8093 1961.6,-34.3896 1818,-47 1806.39,-48.0195 1794.18,-49.6175 1782.26,-51.4763"/>
<polygon fill="midnightblue" stroke="midnightblue" points="2214.73,-119.961 2225.28,-120.992 2217.68,-113.61 2214.73,-119.961"/>
</g>
<!-- Node234 -->
<g id="node55" class="node"><title>Node234</title>
<g id="a_node55"><a xlink:href="structGCS__MAVLINK.html#a45867a6e13476ac2f00b73cdeea93fce" target="_top" xlink:title=" ">
<polygon fill="white" stroke="black" points="1818.4,-57 1818.4,-77 1977.6,-77 1977.6,-57 1818.4,-57"/>
<text text-anchor="middle" x="1898" y="-63" font-family="Helvetica,sans-Serif" font-size="10.00">GCS_MAVLINK::send_proximity</text>
</a>
</g>
</g>
<!-- Node180&#45;&gt;Node234 -->
<g id="edge59" class="edge"><title>Node180&#45;&gt;Node234</title>
<path fill="none" stroke="midnightblue" d="M2181.16,-119.042C2115.45,-106.922 2014.93,-88.3813 1953.28,-77.0117"/>
<polygon fill="midnightblue" stroke="midnightblue" points="2180.93,-122.558 2191.4,-120.93 2182.2,-115.674 2180.93,-122.558"/>
</g>
<!-- Node182 -->
<g id="node3" class="node"><title>Node182</title>
<g id="a_node3"><a xlink:href="classAP__OABendyRuler.html#aa3d52aad36ec27fc841b3b4000e99515" target="_top" xlink:title=" ">
<polygon fill="white" stroke="black" points="1835.53,-366 1835.53,-398 1960.47,-398 1960.47,-366 1835.53,-366"/>
<text text-anchor="start" x="1843.53" y="-384" font-family="Helvetica,sans-Serif" font-size="10.00">AP_OABendyRuler::calc</text>
<text text-anchor="middle" x="1898" y="-372" font-family="Helvetica,sans-Serif" font-size="10.00">_avoidance_margin</text>
</a>
</g>
</g>
<!-- Node181&#45;&gt;Node182 -->
<g id="edge2" class="edge"><title>Node181&#45;&gt;Node182</title>
<path fill="none" stroke="midnightblue" d="M2017.49,-340.061C2004.57,-345.539 1990.89,-351.128 1978,-356 1969.09,-359.37 1959.52,-362.73 1950.22,-365.862"/>
<polygon fill="midnightblue" stroke="midnightblue" points="2018.92,-343.254 2026.74,-336.103 2016.17,-336.818 2018.92,-343.254"/>
</g>
<!-- Node183 -->
<g id="node4" class="node"><title>Node183</title>
<g id="a_node4"><a xlink:href="classAP__OABendyRuler.html#ae02132964ba26e110dc8f01fd13b4cf8" target="_top" xlink:title=" ">
<polygon fill="white" stroke="black" points="1635.13,-372 1635.13,-392 1772.87,-392 1772.87,-372 1635.13,-372"/>
<text text-anchor="middle" x="1704" y="-378" font-family="Helvetica,sans-Serif" font-size="10.00">AP_OABendyRuler::update</text>
</a>
</g>
</g>
<!-- Node182&#45;&gt;Node183 -->
<g id="edge3" class="edge"><title>Node182&#45;&gt;Node183</title>
<path fill="none" stroke="midnightblue" d="M1825.04,-382C1808.05,-382 1789.99,-382 1773.18,-382"/>
<polygon fill="midnightblue" stroke="midnightblue" points="1825.46,-385.5 1835.46,-382 1825.46,-378.5 1825.46,-385.5"/>
</g>
<!-- Node184 -->
<g id="node5" class="node"><title>Node184</title>
<g id="a_node5"><a xlink:href="classAP__OAPathPlanner.html#ace6c764d50b35454e6c82d6475ad9c1c" target="_top" xlink:title=" ">
<polygon fill="white" stroke="black" points="1434.23,-366 1434.23,-398 1589.77,-398 1589.77,-366 1434.23,-366"/>
<text text-anchor="start" x="1442.23" y="-384" font-family="Helvetica,sans-Serif" font-size="10.00">AP_OAPathPlanner::avoidance</text>
<text text-anchor="middle" x="1512" y="-372" font-family="Helvetica,sans-Serif" font-size="10.00">_thread</text>
</a>
</g>
</g>
<!-- Node183&#45;&gt;Node184 -->
<g id="edge4" class="edge"><title>Node183&#45;&gt;Node184</title>
<path fill="none" stroke="midnightblue" d="M1624.9,-382C1613.36,-382 1601.47,-382 1589.95,-382"/>
<polygon fill="midnightblue" stroke="midnightblue" points="1624.94,-385.5 1634.94,-382 1624.94,-378.5 1624.94,-385.5"/>
</g>
<!-- Node185 -->
<g id="node6" class="node"><title>Node185</title>
<g id="a_node6"><a xlink:href="classAP__OAPathPlanner.html#a66d8137be6e55f005e9d0bdf33cb7b63" target="_top" xlink:title=" ">
<polygon fill="white" stroke="black" points="1248.08,-366 1248.08,-398 1391.92,-398 1391.92,-366 1248.08,-366"/>
<text text-anchor="start" x="1256.08" y="-384" font-family="Helvetica,sans-Serif" font-size="10.00">AP_OAPathPlanner::mission</text>
<text text-anchor="middle" x="1320" y="-372" font-family="Helvetica,sans-Serif" font-size="10.00">_avoidance</text>
</a>
</g>
</g>
<!-- Node184&#45;&gt;Node185 -->
<g id="edge5" class="edge"><title>Node184&#45;&gt;Node185</title>
<path fill="none" stroke="midnightblue" d="M1423.83,-382C1413.16,-382 1402.37,-382 1391.98,-382"/>
<polygon fill="midnightblue" stroke="midnightblue" points="1423.99,-385.5 1433.99,-382 1423.99,-378.5 1423.99,-385.5"/>
</g>
<!-- Node186 -->
<g id="node7" class="node"><title>Node186</title>
<g id="a_node7"><a xlink:href="classAR__WPNav.html#a537e00d4cacfe212829be555575c66f4" target="_top" xlink:title=" ">
<polygon fill="white" stroke="black" points="1078.26,-372 1078.26,-392 1183.74,-392 1183.74,-372 1078.26,-372"/>
<text text-anchor="middle" x="1131" y="-378" font-family="Helvetica,sans-Serif" font-size="10.00">AR_WPNav::update</text>
</a>
</g>
</g>
<!-- Node185&#45;&gt;Node186 -->
<g id="edge6" class="edge"><title>Node185&#45;&gt;Node186</title>
<path fill="none" stroke="midnightblue" d="M1237.96,-382C1219.66,-382 1200.71,-382 1183.99,-382"/>
<polygon fill="midnightblue" stroke="midnightblue" points="1238.04,-385.5 1248.04,-382 1238.04,-378.5 1238.04,-385.5"/>
</g>
<!-- Node188 -->
<g id="node9" class="node"><title>Node188</title>
<g id="a_node9"><a xlink:href="classAC__Avoid.html#a348c8cc6d8b28e21813bf08586f3306a" target="_top" xlink:title=" ">
<polygon fill="white" stroke="black" points="1827,-186 1827,-206 1969,-206 1969,-186 1827,-186"/>
<text text-anchor="middle" x="1898" y="-192" font-family="Helvetica,sans-Serif" font-size="10.00">AC_Avoid::adjust_velocity_z</text>
</a>
</g>
</g>
<!-- Node187&#45;&gt;Node188 -->
<g id="edge8" class="edge"><title>Node187&#45;&gt;Node188</title>
<path fill="none" stroke="midnightblue" d="M2029.2,-179.082C2010.84,-181.467 1989.39,-184.254 1969.26,-186.871"/>
<polygon fill="midnightblue" stroke="midnightblue" points="2029.86,-182.525 2039.33,-177.766 2028.96,-175.583 2029.86,-182.525"/>
</g>
<!-- Node189 -->
<g id="node10" class="node"><title>Node189</title>
<g id="a_node10"><a xlink:href="classAC__Avoid.html#adb802bb7a211c69417391b59edd7fbe3" target="_top" xlink:title=" ">
<polygon fill="white" stroke="black" points="1832.28,-225 1832.28,-257 1963.72,-257 1963.72,-225 1832.28,-225"/>
<text text-anchor="start" x="1840.28" y="-243" font-family="Helvetica,sans-Serif" font-size="10.00">AC_Avoid::adjust_velocity</text>
<text text-anchor="middle" x="1898" y="-231" font-family="Helvetica,sans-Serif" font-size="10.00">_proximity</text>
</a>
</g>
</g>
<!-- Node187&#45;&gt;Node189 -->
<g id="edge9" class="edge"><title>Node187&#45;&gt;Node189</title>
<path fill="none" stroke="midnightblue" d="M2044.9,-187.151C2025.77,-195.647 2000.66,-206.433 1978,-215 1969.09,-218.37 1959.52,-221.73 1950.22,-224.862"/>
<polygon fill="midnightblue" stroke="midnightblue" points="2046.34,-190.34 2054.04,-183.062 2043.48,-183.95 2046.34,-190.34"/>
</g>
<!-- Node195 -->
<g id="node16" class="node"><title>Node195</title>
<g id="a_node16"><a xlink:href="classAC__Avoid.html#ad27740aa416a455958dcdc914a2be63e" target="_top" xlink:title=" ">
<polygon fill="white" stroke="black" points="1835.34,-135 1835.34,-167 1960.66,-167 1960.66,-135 1835.34,-135"/>
<text text-anchor="start" x="1843.34" y="-153" font-family="Helvetica,sans-Serif" font-size="10.00">AC_Avoid::get_proximity</text>
<text text-anchor="middle" x="1898" y="-141" font-family="Helvetica,sans-Serif" font-size="10.00">_roll_pitch_pct</text>
</a>
</g>
</g>
<!-- Node187&#45;&gt;Node195 -->
<g id="edge15" class="edge"><title>Node187&#45;&gt;Node195</title>
<path fill="none" stroke="midnightblue" d="M2029.37,-167.204C2008.36,-164.593 1983.26,-161.473 1960.72,-158.671"/>
<polygon fill="midnightblue" stroke="midnightblue" points="2028.97,-170.681 2039.33,-168.442 2029.83,-163.735 2028.97,-170.681"/>
</g>
<!-- Node197 -->
<g id="node18" class="node"><title>Node197</title>
<g id="a_node18"><a xlink:href="classAP__Arming.html#ac828a7e5c6bb45e1eed5ad71186a93d7" target="_top" xlink:title=" ">
<polygon fill="white" stroke="black" points="1841.93,-315 1841.93,-347 1954.07,-347 1954.07,-315 1841.93,-315"/>
<text text-anchor="start" x="1849.93" y="-333" font-family="Helvetica,sans-Serif" font-size="10.00">AP_Arming::proximity</text>
<text text-anchor="middle" x="1898" y="-321" font-family="Helvetica,sans-Serif" font-size="10.00">_checks</text>
</a>
</g>
</g>
<!-- Node187&#45;&gt;Node197 -->
<g id="edge17" class="edge"><title>Node187&#45;&gt;Node197</title>
<path fill="none" stroke="midnightblue" d="M2066.63,-192.287C2051.74,-220.953 2020.03,-274.672 1978,-305 1970.86,-310.154 1962.63,-314.328 1954.25,-317.696"/>
<polygon fill="midnightblue" stroke="midnightblue" points="2069.8,-193.775 2071.18,-183.271 2063.55,-190.62 2069.8,-193.775"/>
</g>
<!-- Node208 -->
<g id="node29" class="node"><title>Node208</title>
<g id="a_node29"><a xlink:href="classAP__Logger.html#a7c0f1c94759ad85749b7d3dab3ce4ae8" target="_top" xlink:title=" ">
<polygon fill="white" stroke="black" points="1827.29,-276 1827.29,-296 1968.71,-296 1968.71,-276 1827.29,-276"/>
<text text-anchor="middle" x="1898" y="-282" font-family="Helvetica,sans-Serif" font-size="10.00">AP_Logger::Write_Proximity</text>
</a>
</g>
</g>
<!-- Node187&#45;&gt;Node208 -->
<g id="edge28" class="edge"><title>Node187&#45;&gt;Node208</title>
<path fill="none" stroke="midnightblue" d="M2061.96,-191.059C2044.54,-212.212 2012.85,-246.8 1978,-266 1970.57,-270.096 1962.28,-273.371 1953.94,-275.985"/>
<polygon fill="midnightblue" stroke="midnightblue" points="2064.78,-193.141 2068.32,-183.156 2059.32,-188.753 2064.78,-193.141"/>
</g>
<!-- Node187&#45;&gt;Node209 -->
<g id="edge29" class="edge"><title>Node187&#45;&gt;Node209</title>
<path fill="none" stroke="midnightblue" d="M2050.05,-158.099C2030.72,-147.547 2003.39,-133.766 1978,-125 1942.5,-112.747 1849.91,-94.0689 1782.38,-81.2384"/>
<polygon fill="midnightblue" stroke="midnightblue" points="2048.41,-161.192 2058.86,-162.983 2051.81,-155.071 2048.41,-161.192"/>
</g>
<!-- Node187&#45;&gt;Node234 -->
<g id="edge56" class="edge"><title>Node187&#45;&gt;Node234</title>
<path fill="none" stroke="midnightblue" d="M2059.32,-155.718C2040.93,-137.555 2009.72,-109.271 1978,-92 1966.63,-85.8088 1953.49,-80.8809 1941.23,-77.0932"/>
<polygon fill="midnightblue" stroke="midnightblue" points="2056.85,-158.197 2066.38,-162.821 2061.81,-153.261 2056.85,-158.197"/>
</g>
<!-- Node190 -->
<g id="node11" class="node"><title>Node190</title>
<g id="a_node11"><a xlink:href="classAC__Avoid.html#a01d83151f44d23a5726ff39635f0f868" target="_top" xlink:title=" ">
<polygon fill="white" stroke="black" points="1638.28,-231 1638.28,-251 1769.72,-251 1769.72,-231 1638.28,-231"/>
<text text-anchor="middle" x="1704" y="-237" font-family="Helvetica,sans-Serif" font-size="10.00">AC_Avoid::adjust_velocity</text>
</a>
</g>
</g>
<!-- Node189&#45;&gt;Node190 -->
<g id="edge10" class="edge"><title>Node189&#45;&gt;Node190</title>
<path fill="none" stroke="midnightblue" d="M1822.2,-241C1804.9,-241 1786.62,-241 1769.78,-241"/>
<polygon fill="midnightblue" stroke="midnightblue" points="1822.27,-244.5 1832.27,-241 1822.27,-237.5 1822.27,-244.5"/>
</g>
<!-- Node191 -->
<g id="node12" class="node"><title>Node191</title>
<g id="a_node12"><a xlink:href="classAC__Avoid.html#adf44b8b238014ae3c9993326c90a75bb" target="_top" xlink:title=" ">
<polygon fill="white" stroke="black" points="1449.33,-186 1449.33,-206 1574.67,-206 1574.67,-186 1449.33,-186"/>
<text text-anchor="middle" x="1512" y="-192" font-family="Helvetica,sans-Serif" font-size="10.00">AC_Avoid::adjust_speed</text>
</a>
</g>
</g>
<!-- Node190&#45;&gt;Node191 -->
<g id="edge11" class="edge"><title>Node190&#45;&gt;Node191</title>
<path fill="none" stroke="midnightblue" d="M1650.51,-228.568C1620.59,-221.481 1583.58,-212.716 1555.5,-206.065"/>
<polygon fill="midnightblue" stroke="midnightblue" points="1649.82,-232.002 1660.36,-230.901 1651.44,-225.191 1649.82,-232.002"/>
</g>
<!-- Node192 -->
<g id="node13" class="node"><title>Node192</title>
<g id="a_node13"><a xlink:href="classAC__Avoid.html#a217199bf4005cbf42542bf94c59c9369" target="_top" xlink:title=" ">
<polygon fill="white" stroke="black" points="1446.28,-276 1446.28,-296 1577.72,-296 1577.72,-276 1446.28,-276"/>
<text text-anchor="middle" x="1512" y="-282" font-family="Helvetica,sans-Serif" font-size="10.00">AC_Avoid::adjust_velocity</text>
</a>
</g>
</g>
<!-- Node190&#45;&gt;Node192 -->
<g id="edge12" class="edge"><title>Node190&#45;&gt;Node192</title>
<path fill="none" stroke="midnightblue" d="M1650.51,-253.432C1620.59,-260.519 1583.58,-269.284 1555.5,-275.935"/>
<polygon fill="midnightblue" stroke="midnightblue" points="1651.44,-256.809 1660.36,-251.099 1649.82,-249.998 1651.44,-256.809"/>
</g>
<!-- Node193 -->
<g id="node14" class="node"><title>Node193</title>
<g id="a_node14"><a xlink:href="classAC__Loiter.html#a5a2f3d8bb29a6cf03ea900e24dae2b75" target="_top" xlink:title=" ">
<polygon fill="white" stroke="black" points="1450.92,-225 1450.92,-257 1573.08,-257 1573.08,-225 1450.92,-225"/>
<text text-anchor="start" x="1458.92" y="-243" font-family="Helvetica,sans-Serif" font-size="10.00">AC_Loiter::calc_desired</text>
<text text-anchor="middle" x="1512" y="-231" font-family="Helvetica,sans-Serif" font-size="10.00">_velocity</text>
</a>
</g>
</g>
<!-- Node190&#45;&gt;Node193 -->
<g id="edge13" class="edge"><title>Node190&#45;&gt;Node193</title>
<path fill="none" stroke="midnightblue" d="M1628.12,-241C1609.86,-241 1590.56,-241 1573.09,-241"/>
<polygon fill="midnightblue" stroke="midnightblue" points="1628.14,-244.5 1638.14,-241 1628.14,-237.5 1628.14,-244.5"/>
</g>
<!-- Node194 -->
<g id="node15" class="node"><title>Node194</title>
<g id="a_node15"><a xlink:href="classAC__Loiter.html#ad73abbc1c7fcefbb9d18bac3b1fe4444" target="_top" xlink:title="run the loiter controller">
<polygon fill="white" stroke="black" points="1271.69,-231 1271.69,-251 1368.31,-251 1368.31,-231 1271.69,-231"/>
<text text-anchor="middle" x="1320" y="-237" font-family="Helvetica,sans-Serif" font-size="10.00">AC_Loiter::update</text>
</a>
</g>
</g>
<!-- Node193&#45;&gt;Node194 -->
<g id="edge14" class="edge"><title>Node193&#45;&gt;Node194</title>
<path fill="none" stroke="midnightblue" d="M1440.71,-241C1416.62,-241 1390.24,-241 1368.39,-241"/>
<polygon fill="midnightblue" stroke="midnightblue" points="1440.88,-244.5 1450.88,-241 1440.88,-237.5 1440.88,-244.5"/>
</g>
<!-- Node196 -->
<g id="node17" class="node"><title>Node196</title>
<g id="a_node17"><a xlink:href="classAC__Avoid.html#a836fb856e23b46260cadd85665077ea8" target="_top" xlink:title=" ">
<polygon fill="white" stroke="black" points="1648.29,-135 1648.29,-167 1759.71,-167 1759.71,-135 1648.29,-135"/>
<text text-anchor="start" x="1656.29" y="-153" font-family="Helvetica,sans-Serif" font-size="10.00">AC_Avoid::adjust_roll</text>
<text text-anchor="middle" x="1704" y="-141" font-family="Helvetica,sans-Serif" font-size="10.00">_pitch</text>
</a>
</g>
</g>
<!-- Node195&#45;&gt;Node196 -->
<g id="edge16" class="edge"><title>Node195&#45;&gt;Node196</title>
<path fill="none" stroke="midnightblue" d="M1825.09,-151C1803.5,-151 1780.18,-151 1759.88,-151"/>
<polygon fill="midnightblue" stroke="midnightblue" points="1825.19,-154.5 1835.19,-151 1825.19,-147.5 1825.19,-154.5"/>
</g>
<!-- Node198 -->
<g id="node19" class="node"><title>Node198</title>
<g id="a_node19"><a xlink:href="classAP__Arming.html#a73c03baf7f22b7124a2ac9e9286a850a" target="_top" xlink:title=" ">
<polygon fill="white" stroke="black" points="1649.32,-315 1649.32,-347 1758.68,-347 1758.68,-315 1649.32,-315"/>
<text text-anchor="start" x="1657.32" y="-333" font-family="Helvetica,sans-Serif" font-size="10.00">AP_Arming::pre_arm</text>
<text text-anchor="middle" x="1704" y="-321" font-family="Helvetica,sans-Serif" font-size="10.00">_checks</text>
</a>
</g>
</g>
<!-- Node197&#45;&gt;Node198 -->
<g id="edge18" class="edge"><title>Node197&#45;&gt;Node198</title>
<path fill="none" stroke="midnightblue" d="M1831.43,-331C1807.8,-331 1781.42,-331 1758.89,-331"/>
<polygon fill="midnightblue" stroke="midnightblue" points="1831.72,-334.5 1841.72,-331 1831.72,-327.5 1831.72,-334.5"/>
</g>
<!-- Node199 -->
<g id="node20" class="node"><title>Node199</title>
<g id="a_node20"><a xlink:href="classAP__Arming.html#abeebfae7f8ef321308d6ca739c25d4f9" target="_top" xlink:title=" ">
<polygon fill="white" stroke="black" points="1467.32,-321 1467.32,-341 1556.68,-341 1556.68,-321 1467.32,-321"/>
<text text-anchor="middle" x="1512" y="-327" font-family="Helvetica,sans-Serif" font-size="10.00">AP_Arming::arm</text>
</a>
</g>
</g>
<!-- Node198&#45;&gt;Node199 -->
<g id="edge19" class="edge"><title>Node198&#45;&gt;Node199</title>
<path fill="none" stroke="midnightblue" d="M1638.92,-331C1611.92,-331 1581.18,-331 1556.84,-331"/>
<polygon fill="midnightblue" stroke="midnightblue" points="1639.06,-334.5 1649.06,-331 1639.06,-327.5 1639.06,-334.5"/>
</g>
<!-- Node200 -->
<g id="node21" class="node"><title>Node200</title>
<g id="a_node21"><a xlink:href="classRC__Channel.html#a070b1061842188951985a20f5d1a886f" target="_top" xlink:title=" ">
<polygon fill="white" stroke="black" points="1264.19,-315 1264.19,-347 1375.81,-347 1375.81,-315 1264.19,-315"/>
<text text-anchor="start" x="1272.19" y="-333" font-family="Helvetica,sans-Serif" font-size="10.00">RC_Channel::do_aux</text>
<text text-anchor="middle" x="1320" y="-321" font-family="Helvetica,sans-Serif" font-size="10.00">_function</text>
</a>
</g>
</g>
<!-- Node199&#45;&gt;Node200 -->
<g id="edge20" class="edge"><title>Node199&#45;&gt;Node200</title>
<path fill="none" stroke="midnightblue" d="M1456.78,-331C1431.49,-331 1401.44,-331 1376.05,-331"/>
<polygon fill="midnightblue" stroke="midnightblue" points="1456.93,-334.5 1466.93,-331 1456.93,-327.5 1456.93,-334.5"/>
</g>
<!-- Node201 -->
<g id="node22" class="node"><title>Node201</title>
<g id="a_node22"><a xlink:href="classRC__Channel.html#a1bc648b7400d7068721d275275f7927e" target="_top" xlink:title=" ">
<polygon fill="white" stroke="black" points="1074.36,-318 1074.36,-350 1187.64,-350 1187.64,-318 1074.36,-318"/>
<text text-anchor="start" x="1082.36" y="-336" font-family="Helvetica,sans-Serif" font-size="10.00">RC_Channel::init_aux</text>
<text text-anchor="middle" x="1131" y="-324" font-family="Helvetica,sans-Serif" font-size="10.00">_function</text>
</a>
</g>
</g>
<!-- Node200&#45;&gt;Node201 -->
<g id="edge21" class="edge"><title>Node200&#45;&gt;Node201</title>
<path fill="none" stroke="midnightblue" d="M1254.09,-332.041C1232.5,-332.388 1208.66,-332.77 1187.81,-333.105"/>
<polygon fill="midnightblue" stroke="midnightblue" points="1254.21,-335.54 1264.16,-331.88 1254.1,-328.541 1254.21,-335.54"/>
</g>
<!-- Node206 -->
<g id="node27" class="node"><title>Node206</title>
<g id="a_node27"><a xlink:href="classRC__Channel.html#aac5143b957916aec428b6bc79f29456d" target="_top" xlink:title=" ">
<polygon fill="white" stroke="black" points="1070.74,-279 1070.74,-299 1191.26,-299 1191.26,-279 1070.74,-279"/>
<text text-anchor="middle" x="1131" y="-285" font-family="Helvetica,sans-Serif" font-size="10.00">RC_Channel::read_aux</text>
</a>
</g>
</g>
<!-- Node200&#45;&gt;Node206 -->
<g id="edge26" class="edge"><title>Node200&#45;&gt;Node206</title>
<path fill="none" stroke="midnightblue" d="M1254.17,-316.44C1228.64,-310.704 1199.94,-304.259 1176.78,-299.057"/>
<polygon fill="midnightblue" stroke="midnightblue" points="1253.63,-319.906 1264.16,-318.682 1255.17,-313.076 1253.63,-319.906"/>
</g>
<!-- Node202 -->
<g id="node23" class="node"><title>Node202</title>
<g id="a_node23"><a xlink:href="classRC__Channel.html#a2e0ed24b88e1d47d9056bc8b6e28650f" target="_top" xlink:title=" ">
<polygon fill="white" stroke="black" points="892.36,-324 892.36,-344 1005.64,-344 1005.64,-324 892.36,-324"/>
<text text-anchor="middle" x="949" y="-330" font-family="Helvetica,sans-Serif" font-size="10.00">RC_Channel::init_aux</text>
</a>
</g>
</g>
<!-- Node201&#45;&gt;Node202 -->
<g id="edge22" class="edge"><title>Node201&#45;&gt;Node202</title>
<path fill="none" stroke="midnightblue" d="M1063.94,-334C1044.89,-334 1024.3,-334 1005.93,-334"/>
<polygon fill="midnightblue" stroke="midnightblue" points="1064.03,-337.5 1074.03,-334 1064.03,-330.5 1064.03,-337.5"/>
</g>
<!-- Node203 -->
<g id="node24" class="node"><title>Node203</title>
<g id="a_node24"><a xlink:href="classRC__Channels.html#a668ee11266919ed21cc542df61043cca" target="_top" xlink:title=" ">
<polygon fill="white" stroke="black" points="708.077,-324 708.077,-344 841.923,-344 841.923,-324 708.077,-324"/>
<text text-anchor="middle" x="775" y="-330" font-family="Helvetica,sans-Serif" font-size="10.00">RC_Channels::init_aux_all</text>
</a>
</g>
</g>
<!-- Node202&#45;&gt;Node203 -->
<g id="edge23" class="edge"><title>Node202&#45;&gt;Node203</title>
<path fill="none" stroke="midnightblue" d="M881.851,-334C868.797,-334 855.098,-334 842.047,-334"/>
<polygon fill="midnightblue" stroke="midnightblue" points="882.157,-337.5 892.157,-334 882.156,-330.5 882.157,-337.5"/>
</g>
<!-- Node204 -->
<g id="node25" class="node"><title>Node204</title>
<g id="a_node25"><a xlink:href="classRC__Channels.html#a41ac050f115225f84b06b97fb79ee56f" target="_top" xlink:title=" ">
<polygon fill="white" stroke="black" points="561.702,-324 561.702,-344 658.298,-344 658.298,-324 561.702,-324"/>
<text text-anchor="middle" x="610" y="-330" font-family="Helvetica,sans-Serif" font-size="10.00">RC_Channels::init</text>
</a>
</g>
</g>
<!-- Node203&#45;&gt;Node204 -->
<g id="edge24" class="edge"><title>Node203&#45;&gt;Node204</title>
<path fill="none" stroke="midnightblue" d="M697.63,-334C684.382,-334 670.952,-334 658.749,-334"/>
<polygon fill="midnightblue" stroke="midnightblue" points="697.702,-337.5 707.702,-334 697.702,-330.5 697.702,-337.5"/>
</g>
<!-- Node205 -->
<g id="node26" class="node"><title>Node205</title>
<g id="a_node26"><a xlink:href="AC__PID__test_8cpp.html#a4fc01d736fe50cf5b977f755b675f11d" target="_top" xlink:title=" ">
<polygon fill="white" stroke="black" points="429.769,-324 429.769,-344 470.231,-344 470.231,-324 429.769,-324"/>
<text text-anchor="middle" x="450" y="-330" font-family="Helvetica,sans-Serif" font-size="10.00">setup</text>
</a>
</g>
</g>
<!-- Node204&#45;&gt;Node205 -->
<g id="edge25" class="edge"><title>Node204&#45;&gt;Node205</title>
<path fill="none" stroke="midnightblue" d="M551.333,-334C522.907,-334 490.499,-334 470.394,-334"/>
<polygon fill="midnightblue" stroke="midnightblue" points="551.595,-337.5 561.595,-334 551.595,-330.5 551.595,-337.5"/>
</g>
<!-- Node207 -->
<g id="node28" class="node"><title>Node207</title>
<g id="a_node28"><a xlink:href="classRC__Channels.html#afce42af83fb4e3a19d56c330a99c59b5" target="_top" xlink:title=" ">
<polygon fill="white" stroke="black" points="878.461,-279 878.461,-299 1019.54,-299 1019.54,-279 878.461,-279"/>
<text text-anchor="middle" x="949" y="-285" font-family="Helvetica,sans-Serif" font-size="10.00">RC_Channels::read_aux_all</text>
</a>
</g>
</g>
<!-- Node206&#45;&gt;Node207 -->
<g id="edge27" class="edge"><title>Node206&#45;&gt;Node207</title>
<path fill="none" stroke="midnightblue" d="M1060.47,-289C1047.09,-289 1033.07,-289 1019.68,-289"/>
<polygon fill="midnightblue" stroke="midnightblue" points="1060.56,-292.5 1070.56,-289 1060.56,-285.5 1060.56,-292.5"/>
</g>
<!-- Node210 -->
<g id="node31" class="node"><title>Node210</title>
<g id="a_node31"><a xlink:href="structGCS__MAVLINK.html#a30034cdbd89bcfb86392411f9b5935db" target="_top" xlink:title=" ">
<polygon fill="white" stroke="black" points="1446.85,-51 1446.85,-83 1577.15,-83 1577.15,-51 1446.85,-51"/>
<text text-anchor="start" x="1454.85" y="-69" font-family="Helvetica,sans-Serif" font-size="10.00">GCS_MAVLINK::try_send</text>
<text text-anchor="middle" x="1512" y="-57" font-family="Helvetica,sans-Serif" font-size="10.00">_message</text>
</a>
</g>
</g>
<!-- Node209&#45;&gt;Node210 -->
<g id="edge30" class="edge"><title>Node209&#45;&gt;Node210</title>
<path fill="none" stroke="midnightblue" d="M1615.44,-67C1602.54,-67 1589.46,-67 1577.16,-67"/>
<polygon fill="midnightblue" stroke="midnightblue" points="1615.72,-70.5001 1625.72,-67 1615.72,-63.5001 1615.72,-70.5001"/>
</g>
<!-- Node211 -->
<g id="node32" class="node"><title>Node211</title>
<g id="a_node32"><a xlink:href="structGCS__MAVLINK.html#ae94077536892270b4a40e5bcddb1c2f9" target="_top" xlink:title=" ">
<polygon fill="white" stroke="black" points="1260.13,-102 1260.13,-134 1379.87,-134 1379.87,-102 1260.13,-102"/>
<text text-anchor="start" x="1268.13" y="-120" font-family="Helvetica,sans-Serif" font-size="10.00">GCS_MAVLINK::do_try</text>
<text text-anchor="middle" x="1320" y="-108" font-family="Helvetica,sans-Serif" font-size="10.00">_send_message</text>
</a>
</g>
</g>
<!-- Node210&#45;&gt;Node211 -->
<g id="edge31" class="edge"><title>Node210&#45;&gt;Node211</title>
<path fill="none" stroke="midnightblue" d="M1441.38,-85.6862C1421.2,-91.1042 1399.37,-96.965 1379.9,-102.189"/>
<polygon fill="midnightblue" stroke="midnightblue" points="1442.39,-89.0396 1451.14,-83.0667 1440.58,-82.2789 1442.39,-89.0396"/>
</g>
<!-- Node228 -->
<g id="node49" class="node"><title>Node228</title>
<g id="a_node49"><a xlink:href="structGCS__MAVLINK.html#af12f472c624f3c0735b082c982e7ec42" target="_top" xlink:title=" ">
<polygon fill="white" stroke="black" points="1257.9,-0 1257.9,-32 1382.1,-32 1382.1,-0 1257.9,-0"/>
<text text-anchor="start" x="1265.9" y="-18" font-family="Helvetica,sans-Serif" font-size="10.00">GCS_MAVLINK::set_ekf</text>
<text text-anchor="middle" x="1320" y="-6" font-family="Helvetica,sans-Serif" font-size="10.00">_origin</text>
</a>
</g>
</g>
<!-- Node210&#45;&gt;Node228 -->
<g id="edge49" class="edge"><title>Node210&#45;&gt;Node228</title>
<path fill="none" stroke="midnightblue" d="M1441.26,-48.2792C1421.44,-42.9614 1400.05,-37.2194 1380.88,-32.0736"/>
<polygon fill="midnightblue" stroke="midnightblue" points="1440.58,-51.7211 1451.14,-50.9333 1442.39,-44.9604 1440.58,-51.7211"/>
</g>
<!-- Node231 -->
<g id="node52" class="node"><title>Node231</title>
<g id="a_node52"><a xlink:href="structGCS__MAVLINK.html#a256bd83477e0d72b40300bf1d7207750" target="_top" xlink:title=" ">
<polygon fill="white" stroke="black" points="1242.23,-51 1242.23,-83 1397.77,-83 1397.77,-51 1242.23,-51"/>
<text text-anchor="start" x="1250.23" y="-69" font-family="Helvetica,sans-Serif" font-size="10.00">GCS_MAVLINK::handle</text>
<text text-anchor="middle" x="1320" y="-57" font-family="Helvetica,sans-Serif" font-size="10.00">_command_get_home_position</text>
</a>
</g>
</g>
<!-- Node210&#45;&gt;Node231 -->
<g id="edge52" class="edge"><title>Node210&#45;&gt;Node231</title>
<path fill="none" stroke="midnightblue" d="M1436.65,-67C1423.99,-67 1410.81,-67 1398.08,-67"/>
<polygon fill="midnightblue" stroke="midnightblue" points="1436.67,-70.5001 1446.67,-67 1436.67,-63.5001 1436.67,-70.5001"/>
</g>
<!-- Node212 -->
<g id="node33" class="node"><title>Node212</title>
<g id="a_node33"><a xlink:href="structGCS__MAVLINK.html#a97b3a94ebc165ee34ee93b26e2dee23d" target="_top" xlink:title=" ">
<polygon fill="white" stroke="black" points="1056.11,-108 1056.11,-128 1205.89,-128 1205.89,-108 1056.11,-108"/>
<text text-anchor="middle" x="1131" y="-114" font-family="Helvetica,sans-Serif" font-size="10.00">GCS_MAVLINK::update_send</text>
</a>
</g>
</g>
<!-- Node211&#45;&gt;Node212 -->
<g id="edge32" class="edge"><title>Node211&#45;&gt;Node212</title>
<path fill="none" stroke="midnightblue" d="M1249.87,-118C1235.6,-118 1220.52,-118 1206.09,-118"/>
<polygon fill="midnightblue" stroke="midnightblue" points="1250.09,-121.5 1260.09,-118 1250.09,-114.5 1250.09,-121.5"/>
</g>
<!-- Node213 -->
<g id="node34" class="node"><title>Node213</title>
<g id="a_node34"><a xlink:href="classGCS.html#a07a8ce284513a8ce8336b085d0b8aadf" target="_top" xlink:title=" ">
<polygon fill="white" stroke="black" points="898.471,-108 898.471,-128 999.529,-128 999.529,-108 898.471,-108"/>
<text text-anchor="middle" x="949" y="-114" font-family="Helvetica,sans-Serif" font-size="10.00">GCS::update_send</text>
</a>
</g>
</g>
<!-- Node212&#45;&gt;Node213 -->
<g id="edge33" class="edge"><title>Node212&#45;&gt;Node213</title>
<path fill="none" stroke="midnightblue" d="M1045.69,-118C1029.9,-118 1013.88,-118 999.578,-118"/>
<polygon fill="midnightblue" stroke="midnightblue" points="1046.01,-121.5 1056.01,-118 1046.01,-114.5 1046.01,-121.5"/>
</g>
<!-- Node214 -->
<g id="node35" class="node"><title>Node214</title>
<g id="a_node35"><a xlink:href="classAP__BoardConfig.html#ab7d977aecbbe7090266bee755bf2cc32" target="_top" xlink:title=" ">
<polygon fill="white" stroke="black" points="711.968,-102 711.968,-134 838.032,-134 838.032,-102 711.968,-102"/>
<text text-anchor="start" x="719.968" y="-120" font-family="Helvetica,sans-Serif" font-size="10.00">AP_BoardConfig::sensor</text>
<text text-anchor="middle" x="775" y="-108" font-family="Helvetica,sans-Serif" font-size="10.00">_config_error</text>
</a>
</g>
</g>
<!-- Node213&#45;&gt;Node214 -->
<g id="edge34" class="edge"><title>Node213&#45;&gt;Node214</title>
<path fill="none" stroke="midnightblue" d="M887.896,-118C871.807,-118 854.384,-118 838.185,-118"/>
<polygon fill="midnightblue" stroke="midnightblue" points="888.251,-121.5 898.25,-118 888.25,-114.5 888.251,-121.5"/>
</g>
<!-- Node215 -->
<g id="node36" class="node"><title>Node215</title>
<g id="a_node36"><a xlink:href="classAP__InertialSensor.html#a8967734e82a4f472c6d8ddd8db656804" target="_top" xlink:title=" ">
<polygon fill="white" stroke="black" points="558.921,-102 558.921,-134 661.079,-134 661.079,-102 558.921,-102"/>
<text text-anchor="start" x="566.921" y="-120" font-family="Helvetica,sans-Serif" font-size="10.00">AP_InertialSensor::</text>
<text text-anchor="middle" x="610" y="-108" font-family="Helvetica,sans-Serif" font-size="10.00">detect_backends</text>
</a>
</g>
</g>
<!-- Node214&#45;&gt;Node215 -->
<g id="edge35" class="edge"><title>Node214&#45;&gt;Node215</title>
<path fill="none" stroke="midnightblue" d="M701.596,-118C687.986,-118 674.034,-118 661.282,-118"/>
<polygon fill="midnightblue" stroke="midnightblue" points="701.912,-121.5 711.912,-118 701.912,-114.5 701.912,-121.5"/>
</g>
<!-- Node225 -->
<g id="node46" class="node"><title>Node225</title>
<g id="a_node46"><a xlink:href="classAP__Baro.html#a942db790233528bfbb4d9a07c3454360" target="_top" xlink:title=" ">
<polygon fill="white" stroke="black" points="572.818,-63 572.818,-83 647.182,-83 647.182,-63 572.818,-63"/>
<text text-anchor="middle" x="610" y="-69" font-family="Helvetica,sans-Serif" font-size="10.00">AP_Baro::init</text>
</a>
</g>
</g>
<!-- Node214&#45;&gt;Node225 -->
<g id="edge46" class="edge"><title>Node214&#45;&gt;Node225</title>
<path fill="none" stroke="midnightblue" d="M705.845,-99.1842C685.717,-93.6275 664.473,-87.7626 647.205,-82.9953"/>
<polygon fill="midnightblue" stroke="midnightblue" points="705.043,-102.594 715.614,-101.881 706.906,-95.846 705.043,-102.594"/>
</g>
<!-- Node227 -->
<g id="node48" class="node"><title>Node227</title>
<g id="a_node48"><a xlink:href="classAP__Param.html#a0c15e6322af82416e599f89db54501e6" target="_top" xlink:title=" ">
<polygon fill="white" stroke="black" points="548.082,-153 548.082,-185 671.918,-185 671.918,-153 548.082,-153"/>
<text text-anchor="start" x="556.082" y="-171" font-family="Helvetica,sans-Serif" font-size="10.00">AP_Param::set_defaults</text>
<text text-anchor="middle" x="610" y="-159" font-family="Helvetica,sans-Serif" font-size="10.00">_from_table</text>
</a>
</g>
</g>
<!-- Node214&#45;&gt;Node227 -->
<g id="edge48" class="edge"><title>Node214&#45;&gt;Node227</title>
<path fill="none" stroke="midnightblue" d="M712.784,-137.153C696.133,-142.363 678.275,-147.951 662.239,-152.968"/>
<polygon fill="midnightblue" stroke="midnightblue" points="713.927,-140.463 722.426,-134.137 711.837,-133.783 713.927,-140.463"/>
</g>
<!-- Node216 -->
<g id="node37" class="node"><title>Node216</title>
<g id="a_node37"><a xlink:href="classAP__InertialSensor.html#a9949b7e301b0d7a5f3e59385d2e8d97a" target="_top" xlink:title=" ">
<polygon fill="white" stroke="black" points="398.921,-77 398.921,-109 501.079,-109 501.079,-77 398.921,-77"/>
<text text-anchor="start" x="406.921" y="-95" font-family="Helvetica,sans-Serif" font-size="10.00">AP_InertialSensor::</text>
<text text-anchor="middle" x="450" y="-83" font-family="Helvetica,sans-Serif" font-size="10.00">_start_backends</text>
</a>
</g>
</g>
<!-- Node215&#45;&gt;Node216 -->
<g id="edge36" class="edge"><title>Node215&#45;&gt;Node216</title>
<path fill="none" stroke="midnightblue" d="M548.488,-108.425C532.876,-105.955 516.243,-103.323 501.219,-100.946"/>
<polygon fill="midnightblue" stroke="midnightblue" points="548.149,-111.915 558.573,-110.021 549.243,-105.001 548.149,-111.915"/>
</g>
<!-- Node221 -->
<g id="node42" class="node"><title>Node221</title>
<g id="a_node42"><a xlink:href="classAP__InertialSensor.html#ad649def5689aecaebca16cf910d77fd8" target="_top" xlink:title=" ">
<polygon fill="white" stroke="black" points="398.921,-179 398.921,-211 501.079,-211 501.079,-179 398.921,-179"/>
<text text-anchor="start" x="406.921" y="-197" font-family="Helvetica,sans-Serif" font-size="10.00">AP_InertialSensor::</text>
<text text-anchor="middle" x="450" y="-185" font-family="Helvetica,sans-Serif" font-size="10.00">get_auxiliary_bus</text>
</a>
</g>
</g>
<!-- Node215&#45;&gt;Node221 -->
<g id="edge41" class="edge"><title>Node215&#45;&gt;Node221</title>
<path fill="none" stroke="midnightblue" d="M556.855,-138.386C553.824,-139.874 550.851,-141.416 548,-143 530.748,-152.587 529.184,-159.293 512,-169 505.785,-172.51 499.003,-175.846 492.293,-178.884"/>
<polygon fill="midnightblue" stroke="midnightblue" points="558.481,-141.489 566.063,-134.089 555.521,-135.146 558.481,-141.489"/>
</g>
<!-- Node222 -->
<g id="node43" class="node"><title>Node222</title>
<g id="a_node43"><a xlink:href="classAP__Compass__AK8963.html#a0e8c9e0c82de409e0225fc81ed4ed6db" target="_top" xlink:title=" ">
<polygon fill="white" stroke="black" points="388.079,-128 388.079,-160 511.921,-160 511.921,-128 388.079,-128"/>
<text text-anchor="start" x="396.079" y="-146" font-family="Helvetica,sans-Serif" font-size="10.00">AP_Compass_AK8963::</text>
<text text-anchor="middle" x="450" y="-134" font-family="Helvetica,sans-Serif" font-size="10.00">probe_mpu9250</text>
</a>
</g>
</g>
<!-- Node215&#45;&gt;Node222 -->
<g id="edge42" class="edge"><title>Node215&#45;&gt;Node222</title>
<path fill="none" stroke="midnightblue" d="M548.658,-127.93C536.651,-129.906 524.034,-131.982 512.006,-133.961"/>
<polygon fill="midnightblue" stroke="midnightblue" points="549.274,-131.375 558.573,-126.298 548.138,-124.468 549.274,-131.375"/>
</g>
<!-- Node217 -->
<g id="node38" class="node"><title>Node217</title>
<g id="a_node38"><a xlink:href="classAP__InertialSensor.html#a741065b13832b5e4c90bbae17519c0ad" target="_top" xlink:title=" ">
<polygon fill="white" stroke="black" points="221.53,-83 221.53,-103 336.47,-103 336.47,-83 221.53,-83"/>
<text text-anchor="middle" x="279" y="-89" font-family="Helvetica,sans-Serif" font-size="10.00">AP_InertialSensor::init</text>
</a>
</g>
</g>
<!-- Node216&#45;&gt;Node217 -->
<g id="edge37" class="edge"><title>Node216&#45;&gt;Node217</title>
<path fill="none" stroke="midnightblue" d="M388.434,-93C371.53,-93 353.233,-93 336.569,-93"/>
<polygon fill="midnightblue" stroke="midnightblue" points="388.752,-96.5001 398.752,-93 388.752,-89.5001 388.752,-96.5001"/>
</g>
<!-- Node218 -->
<g id="node39" class="node"><title>Node218</title>
<g id="a_node39"><a xlink:href="AHRS__Test_8cpp.html#a4fc01d736fe50cf5b977f755b675f11d" target="_top" xlink:title=" ">
<polygon fill="white" stroke="black" points="-0.231445,-114 -0.231445,-134 40.2314,-134 40.2314,-114 -0.231445,-114"/>
<text text-anchor="middle" x="20" y="-120" font-family="Helvetica,sans-Serif" font-size="10.00">setup</text>
</a>
</g>
</g>
<!-- Node217&#45;&gt;Node218 -->
<g id="edge38" class="edge"><title>Node217&#45;&gt;Node218</title>
<path fill="none" stroke="midnightblue" d="M211.28,-101.048C154.401,-107.909 76.3296,-117.326 40.46,-121.653"/>
<polygon fill="midnightblue" stroke="midnightblue" points="211.773,-104.514 221.282,-99.8415 210.935,-97.5643 211.773,-104.514"/>
</g>
<!-- Node219 -->
<g id="node40" class="node"><title>Node219</title>
<g id="a_node40"><a xlink:href="classSchedTest.html#ae9afb73f76391e34d47286a516fe5292" target="_top" xlink:title=" ">
<polygon fill="white" stroke="black" points="76.6431,-56 76.6431,-76 169.357,-76 169.357,-56 76.6431,-56"/>
<text text-anchor="middle" x="123" y="-62" font-family="Helvetica,sans-Serif" font-size="10.00">SchedTest::setup</text>
</a>
</g>
</g>
<!-- Node217&#45;&gt;Node219 -->
<g id="edge39" class="edge"><title>Node217&#45;&gt;Node219</title>
<path fill="none" stroke="midnightblue" d="M211.02,-81.2568C197.04,-78.8057 182.611,-76.276 169.621,-73.9984"/>
<polygon fill="midnightblue" stroke="midnightblue" points="210.639,-84.7433 221.094,-83.0229 211.848,-77.8485 210.639,-84.7433"/>
</g>
<!-- Node220 -->
<g id="node41" class="node"><title>Node220</title>
<g id="a_node41"><a xlink:href="Scheduler__test_8cpp.html#a7dfd9b79bc5a37d7df40207afbc5431f" target="_top" xlink:title=" ">
<polygon fill="white" stroke="black" points="-0.231445,-56 -0.231445,-76 40.2314,-76 40.2314,-56 -0.231445,-56"/>
<text text-anchor="middle" x="20" y="-62" font-family="Helvetica,sans-Serif" font-size="10.00">setup</text>
</a>
</g>
</g>
<!-- Node219&#45;&gt;Node220 -->
<g id="edge40" class="edge"><title>Node219&#45;&gt;Node220</title>
<path fill="none" stroke="midnightblue" d="M66.3961,-66C57.0922,-66 48.0218,-66 40.4654,-66"/>
<polygon fill="midnightblue" stroke="midnightblue" points="66.5229,-69.5001 76.5229,-66 66.5228,-62.5001 66.5229,-69.5001"/>
</g>
<!-- Node223 -->
<g id="node44" class="node"><title>Node223</title>
<g id="a_node44"><a xlink:href="classCompass.html#a1c48170d8c8966b22fb150b1634443ec" target="_top" xlink:title=" ">
<polygon fill="white" stroke="black" points="206.518,-134 206.518,-154 351.482,-154 351.482,-134 206.518,-134"/>
<text text-anchor="middle" x="279" y="-140" font-family="Helvetica,sans-Serif" font-size="10.00">Compass::_detect_backends</text>
</a>
</g>
</g>
<!-- Node222&#45;&gt;Node223 -->
<g id="edge43" class="edge"><title>Node222&#45;&gt;Node223</title>
<path fill="none" stroke="midnightblue" d="M377.88,-144C369.175,-144 360.276,-144 351.564,-144"/>
<polygon fill="midnightblue" stroke="midnightblue" points="377.987,-147.5 387.987,-144 377.987,-140.5 377.987,-147.5"/>
</g>
<!-- Node224 -->
<g id="node45" class="node"><title>Node224</title>
<g id="a_node45"><a xlink:href="classCompass.html#a79db6bfd3fe309c6258d783f126326c6" target="_top" xlink:title=" ">
<polygon fill="white" stroke="black" points="84.7119,-134 84.7119,-154 161.288,-154 161.288,-134 84.7119,-134"/>
<text text-anchor="middle" x="123" y="-140" font-family="Helvetica,sans-Serif" font-size="10.00">Compass::init</text>
</a>
</g>
</g>
<!-- Node223&#45;&gt;Node224 -->
<g id="edge44" class="edge"><title>Node223&#45;&gt;Node224</title>
<path fill="none" stroke="midnightblue" d="M196.188,-144C184.032,-144 172.037,-144 161.42,-144"/>
<polygon fill="midnightblue" stroke="midnightblue" points="196.41,-147.5 206.41,-144 196.41,-140.5 196.41,-147.5"/>
</g>
<!-- Node224&#45;&gt;Node218 -->
<g id="edge45" class="edge"><title>Node224&#45;&gt;Node218</title>
<path fill="none" stroke="midnightblue" d="M74.6155,-134.617C62.4954,-132.217 50.1351,-129.769 40.3413,-127.83"/>
<polygon fill="midnightblue" stroke="midnightblue" points="74.1889,-138.1 84.6783,-136.61 75.5487,-131.234 74.1889,-138.1"/>
</g>
<!-- Node226 -->
<g id="node47" class="node"><title>Node226</title>
<g id="a_node47"><a xlink:href="BARO__generic_8cpp.html#a4fc01d736fe50cf5b977f755b675f11d" target="_top" xlink:title=" ">
<polygon fill="white" stroke="black" points="429.769,-38 429.769,-58 470.231,-58 470.231,-38 429.769,-38"/>
<text text-anchor="middle" x="450" y="-44" font-family="Helvetica,sans-Serif" font-size="10.00">setup</text>
</a>
</g>
</g>
<!-- Node225&#45;&gt;Node226 -->
<g id="edge47" class="edge"><title>Node225&#45;&gt;Node226</title>
<path fill="none" stroke="midnightblue" d="M562.659,-65.6676C531.89,-60.799 493.098,-54.6611 470.276,-51.0501"/>
<polygon fill="midnightblue" stroke="midnightblue" points="562.327,-69.1586 572.752,-67.2645 563.422,-62.2446 562.327,-69.1586"/>
</g>
<!-- Node229 -->
<g id="node50" class="node"><title>Node229</title>
<g id="a_node50"><a xlink:href="structGCS__MAVLINK.html#ad02c83895334e008e3c2f454a616893e" target="_top" xlink:title=" ">
<polygon fill="white" stroke="black" points="888.009,-0 888.009,-32 1009.99,-32 1009.99,-0 888.009,-0"/>
<text text-anchor="start" x="896.009" y="-18" font-family="Helvetica,sans-Serif" font-size="10.00">GCS_MAVLINK::handle</text>
<text text-anchor="middle" x="949" y="-6" font-family="Helvetica,sans-Serif" font-size="10.00">_set_gps_global_origin</text>
</a>
</g>
</g>
<!-- Node228&#45;&gt;Node229 -->
<g id="edge50" class="edge"><title>Node228&#45;&gt;Node229</title>
<path fill="none" stroke="midnightblue" d="M1247.31,-16C1178.31,-16 1075.15,-16 1010.27,-16"/>
<polygon fill="midnightblue" stroke="midnightblue" points="1247.65,-19.5001 1257.65,-16 1247.65,-12.5001 1247.65,-19.5001"/>
</g>
<!-- Node230 -->
<g id="node51" class="node"><title>Node230</title>
<g id="a_node51"><a xlink:href="structGCS__MAVLINK.html#a13da94a2548ade6552a5250eb3251e89" target="_top" xlink:title=" ">
<polygon fill="white" stroke="black" points="714.009,-26 714.009,-58 835.991,-58 835.991,-26 714.009,-26"/>
<text text-anchor="start" x="722.009" y="-44" font-family="Helvetica,sans-Serif" font-size="10.00">GCS_MAVLINK::handle</text>
<text text-anchor="middle" x="775" y="-32" font-family="Helvetica,sans-Serif" font-size="10.00">_common_message</text>
</a>
</g>
</g>
<!-- Node229&#45;&gt;Node230 -->
<g id="edge51" class="edge"><title>Node229&#45;&gt;Node230</title>
<path fill="none" stroke="midnightblue" d="M877.879,-26.5997C864.028,-28.6934 849.608,-30.8733 836.123,-32.9116"/>
<polygon fill="midnightblue" stroke="midnightblue" points="878.478,-30.049 887.843,-25.0935 877.432,-23.1276 878.478,-30.049"/>
</g>
<!-- Node232 -->
<g id="node53" class="node"><title>Node232</title>
<g id="a_node53"><a xlink:href="structGCS__MAVLINK.html#a29e2941413d50ab63cd70f5beadef19a" target="_top" xlink:title=" ">
<polygon fill="white" stroke="black" points="1068.52,-51 1068.52,-83 1193.48,-83 1193.48,-51 1068.52,-51"/>
<text text-anchor="start" x="1076.52" y="-69" font-family="Helvetica,sans-Serif" font-size="10.00">GCS_MAVLINK::handle</text>
<text text-anchor="middle" x="1131" y="-57" font-family="Helvetica,sans-Serif" font-size="10.00">_command_long_packet</text>
</a>
</g>
</g>
<!-- Node231&#45;&gt;Node232 -->
<g id="edge53" class="edge"><title>Node231&#45;&gt;Node232</title>
<path fill="none" stroke="midnightblue" d="M1231.86,-67C1218.98,-67 1205.95,-67 1193.73,-67"/>
<polygon fill="midnightblue" stroke="midnightblue" points="1232.13,-70.5001 1242.13,-67 1232.13,-63.5001 1232.13,-70.5001"/>
</g>
<!-- Node233 -->
<g id="node54" class="node"><title>Node233</title>
<g id="a_node54"><a xlink:href="structGCS__MAVLINK.html#abc79cdd8393234b66f2e8217a527f8f9" target="_top" xlink:title=" ">
<polygon fill="white" stroke="black" points="888.009,-51 888.009,-83 1009.99,-83 1009.99,-51 888.009,-51"/>
<text text-anchor="start" x="896.009" y="-69" font-family="Helvetica,sans-Serif" font-size="10.00">GCS_MAVLINK::handle</text>
<text text-anchor="middle" x="949" y="-57" font-family="Helvetica,sans-Serif" font-size="10.00">_command_long</text>
</a>
</g>
</g>
<!-- Node232&#45;&gt;Node233 -->
<g id="edge54" class="edge"><title>Node232&#45;&gt;Node233</title>
<path fill="none" stroke="midnightblue" d="M1058,-67C1042.11,-67 1025.45,-67 1010.09,-67"/>
<polygon fill="midnightblue" stroke="midnightblue" points="1058.31,-70.5001 1068.31,-67 1058.31,-63.5001 1058.31,-70.5001"/>
</g>
<!-- Node233&#45;&gt;Node230 -->
<g id="edge55" class="edge"><title>Node233&#45;&gt;Node230</title>
<path fill="none" stroke="midnightblue" d="M877.879,-56.808C864.028,-54.7948 849.608,-52.6988 836.123,-50.7388"/>
<polygon fill="midnightblue" stroke="midnightblue" points="877.443,-60.2814 887.843,-58.2562 878.45,-53.3541 877.443,-60.2814"/>
</g>
<!-- Node234&#45;&gt;Node209 -->
<g id="edge57" class="edge"><title>Node234&#45;&gt;Node209</title>
<path fill="none" stroke="midnightblue" d="M1808.23,-67C1799.57,-67 1790.82,-67 1782.28,-67"/>
<polygon fill="midnightblue" stroke="midnightblue" points="1808.35,-70.5001 1818.35,-67 1808.35,-63.5001 1808.35,-70.5001"/>
</g>
</g>
</svg>
