<?xml version="1.0" encoding="UTF-8" standalone="no"?>
<!DOCTYPE svg PUBLIC "-//W3C//DTD SVG 1.1//EN"
 "http://www.w3.org/Graphics/SVG/1.1/DTD/svg11.dtd">
<!-- Generated by graphviz version 2.30.1 (20130221.2233)
 -->
<!-- Title: AP_Baro_SITL::update Pages: 1 -->
<svg width="520pt" height="67pt"
 viewBox="0.00 0.00 520.00 67.00" xmlns="http://www.w3.org/2000/svg" xmlns:xlink="http://www.w3.org/1999/xlink">
<g id="graph0" class="graph" transform="scale(1 1) rotate(0) translate(4 63)">
<title>AP_Baro_SITL::update</title>
<polygon fill="white" stroke="white" points="-4,5 -4,-63 517,-63 517,5 -4,5"/>
<!-- Node36 -->
<g id="node1" class="node"><title>Node36</title>
<g id="a_node1"><a xlink:title=" ">
<polygon fill="#bfbfbf" stroke="black" points="0.57666,-19 0.57666,-39 119.423,-39 119.423,-19 0.57666,-19"/>
<text text-anchor="middle" x="60" y="-25" font-family="Helvetica,sans-Serif" font-size="10.00">AP_Baro_SITL::update</text>
</a>
</g>
</g>
<!-- Node37 -->
<g id="node2" class="node"><title>Node37</title>
<g id="a_node2"><a xlink:href="classAP__Baro__Backend.html#ad70c9cb450b4a7f5085d5b118ad90325" target="_top" xlink:title=" ">
<polygon fill="white" stroke="black" points="156.628,-13 156.628,-45 289.372,-45 289.372,-13 156.628,-13"/>
<text text-anchor="start" x="164.628" y="-31" font-family="Helvetica,sans-Serif" font-size="10.00">AP_Baro_Backend::_copy</text>
<text text-anchor="middle" x="223" y="-19" font-family="Helvetica,sans-Serif" font-size="10.00">_to_frontend</text>
</a>
</g>
</g>
<!-- Node36&#45;&gt;Node37 -->
<g id="edge1" class="edge"><title>Node36&#45;&gt;Node37</title>
<path fill="none" stroke="midnightblue" d="M119.58,-29C128.268,-29 137.325,-29 146.302,-29"/>
<polygon fill="midnightblue" stroke="midnightblue" points="146.38,-32.5001 156.38,-29 146.38,-25.5001 146.38,-32.5001"/>
</g>
<!-- Node38 -->
<g id="node3" class="node"><title>Node38</title>
<g id="a_node3"><a xlink:href="namespaceAP__HAL.html#a77dffbb18891996280308e21316ec186" target="_top" xlink:title=" ">
<polygon fill="white" stroke="black" points="325.936,-39 325.936,-59 408.064,-59 408.064,-39 325.936,-39"/>
<text text-anchor="middle" x="367" y="-45" font-family="Helvetica,sans-Serif" font-size="10.00">AP_HAL::millis</text>
</a>
</g>
</g>
<!-- Node37&#45;&gt;Node38 -->
<g id="edge2" class="edge"><title>Node37&#45;&gt;Node38</title>
<path fill="none" stroke="midnightblue" d="M289.596,-38.2389C298.379,-39.4759 307.273,-40.7286 315.736,-41.9205"/>
<polygon fill="midnightblue" stroke="midnightblue" points="315.418,-45.4102 325.808,-43.3392 316.394,-38.4786 315.418,-45.4102"/>
</g>
<!-- Node40 -->
<g id="node5" class="node"><title>Node40</title>
<g id="a_node5"><a xlink:href="AP__Math_8cpp.html#accbd9f8bbc0adacd51efa66fad490c24" target="_top" xlink:title=" ">
<polygon fill="white" stroke="black" points="340.375,-0 340.375,-20 393.625,-20 393.625,-0 340.375,-0"/>
<text text-anchor="middle" x="367" y="-6" font-family="Helvetica,sans-Serif" font-size="10.00">is_equal</text>
</a>
</g>
</g>
<!-- Node37&#45;&gt;Node40 -->
<g id="edge4" class="edge"><title>Node37&#45;&gt;Node40</title>
<path fill="none" stroke="midnightblue" d="M289.596,-20.223C303.423,-18.373 317.524,-16.4862 329.787,-14.8454"/>
<polygon fill="midnightblue" stroke="midnightblue" points="330.589,-18.2694 340.036,-13.474 329.66,-11.3312 330.589,-18.2694"/>
</g>
<!-- Node39 -->
<g id="node4" class="node"><title>Node39</title>
<g id="a_node4"><a xlink:href="hrt_8c.html#a1295f128f60d29874243b5733c4db025" target="_top" xlink:title=" ">
<polygon fill="white" stroke="black" points="444.714,-39 444.714,-59 511.286,-59 511.286,-39 444.714,-39"/>
<text text-anchor="middle" x="478" y="-45" font-family="Helvetica,sans-Serif" font-size="10.00">hrt_millis32</text>
</a>
</g>
</g>
<!-- Node38&#45;&gt;Node39 -->
<g id="edge3" class="edge"><title>Node38&#45;&gt;Node39</title>
<path fill="none" stroke="midnightblue" d="M408.278,-49C416.815,-49 425.852,-49 434.469,-49"/>
<polygon fill="midnightblue" stroke="midnightblue" points="434.71,-52.5001 444.71,-49 434.71,-45.5001 434.71,-52.5001"/>
</g>
</g>
</svg>
