<?xml version="1.0" encoding="UTF-8" standalone="no"?>
<!DOCTYPE svg PUBLIC "-//W3C//DTD SVG 1.1//EN"
 "http://www.w3.org/Graphics/SVG/1.1/DTD/svg11.dtd">
<!-- Generated by graphviz version 2.30.1 (20130221.2233)
 -->
<!-- Title: NavEKF2_core::readDeltaVelocity Pages: 1 -->
<svg width="918pt" height="405pt"
 viewBox="0.00 0.00 918.00 404.70" xmlns="http://www.w3.org/2000/svg" xmlns:xlink="http://www.w3.org/1999/xlink">
<g id="graph0" class="graph" transform="scale(1 1) rotate(0) translate(4 400.696)">
<title>NavEKF2_core::readDeltaVelocity</title>
<polygon fill="white" stroke="white" points="-4,5 -4,-400.696 915,-400.696 915,5 -4,5"/>
<!-- Node2658 -->
<g id="node1" class="node"><title>Node2658</title>
<g id="a_node1"><a xlink:title=" ">
<polygon fill="#bfbfbf" stroke="black" points="0.404297,-100.696 0.404297,-120.696 167.596,-120.696 167.596,-100.696 0.404297,-100.696"/>
<text text-anchor="middle" x="84" y="-106.696" font-family="Helvetica,sans-Serif" font-size="10.00">NavEKF2_core::readDeltaVelocity</text>
</a>
</g>
</g>
<!-- Node2659 -->
<g id="node2" class="node"><title>Node2659</title>
<g id="a_node2"><a xlink:href="namespaceAP.html#ac571aa5a2ef71b7f4b4b2bfa09143fb9" target="_top" xlink:title=" ">
<polygon fill="white" stroke="black" points="235.16,-239.696 235.16,-259.696 282.84,-259.696 282.84,-239.696 235.16,-239.696"/>
<text text-anchor="middle" x="259" y="-245.696" font-family="Helvetica,sans-Serif" font-size="10.00">AP::ins</text>
</a>
</g>
</g>
<!-- Node2658&#45;&gt;Node2659 -->
<g id="edge1" class="edge"><title>Node2658&#45;&gt;Node2659</title>
<path fill="none" stroke="midnightblue" d="M96.6428,-120.756C117.743,-138.902 163.842,-178.159 204,-209.696 214.116,-217.641 225.534,-226.161 235.257,-233.288"/>
<polygon fill="midnightblue" stroke="midnightblue" points="233.48,-236.324 243.623,-239.385 237.603,-230.667 233.48,-236.324"/>
</g>
<!-- Node2670 -->
<g id="node13" class="node"><title>Node2670</title>
<g id="a_node13"><a xlink:href="classAP__InertialSensor.html#a8ca2cbf528de2276d1be01c00243db0d" target="_top" xlink:title=" ">
<polygon fill="white" stroke="black" points="207.921,-168.696 207.921,-200.696 310.079,-200.696 310.079,-168.696 207.921,-168.696"/>
<text text-anchor="start" x="215.921" y="-186.696" font-family="Helvetica,sans-Serif" font-size="10.00">AP_InertialSensor::</text>
<text text-anchor="middle" x="259" y="-174.696" font-family="Helvetica,sans-Serif" font-size="10.00">get_accel_count</text>
</a>
</g>
</g>
<!-- Node2658&#45;&gt;Node2670 -->
<g id="edge12" class="edge"><title>Node2658&#45;&gt;Node2670</title>
<path fill="none" stroke="midnightblue" d="M108.692,-120.83C134.886,-132.035 177.752,-150.371 210.85,-164.528"/>
<polygon fill="midnightblue" stroke="midnightblue" points="209.77,-167.873 220.341,-168.588 212.523,-161.437 209.77,-167.873"/>
</g>
<!-- Node2671 -->
<g id="node14" class="node"><title>Node2671</title>
<g id="a_node14"><a xlink:href="classAP__InertialSensor.html#acf640603eda1929a2487c4fbba73616e" target="_top" xlink:title=" ">
<polygon fill="white" stroke="black" points="207.921,-117.696 207.921,-149.696 310.079,-149.696 310.079,-117.696 207.921,-117.696"/>
<text text-anchor="start" x="215.921" y="-135.696" font-family="Helvetica,sans-Serif" font-size="10.00">AP_InertialSensor::</text>
<text text-anchor="middle" x="259" y="-123.696" font-family="Helvetica,sans-Serif" font-size="10.00">get_delta_velocity</text>
</a>
</g>
</g>
<!-- Node2658&#45;&gt;Node2671 -->
<g id="edge13" class="edge"><title>Node2658&#45;&gt;Node2671</title>
<path fill="none" stroke="midnightblue" d="M160.377,-120.717C172.897,-122.382 185.733,-124.089 197.813,-125.694"/>
<polygon fill="midnightblue" stroke="midnightblue" points="197.384,-129.168 207.758,-127.017 198.306,-122.229 197.384,-129.168"/>
</g>
<!-- Node2676 -->
<g id="node19" class="node"><title>Node2676</title>
<g id="a_node19"><a xlink:href="AP__Math_8h.html#a5abc8871f1e7781a55afe9bf299f0a39" target="_top" xlink:title=" ">
<polygon fill="white" stroke="black" points="240.165,-78.6963 240.165,-98.6963 277.835,-98.6963 277.835,-78.6963 240.165,-78.6963"/>
<text text-anchor="middle" x="259" y="-84.6963" font-family="Helvetica,sans-Serif" font-size="10.00">MAX</text>
</a>
</g>
</g>
<!-- Node2658&#45;&gt;Node2676 -->
<g id="edge20" class="edge"><title>Node2658&#45;&gt;Node2676</title>
<path fill="none" stroke="midnightblue" d="M163.654,-100.694C187.27,-97.6908 211.673,-94.5875 229.743,-92.2896"/>
<polygon fill="midnightblue" stroke="midnightblue" points="230.376,-95.7375 239.854,-91.0038 229.493,-88.7934 230.376,-95.7375"/>
</g>
<!-- Node2677 -->
<g id="node20" class="node"><title>Node2677</title>
<g id="a_node20"><a xlink:href="classAP__InertialSensor.html#a793f4fda9fbd8a49f15411bc93c9ed5a" target="_top" xlink:title=" ">
<polygon fill="white" stroke="black" points="204.022,-27.6963 204.022,-59.6963 313.978,-59.6963 313.978,-27.6963 204.022,-27.6963"/>
<text text-anchor="start" x="212.022" y="-45.6963" font-family="Helvetica,sans-Serif" font-size="10.00">AP_InertialSensor::</text>
<text text-anchor="middle" x="259" y="-33.6963" font-family="Helvetica,sans-Serif" font-size="10.00">get_delta_velocity_dt</text>
</a>
</g>
</g>
<!-- Node2658&#45;&gt;Node2677 -->
<g id="edge21" class="edge"><title>Node2658&#45;&gt;Node2677</title>
<path fill="none" stroke="midnightblue" d="M110.9,-100.666C136.185,-90.8731 175.354,-75.7037 206.918,-63.4796"/>
<polygon fill="midnightblue" stroke="midnightblue" points="208.384,-66.665 216.445,-59.7897 205.856,-60.1374 208.384,-66.665"/>
</g>
<!-- Node2675 -->
<g id="node18" class="node"><title>Node2675</title>
<g id="a_node18"><a xlink:href="AP__Math_8h.html#a321a91de43cfb2e95d40cde314d0a80f" target="_top" xlink:title=" ">
<polygon fill="white" stroke="black" points="521.835,-26.6963 521.835,-46.6963 556.165,-46.6963 556.165,-26.6963 521.835,-26.6963"/>
<text text-anchor="middle" x="539" y="-32.6963" font-family="Helvetica,sans-Serif" font-size="10.00">MIN</text>
</a>
</g>
</g>
<!-- Node2658&#45;&gt;Node2675 -->
<g id="edge24" class="edge"><title>Node2658&#45;&gt;Node2675</title>
<path fill="none" stroke="midnightblue" d="M93.5389,-100.523C111.467,-80.0557 155.409,-34.4313 204,-17.6963 313.338,19.9606 454.64,-12.4522 512.044,-28.7187"/>
<polygon fill="midnightblue" stroke="midnightblue" points="511.18,-32.1124 521.76,-31.5475 513.137,-25.3915 511.18,-32.1124"/>
</g>
<!-- Node2660 -->
<g id="node3" class="node"><title>Node2660</title>
<g id="a_node3"><a xlink:href="classAP__InertialSensor.html#a2cf12201d711e4712a62ad10893be06f" target="_top" xlink:title=" ">
<polygon fill="white" stroke="black" points="349.921,-254.696 349.921,-286.696 452.079,-286.696 452.079,-254.696 349.921,-254.696"/>
<text text-anchor="start" x="357.921" y="-272.696" font-family="Helvetica,sans-Serif" font-size="10.00">AP_InertialSensor::</text>
<text text-anchor="middle" x="401" y="-260.696" font-family="Helvetica,sans-Serif" font-size="10.00">get_singleton</text>
</a>
</g>
</g>
<!-- Node2659&#45;&gt;Node2660 -->
<g id="edge2" class="edge"><title>Node2659&#45;&gt;Node2660</title>
<path fill="none" stroke="midnightblue" d="M283.118,-253.164C298.598,-255.486 319.74,-258.657 339.789,-261.665"/>
<polygon fill="midnightblue" stroke="midnightblue" points="339.416,-265.148 349.824,-263.17 340.454,-258.225 339.416,-265.148"/>
</g>
<!-- Node2661 -->
<g id="node4" class="node"><title>Node2661</title>
<g id="a_node4"><a xlink:href="classAP__InertialSensor.html#affc63e7edc9be1b0e128b8da3b8a24a5" target="_top" xlink:title=" ">
<polygon fill="white" stroke="black" points="487.921,-254.696 487.921,-286.696 590.079,-286.696 590.079,-254.696 487.921,-254.696"/>
<text text-anchor="start" x="495.921" y="-272.696" font-family="Helvetica,sans-Serif" font-size="10.00">AP_InertialSensor::</text>
<text text-anchor="middle" x="539" y="-260.696" font-family="Helvetica,sans-Serif" font-size="10.00">AP_InertialSensor</text>
</a>
</g>
</g>
<!-- Node2660&#45;&gt;Node2661 -->
<g id="edge3" class="edge"><title>Node2660&#45;&gt;Node2661</title>
<path fill="none" stroke="midnightblue" d="M452.255,-270.696C460.432,-270.696 468.976,-270.696 477.37,-270.696"/>
<polygon fill="midnightblue" stroke="midnightblue" points="477.498,-274.196 487.498,-270.696 477.498,-267.196 477.498,-274.196"/>
</g>
<!-- Node2662 -->
<g id="node5" class="node"><title>Node2662</title>
<g id="a_node5"><a xlink:href="namespaceAP__HAL.html#a71832f03d849a0c088f04fc98d3c8143" target="_top" xlink:title=" ">
<polygon fill="white" stroke="black" points="648.091,-331.696 648.091,-351.696 731.909,-351.696 731.909,-331.696 648.091,-331.696"/>
<text text-anchor="middle" x="690" y="-337.696" font-family="Helvetica,sans-Serif" font-size="10.00">AP_HAL::panic</text>
</a>
</g>
</g>
<!-- Node2661&#45;&gt;Node2662 -->
<g id="edge4" class="edge"><title>Node2661&#45;&gt;Node2662</title>
<path fill="none" stroke="midnightblue" d="M563.673,-286.734C580.52,-297.641 603.982,-311.828 626,-321.696 631.367,-324.102 637.11,-326.345 642.863,-328.396"/>
<polygon fill="midnightblue" stroke="midnightblue" points="641.896,-331.764 652.491,-331.659 644.143,-325.134 641.896,-331.764"/>
</g>
<!-- Node2665 -->
<g id="node8" class="node"><title>Node2665</title>
<g id="a_node8"><a xlink:href="classAP__Param.html#a5f6dcfce1c0a79cf5bd81283e22f3201" target="_top" xlink:title=" ">
<polygon fill="white" stroke="black" points="626.69,-280.696 626.69,-312.696 753.31,-312.696 753.31,-280.696 626.69,-280.696"/>
<text text-anchor="start" x="634.69" y="-298.696" font-family="Helvetica,sans-Serif" font-size="10.00">AP_Param::setup_object</text>
<text text-anchor="middle" x="690" y="-286.696" font-family="Helvetica,sans-Serif" font-size="10.00">_defaults</text>
</a>
</g>
</g>
<!-- Node2661&#45;&gt;Node2665 -->
<g id="edge7" class="edge"><title>Node2661&#45;&gt;Node2665</title>
<path fill="none" stroke="midnightblue" d="M590.445,-279.499C598.848,-280.965 607.709,-282.511 616.532,-284.051"/>
<polygon fill="midnightblue" stroke="midnightblue" points="615.999,-287.511 626.451,-285.782 617.202,-280.615 615.999,-287.511"/>
</g>
<!-- Node2668 -->
<g id="node11" class="node"><title>Node2668</title>
<g id="a_node11"><a xlink:href="classLowPassFilter.html#a1cc5016de137b01080fa0a6fa7fe53cd" target="_top" xlink:title=" ">
<polygon fill="white" stroke="black" points="641.153,-229.696 641.153,-261.696 738.847,-261.696 738.847,-229.696 641.153,-229.696"/>
<text text-anchor="start" x="649.153" y="-247.696" font-family="Helvetica,sans-Serif" font-size="10.00">LowPassFilter::set</text>
<text text-anchor="middle" x="690" y="-235.696" font-family="Helvetica,sans-Serif" font-size="10.00">_cutoff_frequency</text>
</a>
</g>
</g>
<!-- Node2661&#45;&gt;Node2668 -->
<g id="edge10" class="edge"><title>Node2661&#45;&gt;Node2668</title>
<path fill="none" stroke="midnightblue" d="M590.445,-262.232C603.496,-260.043 617.651,-257.668 631.054,-255.419"/>
<polygon fill="midnightblue" stroke="midnightblue" points="631.842,-258.836 641.125,-253.729 630.684,-251.932 631.842,-258.836"/>
</g>
<!-- Node2669 -->
<g id="node12" class="node"><title>Node2669</title>
<g id="a_node12"><a xlink:href="classAP__AccelCal.html#a6ecd2cc4987ebcec35f59a538a131ace" target="_top" xlink:title=" ">
<polygon fill="white" stroke="black" points="633.37,-178.696 633.37,-210.696 746.63,-210.696 746.63,-178.696 633.37,-178.696"/>
<text text-anchor="start" x="641.37" y="-196.696" font-family="Helvetica,sans-Serif" font-size="10.00">AP_AccelCal::register</text>
<text text-anchor="middle" x="690" y="-184.696" font-family="Helvetica,sans-Serif" font-size="10.00">_client</text>
</a>
</g>
</g>
<!-- Node2661&#45;&gt;Node2669 -->
<g id="edge11" class="edge"><title>Node2661&#45;&gt;Node2669</title>
<path fill="none" stroke="midnightblue" d="M564.635,-254.677C581.525,-244.049 604.654,-230.18 626,-219.696 629.367,-218.043 632.872,-216.414 636.428,-214.828"/>
<polygon fill="midnightblue" stroke="midnightblue" points="638.104,-217.917 645.904,-210.747 635.335,-211.488 638.104,-217.917"/>
</g>
<!-- Node2663 -->
<g id="node6" class="node"><title>Node2663</title>
<g id="a_node6"><a xlink:href="stdio_8h.html#aae132cc6af1eb6cf43bf011d8d63e854" target="_top" xlink:title=" ">
<polygon fill="white" stroke="black" points="828.384,-376.696 828.384,-396.696 871.616,-396.696 871.616,-376.696 828.384,-376.696"/>
<text text-anchor="middle" x="850" y="-382.696" font-family="Helvetica,sans-Serif" font-size="10.00">vprintf</text>
</a>
</g>
</g>
<!-- Node2662&#45;&gt;Node2663 -->
<g id="edge5" class="edge"><title>Node2662&#45;&gt;Node2663</title>
<path fill="none" stroke="midnightblue" d="M726.458,-351.795C754.089,-359.665 792.054,-370.477 818.373,-377.973"/>
<polygon fill="midnightblue" stroke="midnightblue" points="817.611,-381.395 828.187,-380.768 819.528,-374.663 817.611,-381.395"/>
</g>
<!-- Node2664 -->
<g id="node7" class="node"><title>Node2664</title>
<g id="a_node7"><a xlink:href="classAP__HAL_1_1Scheduler.html#a78c4f1b1f192ac1c99544b6cc8f099b0" target="_top" xlink:title=" ">
<polygon fill="white" stroke="black" points="794.751,-325.696 794.751,-357.696 905.249,-357.696 905.249,-325.696 794.751,-325.696"/>
<text text-anchor="start" x="802.751" y="-343.696" font-family="Helvetica,sans-Serif" font-size="10.00">AP_HAL::Scheduler::</text>
<text text-anchor="middle" x="850" y="-331.696" font-family="Helvetica,sans-Serif" font-size="10.00">delay_microseconds</text>
</a>
</g>
</g>
<!-- Node2662&#45;&gt;Node2664 -->
<g id="edge6" class="edge"><title>Node2662&#45;&gt;Node2664</title>
<path fill="none" stroke="midnightblue" d="M732.1,-341.696C748.075,-341.696 766.759,-341.696 784.444,-341.696"/>
<polygon fill="midnightblue" stroke="midnightblue" points="784.713,-345.196 794.713,-341.696 784.713,-338.196 784.713,-345.196"/>
</g>
<!-- Node2666 -->
<g id="node9" class="node"><title>Node2666</title>
<g id="a_node9"><a xlink:href="classAP__Param.html#acd4b14f793c37f162e298761d2155ca6" target="_top" xlink:title=" ">
<polygon fill="white" stroke="black" points="793.641,-286.696 793.641,-306.696 906.359,-306.696 906.359,-286.696 793.641,-286.696"/>
<text text-anchor="middle" x="850" y="-292.696" font-family="Helvetica,sans-Serif" font-size="10.00">AP_Param::set_value</text>
</a>
</g>
</g>
<!-- Node2665&#45;&gt;Node2666 -->
<g id="edge8" class="edge"><title>Node2665&#45;&gt;Node2666</title>
<path fill="none" stroke="midnightblue" d="M753.446,-296.696C763.241,-296.696 773.391,-296.696 783.257,-296.696"/>
<polygon fill="midnightblue" stroke="midnightblue" points="783.41,-300.196 793.41,-296.696 783.41,-293.196 783.41,-300.196"/>
</g>
<!-- Node2667 -->
<g id="node10" class="node"><title>Node2667</title>
<g id="a_node10"><a xlink:href="classAP__Param.html#a7535a9b529dae326dcebb6be33dbbe9a" target="_top" xlink:title=" ">
<polygon fill="white" stroke="black" points="790.301,-235.696 790.301,-267.696 909.699,-267.696 909.699,-235.696 790.301,-235.696"/>
<text text-anchor="start" x="798.301" y="-253.696" font-family="Helvetica,sans-Serif" font-size="10.00">AP_Param::get_default</text>
<text text-anchor="middle" x="850" y="-241.696" font-family="Helvetica,sans-Serif" font-size="10.00">_value</text>
</a>
</g>
</g>
<!-- Node2665&#45;&gt;Node2667 -->
<g id="edge9" class="edge"><title>Node2665&#45;&gt;Node2667</title>
<path fill="none" stroke="midnightblue" d="M747.595,-280.577C759.079,-277.307 771.251,-273.84 783.026,-270.486"/>
<polygon fill="midnightblue" stroke="midnightblue" points="784.141,-273.808 792.8,-267.703 782.224,-267.076 784.141,-273.808"/>
</g>
<!-- Node2672 -->
<g id="node15" class="node"><title>Node2672</title>
<g id="a_node15"><a xlink:href="classAP__InertialSensor.html#a5b42199f260d9523973a51debd99146e" target="_top" xlink:title=" ">
<polygon fill="white" stroke="black" points="349.921,-185.696 349.921,-217.696 452.079,-217.696 452.079,-185.696 349.921,-185.696"/>
<text text-anchor="start" x="357.921" y="-203.696" font-family="Helvetica,sans-Serif" font-size="10.00">AP_InertialSensor::</text>
<text text-anchor="middle" x="401" y="-191.696" font-family="Helvetica,sans-Serif" font-size="10.00">get_accel_health</text>
</a>
</g>
</g>
<!-- Node2671&#45;&gt;Node2672 -->
<g id="edge14" class="edge"><title>Node2671&#45;&gt;Node2672</title>
<path fill="none" stroke="midnightblue" d="M295.22,-149.816C301.49,-152.739 307.949,-155.784 314,-158.696 328.806,-165.823 344.941,-173.827 359.194,-180.98"/>
<polygon fill="midnightblue" stroke="midnightblue" points="357.75,-184.171 368.256,-185.539 360.896,-177.918 357.75,-184.171"/>
</g>
<!-- Node2673 -->
<g id="node16" class="node"><title>Node2673</title>
<g id="a_node16"><a xlink:href="classAP__InertialSensor.html#ab39d50c9e078ac925746d92af042ba64" target="_top" xlink:title=" ">
<polygon fill="white" stroke="black" points="349.921,-116.696 349.921,-148.696 452.079,-148.696 452.079,-116.696 349.921,-116.696"/>
<text text-anchor="start" x="357.921" y="-134.696" font-family="Helvetica,sans-Serif" font-size="10.00">AP_InertialSensor::</text>
<text text-anchor="middle" x="401" y="-122.696" font-family="Helvetica,sans-Serif" font-size="10.00">get_accel</text>
</a>
</g>
</g>
<!-- Node2671&#45;&gt;Node2673 -->
<g id="edge16" class="edge"><title>Node2671&#45;&gt;Node2673</title>
<path fill="none" stroke="midnightblue" d="M310.148,-133.338C319.698,-133.27 329.785,-133.198 339.615,-133.128"/>
<polygon fill="midnightblue" stroke="midnightblue" points="339.757,-136.627 349.732,-133.055 339.707,-129.627 339.757,-136.627"/>
</g>
<!-- Node2674 -->
<g id="node17" class="node"><title>Node2674</title>
<g id="a_node17"><a xlink:href="classAP__InertialSensor.html#a4f9e51600bcadecad5830ae56b0771a3" target="_top" xlink:title=" ">
<polygon fill="white" stroke="black" points="349.921,-65.6963 349.921,-97.6963 452.079,-97.6963 452.079,-65.6963 349.921,-65.6963"/>
<text text-anchor="start" x="357.921" y="-83.6963" font-family="Helvetica,sans-Serif" font-size="10.00">AP_InertialSensor::</text>
<text text-anchor="middle" x="401" y="-71.6963" font-family="Helvetica,sans-Serif" font-size="10.00">get_delta_time</text>
</a>
</g>
</g>
<!-- Node2671&#45;&gt;Node2674 -->
<g id="edge18" class="edge"><title>Node2671&#45;&gt;Node2674</title>
<path fill="none" stroke="midnightblue" d="M303.147,-117.67C317.119,-112.481 332.773,-106.666 347.355,-101.25"/>
<polygon fill="midnightblue" stroke="midnightblue" points="348.599,-104.522 356.755,-97.7589 346.162,-97.9598 348.599,-104.522"/>
</g>
<!-- Node2672&#45;&gt;Node2672 -->
<g id="edge15" class="edge"><title>Node2672&#45;&gt;Node2672</title>
<path fill="none" stroke="midnightblue" d="M376.546,-217.787C371.556,-227.062 379.707,-235.696 401,-235.696 413.975,-235.696 422.071,-232.49 425.286,-227.886"/>
<polygon fill="midnightblue" stroke="midnightblue" points="428.787,-227.844 425.454,-217.787 421.788,-227.728 428.787,-227.844"/>
</g>
<!-- Node2673&#45;&gt;Node2673 -->
<g id="edge17" class="edge"><title>Node2673&#45;&gt;Node2673</title>
<path fill="none" stroke="midnightblue" d="M376.546,-148.787C371.556,-158.062 379.707,-166.696 401,-166.696 413.975,-166.696 422.071,-163.49 425.286,-158.886"/>
<polygon fill="midnightblue" stroke="midnightblue" points="428.787,-158.844 425.454,-148.787 421.788,-158.728 428.787,-158.844"/>
</g>
<!-- Node2674&#45;&gt;Node2675 -->
<g id="edge19" class="edge"><title>Node2674&#45;&gt;Node2675</title>
<path fill="none" stroke="midnightblue" d="M450.715,-65.5773C471.292,-58.7689 494.436,-51.1107 511.72,-45.3918"/>
<polygon fill="midnightblue" stroke="midnightblue" points="513.255,-48.5707 521.649,-42.1065 511.056,-41.9251 513.255,-48.5707"/>
</g>
<!-- Node2677&#45;&gt;Node2674 -->
<g id="edge22" class="edge"><title>Node2677&#45;&gt;Node2674</title>
<path fill="none" stroke="midnightblue" d="M314.128,-58.3881C322.534,-60.6698 331.263,-63.039 339.793,-65.3544"/>
<polygon fill="midnightblue" stroke="midnightblue" points="339.118,-68.7977 349.685,-68.0395 340.952,-62.0421 339.118,-68.7977"/>
</g>
<!-- Node2677&#45;&gt;Node2675 -->
<g id="edge23" class="edge"><title>Node2677&#45;&gt;Node2675</title>
<path fill="none" stroke="midnightblue" d="M314.261,-42.33C373.674,-40.834 466.487,-38.4969 511.603,-37.3609"/>
<polygon fill="midnightblue" stroke="midnightblue" points="511.836,-40.8563 521.744,-37.1056 511.659,-33.8585 511.836,-40.8563"/>
</g>
</g>
</svg>
