<?xml version="1.0" encoding="UTF-8" standalone="no"?>
<!DOCTYPE svg PUBLIC "-//W3C//DTD SVG 1.1//EN"
 "http://www.w3.org/Graphics/SVG/1.1/DTD/svg11.dtd">
<!-- Generated by graphviz version 2.30.1 (20130221.2233)
 -->
<!-- Title: AP_Logger_Backend::Fill_Format Pages: 1 -->
<svg width="1174pt" height="141pt"
 viewBox="0.00 0.00 1174.00 141.00" xmlns="http://www.w3.org/2000/svg" xmlns:xlink="http://www.w3.org/1999/xlink">
<g id="graph0" class="graph" transform="scale(1 1) rotate(0) translate(4 137)">
<title>AP_Logger_Backend::Fill_Format</title>
<polygon fill="white" stroke="white" points="-4,5 -4,-137 1171,-137 1171,5 -4,5"/>
<!-- Node443 -->
<g id="node1" class="node"><title>Node443</title>
<g id="a_node1"><a xlink:title=" ">
<polygon fill="#bfbfbf" stroke="black" points="1049.96,-75 1049.96,-107 1166.04,-107 1166.04,-75 1049.96,-75"/>
<text text-anchor="start" x="1057.96" y="-93" font-family="Helvetica,sans-Serif" font-size="10.00">AP_Logger_Backend::</text>
<text text-anchor="middle" x="1108" y="-81" font-family="Helvetica,sans-Serif" font-size="10.00">Fill_Format</text>
</a>
</g>
</g>
<!-- Node444 -->
<g id="node2" class="node"><title>Node444</title>
<g id="a_node2"><a xlink:href="classAP__Logger__Block.html#abc16f2037cab85d9fcc9cbe94669d29d" target="_top" xlink:title=" ">
<polygon fill="white" stroke="black" points="898.244,-101 898.244,-133 1013.76,-133 1013.76,-101 898.244,-101"/>
<text text-anchor="start" x="906.244" y="-119" font-family="Helvetica,sans-Serif" font-size="10.00">AP_Logger_Block::get</text>
<text text-anchor="middle" x="956" y="-107" font-family="Helvetica,sans-Serif" font-size="10.00">_log_data</text>
</a>
</g>
</g>
<!-- Node443&#45;&gt;Node444 -->
<g id="edge1" class="edge"><title>Node443&#45;&gt;Node444</title>
<path fill="none" stroke="midnightblue" d="M1039.82,-102.644C1031.19,-104.14 1022.42,-105.66 1013.98,-107.124"/>
<polygon fill="midnightblue" stroke="midnightblue" points="1040.61,-106.06 1049.86,-100.904 1039.41,-99.163 1040.61,-106.06"/>
</g>
<!-- Node445 -->
<g id="node3" class="node"><title>Node445</title>
<g id="a_node3"><a xlink:href="classAP__Logger__Backend.html#a2d9bbcd02b18b2286d07b482d9873397" target="_top" xlink:title=" ">
<polygon fill="white" stroke="black" points="897.963,-50 897.963,-82 1014.04,-82 1014.04,-50 897.963,-50"/>
<text text-anchor="start" x="905.963" y="-68" font-family="Helvetica,sans-Serif" font-size="10.00">AP_Logger_Backend::</text>
<text text-anchor="middle" x="956" y="-56" font-family="Helvetica,sans-Serif" font-size="10.00">Write_Format</text>
</a>
</g>
</g>
<!-- Node443&#45;&gt;Node445 -->
<g id="edge2" class="edge"><title>Node443&#45;&gt;Node445</title>
<path fill="none" stroke="midnightblue" d="M1039.97,-79.8278C1031.46,-78.4099 1022.81,-76.969 1014.47,-75.5791"/>
<polygon fill="midnightblue" stroke="midnightblue" points="1039.42,-83.2856 1049.86,-81.4773 1040.58,-76.3808 1039.42,-83.2856"/>
</g>
<!-- Node446 -->
<g id="node4" class="node"><title>Node446</title>
<g id="a_node4"><a xlink:href="classAP__Logger__Backend.html#ab702704fa7b4781be093044997b07333" target="_top" xlink:title=" ">
<polygon fill="white" stroke="black" points="745.963,-76 745.963,-108 862.037,-108 862.037,-76 745.963,-76"/>
<text text-anchor="start" x="753.963" y="-94" font-family="Helvetica,sans-Serif" font-size="10.00">AP_Logger_Backend::</text>
<text text-anchor="middle" x="804" y="-82" font-family="Helvetica,sans-Serif" font-size="10.00">Write_Emit_FMT</text>
</a>
</g>
</g>
<!-- Node445&#45;&gt;Node446 -->
<g id="edge3" class="edge"><title>Node445&#45;&gt;Node446</title>
<path fill="none" stroke="midnightblue" d="M887.967,-77.6191C879.46,-79.0937 870.814,-80.5923 862.475,-82.0378"/>
<polygon fill="midnightblue" stroke="midnightblue" points="888.608,-81.0602 897.864,-75.9037 887.413,-74.163 888.608,-81.0602"/>
</g>
<!-- Node447 -->
<g id="node5" class="node"><title>Node447</title>
<g id="a_node5"><a xlink:href="classLoggerMessageWriter__DFLogStart.html#a620900808df16dda045b143c17bb0670" target="_top" xlink:title=" ">
<polygon fill="white" stroke="black" points="746.901,-25 746.901,-57 861.099,-57 861.099,-25 746.901,-25"/>
<text text-anchor="start" x="754.901" y="-43" font-family="Helvetica,sans-Serif" font-size="10.00">LoggerMessageWriter</text>
<text text-anchor="middle" x="804" y="-31" font-family="Helvetica,sans-Serif" font-size="10.00">_DFLogStart::process</text>
</a>
</g>
</g>
<!-- Node445&#45;&gt;Node447 -->
<g id="edge4" class="edge"><title>Node445&#45;&gt;Node447</title>
<path fill="none" stroke="midnightblue" d="M887.967,-54.8278C879.121,-53.3536 870.126,-51.8544 861.481,-50.4136"/>
<polygon fill="midnightblue" stroke="midnightblue" points="887.424,-58.2856 897.864,-56.4773 888.575,-51.3808 887.424,-58.2856"/>
</g>
<!-- Node448 -->
<g id="node6" class="node"><title>Node448</title>
<g id="a_node6"><a xlink:href="classAP__Logger__Backend.html#a70bac8d1493337dc4345af22ef99c799" target="_top" xlink:title=" ">
<polygon fill="white" stroke="black" points="570.123,-25 570.123,-57 709.877,-57 709.877,-25 570.123,-25"/>
<text text-anchor="start" x="578.123" y="-43" font-family="Helvetica,sans-Serif" font-size="10.00">AP_Logger_Backend::</text>
<text text-anchor="middle" x="640" y="-31" font-family="Helvetica,sans-Serif" font-size="10.00">WriteMoreStartupMessages</text>
</a>
</g>
</g>
<!-- Node447&#45;&gt;Node448 -->
<g id="edge5" class="edge"><title>Node447&#45;&gt;Node448</title>
<path fill="none" stroke="midnightblue" d="M736.61,-41C727.819,-41 718.791,-41 709.958,-41"/>
<polygon fill="midnightblue" stroke="midnightblue" points="736.795,-44.5001 746.795,-41 736.795,-37.5001 736.795,-44.5001"/>
</g>
<!-- Node449 -->
<g id="node7" class="node"><title>Node449</title>
<g id="a_node7"><a xlink:href="classAP__Logger__Backend.html#af2057bbd5422205c3ebb4bd6528b4876" target="_top" xlink:title=" ">
<polygon fill="white" stroke="black" points="417.963,-51 417.963,-83 534.037,-83 534.037,-51 417.963,-51"/>
<text text-anchor="start" x="425.963" y="-69" font-family="Helvetica,sans-Serif" font-size="10.00">AP_Logger_Backend::</text>
<text text-anchor="middle" x="476" y="-57" font-family="Helvetica,sans-Serif" font-size="10.00">push_log_blocks</text>
</a>
</g>
</g>
<!-- Node448&#45;&gt;Node449 -->
<g id="edge6" class="edge"><title>Node448&#45;&gt;Node449</title>
<path fill="none" stroke="midnightblue" d="M559.755,-53.7183C551.145,-55.1002 542.508,-56.4863 534.234,-57.8142"/>
<polygon fill="midnightblue" stroke="midnightblue" points="560.509,-57.1423 569.828,-52.1018 559.399,-50.2307 560.509,-57.1423"/>
</g>
<!-- Node453 -->
<g id="node11" class="node"><title>Node453</title>
<g id="a_node11"><a xlink:href="classAP__Logger__MAVLink.html#a829d92ca276f4ffc755fd1d6f4a82d85" target="_top" xlink:title=" ">
<polygon fill="white" stroke="black" points="417.783,-0 417.783,-32 534.217,-32 534.217,-0 417.783,-0"/>
<text text-anchor="start" x="425.783" y="-18" font-family="Helvetica,sans-Serif" font-size="10.00">AP_Logger_MAVLink::</text>
<text text-anchor="middle" x="476" y="-6" font-family="Helvetica,sans-Serif" font-size="10.00">push_log_blocks</text>
</a>
</g>
</g>
<!-- Node448&#45;&gt;Node453 -->
<g id="edge10" class="edge"><title>Node448&#45;&gt;Node453</title>
<path fill="none" stroke="midnightblue" d="M559.755,-28.7709C551.145,-27.4421 542.508,-26.1093 534.234,-24.8325"/>
<polygon fill="midnightblue" stroke="midnightblue" points="559.411,-32.259 569.828,-30.3252 560.478,-25.3409 559.411,-32.259"/>
</g>
<!-- Node450 -->
<g id="node8" class="node"><title>Node450</title>
<g id="a_node8"><a xlink:href="classAP__Logger__Backend.html#a9343c876a19ea69c49771b070f4e18fd" target="_top" xlink:title=" ">
<polygon fill="white" stroke="black" points="212.115,-51 212.115,-83 381.885,-83 381.885,-51 212.115,-51"/>
<text text-anchor="start" x="220.115" y="-69" font-family="Helvetica,sans-Serif" font-size="10.00">AP_Logger_Backend::</text>
<text text-anchor="middle" x="297" y="-57" font-family="Helvetica,sans-Serif" font-size="10.00">WriteBlockCheckStartupMessages</text>
</a>
</g>
</g>
<!-- Node449&#45;&gt;Node450 -->
<g id="edge7" class="edge"><title>Node449&#45;&gt;Node450</title>
<path fill="none" stroke="midnightblue" d="M407.283,-67C399.065,-67 390.594,-67 382.175,-67"/>
<polygon fill="midnightblue" stroke="midnightblue" points="407.533,-70.5001 417.533,-67 407.533,-63.5001 407.533,-70.5001"/>
</g>
<!-- Node451 -->
<g id="node9" class="node"><title>Node451</title>
<g id="a_node9"><a xlink:href="classAP__Logger__Block.html#aca670ce37c20dcdad7c4b9cf40a37005" target="_top" xlink:title=" ">
<polygon fill="white" stroke="black" points="0.60791,-76 0.60791,-108 175.392,-108 175.392,-76 0.60791,-76"/>
<text text-anchor="start" x="8.60791" y="-94" font-family="Helvetica,sans-Serif" font-size="10.00">AP_Logger_Block::_WritePrioritised</text>
<text text-anchor="middle" x="88" y="-82" font-family="Helvetica,sans-Serif" font-size="10.00">Block</text>
</a>
</g>
</g>
<!-- Node450&#45;&gt;Node451 -->
<g id="edge8" class="edge"><title>Node450&#45;&gt;Node451</title>
<path fill="none" stroke="midnightblue" d="M201.914,-78.363C193.187,-79.4171 184.369,-80.482 175.712,-81.5275"/>
<polygon fill="midnightblue" stroke="midnightblue" points="202.595,-81.8063 212.104,-77.1324 201.756,-74.8568 202.595,-81.8063"/>
</g>
<!-- Node452 -->
<g id="node10" class="node"><title>Node452</title>
<g id="a_node10"><a xlink:href="classAP__Logger__MAVLink.html#a69be77a5af2ca49192a217bdc41d301a" target="_top" xlink:title=" ">
<polygon fill="white" stroke="black" points="29.7827,-25 29.7827,-57 146.217,-57 146.217,-25 29.7827,-25"/>
<text text-anchor="start" x="37.7827" y="-43" font-family="Helvetica,sans-Serif" font-size="10.00">AP_Logger_MAVLink::</text>
<text text-anchor="middle" x="88" y="-31" font-family="Helvetica,sans-Serif" font-size="10.00">_WritePrioritisedBlock</text>
</a>
</g>
</g>
<!-- Node450&#45;&gt;Node452 -->
<g id="edge9" class="edge"><title>Node450&#45;&gt;Node452</title>
<path fill="none" stroke="midnightblue" d="M201.942,-55.186C182.992,-52.8057 163.616,-50.372 146.383,-48.2076"/>
<polygon fill="midnightblue" stroke="midnightblue" points="201.745,-58.6887 212.104,-56.4623 202.618,-51.7432 201.745,-58.6887"/>
</g>
<!-- Node454 -->
<g id="node12" class="node"><title>Node454</title>
<g id="a_node12"><a xlink:href="classAP__Logger__MAVLink.html#afdb4d0f3b20e0cf4132c236c8f968614" target="_top" xlink:title=" ">
<polygon fill="white" stroke="black" points="238.783,-0 238.783,-32 355.217,-32 355.217,-0 238.783,-0"/>
<text text-anchor="start" x="246.783" y="-18" font-family="Helvetica,sans-Serif" font-size="10.00">AP_Logger_MAVLink::</text>
<text text-anchor="middle" x="297" y="-6" font-family="Helvetica,sans-Serif" font-size="10.00">periodic_fullrate</text>
</a>
</g>
</g>
<!-- Node453&#45;&gt;Node454 -->
<g id="edge11" class="edge"><title>Node453&#45;&gt;Node454</title>
<path fill="none" stroke="midnightblue" d="M407.092,-16C390.06,-16 371.95,-16 355.481,-16"/>
<polygon fill="midnightblue" stroke="midnightblue" points="407.533,-19.5001 417.533,-16 407.533,-12.5001 407.533,-19.5001"/>
</g>
</g>
</svg>
