<?xml version="1.0" encoding="UTF-8" standalone="no"?>
<!DOCTYPE svg PUBLIC "-//W3C//DTD SVG 1.1//EN"
 "http://www.w3.org/Graphics/SVG/1.1/DTD/svg11.dtd">
<!-- Generated by graphviz version 2.30.1 (20130221.2233)
 -->
<!-- Title: NavEKF3_core::prearm_failure_reason Pages: 1 -->
<svg width="476pt" height="40pt"
 viewBox="0.00 0.00 476.00 40.00" xmlns="http://www.w3.org/2000/svg" xmlns:xlink="http://www.w3.org/1999/xlink">
<g id="graph0" class="graph" transform="scale(1 1) rotate(0) translate(4 36)">
<title>NavEKF3_core::prearm_failure_reason</title>
<polygon fill="white" stroke="white" points="-4,5 -4,-36 473,-36 473,5 -4,5"/>
<!-- Node2533 -->
<g id="node1" class="node"><title>Node2533</title>
<g id="a_node1"><a xlink:title=" ">
<polygon fill="#bfbfbf" stroke="black" points="346.48,-0 346.48,-32 467.52,-32 467.52,-0 346.48,-0"/>
<text text-anchor="start" x="354.48" y="-18" font-family="Helvetica,sans-Serif" font-size="10.00">NavEKF3_core::prearm</text>
<text text-anchor="middle" x="407" y="-6" font-family="Helvetica,sans-Serif" font-size="10.00">_failure_reason</text>
</a>
</g>
</g>
<!-- Node2534 -->
<g id="node2" class="node"><title>Node2534</title>
<g id="a_node2"><a xlink:href="classNavEKF3.html#a2a960b89853091ee365325b9cf514dff" target="_top" xlink:title=" ">
<polygon fill="white" stroke="black" points="180.589,-0 180.589,-32 309.411,-32 309.411,-0 180.589,-0"/>
<text text-anchor="start" x="188.589" y="-18" font-family="Helvetica,sans-Serif" font-size="10.00">NavEKF3::prearm_failure</text>
<text text-anchor="middle" x="245" y="-6" font-family="Helvetica,sans-Serif" font-size="10.00">_reason</text>
</a>
</g>
</g>
<!-- Node2533&#45;&gt;Node2534 -->
<g id="edge1" class="edge"><title>Node2533&#45;&gt;Node2534</title>
<path fill="none" stroke="midnightblue" d="M336.172,-16C327.353,-16 318.366,-16 309.649,-16"/>
<polygon fill="midnightblue" stroke="midnightblue" points="336.422,-19.5001 346.422,-16 336.422,-12.5001 336.422,-19.5001"/>
</g>
<!-- Node2535 -->
<g id="node3" class="node"><title>Node2535</title>
<g id="a_node3"><a xlink:href="classAP__AHRS__NavEKF.html#a230ef3797a2387283a68c12f29bac08d" target="_top" xlink:title=" ">
<polygon fill="white" stroke="black" points="0.645508,-0 0.645508,-32 143.354,-32 143.354,-0 0.645508,-0"/>
<text text-anchor="start" x="8.64551" y="-18" font-family="Helvetica,sans-Serif" font-size="10.00">AP_AHRS_NavEKF::prearm</text>
<text text-anchor="middle" x="72" y="-6" font-family="Helvetica,sans-Serif" font-size="10.00">_failure_reason</text>
</a>
</g>
</g>
<!-- Node2534&#45;&gt;Node2535 -->
<g id="edge2" class="edge"><title>Node2534&#45;&gt;Node2535</title>
<path fill="none" stroke="midnightblue" d="M170.109,-16C161.32,-16 152.365,-16 143.624,-16"/>
<polygon fill="midnightblue" stroke="midnightblue" points="170.326,-19.5001 180.326,-16 170.326,-12.5001 170.326,-19.5001"/>
</g>
</g>
</svg>
