<?xml version="1.0" encoding="UTF-8" standalone="no"?>
<!DOCTYPE svg PUBLIC "-//W3C//DTD SVG 1.1//EN"
 "http://www.w3.org/Graphics/SVG/1.1/DTD/svg11.dtd">
<!-- Generated by graphviz version 2.30.1 (20130221.2233)
 -->
<!-- Title: AP_RangeFinder_VL53L1X::dataReady Pages: 1 -->
<!--zoomable 40 -->
<svg id="main" version="1.1" xmlns="http://www.w3.org/2000/svg" xmlns:xlink="http://www.w3.org/1999/xlink" xml:space="preserve" onload="init(evt)">
<style type="text/css"><![CDATA[
.edge:hover path { stroke: red; }
.edge:hover polygon { stroke: red; fill: red; }
]]></style>
<script type="text/javascript"><![CDATA[
var edges = document.getElementsByTagName('g');
if (edges && edges.length) {
  for (var i=0;i<edges.length;i++) {
    if (edges[i].id.substr(0,4)=='edge') {
      edges[i].setAttribute('class','edge');
    }
  }
}
]]></script>
        <defs>
                <circle id="rim" cx="0" cy="0" r="7"/>
                <circle id="rim2" cx="0" cy="0" r="3.5"/>
                <g id="zoomPlus">
                        <use xlink:href="#rim" fill="#404040">
                                <set attributeName="fill" to="#808080" begin="zoomplus.mouseover" end="zoomplus.mouseout"/>
                        </use>
                        <path d="M-4,0h8M0,-4v8" fill="none" stroke="white" stroke-width="1.5" pointer-events="none"/>
                </g>
                <g id="zoomMin">
                        <use xlink:href="#rim" fill="#404040">
                                <set attributeName="fill" to="#808080" begin="zoomminus.mouseover" end="zoomminus.mouseout"/>
                        </use>
                        <path d="M-4,0h8" fill="none" stroke="white" stroke-width="1.5" pointer-events="none"/>
                </g>
                <g id="dirArrow">
                        <path fill="none" stroke="white" stroke-width="1.5" d="M0,-3.0v7 M-2.5,-0.5L0,-3.0L2.5,-0.5"/>
                </g>
               <g id="resetDef">
                       <use xlink:href="#rim2" fill="#404040">
                               <set attributeName="fill" to="#808080" begin="reset.mouseover" end="reset.mouseout"/>
                       </use>
               </g>
        </defs>

<script type="text/javascript">
var viewWidth = 1200;
var viewHeight = 40;
var sectionId = 'dynsection-7';
</script>
<script xlink:href="svgpan.js"/>
<svg id="graph" class="graph">
<g id="viewport">
<title>AP_RangeFinder_VL53L1X::dataReady</title>
<polygon fill="white" stroke="white" points="-4,5 -4,-36 1197,-36 1197,5 -4,5"/>
<!-- Node31 -->
<g id="node1" class="node"><title>Node31</title>
<g id="a_node1"><a xlink:title=" ">
<polygon fill="#bfbfbf" stroke="black" points="1052.29,-0 1052.29,-32 1191.71,-32 1191.71,-0 1052.29,-0"/>
<text text-anchor="start" x="1060.29" y="-18" font-family="Helvetica,sans-Serif" font-size="10.00">AP_RangeFinder_VL53L1X</text>
<text text-anchor="middle" x="1122" y="-6" font-family="Helvetica,sans-Serif" font-size="10.00">::dataReady</text>
</a>
</g>
</g>
<!-- Node32 -->
<g id="node2" class="node"><title>Node32</title>
<g id="a_node2"><a xlink:href="classAP__RangeFinder__VL53L1X.html#a51e41323966d652ad9969755fbb8b2ce" target="_top" xlink:title=" ">
<polygon fill="white" stroke="black" points="876.289,-0 876.289,-32 1015.71,-32 1015.71,-0 876.289,-0"/>
<text text-anchor="start" x="884.289" y="-18" font-family="Helvetica,sans-Serif" font-size="10.00">AP_RangeFinder_VL53L1X</text>
<text text-anchor="middle" x="946" y="-6" font-family="Helvetica,sans-Serif" font-size="10.00">::get_reading</text>
</a>
</g>
</g>
<!-- Node31&#45;&gt;Node32 -->
<g id="edge1" class="edge"><title>Node31&#45;&gt;Node32</title>
<path fill="none" stroke="midnightblue" d="M1042.04,-16C1033.3,-16 1024.44,-16 1015.84,-16"/>
<polygon fill="midnightblue" stroke="midnightblue" points="1042.23,-19.5001 1052.23,-16 1042.23,-12.5001 1042.23,-19.5001"/>
</g>
<!-- Node33 -->
<g id="node3" class="node"><title>Node33</title>
<g id="a_node3"><a xlink:href="classAP__RangeFinder__VL53L1X.html#afb93972292f9f948c590312038a46eed" target="_top" xlink:title=" ">
<polygon fill="white" stroke="black" points="700.289,-0 700.289,-32 839.711,-32 839.711,-0 700.289,-0"/>
<text text-anchor="start" x="708.289" y="-18" font-family="Helvetica,sans-Serif" font-size="10.00">AP_RangeFinder_VL53L1X</text>
<text text-anchor="middle" x="770" y="-6" font-family="Helvetica,sans-Serif" font-size="10.00">::timer</text>
</a>
</g>
</g>
<!-- Node32&#45;&gt;Node33 -->
<g id="edge2" class="edge"><title>Node32&#45;&gt;Node33</title>
<path fill="none" stroke="midnightblue" d="M866.039,-16C857.296,-16 848.444,-16 839.84,-16"/>
<polygon fill="midnightblue" stroke="midnightblue" points="866.231,-19.5001 876.231,-16 866.231,-12.5001 866.231,-19.5001"/>
</g>
<!-- Node34 -->
<g id="node4" class="node"><title>Node34</title>
<g id="a_node4"><a xlink:href="classAP__RangeFinder__VL53L1X.html#aa3a2666e05e882690b533dd99c975024" target="_top" xlink:title=" ">
<polygon fill="white" stroke="black" points="524.289,-0 524.289,-32 663.711,-32 663.711,-0 524.289,-0"/>
<text text-anchor="start" x="532.289" y="-18" font-family="Helvetica,sans-Serif" font-size="10.00">AP_RangeFinder_VL53L1X</text>
<text text-anchor="middle" x="594" y="-6" font-family="Helvetica,sans-Serif" font-size="10.00">::init</text>
</a>
</g>
</g>
<!-- Node33&#45;&gt;Node34 -->
<g id="edge3" class="edge"><title>Node33&#45;&gt;Node34</title>
<path fill="none" stroke="midnightblue" d="M690.039,-16C681.296,-16 672.444,-16 663.84,-16"/>
<polygon fill="midnightblue" stroke="midnightblue" points="690.231,-19.5001 700.231,-16 690.231,-12.5001 690.231,-19.5001"/>
</g>
<!-- Node35 -->
<g id="node5" class="node"><title>Node35</title>
<g id="a_node5"><a xlink:href="classAP__RangeFinder__VL53L1X.html#a5b63daf9926d05b8249e0a4b87e3b1b3" target="_top" xlink:title=" ">
<polygon fill="white" stroke="black" points="348.289,-0 348.289,-32 487.711,-32 487.711,-0 348.289,-0"/>
<text text-anchor="start" x="356.289" y="-18" font-family="Helvetica,sans-Serif" font-size="10.00">AP_RangeFinder_VL53L1X</text>
<text text-anchor="middle" x="418" y="-6" font-family="Helvetica,sans-Serif" font-size="10.00">::detect</text>
</a>
</g>
</g>
<!-- Node34&#45;&gt;Node35 -->
<g id="edge4" class="edge"><title>Node34&#45;&gt;Node35</title>
<path fill="none" stroke="midnightblue" d="M514.039,-16C505.296,-16 496.444,-16 487.84,-16"/>
<polygon fill="midnightblue" stroke="midnightblue" points="514.231,-19.5001 524.231,-16 514.231,-12.5001 514.231,-19.5001"/>
</g>
<!-- Node36 -->
<g id="node6" class="node"><title>Node36</title>
<g id="a_node6"><a xlink:href="classRangeFinder.html#a2d16a636e444ce916e524d1e2623d1d3" target="_top" xlink:title=" ">
<polygon fill="white" stroke="black" points="204.695,-0 204.695,-32 311.305,-32 311.305,-0 204.695,-0"/>
<text text-anchor="start" x="212.695" y="-18" font-family="Helvetica,sans-Serif" font-size="10.00">RangeFinder::detect</text>
<text text-anchor="middle" x="258" y="-6" font-family="Helvetica,sans-Serif" font-size="10.00">_instance</text>
</a>
</g>
</g>
<!-- Node35&#45;&gt;Node36 -->
<g id="edge5" class="edge"><title>Node35&#45;&gt;Node36</title>
<path fill="none" stroke="midnightblue" d="M338.012,-16C329.004,-16 319.995,-16 311.454,-16"/>
<polygon fill="midnightblue" stroke="midnightblue" points="338.159,-19.5001 348.159,-16 338.158,-12.5001 338.159,-19.5001"/>
</g>
<!-- Node37 -->
<g id="node7" class="node"><title>Node37</title>
<g id="a_node7"><a xlink:href="classRangeFinder.html#ad3e3b3a548b8da70aedd97c4be3a5b6d" target="_top" xlink:title=" ">
<polygon fill="white" stroke="black" points="75.9238,-6 75.9238,-26 168.076,-26 168.076,-6 75.9238,-6"/>
<text text-anchor="middle" x="122" y="-12" font-family="Helvetica,sans-Serif" font-size="10.00">RangeFinder::init</text>
</a>
</g>
</g>
<!-- Node36&#45;&gt;Node37 -->
<g id="edge6" class="edge"><title>Node36&#45;&gt;Node37</title>
<path fill="none" stroke="midnightblue" d="M194.287,-16C185.583,-16 176.783,-16 168.476,-16"/>
<polygon fill="midnightblue" stroke="midnightblue" points="194.424,-19.5001 204.424,-16 194.424,-12.5001 194.424,-19.5001"/>
</g>
<!-- Node38 -->
<g id="node8" class="node"><title>Node38</title>
<g id="a_node8"><a xlink:href="RFIND__test_8cpp.html#a4fc01d736fe50cf5b977f755b675f11d" target="_top" xlink:title=" ">
<polygon fill="white" stroke="black" points="-0.231445,-6 -0.231445,-26 40.2314,-26 40.2314,-6 -0.231445,-6"/>
<text text-anchor="middle" x="20" y="-12" font-family="Helvetica,sans-Serif" font-size="10.00">setup</text>
</a>
</g>
</g>
<!-- Node37&#45;&gt;Node38 -->
<g id="edge7" class="edge"><title>Node37&#45;&gt;Node38</title>
<path fill="none" stroke="midnightblue" d="M65.4836,-16C56.4862,-16 47.73,-16 40.3996,-16"/>
<polygon fill="midnightblue" stroke="midnightblue" points="65.6814,-19.5001 75.6814,-16 65.6814,-12.5001 65.6814,-19.5001"/>
</g>
</g>
</svg>
        <g id="navigator" transform="translate(0 0)" fill="#404254">
                <rect fill="#f2f5e9" fill-opacity="0.5" stroke="#606060" stroke-width=".5" x="0" y="0" width="60" height="60"/>
                <use id="zoomplus" xlink:href="#zoomPlus" x="17" y="9" onmousedown="handleZoom(evt,'in')"/>
                <use id="zoomminus" xlink:href="#zoomMin" x="42" y="9" onmousedown="handleZoom(evt,'out')"/>
                <use id="reset" xlink:href="#resetDef" x="30" y="36" onmousedown="handleReset()"/>
                <g id="arrowUp" xlink:href="#dirArrow" transform="translate(30 24)" onmousedown="handlePan(0,-1)">
                  <use xlink:href="#rim" fill="#404040">
                        <set attributeName="fill" to="#808080" begin="arrowUp.mouseover" end="arrowUp.mouseout"/>
                  </use>
                  <path fill="none" stroke="white" stroke-width="1.5" d="M0,-3.0v7 M-2.5,-0.5L0,-3.0L2.5,-0.5"/>
                </g>
                <g id="arrowRight" xlink:href="#dirArrow" transform="rotate(90) translate(36 -43)" onmousedown="handlePan(1,0)">
                  <use xlink:href="#rim" fill="#404040">
                        <set attributeName="fill" to="#808080" begin="arrowRight.mouseover" end="arrowRight.mouseout"/>
                  </use>
                  <path fill="none" stroke="white" stroke-width="1.5" d="M0,-3.0v7 M-2.5,-0.5L0,-3.0L2.5,-0.5"/>
                </g>
                <g id="arrowDown" xlink:href="#dirArrow" transform="rotate(180) translate(-30 -48)" onmousedown="handlePan(0,1)">
                  <use xlink:href="#rim" fill="#404040">
                        <set attributeName="fill" to="#808080" begin="arrowDown.mouseover" end="arrowDown.mouseout"/>
                  </use>
                  <path fill="none" stroke="white" stroke-width="1.5" d="M0,-3.0v7 M-2.5,-0.5L0,-3.0L2.5,-0.5"/>
                </g>
                <g id="arrowLeft" xlink:href="#dirArrow" transform="rotate(270) translate(-36 17)" onmousedown="handlePan(-1,0)">
                  <use xlink:href="#rim" fill="#404040">
                        <set attributeName="fill" to="#808080" begin="arrowLeft.mouseover" end="arrowLeft.mouseout"/>
                  </use>
                  <path fill="none" stroke="white" stroke-width="1.5" d="M0,-3.0v7 M-2.5,-0.5L0,-3.0L2.5,-0.5"/>
                </g>
        </g>
        <svg viewBox="0 0 15 15" width="100%" height="30px" preserveAspectRatio="xMaxYMin meet">
         <g id="arrow_out" transform="scale(0.3 0.3)">
          <a xlink:href="classAP__RangeFinder__VL53L1X_a6970d544ceb4078c67a1069c1389d875_icgraph_org.svg" target="_base">
           <rect id="button" ry="5" rx="5" y="6" x="6" height="38" width="38"
                fill="#f2f5e9" fill-opacity="0.5" stroke="#606060" stroke-width="1.0"/>
           <path id="arrow"
             d="M 11.500037,31.436501 C 11.940474,20.09759 22.043105,11.32322 32.158766,21.979434 L 37.068811,17.246167 C 37.068811,17.246167 37.088388,32 37.088388,32 L 22.160133,31.978069 C 22.160133,31.978069 26.997745,27.140456 26.997745,27.140456 C 18.528582,18.264221 13.291696,25.230495 11.500037,31.436501 z"
             style="fill:#404040;"/>
          </a>
         </g>
        </svg>
</svg>
