<?xml version="1.0" encoding="UTF-8" standalone="no"?>
<!DOCTYPE svg PUBLIC "-//W3C//DTD SVG 1.1//EN"
 "http://www.w3.org/Graphics/SVG/1.1/DTD/svg11.dtd">
<!-- Generated by graphviz version 2.30.1 (20130221.2233)
 -->
<!-- Title: AC_AttitudeControl::control_monitor_log Pages: 1 -->
<svg width="1364pt" height="747pt"
 viewBox="0.00 0.00 1364.00 747.00" xmlns="http://www.w3.org/2000/svg" xmlns:xlink="http://www.w3.org/1999/xlink">
<g id="graph0" class="graph" transform="scale(1 1) rotate(0) translate(4 743)">
<title>AC_AttitudeControl::control_monitor_log</title>
<polygon fill="white" stroke="white" points="-4,5 -4,-743 1361,-743 1361,5 -4,5"/>
<!-- Node123 -->
<g id="node1" class="node"><title>Node123</title>
<g id="a_node1"><a xlink:title=" ">
<polygon fill="#bfbfbf" stroke="black" points="0.308105,-337 0.308105,-369 109.692,-369 109.692,-337 0.308105,-337"/>
<text text-anchor="start" x="8.30811" y="-355" font-family="Helvetica,sans-Serif" font-size="10.00">AC_AttitudeControl</text>
<text text-anchor="middle" x="55" y="-343" font-family="Helvetica,sans-Serif" font-size="10.00">::control_monitor_log</text>
</a>
</g>
</g>
<!-- Node124 -->
<g id="node2" class="node"><title>Node124</title>
<g id="a_node2"><a xlink:href="namespaceAP.html#aa35bfac1ea2da16f110e8e72db7b3b20" target="_top" xlink:title=" ">
<polygon fill="white" stroke="black" points="164.653,-402 164.653,-422 227.347,-422 227.347,-402 164.653,-402"/>
<text text-anchor="middle" x="196" y="-408" font-family="Helvetica,sans-Serif" font-size="10.00">AP::logger</text>
</a>
</g>
</g>
<!-- Node123&#45;&gt;Node124 -->
<g id="edge1" class="edge"><title>Node123&#45;&gt;Node124</title>
<path fill="none" stroke="midnightblue" d="M92.7062,-369.117C108.996,-376.215 128.42,-384.604 146,-392 150.748,-393.997 155.767,-396.079 160.709,-398.113"/>
<polygon fill="midnightblue" stroke="midnightblue" points="159.449,-401.379 170.03,-401.928 162.101,-394.901 159.449,-401.379"/>
</g>
<!-- Node126 -->
<g id="node4" class="node"><title>Node126</title>
<g id="a_node4"><a xlink:href="classAP__Logger.html#a320182e24dfaf50d436cf065c97169bb" target="_top" xlink:title=" ">
<polygon fill="white" stroke="black" points="148.625,-363 148.625,-383 243.375,-383 243.375,-363 148.625,-363"/>
<text text-anchor="middle" x="196" y="-369" font-family="Helvetica,sans-Serif" font-size="10.00">AP_Logger::Write</text>
</a>
</g>
</g>
<!-- Node123&#45;&gt;Node126 -->
<g id="edge3" class="edge"><title>Node123&#45;&gt;Node126</title>
<path fill="none" stroke="midnightblue" d="M109.741,-360.733C119.054,-362.073 128.766,-363.47 138.158,-364.821"/>
<polygon fill="midnightblue" stroke="midnightblue" points="137.794,-368.305 148.191,-366.265 138.791,-361.376 137.794,-368.305"/>
</g>
<!-- Node168 -->
<g id="node46" class="node"><title>Node168</title>
<g id="a_node46"><a xlink:href="namespaceAP__HAL.html#a7aa0ce7625c9680e30ff4a99940907a5" target="_top" xlink:title=" ">
<polygon fill="white" stroke="black" points="145.761,-324 145.761,-344 246.239,-344 246.239,-324 145.761,-324"/>
<text text-anchor="middle" x="196" y="-330" font-family="Helvetica,sans-Serif" font-size="10.00">AP_HAL::micros64</text>
</a>
</g>
</g>
<!-- Node123&#45;&gt;Node168 -->
<g id="edge52" class="edge"><title>Node123&#45;&gt;Node168</title>
<path fill="none" stroke="midnightblue" d="M109.741,-345.654C118.197,-344.498 126.982,-343.297 135.558,-342.125"/>
<polygon fill="midnightblue" stroke="midnightblue" points="136.063,-345.589 145.497,-340.767 135.115,-338.653 136.063,-345.589"/>
</g>
<!-- Node170 -->
<g id="node48" class="node"><title>Node170</title>
<g id="a_node48"><a xlink:href="AP__Math_8cpp.html#ac89eb1832d8e4d67fcf1ac07e3c25184" target="_top" xlink:title=" ">
<polygon fill="white" stroke="black" points="167.434,-285 167.434,-305 224.566,-305 224.566,-285 167.434,-285"/>
<text text-anchor="middle" x="196" y="-291" font-family="Helvetica,sans-Serif" font-size="10.00">safe_sqrt</text>
</a>
</g>
</g>
<!-- Node123&#45;&gt;Node170 -->
<g id="edge54" class="edge"><title>Node123&#45;&gt;Node170</title>
<path fill="none" stroke="midnightblue" d="M92.2098,-336.926C108.576,-329.76 128.198,-321.305 146,-314 150.197,-312.278 154.612,-310.508 159.002,-308.774"/>
<polygon fill="midnightblue" stroke="midnightblue" points="160.44,-311.969 168.478,-305.067 157.89,-305.45 160.44,-311.969"/>
</g>
<!-- Node125 -->
<g id="node3" class="node"><title>Node125</title>
<g id="a_node3"><a xlink:href="classAP__Logger.html#a7dfeda4dc3df2edc8531110c9d7252dc" target="_top" xlink:title=" ">
<polygon fill="white" stroke="black" points="282.456,-402 282.456,-422 413.544,-422 413.544,-402 282.456,-402"/>
<text text-anchor="middle" x="348" y="-408" font-family="Helvetica,sans-Serif" font-size="10.00">AP_Logger::get_singleton</text>
</a>
</g>
</g>
<!-- Node124&#45;&gt;Node125 -->
<g id="edge2" class="edge"><title>Node124&#45;&gt;Node125</title>
<path fill="none" stroke="midnightblue" d="M227.355,-412C240.346,-412 256.148,-412 271.952,-412"/>
<polygon fill="midnightblue" stroke="midnightblue" points="272.308,-415.5 282.308,-412 272.308,-408.5 272.308,-415.5"/>
</g>
<!-- Node127 -->
<g id="node5" class="node"><title>Node127</title>
<g id="a_node5"><a xlink:href="classAP__Logger.html#a634b84e53dd6a1a6338f36ab17c3328b" target="_top" xlink:title=" ">
<polygon fill="white" stroke="black" points="297.29,-363 297.29,-383 398.71,-383 398.71,-363 297.29,-363"/>
<text text-anchor="middle" x="348" y="-369" font-family="Helvetica,sans-Serif" font-size="10.00">AP_Logger::WriteV</text>
</a>
</g>
</g>
<!-- Node126&#45;&gt;Node127 -->
<g id="edge4" class="edge"><title>Node126&#45;&gt;Node127</title>
<path fill="none" stroke="midnightblue" d="M243.639,-373C257.341,-373 272.525,-373 286.941,-373"/>
<polygon fill="midnightblue" stroke="midnightblue" points="287.27,-376.5 297.27,-373 287.27,-369.5 287.27,-376.5"/>
</g>
<!-- Node128 -->
<g id="node6" class="node"><title>Node128</title>
<g id="a_node6"><a xlink:href="classAP__Logger.html#a5ebf2e8e52a17875eafda66570bd6725" target="_top" xlink:title=" ">
<polygon fill="white" stroke="black" points="453.032,-572 453.032,-604 562.968,-604 562.968,-572 453.032,-572"/>
<text text-anchor="start" x="461.032" y="-590" font-family="Helvetica,sans-Serif" font-size="10.00">AP_Logger::msg_fmt</text>
<text text-anchor="middle" x="508" y="-578" font-family="Helvetica,sans-Serif" font-size="10.00">_for_name</text>
</a>
</g>
</g>
<!-- Node127&#45;&gt;Node128 -->
<g id="edge5" class="edge"><title>Node127&#45;&gt;Node128</title>
<path fill="none" stroke="midnightblue" d="M398.841,-382.699C404.322,-385.137 409.527,-388.186 414,-392 467.124,-437.3 492.075,-519.759 501.8,-561.815"/>
<polygon fill="midnightblue" stroke="midnightblue" points="498.435,-562.813 504.002,-571.828 505.272,-561.31 498.435,-562.813"/>
</g>
<!-- Node144 -->
<g id="node22" class="node"><title>Node144</title>
<g id="a_node22"><a xlink:href="namespaceAP.html#afceb236ff617aaaa2b08afacd72532b0" target="_top" xlink:title=" ">
<polygon fill="white" stroke="black" points="622.596,-245 622.596,-265 711.404,-265 711.404,-245 622.596,-245"/>
<text text-anchor="middle" x="667" y="-251" font-family="Helvetica,sans-Serif" font-size="10.00">AP::internalerror</text>
</a>
</g>
</g>
<!-- Node127&#45;&gt;Node144 -->
<g id="edge22" class="edge"><title>Node127&#45;&gt;Node144</title>
<path fill="none" stroke="midnightblue" d="M389.78,-362.937C398.018,-360.223 406.459,-356.924 414,-353 431.981,-343.644 432.138,-334.582 450,-325 512.792,-291.315 534.057,-295.476 602,-274 608.386,-271.982 615.149,-269.906 621.795,-267.903"/>
<polygon fill="midnightblue" stroke="midnightblue" points="622.811,-271.252 631.389,-265.034 620.805,-264.546 622.811,-271.252"/>
</g>
<!-- Node145 -->
<g id="node23" class="node"><title>Node145</title>
<g id="a_node23"><a xlink:href="classAP__InternalError.html#ab34174ba770b976b39a18c2b23e854f2" target="_top" xlink:title=" ">
<polygon fill="white" stroke="black" points="608.426,-386 608.426,-406 725.574,-406 725.574,-386 608.426,-386"/>
<text text-anchor="middle" x="667" y="-392" font-family="Helvetica,sans-Serif" font-size="10.00">AP_InternalError::error</text>
</a>
</g>
</g>
<!-- Node127&#45;&gt;Node145 -->
<g id="edge23" class="edge"><title>Node127&#45;&gt;Node145</title>
<path fill="none" stroke="midnightblue" d="M398.88,-376.619C452.612,-380.518 538.435,-386.744 598.251,-391.084"/>
<polygon fill="midnightblue" stroke="midnightblue" points="598.133,-394.585 608.36,-391.818 598.639,-387.603 598.133,-394.585"/>
</g>
<!-- Node146 -->
<g id="node24" class="node"><title>Node146</title>
<g id="a_node24"><a xlink:href="classAP__Logger__Backend.html#a1eb686ed78c7fd4915dbcd0d3f926abe" target="_top" xlink:title=" ">
<polygon fill="white" stroke="black" points="449.963,-335 449.963,-367 566.037,-367 566.037,-335 449.963,-335"/>
<text text-anchor="start" x="457.963" y="-353" font-family="Helvetica,sans-Serif" font-size="10.00">AP_Logger_Backend::</text>
<text text-anchor="middle" x="508" y="-341" font-family="Helvetica,sans-Serif" font-size="10.00">Write</text>
</a>
</g>
</g>
<!-- Node127&#45;&gt;Node146 -->
<g id="edge25" class="edge"><title>Node127&#45;&gt;Node146</title>
<path fill="none" stroke="midnightblue" d="M398.992,-366.039C411.888,-364.243 425.982,-362.281 439.604,-360.384"/>
<polygon fill="midnightblue" stroke="midnightblue" points="440.481,-363.796 449.903,-358.95 439.515,-356.863 440.481,-363.796"/>
</g>
<!-- Node129 -->
<g id="node7" class="node"><title>Node129</title>
<g id="a_node7"><a xlink:href="classAP__Logger.html#a9dc02b39770c141ccdbc624c23f5d3ec" target="_top" xlink:title=" ">
<polygon fill="white" stroke="black" points="602.579,-550 602.579,-582 731.421,-582 731.421,-550 602.579,-550"/>
<text text-anchor="start" x="610.579" y="-568" font-family="Helvetica,sans-Serif" font-size="10.00">AP_Logger::assert_same</text>
<text text-anchor="middle" x="667" y="-556" font-family="Helvetica,sans-Serif" font-size="10.00">_fmt_for_name</text>
</a>
</g>
</g>
<!-- Node128&#45;&gt;Node129 -->
<g id="edge6" class="edge"><title>Node128&#45;&gt;Node129</title>
<path fill="none" stroke="midnightblue" d="M563.03,-580.429C572.444,-579.11 582.38,-577.717 592.217,-576.339"/>
<polygon fill="midnightblue" stroke="midnightblue" points="592.988,-579.765 602.406,-574.911 592.017,-572.833 592.988,-579.765"/>
</g>
<!-- Node130 -->
<g id="node8" class="node"><title>Node130</title>
<g id="a_node8"><a xlink:href="malloc_8c.html#a62b7798461bd461da64c5f9d35feddf7" target="_top" xlink:title=" ">
<polygon fill="white" stroke="black" points="646.217,-718 646.217,-738 687.783,-738 687.783,-718 646.217,-718"/>
<text text-anchor="middle" x="667" y="-724" font-family="Helvetica,sans-Serif" font-size="10.00">calloc</text>
</a>
</g>
</g>
<!-- Node128&#45;&gt;Node130 -->
<g id="edge7" class="edge"><title>Node128&#45;&gt;Node130</title>
<path fill="none" stroke="midnightblue" d="M517.252,-604.151C531.22,-629.9 561.954,-680.179 602,-708 612.101,-715.018 624.766,-719.649 636.158,-722.669"/>
<polygon fill="midnightblue" stroke="midnightblue" points="635.617,-726.137 646.152,-725.012 637.214,-719.322 635.617,-726.137"/>
</g>
<!-- Node133 -->
<g id="node11" class="node"><title>Node133</title>
<g id="a_node11"><a xlink:href="classAP__Logger.html#a6d5784e824afb4f19d211e432b1676bf" target="_top" xlink:title=" ">
<polygon fill="white" stroke="black" points="611.744,-448 611.744,-480 722.256,-480 722.256,-448 611.744,-448"/>
<text text-anchor="start" x="619.744" y="-466" font-family="Helvetica,sans-Serif" font-size="10.00">AP_Logger::find_free</text>
<text text-anchor="middle" x="667" y="-454" font-family="Helvetica,sans-Serif" font-size="10.00">_msg_type</text>
</a>
</g>
</g>
<!-- Node128&#45;&gt;Node133 -->
<g id="edge10" class="edge"><title>Node128&#45;&gt;Node133</title>
<path fill="none" stroke="midnightblue" d="M520.497,-571.849C536.554,-550.322 567.617,-512.247 602,-489 604.162,-487.538 606.421,-486.144 608.746,-484.816"/>
<polygon fill="midnightblue" stroke="midnightblue" points="610.71,-487.74 617.969,-480.022 607.482,-481.529 610.71,-487.74"/>
</g>
<!-- Node136 -->
<g id="node14" class="node"><title>Node136</title>
<g id="a_node14"><a xlink:href="malloc_8c.html#afbedc913aa4651b3c3b4b3aecd9b4711" target="_top" xlink:title=" ">
<polygon fill="white" stroke="black" points="650.384,-679 650.384,-699 683.616,-699 683.616,-679 650.384,-679"/>
<text text-anchor="middle" x="667" y="-685" font-family="Helvetica,sans-Serif" font-size="10.00">free</text>
</a>
</g>
</g>
<!-- Node128&#45;&gt;Node136 -->
<g id="edge13" class="edge"><title>Node128&#45;&gt;Node136</title>
<path fill="none" stroke="midnightblue" d="M525.284,-604.014C542.975,-620.731 572.654,-646.854 602,-664 614.15,-671.099 628.693,-676.964 640.843,-681.225"/>
<polygon fill="midnightblue" stroke="midnightblue" points="639.787,-684.563 650.381,-684.419 642.01,-677.925 639.787,-684.563"/>
</g>
<!-- Node137 -->
<g id="node15" class="node"><title>Node137</title>
<g id="a_node15"><a xlink:href="classAP__Logger.html#abc01e4830615fed31d9e0fc997ca4010" target="_top" xlink:title=" ">
<polygon fill="white" stroke="black" points="782.953,-544 782.953,-576 901.047,-576 901.047,-544 782.953,-544"/>
<text text-anchor="start" x="790.953" y="-562" font-family="Helvetica,sans-Serif" font-size="10.00">AP_Logger::Write_calc</text>
<text text-anchor="middle" x="842" y="-550" font-family="Helvetica,sans-Serif" font-size="10.00">_msg_len</text>
</a>
</g>
</g>
<!-- Node128&#45;&gt;Node137 -->
<g id="edge14" class="edge"><title>Node128&#45;&gt;Node137</title>
<path fill="none" stroke="midnightblue" d="M536.421,-604.12C554.4,-613.729 578.793,-625.003 602,-630 658.483,-642.163 676.56,-646.269 732,-630 763.434,-620.776 794.386,-599.385 815.228,-582.66"/>
<polygon fill="midnightblue" stroke="midnightblue" points="817.475,-585.344 822.97,-576.286 813.025,-579.94 817.475,-585.344"/>
</g>
<!-- Node141 -->
<g id="node19" class="node"><title>Node141</title>
<g id="a_node19"><a xlink:href="AP__Math_8h.html#a321a91de43cfb2e95d40cde314d0a80f" target="_top" xlink:title=" ">
<polygon fill="white" stroke="black" points="649.835,-601 649.835,-621 684.165,-621 684.165,-601 649.835,-601"/>
<text text-anchor="middle" x="667" y="-607" font-family="Helvetica,sans-Serif" font-size="10.00">MIN</text>
</a>
</g>
</g>
<!-- Node128&#45;&gt;Node141 -->
<g id="edge18" class="edge"><title>Node128&#45;&gt;Node141</title>
<path fill="none" stroke="midnightblue" d="M563.03,-595.915C588.863,-599.7 618.624,-604.06 639.485,-607.116"/>
<polygon fill="midnightblue" stroke="midnightblue" points="639.114,-610.599 649.516,-608.585 640.129,-603.672 639.114,-610.599"/>
</g>
<!-- Node142 -->
<g id="node20" class="node"><title>Node142</title>
<g id="a_node20"><a xlink:href="classAP__Logger.html#ab4bb4fd07aaa2a108c256e4393c6bc6d" target="_top" xlink:title=" ">
<polygon fill="white" stroke="black" points="613.968,-499 613.968,-531 720.032,-531 720.032,-499 613.968,-499"/>
<text text-anchor="start" x="621.968" y="-517" font-family="Helvetica,sans-Serif" font-size="10.00">AP_Logger::validate</text>
<text text-anchor="middle" x="667" y="-505" font-family="Helvetica,sans-Serif" font-size="10.00">_structure</text>
</a>
</g>
</g>
<!-- Node128&#45;&gt;Node142 -->
<g id="edge19" class="edge"><title>Node128&#45;&gt;Node142</title>
<path fill="none" stroke="midnightblue" d="M538.351,-571.854C556.466,-562.141 580.31,-549.802 602,-540 605.791,-538.287 609.737,-536.576 613.725,-534.9"/>
<polygon fill="midnightblue" stroke="midnightblue" points="615.137,-538.104 623.055,-531.064 612.475,-531.63 615.137,-538.104"/>
</g>
<!-- Node131 -->
<g id="node9" class="node"><title>Node131</title>
<g id="a_node9"><a xlink:href="malloc_8c.html#a7ac38fce3243a7dcf448301ee9ffd392" target="_top" xlink:title=" ">
<polygon fill="white" stroke="black" points="819.552,-718 819.552,-738 864.448,-738 864.448,-718 819.552,-718"/>
<text text-anchor="middle" x="842" y="-724" font-family="Helvetica,sans-Serif" font-size="10.00">malloc</text>
</a>
</g>
</g>
<!-- Node130&#45;&gt;Node131 -->
<g id="edge8" class="edge"><title>Node130&#45;&gt;Node131</title>
<path fill="none" stroke="midnightblue" d="M687.845,-728C717.525,-728 773.769,-728 809.216,-728"/>
<polygon fill="midnightblue" stroke="midnightblue" points="809.496,-731.5 819.496,-728 809.496,-724.5 809.496,-731.5"/>
</g>
<!-- Node132 -->
<g id="node10" class="node"><title>Node132</title>
<g id="a_node10"><a xlink:href="malloc_8c.html#aa5c105052a59261e63119d5203374a41" target="_top" xlink:title=" ">
<polygon fill="white" stroke="black" points="990.209,-718 990.209,-738 1061.79,-738 1061.79,-718 990.209,-718"/>
<text text-anchor="middle" x="1026" y="-724" font-family="Helvetica,sans-Serif" font-size="10.00">malloc_flags</text>
</a>
</g>
</g>
<!-- Node131&#45;&gt;Node132 -->
<g id="edge9" class="edge"><title>Node131&#45;&gt;Node132</title>
<path fill="none" stroke="midnightblue" d="M864.592,-728C892.788,-728 942.87,-728 979.594,-728"/>
<polygon fill="midnightblue" stroke="midnightblue" points="980.045,-731.5 990.045,-728 980.045,-724.5 980.045,-731.5"/>
</g>
<!-- Node134 -->
<g id="node12" class="node"><title>Node134</title>
<g id="a_node12"><a xlink:href="classAP__Logger.html#a9b9ca8751dfec125d32e0171c69085b2" target="_top" xlink:title=" ">
<polygon fill="white" stroke="black" points="784.525,-454 784.525,-486 899.475,-486 899.475,-454 784.525,-454"/>
<text text-anchor="start" x="792.525" y="-472" font-family="Helvetica,sans-Serif" font-size="10.00">AP_Logger::msg_type</text>
<text text-anchor="middle" x="842" y="-460" font-family="Helvetica,sans-Serif" font-size="10.00">_in_use</text>
</a>
</g>
</g>
<!-- Node133&#45;&gt;Node134 -->
<g id="edge11" class="edge"><title>Node133&#45;&gt;Node134</title>
<path fill="none" stroke="midnightblue" d="M722.264,-465.882C738.594,-466.448 756.713,-467.077 773.777,-467.669"/>
<polygon fill="midnightblue" stroke="midnightblue" points="774.125,-471.183 784.24,-468.031 774.367,-464.187 774.125,-471.183"/>
</g>
<!-- Node135 -->
<g id="node13" class="node"><title>Node135</title>
<g id="a_node13"><a xlink:href="classAP__Logger.html#a2c8453adaaf9f8678f8f04553075b3cb" target="_top" xlink:title=" ">
<polygon fill="white" stroke="black" points="1138.75,-412 1138.75,-432 1249.25,-432 1249.25,-412 1138.75,-412"/>
<text text-anchor="middle" x="1194" y="-418" font-family="Helvetica,sans-Serif" font-size="10.00">AP_Logger::structure</text>
</a>
</g>
</g>
<!-- Node134&#45;&gt;Node135 -->
<g id="edge12" class="edge"><title>Node134&#45;&gt;Node135</title>
<path fill="none" stroke="midnightblue" d="M899.727,-463.248C951.85,-456.918 1031.22,-446.96 1100,-437 1109.25,-435.661 1119,-434.172 1128.58,-432.667"/>
<polygon fill="midnightblue" stroke="midnightblue" points="1129.13,-436.123 1138.46,-431.098 1128.03,-429.209 1129.13,-436.123"/>
</g>
<!-- Node138 -->
<g id="node16" class="node"><title>Node138</title>
<g id="a_node16"><a xlink:href="namespaceAP__HAL.html#a71832f03d849a0c088f04fc98d3c8143" target="_top" xlink:title=" ">
<polygon fill="white" stroke="black" points="984.091,-486 984.091,-506 1067.91,-506 1067.91,-486 984.091,-486"/>
<text text-anchor="middle" x="1026" y="-492" font-family="Helvetica,sans-Serif" font-size="10.00">AP_HAL::panic</text>
</a>
</g>
</g>
<!-- Node137&#45;&gt;Node138 -->
<g id="edge15" class="edge"><title>Node137&#45;&gt;Node138</title>
<path fill="none" stroke="midnightblue" d="M888.926,-543.85C919.164,-533.217 958.284,-519.46 986.814,-509.428"/>
<polygon fill="midnightblue" stroke="midnightblue" points="988.159,-512.665 996.431,-506.046 985.836,-506.062 988.159,-512.665"/>
</g>
<!-- Node139 -->
<g id="node17" class="node"><title>Node139</title>
<g id="a_node17"><a xlink:href="stdio_8h.html#aae132cc6af1eb6cf43bf011d8d63e854" target="_top" xlink:title=" ">
<polygon fill="white" stroke="black" points="1172.38,-521 1172.38,-541 1215.62,-541 1215.62,-521 1172.38,-521"/>
<text text-anchor="middle" x="1194" y="-527" font-family="Helvetica,sans-Serif" font-size="10.00">vprintf</text>
</a>
</g>
</g>
<!-- Node138&#45;&gt;Node139 -->
<g id="edge16" class="edge"><title>Node138&#45;&gt;Node139</title>
<path fill="none" stroke="midnightblue" d="M1068.03,-504.652C1097.19,-510.799 1135.72,-518.924 1162.25,-524.517"/>
<polygon fill="midnightblue" stroke="midnightblue" points="1161.63,-527.962 1172.13,-526.6 1163.07,-521.113 1161.63,-527.962"/>
</g>
<!-- Node140 -->
<g id="node18" class="node"><title>Node140</title>
<g id="a_node18"><a xlink:href="classAP__HAL_1_1Scheduler.html#a78c4f1b1f192ac1c99544b6cc8f099b0" target="_top" xlink:title=" ">
<polygon fill="white" stroke="black" points="1138.75,-470 1138.75,-502 1249.25,-502 1249.25,-470 1138.75,-470"/>
<text text-anchor="start" x="1146.75" y="-488" font-family="Helvetica,sans-Serif" font-size="10.00">AP_HAL::Scheduler::</text>
<text text-anchor="middle" x="1194" y="-476" font-family="Helvetica,sans-Serif" font-size="10.00">delay_microseconds</text>
</a>
</g>
</g>
<!-- Node138&#45;&gt;Node140 -->
<g id="edge17" class="edge"><title>Node138&#45;&gt;Node140</title>
<path fill="none" stroke="midnightblue" d="M1068.03,-493.528C1086.27,-492.43 1108.17,-491.11 1128.51,-489.885"/>
<polygon fill="midnightblue" stroke="midnightblue" points="1128.88,-493.369 1138.66,-489.274 1128.46,-486.381 1128.88,-493.369"/>
</g>
<!-- Node143 -->
<g id="node21" class="node"><title>Node143</title>
<g id="a_node21"><a xlink:href="AP__Logger_8cpp.html#a6c29cfdd6f10b5426f57e67da4d1263a" target="_top" xlink:title="return the number of commas present in string">
<polygon fill="white" stroke="black" points="800.096,-505 800.096,-525 883.904,-525 883.904,-505 800.096,-505"/>
<text text-anchor="middle" x="842" y="-511" font-family="Helvetica,sans-Serif" font-size="10.00">count_commas</text>
</a>
</g>
</g>
<!-- Node142&#45;&gt;Node143 -->
<g id="edge20" class="edge"><title>Node142&#45;&gt;Node143</title>
<path fill="none" stroke="midnightblue" d="M720.375,-515C742.439,-515 768.032,-515 789.951,-515"/>
<polygon fill="midnightblue" stroke="midnightblue" points="790.061,-518.5 800.06,-515 790.06,-511.5 790.061,-518.5"/>
</g>
<!-- Node142&#45;&gt;Node137 -->
<g id="edge21" class="edge"><title>Node142&#45;&gt;Node137</title>
<path fill="none" stroke="midnightblue" d="M720.375,-528.624C736.836,-532.905 755.26,-537.698 772.657,-542.223"/>
<polygon fill="midnightblue" stroke="midnightblue" points="772.201,-545.721 782.76,-544.851 773.963,-538.946 772.201,-545.721"/>
</g>
<!-- Node145&#45;&gt;Node138 -->
<g id="edge24" class="edge"><title>Node145&#45;&gt;Node138</title>
<path fill="none" stroke="midnightblue" d="M725.684,-402.935C776.631,-410.05 852.478,-423.079 916,-444 945.317,-453.655 976.962,-469.402 998.562,-481.041"/>
<polygon fill="midnightblue" stroke="midnightblue" points="996.998,-484.175 1007.45,-485.905 1000.36,-478.035 996.998,-484.175"/>
</g>
<!-- Node146&#45;&gt;Node144 -->
<g id="edge26" class="edge"><title>Node146&#45;&gt;Node144</title>
<path fill="none" stroke="midnightblue" d="M524.332,-334.9C541.671,-317.561 571.484,-290.28 602,-274 605.739,-272.005 609.715,-270.193 613.785,-268.551"/>
<polygon fill="midnightblue" stroke="midnightblue" points="615.203,-271.759 623.383,-265.026 612.789,-265.188 615.203,-271.759"/>
</g>
<!-- Node146&#45;&gt;Node145 -->
<g id="edge27" class="edge"><title>Node146&#45;&gt;Node145</title>
<path fill="none" stroke="midnightblue" d="M565.237,-367.119C583.478,-372.347 603.467,-378.077 620.798,-383.044"/>
<polygon fill="midnightblue" stroke="midnightblue" points="620.085,-386.48 630.662,-385.871 622.014,-379.751 620.085,-386.48"/>
</g>
<!-- Node147 -->
<g id="node25" class="node"><title>Node147</title>
<g id="a_node25"><a xlink:href="classAP__Logger__Backend.html#a05d172b1b6f4970acd0ea22ea1401a96" target="_top" xlink:title=" ">
<polygon fill="white" stroke="black" points="608.963,-335 608.963,-367 725.037,-367 725.037,-335 608.963,-335"/>
<text text-anchor="start" x="616.963" y="-353" font-family="Helvetica,sans-Serif" font-size="10.00">AP_Logger_Backend::</text>
<text text-anchor="middle" x="667" y="-341" font-family="Helvetica,sans-Serif" font-size="10.00">bufferspace_available</text>
</a>
</g>
</g>
<!-- Node146&#45;&gt;Node147 -->
<g id="edge28" class="edge"><title>Node146&#45;&gt;Node147</title>
<path fill="none" stroke="midnightblue" d="M566.125,-351C576.689,-351 587.812,-351 598.647,-351"/>
<polygon fill="midnightblue" stroke="midnightblue" points="598.918,-354.5 608.918,-351 598.918,-347.5 598.918,-354.5"/>
</g>
<!-- Node148 -->
<g id="node26" class="node"><title>Node148</title>
<g id="a_node26"><a xlink:href="classAP__Logger__Backend.html#aa348a976713b90724929275d266b2b5a" target="_top" xlink:title=" ">
<polygon fill="white" stroke="black" points="608.963,-284 608.963,-316 725.037,-316 725.037,-284 608.963,-284"/>
<text text-anchor="start" x="616.963" y="-302" font-family="Helvetica,sans-Serif" font-size="10.00">AP_Logger_Backend::</text>
<text text-anchor="middle" x="667" y="-290" font-family="Helvetica,sans-Serif" font-size="10.00">WritePrioritisedBlock</text>
</a>
</g>
</g>
<!-- Node146&#45;&gt;Node148 -->
<g id="edge29" class="edge"><title>Node146&#45;&gt;Node148</title>
<path fill="none" stroke="midnightblue" d="M558.676,-334.863C574.001,-329.885 591.029,-324.354 606.923,-319.191"/>
<polygon fill="midnightblue" stroke="midnightblue" points="608.218,-322.45 616.647,-316.032 606.055,-315.793 608.218,-322.45"/>
</g>
<!-- Node149 -->
<g id="node27" class="node"><title>Node149</title>
<g id="a_node27"><a xlink:href="classAP__Logger__Backend.html#ab92d531ecdcbc5730b974fddc52aac97" target="_top" xlink:title=" ">
<polygon fill="white" stroke="black" points="767.953,-364 767.953,-396 916.047,-396 916.047,-364 767.953,-364"/>
<text text-anchor="start" x="775.953" y="-382" font-family="Helvetica,sans-Serif" font-size="10.00">AP_Logger_Backend::</text>
<text text-anchor="middle" x="842" y="-370" font-family="Helvetica,sans-Serif" font-size="10.00">validate_WritePrioritisedBlock</text>
</a>
</g>
</g>
<!-- Node148&#45;&gt;Node149 -->
<g id="edge30" class="edge"><title>Node148&#45;&gt;Node149</title>
<path fill="none" stroke="midnightblue" d="M714.249,-316.099C720.357,-318.79 726.427,-321.77 732,-325 749.776,-335.302 750.07,-343.968 768,-354 771.698,-356.069 775.592,-358.023 779.576,-359.858"/>
<polygon fill="midnightblue" stroke="midnightblue" points="778.422,-363.172 788.99,-363.924 781.197,-356.746 778.422,-363.172"/>
</g>
<!-- Node152 -->
<g id="node30" class="node"><title>Node152</title>
<g id="a_node30"><a xlink:href="classAP__Logger__Backend.html#a78f7474b65a1124818be394886b9d0fb" target="_top" xlink:title=" ">
<polygon fill="white" stroke="black" points="783.963,-160 783.963,-192 900.037,-192 900.037,-160 783.963,-160"/>
<text text-anchor="start" x="791.963" y="-178" font-family="Helvetica,sans-Serif" font-size="10.00">AP_Logger_Backend::</text>
<text text-anchor="middle" x="842" y="-166" font-family="Helvetica,sans-Serif" font-size="10.00">ShouldLog</text>
</a>
</g>
</g>
<!-- Node148&#45;&gt;Node152 -->
<g id="edge35" class="edge"><title>Node148&#45;&gt;Node152</title>
<path fill="none" stroke="midnightblue" d="M718.068,-283.984C723.104,-281.145 727.873,-277.839 732,-274 758.487,-249.361 740.834,-224.889 768,-201 770.216,-199.051 772.592,-197.252 775.083,-195.593"/>
<polygon fill="midnightblue" stroke="midnightblue" points="777.033,-198.508 783.932,-190.468 773.525,-192.45 777.033,-198.508"/>
</g>
<!-- Node162 -->
<g id="node40" class="node"><title>Node162</title>
<g id="a_node40"><a xlink:href="classAP__Logger__Backend.html#a819d8bdf6a09b180c7608c72849619bf" target="_top" xlink:title=" ">
<polygon fill="white" stroke="black" points="783.963,-64 783.963,-96 900.037,-96 900.037,-64 783.963,-64"/>
<text text-anchor="start" x="791.963" y="-82" font-family="Helvetica,sans-Serif" font-size="10.00">AP_Logger_Backend::</text>
<text text-anchor="middle" x="842" y="-70" font-family="Helvetica,sans-Serif" font-size="10.00">StartNewLogOK</text>
</a>
</g>
</g>
<!-- Node148&#45;&gt;Node162 -->
<g id="edge45" class="edge"><title>Node148&#45;&gt;Node162</title>
<path fill="none" stroke="midnightblue" d="M720.018,-283.908C724.448,-281.107 728.547,-277.83 732,-274 770.429,-231.38 738.276,-199.089 768,-150 779.05,-131.751 796.055,-115.056 810.873,-102.552"/>
<polygon fill="midnightblue" stroke="midnightblue" points="813.298,-105.089 818.828,-96.0521 808.87,-99.6684 813.298,-105.089"/>
</g>
<!-- Node165 -->
<g id="node43" class="node"><title>Node165</title>
<g id="a_node43"><a xlink:href="classAP__Logger__Backend.html#a78de993b21ba40b94442cb38035149b1" target="_top" xlink:title=" ">
<polygon fill="white" stroke="black" points="783.963,-313 783.963,-345 900.037,-345 900.037,-313 783.963,-313"/>
<text text-anchor="start" x="791.963" y="-331" font-family="Helvetica,sans-Serif" font-size="10.00">AP_Logger_Backend::</text>
<text text-anchor="middle" x="842" y="-319" font-family="Helvetica,sans-Serif" font-size="10.00">start_new_log</text>
</a>
</g>
</g>
<!-- Node148&#45;&gt;Node165 -->
<g id="edge49" class="edge"><title>Node148&#45;&gt;Node165</title>
<path fill="none" stroke="midnightblue" d="M725.126,-309.576C740.775,-312.199 757.879,-315.066 774.026,-317.773"/>
<polygon fill="midnightblue" stroke="midnightblue" points="773.493,-321.233 783.934,-319.434 774.65,-314.329 773.493,-321.233"/>
</g>
<!-- Node166 -->
<g id="node44" class="node"><title>Node166</title>
<g id="a_node44"><a xlink:href="classAP__Logger__Backend.html#a0f2ae17abc0d5faf3dd2c4a47f3a57fc" target="_top" xlink:title=" ">
<polygon fill="white" stroke="black" points="783.963,-262 783.963,-294 900.037,-294 900.037,-262 783.963,-262"/>
<text text-anchor="start" x="791.963" y="-280" font-family="Helvetica,sans-Serif" font-size="10.00">AP_Logger_Backend::</text>
<text text-anchor="middle" x="842" y="-268" font-family="Helvetica,sans-Serif" font-size="10.00">WritesOK</text>
</a>
</g>
</g>
<!-- Node148&#45;&gt;Node166 -->
<g id="edge50" class="edge"><title>Node148&#45;&gt;Node166</title>
<path fill="none" stroke="midnightblue" d="M725.126,-292.735C740.627,-290.764 757.557,-288.611 773.568,-286.575"/>
<polygon fill="midnightblue" stroke="midnightblue" points="774.455,-289.991 783.934,-285.257 773.572,-283.047 774.455,-289.991"/>
</g>
<!-- Node167 -->
<g id="node45" class="node"><title>Node167</title>
<g id="a_node45"><a xlink:href="classAP__Logger__Backend.html#a22be4b8bb20ba7bed2fa28eef632b13c" target="_top" xlink:title=" ">
<polygon fill="white" stroke="black" points="783.963,-211 783.963,-243 900.037,-243 900.037,-211 783.963,-211"/>
<text text-anchor="start" x="791.963" y="-229" font-family="Helvetica,sans-Serif" font-size="10.00">AP_Logger_Backend::</text>
<text text-anchor="middle" x="842" y="-217" font-family="Helvetica,sans-Serif" font-size="10.00">_WritePrioritisedBlock</text>
</a>
</g>
</g>
<!-- Node148&#45;&gt;Node167 -->
<g id="edge51" class="edge"><title>Node148&#45;&gt;Node167</title>
<path fill="none" stroke="midnightblue" d="M710.436,-283.896C717.721,-280.811 725.147,-277.457 732,-274 748.741,-265.554 751.029,-259.974 768,-252 771.819,-250.205 775.804,-248.474 779.855,-246.817"/>
<polygon fill="midnightblue" stroke="midnightblue" points="781.344,-249.993 789.384,-243.093 778.796,-243.474 781.344,-249.993"/>
</g>
<!-- Node149&#45;&gt;Node138 -->
<g id="edge31" class="edge"><title>Node149&#45;&gt;Node138</title>
<path fill="none" stroke="midnightblue" d="M885.991,-396.053C896.085,-400.419 906.626,-405.483 916,-411 925.318,-416.484 975.531,-456.368 1004.45,-479.503"/>
<polygon fill="midnightblue" stroke="midnightblue" points="1002.33,-482.295 1012.33,-485.816 1006.71,-476.832 1002.33,-482.295"/>
</g>
<!-- Node150 -->
<g id="node28" class="node"><title>Node150</title>
<g id="a_node28"><a xlink:href="classAP__Logger.html#a46b9809021c0087f395f2c1cb09bd9c9" target="_top" xlink:title=" ">
<polygon fill="white" stroke="black" points="970.751,-396 970.751,-428 1081.25,-428 1081.25,-396 970.751,-396"/>
<text text-anchor="start" x="978.751" y="-414" font-family="Helvetica,sans-Serif" font-size="10.00">AP_Logger::structure</text>
<text text-anchor="middle" x="1026" y="-402" font-family="Helvetica,sans-Serif" font-size="10.00">_for_msg_type</text>
</a>
</g>
</g>
<!-- Node149&#45;&gt;Node150 -->
<g id="edge32" class="edge"><title>Node149&#45;&gt;Node150</title>
<path fill="none" stroke="midnightblue" d="M916.24,-392.877C930.865,-395.449 946.126,-398.132 960.433,-400.648"/>
<polygon fill="midnightblue" stroke="midnightblue" points="960.205,-404.161 970.66,-402.446 961.417,-397.267 960.205,-404.161"/>
</g>
<!-- Node151 -->
<g id="node29" class="node"><title>Node151</title>
<g id="a_node29"><a xlink:href="classAP__Logger.html#ac24c3dd3709f28a0442afbdf963ddf2b" target="_top" xlink:title=" ">
<polygon fill="white" stroke="black" points="970.192,-345 970.192,-377 1081.81,-377 1081.81,-345 970.192,-345"/>
<text text-anchor="start" x="978.192" y="-363" font-family="Helvetica,sans-Serif" font-size="10.00">AP_Logger::log_write</text>
<text text-anchor="middle" x="1026" y="-351" font-family="Helvetica,sans-Serif" font-size="10.00">_fmt_for_msg_type</text>
</a>
</g>
</g>
<!-- Node149&#45;&gt;Node151 -->
<g id="edge34" class="edge"><title>Node149&#45;&gt;Node151</title>
<path fill="none" stroke="midnightblue" d="M916.24,-372.354C930.706,-370.844 945.795,-369.269 959.967,-367.789"/>
<polygon fill="midnightblue" stroke="midnightblue" points="960.519,-371.251 970.102,-366.731 959.792,-364.288 960.519,-371.251"/>
</g>
<!-- Node150&#45;&gt;Node135 -->
<g id="edge33" class="edge"><title>Node150&#45;&gt;Node135</title>
<path fill="none" stroke="midnightblue" d="M1081.35,-415.274C1096.4,-416.181 1112.88,-417.174 1128.45,-418.111"/>
<polygon fill="midnightblue" stroke="midnightblue" points="1128.33,-421.611 1138.52,-418.718 1128.75,-414.623 1128.33,-421.611"/>
</g>
<!-- Node153 -->
<g id="node31" class="node"><title>Node153</title>
<g id="a_node31"><a xlink:href="classAP__Logger.html#a85b93103598d68270b8a3076020b1d87" target="_top" xlink:title=" ">
<polygon fill="white" stroke="black" points="957.775,-294 957.775,-314 1094.22,-314 1094.22,-294 957.775,-294"/>
<text text-anchor="middle" x="1026" y="-300" font-family="Helvetica,sans-Serif" font-size="10.00">AP_Logger::WritesEnabled</text>
</a>
</g>
</g>
<!-- Node152&#45;&gt;Node153 -->
<g id="edge36" class="edge"><title>Node152&#45;&gt;Node153</title>
<path fill="none" stroke="midnightblue" d="M900.274,-190.239C905.988,-193.182 911.375,-196.728 916,-201 945.537,-228.283 921.625,-257.654 952,-284 954.041,-285.77 956.225,-287.386 958.517,-288.859"/>
<polygon fill="midnightblue" stroke="midnightblue" points="957.344,-292.203 967.807,-293.867 960.665,-286.041 957.344,-292.203"/>
</g>
<!-- Node154 -->
<g id="node32" class="node"><title>Node154</title>
<g id="a_node32"><a xlink:href="classLoggerMessageWriter.html#a78cf43b4f6c097eec1790015fed5fb98" target="_top" xlink:title=" ">
<polygon fill="white" stroke="black" points="968.901,-243 968.901,-275 1083.1,-275 1083.1,-243 968.901,-243"/>
<text text-anchor="start" x="976.901" y="-261" font-family="Helvetica,sans-Serif" font-size="10.00">LoggerMessageWriter</text>
<text text-anchor="middle" x="1026" y="-249" font-family="Helvetica,sans-Serif" font-size="10.00">::finished</text>
</a>
</g>
</g>
<!-- Node152&#45;&gt;Node154 -->
<g id="edge37" class="edge"><title>Node152&#45;&gt;Node154</title>
<path fill="none" stroke="midnightblue" d="M897.88,-192.113C904.157,-194.733 910.331,-197.691 916,-201 934.489,-211.791 933.577,-222.097 952,-233 955.419,-235.024 959.021,-236.926 962.717,-238.709"/>
<polygon fill="midnightblue" stroke="midnightblue" points="961.495,-241.997 972.052,-242.894 964.359,-235.609 961.495,-241.997"/>
</g>
<!-- Node155 -->
<g id="node33" class="node"><title>Node155</title>
<g id="a_node33"><a xlink:href="classAP__HAL_1_1Scheduler.html#a555ccd11a987cf0fd4bfdf7edcd67028" target="_top" xlink:title=" ">
<polygon fill="white" stroke="black" points="970.751,-90 970.751,-122 1081.25,-122 1081.25,-90 970.751,-90"/>
<text text-anchor="start" x="978.751" y="-108" font-family="Helvetica,sans-Serif" font-size="10.00">AP_HAL::Scheduler::</text>
<text text-anchor="middle" x="1026" y="-96" font-family="Helvetica,sans-Serif" font-size="10.00">in_main_thread</text>
</a>
</g>
</g>
<!-- Node152&#45;&gt;Node155 -->
<g id="edge38" class="edge"><title>Node152&#45;&gt;Node155</title>
<path fill="none" stroke="midnightblue" d="M880.356,-159.911C901.295,-151.061 927.96,-140.069 952,-131 956.812,-129.185 961.822,-127.352 966.863,-125.547"/>
<polygon fill="midnightblue" stroke="midnightblue" points="968.289,-128.755 976.551,-122.124 965.957,-122.155 968.289,-128.755"/>
</g>
<!-- Node156 -->
<g id="node34" class="node"><title>Node156</title>
<g id="a_node34"><a xlink:href="classAP__Logger.html#ae4fe1337d154fa1508237f006d9f0a82" target="_top" xlink:title=" ">
<polygon fill="white" stroke="black" points="974.638,-192 974.638,-224 1077.36,-224 1077.36,-192 974.638,-192"/>
<text text-anchor="start" x="982.638" y="-210" font-family="Helvetica,sans-Serif" font-size="10.00">AP_Logger::vehicle</text>
<text text-anchor="middle" x="1026" y="-198" font-family="Helvetica,sans-Serif" font-size="10.00">_is_armed</text>
</a>
</g>
</g>
<!-- Node152&#45;&gt;Node156 -->
<g id="edge39" class="edge"><title>Node152&#45;&gt;Node156</title>
<path fill="none" stroke="midnightblue" d="M900.087,-186.037C920.602,-189.644 943.801,-193.723 964.59,-197.378"/>
<polygon fill="midnightblue" stroke="midnightblue" points="964.124,-200.85 974.579,-199.135 965.337,-193.956 964.124,-200.85"/>
</g>
<!-- Node157 -->
<g id="node35" class="node"><title>Node157</title>
<g id="a_node35"><a xlink:href="classAP__Logger.html#af5b52fbea289c0b3267417f7ba3b619f" target="_top" xlink:title=" ">
<polygon fill="white" stroke="black" points="969.355,-141 969.355,-173 1082.65,-173 1082.65,-141 969.355,-141"/>
<text text-anchor="start" x="977.355" y="-159" font-family="Helvetica,sans-Serif" font-size="10.00">AP_Logger::log_while</text>
<text text-anchor="middle" x="1026" y="-147" font-family="Helvetica,sans-Serif" font-size="10.00">_disarmed</text>
</a>
</g>
</g>
<!-- Node152&#45;&gt;Node157 -->
<g id="edge40" class="edge"><title>Node152&#45;&gt;Node157</title>
<path fill="none" stroke="midnightblue" d="M900.087,-170.04C918.732,-168.094 939.594,-165.916 958.848,-163.906"/>
<polygon fill="midnightblue" stroke="midnightblue" points="959.469,-167.36 969.051,-162.841 958.742,-160.398 959.469,-167.36"/>
</g>
<!-- Node158 -->
<g id="node36" class="node"><title>Node158</title>
<g id="a_node36"><a xlink:href="namespaceAP__HAL.html#a77dffbb18891996280308e21316ec186" target="_top" xlink:title=" ">
<polygon fill="white" stroke="black" points="1152.94,-102 1152.94,-122 1235.06,-122 1235.06,-102 1152.94,-102"/>
<text text-anchor="middle" x="1194" y="-108" font-family="Helvetica,sans-Serif" font-size="10.00">AP_HAL::millis</text>
</a>
</g>
</g>
<!-- Node157&#45;&gt;Node158 -->
<g id="edge41" class="edge"><title>Node157&#45;&gt;Node158</title>
<path fill="none" stroke="midnightblue" d="M1082.74,-141.89C1103.36,-136.299 1126.52,-130.022 1146.27,-124.669"/>
<polygon fill="midnightblue" stroke="midnightblue" points="1147.22,-128.037 1155.95,-122.043 1145.39,-121.281 1147.22,-128.037"/>
</g>
<!-- Node160 -->
<g id="node38" class="node"><title>Node160</title>
<g id="a_node38"><a xlink:href="classAP__HAL_1_1Util.html#a0321a03bc467b55d887de4587750b599" target="_top" xlink:title=" ">
<polygon fill="white" stroke="black" points="1136.53,-192 1136.53,-224 1251.47,-224 1251.47,-192 1136.53,-192"/>
<text text-anchor="start" x="1144.53" y="-210" font-family="Helvetica,sans-Serif" font-size="10.00">AP_HAL::Util::get_last</text>
<text text-anchor="middle" x="1194" y="-198" font-family="Helvetica,sans-Serif" font-size="10.00">_armed_change</text>
</a>
</g>
</g>
<!-- Node157&#45;&gt;Node160 -->
<g id="edge43" class="edge"><title>Node157&#45;&gt;Node160</title>
<path fill="none" stroke="midnightblue" d="M1079.52,-173.137C1095.88,-178.162 1114.07,-183.751 1131.01,-188.955"/>
<polygon fill="midnightblue" stroke="midnightblue" points="1130.23,-192.377 1140.82,-191.968 1132.29,-185.686 1130.23,-192.377"/>
</g>
<!-- Node161 -->
<g id="node39" class="node"><title>Node161</title>
<g id="a_node39"><a xlink:href="classAP__HAL_1_1Util.html#a287a2b82fa30b92c8d52aad61d4d27b7" target="_top" xlink:title=" ">
<polygon fill="white" stroke="black" points="1136.25,-141 1136.25,-173 1251.75,-173 1251.75,-141 1136.25,-141"/>
<text text-anchor="start" x="1144.25" y="-159" font-family="Helvetica,sans-Serif" font-size="10.00">AP_HAL::Util::get_soft</text>
<text text-anchor="middle" x="1194" y="-147" font-family="Helvetica,sans-Serif" font-size="10.00">_armed</text>
</a>
</g>
</g>
<!-- Node157&#45;&gt;Node161 -->
<g id="edge44" class="edge"><title>Node157&#45;&gt;Node161</title>
<path fill="none" stroke="midnightblue" d="M1082.74,-157C1096.53,-157 1111.46,-157 1125.74,-157"/>
<polygon fill="midnightblue" stroke="midnightblue" points="1125.99,-160.5 1135.99,-157 1125.99,-153.5 1125.99,-160.5"/>
</g>
<!-- Node159 -->
<g id="node37" class="node"><title>Node159</title>
<g id="a_node37"><a xlink:href="hrt_8c.html#a1295f128f60d29874243b5733c4db025" target="_top" xlink:title=" ">
<polygon fill="white" stroke="black" points="1288.71,-102 1288.71,-122 1355.29,-122 1355.29,-102 1288.71,-102"/>
<text text-anchor="middle" x="1322" y="-108" font-family="Helvetica,sans-Serif" font-size="10.00">hrt_millis32</text>
</a>
</g>
</g>
<!-- Node158&#45;&gt;Node159 -->
<g id="edge42" class="edge"><title>Node158&#45;&gt;Node159</title>
<path fill="none" stroke="midnightblue" d="M1235.21,-112C1248.87,-112 1264.18,-112 1278.05,-112"/>
<polygon fill="midnightblue" stroke="midnightblue" points="1278.32,-115.5 1288.32,-112 1278.32,-108.5 1278.32,-115.5"/>
</g>
<!-- Node163 -->
<g id="node41" class="node"><title>Node163</title>
<g id="a_node41"><a xlink:href="classAP__Logger__Backend.html#ac8afcda5cd041342ea728d45a244c363" target="_top" xlink:title=" ">
<polygon fill="white" stroke="black" points="967.963,-39 967.963,-71 1084.04,-71 1084.04,-39 967.963,-39"/>
<text text-anchor="start" x="975.963" y="-57" font-family="Helvetica,sans-Serif" font-size="10.00">AP_Logger_Backend::</text>
<text text-anchor="middle" x="1026" y="-45" font-family="Helvetica,sans-Serif" font-size="10.00">logging_started</text>
</a>
</g>
</g>
<!-- Node162&#45;&gt;Node163 -->
<g id="edge46" class="edge"><title>Node162&#45;&gt;Node163</title>
<path fill="none" stroke="midnightblue" d="M900.087,-72.1584C918.378,-69.6458 938.803,-66.8402 957.751,-64.2375"/>
<polygon fill="midnightblue" stroke="midnightblue" points="958.373,-67.6851 967.803,-62.8567 957.42,-60.7502 958.373,-67.6851"/>
</g>
<!-- Node164 -->
<g id="node42" class="node"><title>Node164</title>
<g id="a_node42"><a xlink:href="classAP__Logger.html#a3af6ee4664cc4b54ad6990a7eed7f766" target="_top" xlink:title=" ">
<polygon fill="white" stroke="black" points="952.67,-0 952.67,-20 1099.33,-20 1099.33,-0 952.67,-0"/>
<text text-anchor="middle" x="1026" y="-6" font-family="Helvetica,sans-Serif" font-size="10.00">AP_Logger::in_log_download</text>
</a>
</g>
</g>
<!-- Node162&#45;&gt;Node164 -->
<g id="edge47" class="edge"><title>Node162&#45;&gt;Node164</title>
<path fill="none" stroke="midnightblue" d="M873.373,-63.9528C894.894,-53.0412 924.682,-38.8523 952,-29 958.063,-26.8133 964.494,-24.7651 970.926,-22.883"/>
<polygon fill="midnightblue" stroke="midnightblue" points="972.297,-26.1337 980.982,-20.066 970.408,-19.3932 972.297,-26.1337"/>
</g>
<!-- Node162&#45;&gt;Node155 -->
<g id="edge48" class="edge"><title>Node162&#45;&gt;Node155</title>
<path fill="none" stroke="midnightblue" d="M900.087,-88.1552C919.262,-90.8945 940.781,-93.9687 960.485,-96.7836"/>
<polygon fill="midnightblue" stroke="midnightblue" points="960.208,-100.279 970.602,-98.2289 961.198,-93.3497 960.208,-100.279"/>
</g>
<!-- Node169 -->
<g id="node47" class="node"><title>Node169</title>
<g id="a_node47"><a xlink:href="hrt_8c.html#a152c3348a8e83f2dfe35b44cc2e30362" target="_top" xlink:title=" ">
<polygon fill="white" stroke="black" points="311.101,-324 311.101,-344 384.899,-344 384.899,-324 311.101,-324"/>
<text text-anchor="middle" x="348" y="-330" font-family="Helvetica,sans-Serif" font-size="10.00">hrt_micros64</text>
</a>
</g>
</g>
<!-- Node168&#45;&gt;Node169 -->
<g id="edge53" class="edge"><title>Node168&#45;&gt;Node169</title>
<path fill="none" stroke="midnightblue" d="M246.531,-334C263.916,-334 283.372,-334 300.499,-334"/>
<polygon fill="midnightblue" stroke="midnightblue" points="300.822,-337.5 310.822,-334 300.822,-330.5 300.822,-337.5"/>
</g>
</g>
</svg>
