<?xml version="1.0" encoding="UTF-8" standalone="no"?>
<!DOCTYPE svg PUBLIC "-//W3C//DTD SVG 1.1//EN"
 "http://www.w3.org/Graphics/SVG/1.1/DTD/svg11.dtd">
<!-- Generated by graphviz version 2.30.1 (20130221.2233)
 -->
<!-- Title: AC_PrecLand::target_acquired Pages: 1 -->
<svg width="340pt" height="40pt"
 viewBox="0.00 0.00 340.00 40.00" xmlns="http://www.w3.org/2000/svg" xmlns:xlink="http://www.w3.org/1999/xlink">
<g id="graph0" class="graph" transform="scale(1 1) rotate(0) translate(4 36)">
<title>AC_PrecLand::target_acquired</title>
<polygon fill="white" stroke="white" points="-4,5 -4,-36 337,-36 337,5 -4,5"/>
<!-- Node156 -->
<g id="node1" class="node"><title>Node156</title>
<g id="a_node1"><a xlink:title=" ">
<polygon fill="#bfbfbf" stroke="black" points="0.305664,-0 0.305664,-32 109.694,-32 109.694,-0 0.305664,-0"/>
<text text-anchor="start" x="8.30566" y="-18" font-family="Helvetica,sans-Serif" font-size="10.00">AC_PrecLand::target</text>
<text text-anchor="middle" x="55" y="-6" font-family="Helvetica,sans-Serif" font-size="10.00">_acquired</text>
</a>
</g>
</g>
<!-- Node157 -->
<g id="node2" class="node"><title>Node157</title>
<g id="a_node2"><a xlink:href="namespaceAP__HAL.html#a77dffbb18891996280308e21316ec186" target="_top" xlink:title=" ">
<polygon fill="white" stroke="black" points="145.936,-6 145.936,-26 228.064,-26 228.064,-6 145.936,-6"/>
<text text-anchor="middle" x="187" y="-12" font-family="Helvetica,sans-Serif" font-size="10.00">AP_HAL::millis</text>
</a>
</g>
</g>
<!-- Node156&#45;&gt;Node157 -->
<g id="edge1" class="edge"><title>Node156&#45;&gt;Node157</title>
<path fill="none" stroke="midnightblue" d="M110.002,-16C118.533,-16 127.323,-16 135.763,-16"/>
<polygon fill="midnightblue" stroke="midnightblue" points="135.843,-19.5001 145.843,-16 135.843,-12.5001 135.843,-19.5001"/>
</g>
<!-- Node158 -->
<g id="node3" class="node"><title>Node158</title>
<g id="a_node3"><a xlink:href="hrt_8c.html#a1295f128f60d29874243b5733c4db025" target="_top" xlink:title=" ">
<polygon fill="white" stroke="black" points="264.714,-6 264.714,-26 331.286,-26 331.286,-6 264.714,-6"/>
<text text-anchor="middle" x="298" y="-12" font-family="Helvetica,sans-Serif" font-size="10.00">hrt_millis32</text>
</a>
</g>
</g>
<!-- Node157&#45;&gt;Node158 -->
<g id="edge2" class="edge"><title>Node157&#45;&gt;Node158</title>
<path fill="none" stroke="midnightblue" d="M228.278,-16C236.815,-16 245.852,-16 254.469,-16"/>
<polygon fill="midnightblue" stroke="midnightblue" points="254.71,-19.5001 264.71,-16 254.71,-12.5001 254.71,-19.5001"/>
</g>
</g>
</svg>
