<?xml version="1.0" encoding="UTF-8" standalone="no"?>
<!DOCTYPE svg PUBLIC "-//W3C//DTD SVG 1.1//EN"
 "http://www.w3.org/Graphics/SVG/1.1/DTD/svg11.dtd">
<!-- Generated by graphviz version 2.30.1 (20130221.2233)
 -->
<!-- Title: AP_IRLock_I2C Pages: 1 -->
<!--zoomable 322 -->
<svg id="main" version="1.1" xmlns="http://www.w3.org/2000/svg" xmlns:xlink="http://www.w3.org/1999/xlink" xml:space="preserve" onload="init(evt)">
<style type="text/css"><![CDATA[
.edge:hover path { stroke: red; }
.edge:hover polygon { stroke: red; fill: red; }
]]></style>
<script type="text/javascript"><![CDATA[
var edges = document.getElementsByTagName('g');
if (edges && edges.length) {
  for (var i=0;i<edges.length;i++) {
    if (edges[i].id.substr(0,4)=='edge') {
      edges[i].setAttribute('class','edge');
    }
  }
}
]]></script>
        <defs>
                <circle id="rim" cx="0" cy="0" r="7"/>
                <circle id="rim2" cx="0" cy="0" r="3.5"/>
                <g id="zoomPlus">
                        <use xlink:href="#rim" fill="#404040">
                                <set attributeName="fill" to="#808080" begin="zoomplus.mouseover" end="zoomplus.mouseout"/>
                        </use>
                        <path d="M-4,0h8M0,-4v8" fill="none" stroke="white" stroke-width="1.5" pointer-events="none"/>
                </g>
                <g id="zoomMin">
                        <use xlink:href="#rim" fill="#404040">
                                <set attributeName="fill" to="#808080" begin="zoomminus.mouseover" end="zoomminus.mouseout"/>
                        </use>
                        <path d="M-4,0h8" fill="none" stroke="white" stroke-width="1.5" pointer-events="none"/>
                </g>
                <g id="dirArrow">
                        <path fill="none" stroke="white" stroke-width="1.5" d="M0,-3.0v7 M-2.5,-0.5L0,-3.0L2.5,-0.5"/>
                </g>
               <g id="resetDef">
                       <use xlink:href="#rim2" fill="#404040">
                               <set attributeName="fill" to="#808080" begin="reset.mouseover" end="reset.mouseout"/>
                       </use>
               </g>
        </defs>

<script type="text/javascript">
var viewWidth = 538;
var viewHeight = 322;
var sectionId = 'dynsection-1';
</script>
<script xlink:href="svgpan.js"/>
<svg id="graph" class="graph">
<g id="viewport">
<title>AP_IRLock_I2C</title>
<polygon fill="white" stroke="white" points="-4,5 -4,-318 535,-318 535,5 -4,5"/>
<!-- Node2 -->
<g id="node1" class="node"><title>Node2</title>
<g id="a_node1"><a xlink:title=" ">
<polygon fill="#bfbfbf" stroke="black" points="231.426,-1 231.426,-21 318.574,-21 318.574,-1 231.426,-1"/>
<text text-anchor="middle" x="275" y="-7" font-family="Helvetica,sans-Serif" font-size="10.00">AP_IRLock_I2C</text>
</a>
</g>
</g>
<!-- Node3 -->
<g id="node2" class="node"><title>Node3</title>
<g id="a_node2"><a xlink:href="classIRLock.html" target="_top" xlink:title=" ">
<polygon fill="white" stroke="black" points="189.438,-77 189.438,-97 236.562,-97 236.562,-77 189.438,-77"/>
<text text-anchor="middle" x="213" y="-83" font-family="Helvetica,sans-Serif" font-size="10.00">IRLock</text>
</a>
</g>
</g>
<!-- Node3&#45;&gt;Node2 -->
<g id="edge1" class="edge"><title>Node3&#45;&gt;Node2</title>
<path fill="none" stroke="midnightblue" d="M227.25,-68.9917C239.72,-54.1088 257.356,-33.0586 267.335,-21.1481"/>
<polygon fill="midnightblue" stroke="midnightblue" points="224.342,-67.0131 220.602,-76.9261 229.707,-71.5087 224.342,-67.0131"/>
</g>
<!-- Node4 -->
<g id="node3" class="node"><title>Node4</title>
<g id="a_node3"><a xlink:href="structIRLock_1_1irlock__target__info.html" target="_top" xlink:title=" ">
<polygon fill="white" stroke="black" points="-0.416016,-153 -0.416016,-173 128.416,-173 128.416,-153 -0.416016,-153"/>
<text text-anchor="middle" x="64" y="-159" font-family="Helvetica,sans-Serif" font-size="10.00">IRLock::irlock_target_info</text>
</a>
</g>
</g>
<!-- Node4&#45;&gt;Node3 -->
<g id="edge2" class="edge"><title>Node4&#45;&gt;Node3</title>
<path fill="none" stroke="#9a32cd" stroke-dasharray="5,2" d="M91.3553,-148.414C121.363,-133.511 168.693,-110.005 194.58,-97.1481"/>
<polygon fill="#9a32cd" stroke="#9a32cd" points="89.6698,-145.343 82.2703,-152.926 92.7834,-151.613 89.6698,-145.343"/>
<text text-anchor="middle" x="170.798" y="-124" font-family="Helvetica,sans-Serif" font-size="10.00"> _target_info</text>
</g>
<!-- Node5 -->
<g id="node4" class="node"><title>Node5</title>
<g id="a_node4"><a xlink:href="structIRLock_1_1AP__IRLock__Flags.html" target="_top" xlink:title=" ">
<polygon fill="white" stroke="black" points="146.641,-153 146.641,-173 279.359,-173 279.359,-153 146.641,-153"/>
<text text-anchor="middle" x="213" y="-159" font-family="Helvetica,sans-Serif" font-size="10.00">IRLock::AP_IRLock_Flags</text>
</a>
</g>
</g>
<!-- Node5&#45;&gt;Node3 -->
<g id="edge3" class="edge"><title>Node5&#45;&gt;Node3</title>
<path fill="none" stroke="#9a32cd" stroke-dasharray="5,2" d="M213,-142.866C213,-128.161 213,-108.502 213,-97.1481"/>
<polygon fill="#9a32cd" stroke="#9a32cd" points="209.5,-142.926 213,-152.926 216.5,-142.926 209.5,-142.926"/>
<text text-anchor="middle" x="227.731" y="-124" font-family="Helvetica,sans-Serif" font-size="10.00"> _flags</text>
</g>
<!-- Node6 -->
<g id="node5" class="node"><title>Node6</title>
<g id="a_node5"><a xlink:href="classAP__HAL_1_1OwnPtr.html" target="_top" xlink:title=" ">
<polygon fill="white" stroke="black" points="262.669,-71 262.669,-103 377.331,-103 377.331,-71 262.669,-71"/>
<text text-anchor="start" x="270.669" y="-89" font-family="Helvetica,sans-Serif" font-size="10.00">AP_HAL::OwnPtr&lt; AP</text>
<text text-anchor="middle" x="320" y="-77" font-family="Helvetica,sans-Serif" font-size="10.00">_HAL::Device &gt;</text>
</a>
</g>
</g>
<!-- Node6&#45;&gt;Node2 -->
<g id="edge4" class="edge"><title>Node6&#45;&gt;Node2</title>
<path fill="none" stroke="#9a32cd" stroke-dasharray="5,2" d="M305.425,-62.0316C296.967,-48.1236 286.797,-31.3992 280.62,-21.2412"/>
<polygon fill="#9a32cd" stroke="#9a32cd" points="302.49,-63.9415 310.676,-70.6672 308.471,-60.3044 302.49,-63.9415"/>
<text text-anchor="middle" x="307.451" y="-42" font-family="Helvetica,sans-Serif" font-size="10.00"> dev</text>
</g>
<!-- Node7 -->
<g id="node6" class="node"><title>Node7</title>
<g id="a_node6"><a xlink:href="classAP__HAL_1_1Device.html" target="_top" xlink:title=" ">
<polygon fill="white" stroke="black" points="297.761,-153 297.761,-173 388.239,-173 388.239,-153 297.761,-153"/>
<text text-anchor="middle" x="343" y="-159" font-family="Helvetica,sans-Serif" font-size="10.00">AP_HAL::Device</text>
</a>
</g>
</g>
<!-- Node7&#45;&gt;Node6 -->
<g id="edge5" class="edge"><title>Node7&#45;&gt;Node6</title>
<path fill="none" stroke="#9a32cd" stroke-dasharray="5,2" d="M337.137,-143.136C333.272,-130.7 328.277,-114.631 324.679,-103.053"/>
<polygon fill="#9a32cd" stroke="#9a32cd" points="333.869,-144.416 340.18,-152.926 340.554,-142.338 333.869,-144.416"/>
<text text-anchor="middle" x="344.005" y="-124" font-family="Helvetica,sans-Serif" font-size="10.00"> _ptr</text>
</g>
<!-- Node8 -->
<g id="node7" class="node"><title>Node8</title>
<g id="a_node7"><a xlink:href="structAP__HAL_1_1Device_1_1checkreg.html" target="_top" xlink:title=" ">
<polygon fill="white" stroke="black" points="224.695,-223 224.695,-243 361.305,-243 361.305,-223 224.695,-223"/>
<text text-anchor="middle" x="293" y="-229" font-family="Helvetica,sans-Serif" font-size="10.00">AP_HAL::Device::checkreg</text>
</a>
</g>
</g>
<!-- Node8&#45;&gt;Node7 -->
<g id="edge6" class="edge"><title>Node8&#45;&gt;Node7</title>
<path fill="none" stroke="#9a32cd" stroke-dasharray="5,2" d="M305.869,-214.498C315.618,-201.24 328.615,-183.564 336.364,-173.025"/>
<polygon fill="#9a32cd" stroke="#9a32cd" points="302.847,-212.699 299.743,-222.829 308.487,-216.846 302.847,-212.699"/>
<text text-anchor="middle" x="331.116" y="-194" font-family="Helvetica,sans-Serif" font-size="10.00"> regs</text>
</g>
<!-- Node9 -->
<g id="node8" class="node"><title>Node9</title>
<g id="a_node8"><a xlink:href="unionAP__HAL_1_1Device_1_1DeviceId.html" target="_top" xlink:title=" ">
<polygon fill="white" stroke="black" points="379.53,-223 379.53,-243 514.47,-243 514.47,-223 379.53,-223"/>
<text text-anchor="middle" x="447" y="-229" font-family="Helvetica,sans-Serif" font-size="10.00">AP_HAL::Device::DeviceId</text>
</a>
</g>
</g>
<!-- Node9&#45;&gt;Node7 -->
<g id="edge7" class="edge"><title>Node9&#45;&gt;Node7</title>
<path fill="none" stroke="#9a32cd" stroke-dasharray="5,2" d="M424.508,-217.293C403.911,-203.827 374.084,-184.324 356.804,-173.025"/>
<polygon fill="#9a32cd" stroke="#9a32cd" points="422.689,-220.286 432.974,-222.829 426.52,-214.427 422.689,-220.286"/>
<text text-anchor="middle" x="419.904" y="-194" font-family="Helvetica,sans-Serif" font-size="10.00"> _bus_id</text>
</g>
<!-- Node10 -->
<g id="node9" class="node"><title>Node10</title>
<g id="a_node9"><a xlink:href="structAP__HAL_1_1Device_1_1DeviceStructure.html" target="_top" xlink:title=" ">
<polygon fill="white" stroke="black" points="363.414,-293 363.414,-313 530.586,-313 530.586,-293 363.414,-293"/>
<text text-anchor="middle" x="447" y="-299" font-family="Helvetica,sans-Serif" font-size="10.00">AP_HAL::Device::DeviceStructure</text>
</a>
</g>
</g>
<!-- Node10&#45;&gt;Node9 -->
<g id="edge8" class="edge"><title>Node10&#45;&gt;Node9</title>
<path fill="none" stroke="#9a32cd" stroke-dasharray="5,2" d="M447,-282.557C447,-269.557 447,-253.057 447,-243.025"/>
<polygon fill="#9a32cd" stroke="#9a32cd" points="443.5,-282.829 447,-292.829 450.5,-282.829 443.5,-282.829"/>
<text text-anchor="middle" x="465.623" y="-264" font-family="Helvetica,sans-Serif" font-size="10.00"> devid_s</text>
</g>
</g>
</svg>
        <g id="navigator" transform="translate(0 0)" fill="#404254">
                <rect fill="#f2f5e9" fill-opacity="0.5" stroke="#606060" stroke-width=".5" x="0" y="0" width="60" height="60"/>
                <use id="zoomplus" xlink:href="#zoomPlus" x="17" y="9" onmousedown="handleZoom(evt,'in')"/>
                <use id="zoomminus" xlink:href="#zoomMin" x="42" y="9" onmousedown="handleZoom(evt,'out')"/>
                <use id="reset" xlink:href="#resetDef" x="30" y="36" onmousedown="handleReset()"/>
                <g id="arrowUp" xlink:href="#dirArrow" transform="translate(30 24)" onmousedown="handlePan(0,-1)">
                  <use xlink:href="#rim" fill="#404040">
                        <set attributeName="fill" to="#808080" begin="arrowUp.mouseover" end="arrowUp.mouseout"/>
                  </use>
                  <path fill="none" stroke="white" stroke-width="1.5" d="M0,-3.0v7 M-2.5,-0.5L0,-3.0L2.5,-0.5"/>
                </g>
                <g id="arrowRight" xlink:href="#dirArrow" transform="rotate(90) translate(36 -43)" onmousedown="handlePan(1,0)">
                  <use xlink:href="#rim" fill="#404040">
                        <set attributeName="fill" to="#808080" begin="arrowRight.mouseover" end="arrowRight.mouseout"/>
                  </use>
                  <path fill="none" stroke="white" stroke-width="1.5" d="M0,-3.0v7 M-2.5,-0.5L0,-3.0L2.5,-0.5"/>
                </g>
                <g id="arrowDown" xlink:href="#dirArrow" transform="rotate(180) translate(-30 -48)" onmousedown="handlePan(0,1)">
                  <use xlink:href="#rim" fill="#404040">
                        <set attributeName="fill" to="#808080" begin="arrowDown.mouseover" end="arrowDown.mouseout"/>
                  </use>
                  <path fill="none" stroke="white" stroke-width="1.5" d="M0,-3.0v7 M-2.5,-0.5L0,-3.0L2.5,-0.5"/>
                </g>
                <g id="arrowLeft" xlink:href="#dirArrow" transform="rotate(270) translate(-36 17)" onmousedown="handlePan(-1,0)">
                  <use xlink:href="#rim" fill="#404040">
                        <set attributeName="fill" to="#808080" begin="arrowLeft.mouseover" end="arrowLeft.mouseout"/>
                  </use>
                  <path fill="none" stroke="white" stroke-width="1.5" d="M0,-3.0v7 M-2.5,-0.5L0,-3.0L2.5,-0.5"/>
                </g>
        </g>
        <svg viewBox="0 0 15 15" width="100%" height="30px" preserveAspectRatio="xMaxYMin meet">
         <g id="arrow_out" transform="scale(0.3 0.3)">
          <a xlink:href="classAP__IRLock__I2C__coll__graph_org.svg" target="_base">
           <rect id="button" ry="5" rx="5" y="6" x="6" height="38" width="38"
                fill="#f2f5e9" fill-opacity="0.5" stroke="#606060" stroke-width="1.0"/>
           <path id="arrow"
             d="M 11.500037,31.436501 C 11.940474,20.09759 22.043105,11.32322 32.158766,21.979434 L 37.068811,17.246167 C 37.068811,17.246167 37.088388,32 37.088388,32 L 22.160133,31.978069 C 22.160133,31.978069 26.997745,27.140456 26.997745,27.140456 C 18.528582,18.264221 13.291696,25.230495 11.500037,31.436501 z"
             style="fill:#404040;"/>
          </a>
         </g>
        </svg>
</svg>
