<?xml version="1.0" encoding="UTF-8" standalone="no"?>
<!DOCTYPE svg PUBLIC "-//W3C//DTD SVG 1.1//EN"
 "http://www.w3.org/Graphics/SVG/1.1/DTD/svg11.dtd">
<!-- Generated by graphviz version 2.30.1 (20130221.2233)
 -->
<!-- Title: ChibiOS::RCOutput::set_output_mode Pages: 1 -->
<!--zoomable 428 -->
<svg id="main" version="1.1" xmlns="http://www.w3.org/2000/svg" xmlns:xlink="http://www.w3.org/1999/xlink" xml:space="preserve" onload="init(evt)">
<style type="text/css"><![CDATA[
.edge:hover path { stroke: red; }
.edge:hover polygon { stroke: red; fill: red; }
]]></style>
<script type="text/javascript"><![CDATA[
var edges = document.getElementsByTagName('g');
if (edges && edges.length) {
  for (var i=0;i<edges.length;i++) {
    if (edges[i].id.substr(0,4)=='edge') {
      edges[i].setAttribute('class','edge');
    }
  }
}
]]></script>
        <defs>
                <circle id="rim" cx="0" cy="0" r="7"/>
                <circle id="rim2" cx="0" cy="0" r="3.5"/>
                <g id="zoomPlus">
                        <use xlink:href="#rim" fill="#404040">
                                <set attributeName="fill" to="#808080" begin="zoomplus.mouseover" end="zoomplus.mouseout"/>
                        </use>
                        <path d="M-4,0h8M0,-4v8" fill="none" stroke="white" stroke-width="1.5" pointer-events="none"/>
                </g>
                <g id="zoomMin">
                        <use xlink:href="#rim" fill="#404040">
                                <set attributeName="fill" to="#808080" begin="zoomminus.mouseover" end="zoomminus.mouseout"/>
                        </use>
                        <path d="M-4,0h8" fill="none" stroke="white" stroke-width="1.5" pointer-events="none"/>
                </g>
                <g id="dirArrow">
                        <path fill="none" stroke="white" stroke-width="1.5" d="M0,-3.0v7 M-2.5,-0.5L0,-3.0L2.5,-0.5"/>
                </g>
               <g id="resetDef">
                       <use xlink:href="#rim2" fill="#404040">
                               <set attributeName="fill" to="#808080" begin="reset.mouseover" end="reset.mouseout"/>
                       </use>
               </g>
        </defs>

<script type="text/javascript">
var viewWidth = 1564;
var viewHeight = 428;
var sectionId = 'dynsection-50';
</script>
<script xlink:href="svgpan.js"/>
<svg id="graph" class="graph">
<g id="viewport">
<title>ChibiOS::RCOutput::set_output_mode</title>
<polygon fill="white" stroke="white" points="-4,5 -4,-424 1561,-424 1561,5 -4,5"/>
<!-- Node374 -->
<g id="node1" class="node"><title>Node374</title>
<g id="a_node1"><a xlink:title=" ">
<polygon fill="#bfbfbf" stroke="black" points="0.59375,-289 0.59375,-321 109.406,-321 109.406,-289 0.59375,-289"/>
<text text-anchor="start" x="8.59375" y="-307" font-family="Helvetica,sans-Serif" font-size="10.00">ChibiOS::RCOutput::</text>
<text text-anchor="middle" x="55" y="-295" font-family="Helvetica,sans-Serif" font-size="10.00">set_output_mode</text>
</a>
</g>
</g>
<!-- Node375 -->
<g id="node2" class="node"><title>Node375</title>
<g id="a_node2"><a xlink:href="classChibiOS_1_1RCOutput.html#a46efb3be55cf81b45d798d77cff41585" target="_top" xlink:title=" ">
<polygon fill="white" stroke="black" points="450.594,-327 450.594,-359 559.406,-359 559.406,-327 450.594,-327"/>
<text text-anchor="start" x="458.594" y="-345" font-family="Helvetica,sans-Serif" font-size="10.00">ChibiOS::RCOutput::</text>
<text text-anchor="middle" x="505" y="-333" font-family="Helvetica,sans-Serif" font-size="10.00">mode_requires_dma</text>
</a>
</g>
</g>
<!-- Node374&#45;&gt;Node375 -->
<g id="edge1" class="edge"><title>Node374&#45;&gt;Node375</title>
<path fill="none" stroke="midnightblue" d="M109.762,-310.543C121.689,-311.727 134.271,-312.939 146,-314 248.845,-323.307 368.444,-332.708 440.083,-338.187"/>
<polygon fill="midnightblue" stroke="midnightblue" points="440.059,-341.696 450.297,-338.967 440.592,-334.716 440.059,-341.696"/>
</g>
<!-- Node376 -->
<g id="node3" class="node"><title>Node376</title>
<g id="a_node3"><a xlink:href="classChibiOS_1_1RCOutput.html#a44034ef76d3ff9d7faf5b6bed5adb3b8" target="_top" xlink:title=" ">
<polygon fill="white" stroke="black" points="146.594,-219 146.594,-251 255.406,-251 255.406,-219 146.594,-219"/>
<text text-anchor="start" x="154.594" y="-237" font-family="Helvetica,sans-Serif" font-size="10.00">ChibiOS::RCOutput::</text>
<text text-anchor="middle" x="201" y="-225" font-family="Helvetica,sans-Serif" font-size="10.00">set_group_mode</text>
</a>
</g>
</g>
<!-- Node374&#45;&gt;Node376 -->
<g id="edge2" class="edge"><title>Node374&#45;&gt;Node376</title>
<path fill="none" stroke="midnightblue" d="M89.0365,-288.941C109.38,-279.051 135.662,-266.275 157.541,-255.64"/>
<polygon fill="midnightblue" stroke="midnightblue" points="159.155,-258.747 166.619,-251.227 156.095,-252.451 159.155,-258.747"/>
</g>
<!-- Node378 -->
<g id="node5" class="node"><title>Node378</title>
<g id="a_node5"><a xlink:href="classAP__BoardConfig.html#a88fafdbccbeac097961a7cf64993530f" target="_top" xlink:title=" ">
<polygon fill="white" stroke="black" points="453.084,-276 453.084,-308 556.916,-308 556.916,-276 453.084,-276"/>
<text text-anchor="start" x="461.084" y="-294" font-family="Helvetica,sans-Serif" font-size="10.00">AP_BoardConfig::io</text>
<text text-anchor="middle" x="505" y="-282" font-family="Helvetica,sans-Serif" font-size="10.00">_enabled</text>
</a>
</g>
</g>
<!-- Node374&#45;&gt;Node378 -->
<g id="edge36" class="edge"><title>Node374&#45;&gt;Node378</title>
<path fill="none" stroke="midnightblue" d="M109.594,-303.445C193.26,-301.017 354.438,-296.34 442.638,-293.781"/>
<polygon fill="midnightblue" stroke="midnightblue" points="442.868,-297.276 452.762,-293.487 442.664,-290.278 442.868,-297.276"/>
</g>
<!-- Node377 -->
<g id="node4" class="node"><title>Node377</title>
<g id="a_node4"><a xlink:href="classChibiOS_1_1RCOutput.html#ade8c021cd3195d6e4d5b049f02eb9b87" target="_top" xlink:title=" ">
<polygon fill="white" stroke="black" points="292.594,-193 292.594,-225 401.406,-225 401.406,-193 292.594,-193"/>
<text text-anchor="start" x="300.594" y="-211" font-family="Helvetica,sans-Serif" font-size="10.00">ChibiOS::RCOutput::</text>
<text text-anchor="middle" x="347" y="-199" font-family="Helvetica,sans-Serif" font-size="10.00">write</text>
</a>
</g>
</g>
<!-- Node376&#45;&gt;Node377 -->
<g id="edge3" class="edge"><title>Node376&#45;&gt;Node377</title>
<path fill="none" stroke="midnightblue" d="M255.62,-225.319C264.335,-223.745 273.435,-222.102 282.361,-220.49"/>
<polygon fill="midnightblue" stroke="midnightblue" points="283.116,-223.911 292.335,-218.69 281.872,-217.022 283.116,-223.911"/>
</g>
<!-- Node396 -->
<g id="node23" class="node"><title>Node396</title>
<g id="a_node23"><a xlink:href="classChibiOS_1_1RCOutput.html#a14337ad4f329de7d4f9034814148aabf" target="_top" xlink:title=" ">
<polygon fill="white" stroke="black" points="292.594,-73 292.594,-105 401.406,-105 401.406,-73 292.594,-73"/>
<text text-anchor="start" x="300.594" y="-91" font-family="Helvetica,sans-Serif" font-size="10.00">ChibiOS::RCOutput::</text>
<text text-anchor="middle" x="347" y="-79" font-family="Helvetica,sans-Serif" font-size="10.00">setup_group_DMA</text>
</a>
</g>
</g>
<!-- Node376&#45;&gt;Node396 -->
<g id="edge25" class="edge"><title>Node376&#45;&gt;Node396</title>
<path fill="none" stroke="midnightblue" d="M217.961,-218.818C243.37,-193.056 293.147,-142.587 322.593,-112.732"/>
<polygon fill="midnightblue" stroke="midnightblue" points="325.438,-114.832 329.968,-105.255 320.454,-109.917 325.438,-114.832"/>
</g>
<!-- Node405 -->
<g id="node32" class="node"><title>Node405</title>
<g id="a_node32"><a xlink:href="classChibiOS_1_1RCOutput.html#a1d5d897dfecf5f960ed747b30f271961" target="_top" xlink:title=" ">
<polygon fill="white" stroke="black" points="292.594,-244 292.594,-276 401.406,-276 401.406,-244 292.594,-244"/>
<text text-anchor="start" x="300.594" y="-262" font-family="Helvetica,sans-Serif" font-size="10.00">ChibiOS::RCOutput::</text>
<text text-anchor="middle" x="347" y="-250" font-family="Helvetica,sans-Serif" font-size="10.00">set_freq_group</text>
</a>
</g>
</g>
<!-- Node376&#45;&gt;Node405 -->
<g id="edge34" class="edge"><title>Node376&#45;&gt;Node405</title>
<path fill="none" stroke="midnightblue" d="M255.62,-244.309C264.335,-245.822 273.435,-247.402 282.361,-248.952"/>
<polygon fill="midnightblue" stroke="midnightblue" points="281.884,-252.421 292.335,-250.683 283.081,-245.524 281.884,-252.421"/>
</g>
<!-- Node377&#45;&gt;Node378 -->
<g id="edge4" class="edge"><title>Node377&#45;&gt;Node378</title>
<path fill="none" stroke="midnightblue" d="M384.734,-225.074C390.653,-228.118 396.603,-231.466 402,-235 419.664,-246.568 419.923,-255.088 438,-266 441.193,-267.927 444.553,-269.762 447.998,-271.5"/>
<polygon fill="midnightblue" stroke="midnightblue" points="446.716,-274.765 457.253,-275.869 449.704,-268.435 446.716,-274.765"/>
</g>
<!-- Node379 -->
<g id="node6" class="node"><title>Node379</title>
<g id="a_node6"><a xlink:href="AP__Math_8h.html#a5abc8871f1e7781a55afe9bf299f0a39" target="_top" xlink:title=" ">
<polygon fill="white" stroke="black" points="486.165,-186 486.165,-206 523.835,-206 523.835,-186 486.165,-186"/>
<text text-anchor="middle" x="505" y="-192" font-family="Helvetica,sans-Serif" font-size="10.00">MAX</text>
</a>
</g>
</g>
<!-- Node377&#45;&gt;Node379 -->
<g id="edge5" class="edge"><title>Node377&#45;&gt;Node379</title>
<path fill="none" stroke="midnightblue" d="M401.686,-204.526C426.604,-202.45 455.199,-200.067 475.814,-198.349"/>
<polygon fill="midnightblue" stroke="midnightblue" points="476.13,-201.835 485.804,-197.516 475.548,-194.859 476.13,-201.835"/>
</g>
<!-- Node380 -->
<g id="node7" class="node"><title>Node380</title>
<g id="a_node7"><a xlink:href="classChibiOS_1_1RCOutput.html#aaf1e5166431997e36115dfe23bf2547c" target="_top" xlink:title=" ">
<polygon fill="white" stroke="black" points="450.594,-225 450.594,-257 559.406,-257 559.406,-225 450.594,-225"/>
<text text-anchor="start" x="458.594" y="-243" font-family="Helvetica,sans-Serif" font-size="10.00">ChibiOS::RCOutput::</text>
<text text-anchor="middle" x="505" y="-231" font-family="Helvetica,sans-Serif" font-size="10.00">push_local</text>
</a>
</g>
</g>
<!-- Node377&#45;&gt;Node380 -->
<g id="edge6" class="edge"><title>Node377&#45;&gt;Node380</title>
<path fill="none" stroke="midnightblue" d="M401.686,-220.013C414.135,-222.566 427.501,-225.308 440.332,-227.94"/>
<polygon fill="midnightblue" stroke="midnightblue" points="439.98,-231.44 450.479,-230.021 441.386,-224.583 439.98,-231.44"/>
</g>
<!-- Node381 -->
<g id="node8" class="node"><title>Node381</title>
<g id="a_node8"><a xlink:href="classAP__HAL_1_1Util.html#a9cd8bcd13d4c3c74c665b0702f86451b" target="_top" xlink:title=" ">
<polygon fill="white" stroke="black" points="903.705,-388 903.705,-420 1010.3,-420 1010.3,-388 903.705,-388"/>
<text text-anchor="start" x="911.705" y="-406" font-family="Helvetica,sans-Serif" font-size="10.00">AP_HAL::Util::safety</text>
<text text-anchor="middle" x="957" y="-394" font-family="Helvetica,sans-Serif" font-size="10.00">_switch_state</text>
</a>
</g>
</g>
<!-- Node380&#45;&gt;Node381 -->
<g id="edge7" class="edge"><title>Node380&#45;&gt;Node381</title>
<path fill="none" stroke="midnightblue" d="M549.719,-257.136C557.236,-260.218 564.907,-263.562 572,-267 656.235,-307.828 665.745,-341.798 754,-373 799.177,-388.972 852.907,-396.72 893.592,-400.475"/>
<polygon fill="midnightblue" stroke="midnightblue" points="893.377,-403.97 903.642,-401.347 893.981,-396.996 893.377,-403.97"/>
</g>
<!-- Node382 -->
<g id="node9" class="node"><title>Node382</title>
<g id="a_node9"><a xlink:href="classChibiOS_1_1RCOutput.html#ae06a0dbf8aeb09fb11b23969d3d3fc5b" target="_top" xlink:title=" ">
<polygon fill="white" stroke="black" points="608.594,-225 608.594,-257 717.406,-257 717.406,-225 608.594,-225"/>
<text text-anchor="start" x="616.594" y="-243" font-family="Helvetica,sans-Serif" font-size="10.00">ChibiOS::RCOutput::</text>
<text text-anchor="middle" x="663" y="-231" font-family="Helvetica,sans-Serif" font-size="10.00">trigger_groups</text>
</a>
</g>
</g>
<!-- Node380&#45;&gt;Node382 -->
<g id="edge8" class="edge"><title>Node380&#45;&gt;Node382</title>
<path fill="none" stroke="midnightblue" d="M559.686,-241C572.135,-241 585.501,-241 598.332,-241"/>
<polygon fill="midnightblue" stroke="midnightblue" points="598.479,-244.5 608.479,-241 598.479,-237.5 598.479,-244.5"/>
</g>
<!-- Node383 -->
<g id="node10" class="node"><title>Node383</title>
<g id="a_node10"><a xlink:href="namespaceAP__HAL.html#a7aa0ce7625c9680e30ff4a99940907a5" target="_top" xlink:title=" ">
<polygon fill="white" stroke="black" points="906.761,-118 906.761,-138 1007.24,-138 1007.24,-118 906.761,-118"/>
<text text-anchor="middle" x="957" y="-124" font-family="Helvetica,sans-Serif" font-size="10.00">AP_HAL::micros64</text>
</a>
</g>
</g>
<!-- Node382&#45;&gt;Node383 -->
<g id="edge9" class="edge"><title>Node382&#45;&gt;Node383</title>
<path fill="none" stroke="midnightblue" d="M702.599,-224.91C749.139,-205.677 829.857,-172.849 900,-147 905.118,-145.114 910.523,-143.193 915.876,-141.332"/>
<polygon fill="midnightblue" stroke="midnightblue" points="917.06,-144.626 925.382,-138.068 914.787,-138.005 917.06,-144.626"/>
</g>
<!-- Node385 -->
<g id="node12" class="node"><title>Node385</title>
<g id="a_node12"><a xlink:href="classAP__HAL_1_1Scheduler.html#a78c4f1b1f192ac1c99544b6cc8f099b0" target="_top" xlink:title=" ">
<polygon fill="white" stroke="black" points="1445.75,-298 1445.75,-330 1556.25,-330 1556.25,-298 1445.75,-298"/>
<text text-anchor="start" x="1453.75" y="-316" font-family="Helvetica,sans-Serif" font-size="10.00">AP_HAL::Scheduler::</text>
<text text-anchor="middle" x="1501" y="-304" font-family="Helvetica,sans-Serif" font-size="10.00">delay_microseconds</text>
</a>
</g>
</g>
<!-- Node382&#45;&gt;Node385 -->
<g id="edge11" class="edge"><title>Node382&#45;&gt;Node385</title>
<path fill="none" stroke="midnightblue" d="M686.577,-257.16C734.017,-289.477 848.559,-359 956,-359 956,-359 956,-359 1232,-359 1302.4,-359 1381.78,-343.712 1435.75,-330.958"/>
<polygon fill="midnightblue" stroke="midnightblue" points="1436.62,-334.349 1445.53,-328.61 1434.99,-327.542 1436.62,-334.349"/>
</g>
<!-- Node386 -->
<g id="node13" class="node"><title>Node386</title>
<g id="a_node13"><a xlink:href="classChibiOS_1_1RCOutput.html#a337d3f3858c5614877c3334f6b629fbf" target="_top" xlink:title=" ">
<polygon fill="white" stroke="black" points="754.594,-225 754.594,-257 863.406,-257 863.406,-225 754.594,-225"/>
<text text-anchor="start" x="762.594" y="-243" font-family="Helvetica,sans-Serif" font-size="10.00">ChibiOS::RCOutput::</text>
<text text-anchor="middle" x="809" y="-231" font-family="Helvetica,sans-Serif" font-size="10.00">dshot_send</text>
</a>
</g>
</g>
<!-- Node382&#45;&gt;Node386 -->
<g id="edge12" class="edge"><title>Node382&#45;&gt;Node386</title>
<path fill="none" stroke="midnightblue" d="M717.62,-241C726.241,-241 735.239,-241 744.073,-241"/>
<polygon fill="midnightblue" stroke="midnightblue" points="744.335,-244.5 754.335,-241 744.335,-237.5 744.335,-244.5"/>
</g>
<!-- Node384 -->
<g id="node11" class="node"><title>Node384</title>
<g id="a_node11"><a xlink:href="hrt_8c.html#a152c3348a8e83f2dfe35b44cc2e30362" target="_top" xlink:title=" ">
<polygon fill="white" stroke="black" points="1056.1,-118 1056.1,-138 1129.9,-138 1129.9,-118 1056.1,-118"/>
<text text-anchor="middle" x="1093" y="-124" font-family="Helvetica,sans-Serif" font-size="10.00">hrt_micros64</text>
</a>
</g>
</g>
<!-- Node383&#45;&gt;Node384 -->
<g id="edge10" class="edge"><title>Node383&#45;&gt;Node384</title>
<path fill="none" stroke="midnightblue" d="M1007.52,-128C1020.1,-128 1033.56,-128 1045.96,-128"/>
<polygon fill="midnightblue" stroke="midnightblue" points="1046.08,-131.5 1056.08,-128 1046.08,-124.5 1046.08,-131.5"/>
</g>
<!-- Node386&#45;&gt;Node381 -->
<g id="edge13" class="edge"><title>Node386&#45;&gt;Node381</title>
<path fill="none" stroke="midnightblue" d="M824.533,-257.225C850.441,-286.15 904.704,-346.732 934.785,-380.315"/>
<polygon fill="midnightblue" stroke="midnightblue" points="932.247,-382.727 941.526,-387.841 937.461,-378.057 932.247,-382.727"/>
</g>
<!-- Node387 -->
<g id="node14" class="node"><title>Node387</title>
<g id="a_node14"><a xlink:href="AP__Math_8h.html#a68558c4f79a8582543daefde13c64abc" target="_top" xlink:title=" ">
<polygon fill="white" stroke="black" points="915.089,-157 915.089,-177 998.911,-177 998.911,-157 915.089,-157"/>
<text text-anchor="middle" x="957" y="-163" font-family="Helvetica,sans-Serif" font-size="10.00">constrain_int16</text>
</a>
</g>
</g>
<!-- Node386&#45;&gt;Node387 -->
<g id="edge14" class="edge"><title>Node386&#45;&gt;Node387</title>
<path fill="none" stroke="midnightblue" d="M833.264,-224.801C850.981,-212.962 876.284,-197.102 900,-186 904.085,-184.088 908.418,-182.272 912.793,-180.576"/>
<polygon fill="midnightblue" stroke="midnightblue" points="914.176,-183.797 922.357,-177.064 911.763,-177.226 914.176,-183.797"/>
</g>
<!-- Node393 -->
<g id="node20" class="node"><title>Node393</title>
<g id="a_node20"><a xlink:href="classChibiOS_1_1RCOutput.html#add3703433b5a139447d77b47f3c46fce" target="_top" xlink:title=" ">
<polygon fill="white" stroke="black" points="902.579,-247 902.579,-279 1011.42,-279 1011.42,-247 902.579,-247"/>
<text text-anchor="start" x="910.579" y="-265" font-family="Helvetica,sans-Serif" font-size="10.00">ChibiOS::RCOutput::</text>
<text text-anchor="middle" x="957" y="-253" font-family="Helvetica,sans-Serif" font-size="10.00">create_dshot_packet</text>
</a>
</g>
</g>
<!-- Node386&#45;&gt;Node393 -->
<g id="edge21" class="edge"><title>Node386&#45;&gt;Node393</title>
<path fill="none" stroke="midnightblue" d="M863.536,-249.067C872.959,-250.487 882.848,-251.977 892.511,-253.433"/>
<polygon fill="midnightblue" stroke="midnightblue" points="892.061,-256.905 902.47,-254.934 893.104,-249.983 892.061,-256.905"/>
</g>
<!-- Node394 -->
<g id="node21" class="node"><title>Node394</title>
<g id="a_node21"><a xlink:href="classChibiOS_1_1RCOutput.html#aa9509f54f6a076bafa82dd551cd1dca2" target="_top" xlink:title=" ">
<polygon fill="white" stroke="black" points="899.896,-196 899.896,-228 1014.1,-228 1014.1,-196 899.896,-196"/>
<text text-anchor="start" x="907.896" y="-214" font-family="Helvetica,sans-Serif" font-size="10.00">ChibiOS::RCOutput::</text>
<text text-anchor="middle" x="957" y="-202" font-family="Helvetica,sans-Serif" font-size="10.00">fill_DMA_buffer_dshot</text>
</a>
</g>
</g>
<!-- Node386&#45;&gt;Node394 -->
<g id="edge22" class="edge"><title>Node386&#45;&gt;Node394</title>
<path fill="none" stroke="midnightblue" d="M863.536,-230.366C872.051,-228.675 880.947,-226.908 889.712,-225.167"/>
<polygon fill="midnightblue" stroke="midnightblue" points="890.4,-228.599 899.526,-223.217 889.036,-221.733 890.4,-228.599"/>
</g>
<!-- Node395 -->
<g id="node22" class="node"><title>Node395</title>
<g id="a_node22"><a xlink:href="classChibiOS_1_1RCOutput.html#a2609983c416b38e1eb49e0996b82cb70" target="_top" xlink:title=" ">
<polygon fill="white" stroke="black" points="902.594,-298 902.594,-330 1011.41,-330 1011.41,-298 902.594,-298"/>
<text text-anchor="start" x="910.594" y="-316" font-family="Helvetica,sans-Serif" font-size="10.00">ChibiOS::RCOutput::</text>
<text text-anchor="middle" x="957" y="-304" font-family="Helvetica,sans-Serif" font-size="10.00">send_pulses_DMAR</text>
</a>
</g>
</g>
<!-- Node386&#45;&gt;Node395 -->
<g id="edge23" class="edge"><title>Node386&#45;&gt;Node395</title>
<path fill="none" stroke="midnightblue" d="M839.822,-257.018C857.262,-266.274 879.762,-278.024 900,-288 903.732,-289.839 907.619,-291.719 911.529,-293.583"/>
<polygon fill="midnightblue" stroke="midnightblue" points="910.094,-296.776 920.631,-297.883 913.084,-290.447 910.094,-296.776"/>
</g>
<!-- Node386&#45;&gt;Node383 -->
<g id="edge24" class="edge"><title>Node386&#45;&gt;Node383</title>
<path fill="none" stroke="midnightblue" d="M827.348,-224.608C838.099,-214.294 852.084,-200.596 864,-188 880.665,-170.384 879.832,-160.465 900,-147 902.564,-145.288 905.297,-143.716 908.125,-142.275"/>
<polygon fill="midnightblue" stroke="midnightblue" points="909.702,-145.404 917.383,-138.107 906.828,-139.021 909.702,-145.404"/>
</g>
<!-- Node388 -->
<g id="node15" class="node"><title>Node388</title>
<g id="a_node15"><a xlink:href="AP__Math_8h.html#a20e8f8671c282c69c1954652b6d61585" target="_top" xlink:title=" ">
<polygon fill="white" stroke="black" points="1049.98,-214 1049.98,-234 1136.02,-234 1136.02,-214 1049.98,-214"/>
<text text-anchor="middle" x="1093" y="-220" font-family="Helvetica,sans-Serif" font-size="10.00">constrain_value</text>
</a>
</g>
</g>
<!-- Node387&#45;&gt;Node388 -->
<g id="edge15" class="edge"><title>Node387&#45;&gt;Node388</title>
<path fill="none" stroke="midnightblue" d="M989.947,-177.063C997.879,-179.773 1006.31,-182.837 1014,-186 1030.91,-192.956 1049.33,-201.861 1064.01,-209.302"/>
<polygon fill="midnightblue" stroke="midnightblue" points="1062.58,-212.499 1073.07,-213.945 1065.77,-206.269 1062.58,-212.499"/>
</g>
<!-- Node389 -->
<g id="node16" class="node"><title>Node389</title>
<g id="a_node16"><a xlink:href="namespaceAP.html#afceb236ff617aaaa2b08afacd72532b0" target="_top" xlink:title=" ">
<polygon fill="white" stroke="black" points="1186.6,-253 1186.6,-273 1275.4,-273 1275.4,-253 1186.6,-253"/>
<text text-anchor="middle" x="1231" y="-259" font-family="Helvetica,sans-Serif" font-size="10.00">AP::internalerror</text>
</a>
</g>
</g>
<!-- Node388&#45;&gt;Node389 -->
<g id="edge16" class="edge"><title>Node388&#45;&gt;Node389</title>
<path fill="none" stroke="midnightblue" d="M1129.02,-234.043C1146.16,-238.956 1166.97,-244.926 1185.25,-250.166"/>
<polygon fill="midnightblue" stroke="midnightblue" points="1184.52,-253.598 1195.1,-252.991 1186.45,-246.87 1184.52,-253.598"/>
</g>
<!-- Node390 -->
<g id="node17" class="node"><title>Node390</title>
<g id="a_node17"><a xlink:href="classAP__InternalError.html#ab34174ba770b976b39a18c2b23e854f2" target="_top" xlink:title=" ">
<polygon fill="white" stroke="black" points="1172.43,-214 1172.43,-234 1289.57,-234 1289.57,-214 1172.43,-214"/>
<text text-anchor="middle" x="1231" y="-220" font-family="Helvetica,sans-Serif" font-size="10.00">AP_InternalError::error</text>
</a>
</g>
</g>
<!-- Node388&#45;&gt;Node390 -->
<g id="edge17" class="edge"><title>Node388&#45;&gt;Node390</title>
<path fill="none" stroke="midnightblue" d="M1136.29,-224C1144.47,-224 1153.23,-224 1162,-224"/>
<polygon fill="midnightblue" stroke="midnightblue" points="1162.25,-227.5 1172.25,-224 1162.25,-220.5 1162.25,-227.5"/>
</g>
<!-- Node391 -->
<g id="node18" class="node"><title>Node391</title>
<g id="a_node18"><a xlink:href="namespaceAP__HAL.html#a71832f03d849a0c088f04fc98d3c8143" target="_top" xlink:title=" ">
<polygon fill="white" stroke="black" points="1326.09,-237 1326.09,-257 1409.91,-257 1409.91,-237 1326.09,-237"/>
<text text-anchor="middle" x="1368" y="-243" font-family="Helvetica,sans-Serif" font-size="10.00">AP_HAL::panic</text>
</a>
</g>
</g>
<!-- Node390&#45;&gt;Node391 -->
<g id="edge18" class="edge"><title>Node390&#45;&gt;Node391</title>
<path fill="none" stroke="midnightblue" d="M1289.64,-233.821C1298.4,-235.313 1307.38,-236.843 1315.99,-238.309"/>
<polygon fill="midnightblue" stroke="midnightblue" points="1315.43,-241.764 1325.87,-239.993 1316.6,-234.863 1315.43,-241.764"/>
</g>
<!-- Node392 -->
<g id="node19" class="node"><title>Node392</title>
<g id="a_node19"><a xlink:href="stdio_8h.html#aae132cc6af1eb6cf43bf011d8d63e854" target="_top" xlink:title=" ">
<polygon fill="white" stroke="black" points="1479.38,-237 1479.38,-257 1522.62,-257 1522.62,-237 1479.38,-237"/>
<text text-anchor="middle" x="1501" y="-243" font-family="Helvetica,sans-Serif" font-size="10.00">vprintf</text>
</a>
</g>
</g>
<!-- Node391&#45;&gt;Node392 -->
<g id="edge19" class="edge"><title>Node391&#45;&gt;Node392</title>
<path fill="none" stroke="midnightblue" d="M1410.09,-247C1429.1,-247 1451.32,-247 1468.91,-247"/>
<polygon fill="midnightblue" stroke="midnightblue" points="1469.2,-250.5 1479.2,-247 1469.2,-243.5 1469.2,-250.5"/>
</g>
<!-- Node391&#45;&gt;Node385 -->
<g id="edge20" class="edge"><title>Node391&#45;&gt;Node385</title>
<path fill="none" stroke="midnightblue" d="M1388.61,-257.031C1407.26,-266.57 1435.89,-281.212 1459.45,-293.262"/>
<polygon fill="midnightblue" stroke="midnightblue" points="1458.04,-296.469 1468.53,-297.907 1461.22,-290.237 1458.04,-296.469"/>
</g>
<!-- Node397 -->
<g id="node24" class="node"><title>Node397</title>
<g id="a_node24"><a xlink:href="classAP__HAL_1_1Util.html#a14c1d65e9a151cbb7fc3f5ce8a17e420" target="_top" xlink:title=" ">
<polygon fill="white" stroke="black" points="438.365,-102 438.365,-122 571.635,-122 571.635,-102 438.365,-102"/>
<text text-anchor="middle" x="505" y="-108" font-family="Helvetica,sans-Serif" font-size="10.00">AP_HAL::Util::malloc_type</text>
</a>
</g>
</g>
<!-- Node396&#45;&gt;Node397 -->
<g id="edge26" class="edge"><title>Node396&#45;&gt;Node397</title>
<path fill="none" stroke="midnightblue" d="M401.686,-96.9153C410.267,-98.1804 419.284,-99.5098 428.261,-100.833"/>
<polygon fill="midnightblue" stroke="midnightblue" points="427.951,-104.325 438.354,-102.321 428.972,-97.4002 427.951,-104.325"/>
</g>
<!-- Node401 -->
<g id="node28" class="node"><title>Node401</title>
<g id="a_node28"><a xlink:href="classChibiOS_1_1RCOutput.html#a1c214b41a1dd31fc9e5a432d55de7507" target="_top" xlink:title=" ">
<polygon fill="white" stroke="black" points="450.594,-51 450.594,-83 559.406,-83 559.406,-51 450.594,-51"/>
<text text-anchor="start" x="458.594" y="-69" font-family="Helvetica,sans-Serif" font-size="10.00">ChibiOS::RCOutput::</text>
<text text-anchor="middle" x="505" y="-57" font-family="Helvetica,sans-Serif" font-size="10.00">dma_allocate</text>
</a>
</g>
</g>
<!-- Node396&#45;&gt;Node401 -->
<g id="edge30" class="edge"><title>Node396&#45;&gt;Node401</title>
<path fill="none" stroke="midnightblue" d="M401.686,-81.4288C414.135,-79.6733 427.501,-77.7883 440.332,-75.9788"/>
<polygon fill="midnightblue" stroke="midnightblue" points="441.066,-79.4101 450.479,-74.5478 440.088,-72.4786 441.066,-79.4101"/>
</g>
<!-- Node404 -->
<g id="node31" class="node"><title>Node404</title>
<g id="a_node31"><a xlink:href="classChibiOS_1_1RCOutput.html#ac9b6c63b0ff6e909e9acf9c55f400e7a" target="_top" xlink:title=" ">
<polygon fill="white" stroke="black" points="450.594,-0 450.594,-32 559.406,-32 559.406,-0 450.594,-0"/>
<text text-anchor="start" x="458.594" y="-18" font-family="Helvetica,sans-Serif" font-size="10.00">ChibiOS::RCOutput::</text>
<text text-anchor="middle" x="505" y="-6" font-family="Helvetica,sans-Serif" font-size="10.00">dma_deallocate</text>
</a>
</g>
</g>
<!-- Node396&#45;&gt;Node404 -->
<g id="edge33" class="edge"><title>Node396&#45;&gt;Node404</title>
<path fill="none" stroke="midnightblue" d="M375.909,-72.9237C393.451,-63.1196 416.714,-50.6598 438,-41 441.828,-39.2626 445.816,-37.5418 449.852,-35.8644"/>
<polygon fill="midnightblue" stroke="midnightblue" points="451.345,-39.036 459.303,-32.0417 448.72,-32.5467 451.345,-39.036"/>
</g>
<!-- Node398 -->
<g id="node25" class="node"><title>Node398</title>
<g id="a_node25"><a xlink:href="malloc_8c.html#a62b7798461bd461da64c5f9d35feddf7" target="_top" xlink:title=" ">
<polygon fill="white" stroke="black" points="642.217,-102 642.217,-122 683.783,-122 683.783,-102 642.217,-102"/>
<text text-anchor="middle" x="663" y="-108" font-family="Helvetica,sans-Serif" font-size="10.00">calloc</text>
</a>
</g>
</g>
<!-- Node397&#45;&gt;Node398 -->
<g id="edge27" class="edge"><title>Node397&#45;&gt;Node398</title>
<path fill="none" stroke="midnightblue" d="M571.706,-112C592.471,-112 614.429,-112 631.491,-112"/>
<polygon fill="midnightblue" stroke="midnightblue" points="631.935,-115.5 641.935,-112 631.935,-108.5 631.935,-115.5"/>
</g>
<!-- Node399 -->
<g id="node26" class="node"><title>Node399</title>
<g id="a_node26"><a xlink:href="malloc_8c.html#a7ac38fce3243a7dcf448301ee9ffd392" target="_top" xlink:title=" ">
<polygon fill="white" stroke="black" points="786.552,-102 786.552,-122 831.448,-122 831.448,-102 786.552,-102"/>
<text text-anchor="middle" x="809" y="-108" font-family="Helvetica,sans-Serif" font-size="10.00">malloc</text>
</a>
</g>
</g>
<!-- Node398&#45;&gt;Node399 -->
<g id="edge28" class="edge"><title>Node398&#45;&gt;Node399</title>
<path fill="none" stroke="midnightblue" d="M684.023,-112C707.869,-112 748.005,-112 776.133,-112"/>
<polygon fill="midnightblue" stroke="midnightblue" points="776.266,-115.5 786.266,-112 776.266,-108.5 776.266,-115.5"/>
</g>
<!-- Node400 -->
<g id="node27" class="node"><title>Node400</title>
<g id="a_node27"><a xlink:href="malloc_8c.html#aa5c105052a59261e63119d5203374a41" target="_top" xlink:title=" ">
<polygon fill="white" stroke="black" points="921.209,-79 921.209,-99 992.791,-99 992.791,-79 921.209,-79"/>
<text text-anchor="middle" x="957" y="-85" font-family="Helvetica,sans-Serif" font-size="10.00">malloc_flags</text>
</a>
</g>
</g>
<!-- Node399&#45;&gt;Node400 -->
<g id="edge29" class="edge"><title>Node399&#45;&gt;Node400</title>
<path fill="none" stroke="midnightblue" d="M831.543,-108.606C852.34,-105.33 884.476,-100.268 910.882,-96.1076"/>
<polygon fill="midnightblue" stroke="midnightblue" points="911.722,-99.5186 921.055,-94.505 910.633,-92.6038 911.722,-99.5186"/>
</g>
<!-- Node402 -->
<g id="node29" class="node"><title>Node402</title>
<g id="a_node29"><a xlink:href="classChibiOS_1_1RCOutput.html#ae1413161f72c6573cbf452edbc83c897" target="_top" xlink:title=" ">
<polygon fill="white" stroke="black" points="608.594,-51 608.594,-83 717.406,-83 717.406,-51 608.594,-51"/>
<text text-anchor="start" x="616.594" y="-69" font-family="Helvetica,sans-Serif" font-size="10.00">ChibiOS::RCOutput::</text>
<text text-anchor="middle" x="663" y="-57" font-family="Helvetica,sans-Serif" font-size="10.00">dma_irq_callback</text>
</a>
</g>
</g>
<!-- Node401&#45;&gt;Node402 -->
<g id="edge31" class="edge"><title>Node401&#45;&gt;Node402</title>
<path fill="none" stroke="midnightblue" d="M559.686,-67C572.135,-67 585.501,-67 598.332,-67"/>
<polygon fill="midnightblue" stroke="midnightblue" points="598.479,-70.5001 608.479,-67 598.479,-63.5001 598.479,-70.5001"/>
</g>
<!-- Node403 -->
<g id="node30" class="node"><title>Node403</title>
<g id="a_node30"><a xlink:href="classChibiOS_1_1RCOutput.html#aa96500b7e70c3995b4b6a608f9adb39f" target="_top" xlink:title=" ">
<polygon fill="white" stroke="black" points="754.594,-51 754.594,-83 863.406,-83 863.406,-51 754.594,-51"/>
<text text-anchor="start" x="762.594" y="-69" font-family="Helvetica,sans-Serif" font-size="10.00">ChibiOS::RCOutput::</text>
<text text-anchor="middle" x="809" y="-57" font-family="Helvetica,sans-Serif" font-size="10.00">dma_unlock</text>
</a>
</g>
</g>
<!-- Node402&#45;&gt;Node403 -->
<g id="edge32" class="edge"><title>Node402&#45;&gt;Node403</title>
<path fill="none" stroke="midnightblue" d="M717.62,-67C726.241,-67 735.239,-67 744.073,-67"/>
<polygon fill="midnightblue" stroke="midnightblue" points="744.335,-70.5001 754.335,-67 744.335,-63.5001 744.335,-70.5001"/>
</g>
<!-- Node405&#45;&gt;Node375 -->
<g id="edge35" class="edge"><title>Node405&#45;&gt;Node375</title>
<path fill="none" stroke="midnightblue" d="M370.602,-276.007C388.391,-288.183 414.089,-304.856 438,-317 441.999,-319.031 446.197,-321.011 450.454,-322.912"/>
<polygon fill="midnightblue" stroke="midnightblue" points="449.25,-326.204 459.819,-326.939 452.016,-319.773 449.25,-326.204"/>
</g>
</g>
</svg>
        <g id="navigator" transform="translate(0 0)" fill="#404254">
                <rect fill="#f2f5e9" fill-opacity="0.5" stroke="#606060" stroke-width=".5" x="0" y="0" width="60" height="60"/>
                <use id="zoomplus" xlink:href="#zoomPlus" x="17" y="9" onmousedown="handleZoom(evt,'in')"/>
                <use id="zoomminus" xlink:href="#zoomMin" x="42" y="9" onmousedown="handleZoom(evt,'out')"/>
                <use id="reset" xlink:href="#resetDef" x="30" y="36" onmousedown="handleReset()"/>
                <g id="arrowUp" xlink:href="#dirArrow" transform="translate(30 24)" onmousedown="handlePan(0,-1)">
                  <use xlink:href="#rim" fill="#404040">
                        <set attributeName="fill" to="#808080" begin="arrowUp.mouseover" end="arrowUp.mouseout"/>
                  </use>
                  <path fill="none" stroke="white" stroke-width="1.5" d="M0,-3.0v7 M-2.5,-0.5L0,-3.0L2.5,-0.5"/>
                </g>
                <g id="arrowRight" xlink:href="#dirArrow" transform="rotate(90) translate(36 -43)" onmousedown="handlePan(1,0)">
                  <use xlink:href="#rim" fill="#404040">
                        <set attributeName="fill" to="#808080" begin="arrowRight.mouseover" end="arrowRight.mouseout"/>
                  </use>
                  <path fill="none" stroke="white" stroke-width="1.5" d="M0,-3.0v7 M-2.5,-0.5L0,-3.0L2.5,-0.5"/>
                </g>
                <g id="arrowDown" xlink:href="#dirArrow" transform="rotate(180) translate(-30 -48)" onmousedown="handlePan(0,1)">
                  <use xlink:href="#rim" fill="#404040">
                        <set attributeName="fill" to="#808080" begin="arrowDown.mouseover" end="arrowDown.mouseout"/>
                  </use>
                  <path fill="none" stroke="white" stroke-width="1.5" d="M0,-3.0v7 M-2.5,-0.5L0,-3.0L2.5,-0.5"/>
                </g>
                <g id="arrowLeft" xlink:href="#dirArrow" transform="rotate(270) translate(-36 17)" onmousedown="handlePan(-1,0)">
                  <use xlink:href="#rim" fill="#404040">
                        <set attributeName="fill" to="#808080" begin="arrowLeft.mouseover" end="arrowLeft.mouseout"/>
                  </use>
                  <path fill="none" stroke="white" stroke-width="1.5" d="M0,-3.0v7 M-2.5,-0.5L0,-3.0L2.5,-0.5"/>
                </g>
        </g>
        <svg viewBox="0 0 15 15" width="100%" height="30px" preserveAspectRatio="xMaxYMin meet">
         <g id="arrow_out" transform="scale(0.3 0.3)">
          <a xlink:href="classChibiOS_1_1RCOutput_a02b43036272398ecc80472be5dee8276_cgraph_org.svg" target="_base">
           <rect id="button" ry="5" rx="5" y="6" x="6" height="38" width="38"
                fill="#f2f5e9" fill-opacity="0.5" stroke="#606060" stroke-width="1.0"/>
           <path id="arrow"
             d="M 11.500037,31.436501 C 11.940474,20.09759 22.043105,11.32322 32.158766,21.979434 L 37.068811,17.246167 C 37.068811,17.246167 37.088388,32 37.088388,32 L 22.160133,31.978069 C 22.160133,31.978069 26.997745,27.140456 26.997745,27.140456 C 18.528582,18.264221 13.291696,25.230495 11.500037,31.436501 z"
             style="fill:#404040;"/>
          </a>
         </g>
        </svg>
</svg>
