<?xml version="1.0" encoding="UTF-8" standalone="no"?>
<!DOCTYPE svg PUBLIC "-//W3C//DTD SVG 1.1//EN"
 "http://www.w3.org/Graphics/SVG/1.1/DTD/svg11.dtd">
<!-- Generated by graphviz version 2.30.1 (20130221.2233)
 -->
<!-- Title: AP_Stats::update Pages: 1 -->
<!--zoomable 219 -->
<svg id="main" version="1.1" xmlns="http://www.w3.org/2000/svg" xmlns:xlink="http://www.w3.org/1999/xlink" xml:space="preserve" onload="init(evt)">
<style type="text/css"><![CDATA[
.edge:hover path { stroke: red; }
.edge:hover polygon { stroke: red; fill: red; }
]]></style>
<script type="text/javascript"><![CDATA[
var edges = document.getElementsByTagName('g');
if (edges && edges.length) {
  for (var i=0;i<edges.length;i++) {
    if (edges[i].id.substr(0,4)=='edge') {
      edges[i].setAttribute('class','edge');
    }
  }
}
]]></script>
        <defs>
                <circle id="rim" cx="0" cy="0" r="7"/>
                <circle id="rim2" cx="0" cy="0" r="3.5"/>
                <g id="zoomPlus">
                        <use xlink:href="#rim" fill="#404040">
                                <set attributeName="fill" to="#808080" begin="zoomplus.mouseover" end="zoomplus.mouseout"/>
                        </use>
                        <path d="M-4,0h8M0,-4v8" fill="none" stroke="white" stroke-width="1.5" pointer-events="none"/>
                </g>
                <g id="zoomMin">
                        <use xlink:href="#rim" fill="#404040">
                                <set attributeName="fill" to="#808080" begin="zoomminus.mouseover" end="zoomminus.mouseout"/>
                        </use>
                        <path d="M-4,0h8" fill="none" stroke="white" stroke-width="1.5" pointer-events="none"/>
                </g>
                <g id="dirArrow">
                        <path fill="none" stroke="white" stroke-width="1.5" d="M0,-3.0v7 M-2.5,-0.5L0,-3.0L2.5,-0.5"/>
                </g>
               <g id="resetDef">
                       <use xlink:href="#rim2" fill="#404040">
                               <set attributeName="fill" to="#808080" begin="reset.mouseover" end="reset.mouseout"/>
                       </use>
               </g>
        </defs>

<script type="text/javascript">
var viewWidth = 538;
var viewHeight = 219;
var sectionId = 'dynsection-7';
</script>
<script xlink:href="svgpan.js"/>
<svg id="graph" class="graph">
<g id="viewport">
<title>AP_Stats::update</title>
<polygon fill="white" stroke="white" points="-4,5 -4,-214.954 535,-214.954 535,5 -4,5"/>
<!-- Node28 -->
<g id="node1" class="node"><title>Node28</title>
<g id="a_node1"><a xlink:title=" ">
<polygon fill="#bfbfbf" stroke="black" points="0.0839844,-109 0.0839844,-129 93.916,-129 93.916,-109 0.0839844,-109"/>
<text text-anchor="middle" x="47" y="-115" font-family="Helvetica,sans-Serif" font-size="10.00">AP_Stats::update</text>
</a>
</g>
</g>
<!-- Node29 -->
<g id="node2" class="node"><title>Node29</title>
<g id="a_node2"><a xlink:href="namespaceAP__HAL.html#a77dffbb18891996280308e21316ec186" target="_top" xlink:title=" ">
<polygon fill="white" stroke="black" points="324.936,-168 324.936,-188 407.064,-188 407.064,-168 324.936,-168"/>
<text text-anchor="middle" x="366" y="-174" font-family="Helvetica,sans-Serif" font-size="10.00">AP_HAL::millis</text>
</a>
</g>
</g>
<!-- Node28&#45;&gt;Node29 -->
<g id="edge1" class="edge"><title>Node28&#45;&gt;Node29</title>
<path fill="none" stroke="midnightblue" d="M54.6283,-129.118C66.9566,-146.891 95.3346,-183.146 130,-197 195.647,-223.236 279.68,-205.422 327.41,-191.055"/>
<polygon fill="midnightblue" stroke="midnightblue" points="328.519,-194.375 337.024,-188.058 326.436,-187.693 328.519,-194.375"/>
</g>
<!-- Node31 -->
<g id="node4" class="node"><title>Node31</title>
<g id="a_node4"><a xlink:href="classAP__Stats.html#a2e7081a97c7ba47a96f70a8f2071aa24" target="_top" xlink:title=" ">
<polygon fill="white" stroke="black" points="130.296,-168 130.296,-188 269.704,-188 269.704,-168 130.296,-168"/>
<text text-anchor="middle" x="200" y="-174" font-family="Helvetica,sans-Serif" font-size="10.00">AP_Stats::update_flighttime</text>
</a>
</g>
</g>
<!-- Node28&#45;&gt;Node31 -->
<g id="edge3" class="edge"><title>Node28&#45;&gt;Node31</title>
<path fill="none" stroke="midnightblue" d="M66.8376,-129.035C83.2169,-137.497 107.747,-149.547 130,-158 136.502,-160.47 143.445,-162.813 150.329,-164.967"/>
<polygon fill="midnightblue" stroke="midnightblue" points="149.73,-168.442 160.314,-167.98 151.752,-161.74 149.73,-168.442"/>
</g>
<!-- Node32 -->
<g id="node5" class="node"><title>Node32</title>
<g id="a_node5"><a xlink:href="classAP__Stats.html#a72e5b4bece26de3874205fbdec78e459" target="_top" xlink:title=" ">
<polygon fill="white" stroke="black" points="133.631,-129 133.631,-149 266.369,-149 266.369,-129 133.631,-129"/>
<text text-anchor="middle" x="200" y="-135" font-family="Helvetica,sans-Serif" font-size="10.00">AP_Stats::update_runtime</text>
</a>
</g>
</g>
<!-- Node28&#45;&gt;Node32 -->
<g id="edge5" class="edge"><title>Node28&#45;&gt;Node32</title>
<path fill="none" stroke="midnightblue" d="M94.1255,-125.109C103.427,-126.341 113.434,-127.667 123.442,-128.992"/>
<polygon fill="midnightblue" stroke="midnightblue" points="123.052,-132.471 133.425,-130.315 123.971,-125.532 123.052,-132.471"/>
</g>
<!-- Node33 -->
<g id="node6" class="node"><title>Node33</title>
<g id="a_node6"><a xlink:href="classAP__Stats.html#ab95d9f9ac9d1a4358dcde822d5a89502" target="_top" xlink:title=" ">
<polygon fill="white" stroke="black" points="157.815,-90 157.815,-110 242.185,-110 242.185,-90 157.815,-90"/>
<text text-anchor="middle" x="200" y="-96" font-family="Helvetica,sans-Serif" font-size="10.00">AP_Stats::flush</text>
</a>
</g>
</g>
<!-- Node28&#45;&gt;Node33 -->
<g id="edge7" class="edge"><title>Node28&#45;&gt;Node33</title>
<path fill="none" stroke="midnightblue" d="M94.1255,-113.196C111.091,-111.061 130.401,-108.632 147.787,-106.444"/>
<polygon fill="midnightblue" stroke="midnightblue" points="148.285,-109.909 157.77,-105.188 147.411,-102.964 148.285,-109.909"/>
</g>
<!-- Node34 -->
<g id="node7" class="node"><title>Node34</title>
<g id="a_node7"><a xlink:href="namespaceAP.html#ac357c38b6638140c5510e6ba566b998b" target="_top" xlink:title=" ">
<polygon fill="white" stroke="black" points="176.998,-51 176.998,-71 223.002,-71 223.002,-51 176.998,-51"/>
<text text-anchor="middle" x="200" y="-57" font-family="Helvetica,sans-Serif" font-size="10.00">AP::rtc</text>
</a>
</g>
</g>
<!-- Node28&#45;&gt;Node34 -->
<g id="edge8" class="edge"><title>Node28&#45;&gt;Node34</title>
<path fill="none" stroke="midnightblue" d="M67.525,-108.928C83.9178,-100.722 108.104,-89.1928 130,-81 141.926,-76.5377 155.314,-72.4537 167.101,-69.156"/>
<polygon fill="midnightblue" stroke="midnightblue" points="168.239,-72.4734 176.97,-66.4706 166.402,-65.719 168.239,-72.4734"/>
</g>
<!-- Node36 -->
<g id="node9" class="node"><title>Node36</title>
<g id="a_node9"><a xlink:href="classAP__Stats.html#a9d06946fc6ec1ea959e267df7b552c86" target="_top" xlink:title=" ">
<polygon fill="white" stroke="black" points="135.025,-0 135.025,-32 264.975,-32 264.975,-0 135.025,-0"/>
<text text-anchor="start" x="143.025" y="-18" font-family="Helvetica,sans-Serif" font-size="10.00">AP_Stats::copy_variables</text>
<text text-anchor="middle" x="200" y="-6" font-family="Helvetica,sans-Serif" font-size="10.00">_from_parameters</text>
</a>
</g>
</g>
<!-- Node28&#45;&gt;Node36 -->
<g id="edge10" class="edge"><title>Node28&#45;&gt;Node36</title>
<path fill="none" stroke="midnightblue" d="M56.3476,-108.925C70.1679,-92.8085 99.3358,-61.1038 130,-42 133.175,-40.0222 136.524,-38.1571 139.966,-36.4048"/>
<polygon fill="midnightblue" stroke="midnightblue" points="141.688,-39.4624 149.238,-32.03 138.701,-33.1316 141.688,-39.4624"/>
</g>
<!-- Node30 -->
<g id="node3" class="node"><title>Node30</title>
<g id="a_node3"><a xlink:href="hrt_8c.html#a1295f128f60d29874243b5733c4db025" target="_top" xlink:title=" ">
<polygon fill="white" stroke="black" points="462.714,-168 462.714,-188 529.286,-188 529.286,-168 462.714,-168"/>
<text text-anchor="middle" x="496" y="-174" font-family="Helvetica,sans-Serif" font-size="10.00">hrt_millis32</text>
</a>
</g>
</g>
<!-- Node29&#45;&gt;Node30 -->
<g id="edge2" class="edge"><title>Node29&#45;&gt;Node30</title>
<path fill="none" stroke="midnightblue" d="M407.149,-178C421.544,-178 437.818,-178 452.413,-178"/>
<polygon fill="midnightblue" stroke="midnightblue" points="452.692,-181.5 462.692,-178 452.692,-174.5 452.692,-181.5"/>
</g>
<!-- Node31&#45;&gt;Node29 -->
<g id="edge4" class="edge"><title>Node31&#45;&gt;Node29</title>
<path fill="none" stroke="midnightblue" d="M270.075,-178C284.864,-178 300.228,-178 314.178,-178"/>
<polygon fill="midnightblue" stroke="midnightblue" points="314.536,-181.5 324.536,-178 314.536,-174.5 314.536,-181.5"/>
</g>
<!-- Node32&#45;&gt;Node29 -->
<g id="edge6" class="edge"><title>Node32&#45;&gt;Node29</title>
<path fill="none" stroke="midnightblue" d="M243.234,-149.043C265.142,-154.253 292.047,-160.651 314.99,-166.107"/>
<polygon fill="midnightblue" stroke="midnightblue" points="314.348,-169.552 324.886,-168.461 315.967,-162.742 314.348,-169.552"/>
</g>
<!-- Node35 -->
<g id="node8" class="node"><title>Node35</title>
<g id="a_node8"><a xlink:href="classAP__RTC.html#a3980ad7dc2c01f3b6e8870ee6f870793" target="_top" xlink:title=" ">
<polygon fill="white" stroke="black" points="305.837,-51 305.837,-71 426.163,-71 426.163,-51 305.837,-51"/>
<text text-anchor="middle" x="366" y="-57" font-family="Helvetica,sans-Serif" font-size="10.00">AP_RTC::get_singleton</text>
</a>
</g>
</g>
<!-- Node34&#45;&gt;Node35 -->
<g id="edge9" class="edge"><title>Node34&#45;&gt;Node35</title>
<path fill="none" stroke="midnightblue" d="M223.118,-61C241.72,-61 269.361,-61 295.318,-61"/>
<polygon fill="midnightblue" stroke="midnightblue" points="295.54,-64.5001 305.54,-61 295.54,-57.5001 295.54,-64.5001"/>
</g>
</g>
</svg>
        <g id="navigator" transform="translate(0 0)" fill="#404254">
                <rect fill="#f2f5e9" fill-opacity="0.5" stroke="#606060" stroke-width=".5" x="0" y="0" width="60" height="60"/>
                <use id="zoomplus" xlink:href="#zoomPlus" x="17" y="9" onmousedown="handleZoom(evt,'in')"/>
                <use id="zoomminus" xlink:href="#zoomMin" x="42" y="9" onmousedown="handleZoom(evt,'out')"/>
                <use id="reset" xlink:href="#resetDef" x="30" y="36" onmousedown="handleReset()"/>
                <g id="arrowUp" xlink:href="#dirArrow" transform="translate(30 24)" onmousedown="handlePan(0,-1)">
                  <use xlink:href="#rim" fill="#404040">
                        <set attributeName="fill" to="#808080" begin="arrowUp.mouseover" end="arrowUp.mouseout"/>
                  </use>
                  <path fill="none" stroke="white" stroke-width="1.5" d="M0,-3.0v7 M-2.5,-0.5L0,-3.0L2.5,-0.5"/>
                </g>
                <g id="arrowRight" xlink:href="#dirArrow" transform="rotate(90) translate(36 -43)" onmousedown="handlePan(1,0)">
                  <use xlink:href="#rim" fill="#404040">
                        <set attributeName="fill" to="#808080" begin="arrowRight.mouseover" end="arrowRight.mouseout"/>
                  </use>
                  <path fill="none" stroke="white" stroke-width="1.5" d="M0,-3.0v7 M-2.5,-0.5L0,-3.0L2.5,-0.5"/>
                </g>
                <g id="arrowDown" xlink:href="#dirArrow" transform="rotate(180) translate(-30 -48)" onmousedown="handlePan(0,1)">
                  <use xlink:href="#rim" fill="#404040">
                        <set attributeName="fill" to="#808080" begin="arrowDown.mouseover" end="arrowDown.mouseout"/>
                  </use>
                  <path fill="none" stroke="white" stroke-width="1.5" d="M0,-3.0v7 M-2.5,-0.5L0,-3.0L2.5,-0.5"/>
                </g>
                <g id="arrowLeft" xlink:href="#dirArrow" transform="rotate(270) translate(-36 17)" onmousedown="handlePan(-1,0)">
                  <use xlink:href="#rim" fill="#404040">
                        <set attributeName="fill" to="#808080" begin="arrowLeft.mouseover" end="arrowLeft.mouseout"/>
                  </use>
                  <path fill="none" stroke="white" stroke-width="1.5" d="M0,-3.0v7 M-2.5,-0.5L0,-3.0L2.5,-0.5"/>
                </g>
        </g>
        <svg viewBox="0 0 15 15" width="100%" height="30px" preserveAspectRatio="xMaxYMin meet">
         <g id="arrow_out" transform="scale(0.3 0.3)">
          <a xlink:href="classAP__Stats_a10f2e48b57e00d1b7c8bb9729a1d6e00_cgraph_org.svg" target="_base">
           <rect id="button" ry="5" rx="5" y="6" x="6" height="38" width="38"
                fill="#f2f5e9" fill-opacity="0.5" stroke="#606060" stroke-width="1.0"/>
           <path id="arrow"
             d="M 11.500037,31.436501 C 11.940474,20.09759 22.043105,11.32322 32.158766,21.979434 L 37.068811,17.246167 C 37.068811,17.246167 37.088388,32 37.088388,32 L 22.160133,31.978069 C 22.160133,31.978069 26.997745,27.140456 26.997745,27.140456 C 18.528582,18.264221 13.291696,25.230495 11.500037,31.436501 z"
             style="fill:#404040;"/>
          </a>
         </g>
        </svg>
</svg>
