<?xml version="1.0" encoding="UTF-8" standalone="no"?>
<!DOCTYPE svg PUBLIC "-//W3C//DTD SVG 1.1//EN"
 "http://www.w3.org/Graphics/SVG/1.1/DTD/svg11.dtd">
<!-- Generated by graphviz version 2.30.1 (20130221.2233)
 -->
<!-- Title: ChibiOS::DeviceBus::bouncebuffer_finish Pages: 1 -->
<svg width="402pt" height="142pt"
 viewBox="0.00 0.00 402.00 142.00" xmlns="http://www.w3.org/2000/svg" xmlns:xlink="http://www.w3.org/1999/xlink">
<g id="graph0" class="graph" transform="scale(1 1) rotate(0) translate(4 138)">
<title>ChibiOS::DeviceBus::bouncebuffer_finish</title>
<polygon fill="white" stroke="white" points="-4,5 -4,-138 399,-138 399,5 -4,5"/>
<!-- Node17 -->
<g id="node1" class="node"><title>Node17</title>
<g id="a_node1"><a xlink:title=" ">
<polygon fill="#bfbfbf" stroke="black" points="284.667,-76 284.667,-108 393.333,-108 393.333,-76 284.667,-76"/>
<text text-anchor="start" x="292.667" y="-94" font-family="Helvetica,sans-Serif" font-size="10.00">ChibiOS::DeviceBus</text>
<text text-anchor="middle" x="339" y="-82" font-family="Helvetica,sans-Serif" font-size="10.00">::bouncebuffer_finish</text>
</a>
</g>
</g>
<!-- Node18 -->
<g id="node2" class="node"><title>Node18</title>
<g id="a_node2"><a xlink:href="classChibiOS_1_1I2CDevice.html#a21a03f46d6b4c8d603df4a71a93a65b2" target="_top" xlink:title=" ">
<polygon fill="white" stroke="black" points="142.54,-102 142.54,-134 247.46,-134 247.46,-102 142.54,-102"/>
<text text-anchor="start" x="150.54" y="-120" font-family="Helvetica,sans-Serif" font-size="10.00">ChibiOS::I2CDevice</text>
<text text-anchor="middle" x="195" y="-108" font-family="Helvetica,sans-Serif" font-size="10.00">::_transfer</text>
</a>
</g>
</g>
<!-- Node17&#45;&gt;Node18 -->
<g id="edge1" class="edge"><title>Node17&#45;&gt;Node18</title>
<path fill="none" stroke="midnightblue" d="M274.397,-103.646C265.527,-105.27 256.5,-106.922 247.881,-108.501"/>
<polygon fill="midnightblue" stroke="midnightblue" points="275.11,-107.073 284.316,-101.829 273.849,-100.188 275.11,-107.073"/>
</g>
<!-- Node20 -->
<g id="node4" class="node"><title>Node20</title>
<g id="a_node4"><a xlink:href="classChibiOS_1_1SPIDevice.html#afef902de160f1dcd385f13f4c0731ebb" target="_top" xlink:title=" ">
<polygon fill="white" stroke="black" points="142.261,-51 142.261,-83 247.739,-83 247.739,-51 142.261,-51"/>
<text text-anchor="start" x="150.261" y="-69" font-family="Helvetica,sans-Serif" font-size="10.00">ChibiOS::SPIDevice</text>
<text text-anchor="middle" x="195" y="-57" font-family="Helvetica,sans-Serif" font-size="10.00">::do_transfer</text>
</a>
</g>
</g>
<!-- Node17&#45;&gt;Node20 -->
<g id="edge3" class="edge"><title>Node17&#45;&gt;Node20</title>
<path fill="none" stroke="midnightblue" d="M274.397,-80.8023C265.527,-79.2406 256.5,-77.6515 247.881,-76.1339"/>
<polygon fill="midnightblue" stroke="midnightblue" points="273.86,-84.2616 284.316,-82.5486 275.074,-77.3676 273.86,-84.2616"/>
</g>
<!-- Node19 -->
<g id="node3" class="node"><title>Node19</title>
<g id="a_node3"><a xlink:href="classChibiOS_1_1I2CDevice.html#acda87a68781e50471e6e8c20a7ec0541" target="_top" xlink:title=" ">
<polygon fill="white" stroke="black" points="0.539551,-102 0.539551,-134 105.46,-134 105.46,-102 0.539551,-102"/>
<text text-anchor="start" x="8.53955" y="-120" font-family="Helvetica,sans-Serif" font-size="10.00">ChibiOS::I2CDevice</text>
<text text-anchor="middle" x="53" y="-108" font-family="Helvetica,sans-Serif" font-size="10.00">::transfer</text>
</a>
</g>
</g>
<!-- Node18&#45;&gt;Node19 -->
<g id="edge2" class="edge"><title>Node18&#45;&gt;Node19</title>
<path fill="none" stroke="midnightblue" d="M131.998,-118C123.153,-118 114.136,-118 105.52,-118"/>
<polygon fill="midnightblue" stroke="midnightblue" points="132.267,-121.5 142.267,-118 132.267,-114.5 132.267,-121.5"/>
</g>
<!-- Node21 -->
<g id="node5" class="node"><title>Node21</title>
<g id="a_node5"><a xlink:href="classChibiOS_1_1SPIDevice.html#a2c8d77ac7a241a2e74990afdeeb0c580" target="_top" xlink:title=" ">
<polygon fill="white" stroke="black" points="0.26123,-51 0.26123,-83 105.739,-83 105.739,-51 0.26123,-51"/>
<text text-anchor="start" x="8.26123" y="-69" font-family="Helvetica,sans-Serif" font-size="10.00">ChibiOS::SPIDevice</text>
<text text-anchor="middle" x="53" y="-57" font-family="Helvetica,sans-Serif" font-size="10.00">::transfer</text>
</a>
</g>
</g>
<!-- Node20&#45;&gt;Node21 -->
<g id="edge4" class="edge"><title>Node20&#45;&gt;Node21</title>
<path fill="none" stroke="midnightblue" d="M131.613,-67C123.115,-67 114.466,-67 106.174,-67"/>
<polygon fill="midnightblue" stroke="midnightblue" points="131.869,-70.5001 141.869,-67 131.869,-63.5001 131.869,-70.5001"/>
</g>
<!-- Node22 -->
<g id="node6" class="node"><title>Node22</title>
<g id="a_node6"><a xlink:href="classChibiOS_1_1SPIDevice.html#a983a24301ee8c22246d09bea5780f58e" target="_top" xlink:title=" ">
<polygon fill="white" stroke="black" points="0.26123,-0 0.26123,-32 105.739,-32 105.739,-0 0.26123,-0"/>
<text text-anchor="start" x="8.26123" y="-18" font-family="Helvetica,sans-Serif" font-size="10.00">ChibiOS::SPIDevice</text>
<text text-anchor="middle" x="53" y="-6" font-family="Helvetica,sans-Serif" font-size="10.00">::transfer_fullduplex</text>
</a>
</g>
</g>
<!-- Node20&#45;&gt;Node22 -->
<g id="edge5" class="edge"><title>Node20&#45;&gt;Node22</title>
<path fill="none" stroke="midnightblue" d="M140.216,-47.4074C126.261,-42.3237 111.396,-36.9085 98.0087,-32.0317"/>
<polygon fill="midnightblue" stroke="midnightblue" points="139.109,-50.729 149.703,-50.8633 141.505,-44.1518 139.109,-50.729"/>
</g>
</g>
</svg>
