<?xml version="1.0" encoding="UTF-8" standalone="no"?>
<!DOCTYPE svg PUBLIC "-//W3C//DTD SVG 1.1//EN"
 "http://www.w3.org/Graphics/SVG/1.1/DTD/svg11.dtd">
<!-- Generated by graphviz version 2.30.1 (20130221.2233)
 -->
<!-- Title: AP_OSD_Screen::set_backend Pages: 1 -->
<svg width="532pt" height="40pt"
 viewBox="0.00 0.00 532.00 40.00" xmlns="http://www.w3.org/2000/svg" xmlns:xlink="http://www.w3.org/1999/xlink">
<g id="graph0" class="graph" transform="scale(1 1) rotate(0) translate(4 36)">
<title>AP_OSD_Screen::set_backend</title>
<polygon fill="white" stroke="white" points="-4,5 -4,-36 529,-36 529,5 -4,5"/>
<!-- Node803 -->
<g id="node1" class="node"><title>Node803</title>
<g id="a_node1"><a xlink:title=" ">
<polygon fill="#bfbfbf" stroke="black" points="410.643,-0 410.643,-32 523.357,-32 523.357,-0 410.643,-0"/>
<text text-anchor="start" x="418.643" y="-18" font-family="Helvetica,sans-Serif" font-size="10.00">AP_OSD_Screen::set</text>
<text text-anchor="middle" x="467" y="-6" font-family="Helvetica,sans-Serif" font-size="10.00">_backend</text>
</a>
</g>
</g>
<!-- Node804 -->
<g id="node2" class="node"><title>Node804</title>
<g id="a_node2"><a xlink:href="classAP__OSD.html#a12697704a6b32392563a6515c3adf3fb" target="_top" xlink:title=" ">
<polygon fill="white" stroke="black" points="259.801,-6 259.801,-26 374.199,-26 374.199,-6 259.801,-6"/>
<text text-anchor="middle" x="317" y="-12" font-family="Helvetica,sans-Serif" font-size="10.00">AP_OSD::update_osd</text>
</a>
</g>
</g>
<!-- Node803&#45;&gt;Node804 -->
<g id="edge1" class="edge"><title>Node803&#45;&gt;Node804</title>
<path fill="none" stroke="midnightblue" d="M400.373,-16C391.688,-16 382.846,-16 374.335,-16"/>
<polygon fill="midnightblue" stroke="midnightblue" points="400.469,-19.5001 410.469,-16 400.469,-12.5001 400.469,-19.5001"/>
</g>
<!-- Node805 -->
<g id="node3" class="node"><title>Node805</title>
<g id="a_node3"><a xlink:href="classAP__OSD.html#a508ef8c63d701dbe12cfd8c78e95ec43" target="_top" xlink:title=" ">
<polygon fill="white" stroke="black" points="111.917,-6 111.917,-26 224.083,-26 224.083,-6 111.917,-6"/>
<text text-anchor="middle" x="168" y="-12" font-family="Helvetica,sans-Serif" font-size="10.00">AP_OSD::osd_thread</text>
</a>
</g>
</g>
<!-- Node804&#45;&gt;Node805 -->
<g id="edge2" class="edge"><title>Node804&#45;&gt;Node805</title>
<path fill="none" stroke="midnightblue" d="M249.497,-16C241.153,-16 232.687,-16 224.535,-16"/>
<polygon fill="midnightblue" stroke="midnightblue" points="249.586,-19.5001 259.586,-16 249.586,-12.5001 249.586,-19.5001"/>
</g>
<!-- Node806 -->
<g id="node4" class="node"><title>Node806</title>
<g id="a_node4"><a xlink:href="classAP__OSD.html#a09e7d40118a2fe4de6ecbbb168ebd8b7" target="_top" xlink:title=" ">
<polygon fill="white" stroke="black" points="0.544434,-6 0.544434,-26 75.4556,-26 75.4556,-6 0.544434,-6"/>
<text text-anchor="middle" x="38" y="-12" font-family="Helvetica,sans-Serif" font-size="10.00">AP_OSD::init</text>
</a>
</g>
</g>
<!-- Node805&#45;&gt;Node806 -->
<g id="edge3" class="edge"><title>Node805&#45;&gt;Node806</title>
<path fill="none" stroke="midnightblue" d="M101.567,-16C92.6613,-16 83.7921,-16 75.6502,-16"/>
<polygon fill="midnightblue" stroke="midnightblue" points="101.602,-19.5001 111.602,-16 101.602,-12.5001 101.602,-19.5001"/>
</g>
</g>
</svg>
