<?xml version="1.0" encoding="UTF-8" standalone="no"?>
<!DOCTYPE svg PUBLIC "-//W3C//DTD SVG 1.1//EN"
 "http://www.w3.org/Graphics/SVG/1.1/DTD/svg11.dtd">
<!-- Generated by graphviz version 2.30.1 (20130221.2233)
 -->
<!-- Title: HALSITL::UARTDriver::_set_nonblocking Pages: 1 -->
<svg width="424pt" height="105pt"
 viewBox="0.00 0.00 424.00 104.89" xmlns="http://www.w3.org/2000/svg" xmlns:xlink="http://www.w3.org/1999/xlink">
<g id="graph0" class="graph" transform="scale(1 1) rotate(0) translate(4 100.888)">
<title>HALSITL::UARTDriver::_set_nonblocking</title>
<polygon fill="white" stroke="white" points="-4,5 -4,-100.888 421,-100.888 421,5 -4,5"/>
<!-- Node55 -->
<g id="node1" class="node"><title>Node55</title>
<g id="a_node1"><a xlink:title=" ">
<polygon fill="#bfbfbf" stroke="black" points="300.081,-51 300.081,-83 415.919,-83 415.919,-51 300.081,-51"/>
<text text-anchor="start" x="308.081" y="-69" font-family="Helvetica,sans-Serif" font-size="10.00">HALSITL::UARTDriver</text>
<text text-anchor="middle" x="358" y="-57" font-family="Helvetica,sans-Serif" font-size="10.00">::_set_nonblocking</text>
</a>
</g>
</g>
<!-- Node56 -->
<g id="node2" class="node"><title>Node56</title>
<g id="a_node2"><a xlink:href="classHALSITL_1_1UARTDriver.html#a9e0f62386e505ff552ae03611b0ee341" target="_top" xlink:title=" ">
<polygon fill="white" stroke="black" points="0.0805664,-51 0.0805664,-83 115.919,-83 115.919,-51 0.0805664,-51"/>
<text text-anchor="start" x="8.08057" y="-69" font-family="Helvetica,sans-Serif" font-size="10.00">HALSITL::UARTDriver</text>
<text text-anchor="middle" x="58" y="-57" font-family="Helvetica,sans-Serif" font-size="10.00">::begin</text>
</a>
</g>
</g>
<!-- Node55&#45;&gt;Node56 -->
<g id="edge1" class="edge"><title>Node55&#45;&gt;Node56</title>
<path fill="none" stroke="midnightblue" d="M296.973,-85.5976C286.099,-88.2596 274.787,-90.5755 264,-92 214.651,-98.5173 201.349,-98.5173 152,-92 137.911,-90.1394 122.925,-86.7582 109.192,-83.0713"/>
<polygon fill="midnightblue" stroke="midnightblue" points="297.994,-88.9492 306.808,-83.0713 296.252,-82.1693 297.994,-88.9492"/>
</g>
<!-- Node57 -->
<g id="node3" class="node"><title>Node57</title>
<g id="a_node3"><a xlink:href="classHALSITL_1_1SITL__State.html#ac8fc11db5fb88d100f2bd0af12ceb603" target="_top" xlink:title=" ">
<polygon fill="white" stroke="black" points="151.921,-51 151.921,-83 264.079,-83 264.079,-51 151.921,-51"/>
<text text-anchor="start" x="159.921" y="-69" font-family="Helvetica,sans-Serif" font-size="10.00">HALSITL::SITL_State</text>
<text text-anchor="middle" x="208" y="-57" font-family="Helvetica,sans-Serif" font-size="10.00">::gps2_pipe</text>
</a>
</g>
</g>
<!-- Node55&#45;&gt;Node57 -->
<g id="edge2" class="edge"><title>Node55&#45;&gt;Node57</title>
<path fill="none" stroke="midnightblue" d="M289.504,-67C281.008,-67 272.397,-67 264.123,-67"/>
<polygon fill="midnightblue" stroke="midnightblue" points="289.779,-70.5001 299.779,-67 289.779,-63.5001 289.779,-70.5001"/>
</g>
<!-- Node58 -->
<g id="node4" class="node"><title>Node58</title>
<g id="a_node4"><a xlink:href="classHALSITL_1_1SITL__State.html#a57e8a50d102e4af110bb5701bd5a9a8b" target="_top" xlink:title=" ">
<polygon fill="white" stroke="black" points="151.921,-0 151.921,-32 264.079,-32 264.079,-0 151.921,-0"/>
<text text-anchor="start" x="159.921" y="-18" font-family="Helvetica,sans-Serif" font-size="10.00">HALSITL::SITL_State</text>
<text text-anchor="middle" x="208" y="-6" font-family="Helvetica,sans-Serif" font-size="10.00">::gps_pipe</text>
</a>
</g>
</g>
<!-- Node55&#45;&gt;Node58 -->
<g id="edge4" class="edge"><title>Node55&#45;&gt;Node58</title>
<path fill="none" stroke="midnightblue" d="M300.568,-47.554C285.693,-42.4279 269.812,-36.9554 255.523,-32.0317"/>
<polygon fill="midnightblue" stroke="midnightblue" points="299.577,-50.9143 310.172,-50.8633 301.858,-44.2962 299.577,-50.9143"/>
</g>
<!-- Node57&#45;&gt;Node56 -->
<g id="edge3" class="edge"><title>Node57&#45;&gt;Node56</title>
<path fill="none" stroke="midnightblue" d="M141.632,-67C133.135,-67 124.483,-67 116.135,-67"/>
<polygon fill="midnightblue" stroke="midnightblue" points="141.89,-70.5001 151.89,-67 141.89,-63.5001 141.89,-70.5001"/>
</g>
<!-- Node58&#45;&gt;Node56 -->
<g id="edge5" class="edge"><title>Node58&#45;&gt;Node56</title>
<path fill="none" stroke="midnightblue" d="M150.568,-35.446C135.693,-40.5721 119.812,-46.0446 105.523,-50.9683"/>
<polygon fill="midnightblue" stroke="midnightblue" points="151.858,-38.7038 160.172,-32.1367 149.577,-32.0857 151.858,-38.7038"/>
</g>
</g>
</svg>
