<?xml version="1.0" encoding="UTF-8" standalone="no"?>
<!DOCTYPE svg PUBLIC "-//W3C//DTD SVG 1.1//EN"
 "http://www.w3.org/Graphics/SVG/1.1/DTD/svg11.dtd">
<!-- Generated by graphviz version 2.30.1 (20130221.2233)
 -->
<!-- Title: AP_Baro::_add_backend Pages: 1 -->
<svg width="402pt" height="79pt"
 viewBox="0.00 0.00 402.00 79.00" xmlns="http://www.w3.org/2000/svg" xmlns:xlink="http://www.w3.org/1999/xlink">
<g id="graph0" class="graph" transform="scale(1 1) rotate(0) translate(4 75)">
<title>AP_Baro::_add_backend</title>
<polygon fill="white" stroke="white" points="-4,5 -4,-75 399,-75 399,5 -4,5"/>
<!-- Node7 -->
<g id="node1" class="node"><title>Node7</title>
<g id="a_node1"><a xlink:title=" ">
<polygon fill="#bfbfbf" stroke="black" points="0.401855,-28 0.401855,-48 127.598,-48 127.598,-28 0.401855,-28"/>
<text text-anchor="middle" x="64" y="-34" font-family="Helvetica,sans-Serif" font-size="10.00">AP_Baro::_add_backend</text>
</a>
</g>
</g>
<!-- Node8 -->
<g id="node2" class="node"><title>Node8</title>
<g id="a_node2"><a xlink:href="namespaceAP__HAL.html#a71832f03d849a0c088f04fc98d3c8143" target="_top" xlink:title=" ">
<polygon fill="white" stroke="black" points="164.091,-28 164.091,-48 247.909,-48 247.909,-28 164.091,-28"/>
<text text-anchor="middle" x="206" y="-34" font-family="Helvetica,sans-Serif" font-size="10.00">AP_HAL::panic</text>
</a>
</g>
</g>
<!-- Node7&#45;&gt;Node8 -->
<g id="edge1" class="edge"><title>Node7&#45;&gt;Node8</title>
<path fill="none" stroke="midnightblue" d="M127.629,-38C136.325,-38 145.174,-38 153.631,-38"/>
<polygon fill="midnightblue" stroke="midnightblue" points="153.717,-41.5001 163.717,-38 153.717,-34.5001 153.717,-41.5001"/>
</g>
<!-- Node9 -->
<g id="node3" class="node"><title>Node9</title>
<g id="a_node3"><a xlink:href="stdio_8h.html#aae132cc6af1eb6cf43bf011d8d63e854" target="_top" xlink:title=" ">
<polygon fill="white" stroke="black" points="317.384,-51 317.384,-71 360.616,-71 360.616,-51 317.384,-51"/>
<text text-anchor="middle" x="339" y="-57" font-family="Helvetica,sans-Serif" font-size="10.00">vprintf</text>
</a>
</g>
</g>
<!-- Node8&#45;&gt;Node9 -->
<g id="edge2" class="edge"><title>Node8&#45;&gt;Node9</title>
<path fill="none" stroke="midnightblue" d="M248.09,-45.2142C267.104,-48.5526 289.321,-52.4533 306.913,-55.542"/>
<polygon fill="midnightblue" stroke="midnightblue" points="306.744,-59.0658 317.199,-57.3478 307.954,-52.1712 306.744,-59.0658"/>
</g>
<!-- Node10 -->
<g id="node4" class="node"><title>Node10</title>
<g id="a_node4"><a xlink:href="classAP__HAL_1_1Scheduler.html#a78c4f1b1f192ac1c99544b6cc8f099b0" target="_top" xlink:title=" ">
<polygon fill="white" stroke="black" points="283.751,-0 283.751,-32 394.249,-32 394.249,-0 283.751,-0"/>
<text text-anchor="start" x="291.751" y="-18" font-family="Helvetica,sans-Serif" font-size="10.00">AP_HAL::Scheduler::</text>
<text text-anchor="middle" x="339" y="-6" font-family="Helvetica,sans-Serif" font-size="10.00">delay_microseconds</text>
</a>
</g>
</g>
<!-- Node8&#45;&gt;Node10 -->
<g id="edge3" class="edge"><title>Node8&#45;&gt;Node10</title>
<path fill="none" stroke="midnightblue" d="M248.09,-31.0994C256.18,-29.7408 264.849,-28.2849 273.495,-26.8329"/>
<polygon fill="midnightblue" stroke="midnightblue" points="274.316,-30.2441 283.599,-25.1361 273.157,-23.3407 274.316,-30.2441"/>
</g>
</g>
</svg>
