<?xml version="1.0" encoding="UTF-8" standalone="no"?>
<!DOCTYPE svg PUBLIC "-//W3C//DTD SVG 1.1//EN"
 "http://www.w3.org/Graphics/SVG/1.1/DTD/svg11.dtd">
<!-- Generated by graphviz version 2.30.1 (20130221.2233)
 -->
<!-- Title: AP_AHRS::getCorrectedDeltaVelocityNED Pages: 1 -->
<svg width="900pt" height="355pt"
 viewBox="0.00 0.00 900.00 355.00" xmlns="http://www.w3.org/2000/svg" xmlns:xlink="http://www.w3.org/1999/xlink">
<g id="graph0" class="graph" transform="scale(1 1) rotate(0) translate(4 351)">
<title>AP_AHRS::getCorrectedDeltaVelocityNED</title>
<polygon fill="white" stroke="white" points="-4,5 -4,-351 897,-351 897,5 -4,5"/>
<!-- Node1945 -->
<g id="node1" class="node"><title>Node1945</title>
<g id="a_node1"><a xlink:title=" ">
<polygon fill="#bfbfbf" stroke="black" points="0.303223,-89 0.303223,-121 149.697,-121 149.697,-89 0.303223,-89"/>
<text text-anchor="start" x="8.30322" y="-107" font-family="Helvetica,sans-Serif" font-size="10.00">AP_AHRS::getCorrectedDelta</text>
<text text-anchor="middle" x="75" y="-95" font-family="Helvetica,sans-Serif" font-size="10.00">VelocityNED</text>
</a>
</g>
</g>
<!-- Node1946 -->
<g id="node2" class="node"><title>Node1946</title>
<g id="a_node2"><a xlink:href="classVector3.html#adf1769d5ee5df2f8585df2f540fa5efe" target="_top" xlink:title=" ">
<polygon fill="white" stroke="black" points="203.537,-157 203.537,-177 278.463,-177 278.463,-157 203.537,-157"/>
<text text-anchor="middle" x="241" y="-163" font-family="Helvetica,sans-Serif" font-size="10.00">Vector3::zero</text>
</a>
</g>
</g>
<!-- Node1945&#45;&gt;Node1946 -->
<g id="edge1" class="edge"><title>Node1945&#45;&gt;Node1946</title>
<path fill="none" stroke="midnightblue" d="M117.75,-121.054C138.288,-128.922 163.422,-138.509 186,-147 191.575,-149.097 197.48,-151.301 203.259,-153.448"/>
<polygon fill="midnightblue" stroke="midnightblue" points="202.193,-156.786 212.786,-156.981 204.627,-150.223 202.193,-156.786"/>
</g>
<!-- Node1947 -->
<g id="node3" class="node"><title>Node1947</title>
<g id="a_node3"><a xlink:href="namespaceAP.html#ac571aa5a2ef71b7f4b4b2bfa09143fb9" target="_top" xlink:title=" ">
<polygon fill="white" stroke="black" points="217.16,-118 217.16,-138 264.84,-138 264.84,-118 217.16,-118"/>
<text text-anchor="middle" x="241" y="-124" font-family="Helvetica,sans-Serif" font-size="10.00">AP::ins</text>
</a>
</g>
</g>
<!-- Node1945&#45;&gt;Node1947 -->
<g id="edge2" class="edge"><title>Node1945&#45;&gt;Node1947</title>
<path fill="none" stroke="midnightblue" d="M149.844,-115.356C169.79,-118.154 190.387,-121.042 206.849,-123.351"/>
<polygon fill="midnightblue" stroke="midnightblue" points="206.633,-126.855 217.022,-124.778 207.606,-119.923 206.633,-126.855"/>
</g>
<!-- Node1958 -->
<g id="node14" class="node"><title>Node1958</title>
<g id="a_node14"><a xlink:href="classAP__InertialSensor.html#acf640603eda1929a2487c4fbba73616e" target="_top" xlink:title=" ">
<polygon fill="white" stroke="black" points="189.921,-67 189.921,-99 292.079,-99 292.079,-67 189.921,-67"/>
<text text-anchor="start" x="197.921" y="-85" font-family="Helvetica,sans-Serif" font-size="10.00">AP_InertialSensor::</text>
<text text-anchor="middle" x="241" y="-73" font-family="Helvetica,sans-Serif" font-size="10.00">get_delta_velocity</text>
</a>
</g>
</g>
<!-- Node1945&#45;&gt;Node1958 -->
<g id="edge13" class="edge"><title>Node1945&#45;&gt;Node1958</title>
<path fill="none" stroke="midnightblue" d="M149.844,-95.0941C159.814,-93.7567 169.946,-92.3975 179.643,-91.0966"/>
<polygon fill="midnightblue" stroke="midnightblue" points="180.121,-94.564 189.567,-89.7655 179.19,-87.6262 180.121,-94.564"/>
</g>
<!-- Node1963 -->
<g id="node19" class="node"><title>Node1963</title>
<g id="a_node19"><a xlink:href="classAP__InertialSensor.html#a793f4fda9fbd8a49f15411bc93c9ed5a" target="_top" xlink:title=" ">
<polygon fill="white" stroke="black" points="186.022,-16 186.022,-48 295.978,-48 295.978,-16 186.022,-16"/>
<text text-anchor="start" x="194.022" y="-34" font-family="Helvetica,sans-Serif" font-size="10.00">AP_InertialSensor::</text>
<text text-anchor="middle" x="241" y="-22" font-family="Helvetica,sans-Serif" font-size="10.00">get_delta_velocity_dt</text>
</a>
</g>
</g>
<!-- Node1945&#45;&gt;Node1963 -->
<g id="edge20" class="edge"><title>Node1945&#45;&gt;Node1963</title>
<path fill="none" stroke="midnightblue" d="M111.99,-88.9798C136.26,-78.1771 168.479,-63.8356 194.521,-52.2435"/>
<polygon fill="midnightblue" stroke="midnightblue" points="196.098,-55.3729 203.81,-48.1088 193.251,-48.9778 196.098,-55.3729"/>
</g>
<!-- Node1948 -->
<g id="node4" class="node"><title>Node1948</title>
<g id="a_node4"><a xlink:href="classAP__InertialSensor.html#a2cf12201d711e4712a62ad10893be06f" target="_top" xlink:title=" ">
<polygon fill="white" stroke="black" points="331.921,-205 331.921,-237 434.079,-237 434.079,-205 331.921,-205"/>
<text text-anchor="start" x="339.921" y="-223" font-family="Helvetica,sans-Serif" font-size="10.00">AP_InertialSensor::</text>
<text text-anchor="middle" x="383" y="-211" font-family="Helvetica,sans-Serif" font-size="10.00">get_singleton</text>
</a>
</g>
</g>
<!-- Node1947&#45;&gt;Node1948 -->
<g id="edge3" class="edge"><title>Node1947&#45;&gt;Node1948</title>
<path fill="none" stroke="midnightblue" d="M264.979,-132.868C275.156,-135.799 286.864,-140.299 296,-147 317.503,-162.771 311.663,-177.751 332,-195 333.758,-196.491 335.616,-197.928 337.541,-199.308"/>
<polygon fill="midnightblue" stroke="midnightblue" points="336.008,-202.485 346.303,-204.986 339.815,-196.611 336.008,-202.485"/>
</g>
<!-- Node1949 -->
<g id="node5" class="node"><title>Node1949</title>
<g id="a_node5"><a xlink:href="classAP__InertialSensor.html#affc63e7edc9be1b0e128b8da3b8a24a5" target="_top" xlink:title=" ">
<polygon fill="white" stroke="black" points="469.921,-205 469.921,-237 572.079,-237 572.079,-205 469.921,-205"/>
<text text-anchor="start" x="477.921" y="-223" font-family="Helvetica,sans-Serif" font-size="10.00">AP_InertialSensor::</text>
<text text-anchor="middle" x="521" y="-211" font-family="Helvetica,sans-Serif" font-size="10.00">AP_InertialSensor</text>
</a>
</g>
</g>
<!-- Node1948&#45;&gt;Node1949 -->
<g id="edge4" class="edge"><title>Node1948&#45;&gt;Node1949</title>
<path fill="none" stroke="midnightblue" d="M434.255,-221C442.432,-221 450.976,-221 459.37,-221"/>
<polygon fill="midnightblue" stroke="midnightblue" points="459.498,-224.5 469.498,-221 459.498,-217.5 459.498,-224.5"/>
</g>
<!-- Node1950 -->
<g id="node6" class="node"><title>Node1950</title>
<g id="a_node6"><a xlink:href="namespaceAP__HAL.html#a71832f03d849a0c088f04fc98d3c8143" target="_top" xlink:title=" ">
<polygon fill="white" stroke="black" points="630.091,-282 630.091,-302 713.909,-302 713.909,-282 630.091,-282"/>
<text text-anchor="middle" x="672" y="-288" font-family="Helvetica,sans-Serif" font-size="10.00">AP_HAL::panic</text>
</a>
</g>
</g>
<!-- Node1949&#45;&gt;Node1950 -->
<g id="edge5" class="edge"><title>Node1949&#45;&gt;Node1950</title>
<path fill="none" stroke="midnightblue" d="M545.673,-237.037C562.52,-247.944 585.982,-262.132 608,-272 613.367,-274.405 619.11,-276.649 624.863,-278.7"/>
<polygon fill="midnightblue" stroke="midnightblue" points="623.896,-282.068 634.491,-281.963 626.143,-275.438 623.896,-282.068"/>
</g>
<!-- Node1953 -->
<g id="node9" class="node"><title>Node1953</title>
<g id="a_node9"><a xlink:href="classAP__Param.html#a5f6dcfce1c0a79cf5bd81283e22f3201" target="_top" xlink:title=" ">
<polygon fill="white" stroke="black" points="608.69,-231 608.69,-263 735.31,-263 735.31,-231 608.69,-231"/>
<text text-anchor="start" x="616.69" y="-249" font-family="Helvetica,sans-Serif" font-size="10.00">AP_Param::setup_object</text>
<text text-anchor="middle" x="672" y="-237" font-family="Helvetica,sans-Serif" font-size="10.00">_defaults</text>
</a>
</g>
</g>
<!-- Node1949&#45;&gt;Node1953 -->
<g id="edge8" class="edge"><title>Node1949&#45;&gt;Node1953</title>
<path fill="none" stroke="midnightblue" d="M572.445,-229.802C580.848,-231.269 589.709,-232.815 598.532,-234.355"/>
<polygon fill="midnightblue" stroke="midnightblue" points="597.999,-237.814 608.451,-236.085 599.202,-230.919 597.999,-237.814"/>
</g>
<!-- Node1956 -->
<g id="node12" class="node"><title>Node1956</title>
<g id="a_node12"><a xlink:href="classLowPassFilter.html#a1cc5016de137b01080fa0a6fa7fe53cd" target="_top" xlink:title=" ">
<polygon fill="white" stroke="black" points="623.153,-180 623.153,-212 720.847,-212 720.847,-180 623.153,-180"/>
<text text-anchor="start" x="631.153" y="-198" font-family="Helvetica,sans-Serif" font-size="10.00">LowPassFilter::set</text>
<text text-anchor="middle" x="672" y="-186" font-family="Helvetica,sans-Serif" font-size="10.00">_cutoff_frequency</text>
</a>
</g>
</g>
<!-- Node1949&#45;&gt;Node1956 -->
<g id="edge11" class="edge"><title>Node1949&#45;&gt;Node1956</title>
<path fill="none" stroke="midnightblue" d="M572.445,-212.536C585.496,-210.346 599.651,-207.971 613.054,-205.723"/>
<polygon fill="midnightblue" stroke="midnightblue" points="613.842,-209.139 623.125,-204.033 612.684,-202.236 613.842,-209.139"/>
</g>
<!-- Node1957 -->
<g id="node13" class="node"><title>Node1957</title>
<g id="a_node13"><a xlink:href="classAP__AccelCal.html#a6ecd2cc4987ebcec35f59a538a131ace" target="_top" xlink:title=" ">
<polygon fill="white" stroke="black" points="615.37,-129 615.37,-161 728.63,-161 728.63,-129 615.37,-129"/>
<text text-anchor="start" x="623.37" y="-147" font-family="Helvetica,sans-Serif" font-size="10.00">AP_AccelCal::register</text>
<text text-anchor="middle" x="672" y="-135" font-family="Helvetica,sans-Serif" font-size="10.00">_client</text>
</a>
</g>
</g>
<!-- Node1949&#45;&gt;Node1957 -->
<g id="edge12" class="edge"><title>Node1949&#45;&gt;Node1957</title>
<path fill="none" stroke="midnightblue" d="M546.635,-204.981C563.525,-194.352 586.654,-180.483 608,-170 611.367,-168.347 614.872,-166.717 618.428,-165.132"/>
<polygon fill="midnightblue" stroke="midnightblue" points="620.104,-168.221 627.904,-161.051 617.335,-161.792 620.104,-168.221"/>
</g>
<!-- Node1951 -->
<g id="node7" class="node"><title>Node1951</title>
<g id="a_node7"><a xlink:href="stdio_8h.html#aae132cc6af1eb6cf43bf011d8d63e854" target="_top" xlink:title=" ">
<polygon fill="white" stroke="black" points="810.384,-327 810.384,-347 853.616,-347 853.616,-327 810.384,-327"/>
<text text-anchor="middle" x="832" y="-333" font-family="Helvetica,sans-Serif" font-size="10.00">vprintf</text>
</a>
</g>
</g>
<!-- Node1950&#45;&gt;Node1951 -->
<g id="edge6" class="edge"><title>Node1950&#45;&gt;Node1951</title>
<path fill="none" stroke="midnightblue" d="M708.458,-302.099C736.089,-309.968 774.054,-320.781 800.373,-328.277"/>
<polygon fill="midnightblue" stroke="midnightblue" points="799.611,-331.699 810.187,-331.072 801.528,-324.967 799.611,-331.699"/>
</g>
<!-- Node1952 -->
<g id="node8" class="node"><title>Node1952</title>
<g id="a_node8"><a xlink:href="classAP__HAL_1_1Scheduler.html#a78c4f1b1f192ac1c99544b6cc8f099b0" target="_top" xlink:title=" ">
<polygon fill="white" stroke="black" points="776.751,-276 776.751,-308 887.249,-308 887.249,-276 776.751,-276"/>
<text text-anchor="start" x="784.751" y="-294" font-family="Helvetica,sans-Serif" font-size="10.00">AP_HAL::Scheduler::</text>
<text text-anchor="middle" x="832" y="-282" font-family="Helvetica,sans-Serif" font-size="10.00">delay_microseconds</text>
</a>
</g>
</g>
<!-- Node1950&#45;&gt;Node1952 -->
<g id="edge7" class="edge"><title>Node1950&#45;&gt;Node1952</title>
<path fill="none" stroke="midnightblue" d="M714.1,-292C730.075,-292 748.759,-292 766.444,-292"/>
<polygon fill="midnightblue" stroke="midnightblue" points="766.713,-295.5 776.713,-292 766.713,-288.5 766.713,-295.5"/>
</g>
<!-- Node1954 -->
<g id="node10" class="node"><title>Node1954</title>
<g id="a_node10"><a xlink:href="classAP__Param.html#acd4b14f793c37f162e298761d2155ca6" target="_top" xlink:title=" ">
<polygon fill="white" stroke="black" points="775.641,-237 775.641,-257 888.359,-257 888.359,-237 775.641,-237"/>
<text text-anchor="middle" x="832" y="-243" font-family="Helvetica,sans-Serif" font-size="10.00">AP_Param::set_value</text>
</a>
</g>
</g>
<!-- Node1953&#45;&gt;Node1954 -->
<g id="edge9" class="edge"><title>Node1953&#45;&gt;Node1954</title>
<path fill="none" stroke="midnightblue" d="M735.446,-247C745.241,-247 755.391,-247 765.257,-247"/>
<polygon fill="midnightblue" stroke="midnightblue" points="765.41,-250.5 775.41,-247 765.41,-243.5 765.41,-250.5"/>
</g>
<!-- Node1955 -->
<g id="node11" class="node"><title>Node1955</title>
<g id="a_node11"><a xlink:href="classAP__Param.html#a7535a9b529dae326dcebb6be33dbbe9a" target="_top" xlink:title=" ">
<polygon fill="white" stroke="black" points="772.301,-186 772.301,-218 891.699,-218 891.699,-186 772.301,-186"/>
<text text-anchor="start" x="780.301" y="-204" font-family="Helvetica,sans-Serif" font-size="10.00">AP_Param::get_default</text>
<text text-anchor="middle" x="832" y="-192" font-family="Helvetica,sans-Serif" font-size="10.00">_value</text>
</a>
</g>
</g>
<!-- Node1953&#45;&gt;Node1955 -->
<g id="edge10" class="edge"><title>Node1953&#45;&gt;Node1955</title>
<path fill="none" stroke="midnightblue" d="M729.595,-230.881C741.079,-227.61 753.251,-224.144 765.026,-220.79"/>
<polygon fill="midnightblue" stroke="midnightblue" points="766.141,-224.112 774.8,-218.006 764.224,-217.379 766.141,-224.112"/>
</g>
<!-- Node1959 -->
<g id="node15" class="node"><title>Node1959</title>
<g id="a_node15"><a xlink:href="classAP__InertialSensor.html#a5b42199f260d9523973a51debd99146e" target="_top" xlink:title=" ">
<polygon fill="white" stroke="black" points="331.921,-136 331.921,-168 434.079,-168 434.079,-136 331.921,-136"/>
<text text-anchor="start" x="339.921" y="-154" font-family="Helvetica,sans-Serif" font-size="10.00">AP_InertialSensor::</text>
<text text-anchor="middle" x="383" y="-142" font-family="Helvetica,sans-Serif" font-size="10.00">get_accel_health</text>
</a>
</g>
</g>
<!-- Node1958&#45;&gt;Node1959 -->
<g id="edge14" class="edge"><title>Node1958&#45;&gt;Node1959</title>
<path fill="none" stroke="midnightblue" d="M277.242,-99.0729C283.51,-102.001 289.963,-105.06 296,-108 311.09,-115.35 327.524,-123.677 341.946,-131.095"/>
<polygon fill="midnightblue" stroke="midnightblue" points="340.607,-134.342 351.099,-135.819 343.818,-128.122 340.607,-134.342"/>
</g>
<!-- Node1960 -->
<g id="node16" class="node"><title>Node1960</title>
<g id="a_node16"><a xlink:href="classAP__InertialSensor.html#ab39d50c9e078ac925746d92af042ba64" target="_top" xlink:title=" ">
<polygon fill="white" stroke="black" points="331.921,-67 331.921,-99 434.079,-99 434.079,-67 331.921,-67"/>
<text text-anchor="start" x="339.921" y="-85" font-family="Helvetica,sans-Serif" font-size="10.00">AP_InertialSensor::</text>
<text text-anchor="middle" x="383" y="-73" font-family="Helvetica,sans-Serif" font-size="10.00">get_accel</text>
</a>
</g>
</g>
<!-- Node1958&#45;&gt;Node1960 -->
<g id="edge16" class="edge"><title>Node1958&#45;&gt;Node1960</title>
<path fill="none" stroke="midnightblue" d="M292.148,-83C301.698,-83 311.785,-83 321.615,-83"/>
<polygon fill="midnightblue" stroke="midnightblue" points="321.732,-86.5001 331.732,-83 321.732,-79.5001 321.732,-86.5001"/>
</g>
<!-- Node1961 -->
<g id="node17" class="node"><title>Node1961</title>
<g id="a_node17"><a xlink:href="classAP__InertialSensor.html#a4f9e51600bcadecad5830ae56b0771a3" target="_top" xlink:title=" ">
<polygon fill="white" stroke="black" points="331.921,-16 331.921,-48 434.079,-48 434.079,-16 331.921,-16"/>
<text text-anchor="start" x="339.921" y="-34" font-family="Helvetica,sans-Serif" font-size="10.00">AP_InertialSensor::</text>
<text text-anchor="middle" x="383" y="-22" font-family="Helvetica,sans-Serif" font-size="10.00">get_delta_time</text>
</a>
</g>
</g>
<!-- Node1958&#45;&gt;Node1961 -->
<g id="edge18" class="edge"><title>Node1958&#45;&gt;Node1961</title>
<path fill="none" stroke="midnightblue" d="M286.297,-66.8633C299.705,-61.9789 314.574,-56.5622 328.516,-51.4833"/>
<polygon fill="midnightblue" stroke="midnightblue" points="329.793,-54.7432 337.991,-48.0317 327.397,-48.166 329.793,-54.7432"/>
</g>
<!-- Node1959&#45;&gt;Node1959 -->
<g id="edge15" class="edge"><title>Node1959&#45;&gt;Node1959</title>
<path fill="none" stroke="midnightblue" d="M358.546,-168.091C353.556,-177.366 361.707,-186 383,-186 395.975,-186 404.071,-182.794 407.286,-178.19"/>
<polygon fill="midnightblue" stroke="midnightblue" points="410.787,-178.147 407.454,-168.091 403.788,-178.031 410.787,-178.147"/>
</g>
<!-- Node1960&#45;&gt;Node1960 -->
<g id="edge17" class="edge"><title>Node1960&#45;&gt;Node1960</title>
<path fill="none" stroke="midnightblue" d="M358.546,-99.0908C353.556,-108.366 361.707,-117 383,-117 395.975,-117 404.071,-113.794 407.286,-109.19"/>
<polygon fill="midnightblue" stroke="midnightblue" points="410.787,-109.147 407.454,-99.0908 403.788,-109.031 410.787,-109.147"/>
</g>
<!-- Node1962 -->
<g id="node18" class="node"><title>Node1962</title>
<g id="a_node18"><a xlink:href="AP__Math_8h.html#a321a91de43cfb2e95d40cde314d0a80f" target="_top" xlink:title=" ">
<polygon fill="white" stroke="black" points="503.835,-0 503.835,-20 538.165,-20 538.165,-0 503.835,-0"/>
<text text-anchor="middle" x="521" y="-6" font-family="Helvetica,sans-Serif" font-size="10.00">MIN</text>
</a>
</g>
</g>
<!-- Node1961&#45;&gt;Node1962 -->
<g id="edge19" class="edge"><title>Node1961&#45;&gt;Node1962</title>
<path fill="none" stroke="midnightblue" d="M434.255,-23.8705C454.366,-20.6173 476.703,-17.0039 493.536,-14.281"/>
<polygon fill="midnightblue" stroke="midnightblue" points="494.411,-17.6849 503.724,-12.6329 493.293,-10.7748 494.411,-17.6849"/>
</g>
<!-- Node1963&#45;&gt;Node1961 -->
<g id="edge21" class="edge"><title>Node1963&#45;&gt;Node1961</title>
<path fill="none" stroke="midnightblue" d="M296.128,-32C304.443,-32 313.073,-32 321.515,-32"/>
<polygon fill="midnightblue" stroke="midnightblue" points="321.686,-35.5001 331.685,-32 321.685,-28.5001 321.686,-35.5001"/>
</g>
<!-- Node1963&#45;&gt;Node1962 -->
<g id="edge22" class="edge"><title>Node1963&#45;&gt;Node1962</title>
<path fill="none" stroke="midnightblue" d="M288.169,-15.9688C302.081,-11.874 317.507,-8.0515 332,-6 389.123,2.08573 456.968,-2.89792 493.511,-6.76022"/>
<polygon fill="midnightblue" stroke="midnightblue" points="493.474,-10.2777 503.801,-7.90715 494.25,-3.32082 493.474,-10.2777"/>
</g>
</g>
</svg>
