<?xml version="1.0" encoding="UTF-8" standalone="no"?>
<!DOCTYPE svg PUBLIC "-//W3C//DTD SVG 1.1//EN"
 "http://www.w3.org/Graphics/SVG/1.1/DTD/svg11.dtd">
<!-- Generated by graphviz version 2.30.1 (20130221.2233)
 -->
<!-- Title: AP_RangeFinder_LeddarOne::update Pages: 1 -->
<!--zoomable 271 -->
<svg id="main" version="1.1" xmlns="http://www.w3.org/2000/svg" xmlns:xlink="http://www.w3.org/1999/xlink" xml:space="preserve" onload="init(evt)">
<style type="text/css"><![CDATA[
.edge:hover path { stroke: red; }
.edge:hover polygon { stroke: red; fill: red; }
]]></style>
<script type="text/javascript"><![CDATA[
var edges = document.getElementsByTagName('g');
if (edges && edges.length) {
  for (var i=0;i<edges.length;i++) {
    if (edges[i].id.substr(0,4)=='edge') {
      edges[i].setAttribute('class','edge');
    }
  }
}
]]></script>
        <defs>
                <circle id="rim" cx="0" cy="0" r="7"/>
                <circle id="rim2" cx="0" cy="0" r="3.5"/>
                <g id="zoomPlus">
                        <use xlink:href="#rim" fill="#404040">
                                <set attributeName="fill" to="#808080" begin="zoomplus.mouseover" end="zoomplus.mouseout"/>
                        </use>
                        <path d="M-4,0h8M0,-4v8" fill="none" stroke="white" stroke-width="1.5" pointer-events="none"/>
                </g>
                <g id="zoomMin">
                        <use xlink:href="#rim" fill="#404040">
                                <set attributeName="fill" to="#808080" begin="zoomminus.mouseover" end="zoomminus.mouseout"/>
                        </use>
                        <path d="M-4,0h8" fill="none" stroke="white" stroke-width="1.5" pointer-events="none"/>
                </g>
                <g id="dirArrow">
                        <path fill="none" stroke="white" stroke-width="1.5" d="M0,-3.0v7 M-2.5,-0.5L0,-3.0L2.5,-0.5"/>
                </g>
               <g id="resetDef">
                       <use xlink:href="#rim2" fill="#404040">
                               <set attributeName="fill" to="#808080" begin="reset.mouseover" end="reset.mouseout"/>
                       </use>
               </g>
        </defs>

<script type="text/javascript">
var viewWidth = 708;
var viewHeight = 271;
var sectionId = 'dynsection-10';
</script>
<script xlink:href="svgpan.js"/>
<svg id="graph" class="graph">
<g id="viewport">
<title>AP_RangeFinder_LeddarOne::update</title>
<polygon fill="white" stroke="white" points="-4,5 -4,-267 705,-267 705,5 -4,5"/>
<!-- Node40 -->
<g id="node1" class="node"><title>Node40</title>
<g id="a_node1"><a xlink:title=" ">
<polygon fill="#bfbfbf" stroke="black" points="-0.157227,-44 -0.157227,-76 148.157,-76 148.157,-44 -0.157227,-44"/>
<text text-anchor="start" x="7.84277" y="-62" font-family="Helvetica,sans-Serif" font-size="10.00">AP_RangeFinder_LeddarOne</text>
<text text-anchor="middle" x="74" y="-50" font-family="Helvetica,sans-Serif" font-size="10.00">::update</text>
</a>
</g>
</g>
<!-- Node41 -->
<g id="node2" class="node"><title>Node41</title>
<g id="a_node2"><a xlink:href="classAP__RangeFinder__LeddarOne.html#a22877f3c009baa2f91387c318fea23c5" target="_top" xlink:title=" ">
<polygon fill="white" stroke="black" points="183.843,-131 183.843,-163 332.157,-163 332.157,-131 183.843,-131"/>
<text text-anchor="start" x="191.843" y="-149" font-family="Helvetica,sans-Serif" font-size="10.00">AP_RangeFinder_LeddarOne</text>
<text text-anchor="middle" x="258" y="-137" font-family="Helvetica,sans-Serif" font-size="10.00">::get_reading</text>
</a>
</g>
</g>
<!-- Node40&#45;&gt;Node41 -->
<g id="edge1" class="edge"><title>Node40&#45;&gt;Node41</title>
<path fill="none" stroke="midnightblue" d="M108.806,-76.1601C138.559,-90.3828 182.03,-111.163 214.202,-126.542"/>
<polygon fill="midnightblue" stroke="midnightblue" points="212.843,-129.771 223.375,-130.926 215.862,-123.456 212.843,-129.771"/>
</g>
<!-- Node45 -->
<g id="node6" class="node"><title>Node45</title>
<g id="a_node6"><a xlink:href="namespaceAP__HAL.html#a77dffbb18891996280308e21316ec186" target="_top" xlink:title=" ">
<polygon fill="white" stroke="black" points="400.936,-63 400.936,-83 483.064,-83 483.064,-63 400.936,-63"/>
<text text-anchor="middle" x="442" y="-69" font-family="Helvetica,sans-Serif" font-size="10.00">AP_HAL::millis</text>
</a>
</g>
</g>
<!-- Node40&#45;&gt;Node45 -->
<g id="edge11" class="edge"><title>Node40&#45;&gt;Node45</title>
<path fill="none" stroke="midnightblue" d="M148.186,-62.5995C220.115,-65.1544 327.964,-68.985 390.73,-71.2144"/>
<polygon fill="midnightblue" stroke="midnightblue" points="390.661,-74.7141 400.779,-71.5714 390.91,-67.7185 390.661,-74.7141"/>
</g>
<!-- Node49 -->
<g id="node10" class="node"><title>Node49</title>
<g id="a_node10"><a xlink:href="classAP__RangeFinder__Backend.html#a9e858f638e4c2d1138aa3f56d217a394" target="_top" xlink:title=" ">
<polygon fill="white" stroke="black" points="189.404,-22 189.404,-54 326.596,-54 326.596,-22 189.404,-22"/>
<text text-anchor="start" x="197.404" y="-40" font-family="Helvetica,sans-Serif" font-size="10.00">AP_RangeFinder_Backend</text>
<text text-anchor="middle" x="258" y="-28" font-family="Helvetica,sans-Serif" font-size="10.00">::update_status</text>
</a>
</g>
</g>
<!-- Node40&#45;&gt;Node49 -->
<g id="edge12" class="edge"><title>Node40&#45;&gt;Node49</title>
<path fill="none" stroke="midnightblue" d="M148.24,-51.1469C158.389,-49.92 168.845,-48.6561 179.075,-47.4195"/>
<polygon fill="midnightblue" stroke="midnightblue" points="179.704,-50.8691 189.211,-46.1942 178.863,-43.9197 179.704,-50.8691"/>
</g>
<!-- Node50 -->
<g id="node11" class="node"><title>Node50</title>
<g id="a_node11"><a xlink:href="classAP__RangeFinder__Backend.html#ac5b3771c47b58dfba89ebcf2a24541cd" target="_top" xlink:title=" ">
<polygon fill="white" stroke="black" points="373.404,-0 373.404,-32 510.596,-32 510.596,-0 373.404,-0"/>
<text text-anchor="start" x="381.404" y="-18" font-family="Helvetica,sans-Serif" font-size="10.00">AP_RangeFinder_Backend</text>
<text text-anchor="middle" x="442" y="-6" font-family="Helvetica,sans-Serif" font-size="10.00">::set_status</text>
</a>
</g>
</g>
<!-- Node40&#45;&gt;Node50 -->
<g id="edge14" class="edge"><title>Node40&#45;&gt;Node50</title>
<path fill="none" stroke="midnightblue" d="M102.603,-43.9973C124.017,-32.5525 154.863,-18.1314 184,-12 243.258,0.469774 311.907,-1.40465 363.341,-5.91978"/>
<polygon fill="midnightblue" stroke="midnightblue" points="363.109,-9.41323 373.39,-6.85455 363.757,-2.44331 363.109,-9.41323"/>
</g>
<!-- Node42 -->
<g id="node3" class="node"><title>Node42</title>
<g id="a_node3"><a xlink:href="classAP__HAL_1_1BetterStream.html#afb6a4e5c487187fe31387e834b784213" target="_top" xlink:title=" ">
<polygon fill="white" stroke="black" points="566.589,-195 566.589,-227 685.411,-227 685.411,-195 566.589,-195"/>
<text text-anchor="start" x="574.589" y="-213" font-family="Helvetica,sans-Serif" font-size="10.00">AP_HAL::BetterStream</text>
<text text-anchor="middle" x="626" y="-201" font-family="Helvetica,sans-Serif" font-size="10.00">::available</text>
</a>
</g>
</g>
<!-- Node41&#45;&gt;Node42 -->
<g id="edge2" class="edge"><title>Node41&#45;&gt;Node42</title>
<path fill="none" stroke="midnightblue" d="M302.219,-163.058C322.02,-169.847 345.944,-177.264 368,-182 431.072,-195.545 504.296,-203.02 556.412,-206.973"/>
<polygon fill="midnightblue" stroke="midnightblue" points="556.314,-210.475 566.544,-207.717 556.827,-203.494 556.314,-210.475"/>
</g>
<!-- Node43 -->
<g id="node4" class="node"><title>Node43</title>
<g id="a_node4"><a xlink:href="classAP__HAL_1_1BetterStream.html#a65082ecb994170fc6d2a7ff2bcc301a7" target="_top" xlink:title=" ">
<polygon fill="white" stroke="black" points="566.589,-93 566.589,-125 685.411,-125 685.411,-93 566.589,-93"/>
<text text-anchor="start" x="574.589" y="-111" font-family="Helvetica,sans-Serif" font-size="10.00">AP_HAL::BetterStream</text>
<text text-anchor="middle" x="626" y="-99" font-family="Helvetica,sans-Serif" font-size="10.00">::read</text>
</a>
</g>
</g>
<!-- Node41&#45;&gt;Node43 -->
<g id="edge3" class="edge"><title>Node41&#45;&gt;Node43</title>
<path fill="none" stroke="midnightblue" d="M332.21,-135.634C344.156,-133.958 356.411,-132.345 368,-131 431.7,-123.605 504.553,-117.599 556.386,-113.743"/>
<polygon fill="midnightblue" stroke="midnightblue" points="556.748,-117.225 566.464,-113 556.234,-110.244 556.748,-117.225"/>
</g>
<!-- Node44 -->
<g id="node5" class="node"><title>Node44</title>
<g id="a_node5"><a xlink:href="classAP__HAL_1_1BetterStream.html#a915cc01273d4b418c2fb2989fb31a508" target="_top" xlink:title=" ">
<polygon fill="white" stroke="black" points="382.589,-231 382.589,-263 501.411,-263 501.411,-231 382.589,-231"/>
<text text-anchor="start" x="390.589" y="-249" font-family="Helvetica,sans-Serif" font-size="10.00">AP_HAL::BetterStream</text>
<text text-anchor="middle" x="442" y="-237" font-family="Helvetica,sans-Serif" font-size="10.00">::write</text>
</a>
</g>
</g>
<!-- Node41&#45;&gt;Node44 -->
<g id="edge4" class="edge"><title>Node41&#45;&gt;Node44</title>
<path fill="none" stroke="midnightblue" d="M282.155,-163.218C303.783,-177.984 337.256,-199.878 368,-216 375.195,-219.773 382.952,-223.454 390.63,-226.885"/>
<polygon fill="midnightblue" stroke="midnightblue" points="389.346,-230.143 399.911,-230.934 392.145,-223.727 389.346,-230.143"/>
</g>
<!-- Node41&#45;&gt;Node45 -->
<g id="edge5" class="edge"><title>Node41&#45;&gt;Node45</title>
<path fill="none" stroke="midnightblue" d="M292.534,-130.956C313.917,-120.968 342.335,-108.138 368,-98 378.197,-93.9719 389.336,-89.9641 399.771,-86.3754"/>
<polygon fill="midnightblue" stroke="midnightblue" points="401.159,-89.6005 409.507,-83.0761 398.913,-82.9708 401.159,-89.6005"/>
</g>
<!-- Node47 -->
<g id="node8" class="node"><title>Node47</title>
<g id="a_node8"><a xlink:href="classAP__RangeFinder__LeddarOne.html#a5ccf0e43a1c86ce3f15b0b79628deb56" target="_top" xlink:title=" ">
<polygon fill="white" stroke="black" points="367.843,-141 367.843,-173 516.157,-173 516.157,-141 367.843,-141"/>
<text text-anchor="start" x="375.843" y="-159" font-family="Helvetica,sans-Serif" font-size="10.00">AP_RangeFinder_LeddarOne</text>
<text text-anchor="middle" x="442" y="-147" font-family="Helvetica,sans-Serif" font-size="10.00">::parse_response</text>
</a>
</g>
</g>
<!-- Node41&#45;&gt;Node47 -->
<g id="edge7" class="edge"><title>Node41&#45;&gt;Node47</title>
<path fill="none" stroke="midnightblue" d="M332.24,-151.024C340.526,-151.479 349.017,-151.946 357.422,-152.408"/>
<polygon fill="midnightblue" stroke="midnightblue" points="357.437,-155.914 367.614,-152.968 357.821,-148.924 357.437,-155.914"/>
</g>
<!-- Node46 -->
<g id="node7" class="node"><title>Node46</title>
<g id="a_node7"><a xlink:href="hrt_8c.html#a1295f128f60d29874243b5733c4db025" target="_top" xlink:title=" ">
<polygon fill="white" stroke="black" points="592.714,-54 592.714,-74 659.286,-74 659.286,-54 592.714,-54"/>
<text text-anchor="middle" x="626" y="-60" font-family="Helvetica,sans-Serif" font-size="10.00">hrt_millis32</text>
</a>
</g>
</g>
<!-- Node45&#45;&gt;Node46 -->
<g id="edge6" class="edge"><title>Node45&#45;&gt;Node46</title>
<path fill="none" stroke="midnightblue" d="M483.392,-71.0026C512.807,-69.548 552.566,-67.5819 582.468,-66.1033"/>
<polygon fill="midnightblue" stroke="midnightblue" points="582.785,-69.5919 592.6,-65.6022 582.439,-62.6005 582.785,-69.5919"/>
</g>
<!-- Node47&#45;&gt;Node42 -->
<g id="edge8" class="edge"><title>Node47&#45;&gt;Node42</title>
<path fill="none" stroke="midnightblue" d="M497.113,-173.056C517.195,-179.014 540.161,-185.828 561.039,-192.022"/>
<polygon fill="midnightblue" stroke="midnightblue" points="560.198,-195.424 570.781,-194.913 562.19,-188.713 560.198,-195.424"/>
</g>
<!-- Node47&#45;&gt;Node43 -->
<g id="edge9" class="edge"><title>Node47&#45;&gt;Node43</title>
<path fill="none" stroke="midnightblue" d="M503.856,-140.95C520.701,-136.507 539.099,-131.655 556.355,-127.104"/>
<polygon fill="midnightblue" stroke="midnightblue" points="557.585,-130.4 566.362,-124.465 555.8,-123.631 557.585,-130.4"/>
</g>
<!-- Node48 -->
<g id="node9" class="node"><title>Node48</title>
<g id="a_node9"><a xlink:href="classAP__RangeFinder__LeddarOne.html#ae7a6492fa2195c71eb7e41e46c8e8f1d" target="_top" xlink:title=" ">
<polygon fill="white" stroke="black" points="551.843,-144 551.843,-176 700.157,-176 700.157,-144 551.843,-144"/>
<text text-anchor="start" x="559.843" y="-162" font-family="Helvetica,sans-Serif" font-size="10.00">AP_RangeFinder_LeddarOne</text>
<text text-anchor="middle" x="626" y="-150" font-family="Helvetica,sans-Serif" font-size="10.00">::CRC16</text>
</a>
</g>
</g>
<!-- Node47&#45;&gt;Node48 -->
<g id="edge10" class="edge"><title>Node47&#45;&gt;Node48</title>
<path fill="none" stroke="midnightblue" d="M516.24,-158.207C524.526,-158.344 533.017,-158.484 541.422,-158.622"/>
<polygon fill="midnightblue" stroke="midnightblue" points="541.558,-162.125 551.614,-158.79 541.673,-155.126 541.558,-162.125"/>
</g>
<!-- Node49&#45;&gt;Node50 -->
<g id="edge13" class="edge"><title>Node49&#45;&gt;Node50</title>
<path fill="none" stroke="midnightblue" d="M326.77,-29.808C338.614,-28.3764 351.02,-26.8767 363.111,-25.4152"/>
<polygon fill="midnightblue" stroke="midnightblue" points="363.666,-28.8737 373.173,-24.1988 362.826,-21.9243 363.666,-28.8737"/>
</g>
</g>
</svg>
        <g id="navigator" transform="translate(0 0)" fill="#404254">
                <rect fill="#f2f5e9" fill-opacity="0.5" stroke="#606060" stroke-width=".5" x="0" y="0" width="60" height="60"/>
                <use id="zoomplus" xlink:href="#zoomPlus" x="17" y="9" onmousedown="handleZoom(evt,'in')"/>
                <use id="zoomminus" xlink:href="#zoomMin" x="42" y="9" onmousedown="handleZoom(evt,'out')"/>
                <use id="reset" xlink:href="#resetDef" x="30" y="36" onmousedown="handleReset()"/>
                <g id="arrowUp" xlink:href="#dirArrow" transform="translate(30 24)" onmousedown="handlePan(0,-1)">
                  <use xlink:href="#rim" fill="#404040">
                        <set attributeName="fill" to="#808080" begin="arrowUp.mouseover" end="arrowUp.mouseout"/>
                  </use>
                  <path fill="none" stroke="white" stroke-width="1.5" d="M0,-3.0v7 M-2.5,-0.5L0,-3.0L2.5,-0.5"/>
                </g>
                <g id="arrowRight" xlink:href="#dirArrow" transform="rotate(90) translate(36 -43)" onmousedown="handlePan(1,0)">
                  <use xlink:href="#rim" fill="#404040">
                        <set attributeName="fill" to="#808080" begin="arrowRight.mouseover" end="arrowRight.mouseout"/>
                  </use>
                  <path fill="none" stroke="white" stroke-width="1.5" d="M0,-3.0v7 M-2.5,-0.5L0,-3.0L2.5,-0.5"/>
                </g>
                <g id="arrowDown" xlink:href="#dirArrow" transform="rotate(180) translate(-30 -48)" onmousedown="handlePan(0,1)">
                  <use xlink:href="#rim" fill="#404040">
                        <set attributeName="fill" to="#808080" begin="arrowDown.mouseover" end="arrowDown.mouseout"/>
                  </use>
                  <path fill="none" stroke="white" stroke-width="1.5" d="M0,-3.0v7 M-2.5,-0.5L0,-3.0L2.5,-0.5"/>
                </g>
                <g id="arrowLeft" xlink:href="#dirArrow" transform="rotate(270) translate(-36 17)" onmousedown="handlePan(-1,0)">
                  <use xlink:href="#rim" fill="#404040">
                        <set attributeName="fill" to="#808080" begin="arrowLeft.mouseover" end="arrowLeft.mouseout"/>
                  </use>
                  <path fill="none" stroke="white" stroke-width="1.5" d="M0,-3.0v7 M-2.5,-0.5L0,-3.0L2.5,-0.5"/>
                </g>
        </g>
        <svg viewBox="0 0 15 15" width="100%" height="30px" preserveAspectRatio="xMaxYMin meet">
         <g id="arrow_out" transform="scale(0.3 0.3)">
          <a xlink:href="classAP__RangeFinder__LeddarOne_a2976db8d937d25731d676449e7d73d91_cgraph_org.svg" target="_base">
           <rect id="button" ry="5" rx="5" y="6" x="6" height="38" width="38"
                fill="#f2f5e9" fill-opacity="0.5" stroke="#606060" stroke-width="1.0"/>
           <path id="arrow"
             d="M 11.500037,31.436501 C 11.940474,20.09759 22.043105,11.32322 32.158766,21.979434 L 37.068811,17.246167 C 37.068811,17.246167 37.088388,32 37.088388,32 L 22.160133,31.978069 C 22.160133,31.978069 26.997745,27.140456 26.997745,27.140456 C 18.528582,18.264221 13.291696,25.230495 11.500037,31.436501 z"
             style="fill:#404040;"/>
          </a>
         </g>
        </svg>
</svg>
