<?xml version="1.0" encoding="UTF-8" standalone="no"?>
<!DOCTYPE svg PUBLIC "-//W3C//DTD SVG 1.1//EN"
 "http://www.w3.org/Graphics/SVG/1.1/DTD/svg11.dtd">
<!-- Generated by graphviz version 2.30.1 (20130221.2233)
 -->
<!-- Title: NavEKF3_core::initialiseQuatCovariances Pages: 1 -->
<!--zoomable 323 -->
<svg id="main" version="1.1" xmlns="http://www.w3.org/2000/svg" xmlns:xlink="http://www.w3.org/1999/xlink" xml:space="preserve" onload="init(evt)">
<style type="text/css"><![CDATA[
.edge:hover path { stroke: red; }
.edge:hover polygon { stroke: red; fill: red; }
]]></style>
<script type="text/javascript"><![CDATA[
var edges = document.getElementsByTagName('g');
if (edges && edges.length) {
  for (var i=0;i<edges.length;i++) {
    if (edges[i].id.substr(0,4)=='edge') {
      edges[i].setAttribute('class','edge');
    }
  }
}
]]></script>
        <defs>
                <circle id="rim" cx="0" cy="0" r="7"/>
                <circle id="rim2" cx="0" cy="0" r="3.5"/>
                <g id="zoomPlus">
                        <use xlink:href="#rim" fill="#404040">
                                <set attributeName="fill" to="#808080" begin="zoomplus.mouseover" end="zoomplus.mouseout"/>
                        </use>
                        <path d="M-4,0h8M0,-4v8" fill="none" stroke="white" stroke-width="1.5" pointer-events="none"/>
                </g>
                <g id="zoomMin">
                        <use xlink:href="#rim" fill="#404040">
                                <set attributeName="fill" to="#808080" begin="zoomminus.mouseover" end="zoomminus.mouseout"/>
                        </use>
                        <path d="M-4,0h8" fill="none" stroke="white" stroke-width="1.5" pointer-events="none"/>
                </g>
                <g id="dirArrow">
                        <path fill="none" stroke="white" stroke-width="1.5" d="M0,-3.0v7 M-2.5,-0.5L0,-3.0L2.5,-0.5"/>
                </g>
               <g id="resetDef">
                       <use xlink:href="#rim2" fill="#404040">
                               <set attributeName="fill" to="#808080" begin="reset.mouseover" end="reset.mouseout"/>
                       </use>
               </g>
        </defs>

<script type="text/javascript">
var viewWidth = 1540;
var viewHeight = 323;
var sectionId = 'dynsection-132';
</script>
<script xlink:href="svgpan.js"/>
<svg id="graph" class="graph">
<g id="viewport">
<title>NavEKF3_core::initialiseQuatCovariances</title>
<polygon fill="white" stroke="white" points="-4,5 -4,-319 1537,-319 1537,5 -4,5"/>
<!-- Node2426 -->
<g id="node1" class="node"><title>Node2426</title>
<g id="a_node1"><a xlink:title=" ">
<polygon fill="#bfbfbf" stroke="black" points="1406.53,-243 1406.53,-275 1531.47,-275 1531.47,-243 1406.53,-243"/>
<text text-anchor="start" x="1414.53" y="-261" font-family="Helvetica,sans-Serif" font-size="10.00">NavEKF3_core::initialise</text>
<text text-anchor="middle" x="1469" y="-249" font-family="Helvetica,sans-Serif" font-size="10.00">QuatCovariances</text>
</a>
</g>
</g>
<!-- Node2427 -->
<g id="node2" class="node"><title>Node2427</title>
<g id="a_node2"><a xlink:href="classNavEKF3__core.html#ae050fc8e6c45d5134f8cba8dabc719e8" target="_top" xlink:title=" ">
<polygon fill="white" stroke="black" points="1220.58,-243 1220.58,-275 1359.42,-275 1359.42,-243 1220.58,-243"/>
<text text-anchor="start" x="1228.58" y="-261" font-family="Helvetica,sans-Serif" font-size="10.00">NavEKF3_core::controlMag</text>
<text text-anchor="middle" x="1290" y="-249" font-family="Helvetica,sans-Serif" font-size="10.00">YawReset</text>
</a>
</g>
</g>
<!-- Node2426&#45;&gt;Node2427 -->
<g id="edge1" class="edge"><title>Node2426&#45;&gt;Node2427</title>
<path fill="none" stroke="midnightblue" d="M1396.07,-259C1384,-259 1371.5,-259 1359.52,-259"/>
<polygon fill="midnightblue" stroke="midnightblue" points="1396.09,-262.5 1406.09,-259 1396.09,-255.5 1396.09,-262.5"/>
</g>
<!-- Node2434 -->
<g id="node9" class="node"><title>Node2434</title>
<g id="a_node9"><a xlink:href="classNavEKF3__core.html#a4f27a74890ed2b37858a754a05c8fc5b" target="_top" xlink:title=" ">
<polygon fill="white" stroke="black" points="1213.36,-139 1213.36,-159 1366.64,-159 1366.64,-139 1213.36,-139"/>
<text text-anchor="middle" x="1290" y="-145" font-family="Helvetica,sans-Serif" font-size="10.00">NavEKF3_core::CovarianceInit</text>
</a>
</g>
</g>
<!-- Node2426&#45;&gt;Node2434 -->
<g id="edge8" class="edge"><title>Node2426&#45;&gt;Node2434</title>
<path fill="none" stroke="midnightblue" d="M1433.15,-237.344C1395.03,-213.653 1335.58,-176.704 1307.17,-159.05"/>
<polygon fill="midnightblue" stroke="midnightblue" points="1431.54,-240.463 1441.88,-242.769 1435.24,-234.518 1431.54,-240.463"/>
</g>
<!-- Node2447 -->
<g id="node22" class="node"><title>Node2447</title>
<g id="a_node22"><a xlink:href="classNavEKF3__core.html#a178c96e9746f94c6aff4c1af261f1a02" target="_top" xlink:title=" ">
<polygon fill="white" stroke="black" points="1210.39,-294 1210.39,-314 1369.61,-314 1369.61,-294 1210.39,-294"/>
<text text-anchor="middle" x="1290" y="-300" font-family="Helvetica,sans-Serif" font-size="10.00">NavEKF3_core::realignYawGPS</text>
</a>
</g>
</g>
<!-- Node2426&#45;&gt;Node2447 -->
<g id="edge27" class="edge"><title>Node2426&#45;&gt;Node2447</title>
<path fill="none" stroke="midnightblue" d="M1396.35,-277.293C1387.48,-279.554 1378.53,-281.832 1370,-284 1357.25,-287.241 1343.33,-290.766 1330.79,-293.942"/>
<polygon fill="midnightblue" stroke="midnightblue" points="1397.49,-280.615 1406.32,-274.754 1395.76,-273.832 1397.49,-280.615"/>
</g>
<!-- Node2428 -->
<g id="node3" class="node"><title>Node2428</title>
<g id="a_node3"><a xlink:href="classNavEKF3__core.html#a800d407d377e6532d563c68cc3c731d8" target="_top" xlink:title=" ">
<polygon fill="white" stroke="black" points="794.688,-206 794.688,-226 961.312,-226 961.312,-206 794.688,-206"/>
<text text-anchor="middle" x="878" y="-212" font-family="Helvetica,sans-Serif" font-size="10.00">NavEKF3_core::SelectMagFusion</text>
</a>
</g>
</g>
<!-- Node2427&#45;&gt;Node2428 -->
<g id="edge2" class="edge"><title>Node2427&#45;&gt;Node2428</title>
<path fill="none" stroke="midnightblue" d="M1210.1,-259.773C1151.33,-259.31 1069.27,-256.466 998,-246 968.172,-241.62 934.961,-232.916 911.221,-226.007"/>
<polygon fill="midnightblue" stroke="midnightblue" points="1210.4,-263.275 1220.42,-259.832 1210.44,-256.275 1210.4,-263.275"/>
</g>
<!-- Node2429 -->
<g id="node4" class="node"><title>Node2429</title>
<g id="a_node4"><a xlink:href="classNavEKF3__core.html#a2a7fae9e0bf2ce6fc2f9b3918dc168d3" target="_top" xlink:title=" ">
<polygon fill="white" stroke="black" points="614.084,-143 614.084,-163 757.916,-163 757.916,-143 614.084,-143"/>
<text text-anchor="middle" x="686" y="-149" font-family="Helvetica,sans-Serif" font-size="10.00">NavEKF3_core::UpdateFilter</text>
</a>
</g>
</g>
<!-- Node2428&#45;&gt;Node2429 -->
<g id="edge3" class="edge"><title>Node2428&#45;&gt;Node2429</title>
<path fill="none" stroke="midnightblue" d="M836.858,-202.69C801.192,-190.864 749.831,-173.833 717.451,-163.097"/>
<polygon fill="midnightblue" stroke="midnightblue" points="835.88,-206.053 846.473,-205.878 838.083,-199.408 835.88,-206.053"/>
</g>
<!-- Node2430 -->
<g id="node5" class="node"><title>Node2430</title>
<g id="a_node5"><a xlink:href="classNavEKF3.html#a477020fcf29376e0c2205dbf79728104" target="_top" xlink:title=" ">
<polygon fill="white" stroke="black" points="458.591,-110 458.591,-130 577.409,-130 577.409,-110 458.591,-110"/>
<text text-anchor="middle" x="518" y="-116" font-family="Helvetica,sans-Serif" font-size="10.00">NavEKF3::UpdateFilter</text>
</a>
</g>
</g>
<!-- Node2429&#45;&gt;Node2430 -->
<g id="edge4" class="edge"><title>Node2429&#45;&gt;Node2430</title>
<path fill="none" stroke="midnightblue" d="M624.433,-140.959C606.357,-137.366 586.747,-133.468 569.397,-130.019"/>
<polygon fill="midnightblue" stroke="midnightblue" points="623.802,-144.403 634.293,-142.92 625.167,-137.537 623.802,-144.403"/>
</g>
<!-- Node2431 -->
<g id="node6" class="node"><title>Node2431</title>
<g id="a_node6"><a xlink:href="classAP__AHRS__NavEKF.html#a324160404f12959e955554f5aed26459" target="_top" xlink:title=" ">
<polygon fill="white" stroke="black" points="249.904,-74 249.904,-94 422.096,-94 422.096,-74 249.904,-74"/>
<text text-anchor="middle" x="336" y="-80" font-family="Helvetica,sans-Serif" font-size="10.00">AP_AHRS_NavEKF::update_EKF3</text>
</a>
</g>
</g>
<!-- Node2430&#45;&gt;Node2431 -->
<g id="edge5" class="edge"><title>Node2430&#45;&gt;Node2431</title>
<path fill="none" stroke="midnightblue" d="M457.014,-108.003C434.362,-103.472 408.845,-98.369 387.183,-94.0366"/>
<polygon fill="midnightblue" stroke="midnightblue" points="456.368,-111.443 466.86,-109.972 457.741,-104.579 456.368,-111.443"/>
</g>
<!-- Node2432 -->
<g id="node7" class="node"><title>Node2432</title>
<g id="a_node7"><a xlink:href="classAP__AHRS__NavEKF.html#ac8111979c5dc37a55b2c50818534ea52" target="_top" xlink:title=" ">
<polygon fill="white" stroke="black" points="72.1899,-74 72.1899,-94 213.81,-94 213.81,-74 72.1899,-74"/>
<text text-anchor="middle" x="143" y="-80" font-family="Helvetica,sans-Serif" font-size="10.00">AP_AHRS_NavEKF::update</text>
</a>
</g>
</g>
<!-- Node2431&#45;&gt;Node2432 -->
<g id="edge6" class="edge"><title>Node2431&#45;&gt;Node2432</title>
<path fill="none" stroke="midnightblue" d="M239.643,-84C230.946,-84 222.247,-84 213.835,-84"/>
<polygon fill="midnightblue" stroke="midnightblue" points="239.834,-87.5001 249.834,-84 239.834,-80.5001 239.834,-87.5001"/>
</g>
<!-- Node2433 -->
<g id="node8" class="node"><title>Node2433</title>
<g id="a_node8"><a xlink:href="AHRS__Test_8cpp.html#afe461d27b9c48d5921c00d521181f12f" target="_top" xlink:title=" ">
<polygon fill="white" stroke="black" points="0.546875,-74 0.546875,-94 35.4531,-94 35.4531,-74 0.546875,-74"/>
<text text-anchor="middle" x="18" y="-80" font-family="Helvetica,sans-Serif" font-size="10.00">loop</text>
</a>
</g>
</g>
<!-- Node2432&#45;&gt;Node2433 -->
<g id="edge7" class="edge"><title>Node2432&#45;&gt;Node2433</title>
<path fill="none" stroke="midnightblue" d="M61.8306,-84C51.9771,-84 42.8299,-84 35.5404,-84"/>
<polygon fill="midnightblue" stroke="midnightblue" points="61.8769,-87.5001 71.8769,-84 61.8769,-80.5001 61.8769,-87.5001"/>
</g>
<!-- Node2435 -->
<g id="node10" class="node"><title>Node2435</title>
<g id="a_node10"><a xlink:href="classNavEKF3__core.html#a28e3f859d036f39a91762f2808f3f880" target="_top" xlink:title=" ">
<polygon fill="white" stroke="black" points="1010.47,-139 1010.47,-159 1161.53,-159 1161.53,-139 1010.47,-139"/>
<text text-anchor="middle" x="1086" y="-145" font-family="Helvetica,sans-Serif" font-size="10.00">NavEKF3_core::FuseAirspeed</text>
</a>
</g>
</g>
<!-- Node2434&#45;&gt;Node2435 -->
<g id="edge9" class="edge"><title>Node2434&#45;&gt;Node2435</title>
<path fill="none" stroke="midnightblue" d="M1203.2,-149C1189.35,-149 1175.1,-149 1161.54,-149"/>
<polygon fill="midnightblue" stroke="midnightblue" points="1203.21,-152.5 1213.21,-149 1203.21,-145.5 1203.21,-152.5"/>
</g>
<!-- Node2437 -->
<g id="node12" class="node"><title>Node2437</title>
<g id="a_node12"><a xlink:href="classNavEKF3__core.html#a8804c6d0e9bfc1f0fee35bbb76bc7d90" target="_top" xlink:title=" ">
<polygon fill="white" stroke="black" points="1010.84,-178 1010.84,-198 1161.16,-198 1161.16,-178 1010.84,-178"/>
<text text-anchor="middle" x="1086" y="-184" font-family="Helvetica,sans-Serif" font-size="10.00">NavEKF3_core::fuseEulerYaw</text>
</a>
</g>
</g>
<!-- Node2434&#45;&gt;Node2437 -->
<g id="edge12" class="edge"><title>Node2434&#45;&gt;Node2437</title>
<path fill="none" stroke="midnightblue" d="M1226.83,-161.003C1198.63,-166.447 1165.68,-172.81 1138.84,-177.991"/>
<polygon fill="midnightblue" stroke="midnightblue" points="1227.82,-164.376 1236.98,-159.043 1226.5,-157.503 1227.82,-164.376"/>
</g>
<!-- Node2438 -->
<g id="node13" class="node"><title>Node2438</title>
<g id="a_node13"><a xlink:href="classNavEKF3__core.html#a65c29d1065e003be6d6487e282c9681e" target="_top" xlink:title=" ">
<polygon fill="white" stroke="black" points="997.963,-217 997.963,-237 1174.04,-237 1174.04,-217 997.963,-217"/>
<text text-anchor="middle" x="1086" y="-223" font-family="Helvetica,sans-Serif" font-size="10.00">NavEKF3_core::FuseMagnetometer</text>
</a>
</g>
</g>
<!-- Node2434&#45;&gt;Node2438 -->
<g id="edge14" class="edge"><title>Node2434&#45;&gt;Node2438</title>
<path fill="none" stroke="midnightblue" d="M1263.33,-164.211C1240.54,-177.161 1205.98,-195.452 1174,-207 1163.21,-210.895 1151.39,-214.21 1140.04,-216.954"/>
<polygon fill="midnightblue" stroke="midnightblue" points="1265.13,-167.217 1272.05,-159.194 1261.63,-161.15 1265.13,-167.217"/>
</g>
<!-- Node2439 -->
<g id="node14" class="node"><title>Node2439</title>
<g id="a_node14"><a xlink:href="classNavEKF3__core.html#a99149e51e4719623c62948a32994cb33" target="_top" xlink:title=" ">
<polygon fill="white" stroke="black" points="1012.41,-100 1012.41,-120 1159.59,-120 1159.59,-100 1012.41,-100"/>
<text text-anchor="middle" x="1086" y="-106" font-family="Helvetica,sans-Serif" font-size="10.00">NavEKF3_core::FuseRngBcn</text>
</a>
</g>
</g>
<!-- Node2434&#45;&gt;Node2439 -->
<g id="edge16" class="edge"><title>Node2434&#45;&gt;Node2439</title>
<path fill="none" stroke="midnightblue" d="M1226.83,-136.997C1198.63,-131.553 1165.68,-125.19 1138.84,-120.009"/>
<polygon fill="midnightblue" stroke="midnightblue" points="1226.5,-140.497 1236.98,-138.957 1227.82,-133.624 1226.5,-140.497"/>
</g>
<!-- Node2441 -->
<g id="node16" class="node"><title>Node2441</title>
<g id="a_node16"><a xlink:href="classNavEKF3__core.html#ab794034b31dce4e7ef45299e8aa33bb7" target="_top" xlink:title=" ">
<polygon fill="white" stroke="black" points="1012.69,-61 1012.69,-81 1159.31,-81 1159.31,-61 1012.69,-61"/>
<text text-anchor="middle" x="1086" y="-67" font-family="Helvetica,sans-Serif" font-size="10.00">NavEKF3_core::FuseSideslip</text>
</a>
</g>
</g>
<!-- Node2434&#45;&gt;Node2441 -->
<g id="edge19" class="edge"><title>Node2434&#45;&gt;Node2441</title>
<path fill="none" stroke="midnightblue" d="M1263.79,-133.646C1241.05,-120.388 1206.3,-101.59 1174,-90 1164.25,-86.5015 1153.64,-83.5328 1143.3,-81.0563"/>
<polygon fill="midnightblue" stroke="midnightblue" points="1262.08,-136.701 1272.47,-138.777 1265.65,-130.675 1262.08,-136.701"/>
</g>
<!-- Node2443 -->
<g id="node18" class="node"><title>Node2443</title>
<g id="a_node18"><a xlink:href="classNavEKF3__core.html#aae18ada44b1b7be0d45af03391ef961a" target="_top" xlink:title=" ">
<polygon fill="white" stroke="black" points="1023.25,-10 1023.25,-42 1148.75,-42 1148.75,-10 1023.25,-10"/>
<text text-anchor="start" x="1031.25" y="-28" font-family="Helvetica,sans-Serif" font-size="10.00">NavEKF3_core::Initialise</text>
<text text-anchor="middle" x="1086" y="-16" font-family="Helvetica,sans-Serif" font-size="10.00">FilterBootstrap</text>
</a>
</g>
</g>
<!-- Node2434&#45;&gt;Node2443 -->
<g id="edge22" class="edge"><title>Node2434&#45;&gt;Node2443</title>
<path fill="none" stroke="midnightblue" d="M1272.83,-131.174C1252.01,-109.256 1213.76,-72.3474 1174,-51 1166.25,-46.8366 1157.72,-43.2984 1149.13,-40.3111"/>
<polygon fill="midnightblue" stroke="midnightblue" points="1270.54,-133.851 1279.92,-138.776 1275.66,-129.076 1270.54,-133.851"/>
</g>
<!-- Node2436 -->
<g id="node11" class="node"><title>Node2436</title>
<g id="a_node11"><a xlink:href="classNavEKF3__core.html#a26f75214891e1ce1406fd8f6aea398de" target="_top" xlink:title=" ">
<polygon fill="white" stroke="black" points="796.633,-157 796.633,-177 959.367,-177 959.367,-157 796.633,-157"/>
<text text-anchor="middle" x="878" y="-163" font-family="Helvetica,sans-Serif" font-size="10.00">NavEKF3_core::SelectTasFusion</text>
</a>
</g>
</g>
<!-- Node2435&#45;&gt;Node2436 -->
<g id="edge10" class="edge"><title>Node2435&#45;&gt;Node2436</title>
<path fill="none" stroke="midnightblue" d="M1000.19,-156.411C986.792,-157.581 972.969,-158.789 959.668,-159.951"/>
<polygon fill="midnightblue" stroke="midnightblue" points="1000.68,-159.881 1010.34,-155.524 1000.07,-152.908 1000.68,-159.881"/>
</g>
<!-- Node2436&#45;&gt;Node2429 -->
<g id="edge11" class="edge"><title>Node2436&#45;&gt;Node2429</title>
<path fill="none" stroke="midnightblue" d="M786.21,-160.31C776.762,-159.614 767.259,-158.914 758.074,-158.237"/>
<polygon fill="midnightblue" stroke="midnightblue" points="786.193,-163.818 796.423,-161.063 786.707,-156.837 786.193,-163.818"/>
</g>
<!-- Node2437&#45;&gt;Node2428 -->
<g id="edge13" class="edge"><title>Node2437&#45;&gt;Node2428</title>
<path fill="none" stroke="midnightblue" d="M1001.28,-199.38C985.158,-201.571 968.387,-203.85 952.62,-205.993"/>
<polygon fill="midnightblue" stroke="midnightblue" points="1001.77,-202.845 1011.21,-198.03 1000.83,-195.908 1001.77,-202.845"/>
</g>
<!-- Node2438&#45;&gt;Node2428 -->
<g id="edge15" class="edge"><title>Node2438&#45;&gt;Node2428</title>
<path fill="none" stroke="midnightblue" d="M987.689,-221.804C978.925,-221.336 970.106,-220.865 961.486,-220.405"/>
<polygon fill="midnightblue" stroke="midnightblue" points="987.764,-225.313 997.936,-222.351 988.137,-218.323 987.764,-225.313"/>
</g>
<!-- Node2440 -->
<g id="node15" class="node"><title>Node2440</title>
<g id="a_node15"><a xlink:href="classNavEKF3__core.html#ab1243cfd0f479cedb39ed8706d4256f6" target="_top" xlink:title=" ">
<polygon fill="white" stroke="black" points="801.633,-106 801.633,-138 954.367,-138 954.367,-106 801.633,-106"/>
<text text-anchor="start" x="809.633" y="-124" font-family="Helvetica,sans-Serif" font-size="10.00">NavEKF3_core::SelectRngBcn</text>
<text text-anchor="middle" x="878" y="-112" font-family="Helvetica,sans-Serif" font-size="10.00">Fusion</text>
</a>
</g>
</g>
<!-- Node2439&#45;&gt;Node2440 -->
<g id="edge17" class="edge"><title>Node2439&#45;&gt;Node2440</title>
<path fill="none" stroke="midnightblue" d="M1002.13,-114.827C986.375,-115.745 969.966,-116.701 954.457,-117.604"/>
<polygon fill="midnightblue" stroke="midnightblue" points="1002.59,-118.306 1012.37,-114.231 1002.19,-111.318 1002.59,-118.306"/>
</g>
<!-- Node2440&#45;&gt;Node2429 -->
<g id="edge18" class="edge"><title>Node2440&#45;&gt;Node2429</title>
<path fill="none" stroke="midnightblue" d="M791.384,-135.969C776.882,-138.335 762.084,-140.749 748.362,-142.988"/>
<polygon fill="midnightblue" stroke="midnightblue" points="792.055,-139.406 801.361,-134.341 790.928,-132.497 792.055,-139.406"/>
</g>
<!-- Node2442 -->
<g id="node17" class="node"><title>Node2442</title>
<g id="a_node17"><a xlink:href="classNavEKF3__core.html#a0fa0f99fd7c7af270855172e7873eda6" target="_top" xlink:title=" ">
<polygon fill="white" stroke="black" points="809.136,-55 809.136,-87 946.864,-87 946.864,-55 809.136,-55"/>
<text text-anchor="start" x="817.136" y="-73" font-family="Helvetica,sans-Serif" font-size="10.00">NavEKF3_core::SelectBeta</text>
<text text-anchor="middle" x="878" y="-61" font-family="Helvetica,sans-Serif" font-size="10.00">Fusion</text>
</a>
</g>
</g>
<!-- Node2441&#45;&gt;Node2442 -->
<g id="edge20" class="edge"><title>Node2441&#45;&gt;Node2442</title>
<path fill="none" stroke="midnightblue" d="M1002.54,-71C984.115,-71 964.779,-71 947.019,-71"/>
<polygon fill="midnightblue" stroke="midnightblue" points="1002.66,-74.5001 1012.66,-71 1002.66,-67.5001 1002.66,-74.5001"/>
</g>
<!-- Node2442&#45;&gt;Node2429 -->
<g id="edge21" class="edge"><title>Node2442&#45;&gt;Node2429</title>
<path fill="none" stroke="midnightblue" d="M806.772,-90.6343C802.402,-92.3223 798.111,-94.1118 794,-96 776.746,-103.924 774.593,-109.772 758,-119 742.234,-127.768 723.85,-136.534 709.74,-142.968"/>
<polygon fill="midnightblue" stroke="midnightblue" points="808.24,-93.8242 816.43,-87.1025 805.836,-87.25 808.24,-93.8242"/>
</g>
<!-- Node2444 -->
<g id="node19" class="node"><title>Node2444</title>
<g id="a_node19"><a xlink:href="classNavEKF3.html#a07f064fa513fbb6e7188141904f3b5b5" target="_top" xlink:title=" ">
<polygon fill="white" stroke="black" points="816.65,-16 816.65,-36 939.35,-36 939.35,-16 816.65,-16"/>
<text text-anchor="middle" x="878" y="-22" font-family="Helvetica,sans-Serif" font-size="10.00">NavEKF3::InitialiseFilter</text>
</a>
</g>
</g>
<!-- Node2443&#45;&gt;Node2444 -->
<g id="edge23" class="edge"><title>Node2443&#45;&gt;Node2444</title>
<path fill="none" stroke="midnightblue" d="M1013.1,-26C989.144,-26 962.716,-26 939.699,-26"/>
<polygon fill="midnightblue" stroke="midnightblue" points="1013.19,-29.5001 1023.19,-26 1013.19,-22.5001 1013.19,-29.5001"/>
</g>
<!-- Node2445 -->
<g id="node20" class="node"><title>Node2445</title>
<g id="a_node20"><a xlink:href="classAP__AHRS__NavEKF.html#a532ff0df024a4537e5a108c42ba405a7" target="_top" xlink:title=" ">
<polygon fill="white" stroke="black" points="619.367,-0 619.367,-20 752.633,-20 752.633,-0 619.367,-0"/>
<text text-anchor="middle" x="686" y="-6" font-family="Helvetica,sans-Serif" font-size="10.00">AP_AHRS_NavEKF::reset</text>
</a>
</g>
</g>
<!-- Node2444&#45;&gt;Node2445 -->
<g id="edge24" class="edge"><title>Node2444&#45;&gt;Node2445</title>
<path fill="none" stroke="midnightblue" d="M806.443,-20.0583C788.887,-18.5799 770.135,-17.0009 752.817,-15.5425"/>
<polygon fill="midnightblue" stroke="midnightblue" points="806.363,-23.5639 816.622,-20.9155 806.951,-16.5886 806.363,-23.5639"/>
</g>
<!-- Node2446 -->
<g id="node21" class="node"><title>Node2446</title>
<g id="a_node21"><a xlink:href="classAP__AHRS__NavEKF.html#a9bd3c7f1793a48cd0d736b19fbfaf19a" target="_top" xlink:title=" ">
<polygon fill="white" stroke="black" points="619.367,-78 619.367,-110 752.633,-110 752.633,-78 619.367,-78"/>
<text text-anchor="start" x="627.367" y="-96" font-family="Helvetica,sans-Serif" font-size="10.00">AP_AHRS_NavEKF::reset</text>
<text text-anchor="middle" x="686" y="-84" font-family="Helvetica,sans-Serif" font-size="10.00">_attitude</text>
</a>
</g>
</g>
<!-- Node2444&#45;&gt;Node2446 -->
<g id="edge25" class="edge"><title>Node2444&#45;&gt;Node2446</title>
<path fill="none" stroke="midnightblue" d="M814.158,-38.7021C807.287,-40.5879 800.451,-42.6866 794,-45 777.162,-51.0388 774.202,-55.4185 758,-63 747.28,-68.0164 735.54,-73.2471 724.748,-77.952"/>
<polygon fill="midnightblue" stroke="midnightblue" points="815.409,-41.9933 824.208,-36.0914 813.649,-35.2182 815.409,-41.9933"/>
</g>
<!-- Node2444&#45;&gt;Node2431 -->
<g id="edge26" class="edge"><title>Node2444&#45;&gt;Node2431</title>
<path fill="none" stroke="midnightblue" d="M806.448,-33.5778C707.654,-44.189 528.324,-63.4503 422.206,-74.8483"/>
<polygon fill="midnightblue" stroke="midnightblue" points="807.058,-37.0325 816.627,-32.4845 806.31,-30.0725 807.058,-37.0325"/>
</g>
<!-- Node2448 -->
<g id="node23" class="node"><title>Node2448</title>
<g id="a_node23"><a xlink:href="classNavEKF3__core.html#a8f4723dabc873f7112948a18b290fb01" target="_top" xlink:title=" ">
<polygon fill="white" stroke="black" points="803.853,-266 803.853,-298 952.147,-298 952.147,-266 803.853,-266"/>
<text text-anchor="start" x="811.853" y="-284" font-family="Helvetica,sans-Serif" font-size="10.00">NavEKF3_core::SelectVelPos</text>
<text text-anchor="middle" x="878" y="-272" font-family="Helvetica,sans-Serif" font-size="10.00">Fusion</text>
</a>
</g>
</g>
<!-- Node2447&#45;&gt;Node2448 -->
<g id="edge28" class="edge"><title>Node2447&#45;&gt;Node2448</title>
<path fill="none" stroke="midnightblue" d="M1199.7,-299.208C1125.62,-295.233 1021.57,-289.65 952.3,-285.933"/>
<polygon fill="midnightblue" stroke="midnightblue" points="1199.77,-302.717 1209.95,-299.758 1200.15,-295.727 1199.77,-302.717"/>
</g>
<!-- Node2448&#45;&gt;Node2429 -->
<g id="edge29" class="edge"><title>Node2448&#45;&gt;Node2429</title>
<path fill="none" stroke="midnightblue" d="M837.173,-260.919C823.263,-253.173 807.707,-244.07 794,-235 758.087,-211.236 718.523,-179.271 699.108,-163.171"/>
<polygon fill="midnightblue" stroke="midnightblue" points="835.591,-264.043 846.04,-265.799 838.967,-257.911 835.591,-264.043"/>
</g>
</g>
</svg>
        <g id="navigator" transform="translate(0 0)" fill="#404254">
                <rect fill="#f2f5e9" fill-opacity="0.5" stroke="#606060" stroke-width=".5" x="0" y="0" width="60" height="60"/>
                <use id="zoomplus" xlink:href="#zoomPlus" x="17" y="9" onmousedown="handleZoom(evt,'in')"/>
                <use id="zoomminus" xlink:href="#zoomMin" x="42" y="9" onmousedown="handleZoom(evt,'out')"/>
                <use id="reset" xlink:href="#resetDef" x="30" y="36" onmousedown="handleReset()"/>
                <g id="arrowUp" xlink:href="#dirArrow" transform="translate(30 24)" onmousedown="handlePan(0,-1)">
                  <use xlink:href="#rim" fill="#404040">
                        <set attributeName="fill" to="#808080" begin="arrowUp.mouseover" end="arrowUp.mouseout"/>
                  </use>
                  <path fill="none" stroke="white" stroke-width="1.5" d="M0,-3.0v7 M-2.5,-0.5L0,-3.0L2.5,-0.5"/>
                </g>
                <g id="arrowRight" xlink:href="#dirArrow" transform="rotate(90) translate(36 -43)" onmousedown="handlePan(1,0)">
                  <use xlink:href="#rim" fill="#404040">
                        <set attributeName="fill" to="#808080" begin="arrowRight.mouseover" end="arrowRight.mouseout"/>
                  </use>
                  <path fill="none" stroke="white" stroke-width="1.5" d="M0,-3.0v7 M-2.5,-0.5L0,-3.0L2.5,-0.5"/>
                </g>
                <g id="arrowDown" xlink:href="#dirArrow" transform="rotate(180) translate(-30 -48)" onmousedown="handlePan(0,1)">
                  <use xlink:href="#rim" fill="#404040">
                        <set attributeName="fill" to="#808080" begin="arrowDown.mouseover" end="arrowDown.mouseout"/>
                  </use>
                  <path fill="none" stroke="white" stroke-width="1.5" d="M0,-3.0v7 M-2.5,-0.5L0,-3.0L2.5,-0.5"/>
                </g>
                <g id="arrowLeft" xlink:href="#dirArrow" transform="rotate(270) translate(-36 17)" onmousedown="handlePan(-1,0)">
                  <use xlink:href="#rim" fill="#404040">
                        <set attributeName="fill" to="#808080" begin="arrowLeft.mouseover" end="arrowLeft.mouseout"/>
                  </use>
                  <path fill="none" stroke="white" stroke-width="1.5" d="M0,-3.0v7 M-2.5,-0.5L0,-3.0L2.5,-0.5"/>
                </g>
        </g>
        <svg viewBox="0 0 15 15" width="100%" height="30px" preserveAspectRatio="xMaxYMin meet">
         <g id="arrow_out" transform="scale(0.3 0.3)">
          <a xlink:href="classNavEKF3__core_a9bb44692c2b0233ac003e232803c38fe_icgraph_org.svg" target="_base">
           <rect id="button" ry="5" rx="5" y="6" x="6" height="38" width="38"
                fill="#f2f5e9" fill-opacity="0.5" stroke="#606060" stroke-width="1.0"/>
           <path id="arrow"
             d="M 11.500037,31.436501 C 11.940474,20.09759 22.043105,11.32322 32.158766,21.979434 L 37.068811,17.246167 C 37.068811,17.246167 37.088388,32 37.088388,32 L 22.160133,31.978069 C 22.160133,31.978069 26.997745,27.140456 26.997745,27.140456 C 18.528582,18.264221 13.291696,25.230495 11.500037,31.436501 z"
             style="fill:#404040;"/>
          </a>
         </g>
        </svg>
</svg>
