<?xml version="1.0" encoding="UTF-8" standalone="no"?>
<!DOCTYPE svg PUBLIC "-//W3C//DTD SVG 1.1//EN"
 "http://www.w3.org/Graphics/SVG/1.1/DTD/svg11.dtd">
<!-- Generated by graphviz version 2.30.1 (20130221.2233)
 -->
<!-- Title: AP_RSSI::read_channel_rssi Pages: 1 -->
<svg width="1046pt" height="199pt"
 viewBox="0.00 0.00 1046.00 199.00" xmlns="http://www.w3.org/2000/svg" xmlns:xlink="http://www.w3.org/1999/xlink">
<g id="graph0" class="graph" transform="scale(1 1) rotate(0) translate(4 195)">
<title>AP_RSSI::read_channel_rssi</title>
<polygon fill="white" stroke="white" points="-4,5 -4,-195 1043,-195 1043,5 -4,5"/>
<!-- Node153 -->
<g id="node1" class="node"><title>Node153</title>
<g id="a_node1"><a xlink:title=" ">
<polygon fill="#bfbfbf" stroke="black" points="0.241699,-112 0.241699,-132 145.758,-132 145.758,-112 0.241699,-112"/>
<text text-anchor="middle" x="73" y="-118" font-family="Helvetica,sans-Serif" font-size="10.00">AP_RSSI::read_channel_rssi</text>
</a>
</g>
</g>
<!-- Node154 -->
<g id="node2" class="node"><title>Node154</title>
<g id="a_node2"><a xlink:href="RC__Channel_8h.html#acb66f35c4fe350096704f48e4c651948" target="_top" xlink:title=" ">
<polygon fill="white" stroke="black" points="234.5,-171 234.5,-191 263.5,-191 263.5,-171 234.5,-171"/>
<text text-anchor="middle" x="249" y="-177" font-family="Helvetica,sans-Serif" font-size="10.00">rc</text>
</a>
</g>
</g>
<!-- Node153&#45;&gt;Node154 -->
<g id="edge1" class="edge"><title>Node153&#45;&gt;Node154</title>
<path fill="none" stroke="midnightblue" d="M100.495,-132.006C122.276,-140.125 153.997,-151.708 182,-161 196.027,-165.654 211.872,-170.47 224.52,-174.21"/>
<polygon fill="midnightblue" stroke="midnightblue" points="223.702,-177.617 234.283,-177.07 225.67,-170.9 223.702,-177.617"/>
</g>
<!-- Node156 -->
<g id="node4" class="node"><title>Node156</title>
<g id="a_node4"><a xlink:href="classRC__Channels.html#a305bdcb535ed4055e86125c65bc6ba0c" target="_top" xlink:title=" ">
<polygon fill="white" stroke="black" points="189.579,-132 189.579,-152 308.421,-152 308.421,-132 189.579,-132"/>
<text text-anchor="middle" x="249" y="-138" font-family="Helvetica,sans-Serif" font-size="10.00">RC_Channels::channel</text>
</a>
</g>
</g>
<!-- Node153&#45;&gt;Node156 -->
<g id="edge3" class="edge"><title>Node153&#45;&gt;Node156</title>
<path fill="none" stroke="midnightblue" d="M145.777,-130.25C156.886,-131.527 168.337,-132.843 179.375,-134.112"/>
<polygon fill="midnightblue" stroke="midnightblue" points="179.04,-137.596 189.374,-135.261 179.839,-130.642 179.04,-137.596"/>
</g>
<!-- Node157 -->
<g id="node5" class="node"><title>Node157</title>
<g id="a_node5"><a xlink:href="classRC__Channel.html#a35dd43d363695269b38277306426f883" target="_top" xlink:title=" ">
<polygon fill="white" stroke="black" points="182.072,-93 182.072,-113 315.928,-113 315.928,-93 182.072,-93"/>
<text text-anchor="middle" x="249" y="-99" font-family="Helvetica,sans-Serif" font-size="10.00">RC_Channel::get_radio_in</text>
</a>
</g>
</g>
<!-- Node153&#45;&gt;Node157 -->
<g id="edge4" class="edge"><title>Node153&#45;&gt;Node157</title>
<path fill="none" stroke="midnightblue" d="M145.777,-114.162C154.39,-113.222 163.207,-112.259 171.879,-111.312"/>
<polygon fill="midnightblue" stroke="midnightblue" points="172.409,-114.775 181.97,-110.21 171.649,-107.816 172.409,-114.775"/>
</g>
<!-- Node158 -->
<g id="node6" class="node"><title>Node158</title>
<g id="a_node6"><a xlink:href="classAP__RSSI.html#ae047e3d04ba647b80604d0ae02d75126" target="_top" xlink:title=" ">
<polygon fill="white" stroke="black" points="194.306,-42 194.306,-74 303.694,-74 303.694,-42 194.306,-42"/>
<text text-anchor="start" x="202.306" y="-60" font-family="Helvetica,sans-Serif" font-size="10.00">AP_RSSI::scale_and</text>
<text text-anchor="middle" x="249" y="-48" font-family="Helvetica,sans-Serif" font-size="10.00">_constrain_float_rssi</text>
</a>
</g>
</g>
<!-- Node153&#45;&gt;Node158 -->
<g id="edge5" class="edge"><title>Node153&#45;&gt;Node158</title>
<path fill="none" stroke="midnightblue" d="M101.571,-111.859C126.474,-102.699 163.821,-88.9625 194.564,-77.6547"/>
<polygon fill="midnightblue" stroke="midnightblue" points="196.112,-80.8146 204.289,-74.0776 193.695,-74.2449 196.112,-80.8146"/>
</g>
<!-- Node155 -->
<g id="node3" class="node"><title>Node155</title>
<g id="a_node3"><a xlink:href="classRC__Channels.html#aff83e1bebc777f76d2c19fc601c40c4f" target="_top" xlink:title=" ">
<polygon fill="white" stroke="black" points="352.348,-171 352.348,-191 495.652,-191 495.652,-171 352.348,-171"/>
<text text-anchor="middle" x="424" y="-177" font-family="Helvetica,sans-Serif" font-size="10.00">RC_Channels::get_singleton</text>
</a>
</g>
</g>
<!-- Node154&#45;&gt;Node155 -->
<g id="edge2" class="edge"><title>Node154&#45;&gt;Node155</title>
<path fill="none" stroke="midnightblue" d="M263.575,-181C280.751,-181 311.735,-181 341.851,-181"/>
<polygon fill="midnightblue" stroke="midnightblue" points="342.01,-184.5 352.01,-181 342.01,-177.5 342.01,-184.5"/>
</g>
<!-- Node159 -->
<g id="node7" class="node"><title>Node159</title>
<g id="a_node7"><a xlink:href="AP__Math_8h.html#a2a12cce483e9b870da70d30406d82c60" target="_top" xlink:title=" ">
<polygon fill="white" stroke="black" points="399.882,-87 399.882,-107 448.118,-107 448.118,-87 399.882,-87"/>
<text text-anchor="middle" x="424" y="-93" font-family="Helvetica,sans-Serif" font-size="10.00">is_zero</text>
</a>
</g>
</g>
<!-- Node158&#45;&gt;Node159 -->
<g id="edge6" class="edge"><title>Node158&#45;&gt;Node159</title>
<path fill="none" stroke="midnightblue" d="M303.79,-70.1261C331.91,-76.4652 365.439,-84.0237 389.765,-89.5076"/>
<polygon fill="midnightblue" stroke="midnightblue" points="389.059,-92.9364 399.584,-91.7213 390.599,-86.1077 389.059,-92.9364"/>
</g>
<!-- Node160 -->
<g id="node8" class="node"><title>Node160</title>
<g id="a_node8"><a xlink:href="AP__Math_8h.html#ad525609d9dba6ffa556a0fbf08a3f9b4" target="_top" xlink:title=" ">
<polygon fill="white" stroke="black" points="383.48,-48 383.48,-68 464.52,-68 464.52,-48 383.48,-48"/>
<text text-anchor="middle" x="424" y="-54" font-family="Helvetica,sans-Serif" font-size="10.00">constrain_float</text>
</a>
</g>
</g>
<!-- Node158&#45;&gt;Node160 -->
<g id="edge7" class="edge"><title>Node158&#45;&gt;Node160</title>
<path fill="none" stroke="midnightblue" d="M303.79,-58C325.968,-58 351.509,-58 373.248,-58"/>
<polygon fill="midnightblue" stroke="midnightblue" points="373.261,-61.5001 383.261,-58 373.261,-54.5001 373.261,-61.5001"/>
</g>
<!-- Node167 -->
<g id="node15" class="node"><title>Node167</title>
<g id="a_node15"><a xlink:href="matrix__alg_8cpp.html#a4ae7bd9da0bae1b05a7c352df26008ff" target="_top" xlink:title=" ">
<polygon fill="white" stroke="black" points="404.328,-9 404.328,-29 443.672,-29 443.672,-9 404.328,-9"/>
<text text-anchor="middle" x="424" y="-15" font-family="Helvetica,sans-Serif" font-size="10.00">swap</text>
</a>
</g>
</g>
<!-- Node158&#45;&gt;Node167 -->
<g id="edge14" class="edge"><title>Node158&#45;&gt;Node167</title>
<path fill="none" stroke="midnightblue" d="M303.79,-45.8739C333.646,-39.1434 369.598,-31.0385 394.161,-25.5013"/>
<polygon fill="midnightblue" stroke="midnightblue" points="394.954,-28.9105 403.939,-23.2969 393.414,-22.0818 394.954,-28.9105"/>
</g>
<!-- Node161 -->
<g id="node9" class="node"><title>Node161</title>
<g id="a_node9"><a xlink:href="AP__Math_8h.html#a20e8f8671c282c69c1954652b6d61585" target="_top" xlink:title=" ">
<polygon fill="white" stroke="black" points="531.978,-48 531.978,-68 618.022,-68 618.022,-48 531.978,-48"/>
<text text-anchor="middle" x="575" y="-54" font-family="Helvetica,sans-Serif" font-size="10.00">constrain_value</text>
</a>
</g>
</g>
<!-- Node160&#45;&gt;Node161 -->
<g id="edge8" class="edge"><title>Node160&#45;&gt;Node161</title>
<path fill="none" stroke="midnightblue" d="M464.538,-58C482.069,-58 502.941,-58 521.735,-58"/>
<polygon fill="midnightblue" stroke="midnightblue" points="521.927,-61.5001 531.927,-58 521.927,-54.5001 521.927,-61.5001"/>
</g>
<!-- Node162 -->
<g id="node10" class="node"><title>Node162</title>
<g id="a_node10"><a xlink:href="namespaceAP.html#afceb236ff617aaaa2b08afacd72532b0" target="_top" xlink:title=" ">
<polygon fill="white" stroke="black" points="668.596,-68 668.596,-88 757.404,-88 757.404,-68 668.596,-68"/>
<text text-anchor="middle" x="713" y="-74" font-family="Helvetica,sans-Serif" font-size="10.00">AP::internalerror</text>
</a>
</g>
</g>
<!-- Node161&#45;&gt;Node162 -->
<g id="edge9" class="edge"><title>Node161&#45;&gt;Node162</title>
<path fill="none" stroke="midnightblue" d="M618.286,-64.2185C630.962,-66.0826 645.035,-68.1523 658.342,-70.1091"/>
<polygon fill="midnightblue" stroke="midnightblue" points="657.929,-73.5859 668.331,-71.5782 658.947,-66.6604 657.929,-73.5859"/>
</g>
<!-- Node163 -->
<g id="node11" class="node"><title>Node163</title>
<g id="a_node11"><a xlink:href="classAP__InternalError.html#ab34174ba770b976b39a18c2b23e854f2" target="_top" xlink:title=" ">
<polygon fill="white" stroke="black" points="654.426,-29 654.426,-49 771.574,-49 771.574,-29 654.426,-29"/>
<text text-anchor="middle" x="713" y="-35" font-family="Helvetica,sans-Serif" font-size="10.00">AP_InternalError::error</text>
</a>
</g>
</g>
<!-- Node161&#45;&gt;Node163 -->
<g id="edge10" class="edge"><title>Node161&#45;&gt;Node163</title>
<path fill="none" stroke="midnightblue" d="M618.286,-52.0924C626.557,-50.9369 635.424,-49.6981 644.284,-48.4603"/>
<polygon fill="midnightblue" stroke="midnightblue" points="644.833,-51.9177 654.253,-47.0676 643.865,-44.985 644.833,-51.9177"/>
</g>
<!-- Node164 -->
<g id="node12" class="node"><title>Node164</title>
<g id="a_node12"><a xlink:href="namespaceAP__HAL.html#a71832f03d849a0c088f04fc98d3c8143" target="_top" xlink:title=" ">
<polygon fill="white" stroke="black" points="808.091,-29 808.091,-49 891.909,-49 891.909,-29 808.091,-29"/>
<text text-anchor="middle" x="850" y="-35" font-family="Helvetica,sans-Serif" font-size="10.00">AP_HAL::panic</text>
</a>
</g>
</g>
<!-- Node163&#45;&gt;Node164 -->
<g id="edge11" class="edge"><title>Node163&#45;&gt;Node164</title>
<path fill="none" stroke="midnightblue" d="M771.644,-39C780.305,-39 789.188,-39 797.705,-39"/>
<polygon fill="midnightblue" stroke="midnightblue" points="797.873,-42.5001 807.873,-39 797.872,-35.5001 797.873,-42.5001"/>
</g>
<!-- Node165 -->
<g id="node13" class="node"><title>Node165</title>
<g id="a_node13"><a xlink:href="stdio_8h.html#aae132cc6af1eb6cf43bf011d8d63e854" target="_top" xlink:title=" ">
<polygon fill="white" stroke="black" points="961.384,-52 961.384,-72 1004.62,-72 1004.62,-52 961.384,-52"/>
<text text-anchor="middle" x="983" y="-58" font-family="Helvetica,sans-Serif" font-size="10.00">vprintf</text>
</a>
</g>
</g>
<!-- Node164&#45;&gt;Node165 -->
<g id="edge12" class="edge"><title>Node164&#45;&gt;Node165</title>
<path fill="none" stroke="midnightblue" d="M892.09,-46.2142C911.104,-49.5526 933.321,-53.4533 950.913,-56.542"/>
<polygon fill="midnightblue" stroke="midnightblue" points="950.744,-60.0658 961.199,-58.3478 951.954,-53.1712 950.744,-60.0658"/>
</g>
<!-- Node166 -->
<g id="node14" class="node"><title>Node166</title>
<g id="a_node14"><a xlink:href="classAP__HAL_1_1Scheduler.html#a78c4f1b1f192ac1c99544b6cc8f099b0" target="_top" xlink:title=" ">
<polygon fill="white" stroke="black" points="927.751,-1 927.751,-33 1038.25,-33 1038.25,-1 927.751,-1"/>
<text text-anchor="start" x="935.751" y="-19" font-family="Helvetica,sans-Serif" font-size="10.00">AP_HAL::Scheduler::</text>
<text text-anchor="middle" x="983" y="-7" font-family="Helvetica,sans-Serif" font-size="10.00">delay_microseconds</text>
</a>
</g>
</g>
<!-- Node164&#45;&gt;Node166 -->
<g id="edge13" class="edge"><title>Node164&#45;&gt;Node166</title>
<path fill="none" stroke="midnightblue" d="M892.09,-32.0994C900.18,-30.7408 908.849,-29.2849 917.495,-27.8329"/>
<polygon fill="midnightblue" stroke="midnightblue" points="918.316,-31.2441 927.599,-26.1361 917.157,-24.3407 918.316,-31.2441"/>
</g>
</g>
</svg>
