<?xml version="1.0" encoding="UTF-8" standalone="no"?>
<!DOCTYPE svg PUBLIC "-//W3C//DTD SVG 1.1//EN"
 "http://www.w3.org/Graphics/SVG/1.1/DTD/svg11.dtd">
<!-- Generated by graphviz version 2.30.1 (20130221.2233)
 -->
<!-- Title: AP_MotorsMulticopter::update_throttle_filter Pages: 1 -->
<svg width="266pt" height="145pt"
 viewBox="0.00 0.00 266.00 145.00" xmlns="http://www.w3.org/2000/svg" xmlns:xlink="http://www.w3.org/1999/xlink">
<g id="graph0" class="graph" transform="scale(1 1) rotate(0) translate(4 141)">
<title>AP_MotorsMulticopter::update_throttle_filter</title>
<polygon fill="white" stroke="white" points="-4,5 -4,-141 263,-141 263,5 -4,5"/>
<!-- Node445 -->
<g id="node1" class="node"><title>Node445</title>
<g id="a_node1"><a xlink:title=" ">
<polygon fill="#bfbfbf" stroke="black" points="-0.18457,-52 -0.18457,-84 114.185,-84 114.185,-52 -0.18457,-52"/>
<text text-anchor="start" x="7.81543" y="-70" font-family="Helvetica,sans-Serif" font-size="10.00">AP_MotorsMulticopter</text>
<text text-anchor="middle" x="57" y="-58" font-family="Helvetica,sans-Serif" font-size="10.00">::update_throttle_filter</text>
</a>
</g>
</g>
<!-- Node446 -->
<g id="node2" class="node"><title>Node446</title>
<g id="a_node2"><a xlink:href="classAP__Motors.html#a67a133570ae075a874c6522b23c5261b" target="_top" xlink:title=" ">
<polygon fill="white" stroke="black" points="154.318,-117 154.318,-137 253.682,-137 253.682,-117 154.318,-117"/>
<text text-anchor="middle" x="204" y="-123" font-family="Helvetica,sans-Serif" font-size="10.00">AP_Motors::armed</text>
</a>
</g>
</g>
<!-- Node445&#45;&gt;Node446 -->
<g id="edge1" class="edge"><title>Node445&#45;&gt;Node446</title>
<path fill="none" stroke="midnightblue" d="M95.0137,-84.0903C111.744,-91.2597 131.802,-99.7125 150,-107 155.193,-109.079 160.694,-111.222 166.111,-113.297"/>
<polygon fill="midnightblue" stroke="midnightblue" points="165.093,-116.654 175.684,-116.931 167.577,-110.11 165.093,-116.654"/>
</g>
<!-- Node447 -->
<g id="node3" class="node"><title>Node447</title>
<g id="a_node3"><a xlink:href="classLowPassFilter.html#aa390849d2e18ff3287f92b89d8657841" target="_top" xlink:title=" ">
<polygon fill="white" stroke="black" points="149.87,-78 149.87,-98 258.13,-98 258.13,-78 149.87,-78"/>
<text text-anchor="middle" x="204" y="-84" font-family="Helvetica,sans-Serif" font-size="10.00">LowPassFilter::apply</text>
</a>
</g>
</g>
<!-- Node445&#45;&gt;Node447 -->
<g id="edge2" class="edge"><title>Node445&#45;&gt;Node447</title>
<path fill="none" stroke="midnightblue" d="M114.476,-75.7898C122.73,-76.9282 131.275,-78.1069 139.655,-79.2627"/>
<polygon fill="midnightblue" stroke="midnightblue" points="139.379,-82.7577 149.763,-80.657 140.335,-75.8234 139.379,-82.7577"/>
</g>
<!-- Node448 -->
<g id="node4" class="node"><title>Node448</title>
<g id="a_node4"><a xlink:href="classLowPassFilter.html#a34bc75aa770bc6cc0facee3b43a05bec" target="_top" xlink:title=" ">
<polygon fill="white" stroke="black" points="154.872,-39 154.872,-59 253.128,-59 253.128,-39 154.872,-39"/>
<text text-anchor="middle" x="204" y="-45" font-family="Helvetica,sans-Serif" font-size="10.00">LowPassFilter::get</text>
</a>
</g>
</g>
<!-- Node445&#45;&gt;Node448 -->
<g id="edge3" class="edge"><title>Node445&#45;&gt;Node448</title>
<path fill="none" stroke="midnightblue" d="M114.476,-60.5997C124.273,-59.316 134.481,-57.9784 144.335,-56.6872"/>
<polygon fill="midnightblue" stroke="midnightblue" points="144.983,-60.1323 154.443,-55.3626 144.073,-53.1916 144.983,-60.1323"/>
</g>
<!-- Node449 -->
<g id="node5" class="node"><title>Node449</title>
<g id="a_node5"><a xlink:href="classLowPassFilter.html#adad51ea3b156f167fff0fb586a912cb5" target="_top" xlink:title=" ">
<polygon fill="white" stroke="black" points="150.707,-0 150.707,-20 257.293,-20 257.293,-0 150.707,-0"/>
<text text-anchor="middle" x="204" y="-6" font-family="Helvetica,sans-Serif" font-size="10.00">LowPassFilter::reset</text>
</a>
</g>
</g>
<!-- Node445&#45;&gt;Node449 -->
<g id="edge4" class="edge"><title>Node445&#45;&gt;Node449</title>
<path fill="none" stroke="midnightblue" d="M96.3882,-51.8343C112.848,-44.9832 132.321,-36.985 150,-30 155.259,-27.9221 160.83,-25.7686 166.307,-23.6783"/>
<polygon fill="midnightblue" stroke="midnightblue" points="167.865,-26.8308 175.976,-20.0141 165.384,-20.285 167.865,-26.8308"/>
</g>
</g>
</svg>
