<?xml version="1.0" encoding="UTF-8" standalone="no"?>
<!DOCTYPE svg PUBLIC "-//W3C//DTD SVG 1.1//EN"
 "http://www.w3.org/Graphics/SVG/1.1/DTD/svg11.dtd">
<!-- Generated by graphviz version 2.30.1 (20130221.2233)
 -->
<!-- Title: AP_BattMonitor_SMBus_Solo::read_block Pages: 1 -->
<svg width="458pt" height="91pt"
 viewBox="0.00 0.00 458.00 91.00" xmlns="http://www.w3.org/2000/svg" xmlns:xlink="http://www.w3.org/1999/xlink">
<g id="graph0" class="graph" transform="scale(1 1) rotate(0) translate(4 87)">
<title>AP_BattMonitor_SMBus_Solo::read_block</title>
<polygon fill="white" stroke="white" points="-4,5 -4,-87 455,-87 455,5 -4,5"/>
<!-- Node2 -->
<g id="node1" class="node"><title>Node2</title>
<g id="a_node1"><a xlink:title=" ">
<polygon fill="#bfbfbf" stroke="black" points="0.0864258,-25 0.0864258,-57 123.914,-57 123.914,-25 0.0864258,-25"/>
<text text-anchor="start" x="8.08643" y="-43" font-family="Helvetica,sans-Serif" font-size="10.00">AP_BattMonitor_SMBus</text>
<text text-anchor="middle" x="62" y="-31" font-family="Helvetica,sans-Serif" font-size="10.00">_Solo::read_block</text>
</a>
</g>
</g>
<!-- Node3 -->
<g id="node2" class="node"><title>Node3</title>
<g id="a_node2"><a xlink:href="classAP__HAL_1_1Device.html#a66215f964cfb5c7421effdb88a749550" target="_top" xlink:title=" ">
<polygon fill="white" stroke="black" points="163.976,-51 163.976,-83 280.024,-83 280.024,-51 163.976,-51"/>
<text text-anchor="start" x="171.976" y="-69" font-family="Helvetica,sans-Serif" font-size="10.00">AP_HAL::Device::read</text>
<text text-anchor="middle" x="222" y="-57" font-family="Helvetica,sans-Serif" font-size="10.00">_registers</text>
</a>
</g>
</g>
<!-- Node2&#45;&gt;Node3 -->
<g id="edge1" class="edge"><title>Node2&#45;&gt;Node3</title>
<path fill="none" stroke="midnightblue" d="M124.087,-51.0523C133.819,-52.6537 143.934,-54.3182 153.798,-55.9414"/>
<polygon fill="midnightblue" stroke="midnightblue" points="153.524,-59.4433 163.959,-57.6135 154.66,-52.5362 153.524,-59.4433"/>
</g>
<!-- Node5 -->
<g id="node4" class="node"><title>Node5</title>
<g id="a_node4"><a xlink:href="classAP__BattMonitor__SMBus.html#a2c925254f4b6953855c088faa0cd7421" target="_top" xlink:title="get_PEC &#45; calculate packet error correction code of buffer">
<polygon fill="white" stroke="black" points="160.086,-0 160.086,-32 283.914,-32 283.914,-0 160.086,-0"/>
<text text-anchor="start" x="168.086" y="-18" font-family="Helvetica,sans-Serif" font-size="10.00">AP_BattMonitor_SMBus</text>
<text text-anchor="middle" x="222" y="-6" font-family="Helvetica,sans-Serif" font-size="10.00">::get_PEC</text>
</a>
</g>
</g>
<!-- Node2&#45;&gt;Node5 -->
<g id="edge3" class="edge"><title>Node2&#45;&gt;Node5</title>
<path fill="none" stroke="midnightblue" d="M124.087,-31.3343C132.575,-29.9912 141.355,-28.602 150.005,-27.2333"/>
<polygon fill="midnightblue" stroke="midnightblue" points="150.745,-30.6599 160.076,-25.6399 149.651,-23.7459 150.745,-30.6599"/>
</g>
<!-- Node4 -->
<g id="node3" class="node"><title>Node4</title>
<g id="a_node3"><a xlink:href="classAP__HAL_1_1Device.html#a2af24b5f93b678af718b65a606e538b0" target="_top" xlink:title=" ">
<polygon fill="white" stroke="black" points="320.032,-57 320.032,-77 449.968,-77 449.968,-57 320.032,-57"/>
<text text-anchor="middle" x="385" y="-63" font-family="Helvetica,sans-Serif" font-size="10.00">AP_HAL::Device::transfer</text>
</a>
</g>
</g>
<!-- Node3&#45;&gt;Node4 -->
<g id="edge2" class="edge"><title>Node3&#45;&gt;Node4</title>
<path fill="none" stroke="midnightblue" d="M280.216,-67C289.741,-67 299.743,-67 309.621,-67"/>
<polygon fill="midnightblue" stroke="midnightblue" points="309.844,-70.5001 319.844,-67 309.844,-63.5001 309.844,-70.5001"/>
</g>
</g>
</svg>
