<?xml version="1.0" encoding="UTF-8" standalone="no"?>
<!DOCTYPE svg PUBLIC "-//W3C//DTD SVG 1.1//EN"
 "http://www.w3.org/Graphics/SVG/1.1/DTD/svg11.dtd">
<!-- Generated by graphviz version 2.30.1 (20130221.2233)
 -->
<!-- Title: AP_RSSI::read_pin_rssi Pages: 1 -->
<svg width="2226pt" height="265pt"
 viewBox="0.00 0.00 2226.00 265.00" xmlns="http://www.w3.org/2000/svg" xmlns:xlink="http://www.w3.org/1999/xlink">
<g id="graph0" class="graph" transform="scale(1 1) rotate(0) translate(4 261)">
<title>AP_RSSI::read_pin_rssi</title>
<polygon fill="white" stroke="white" points="-4,5 -4,-261 2223,-261 2223,5 -4,5"/>
<!-- Node212 -->
<g id="node1" class="node"><title>Node212</title>
<g id="a_node1"><a xlink:title=" ">
<polygon fill="#bfbfbf" stroke="black" points="2094.08,-105 2094.08,-125 2217.92,-125 2217.92,-105 2094.08,-105"/>
<text text-anchor="middle" x="2156" y="-111" font-family="Helvetica,sans-Serif" font-size="10.00">AP_RSSI::read_pin_rssi</text>
</a>
</g>
</g>
<!-- Node213 -->
<g id="node2" class="node"><title>Node213</title>
<g id="a_node2"><a xlink:href="classAP__RSSI.html#aaf433294279d2da28157c6036faee2fa" target="_top" xlink:title=" ">
<polygon fill="white" stroke="black" points="1911.97,-105 1911.97,-125 2058.03,-125 2058.03,-105 1911.97,-105"/>
<text text-anchor="middle" x="1985" y="-111" font-family="Helvetica,sans-Serif" font-size="10.00">AP_RSSI::read_receiver_rssi</text>
</a>
</g>
</g>
<!-- Node212&#45;&gt;Node213 -->
<g id="edge1" class="edge"><title>Node212&#45;&gt;Node213</title>
<path fill="none" stroke="midnightblue" d="M2083.76,-115C2075.29,-115 2066.63,-115 2058.15,-115"/>
<polygon fill="midnightblue" stroke="midnightblue" points="2083.99,-118.5 2093.99,-115 2083.99,-111.5 2083.99,-118.5"/>
</g>
<!-- Node214 -->
<g id="node3" class="node"><title>Node214</title>
<g id="a_node3"><a xlink:href="classAP__Logger.html#ae1aa2ceae6a360006928092eae5eca43" target="_top" xlink:title=" ">
<polygon fill="white" stroke="black" points="1751.17,-128 1751.17,-148 1874.83,-148 1874.83,-128 1751.17,-128"/>
<text text-anchor="middle" x="1813" y="-134" font-family="Helvetica,sans-Serif" font-size="10.00">AP_Logger::Write_RSSI</text>
</a>
</g>
</g>
<!-- Node213&#45;&gt;Node214 -->
<g id="edge2" class="edge"><title>Node213&#45;&gt;Node214</title>
<path fill="none" stroke="midnightblue" d="M1901.75,-126.128C1892.72,-127.35 1883.64,-128.578 1874.94,-129.755"/>
<polygon fill="midnightblue" stroke="midnightblue" points="1902.46,-129.563 1911.9,-124.754 1901.53,-122.626 1902.46,-129.563"/>
</g>
<!-- Node215 -->
<g id="node4" class="node"><title>Node215</title>
<g id="a_node4"><a xlink:href="classAP__RSSI.html#ad243edc62e00237673d7a9649fa05dd8" target="_top" xlink:title=" ">
<polygon fill="white" stroke="black" points="1750.53,-77 1750.53,-109 1875.47,-109 1875.47,-77 1750.53,-77"/>
<text text-anchor="start" x="1758.53" y="-95" font-family="Helvetica,sans-Serif" font-size="10.00">AP_RSSI::read_receiver</text>
<text text-anchor="middle" x="1813" y="-83" font-family="Helvetica,sans-Serif" font-size="10.00">_rssi_uint8</text>
</a>
</g>
</g>
<!-- Node213&#45;&gt;Node215 -->
<g id="edge3" class="edge"><title>Node213&#45;&gt;Node215</title>
<path fill="none" stroke="midnightblue" d="M1901.97,-104.385C1893.14,-103.242 1884.27,-102.093 1875.73,-100.989"/>
<polygon fill="midnightblue" stroke="midnightblue" points="1901.54,-107.858 1911.9,-105.67 1902.44,-100.915 1901.54,-107.858"/>
</g>
<!-- Node216 -->
<g id="node5" class="node"><title>Node216</title>
<g id="a_node5"><a xlink:href="classAP__OSD__Screen.html#acac504d6728ba97220afc656883b5d46" target="_top" xlink:title=" ">
<polygon fill="white" stroke="black" points="1571.92,-128 1571.92,-148 1714.08,-148 1714.08,-128 1571.92,-128"/>
<text text-anchor="middle" x="1643" y="-134" font-family="Helvetica,sans-Serif" font-size="10.00">AP_OSD_Screen::draw_rssi</text>
</a>
</g>
</g>
<!-- Node215&#45;&gt;Node216 -->
<g id="edge4" class="edge"><title>Node215&#45;&gt;Node216</title>
<path fill="none" stroke="midnightblue" d="M1742.12,-111.719C1721.46,-117.253 1699.63,-123.1 1681.81,-127.871"/>
<polygon fill="midnightblue" stroke="midnightblue" points="1743.07,-115.087 1751.82,-109.119 1741.26,-108.326 1743.07,-115.087"/>
</g>
<!-- Node217 -->
<g id="node6" class="node"><title>Node217</title>
<g id="a_node6"><a xlink:href="structGCS__MAVLINK.html#ab809e8b8607d06dc52632a31d03908b8" target="_top" xlink:title=" ">
<polygon fill="white" stroke="black" points="1579.24,-77 1579.24,-109 1706.76,-109 1706.76,-77 1579.24,-77"/>
<text text-anchor="start" x="1587.24" y="-95" font-family="Helvetica,sans-Serif" font-size="10.00">GCS_MAVLINK::send_rc</text>
<text text-anchor="middle" x="1643" y="-83" font-family="Helvetica,sans-Serif" font-size="10.00">_channels</text>
</a>
</g>
</g>
<!-- Node215&#45;&gt;Node217 -->
<g id="edge5" class="edge"><title>Node215&#45;&gt;Node217</title>
<path fill="none" stroke="midnightblue" d="M1740.33,-93C1729.25,-93 1717.87,-93 1707,-93"/>
<polygon fill="midnightblue" stroke="midnightblue" points="1740.4,-96.5001 1750.4,-93 1740.4,-89.5001 1740.4,-96.5001"/>
</g>
<!-- Node242 -->
<g id="node31" class="node"><title>Node242</title>
<g id="a_node31"><a xlink:href="structGCS__MAVLINK.html#ae21a87a0378400930179c5f1cec4a5b0" target="_top" xlink:title=" ">
<polygon fill="white" stroke="black" points="1579.24,-26 1579.24,-58 1706.76,-58 1706.76,-26 1579.24,-26"/>
<text text-anchor="start" x="1587.24" y="-44" font-family="Helvetica,sans-Serif" font-size="10.00">GCS_MAVLINK::send_rc</text>
<text text-anchor="middle" x="1643" y="-32" font-family="Helvetica,sans-Serif" font-size="10.00">_channels_raw</text>
</a>
</g>
</g>
<!-- Node215&#45;&gt;Node242 -->
<g id="edge32" class="edge"><title>Node215&#45;&gt;Node242</title>
<path fill="none" stroke="midnightblue" d="M1748.91,-73.8465C1731.74,-68.6366 1713.34,-63.0492 1696.81,-58.0317"/>
<polygon fill="midnightblue" stroke="midnightblue" points="1748.26,-77.3075 1758.84,-76.8633 1750.29,-70.6093 1748.26,-77.3075"/>
</g>
<!-- Node218 -->
<g id="node7" class="node"><title>Node218</title>
<g id="a_node7"><a xlink:href="structGCS__MAVLINK.html#a30034cdbd89bcfb86392411f9b5935db" target="_top" xlink:title=" ">
<polygon fill="white" stroke="black" points="1405.85,-51 1405.85,-83 1536.15,-83 1536.15,-51 1405.85,-51"/>
<text text-anchor="start" x="1413.85" y="-69" font-family="Helvetica,sans-Serif" font-size="10.00">GCS_MAVLINK::try_send</text>
<text text-anchor="middle" x="1471" y="-57" font-family="Helvetica,sans-Serif" font-size="10.00">_message</text>
</a>
</g>
</g>
<!-- Node217&#45;&gt;Node218 -->
<g id="edge6" class="edge"><title>Node217&#45;&gt;Node218</title>
<path fill="none" stroke="midnightblue" d="M1569.22,-81.8686C1558.26,-80.1929 1547.03,-78.4748 1536.27,-76.8289"/>
<polygon fill="midnightblue" stroke="midnightblue" points="1568.77,-85.3403 1579.18,-83.3924 1569.83,-78.4207 1568.77,-85.3403"/>
</g>
<!-- Node219 -->
<g id="node8" class="node"><title>Node219</title>
<g id="a_node8"><a xlink:href="structGCS__MAVLINK.html#ae94077536892270b4a40e5bcddb1c2f9" target="_top" xlink:title=" ">
<polygon fill="white" stroke="black" points="1232.13,-102 1232.13,-134 1351.87,-134 1351.87,-102 1232.13,-102"/>
<text text-anchor="start" x="1240.13" y="-120" font-family="Helvetica,sans-Serif" font-size="10.00">GCS_MAVLINK::do_try</text>
<text text-anchor="middle" x="1292" y="-108" font-family="Helvetica,sans-Serif" font-size="10.00">_send_message</text>
</a>
</g>
</g>
<!-- Node218&#45;&gt;Node219 -->
<g id="edge7" class="edge"><title>Node218&#45;&gt;Node219</title>
<path fill="none" stroke="midnightblue" d="M1404.29,-85.9346C1385.99,-91.2067 1366.3,-96.8805 1348.64,-101.968"/>
<polygon fill="midnightblue" stroke="midnightblue" points="1405.36,-89.2687 1414,-83.1367 1403.42,-82.5423 1405.36,-89.2687"/>
</g>
<!-- Node236 -->
<g id="node25" class="node"><title>Node236</title>
<g id="a_node25"><a xlink:href="structGCS__MAVLINK.html#af12f472c624f3c0735b082c982e7ec42" target="_top" xlink:title=" ">
<polygon fill="white" stroke="black" points="1229.9,-51 1229.9,-83 1354.1,-83 1354.1,-51 1229.9,-51"/>
<text text-anchor="start" x="1237.9" y="-69" font-family="Helvetica,sans-Serif" font-size="10.00">GCS_MAVLINK::set_ekf</text>
<text text-anchor="middle" x="1292" y="-57" font-family="Helvetica,sans-Serif" font-size="10.00">_origin</text>
</a>
</g>
</g>
<!-- Node218&#45;&gt;Node236 -->
<g id="edge25" class="edge"><title>Node218&#45;&gt;Node236</title>
<path fill="none" stroke="midnightblue" d="M1395.23,-67C1381.52,-67 1367.36,-67 1354.11,-67"/>
<polygon fill="midnightblue" stroke="midnightblue" points="1395.6,-70.5001 1405.6,-67 1395.6,-63.5001 1395.6,-70.5001"/>
</g>
<!-- Node239 -->
<g id="node28" class="node"><title>Node239</title>
<g id="a_node28"><a xlink:href="structGCS__MAVLINK.html#a256bd83477e0d72b40300bf1d7207750" target="_top" xlink:title=" ">
<polygon fill="white" stroke="black" points="1214.23,-0 1214.23,-32 1369.77,-32 1369.77,-0 1214.23,-0"/>
<text text-anchor="start" x="1222.23" y="-18" font-family="Helvetica,sans-Serif" font-size="10.00">GCS_MAVLINK::handle</text>
<text text-anchor="middle" x="1292" y="-6" font-family="Helvetica,sans-Serif" font-size="10.00">_command_get_home_position</text>
</a>
</g>
</g>
<!-- Node218&#45;&gt;Node239 -->
<g id="edge28" class="edge"><title>Node218&#45;&gt;Node239</title>
<path fill="none" stroke="midnightblue" d="M1404.29,-48.0654C1385.99,-42.7933 1366.3,-37.1195 1348.64,-32.0317"/>
<polygon fill="midnightblue" stroke="midnightblue" points="1403.42,-51.4577 1414,-50.8633 1405.36,-44.7313 1403.42,-51.4577"/>
</g>
<!-- Node220 -->
<g id="node9" class="node"><title>Node220</title>
<g id="a_node9"><a xlink:href="structGCS__MAVLINK.html#a97b3a94ebc165ee34ee93b26e2dee23d" target="_top" xlink:title=" ">
<polygon fill="white" stroke="black" points="1028.11,-108 1028.11,-128 1177.89,-128 1177.89,-108 1028.11,-108"/>
<text text-anchor="middle" x="1103" y="-114" font-family="Helvetica,sans-Serif" font-size="10.00">GCS_MAVLINK::update_send</text>
</a>
</g>
</g>
<!-- Node219&#45;&gt;Node220 -->
<g id="edge8" class="edge"><title>Node219&#45;&gt;Node220</title>
<path fill="none" stroke="midnightblue" d="M1221.87,-118C1207.6,-118 1192.52,-118 1178.09,-118"/>
<polygon fill="midnightblue" stroke="midnightblue" points="1222.09,-121.5 1232.09,-118 1222.09,-114.5 1222.09,-121.5"/>
</g>
<!-- Node221 -->
<g id="node10" class="node"><title>Node221</title>
<g id="a_node10"><a xlink:href="classGCS.html#a07a8ce284513a8ce8336b085d0b8aadf" target="_top" xlink:title=" ">
<polygon fill="white" stroke="black" points="880.471,-108 880.471,-128 981.529,-128 981.529,-108 880.471,-108"/>
<text text-anchor="middle" x="931" y="-114" font-family="Helvetica,sans-Serif" font-size="10.00">GCS::update_send</text>
</a>
</g>
</g>
<!-- Node220&#45;&gt;Node221 -->
<g id="edge9" class="edge"><title>Node220&#45;&gt;Node221</title>
<path fill="none" stroke="midnightblue" d="M1017.66,-118C1005.41,-118 993.139,-118 981.868,-118"/>
<polygon fill="midnightblue" stroke="midnightblue" points="1017.93,-121.5 1027.93,-118 1017.93,-114.5 1017.93,-121.5"/>
</g>
<!-- Node222 -->
<g id="node11" class="node"><title>Node222</title>
<g id="a_node11"><a xlink:href="classAP__BoardConfig.html#ab7d977aecbbe7090266bee755bf2cc32" target="_top" xlink:title=" ">
<polygon fill="white" stroke="black" points="707.968,-102 707.968,-134 834.032,-134 834.032,-102 707.968,-102"/>
<text text-anchor="start" x="715.968" y="-120" font-family="Helvetica,sans-Serif" font-size="10.00">AP_BoardConfig::sensor</text>
<text text-anchor="middle" x="771" y="-108" font-family="Helvetica,sans-Serif" font-size="10.00">_config_error</text>
</a>
</g>
</g>
<!-- Node221&#45;&gt;Node222 -->
<g id="edge10" class="edge"><title>Node221&#45;&gt;Node222</title>
<path fill="none" stroke="midnightblue" d="M870.262,-118C858.467,-118 846.062,-118 834.189,-118"/>
<polygon fill="midnightblue" stroke="midnightblue" points="870.441,-121.5 880.441,-118 870.441,-114.5 870.441,-121.5"/>
</g>
<!-- Node223 -->
<g id="node12" class="node"><title>Node223</title>
<g id="a_node12"><a xlink:href="classAP__InertialSensor.html#a8967734e82a4f472c6d8ddd8db656804" target="_top" xlink:title=" ">
<polygon fill="white" stroke="black" points="558.921,-147 558.921,-179 661.079,-179 661.079,-147 558.921,-147"/>
<text text-anchor="start" x="566.921" y="-165" font-family="Helvetica,sans-Serif" font-size="10.00">AP_InertialSensor::</text>
<text text-anchor="middle" x="610" y="-153" font-family="Helvetica,sans-Serif" font-size="10.00">detect_backends</text>
</a>
</g>
</g>
<!-- Node222&#45;&gt;Node223 -->
<g id="edge11" class="edge"><title>Node222&#45;&gt;Node223</title>
<path fill="none" stroke="midnightblue" d="M703.389,-136.852C689.278,-140.846 674.61,-144.997 661.228,-148.784"/>
<polygon fill="midnightblue" stroke="midnightblue" points="704.378,-140.21 713.046,-134.119 702.471,-133.475 704.378,-140.21"/>
</g>
<!-- Node233 -->
<g id="node22" class="node"><title>Node233</title>
<g id="a_node22"><a xlink:href="classAP__Baro.html#a942db790233528bfbb4d9a07c3454360" target="_top" xlink:title=" ">
<polygon fill="white" stroke="black" points="572.818,-108 572.818,-128 647.182,-128 647.182,-108 572.818,-108"/>
<text text-anchor="middle" x="610" y="-114" font-family="Helvetica,sans-Serif" font-size="10.00">AP_Baro::init</text>
</a>
</g>
</g>
<!-- Node222&#45;&gt;Node233 -->
<g id="edge22" class="edge"><title>Node222&#45;&gt;Node233</title>
<path fill="none" stroke="midnightblue" d="M697.493,-118C680.172,-118 662.404,-118 647.514,-118"/>
<polygon fill="midnightblue" stroke="midnightblue" points="697.615,-121.5 707.615,-118 697.615,-114.5 697.615,-121.5"/>
</g>
<!-- Node235 -->
<g id="node24" class="node"><title>Node235</title>
<g id="a_node24"><a xlink:href="classAP__Param.html#a0c15e6322af82416e599f89db54501e6" target="_top" xlink:title=" ">
<polygon fill="white" stroke="black" points="548.082,-57 548.082,-89 671.918,-89 671.918,-57 548.082,-57"/>
<text text-anchor="start" x="556.082" y="-75" font-family="Helvetica,sans-Serif" font-size="10.00">AP_Param::set_defaults</text>
<text text-anchor="middle" x="610" y="-63" font-family="Helvetica,sans-Serif" font-size="10.00">_from_table</text>
</a>
</g>
</g>
<!-- Node222&#45;&gt;Node235 -->
<g id="edge24" class="edge"><title>Node222&#45;&gt;Node235</title>
<path fill="none" stroke="midnightblue" d="M703.2,-99.0944C691.342,-95.7382 679.096,-92.2725 667.556,-89.0064"/>
<polygon fill="midnightblue" stroke="midnightblue" points="702.471,-102.525 713.046,-101.881 704.378,-95.7901 702.471,-102.525"/>
</g>
<!-- Node224 -->
<g id="node13" class="node"><title>Node224</title>
<g id="a_node13"><a xlink:href="classAP__InertialSensor.html#a9949b7e301b0d7a5f3e59385d2e8d97a" target="_top" xlink:title=" ">
<polygon fill="white" stroke="black" points="398.921,-173 398.921,-205 501.079,-205 501.079,-173 398.921,-173"/>
<text text-anchor="start" x="406.921" y="-191" font-family="Helvetica,sans-Serif" font-size="10.00">AP_InertialSensor::</text>
<text text-anchor="middle" x="450" y="-179" font-family="Helvetica,sans-Serif" font-size="10.00">_start_backends</text>
</a>
</g>
</g>
<!-- Node223&#45;&gt;Node224 -->
<g id="edge12" class="edge"><title>Node223&#45;&gt;Node224</title>
<path fill="none" stroke="midnightblue" d="M548.488,-172.958C532.876,-175.527 516.243,-178.264 501.219,-180.736"/>
<polygon fill="midnightblue" stroke="midnightblue" points="549.274,-176.375 558.573,-171.298 548.138,-169.468 549.274,-176.375"/>
</g>
<!-- Node229 -->
<g id="node18" class="node"><title>Node229</title>
<g id="a_node18"><a xlink:href="classAP__InertialSensor.html#ad649def5689aecaebca16cf910d77fd8" target="_top" xlink:title=" ">
<polygon fill="white" stroke="black" points="398.921,-122 398.921,-154 501.079,-154 501.079,-122 398.921,-122"/>
<text text-anchor="start" x="406.921" y="-140" font-family="Helvetica,sans-Serif" font-size="10.00">AP_InertialSensor::</text>
<text text-anchor="middle" x="450" y="-128" font-family="Helvetica,sans-Serif" font-size="10.00">get_auxiliary_bus</text>
</a>
</g>
</g>
<!-- Node223&#45;&gt;Node229 -->
<g id="edge17" class="edge"><title>Node223&#45;&gt;Node229</title>
<path fill="none" stroke="midnightblue" d="M548.488,-153.425C532.876,-150.955 516.243,-148.323 501.219,-145.946"/>
<polygon fill="midnightblue" stroke="midnightblue" points="548.149,-156.915 558.573,-155.021 549.243,-150.001 548.149,-156.915"/>
</g>
<!-- Node230 -->
<g id="node19" class="node"><title>Node230</title>
<g id="a_node19"><a xlink:href="classAP__Compass__AK8963.html#a0e8c9e0c82de409e0225fc81ed4ed6db" target="_top" xlink:title=" ">
<polygon fill="white" stroke="black" points="388.079,-224 388.079,-256 511.921,-256 511.921,-224 388.079,-224"/>
<text text-anchor="start" x="396.079" y="-242" font-family="Helvetica,sans-Serif" font-size="10.00">AP_Compass_AK8963::</text>
<text text-anchor="middle" x="450" y="-230" font-family="Helvetica,sans-Serif" font-size="10.00">probe_mpu9250</text>
</a>
</g>
</g>
<!-- Node223&#45;&gt;Node230 -->
<g id="edge18" class="edge"><title>Node223&#45;&gt;Node230</title>
<path fill="none" stroke="midnightblue" d="M571.105,-183.837C553.33,-193.374 531.757,-204.615 512,-214 504.929,-217.359 497.311,-220.768 489.934,-223.963"/>
<polygon fill="midnightblue" stroke="midnightblue" points="572.886,-186.853 580.024,-179.024 569.561,-180.693 572.886,-186.853"/>
</g>
<!-- Node225 -->
<g id="node14" class="node"><title>Node225</title>
<g id="a_node14"><a xlink:href="classAP__InertialSensor.html#a741065b13832b5e4c90bbae17519c0ad" target="_top" xlink:title=" ">
<polygon fill="white" stroke="black" points="221.53,-179 221.53,-199 336.47,-199 336.47,-179 221.53,-179"/>
<text text-anchor="middle" x="279" y="-185" font-family="Helvetica,sans-Serif" font-size="10.00">AP_InertialSensor::init</text>
</a>
</g>
</g>
<!-- Node224&#45;&gt;Node225 -->
<g id="edge13" class="edge"><title>Node224&#45;&gt;Node225</title>
<path fill="none" stroke="midnightblue" d="M388.434,-189C371.53,-189 353.233,-189 336.569,-189"/>
<polygon fill="midnightblue" stroke="midnightblue" points="388.752,-192.5 398.752,-189 388.752,-185.5 388.752,-192.5"/>
</g>
<!-- Node226 -->
<g id="node15" class="node"><title>Node226</title>
<g id="a_node15"><a xlink:href="AHRS__Test_8cpp.html#a4fc01d736fe50cf5b977f755b675f11d" target="_top" xlink:title=" ">
<polygon fill="white" stroke="black" points="-0.231445,-210 -0.231445,-230 40.2314,-230 40.2314,-210 -0.231445,-210"/>
<text text-anchor="middle" x="20" y="-216" font-family="Helvetica,sans-Serif" font-size="10.00">setup</text>
</a>
</g>
</g>
<!-- Node225&#45;&gt;Node226 -->
<g id="edge14" class="edge"><title>Node225&#45;&gt;Node226</title>
<path fill="none" stroke="midnightblue" d="M211.28,-197.048C154.401,-203.909 76.3296,-213.326 40.46,-217.653"/>
<polygon fill="midnightblue" stroke="midnightblue" points="211.773,-200.514 221.282,-195.841 210.935,-193.564 211.773,-200.514"/>
</g>
<!-- Node227 -->
<g id="node16" class="node"><title>Node227</title>
<g id="a_node16"><a xlink:href="classSchedTest.html#ae9afb73f76391e34d47286a516fe5292" target="_top" xlink:title=" ">
<polygon fill="white" stroke="black" points="76.6431,-152 76.6431,-172 169.357,-172 169.357,-152 76.6431,-152"/>
<text text-anchor="middle" x="123" y="-158" font-family="Helvetica,sans-Serif" font-size="10.00">SchedTest::setup</text>
</a>
</g>
</g>
<!-- Node225&#45;&gt;Node227 -->
<g id="edge15" class="edge"><title>Node225&#45;&gt;Node227</title>
<path fill="none" stroke="midnightblue" d="M211.02,-177.257C197.04,-174.806 182.611,-172.276 169.621,-169.998"/>
<polygon fill="midnightblue" stroke="midnightblue" points="210.639,-180.743 221.094,-179.023 211.848,-173.849 210.639,-180.743"/>
</g>
<!-- Node228 -->
<g id="node17" class="node"><title>Node228</title>
<g id="a_node17"><a xlink:href="Scheduler__test_8cpp.html#a7dfd9b79bc5a37d7df40207afbc5431f" target="_top" xlink:title=" ">
<polygon fill="white" stroke="black" points="-0.231445,-152 -0.231445,-172 40.2314,-172 40.2314,-152 -0.231445,-152"/>
<text text-anchor="middle" x="20" y="-158" font-family="Helvetica,sans-Serif" font-size="10.00">setup</text>
</a>
</g>
</g>
<!-- Node227&#45;&gt;Node228 -->
<g id="edge16" class="edge"><title>Node227&#45;&gt;Node228</title>
<path fill="none" stroke="midnightblue" d="M66.3961,-162C57.0922,-162 48.0218,-162 40.4654,-162"/>
<polygon fill="midnightblue" stroke="midnightblue" points="66.5229,-165.5 76.5229,-162 66.5228,-158.5 66.5229,-165.5"/>
</g>
<!-- Node231 -->
<g id="node20" class="node"><title>Node231</title>
<g id="a_node20"><a xlink:href="classCompass.html#a1c48170d8c8966b22fb150b1634443ec" target="_top" xlink:title=" ">
<polygon fill="white" stroke="black" points="206.518,-230 206.518,-250 351.482,-250 351.482,-230 206.518,-230"/>
<text text-anchor="middle" x="279" y="-236" font-family="Helvetica,sans-Serif" font-size="10.00">Compass::_detect_backends</text>
</a>
</g>
</g>
<!-- Node230&#45;&gt;Node231 -->
<g id="edge19" class="edge"><title>Node230&#45;&gt;Node231</title>
<path fill="none" stroke="midnightblue" d="M377.88,-240C369.175,-240 360.276,-240 351.564,-240"/>
<polygon fill="midnightblue" stroke="midnightblue" points="377.987,-243.5 387.987,-240 377.987,-236.5 377.987,-243.5"/>
</g>
<!-- Node232 -->
<g id="node21" class="node"><title>Node232</title>
<g id="a_node21"><a xlink:href="classCompass.html#a79db6bfd3fe309c6258d783f126326c6" target="_top" xlink:title=" ">
<polygon fill="white" stroke="black" points="84.7119,-230 84.7119,-250 161.288,-250 161.288,-230 84.7119,-230"/>
<text text-anchor="middle" x="123" y="-236" font-family="Helvetica,sans-Serif" font-size="10.00">Compass::init</text>
</a>
</g>
</g>
<!-- Node231&#45;&gt;Node232 -->
<g id="edge20" class="edge"><title>Node231&#45;&gt;Node232</title>
<path fill="none" stroke="midnightblue" d="M196.188,-240C184.032,-240 172.037,-240 161.42,-240"/>
<polygon fill="midnightblue" stroke="midnightblue" points="196.41,-243.5 206.41,-240 196.41,-236.5 196.41,-243.5"/>
</g>
<!-- Node232&#45;&gt;Node226 -->
<g id="edge21" class="edge"><title>Node232&#45;&gt;Node226</title>
<path fill="none" stroke="midnightblue" d="M74.6155,-230.617C62.4954,-228.217 50.1351,-225.769 40.3413,-223.83"/>
<polygon fill="midnightblue" stroke="midnightblue" points="74.1889,-234.1 84.6783,-232.61 75.5487,-227.234 74.1889,-234.1"/>
</g>
<!-- Node234 -->
<g id="node23" class="node"><title>Node234</title>
<g id="a_node23"><a xlink:href="BARO__generic_8cpp.html#a4fc01d736fe50cf5b977f755b675f11d" target="_top" xlink:title=" ">
<polygon fill="white" stroke="black" points="429.769,-83 429.769,-103 470.231,-103 470.231,-83 429.769,-83"/>
<text text-anchor="middle" x="450" y="-89" font-family="Helvetica,sans-Serif" font-size="10.00">setup</text>
</a>
</g>
</g>
<!-- Node233&#45;&gt;Node234 -->
<g id="edge23" class="edge"><title>Node233&#45;&gt;Node234</title>
<path fill="none" stroke="midnightblue" d="M562.659,-110.668C531.89,-105.799 493.098,-99.6611 470.276,-96.0501"/>
<polygon fill="midnightblue" stroke="midnightblue" points="562.327,-114.159 572.752,-112.264 563.422,-107.245 562.327,-114.159"/>
</g>
<!-- Node237 -->
<g id="node26" class="node"><title>Node237</title>
<g id="a_node26"><a xlink:href="structGCS__MAVLINK.html#ad02c83895334e008e3c2f454a616893e" target="_top" xlink:title=" ">
<polygon fill="white" stroke="black" points="870.009,-51 870.009,-83 991.991,-83 991.991,-51 870.009,-51"/>
<text text-anchor="start" x="878.009" y="-69" font-family="Helvetica,sans-Serif" font-size="10.00">GCS_MAVLINK::handle</text>
<text text-anchor="middle" x="931" y="-57" font-family="Helvetica,sans-Serif" font-size="10.00">_set_gps_global_origin</text>
</a>
</g>
</g>
<!-- Node236&#45;&gt;Node237 -->
<g id="edge26" class="edge"><title>Node236&#45;&gt;Node237</title>
<path fill="none" stroke="midnightblue" d="M1219.29,-67C1152.72,-67 1054.74,-67 992.156,-67"/>
<polygon fill="midnightblue" stroke="midnightblue" points="1219.69,-70.5001 1229.69,-67 1219.69,-63.5001 1219.69,-70.5001"/>
</g>
<!-- Node238 -->
<g id="node27" class="node"><title>Node238</title>
<g id="a_node27"><a xlink:href="structGCS__MAVLINK.html#a13da94a2548ade6552a5250eb3251e89" target="_top" xlink:title=" ">
<polygon fill="white" stroke="black" points="710.009,-26 710.009,-58 831.991,-58 831.991,-26 710.009,-26"/>
<text text-anchor="start" x="718.009" y="-44" font-family="Helvetica,sans-Serif" font-size="10.00">GCS_MAVLINK::handle</text>
<text text-anchor="middle" x="771" y="-32" font-family="Helvetica,sans-Serif" font-size="10.00">_common_message</text>
</a>
</g>
</g>
<!-- Node237&#45;&gt;Node238 -->
<g id="edge27" class="edge"><title>Node237&#45;&gt;Node238</title>
<path fill="none" stroke="midnightblue" d="M859.834,-55.8978C850.553,-54.4292 841.106,-52.9345 832.016,-51.4963"/>
<polygon fill="midnightblue" stroke="midnightblue" points="859.392,-59.3713 869.816,-57.4773 860.486,-52.4573 859.392,-59.3713"/>
</g>
<!-- Node240 -->
<g id="node29" class="node"><title>Node240</title>
<g id="a_node29"><a xlink:href="structGCS__MAVLINK.html#a29e2941413d50ab63cd70f5beadef19a" target="_top" xlink:title=" ">
<polygon fill="white" stroke="black" points="1040.52,-0 1040.52,-32 1165.48,-32 1165.48,-0 1040.52,-0"/>
<text text-anchor="start" x="1048.52" y="-18" font-family="Helvetica,sans-Serif" font-size="10.00">GCS_MAVLINK::handle</text>
<text text-anchor="middle" x="1103" y="-6" font-family="Helvetica,sans-Serif" font-size="10.00">_command_long_packet</text>
</a>
</g>
</g>
<!-- Node239&#45;&gt;Node240 -->
<g id="edge29" class="edge"><title>Node239&#45;&gt;Node240</title>
<path fill="none" stroke="midnightblue" d="M1203.86,-16C1190.98,-16 1177.95,-16 1165.73,-16"/>
<polygon fill="midnightblue" stroke="midnightblue" points="1204.13,-19.5001 1214.13,-16 1204.13,-12.5001 1204.13,-19.5001"/>
</g>
<!-- Node241 -->
<g id="node30" class="node"><title>Node241</title>
<g id="a_node30"><a xlink:href="structGCS__MAVLINK.html#abc79cdd8393234b66f2e8217a527f8f9" target="_top" xlink:title=" ">
<polygon fill="white" stroke="black" points="870.009,-0 870.009,-32 991.991,-32 991.991,-0 870.009,-0"/>
<text text-anchor="start" x="878.009" y="-18" font-family="Helvetica,sans-Serif" font-size="10.00">GCS_MAVLINK::handle</text>
<text text-anchor="middle" x="931" y="-6" font-family="Helvetica,sans-Serif" font-size="10.00">_command_long</text>
</a>
</g>
</g>
<!-- Node240&#45;&gt;Node241 -->
<g id="edge30" class="edge"><title>Node240&#45;&gt;Node241</title>
<path fill="none" stroke="midnightblue" d="M1030.1,-16C1017.45,-16 1004.4,-16 992.105,-16"/>
<polygon fill="midnightblue" stroke="midnightblue" points="1030.15,-19.5001 1040.15,-16 1030.15,-12.5001 1030.15,-19.5001"/>
</g>
<!-- Node241&#45;&gt;Node238 -->
<g id="edge31" class="edge"><title>Node241&#45;&gt;Node238</title>
<path fill="none" stroke="midnightblue" d="M859.834,-27.5463C850.553,-29.0736 841.106,-30.6281 832.016,-32.1239"/>
<polygon fill="midnightblue" stroke="midnightblue" points="860.517,-30.981 869.816,-25.9037 859.381,-24.0739 860.517,-30.981"/>
</g>
<!-- Node242&#45;&gt;Node218 -->
<g id="edge33" class="edge"><title>Node242&#45;&gt;Node218</title>
<path fill="none" stroke="midnightblue" d="M1569.22,-52.7032C1558.26,-54.3146 1547.03,-55.9666 1536.27,-57.5491"/>
<polygon fill="midnightblue" stroke="midnightblue" points="1569.8,-56.1558 1579.18,-51.238 1568.78,-49.2303 1569.8,-56.1558"/>
</g>
</g>
</svg>
