<?xml version="1.0" encoding="UTF-8" standalone="no"?>
<!DOCTYPE svg PUBLIC "-//W3C//DTD SVG 1.1//EN"
 "http://www.w3.org/Graphics/SVG/1.1/DTD/svg11.dtd">
<!-- Generated by graphviz version 2.30.1 (20130221.2233)
 -->
<!-- Title: AP_BattMonitor::has_consumed_energy Pages: 1 -->
<svg width="302pt" height="91pt"
 viewBox="0.00 0.00 302.00 91.00" xmlns="http://www.w3.org/2000/svg" xmlns:xlink="http://www.w3.org/1999/xlink">
<g id="graph0" class="graph" transform="scale(1 1) rotate(0) translate(4 87)">
<title>AP_BattMonitor::has_consumed_energy</title>
<polygon fill="white" stroke="white" points="-4,5 -4,-87 299,-87 299,5 -4,5"/>
<!-- Node528 -->
<g id="node1" class="node"><title>Node528</title>
<g id="a_node1"><a xlink:title="has_consumed_energy &#45; returns true if battery monitor instance provides consumed energy info">
<polygon fill="#bfbfbf" stroke="black" points="186.143,-25 186.143,-57 293.857,-57 293.857,-25 186.143,-25"/>
<text text-anchor="start" x="194.143" y="-43" font-family="Helvetica,sans-Serif" font-size="10.00">AP_BattMonitor::has</text>
<text text-anchor="middle" x="240" y="-31" font-family="Helvetica,sans-Serif" font-size="10.00">_consumed_energy</text>
</a>
</g>
</g>
<!-- Node529 -->
<g id="node2" class="node"><title>Node529</title>
<g id="a_node2"><a xlink:href="lua__generated__bindings_8cpp.html#ac5846cefc5b5f67bb94db358b5f2c6e1" target="_top" xlink:title=" ">
<polygon fill="white" stroke="black" points="21.1406,-51 21.1406,-83 128.859,-83 128.859,-51 21.1406,-51"/>
<text text-anchor="start" x="29.1406" y="-69" font-family="Helvetica,sans-Serif" font-size="10.00">AP_BattMonitor_has</text>
<text text-anchor="middle" x="75" y="-57" font-family="Helvetica,sans-Serif" font-size="10.00">_consumed_energy</text>
</a>
</g>
</g>
<!-- Node528&#45;&gt;Node529 -->
<g id="edge1" class="edge"><title>Node528&#45;&gt;Node529</title>
<path fill="none" stroke="midnightblue" d="M176.019,-51.0461C160.463,-53.5273 143.958,-56.1601 128.935,-58.5564"/>
<polygon fill="midnightblue" stroke="midnightblue" points="176.755,-54.473 186.079,-49.4415 175.652,-47.5604 176.755,-54.473"/>
</g>
<!-- Node530 -->
<g id="node3" class="node"><title>Node530</title>
<g id="a_node3"><a xlink:href="structGCS__MAVLINK.html#af61ae80fb30fc8bb0fbf7ede1e47dfb0" target="_top" xlink:title=" ">
<polygon fill="white" stroke="black" points="0.115234,-0 0.115234,-32 149.885,-32 149.885,-0 0.115234,-0"/>
<text text-anchor="start" x="8.11523" y="-18" font-family="Helvetica,sans-Serif" font-size="10.00">GCS_MAVLINK::send_battery</text>
<text text-anchor="middle" x="75" y="-6" font-family="Helvetica,sans-Serif" font-size="10.00">_status</text>
</a>
</g>
</g>
<!-- Node528&#45;&gt;Node530 -->
<g id="edge2" class="edge"><title>Node528&#45;&gt;Node530</title>
<path fill="none" stroke="midnightblue" d="M176.17,-31.3635C167.594,-30.0482 158.727,-28.6883 149.977,-27.3462"/>
<polygon fill="midnightblue" stroke="midnightblue" points="175.664,-34.8267 186.079,-32.8832 176.725,-27.9076 175.664,-34.8267"/>
</g>
</g>
</svg>
