<?xml version="1.0" encoding="UTF-8" standalone="no"?>
<!DOCTYPE svg PUBLIC "-//W3C//DTD SVG 1.1//EN"
 "http://www.w3.org/Graphics/SVG/1.1/DTD/svg11.dtd">
<!-- Generated by graphviz version 2.30.1 (20130221.2233)
 -->
<!-- Title: ToshibaLED_I2C::hw_init Pages: 1 -->
<!--zoomable 322 -->
<svg id="main" version="1.1" xmlns="http://www.w3.org/2000/svg" xmlns:xlink="http://www.w3.org/1999/xlink" xml:space="preserve" onload="init(evt)">
<style type="text/css"><![CDATA[
.edge:hover path { stroke: red; }
.edge:hover polygon { stroke: red; fill: red; }
]]></style>
<script type="text/javascript"><![CDATA[
var edges = document.getElementsByTagName('g');
if (edges && edges.length) {
  for (var i=0;i<edges.length;i++) {
    if (edges[i].id.substr(0,4)=='edge') {
      edges[i].setAttribute('class','edge');
    }
  }
}
]]></script>
        <defs>
                <circle id="rim" cx="0" cy="0" r="7"/>
                <circle id="rim2" cx="0" cy="0" r="3.5"/>
                <g id="zoomPlus">
                        <use xlink:href="#rim" fill="#404040">
                                <set attributeName="fill" to="#808080" begin="zoomplus.mouseover" end="zoomplus.mouseout"/>
                        </use>
                        <path d="M-4,0h8M0,-4v8" fill="none" stroke="white" stroke-width="1.5" pointer-events="none"/>
                </g>
                <g id="zoomMin">
                        <use xlink:href="#rim" fill="#404040">
                                <set attributeName="fill" to="#808080" begin="zoomminus.mouseover" end="zoomminus.mouseout"/>
                        </use>
                        <path d="M-4,0h8" fill="none" stroke="white" stroke-width="1.5" pointer-events="none"/>
                </g>
                <g id="dirArrow">
                        <path fill="none" stroke="white" stroke-width="1.5" d="M0,-3.0v7 M-2.5,-0.5L0,-3.0L2.5,-0.5"/>
                </g>
               <g id="resetDef">
                       <use xlink:href="#rim2" fill="#404040">
                               <set attributeName="fill" to="#808080" begin="reset.mouseover" end="reset.mouseout"/>
                       </use>
               </g>
        </defs>

<script type="text/javascript">
var viewWidth = 558;
var viewHeight = 322;
var sectionId = 'dynsection-4';
</script>
<script xlink:href="svgpan.js"/>
<svg id="graph" class="graph">
<g id="viewport">
<title>ToshibaLED_I2C::hw_init</title>
<polygon fill="white" stroke="white" points="-4,5 -4,-318 555,-318 555,5 -4,5"/>
<!-- Node6 -->
<g id="node1" class="node"><title>Node6</title>
<g id="a_node1"><a xlink:title=" ">
<polygon fill="#bfbfbf" stroke="black" points="0.135742,-135 0.135742,-155 127.864,-155 127.864,-135 0.135742,-135"/>
<text text-anchor="middle" x="64" y="-141" font-family="Helvetica,sans-Serif" font-size="10.00">ToshibaLED_I2C::hw_init</text>
</a>
</g>
</g>
<!-- Node7 -->
<g id="node2" class="node"><title>Node7</title>
<g id="a_node2"><a xlink:href="classAP__HAL_1_1I2CDeviceManager.html#a8153774ecb8d07a14cb0eeac74ce6211" target="_top" xlink:title=" ">
<polygon fill="white" stroke="black" points="164.247,-282 164.247,-314 309.753,-314 309.753,-282 164.247,-282"/>
<text text-anchor="start" x="172.247" y="-300" font-family="Helvetica,sans-Serif" font-size="10.00">AP_HAL::I2CDeviceManager</text>
<text text-anchor="middle" x="237" y="-288" font-family="Helvetica,sans-Serif" font-size="10.00">::get_device</text>
</a>
</g>
</g>
<!-- Node6&#45;&gt;Node7 -->
<g id="edge1" class="edge"><title>Node6&#45;&gt;Node7</title>
<path fill="none" stroke="midnightblue" d="M70.255,-155.142C83.0766,-178.938 118.29,-238.84 164,-272 166.636,-273.912 169.426,-275.696 172.318,-277.359"/>
<polygon fill="midnightblue" stroke="midnightblue" points="170.755,-280.492 181.243,-281.994 173.981,-274.279 170.755,-280.492"/>
</g>
<!-- Node8 -->
<g id="node3" class="node"><title>Node8</title>
<g id="a_node3"><a xlink:href="classAP__HAL_1_1I2CDevice.html#aecaa17329f98d50d437e53507b1e5c77" target="_top" xlink:title=" ">
<polygon fill="white" stroke="black" points="181.202,-231 181.202,-263 292.798,-263 292.798,-231 181.202,-231"/>
<text text-anchor="start" x="189.202" y="-249" font-family="Helvetica,sans-Serif" font-size="10.00">AP_HAL::I2CDevice::</text>
<text text-anchor="middle" x="237" y="-237" font-family="Helvetica,sans-Serif" font-size="10.00">get_semaphore</text>
</a>
</g>
</g>
<!-- Node6&#45;&gt;Node8 -->
<g id="edge2" class="edge"><title>Node6&#45;&gt;Node8</title>
<path fill="none" stroke="midnightblue" d="M75.7881,-155.112C93.1822,-170.974 129.024,-201.864 164,-221 167.738,-223.045 171.669,-224.986 175.687,-226.816"/>
<polygon fill="midnightblue" stroke="midnightblue" points="174.596,-230.157 185.166,-230.884 177.357,-223.724 174.596,-230.157"/>
</g>
<!-- Node9 -->
<g id="node4" class="node"><title>Node9</title>
<g id="a_node4"><a xlink:href="classAP__HAL_1_1Device.html#a871deca702e85b91191788a3415b50ca" target="_top" xlink:title=" ">
<polygon fill="white" stroke="black" points="182.313,-180 182.313,-212 291.687,-212 291.687,-180 182.313,-180"/>
<text text-anchor="start" x="190.313" y="-198" font-family="Helvetica,sans-Serif" font-size="10.00">AP_HAL::Device::set</text>
<text text-anchor="middle" x="237" y="-186" font-family="Helvetica,sans-Serif" font-size="10.00">_retries</text>
</a>
</g>
</g>
<!-- Node6&#45;&gt;Node9 -->
<g id="edge3" class="edge"><title>Node6&#45;&gt;Node9</title>
<path fill="none" stroke="midnightblue" d="M98.7841,-155.076C119.75,-161.329 147.362,-169.564 172.317,-177.007"/>
<polygon fill="midnightblue" stroke="midnightblue" points="171.509,-180.418 182.093,-179.922 173.51,-173.71 171.509,-180.418"/>
</g>
<!-- Node10 -->
<g id="node5" class="node"><title>Node10</title>
<g id="a_node5"><a xlink:href="classAP__HAL_1_1Device.html#a450d2427d58c09d75c8268f8b808c37b" target="_top" xlink:title=" ">
<polygon fill="white" stroke="black" points="178.426,-129 178.426,-161 295.574,-161 295.574,-129 178.426,-129"/>
<text text-anchor="start" x="186.426" y="-147" font-family="Helvetica,sans-Serif" font-size="10.00">AP_HAL::Device::write</text>
<text text-anchor="middle" x="237" y="-135" font-family="Helvetica,sans-Serif" font-size="10.00">_register</text>
</a>
</g>
</g>
<!-- Node6&#45;&gt;Node10 -->
<g id="edge4" class="edge"><title>Node6&#45;&gt;Node10</title>
<path fill="none" stroke="midnightblue" d="M128.188,-145C141.1,-145 154.743,-145 167.821,-145"/>
<polygon fill="midnightblue" stroke="midnightblue" points="168.163,-148.5 178.163,-145 168.163,-141.5 168.163,-148.5"/>
</g>
<!-- Node14 -->
<g id="node9" class="node"><title>Node14</title>
<g id="a_node9"><a xlink:href="classAP__HAL_1_1I2CDevice.html#a2e581ddc9b02eb73ad2fdf488fe8dc86" target="_top" xlink:title=" ">
<polygon fill="white" stroke="black" points="355.202,-39 355.202,-71 466.798,-71 466.798,-39 355.202,-39"/>
<text text-anchor="start" x="363.202" y="-57" font-family="Helvetica,sans-Serif" font-size="10.00">AP_HAL::I2CDevice::</text>
<text text-anchor="middle" x="411" y="-45" font-family="Helvetica,sans-Serif" font-size="10.00">transfer</text>
</a>
</g>
</g>
<!-- Node6&#45;&gt;Node14 -->
<g id="edge8" class="edge"><title>Node6&#45;&gt;Node14</title>
<path fill="none" stroke="midnightblue" d="M103.572,-134.938C162.097,-119.67 274.03,-90.4705 345.198,-71.905"/>
<polygon fill="midnightblue" stroke="midnightblue" points="346.167,-75.2694 354.959,-69.3584 344.4,-68.4961 346.167,-75.2694"/>
</g>
<!-- Node15 -->
<g id="node10" class="node"><title>Node15</title>
<g id="a_node10"><a xlink:href="classAP__HAL_1_1I2CDevice.html#a5d6a208d57d47068884af3a4fb90f1a2" target="_top" xlink:title=" ">
<polygon fill="white" stroke="black" points="171.192,-39 171.192,-71 302.808,-71 302.808,-39 171.192,-39"/>
<text text-anchor="start" x="179.192" y="-57" font-family="Helvetica,sans-Serif" font-size="10.00">AP_HAL::I2CDevice::</text>
<text text-anchor="middle" x="237" y="-45" font-family="Helvetica,sans-Serif" font-size="10.00">register_periodic_callback</text>
</a>
</g>
</g>
<!-- Node6&#45;&gt;Node15 -->
<g id="edge9" class="edge"><title>Node6&#45;&gt;Node15</title>
<path fill="none" stroke="midnightblue" d="M80.4165,-134.951C99.5919,-122.655 133.527,-101.556 164,-86 171.239,-82.3047 179.018,-78.6465 186.692,-75.2092"/>
<polygon fill="midnightblue" stroke="midnightblue" points="188.21,-78.3653 195.957,-71.1383 185.394,-71.9567 188.21,-78.3653"/>
</g>
<!-- Node16 -->
<g id="node11" class="node"><title>Node16</title>
<g id="a_node11"><a xlink:href="classToshibaLED__I2C.html#ac6ef8261fdfea20117f3dfb1a040efd3" target="_top" xlink:title=" ">
<polygon fill="white" stroke="black" points="174.808,-0 174.808,-20 299.192,-20 299.192,-0 174.808,-0"/>
<text text-anchor="middle" x="237" y="-6" font-family="Helvetica,sans-Serif" font-size="10.00">ToshibaLED_I2C::_timer</text>
</a>
</g>
</g>
<!-- Node6&#45;&gt;Node16 -->
<g id="edge10" class="edge"><title>Node6&#45;&gt;Node16</title>
<path fill="none" stroke="midnightblue" d="M70.7036,-134.821C83.9614,-112.129 119.168,-57.1793 164,-29 166.991,-27.1199 170.164,-25.4247 173.446,-23.8963"/>
<polygon fill="midnightblue" stroke="midnightblue" points="174.995,-27.044 182.923,-20.0157 172.343,-20.566 174.995,-27.044"/>
</g>
<!-- Node11 -->
<g id="node6" class="node"><title>Node11</title>
<g id="a_node6"><a xlink:href="classAP__HAL_1_1Device.html#a44b62acec2c1c5d8bf8b9c07f5fe7192" target="_top" xlink:title=" ">
<polygon fill="white" stroke="black" points="356.313,-151 356.313,-183 465.687,-183 465.687,-151 356.313,-151"/>
<text text-anchor="start" x="364.313" y="-169" font-family="Helvetica,sans-Serif" font-size="10.00">AP_HAL::Device::set</text>
<text text-anchor="middle" x="411" y="-157" font-family="Helvetica,sans-Serif" font-size="10.00">_checked_register</text>
</a>
</g>
</g>
<!-- Node10&#45;&gt;Node11 -->
<g id="edge5" class="edge"><title>Node10&#45;&gt;Node11</title>
<path fill="none" stroke="midnightblue" d="M295.752,-152.387C311.916,-154.454 329.577,-156.713 346.076,-158.824"/>
<polygon fill="midnightblue" stroke="midnightblue" points="345.812,-162.318 356.175,-160.115 346.7,-155.375 345.812,-162.318"/>
</g>
<!-- Node13 -->
<g id="node8" class="node"><title>Node13</title>
<g id="a_node8"><a xlink:href="classAP__HAL_1_1Device.html#a2af24b5f93b678af718b65a606e538b0" target="_top" xlink:title=" ">
<polygon fill="white" stroke="black" points="346.032,-112 346.032,-132 475.968,-132 475.968,-112 346.032,-112"/>
<text text-anchor="middle" x="411" y="-118" font-family="Helvetica,sans-Serif" font-size="10.00">AP_HAL::Device::transfer</text>
</a>
</g>
</g>
<!-- Node10&#45;&gt;Node13 -->
<g id="edge7" class="edge"><title>Node10&#45;&gt;Node13</title>
<path fill="none" stroke="midnightblue" d="M295.752,-137.277C308.584,-135.561 322.36,-133.719 335.749,-131.929"/>
<polygon fill="midnightblue" stroke="midnightblue" points="336.442,-135.368 345.89,-130.573 335.514,-128.429 336.442,-135.368"/>
</g>
<!-- Node12 -->
<g id="node7" class="node"><title>Node12</title>
<g id="a_node7"><a xlink:href="stdio_8h.html#a55f3d956bb2ba20b5059e9e25484a47f" target="_top" xlink:title=" ">
<polygon fill="white" stroke="black" points="511.884,-157 511.884,-177 550.116,-177 550.116,-157 511.884,-157"/>
<text text-anchor="middle" x="531" y="-163" font-family="Helvetica,sans-Serif" font-size="10.00">printf</text>
</a>
</g>
</g>
<!-- Node11&#45;&gt;Node12 -->
<g id="edge6" class="edge"><title>Node11&#45;&gt;Node12</title>
<path fill="none" stroke="midnightblue" d="M465.82,-167C478.22,-167 490.928,-167 501.729,-167"/>
<polygon fill="midnightblue" stroke="midnightblue" points="501.813,-170.5 511.813,-167 501.813,-163.5 501.813,-170.5"/>
</g>
<!-- Node16&#45;&gt;Node14 -->
<g id="edge11" class="edge"><title>Node16&#45;&gt;Node14</title>
<path fill="none" stroke="midnightblue" d="M276.6,-20.0989C296.793,-25.3819 322.056,-31.9915 345.15,-38.0334"/>
<polygon fill="midnightblue" stroke="midnightblue" points="344.333,-41.4374 354.893,-40.5826 346.105,-34.6654 344.333,-41.4374"/>
</g>
</g>
</svg>
        <g id="navigator" transform="translate(0 0)" fill="#404254">
                <rect fill="#f2f5e9" fill-opacity="0.5" stroke="#606060" stroke-width=".5" x="0" y="0" width="60" height="60"/>
                <use id="zoomplus" xlink:href="#zoomPlus" x="17" y="9" onmousedown="handleZoom(evt,'in')"/>
                <use id="zoomminus" xlink:href="#zoomMin" x="42" y="9" onmousedown="handleZoom(evt,'out')"/>
                <use id="reset" xlink:href="#resetDef" x="30" y="36" onmousedown="handleReset()"/>
                <g id="arrowUp" xlink:href="#dirArrow" transform="translate(30 24)" onmousedown="handlePan(0,-1)">
                  <use xlink:href="#rim" fill="#404040">
                        <set attributeName="fill" to="#808080" begin="arrowUp.mouseover" end="arrowUp.mouseout"/>
                  </use>
                  <path fill="none" stroke="white" stroke-width="1.5" d="M0,-3.0v7 M-2.5,-0.5L0,-3.0L2.5,-0.5"/>
                </g>
                <g id="arrowRight" xlink:href="#dirArrow" transform="rotate(90) translate(36 -43)" onmousedown="handlePan(1,0)">
                  <use xlink:href="#rim" fill="#404040">
                        <set attributeName="fill" to="#808080" begin="arrowRight.mouseover" end="arrowRight.mouseout"/>
                  </use>
                  <path fill="none" stroke="white" stroke-width="1.5" d="M0,-3.0v7 M-2.5,-0.5L0,-3.0L2.5,-0.5"/>
                </g>
                <g id="arrowDown" xlink:href="#dirArrow" transform="rotate(180) translate(-30 -48)" onmousedown="handlePan(0,1)">
                  <use xlink:href="#rim" fill="#404040">
                        <set attributeName="fill" to="#808080" begin="arrowDown.mouseover" end="arrowDown.mouseout"/>
                  </use>
                  <path fill="none" stroke="white" stroke-width="1.5" d="M0,-3.0v7 M-2.5,-0.5L0,-3.0L2.5,-0.5"/>
                </g>
                <g id="arrowLeft" xlink:href="#dirArrow" transform="rotate(270) translate(-36 17)" onmousedown="handlePan(-1,0)">
                  <use xlink:href="#rim" fill="#404040">
                        <set attributeName="fill" to="#808080" begin="arrowLeft.mouseover" end="arrowLeft.mouseout"/>
                  </use>
                  <path fill="none" stroke="white" stroke-width="1.5" d="M0,-3.0v7 M-2.5,-0.5L0,-3.0L2.5,-0.5"/>
                </g>
        </g>
        <svg viewBox="0 0 15 15" width="100%" height="30px" preserveAspectRatio="xMaxYMin meet">
         <g id="arrow_out" transform="scale(0.3 0.3)">
          <a xlink:href="classToshibaLED__I2C_a2a0b0dbdd212e2723be9845ecb737bd6_cgraph_org.svg" target="_base">
           <rect id="button" ry="5" rx="5" y="6" x="6" height="38" width="38"
                fill="#f2f5e9" fill-opacity="0.5" stroke="#606060" stroke-width="1.0"/>
           <path id="arrow"
             d="M 11.500037,31.436501 C 11.940474,20.09759 22.043105,11.32322 32.158766,21.979434 L 37.068811,17.246167 C 37.068811,17.246167 37.088388,32 37.088388,32 L 22.160133,31.978069 C 22.160133,31.978069 26.997745,27.140456 26.997745,27.140456 C 18.528582,18.264221 13.291696,25.230495 11.500037,31.436501 z"
             style="fill:#404040;"/>
          </a>
         </g>
        </svg>
</svg>
