<?xml version="1.0" encoding="UTF-8" standalone="no"?>
<!DOCTYPE svg PUBLIC "-//W3C//DTD SVG 1.1//EN"
 "http://www.w3.org/Graphics/SVG/1.1/DTD/svg11.dtd">
<!-- Generated by graphviz version 2.30.1 (20130221.2233)
 -->
<!-- Title: Linux::RCInput_RPI::map_peripheral Pages: 1 -->
<!--zoomable 421 -->
<svg id="main" version="1.1" xmlns="http://www.w3.org/2000/svg" xmlns:xlink="http://www.w3.org/1999/xlink" xml:space="preserve" onload="init(evt)">
<style type="text/css"><![CDATA[
.edge:hover path { stroke: red; }
.edge:hover polygon { stroke: red; fill: red; }
]]></style>
<script type="text/javascript"><![CDATA[
var edges = document.getElementsByTagName('g');
if (edges && edges.length) {
  for (var i=0;i<edges.length;i++) {
    if (edges[i].id.substr(0,4)=='edge') {
      edges[i].setAttribute('class','edge');
    }
  }
}
]]></script>
        <defs>
                <circle id="rim" cx="0" cy="0" r="7"/>
                <circle id="rim2" cx="0" cy="0" r="3.5"/>
                <g id="zoomPlus">
                        <use xlink:href="#rim" fill="#404040">
                                <set attributeName="fill" to="#808080" begin="zoomplus.mouseover" end="zoomplus.mouseout"/>
                        </use>
                        <path d="M-4,0h8M0,-4v8" fill="none" stroke="white" stroke-width="1.5" pointer-events="none"/>
                </g>
                <g id="zoomMin">
                        <use xlink:href="#rim" fill="#404040">
                                <set attributeName="fill" to="#808080" begin="zoomminus.mouseover" end="zoomminus.mouseout"/>
                        </use>
                        <path d="M-4,0h8" fill="none" stroke="white" stroke-width="1.5" pointer-events="none"/>
                </g>
                <g id="dirArrow">
                        <path fill="none" stroke="white" stroke-width="1.5" d="M0,-3.0v7 M-2.5,-0.5L0,-3.0L2.5,-0.5"/>
                </g>
               <g id="resetDef">
                       <use xlink:href="#rim2" fill="#404040">
                               <set attributeName="fill" to="#808080" begin="reset.mouseover" end="reset.mouseout"/>
                       </use>
               </g>
        </defs>

<script type="text/javascript">
var viewWidth = 642;
var viewHeight = 421;
var sectionId = 'dynsection-13';
</script>
<script xlink:href="svgpan.js"/>
<svg id="graph" class="graph">
<g id="viewport">
<title>Linux::RCInput_RPI::map_peripheral</title>
<polygon fill="white" stroke="white" points="-4,5 -4,-417.055 639,-417.055 639,5 -4,5"/>
<!-- Node131 -->
<g id="node1" class="node"><title>Node131</title>
<g id="a_node1"><a xlink:title=" ">
<polygon fill="#bfbfbf" stroke="black" points="-0.189453,-135.055 -0.189453,-167.055 104.189,-167.055 104.189,-135.055 -0.189453,-135.055"/>
<text text-anchor="start" x="7.81055" y="-153.055" font-family="Helvetica,sans-Serif" font-size="10.00">Linux::RCInput_RPI</text>
<text text-anchor="middle" x="52" y="-141.055" font-family="Helvetica,sans-Serif" font-size="10.00">::map_peripheral</text>
</a>
</g>
</g>
<!-- Node132 -->
<g id="node2" class="node"><title>Node132</title>
<g id="a_node2"><a xlink:href="posix_8c.html#adcb60598073f6f9cbb0091ef6768fa5c" target="_top" xlink:title="POSIX Open a file with integer mode flags.">
<polygon fill="white" stroke="black" points="140.877,-199.055 140.877,-219.055 179.123,-219.055 179.123,-199.055 140.877,-199.055"/>
<text text-anchor="middle" x="160" y="-205.055" font-family="Helvetica,sans-Serif" font-size="10.00">open</text>
</a>
</g>
</g>
<!-- Node131&#45;&gt;Node132 -->
<g id="edge1" class="edge"><title>Node131&#45;&gt;Node132</title>
<path fill="none" stroke="midnightblue" d="M82.2456,-167.057C97.7743,-175.554 116.733,-185.928 131.923,-194.239"/>
<polygon fill="midnightblue" stroke="midnightblue" points="130.377,-197.383 140.83,-199.113 133.737,-191.242 130.377,-197.383"/>
</g>
<!-- Node146 -->
<g id="node16" class="node"><title>Node146</title>
<g id="a_node16"><a xlink:href="stdio_8h.html#a55f3d956bb2ba20b5059e9e25484a47f" target="_top" xlink:title=" ">
<polygon fill="white" stroke="black" points="140.884,-102.055 140.884,-122.055 179.116,-122.055 179.116,-102.055 140.884,-102.055"/>
<text text-anchor="middle" x="160" y="-108.055" font-family="Helvetica,sans-Serif" font-size="10.00">printf</text>
</a>
</g>
</g>
<!-- Node131&#45;&gt;Node146 -->
<g id="edge26" class="edge"><title>Node131&#45;&gt;Node146</title>
<path fill="none" stroke="midnightblue" d="M96.7262,-134.967C108.395,-130.674 120.683,-126.153 131.231,-122.272"/>
<polygon fill="midnightblue" stroke="midnightblue" points="132.558,-125.513 140.735,-118.775 130.141,-118.944 132.558,-125.513"/>
</g>
<!-- Node147 -->
<g id="node17" class="node"><title>Node147</title>
<g id="a_node17"><a xlink:href="posix_8c.html#a8877deace0c63591fee0cc9c94d249d3" target="_top" xlink:title="POSIX Close a file with fileno handel.">
<polygon fill="white" stroke="black" points="140.328,-141.055 140.328,-161.055 179.672,-161.055 179.672,-141.055 140.328,-141.055"/>
<text text-anchor="middle" x="160" y="-147.055" font-family="Helvetica,sans-Serif" font-size="10.00">close</text>
</a>
</g>
</g>
<!-- Node131&#45;&gt;Node147 -->
<g id="edge27" class="edge"><title>Node131&#45;&gt;Node147</title>
<path fill="none" stroke="midnightblue" d="M104.447,-151.055C113.151,-151.055 121.91,-151.055 129.786,-151.055"/>
<polygon fill="midnightblue" stroke="midnightblue" points="129.889,-154.555 139.889,-151.055 129.889,-147.555 129.889,-154.555"/>
</g>
<!-- Node133 -->
<g id="node3" class="node"><title>Node133</title>
<g id="a_node3"><a xlink:href="posix_8c.html#af86fa14728c9bad5418a6d29cad9f9ff" target="_top" xlink:title="Convert POSIX stream pointer to POSIX fileno (index of __iob[])">
<polygon fill="white" stroke="black" points="483.047,-101.055 483.047,-121.055 522.953,-121.055 522.953,-101.055 483.047,-101.055"/>
<text text-anchor="middle" x="503" y="-107.055" font-family="Helvetica,sans-Serif" font-size="10.00">fileno</text>
</a>
</g>
</g>
<!-- Node132&#45;&gt;Node133 -->
<g id="edge2" class="edge"><title>Node132&#45;&gt;Node133</title>
<path fill="none" stroke="midnightblue" d="M175.785,-219.191C220.555,-248.514 356.9,-327.597 444,-267.055 488.551,-236.088 498.951,-166.62 501.33,-131.791"/>
<polygon fill="midnightblue" stroke="midnightblue" points="504.846,-131.581 501.867,-121.414 497.855,-131.219 504.846,-131.581"/>
</g>
<!-- Node134 -->
<g id="node4" class="node"><title>Node134</title>
<g id="a_node4"><a xlink:href="posix_8c.html#aeb68afd2fdf966f8d89cc7aaa9aa7c23" target="_top" xlink:title="Convert FafFs error result to POSIX errno. NOT POSIX.">
<polygon fill="white" stroke="black" points="360.148,-335.055 360.148,-355.055 437.852,-355.055 437.852,-335.055 360.148,-335.055"/>
<text text-anchor="middle" x="399" y="-341.055" font-family="Helvetica,sans-Serif" font-size="10.00">fatfs_to_errno</text>
</a>
</g>
</g>
<!-- Node132&#45;&gt;Node134 -->
<g id="edge3" class="edge"><title>Node132&#45;&gt;Node134</title>
<path fill="none" stroke="midnightblue" d="M161.533,-219.15C163.518,-245.23 172.816,-314.846 216,-344.055 256.81,-371.659 315.426,-366.007 355.018,-357.371"/>
<polygon fill="midnightblue" stroke="midnightblue" points="355.955,-360.746 364.9,-355.067 354.366,-353.929 355.955,-360.746"/>
</g>
<!-- Node135 -->
<g id="node5" class="node"><title>Node135</title>
<g id="a_node5"><a xlink:href="posix_8c.html#a96d98c05b05d85e1ae97953f04f5b386" target="_top" xlink:title="Allocate a POSIX FILE descriptor. NOT POSIX.">
<polygon fill="white" stroke="black" points="215.921,-199.055 215.921,-219.055 318.079,-219.055 318.079,-199.055 215.921,-199.055"/>
<text text-anchor="middle" x="267" y="-205.055" font-family="Helvetica,sans-Serif" font-size="10.00">new_file_descriptor</text>
</a>
</g>
</g>
<!-- Node132&#45;&gt;Node135 -->
<g id="edge4" class="edge"><title>Node132&#45;&gt;Node135</title>
<path fill="none" stroke="midnightblue" d="M179.29,-209.055C186.877,-209.055 196.154,-209.055 205.785,-209.055"/>
<polygon fill="midnightblue" stroke="midnightblue" points="205.893,-212.555 215.893,-209.055 205.893,-205.555 205.893,-212.555"/>
</g>
<!-- Node141 -->
<g id="node11" class="node"><title>Node141</title>
<g id="a_node11"><a xlink:href="posix_8c.html#ae0821388c321f66b16fbca4a625022de" target="_top" xlink:title="Convert POSIX fileno to POSIX FILE stream pointer. NOT POSIX.">
<polygon fill="white" stroke="black" points="354.035,-43.055 354.035,-63.055 443.965,-63.055 443.965,-43.055 354.035,-43.055"/>
<text text-anchor="middle" x="399" y="-49.055" font-family="Helvetica,sans-Serif" font-size="10.00">fileno_to_stream</text>
</a>
</g>
</g>
<!-- Node132&#45;&gt;Node141 -->
<g id="edge11" class="edge"><title>Node132&#45;&gt;Node141</title>
<path fill="none" stroke="midnightblue" d="M166.109,-198.997C178.238,-175.268 208.326,-117.311 216,-111.055 217.414,-109.902 302.949,-82.9075 356.241,-66.1573"/>
<polygon fill="midnightblue" stroke="midnightblue" points="357.298,-69.4939 365.789,-63.1574 355.2,-62.8158 357.298,-69.4939"/>
</g>
<!-- Node142 -->
<g id="node12" class="node"><title>Node142</title>
<g id="a_node12"><a xlink:href="posix_8c.html#a9d5502ebc4eba38ea5ef6ca4ba71bc02" target="_top" xlink:title="Free POSIX fileno FILE descriptor. NOT POSIX.">
<polygon fill="white" stroke="black" points="216.478,-160.055 216.478,-180.055 317.522,-180.055 317.522,-160.055 216.478,-160.055"/>
<text text-anchor="middle" x="267" y="-166.055" font-family="Helvetica,sans-Serif" font-size="10.00">free_file_descriptor</text>
</a>
</g>
</g>
<!-- Node132&#45;&gt;Node142 -->
<g id="edge13" class="edge"><title>Node132&#45;&gt;Node142</title>
<path fill="none" stroke="midnightblue" d="M179.29,-202.262C193.042,-197.154 212.342,-189.985 229.244,-183.707"/>
<polygon fill="midnightblue" stroke="midnightblue" points="230.702,-186.899 238.857,-180.137 228.265,-180.337 230.702,-186.899"/>
</g>
<!-- Node143 -->
<g id="node13" class="node"><title>Node143</title>
<g id="a_node13"><a xlink:href="posix_8c.html#a1eeda4d85cf3cae5cf1ee8c1e196a686" target="_top" xlink:title="Convert POSIX fileno to FatFS handle NOT POSIX.">
<polygon fill="white" stroke="black" points="227.867,-121.055 227.867,-141.055 306.133,-141.055 306.133,-121.055 227.867,-121.055"/>
<text text-anchor="middle" x="267" y="-127.055" font-family="Helvetica,sans-Serif" font-size="10.00">fileno_to_fatfs</text>
</a>
</g>
</g>
<!-- Node132&#45;&gt;Node143 -->
<g id="edge18" class="edge"><title>Node132&#45;&gt;Node143</title>
<path fill="none" stroke="midnightblue" d="M168.09,-198.957C177.637,-186.02 195.778,-163.648 216,-150.055 218.42,-148.428 221,-146.914 223.662,-145.511"/>
<polygon fill="midnightblue" stroke="midnightblue" points="225.364,-148.578 232.925,-141.156 222.386,-142.243 225.364,-148.578"/>
</g>
<!-- Node144 -->
<g id="node14" class="node"><title>Node144</title>
<g id="a_node14"><a xlink:href="posix_8c.html#a90d998e82aa4f903a1570c0c48aeae59" target="_top" xlink:title="Private FatFs function called by fputc() to put a byte from file stream NOT POSIX open() assigns stre...">
<polygon fill="white" stroke="black" points="237.32,-315.055 237.32,-335.055 296.68,-335.055 296.68,-315.055 237.32,-315.055"/>
<text text-anchor="middle" x="267" y="-321.055" font-family="Helvetica,sans-Serif" font-size="10.00">fatfs_putc</text>
</a>
</g>
</g>
<!-- Node132&#45;&gt;Node144 -->
<g id="edge22" class="edge"><title>Node132&#45;&gt;Node144</title>
<path fill="none" stroke="midnightblue" d="M164.943,-219.338C172.414,-237.662 190.227,-276.266 216,-300.055 220.145,-303.881 224.986,-307.259 229.992,-310.194"/>
<polygon fill="midnightblue" stroke="midnightblue" points="228.593,-313.414 239.068,-315.001 231.869,-307.228 228.593,-313.414"/>
</g>
<!-- Node145 -->
<g id="node15" class="node"><title>Node145</title>
<g id="a_node15"><a xlink:href="posix_8c.html#a479c82c9a415915568fb1e799bc545c9" target="_top" xlink:title="Formt SD card.">
<polygon fill="white" stroke="black" points="237.32,-393.055 237.32,-413.055 296.68,-413.055 296.68,-393.055 237.32,-393.055"/>
<text text-anchor="middle" x="267" y="-399.055" font-family="Helvetica,sans-Serif" font-size="10.00">fatfs_getc</text>
</a>
</g>
</g>
<!-- Node132&#45;&gt;Node145 -->
<g id="edge24" class="edge"><title>Node132&#45;&gt;Node145</title>
<path fill="none" stroke="midnightblue" d="M161.626,-219.111C163.891,-247.47 173.922,-329.188 216,-378.055 219.435,-382.044 223.658,-385.464 228.182,-388.379"/>
<polygon fill="midnightblue" stroke="midnightblue" points="226.686,-391.552 237.123,-393.375 230.101,-385.442 226.686,-391.552"/>
</g>
<!-- Node136 -->
<g id="node6" class="node"><title>Node136</title>
<g id="a_node6"><a xlink:href="posix_8c.html#aeac589354c9d47c7d9c7c49ba4b0d266" target="_top" xlink:title="Test POSIX fileno if it is a Serial Console/TTY.">
<polygon fill="white" stroke="black" points="379.33,-121.055 379.33,-141.055 418.67,-141.055 418.67,-121.055 379.33,-121.055"/>
<text text-anchor="middle" x="399" y="-127.055" font-family="Helvetica,sans-Serif" font-size="10.00">isatty</text>
</a>
</g>
</g>
<!-- Node135&#45;&gt;Node136 -->
<g id="edge5" class="edge"><title>Node135&#45;&gt;Node136</title>
<path fill="none" stroke="midnightblue" d="M296.592,-199.027C303.744,-196.139 311.287,-192.757 318,-189.055 339.802,-177.034 362.594,-160.003 378.248,-147.505"/>
<polygon fill="midnightblue" stroke="midnightblue" points="380.597,-150.107 386.159,-141.089 376.187,-144.67 380.597,-150.107"/>
</g>
<!-- Node137 -->
<g id="node7" class="node"><title>Node137</title>
<g id="a_node7"><a xlink:href="malloc_8c.html#a62b7798461bd461da64c5f9d35feddf7" target="_top" xlink:title=" ">
<polygon fill="white" stroke="black" points="378.217,-238.055 378.217,-258.055 419.783,-258.055 419.783,-238.055 378.217,-238.055"/>
<text text-anchor="middle" x="399" y="-244.055" font-family="Helvetica,sans-Serif" font-size="10.00">calloc</text>
</a>
</g>
</g>
<!-- Node135&#45;&gt;Node137 -->
<g id="edge7" class="edge"><title>Node135&#45;&gt;Node137</title>
<path fill="none" stroke="midnightblue" d="M301.478,-219.099C322.107,-225.287 348.324,-233.152 368.227,-239.123"/>
<polygon fill="midnightblue" stroke="midnightblue" points="367.413,-242.533 377.997,-242.054 369.424,-235.828 367.413,-242.533"/>
</g>
<!-- Node140 -->
<g id="node10" class="node"><title>Node140</title>
<g id="a_node10"><a xlink:href="malloc_8c.html#afbedc913aa4651b3c3b4b3aecd9b4711" target="_top" xlink:title=" ">
<polygon fill="white" stroke="black" points="382.384,-199.055 382.384,-219.055 415.616,-219.055 415.616,-199.055 382.384,-199.055"/>
<text text-anchor="middle" x="399" y="-205.055" font-family="Helvetica,sans-Serif" font-size="10.00">free</text>
</a>
</g>
</g>
<!-- Node135&#45;&gt;Node140 -->
<g id="edge10" class="edge"><title>Node135&#45;&gt;Node140</title>
<path fill="none" stroke="midnightblue" d="M318.261,-209.055C336.545,-209.055 356.47,-209.055 371.829,-209.055"/>
<polygon fill="midnightblue" stroke="midnightblue" points="372.117,-212.555 382.117,-209.055 372.117,-205.555 372.117,-212.555"/>
</g>
<!-- Node136&#45;&gt;Node133 -->
<g id="edge6" class="edge"><title>Node136&#45;&gt;Node133</title>
<path fill="none" stroke="midnightblue" d="M418.708,-127.387C433.759,-124.436 455.183,-120.235 472.534,-116.833"/>
<polygon fill="midnightblue" stroke="midnightblue" points="473.578,-120.195 482.717,-114.836 472.231,-113.326 473.578,-120.195"/>
</g>
<!-- Node138 -->
<g id="node8" class="node"><title>Node138</title>
<g id="a_node8"><a xlink:href="malloc_8c.html#a7ac38fce3243a7dcf448301ee9ffd392" target="_top" xlink:title=" ">
<polygon fill="white" stroke="black" points="480.552,-238.055 480.552,-258.055 525.448,-258.055 525.448,-238.055 480.552,-238.055"/>
<text text-anchor="middle" x="503" y="-244.055" font-family="Helvetica,sans-Serif" font-size="10.00">malloc</text>
</a>
</g>
</g>
<!-- Node137&#45;&gt;Node138 -->
<g id="edge8" class="edge"><title>Node137&#45;&gt;Node138</title>
<path fill="none" stroke="midnightblue" d="M420.152,-248.055C434.44,-248.055 453.902,-248.055 470.263,-248.055"/>
<polygon fill="midnightblue" stroke="midnightblue" points="470.481,-251.555 480.481,-248.055 470.481,-244.555 470.481,-251.555"/>
</g>
<!-- Node139 -->
<g id="node9" class="node"><title>Node139</title>
<g id="a_node9"><a xlink:href="malloc_8c.html#aa5c105052a59261e63119d5203374a41" target="_top" xlink:title=" ">
<polygon fill="white" stroke="black" points="562.209,-238.055 562.209,-258.055 633.791,-258.055 633.791,-238.055 562.209,-238.055"/>
<text text-anchor="middle" x="598" y="-244.055" font-family="Helvetica,sans-Serif" font-size="10.00">malloc_flags</text>
</a>
</g>
</g>
<!-- Node138&#45;&gt;Node139 -->
<g id="edge9" class="edge"><title>Node138&#45;&gt;Node139</title>
<path fill="none" stroke="midnightblue" d="M525.57,-248.055C533.445,-248.055 542.675,-248.055 551.835,-248.055"/>
<polygon fill="midnightblue" stroke="midnightblue" points="552.073,-251.555 562.073,-248.055 552.073,-244.555 552.073,-251.555"/>
</g>
<!-- Node141&#45;&gt;Node133 -->
<g id="edge12" class="edge"><title>Node141&#45;&gt;Node133</title>
<path fill="none" stroke="midnightblue" d="M417.984,-63.2699C425.955,-67.7983 435.446,-73.1914 444,-78.055 454.227,-83.8698 465.466,-90.2639 475.306,-95.8628"/>
<polygon fill="midnightblue" stroke="midnightblue" points="473.81,-99.0384 484.232,-100.942 477.272,-92.9545 473.81,-99.0384"/>
</g>
<!-- Node142&#45;&gt;Node136 -->
<g id="edge14" class="edge"><title>Node142&#45;&gt;Node136</title>
<path fill="none" stroke="midnightblue" d="M301.478,-160.012C322.491,-153.708 349.303,-145.664 369.333,-139.655"/>
<polygon fill="midnightblue" stroke="midnightblue" points="370.55,-142.944 379.123,-136.718 368.539,-136.239 370.55,-142.944"/>
</g>
<!-- Node142&#45;&gt;Node133 -->
<g id="edge15" class="edge"><title>Node142&#45;&gt;Node133</title>
<path fill="none" stroke="midnightblue" d="M317.621,-170.649C353.699,-169.606 403.162,-165.081 444,-150.055 458.018,-144.897 471.965,-135.683 482.668,-127.505"/>
<polygon fill="midnightblue" stroke="midnightblue" points="484.857,-130.236 490.496,-121.267 480.494,-124.762 484.857,-130.236"/>
</g>
<!-- Node142&#45;&gt;Node141 -->
<g id="edge16" class="edge"><title>Node142&#45;&gt;Node141</title>
<path fill="none" stroke="midnightblue" d="M300.197,-159.951C306.407,-157.252 312.64,-153.97 318,-150.055 325.998,-144.214 362.862,-97.9049 383.645,-71.4411"/>
<polygon fill="midnightblue" stroke="midnightblue" points="386.599,-73.3447 390.011,-63.3143 381.089,-69.0278 386.599,-73.3447"/>
</g>
<!-- Node142&#45;&gt;Node140 -->
<g id="edge17" class="edge"><title>Node142&#45;&gt;Node140</title>
<path fill="none" stroke="midnightblue" d="M301.478,-180.099C323.644,-186.748 352.263,-195.334 372.568,-201.425"/>
<polygon fill="midnightblue" stroke="midnightblue" points="371.765,-204.839 382.349,-204.36 373.777,-198.134 371.765,-204.839"/>
</g>
<!-- Node143&#45;&gt;Node136 -->
<g id="edge19" class="edge"><title>Node143&#45;&gt;Node136</title>
<path fill="none" stroke="midnightblue" d="M306.301,-131.055C326.336,-131.055 350.466,-131.055 368.944,-131.055"/>
<polygon fill="midnightblue" stroke="midnightblue" points="369.097,-134.555 379.097,-131.055 369.097,-127.555 369.097,-134.555"/>
</g>
<!-- Node143&#45;&gt;Node133 -->
<g id="edge20" class="edge"><title>Node143&#45;&gt;Node133</title>
<path fill="none" stroke="midnightblue" d="M302.83,-121.048C318.35,-117.085 336.943,-113.012 354,-111.055 394.923,-106.359 442.631,-107.545 472.578,-109.087"/>
<polygon fill="midnightblue" stroke="midnightblue" points="472.581,-112.593 482.762,-109.661 472.975,-105.604 472.581,-112.593"/>
</g>
<!-- Node143&#45;&gt;Node141 -->
<g id="edge21" class="edge"><title>Node143&#45;&gt;Node141</title>
<path fill="none" stroke="midnightblue" d="M290.418,-121.013C299.228,-116.769 309.297,-111.54 318,-106.055 335.148,-95.2478 337.144,-89.3133 354,-78.055 359.055,-74.6788 364.591,-71.3015 369.98,-68.1702"/>
<polygon fill="midnightblue" stroke="midnightblue" points="371.821,-71.15 378.797,-63.1765 368.371,-65.059 371.821,-71.15"/>
</g>
<!-- Node144&#45;&gt;Node134 -->
<g id="edge23" class="edge"><title>Node144&#45;&gt;Node134</title>
<path fill="none" stroke="midnightblue" d="M296.851,-329.494C312.359,-331.879 331.891,-334.884 349.647,-337.616"/>
<polygon fill="midnightblue" stroke="midnightblue" points="349.436,-341.125 359.852,-339.186 350.501,-334.206 349.436,-341.125"/>
</g>
<!-- Node145&#45;&gt;Node134 -->
<g id="edge25" class="edge"><title>Node145&#45;&gt;Node134</title>
<path fill="none" stroke="midnightblue" d="M290.644,-392.952C311.488,-383.653 342.623,-369.762 366.004,-359.33"/>
<polygon fill="midnightblue" stroke="midnightblue" points="367.473,-362.507 375.179,-355.237 364.621,-356.115 367.473,-362.507"/>
</g>
<!-- Node147&#45;&gt;Node141 -->
<g id="edge28" class="edge"><title>Node147&#45;&gt;Node141</title>
<path fill="none" stroke="midnightblue" d="M171.392,-140.76C174.284,-137.726 177.356,-134.337 180,-131.055 197.866,-108.881 191.803,-93.0679 216,-78.055 254.025,-54.4621 305.04,-49.221 343.383,-49.3023"/>
<polygon fill="midnightblue" stroke="midnightblue" points="343.791,-52.8086 353.841,-49.4556 343.893,-45.8093 343.791,-52.8086"/>
</g>
<!-- Node147&#45;&gt;Node133 -->
<g id="edge29" class="edge"><title>Node147&#45;&gt;Node133</title>
<path fill="none" stroke="midnightblue" d="M172.209,-140.652C174.981,-137.723 177.787,-134.415 180,-131.055 202.338,-97.132 183.264,-71.0995 216,-47.055 297.824,13.0445 353.288,12.5347 444,-33.055 468.284,-45.2595 484.969,-72.9796 494.005,-91.8625"/>
<polygon fill="midnightblue" stroke="midnightblue" points="490.841,-93.3616 498.135,-101.046 497.225,-90.4902 490.841,-93.3616"/>
</g>
<!-- Node147&#45;&gt;Node143 -->
<g id="edge30" class="edge"><title>Node147&#45;&gt;Node143</title>
<path fill="none" stroke="midnightblue" d="M179.772,-147.479C190.395,-145.456 204.214,-142.824 217.665,-140.262"/>
<polygon fill="midnightblue" stroke="midnightblue" points="218.653,-143.637 227.821,-138.327 217.343,-136.76 218.653,-143.637"/>
</g>
<!-- Node147&#45;&gt;Node142 -->
<g id="edge31" class="edge"><title>Node147&#45;&gt;Node142</title>
<path fill="none" stroke="midnightblue" d="M179.772,-154.452C187.39,-155.83 196.65,-157.506 206.24,-159.241"/>
<polygon fill="midnightblue" stroke="midnightblue" points="205.835,-162.725 216.299,-161.061 207.082,-155.837 205.835,-162.725"/>
</g>
<!-- Node147&#45;&gt;Node134 -->
<g id="edge32" class="edge"><title>Node147&#45;&gt;Node134</title>
<path fill="none" stroke="midnightblue" d="M166.555,-161.21C175.478,-176.884 194.229,-207.323 216,-228.055 263.146,-272.949 329.872,-310.681 368.059,-330.372"/>
<polygon fill="midnightblue" stroke="midnightblue" points="366.623,-333.569 377.123,-334.983 369.797,-327.33 366.623,-333.569"/>
</g>
</g>
</svg>
        <g id="navigator" transform="translate(0 0)" fill="#404254">
                <rect fill="#f2f5e9" fill-opacity="0.5" stroke="#606060" stroke-width=".5" x="0" y="0" width="60" height="60"/>
                <use id="zoomplus" xlink:href="#zoomPlus" x="17" y="9" onmousedown="handleZoom(evt,'in')"/>
                <use id="zoomminus" xlink:href="#zoomMin" x="42" y="9" onmousedown="handleZoom(evt,'out')"/>
                <use id="reset" xlink:href="#resetDef" x="30" y="36" onmousedown="handleReset()"/>
                <g id="arrowUp" xlink:href="#dirArrow" transform="translate(30 24)" onmousedown="handlePan(0,-1)">
                  <use xlink:href="#rim" fill="#404040">
                        <set attributeName="fill" to="#808080" begin="arrowUp.mouseover" end="arrowUp.mouseout"/>
                  </use>
                  <path fill="none" stroke="white" stroke-width="1.5" d="M0,-3.0v7 M-2.5,-0.5L0,-3.0L2.5,-0.5"/>
                </g>
                <g id="arrowRight" xlink:href="#dirArrow" transform="rotate(90) translate(36 -43)" onmousedown="handlePan(1,0)">
                  <use xlink:href="#rim" fill="#404040">
                        <set attributeName="fill" to="#808080" begin="arrowRight.mouseover" end="arrowRight.mouseout"/>
                  </use>
                  <path fill="none" stroke="white" stroke-width="1.5" d="M0,-3.0v7 M-2.5,-0.5L0,-3.0L2.5,-0.5"/>
                </g>
                <g id="arrowDown" xlink:href="#dirArrow" transform="rotate(180) translate(-30 -48)" onmousedown="handlePan(0,1)">
                  <use xlink:href="#rim" fill="#404040">
                        <set attributeName="fill" to="#808080" begin="arrowDown.mouseover" end="arrowDown.mouseout"/>
                  </use>
                  <path fill="none" stroke="white" stroke-width="1.5" d="M0,-3.0v7 M-2.5,-0.5L0,-3.0L2.5,-0.5"/>
                </g>
                <g id="arrowLeft" xlink:href="#dirArrow" transform="rotate(270) translate(-36 17)" onmousedown="handlePan(-1,0)">
                  <use xlink:href="#rim" fill="#404040">
                        <set attributeName="fill" to="#808080" begin="arrowLeft.mouseover" end="arrowLeft.mouseout"/>
                  </use>
                  <path fill="none" stroke="white" stroke-width="1.5" d="M0,-3.0v7 M-2.5,-0.5L0,-3.0L2.5,-0.5"/>
                </g>
        </g>
        <svg viewBox="0 0 15 15" width="100%" height="30px" preserveAspectRatio="xMaxYMin meet">
         <g id="arrow_out" transform="scale(0.3 0.3)">
          <a xlink:href="classLinux_1_1RCInput__RPI_a9834ebd85551fb31ba22e87cbaa85c8c_cgraph_org.svg" target="_base">
           <rect id="button" ry="5" rx="5" y="6" x="6" height="38" width="38"
                fill="#f2f5e9" fill-opacity="0.5" stroke="#606060" stroke-width="1.0"/>
           <path id="arrow"
             d="M 11.500037,31.436501 C 11.940474,20.09759 22.043105,11.32322 32.158766,21.979434 L 37.068811,17.246167 C 37.068811,17.246167 37.088388,32 37.088388,32 L 22.160133,31.978069 C 22.160133,31.978069 26.997745,27.140456 26.997745,27.140456 C 18.528582,18.264221 13.291696,25.230495 11.500037,31.436501 z"
             style="fill:#404040;"/>
          </a>
         </g>
        </svg>
</svg>
