<?xml version="1.0" encoding="UTF-8" standalone="no"?>
<!DOCTYPE svg PUBLIC "-//W3C//DTD SVG 1.1//EN"
 "http://www.w3.org/Graphics/SVG/1.1/DTD/svg11.dtd">
<!-- Generated by graphviz version 2.30.1 (20130221.2233)
 -->
<!-- Title: AP_Mount_SToRM32_serial::get_angles Pages: 1 -->
<svg width="306pt" height="91pt"
 viewBox="0.00 0.00 306.00 91.00" xmlns="http://www.w3.org/2000/svg" xmlns:xlink="http://www.w3.org/1999/xlink">
<g id="graph0" class="graph" transform="scale(1 1) rotate(0) translate(4 87)">
<title>AP_Mount_SToRM32_serial::get_angles</title>
<polygon fill="white" stroke="white" points="-4,5 -4,-87 303,-87 303,5 -4,5"/>
<!-- Node6 -->
<g id="node1" class="node"><title>Node6</title>
<g id="a_node1"><a xlink:title=" ">
<polygon fill="#bfbfbf" stroke="black" points="0.189941,-25 0.189941,-57 141.81,-57 141.81,-25 0.189941,-25"/>
<text text-anchor="start" x="8.18994" y="-43" font-family="Helvetica,sans-Serif" font-size="10.00">AP_Mount_SToRM32_serial</text>
<text text-anchor="middle" x="71" y="-31" font-family="Helvetica,sans-Serif" font-size="10.00">::get_angles</text>
</a>
</g>
</g>
<!-- Node7 -->
<g id="node2" class="node"><title>Node7</title>
<g id="a_node2"><a xlink:href="classAP__HAL_1_1BetterStream.html#ab0193c7791fd95eb2bfbfd6597bdf6d8" target="_top" xlink:title=" ">
<polygon fill="white" stroke="black" points="178.589,-51 178.589,-83 297.411,-83 297.411,-51 178.589,-51"/>
<text text-anchor="start" x="186.589" y="-69" font-family="Helvetica,sans-Serif" font-size="10.00">AP_HAL::BetterStream</text>
<text text-anchor="middle" x="238" y="-57" font-family="Helvetica,sans-Serif" font-size="10.00">::txspace</text>
</a>
</g>
</g>
<!-- Node6&#45;&gt;Node7 -->
<g id="edge1" class="edge"><title>Node6&#45;&gt;Node7</title>
<path fill="none" stroke="midnightblue" d="M141.975,-52.0263C150.687,-53.3991 159.59,-54.802 168.282,-56.1718"/>
<polygon fill="midnightblue" stroke="midnightblue" points="167.943,-59.6614 178.366,-57.7607 169.033,-52.7468 167.943,-59.6614"/>
</g>
<!-- Node8 -->
<g id="node3" class="node"><title>Node8</title>
<g id="a_node3"><a xlink:href="classAP__HAL_1_1BetterStream.html#a915cc01273d4b418c2fb2989fb31a508" target="_top" xlink:title=" ">
<polygon fill="white" stroke="black" points="178.589,-0 178.589,-32 297.411,-32 297.411,-0 178.589,-0"/>
<text text-anchor="start" x="186.589" y="-18" font-family="Helvetica,sans-Serif" font-size="10.00">AP_HAL::BetterStream</text>
<text text-anchor="middle" x="238" y="-6" font-family="Helvetica,sans-Serif" font-size="10.00">::write</text>
</a>
</g>
</g>
<!-- Node6&#45;&gt;Node8 -->
<g id="edge2" class="edge"><title>Node6&#45;&gt;Node8</title>
<path fill="none" stroke="midnightblue" d="M141.975,-30.3977C150.687,-29.0778 159.59,-27.7288 168.282,-26.4118"/>
<polygon fill="midnightblue" stroke="midnightblue" points="169.003,-29.8425 178.366,-24.8839 167.955,-22.9215 169.003,-29.8425"/>
</g>
</g>
</svg>
