<?xml version="1.0" encoding="UTF-8" standalone="no"?>
<!DOCTYPE svg PUBLIC "-//W3C//DTD SVG 1.1//EN"
 "http://www.w3.org/Graphics/SVG/1.1/DTD/svg11.dtd">
<!-- Generated by graphviz version 2.30.1 (20130221.2233)
 -->
<!-- Title: AP_Param::copy_name_info Pages: 1 -->
<!--zoomable 354 -->
<svg id="main" version="1.1" xmlns="http://www.w3.org/2000/svg" xmlns:xlink="http://www.w3.org/1999/xlink" xml:space="preserve" onload="init(evt)">
<style type="text/css"><![CDATA[
.edge:hover path { stroke: red; }
.edge:hover polygon { stroke: red; fill: red; }
]]></style>
<script type="text/javascript"><![CDATA[
var edges = document.getElementsByTagName('g');
if (edges && edges.length) {
  for (var i=0;i<edges.length;i++) {
    if (edges[i].id.substr(0,4)=='edge') {
      edges[i].setAttribute('class','edge');
    }
  }
}
]]></script>
        <defs>
                <circle id="rim" cx="0" cy="0" r="7"/>
                <circle id="rim2" cx="0" cy="0" r="3.5"/>
                <g id="zoomPlus">
                        <use xlink:href="#rim" fill="#404040">
                                <set attributeName="fill" to="#808080" begin="zoomplus.mouseover" end="zoomplus.mouseout"/>
                        </use>
                        <path d="M-4,0h8M0,-4v8" fill="none" stroke="white" stroke-width="1.5" pointer-events="none"/>
                </g>
                <g id="zoomMin">
                        <use xlink:href="#rim" fill="#404040">
                                <set attributeName="fill" to="#808080" begin="zoomminus.mouseover" end="zoomminus.mouseout"/>
                        </use>
                        <path d="M-4,0h8" fill="none" stroke="white" stroke-width="1.5" pointer-events="none"/>
                </g>
                <g id="dirArrow">
                        <path fill="none" stroke="white" stroke-width="1.5" d="M0,-3.0v7 M-2.5,-0.5L0,-3.0L2.5,-0.5"/>
                </g>
               <g id="resetDef">
                       <use xlink:href="#rim2" fill="#404040">
                               <set attributeName="fill" to="#808080" begin="reset.mouseover" end="reset.mouseout"/>
                       </use>
               </g>
        </defs>

<script type="text/javascript">
var viewWidth = 2062;
var viewHeight = 354;
var sectionId = 'dynsection-21';
</script>
<script xlink:href="svgpan.js"/>
<svg id="graph" class="graph">
<g id="viewport">
<title>AP_Param::copy_name_info</title>
<polygon fill="white" stroke="white" points="-4,5 -4,-350 2059,-350 2059,5 -4,5"/>
<!-- Node403 -->
<g id="node1" class="node"><title>Node403</title>
<g id="a_node1"><a xlink:title=" ">
<polygon fill="#bfbfbf" stroke="black" points="1910.35,-59 1910.35,-79 2053.65,-79 2053.65,-59 1910.35,-59"/>
<text text-anchor="middle" x="1982" y="-65" font-family="Helvetica,sans-Serif" font-size="10.00">AP_Param::copy_name_info</text>
</a>
</g>
</g>
<!-- Node404 -->
<g id="node2" class="node"><title>Node404</title>
<g id="a_node2"><a xlink:href="classAP__Param.html#aef8025ccab48c6288b895fc5656ff384" target="_top" xlink:title=" ">
<polygon fill="white" stroke="black" points="1752.19,-126 1752.19,-158 1873.81,-158 1873.81,-126 1752.19,-126"/>
<text text-anchor="start" x="1760.19" y="-144" font-family="Helvetica,sans-Serif" font-size="10.00">AP_Param::copy_name</text>
<text text-anchor="middle" x="1813" y="-132" font-family="Helvetica,sans-Serif" font-size="10.00">_token</text>
</a>
</g>
</g>
<!-- Node403&#45;&gt;Node404 -->
<g id="edge1" class="edge"><title>Node403&#45;&gt;Node404</title>
<path fill="none" stroke="midnightblue" d="M1948.42,-83.24C1920.4,-95.4879 1880.01,-113.146 1850.82,-125.904"/>
<polygon fill="midnightblue" stroke="midnightblue" points="1950.02,-86.3627 1957.78,-79.1503 1947.21,-79.9487 1950.02,-86.3627"/>
</g>
<!-- Node430 -->
<g id="node28" class="node"><title>Node430</title>
<g id="a_node28"><a xlink:href="classAP__Param.html#afdc8ffa1c4e29c3a535b332a5a6346bd" target="_top" xlink:title=" ">
<polygon fill="white" stroke="black" points="1766.09,-59 1766.09,-79 1859.91,-79 1859.91,-59 1766.09,-59"/>
<text text-anchor="middle" x="1813" y="-65" font-family="Helvetica,sans-Serif" font-size="10.00">AP_Param::notify</text>
</a>
</g>
</g>
<!-- Node403&#45;&gt;Node430 -->
<g id="edge29" class="edge"><title>Node403&#45;&gt;Node430</title>
<path fill="none" stroke="midnightblue" d="M1899.82,-69C1886.23,-69 1872.55,-69 1860.23,-69"/>
<polygon fill="midnightblue" stroke="midnightblue" points="1900.18,-72.5001 1910.18,-69 1900.18,-65.5001 1900.18,-72.5001"/>
</g>
<!-- Node433 -->
<g id="node31" class="node"><title>Node433</title>
<g id="a_node31"><a xlink:href="classAP__Param.html#ab74bb1ad530acf7e8aaa0c0f3ebe574b" target="_top" xlink:title=" ">
<polygon fill="white" stroke="black" points="1754.42,-17 1754.42,-37 1871.58,-37 1871.58,-17 1754.42,-17"/>
<text text-anchor="middle" x="1813" y="-23" font-family="Helvetica,sans-Serif" font-size="10.00">AP_Param::save_sync</text>
</a>
</g>
</g>
<!-- Node403&#45;&gt;Node433 -->
<g id="edge32" class="edge"><title>Node403&#45;&gt;Node433</title>
<path fill="none" stroke="midnightblue" d="M1931.11,-56.4516C1906.45,-50.2516 1877.11,-42.8719 1853.96,-37.0507"/>
<polygon fill="midnightblue" stroke="midnightblue" points="1930.45,-59.8952 1941,-58.94 1932.16,-53.1066 1930.45,-59.8952"/>
</g>
<!-- Node405 -->
<g id="node3" class="node"><title>Node405</title>
<g id="a_node3"><a xlink:href="structGCS__MAVLINK.html#a508b2da2af9a77f175c60cac467cec70" target="_top" xlink:title="Send the next pending parameter, called from deferred message handling code.">
<polygon fill="white" stroke="black" points="1581.34,-141 1581.34,-173 1706.66,-173 1706.66,-141 1581.34,-141"/>
<text text-anchor="start" x="1589.34" y="-159" font-family="Helvetica,sans-Serif" font-size="10.00">GCS_MAVLINK::queued</text>
<text text-anchor="middle" x="1644" y="-147" font-family="Helvetica,sans-Serif" font-size="10.00">_param_send</text>
</a>
</g>
</g>
<!-- Node404&#45;&gt;Node405 -->
<g id="edge2" class="edge"><title>Node404&#45;&gt;Node405</title>
<path fill="none" stroke="midnightblue" d="M1742.05,-148.283C1730.4,-149.33 1718.38,-150.409 1706.94,-151.437"/>
<polygon fill="midnightblue" stroke="midnightblue" points="1742.53,-151.754 1752.18,-147.373 1741.91,-144.782 1742.53,-151.754"/>
</g>
<!-- Node406 -->
<g id="node4" class="node"><title>Node406</title>
<g id="a_node4"><a xlink:href="structGCS__MAVLINK.html#a30034cdbd89bcfb86392411f9b5935db" target="_top" xlink:title=" ">
<polygon fill="white" stroke="black" points="1405.85,-141 1405.85,-173 1536.15,-173 1536.15,-141 1405.85,-141"/>
<text text-anchor="start" x="1413.85" y="-159" font-family="Helvetica,sans-Serif" font-size="10.00">GCS_MAVLINK::try_send</text>
<text text-anchor="middle" x="1471" y="-147" font-family="Helvetica,sans-Serif" font-size="10.00">_message</text>
</a>
</g>
</g>
<!-- Node405&#45;&gt;Node406 -->
<g id="edge3" class="edge"><title>Node405&#45;&gt;Node406</title>
<path fill="none" stroke="midnightblue" d="M1571.18,-157C1559.58,-157 1547.64,-157 1536.24,-157"/>
<polygon fill="midnightblue" stroke="midnightblue" points="1571.27,-160.5 1581.27,-157 1571.27,-153.5 1571.27,-160.5"/>
</g>
<!-- Node407 -->
<g id="node5" class="node"><title>Node407</title>
<g id="a_node5"><a xlink:href="structGCS__MAVLINK.html#ae94077536892270b4a40e5bcddb1c2f9" target="_top" xlink:title=" ">
<polygon fill="white" stroke="black" points="1232.13,-192 1232.13,-224 1351.87,-224 1351.87,-192 1232.13,-192"/>
<text text-anchor="start" x="1240.13" y="-210" font-family="Helvetica,sans-Serif" font-size="10.00">GCS_MAVLINK::do_try</text>
<text text-anchor="middle" x="1292" y="-198" font-family="Helvetica,sans-Serif" font-size="10.00">_send_message</text>
</a>
</g>
</g>
<!-- Node406&#45;&gt;Node407 -->
<g id="edge4" class="edge"><title>Node406&#45;&gt;Node407</title>
<path fill="none" stroke="midnightblue" d="M1404.29,-175.935C1385.99,-181.207 1366.3,-186.881 1348.64,-191.968"/>
<polygon fill="midnightblue" stroke="midnightblue" points="1405.36,-179.269 1414,-173.137 1403.42,-172.542 1405.36,-179.269"/>
</g>
<!-- Node424 -->
<g id="node22" class="node"><title>Node424</title>
<g id="a_node22"><a xlink:href="structGCS__MAVLINK.html#af12f472c624f3c0735b082c982e7ec42" target="_top" xlink:title=" ">
<polygon fill="white" stroke="black" points="1229.9,-141 1229.9,-173 1354.1,-173 1354.1,-141 1229.9,-141"/>
<text text-anchor="start" x="1237.9" y="-159" font-family="Helvetica,sans-Serif" font-size="10.00">GCS_MAVLINK::set_ekf</text>
<text text-anchor="middle" x="1292" y="-147" font-family="Helvetica,sans-Serif" font-size="10.00">_origin</text>
</a>
</g>
</g>
<!-- Node406&#45;&gt;Node424 -->
<g id="edge22" class="edge"><title>Node406&#45;&gt;Node424</title>
<path fill="none" stroke="midnightblue" d="M1395.23,-157C1381.52,-157 1367.36,-157 1354.11,-157"/>
<polygon fill="midnightblue" stroke="midnightblue" points="1395.6,-160.5 1405.6,-157 1395.6,-153.5 1395.6,-160.5"/>
</g>
<!-- Node427 -->
<g id="node25" class="node"><title>Node427</title>
<g id="a_node25"><a xlink:href="structGCS__MAVLINK.html#a256bd83477e0d72b40300bf1d7207750" target="_top" xlink:title=" ">
<polygon fill="white" stroke="black" points="1214.23,-90 1214.23,-122 1369.77,-122 1369.77,-90 1214.23,-90"/>
<text text-anchor="start" x="1222.23" y="-108" font-family="Helvetica,sans-Serif" font-size="10.00">GCS_MAVLINK::handle</text>
<text text-anchor="middle" x="1292" y="-96" font-family="Helvetica,sans-Serif" font-size="10.00">_command_get_home_position</text>
</a>
</g>
</g>
<!-- Node406&#45;&gt;Node427 -->
<g id="edge25" class="edge"><title>Node406&#45;&gt;Node427</title>
<path fill="none" stroke="midnightblue" d="M1404.29,-138.065C1385.99,-132.793 1366.3,-127.119 1348.64,-122.032"/>
<polygon fill="midnightblue" stroke="midnightblue" points="1403.42,-141.458 1414,-140.863 1405.36,-134.731 1403.42,-141.458"/>
</g>
<!-- Node408 -->
<g id="node6" class="node"><title>Node408</title>
<g id="a_node6"><a xlink:href="structGCS__MAVLINK.html#a97b3a94ebc165ee34ee93b26e2dee23d" target="_top" xlink:title=" ">
<polygon fill="white" stroke="black" points="1028.11,-198 1028.11,-218 1177.89,-218 1177.89,-198 1028.11,-198"/>
<text text-anchor="middle" x="1103" y="-204" font-family="Helvetica,sans-Serif" font-size="10.00">GCS_MAVLINK::update_send</text>
</a>
</g>
</g>
<!-- Node407&#45;&gt;Node408 -->
<g id="edge5" class="edge"><title>Node407&#45;&gt;Node408</title>
<path fill="none" stroke="midnightblue" d="M1221.87,-208C1207.6,-208 1192.52,-208 1178.09,-208"/>
<polygon fill="midnightblue" stroke="midnightblue" points="1222.09,-211.5 1232.09,-208 1222.09,-204.5 1222.09,-211.5"/>
</g>
<!-- Node409 -->
<g id="node7" class="node"><title>Node409</title>
<g id="a_node7"><a xlink:href="classGCS.html#a07a8ce284513a8ce8336b085d0b8aadf" target="_top" xlink:title=" ">
<polygon fill="white" stroke="black" points="880.471,-198 880.471,-218 981.529,-218 981.529,-198 880.471,-198"/>
<text text-anchor="middle" x="931" y="-204" font-family="Helvetica,sans-Serif" font-size="10.00">GCS::update_send</text>
</a>
</g>
</g>
<!-- Node408&#45;&gt;Node409 -->
<g id="edge6" class="edge"><title>Node408&#45;&gt;Node409</title>
<path fill="none" stroke="midnightblue" d="M1017.66,-208C1005.41,-208 993.139,-208 981.868,-208"/>
<polygon fill="midnightblue" stroke="midnightblue" points="1017.93,-211.5 1027.93,-208 1017.93,-204.5 1017.93,-211.5"/>
</g>
<!-- Node410 -->
<g id="node8" class="node"><title>Node410</title>
<g id="a_node8"><a xlink:href="classAP__BoardConfig.html#ab7d977aecbbe7090266bee755bf2cc32" target="_top" xlink:title=" ">
<polygon fill="white" stroke="black" points="707.968,-192 707.968,-224 834.032,-224 834.032,-192 707.968,-192"/>
<text text-anchor="start" x="715.968" y="-210" font-family="Helvetica,sans-Serif" font-size="10.00">AP_BoardConfig::sensor</text>
<text text-anchor="middle" x="771" y="-198" font-family="Helvetica,sans-Serif" font-size="10.00">_config_error</text>
</a>
</g>
</g>
<!-- Node409&#45;&gt;Node410 -->
<g id="edge7" class="edge"><title>Node409&#45;&gt;Node410</title>
<path fill="none" stroke="midnightblue" d="M870.262,-208C858.467,-208 846.062,-208 834.189,-208"/>
<polygon fill="midnightblue" stroke="midnightblue" points="870.441,-211.5 880.441,-208 870.441,-204.5 870.441,-211.5"/>
</g>
<!-- Node411 -->
<g id="node9" class="node"><title>Node411</title>
<g id="a_node9"><a xlink:href="classAP__InertialSensor.html#a8967734e82a4f472c6d8ddd8db656804" target="_top" xlink:title=" ">
<polygon fill="white" stroke="black" points="558.921,-237 558.921,-269 661.079,-269 661.079,-237 558.921,-237"/>
<text text-anchor="start" x="566.921" y="-255" font-family="Helvetica,sans-Serif" font-size="10.00">AP_InertialSensor::</text>
<text text-anchor="middle" x="610" y="-243" font-family="Helvetica,sans-Serif" font-size="10.00">detect_backends</text>
</a>
</g>
</g>
<!-- Node410&#45;&gt;Node411 -->
<g id="edge8" class="edge"><title>Node410&#45;&gt;Node411</title>
<path fill="none" stroke="midnightblue" d="M703.389,-226.852C689.278,-230.846 674.61,-234.997 661.228,-238.784"/>
<polygon fill="midnightblue" stroke="midnightblue" points="704.378,-230.21 713.046,-224.119 702.471,-223.475 704.378,-230.21"/>
</g>
<!-- Node421 -->
<g id="node19" class="node"><title>Node421</title>
<g id="a_node19"><a xlink:href="classAP__Baro.html#a942db790233528bfbb4d9a07c3454360" target="_top" xlink:title=" ">
<polygon fill="white" stroke="black" points="572.818,-198 572.818,-218 647.182,-218 647.182,-198 572.818,-198"/>
<text text-anchor="middle" x="610" y="-204" font-family="Helvetica,sans-Serif" font-size="10.00">AP_Baro::init</text>
</a>
</g>
</g>
<!-- Node410&#45;&gt;Node421 -->
<g id="edge19" class="edge"><title>Node410&#45;&gt;Node421</title>
<path fill="none" stroke="midnightblue" d="M697.493,-208C680.172,-208 662.404,-208 647.514,-208"/>
<polygon fill="midnightblue" stroke="midnightblue" points="697.615,-211.5 707.615,-208 697.615,-204.5 697.615,-211.5"/>
</g>
<!-- Node423 -->
<g id="node21" class="node"><title>Node423</title>
<g id="a_node21"><a xlink:href="classAP__Param.html#a0c15e6322af82416e599f89db54501e6" target="_top" xlink:title=" ">
<polygon fill="white" stroke="black" points="548.082,-147 548.082,-179 671.918,-179 671.918,-147 548.082,-147"/>
<text text-anchor="start" x="556.082" y="-165" font-family="Helvetica,sans-Serif" font-size="10.00">AP_Param::set_defaults</text>
<text text-anchor="middle" x="610" y="-153" font-family="Helvetica,sans-Serif" font-size="10.00">_from_table</text>
</a>
</g>
</g>
<!-- Node410&#45;&gt;Node423 -->
<g id="edge21" class="edge"><title>Node410&#45;&gt;Node423</title>
<path fill="none" stroke="midnightblue" d="M703.2,-189.094C691.342,-185.738 679.096,-182.272 667.556,-179.006"/>
<polygon fill="midnightblue" stroke="midnightblue" points="702.471,-192.525 713.046,-191.881 704.378,-185.79 702.471,-192.525"/>
</g>
<!-- Node412 -->
<g id="node10" class="node"><title>Node412</title>
<g id="a_node10"><a xlink:href="classAP__InertialSensor.html#a9949b7e301b0d7a5f3e59385d2e8d97a" target="_top" xlink:title=" ">
<polygon fill="white" stroke="black" points="398.921,-263 398.921,-295 501.079,-295 501.079,-263 398.921,-263"/>
<text text-anchor="start" x="406.921" y="-281" font-family="Helvetica,sans-Serif" font-size="10.00">AP_InertialSensor::</text>
<text text-anchor="middle" x="450" y="-269" font-family="Helvetica,sans-Serif" font-size="10.00">_start_backends</text>
</a>
</g>
</g>
<!-- Node411&#45;&gt;Node412 -->
<g id="edge9" class="edge"><title>Node411&#45;&gt;Node412</title>
<path fill="none" stroke="midnightblue" d="M548.488,-262.958C532.876,-265.527 516.243,-268.264 501.219,-270.736"/>
<polygon fill="midnightblue" stroke="midnightblue" points="549.274,-266.375 558.573,-261.298 548.138,-259.468 549.274,-266.375"/>
</g>
<!-- Node417 -->
<g id="node15" class="node"><title>Node417</title>
<g id="a_node15"><a xlink:href="classAP__InertialSensor.html#ad649def5689aecaebca16cf910d77fd8" target="_top" xlink:title=" ">
<polygon fill="white" stroke="black" points="398.921,-212 398.921,-244 501.079,-244 501.079,-212 398.921,-212"/>
<text text-anchor="start" x="406.921" y="-230" font-family="Helvetica,sans-Serif" font-size="10.00">AP_InertialSensor::</text>
<text text-anchor="middle" x="450" y="-218" font-family="Helvetica,sans-Serif" font-size="10.00">get_auxiliary_bus</text>
</a>
</g>
</g>
<!-- Node411&#45;&gt;Node417 -->
<g id="edge14" class="edge"><title>Node411&#45;&gt;Node417</title>
<path fill="none" stroke="midnightblue" d="M548.488,-243.425C532.876,-240.955 516.243,-238.323 501.219,-235.946"/>
<polygon fill="midnightblue" stroke="midnightblue" points="548.149,-246.915 558.573,-245.021 549.243,-240.001 548.149,-246.915"/>
</g>
<!-- Node418 -->
<g id="node16" class="node"><title>Node418</title>
<g id="a_node16"><a xlink:href="classAP__Compass__AK8963.html#a0e8c9e0c82de409e0225fc81ed4ed6db" target="_top" xlink:title=" ">
<polygon fill="white" stroke="black" points="388.079,-314 388.079,-346 511.921,-346 511.921,-314 388.079,-314"/>
<text text-anchor="start" x="396.079" y="-332" font-family="Helvetica,sans-Serif" font-size="10.00">AP_Compass_AK8963::</text>
<text text-anchor="middle" x="450" y="-320" font-family="Helvetica,sans-Serif" font-size="10.00">probe_mpu9250</text>
</a>
</g>
</g>
<!-- Node411&#45;&gt;Node418 -->
<g id="edge15" class="edge"><title>Node411&#45;&gt;Node418</title>
<path fill="none" stroke="midnightblue" d="M571.105,-273.837C553.33,-283.374 531.757,-294.615 512,-304 504.929,-307.359 497.311,-310.768 489.934,-313.963"/>
<polygon fill="midnightblue" stroke="midnightblue" points="572.886,-276.853 580.024,-269.024 569.561,-270.693 572.886,-276.853"/>
</g>
<!-- Node413 -->
<g id="node11" class="node"><title>Node413</title>
<g id="a_node11"><a xlink:href="classAP__InertialSensor.html#a741065b13832b5e4c90bbae17519c0ad" target="_top" xlink:title=" ">
<polygon fill="white" stroke="black" points="221.53,-269 221.53,-289 336.47,-289 336.47,-269 221.53,-269"/>
<text text-anchor="middle" x="279" y="-275" font-family="Helvetica,sans-Serif" font-size="10.00">AP_InertialSensor::init</text>
</a>
</g>
</g>
<!-- Node412&#45;&gt;Node413 -->
<g id="edge10" class="edge"><title>Node412&#45;&gt;Node413</title>
<path fill="none" stroke="midnightblue" d="M388.434,-279C371.53,-279 353.233,-279 336.569,-279"/>
<polygon fill="midnightblue" stroke="midnightblue" points="388.752,-282.5 398.752,-279 388.752,-275.5 388.752,-282.5"/>
</g>
<!-- Node414 -->
<g id="node12" class="node"><title>Node414</title>
<g id="a_node12"><a xlink:href="AHRS__Test_8cpp.html#a4fc01d736fe50cf5b977f755b675f11d" target="_top" xlink:title=" ">
<polygon fill="white" stroke="black" points="-0.231445,-300 -0.231445,-320 40.2314,-320 40.2314,-300 -0.231445,-300"/>
<text text-anchor="middle" x="20" y="-306" font-family="Helvetica,sans-Serif" font-size="10.00">setup</text>
</a>
</g>
</g>
<!-- Node413&#45;&gt;Node414 -->
<g id="edge11" class="edge"><title>Node413&#45;&gt;Node414</title>
<path fill="none" stroke="midnightblue" d="M211.28,-287.048C154.401,-293.909 76.3296,-303.326 40.46,-307.653"/>
<polygon fill="midnightblue" stroke="midnightblue" points="211.773,-290.514 221.282,-285.841 210.935,-283.564 211.773,-290.514"/>
</g>
<!-- Node415 -->
<g id="node13" class="node"><title>Node415</title>
<g id="a_node13"><a xlink:href="classSchedTest.html#ae9afb73f76391e34d47286a516fe5292" target="_top" xlink:title=" ">
<polygon fill="white" stroke="black" points="76.6431,-242 76.6431,-262 169.357,-262 169.357,-242 76.6431,-242"/>
<text text-anchor="middle" x="123" y="-248" font-family="Helvetica,sans-Serif" font-size="10.00">SchedTest::setup</text>
</a>
</g>
</g>
<!-- Node413&#45;&gt;Node415 -->
<g id="edge12" class="edge"><title>Node413&#45;&gt;Node415</title>
<path fill="none" stroke="midnightblue" d="M211.02,-267.257C197.04,-264.806 182.611,-262.276 169.621,-259.998"/>
<polygon fill="midnightblue" stroke="midnightblue" points="210.639,-270.743 221.094,-269.023 211.848,-263.849 210.639,-270.743"/>
</g>
<!-- Node416 -->
<g id="node14" class="node"><title>Node416</title>
<g id="a_node14"><a xlink:href="Scheduler__test_8cpp.html#a7dfd9b79bc5a37d7df40207afbc5431f" target="_top" xlink:title=" ">
<polygon fill="white" stroke="black" points="-0.231445,-242 -0.231445,-262 40.2314,-262 40.2314,-242 -0.231445,-242"/>
<text text-anchor="middle" x="20" y="-248" font-family="Helvetica,sans-Serif" font-size="10.00">setup</text>
</a>
</g>
</g>
<!-- Node415&#45;&gt;Node416 -->
<g id="edge13" class="edge"><title>Node415&#45;&gt;Node416</title>
<path fill="none" stroke="midnightblue" d="M66.3961,-252C57.0922,-252 48.0218,-252 40.4654,-252"/>
<polygon fill="midnightblue" stroke="midnightblue" points="66.5229,-255.5 76.5229,-252 66.5228,-248.5 66.5229,-255.5"/>
</g>
<!-- Node419 -->
<g id="node17" class="node"><title>Node419</title>
<g id="a_node17"><a xlink:href="classCompass.html#a1c48170d8c8966b22fb150b1634443ec" target="_top" xlink:title=" ">
<polygon fill="white" stroke="black" points="206.518,-320 206.518,-340 351.482,-340 351.482,-320 206.518,-320"/>
<text text-anchor="middle" x="279" y="-326" font-family="Helvetica,sans-Serif" font-size="10.00">Compass::_detect_backends</text>
</a>
</g>
</g>
<!-- Node418&#45;&gt;Node419 -->
<g id="edge16" class="edge"><title>Node418&#45;&gt;Node419</title>
<path fill="none" stroke="midnightblue" d="M377.88,-330C369.175,-330 360.276,-330 351.564,-330"/>
<polygon fill="midnightblue" stroke="midnightblue" points="377.987,-333.5 387.987,-330 377.987,-326.5 377.987,-333.5"/>
</g>
<!-- Node420 -->
<g id="node18" class="node"><title>Node420</title>
<g id="a_node18"><a xlink:href="classCompass.html#a79db6bfd3fe309c6258d783f126326c6" target="_top" xlink:title=" ">
<polygon fill="white" stroke="black" points="84.7119,-320 84.7119,-340 161.288,-340 161.288,-320 84.7119,-320"/>
<text text-anchor="middle" x="123" y="-326" font-family="Helvetica,sans-Serif" font-size="10.00">Compass::init</text>
</a>
</g>
</g>
<!-- Node419&#45;&gt;Node420 -->
<g id="edge17" class="edge"><title>Node419&#45;&gt;Node420</title>
<path fill="none" stroke="midnightblue" d="M196.188,-330C184.032,-330 172.037,-330 161.42,-330"/>
<polygon fill="midnightblue" stroke="midnightblue" points="196.41,-333.5 206.41,-330 196.41,-326.5 196.41,-333.5"/>
</g>
<!-- Node420&#45;&gt;Node414 -->
<g id="edge18" class="edge"><title>Node420&#45;&gt;Node414</title>
<path fill="none" stroke="midnightblue" d="M74.6155,-320.617C62.4954,-318.217 50.1351,-315.769 40.3413,-313.83"/>
<polygon fill="midnightblue" stroke="midnightblue" points="74.1889,-324.1 84.6783,-322.61 75.5487,-317.234 74.1889,-324.1"/>
</g>
<!-- Node422 -->
<g id="node20" class="node"><title>Node422</title>
<g id="a_node20"><a xlink:href="BARO__generic_8cpp.html#a4fc01d736fe50cf5b977f755b675f11d" target="_top" xlink:title=" ">
<polygon fill="white" stroke="black" points="429.769,-173 429.769,-193 470.231,-193 470.231,-173 429.769,-173"/>
<text text-anchor="middle" x="450" y="-179" font-family="Helvetica,sans-Serif" font-size="10.00">setup</text>
</a>
</g>
</g>
<!-- Node421&#45;&gt;Node422 -->
<g id="edge20" class="edge"><title>Node421&#45;&gt;Node422</title>
<path fill="none" stroke="midnightblue" d="M562.659,-200.668C531.89,-195.799 493.098,-189.661 470.276,-186.05"/>
<polygon fill="midnightblue" stroke="midnightblue" points="562.327,-204.159 572.752,-202.264 563.422,-197.245 562.327,-204.159"/>
</g>
<!-- Node425 -->
<g id="node23" class="node"><title>Node425</title>
<g id="a_node23"><a xlink:href="structGCS__MAVLINK.html#ad02c83895334e008e3c2f454a616893e" target="_top" xlink:title=" ">
<polygon fill="white" stroke="black" points="870.009,-141 870.009,-173 991.991,-173 991.991,-141 870.009,-141"/>
<text text-anchor="start" x="878.009" y="-159" font-family="Helvetica,sans-Serif" font-size="10.00">GCS_MAVLINK::handle</text>
<text text-anchor="middle" x="931" y="-147" font-family="Helvetica,sans-Serif" font-size="10.00">_set_gps_global_origin</text>
</a>
</g>
</g>
<!-- Node424&#45;&gt;Node425 -->
<g id="edge23" class="edge"><title>Node424&#45;&gt;Node425</title>
<path fill="none" stroke="midnightblue" d="M1219.29,-157C1152.72,-157 1054.74,-157 992.156,-157"/>
<polygon fill="midnightblue" stroke="midnightblue" points="1219.69,-160.5 1229.69,-157 1219.69,-153.5 1219.69,-160.5"/>
</g>
<!-- Node426 -->
<g id="node24" class="node"><title>Node426</title>
<g id="a_node24"><a xlink:href="structGCS__MAVLINK.html#a13da94a2548ade6552a5250eb3251e89" target="_top" xlink:title=" ">
<polygon fill="white" stroke="black" points="710.009,-116 710.009,-148 831.991,-148 831.991,-116 710.009,-116"/>
<text text-anchor="start" x="718.009" y="-134" font-family="Helvetica,sans-Serif" font-size="10.00">GCS_MAVLINK::handle</text>
<text text-anchor="middle" x="771" y="-122" font-family="Helvetica,sans-Serif" font-size="10.00">_common_message</text>
</a>
</g>
</g>
<!-- Node425&#45;&gt;Node426 -->
<g id="edge24" class="edge"><title>Node425&#45;&gt;Node426</title>
<path fill="none" stroke="midnightblue" d="M859.834,-145.898C850.553,-144.429 841.106,-142.935 832.016,-141.496"/>
<polygon fill="midnightblue" stroke="midnightblue" points="859.392,-149.371 869.816,-147.477 860.486,-142.457 859.392,-149.371"/>
</g>
<!-- Node428 -->
<g id="node26" class="node"><title>Node428</title>
<g id="a_node26"><a xlink:href="structGCS__MAVLINK.html#a29e2941413d50ab63cd70f5beadef19a" target="_top" xlink:title=" ">
<polygon fill="white" stroke="black" points="1040.52,-90 1040.52,-122 1165.48,-122 1165.48,-90 1040.52,-90"/>
<text text-anchor="start" x="1048.52" y="-108" font-family="Helvetica,sans-Serif" font-size="10.00">GCS_MAVLINK::handle</text>
<text text-anchor="middle" x="1103" y="-96" font-family="Helvetica,sans-Serif" font-size="10.00">_command_long_packet</text>
</a>
</g>
</g>
<!-- Node427&#45;&gt;Node428 -->
<g id="edge26" class="edge"><title>Node427&#45;&gt;Node428</title>
<path fill="none" stroke="midnightblue" d="M1203.86,-106C1190.98,-106 1177.95,-106 1165.73,-106"/>
<polygon fill="midnightblue" stroke="midnightblue" points="1204.13,-109.5 1214.13,-106 1204.13,-102.5 1204.13,-109.5"/>
</g>
<!-- Node429 -->
<g id="node27" class="node"><title>Node429</title>
<g id="a_node27"><a xlink:href="structGCS__MAVLINK.html#abc79cdd8393234b66f2e8217a527f8f9" target="_top" xlink:title=" ">
<polygon fill="white" stroke="black" points="870.009,-90 870.009,-122 991.991,-122 991.991,-90 870.009,-90"/>
<text text-anchor="start" x="878.009" y="-108" font-family="Helvetica,sans-Serif" font-size="10.00">GCS_MAVLINK::handle</text>
<text text-anchor="middle" x="931" y="-96" font-family="Helvetica,sans-Serif" font-size="10.00">_command_long</text>
</a>
</g>
</g>
<!-- Node428&#45;&gt;Node429 -->
<g id="edge27" class="edge"><title>Node428&#45;&gt;Node429</title>
<path fill="none" stroke="midnightblue" d="M1030.1,-106C1017.45,-106 1004.4,-106 992.105,-106"/>
<polygon fill="midnightblue" stroke="midnightblue" points="1030.15,-109.5 1040.15,-106 1030.15,-102.5 1030.15,-109.5"/>
</g>
<!-- Node429&#45;&gt;Node426 -->
<g id="edge28" class="edge"><title>Node429&#45;&gt;Node426</title>
<path fill="none" stroke="midnightblue" d="M859.834,-117.546C850.553,-119.074 841.106,-120.628 832.016,-122.124"/>
<polygon fill="midnightblue" stroke="midnightblue" points="860.517,-120.981 869.816,-115.904 859.381,-114.074 860.517,-120.981"/>
</g>
<!-- Node431 -->
<g id="node29" class="node"><title>Node431</title>
<g id="a_node29"><a xlink:href="classAP__ParamT.html#a62b1304c3772c44d2ec6f89539783eb3" target="_top" xlink:title=" ">
<polygon fill="white" stroke="black" points="1588.75,-90 1588.75,-122 1699.25,-122 1699.25,-90 1588.75,-90"/>
<text text-anchor="start" x="1596.75" y="-108" font-family="Helvetica,sans-Serif" font-size="10.00">AP_ParamT::set_and</text>
<text text-anchor="middle" x="1644" y="-96" font-family="Helvetica,sans-Serif" font-size="10.00">_notify</text>
</a>
</g>
</g>
<!-- Node430&#45;&gt;Node431 -->
<g id="edge30" class="edge"><title>Node430&#45;&gt;Node431</title>
<path fill="none" stroke="midnightblue" d="M1756.8,-81.2292C1738.36,-85.3152 1717.83,-89.8641 1699.44,-93.9374"/>
<polygon fill="midnightblue" stroke="midnightblue" points="1757.8,-84.5931 1766.81,-79.0127 1756.29,-77.7588 1757.8,-84.5931"/>
</g>
<!-- Node432 -->
<g id="node30" class="node"><title>Node432</title>
<g id="a_node30"><a xlink:href="classAP__ParamV.html#ae08489200f14ff69e81f561f7faf47c5" target="_top" xlink:title=" ">
<polygon fill="white" stroke="black" points="1588.1,-39 1588.1,-71 1699.9,-71 1699.9,-39 1588.1,-39"/>
<text text-anchor="start" x="1596.1" y="-57" font-family="Helvetica,sans-Serif" font-size="10.00">AP_ParamV::set_and</text>
<text text-anchor="middle" x="1644" y="-45" font-family="Helvetica,sans-Serif" font-size="10.00">_notify</text>
</a>
</g>
</g>
<!-- Node430&#45;&gt;Node432 -->
<g id="edge31" class="edge"><title>Node430&#45;&gt;Node432</title>
<path fill="none" stroke="midnightblue" d="M1755.88,-64.2949C1737.9,-62.788 1718.02,-61.1216 1700.12,-59.6207"/>
<polygon fill="midnightblue" stroke="midnightblue" points="1755.67,-67.7897 1765.92,-65.1374 1756.25,-60.8141 1755.67,-67.7897"/>
</g>
<!-- Node434 -->
<g id="node32" class="node"><title>Node434</title>
<g id="a_node32"><a xlink:href="classAP__Param.html#a9c137901874e840a3e6e593e51bb53cd" target="_top" xlink:title=" ">
<polygon fill="white" stroke="black" points="1572.35,-0 1572.35,-20 1715.65,-20 1715.65,-0 1572.35,-0"/>
<text text-anchor="middle" x="1644" y="-6" font-family="Helvetica,sans-Serif" font-size="10.00">AP_Param::save_io_handler</text>
</a>
</g>
</g>
<!-- Node433&#45;&gt;Node434 -->
<g id="edge33" class="edge"><title>Node433&#45;&gt;Node434</title>
<path fill="none" stroke="midnightblue" d="M1744.07,-20.0854C1734.75,-19.1366 1725.16,-18.1604 1715.79,-17.2065"/>
<polygon fill="midnightblue" stroke="midnightblue" points="1743.76,-23.5711 1754.06,-21.1019 1744.47,-16.6071 1743.76,-23.5711"/>
</g>
<!-- Node435 -->
<g id="node33" class="node"><title>Node435</title>
<g id="a_node33"><a xlink:href="classAP__Param.html#afee4aee9498a8f9cbeb665a0016c4e11" target="_top" xlink:title=" ">
<polygon fill="white" stroke="black" points="1418.81,-0 1418.81,-20 1523.19,-20 1523.19,-0 1418.81,-0"/>
<text text-anchor="middle" x="1471" y="-6" font-family="Helvetica,sans-Serif" font-size="10.00">AP_Param::load_all</text>
</a>
</g>
</g>
<!-- Node434&#45;&gt;Node435 -->
<g id="edge34" class="edge"><title>Node434&#45;&gt;Node435</title>
<path fill="none" stroke="midnightblue" d="M1561.94,-10C1548.77,-10 1535.46,-10 1523.27,-10"/>
<polygon fill="midnightblue" stroke="midnightblue" points="1561.97,-13.5001 1571.97,-10 1561.97,-6.5001 1561.97,-13.5001"/>
</g>
</g>
</svg>
        <g id="navigator" transform="translate(0 0)" fill="#404254">
                <rect fill="#f2f5e9" fill-opacity="0.5" stroke="#606060" stroke-width=".5" x="0" y="0" width="60" height="60"/>
                <use id="zoomplus" xlink:href="#zoomPlus" x="17" y="9" onmousedown="handleZoom(evt,'in')"/>
                <use id="zoomminus" xlink:href="#zoomMin" x="42" y="9" onmousedown="handleZoom(evt,'out')"/>
                <use id="reset" xlink:href="#resetDef" x="30" y="36" onmousedown="handleReset()"/>
                <g id="arrowUp" xlink:href="#dirArrow" transform="translate(30 24)" onmousedown="handlePan(0,-1)">
                  <use xlink:href="#rim" fill="#404040">
                        <set attributeName="fill" to="#808080" begin="arrowUp.mouseover" end="arrowUp.mouseout"/>
                  </use>
                  <path fill="none" stroke="white" stroke-width="1.5" d="M0,-3.0v7 M-2.5,-0.5L0,-3.0L2.5,-0.5"/>
                </g>
                <g id="arrowRight" xlink:href="#dirArrow" transform="rotate(90) translate(36 -43)" onmousedown="handlePan(1,0)">
                  <use xlink:href="#rim" fill="#404040">
                        <set attributeName="fill" to="#808080" begin="arrowRight.mouseover" end="arrowRight.mouseout"/>
                  </use>
                  <path fill="none" stroke="white" stroke-width="1.5" d="M0,-3.0v7 M-2.5,-0.5L0,-3.0L2.5,-0.5"/>
                </g>
                <g id="arrowDown" xlink:href="#dirArrow" transform="rotate(180) translate(-30 -48)" onmousedown="handlePan(0,1)">
                  <use xlink:href="#rim" fill="#404040">
                        <set attributeName="fill" to="#808080" begin="arrowDown.mouseover" end="arrowDown.mouseout"/>
                  </use>
                  <path fill="none" stroke="white" stroke-width="1.5" d="M0,-3.0v7 M-2.5,-0.5L0,-3.0L2.5,-0.5"/>
                </g>
                <g id="arrowLeft" xlink:href="#dirArrow" transform="rotate(270) translate(-36 17)" onmousedown="handlePan(-1,0)">
                  <use xlink:href="#rim" fill="#404040">
                        <set attributeName="fill" to="#808080" begin="arrowLeft.mouseover" end="arrowLeft.mouseout"/>
                  </use>
                  <path fill="none" stroke="white" stroke-width="1.5" d="M0,-3.0v7 M-2.5,-0.5L0,-3.0L2.5,-0.5"/>
                </g>
        </g>
        <svg viewBox="0 0 15 15" width="100%" height="30px" preserveAspectRatio="xMaxYMin meet">
         <g id="arrow_out" transform="scale(0.3 0.3)">
          <a xlink:href="classAP__Param_a7ea9a0b102caf76cfcf7b7c6b39d26b2_icgraph_org.svg" target="_base">
           <rect id="button" ry="5" rx="5" y="6" x="6" height="38" width="38"
                fill="#f2f5e9" fill-opacity="0.5" stroke="#606060" stroke-width="1.0"/>
           <path id="arrow"
             d="M 11.500037,31.436501 C 11.940474,20.09759 22.043105,11.32322 32.158766,21.979434 L 37.068811,17.246167 C 37.068811,17.246167 37.088388,32 37.088388,32 L 22.160133,31.978069 C 22.160133,31.978069 26.997745,27.140456 26.997745,27.140456 C 18.528582,18.264221 13.291696,25.230495 11.500037,31.436501 z"
             style="fill:#404040;"/>
          </a>
         </g>
        </svg>
</svg>
