<?xml version="1.0" encoding="UTF-8" standalone="no"?>
<!DOCTYPE svg PUBLIC "-//W3C//DTD SVG 1.1//EN"
 "http://www.w3.org/Graphics/SVG/1.1/DTD/svg11.dtd">
<!-- Generated by graphviz version 2.30.1 (20130221.2233)
 -->
<!-- Title: ConsoleDevice::write Pages: 1 -->
<!--zoomable 145 -->
<svg id="main" version="1.1" xmlns="http://www.w3.org/2000/svg" xmlns:xlink="http://www.w3.org/1999/xlink" xml:space="preserve" onload="init(evt)">
<style type="text/css"><![CDATA[
.edge:hover path { stroke: red; }
.edge:hover polygon { stroke: red; fill: red; }
]]></style>
<script type="text/javascript"><![CDATA[
var edges = document.getElementsByTagName('g');
if (edges && edges.length) {
  for (var i=0;i<edges.length;i++) {
    if (edges[i].id.substr(0,4)=='edge') {
      edges[i].setAttribute('class','edge');
    }
  }
}
]]></script>
        <defs>
                <circle id="rim" cx="0" cy="0" r="7"/>
                <circle id="rim2" cx="0" cy="0" r="3.5"/>
                <g id="zoomPlus">
                        <use xlink:href="#rim" fill="#404040">
                                <set attributeName="fill" to="#808080" begin="zoomplus.mouseover" end="zoomplus.mouseout"/>
                        </use>
                        <path d="M-4,0h8M0,-4v8" fill="none" stroke="white" stroke-width="1.5" pointer-events="none"/>
                </g>
                <g id="zoomMin">
                        <use xlink:href="#rim" fill="#404040">
                                <set attributeName="fill" to="#808080" begin="zoomminus.mouseover" end="zoomminus.mouseout"/>
                        </use>
                        <path d="M-4,0h8" fill="none" stroke="white" stroke-width="1.5" pointer-events="none"/>
                </g>
                <g id="dirArrow">
                        <path fill="none" stroke="white" stroke-width="1.5" d="M0,-3.0v7 M-2.5,-0.5L0,-3.0L2.5,-0.5"/>
                </g>
               <g id="resetDef">
                       <use xlink:href="#rim2" fill="#404040">
                               <set attributeName="fill" to="#808080" begin="reset.mouseover" end="reset.mouseout"/>
                       </use>
               </g>
        </defs>

<script type="text/javascript">
var viewWidth = 546;
var viewHeight = 145;
var sectionId = 'dynsection-8';
</script>
<script xlink:href="svgpan.js"/>
<svg id="graph" class="graph">
<g id="viewport">
<title>ConsoleDevice::write</title>
<polygon fill="white" stroke="white" points="-4,5 -4,-141.419 543,-141.419 543,5 -4,5"/>
<!-- Node30 -->
<g id="node1" class="node"><title>Node30</title>
<g id="a_node1"><a xlink:title=" ">
<polygon fill="#bfbfbf" stroke="black" points="0.0371094,-45.6593 0.0371094,-65.6593 109.963,-65.6593 109.963,-45.6593 0.0371094,-45.6593"/>
<text text-anchor="middle" x="55" y="-51.6593" font-family="Helvetica,sans-Serif" font-size="10.00">ConsoleDevice::write</text>
</a>
</g>
</g>
<!-- Node31 -->
<g id="node2" class="node"><title>Node31</title>
<g id="a_node2"><a xlink:href="posix_8c.html#abb39b21888372e95ad3e5c59b166f5c8" target="_top" xlink:title="POSIX Write count bytes from *buf to fileno fd.">
<polygon fill="white" stroke="black" points="146.443,-45.6593 146.443,-65.6593 183.557,-65.6593 183.557,-45.6593 146.443,-45.6593"/>
<text text-anchor="middle" x="165" y="-51.6593" font-family="Helvetica,sans-Serif" font-size="10.00">write</text>
</a>
</g>
</g>
<!-- Node30&#45;&gt;Node31 -->
<g id="edge1" class="edge"><title>Node30&#45;&gt;Node31</title>
<path fill="none" stroke="midnightblue" d="M110,-55.6593C118.991,-55.6593 127.982,-55.6593 135.977,-55.6593"/>
<polygon fill="midnightblue" stroke="midnightblue" points="136.166,-59.1594 146.166,-55.6593 136.166,-52.1594 136.166,-59.1594"/>
</g>
<!-- Node32 -->
<g id="node3" class="node"><title>Node32</title>
<g id="a_node3"><a xlink:href="posix_8c.html#ae0821388c321f66b16fbca4a625022de" target="_top" xlink:title="Convert POSIX fileno to POSIX FILE stream pointer. NOT POSIX.">
<polygon fill="white" stroke="black" points="334.035,-65.6593 334.035,-85.6593 423.965,-85.6593 423.965,-65.6593 334.035,-65.6593"/>
<text text-anchor="middle" x="379" y="-71.6593" font-family="Helvetica,sans-Serif" font-size="10.00">fileno_to_stream</text>
</a>
</g>
</g>
<!-- Node31&#45;&gt;Node32 -->
<g id="edge2" class="edge"><title>Node31&#45;&gt;Node32</title>
<path fill="none" stroke="midnightblue" d="M183.71,-57.3301C214.149,-60.2017 277.558,-66.1837 323.682,-70.535"/>
<polygon fill="midnightblue" stroke="midnightblue" points="323.544,-74.0375 333.829,-71.4922 324.202,-67.0684 323.544,-74.0375"/>
</g>
<!-- Node34 -->
<g id="node5" class="node"><title>Node34</title>
<g id="a_node5"><a xlink:href="posix_8c.html#abe6299d5823dd023e610aaa619735a3f" target="_top" xlink:title="Put a byte to TTY device or FatFs file stream open() or fopen() sets stream&#45;&gt;put = fatfs_outc() for F...">
<polygon fill="white" stroke="black" points="240.16,-26.6593 240.16,-46.6593 277.84,-46.6593 277.84,-26.6593 240.16,-26.6593"/>
<text text-anchor="middle" x="259" y="-32.6593" font-family="Helvetica,sans-Serif" font-size="10.00">fputc</text>
</a>
</g>
</g>
<!-- Node31&#45;&gt;Node34 -->
<g id="edge4" class="edge"><title>Node31&#45;&gt;Node34</title>
<path fill="none" stroke="midnightblue" d="M183.739,-51.9959C196.89,-49.2798 215.074,-45.5245 230.156,-42.4097"/>
<polygon fill="midnightblue" stroke="midnightblue" points="230.917,-45.8266 240.002,-40.3763 229.501,-38.9712 230.917,-45.8266"/>
</g>
<!-- Node37 -->
<g id="node8" class="node"><title>Node37</title>
<g id="a_node8"><a xlink:href="posix_8c.html#a1eeda4d85cf3cae5cf1ee8c1e196a686" target="_top" xlink:title="Convert POSIX fileno to FatFS handle NOT POSIX.">
<polygon fill="white" stroke="black" points="219.867,-104.659 219.867,-124.659 298.133,-124.659 298.133,-104.659 219.867,-104.659"/>
<text text-anchor="middle" x="259" y="-110.659" font-family="Helvetica,sans-Serif" font-size="10.00">fileno_to_fatfs</text>
</a>
</g>
</g>
<!-- Node31&#45;&gt;Node37 -->
<g id="edge7" class="edge"><title>Node31&#45;&gt;Node37</title>
<path fill="none" stroke="midnightblue" d="M181.607,-65.6679C195.881,-74.822 217.223,-88.5086 233.723,-99.0907"/>
<polygon fill="midnightblue" stroke="midnightblue" points="232.01,-102.15 242.317,-104.602 235.789,-96.2571 232.01,-102.15"/>
</g>
<!-- Node36 -->
<g id="node7" class="node"><title>Node36</title>
<g id="a_node7"><a xlink:href="posix_8c.html#aeb68afd2fdf966f8d89cc7aaa9aa7c23" target="_top" xlink:title="Convert FafFs error result to POSIX errno. NOT POSIX.">
<polygon fill="white" stroke="black" points="460.148,-7.65932 460.148,-27.6593 537.852,-27.6593 537.852,-7.65932 460.148,-7.65932"/>
<text text-anchor="middle" x="499" y="-13.6593" font-family="Helvetica,sans-Serif" font-size="10.00">fatfs_to_errno</text>
</a>
</g>
</g>
<!-- Node31&#45;&gt;Node36 -->
<g id="edge12" class="edge"><title>Node31&#45;&gt;Node36</title>
<path fill="none" stroke="midnightblue" d="M176.038,-45.3607C186.12,-35.8193 202.615,-22.281 220,-16.6593 297.386,8.36368 393.348,0.0106672 449.901,-8.62117"/>
<polygon fill="midnightblue" stroke="midnightblue" points="449.562,-12.1113 459.989,-10.2282 450.664,-5.19846 449.562,-12.1113"/>
</g>
<!-- Node33 -->
<g id="node4" class="node"><title>Node33</title>
<g id="a_node4"><a xlink:href="posix_8c.html#af86fa14728c9bad5418a6d29cad9f9ff" target="_top" xlink:title="Convert POSIX stream pointer to POSIX fileno (index of __iob[])">
<polygon fill="white" stroke="black" points="479.047,-104.659 479.047,-124.659 518.953,-124.659 518.953,-104.659 479.047,-104.659"/>
<text text-anchor="middle" x="499" y="-110.659" font-family="Helvetica,sans-Serif" font-size="10.00">fileno</text>
</a>
</g>
</g>
<!-- Node32&#45;&gt;Node33 -->
<g id="edge3" class="edge"><title>Node32&#45;&gt;Node33</title>
<path fill="none" stroke="midnightblue" d="M410.388,-85.7028C428.51,-91.6924 451.385,-99.2527 469.216,-105.146"/>
<polygon fill="midnightblue" stroke="midnightblue" points="468.206,-108.498 478.799,-108.313 470.403,-101.852 468.206,-108.498"/>
</g>
<!-- Node35 -->
<g id="node6" class="node"><title>Node35</title>
<g id="a_node6"><a xlink:href="posix_8c.html#a90d998e82aa4f903a1570c0c48aeae59" target="_top" xlink:title="Private FatFs function called by fputc() to put a byte from file stream NOT POSIX open() assigns stre...">
<polygon fill="white" stroke="black" points="349.32,-26.6593 349.32,-46.6593 408.68,-46.6593 408.68,-26.6593 349.32,-26.6593"/>
<text text-anchor="middle" x="379" y="-32.6593" font-family="Helvetica,sans-Serif" font-size="10.00">fatfs_putc</text>
</a>
</g>
</g>
<!-- Node34&#45;&gt;Node35 -->
<g id="edge5" class="edge"><title>Node34&#45;&gt;Node35</title>
<path fill="none" stroke="midnightblue" d="M277.922,-36.6593C294.027,-36.6593 318.239,-36.6593 338.814,-36.6593"/>
<polygon fill="midnightblue" stroke="midnightblue" points="338.874,-40.1594 348.874,-36.6593 338.874,-33.1594 338.874,-40.1594"/>
</g>
<!-- Node35&#45;&gt;Node36 -->
<g id="edge6" class="edge"><title>Node35&#45;&gt;Node36</title>
<path fill="none" stroke="midnightblue" d="M408.866,-32.0114C421.274,-30.0135 436.113,-27.6241 450.091,-25.3735"/>
<polygon fill="midnightblue" stroke="midnightblue" points="450.753,-28.8121 460.069,-23.7668 449.64,-21.9011 450.753,-28.8121"/>
</g>
<!-- Node38 -->
<g id="node9" class="node"><title>Node38</title>
<g id="a_node9"><a xlink:href="posix_8c.html#aeac589354c9d47c7d9c7c49ba4b0d266" target="_top" xlink:title="Test POSIX fileno if it is a Serial Console/TTY.">
<polygon fill="white" stroke="black" points="359.33,-104.659 359.33,-124.659 398.67,-124.659 398.67,-104.659 359.33,-104.659"/>
<text text-anchor="middle" x="379" y="-110.659" font-family="Helvetica,sans-Serif" font-size="10.00">isatty</text>
</a>
</g>
</g>
<!-- Node37&#45;&gt;Node38 -->
<g id="edge8" class="edge"><title>Node37&#45;&gt;Node38</title>
<path fill="none" stroke="midnightblue" d="M298.311,-114.659C314.665,-114.659 333.447,-114.659 348.668,-114.659"/>
<polygon fill="midnightblue" stroke="midnightblue" points="349.036,-118.159 359.036,-114.659 349.036,-111.159 349.036,-118.159"/>
</g>
<!-- Node37&#45;&gt;Node33 -->
<g id="edge10" class="edge"><title>Node37&#45;&gt;Node33</title>
<path fill="none" stroke="midnightblue" d="M291.714,-124.668C304.682,-128.269 319.92,-131.881 334,-133.659 373.685,-138.673 384.315,-138.673 424,-133.659 439.1,-131.752 455.532,-127.737 469.067,-123.887"/>
<polygon fill="midnightblue" stroke="midnightblue" points="470.186,-127.206 478.782,-121.013 468.2,-120.493 470.186,-127.206"/>
</g>
<!-- Node37&#45;&gt;Node32 -->
<g id="edge11" class="edge"><title>Node37&#45;&gt;Node32</title>
<path fill="none" stroke="midnightblue" d="M290.388,-104.616C304.84,-99.8393 322.314,-94.0639 337.843,-88.9316"/>
<polygon fill="midnightblue" stroke="midnightblue" points="339.319,-92.1301 347.715,-85.6688 337.122,-85.4837 339.319,-92.1301"/>
</g>
<!-- Node38&#45;&gt;Node33 -->
<g id="edge9" class="edge"><title>Node38&#45;&gt;Node33</title>
<path fill="none" stroke="midnightblue" d="M398.697,-114.659C417.574,-114.659 446.993,-114.659 468.918,-114.659"/>
<polygon fill="midnightblue" stroke="midnightblue" points="468.999,-118.159 478.999,-114.659 468.999,-111.159 468.999,-118.159"/>
</g>
</g>
</svg>
        <g id="navigator" transform="translate(0 0)" fill="#404254">
                <rect fill="#f2f5e9" fill-opacity="0.5" stroke="#606060" stroke-width=".5" x="0" y="0" width="60" height="60"/>
                <use id="zoomplus" xlink:href="#zoomPlus" x="17" y="9" onmousedown="handleZoom(evt,'in')"/>
                <use id="zoomminus" xlink:href="#zoomMin" x="42" y="9" onmousedown="handleZoom(evt,'out')"/>
                <use id="reset" xlink:href="#resetDef" x="30" y="36" onmousedown="handleReset()"/>
                <g id="arrowUp" xlink:href="#dirArrow" transform="translate(30 24)" onmousedown="handlePan(0,-1)">
                  <use xlink:href="#rim" fill="#404040">
                        <set attributeName="fill" to="#808080" begin="arrowUp.mouseover" end="arrowUp.mouseout"/>
                  </use>
                  <path fill="none" stroke="white" stroke-width="1.5" d="M0,-3.0v7 M-2.5,-0.5L0,-3.0L2.5,-0.5"/>
                </g>
                <g id="arrowRight" xlink:href="#dirArrow" transform="rotate(90) translate(36 -43)" onmousedown="handlePan(1,0)">
                  <use xlink:href="#rim" fill="#404040">
                        <set attributeName="fill" to="#808080" begin="arrowRight.mouseover" end="arrowRight.mouseout"/>
                  </use>
                  <path fill="none" stroke="white" stroke-width="1.5" d="M0,-3.0v7 M-2.5,-0.5L0,-3.0L2.5,-0.5"/>
                </g>
                <g id="arrowDown" xlink:href="#dirArrow" transform="rotate(180) translate(-30 -48)" onmousedown="handlePan(0,1)">
                  <use xlink:href="#rim" fill="#404040">
                        <set attributeName="fill" to="#808080" begin="arrowDown.mouseover" end="arrowDown.mouseout"/>
                  </use>
                  <path fill="none" stroke="white" stroke-width="1.5" d="M0,-3.0v7 M-2.5,-0.5L0,-3.0L2.5,-0.5"/>
                </g>
                <g id="arrowLeft" xlink:href="#dirArrow" transform="rotate(270) translate(-36 17)" onmousedown="handlePan(-1,0)">
                  <use xlink:href="#rim" fill="#404040">
                        <set attributeName="fill" to="#808080" begin="arrowLeft.mouseover" end="arrowLeft.mouseout"/>
                  </use>
                  <path fill="none" stroke="white" stroke-width="1.5" d="M0,-3.0v7 M-2.5,-0.5L0,-3.0L2.5,-0.5"/>
                </g>
        </g>
        <svg viewBox="0 0 15 15" width="100%" height="30px" preserveAspectRatio="xMaxYMin meet">
         <g id="arrow_out" transform="scale(0.3 0.3)">
          <a xlink:href="classConsoleDevice_ac921d74239b9d8d17cbe6523d8b49859_cgraph_org.svg" target="_base">
           <rect id="button" ry="5" rx="5" y="6" x="6" height="38" width="38"
                fill="#f2f5e9" fill-opacity="0.5" stroke="#606060" stroke-width="1.0"/>
           <path id="arrow"
             d="M 11.500037,31.436501 C 11.940474,20.09759 22.043105,11.32322 32.158766,21.979434 L 37.068811,17.246167 C 37.068811,17.246167 37.088388,32 37.088388,32 L 22.160133,31.978069 C 22.160133,31.978069 26.997745,27.140456 26.997745,27.140456 C 18.528582,18.264221 13.291696,25.230495 11.500037,31.436501 z"
             style="fill:#404040;"/>
          </a>
         </g>
        </svg>
</svg>
