<?xml version="1.0" encoding="UTF-8" standalone="no"?>
<!DOCTYPE svg PUBLIC "-//W3C//DTD SVG 1.1//EN"
 "http://www.w3.org/Graphics/SVG/1.1/DTD/svg11.dtd">
<!-- Generated by graphviz version 2.30.1 (20130221.2233)
 -->
<!-- Title: NavEKF3_core::ConstrainStates Pages: 1 -->
<!--zoomable 96 -->
<svg id="main" version="1.1" xmlns="http://www.w3.org/2000/svg" xmlns:xlink="http://www.w3.org/1999/xlink" xml:space="preserve" onload="init(evt)">
<style type="text/css"><![CDATA[
.edge:hover path { stroke: red; }
.edge:hover polygon { stroke: red; fill: red; }
]]></style>
<script type="text/javascript"><![CDATA[
var edges = document.getElementsByTagName('g');
if (edges && edges.length) {
  for (var i=0;i<edges.length;i++) {
    if (edges[i].id.substr(0,4)=='edge') {
      edges[i].setAttribute('class','edge');
    }
  }
}
]]></script>
        <defs>
                <circle id="rim" cx="0" cy="0" r="7"/>
                <circle id="rim2" cx="0" cy="0" r="3.5"/>
                <g id="zoomPlus">
                        <use xlink:href="#rim" fill="#404040">
                                <set attributeName="fill" to="#808080" begin="zoomplus.mouseover" end="zoomplus.mouseout"/>
                        </use>
                        <path d="M-4,0h8M0,-4v8" fill="none" stroke="white" stroke-width="1.5" pointer-events="none"/>
                </g>
                <g id="zoomMin">
                        <use xlink:href="#rim" fill="#404040">
                                <set attributeName="fill" to="#808080" begin="zoomminus.mouseover" end="zoomminus.mouseout"/>
                        </use>
                        <path d="M-4,0h8" fill="none" stroke="white" stroke-width="1.5" pointer-events="none"/>
                </g>
                <g id="dirArrow">
                        <path fill="none" stroke="white" stroke-width="1.5" d="M0,-3.0v7 M-2.5,-0.5L0,-3.0L2.5,-0.5"/>
                </g>
               <g id="resetDef">
                       <use xlink:href="#rim2" fill="#404040">
                               <set attributeName="fill" to="#808080" begin="reset.mouseover" end="reset.mouseout"/>
                       </use>
               </g>
        </defs>

<script type="text/javascript">
var viewWidth = 830;
var viewHeight = 96;
var sectionId = 'dynsection-25';
</script>
<script xlink:href="svgpan.js"/>
<svg id="graph" class="graph">
<g id="viewport">
<title>NavEKF3_core::ConstrainStates</title>
<polygon fill="white" stroke="white" points="-4,5 -4,-92 827,-92 827,5 -4,5"/>
<!-- Node390 -->
<g id="node1" class="node"><title>Node390</title>
<g id="a_node1"><a xlink:title=" ">
<polygon fill="#bfbfbf" stroke="black" points="0.744141,-28 0.744141,-48 161.256,-48 161.256,-28 0.744141,-28"/>
<text text-anchor="middle" x="81" y="-34" font-family="Helvetica,sans-Serif" font-size="10.00">NavEKF3_core::ConstrainStates</text>
</a>
</g>
</g>
<!-- Node391 -->
<g id="node2" class="node"><title>Node391</title>
<g id="a_node2"><a xlink:href="AP__Math_8h.html#ad525609d9dba6ffa556a0fbf08a3f9b4" target="_top" xlink:title=" ">
<polygon fill="white" stroke="black" points="198.48,-48 198.48,-68 279.52,-68 279.52,-48 198.48,-48"/>
<text text-anchor="middle" x="239" y="-54" font-family="Helvetica,sans-Serif" font-size="10.00">constrain_float</text>
</a>
</g>
</g>
<!-- Node390&#45;&gt;Node391 -->
<g id="edge1" class="edge"><title>Node390&#45;&gt;Node391</title>
<path fill="none" stroke="midnightblue" d="M160.457,-48.0586C169.837,-49.2611 179.208,-50.4625 188.027,-51.5933"/>
<polygon fill="midnightblue" stroke="midnightblue" points="187.731,-55.0838 198.095,-52.884 188.621,-48.1407 187.731,-55.0838"/>
</g>
<!-- Node398 -->
<g id="node9" class="node"><title>Node398</title>
<g id="a_node9"><a xlink:href="AP__Math_8h.html#a5abc8871f1e7781a55afe9bf299f0a39" target="_top" xlink:title=" ">
<polygon fill="white" stroke="black" points="220.165,-9 220.165,-29 257.835,-29 257.835,-9 220.165,-9"/>
<text text-anchor="middle" x="239" y="-15" font-family="Helvetica,sans-Serif" font-size="10.00">MAX</text>
</a>
</g>
</g>
<!-- Node390&#45;&gt;Node398 -->
<g id="edge8" class="edge"><title>Node390&#45;&gt;Node398</title>
<path fill="none" stroke="midnightblue" d="M161.371,-28.333C178.713,-26.2208 195.965,-24.1196 209.696,-22.4472"/>
<polygon fill="midnightblue" stroke="midnightblue" points="210.385,-25.8894 219.888,-21.206 209.538,-18.9407 210.385,-25.8894"/>
</g>
<!-- Node392 -->
<g id="node3" class="node"><title>Node392</title>
<g id="a_node3"><a xlink:href="AP__Math_8h.html#a20e8f8671c282c69c1954652b6d61585" target="_top" xlink:title=" ">
<polygon fill="white" stroke="black" points="315.978,-48 315.978,-68 402.022,-68 402.022,-48 315.978,-48"/>
<text text-anchor="middle" x="359" y="-54" font-family="Helvetica,sans-Serif" font-size="10.00">constrain_value</text>
</a>
</g>
</g>
<!-- Node391&#45;&gt;Node392 -->
<g id="edge2" class="edge"><title>Node391&#45;&gt;Node392</title>
<path fill="none" stroke="midnightblue" d="M279.621,-58C287.994,-58 296.953,-58 305.712,-58"/>
<polygon fill="midnightblue" stroke="midnightblue" points="305.856,-61.5001 315.856,-58 305.856,-54.5001 305.856,-61.5001"/>
</g>
<!-- Node393 -->
<g id="node4" class="node"><title>Node393</title>
<g id="a_node4"><a xlink:href="namespaceAP.html#afceb236ff617aaaa2b08afacd72532b0" target="_top" xlink:title=" ">
<polygon fill="white" stroke="black" points="452.596,-68 452.596,-88 541.404,-88 541.404,-68 452.596,-68"/>
<text text-anchor="middle" x="497" y="-74" font-family="Helvetica,sans-Serif" font-size="10.00">AP::internalerror</text>
</a>
</g>
</g>
<!-- Node392&#45;&gt;Node393 -->
<g id="edge3" class="edge"><title>Node392&#45;&gt;Node393</title>
<path fill="none" stroke="midnightblue" d="M402.286,-64.2185C414.962,-66.0826 429.035,-68.1523 442.342,-70.1091"/>
<polygon fill="midnightblue" stroke="midnightblue" points="441.929,-73.5859 452.331,-71.5782 442.947,-66.6604 441.929,-73.5859"/>
</g>
<!-- Node394 -->
<g id="node5" class="node"><title>Node394</title>
<g id="a_node5"><a xlink:href="classAP__InternalError.html#ab34174ba770b976b39a18c2b23e854f2" target="_top" xlink:title=" ">
<polygon fill="white" stroke="black" points="438.426,-29 438.426,-49 555.574,-49 555.574,-29 438.426,-29"/>
<text text-anchor="middle" x="497" y="-35" font-family="Helvetica,sans-Serif" font-size="10.00">AP_InternalError::error</text>
</a>
</g>
</g>
<!-- Node392&#45;&gt;Node394 -->
<g id="edge4" class="edge"><title>Node392&#45;&gt;Node394</title>
<path fill="none" stroke="midnightblue" d="M402.286,-52.0924C410.557,-50.9369 419.424,-49.6981 428.284,-48.4603"/>
<polygon fill="midnightblue" stroke="midnightblue" points="428.833,-51.9177 438.253,-47.0676 427.865,-44.985 428.833,-51.9177"/>
</g>
<!-- Node395 -->
<g id="node6" class="node"><title>Node395</title>
<g id="a_node6"><a xlink:href="namespaceAP__HAL.html#a71832f03d849a0c088f04fc98d3c8143" target="_top" xlink:title=" ">
<polygon fill="white" stroke="black" points="592.091,-29 592.091,-49 675.909,-49 675.909,-29 592.091,-29"/>
<text text-anchor="middle" x="634" y="-35" font-family="Helvetica,sans-Serif" font-size="10.00">AP_HAL::panic</text>
</a>
</g>
</g>
<!-- Node394&#45;&gt;Node395 -->
<g id="edge5" class="edge"><title>Node394&#45;&gt;Node395</title>
<path fill="none" stroke="midnightblue" d="M555.644,-39C564.305,-39 573.188,-39 581.705,-39"/>
<polygon fill="midnightblue" stroke="midnightblue" points="581.873,-42.5001 591.873,-39 581.872,-35.5001 581.873,-42.5001"/>
</g>
<!-- Node396 -->
<g id="node7" class="node"><title>Node396</title>
<g id="a_node7"><a xlink:href="stdio_8h.html#aae132cc6af1eb6cf43bf011d8d63e854" target="_top" xlink:title=" ">
<polygon fill="white" stroke="black" points="745.384,-52 745.384,-72 788.616,-72 788.616,-52 745.384,-52"/>
<text text-anchor="middle" x="767" y="-58" font-family="Helvetica,sans-Serif" font-size="10.00">vprintf</text>
</a>
</g>
</g>
<!-- Node395&#45;&gt;Node396 -->
<g id="edge6" class="edge"><title>Node395&#45;&gt;Node396</title>
<path fill="none" stroke="midnightblue" d="M676.09,-46.2142C695.104,-49.5526 717.321,-53.4533 734.913,-56.542"/>
<polygon fill="midnightblue" stroke="midnightblue" points="734.744,-60.0658 745.199,-58.3478 735.954,-53.1712 734.744,-60.0658"/>
</g>
<!-- Node397 -->
<g id="node8" class="node"><title>Node397</title>
<g id="a_node8"><a xlink:href="classAP__HAL_1_1Scheduler.html#a78c4f1b1f192ac1c99544b6cc8f099b0" target="_top" xlink:title=" ">
<polygon fill="white" stroke="black" points="711.751,-1 711.751,-33 822.249,-33 822.249,-1 711.751,-1"/>
<text text-anchor="start" x="719.751" y="-19" font-family="Helvetica,sans-Serif" font-size="10.00">AP_HAL::Scheduler::</text>
<text text-anchor="middle" x="767" y="-7" font-family="Helvetica,sans-Serif" font-size="10.00">delay_microseconds</text>
</a>
</g>
</g>
<!-- Node395&#45;&gt;Node397 -->
<g id="edge7" class="edge"><title>Node395&#45;&gt;Node397</title>
<path fill="none" stroke="midnightblue" d="M676.09,-32.0994C684.18,-30.7408 692.849,-29.2849 701.495,-27.8329"/>
<polygon fill="midnightblue" stroke="midnightblue" points="702.316,-31.2441 711.599,-26.1361 701.157,-24.3407 702.316,-31.2441"/>
</g>
</g>
</svg>
        <g id="navigator" transform="translate(0 0)" fill="#404254">
                <rect fill="#f2f5e9" fill-opacity="0.5" stroke="#606060" stroke-width=".5" x="0" y="0" width="60" height="60"/>
                <use id="zoomplus" xlink:href="#zoomPlus" x="17" y="9" onmousedown="handleZoom(evt,'in')"/>
                <use id="zoomminus" xlink:href="#zoomMin" x="42" y="9" onmousedown="handleZoom(evt,'out')"/>
                <use id="reset" xlink:href="#resetDef" x="30" y="36" onmousedown="handleReset()"/>
                <g id="arrowUp" xlink:href="#dirArrow" transform="translate(30 24)" onmousedown="handlePan(0,-1)">
                  <use xlink:href="#rim" fill="#404040">
                        <set attributeName="fill" to="#808080" begin="arrowUp.mouseover" end="arrowUp.mouseout"/>
                  </use>
                  <path fill="none" stroke="white" stroke-width="1.5" d="M0,-3.0v7 M-2.5,-0.5L0,-3.0L2.5,-0.5"/>
                </g>
                <g id="arrowRight" xlink:href="#dirArrow" transform="rotate(90) translate(36 -43)" onmousedown="handlePan(1,0)">
                  <use xlink:href="#rim" fill="#404040">
                        <set attributeName="fill" to="#808080" begin="arrowRight.mouseover" end="arrowRight.mouseout"/>
                  </use>
                  <path fill="none" stroke="white" stroke-width="1.5" d="M0,-3.0v7 M-2.5,-0.5L0,-3.0L2.5,-0.5"/>
                </g>
                <g id="arrowDown" xlink:href="#dirArrow" transform="rotate(180) translate(-30 -48)" onmousedown="handlePan(0,1)">
                  <use xlink:href="#rim" fill="#404040">
                        <set attributeName="fill" to="#808080" begin="arrowDown.mouseover" end="arrowDown.mouseout"/>
                  </use>
                  <path fill="none" stroke="white" stroke-width="1.5" d="M0,-3.0v7 M-2.5,-0.5L0,-3.0L2.5,-0.5"/>
                </g>
                <g id="arrowLeft" xlink:href="#dirArrow" transform="rotate(270) translate(-36 17)" onmousedown="handlePan(-1,0)">
                  <use xlink:href="#rim" fill="#404040">
                        <set attributeName="fill" to="#808080" begin="arrowLeft.mouseover" end="arrowLeft.mouseout"/>
                  </use>
                  <path fill="none" stroke="white" stroke-width="1.5" d="M0,-3.0v7 M-2.5,-0.5L0,-3.0L2.5,-0.5"/>
                </g>
        </g>
        <svg viewBox="0 0 15 15" width="100%" height="30px" preserveAspectRatio="xMaxYMin meet">
         <g id="arrow_out" transform="scale(0.3 0.3)">
          <a xlink:href="classNavEKF3__core_ab3fc055c453339a59363ebaa1b082c0d_cgraph_org.svg" target="_base">
           <rect id="button" ry="5" rx="5" y="6" x="6" height="38" width="38"
                fill="#f2f5e9" fill-opacity="0.5" stroke="#606060" stroke-width="1.0"/>
           <path id="arrow"
             d="M 11.500037,31.436501 C 11.940474,20.09759 22.043105,11.32322 32.158766,21.979434 L 37.068811,17.246167 C 37.068811,17.246167 37.088388,32 37.088388,32 L 22.160133,31.978069 C 22.160133,31.978069 26.997745,27.140456 26.997745,27.140456 C 18.528582,18.264221 13.291696,25.230495 11.500037,31.436501 z"
             style="fill:#404040;"/>
          </a>
         </g>
        </svg>
</svg>
