<?xml version="1.0" encoding="UTF-8" standalone="no"?>
<!DOCTYPE svg PUBLIC "-//W3C//DTD SVG 1.1//EN"
 "http://www.w3.org/Graphics/SVG/1.1/DTD/svg11.dtd">
<!-- Generated by graphviz version 2.30.1 (20130221.2233)
 -->
<!-- Title: AP_Mount_Backend::set_angle_targets Pages: 1 -->
<svg width="282pt" height="85pt"
 viewBox="0.00 0.00 282.00 85.00" xmlns="http://www.w3.org/2000/svg" xmlns:xlink="http://www.w3.org/1999/xlink">
<g id="graph0" class="graph" transform="scale(1 1) rotate(0) translate(4 81)">
<title>AP_Mount_Backend::set_angle_targets</title>
<polygon fill="white" stroke="white" points="-4,5 -4,-81 279,-81 279,5 -4,5"/>
<!-- Node158 -->
<g id="node1" class="node"><title>Node158</title>
<g id="a_node1"><a xlink:title=" ">
<polygon fill="#bfbfbf" stroke="black" points="-0.0341797,-22 -0.0341797,-54 126.034,-54 126.034,-22 -0.0341797,-22"/>
<text text-anchor="start" x="7.96582" y="-40" font-family="Helvetica,sans-Serif" font-size="10.00">AP_Mount_Backend::set</text>
<text text-anchor="middle" x="63" y="-28" font-family="Helvetica,sans-Serif" font-size="10.00">_angle_targets</text>
</a>
</g>
</g>
<!-- Node159 -->
<g id="node2" class="node"><title>Node159</title>
<g id="a_node2"><a xlink:href="AP__Math_8h.html#a37d7c62a8231d9d22826261297b99da4" target="_top" xlink:title=" ">
<polygon fill="white" stroke="black" points="193.601,-57 193.601,-77 242.399,-77 242.399,-57 193.601,-57"/>
<text text-anchor="middle" x="218" y="-63" font-family="Helvetica,sans-Serif" font-size="10.00">radians</text>
</a>
</g>
</g>
<!-- Node158&#45;&gt;Node159 -->
<g id="edge1" class="edge"><title>Node158&#45;&gt;Node159</title>
<path fill="none" stroke="midnightblue" d="M126.231,-49.7954C145.826,-53.5094 166.715,-57.4689 183.508,-60.6519"/>
<polygon fill="midnightblue" stroke="midnightblue" points="182.91,-64.1008 193.387,-62.5244 184.214,-57.2233 182.91,-64.1008"/>
</g>
<!-- Node160 -->
<g id="node3" class="node"><title>Node160</title>
<g id="a_node3"><a xlink:href="classAP__Mount.html#a4510126670698c1b0b2d2066049ac28e" target="_top" xlink:title=" ">
<polygon fill="white" stroke="black" points="161.917,-0 161.917,-20 274.083,-20 274.083,-0 161.917,-0"/>
<text text-anchor="middle" x="218" y="-6" font-family="Helvetica,sans-Serif" font-size="10.00">AP_Mount::set_mode</text>
</a>
</g>
</g>
<!-- Node158&#45;&gt;Node160 -->
<g id="edge2" class="edge"><title>Node158&#45;&gt;Node160</title>
<path fill="none" stroke="midnightblue" d="M126.231,-26.6113C134.794,-25.0443 143.604,-23.432 152.211,-21.8568"/>
<polygon fill="midnightblue" stroke="midnightblue" points="152.989,-25.2726 162.196,-20.0296 151.729,-18.387 152.989,-25.2726"/>
</g>
<!-- Node160&#45;&gt;Node160 -->
<g id="edge3" class="edge"><title>Node160&#45;&gt;Node160</title>
<path fill="none" stroke="midnightblue" d="M193.891,-20.0477C182.893,-28.7715 190.93,-38 218,-38 235.342,-38 244.872,-34.2126 246.591,-29.1968"/>
<polygon fill="midnightblue" stroke="midnightblue" points="249.652,-27.4883 242.109,-20.0477 243.366,-30.5678 249.652,-27.4883"/>
</g>
</g>
</svg>
