<?xml version="1.0" encoding="UTF-8" standalone="no"?>
<!DOCTYPE svg PUBLIC "-//W3C//DTD SVG 1.1//EN"
 "http://www.w3.org/Graphics/SVG/1.1/DTD/svg11.dtd">
<!-- Generated by graphviz version 2.30.1 (20130221.2233)
 -->
<!-- Title: NavEKF3_core::getVariances Pages: 1 -->
<svg width="2234pt" height="258pt"
 viewBox="0.00 0.00 2234.00 258.00" xmlns="http://www.w3.org/2000/svg" xmlns:xlink="http://www.w3.org/1999/xlink">
<g id="graph0" class="graph" transform="scale(1 1) rotate(0) translate(4 254)">
<title>NavEKF3_core::getVariances</title>
<polygon fill="white" stroke="white" points="-4,5 -4,-254 2231,-254 2231,5 -4,5"/>
<!-- Node2020 -->
<g id="node1" class="node"><title>Node2020</title>
<g id="a_node1"><a xlink:title=" ">
<polygon fill="#bfbfbf" stroke="black" points="2078.5,-78 2078.5,-98 2225.5,-98 2225.5,-78 2078.5,-78"/>
<text text-anchor="middle" x="2152" y="-84" font-family="Helvetica,sans-Serif" font-size="10.00">NavEKF3_core::getVariances</text>
</a>
</g>
</g>
<!-- Node2021 -->
<g id="node2" class="node"><title>Node2021</title>
<g id="a_node2"><a xlink:href="classNavEKF3.html#a56088f979e7fb633b8cd9ad405402e90" target="_top" xlink:title=" ">
<polygon fill="white" stroke="black" points="1920.01,-102 1920.01,-122 2041.99,-122 2041.99,-102 1920.01,-102"/>
<text text-anchor="middle" x="1981" y="-108" font-family="Helvetica,sans-Serif" font-size="10.00">NavEKF3::getVariances</text>
</a>
</g>
</g>
<!-- Node2020&#45;&gt;Node2021 -->
<g id="edge1" class="edge"><title>Node2020&#45;&gt;Node2021</title>
<path fill="none" stroke="midnightblue" d="M2070.15,-99.4818C2060.75,-100.817 2051.28,-102.161 2042.22,-103.448"/>
<polygon fill="midnightblue" stroke="midnightblue" points="2070.9,-102.91 2080.31,-98.0391 2069.92,-95.98 2070.9,-102.91"/>
</g>
<!-- Node2026 -->
<g id="node7" class="node"><title>Node2026</title>
<g id="a_node7"><a xlink:href="classNavEKF3__core.html#a6732df851669314f8450dada21882e65" target="_top" xlink:title=" ">
<polygon fill="white" stroke="black" points="1925.48,-48 1925.48,-80 2036.52,-80 2036.52,-48 1925.48,-48"/>
<text text-anchor="start" x="1933.48" y="-66" font-family="Helvetica,sans-Serif" font-size="10.00">NavEKF3_core::send</text>
<text text-anchor="middle" x="1981" y="-54" font-family="Helvetica,sans-Serif" font-size="10.00">_status_report</text>
</a>
</g>
</g>
<!-- Node2020&#45;&gt;Node2026 -->
<g id="edge6" class="edge"><title>Node2020&#45;&gt;Node2026</title>
<path fill="none" stroke="midnightblue" d="M2070.34,-76.5459C2058.96,-74.9286 2047.47,-73.2979 2036.73,-71.7719"/>
<polygon fill="midnightblue" stroke="midnightblue" points="2069.92,-80.02 2080.31,-77.9609 2070.9,-73.0896 2069.92,-80.02"/>
</g>
<!-- Node2022 -->
<g id="node3" class="node"><title>Node2022</title>
<g id="a_node3"><a xlink:href="classAP__AHRS__NavEKF.html#a8a8a068e7c75638f80416b1a8e963442" target="_top" xlink:title=" ">
<polygon fill="white" stroke="black" points="1750.53,-96 1750.53,-128 1875.47,-128 1875.47,-96 1750.53,-96"/>
<text text-anchor="start" x="1758.53" y="-114" font-family="Helvetica,sans-Serif" font-size="10.00">AP_AHRS_NavEKF::get</text>
<text text-anchor="middle" x="1813" y="-102" font-family="Helvetica,sans-Serif" font-size="10.00">_variances</text>
</a>
</g>
</g>
<!-- Node2021&#45;&gt;Node2022 -->
<g id="edge2" class="edge"><title>Node2021&#45;&gt;Node2022</title>
<path fill="none" stroke="midnightblue" d="M1909.36,-112C1898.09,-112 1886.51,-112 1875.47,-112"/>
<polygon fill="midnightblue" stroke="midnightblue" points="1909.6,-115.5 1919.6,-112 1909.6,-108.5 1909.6,-115.5"/>
</g>
<!-- Node2023 -->
<g id="node4" class="node"><title>Node2023</title>
<g id="a_node4"><a xlink:href="classNavEKF3.html#a2c6ad1094ea33b063242582f775f81fb" target="_top" xlink:title=" ">
<polygon fill="white" stroke="black" points="1742.56,-147 1742.56,-167 1883.44,-167 1883.44,-147 1742.56,-147"/>
<text text-anchor="middle" x="1813" y="-153" font-family="Helvetica,sans-Serif" font-size="10.00">NavEKF3::Log_Write_NKF4</text>
</a>
</g>
</g>
<!-- Node2021&#45;&gt;Node2023 -->
<g id="edge3" class="edge"><title>Node2021&#45;&gt;Node2023</title>
<path fill="none" stroke="midnightblue" d="M1932.77,-124.803C1906.88,-131.823 1875.24,-140.399 1851.13,-146.935"/>
<polygon fill="midnightblue" stroke="midnightblue" points="1934.01,-128.093 1942.75,-122.099 1932.18,-121.337 1934.01,-128.093"/>
</g>
<!-- Node2024 -->
<g id="node5" class="node"><title>Node2024</title>
<g id="a_node5"><a xlink:href="classNavEKF3.html#a71027f1a60b4ec4b5c3594b3ad769678" target="_top" xlink:title=" ">
<polygon fill="white" stroke="black" points="1584.12,-147 1584.12,-167 1693.88,-167 1693.88,-147 1584.12,-147"/>
<text text-anchor="middle" x="1639" y="-153" font-family="Helvetica,sans-Serif" font-size="10.00">NavEKF3::Log_Write</text>
</a>
</g>
</g>
<!-- Node2023&#45;&gt;Node2024 -->
<g id="edge4" class="edge"><title>Node2023&#45;&gt;Node2024</title>
<path fill="none" stroke="midnightblue" d="M1732.24,-157C1719.33,-157 1706.23,-157 1694.11,-157"/>
<polygon fill="midnightblue" stroke="midnightblue" points="1732.54,-160.5 1742.54,-157 1732.54,-153.5 1732.54,-160.5"/>
</g>
<!-- Node2025 -->
<g id="node6" class="node"><title>Node2025</title>
<g id="a_node6"><a xlink:href="classAP__AHRS__NavEKF.html#a1c5d4cbc750d19efec25a619c34be78a" target="_top" xlink:title=" ">
<polygon fill="white" stroke="black" points="1407.14,-141 1407.14,-173 1534.86,-173 1534.86,-141 1407.14,-141"/>
<text text-anchor="start" x="1415.14" y="-159" font-family="Helvetica,sans-Serif" font-size="10.00">AP_AHRS_NavEKF::Log</text>
<text text-anchor="middle" x="1471" y="-147" font-family="Helvetica,sans-Serif" font-size="10.00">_Write</text>
</a>
</g>
</g>
<!-- Node2024&#45;&gt;Node2025 -->
<g id="edge5" class="edge"><title>Node2024&#45;&gt;Node2025</title>
<path fill="none" stroke="midnightblue" d="M1573.97,-157C1561.14,-157 1547.66,-157 1534.86,-157"/>
<polygon fill="midnightblue" stroke="midnightblue" points="1574.1,-160.5 1584.1,-157 1574.1,-153.5 1574.1,-160.5"/>
</g>
<!-- Node2027 -->
<g id="node8" class="node"><title>Node2027</title>
<g id="a_node8"><a xlink:href="classNavEKF3.html#a8b3b9b58793987976290297dfe74dc46" target="_top" xlink:title=" ">
<polygon fill="white" stroke="black" points="1753.86,-45 1753.86,-77 1872.14,-77 1872.14,-45 1753.86,-45"/>
<text text-anchor="start" x="1761.86" y="-63" font-family="Helvetica,sans-Serif" font-size="10.00">NavEKF3::send_status</text>
<text text-anchor="middle" x="1813" y="-51" font-family="Helvetica,sans-Serif" font-size="10.00">_report</text>
</a>
</g>
</g>
<!-- Node2026&#45;&gt;Node2027 -->
<g id="edge7" class="edge"><title>Node2026&#45;&gt;Node2027</title>
<path fill="none" stroke="midnightblue" d="M1915.05,-62.8261C1900.91,-62.5706 1886.03,-62.3018 1872.18,-62.0514"/>
<polygon fill="midnightblue" stroke="midnightblue" points="1915.12,-66.328 1925.19,-63.0094 1915.25,-59.3292 1915.12,-66.328"/>
</g>
<!-- Node2028 -->
<g id="node9" class="node"><title>Node2028</title>
<g id="a_node9"><a xlink:href="classAP__AHRS__NavEKF.html#a087f9c90645ceabd1fd453fac7caa8dd" target="_top" xlink:title=" ">
<polygon fill="white" stroke="black" points="1572.64,-45 1572.64,-77 1705.36,-77 1705.36,-45 1572.64,-45"/>
<text text-anchor="start" x="1580.64" y="-63" font-family="Helvetica,sans-Serif" font-size="10.00">AP_AHRS_NavEKF::send</text>
<text text-anchor="middle" x="1639" y="-51" font-family="Helvetica,sans-Serif" font-size="10.00">_ekf_status_report</text>
</a>
</g>
</g>
<!-- Node2027&#45;&gt;Node2028 -->
<g id="edge8" class="edge"><title>Node2027&#45;&gt;Node2028</title>
<path fill="none" stroke="midnightblue" d="M1743.43,-61C1730.95,-61 1717.96,-61 1705.57,-61"/>
<polygon fill="midnightblue" stroke="midnightblue" points="1743.77,-64.5001 1753.77,-61 1743.77,-57.5001 1743.77,-64.5001"/>
</g>
<!-- Node2029 -->
<g id="node10" class="node"><title>Node2029</title>
<g id="a_node10"><a xlink:href="structGCS__MAVLINK.html#a30034cdbd89bcfb86392411f9b5935db" target="_top" xlink:title=" ">
<polygon fill="white" stroke="black" points="1405.85,-45 1405.85,-77 1536.15,-77 1536.15,-45 1405.85,-45"/>
<text text-anchor="start" x="1413.85" y="-63" font-family="Helvetica,sans-Serif" font-size="10.00">GCS_MAVLINK::try_send</text>
<text text-anchor="middle" x="1471" y="-51" font-family="Helvetica,sans-Serif" font-size="10.00">_message</text>
</a>
</g>
</g>
<!-- Node2028&#45;&gt;Node2029 -->
<g id="edge9" class="edge"><title>Node2028&#45;&gt;Node2029</title>
<path fill="none" stroke="midnightblue" d="M1562.28,-61C1553.61,-61 1544.82,-61 1536.32,-61"/>
<polygon fill="midnightblue" stroke="midnightblue" points="1562.39,-64.5001 1572.39,-61 1562.39,-57.5001 1562.39,-64.5001"/>
</g>
<!-- Node2030 -->
<g id="node11" class="node"><title>Node2030</title>
<g id="a_node11"><a xlink:href="structGCS__MAVLINK.html#ae94077536892270b4a40e5bcddb1c2f9" target="_top" xlink:title=" ">
<polygon fill="white" stroke="black" points="1232.13,-96 1232.13,-128 1351.87,-128 1351.87,-96 1232.13,-96"/>
<text text-anchor="start" x="1240.13" y="-114" font-family="Helvetica,sans-Serif" font-size="10.00">GCS_MAVLINK::do_try</text>
<text text-anchor="middle" x="1292" y="-102" font-family="Helvetica,sans-Serif" font-size="10.00">_send_message</text>
</a>
</g>
</g>
<!-- Node2029&#45;&gt;Node2030 -->
<g id="edge10" class="edge"><title>Node2029&#45;&gt;Node2030</title>
<path fill="none" stroke="midnightblue" d="M1404.29,-79.9346C1385.99,-85.2067 1366.3,-90.8805 1348.64,-95.9683"/>
<polygon fill="midnightblue" stroke="midnightblue" points="1405.36,-83.2687 1414,-77.1367 1403.42,-76.5423 1405.36,-83.2687"/>
</g>
<!-- Node2047 -->
<g id="node28" class="node"><title>Node2047</title>
<g id="a_node28"><a xlink:href="structGCS__MAVLINK.html#a256bd83477e0d72b40300bf1d7207750" target="_top" xlink:title=" ">
<polygon fill="white" stroke="black" points="1214.23,-45 1214.23,-77 1369.77,-77 1369.77,-45 1214.23,-45"/>
<text text-anchor="start" x="1222.23" y="-63" font-family="Helvetica,sans-Serif" font-size="10.00">GCS_MAVLINK::handle</text>
<text text-anchor="middle" x="1292" y="-51" font-family="Helvetica,sans-Serif" font-size="10.00">_command_get_home_position</text>
</a>
</g>
</g>
<!-- Node2029&#45;&gt;Node2047 -->
<g id="edge28" class="edge"><title>Node2029&#45;&gt;Node2047</title>
<path fill="none" stroke="midnightblue" d="M1395.44,-61C1387.03,-61 1378.44,-61 1370,-61"/>
<polygon fill="midnightblue" stroke="midnightblue" points="1395.6,-64.5001 1405.6,-61 1395.6,-57.5001 1395.6,-64.5001"/>
</g>
<!-- Node2051 -->
<g id="node32" class="node"><title>Node2051</title>
<g id="a_node32"><a xlink:href="structGCS__MAVLINK.html#af12f472c624f3c0735b082c982e7ec42" target="_top" xlink:title=" ">
<polygon fill="white" stroke="black" points="1040.9,-0 1040.9,-32 1165.1,-32 1165.1,-0 1040.9,-0"/>
<text text-anchor="start" x="1048.9" y="-18" font-family="Helvetica,sans-Serif" font-size="10.00">GCS_MAVLINK::set_ekf</text>
<text text-anchor="middle" x="1103" y="-6" font-family="Helvetica,sans-Serif" font-size="10.00">_origin</text>
</a>
</g>
</g>
<!-- Node2029&#45;&gt;Node2051 -->
<g id="edge32" class="edge"><title>Node2029&#45;&gt;Node2051</title>
<path fill="none" stroke="midnightblue" d="M1405.83,-42.4672C1393.99,-39.5785 1381.69,-36.9198 1370,-35 1300.33,-23.5536 1219.27,-19.0021 1165.12,-17.1928"/>
<polygon fill="midnightblue" stroke="midnightblue" points="1405.08,-45.8881 1415.63,-44.9368 1406.79,-39.1001 1405.08,-45.8881"/>
</g>
<!-- Node2031 -->
<g id="node12" class="node"><title>Node2031</title>
<g id="a_node12"><a xlink:href="structGCS__MAVLINK.html#a97b3a94ebc165ee34ee93b26e2dee23d" target="_top" xlink:title=" ">
<polygon fill="white" stroke="black" points="1028.11,-102 1028.11,-122 1177.89,-122 1177.89,-102 1028.11,-102"/>
<text text-anchor="middle" x="1103" y="-108" font-family="Helvetica,sans-Serif" font-size="10.00">GCS_MAVLINK::update_send</text>
</a>
</g>
</g>
<!-- Node2030&#45;&gt;Node2031 -->
<g id="edge11" class="edge"><title>Node2030&#45;&gt;Node2031</title>
<path fill="none" stroke="midnightblue" d="M1221.87,-112C1207.6,-112 1192.52,-112 1178.09,-112"/>
<polygon fill="midnightblue" stroke="midnightblue" points="1222.09,-115.5 1232.09,-112 1222.09,-108.5 1222.09,-115.5"/>
</g>
<!-- Node2032 -->
<g id="node13" class="node"><title>Node2032</title>
<g id="a_node13"><a xlink:href="classGCS.html#a07a8ce284513a8ce8336b085d0b8aadf" target="_top" xlink:title=" ">
<polygon fill="white" stroke="black" points="880.471,-102 880.471,-122 981.529,-122 981.529,-102 880.471,-102"/>
<text text-anchor="middle" x="931" y="-108" font-family="Helvetica,sans-Serif" font-size="10.00">GCS::update_send</text>
</a>
</g>
</g>
<!-- Node2031&#45;&gt;Node2032 -->
<g id="edge12" class="edge"><title>Node2031&#45;&gt;Node2032</title>
<path fill="none" stroke="midnightblue" d="M1017.66,-112C1005.41,-112 993.139,-112 981.868,-112"/>
<polygon fill="midnightblue" stroke="midnightblue" points="1017.93,-115.5 1027.93,-112 1017.93,-108.5 1017.93,-115.5"/>
</g>
<!-- Node2033 -->
<g id="node14" class="node"><title>Node2033</title>
<g id="a_node14"><a xlink:href="classAP__BoardConfig.html#ab7d977aecbbe7090266bee755bf2cc32" target="_top" xlink:title=" ">
<polygon fill="white" stroke="black" points="707.968,-96 707.968,-128 834.032,-128 834.032,-96 707.968,-96"/>
<text text-anchor="start" x="715.968" y="-114" font-family="Helvetica,sans-Serif" font-size="10.00">AP_BoardConfig::sensor</text>
<text text-anchor="middle" x="771" y="-102" font-family="Helvetica,sans-Serif" font-size="10.00">_config_error</text>
</a>
</g>
</g>
<!-- Node2032&#45;&gt;Node2033 -->
<g id="edge13" class="edge"><title>Node2032&#45;&gt;Node2033</title>
<path fill="none" stroke="midnightblue" d="M870.262,-112C858.467,-112 846.062,-112 834.189,-112"/>
<polygon fill="midnightblue" stroke="midnightblue" points="870.441,-115.5 880.441,-112 870.441,-108.5 870.441,-115.5"/>
</g>
<!-- Node2034 -->
<g id="node15" class="node"><title>Node2034</title>
<g id="a_node15"><a xlink:href="classAP__InertialSensor.html#a8967734e82a4f472c6d8ddd8db656804" target="_top" xlink:title=" ">
<polygon fill="white" stroke="black" points="558.921,-141 558.921,-173 661.079,-173 661.079,-141 558.921,-141"/>
<text text-anchor="start" x="566.921" y="-159" font-family="Helvetica,sans-Serif" font-size="10.00">AP_InertialSensor::</text>
<text text-anchor="middle" x="610" y="-147" font-family="Helvetica,sans-Serif" font-size="10.00">detect_backends</text>
</a>
</g>
</g>
<!-- Node2033&#45;&gt;Node2034 -->
<g id="edge14" class="edge"><title>Node2033&#45;&gt;Node2034</title>
<path fill="none" stroke="midnightblue" d="M703.389,-130.852C689.278,-134.846 674.61,-138.997 661.228,-142.784"/>
<polygon fill="midnightblue" stroke="midnightblue" points="704.378,-134.21 713.046,-128.119 702.471,-127.475 704.378,-134.21"/>
</g>
<!-- Node2044 -->
<g id="node25" class="node"><title>Node2044</title>
<g id="a_node25"><a xlink:href="classAP__Baro.html#a942db790233528bfbb4d9a07c3454360" target="_top" xlink:title=" ">
<polygon fill="white" stroke="black" points="572.818,-102 572.818,-122 647.182,-122 647.182,-102 572.818,-102"/>
<text text-anchor="middle" x="610" y="-108" font-family="Helvetica,sans-Serif" font-size="10.00">AP_Baro::init</text>
</a>
</g>
</g>
<!-- Node2033&#45;&gt;Node2044 -->
<g id="edge25" class="edge"><title>Node2033&#45;&gt;Node2044</title>
<path fill="none" stroke="midnightblue" d="M697.493,-112C680.172,-112 662.404,-112 647.514,-112"/>
<polygon fill="midnightblue" stroke="midnightblue" points="697.615,-115.5 707.615,-112 697.615,-108.5 697.615,-115.5"/>
</g>
<!-- Node2046 -->
<g id="node27" class="node"><title>Node2046</title>
<g id="a_node27"><a xlink:href="classAP__Param.html#a0c15e6322af82416e599f89db54501e6" target="_top" xlink:title=" ">
<polygon fill="white" stroke="black" points="548.082,-51 548.082,-83 671.918,-83 671.918,-51 548.082,-51"/>
<text text-anchor="start" x="556.082" y="-69" font-family="Helvetica,sans-Serif" font-size="10.00">AP_Param::set_defaults</text>
<text text-anchor="middle" x="610" y="-57" font-family="Helvetica,sans-Serif" font-size="10.00">_from_table</text>
</a>
</g>
</g>
<!-- Node2033&#45;&gt;Node2046 -->
<g id="edge27" class="edge"><title>Node2033&#45;&gt;Node2046</title>
<path fill="none" stroke="midnightblue" d="M703.2,-93.0944C691.342,-89.7382 679.096,-86.2725 667.556,-83.0064"/>
<polygon fill="midnightblue" stroke="midnightblue" points="702.471,-96.5255 713.046,-95.8811 704.378,-89.7901 702.471,-96.5255"/>
</g>
<!-- Node2035 -->
<g id="node16" class="node"><title>Node2035</title>
<g id="a_node16"><a xlink:href="classAP__InertialSensor.html#a9949b7e301b0d7a5f3e59385d2e8d97a" target="_top" xlink:title=" ">
<polygon fill="white" stroke="black" points="398.921,-167 398.921,-199 501.079,-199 501.079,-167 398.921,-167"/>
<text text-anchor="start" x="406.921" y="-185" font-family="Helvetica,sans-Serif" font-size="10.00">AP_InertialSensor::</text>
<text text-anchor="middle" x="450" y="-173" font-family="Helvetica,sans-Serif" font-size="10.00">_start_backends</text>
</a>
</g>
</g>
<!-- Node2034&#45;&gt;Node2035 -->
<g id="edge15" class="edge"><title>Node2034&#45;&gt;Node2035</title>
<path fill="none" stroke="midnightblue" d="M548.488,-166.958C532.876,-169.527 516.243,-172.264 501.219,-174.736"/>
<polygon fill="midnightblue" stroke="midnightblue" points="549.274,-170.375 558.573,-165.298 548.138,-163.468 549.274,-170.375"/>
</g>
<!-- Node2040 -->
<g id="node21" class="node"><title>Node2040</title>
<g id="a_node21"><a xlink:href="classAP__InertialSensor.html#ad649def5689aecaebca16cf910d77fd8" target="_top" xlink:title=" ">
<polygon fill="white" stroke="black" points="398.921,-116 398.921,-148 501.079,-148 501.079,-116 398.921,-116"/>
<text text-anchor="start" x="406.921" y="-134" font-family="Helvetica,sans-Serif" font-size="10.00">AP_InertialSensor::</text>
<text text-anchor="middle" x="450" y="-122" font-family="Helvetica,sans-Serif" font-size="10.00">get_auxiliary_bus</text>
</a>
</g>
</g>
<!-- Node2034&#45;&gt;Node2040 -->
<g id="edge20" class="edge"><title>Node2034&#45;&gt;Node2040</title>
<path fill="none" stroke="midnightblue" d="M548.488,-147.425C532.876,-144.955 516.243,-142.323 501.219,-139.946"/>
<polygon fill="midnightblue" stroke="midnightblue" points="548.149,-150.915 558.573,-149.021 549.243,-144.001 548.149,-150.915"/>
</g>
<!-- Node2041 -->
<g id="node22" class="node"><title>Node2041</title>
<g id="a_node22"><a xlink:href="classAP__Compass__AK8963.html#a0e8c9e0c82de409e0225fc81ed4ed6db" target="_top" xlink:title=" ">
<polygon fill="white" stroke="black" points="388.079,-218 388.079,-250 511.921,-250 511.921,-218 388.079,-218"/>
<text text-anchor="start" x="396.079" y="-236" font-family="Helvetica,sans-Serif" font-size="10.00">AP_Compass_AK8963::</text>
<text text-anchor="middle" x="450" y="-224" font-family="Helvetica,sans-Serif" font-size="10.00">probe_mpu9250</text>
</a>
</g>
</g>
<!-- Node2034&#45;&gt;Node2041 -->
<g id="edge21" class="edge"><title>Node2034&#45;&gt;Node2041</title>
<path fill="none" stroke="midnightblue" d="M571.105,-177.837C553.33,-187.374 531.757,-198.615 512,-208 504.929,-211.359 497.311,-214.768 489.934,-217.963"/>
<polygon fill="midnightblue" stroke="midnightblue" points="572.886,-180.853 580.024,-173.024 569.561,-174.693 572.886,-180.853"/>
</g>
<!-- Node2036 -->
<g id="node17" class="node"><title>Node2036</title>
<g id="a_node17"><a xlink:href="classAP__InertialSensor.html#a741065b13832b5e4c90bbae17519c0ad" target="_top" xlink:title=" ">
<polygon fill="white" stroke="black" points="221.53,-173 221.53,-193 336.47,-193 336.47,-173 221.53,-173"/>
<text text-anchor="middle" x="279" y="-179" font-family="Helvetica,sans-Serif" font-size="10.00">AP_InertialSensor::init</text>
</a>
</g>
</g>
<!-- Node2035&#45;&gt;Node2036 -->
<g id="edge16" class="edge"><title>Node2035&#45;&gt;Node2036</title>
<path fill="none" stroke="midnightblue" d="M388.434,-183C371.53,-183 353.233,-183 336.569,-183"/>
<polygon fill="midnightblue" stroke="midnightblue" points="388.752,-186.5 398.752,-183 388.752,-179.5 388.752,-186.5"/>
</g>
<!-- Node2037 -->
<g id="node18" class="node"><title>Node2037</title>
<g id="a_node18"><a xlink:href="AHRS__Test_8cpp.html#a4fc01d736fe50cf5b977f755b675f11d" target="_top" xlink:title=" ">
<polygon fill="white" stroke="black" points="-0.231445,-204 -0.231445,-224 40.2314,-224 40.2314,-204 -0.231445,-204"/>
<text text-anchor="middle" x="20" y="-210" font-family="Helvetica,sans-Serif" font-size="10.00">setup</text>
</a>
</g>
</g>
<!-- Node2036&#45;&gt;Node2037 -->
<g id="edge17" class="edge"><title>Node2036&#45;&gt;Node2037</title>
<path fill="none" stroke="midnightblue" d="M211.28,-191.048C154.401,-197.909 76.3296,-207.326 40.46,-211.653"/>
<polygon fill="midnightblue" stroke="midnightblue" points="211.773,-194.514 221.282,-189.841 210.935,-187.564 211.773,-194.514"/>
</g>
<!-- Node2038 -->
<g id="node19" class="node"><title>Node2038</title>
<g id="a_node19"><a xlink:href="classSchedTest.html#ae9afb73f76391e34d47286a516fe5292" target="_top" xlink:title=" ">
<polygon fill="white" stroke="black" points="76.6431,-146 76.6431,-166 169.357,-166 169.357,-146 76.6431,-146"/>
<text text-anchor="middle" x="123" y="-152" font-family="Helvetica,sans-Serif" font-size="10.00">SchedTest::setup</text>
</a>
</g>
</g>
<!-- Node2036&#45;&gt;Node2038 -->
<g id="edge18" class="edge"><title>Node2036&#45;&gt;Node2038</title>
<path fill="none" stroke="midnightblue" d="M211.02,-171.257C197.04,-168.806 182.611,-166.276 169.621,-163.998"/>
<polygon fill="midnightblue" stroke="midnightblue" points="210.639,-174.743 221.094,-173.023 211.848,-167.849 210.639,-174.743"/>
</g>
<!-- Node2039 -->
<g id="node20" class="node"><title>Node2039</title>
<g id="a_node20"><a xlink:href="Scheduler__test_8cpp.html#a7dfd9b79bc5a37d7df40207afbc5431f" target="_top" xlink:title=" ">
<polygon fill="white" stroke="black" points="-0.231445,-146 -0.231445,-166 40.2314,-166 40.2314,-146 -0.231445,-146"/>
<text text-anchor="middle" x="20" y="-152" font-family="Helvetica,sans-Serif" font-size="10.00">setup</text>
</a>
</g>
</g>
<!-- Node2038&#45;&gt;Node2039 -->
<g id="edge19" class="edge"><title>Node2038&#45;&gt;Node2039</title>
<path fill="none" stroke="midnightblue" d="M66.3961,-156C57.0922,-156 48.0218,-156 40.4654,-156"/>
<polygon fill="midnightblue" stroke="midnightblue" points="66.5229,-159.5 76.5229,-156 66.5228,-152.5 66.5229,-159.5"/>
</g>
<!-- Node2042 -->
<g id="node23" class="node"><title>Node2042</title>
<g id="a_node23"><a xlink:href="classCompass.html#a1c48170d8c8966b22fb150b1634443ec" target="_top" xlink:title=" ">
<polygon fill="white" stroke="black" points="206.518,-224 206.518,-244 351.482,-244 351.482,-224 206.518,-224"/>
<text text-anchor="middle" x="279" y="-230" font-family="Helvetica,sans-Serif" font-size="10.00">Compass::_detect_backends</text>
</a>
</g>
</g>
<!-- Node2041&#45;&gt;Node2042 -->
<g id="edge22" class="edge"><title>Node2041&#45;&gt;Node2042</title>
<path fill="none" stroke="midnightblue" d="M377.88,-234C369.175,-234 360.276,-234 351.564,-234"/>
<polygon fill="midnightblue" stroke="midnightblue" points="377.987,-237.5 387.987,-234 377.987,-230.5 377.987,-237.5"/>
</g>
<!-- Node2043 -->
<g id="node24" class="node"><title>Node2043</title>
<g id="a_node24"><a xlink:href="classCompass.html#a79db6bfd3fe309c6258d783f126326c6" target="_top" xlink:title=" ">
<polygon fill="white" stroke="black" points="84.7119,-224 84.7119,-244 161.288,-244 161.288,-224 84.7119,-224"/>
<text text-anchor="middle" x="123" y="-230" font-family="Helvetica,sans-Serif" font-size="10.00">Compass::init</text>
</a>
</g>
</g>
<!-- Node2042&#45;&gt;Node2043 -->
<g id="edge23" class="edge"><title>Node2042&#45;&gt;Node2043</title>
<path fill="none" stroke="midnightblue" d="M196.188,-234C184.032,-234 172.037,-234 161.42,-234"/>
<polygon fill="midnightblue" stroke="midnightblue" points="196.41,-237.5 206.41,-234 196.41,-230.5 196.41,-237.5"/>
</g>
<!-- Node2043&#45;&gt;Node2037 -->
<g id="edge24" class="edge"><title>Node2043&#45;&gt;Node2037</title>
<path fill="none" stroke="midnightblue" d="M74.6155,-224.617C62.4954,-222.217 50.1351,-219.769 40.3413,-217.83"/>
<polygon fill="midnightblue" stroke="midnightblue" points="74.1889,-228.1 84.6783,-226.61 75.5487,-221.234 74.1889,-228.1"/>
</g>
<!-- Node2045 -->
<g id="node26" class="node"><title>Node2045</title>
<g id="a_node26"><a xlink:href="BARO__generic_8cpp.html#a4fc01d736fe50cf5b977f755b675f11d" target="_top" xlink:title=" ">
<polygon fill="white" stroke="black" points="429.769,-77 429.769,-97 470.231,-97 470.231,-77 429.769,-77"/>
<text text-anchor="middle" x="450" y="-83" font-family="Helvetica,sans-Serif" font-size="10.00">setup</text>
</a>
</g>
</g>
<!-- Node2044&#45;&gt;Node2045 -->
<g id="edge26" class="edge"><title>Node2044&#45;&gt;Node2045</title>
<path fill="none" stroke="midnightblue" d="M562.659,-104.668C531.89,-99.799 493.098,-93.6611 470.276,-90.0501"/>
<polygon fill="midnightblue" stroke="midnightblue" points="562.327,-108.159 572.752,-106.264 563.422,-101.245 562.327,-108.159"/>
</g>
<!-- Node2048 -->
<g id="node29" class="node"><title>Node2048</title>
<g id="a_node29"><a xlink:href="structGCS__MAVLINK.html#a29e2941413d50ab63cd70f5beadef19a" target="_top" xlink:title=" ">
<polygon fill="white" stroke="black" points="1040.52,-51 1040.52,-83 1165.48,-83 1165.48,-51 1040.52,-51"/>
<text text-anchor="start" x="1048.52" y="-69" font-family="Helvetica,sans-Serif" font-size="10.00">GCS_MAVLINK::handle</text>
<text text-anchor="middle" x="1103" y="-57" font-family="Helvetica,sans-Serif" font-size="10.00">_command_long_packet</text>
</a>
</g>
</g>
<!-- Node2047&#45;&gt;Node2048 -->
<g id="edge29" class="edge"><title>Node2047&#45;&gt;Node2048</title>
<path fill="none" stroke="midnightblue" d="M1203.86,-63.796C1190.98,-64.2091 1177.95,-64.6273 1165.73,-65.0193"/>
<polygon fill="midnightblue" stroke="midnightblue" points="1204.25,-67.2854 1214.13,-63.4664 1204.02,-60.289 1204.25,-67.2854"/>
</g>
<!-- Node2049 -->
<g id="node30" class="node"><title>Node2049</title>
<g id="a_node30"><a xlink:href="structGCS__MAVLINK.html#abc79cdd8393234b66f2e8217a527f8f9" target="_top" xlink:title=" ">
<polygon fill="white" stroke="black" points="870.009,-51 870.009,-83 991.991,-83 991.991,-51 870.009,-51"/>
<text text-anchor="start" x="878.009" y="-69" font-family="Helvetica,sans-Serif" font-size="10.00">GCS_MAVLINK::handle</text>
<text text-anchor="middle" x="931" y="-57" font-family="Helvetica,sans-Serif" font-size="10.00">_command_long</text>
</a>
</g>
</g>
<!-- Node2048&#45;&gt;Node2049 -->
<g id="edge30" class="edge"><title>Node2048&#45;&gt;Node2049</title>
<path fill="none" stroke="midnightblue" d="M1030.1,-67C1017.45,-67 1004.4,-67 992.105,-67"/>
<polygon fill="midnightblue" stroke="midnightblue" points="1030.15,-70.5001 1040.15,-67 1030.15,-63.5001 1030.15,-70.5001"/>
</g>
<!-- Node2050 -->
<g id="node31" class="node"><title>Node2050</title>
<g id="a_node31"><a xlink:href="structGCS__MAVLINK.html#a13da94a2548ade6552a5250eb3251e89" target="_top" xlink:title=" ">
<polygon fill="white" stroke="black" points="710.009,-23 710.009,-55 831.991,-55 831.991,-23 710.009,-23"/>
<text text-anchor="start" x="718.009" y="-41" font-family="Helvetica,sans-Serif" font-size="10.00">GCS_MAVLINK::handle</text>
<text text-anchor="middle" x="771" y="-29" font-family="Helvetica,sans-Serif" font-size="10.00">_common_message</text>
</a>
</g>
</g>
<!-- Node2049&#45;&gt;Node2050 -->
<g id="edge31" class="edge"><title>Node2049&#45;&gt;Node2050</title>
<path fill="none" stroke="midnightblue" d="M859.834,-54.5655C850.553,-52.9207 841.106,-51.2467 832.016,-49.6358"/>
<polygon fill="midnightblue" stroke="midnightblue" points="859.359,-58.0358 869.816,-56.3345 860.58,-51.1432 859.359,-58.0358"/>
</g>
<!-- Node2052 -->
<g id="node33" class="node"><title>Node2052</title>
<g id="a_node33"><a xlink:href="structGCS__MAVLINK.html#ad02c83895334e008e3c2f454a616893e" target="_top" xlink:title=" ">
<polygon fill="white" stroke="black" points="870.009,-0 870.009,-32 991.991,-32 991.991,-0 870.009,-0"/>
<text text-anchor="start" x="878.009" y="-18" font-family="Helvetica,sans-Serif" font-size="10.00">GCS_MAVLINK::handle</text>
<text text-anchor="middle" x="931" y="-6" font-family="Helvetica,sans-Serif" font-size="10.00">_set_gps_global_origin</text>
</a>
</g>
</g>
<!-- Node2051&#45;&gt;Node2052 -->
<g id="edge33" class="edge"><title>Node2051&#45;&gt;Node2052</title>
<path fill="none" stroke="midnightblue" d="M1030.5,-16C1017.74,-16 1004.55,-16 992.145,-16"/>
<polygon fill="midnightblue" stroke="midnightblue" points="1030.63,-19.5001 1040.63,-16 1030.63,-12.5001 1030.63,-19.5001"/>
</g>
<!-- Node2052&#45;&gt;Node2050 -->
<g id="edge34" class="edge"><title>Node2052&#45;&gt;Node2050</title>
<path fill="none" stroke="midnightblue" d="M859.834,-26.214C850.553,-27.5651 841.106,-28.9402 832.016,-30.2634"/>
<polygon fill="midnightblue" stroke="midnightblue" points="860.425,-29.665 869.816,-24.7609 859.416,-22.738 860.425,-29.665"/>
</g>
</g>
</svg>
