<?xml version="1.0" encoding="UTF-8" standalone="no"?>
<!DOCTYPE svg PUBLIC "-//W3C//DTD SVG 1.1//EN"
 "http://www.w3.org/Graphics/SVG/1.1/DTD/svg11.dtd">
<!-- Generated by graphviz version 2.30.1 (20130221.2233)
 -->
<!-- Title: Linux::PeriodicThread::stop Pages: 1 -->
<svg width="296pt" height="67pt"
 viewBox="0.00 0.00 296.00 67.00" xmlns="http://www.w3.org/2000/svg" xmlns:xlink="http://www.w3.org/1999/xlink">
<g id="graph0" class="graph" transform="scale(1 1) rotate(0) translate(4 63)">
<title>Linux::PeriodicThread::stop</title>
<polygon fill="white" stroke="white" points="-4,5 -4,-63 293,-63 293,5 -4,5"/>
<!-- Node17 -->
<g id="node1" class="node"><title>Node17</title>
<g id="a_node1"><a xlink:title=" ">
<polygon fill="#bfbfbf" stroke="black" points="174.362,-13 174.362,-45 287.638,-45 287.638,-13 174.362,-13"/>
<text text-anchor="start" x="182.362" y="-31" font-family="Helvetica,sans-Serif" font-size="10.00">Linux::PeriodicThread</text>
<text text-anchor="middle" x="231" y="-19" font-family="Helvetica,sans-Serif" font-size="10.00">::stop</text>
</a>
</g>
</g>
<!-- Node18 -->
<g id="node2" class="node"><title>Node18</title>
<g id="a_node2"><a xlink:href="classLinux_1_1Scheduler.html#ab373a83d818679432520ea881044b2a7" target="_top" xlink:title=" ">
<polygon fill="white" stroke="black" points="0.406738,-39 0.406738,-59 137.593,-59 137.593,-39 0.406738,-39"/>
<text text-anchor="middle" x="69" y="-45" font-family="Helvetica,sans-Serif" font-size="10.00">Linux::Scheduler::teardown</text>
</a>
</g>
</g>
<!-- Node17&#45;&gt;Node18 -->
<g id="edge1" class="edge"><title>Node17&#45;&gt;Node18</title>
<path fill="none" stroke="midnightblue" d="M164.001,-37.2499C155.339,-38.3327 146.451,-39.4437 137.76,-40.53"/>
<polygon fill="midnightblue" stroke="midnightblue" points="164.551,-40.7084 174.04,-35.995 163.683,-33.7625 164.551,-40.7084"/>
</g>
<!-- Node19 -->
<g id="node3" class="node"><title>Node19</title>
<g id="a_node3"><a xlink:href="test__thread_8cpp.html#aa441304cb3ad5c7012ceadc6e022d13b" target="_top" xlink:title=" ">
<polygon fill="white" stroke="black" points="48.2217,-0 48.2217,-20 89.7783,-20 89.7783,-0 48.2217,-0"/>
<text text-anchor="middle" x="69" y="-6" font-family="Helvetica,sans-Serif" font-size="10.00">TEST</text>
</a>
</g>
</g>
<!-- Node17&#45;&gt;Node19 -->
<g id="edge2" class="edge"><title>Node17&#45;&gt;Node19</title>
<path fill="none" stroke="midnightblue" d="M163.961,-21.1579C137.326,-17.995 108.56,-14.579 89.9708,-12.3715"/>
<polygon fill="midnightblue" stroke="midnightblue" points="163.697,-24.651 174.04,-22.3547 164.522,-17.6998 163.697,-24.651"/>
</g>
</g>
</svg>
