<?xml version="1.0" encoding="UTF-8" standalone="no"?>
<!DOCTYPE svg PUBLIC "-//W3C//DTD SVG 1.1//EN"
 "http://www.w3.org/Graphics/SVG/1.1/DTD/svg11.dtd">
<!-- Generated by graphviz version 2.30.1 (20130221.2233)
 -->
<!-- Title: AC_PrecLand::retrieve_los_meas Pages: 1 -->
<svg width="286pt" height="181pt"
 viewBox="0.00 0.00 286.00 181.00" xmlns="http://www.w3.org/2000/svg" xmlns:xlink="http://www.w3.org/1999/xlink">
<g id="graph0" class="graph" transform="scale(1 1) rotate(0) translate(4 177)">
<title>AC_PrecLand::retrieve_los_meas</title>
<polygon fill="white" stroke="white" points="-4,5 -4,-177 283,-177 283,5 -4,5"/>
<!-- Node84 -->
<g id="node1" class="node"><title>Node84</title>
<g id="a_node1"><a xlink:title=" ">
<polygon fill="#bfbfbf" stroke="black" points="0.418945,-64 0.418945,-96 117.581,-96 117.581,-64 0.418945,-64"/>
<text text-anchor="start" x="8.41895" y="-82" font-family="Helvetica,sans-Serif" font-size="10.00">AC_PrecLand::retrieve</text>
<text text-anchor="middle" x="59" y="-70" font-family="Helvetica,sans-Serif" font-size="10.00">_los_meas</text>
</a>
</g>
</g>
<!-- Node85 -->
<g id="node2" class="node"><title>Node85</title>
<g id="a_node2"><a xlink:href="classAC__PrecLand__Backend.html#afebbcfc9f35cf90d562b26bc10d4a9d2" target="_top" xlink:title=" ">
<polygon fill="white" stroke="black" points="154.631,-141 154.631,-173 277.369,-173 277.369,-141 154.631,-141"/>
<text text-anchor="start" x="162.631" y="-159" font-family="Helvetica,sans-Serif" font-size="10.00">AC_PrecLand_Backend</text>
<text text-anchor="middle" x="216" y="-147" font-family="Helvetica,sans-Serif" font-size="10.00">::have_los_meas</text>
</a>
</g>
</g>
<!-- Node84&#45;&gt;Node85 -->
<g id="edge1" class="edge"><title>Node84&#45;&gt;Node85</title>
<path fill="none" stroke="midnightblue" d="M88.022,-96.1032C106.524,-106.511 131.43,-120.097 154,-131 158.015,-132.94 162.212,-134.888 166.443,-136.797"/>
<polygon fill="midnightblue" stroke="midnightblue" points="165.144,-140.049 175.705,-140.897 167.977,-133.648 165.144,-140.049"/>
</g>
<!-- Node86 -->
<g id="node3" class="node"><title>Node86</title>
<g id="a_node3"><a xlink:href="classAC__PrecLand__Backend.html#a89f250bff1bb56fa6b4c0588c06a09ad" target="_top" xlink:title=" ">
<polygon fill="white" stroke="black" points="154.631,-90 154.631,-122 277.369,-122 277.369,-90 154.631,-90"/>
<text text-anchor="start" x="162.631" y="-108" font-family="Helvetica,sans-Serif" font-size="10.00">AC_PrecLand_Backend</text>
<text text-anchor="middle" x="216" y="-96" font-family="Helvetica,sans-Serif" font-size="10.00">::los_meas_time_ms</text>
</a>
</g>
</g>
<!-- Node84&#45;&gt;Node86 -->
<g id="edge2" class="edge"><title>Node84&#45;&gt;Node86</title>
<path fill="none" stroke="midnightblue" d="M117.716,-89.6814C126.409,-91.1395 135.457,-92.6573 144.383,-94.1546"/>
<polygon fill="midnightblue" stroke="midnightblue" points="143.941,-97.6293 154.383,-95.8319 145.1,-90.7258 143.941,-97.6293"/>
</g>
<!-- Node87 -->
<g id="node4" class="node"><title>Node87</title>
<g id="a_node4"><a xlink:href="classAC__PrecLand__Backend.html#a9760df586efebfa276d6a1022972ca91" target="_top" xlink:title=" ">
<polygon fill="white" stroke="black" points="154.631,-39 154.631,-71 277.369,-71 277.369,-39 154.631,-39"/>
<text text-anchor="start" x="162.631" y="-57" font-family="Helvetica,sans-Serif" font-size="10.00">AC_PrecLand_Backend</text>
<text text-anchor="middle" x="216" y="-45" font-family="Helvetica,sans-Serif" font-size="10.00">::get_los_body</text>
</a>
</g>
</g>
<!-- Node84&#45;&gt;Node87 -->
<g id="edge3" class="edge"><title>Node84&#45;&gt;Node87</title>
<path fill="none" stroke="midnightblue" d="M117.716,-70.6909C126.409,-69.2889 135.457,-67.8295 144.383,-66.3898"/>
<polygon fill="midnightblue" stroke="midnightblue" points="145.068,-69.8247 154.383,-64.777 143.953,-62.914 145.068,-69.8247"/>
</g>
<!-- Node88 -->
<g id="node5" class="node"><title>Node88</title>
<g id="a_node5"><a xlink:href="AP__Math_8h.html#a37d7c62a8231d9d22826261297b99da4" target="_top" xlink:title=" ">
<polygon fill="white" stroke="black" points="191.601,-0 191.601,-20 240.399,-20 240.399,-0 191.601,-0"/>
<text text-anchor="middle" x="216" y="-6" font-family="Helvetica,sans-Serif" font-size="10.00">radians</text>
</a>
</g>
</g>
<!-- Node84&#45;&gt;Node88 -->
<g id="edge4" class="edge"><title>Node84&#45;&gt;Node88</title>
<path fill="none" stroke="midnightblue" d="M87.3549,-63.8371C105.79,-53.3506 130.873,-39.8552 154,-30 162.885,-26.2138 172.744,-22.6993 181.9,-19.7062"/>
<polygon fill="midnightblue" stroke="midnightblue" points="183.002,-23.0288 191.48,-16.675 180.89,-16.3549 183.002,-23.0288"/>
</g>
</g>
</svg>
