<?xml version="1.0" encoding="UTF-8" standalone="no"?>
<!DOCTYPE svg PUBLIC "-//W3C//DTD SVG 1.1//EN"
 "http://www.w3.org/Graphics/SVG/1.1/DTD/svg11.dtd">
<!-- Generated by graphviz version 2.30.1 (20130221.2233)
 -->
<!-- Title: AP_AHRS::sin_pitch Pages: 1 -->
<svg width="456pt" height="28pt"
 viewBox="0.00 0.00 456.00 28.00" xmlns="http://www.w3.org/2000/svg" xmlns:xlink="http://www.w3.org/1999/xlink">
<g id="graph0" class="graph" transform="scale(1 1) rotate(0) translate(4 24)">
<title>AP_AHRS::sin_pitch</title>
<polygon fill="white" stroke="white" points="-4,5 -4,-24 453,-24 453,5 -4,5"/>
<!-- Node2329 -->
<g id="node1" class="node"><title>Node2329</title>
<g id="a_node1"><a xlink:title=" ">
<polygon fill="#bfbfbf" stroke="black" points="340.146,-0 340.146,-20 447.854,-20 447.854,-0 340.146,-0"/>
<text text-anchor="middle" x="394" y="-6" font-family="Helvetica,sans-Serif" font-size="10.00">AP_AHRS::sin_pitch</text>
</a>
</g>
</g>
<!-- Node2330 -->
<g id="node2" class="node"><title>Node2330</title>
<g id="a_node2"><a xlink:href="classAP__Mount__Servo.html#af3b79839d37536f6bb7ab56104d77e2f" target="_top" xlink:title=" ">
<polygon fill="white" stroke="black" points="167.968,-0 167.968,-20 304.032,-20 304.032,-0 167.968,-0"/>
<text text-anchor="middle" x="236" y="-6" font-family="Helvetica,sans-Serif" font-size="10.00">AP_Mount_Servo::stabilize</text>
</a>
</g>
</g>
<!-- Node2329&#45;&gt;Node2330 -->
<g id="edge1" class="edge"><title>Node2329&#45;&gt;Node2330</title>
<path fill="none" stroke="midnightblue" d="M329.627,-10C321.21,-10 312.557,-10 304.079,-10"/>
<polygon fill="midnightblue" stroke="midnightblue" points="329.75,-13.5001 339.75,-10 329.75,-6.5001 329.75,-13.5001"/>
</g>
<!-- Node2331 -->
<g id="node3" class="node"><title>Node2331</title>
<g id="a_node3"><a xlink:href="classAP__Mount__Servo.html#a4e46d4c891b157986810f9fba8eb69c6" target="_top" xlink:title=" ">
<polygon fill="white" stroke="black" points="0.739258,-0 0.739258,-20 131.261,-20 131.261,-0 0.739258,-0"/>
<text text-anchor="middle" x="66" y="-6" font-family="Helvetica,sans-Serif" font-size="10.00">AP_Mount_Servo::update</text>
</a>
</g>
</g>
<!-- Node2330&#45;&gt;Node2331 -->
<g id="edge2" class="edge"><title>Node2330&#45;&gt;Node2331</title>
<path fill="none" stroke="midnightblue" d="M157.457,-10C148.731,-10 139.911,-10 131.377,-10"/>
<polygon fill="midnightblue" stroke="midnightblue" points="157.636,-13.5001 167.636,-10 157.636,-6.5001 157.636,-13.5001"/>
</g>
</g>
</svg>
