<?xml version="1.0" encoding="UTF-8" standalone="no"?>
<!DOCTYPE svg PUBLIC "-//W3C//DTD SVG 1.1//EN"
 "http://www.w3.org/Graphics/SVG/1.1/DTD/svg11.dtd">
<!-- Generated by graphviz version 2.30.1 (20130221.2233)
 -->
<!-- Title: AP_OAPathPlanner::pre_arm_check Pages: 1 -->
<!--zoomable 157 -->
<svg id="main" version="1.1" xmlns="http://www.w3.org/2000/svg" xmlns:xlink="http://www.w3.org/1999/xlink" xml:space="preserve" onload="init(evt)">
<style type="text/css"><![CDATA[
.edge:hover path { stroke: red; }
.edge:hover polygon { stroke: red; fill: red; }
]]></style>
<script type="text/javascript"><![CDATA[
var edges = document.getElementsByTagName('g');
if (edges && edges.length) {
  for (var i=0;i<edges.length;i++) {
    if (edges[i].id.substr(0,4)=='edge') {
      edges[i].setAttribute('class','edge');
    }
  }
}
]]></script>
        <defs>
                <circle id="rim" cx="0" cy="0" r="7"/>
                <circle id="rim2" cx="0" cy="0" r="3.5"/>
                <g id="zoomPlus">
                        <use xlink:href="#rim" fill="#404040">
                                <set attributeName="fill" to="#808080" begin="zoomplus.mouseover" end="zoomplus.mouseout"/>
                        </use>
                        <path d="M-4,0h8M0,-4v8" fill="none" stroke="white" stroke-width="1.5" pointer-events="none"/>
                </g>
                <g id="zoomMin">
                        <use xlink:href="#rim" fill="#404040">
                                <set attributeName="fill" to="#808080" begin="zoomminus.mouseover" end="zoomminus.mouseout"/>
                        </use>
                        <path d="M-4,0h8" fill="none" stroke="white" stroke-width="1.5" pointer-events="none"/>
                </g>
                <g id="dirArrow">
                        <path fill="none" stroke="white" stroke-width="1.5" d="M0,-3.0v7 M-2.5,-0.5L0,-3.0L2.5,-0.5"/>
                </g>
               <g id="resetDef">
                       <use xlink:href="#rim2" fill="#404040">
                               <set attributeName="fill" to="#808080" begin="reset.mouseover" end="reset.mouseout"/>
                       </use>
               </g>
        </defs>

<script type="text/javascript">
var viewWidth = 798;
var viewHeight = 157;
var sectionId = 'dynsection-7';
</script>
<script xlink:href="svgpan.js"/>
<svg id="graph" class="graph">
<g id="viewport">
<title>AP_OAPathPlanner::pre_arm_check</title>
<polygon fill="white" stroke="white" points="-4,5 -4,-153 795,-153 795,5 -4,5"/>
<!-- Node210 -->
<g id="node1" class="node"><title>Node210</title>
<g id="a_node1"><a xlink:title="returns true if all pre&#45;takeoff checks have completed successfully">
<polygon fill="#bfbfbf" stroke="black" points="-0.199219,-32 -0.199219,-64 124.199,-64 124.199,-32 -0.199219,-32"/>
<text text-anchor="start" x="7.80078" y="-50" font-family="Helvetica,sans-Serif" font-size="10.00">AP_OAPathPlanner::pre</text>
<text text-anchor="middle" x="62" y="-38" font-family="Helvetica,sans-Serif" font-size="10.00">_arm_check</text>
</a>
</g>
</g>
<!-- Node211 -->
<g id="node2" class="node"><title>Node211</title>
<g id="a_node2"><a xlink:href="classAP__HAL_1_1Util.html#adead79890b223f40eaf092fda231c2f2" target="_top" xlink:title=" ">
<polygon fill="white" stroke="black" points="160.648,-38 160.648,-58 273.352,-58 273.352,-38 160.648,-38"/>
<text text-anchor="middle" x="217" y="-44" font-family="Helvetica,sans-Serif" font-size="10.00">AP_HAL::Util::snprintf</text>
</a>
</g>
</g>
<!-- Node210&#45;&gt;Node211 -->
<g id="edge1" class="edge"><title>Node210&#45;&gt;Node211</title>
<path fill="none" stroke="midnightblue" d="M124.349,-48C132.954,-48 141.825,-48 150.503,-48"/>
<polygon fill="midnightblue" stroke="midnightblue" points="150.574,-51.5001 160.574,-48 150.574,-44.5001 150.574,-51.5001"/>
</g>
<!-- Node212 -->
<g id="node3" class="node"><title>Node212</title>
<g id="a_node3"><a xlink:href="classAP__HAL_1_1Util.html#ac57ef0a9815cd597ad5cab5d6c31c6c8" target="_top" xlink:title=" ">
<polygon fill="white" stroke="black" points="310.148,-38 310.148,-58 427.852,-58 427.852,-38 310.148,-38"/>
<text text-anchor="middle" x="369" y="-44" font-family="Helvetica,sans-Serif" font-size="10.00">AP_HAL::Util::vsnprintf</text>
</a>
</g>
</g>
<!-- Node211&#45;&gt;Node212 -->
<g id="edge2" class="edge"><title>Node211&#45;&gt;Node212</title>
<path fill="none" stroke="midnightblue" d="M273.428,-48C282.006,-48 290.951,-48 299.77,-48"/>
<polygon fill="midnightblue" stroke="midnightblue" points="300.035,-51.5001 310.035,-48 300.035,-44.5001 300.035,-51.5001"/>
</g>
<!-- Node213 -->
<g id="node4" class="node"><title>Node213</title>
<g id="a_node4"><a xlink:href="print__vprintf_8cpp.html#a98e0d5bb436a207f576379beaa786040" target="_top" xlink:title=" ">
<polygon fill="white" stroke="black" points="479.877,-58 479.877,-78 548.123,-78 548.123,-58 479.877,-58"/>
<text text-anchor="middle" x="514" y="-64" font-family="Helvetica,sans-Serif" font-size="10.00">print_vprintf</text>
</a>
</g>
</g>
<!-- Node212&#45;&gt;Node213 -->
<g id="edge3" class="edge"><title>Node212&#45;&gt;Node213</title>
<path fill="none" stroke="midnightblue" d="M428.164,-56.1348C441.953,-58.0633 456.428,-60.0878 469.439,-61.9075"/>
<polygon fill="midnightblue" stroke="midnightblue" points="469.13,-65.3983 479.518,-63.3172 470.099,-58.4657 469.13,-65.3983"/>
</g>
<!-- Node219 -->
<g id="node10" class="node"><title>Node219</title>
<g id="a_node10"><a xlink:href="classBufferPrinter.html#a4eb1dfae7fe1012905c34af6683401b2" target="_top" xlink:title=" ">
<polygon fill="white" stroke="black" points="464.687,-19 464.687,-39 563.313,-39 563.313,-19 464.687,-19"/>
<text text-anchor="middle" x="514" y="-25" font-family="Helvetica,sans-Serif" font-size="10.00">BufferPrinter::write</text>
</a>
</g>
</g>
<!-- Node212&#45;&gt;Node219 -->
<g id="edge11" class="edge"><title>Node212&#45;&gt;Node219</title>
<path fill="none" stroke="midnightblue" d="M428.164,-40.272C436.834,-39.12 445.775,-37.932 454.453,-36.779"/>
<polygon fill="midnightblue" stroke="midnightblue" points="455.035,-40.2325 464.487,-35.4458 454.113,-33.2935 455.035,-40.2325"/>
</g>
<!-- Node214 -->
<g id="node5" class="node"><title>Node214</title>
<g id="a_node5"><a xlink:href="classAP__HAL_1_1BetterStream.html#a915cc01273d4b418c2fb2989fb31a508" target="_top" xlink:title=" ">
<polygon fill="white" stroke="black" points="600.589,-117 600.589,-149 719.411,-149 719.411,-117 600.589,-117"/>
<text text-anchor="start" x="608.589" y="-135" font-family="Helvetica,sans-Serif" font-size="10.00">AP_HAL::BetterStream</text>
<text text-anchor="middle" x="660" y="-123" font-family="Helvetica,sans-Serif" font-size="10.00">::write</text>
</a>
</g>
</g>
<!-- Node213&#45;&gt;Node214 -->
<g id="edge4" class="edge"><title>Node213&#45;&gt;Node214</title>
<path fill="none" stroke="midnightblue" d="M536.62,-78.0286C553.774,-85.9597 578.381,-97.2774 600,-107 604.304,-108.935 608.79,-110.938 613.282,-112.934"/>
<polygon fill="midnightblue" stroke="midnightblue" points="611.892,-116.147 622.453,-116.997 614.728,-109.747 611.892,-116.147"/>
</g>
<!-- Node215 -->
<g id="node6" class="node"><title>Node215</title>
<g id="a_node6"><a xlink:href="ftoa__engine_8cpp.html#a1c28234da8f20b43c85890d4bb452947" target="_top" xlink:title=" ">
<polygon fill="white" stroke="black" points="625.865,-78 625.865,-98 694.135,-98 694.135,-78 625.865,-78"/>
<text text-anchor="middle" x="660" y="-84" font-family="Helvetica,sans-Serif" font-size="10.00">ftoa_engine</text>
</a>
</g>
</g>
<!-- Node213&#45;&gt;Node215 -->
<g id="edge5" class="edge"><title>Node213&#45;&gt;Node215</title>
<path fill="none" stroke="midnightblue" d="M548.398,-72.6387C568.481,-75.428 594.253,-79.0074 615.866,-82.0092"/>
<polygon fill="midnightblue" stroke="midnightblue" points="615.396,-85.4774 625.783,-83.3865 616.359,-78.544 615.396,-85.4774"/>
</g>
<!-- Node217 -->
<g id="node8" class="node"><title>Node217</title>
<g id="a_node8"><a xlink:href="utoa__invert_8cpp.html#a34926f552460b47c414ec4d83b32815c" target="_top" xlink:title=" ">
<polygon fill="white" stroke="black" points="625.04,-39 625.04,-59 694.96,-59 694.96,-39 625.04,-39"/>
<text text-anchor="middle" x="660" y="-45" font-family="Helvetica,sans-Serif" font-size="10.00">ulltoa_invert</text>
</a>
</g>
</g>
<!-- Node213&#45;&gt;Node217 -->
<g id="edge7" class="edge"><title>Node213&#45;&gt;Node217</title>
<path fill="none" stroke="midnightblue" d="M548.398,-63.5933C568.176,-60.9837 593.472,-57.6461 614.878,-54.8216"/>
<polygon fill="midnightblue" stroke="midnightblue" points="615.577,-58.2598 625.034,-53.4817 614.662,-51.3199 615.577,-58.2598"/>
</g>
<!-- Node218 -->
<g id="node9" class="node"><title>Node218</title>
<g id="a_node9"><a xlink:href="utoa__invert_8cpp.html#a5d99bba8e697c1e11da489d88fca8559" target="_top" xlink:title=" ">
<polygon fill="white" stroke="black" points="626.15,-0 626.15,-20 693.85,-20 693.85,-0 626.15,-0"/>
<text text-anchor="middle" x="660" y="-6" font-family="Helvetica,sans-Serif" font-size="10.00">ultoa_invert</text>
</a>
</g>
</g>
<!-- Node213&#45;&gt;Node218 -->
<g id="edge9" class="edge"><title>Node213&#45;&gt;Node218</title>
<path fill="none" stroke="midnightblue" d="M540.589,-57.9843C548.176,-54.8996 556.468,-51.4141 564,-48 580.293,-40.6146 583.491,-36.8876 600,-30 605.499,-27.7057 611.364,-25.4727 617.183,-23.3807"/>
<polygon fill="midnightblue" stroke="midnightblue" points="618.568,-26.6045 626.858,-20.0074 616.263,-19.9947 618.568,-26.6045"/>
</g>
<!-- Node216 -->
<g id="node7" class="node"><title>Node216</title>
<g id="a_node7"><a xlink:href="lstrlib_8c.html#a9605f4d16ae762782f8be8b54aef0a22" target="_top" xlink:title=" ">
<polygon fill="white" stroke="black" points="755.828,-39 755.828,-59 790.172,-59 790.172,-39 755.828,-39"/>
<text text-anchor="middle" x="773" y="-45" font-family="Helvetica,sans-Serif" font-size="10.00">digit</text>
</a>
</g>
</g>
<!-- Node215&#45;&gt;Node216 -->
<g id="edge6" class="edge"><title>Node215&#45;&gt;Node216</title>
<path fill="none" stroke="midnightblue" d="M691.062,-77.9615C700.355,-74.8174 710.615,-71.3049 720,-68 728.508,-65.0042 737.766,-61.6515 746.081,-58.6063"/>
<polygon fill="midnightblue" stroke="midnightblue" points="747.465,-61.8264 755.641,-55.0888 745.048,-55.2569 747.465,-61.8264"/>
</g>
<!-- Node217&#45;&gt;Node216 -->
<g id="edge8" class="edge"><title>Node217&#45;&gt;Node216</title>
<path fill="none" stroke="midnightblue" d="M695.209,-49C711.407,-49 730.457,-49 745.53,-49"/>
<polygon fill="midnightblue" stroke="midnightblue" points="745.705,-52.5001 755.705,-49 745.705,-45.5001 745.705,-52.5001"/>
</g>
<!-- Node218&#45;&gt;Node216 -->
<g id="edge10" class="edge"><title>Node218&#45;&gt;Node216</title>
<path fill="none" stroke="midnightblue" d="M691.062,-20.0385C700.355,-23.1826 710.615,-26.6951 720,-30 728.508,-32.9958 737.766,-36.3485 746.081,-39.3937"/>
<polygon fill="midnightblue" stroke="midnightblue" points="745.048,-42.7431 755.641,-42.9112 747.465,-36.1736 745.048,-42.7431"/>
</g>
</g>
</svg>
        <g id="navigator" transform="translate(0 0)" fill="#404254">
                <rect fill="#f2f5e9" fill-opacity="0.5" stroke="#606060" stroke-width=".5" x="0" y="0" width="60" height="60"/>
                <use id="zoomplus" xlink:href="#zoomPlus" x="17" y="9" onmousedown="handleZoom(evt,'in')"/>
                <use id="zoomminus" xlink:href="#zoomMin" x="42" y="9" onmousedown="handleZoom(evt,'out')"/>
                <use id="reset" xlink:href="#resetDef" x="30" y="36" onmousedown="handleReset()"/>
                <g id="arrowUp" xlink:href="#dirArrow" transform="translate(30 24)" onmousedown="handlePan(0,-1)">
                  <use xlink:href="#rim" fill="#404040">
                        <set attributeName="fill" to="#808080" begin="arrowUp.mouseover" end="arrowUp.mouseout"/>
                  </use>
                  <path fill="none" stroke="white" stroke-width="1.5" d="M0,-3.0v7 M-2.5,-0.5L0,-3.0L2.5,-0.5"/>
                </g>
                <g id="arrowRight" xlink:href="#dirArrow" transform="rotate(90) translate(36 -43)" onmousedown="handlePan(1,0)">
                  <use xlink:href="#rim" fill="#404040">
                        <set attributeName="fill" to="#808080" begin="arrowRight.mouseover" end="arrowRight.mouseout"/>
                  </use>
                  <path fill="none" stroke="white" stroke-width="1.5" d="M0,-3.0v7 M-2.5,-0.5L0,-3.0L2.5,-0.5"/>
                </g>
                <g id="arrowDown" xlink:href="#dirArrow" transform="rotate(180) translate(-30 -48)" onmousedown="handlePan(0,1)">
                  <use xlink:href="#rim" fill="#404040">
                        <set attributeName="fill" to="#808080" begin="arrowDown.mouseover" end="arrowDown.mouseout"/>
                  </use>
                  <path fill="none" stroke="white" stroke-width="1.5" d="M0,-3.0v7 M-2.5,-0.5L0,-3.0L2.5,-0.5"/>
                </g>
                <g id="arrowLeft" xlink:href="#dirArrow" transform="rotate(270) translate(-36 17)" onmousedown="handlePan(-1,0)">
                  <use xlink:href="#rim" fill="#404040">
                        <set attributeName="fill" to="#808080" begin="arrowLeft.mouseover" end="arrowLeft.mouseout"/>
                  </use>
                  <path fill="none" stroke="white" stroke-width="1.5" d="M0,-3.0v7 M-2.5,-0.5L0,-3.0L2.5,-0.5"/>
                </g>
        </g>
        <svg viewBox="0 0 15 15" width="100%" height="30px" preserveAspectRatio="xMaxYMin meet">
         <g id="arrow_out" transform="scale(0.3 0.3)">
          <a xlink:href="classAP__OAPathPlanner_a6a4d5bb42cfb7e326c06d38a172f0e13_cgraph_org.svg" target="_base">
           <rect id="button" ry="5" rx="5" y="6" x="6" height="38" width="38"
                fill="#f2f5e9" fill-opacity="0.5" stroke="#606060" stroke-width="1.0"/>
           <path id="arrow"
             d="M 11.500037,31.436501 C 11.940474,20.09759 22.043105,11.32322 32.158766,21.979434 L 37.068811,17.246167 C 37.068811,17.246167 37.088388,32 37.088388,32 L 22.160133,31.978069 C 22.160133,31.978069 26.997745,27.140456 26.997745,27.140456 C 18.528582,18.264221 13.291696,25.230495 11.500037,31.436501 z"
             style="fill:#404040;"/>
          </a>
         </g>
        </svg>
</svg>
