<?xml version="1.0" encoding="UTF-8" standalone="no"?>
<!DOCTYPE svg PUBLIC "-//W3C//DTD SVG 1.1//EN"
 "http://www.w3.org/Graphics/SVG/1.1/DTD/svg11.dtd">
<!-- Generated by graphviz version 2.30.1 (20130221.2233)
 -->
<!-- Title: AC_PosControl_Sub::set_alt_target_from_climb_rate_ff Pages: 1 -->
<svg width="782pt" height="146pt"
 viewBox="0.00 0.00 782.00 146.00" xmlns="http://www.w3.org/2000/svg" xmlns:xlink="http://www.w3.org/1999/xlink">
<g id="graph0" class="graph" transform="scale(1 1) rotate(0) translate(4 142)">
<title>AC_PosControl_Sub::set_alt_target_from_climb_rate_ff</title>
<polygon fill="white" stroke="white" points="-4,5 -4,-142 779,-142 779,5 -4,5"/>
<!-- Node23 -->
<g id="node1" class="node"><title>Node23</title>
<g id="a_node1"><a xlink:title=" ">
<polygon fill="#bfbfbf" stroke="black" points="0.0839844,-47 0.0839844,-91 113.916,-91 113.916,-47 0.0839844,-47"/>
<text text-anchor="start" x="8.08398" y="-77" font-family="Helvetica,sans-Serif" font-size="10.00">AC_PosControl_Sub::</text>
<text text-anchor="start" x="8.08398" y="-65" font-family="Helvetica,sans-Serif" font-size="10.00">set_alt_target_from</text>
<text text-anchor="middle" x="57" y="-53" font-family="Helvetica,sans-Serif" font-size="10.00">_climb_rate_ff</text>
</a>
</g>
</g>
<!-- Node24 -->
<g id="node2" class="node"><title>Node24</title>
<g id="a_node2"><a xlink:href="AP__Math_8h.html#a2a12cce483e9b870da70d30406d82c60" target="_top" xlink:title=" ">
<polygon fill="white" stroke="black" points="166.882,-118 166.882,-138 215.118,-138 215.118,-118 166.882,-118"/>
<text text-anchor="middle" x="191" y="-124" font-family="Helvetica,sans-Serif" font-size="10.00">is_zero</text>
</a>
</g>
</g>
<!-- Node23&#45;&gt;Node24 -->
<g id="edge1" class="edge"><title>Node23&#45;&gt;Node24</title>
<path fill="none" stroke="midnightblue" d="M107.527,-91.1373C124.45,-98.7013 142.917,-106.955 158.077,-113.732"/>
<polygon fill="midnightblue" stroke="midnightblue" points="156.956,-117.064 167.513,-117.949 159.812,-110.673 156.956,-117.064"/>
</g>
<!-- Node25 -->
<g id="node3" class="node"><title>Node25</title>
<g id="a_node3"><a xlink:href="AP__Math_8h.html#ad525609d9dba6ffa556a0fbf08a3f9b4" target="_top" xlink:title=" ">
<polygon fill="white" stroke="black" points="150.48,-79 150.48,-99 231.52,-99 231.52,-79 150.48,-79"/>
<text text-anchor="middle" x="191" y="-85" font-family="Helvetica,sans-Serif" font-size="10.00">constrain_float</text>
</a>
</g>
</g>
<!-- Node23&#45;&gt;Node25 -->
<g id="edge2" class="edge"><title>Node23&#45;&gt;Node25</title>
<path fill="none" stroke="midnightblue" d="M113.98,-77.4818C122.768,-78.8133 131.798,-80.1815 140.428,-81.4891"/>
<polygon fill="midnightblue" stroke="midnightblue" points="139.925,-84.9528 150.337,-82.9904 140.974,-78.0318 139.925,-84.9528"/>
</g>
<!-- Node32 -->
<g id="node10" class="node"><title>Node32</title>
<g id="a_node10"><a xlink:href="AP__Math_8h.html#a321a91de43cfb2e95d40cde314d0a80f" target="_top" xlink:title=" ">
<polygon fill="white" stroke="black" points="173.835,-40 173.835,-60 208.165,-60 208.165,-40 173.835,-40"/>
<text text-anchor="middle" x="191" y="-46" font-family="Helvetica,sans-Serif" font-size="10.00">MIN</text>
</a>
</g>
</g>
<!-- Node23&#45;&gt;Node32 -->
<g id="edge9" class="edge"><title>Node23&#45;&gt;Node32</title>
<path fill="none" stroke="midnightblue" d="M113.98,-60.9423C131.226,-58.4599 149.407,-55.843 163.663,-53.791"/>
<polygon fill="midnightblue" stroke="midnightblue" points="164.32,-57.2326 173.719,-52.3435 163.322,-50.304 164.32,-57.2326"/>
</g>
<!-- Node33 -->
<g id="node11" class="node"><title>Node33</title>
<g id="a_node11"><a xlink:href="AP__Math_8cpp.html#ac89eb1832d8e4d67fcf1ac07e3c25184" target="_top" xlink:title=" ">
<polygon fill="white" stroke="black" points="162.434,-1 162.434,-21 219.566,-21 219.566,-1 162.434,-1"/>
<text text-anchor="middle" x="191" y="-7" font-family="Helvetica,sans-Serif" font-size="10.00">safe_sqrt</text>
</a>
</g>
</g>
<!-- Node23&#45;&gt;Node33 -->
<g id="edge10" class="edge"><title>Node23&#45;&gt;Node33</title>
<path fill="none" stroke="midnightblue" d="M108.28,-46.9072C124.895,-39.6067 142.921,-31.6861 157.805,-25.1461"/>
<polygon fill="midnightblue" stroke="midnightblue" points="159.339,-28.2953 167.086,-21.0682 156.523,-21.8866 159.339,-28.2953"/>
</g>
<!-- Node26 -->
<g id="node4" class="node"><title>Node26</title>
<g id="a_node4"><a xlink:href="AP__Math_8h.html#a20e8f8671c282c69c1954652b6d61585" target="_top" xlink:title=" ">
<polygon fill="white" stroke="black" points="267.978,-79 267.978,-99 354.022,-99 354.022,-79 267.978,-79"/>
<text text-anchor="middle" x="311" y="-85" font-family="Helvetica,sans-Serif" font-size="10.00">constrain_value</text>
</a>
</g>
</g>
<!-- Node25&#45;&gt;Node26 -->
<g id="edge3" class="edge"><title>Node25&#45;&gt;Node26</title>
<path fill="none" stroke="midnightblue" d="M231.621,-89C239.994,-89 248.953,-89 257.712,-89"/>
<polygon fill="midnightblue" stroke="midnightblue" points="257.856,-92.5001 267.856,-89 257.856,-85.5001 257.856,-92.5001"/>
</g>
<!-- Node27 -->
<g id="node5" class="node"><title>Node27</title>
<g id="a_node5"><a xlink:href="namespaceAP.html#afceb236ff617aaaa2b08afacd72532b0" target="_top" xlink:title=" ">
<polygon fill="white" stroke="black" points="404.596,-99 404.596,-119 493.404,-119 493.404,-99 404.596,-99"/>
<text text-anchor="middle" x="449" y="-105" font-family="Helvetica,sans-Serif" font-size="10.00">AP::internalerror</text>
</a>
</g>
</g>
<!-- Node26&#45;&gt;Node27 -->
<g id="edge4" class="edge"><title>Node26&#45;&gt;Node27</title>
<path fill="none" stroke="midnightblue" d="M354.286,-95.2185C366.962,-97.0826 381.035,-99.1523 394.342,-101.109"/>
<polygon fill="midnightblue" stroke="midnightblue" points="393.929,-104.586 404.331,-102.578 394.947,-97.6604 393.929,-104.586"/>
</g>
<!-- Node28 -->
<g id="node6" class="node"><title>Node28</title>
<g id="a_node6"><a xlink:href="classAP__InternalError.html#ab34174ba770b976b39a18c2b23e854f2" target="_top" xlink:title=" ">
<polygon fill="white" stroke="black" points="390.426,-60 390.426,-80 507.574,-80 507.574,-60 390.426,-60"/>
<text text-anchor="middle" x="449" y="-66" font-family="Helvetica,sans-Serif" font-size="10.00">AP_InternalError::error</text>
</a>
</g>
</g>
<!-- Node26&#45;&gt;Node28 -->
<g id="edge5" class="edge"><title>Node26&#45;&gt;Node28</title>
<path fill="none" stroke="midnightblue" d="M354.286,-83.0924C362.557,-81.9369 371.424,-80.6981 380.284,-79.4603"/>
<polygon fill="midnightblue" stroke="midnightblue" points="380.833,-82.9177 390.253,-78.0676 379.865,-75.985 380.833,-82.9177"/>
</g>
<!-- Node29 -->
<g id="node7" class="node"><title>Node29</title>
<g id="a_node7"><a xlink:href="namespaceAP__HAL.html#a71832f03d849a0c088f04fc98d3c8143" target="_top" xlink:title=" ">
<polygon fill="white" stroke="black" points="544.091,-60 544.091,-80 627.909,-80 627.909,-60 544.091,-60"/>
<text text-anchor="middle" x="586" y="-66" font-family="Helvetica,sans-Serif" font-size="10.00">AP_HAL::panic</text>
</a>
</g>
</g>
<!-- Node28&#45;&gt;Node29 -->
<g id="edge6" class="edge"><title>Node28&#45;&gt;Node29</title>
<path fill="none" stroke="midnightblue" d="M507.644,-70C516.305,-70 525.188,-70 533.705,-70"/>
<polygon fill="midnightblue" stroke="midnightblue" points="533.873,-73.5001 543.873,-70 533.872,-66.5001 533.873,-73.5001"/>
</g>
<!-- Node30 -->
<g id="node8" class="node"><title>Node30</title>
<g id="a_node8"><a xlink:href="stdio_8h.html#aae132cc6af1eb6cf43bf011d8d63e854" target="_top" xlink:title=" ">
<polygon fill="white" stroke="black" points="697.384,-83 697.384,-103 740.616,-103 740.616,-83 697.384,-83"/>
<text text-anchor="middle" x="719" y="-89" font-family="Helvetica,sans-Serif" font-size="10.00">vprintf</text>
</a>
</g>
</g>
<!-- Node29&#45;&gt;Node30 -->
<g id="edge7" class="edge"><title>Node29&#45;&gt;Node30</title>
<path fill="none" stroke="midnightblue" d="M628.09,-77.2142C647.104,-80.5526 669.321,-84.4533 686.913,-87.542"/>
<polygon fill="midnightblue" stroke="midnightblue" points="686.744,-91.0658 697.199,-89.3478 687.954,-84.1712 686.744,-91.0658"/>
</g>
<!-- Node31 -->
<g id="node9" class="node"><title>Node31</title>
<g id="a_node9"><a xlink:href="classAP__HAL_1_1Scheduler.html#a78c4f1b1f192ac1c99544b6cc8f099b0" target="_top" xlink:title=" ">
<polygon fill="white" stroke="black" points="663.751,-32 663.751,-64 774.249,-64 774.249,-32 663.751,-32"/>
<text text-anchor="start" x="671.751" y="-50" font-family="Helvetica,sans-Serif" font-size="10.00">AP_HAL::Scheduler::</text>
<text text-anchor="middle" x="719" y="-38" font-family="Helvetica,sans-Serif" font-size="10.00">delay_microseconds</text>
</a>
</g>
</g>
<!-- Node29&#45;&gt;Node31 -->
<g id="edge8" class="edge"><title>Node29&#45;&gt;Node31</title>
<path fill="none" stroke="midnightblue" d="M628.09,-63.0994C636.18,-61.7408 644.849,-60.2849 653.495,-58.8329"/>
<polygon fill="midnightblue" stroke="midnightblue" points="654.316,-62.2441 663.599,-57.1361 653.157,-55.3407 654.316,-62.2441"/>
</g>
</g>
</svg>
