<?xml version="1.0" encoding="UTF-8" standalone="no"?>
<!DOCTYPE svg PUBLIC "-//W3C//DTD SVG 1.1//EN"
 "http://www.w3.org/Graphics/SVG/1.1/DTD/svg11.dtd">
<!-- Generated by graphviz version 2.30.1 (20130221.2233)
 -->
<!-- Title: AP_Avoidance::handle_threat_gcs_notify Pages: 1 -->
<!--zoomable 119 -->
<svg id="main" version="1.1" xmlns="http://www.w3.org/2000/svg" xmlns:xlink="http://www.w3.org/1999/xlink" xml:space="preserve" onload="init(evt)">
<style type="text/css"><![CDATA[
.edge:hover path { stroke: red; }
.edge:hover polygon { stroke: red; fill: red; }
]]></style>
<script type="text/javascript"><![CDATA[
var edges = document.getElementsByTagName('g');
if (edges && edges.length) {
  for (var i=0;i<edges.length;i++) {
    if (edges[i].id.substr(0,4)=='edge') {
      edges[i].setAttribute('class','edge');
    }
  }
}
]]></script>
        <defs>
                <circle id="rim" cx="0" cy="0" r="7"/>
                <circle id="rim2" cx="0" cy="0" r="3.5"/>
                <g id="zoomPlus">
                        <use xlink:href="#rim" fill="#404040">
                                <set attributeName="fill" to="#808080" begin="zoomplus.mouseover" end="zoomplus.mouseout"/>
                        </use>
                        <path d="M-4,0h8M0,-4v8" fill="none" stroke="white" stroke-width="1.5" pointer-events="none"/>
                </g>
                <g id="zoomMin">
                        <use xlink:href="#rim" fill="#404040">
                                <set attributeName="fill" to="#808080" begin="zoomminus.mouseover" end="zoomminus.mouseout"/>
                        </use>
                        <path d="M-4,0h8" fill="none" stroke="white" stroke-width="1.5" pointer-events="none"/>
                </g>
                <g id="dirArrow">
                        <path fill="none" stroke="white" stroke-width="1.5" d="M0,-3.0v7 M-2.5,-0.5L0,-3.0L2.5,-0.5"/>
                </g>
               <g id="resetDef">
                       <use xlink:href="#rim2" fill="#404040">
                               <set attributeName="fill" to="#808080" begin="reset.mouseover" end="reset.mouseout"/>
                       </use>
               </g>
        </defs>

<script type="text/javascript">
var viewWidth = 628;
var viewHeight = 119;
var sectionId = 'dynsection-19';
</script>
<script xlink:href="svgpan.js"/>
<svg id="graph" class="graph">
<g id="viewport">
<title>AP_Avoidance::handle_threat_gcs_notify</title>
<polygon fill="white" stroke="white" points="-4,5 -4,-115 625,-115 625,5 -4,5"/>
<!-- Node163 -->
<g id="node1" class="node"><title>Node163</title>
<g id="a_node1"><a xlink:title=" ">
<polygon fill="#bfbfbf" stroke="black" points="0.494629,-46 0.494629,-78 117.505,-78 117.505,-46 0.494629,-46"/>
<text text-anchor="start" x="8.49463" y="-64" font-family="Helvetica,sans-Serif" font-size="10.00">AP_Avoidance::handle</text>
<text text-anchor="middle" x="59" y="-52" font-family="Helvetica,sans-Serif" font-size="10.00">_threat_gcs_notify</text>
</a>
</g>
</g>
<!-- Node164 -->
<g id="node2" class="node"><title>Node164</title>
<g id="a_node2"><a xlink:href="namespaceAP__HAL.html#a77dffbb18891996280308e21316ec186" target="_top" xlink:title=" ">
<polygon fill="white" stroke="black" points="197.936,-91 197.936,-111 280.064,-111 280.064,-91 197.936,-91"/>
<text text-anchor="middle" x="239" y="-97" font-family="Helvetica,sans-Serif" font-size="10.00">AP_HAL::millis</text>
</a>
</g>
</g>
<!-- Node163&#45;&gt;Node164 -->
<g id="edge1" class="edge"><title>Node163&#45;&gt;Node164</title>
<path fill="none" stroke="midnightblue" d="M117.791,-74.6622C140.314,-79.5968 165.889,-85.2003 187.642,-89.9665"/>
<polygon fill="midnightblue" stroke="midnightblue" points="187.145,-93.4405 197.662,-92.1619 188.643,-86.6027 187.145,-93.4405"/>
</g>
<!-- Node166 -->
<g id="node4" class="node"><title>Node166</title>
<g id="a_node4"><a xlink:href="structGCS__MAVLINK.html#a007e2acbb02611a68d30d68ed140b0fe" target="_top" xlink:title=" ">
<polygon fill="white" stroke="black" points="153.832,-52 153.832,-72 324.168,-72 324.168,-52 153.832,-52"/>
<text text-anchor="middle" x="239" y="-58" font-family="Helvetica,sans-Serif" font-size="10.00">GCS_MAVLINK::send_collision_all</text>
</a>
</g>
</g>
<!-- Node163&#45;&gt;Node166 -->
<g id="edge3" class="edge"><title>Node163&#45;&gt;Node166</title>
<path fill="none" stroke="midnightblue" d="M117.791,-62C126.036,-62 134.69,-62 143.416,-62"/>
<polygon fill="midnightblue" stroke="midnightblue" points="143.672,-65.5001 153.672,-62 143.672,-58.5001 143.672,-65.5001"/>
</g>
<!-- Node170 -->
<g id="node8" class="node"><title>Node170</title>
<g id="a_node8"><a xlink:href="classAP__Avoidance.html#ae3a540ca8d21a7850438cad1ba071a2f" target="_top" xlink:title=" ">
<polygon fill="white" stroke="black" points="160.487,-1 160.487,-33 317.513,-33 317.513,-1 160.487,-1"/>
<text text-anchor="start" x="168.487" y="-19" font-family="Helvetica,sans-Serif" font-size="10.00">AP_Avoidance::mav_avoidance</text>
<text text-anchor="middle" x="239" y="-7" font-family="Helvetica,sans-Serif" font-size="10.00">_action</text>
</a>
</g>
</g>
<!-- Node163&#45;&gt;Node170 -->
<g id="edge7" class="edge"><title>Node163&#45;&gt;Node170</title>
<path fill="none" stroke="midnightblue" d="M117.791,-47.3898C132.697,-43.6215 148.94,-39.5151 164.528,-35.5745"/>
<polygon fill="midnightblue" stroke="midnightblue" points="165.818,-38.8584 174.655,-33.0141 164.103,-32.0719 165.818,-38.8584"/>
</g>
<!-- Node165 -->
<g id="node3" class="node"><title>Node165</title>
<g id="a_node3"><a xlink:href="hrt_8c.html#a1295f128f60d29874243b5733c4db025" target="_top" xlink:title=" ">
<polygon fill="white" stroke="black" points="378.714,-91 378.714,-111 445.286,-111 445.286,-91 378.714,-91"/>
<text text-anchor="middle" x="412" y="-97" font-family="Helvetica,sans-Serif" font-size="10.00">hrt_millis32</text>
</a>
</g>
</g>
<!-- Node164&#45;&gt;Node165 -->
<g id="edge2" class="edge"><title>Node164&#45;&gt;Node165</title>
<path fill="none" stroke="midnightblue" d="M280.092,-101C306.585,-101 341.272,-101 368.283,-101"/>
<polygon fill="midnightblue" stroke="midnightblue" points="368.597,-104.5 378.597,-101 368.597,-97.5001 368.597,-104.5"/>
</g>
<!-- Node167 -->
<g id="node5" class="node"><title>Node167</title>
<g id="a_node5"><a xlink:href="GCS__MAVLink_8cpp.html#a2a0fd455fd37f642e9eb67373a14b7d9" target="_top" xlink:title=" ">
<polygon fill="white" stroke="black" points="360.646,-52 360.646,-72 463.354,-72 463.354,-52 360.646,-52"/>
<text text-anchor="middle" x="412" y="-58" font-family="Helvetica,sans-Serif" font-size="10.00">comm_get_txspace</text>
</a>
</g>
</g>
<!-- Node166&#45;&gt;Node167 -->
<g id="edge4" class="edge"><title>Node166&#45;&gt;Node167</title>
<path fill="none" stroke="midnightblue" d="M324.248,-62C332.998,-62 341.766,-62 350.185,-62"/>
<polygon fill="midnightblue" stroke="midnightblue" points="350.256,-65.5001 360.256,-62 350.256,-58.5001 350.256,-65.5001"/>
</g>
<!-- Node168 -->
<g id="node6" class="node"><title>Node168</title>
<g id="a_node6"><a xlink:href="GCS__MAVLink_8h.html#a17ee8d1ce05b7d160ccc6a78b92b774f" target="_top" xlink:title=" ">
<polygon fill="white" stroke="black" points="521.421,-75 521.421,-95 598.579,-95 598.579,-75 521.421,-75"/>
<text text-anchor="middle" x="560" y="-81" font-family="Helvetica,sans-Serif" font-size="10.00">valid_channel</text>
</a>
</g>
</g>
<!-- Node167&#45;&gt;Node168 -->
<g id="edge5" class="edge"><title>Node167&#45;&gt;Node168</title>
<path fill="none" stroke="midnightblue" d="M463.654,-69.9797C479.045,-72.4043 495.903,-75.06 511.106,-77.4551"/>
<polygon fill="midnightblue" stroke="midnightblue" points="510.906,-80.9666 521.329,-79.0655 511.995,-74.0519 510.906,-80.9666"/>
</g>
<!-- Node169 -->
<g id="node7" class="node"><title>Node169</title>
<g id="a_node7"><a xlink:href="classAP__HAL_1_1BetterStream.html#ab0193c7791fd95eb2bfbfd6597bdf6d8" target="_top" xlink:title=" ">
<polygon fill="white" stroke="black" points="500.589,-24 500.589,-56 619.411,-56 619.411,-24 500.589,-24"/>
<text text-anchor="start" x="508.589" y="-42" font-family="Helvetica,sans-Serif" font-size="10.00">AP_HAL::BetterStream</text>
<text text-anchor="middle" x="560" y="-30" font-family="Helvetica,sans-Serif" font-size="10.00">::txspace</text>
</a>
</g>
</g>
<!-- Node167&#45;&gt;Node169 -->
<g id="edge6" class="edge"><title>Node167&#45;&gt;Node169</title>
<path fill="none" stroke="midnightblue" d="M463.654,-54.3672C472.271,-53.0688 481.348,-51.7011 490.336,-50.3466"/>
<polygon fill="midnightblue" stroke="midnightblue" points="491.051,-53.7785 500.418,-48.8274 490.008,-46.8566 491.051,-53.7785"/>
</g>
</g>
</svg>
        <g id="navigator" transform="translate(0 0)" fill="#404254">
                <rect fill="#f2f5e9" fill-opacity="0.5" stroke="#606060" stroke-width=".5" x="0" y="0" width="60" height="60"/>
                <use id="zoomplus" xlink:href="#zoomPlus" x="17" y="9" onmousedown="handleZoom(evt,'in')"/>
                <use id="zoomminus" xlink:href="#zoomMin" x="42" y="9" onmousedown="handleZoom(evt,'out')"/>
                <use id="reset" xlink:href="#resetDef" x="30" y="36" onmousedown="handleReset()"/>
                <g id="arrowUp" xlink:href="#dirArrow" transform="translate(30 24)" onmousedown="handlePan(0,-1)">
                  <use xlink:href="#rim" fill="#404040">
                        <set attributeName="fill" to="#808080" begin="arrowUp.mouseover" end="arrowUp.mouseout"/>
                  </use>
                  <path fill="none" stroke="white" stroke-width="1.5" d="M0,-3.0v7 M-2.5,-0.5L0,-3.0L2.5,-0.5"/>
                </g>
                <g id="arrowRight" xlink:href="#dirArrow" transform="rotate(90) translate(36 -43)" onmousedown="handlePan(1,0)">
                  <use xlink:href="#rim" fill="#404040">
                        <set attributeName="fill" to="#808080" begin="arrowRight.mouseover" end="arrowRight.mouseout"/>
                  </use>
                  <path fill="none" stroke="white" stroke-width="1.5" d="M0,-3.0v7 M-2.5,-0.5L0,-3.0L2.5,-0.5"/>
                </g>
                <g id="arrowDown" xlink:href="#dirArrow" transform="rotate(180) translate(-30 -48)" onmousedown="handlePan(0,1)">
                  <use xlink:href="#rim" fill="#404040">
                        <set attributeName="fill" to="#808080" begin="arrowDown.mouseover" end="arrowDown.mouseout"/>
                  </use>
                  <path fill="none" stroke="white" stroke-width="1.5" d="M0,-3.0v7 M-2.5,-0.5L0,-3.0L2.5,-0.5"/>
                </g>
                <g id="arrowLeft" xlink:href="#dirArrow" transform="rotate(270) translate(-36 17)" onmousedown="handlePan(-1,0)">
                  <use xlink:href="#rim" fill="#404040">
                        <set attributeName="fill" to="#808080" begin="arrowLeft.mouseover" end="arrowLeft.mouseout"/>
                  </use>
                  <path fill="none" stroke="white" stroke-width="1.5" d="M0,-3.0v7 M-2.5,-0.5L0,-3.0L2.5,-0.5"/>
                </g>
        </g>
        <svg viewBox="0 0 15 15" width="100%" height="30px" preserveAspectRatio="xMaxYMin meet">
         <g id="arrow_out" transform="scale(0.3 0.3)">
          <a xlink:href="classAP__Avoidance_adc8a3f773458736daeec7b63edd068ba_cgraph_org.svg" target="_base">
           <rect id="button" ry="5" rx="5" y="6" x="6" height="38" width="38"
                fill="#f2f5e9" fill-opacity="0.5" stroke="#606060" stroke-width="1.0"/>
           <path id="arrow"
             d="M 11.500037,31.436501 C 11.940474,20.09759 22.043105,11.32322 32.158766,21.979434 L 37.068811,17.246167 C 37.068811,17.246167 37.088388,32 37.088388,32 L 22.160133,31.978069 C 22.160133,31.978069 26.997745,27.140456 26.997745,27.140456 C 18.528582,18.264221 13.291696,25.230495 11.500037,31.436501 z"
             style="fill:#404040;"/>
          </a>
         </g>
        </svg>
</svg>
