<?xml version="1.0" encoding="UTF-8" standalone="no"?>
<!DOCTYPE svg PUBLIC "-//W3C//DTD SVG 1.1//EN"
 "http://www.w3.org/Graphics/SVG/1.1/DTD/svg11.dtd">
<!-- Generated by graphviz version 2.30.1 (20130221.2233)
 -->
<!-- Title: AP_Landing_Deepstall::verify_abort_landing Pages: 1 -->
<svg width="262pt" height="40pt"
 viewBox="0.00 0.00 262.00 40.00" xmlns="http://www.w3.org/2000/svg" xmlns:xlink="http://www.w3.org/1999/xlink">
<g id="graph0" class="graph" transform="scale(1 1) rotate(0) translate(4 36)">
<title>AP_Landing_Deepstall::verify_abort_landing</title>
<polygon fill="white" stroke="white" points="-4,5 -4,-36 259,-36 259,5 -4,5"/>
<!-- Node410 -->
<g id="node1" class="node"><title>Node410</title>
<g id="a_node1"><a xlink:title=" ">
<polygon fill="#bfbfbf" stroke="black" points="136.128,-0 136.128,-32 253.872,-32 253.872,-0 136.128,-0"/>
<text text-anchor="start" x="144.128" y="-18" font-family="Helvetica,sans-Serif" font-size="10.00">AP_Landing_Deepstall</text>
<text text-anchor="middle" x="195" y="-6" font-family="Helvetica,sans-Serif" font-size="10.00">::verify_abort_landing</text>
</a>
</g>
</g>
<!-- Node411 -->
<g id="node2" class="node"><title>Node411</title>
<g id="a_node2"><a xlink:href="classAP__Landing.html#a23d5d937afe630bfa1d3eeea5d767e4b" target="_top" xlink:title=" ">
<polygon fill="white" stroke="black" points="0.0297852,-0 0.0297852,-32 99.9702,-32 99.9702,-0 0.0297852,-0"/>
<text text-anchor="start" x="8.02979" y="-18" font-family="Helvetica,sans-Serif" font-size="10.00">AP_Landing::verify</text>
<text text-anchor="middle" x="50" y="-6" font-family="Helvetica,sans-Serif" font-size="10.00">_abort_landing</text>
</a>
</g>
</g>
<!-- Node410&#45;&gt;Node411 -->
<g id="edge1" class="edge"><title>Node410&#45;&gt;Node411</title>
<path fill="none" stroke="midnightblue" d="M125.831,-16C117.257,-16 108.62,-16 100.413,-16"/>
<polygon fill="midnightblue" stroke="midnightblue" points="125.836,-19.5001 135.836,-16 125.836,-12.5001 125.836,-19.5001"/>
</g>
</g>
</svg>
