<?xml version="1.0" encoding="UTF-8" standalone="no"?>
<!DOCTYPE svg PUBLIC "-//W3C//DTD SVG 1.1//EN"
 "http://www.w3.org/Graphics/SVG/1.1/DTD/svg11.dtd">
<!-- Generated by graphviz version 2.30.1 (20130221.2233)
 -->
<!-- Title: AP_ADC_ADS1115 Pages: 1 -->
<svg width="346pt" height="382pt"
 viewBox="0.00 0.00 346.00 382.00" xmlns="http://www.w3.org/2000/svg" xmlns:xlink="http://www.w3.org/1999/xlink">
<g id="graph0" class="graph" transform="scale(1 1) rotate(0) translate(4 378)">
<title>AP_ADC_ADS1115</title>
<polygon fill="white" stroke="white" points="-4,5 -4,-378 343,-378 343,5 -4,5"/>
<!-- Node1 -->
<g id="node1" class="node"><title>Node1</title>
<g id="a_node1"><a xlink:title=" ">
<polygon fill="#bfbfbf" stroke="black" points="30.5454,-1 30.5454,-21 133.455,-21 133.455,-1 30.5454,-1"/>
<text text-anchor="middle" x="82" y="-7" font-family="Helvetica,sans-Serif" font-size="10.00">AP_ADC_ADS1115</text>
</a>
</g>
</g>
<!-- Node2 -->
<g id="node2" class="node"><title>Node2</title>
<g id="a_node2"><a xlink:href="structadc__report__s.html" target="_top" xlink:title=" ">
<polygon fill="white" stroke="black" points="-0.18457,-77 -0.18457,-97 74.1846,-97 74.1846,-77 -0.18457,-77"/>
<text text-anchor="middle" x="37" y="-83" font-family="Helvetica,sans-Serif" font-size="10.00">adc_report_s</text>
</a>
</g>
</g>
<!-- Node2&#45;&gt;Node1 -->
<g id="edge1" class="edge"><title>Node2&#45;&gt;Node1</title>
<path fill="none" stroke="#9a32cd" stroke-dasharray="5,2" d="M45.3227,-67.7562C49.4982,-59.1331 54.8476,-48.8202 60.4238,-40 64.6215,-33.3603 70.0155,-26.3603 74.3601,-21.0203"/>
<polygon fill="#9a32cd" stroke="#9a32cd" points="42.1054,-66.3733 41.0172,-76.9121 48.44,-69.3522 42.1054,-66.3733"/>
<text text-anchor="middle" x="82.7881" y="-42" font-family="Helvetica,sans-Serif" font-size="10.00"> _samples</text>
</g>
<!-- Node3 -->
<g id="node3" class="node"><title>Node3</title>
<g id="a_node3"><a xlink:href="classAP__HAL_1_1OwnPtr.html" target="_top" xlink:title=" ">
<polygon fill="white" stroke="black" points="92.6689,-71 92.6689,-103 207.331,-103 207.331,-71 92.6689,-71"/>
<text text-anchor="start" x="100.669" y="-89" font-family="Helvetica,sans-Serif" font-size="10.00">AP_HAL::OwnPtr&lt; AP</text>
<text text-anchor="middle" x="150" y="-77" font-family="Helvetica,sans-Serif" font-size="10.00">_HAL::I2CDevice &gt;</text>
</a>
</g>
</g>
<!-- Node3&#45;&gt;Node1 -->
<g id="edge2" class="edge"><title>Node3&#45;&gt;Node1</title>
<path fill="none" stroke="#9a32cd" stroke-dasharray="5,2" d="M129.064,-63.2166C116.078,-49.0846 100.093,-31.6894 90.4919,-21.2412"/>
<polygon fill="#9a32cd" stroke="#9a32cd" points="126.567,-65.6721 135.91,-70.6672 131.721,-60.9357 126.567,-65.6721"/>
<text text-anchor="middle" x="130.231" y="-42" font-family="Helvetica,sans-Serif" font-size="10.00"> _dev</text>
</g>
<!-- Node4 -->
<g id="node4" class="node"><title>Node4</title>
<g id="a_node4"><a xlink:href="classAP__HAL_1_1I2CDevice.html" target="_top" xlink:title=" ">
<polygon fill="white" stroke="black" points="96.9805,-153 96.9805,-173 203.02,-173 203.02,-153 96.9805,-153"/>
<text text-anchor="middle" x="150" y="-159" font-family="Helvetica,sans-Serif" font-size="10.00">AP_HAL::I2CDevice</text>
</a>
</g>
</g>
<!-- Node4&#45;&gt;Node3 -->
<g id="edge3" class="edge"><title>Node4&#45;&gt;Node3</title>
<path fill="none" stroke="#9a32cd" stroke-dasharray="5,2" d="M150,-142.758C150,-130.376 150,-114.514 150,-103.053"/>
<polygon fill="#9a32cd" stroke="#9a32cd" points="146.5,-142.926 150,-152.926 153.5,-142.926 146.5,-142.926"/>
<text text-anchor="middle" x="160.005" y="-124" font-family="Helvetica,sans-Serif" font-size="10.00"> _ptr</text>
</g>
<!-- Node5 -->
<g id="node5" class="node"><title>Node5</title>
<g id="a_node5"><a xlink:href="classAP__HAL_1_1Device.html" target="_top" xlink:title=" ">
<polygon fill="white" stroke="black" points="104.761,-213 104.761,-233 195.239,-233 195.239,-213 104.761,-213"/>
<text text-anchor="middle" x="150" y="-219" font-family="Helvetica,sans-Serif" font-size="10.00">AP_HAL::Device</text>
</a>
</g>
</g>
<!-- Node5&#45;&gt;Node4 -->
<g id="edge4" class="edge"><title>Node5&#45;&gt;Node4</title>
<path fill="none" stroke="midnightblue" d="M150,-202.731C150,-192.781 150,-181.102 150,-173.19"/>
<polygon fill="midnightblue" stroke="midnightblue" points="146.5,-202.937 150,-212.938 153.5,-202.938 146.5,-202.937"/>
</g>
<!-- Node6 -->
<g id="node6" class="node"><title>Node6</title>
<g id="a_node6"><a xlink:href="structAP__HAL_1_1Device_1_1checkreg.html" target="_top" xlink:title=" ">
<polygon fill="white" stroke="black" points="32.6948,-283 32.6948,-303 169.305,-303 169.305,-283 32.6948,-283"/>
<text text-anchor="middle" x="101" y="-289" font-family="Helvetica,sans-Serif" font-size="10.00">AP_HAL::Device::checkreg</text>
</a>
</g>
</g>
<!-- Node6&#45;&gt;Node5 -->
<g id="edge5" class="edge"><title>Node6&#45;&gt;Node5</title>
<path fill="none" stroke="#9a32cd" stroke-dasharray="5,2" d="M113.612,-274.498C123.165,-261.24 135.902,-243.564 143.496,-233.025"/>
<polygon fill="#9a32cd" stroke="#9a32cd" points="110.615,-272.67 107.608,-282.829 116.294,-276.762 110.615,-272.67"/>
<text text-anchor="middle" x="139.116" y="-254" font-family="Helvetica,sans-Serif" font-size="10.00"> regs</text>
</g>
<!-- Node7 -->
<g id="node7" class="node"><title>Node7</title>
<g id="a_node7"><a xlink:href="unionAP__HAL_1_1Device_1_1DeviceId.html" target="_top" xlink:title=" ">
<polygon fill="white" stroke="black" points="187.53,-283 187.53,-303 322.47,-303 322.47,-283 187.53,-283"/>
<text text-anchor="middle" x="255" y="-289" font-family="Helvetica,sans-Serif" font-size="10.00">AP_HAL::Device::DeviceId</text>
</a>
</g>
</g>
<!-- Node7&#45;&gt;Node5 -->
<g id="edge6" class="edge"><title>Node7&#45;&gt;Node5</title>
<path fill="none" stroke="#9a32cd" stroke-dasharray="5,2" d="M232.291,-277.293C211.497,-263.827 181.383,-244.324 163.936,-233.025"/>
<polygon fill="#9a32cd" stroke="#9a32cd" points="230.543,-280.331 240.839,-282.829 234.348,-274.456 230.543,-280.331"/>
<text text-anchor="middle" x="226.904" y="-254" font-family="Helvetica,sans-Serif" font-size="10.00"> _bus_id</text>
</g>
<!-- Node8 -->
<g id="node8" class="node"><title>Node8</title>
<g id="a_node8"><a xlink:href="structAP__HAL_1_1Device_1_1DeviceStructure.html" target="_top" xlink:title=" ">
<polygon fill="white" stroke="black" points="171.414,-353 171.414,-373 338.586,-373 338.586,-353 171.414,-353"/>
<text text-anchor="middle" x="255" y="-359" font-family="Helvetica,sans-Serif" font-size="10.00">AP_HAL::Device::DeviceStructure</text>
</a>
</g>
</g>
<!-- Node8&#45;&gt;Node7 -->
<g id="edge7" class="edge"><title>Node8&#45;&gt;Node7</title>
<path fill="none" stroke="#9a32cd" stroke-dasharray="5,2" d="M255,-342.557C255,-329.557 255,-313.057 255,-303.025"/>
<polygon fill="#9a32cd" stroke="#9a32cd" points="251.5,-342.829 255,-352.829 258.5,-342.829 251.5,-342.829"/>
<text text-anchor="middle" x="273.623" y="-324" font-family="Helvetica,sans-Serif" font-size="10.00"> devid_s</text>
</g>
</g>
</svg>
