<?xml version="1.0" encoding="UTF-8" standalone="no"?>
<!DOCTYPE svg PUBLIC "-//W3C//DTD SVG 1.1//EN"
 "http://www.w3.org/Graphics/SVG/1.1/DTD/svg11.dtd">
<!-- Generated by graphviz version 2.30.1 (20130221.2233)
 -->
<!-- Title: NavEKF3_core::getLastPosNorthEastReset Pages: 1 -->
<svg width="1158pt" height="108pt"
 viewBox="0.00 0.00 1158.00 108.00" xmlns="http://www.w3.org/2000/svg" xmlns:xlink="http://www.w3.org/1999/xlink">
<g id="graph0" class="graph" transform="scale(1 1) rotate(0) translate(4 104)">
<title>NavEKF3_core::getLastPosNorthEastReset</title>
<polygon fill="white" stroke="white" points="-4,5 -4,-104 1155,-104 1155,5 -4,5"/>
<!-- Node1644 -->
<g id="node1" class="node"><title>Node1644</title>
<g id="a_node1"><a xlink:title=" ">
<polygon fill="#bfbfbf" stroke="black" points="1010.3,-42 1010.3,-74 1149.7,-74 1149.7,-42 1010.3,-42"/>
<text text-anchor="start" x="1018.3" y="-60" font-family="Helvetica,sans-Serif" font-size="10.00">NavEKF3_core::getLastPos</text>
<text text-anchor="middle" x="1080" y="-48" font-family="Helvetica,sans-Serif" font-size="10.00">NorthEastReset</text>
</a>
</g>
</g>
<!-- Node1645 -->
<g id="node2" class="node"><title>Node1645</title>
<g id="a_node2"><a xlink:href="classNavEKF3.html#a48b06963494d6987aa9b204276f354e3" target="_top" xlink:title=" ">
<polygon fill="white" stroke="black" points="834.582,-42 834.582,-74 973.418,-74 973.418,-42 834.582,-42"/>
<text text-anchor="start" x="842.582" y="-60" font-family="Helvetica,sans-Serif" font-size="10.00">NavEKF3::getLastPosNorth</text>
<text text-anchor="middle" x="904" y="-48" font-family="Helvetica,sans-Serif" font-size="10.00">EastReset</text>
</a>
</g>
</g>
<!-- Node1644&#45;&gt;Node1645 -->
<g id="edge1" class="edge"><title>Node1644&#45;&gt;Node1645</title>
<path fill="none" stroke="midnightblue" d="M999.957,-58C991.144,-58 982.222,-58 973.555,-58"/>
<polygon fill="midnightblue" stroke="midnightblue" points="1000.23,-61.5001 1010.23,-58 1000.23,-54.5001 1000.23,-61.5001"/>
</g>
<!-- Node1646 -->
<g id="node3" class="node"><title>Node1646</title>
<g id="a_node3"><a xlink:href="classAP__AHRS__NavEKF.html#a205cd2e798932a46a0651a59e8ef404a" target="_top" xlink:title=" ">
<polygon fill="white" stroke="black" points="636.466,-68 636.466,-100 797.534,-100 797.534,-68 636.466,-68"/>
<text text-anchor="start" x="644.466" y="-86" font-family="Helvetica,sans-Serif" font-size="10.00">AP_AHRS_NavEKF::getLastPos</text>
<text text-anchor="middle" x="717" y="-74" font-family="Helvetica,sans-Serif" font-size="10.00">NorthEastReset</text>
</a>
</g>
</g>
<!-- Node1645&#45;&gt;Node1646 -->
<g id="edge2" class="edge"><title>Node1645&#45;&gt;Node1646</title>
<path fill="none" stroke="midnightblue" d="M824.196,-69.0752C815.442,-70.3055 806.52,-71.5593 797.755,-72.7912"/>
<polygon fill="midnightblue" stroke="midnightblue" points="824.96,-72.5022 834.376,-67.6445 823.986,-65.5704 824.96,-72.5022"/>
</g>
<!-- Node1647 -->
<g id="node4" class="node"><title>Node1647</title>
<g id="a_node4"><a xlink:href="classNavEKF3.html#a5271b02c055d6e3ce43fd0c8f945e652" target="_top" xlink:title=" ">
<polygon fill="white" stroke="black" points="643.683,-17 643.683,-49 790.317,-49 790.317,-17 643.683,-17"/>
<text text-anchor="start" x="651.683" y="-35" font-family="Helvetica,sans-Serif" font-size="10.00">NavEKF3::updateLaneSwitch</text>
<text text-anchor="middle" x="717" y="-23" font-family="Helvetica,sans-Serif" font-size="10.00">PosResetData</text>
</a>
</g>
</g>
<!-- Node1645&#45;&gt;Node1647 -->
<g id="edge3" class="edge"><title>Node1645&#45;&gt;Node1647</title>
<path fill="none" stroke="midnightblue" d="M824.21,-47.3528C813.037,-45.8428 801.591,-44.296 790.543,-42.8031"/>
<polygon fill="midnightblue" stroke="midnightblue" points="823.997,-50.8557 834.376,-48.7264 824.935,-43.9187 823.997,-50.8557"/>
</g>
<!-- Node1648 -->
<g id="node5" class="node"><title>Node1648</title>
<g id="a_node5"><a xlink:href="classNavEKF3.html#a3d065ec0f57eb7e0d25d6c31c743c5ff" target="_top" xlink:title=" ">
<polygon fill="white" stroke="black" points="457.914,-43 457.914,-63 600.086,-63 600.086,-43 457.914,-43"/>
<text text-anchor="middle" x="529" y="-49" font-family="Helvetica,sans-Serif" font-size="10.00">NavEKF3::checkLaneSwitch</text>
</a>
</g>
</g>
<!-- Node1647&#45;&gt;Node1648 -->
<g id="edge4" class="edge"><title>Node1647&#45;&gt;Node1648</title>
<path fill="none" stroke="midnightblue" d="M633.42,-41.8795C622.303,-43.0749 610.985,-44.292 600.112,-45.4611"/>
<polygon fill="midnightblue" stroke="midnightblue" points="633.986,-45.3389 643.555,-40.7898 633.238,-38.379 633.986,-45.3389"/>
</g>
<!-- Node1650 -->
<g id="node7" class="node"><title>Node1650</title>
<g id="a_node7"><a xlink:href="classNavEKF3.html#a477020fcf29376e0c2205dbf79728104" target="_top" xlink:title=" ">
<polygon fill="white" stroke="black" points="469.591,-3 469.591,-23 588.409,-23 588.409,-3 469.591,-3"/>
<text text-anchor="middle" x="529" y="-9" font-family="Helvetica,sans-Serif" font-size="10.00">NavEKF3::UpdateFilter</text>
</a>
</g>
</g>
<!-- Node1647&#45;&gt;Node1650 -->
<g id="edge6" class="edge"><title>Node1647&#45;&gt;Node1650</title>
<path fill="none" stroke="midnightblue" d="M633.187,-24.0954C618.099,-22.473 602.649,-20.8117 588.451,-19.285"/>
<polygon fill="midnightblue" stroke="midnightblue" points="633.238,-27.621 643.555,-25.2102 633.986,-20.6611 633.238,-27.621"/>
</g>
<!-- Node1649 -->
<g id="node6" class="node"><title>Node1649</title>
<g id="a_node6"><a xlink:href="classAP__AHRS__NavEKF.html#a4a6ab06c1d395400dbe7312f9ef1b51d" target="_top" xlink:title=" ">
<polygon fill="white" stroke="black" points="267.421,-39 267.421,-71 404.579,-71 404.579,-39 267.421,-39"/>
<text text-anchor="start" x="275.421" y="-57" font-family="Helvetica,sans-Serif" font-size="10.00">AP_AHRS_NavEKF::check</text>
<text text-anchor="middle" x="336" y="-45" font-family="Helvetica,sans-Serif" font-size="10.00">_lane_switch</text>
</a>
</g>
</g>
<!-- Node1648&#45;&gt;Node1649 -->
<g id="edge5" class="edge"><title>Node1648&#45;&gt;Node1649</title>
<path fill="none" stroke="midnightblue" d="M447.416,-53.8438C433.166,-53.993 418.463,-54.147 404.616,-54.292"/>
<polygon fill="midnightblue" stroke="midnightblue" points="447.73,-57.3408 457.692,-53.7362 447.656,-50.3412 447.73,-57.3408"/>
</g>
<!-- Node1651 -->
<g id="node8" class="node"><title>Node1651</title>
<g id="a_node8"><a xlink:href="classAP__AHRS__NavEKF.html#a324160404f12959e955554f5aed26459" target="_top" xlink:title=" ">
<polygon fill="white" stroke="black" points="249.904,-0 249.904,-20 422.096,-20 422.096,-0 249.904,-0"/>
<text text-anchor="middle" x="336" y="-6" font-family="Helvetica,sans-Serif" font-size="10.00">AP_AHRS_NavEKF::update_EKF3</text>
</a>
</g>
</g>
<!-- Node1650&#45;&gt;Node1651 -->
<g id="edge7" class="edge"><title>Node1650&#45;&gt;Node1651</title>
<path fill="none" stroke="midnightblue" d="M459.062,-11.9172C447.101,-11.7293 434.537,-11.532 422.205,-11.3383"/>
<polygon fill="midnightblue" stroke="midnightblue" points="459.342,-15.4219 469.396,-12.0795 459.452,-8.4228 459.342,-15.4219"/>
</g>
<!-- Node1652 -->
<g id="node9" class="node"><title>Node1652</title>
<g id="a_node9"><a xlink:href="classAP__AHRS__NavEKF.html#ac8111979c5dc37a55b2c50818534ea52" target="_top" xlink:title=" ">
<polygon fill="white" stroke="black" points="72.1899,-0 72.1899,-20 213.81,-20 213.81,-0 72.1899,-0"/>
<text text-anchor="middle" x="143" y="-6" font-family="Helvetica,sans-Serif" font-size="10.00">AP_AHRS_NavEKF::update</text>
</a>
</g>
</g>
<!-- Node1651&#45;&gt;Node1652 -->
<g id="edge8" class="edge"><title>Node1651&#45;&gt;Node1652</title>
<path fill="none" stroke="midnightblue" d="M239.643,-10C230.946,-10 222.247,-10 213.835,-10"/>
<polygon fill="midnightblue" stroke="midnightblue" points="239.834,-13.5001 249.834,-10 239.834,-6.5001 239.834,-13.5001"/>
</g>
<!-- Node1653 -->
<g id="node10" class="node"><title>Node1653</title>
<g id="a_node10"><a xlink:href="AHRS__Test_8cpp.html#afe461d27b9c48d5921c00d521181f12f" target="_top" xlink:title=" ">
<polygon fill="white" stroke="black" points="0.546875,-0 0.546875,-20 35.4531,-20 35.4531,-0 0.546875,-0"/>
<text text-anchor="middle" x="18" y="-6" font-family="Helvetica,sans-Serif" font-size="10.00">loop</text>
</a>
</g>
</g>
<!-- Node1652&#45;&gt;Node1653 -->
<g id="edge9" class="edge"><title>Node1652&#45;&gt;Node1653</title>
<path fill="none" stroke="midnightblue" d="M61.8306,-10C51.9771,-10 42.8299,-10 35.5404,-10"/>
<polygon fill="midnightblue" stroke="midnightblue" points="61.8769,-13.5001 71.8769,-10 61.8769,-6.5001 61.8769,-13.5001"/>
</g>
</g>
</svg>
