<?xml version="1.0" encoding="UTF-8" standalone="no"?>
<!DOCTYPE svg PUBLIC "-//W3C//DTD SVG 1.1//EN"
 "http://www.w3.org/Graphics/SVG/1.1/DTD/svg11.dtd">
<!-- Generated by graphviz version 2.30.1 (20130221.2233)
 -->
<!-- Title: ChibiOS::Storage::_mark_dirty Pages: 1 -->
<svg width="264pt" height="40pt"
 viewBox="0.00 0.00 264.00 40.00" xmlns="http://www.w3.org/2000/svg" xmlns:xlink="http://www.w3.org/1999/xlink">
<g id="graph0" class="graph" transform="scale(1 1) rotate(0) translate(4 36)">
<title>ChibiOS::Storage::_mark_dirty</title>
<polygon fill="white" stroke="white" points="-4,5 -4,-36 261,-36 261,5 -4,5"/>
<!-- Node52 -->
<g id="node1" class="node"><title>Node52</title>
<g id="a_node1"><a xlink:title=" ">
<polygon fill="#bfbfbf" stroke="black" points="156.313,-0 156.313,-32 255.687,-32 255.687,-0 156.313,-0"/>
<text text-anchor="start" x="164.313" y="-18" font-family="Helvetica,sans-Serif" font-size="10.00">ChibiOS::Storage::</text>
<text text-anchor="middle" x="206" y="-6" font-family="Helvetica,sans-Serif" font-size="10.00">_mark_dirty</text>
</a>
</g>
</g>
<!-- Node53 -->
<g id="node2" class="node"><title>Node53</title>
<g id="a_node2"><a xlink:href="classChibiOS_1_1Storage.html#ac03700f2503573f43d8377fd2dd2c56f" target="_top" xlink:title=" ">
<polygon fill="white" stroke="black" points="-0.243652,-0 -0.243652,-32 120.244,-32 120.244,-0 -0.243652,-0"/>
<text text-anchor="start" x="7.75635" y="-18" font-family="Helvetica,sans-Serif" font-size="10.00">ChibiOS::Storage::write</text>
<text text-anchor="middle" x="60" y="-6" font-family="Helvetica,sans-Serif" font-size="10.00">_block</text>
</a>
</g>
</g>
<!-- Node52&#45;&gt;Node53 -->
<g id="edge1" class="edge"><title>Node52&#45;&gt;Node53</title>
<path fill="none" stroke="midnightblue" d="M146.082,-16C137.619,-16 128.907,-16 120.434,-16"/>
<polygon fill="midnightblue" stroke="midnightblue" points="146.248,-19.5001 156.248,-16 146.248,-12.5001 146.248,-19.5001"/>
</g>
</g>
</svg>
