<?xml version="1.0" encoding="UTF-8" standalone="no"?>
<!DOCTYPE svg PUBLIC "-//W3C//DTD SVG 1.1//EN"
 "http://www.w3.org/Graphics/SVG/1.1/DTD/svg11.dtd">
<!-- Generated by graphviz version 2.30.1 (20130221.2233)
 -->
<!-- Title: AP_SmartRTL::update Pages: 1 -->
<svg width="610pt" height="87pt"
 viewBox="0.00 0.00 610.00 87.00" xmlns="http://www.w3.org/2000/svg" xmlns:xlink="http://www.w3.org/1999/xlink">
<g id="graph0" class="graph" transform="scale(1 1) rotate(0) translate(4 83)">
<title>AP_SmartRTL::update</title>
<polygon fill="white" stroke="white" points="-4,5 -4,-83 607,-83 607,5 -4,5"/>
<!-- Node775 -->
<g id="node1" class="node"><title>Node775</title>
<g id="a_node1"><a xlink:title=" ">
<polygon fill="#bfbfbf" stroke="black" points="-0.214844,-29 -0.214844,-49 116.215,-49 116.215,-29 -0.214844,-29"/>
<text text-anchor="middle" x="58" y="-35" font-family="Helvetica,sans-Serif" font-size="10.00">AP_SmartRTL::update</text>
</a>
</g>
</g>
<!-- Node776 -->
<g id="node2" class="node"><title>Node776</title>
<g id="a_node2"><a xlink:href="classAP__SmartRTL.html#ab385d8b52e321f9a01d01b42e52e0c4b" target="_top" xlink:title=" ">
<polygon fill="white" stroke="black" points="152.12,-29 152.12,-49 281.88,-49 281.88,-29 152.12,-29"/>
<text text-anchor="middle" x="217" y="-35" font-family="Helvetica,sans-Serif" font-size="10.00">AP_SmartRTL::set_home</text>
</a>
</g>
</g>
<!-- Node775&#45;&gt;Node776 -->
<g id="edge1" class="edge"><title>Node775&#45;&gt;Node776</title>
<path fill="none" stroke="midnightblue" d="M116.57,-39C124.782,-39 133.325,-39 141.8,-39"/>
<polygon fill="midnightblue" stroke="midnightblue" points="142.078,-42.5001 152.078,-39 142.078,-35.5001 142.078,-42.5001"/>
</g>
<!-- Node777 -->
<g id="node3" class="node"><title>Node777</title>
<g id="a_node3"><a xlink:href="namespaceAP.html#a99432cfdb696952c9b7146f155a815aa" target="_top" xlink:title=" ">
<polygon fill="white" stroke="black" points="350.825,-59 350.825,-79 405.175,-79 405.175,-59 350.825,-59"/>
<text text-anchor="middle" x="378" y="-65" font-family="Helvetica,sans-Serif" font-size="10.00">AP::ahrs</text>
</a>
</g>
</g>
<!-- Node775&#45;&gt;Node777 -->
<g id="edge5" class="edge"><title>Node775&#45;&gt;Node777</title>
<path fill="none" stroke="midnightblue" d="M101.368,-49.0762C117.171,-52.4586 135.323,-55.9012 152,-58 218.099,-66.3183 295.854,-68.4369 340.488,-68.9234"/>
<polygon fill="midnightblue" stroke="midnightblue" points="340.531,-72.4238 350.561,-69.0113 340.592,-65.4241 340.531,-72.4238"/>
</g>
<!-- Node779 -->
<g id="node5" class="node"><title>Node779</title>
<g id="a_node5"><a xlink:href="classAP__AHRS.html#a3e061eda3110837c4f389b75003423e2" target="_top" xlink:title=" ">
<polygon fill="white" stroke="black" points="318.03,-0 318.03,-32 437.97,-32 437.97,-0 318.03,-0"/>
<text text-anchor="start" x="326.03" y="-18" font-family="Helvetica,sans-Serif" font-size="10.00">AP_AHRS::get_relative</text>
<text text-anchor="middle" x="378" y="-6" font-family="Helvetica,sans-Serif" font-size="10.00">_position_NED_origin</text>
</a>
</g>
</g>
<!-- Node775&#45;&gt;Node779 -->
<g id="edge6" class="edge"><title>Node775&#45;&gt;Node779</title>
<path fill="none" stroke="midnightblue" d="M97.6299,-28.8959C114.239,-25.0205 133.949,-21.0409 152,-19 203.859,-13.1369 262.867,-12.5761 307.439,-13.3803"/>
<polygon fill="midnightblue" stroke="midnightblue" points="307.511,-16.8825 317.582,-13.5913 307.657,-9.88401 307.511,-16.8825"/>
</g>
<!-- Node776&#45;&gt;Node777 -->
<g id="edge2" class="edge"><title>Node776&#45;&gt;Node777</title>
<path fill="none" stroke="midnightblue" d="M271.387,-49.073C294.232,-53.3833 320.313,-58.3043 340.841,-62.1775"/>
<polygon fill="midnightblue" stroke="midnightblue" points="340.252,-65.6281 350.728,-64.043 341.55,-58.7495 340.252,-65.6281"/>
</g>
<!-- Node776&#45;&gt;Node779 -->
<g id="edge4" class="edge"><title>Node776&#45;&gt;Node779</title>
<path fill="none" stroke="midnightblue" d="M282.213,-29.7113C290.7,-28.4837 299.428,-27.2211 307.991,-25.9824"/>
<polygon fill="midnightblue" stroke="midnightblue" points="308.548,-29.4384 317.943,-24.5428 307.545,-22.5105 308.548,-29.4384"/>
</g>
<!-- Node778 -->
<g id="node4" class="node"><title>Node778</title>
<g id="a_node4"><a xlink:href="classAP__AHRS.html#a3db167e808ba6d312c3b746e558008e9" target="_top" xlink:title=" ">
<polygon fill="white" stroke="black" points="474.133,-59 474.133,-79 601.867,-79 601.867,-59 474.133,-59"/>
<text text-anchor="middle" x="538" y="-65" font-family="Helvetica,sans-Serif" font-size="10.00">AP_AHRS::get_singleton</text>
</a>
</g>
</g>
<!-- Node777&#45;&gt;Node778 -->
<g id="edge3" class="edge"><title>Node777&#45;&gt;Node778</title>
<path fill="none" stroke="midnightblue" d="M405.446,-69C421.526,-69 442.923,-69 463.78,-69"/>
<polygon fill="midnightblue" stroke="midnightblue" points="463.95,-72.5001 473.95,-69 463.95,-65.5001 463.95,-72.5001"/>
</g>
</g>
</svg>
