<?xml version="1.0" encoding="UTF-8" standalone="no"?>
<!DOCTYPE svg PUBLIC "-//W3C//DTD SVG 1.1//EN"
 "http://www.w3.org/Graphics/SVG/1.1/DTD/svg11.dtd">
<!-- Generated by graphviz version 2.30.1 (20130221.2233)
 -->
<!-- Title: SITL::Aircraft::parse_home Pages: 1 -->
<svg width="218pt" height="67pt"
 viewBox="0.00 0.00 218.00 67.00" xmlns="http://www.w3.org/2000/svg" xmlns:xlink="http://www.w3.org/1999/xlink">
<g id="graph0" class="graph" transform="scale(1 1) rotate(0) translate(4 63)">
<title>SITL::Aircraft::parse_home</title>
<polygon fill="white" stroke="white" points="-4,5 -4,-63 215,-63 215,5 -4,5"/>
<!-- Node329 -->
<g id="node1" class="node"><title>Node329</title>
<g id="a_node1"><a xlink:title=" ">
<polygon fill="#bfbfbf" stroke="black" points="0.253906,-19 0.253906,-39 135.746,-39 135.746,-19 0.253906,-19"/>
<text text-anchor="middle" x="68" y="-25" font-family="Helvetica,sans-Serif" font-size="10.00">SITL::Aircraft::parse_home</text>
</a>
</g>
</g>
<!-- Node330 -->
<g id="node2" class="node"><title>Node330</title>
<g id="a_node2"><a xlink:href="malloc_8c.html#afbedc913aa4651b3c3b4b3aecd9b4711" target="_top" xlink:title=" ">
<polygon fill="white" stroke="black" points="174.384,-39 174.384,-59 207.616,-59 207.616,-39 174.384,-39"/>
<text text-anchor="middle" x="191" y="-45" font-family="Helvetica,sans-Serif" font-size="10.00">free</text>
</a>
</g>
</g>
<!-- Node329&#45;&gt;Node330 -->
<g id="edge1" class="edge"><title>Node329&#45;&gt;Node330</title>
<path fill="none" stroke="midnightblue" d="M129.854,-39.0586C141.956,-41.0588 154.038,-43.0558 164.164,-44.7297"/>
<polygon fill="midnightblue" stroke="midnightblue" points="163.857,-48.2262 174.294,-46.4039 164.998,-41.3199 163.857,-48.2262"/>
</g>
<!-- Node331 -->
<g id="node3" class="node"><title>Node331</title>
<g id="a_node3"><a xlink:href="stdio_8h.html#a55f3d956bb2ba20b5059e9e25484a47f" target="_top" xlink:title=" ">
<polygon fill="white" stroke="black" points="171.884,-0 171.884,-20 210.116,-20 210.116,-0 171.884,-0"/>
<text text-anchor="middle" x="191" y="-6" font-family="Helvetica,sans-Serif" font-size="10.00">printf</text>
</a>
</g>
</g>
<!-- Node329&#45;&gt;Node331 -->
<g id="edge2" class="edge"><title>Node329&#45;&gt;Node331</title>
<path fill="none" stroke="midnightblue" d="M132.689,-18.9992C142.889,-17.3976 152.968,-15.8149 161.762,-14.4341"/>
<polygon fill="midnightblue" stroke="midnightblue" points="162.437,-17.8711 171.773,-12.8622 161.351,-10.9559 162.437,-17.8711"/>
</g>
</g>
</svg>
