<?xml version="1.0" encoding="UTF-8" standalone="no"?>
<!DOCTYPE svg PUBLIC "-//W3C//DTD SVG 1.1//EN"
 "http://www.w3.org/Graphics/SVG/1.1/DTD/svg11.dtd">
<!-- Generated by graphviz version 2.30.1 (20130221.2233)
 -->
<!-- Title: AP_Baro_KellerLD::_timer Pages: 1 -->
<svg width="616pt" height="118pt"
 viewBox="0.00 0.00 616.00 118.00" xmlns="http://www.w3.org/2000/svg" xmlns:xlink="http://www.w3.org/1999/xlink">
<g id="graph0" class="graph" transform="scale(1 1) rotate(0) translate(4 114)">
<title>AP_Baro_KellerLD::_timer</title>
<polygon fill="white" stroke="white" points="-4,5 -4,-114 613,-114 613,5 -4,5"/>
<!-- Node46 -->
<g id="node1" class="node"><title>Node46</title>
<g id="a_node1"><a xlink:title=" ">
<polygon fill="#bfbfbf" stroke="black" points="0.253906,-64 0.253906,-96 105.746,-96 105.746,-64 0.253906,-64"/>
<text text-anchor="start" x="8.25391" y="-82" font-family="Helvetica,sans-Serif" font-size="10.00">AP_Baro_KellerLD::</text>
<text text-anchor="middle" x="53" y="-70" font-family="Helvetica,sans-Serif" font-size="10.00">_timer</text>
</a>
</g>
</g>
<!-- Node47 -->
<g id="node2" class="node"><title>Node47</title>
<g id="a_node2"><a xlink:href="classAP__Baro__KellerLD.html#a0d84976b3f14c14fbbe555579e61dff9" target="_top" xlink:title=" ">
<polygon fill="white" stroke="black" points="142.466,-51 142.466,-71 273.534,-71 273.534,-51 142.466,-51"/>
<text text-anchor="middle" x="208" y="-57" font-family="Helvetica,sans-Serif" font-size="10.00">AP_Baro_KellerLD::_read</text>
</a>
</g>
</g>
<!-- Node46&#45;&gt;Node47 -->
<g id="edge1" class="edge"><title>Node46&#45;&gt;Node47</title>
<path fill="none" stroke="midnightblue" d="M105.799,-73.5675C114.302,-72.5115 123.262,-71.3989 132.19,-70.2901"/>
<polygon fill="midnightblue" stroke="midnightblue" points="132.74,-73.7489 142.232,-69.0431 131.877,-66.8022 132.74,-73.7489"/>
</g>
<!-- Node48 -->
<g id="node3" class="node"><title>Node48</title>
<g id="a_node3"><a xlink:href="classAP__HAL_1_1Device.html#a2af24b5f93b678af718b65a606e538b0" target="_top" xlink:title=" ">
<polygon fill="white" stroke="black" points="326.032,-90 326.032,-110 455.968,-110 455.968,-90 326.032,-90"/>
<text text-anchor="middle" x="391" y="-96" font-family="Helvetica,sans-Serif" font-size="10.00">AP_HAL::Device::transfer</text>
</a>
</g>
</g>
<!-- Node46&#45;&gt;Node48 -->
<g id="edge7" class="edge"><title>Node46&#45;&gt;Node48</title>
<path fill="none" stroke="midnightblue" d="M105.764,-83.0812C161.941,-86.4251 252.13,-91.7935 315.828,-95.585"/>
<polygon fill="midnightblue" stroke="midnightblue" points="315.624,-99.079 325.814,-96.1794 316.04,-92.0913 315.624,-99.079"/>
</g>
<!-- Node47&#45;&gt;Node48 -->
<g id="edge2" class="edge"><title>Node47&#45;&gt;Node48</title>
<path fill="none" stroke="midnightblue" d="M255.612,-71.0435C279.364,-76.1612 308.437,-82.4256 333.459,-87.8171"/>
<polygon fill="midnightblue" stroke="midnightblue" points="333.033,-91.3056 343.546,-89.9906 334.508,-84.4627 333.033,-91.3056"/>
</g>
<!-- Node49 -->
<g id="node4" class="node"><title>Node49</title>
<g id="a_node4"><a xlink:href="classAP__Baro__Backend.html#adf46bf795e1e13967264596cf4faadd7" target="_top" xlink:title=" ">
<polygon fill="white" stroke="black" points="310.456,-51 310.456,-71 471.544,-71 471.544,-51 310.456,-51"/>
<text text-anchor="middle" x="391" y="-57" font-family="Helvetica,sans-Serif" font-size="10.00">AP_Baro_Backend::pressure_ok</text>
</a>
</g>
</g>
<!-- Node47&#45;&gt;Node49 -->
<g id="edge3" class="edge"><title>Node47&#45;&gt;Node49</title>
<path fill="none" stroke="midnightblue" d="M273.579,-61C282.209,-61 291.183,-61 300.148,-61"/>
<polygon fill="midnightblue" stroke="midnightblue" points="300.248,-64.5001 310.248,-61 300.248,-57.5001 300.248,-64.5001"/>
</g>
<!-- Node52 -->
<g id="node7" class="node"><title>Node52</title>
<g id="a_node7"><a xlink:href="classAP__Baro__KellerLD.html#ac198bf23a0936fa3ce62f45a4617f1c4" target="_top" xlink:title=" ">
<polygon fill="white" stroke="black" points="310.17,-0 310.17,-32 471.83,-32 471.83,-0 310.17,-0"/>
<text text-anchor="start" x="318.17" y="-18" font-family="Helvetica,sans-Serif" font-size="10.00">AP_Baro_KellerLD::</text>
<text text-anchor="middle" x="391" y="-6" font-family="Helvetica,sans-Serif" font-size="10.00">_update_and_wrap_accumulator</text>
</a>
</g>
</g>
<!-- Node47&#45;&gt;Node52 -->
<g id="edge6" class="edge"><title>Node47&#45;&gt;Node52</title>
<path fill="none" stroke="midnightblue" d="M249.62,-50.9011C269.05,-46.0706 292.94,-40.131 315.467,-34.5303"/>
<polygon fill="midnightblue" stroke="midnightblue" points="316.5,-37.8802 325.36,-32.0708 314.811,-31.087 316.5,-37.8802"/>
</g>
<!-- Node50 -->
<g id="node5" class="node"><title>Node50</title>
<g id="a_node5"><a xlink:href="classAP__Baro.html#a0f2f5b99445cb04a204cbf48819d82c0" target="_top" xlink:title=" ">
<polygon fill="white" stroke="black" points="508.032,-68 508.032,-100 607.968,-100 607.968,-68 508.032,-68"/>
<text text-anchor="start" x="516.032" y="-86" font-family="Helvetica,sans-Serif" font-size="10.00">AP_Baro::get_filter</text>
<text text-anchor="middle" x="558" y="-74" font-family="Helvetica,sans-Serif" font-size="10.00">_range</text>
</a>
</g>
</g>
<!-- Node49&#45;&gt;Node50 -->
<g id="edge4" class="edge"><title>Node49&#45;&gt;Node50</title>
<path fill="none" stroke="midnightblue" d="M463.891,-71.0212C475.079,-72.5808 486.532,-74.1772 497.408,-75.6932"/>
<polygon fill="midnightblue" stroke="midnightblue" points="497.243,-79.204 507.631,-77.1182 498.21,-72.2711 497.243,-79.204"/>
</g>
<!-- Node51 -->
<g id="node6" class="node"><title>Node51</title>
<g id="a_node6"><a xlink:href="AP__Math_8h.html#a2a12cce483e9b870da70d30406d82c60" target="_top" xlink:title=" ">
<polygon fill="white" stroke="black" points="533.882,-29 533.882,-49 582.118,-49 582.118,-29 533.882,-29"/>
<text text-anchor="middle" x="558" y="-35" font-family="Helvetica,sans-Serif" font-size="10.00">is_zero</text>
</a>
</g>
</g>
<!-- Node49&#45;&gt;Node51 -->
<g id="edge5" class="edge"><title>Node49&#45;&gt;Node51</title>
<path fill="none" stroke="midnightblue" d="M467.257,-50.9657C487.058,-48.3256 507.42,-45.6107 523.733,-43.4356"/>
<polygon fill="midnightblue" stroke="midnightblue" points="524.371,-46.8815 533.821,-42.0905 523.446,-39.9429 524.371,-46.8815"/>
</g>
</g>
</svg>
