<?xml version="1.0" encoding="UTF-8" standalone="no"?>
<!DOCTYPE svg PUBLIC "-//W3C//DTD SVG 1.1//EN"
 "http://www.w3.org/Graphics/SVG/1.1/DTD/svg11.dtd">
<!-- Generated by graphviz version 2.30.1 (20130221.2233)
 -->
<!-- Title: AP_BattMonitor::arming_checks Pages: 1 -->
<!--zoomable 157 -->
<svg id="main" version="1.1" xmlns="http://www.w3.org/2000/svg" xmlns:xlink="http://www.w3.org/1999/xlink" xml:space="preserve" onload="init(evt)">
<style type="text/css"><![CDATA[
.edge:hover path { stroke: red; }
.edge:hover polygon { stroke: red; fill: red; }
]]></style>
<script type="text/javascript"><![CDATA[
var edges = document.getElementsByTagName('g');
if (edges && edges.length) {
  for (var i=0;i<edges.length;i++) {
    if (edges[i].id.substr(0,4)=='edge') {
      edges[i].setAttribute('class','edge');
    }
  }
}
]]></script>
        <defs>
                <circle id="rim" cx="0" cy="0" r="7"/>
                <circle id="rim2" cx="0" cy="0" r="3.5"/>
                <g id="zoomPlus">
                        <use xlink:href="#rim" fill="#404040">
                                <set attributeName="fill" to="#808080" begin="zoomplus.mouseover" end="zoomplus.mouseout"/>
                        </use>
                        <path d="M-4,0h8M0,-4v8" fill="none" stroke="white" stroke-width="1.5" pointer-events="none"/>
                </g>
                <g id="zoomMin">
                        <use xlink:href="#rim" fill="#404040">
                                <set attributeName="fill" to="#808080" begin="zoomminus.mouseover" end="zoomminus.mouseout"/>
                        </use>
                        <path d="M-4,0h8" fill="none" stroke="white" stroke-width="1.5" pointer-events="none"/>
                </g>
                <g id="dirArrow">
                        <path fill="none" stroke="white" stroke-width="1.5" d="M0,-3.0v7 M-2.5,-0.5L0,-3.0L2.5,-0.5"/>
                </g>
               <g id="resetDef">
                       <use xlink:href="#rim2" fill="#404040">
                               <set attributeName="fill" to="#808080" begin="reset.mouseover" end="reset.mouseout"/>
                       </use>
               </g>
        </defs>

<script type="text/javascript">
var viewWidth = 796;
var viewHeight = 157;
var sectionId = 'dynsection-2';
</script>
<script xlink:href="svgpan.js"/>
<svg id="graph" class="graph">
<g id="viewport">
<title>AP_BattMonitor::arming_checks</title>
<polygon fill="white" stroke="white" points="-4,5 -4,-153 793,-153 793,5 -4,5"/>
<!-- Node10 -->
<g id="node1" class="node"><title>Node10</title>
<g id="a_node1"><a xlink:title=" ">
<polygon fill="#bfbfbf" stroke="black" points="-0.0786133,-32 -0.0786133,-64 122.079,-64 122.079,-32 -0.0786133,-32"/>
<text text-anchor="start" x="7.92139" y="-50" font-family="Helvetica,sans-Serif" font-size="10.00">AP_BattMonitor::arming</text>
<text text-anchor="middle" x="61" y="-38" font-family="Helvetica,sans-Serif" font-size="10.00">_checks</text>
</a>
</g>
</g>
<!-- Node11 -->
<g id="node2" class="node"><title>Node11</title>
<g id="a_node2"><a xlink:href="classAP__HAL_1_1Util.html#adead79890b223f40eaf092fda231c2f2" target="_top" xlink:title=" ">
<polygon fill="white" stroke="black" points="158.648,-38 158.648,-58 271.352,-58 271.352,-38 158.648,-38"/>
<text text-anchor="middle" x="215" y="-44" font-family="Helvetica,sans-Serif" font-size="10.00">AP_HAL::Util::snprintf</text>
</a>
</g>
</g>
<!-- Node10&#45;&gt;Node11 -->
<g id="edge1" class="edge"><title>Node10&#45;&gt;Node11</title>
<path fill="none" stroke="midnightblue" d="M122.511,-48C131.08,-48 139.923,-48 148.579,-48"/>
<polygon fill="midnightblue" stroke="midnightblue" points="148.627,-51.5001 158.627,-48 148.627,-44.5001 148.627,-51.5001"/>
</g>
<!-- Node12 -->
<g id="node3" class="node"><title>Node12</title>
<g id="a_node3"><a xlink:href="classAP__HAL_1_1Util.html#ac57ef0a9815cd597ad5cab5d6c31c6c8" target="_top" xlink:title=" ">
<polygon fill="white" stroke="black" points="308.148,-38 308.148,-58 425.852,-58 425.852,-38 308.148,-38"/>
<text text-anchor="middle" x="367" y="-44" font-family="Helvetica,sans-Serif" font-size="10.00">AP_HAL::Util::vsnprintf</text>
</a>
</g>
</g>
<!-- Node11&#45;&gt;Node12 -->
<g id="edge2" class="edge"><title>Node11&#45;&gt;Node12</title>
<path fill="none" stroke="midnightblue" d="M271.428,-48C280.006,-48 288.951,-48 297.77,-48"/>
<polygon fill="midnightblue" stroke="midnightblue" points="298.035,-51.5001 308.035,-48 298.035,-44.5001 298.035,-51.5001"/>
</g>
<!-- Node13 -->
<g id="node4" class="node"><title>Node13</title>
<g id="a_node4"><a xlink:href="print__vprintf_8cpp.html#a98e0d5bb436a207f576379beaa786040" target="_top" xlink:title=" ">
<polygon fill="white" stroke="black" points="477.877,-58 477.877,-78 546.123,-78 546.123,-58 477.877,-58"/>
<text text-anchor="middle" x="512" y="-64" font-family="Helvetica,sans-Serif" font-size="10.00">print_vprintf</text>
</a>
</g>
</g>
<!-- Node12&#45;&gt;Node13 -->
<g id="edge3" class="edge"><title>Node12&#45;&gt;Node13</title>
<path fill="none" stroke="midnightblue" d="M426.164,-56.1348C439.953,-58.0633 454.428,-60.0878 467.439,-61.9075"/>
<polygon fill="midnightblue" stroke="midnightblue" points="467.13,-65.3983 477.518,-63.3172 468.099,-58.4657 467.13,-65.3983"/>
</g>
<!-- Node19 -->
<g id="node10" class="node"><title>Node19</title>
<g id="a_node10"><a xlink:href="classBufferPrinter.html#a4eb1dfae7fe1012905c34af6683401b2" target="_top" xlink:title=" ">
<polygon fill="white" stroke="black" points="462.687,-19 462.687,-39 561.313,-39 561.313,-19 462.687,-19"/>
<text text-anchor="middle" x="512" y="-25" font-family="Helvetica,sans-Serif" font-size="10.00">BufferPrinter::write</text>
</a>
</g>
</g>
<!-- Node12&#45;&gt;Node19 -->
<g id="edge11" class="edge"><title>Node12&#45;&gt;Node19</title>
<path fill="none" stroke="midnightblue" d="M426.164,-40.272C434.834,-39.12 443.775,-37.932 452.453,-36.779"/>
<polygon fill="midnightblue" stroke="midnightblue" points="453.035,-40.2325 462.487,-35.4458 452.113,-33.2935 453.035,-40.2325"/>
</g>
<!-- Node14 -->
<g id="node5" class="node"><title>Node14</title>
<g id="a_node5"><a xlink:href="classAP__HAL_1_1BetterStream.html#a915cc01273d4b418c2fb2989fb31a508" target="_top" xlink:title=" ">
<polygon fill="white" stroke="black" points="598.589,-117 598.589,-149 717.411,-149 717.411,-117 598.589,-117"/>
<text text-anchor="start" x="606.589" y="-135" font-family="Helvetica,sans-Serif" font-size="10.00">AP_HAL::BetterStream</text>
<text text-anchor="middle" x="658" y="-123" font-family="Helvetica,sans-Serif" font-size="10.00">::write</text>
</a>
</g>
</g>
<!-- Node13&#45;&gt;Node14 -->
<g id="edge4" class="edge"><title>Node13&#45;&gt;Node14</title>
<path fill="none" stroke="midnightblue" d="M534.62,-78.0286C551.774,-85.9597 576.381,-97.2774 598,-107 602.304,-108.935 606.79,-110.938 611.282,-112.934"/>
<polygon fill="midnightblue" stroke="midnightblue" points="609.892,-116.147 620.453,-116.997 612.728,-109.747 609.892,-116.147"/>
</g>
<!-- Node15 -->
<g id="node6" class="node"><title>Node15</title>
<g id="a_node6"><a xlink:href="ftoa__engine_8cpp.html#a1c28234da8f20b43c85890d4bb452947" target="_top" xlink:title=" ">
<polygon fill="white" stroke="black" points="623.865,-78 623.865,-98 692.135,-98 692.135,-78 623.865,-78"/>
<text text-anchor="middle" x="658" y="-84" font-family="Helvetica,sans-Serif" font-size="10.00">ftoa_engine</text>
</a>
</g>
</g>
<!-- Node13&#45;&gt;Node15 -->
<g id="edge5" class="edge"><title>Node13&#45;&gt;Node15</title>
<path fill="none" stroke="midnightblue" d="M546.398,-72.6387C566.481,-75.428 592.253,-79.0074 613.866,-82.0092"/>
<polygon fill="midnightblue" stroke="midnightblue" points="613.396,-85.4774 623.783,-83.3865 614.359,-78.544 613.396,-85.4774"/>
</g>
<!-- Node17 -->
<g id="node8" class="node"><title>Node17</title>
<g id="a_node8"><a xlink:href="utoa__invert_8cpp.html#a34926f552460b47c414ec4d83b32815c" target="_top" xlink:title=" ">
<polygon fill="white" stroke="black" points="623.04,-39 623.04,-59 692.96,-59 692.96,-39 623.04,-39"/>
<text text-anchor="middle" x="658" y="-45" font-family="Helvetica,sans-Serif" font-size="10.00">ulltoa_invert</text>
</a>
</g>
</g>
<!-- Node13&#45;&gt;Node17 -->
<g id="edge7" class="edge"><title>Node13&#45;&gt;Node17</title>
<path fill="none" stroke="midnightblue" d="M546.398,-63.5933C566.176,-60.9837 591.472,-57.6461 612.878,-54.8216"/>
<polygon fill="midnightblue" stroke="midnightblue" points="613.577,-58.2598 623.034,-53.4817 612.662,-51.3199 613.577,-58.2598"/>
</g>
<!-- Node18 -->
<g id="node9" class="node"><title>Node18</title>
<g id="a_node9"><a xlink:href="utoa__invert_8cpp.html#a5d99bba8e697c1e11da489d88fca8559" target="_top" xlink:title=" ">
<polygon fill="white" stroke="black" points="624.15,-0 624.15,-20 691.85,-20 691.85,-0 624.15,-0"/>
<text text-anchor="middle" x="658" y="-6" font-family="Helvetica,sans-Serif" font-size="10.00">ultoa_invert</text>
</a>
</g>
</g>
<!-- Node13&#45;&gt;Node18 -->
<g id="edge9" class="edge"><title>Node13&#45;&gt;Node18</title>
<path fill="none" stroke="midnightblue" d="M538.589,-57.9843C546.176,-54.8996 554.468,-51.4141 562,-48 578.293,-40.6146 581.491,-36.8876 598,-30 603.499,-27.7057 609.364,-25.4727 615.183,-23.3807"/>
<polygon fill="midnightblue" stroke="midnightblue" points="616.568,-26.6045 624.858,-20.0074 614.263,-19.9947 616.568,-26.6045"/>
</g>
<!-- Node16 -->
<g id="node7" class="node"><title>Node16</title>
<g id="a_node7"><a xlink:href="lstrlib_8c.html#a9605f4d16ae762782f8be8b54aef0a22" target="_top" xlink:title=" ">
<polygon fill="white" stroke="black" points="753.828,-39 753.828,-59 788.172,-59 788.172,-39 753.828,-39"/>
<text text-anchor="middle" x="771" y="-45" font-family="Helvetica,sans-Serif" font-size="10.00">digit</text>
</a>
</g>
</g>
<!-- Node15&#45;&gt;Node16 -->
<g id="edge6" class="edge"><title>Node15&#45;&gt;Node16</title>
<path fill="none" stroke="midnightblue" d="M689.062,-77.9615C698.355,-74.8174 708.615,-71.3049 718,-68 726.508,-65.0042 735.766,-61.6515 744.081,-58.6063"/>
<polygon fill="midnightblue" stroke="midnightblue" points="745.465,-61.8264 753.641,-55.0888 743.048,-55.2569 745.465,-61.8264"/>
</g>
<!-- Node17&#45;&gt;Node16 -->
<g id="edge8" class="edge"><title>Node17&#45;&gt;Node16</title>
<path fill="none" stroke="midnightblue" d="M693.209,-49C709.407,-49 728.457,-49 743.53,-49"/>
<polygon fill="midnightblue" stroke="midnightblue" points="743.705,-52.5001 753.705,-49 743.705,-45.5001 743.705,-52.5001"/>
</g>
<!-- Node18&#45;&gt;Node16 -->
<g id="edge10" class="edge"><title>Node18&#45;&gt;Node16</title>
<path fill="none" stroke="midnightblue" d="M689.062,-20.0385C698.355,-23.1826 708.615,-26.6951 718,-30 726.508,-32.9958 735.766,-36.3485 744.081,-39.3937"/>
<polygon fill="midnightblue" stroke="midnightblue" points="743.048,-42.7431 753.641,-42.9112 745.465,-36.1736 743.048,-42.7431"/>
</g>
</g>
</svg>
        <g id="navigator" transform="translate(0 0)" fill="#404254">
                <rect fill="#f2f5e9" fill-opacity="0.5" stroke="#606060" stroke-width=".5" x="0" y="0" width="60" height="60"/>
                <use id="zoomplus" xlink:href="#zoomPlus" x="17" y="9" onmousedown="handleZoom(evt,'in')"/>
                <use id="zoomminus" xlink:href="#zoomMin" x="42" y="9" onmousedown="handleZoom(evt,'out')"/>
                <use id="reset" xlink:href="#resetDef" x="30" y="36" onmousedown="handleReset()"/>
                <g id="arrowUp" xlink:href="#dirArrow" transform="translate(30 24)" onmousedown="handlePan(0,-1)">
                  <use xlink:href="#rim" fill="#404040">
                        <set attributeName="fill" to="#808080" begin="arrowUp.mouseover" end="arrowUp.mouseout"/>
                  </use>
                  <path fill="none" stroke="white" stroke-width="1.5" d="M0,-3.0v7 M-2.5,-0.5L0,-3.0L2.5,-0.5"/>
                </g>
                <g id="arrowRight" xlink:href="#dirArrow" transform="rotate(90) translate(36 -43)" onmousedown="handlePan(1,0)">
                  <use xlink:href="#rim" fill="#404040">
                        <set attributeName="fill" to="#808080" begin="arrowRight.mouseover" end="arrowRight.mouseout"/>
                  </use>
                  <path fill="none" stroke="white" stroke-width="1.5" d="M0,-3.0v7 M-2.5,-0.5L0,-3.0L2.5,-0.5"/>
                </g>
                <g id="arrowDown" xlink:href="#dirArrow" transform="rotate(180) translate(-30 -48)" onmousedown="handlePan(0,1)">
                  <use xlink:href="#rim" fill="#404040">
                        <set attributeName="fill" to="#808080" begin="arrowDown.mouseover" end="arrowDown.mouseout"/>
                  </use>
                  <path fill="none" stroke="white" stroke-width="1.5" d="M0,-3.0v7 M-2.5,-0.5L0,-3.0L2.5,-0.5"/>
                </g>
                <g id="arrowLeft" xlink:href="#dirArrow" transform="rotate(270) translate(-36 17)" onmousedown="handlePan(-1,0)">
                  <use xlink:href="#rim" fill="#404040">
                        <set attributeName="fill" to="#808080" begin="arrowLeft.mouseover" end="arrowLeft.mouseout"/>
                  </use>
                  <path fill="none" stroke="white" stroke-width="1.5" d="M0,-3.0v7 M-2.5,-0.5L0,-3.0L2.5,-0.5"/>
                </g>
        </g>
        <svg viewBox="0 0 15 15" width="100%" height="30px" preserveAspectRatio="xMaxYMin meet">
         <g id="arrow_out" transform="scale(0.3 0.3)">
          <a xlink:href="classAP__BattMonitor_af0c6c238f1e53dd3de56bf98092fce1c_cgraph_org.svg" target="_base">
           <rect id="button" ry="5" rx="5" y="6" x="6" height="38" width="38"
                fill="#f2f5e9" fill-opacity="0.5" stroke="#606060" stroke-width="1.0"/>
           <path id="arrow"
             d="M 11.500037,31.436501 C 11.940474,20.09759 22.043105,11.32322 32.158766,21.979434 L 37.068811,17.246167 C 37.068811,17.246167 37.088388,32 37.088388,32 L 22.160133,31.978069 C 22.160133,31.978069 26.997745,27.140456 26.997745,27.140456 C 18.528582,18.264221 13.291696,25.230495 11.500037,31.436501 z"
             style="fill:#404040;"/>
          </a>
         </g>
        </svg>
</svg>
