<?xml version="1.0" encoding="UTF-8" standalone="no"?>
<!DOCTYPE svg PUBLIC "-//W3C//DTD SVG 1.1//EN"
 "http://www.w3.org/Graphics/SVG/1.1/DTD/svg11.dtd">
<!-- Generated by graphviz version 2.30.1 (20130221.2233)
 -->
<!-- Title: MissionItemProtocol::handle_mission_request_int Pages: 1 -->
<svg width="744pt" height="143pt"
 viewBox="0.00 0.00 744.00 143.00" xmlns="http://www.w3.org/2000/svg" xmlns:xlink="http://www.w3.org/1999/xlink">
<g id="graph0" class="graph" transform="scale(1 1) rotate(0) translate(4 139)">
<title>MissionItemProtocol::handle_mission_request_int</title>
<polygon fill="white" stroke="white" points="-4,5 -4,-139 741,-139 741,5 -4,5"/>
<!-- Node144 -->
<g id="node1" class="node"><title>Node144</title>
<g id="a_node1"><a xlink:title=" ">
<polygon fill="#bfbfbf" stroke="black" points="-0.0415039,-39 -0.0415039,-71 146.042,-71 146.042,-39 -0.0415039,-39"/>
<text text-anchor="start" x="7.9585" y="-57" font-family="Helvetica,sans-Serif" font-size="10.00">MissionItemProtocol</text>
<text text-anchor="middle" x="73" y="-45" font-family="Helvetica,sans-Serif" font-size="10.00">::handle_mission_request_int</text>
</a>
</g>
</g>
<!-- Node145 -->
<g id="node2" class="node"><title>Node145</title>
<g id="a_node2"><a xlink:href="classMissionItemProtocol.html#a0f57a2ceddc8d639f51e138c266179b8" target="_top" xlink:title=" ">
<polygon fill="white" stroke="black" points="195.985,-90 195.985,-122 302.015,-122 302.015,-90 195.985,-90"/>
<text text-anchor="start" x="203.985" y="-108" font-family="Helvetica,sans-Serif" font-size="10.00">MissionItemProtocol</text>
<text text-anchor="middle" x="249" y="-96" font-family="Helvetica,sans-Serif" font-size="10.00">::send_mission_ack</text>
</a>
</g>
</g>
<!-- Node144&#45;&gt;Node145 -->
<g id="edge1" class="edge"><title>Node144&#45;&gt;Node145</title>
<path fill="none" stroke="midnightblue" d="M129.055,-71.1367C147.283,-76.4796 167.685,-82.4594 186.374,-87.9373"/>
<polygon fill="midnightblue" stroke="midnightblue" points="185.39,-91.2961 195.971,-90.7501 187.359,-84.5787 185.39,-91.2961"/>
</g>
<!-- Node151 -->
<g id="node8" class="node"><title>Node151</title>
<g id="a_node8"><a xlink:href="classMissionItemProtocol.html#af587be3c475064871f1a625cf3ec3587" target="_top" xlink:title=" ">
<polygon fill="white" stroke="black" points="195.985,-39 195.985,-71 302.015,-71 302.015,-39 195.985,-39"/>
<text text-anchor="start" x="203.985" y="-57" font-family="Helvetica,sans-Serif" font-size="10.00">MissionItemProtocol</text>
<text text-anchor="middle" x="249" y="-45" font-family="Helvetica,sans-Serif" font-size="10.00">::get_item</text>
</a>
</g>
</g>
<!-- Node144&#45;&gt;Node151 -->
<g id="edge7" class="edge"><title>Node144&#45;&gt;Node151</title>
<path fill="none" stroke="midnightblue" d="M146.28,-55C159.394,-55 172.968,-55 185.763,-55"/>
<polygon fill="midnightblue" stroke="midnightblue" points="185.833,-58.5001 195.833,-55 185.833,-51.5001 185.833,-58.5001"/>
</g>
<!-- Node152 -->
<g id="node9" class="node"><title>Node152</title>
<g id="a_node9"><a xlink:href="structGCS__MAVLINK.html#a38bdeec979d6dbc84c7ca09bafb5bc04" target="_top" xlink:title=" ">
<polygon fill="white" stroke="black" points="182.45,-0 182.45,-20 315.55,-20 315.55,-0 182.45,-0"/>
<text text-anchor="middle" x="249" y="-6" font-family="Helvetica,sans-Serif" font-size="10.00">GCS_MAVLINK::get_chan</text>
</a>
</g>
</g>
<!-- Node144&#45;&gt;Node152 -->
<g id="edge8" class="edge"><title>Node144&#45;&gt;Node152</title>
<path fill="none" stroke="midnightblue" d="M136.327,-38.8811C157.003,-33.5336 179.707,-27.6619 199.213,-22.6173"/>
<polygon fill="midnightblue" stroke="midnightblue" points="200.289,-25.9543 209.094,-20.0619 198.536,-19.1773 200.289,-25.9543"/>
</g>
<!-- Node146 -->
<g id="node3" class="node"><title>Node146</title>
<g id="a_node3"><a xlink:href="namespaceAP.html#afceb236ff617aaaa2b08afacd72532b0" target="_top" xlink:title=" ">
<polygon fill="white" stroke="black" points="366.596,-115 366.596,-135 455.404,-135 455.404,-115 366.596,-115"/>
<text text-anchor="middle" x="411" y="-121" font-family="Helvetica,sans-Serif" font-size="10.00">AP::internalerror</text>
</a>
</g>
</g>
<!-- Node145&#45;&gt;Node146 -->
<g id="edge2" class="edge"><title>Node145&#45;&gt;Node146</title>
<path fill="none" stroke="midnightblue" d="M302.39,-112.221C319.76,-114.284 339.11,-116.582 356.559,-118.654"/>
<polygon fill="midnightblue" stroke="midnightblue" points="356.24,-122.141 366.583,-119.844 357.066,-115.189 356.24,-122.141"/>
</g>
<!-- Node147 -->
<g id="node4" class="node"><title>Node147</title>
<g id="a_node4"><a xlink:href="classAP__InternalError.html#ab34174ba770b976b39a18c2b23e854f2" target="_top" xlink:title=" ">
<polygon fill="white" stroke="black" points="352.426,-76 352.426,-96 469.574,-96 469.574,-76 352.426,-76"/>
<text text-anchor="middle" x="411" y="-82" font-family="Helvetica,sans-Serif" font-size="10.00">AP_InternalError::error</text>
</a>
</g>
</g>
<!-- Node145&#45;&gt;Node147 -->
<g id="edge3" class="edge"><title>Node145&#45;&gt;Node147</title>
<path fill="none" stroke="midnightblue" d="M302.39,-99.4513C315.099,-97.8626 328.869,-96.1414 342.177,-94.4778"/>
<polygon fill="midnightblue" stroke="midnightblue" points="342.751,-97.9334 352.24,-93.22 341.883,-90.9875 342.751,-97.9334"/>
</g>
<!-- Node148 -->
<g id="node5" class="node"><title>Node148</title>
<g id="a_node5"><a xlink:href="namespaceAP__HAL.html#a71832f03d849a0c088f04fc98d3c8143" target="_top" xlink:title=" ">
<polygon fill="white" stroke="black" points="506.091,-76 506.091,-96 589.909,-96 589.909,-76 506.091,-76"/>
<text text-anchor="middle" x="548" y="-82" font-family="Helvetica,sans-Serif" font-size="10.00">AP_HAL::panic</text>
</a>
</g>
</g>
<!-- Node147&#45;&gt;Node148 -->
<g id="edge4" class="edge"><title>Node147&#45;&gt;Node148</title>
<path fill="none" stroke="midnightblue" d="M469.644,-86C478.305,-86 487.188,-86 495.705,-86"/>
<polygon fill="midnightblue" stroke="midnightblue" points="495.873,-89.5001 505.873,-86 495.872,-82.5001 495.873,-89.5001"/>
</g>
<!-- Node149 -->
<g id="node6" class="node"><title>Node149</title>
<g id="a_node6"><a xlink:href="stdio_8h.html#aae132cc6af1eb6cf43bf011d8d63e854" target="_top" xlink:title=" ">
<polygon fill="white" stroke="black" points="659.384,-99 659.384,-119 702.616,-119 702.616,-99 659.384,-99"/>
<text text-anchor="middle" x="681" y="-105" font-family="Helvetica,sans-Serif" font-size="10.00">vprintf</text>
</a>
</g>
</g>
<!-- Node148&#45;&gt;Node149 -->
<g id="edge5" class="edge"><title>Node148&#45;&gt;Node149</title>
<path fill="none" stroke="midnightblue" d="M590.09,-93.2142C609.104,-96.5526 631.321,-100.453 648.913,-103.542"/>
<polygon fill="midnightblue" stroke="midnightblue" points="648.744,-107.066 659.199,-105.348 649.954,-100.171 648.744,-107.066"/>
</g>
<!-- Node150 -->
<g id="node7" class="node"><title>Node150</title>
<g id="a_node7"><a xlink:href="classAP__HAL_1_1Scheduler.html#a78c4f1b1f192ac1c99544b6cc8f099b0" target="_top" xlink:title=" ">
<polygon fill="white" stroke="black" points="625.751,-48 625.751,-80 736.249,-80 736.249,-48 625.751,-48"/>
<text text-anchor="start" x="633.751" y="-66" font-family="Helvetica,sans-Serif" font-size="10.00">AP_HAL::Scheduler::</text>
<text text-anchor="middle" x="681" y="-54" font-family="Helvetica,sans-Serif" font-size="10.00">delay_microseconds</text>
</a>
</g>
</g>
<!-- Node148&#45;&gt;Node150 -->
<g id="edge6" class="edge"><title>Node148&#45;&gt;Node150</title>
<path fill="none" stroke="midnightblue" d="M590.09,-79.0994C598.18,-77.7408 606.849,-76.2849 615.495,-74.8329"/>
<polygon fill="midnightblue" stroke="midnightblue" points="616.316,-78.2441 625.599,-73.1361 615.157,-71.3407 616.316,-78.2441"/>
</g>
</g>
</svg>
