<?xml version="1.0" encoding="UTF-8" standalone="no"?>
<!DOCTYPE svg PUBLIC "-//W3C//DTD SVG 1.1//EN"
 "http://www.w3.org/Graphics/SVG/1.1/DTD/svg11.dtd">
<!-- Generated by graphviz version 2.30.1 (20130221.2233)
 -->
<!-- Title: RC_Channels::flight_mode_channel Pages: 1 -->
<svg width="664pt" height="91pt"
 viewBox="0.00 0.00 664.00 91.00" xmlns="http://www.w3.org/2000/svg" xmlns:xlink="http://www.w3.org/1999/xlink">
<g id="graph0" class="graph" transform="scale(1 1) rotate(0) translate(4 87)">
<title>RC_Channels::flight_mode_channel</title>
<polygon fill="white" stroke="white" points="-4,5 -4,-87 661,-87 661,5 -4,5"/>
<!-- Node1000 -->
<g id="node1" class="node"><title>Node1000</title>
<g id="a_node1"><a xlink:title=" ">
<polygon fill="#bfbfbf" stroke="black" points="550.532,-25 550.532,-57 655.468,-57 655.468,-25 550.532,-25"/>
<text text-anchor="start" x="558.532" y="-43" font-family="Helvetica,sans-Serif" font-size="10.00">RC_Channels::flight</text>
<text text-anchor="middle" x="603" y="-31" font-family="Helvetica,sans-Serif" font-size="10.00">_mode_channel</text>
</a>
</g>
</g>
<!-- Node1001 -->
<g id="node2" class="node"><title>Node1001</title>
<g id="a_node2"><a xlink:href="classRC__Channels.html#a99b4604974241769f8ac656130990495" target="_top" xlink:title=" ">
<polygon fill="white" stroke="black" points="379.798,-51 379.798,-83 514.202,-83 514.202,-51 379.798,-51"/>
<text text-anchor="start" x="387.798" y="-69" font-family="Helvetica,sans-Serif" font-size="10.00">RC_Channels::read_mode</text>
<text text-anchor="middle" x="447" y="-57" font-family="Helvetica,sans-Serif" font-size="10.00">_switch</text>
</a>
</g>
</g>
<!-- Node1000&#45;&gt;Node1001 -->
<g id="edge1" class="edge"><title>Node1000&#45;&gt;Node1001</title>
<path fill="none" stroke="midnightblue" d="M540.385,-51.4026C531.819,-52.8488 522.988,-54.3397 514.34,-55.7998"/>
<polygon fill="midnightblue" stroke="midnightblue" points="541.014,-54.8459 550.292,-49.73 539.849,-47.9436 541.014,-54.8459"/>
</g>
<!-- Node1002 -->
<g id="node3" class="node"><title>Node1002</title>
<g id="a_node3"><a xlink:href="classRC__Channels.html#a4de4b86b5293faedf618e96103117cc9" target="_top" xlink:title=" ">
<polygon fill="white" stroke="black" points="393.978,-0 393.978,-32 500.022,-32 500.022,-0 393.978,-0"/>
<text text-anchor="start" x="401.978" y="-18" font-family="Helvetica,sans-Serif" font-size="10.00">RC_Channels::reset</text>
<text text-anchor="middle" x="447" y="-6" font-family="Helvetica,sans-Serif" font-size="10.00">_mode_switch</text>
</a>
</g>
</g>
<!-- Node1000&#45;&gt;Node1002 -->
<g id="edge2" class="edge"><title>Node1000&#45;&gt;Node1002</title>
<path fill="none" stroke="midnightblue" d="M540.262,-30.9776C526.948,-28.8162 512.999,-26.5518 500.096,-24.4572"/>
<polygon fill="midnightblue" stroke="midnightblue" points="539.86,-34.4581 550.292,-32.6058 540.982,-27.5486 539.86,-34.4581"/>
</g>
<!-- Node1003 -->
<g id="node4" class="node"><title>Node1003</title>
<g id="a_node4"><a xlink:href="classRC__Channels.html#a668ee11266919ed21cc542df61043cca" target="_top" xlink:title=" ">
<polygon fill="white" stroke="black" points="210.077,-6 210.077,-26 343.923,-26 343.923,-6 210.077,-6"/>
<text text-anchor="middle" x="277" y="-12" font-family="Helvetica,sans-Serif" font-size="10.00">RC_Channels::init_aux_all</text>
</a>
</g>
</g>
<!-- Node1002&#45;&gt;Node1003 -->
<g id="edge3" class="edge"><title>Node1002&#45;&gt;Node1003</title>
<path fill="none" stroke="midnightblue" d="M383.623,-16C370.751,-16 357.152,-16 344.151,-16"/>
<polygon fill="midnightblue" stroke="midnightblue" points="383.765,-19.5001 393.765,-16 383.765,-12.5001 383.765,-19.5001"/>
</g>
<!-- Node1004 -->
<g id="node5" class="node"><title>Node1004</title>
<g id="a_node5"><a xlink:href="classRC__Channels.html#a41ac050f115225f84b06b97fb79ee56f" target="_top" xlink:title=" ">
<polygon fill="white" stroke="black" points="76.7021,-6 76.7021,-26 173.298,-26 173.298,-6 76.7021,-6"/>
<text text-anchor="middle" x="125" y="-12" font-family="Helvetica,sans-Serif" font-size="10.00">RC_Channels::init</text>
</a>
</g>
</g>
<!-- Node1003&#45;&gt;Node1004 -->
<g id="edge4" class="edge"><title>Node1003&#45;&gt;Node1004</title>
<path fill="none" stroke="midnightblue" d="M199.684,-16C190.735,-16 181.811,-16 173.422,-16"/>
<polygon fill="midnightblue" stroke="midnightblue" points="199.771,-19.5001 209.771,-16 199.771,-12.5001 199.771,-19.5001"/>
</g>
<!-- Node1005 -->
<g id="node6" class="node"><title>Node1005</title>
<g id="a_node6"><a xlink:href="AC__PID__test_8cpp.html#a4fc01d736fe50cf5b977f755b675f11d" target="_top" xlink:title=" ">
<polygon fill="white" stroke="black" points="-0.231445,-6 -0.231445,-26 40.2314,-26 40.2314,-6 -0.231445,-6"/>
<text text-anchor="middle" x="20" y="-12" font-family="Helvetica,sans-Serif" font-size="10.00">setup</text>
</a>
</g>
</g>
<!-- Node1004&#45;&gt;Node1005 -->
<g id="edge5" class="edge"><title>Node1004&#45;&gt;Node1005</title>
<path fill="none" stroke="midnightblue" d="M66.2454,-16C56.9154,-16 47.8633,-16 40.3386,-16"/>
<polygon fill="midnightblue" stroke="midnightblue" points="66.4195,-19.5001 76.4195,-16 66.4194,-12.5001 66.4195,-19.5001"/>
</g>
</g>
</svg>
