<?xml version="1.0" encoding="UTF-8" standalone="no"?>
<!DOCTYPE svg PUBLIC "-//W3C//DTD SVG 1.1//EN"
 "http://www.w3.org/Graphics/SVG/1.1/DTD/svg11.dtd">
<!-- Generated by graphviz version 2.30.1 (20130221.2233)
 -->
<!-- Title: AP_RangeFinder_analog::AP_RangeFinder_analog Pages: 1 -->
<svg width="318pt" height="181pt"
 viewBox="0.00 0.00 318.00 181.00" xmlns="http://www.w3.org/2000/svg" xmlns:xlink="http://www.w3.org/1999/xlink">
<g id="graph0" class="graph" transform="scale(1 1) rotate(0) translate(4 177)">
<title>AP_RangeFinder_analog::AP_RangeFinder_analog</title>
<polygon fill="white" stroke="white" points="-4,5 -4,-177 315,-177 315,5 -4,5"/>
<!-- Node0 -->
<g id="node1" class="node"><title>Node0</title>
<g id="a_node1"><a xlink:title=" ">
<polygon fill="#bfbfbf" stroke="black" points="0.0693359,-76 0.0693359,-108 133.931,-108 133.931,-76 0.0693359,-76"/>
<text text-anchor="start" x="8.06934" y="-94" font-family="Helvetica,sans-Serif" font-size="10.00">AP_RangeFinder_analog</text>
<text text-anchor="middle" x="67" y="-82" font-family="Helvetica,sans-Serif" font-size="10.00">::AP_RangeFinder_analog</text>
</a>
</g>
</g>
<!-- Node1 -->
<g id="node2" class="node"><title>Node1</title>
<g id="a_node2"><a xlink:href="classAP__HAL_1_1AnalogIn.html#aa1287db18a7b6b27286091af1f4bd5e5" target="_top" xlink:title=" ">
<polygon fill="white" stroke="black" points="170.013,-153 170.013,-173 309.987,-173 309.987,-153 170.013,-153"/>
<text text-anchor="middle" x="240" y="-159" font-family="Helvetica,sans-Serif" font-size="10.00">AP_HAL::AnalogIn::channel</text>
</a>
</g>
</g>
<!-- Node0&#45;&gt;Node1 -->
<g id="edge1" class="edge"><title>Node0&#45;&gt;Node1</title>
<path fill="none" stroke="midnightblue" d="M96.8176,-108.174C116.903,-119.004 144.556,-133.046 170,-143 176.321,-145.473 183.073,-147.798 189.787,-149.927"/>
<polygon fill="midnightblue" stroke="midnightblue" points="188.956,-153.332 199.542,-152.899 190.996,-146.636 188.956,-153.332"/>
</g>
<!-- Node2 -->
<g id="node3" class="node"><title>Node2</title>
<g id="a_node3"><a xlink:href="classAP__RangeFinder__Backend.html#ac5b3771c47b58dfba89ebcf2a24541cd" target="_top" xlink:title=" ">
<polygon fill="white" stroke="black" points="171.404,-102 171.404,-134 308.596,-134 308.596,-102 171.404,-102"/>
<text text-anchor="start" x="179.404" y="-120" font-family="Helvetica,sans-Serif" font-size="10.00">AP_RangeFinder_Backend</text>
<text text-anchor="middle" x="240" y="-108" font-family="Helvetica,sans-Serif" font-size="10.00">::set_status</text>
</a>
</g>
</g>
<!-- Node0&#45;&gt;Node2 -->
<g id="edge2" class="edge"><title>Node0&#45;&gt;Node2</title>
<path fill="none" stroke="midnightblue" d="M134.113,-102.052C142.99,-103.402 152.161,-104.796 161.216,-106.173"/>
<polygon fill="midnightblue" stroke="midnightblue" points="160.956,-109.674 171.368,-107.717 162.008,-102.753 160.956,-109.674"/>
</g>
<!-- Node3 -->
<g id="node4" class="node"><title>Node3</title>
<g id="a_node4"><a xlink:href="classAP__HAL_1_1AnalogSource.html#aaa8a938d06b79f0ba5fbedfd7108a79e" target="_top" xlink:title=" ">
<polygon fill="white" stroke="black" points="178.633,-51 178.633,-83 301.367,-83 301.367,-51 178.633,-51"/>
<text text-anchor="start" x="186.633" y="-69" font-family="Helvetica,sans-Serif" font-size="10.00">AP_HAL::AnalogSource</text>
<text text-anchor="middle" x="240" y="-57" font-family="Helvetica,sans-Serif" font-size="10.00">::set_stop_pin</text>
</a>
</g>
</g>
<!-- Node0&#45;&gt;Node3 -->
<g id="edge3" class="edge"><title>Node0&#45;&gt;Node3</title>
<path fill="none" stroke="midnightblue" d="M134.113,-82.3343C145.266,-80.7038 156.884,-79.0053 168.152,-77.3579"/>
<polygon fill="midnightblue" stroke="midnightblue" points="168.99,-80.7727 178.378,-75.8629 167.977,-73.8464 168.99,-80.7727"/>
</g>
<!-- Node4 -->
<g id="node5" class="node"><title>Node4</title>
<g id="a_node5"><a xlink:href="classAP__HAL_1_1AnalogSource.html#a55852956070a0eb4456741afb7e3ce9d" target="_top" xlink:title=" ">
<polygon fill="white" stroke="black" points="178.633,-0 178.633,-32 301.367,-32 301.367,-0 178.633,-0"/>
<text text-anchor="start" x="186.633" y="-18" font-family="Helvetica,sans-Serif" font-size="10.00">AP_HAL::AnalogSource</text>
<text text-anchor="middle" x="240" y="-6" font-family="Helvetica,sans-Serif" font-size="10.00">::set_settle_time</text>
</a>
</g>
</g>
<!-- Node0&#45;&gt;Node4 -->
<g id="edge4" class="edge"><title>Node0&#45;&gt;Node4</title>
<path fill="none" stroke="midnightblue" d="M98.8896,-75.9017C118.933,-65.6948 145.743,-52.4871 170,-42 174.92,-39.8727 180.077,-37.7457 185.262,-35.6758"/>
<polygon fill="midnightblue" stroke="midnightblue" points="186.545,-38.9321 194.578,-32.0239 183.991,-32.4149 186.545,-38.9321"/>
</g>
</g>
</svg>
