<?xml version="1.0" encoding="UTF-8" standalone="no"?>
<!DOCTYPE svg PUBLIC "-//W3C//DTD SVG 1.1//EN"
 "http://www.w3.org/Graphics/SVG/1.1/DTD/svg11.dtd">
<!-- Generated by graphviz version 2.30.1 (20130221.2233)
 -->
<!-- Title: AP_OADijkstra::check_polygon_fence_updated Pages: 1 -->
<svg width="466pt" height="118pt"
 viewBox="0.00 0.00 466.00 118.00" xmlns="http://www.w3.org/2000/svg" xmlns:xlink="http://www.w3.org/1999/xlink">
<g id="graph0" class="graph" transform="scale(1 1) rotate(0) translate(4 114)">
<title>AP_OADijkstra::check_polygon_fence_updated</title>
<polygon fill="white" stroke="white" points="-4,5 -4,-114 463,-114 463,5 -4,5"/>
<!-- Node32 -->
<g id="node1" class="node"><title>Node32</title>
<g id="a_node1"><a xlink:title=" ">
<polygon fill="#bfbfbf" stroke="black" points="-0.162109,-45 -0.162109,-77 128.162,-77 128.162,-45 -0.162109,-45"/>
<text text-anchor="start" x="7.83789" y="-63" font-family="Helvetica,sans-Serif" font-size="10.00">AP_OADijkstra::check</text>
<text text-anchor="middle" x="64" y="-51" font-family="Helvetica,sans-Serif" font-size="10.00">_polygon_fence_updated</text>
</a>
</g>
</g>
<!-- Node33 -->
<g id="node2" class="node"><title>Node33</title>
<g id="a_node2"><a xlink:href="namespaceAP.html#ad7eb5eb7d80cfbcb69839b497bff7a46" target="_top" xlink:title=" ">
<polygon fill="white" stroke="black" points="199.32,-90 199.32,-110 258.68,-110 258.68,-90 199.32,-90"/>
<text text-anchor="middle" x="229" y="-96" font-family="Helvetica,sans-Serif" font-size="10.00">AP::fence</text>
</a>
</g>
</g>
<!-- Node32&#45;&gt;Node33 -->
<g id="edge1" class="edge"><title>Node32&#45;&gt;Node33</title>
<path fill="none" stroke="midnightblue" d="M128.487,-76.1901C148.907,-81.0759 170.915,-86.3416 189.029,-90.6757"/>
<polygon fill="midnightblue" stroke="midnightblue" points="188.389,-94.1213 198.929,-93.0444 190.018,-87.3135 188.389,-94.1213"/>
</g>
<!-- Node34 -->
<g id="node3" class="node"><title>Node34</title>
<g id="a_node3"><a xlink:href="classAC__Fence.html#a564e4d513a44df29b5bc6b0424aeedf8" target="_top" xlink:title=" ">
<polygon fill="white" stroke="black" points="329.853,-70 329.853,-90 458.147,-90 458.147,-70 329.853,-70"/>
<text text-anchor="middle" x="394" y="-76" font-family="Helvetica,sans-Serif" font-size="10.00">AC_Fence::get_singleton</text>
</a>
</g>
</g>
<!-- Node32&#45;&gt;Node34 -->
<g id="edge3" class="edge"><title>Node32&#45;&gt;Node34</title>
<path fill="none" stroke="midnightblue" d="M128.242,-64.6634C182.945,-67.8322 262.069,-72.4156 319.561,-75.7459"/>
<polygon fill="midnightblue" stroke="midnightblue" points="319.488,-79.2474 329.673,-76.3317 319.892,-72.2592 319.488,-79.2474"/>
</g>
<!-- Node35 -->
<g id="node4" class="node"><title>Node35</title>
<g id="a_node4"><a xlink:href="classAC__Fence.html#aaefeeba0ed30754455ca3c242d1de732" target="_top" xlink:title="return system time of last update to the boundary (allows external detection of boundary changes)">
<polygon fill="white" stroke="black" points="164.018,-0 164.018,-32 293.982,-32 293.982,-0 164.018,-0"/>
<text text-anchor="start" x="172.018" y="-18" font-family="Helvetica,sans-Serif" font-size="10.00">AC_Fence::get_boundary</text>
<text text-anchor="middle" x="229" y="-6" font-family="Helvetica,sans-Serif" font-size="10.00">_update_ms</text>
</a>
</g>
</g>
<!-- Node32&#45;&gt;Node35 -->
<g id="edge4" class="edge"><title>Node32&#45;&gt;Node35</title>
<path fill="none" stroke="midnightblue" d="M123.386,-44.8811C135.352,-41.5777 148.042,-38.0744 160.303,-34.6895"/>
<polygon fill="midnightblue" stroke="midnightblue" points="161.313,-38.0414 170.021,-32.0064 159.45,-31.2939 161.313,-38.0414"/>
</g>
<!-- Node33&#45;&gt;Node34 -->
<g id="edge2" class="edge"><title>Node33&#45;&gt;Node34</title>
<path fill="none" stroke="midnightblue" d="M258.766,-96.4704C275.729,-94.389 298.034,-91.6523 319.578,-89.0088"/>
<polygon fill="midnightblue" stroke="midnightblue" points="320.234,-92.4547 329.733,-87.7628 319.381,-85.5068 320.234,-92.4547"/>
</g>
</g>
</svg>
