<?xml version="1.0" encoding="UTF-8" standalone="no"?>
<!DOCTYPE svg PUBLIC "-//W3C//DTD SVG 1.1//EN"
 "http://www.w3.org/Graphics/SVG/1.1/DTD/svg11.dtd">
<!-- Generated by graphviz version 2.30.1 (20130221.2233)
 -->
<!-- Title: AC_Avoid::adjust_roll_pitch Pages: 1 -->
<svg width="890pt" height="423pt"
 viewBox="0.00 0.00 890.00 423.00" xmlns="http://www.w3.org/2000/svg" xmlns:xlink="http://www.w3.org/1999/xlink">
<g id="graph0" class="graph" transform="scale(1 1) rotate(0) translate(4 419)">
<title>AC_Avoid::adjust_roll_pitch</title>
<polygon fill="white" stroke="white" points="-4,5 -4,-419 887,-419 887,5 -4,5"/>
<!-- Node7 -->
<g id="node1" class="node"><title>Node7</title>
<g id="a_node1"><a xlink:title=" ">
<polygon fill="#bfbfbf" stroke="black" points="0.285156,-100 0.285156,-132 111.715,-132 111.715,-100 0.285156,-100"/>
<text text-anchor="start" x="8.28516" y="-118" font-family="Helvetica,sans-Serif" font-size="10.00">AC_Avoid::adjust_roll</text>
<text text-anchor="middle" x="56" y="-106" font-family="Helvetica,sans-Serif" font-size="10.00">_pitch</text>
</a>
</g>
</g>
<!-- Node8 -->
<g id="node2" class="node"><title>Node8</title>
<g id="a_node2"><a xlink:href="classAC__Avoid.html#ad27740aa416a455958dcdc914a2be63e" target="_top" xlink:title=" ">
<polygon fill="white" stroke="black" points="148.342,-203 148.342,-235 273.658,-235 273.658,-203 148.342,-203"/>
<text text-anchor="start" x="156.342" y="-221" font-family="Helvetica,sans-Serif" font-size="10.00">AC_Avoid::get_proximity</text>
<text text-anchor="middle" x="211" y="-209" font-family="Helvetica,sans-Serif" font-size="10.00">_roll_pitch_pct</text>
</a>
</g>
</g>
<!-- Node7&#45;&gt;Node8 -->
<g id="edge1" class="edge"><title>Node7&#45;&gt;Node8</title>
<path fill="none" stroke="midnightblue" d="M80.9062,-132.094C106.879,-149.579 148.528,-177.617 177.468,-197.099"/>
<polygon fill="midnightblue" stroke="midnightblue" points="175.76,-200.169 186.01,-202.85 179.669,-194.362 175.76,-200.169"/>
</g>
<!-- Node20 -->
<g id="node14" class="node"><title>Node20</title>
<g id="a_node14"><a xlink:href="AP__Math_8h.html#ad525609d9dba6ffa556a0fbf08a3f9b4" target="_top" xlink:title=" ">
<polygon fill="white" stroke="black" points="170.48,-106 170.48,-126 251.52,-126 251.52,-106 170.48,-106"/>
<text text-anchor="middle" x="211" y="-112" font-family="Helvetica,sans-Serif" font-size="10.00">constrain_float</text>
</a>
</g>
</g>
<!-- Node7&#45;&gt;Node20 -->
<g id="edge13" class="edge"><title>Node7&#45;&gt;Node20</title>
<path fill="none" stroke="midnightblue" d="M111.804,-116C127.549,-116 144.631,-116 160.066,-116"/>
<polygon fill="midnightblue" stroke="midnightblue" points="160.451,-119.5 170.451,-116 160.451,-112.5 160.451,-119.5"/>
</g>
<!-- Node27 -->
<g id="node21" class="node"><title>Node27</title>
<g id="a_node21"><a xlink:href="structVector2.html#a671d712528ea3b2cc21fd4616eea8f98" target="_top" xlink:title=" ">
<polygon fill="white" stroke="black" points="169.641,-67 169.641,-87 252.359,-87 252.359,-67 169.641,-67"/>
<text text-anchor="middle" x="211" y="-73" font-family="Helvetica,sans-Serif" font-size="10.00">Vector2::length</text>
</a>
</g>
</g>
<!-- Node7&#45;&gt;Node27 -->
<g id="edge20" class="edge"><title>Node7&#45;&gt;Node27</title>
<path fill="none" stroke="midnightblue" d="M111.804,-102.03C127.701,-97.9782 144.96,-93.5789 160.51,-89.615"/>
<polygon fill="midnightblue" stroke="midnightblue" points="161.625,-92.9428 170.451,-87.0811 159.896,-86.1597 161.625,-92.9428"/>
</g>
<!-- Node9 -->
<g id="node3" class="node"><title>Node9</title>
<g id="a_node3"><a xlink:href="namespaceAP.html#a8b4b4424addfab0bbe9a7290107af2d7" target="_top" xlink:title=" ">
<polygon fill="white" stroke="black" points="336.549,-395 336.549,-415 411.451,-415 411.451,-395 336.549,-395"/>
<text text-anchor="middle" x="374" y="-401" font-family="Helvetica,sans-Serif" font-size="10.00">AP::proximity</text>
</a>
</g>
</g>
<!-- Node8&#45;&gt;Node9 -->
<g id="edge2" class="edge"><title>Node8&#45;&gt;Node9</title>
<path fill="none" stroke="midnightblue" d="M217.17,-235.348C228.5,-268.541 258.685,-344.141 310,-385 315.008,-388.987 320.824,-392.186 326.859,-394.752"/>
<polygon fill="midnightblue" stroke="midnightblue" points="325.845,-398.108 336.438,-398.283 328.266,-391.54 325.845,-398.108"/>
</g>
<!-- Node11 -->
<g id="node5" class="node"><title>Node11</title>
<g id="a_node5"><a xlink:href="classAP__Proximity.html#a5828d33a5e6873d29c01d0ea377bad3a" target="_top" xlink:title=" ">
<polygon fill="white" stroke="black" points="310.143,-356 310.143,-376 437.857,-376 437.857,-356 310.143,-356"/>
<text text-anchor="middle" x="374" y="-362" font-family="Helvetica,sans-Serif" font-size="10.00">AP_Proximity::get_status</text>
</a>
</g>
</g>
<!-- Node8&#45;&gt;Node11 -->
<g id="edge4" class="edge"><title>Node8&#45;&gt;Node11</title>
<path fill="none" stroke="midnightblue" d="M220.22,-235.198C234.706,-262.141 267.328,-316.145 310,-346 313.097,-348.167 316.44,-350.107 319.914,-351.843"/>
<polygon fill="midnightblue" stroke="midnightblue" points="318.776,-355.166 329.339,-355.978 321.588,-348.755 318.776,-355.166"/>
</g>
<!-- Node12 -->
<g id="node6" class="node"><title>Node12</title>
<g id="a_node6"><a xlink:href="classAP__Proximity.html#a34b5454141adcc40c53df1c1fb41a58f" target="_top" xlink:title=" ">
<polygon fill="white" stroke="black" points="310.141,-305 310.141,-337 437.859,-337 437.859,-305 310.141,-305"/>
<text text-anchor="start" x="318.141" y="-323" font-family="Helvetica,sans-Serif" font-size="10.00">AP_Proximity::get_object</text>
<text text-anchor="middle" x="374" y="-311" font-family="Helvetica,sans-Serif" font-size="10.00">_count</text>
</a>
</g>
</g>
<!-- Node8&#45;&gt;Node12 -->
<g id="edge5" class="edge"><title>Node8&#45;&gt;Node12</title>
<path fill="none" stroke="midnightblue" d="M229.731,-235.138C248.597,-251.716 279.827,-277.502 310,-295 313.359,-296.948 316.891,-298.823 320.498,-300.613"/>
<polygon fill="midnightblue" stroke="midnightblue" points="319.021,-303.786 329.56,-304.878 322.002,-297.453 319.021,-303.786"/>
</g>
<!-- Node14 -->
<g id="node8" class="node"><title>Node14</title>
<g id="a_node8"><a xlink:href="classAP__Proximity.html#aec01d9f653382cd9b17fa9cd8343e4fd" target="_top" xlink:title=" ">
<polygon fill="white" stroke="black" points="310.141,-254 310.141,-286 437.859,-286 437.859,-254 310.141,-254"/>
<text text-anchor="start" x="318.141" y="-272" font-family="Helvetica,sans-Serif" font-size="10.00">AP_Proximity::get_object</text>
<text text-anchor="middle" x="374" y="-260" font-family="Helvetica,sans-Serif" font-size="10.00">_angle_and_distance</text>
</a>
</g>
</g>
<!-- Node8&#45;&gt;Node14 -->
<g id="edge7" class="edge"><title>Node8&#45;&gt;Node14</title>
<path fill="none" stroke="midnightblue" d="M262.941,-235.137C278.657,-240.115 296.119,-245.646 312.418,-250.809"/>
<polygon fill="midnightblue" stroke="midnightblue" points="311.8,-254.285 322.39,-253.968 313.914,-247.612 311.8,-254.285"/>
</g>
<!-- Node16 -->
<g id="node10" class="node"><title>Node16</title>
<g id="a_node10"><a xlink:href="classAC__Avoid.html#a46091671b3baa7c332251c4ce6e91210" target="_top" xlink:title=" ">
<polygon fill="white" stroke="black" points="322.453,-203 322.453,-235 425.547,-235 425.547,-203 322.453,-203"/>
<text text-anchor="start" x="330.453" y="-221" font-family="Helvetica,sans-Serif" font-size="10.00">AC_Avoid::distance</text>
<text text-anchor="middle" x="374" y="-209" font-family="Helvetica,sans-Serif" font-size="10.00">_to_lean_pct</text>
</a>
</g>
</g>
<!-- Node8&#45;&gt;Node16 -->
<g id="edge9" class="edge"><title>Node8&#45;&gt;Node16</title>
<path fill="none" stroke="midnightblue" d="M273.786,-219C286.326,-219 299.507,-219 312.018,-219"/>
<polygon fill="midnightblue" stroke="midnightblue" points="312.342,-222.5 322.342,-219 312.342,-215.5 312.342,-222.5"/>
</g>
<!-- Node17 -->
<g id="node11" class="node"><title>Node17</title>
<g id="a_node11"><a xlink:href="AP__Math_8h.html#a37d7c62a8231d9d22826261297b99da4" target="_top" xlink:title=" ">
<polygon fill="white" stroke="black" points="349.601,-164 349.601,-184 398.399,-184 398.399,-164 349.601,-164"/>
<text text-anchor="middle" x="374" y="-170" font-family="Helvetica,sans-Serif" font-size="10.00">radians</text>
</a>
</g>
</g>
<!-- Node8&#45;&gt;Node17 -->
<g id="edge10" class="edge"><title>Node8&#45;&gt;Node17</title>
<path fill="none" stroke="midnightblue" d="M269.67,-202.881C293.135,-196.322 319.422,-188.975 339.609,-183.333"/>
<polygon fill="midnightblue" stroke="midnightblue" points="340.588,-186.694 349.276,-180.631 338.703,-179.952 340.588,-186.694"/>
</g>
<!-- Node18 -->
<g id="node12" class="node"><title>Node18</title>
<g id="a_node12"><a xlink:href="AP__Math_8h.html#a5abc8871f1e7781a55afe9bf299f0a39" target="_top" xlink:title=" ">
<polygon fill="white" stroke="black" points="355.165,-125 355.165,-145 392.835,-145 392.835,-125 355.165,-125"/>
<text text-anchor="middle" x="374" y="-131" font-family="Helvetica,sans-Serif" font-size="10.00">MAX</text>
</a>
</g>
</g>
<!-- Node8&#45;&gt;Node18 -->
<g id="edge11" class="edge"><title>Node8&#45;&gt;Node18</title>
<path fill="none" stroke="midnightblue" d="M233.185,-202.727C252.391,-188.584 281.91,-168.326 310,-155 321.192,-149.69 334.148,-145.302 345.39,-142.003"/>
<polygon fill="midnightblue" stroke="midnightblue" points="346.442,-145.343 355.132,-139.283 344.56,-138.601 346.442,-145.343"/>
</g>
<!-- Node19 -->
<g id="node13" class="node"><title>Node19</title>
<g id="a_node13"><a xlink:href="AP__Math_8h.html#a321a91de43cfb2e95d40cde314d0a80f" target="_top" xlink:title=" ">
<polygon fill="white" stroke="black" points="356.835,-86 356.835,-106 391.165,-106 391.165,-86 356.835,-86"/>
<text text-anchor="middle" x="374" y="-92" font-family="Helvetica,sans-Serif" font-size="10.00">MIN</text>
</a>
</g>
</g>
<!-- Node8&#45;&gt;Node19 -->
<g id="edge12" class="edge"><title>Node8&#45;&gt;Node19</title>
<path fill="none" stroke="midnightblue" d="M223.375,-202.629C239.921,-179.991 272.748,-139.294 310,-116 321.213,-108.988 335.097,-104.237 346.976,-101.131"/>
<polygon fill="midnightblue" stroke="midnightblue" points="347.855,-104.519 356.78,-98.81 346.243,-97.7077 347.855,-104.519"/>
</g>
<!-- Node10 -->
<g id="node4" class="node"><title>Node10</title>
<g id="a_node4"><a xlink:href="classAP__Proximity.html#a9a5196c465fcce6e3a0c38b77b2f4d28" target="_top" xlink:title=" ">
<polygon fill="white" stroke="black" points="474.468,-395 474.468,-415 615.532,-415 615.532,-395 474.468,-395"/>
<text text-anchor="middle" x="545" y="-401" font-family="Helvetica,sans-Serif" font-size="10.00">AP_Proximity::get_singleton</text>
</a>
</g>
</g>
<!-- Node9&#45;&gt;Node10 -->
<g id="edge3" class="edge"><title>Node9&#45;&gt;Node10</title>
<path fill="none" stroke="midnightblue" d="M411.67,-405C427.151,-405 445.826,-405 464.203,-405"/>
<polygon fill="midnightblue" stroke="midnightblue" points="464.36,-408.5 474.36,-405 464.36,-401.5 464.36,-408.5"/>
</g>
<!-- Node13 -->
<g id="node7" class="node"><title>Node13</title>
<g id="a_node7"><a xlink:href="classAP__Proximity__Backend.html#a0efb8a991bd71a3a8f269d4ab5451885" target="_top" xlink:title=" ">
<polygon fill="white" stroke="black" points="484.754,-308 484.754,-340 605.246,-340 605.246,-308 484.754,-308"/>
<text text-anchor="start" x="492.754" y="-326" font-family="Helvetica,sans-Serif" font-size="10.00">AP_Proximity_Backend</text>
<text text-anchor="middle" x="545" y="-314" font-family="Helvetica,sans-Serif" font-size="10.00">::get_object_count</text>
</a>
</g>
</g>
<!-- Node12&#45;&gt;Node13 -->
<g id="edge6" class="edge"><title>Node12&#45;&gt;Node13</title>
<path fill="none" stroke="midnightblue" d="M437.929,-322.117C449.88,-322.329 462.448,-322.552 474.586,-322.768"/>
<polygon fill="midnightblue" stroke="midnightblue" points="474.598,-326.268 484.658,-322.947 474.722,-319.27 474.598,-326.268"/>
</g>
<!-- Node15 -->
<g id="node9" class="node"><title>Node15</title>
<g id="a_node9"><a xlink:href="classAP__Proximity__Backend.html#a4db1ee0c08232b9f6f71dc78913a6078" target="_top" xlink:title=" ">
<polygon fill="white" stroke="black" points="484.754,-245 484.754,-289 605.246,-289 605.246,-245 484.754,-245"/>
<text text-anchor="start" x="492.754" y="-275" font-family="Helvetica,sans-Serif" font-size="10.00">AP_Proximity_Backend</text>
<text text-anchor="start" x="492.754" y="-263" font-family="Helvetica,sans-Serif" font-size="10.00">::get_object_angle_and</text>
<text text-anchor="middle" x="545" y="-251" font-family="Helvetica,sans-Serif" font-size="10.00">_distance</text>
</a>
</g>
</g>
<!-- Node14&#45;&gt;Node15 -->
<g id="edge8" class="edge"><title>Node14&#45;&gt;Node15</title>
<path fill="none" stroke="midnightblue" d="M437.929,-268.883C449.88,-268.671 462.448,-268.448 474.586,-268.232"/>
<polygon fill="midnightblue" stroke="midnightblue" points="474.722,-271.73 484.658,-268.053 474.598,-264.732 474.722,-271.73"/>
</g>
<!-- Node21 -->
<g id="node15" class="node"><title>Node21</title>
<g id="a_node15"><a xlink:href="AP__Math_8h.html#a20e8f8671c282c69c1954652b6d61585" target="_top" xlink:title=" ">
<polygon fill="white" stroke="black" points="330.978,-47 330.978,-67 417.022,-67 417.022,-47 330.978,-47"/>
<text text-anchor="middle" x="374" y="-53" font-family="Helvetica,sans-Serif" font-size="10.00">constrain_value</text>
</a>
</g>
</g>
<!-- Node20&#45;&gt;Node21 -->
<g id="edge14" class="edge"><title>Node20&#45;&gt;Node21</title>
<path fill="none" stroke="midnightblue" d="M246.822,-105.938C255.791,-103.029 265.349,-99.6455 274,-96 290.672,-88.9742 293.312,-83.987 310,-77 315.766,-74.586 321.93,-72.2939 328.062,-70.181"/>
<polygon fill="midnightblue" stroke="midnightblue" points="329.219,-73.4849 337.61,-67.0166 327.016,-66.8404 329.219,-73.4849"/>
</g>
<!-- Node22 -->
<g id="node16" class="node"><title>Node22</title>
<g id="a_node16"><a xlink:href="namespaceAP.html#afceb236ff617aaaa2b08afacd72532b0" target="_top" xlink:title=" ">
<polygon fill="white" stroke="black" points="500.596,-67 500.596,-87 589.404,-87 589.404,-67 500.596,-67"/>
<text text-anchor="middle" x="545" y="-73" font-family="Helvetica,sans-Serif" font-size="10.00">AP::internalerror</text>
</a>
</g>
</g>
<!-- Node21&#45;&gt;Node22 -->
<g id="edge15" class="edge"><title>Node21&#45;&gt;Node22</title>
<path fill="none" stroke="midnightblue" d="M417.21,-61.9953C439.353,-64.6157 466.715,-67.8539 490.347,-70.6505"/>
<polygon fill="midnightblue" stroke="midnightblue" points="490.222,-74.1601 500.564,-71.8597 491.045,-67.2086 490.222,-74.1601"/>
</g>
<!-- Node23 -->
<g id="node17" class="node"><title>Node23</title>
<g id="a_node17"><a xlink:href="classAP__InternalError.html#ab34174ba770b976b39a18c2b23e854f2" target="_top" xlink:title=" ">
<polygon fill="white" stroke="black" points="486.426,-28 486.426,-48 603.574,-48 603.574,-28 486.426,-28"/>
<text text-anchor="middle" x="545" y="-34" font-family="Helvetica,sans-Serif" font-size="10.00">AP_InternalError::error</text>
</a>
</g>
</g>
<!-- Node21&#45;&gt;Node23 -->
<g id="edge16" class="edge"><title>Node21&#45;&gt;Node23</title>
<path fill="none" stroke="midnightblue" d="M417.21,-52.2545C435.108,-50.2423 456.417,-47.8466 476.409,-45.599"/>
<polygon fill="midnightblue" stroke="midnightblue" points="476.86,-49.0704 486.407,-44.475 476.078,-42.1142 476.86,-49.0704"/>
</g>
<!-- Node24 -->
<g id="node18" class="node"><title>Node24</title>
<g id="a_node18"><a xlink:href="namespaceAP__HAL.html#a71832f03d849a0c088f04fc98d3c8143" target="_top" xlink:title=" ">
<polygon fill="white" stroke="black" points="652.091,-28 652.091,-48 735.909,-48 735.909,-28 652.091,-28"/>
<text text-anchor="middle" x="694" y="-34" font-family="Helvetica,sans-Serif" font-size="10.00">AP_HAL::panic</text>
</a>
</g>
</g>
<!-- Node23&#45;&gt;Node24 -->
<g id="edge17" class="edge"><title>Node23&#45;&gt;Node24</title>
<path fill="none" stroke="midnightblue" d="M603.676,-38C616.244,-38 629.46,-38 641.758,-38"/>
<polygon fill="midnightblue" stroke="midnightblue" points="641.839,-41.5001 651.838,-38 641.838,-34.5001 641.839,-41.5001"/>
</g>
<!-- Node25 -->
<g id="node19" class="node"><title>Node25</title>
<g id="a_node19"><a xlink:href="stdio_8h.html#aae132cc6af1eb6cf43bf011d8d63e854" target="_top" xlink:title=" ">
<polygon fill="white" stroke="black" points="805.384,-51 805.384,-71 848.616,-71 848.616,-51 805.384,-51"/>
<text text-anchor="middle" x="827" y="-57" font-family="Helvetica,sans-Serif" font-size="10.00">vprintf</text>
</a>
</g>
</g>
<!-- Node24&#45;&gt;Node25 -->
<g id="edge18" class="edge"><title>Node24&#45;&gt;Node25</title>
<path fill="none" stroke="midnightblue" d="M736.09,-45.2142C755.104,-48.5526 777.321,-52.4533 794.913,-55.542"/>
<polygon fill="midnightblue" stroke="midnightblue" points="794.744,-59.0658 805.199,-57.3478 795.954,-52.1712 794.744,-59.0658"/>
</g>
<!-- Node26 -->
<g id="node20" class="node"><title>Node26</title>
<g id="a_node20"><a xlink:href="classAP__HAL_1_1Scheduler.html#a78c4f1b1f192ac1c99544b6cc8f099b0" target="_top" xlink:title=" ">
<polygon fill="white" stroke="black" points="771.751,-0 771.751,-32 882.249,-32 882.249,-0 771.751,-0"/>
<text text-anchor="start" x="779.751" y="-18" font-family="Helvetica,sans-Serif" font-size="10.00">AP_HAL::Scheduler::</text>
<text text-anchor="middle" x="827" y="-6" font-family="Helvetica,sans-Serif" font-size="10.00">delay_microseconds</text>
</a>
</g>
</g>
<!-- Node24&#45;&gt;Node26 -->
<g id="edge19" class="edge"><title>Node24&#45;&gt;Node26</title>
<path fill="none" stroke="midnightblue" d="M736.09,-31.0994C744.18,-29.7408 752.849,-28.2849 761.495,-26.8329"/>
<polygon fill="midnightblue" stroke="midnightblue" points="762.316,-30.2441 771.599,-25.1361 761.157,-23.3407 762.316,-30.2441"/>
</g>
</g>
</svg>
