<?xml version="1.0" encoding="UTF-8" standalone="no"?>
<!DOCTYPE svg PUBLIC "-//W3C//DTD SVG 1.1//EN"
 "http://www.w3.org/Graphics/SVG/1.1/DTD/svg11.dtd">
<!-- Generated by graphviz version 2.30.1 (20130221.2233)
 -->
<!-- Title: AnalogIn_ADS1115::channel Pages: 1 -->
<svg width="794pt" height="157pt"
 viewBox="0.00 0.00 794.00 157.00" xmlns="http://www.w3.org/2000/svg" xmlns:xlink="http://www.w3.org/1999/xlink">
<g id="graph0" class="graph" transform="scale(1 1) rotate(0) translate(4 153)">
<title>AnalogIn_ADS1115::channel</title>
<polygon fill="white" stroke="white" points="-4,5 -4,-153 791,-153 791,5 -4,5"/>
<!-- Node15 -->
<g id="node1" class="node"><title>Node15</title>
<g id="a_node1"><a xlink:title=" ">
<polygon fill="#bfbfbf" stroke="black" points="0.520996,-58 0.520996,-78 143.479,-78 143.479,-58 0.520996,-58"/>
<text text-anchor="middle" x="72" y="-64" font-family="Helvetica,sans-Serif" font-size="10.00">AnalogIn_ADS1115::channel</text>
</a>
</g>
</g>
<!-- Node16 -->
<g id="node2" class="node"><title>Node16</title>
<g id="a_node2"><a xlink:href="classAP__HAL_1_1BetterStream.html#a8534aa004599bb81ad60f3e762791032" target="_top" xlink:title=" ">
<polygon fill="white" stroke="black" points="180.589,-52 180.589,-84 299.411,-84 299.411,-52 180.589,-52"/>
<text text-anchor="start" x="188.589" y="-70" font-family="Helvetica,sans-Serif" font-size="10.00">AP_HAL::BetterStream</text>
<text text-anchor="middle" x="240" y="-58" font-family="Helvetica,sans-Serif" font-size="10.00">::printf</text>
</a>
</g>
</g>
<!-- Node15&#45;&gt;Node16 -->
<g id="edge1" class="edge"><title>Node15&#45;&gt;Node16</title>
<path fill="none" stroke="midnightblue" d="M143.88,-68C152.621,-68 161.545,-68 170.253,-68"/>
<polygon fill="midnightblue" stroke="midnightblue" points="170.352,-71.5001 180.352,-68 170.352,-64.5001 170.352,-71.5001"/>
</g>
<!-- Node17 -->
<g id="node3" class="node"><title>Node17</title>
<g id="a_node3"><a xlink:href="classAP__HAL_1_1BetterStream.html#aa730be451d385d7ba03ee9677e6d91a2" target="_top" xlink:title=" ">
<polygon fill="white" stroke="black" points="336.589,-52 336.589,-84 455.411,-84 455.411,-52 336.589,-52"/>
<text text-anchor="start" x="344.589" y="-70" font-family="Helvetica,sans-Serif" font-size="10.00">AP_HAL::BetterStream</text>
<text text-anchor="middle" x="396" y="-58" font-family="Helvetica,sans-Serif" font-size="10.00">::vprintf</text>
</a>
</g>
</g>
<!-- Node16&#45;&gt;Node17 -->
<g id="edge2" class="edge"><title>Node16&#45;&gt;Node17</title>
<path fill="none" stroke="midnightblue" d="M299.66,-68C308.43,-68 317.536,-68 326.488,-68"/>
<polygon fill="midnightblue" stroke="midnightblue" points="326.503,-71.5001 336.503,-68 326.503,-64.5001 326.503,-71.5001"/>
</g>
<!-- Node18 -->
<g id="node4" class="node"><title>Node18</title>
<g id="a_node4"><a xlink:href="print__vprintf_8cpp.html#a98e0d5bb436a207f576379beaa786040" target="_top" xlink:title=" ">
<polygon fill="white" stroke="black" points="491.877,-58 491.877,-78 560.123,-78 560.123,-58 491.877,-58"/>
<text text-anchor="middle" x="526" y="-64" font-family="Helvetica,sans-Serif" font-size="10.00">print_vprintf</text>
</a>
</g>
</g>
<!-- Node17&#45;&gt;Node18 -->
<g id="edge3" class="edge"><title>Node17&#45;&gt;Node18</title>
<path fill="none" stroke="midnightblue" d="M455.755,-68C464.443,-68 473.26,-68 481.561,-68"/>
<polygon fill="midnightblue" stroke="midnightblue" points="481.751,-71.5001 491.751,-68 481.751,-64.5001 481.751,-71.5001"/>
</g>
<!-- Node19 -->
<g id="node5" class="node"><title>Node19</title>
<g id="a_node5"><a xlink:href="classAP__HAL_1_1BetterStream.html#a915cc01273d4b418c2fb2989fb31a508" target="_top" xlink:title=" ">
<polygon fill="white" stroke="black" points="596.589,-117 596.589,-149 715.411,-149 715.411,-117 596.589,-117"/>
<text text-anchor="start" x="604.589" y="-135" font-family="Helvetica,sans-Serif" font-size="10.00">AP_HAL::BetterStream</text>
<text text-anchor="middle" x="656" y="-123" font-family="Helvetica,sans-Serif" font-size="10.00">::write</text>
</a>
</g>
</g>
<!-- Node18&#45;&gt;Node19 -->
<g id="edge4" class="edge"><title>Node18&#45;&gt;Node19</title>
<path fill="none" stroke="midnightblue" d="M543.76,-78.0932C557.578,-86.2634 577.795,-97.8721 596,-107 599.771,-108.891 603.711,-110.788 607.687,-112.65"/>
<polygon fill="midnightblue" stroke="midnightblue" points="606.422,-115.92 616.971,-116.907 609.34,-109.557 606.422,-115.92"/>
</g>
<!-- Node20 -->
<g id="node6" class="node"><title>Node20</title>
<g id="a_node6"><a xlink:href="ftoa__engine_8cpp.html#a1c28234da8f20b43c85890d4bb452947" target="_top" xlink:title=" ">
<polygon fill="white" stroke="black" points="621.865,-78 621.865,-98 690.135,-98 690.135,-78 621.865,-78"/>
<text text-anchor="middle" x="656" y="-84" font-family="Helvetica,sans-Serif" font-size="10.00">ftoa_engine</text>
</a>
</g>
</g>
<!-- Node18&#45;&gt;Node20 -->
<g id="edge5" class="edge"><title>Node18&#45;&gt;Node20</title>
<path fill="none" stroke="midnightblue" d="M560.296,-73.2026C575.877,-75.6371 594.64,-78.5688 611.341,-81.1782"/>
<polygon fill="midnightblue" stroke="midnightblue" points="611.005,-84.6682 621.426,-82.754 612.086,-77.7521 611.005,-84.6682"/>
</g>
<!-- Node22 -->
<g id="node8" class="node"><title>Node22</title>
<g id="a_node8"><a xlink:href="utoa__invert_8cpp.html#a34926f552460b47c414ec4d83b32815c" target="_top" xlink:title=" ">
<polygon fill="white" stroke="black" points="621.04,-39 621.04,-59 690.96,-59 690.96,-39 621.04,-39"/>
<text text-anchor="middle" x="656" y="-45" font-family="Helvetica,sans-Serif" font-size="10.00">ulltoa_invert</text>
</a>
</g>
</g>
<!-- Node18&#45;&gt;Node22 -->
<g id="edge7" class="edge"><title>Node18&#45;&gt;Node22</title>
<path fill="none" stroke="midnightblue" d="M560.296,-63.0576C575.755,-60.763 594.345,-58.0035 610.946,-55.5393"/>
<polygon fill="midnightblue" stroke="midnightblue" points="611.602,-58.9804 620.979,-54.0499 610.574,-52.0562 611.602,-58.9804"/>
</g>
<!-- Node23 -->
<g id="node9" class="node"><title>Node23</title>
<g id="a_node9"><a xlink:href="utoa__invert_8cpp.html#a5d99bba8e697c1e11da489d88fca8559" target="_top" xlink:title=" ">
<polygon fill="white" stroke="black" points="622.15,-0 622.15,-20 689.85,-20 689.85,-0 622.15,-0"/>
<text text-anchor="middle" x="656" y="-6" font-family="Helvetica,sans-Serif" font-size="10.00">ultoa_invert</text>
</a>
</g>
</g>
<!-- Node18&#45;&gt;Node23 -->
<g id="edge9" class="edge"><title>Node18&#45;&gt;Node23</title>
<path fill="none" stroke="midnightblue" d="M543.314,-57.9407C557.039,-49.7425 577.354,-38.2178 596,-30 601.326,-27.6528 607.02,-25.4086 612.691,-23.3279"/>
<polygon fill="midnightblue" stroke="midnightblue" points="613.881,-26.6196 622.147,-19.9913 611.552,-20.0185 613.881,-26.6196"/>
</g>
<!-- Node21 -->
<g id="node7" class="node"><title>Node21</title>
<g id="a_node7"><a xlink:href="lstrlib_8c.html#a9605f4d16ae762782f8be8b54aef0a22" target="_top" xlink:title=" ">
<polygon fill="white" stroke="black" points="751.828,-39 751.828,-59 786.172,-59 786.172,-39 751.828,-39"/>
<text text-anchor="middle" x="769" y="-45" font-family="Helvetica,sans-Serif" font-size="10.00">digit</text>
</a>
</g>
</g>
<!-- Node20&#45;&gt;Node21 -->
<g id="edge6" class="edge"><title>Node20&#45;&gt;Node21</title>
<path fill="none" stroke="midnightblue" d="M687.062,-77.9615C696.355,-74.8174 706.615,-71.3049 716,-68 724.508,-65.0042 733.766,-61.6515 742.081,-58.6063"/>
<polygon fill="midnightblue" stroke="midnightblue" points="743.465,-61.8264 751.641,-55.0888 741.048,-55.2569 743.465,-61.8264"/>
</g>
<!-- Node22&#45;&gt;Node21 -->
<g id="edge8" class="edge"><title>Node22&#45;&gt;Node21</title>
<path fill="none" stroke="midnightblue" d="M691.209,-49C707.407,-49 726.457,-49 741.53,-49"/>
<polygon fill="midnightblue" stroke="midnightblue" points="741.705,-52.5001 751.705,-49 741.705,-45.5001 741.705,-52.5001"/>
</g>
<!-- Node23&#45;&gt;Node21 -->
<g id="edge10" class="edge"><title>Node23&#45;&gt;Node21</title>
<path fill="none" stroke="midnightblue" d="M687.062,-20.0385C696.355,-23.1826 706.615,-26.6951 716,-30 724.508,-32.9958 733.766,-36.3485 742.081,-39.3937"/>
<polygon fill="midnightblue" stroke="midnightblue" points="741.048,-42.7431 751.641,-42.9112 743.465,-36.1736 741.048,-42.7431"/>
</g>
</g>
</svg>
