<?xml version="1.0" encoding="UTF-8" standalone="no"?>
<!DOCTYPE svg PUBLIC "-//W3C//DTD SVG 1.1//EN"
 "http://www.w3.org/Graphics/SVG/1.1/DTD/svg11.dtd">
<!-- Generated by graphviz version 2.30.1 (20130221.2233)
 -->
<!-- Title: Linux::VideoIn::put_frame Pages: 1 -->
<svg width="564pt" height="40pt"
 viewBox="0.00 0.00 564.00 40.00" xmlns="http://www.w3.org/2000/svg" xmlns:xlink="http://www.w3.org/1999/xlink">
<g id="graph0" class="graph" transform="scale(1 1) rotate(0) translate(4 36)">
<title>Linux::VideoIn::put_frame</title>
<polygon fill="white" stroke="white" points="-4,5 -4,-36 561,-36 561,5 -4,5"/>
<!-- Node145 -->
<g id="node1" class="node"><title>Node145</title>
<g id="a_node1"><a xlink:title=" ">
<polygon fill="#bfbfbf" stroke="black" points="456.669,-0 456.669,-32 555.331,-32 555.331,-0 456.669,-0"/>
<text text-anchor="start" x="464.669" y="-18" font-family="Helvetica,sans-Serif" font-size="10.00">Linux::VideoIn::put</text>
<text text-anchor="middle" x="506" y="-6" font-family="Helvetica,sans-Serif" font-size="10.00">_frame</text>
</a>
</g>
</g>
<!-- Node146 -->
<g id="node2" class="node"><title>Node146</title>
<g id="a_node2"><a xlink:href="classLinux_1_1OpticalFlow__Onboard.html#aff46a025f23d664c1cdf67d3c7f3d49a" target="_top" xlink:title=" ">
<polygon fill="white" stroke="black" points="296.353,-0 296.353,-32 419.647,-32 419.647,-0 296.353,-0"/>
<text text-anchor="start" x="304.353" y="-18" font-family="Helvetica,sans-Serif" font-size="10.00">Linux::OpticalFlow</text>
<text text-anchor="middle" x="358" y="-6" font-family="Helvetica,sans-Serif" font-size="10.00">_Onboard::_run_optflow</text>
</a>
</g>
</g>
<!-- Node145&#45;&gt;Node146 -->
<g id="edge1" class="edge"><title>Node145&#45;&gt;Node146</title>
<path fill="none" stroke="midnightblue" d="M446.323,-16C437.615,-16 428.623,-16 419.871,-16"/>
<polygon fill="midnightblue" stroke="midnightblue" points="446.384,-19.5001 456.384,-16 446.384,-12.5001 446.384,-19.5001"/>
</g>
<!-- Node147 -->
<g id="node3" class="node"><title>Node147</title>
<g id="a_node3"><a xlink:href="classLinux_1_1OpticalFlow__Onboard.html#a2cf8901eba7c113402917f527aec8b0b" target="_top" xlink:title=" ">
<polygon fill="white" stroke="black" points="134.237,-0 134.237,-32 259.763,-32 259.763,-0 134.237,-0"/>
<text text-anchor="start" x="142.237" y="-18" font-family="Helvetica,sans-Serif" font-size="10.00">Linux::OpticalFlow</text>
<text text-anchor="middle" x="197" y="-6" font-family="Helvetica,sans-Serif" font-size="10.00">_Onboard::_read_thread</text>
</a>
</g>
</g>
<!-- Node146&#45;&gt;Node147 -->
<g id="edge2" class="edge"><title>Node146&#45;&gt;Node147</title>
<path fill="none" stroke="midnightblue" d="M285.894,-16C277.227,-16 268.425,-16 259.907,-16"/>
<polygon fill="midnightblue" stroke="midnightblue" points="285.981,-19.5001 295.981,-16 285.981,-12.5001 285.981,-19.5001"/>
</g>
<!-- Node148 -->
<g id="node4" class="node"><title>Node148</title>
<g id="a_node4"><a xlink:href="classLinux_1_1OpticalFlow__Onboard.html#ad2533ed83311a68c8201436f70c64713" target="_top" xlink:title=" ">
<polygon fill="white" stroke="black" points="0.150391,-0 0.150391,-32 97.8496,-32 97.8496,-0 0.150391,-0"/>
<text text-anchor="start" x="8.15039" y="-18" font-family="Helvetica,sans-Serif" font-size="10.00">Linux::OpticalFlow</text>
<text text-anchor="middle" x="49" y="-6" font-family="Helvetica,sans-Serif" font-size="10.00">_Onboard::init</text>
</a>
</g>
</g>
<!-- Node147&#45;&gt;Node148 -->
<g id="edge3" class="edge"><title>Node147&#45;&gt;Node148</title>
<path fill="none" stroke="midnightblue" d="M123.917,-16C115.226,-16 106.517,-16 98.2833,-16"/>
<polygon fill="midnightblue" stroke="midnightblue" points="124.083,-19.5001 134.083,-16 124.083,-12.5001 124.083,-19.5001"/>
</g>
</g>
</svg>
