<?xml version="1.0" encoding="UTF-8" standalone="no"?>
<!DOCTYPE svg PUBLIC "-//W3C//DTD SVG 1.1//EN"
 "http://www.w3.org/Graphics/SVG/1.1/DTD/svg11.dtd">
<!-- Generated by graphviz version 2.30.1 (20130221.2233)
 -->
<!-- Title: AP_AHRS_NavEKF::get_relative_position_D_origin Pages: 1 -->
<svg width="466pt" height="79pt"
 viewBox="0.00 0.00 466.00 79.00" xmlns="http://www.w3.org/2000/svg" xmlns:xlink="http://www.w3.org/1999/xlink">
<g id="graph0" class="graph" transform="scale(1 1) rotate(0) translate(4 75)">
<title>AP_AHRS_NavEKF::get_relative_position_D_origin</title>
<polygon fill="white" stroke="white" points="-4,5 -4,-75 463,-75 463,5 -4,5"/>
<!-- Node1511 -->
<g id="node1" class="node"><title>Node1511</title>
<g id="a_node1"><a xlink:title=" ">
<polygon fill="#bfbfbf" stroke="black" points="332.532,-10 332.532,-54 457.468,-54 457.468,-10 332.532,-10"/>
<text text-anchor="start" x="340.532" y="-40" font-family="Helvetica,sans-Serif" font-size="10.00">AP_AHRS_NavEKF::get</text>
<text text-anchor="start" x="340.532" y="-28" font-family="Helvetica,sans-Serif" font-size="10.00">_relative_position_D</text>
<text text-anchor="middle" x="395" y="-16" font-family="Helvetica,sans-Serif" font-size="10.00">_origin</text>
</a>
</g>
</g>
<!-- Node1512 -->
<g id="node2" class="node"><title>Node1512</title>
<g id="a_node2"><a xlink:href="classAP__AHRS__NavEKF.html#acf8913fdd3d47c9b2cfcdda9d4e27268" target="_top" xlink:title=" ">
<polygon fill="white" stroke="black" points="158.407,-39 158.407,-71 295.593,-71 295.593,-39 158.407,-39"/>
<text text-anchor="start" x="166.407" y="-57" font-family="Helvetica,sans-Serif" font-size="10.00">AP_AHRS_NavEKF::get</text>
<text text-anchor="middle" x="227" y="-45" font-family="Helvetica,sans-Serif" font-size="10.00">_relative_position_D_home</text>
</a>
</g>
</g>
<!-- Node1511&#45;&gt;Node1512 -->
<g id="edge1" class="edge"><title>Node1511&#45;&gt;Node1512</title>
<path fill="none" stroke="midnightblue" d="M322.031,-41.9716C313.293,-43.1823 304.39,-44.4159 295.717,-45.6175"/>
<polygon fill="midnightblue" stroke="midnightblue" points="322.763,-45.4037 332.188,-40.5644 321.802,-38.47 322.763,-45.4037"/>
</g>
<!-- Node1514 -->
<g id="node4" class="node"><title>Node1514</title>
<g id="a_node4"><a xlink:href="classAP__Logger.html#a419829e32e08996981e1b0965efcb4eb" target="_top" xlink:title=" ">
<polygon fill="white" stroke="black" points="0.285156,-0 0.285156,-20 121.715,-20 121.715,-0 0.285156,-0"/>
<text text-anchor="middle" x="61" y="-6" font-family="Helvetica,sans-Serif" font-size="10.00">AP_Logger::Write_POS</text>
</a>
</g>
</g>
<!-- Node1511&#45;&gt;Node1514 -->
<g id="edge4" class="edge"><title>Node1511&#45;&gt;Node1514</title>
<path fill="none" stroke="midnightblue" d="M322.206,-27.2426C262.394,-23.2791 178.19,-17.6994 121.94,-13.9719"/>
<polygon fill="midnightblue" stroke="midnightblue" points="322.122,-30.7446 332.331,-27.9135 322.585,-23.7599 322.122,-30.7446"/>
</g>
<!-- Node1513 -->
<g id="node3" class="node"><title>Node1513</title>
<g id="a_node3"><a xlink:href="classAP__OSD__Screen.html#a86e00c5f43dc77e161b1bb8572beab26" target="_top" xlink:title=" ">
<polygon fill="white" stroke="black" points="0.475586,-39 0.475586,-71 121.524,-71 121.524,-39 0.475586,-39"/>
<text text-anchor="start" x="8.47559" y="-57" font-family="Helvetica,sans-Serif" font-size="10.00">AP_OSD_Screen::draw</text>
<text text-anchor="middle" x="61" y="-45" font-family="Helvetica,sans-Serif" font-size="10.00">_altitude</text>
</a>
</g>
</g>
<!-- Node1512&#45;&gt;Node1513 -->
<g id="edge2" class="edge"><title>Node1512&#45;&gt;Node1513</title>
<path fill="none" stroke="midnightblue" d="M148.285,-55C139.326,-55 130.298,-55 121.632,-55"/>
<polygon fill="midnightblue" stroke="midnightblue" points="148.348,-58.5001 158.348,-55 148.348,-51.5001 148.348,-58.5001"/>
</g>
<!-- Node1512&#45;&gt;Node1514 -->
<g id="edge3" class="edge"><title>Node1512&#45;&gt;Node1514</title>
<path fill="none" stroke="midnightblue" d="M157.506,-36.206C137.42,-30.6945 116.222,-24.878 98.9134,-20.1287"/>
<polygon fill="midnightblue" stroke="midnightblue" points="156.686,-39.6101 167.255,-38.8811 158.538,-32.8597 156.686,-39.6101"/>
</g>
</g>
</svg>
