<?xml version="1.0" encoding="UTF-8" standalone="no"?>
<!DOCTYPE svg PUBLIC "-//W3C//DTD SVG 1.1//EN"
 "http://www.w3.org/Graphics/SVG/1.1/DTD/svg11.dtd">
<!-- Generated by graphviz version 2.30.1 (20130221.2233)
 -->
<!-- Title: AP_Mount::set_mode_to_default Pages: 1 -->
<svg width="268pt" height="52pt"
 viewBox="0.00 0.00 268.00 52.00" xmlns="http://www.w3.org/2000/svg" xmlns:xlink="http://www.w3.org/1999/xlink">
<g id="graph0" class="graph" transform="scale(1 1) rotate(0) translate(4 48)">
<title>AP_Mount::set_mode_to_default</title>
<polygon fill="white" stroke="white" points="-4,5 -4,-48 265,-48 265,5 -4,5"/>
<!-- Node255 -->
<g id="node1" class="node"><title>Node255</title>
<g id="a_node1"><a xlink:title=" ">
<polygon fill="#bfbfbf" stroke="black" points="-0.0834961,-0 -0.0834961,-32 112.083,-32 112.083,-0 -0.0834961,-0"/>
<text text-anchor="start" x="7.9165" y="-18" font-family="Helvetica,sans-Serif" font-size="10.00">AP_Mount::set_mode</text>
<text text-anchor="middle" x="56" y="-6" font-family="Helvetica,sans-Serif" font-size="10.00">_to_default</text>
</a>
</g>
</g>
<!-- Node256 -->
<g id="node2" class="node"><title>Node256</title>
<g id="a_node2"><a xlink:href="classAP__Mount.html#a4510126670698c1b0b2d2066049ac28e" target="_top" xlink:title=" ">
<polygon fill="white" stroke="black" points="147.917,-6 147.917,-26 260.083,-26 260.083,-6 147.917,-6"/>
<text text-anchor="middle" x="204" y="-12" font-family="Helvetica,sans-Serif" font-size="10.00">AP_Mount::set_mode</text>
</a>
</g>
</g>
<!-- Node255&#45;&gt;Node256 -->
<g id="edge1" class="edge"><title>Node255&#45;&gt;Node256</title>
<path fill="none" stroke="midnightblue" d="M112.196,-16C120.463,-16 129.055,-16 137.51,-16"/>
<polygon fill="midnightblue" stroke="midnightblue" points="137.726,-19.5001 147.726,-16 137.726,-12.5001 137.726,-19.5001"/>
</g>
<!-- Node256&#45;&gt;Node256 -->
<g id="edge2" class="edge"><title>Node256&#45;&gt;Node256</title>
<path fill="none" stroke="midnightblue" d="M180.83,-26.0477C170.261,-34.7715 177.984,-44 204,-44 220.666,-44 229.825,-40.2126 231.477,-35.1968"/>
<polygon fill="midnightblue" stroke="midnightblue" points="234.596,-33.6044 227.17,-26.0477 228.263,-36.586 234.596,-33.6044"/>
</g>
</g>
</svg>
