<?xml version="1.0" encoding="UTF-8" standalone="no"?>
<!DOCTYPE svg PUBLIC "-//W3C//DTD SVG 1.1//EN"
 "http://www.w3.org/Graphics/SVG/1.1/DTD/svg11.dtd">
<!-- Generated by graphviz version 2.30.1 (20130221.2233)
 -->
<!-- Title: TestPeriodicThread1::_task Pages: 1 -->
<svg width="266pt" height="40pt"
 viewBox="0.00 0.00 266.00 40.00" xmlns="http://www.w3.org/2000/svg" xmlns:xlink="http://www.w3.org/1999/xlink">
<g id="graph0" class="graph" transform="scale(1 1) rotate(0) translate(4 36)">
<title>TestPeriodicThread1::_task</title>
<polygon fill="white" stroke="white" points="-4,5 -4,-36 263,-36 263,5 -4,5"/>
<!-- Node4 -->
<g id="node1" class="node"><title>Node4</title>
<g id="a_node1"><a xlink:title=" ">
<polygon fill="#bfbfbf" stroke="black" points="150.143,-0 150.143,-32 257.857,-32 257.857,-0 150.143,-0"/>
<text text-anchor="start" x="158.143" y="-18" font-family="Helvetica,sans-Serif" font-size="10.00">TestPeriodicThread1</text>
<text text-anchor="middle" x="204" y="-6" font-family="Helvetica,sans-Serif" font-size="10.00">::_task</text>
</a>
</g>
</g>
<!-- Node5 -->
<g id="node2" class="node"><title>Node5</title>
<g id="a_node2"><a xlink:href="classTestPeriodicThread1.html#aa92216efbd5f7e5c64e96c880644abba" target="_top" xlink:title=" ">
<polygon fill="white" stroke="black" points="0.364746,-0 0.364746,-32 113.635,-32 113.635,-0 0.364746,-0"/>
<text text-anchor="start" x="8.36475" y="-18" font-family="Helvetica,sans-Serif" font-size="10.00">TestPeriodicThread1</text>
<text text-anchor="middle" x="57" y="-6" font-family="Helvetica,sans-Serif" font-size="10.00">::TestPeriodicThread1</text>
</a>
</g>
</g>
<!-- Node4&#45;&gt;Node5 -->
<g id="edge1" class="edge"><title>Node4&#45;&gt;Node5</title>
<path fill="none" stroke="midnightblue" d="M139.59,-16C131.099,-16 122.44,-16 114.087,-16"/>
<polygon fill="midnightblue" stroke="midnightblue" points="139.831,-19.5001 149.831,-16 139.831,-12.5001 139.831,-19.5001"/>
</g>
</g>
</svg>
