<?xml version="1.0" encoding="UTF-8" standalone="no"?>
<!DOCTYPE svg PUBLIC "-//W3C//DTD SVG 1.1//EN"
 "http://www.w3.org/Graphics/SVG/1.1/DTD/svg11.dtd">
<!-- Generated by graphviz version 2.30.1 (20130221.2233)
 -->
<!-- Title: AC_AutoTune::pitch_enabled Pages: 1 -->
<!--zoomable 259 -->
<svg id="main" version="1.1" xmlns="http://www.w3.org/2000/svg" xmlns:xlink="http://www.w3.org/1999/xlink" xml:space="preserve" onload="init(evt)">
<style type="text/css"><![CDATA[
.edge:hover path { stroke: red; }
.edge:hover polygon { stroke: red; fill: red; }
]]></style>
<script type="text/javascript"><![CDATA[
var edges = document.getElementsByTagName('g');
if (edges && edges.length) {
  for (var i=0;i<edges.length;i++) {
    if (edges[i].id.substr(0,4)=='edge') {
      edges[i].setAttribute('class','edge');
    }
  }
}
]]></script>
        <defs>
                <circle id="rim" cx="0" cy="0" r="7"/>
                <circle id="rim2" cx="0" cy="0" r="3.5"/>
                <g id="zoomPlus">
                        <use xlink:href="#rim" fill="#404040">
                                <set attributeName="fill" to="#808080" begin="zoomplus.mouseover" end="zoomplus.mouseout"/>
                        </use>
                        <path d="M-4,0h8M0,-4v8" fill="none" stroke="white" stroke-width="1.5" pointer-events="none"/>
                </g>
                <g id="zoomMin">
                        <use xlink:href="#rim" fill="#404040">
                                <set attributeName="fill" to="#808080" begin="zoomminus.mouseover" end="zoomminus.mouseout"/>
                        </use>
                        <path d="M-4,0h8" fill="none" stroke="white" stroke-width="1.5" pointer-events="none"/>
                </g>
                <g id="dirArrow">
                        <path fill="none" stroke="white" stroke-width="1.5" d="M0,-3.0v7 M-2.5,-0.5L0,-3.0L2.5,-0.5"/>
                </g>
               <g id="resetDef">
                       <use xlink:href="#rim2" fill="#404040">
                               <set attributeName="fill" to="#808080" begin="reset.mouseover" end="reset.mouseout"/>
                       </use>
               </g>
        </defs>

<script type="text/javascript">
var viewWidth = 766;
var viewHeight = 259;
var sectionId = 'dynsection-34';
</script>
<script xlink:href="svgpan.js"/>
<svg id="graph" class="graph">
<g id="viewport">
<title>AC_AutoTune::pitch_enabled</title>
<polygon fill="white" stroke="white" points="-4,5 -4,-255.33 763,-255.33 763,5 -4,5"/>
<!-- Node671 -->
<g id="node1" class="node"><title>Node671</title>
<g id="a_node1"><a xlink:title=" ">
<polygon fill="#bfbfbf" stroke="black" points="652.435,-115 652.435,-147 757.565,-147 757.565,-115 652.435,-115"/>
<text text-anchor="start" x="660.435" y="-133" font-family="Helvetica,sans-Serif" font-size="10.00">AC_AutoTune::pitch</text>
<text text-anchor="middle" x="705" y="-121" font-family="Helvetica,sans-Serif" font-size="10.00">_enabled</text>
</a>
</g>
</g>
<!-- Node672 -->
<g id="node2" class="node"><title>Node672</title>
<g id="a_node2"><a xlink:href="classAC__AutoTune.html#a056a45355b20fe8d605dc38f5c1e1d4b" target="_top" xlink:title=" ">
<polygon fill="white" stroke="black" points="317.873,-211 317.873,-243 434.127,-243 434.127,-211 317.873,-211"/>
<text text-anchor="start" x="325.873" y="-229" font-family="Helvetica,sans-Serif" font-size="10.00">AC_AutoTune::backup</text>
<text text-anchor="middle" x="376" y="-217" font-family="Helvetica,sans-Serif" font-size="10.00">_gains_and_initialise</text>
</a>
</g>
</g>
<!-- Node671&#45;&gt;Node672 -->
<g id="edge1" class="edge"><title>Node671&#45;&gt;Node672</title>
<path fill="none" stroke="midnightblue" d="M690.886,-156.06C676.338,-180.847 650.316,-217.284 616,-233 558.451,-259.356 484.655,-252.182 434.389,-242.074"/>
<polygon fill="midnightblue" stroke="midnightblue" points="694.021,-157.626 695.893,-147.198 687.926,-154.183 694.021,-157.626"/>
</g>
<!-- Node674 -->
<g id="node4" class="node"><title>Node674</title>
<g id="a_node4"><a xlink:href="classAC__AutoTune.html#a7553749cc2b73850fcf4b14a61e384bb" target="_top" xlink:title=" ">
<polygon fill="white" stroke="black" points="146.989,-72 146.989,-104 261.011,-104 261.011,-72 146.989,-72"/>
<text text-anchor="start" x="154.989" y="-90" font-family="Helvetica,sans-Serif" font-size="10.00">AC_AutoTune::control</text>
<text text-anchor="middle" x="204" y="-78" font-family="Helvetica,sans-Serif" font-size="10.00">_attitude</text>
</a>
</g>
</g>
<!-- Node671&#45;&gt;Node674 -->
<g id="edge3" class="edge"><title>Node671&#45;&gt;Node674</title>
<path fill="none" stroke="midnightblue" d="M674.418,-109.056C658.091,-98.3159 636.928,-86.5302 616,-81 492.842,-48.4551 341.612,-64.6983 261.334,-77.5158"/>
<polygon fill="midnightblue" stroke="midnightblue" points="672.722,-112.136 682.958,-114.869 676.661,-106.349 672.722,-112.136"/>
</g>
<!-- Node676 -->
<g id="node6" class="node"><title>Node676</title>
<g id="a_node6"><a xlink:href="classAC__AutoTune.html#a1d62bf0406957b8dec8f2abdd12de069" target="_top" xlink:title=" ">
<polygon fill="white" stroke="black" points="483.036,-192 483.036,-224 610.964,-224 610.964,-192 483.036,-192"/>
<text text-anchor="start" x="491.036" y="-210" font-family="Helvetica,sans-Serif" font-size="10.00">AC_AutoTune::load_intra</text>
<text text-anchor="middle" x="547" y="-198" font-family="Helvetica,sans-Serif" font-size="10.00">_test_gains</text>
</a>
</g>
</g>
<!-- Node671&#45;&gt;Node676 -->
<g id="edge5" class="edge"><title>Node671&#45;&gt;Node676</title>
<path fill="none" stroke="midnightblue" d="M669.799,-152.533C653.784,-162.167 634.251,-173.291 616,-182 608.7,-185.484 600.799,-188.85 593.055,-191.941"/>
<polygon fill="midnightblue" stroke="midnightblue" points="672.065,-155.251 678.786,-147.061 668.424,-149.272 672.065,-155.251"/>
</g>
<!-- Node679 -->
<g id="node9" class="node"><title>Node679</title>
<g id="a_node9"><a xlink:href="classAC__AutoTune.html#acdbd3ba7c694915b2a0483b1246728c5" target="_top" xlink:title=" ">
<polygon fill="white" stroke="black" points="484.425,-141 484.425,-173 609.575,-173 609.575,-141 484.425,-141"/>
<text text-anchor="start" x="492.425" y="-159" font-family="Helvetica,sans-Serif" font-size="10.00">AC_AutoTune::load_orig</text>
<text text-anchor="middle" x="547" y="-147" font-family="Helvetica,sans-Serif" font-size="10.00">_gains</text>
</a>
</g>
</g>
<!-- Node671&#45;&gt;Node679 -->
<g id="edge11" class="edge"><title>Node671&#45;&gt;Node679</title>
<path fill="none" stroke="midnightblue" d="M642.02,-141.33C631.393,-143.101 620.351,-144.941 609.731,-146.712"/>
<polygon fill="midnightblue" stroke="midnightblue" points="642.766,-144.754 652.054,-139.658 641.615,-137.849 642.766,-144.754"/>
</g>
<!-- Node680 -->
<g id="node10" class="node"><title>Node680</title>
<g id="a_node10"><a xlink:href="classAC__AutoTune.html#ac8ca47b34fd1401687310809a802d252" target="_top" xlink:title=" ">
<polygon fill="white" stroke="black" points="480.25,-90 480.25,-122 613.75,-122 613.75,-90 480.25,-90"/>
<text text-anchor="start" x="488.25" y="-108" font-family="Helvetica,sans-Serif" font-size="10.00">AC_AutoTune::load_tuned</text>
<text text-anchor="middle" x="547" y="-96" font-family="Helvetica,sans-Serif" font-size="10.00">_gains</text>
</a>
</g>
</g>
<!-- Node671&#45;&gt;Node680 -->
<g id="edge13" class="edge"><title>Node671&#45;&gt;Node680</title>
<path fill="none" stroke="midnightblue" d="M642.129,-121.085C632.843,-119.597 623.238,-118.057 613.872,-116.556"/>
<polygon fill="midnightblue" stroke="midnightblue" points="641.626,-124.549 652.054,-122.675 642.734,-117.637 641.626,-124.549"/>
</g>
<!-- Node681 -->
<g id="node11" class="node"><title>Node681</title>
<g id="a_node11"><a xlink:href="classAC__AutoTune.html#addd25cb40cb70f6092d9cc4667e2e5e7" target="_top" xlink:title=" ">
<polygon fill="white" stroke="black" points="478.031,-0 478.031,-32 615.969,-32 615.969,-0 478.031,-0"/>
<text text-anchor="start" x="486.031" y="-18" font-family="Helvetica,sans-Serif" font-size="10.00">AC_AutoTune::save_tuning</text>
<text text-anchor="middle" x="547" y="-6" font-family="Helvetica,sans-Serif" font-size="10.00">_gains</text>
</a>
</g>
</g>
<!-- Node671&#45;&gt;Node681 -->
<g id="edge15" class="edge"><title>Node671&#45;&gt;Node681</title>
<path fill="none" stroke="midnightblue" d="M682.957,-106.931C666.165,-88.7719 641.332,-64.1428 616,-47 607.726,-41.4008 598.278,-36.3654 589.11,-32.061"/>
<polygon fill="midnightblue" stroke="midnightblue" points="680.764,-109.722 690.079,-114.769 685.944,-105.014 680.764,-109.722"/>
</g>
<!-- Node673 -->
<g id="node3" class="node"><title>Node673</title>
<g id="a_node3"><a xlink:href="classAC__AutoTune.html#ae1d8a3635f6d6a5b5b0170636fce56ca" target="_top" xlink:title=" ">
<polygon fill="white" stroke="black" points="133.925,-209 133.925,-229 274.075,-229 274.075,-209 133.925,-209"/>
<text text-anchor="middle" x="204" y="-215" font-family="Helvetica,sans-Serif" font-size="10.00">AC_AutoTune::init_internals</text>
</a>
</g>
</g>
<!-- Node672&#45;&gt;Node673 -->
<g id="edge2" class="edge"><title>Node672&#45;&gt;Node673</title>
<path fill="none" stroke="midnightblue" d="M307.2,-223.809C296.364,-223.299 285.138,-222.771 274.268,-222.26"/>
<polygon fill="midnightblue" stroke="midnightblue" points="307.292,-227.318 317.446,-224.292 307.621,-220.325 307.292,-227.318"/>
</g>
<!-- Node675 -->
<g id="node5" class="node"><title>Node675</title>
<g id="a_node5"><a xlink:href="classAC__AutoTune.html#a1a880de557aca3dc882924b746bcf383" target="_top" xlink:title=" ">
<polygon fill="white" stroke="black" points="-0.230469,-120 -0.230469,-140 98.2305,-140 98.2305,-120 -0.230469,-120"/>
<text text-anchor="middle" x="49" y="-126" font-family="Helvetica,sans-Serif" font-size="10.00">AC_AutoTune::run</text>
</a>
</g>
</g>
<!-- Node674&#45;&gt;Node675 -->
<g id="edge4" class="edge"><title>Node674&#45;&gt;Node675</title>
<path fill="none" stroke="midnightblue" d="M136.854,-106.158C119.61,-110.891 101.65,-115.821 86.5683,-119.962"/>
<polygon fill="midnightblue" stroke="midnightblue" points="138.18,-109.423 146.897,-103.401 136.327,-102.673 138.18,-109.423"/>
</g>
<!-- Node677 -->
<g id="node7" class="node"><title>Node677</title>
<g id="a_node7"><a xlink:href="classAC__AutoTune.html#ad4ad5bae7bd4f3f9aa7bd89fe131cd16" target="_top" xlink:title=" ">
<polygon fill="white" stroke="black" points="309.809,-147 309.809,-167 442.191,-167 442.191,-147 309.809,-147"/>
<text text-anchor="middle" x="376" y="-153" font-family="Helvetica,sans-Serif" font-size="10.00">AC_AutoTune::load_gains</text>
</a>
</g>
</g>
<!-- Node676&#45;&gt;Node677 -->
<g id="edge6" class="edge"><title>Node676&#45;&gt;Node677</title>
<path fill="none" stroke="midnightblue" d="M482.862,-188.946C458.191,-181.502 430.921,-173.272 410.238,-167.03"/>
<polygon fill="midnightblue" stroke="midnightblue" points="481.943,-192.325 492.527,-191.863 483.965,-185.623 481.943,-192.325"/>
</g>
<!-- Node677&#45;&gt;Node674 -->
<g id="edge7" class="edge"><title>Node677&#45;&gt;Node674</title>
<path fill="none" stroke="midnightblue" d="M343.068,-142.998C323.267,-134.417 297.257,-123.328 274,-114 265.802,-110.712 257.01,-107.308 248.541,-104.088"/>
<polygon fill="midnightblue" stroke="midnightblue" points="341.683,-146.212 352.25,-146.99 344.474,-139.793 341.683,-146.212"/>
</g>
<!-- Node677&#45;&gt;Node673 -->
<g id="edge8" class="edge"><title>Node677&#45;&gt;Node673</title>
<path fill="none" stroke="midnightblue" d="M337.517,-170.67C305.844,-182.222 261.201,-198.503 232.68,-208.905"/>
<polygon fill="midnightblue" stroke="midnightblue" points="339.113,-173.814 347.308,-167.099 336.714,-167.238 339.113,-173.814"/>
</g>
<!-- Node677&#45;&gt;Node675 -->
<g id="edge9" class="edge"><title>Node677&#45;&gt;Node675</title>
<path fill="none" stroke="midnightblue" d="M299.475,-159.97C251.794,-160.727 189.027,-159.667 134,-152 116.232,-149.524 96.8322,-144.596 81.1567,-140.031"/>
<polygon fill="midnightblue" stroke="midnightblue" points="299.787,-163.465 309.719,-159.776 299.654,-156.466 299.787,-163.465"/>
</g>
<!-- Node678 -->
<g id="node8" class="node"><title>Node678</title>
<g id="a_node8"><a xlink:href="classAC__AutoTune.html#a0ec7b9f08546db23372bf06f93224152" target="_top" xlink:title=" ">
<polygon fill="white" stroke="black" points="152.545,-123 152.545,-143 255.455,-143 255.455,-123 152.545,-123"/>
<text text-anchor="middle" x="204" y="-129" font-family="Helvetica,sans-Serif" font-size="10.00">AC_AutoTune::stop</text>
</a>
</g>
</g>
<!-- Node677&#45;&gt;Node678 -->
<g id="edge10" class="edge"><title>Node677&#45;&gt;Node678</title>
<path fill="none" stroke="midnightblue" d="M299.538,-146.347C284.65,-144.245 269.366,-142.087 255.545,-140.136"/>
<polygon fill="midnightblue" stroke="midnightblue" points="299.369,-149.857 309.76,-147.79 300.347,-142.926 299.369,-149.857"/>
</g>
<!-- Node679&#45;&gt;Node677 -->
<g id="edge12" class="edge"><title>Node679&#45;&gt;Node677</title>
<path fill="none" stroke="midnightblue" d="M473.724,-157C463.309,-157 452.64,-157 442.37,-157"/>
<polygon fill="midnightblue" stroke="midnightblue" points="474.03,-160.5 484.03,-157 474.03,-153.5 474.03,-160.5"/>
</g>
<!-- Node680&#45;&gt;Node677 -->
<g id="edge14" class="edge"><title>Node680&#45;&gt;Node677</title>
<path fill="none" stroke="midnightblue" d="M482.862,-125.054C458.191,-132.498 430.921,-140.728 410.238,-146.97"/>
<polygon fill="midnightblue" stroke="midnightblue" points="483.965,-128.377 492.527,-122.137 481.943,-121.675 483.965,-128.377"/>
</g>
</g>
</svg>
        <g id="navigator" transform="translate(0 0)" fill="#404254">
                <rect fill="#f2f5e9" fill-opacity="0.5" stroke="#606060" stroke-width=".5" x="0" y="0" width="60" height="60"/>
                <use id="zoomplus" xlink:href="#zoomPlus" x="17" y="9" onmousedown="handleZoom(evt,'in')"/>
                <use id="zoomminus" xlink:href="#zoomMin" x="42" y="9" onmousedown="handleZoom(evt,'out')"/>
                <use id="reset" xlink:href="#resetDef" x="30" y="36" onmousedown="handleReset()"/>
                <g id="arrowUp" xlink:href="#dirArrow" transform="translate(30 24)" onmousedown="handlePan(0,-1)">
                  <use xlink:href="#rim" fill="#404040">
                        <set attributeName="fill" to="#808080" begin="arrowUp.mouseover" end="arrowUp.mouseout"/>
                  </use>
                  <path fill="none" stroke="white" stroke-width="1.5" d="M0,-3.0v7 M-2.5,-0.5L0,-3.0L2.5,-0.5"/>
                </g>
                <g id="arrowRight" xlink:href="#dirArrow" transform="rotate(90) translate(36 -43)" onmousedown="handlePan(1,0)">
                  <use xlink:href="#rim" fill="#404040">
                        <set attributeName="fill" to="#808080" begin="arrowRight.mouseover" end="arrowRight.mouseout"/>
                  </use>
                  <path fill="none" stroke="white" stroke-width="1.5" d="M0,-3.0v7 M-2.5,-0.5L0,-3.0L2.5,-0.5"/>
                </g>
                <g id="arrowDown" xlink:href="#dirArrow" transform="rotate(180) translate(-30 -48)" onmousedown="handlePan(0,1)">
                  <use xlink:href="#rim" fill="#404040">
                        <set attributeName="fill" to="#808080" begin="arrowDown.mouseover" end="arrowDown.mouseout"/>
                  </use>
                  <path fill="none" stroke="white" stroke-width="1.5" d="M0,-3.0v7 M-2.5,-0.5L0,-3.0L2.5,-0.5"/>
                </g>
                <g id="arrowLeft" xlink:href="#dirArrow" transform="rotate(270) translate(-36 17)" onmousedown="handlePan(-1,0)">
                  <use xlink:href="#rim" fill="#404040">
                        <set attributeName="fill" to="#808080" begin="arrowLeft.mouseover" end="arrowLeft.mouseout"/>
                  </use>
                  <path fill="none" stroke="white" stroke-width="1.5" d="M0,-3.0v7 M-2.5,-0.5L0,-3.0L2.5,-0.5"/>
                </g>
        </g>
        <svg viewBox="0 0 15 15" width="100%" height="30px" preserveAspectRatio="xMaxYMin meet">
         <g id="arrow_out" transform="scale(0.3 0.3)">
          <a xlink:href="classAC__AutoTune_a1541a4090485baee62be60d6ccbb25a4_icgraph_org.svg" target="_base">
           <rect id="button" ry="5" rx="5" y="6" x="6" height="38" width="38"
                fill="#f2f5e9" fill-opacity="0.5" stroke="#606060" stroke-width="1.0"/>
           <path id="arrow"
             d="M 11.500037,31.436501 C 11.940474,20.09759 22.043105,11.32322 32.158766,21.979434 L 37.068811,17.246167 C 37.068811,17.246167 37.088388,32 37.088388,32 L 22.160133,31.978069 C 22.160133,31.978069 26.997745,27.140456 26.997745,27.140456 C 18.528582,18.264221 13.291696,25.230495 11.500037,31.436501 z"
             style="fill:#404040;"/>
          </a>
         </g>
        </svg>
</svg>
