<?xml version="1.0" encoding="UTF-8" standalone="no"?>
<!DOCTYPE svg PUBLIC "-//W3C//DTD SVG 1.1//EN"
 "http://www.w3.org/Graphics/SVG/1.1/DTD/svg11.dtd">
<!-- Generated by graphviz version 2.30.1 (20130221.2233)
 -->
<!-- Title: AP_SmartRTL::loops_overlap Pages: 1 -->
<svg width="1000pt" height="91pt"
 viewBox="0.00 0.00 1000.00 91.00" xmlns="http://www.w3.org/2000/svg" xmlns:xlink="http://www.w3.org/1999/xlink">
<g id="graph0" class="graph" transform="scale(1 1) rotate(0) translate(4 87)">
<title>AP_SmartRTL::loops_overlap</title>
<polygon fill="white" stroke="white" points="-4,5 -4,-87 997,-87 997,5 -4,5"/>
<!-- Node235 -->
<g id="node1" class="node"><title>Node235</title>
<g id="a_node1"><a xlink:title=" ">
<polygon fill="#bfbfbf" stroke="black" points="882.125,-25 882.125,-57 991.875,-57 991.875,-25 882.125,-25"/>
<text text-anchor="start" x="890.125" y="-43" font-family="Helvetica,sans-Serif" font-size="10.00">AP_SmartRTL::loops</text>
<text text-anchor="middle" x="937" y="-31" font-family="Helvetica,sans-Serif" font-size="10.00">_overlap</text>
</a>
</g>
</g>
<!-- Node236 -->
<g id="node2" class="node"><title>Node236</title>
<g id="a_node2"><a xlink:href="classAP__SmartRTL.html#aec2fd91f6543bd3471057f5c8c5dc576" target="_top" xlink:title=" ">
<polygon fill="white" stroke="black" points="718.502,-31 718.502,-51 845.498,-51 845.498,-31 718.502,-31"/>
<text text-anchor="middle" x="782" y="-37" font-family="Helvetica,sans-Serif" font-size="10.00">AP_SmartRTL::add_loop</text>
</a>
</g>
</g>
<!-- Node235&#45;&gt;Node236 -->
<g id="edge1" class="edge"><title>Node235&#45;&gt;Node236</title>
<path fill="none" stroke="midnightblue" d="M871.955,-41C863.238,-41 854.299,-41 845.608,-41"/>
<polygon fill="midnightblue" stroke="midnightblue" points="872.058,-44.5001 882.058,-41 872.058,-37.5001 872.058,-44.5001"/>
</g>
<!-- Node237 -->
<g id="node3" class="node"><title>Node237</title>
<g id="a_node3"><a xlink:href="classAP__SmartRTL.html#a0b220315fb2022277d3045a2d849d573" target="_top" xlink:title=" ">
<polygon fill="white" stroke="black" points="568.458,-25 568.458,-57 681.542,-57 681.542,-25 568.458,-25"/>
<text text-anchor="start" x="576.458" y="-43" font-family="Helvetica,sans-Serif" font-size="10.00">AP_SmartRTL::detect</text>
<text text-anchor="middle" x="625" y="-31" font-family="Helvetica,sans-Serif" font-size="10.00">_loops</text>
</a>
</g>
</g>
<!-- Node236&#45;&gt;Node237 -->
<g id="edge2" class="edge"><title>Node236&#45;&gt;Node237</title>
<path fill="none" stroke="midnightblue" d="M708.39,-41C699.467,-41 690.457,-41 681.835,-41"/>
<polygon fill="midnightblue" stroke="midnightblue" points="708.402,-44.5001 718.402,-41 708.402,-37.5001 708.402,-44.5001"/>
</g>
<!-- Node238 -->
<g id="node4" class="node"><title>Node238</title>
<g id="a_node4"><a xlink:href="classAP__SmartRTL.html#ab6404e81f2f4319387d9566d6d379cfb" target="_top" xlink:title=" ">
<polygon fill="white" stroke="black" points="410.79,-51 410.79,-83 527.21,-83 527.21,-51 410.79,-51"/>
<text text-anchor="start" x="418.79" y="-69" font-family="Helvetica,sans-Serif" font-size="10.00">AP_SmartRTL::routine</text>
<text text-anchor="middle" x="469" y="-57" font-family="Helvetica,sans-Serif" font-size="10.00">_cleanup</text>
</a>
</g>
</g>
<!-- Node237&#45;&gt;Node238 -->
<g id="edge3" class="edge"><title>Node237&#45;&gt;Node238</title>
<path fill="none" stroke="midnightblue" d="M558.24,-52.1023C547.958,-53.8382 537.404,-55.6202 527.33,-57.3209"/>
<polygon fill="midnightblue" stroke="midnightblue" points="559.125,-55.5026 568.402,-50.3866 557.959,-48.6003 559.125,-55.5026"/>
</g>
<!-- Node243 -->
<g id="node9" class="node"><title>Node243</title>
<g id="a_node9"><a xlink:href="classAP__SmartRTL.html#a9bf12019b2e68d7dd4dd91d796065879" target="_top" xlink:title=" ">
<polygon fill="white" stroke="black" points="406.339,-0 406.339,-32 531.661,-32 531.661,-0 406.339,-0"/>
<text text-anchor="start" x="414.339" y="-18" font-family="Helvetica,sans-Serif" font-size="10.00">AP_SmartRTL::thorough</text>
<text text-anchor="middle" x="469" y="-6" font-family="Helvetica,sans-Serif" font-size="10.00">_cleanup</text>
</a>
</g>
</g>
<!-- Node237&#45;&gt;Node243 -->
<g id="edge8" class="edge"><title>Node237&#45;&gt;Node243</title>
<path fill="none" stroke="midnightblue" d="M558.509,-30.3684C549.646,-28.9295 540.574,-27.4568 531.778,-26.0289"/>
<polygon fill="midnightblue" stroke="midnightblue" points="557.971,-33.8267 568.402,-31.9744 559.093,-26.9172 557.971,-33.8267"/>
</g>
<!-- Node239 -->
<g id="node5" class="node"><title>Node239</title>
<g id="a_node5"><a xlink:href="classAP__SmartRTL.html#a59993dfd6863e68ca3775537d8cff85a" target="_top" xlink:title=" ">
<polygon fill="white" stroke="black" points="211.94,-25 211.94,-57 370.06,-57 370.06,-25 211.94,-25"/>
<text text-anchor="start" x="219.94" y="-43" font-family="Helvetica,sans-Serif" font-size="10.00">AP_SmartRTL::run_background</text>
<text text-anchor="middle" x="291" y="-31" font-family="Helvetica,sans-Serif" font-size="10.00">_cleanup</text>
</a>
</g>
</g>
<!-- Node238&#45;&gt;Node239 -->
<g id="edge4" class="edge"><title>Node238&#45;&gt;Node239</title>
<path fill="none" stroke="midnightblue" d="M400.272,-56.9948C390.436,-55.5417 380.243,-54.0359 370.221,-52.5554"/>
<polygon fill="midnightblue" stroke="midnightblue" points="399.967,-60.4876 410.371,-58.4866 400.99,-53.5627 399.967,-60.4876"/>
</g>
<!-- Node240 -->
<g id="node6" class="node"><title>Node240</title>
<g id="a_node6"><a xlink:href="classAP__SmartRTL.html#a15b1b58eee885789ec3b88def4363995" target="_top" xlink:title=" ">
<polygon fill="white" stroke="black" points="76.6865,-51 76.6865,-71 175.313,-71 175.313,-51 76.6865,-51"/>
<text text-anchor="middle" x="126" y="-57" font-family="Helvetica,sans-Serif" font-size="10.00">AP_SmartRTL::init</text>
</a>
</g>
</g>
<!-- Node239&#45;&gt;Node240 -->
<g id="edge5" class="edge"><title>Node239&#45;&gt;Node240</title>
<path fill="none" stroke="midnightblue" d="M201.655,-51.8399C192.653,-52.9444 183.764,-54.0351 175.43,-55.0577"/>
<polygon fill="midnightblue" stroke="midnightblue" points="202.343,-55.2818 211.842,-50.5899 201.49,-48.3339 202.343,-55.2818"/>
</g>
<!-- Node242 -->
<g id="node8" class="node"><title>Node242</title>
<g id="a_node8"><a xlink:href="SmartRTL__test_8cpp.html#afe461d27b9c48d5921c00d521181f12f" target="_top" xlink:title=" ">
<polygon fill="white" stroke="black" points="108.547,-12 108.547,-32 143.453,-32 143.453,-12 108.547,-12"/>
<text text-anchor="middle" x="126" y="-18" font-family="Helvetica,sans-Serif" font-size="10.00">loop</text>
</a>
</g>
</g>
<!-- Node239&#45;&gt;Node242 -->
<g id="edge7" class="edge"><title>Node239&#45;&gt;Node242</title>
<path fill="none" stroke="midnightblue" d="M201.62,-30.6981C179.426,-28.111 157.918,-25.6039 143.741,-23.9514"/>
<polygon fill="midnightblue" stroke="midnightblue" points="201.504,-34.2081 211.842,-31.8896 202.314,-27.2552 201.504,-34.2081"/>
</g>
<!-- Node241 -->
<g id="node7" class="node"><title>Node241</title>
<g id="a_node7"><a xlink:href="SmartRTL__test_8cpp.html#a4fc01d736fe50cf5b977f755b675f11d" target="_top" xlink:title=" ">
<polygon fill="white" stroke="black" points="-0.231445,-51 -0.231445,-71 40.2314,-71 40.2314,-51 -0.231445,-51"/>
<text text-anchor="middle" x="20" y="-57" font-family="Helvetica,sans-Serif" font-size="10.00">setup</text>
</a>
</g>
</g>
<!-- Node240&#45;&gt;Node241 -->
<g id="edge6" class="edge"><title>Node240&#45;&gt;Node241</title>
<path fill="none" stroke="midnightblue" d="M66.4201,-61C57.0398,-61 47.9499,-61 40.3977,-61"/>
<polygon fill="midnightblue" stroke="midnightblue" points="66.6536,-64.5001 76.6536,-61 66.6535,-57.5001 66.6536,-64.5001"/>
</g>
<!-- Node243&#45;&gt;Node239 -->
<g id="edge9" class="edge"><title>Node243&#45;&gt;Node239</title>
<path fill="none" stroke="midnightblue" d="M396.043,-26.2212C387.506,-27.4338 378.76,-28.6761 370.142,-29.9003"/>
<polygon fill="midnightblue" stroke="midnightblue" points="396.541,-29.6857 405.949,-24.8141 395.556,-22.7553 396.541,-29.6857"/>
</g>
</g>
</svg>
