<?xml version="1.0" encoding="UTF-8" standalone="no"?>
<!DOCTYPE svg PUBLIC "-//W3C//DTD SVG 1.1//EN"
 "http://www.w3.org/Graphics/SVG/1.1/DTD/svg11.dtd">
<!-- Generated by graphviz version 2.30.1 (20130221.2233)
 -->
<!-- Title: AP_InertialSensor_BMI160::_configure_int1_pin Pages: 1 -->
<!--zoomable 275 -->
<svg id="main" version="1.1" xmlns="http://www.w3.org/2000/svg" xmlns:xlink="http://www.w3.org/1999/xlink" xml:space="preserve" onload="init(evt)">
<style type="text/css"><![CDATA[
.edge:hover path { stroke: red; }
.edge:hover polygon { stroke: red; fill: red; }
]]></style>
<script type="text/javascript"><![CDATA[
var edges = document.getElementsByTagName('g');
if (edges && edges.length) {
  for (var i=0;i<edges.length;i++) {
    if (edges[i].id.substr(0,4)=='edge') {
      edges[i].setAttribute('class','edge');
    }
  }
}
]]></script>
        <defs>
                <circle id="rim" cx="0" cy="0" r="7"/>
                <circle id="rim2" cx="0" cy="0" r="3.5"/>
                <g id="zoomPlus">
                        <use xlink:href="#rim" fill="#404040">
                                <set attributeName="fill" to="#808080" begin="zoomplus.mouseover" end="zoomplus.mouseout"/>
                        </use>
                        <path d="M-4,0h8M0,-4v8" fill="none" stroke="white" stroke-width="1.5" pointer-events="none"/>
                </g>
                <g id="zoomMin">
                        <use xlink:href="#rim" fill="#404040">
                                <set attributeName="fill" to="#808080" begin="zoomminus.mouseover" end="zoomminus.mouseout"/>
                        </use>
                        <path d="M-4,0h8" fill="none" stroke="white" stroke-width="1.5" pointer-events="none"/>
                </g>
                <g id="dirArrow">
                        <path fill="none" stroke="white" stroke-width="1.5" d="M0,-3.0v7 M-2.5,-0.5L0,-3.0L2.5,-0.5"/>
                </g>
               <g id="resetDef">
                       <use xlink:href="#rim2" fill="#404040">
                               <set attributeName="fill" to="#808080" begin="reset.mouseover" end="reset.mouseout"/>
                       </use>
               </g>
        </defs>

<script type="text/javascript">
var viewWidth = 804;
var viewHeight = 275;
var sectionId = 'dynsection-11';
</script>
<script xlink:href="svgpan.js"/>
<svg id="graph" class="graph">
<g id="viewport">
<title>AP_InertialSensor_BMI160::_configure_int1_pin</title>
<polygon fill="white" stroke="white" points="-4,5 -4,-271 801,-271 801,5 -4,5"/>
<!-- Node72 -->
<g id="node1" class="node"><title>Node72</title>
<g id="a_node1"><a xlink:title=" ">
<polygon fill="#bfbfbf" stroke="black" points="0.6875,-91 0.6875,-123 137.312,-123 137.312,-91 0.6875,-91"/>
<text text-anchor="start" x="8.6875" y="-109" font-family="Helvetica,sans-Serif" font-size="10.00">AP_InertialSensor_BMI160</text>
<text text-anchor="middle" x="69" y="-97" font-family="Helvetica,sans-Serif" font-size="10.00">::_configure_int1_pin</text>
</a>
</g>
</g>
<!-- Node73 -->
<g id="node2" class="node"><title>Node73</title>
<g id="a_node2"><a xlink:href="classAP__HAL_1_1Device.html#a450d2427d58c09d75c8268f8b808c37b" target="_top" xlink:title=" ">
<polygon fill="white" stroke="black" points="178.426,-193 178.426,-225 295.574,-225 295.574,-193 178.426,-193"/>
<text text-anchor="start" x="186.426" y="-211" font-family="Helvetica,sans-Serif" font-size="10.00">AP_HAL::Device::write</text>
<text text-anchor="middle" x="237" y="-199" font-family="Helvetica,sans-Serif" font-size="10.00">_register</text>
</a>
</g>
</g>
<!-- Node72&#45;&gt;Node73 -->
<g id="edge1" class="edge"><title>Node72&#45;&gt;Node73</title>
<path fill="none" stroke="midnightblue" d="M89.0091,-123.01C109.187,-139.483 142.455,-165.186 174,-183 177.446,-184.946 181.067,-186.833 184.756,-188.642"/>
<polygon fill="midnightblue" stroke="midnightblue" points="183.463,-191.901 194.004,-192.967 186.429,-185.56 183.463,-191.901"/>
</g>
<!-- Node77 -->
<g id="node6" class="node"><title>Node77</title>
<g id="a_node6"><a xlink:href="classAP__HAL_1_1BetterStream.html#a8534aa004599bb81ad60f3e762791032" target="_top" xlink:title=" ">
<polygon fill="white" stroke="black" points="177.589,-142 177.589,-174 296.411,-174 296.411,-142 177.589,-142"/>
<text text-anchor="start" x="185.589" y="-160" font-family="Helvetica,sans-Serif" font-size="10.00">AP_HAL::BetterStream</text>
<text text-anchor="middle" x="237" y="-148" font-family="Helvetica,sans-Serif" font-size="10.00">::printf</text>
</a>
</g>
</g>
<!-- Node72&#45;&gt;Node77 -->
<g id="edge5" class="edge"><title>Node72&#45;&gt;Node77</title>
<path fill="none" stroke="midnightblue" d="M122.523,-123.137C138.88,-128.162 157.071,-133.751 174.012,-138.955"/>
<polygon fill="midnightblue" stroke="midnightblue" points="173.231,-142.377 183.818,-141.968 175.287,-135.686 173.231,-142.377"/>
</g>
<!-- Node85 -->
<g id="node14" class="node"><title>Node85</title>
<g id="a_node14"><a xlink:href="classAP__HAL_1_1Scheduler.html#ab3175e2e6223ccfe82f957e41cc12b26" target="_top" xlink:title=" ">
<polygon fill="white" stroke="black" points="181.751,-91 181.751,-123 292.249,-123 292.249,-91 181.751,-91"/>
<text text-anchor="start" x="189.751" y="-109" font-family="Helvetica,sans-Serif" font-size="10.00">AP_HAL::Scheduler::</text>
<text text-anchor="middle" x="237" y="-97" font-family="Helvetica,sans-Serif" font-size="10.00">delay</text>
</a>
</g>
</g>
<!-- Node72&#45;&gt;Node85 -->
<g id="edge15" class="edge"><title>Node72&#45;&gt;Node85</title>
<path fill="none" stroke="midnightblue" d="M137.519,-107C148.721,-107 160.313,-107 171.439,-107"/>
<polygon fill="midnightblue" stroke="midnightblue" points="171.502,-110.5 181.502,-107 171.502,-103.5 171.502,-110.5"/>
</g>
<!-- Node86 -->
<g id="node15" class="node"><title>Node86</title>
<g id="a_node15"><a xlink:href="classAP__HAL_1_1GPIO.html#a4e8955091af056240f447b68b76725bb" target="_top" xlink:title=" ">
<polygon fill="white" stroke="black" points="174.249,-52 174.249,-72 299.751,-72 299.751,-52 174.249,-52"/>
<text text-anchor="middle" x="237" y="-58" font-family="Helvetica,sans-Serif" font-size="10.00">AP_HAL::GPIO::channel</text>
</a>
</g>
</g>
<!-- Node72&#45;&gt;Node86 -->
<g id="edge16" class="edge"><title>Node72&#45;&gt;Node86</title>
<path fill="none" stroke="midnightblue" d="M129.461,-90.8811C149.018,-85.5795 170.475,-79.7627 188.976,-74.7474"/>
<polygon fill="midnightblue" stroke="midnightblue" points="189.901,-78.1232 198.636,-72.1287 188.069,-71.3671 189.901,-78.1232"/>
</g>
<!-- Node87 -->
<g id="node16" class="node"><title>Node87</title>
<g id="a_node16"><a xlink:href="classAP__HAL_1_1DigitalSource.html#af16b96dab1499f30659a1fd892df6c2d" target="_top" xlink:title=" ">
<polygon fill="white" stroke="black" points="177.308,-1 177.308,-33 296.692,-33 296.692,-1 177.308,-1"/>
<text text-anchor="start" x="185.308" y="-19" font-family="Helvetica,sans-Serif" font-size="10.00">AP_HAL::DigitalSource</text>
<text text-anchor="middle" x="237" y="-7" font-family="Helvetica,sans-Serif" font-size="10.00">::mode</text>
</a>
</g>
</g>
<!-- Node72&#45;&gt;Node87 -->
<g id="edge17" class="edge"><title>Node72&#45;&gt;Node87</title>
<path fill="none" stroke="midnightblue" d="M93.7629,-90.912C114.456,-77.2617 145.522,-57.6226 174,-43 177.796,-41.0507 181.773,-39.1278 185.801,-37.2636"/>
<polygon fill="midnightblue" stroke="midnightblue" points="187.539,-40.3201 195.232,-33.0354 184.675,-33.9326 187.539,-40.3201"/>
</g>
<!-- Node74 -->
<g id="node3" class="node"><title>Node74</title>
<g id="a_node3"><a xlink:href="classAP__HAL_1_1Device.html#a44b62acec2c1c5d8bf8b9c07f5fe7192" target="_top" xlink:title=" ">
<polygon fill="white" stroke="black" points="346.313,-235 346.313,-267 455.687,-267 455.687,-235 346.313,-235"/>
<text text-anchor="start" x="354.313" y="-253" font-family="Helvetica,sans-Serif" font-size="10.00">AP_HAL::Device::set</text>
<text text-anchor="middle" x="401" y="-241" font-family="Helvetica,sans-Serif" font-size="10.00">_checked_register</text>
</a>
</g>
</g>
<!-- Node73&#45;&gt;Node74 -->
<g id="edge2" class="edge"><title>Node73&#45;&gt;Node74</title>
<path fill="none" stroke="midnightblue" d="M296.028,-224.044C309.051,-227.421 322.937,-231.021 336.181,-234.454"/>
<polygon fill="midnightblue" stroke="midnightblue" points="335.6,-237.919 346.158,-237.041 337.357,-231.143 335.6,-237.919"/>
</g>
<!-- Node76 -->
<g id="node5" class="node"><title>Node76</title>
<g id="a_node5"><a xlink:href="classAP__HAL_1_1Device.html#a2af24b5f93b678af718b65a606e538b0" target="_top" xlink:title=" ">
<polygon fill="white" stroke="black" points="336.032,-196 336.032,-216 465.968,-216 465.968,-196 336.032,-196"/>
<text text-anchor="middle" x="401" y="-202" font-family="Helvetica,sans-Serif" font-size="10.00">AP_HAL::Device::transfer</text>
</a>
</g>
</g>
<!-- Node73&#45;&gt;Node76 -->
<g id="edge4" class="edge"><title>Node73&#45;&gt;Node76</title>
<path fill="none" stroke="midnightblue" d="M296.028,-207.925C305.596,-207.748 315.631,-207.562 325.535,-207.379"/>
<polygon fill="midnightblue" stroke="midnightblue" points="325.849,-210.874 335.782,-207.189 325.719,-203.875 325.849,-210.874"/>
</g>
<!-- Node75 -->
<g id="node4" class="node"><title>Node75</title>
<g id="a_node4"><a xlink:href="stdio_8h.html#a55f3d956bb2ba20b5059e9e25484a47f" target="_top" xlink:title=" ">
<polygon fill="white" stroke="black" points="516.884,-241 516.884,-261 555.116,-261 555.116,-241 516.884,-241"/>
<text text-anchor="middle" x="536" y="-247" font-family="Helvetica,sans-Serif" font-size="10.00">printf</text>
</a>
</g>
</g>
<!-- Node74&#45;&gt;Node75 -->
<g id="edge3" class="edge"><title>Node74&#45;&gt;Node75</title>
<path fill="none" stroke="midnightblue" d="M455.713,-251C473.117,-251 491.735,-251 506.554,-251"/>
<polygon fill="midnightblue" stroke="midnightblue" points="506.601,-254.5 516.601,-251 506.601,-247.5 506.601,-254.5"/>
</g>
<!-- Node78 -->
<g id="node7" class="node"><title>Node78</title>
<g id="a_node7"><a xlink:href="classAP__HAL_1_1BetterStream.html#aa730be451d385d7ba03ee9677e6d91a2" target="_top" xlink:title=" ">
<polygon fill="white" stroke="black" points="341.589,-142 341.589,-174 460.411,-174 460.411,-142 341.589,-142"/>
<text text-anchor="start" x="349.589" y="-160" font-family="Helvetica,sans-Serif" font-size="10.00">AP_HAL::BetterStream</text>
<text text-anchor="middle" x="401" y="-148" font-family="Helvetica,sans-Serif" font-size="10.00">::vprintf</text>
</a>
</g>
</g>
<!-- Node77&#45;&gt;Node78 -->
<g id="edge6" class="edge"><title>Node77&#45;&gt;Node78</title>
<path fill="none" stroke="midnightblue" d="M296.486,-158C307.771,-158 319.69,-158 331.267,-158"/>
<polygon fill="midnightblue" stroke="midnightblue" points="331.328,-161.5 341.328,-158 331.328,-154.5 331.328,-161.5"/>
</g>
<!-- Node79 -->
<g id="node8" class="node"><title>Node79</title>
<g id="a_node8"><a xlink:href="print__vprintf_8cpp.html#a98e0d5bb436a207f576379beaa786040" target="_top" xlink:title=" ">
<polygon fill="white" stroke="black" points="501.877,-148 501.877,-168 570.123,-168 570.123,-148 501.877,-148"/>
<text text-anchor="middle" x="536" y="-154" font-family="Helvetica,sans-Serif" font-size="10.00">print_vprintf</text>
</a>
</g>
</g>
<!-- Node78&#45;&gt;Node79 -->
<g id="edge7" class="edge"><title>Node78&#45;&gt;Node79</title>
<path fill="none" stroke="midnightblue" d="M460.723,-158C471.046,-158 481.622,-158 491.439,-158"/>
<polygon fill="midnightblue" stroke="midnightblue" points="491.744,-161.5 501.744,-158 491.744,-154.5 491.744,-161.5"/>
</g>
<!-- Node80 -->
<g id="node9" class="node"><title>Node80</title>
<g id="a_node9"><a xlink:href="classAP__HAL_1_1BetterStream.html#a915cc01273d4b418c2fb2989fb31a508" target="_top" xlink:title=" ">
<polygon fill="white" stroke="black" points="606.589,-207 606.589,-239 725.411,-239 725.411,-207 606.589,-207"/>
<text text-anchor="start" x="614.589" y="-225" font-family="Helvetica,sans-Serif" font-size="10.00">AP_HAL::BetterStream</text>
<text text-anchor="middle" x="666" y="-213" font-family="Helvetica,sans-Serif" font-size="10.00">::write</text>
</a>
</g>
</g>
<!-- Node79&#45;&gt;Node80 -->
<g id="edge8" class="edge"><title>Node79&#45;&gt;Node80</title>
<path fill="none" stroke="midnightblue" d="M553.76,-168.093C567.578,-176.263 587.795,-187.872 606,-197 609.771,-198.891 613.711,-200.788 617.687,-202.65"/>
<polygon fill="midnightblue" stroke="midnightblue" points="616.422,-205.92 626.971,-206.907 619.34,-199.557 616.422,-205.92"/>
</g>
<!-- Node81 -->
<g id="node10" class="node"><title>Node81</title>
<g id="a_node10"><a xlink:href="ftoa__engine_8cpp.html#a1c28234da8f20b43c85890d4bb452947" target="_top" xlink:title=" ">
<polygon fill="white" stroke="black" points="631.865,-168 631.865,-188 700.135,-188 700.135,-168 631.865,-168"/>
<text text-anchor="middle" x="666" y="-174" font-family="Helvetica,sans-Serif" font-size="10.00">ftoa_engine</text>
</a>
</g>
</g>
<!-- Node79&#45;&gt;Node81 -->
<g id="edge9" class="edge"><title>Node79&#45;&gt;Node81</title>
<path fill="none" stroke="midnightblue" d="M570.296,-163.203C585.877,-165.637 604.64,-168.569 621.341,-171.178"/>
<polygon fill="midnightblue" stroke="midnightblue" points="621.005,-174.668 631.426,-172.754 622.086,-167.752 621.005,-174.668"/>
</g>
<!-- Node83 -->
<g id="node12" class="node"><title>Node83</title>
<g id="a_node12"><a xlink:href="utoa__invert_8cpp.html#a34926f552460b47c414ec4d83b32815c" target="_top" xlink:title=" ">
<polygon fill="white" stroke="black" points="631.04,-129 631.04,-149 700.96,-149 700.96,-129 631.04,-129"/>
<text text-anchor="middle" x="666" y="-135" font-family="Helvetica,sans-Serif" font-size="10.00">ulltoa_invert</text>
</a>
</g>
</g>
<!-- Node79&#45;&gt;Node83 -->
<g id="edge11" class="edge"><title>Node79&#45;&gt;Node83</title>
<path fill="none" stroke="midnightblue" d="M570.296,-153.058C585.755,-150.763 604.345,-148.003 620.946,-145.539"/>
<polygon fill="midnightblue" stroke="midnightblue" points="621.602,-148.98 630.979,-144.05 620.574,-142.056 621.602,-148.98"/>
</g>
<!-- Node84 -->
<g id="node13" class="node"><title>Node84</title>
<g id="a_node13"><a xlink:href="utoa__invert_8cpp.html#a5d99bba8e697c1e11da489d88fca8559" target="_top" xlink:title=" ">
<polygon fill="white" stroke="black" points="632.15,-90 632.15,-110 699.85,-110 699.85,-90 632.15,-90"/>
<text text-anchor="middle" x="666" y="-96" font-family="Helvetica,sans-Serif" font-size="10.00">ultoa_invert</text>
</a>
</g>
</g>
<!-- Node79&#45;&gt;Node84 -->
<g id="edge13" class="edge"><title>Node79&#45;&gt;Node84</title>
<path fill="none" stroke="midnightblue" d="M553.314,-147.941C567.039,-139.742 587.354,-128.218 606,-120 611.326,-117.653 617.02,-115.409 622.691,-113.328"/>
<polygon fill="midnightblue" stroke="midnightblue" points="623.881,-116.62 632.147,-109.991 621.552,-110.019 623.881,-116.62"/>
</g>
<!-- Node82 -->
<g id="node11" class="node"><title>Node82</title>
<g id="a_node11"><a xlink:href="lstrlib_8c.html#a9605f4d16ae762782f8be8b54aef0a22" target="_top" xlink:title=" ">
<polygon fill="white" stroke="black" points="761.828,-129 761.828,-149 796.172,-149 796.172,-129 761.828,-129"/>
<text text-anchor="middle" x="779" y="-135" font-family="Helvetica,sans-Serif" font-size="10.00">digit</text>
</a>
</g>
</g>
<!-- Node81&#45;&gt;Node82 -->
<g id="edge10" class="edge"><title>Node81&#45;&gt;Node82</title>
<path fill="none" stroke="midnightblue" d="M697.062,-167.961C706.355,-164.817 716.615,-161.305 726,-158 734.508,-155.004 743.766,-151.652 752.081,-148.606"/>
<polygon fill="midnightblue" stroke="midnightblue" points="753.465,-151.826 761.641,-145.089 751.048,-145.257 753.465,-151.826"/>
</g>
<!-- Node83&#45;&gt;Node82 -->
<g id="edge12" class="edge"><title>Node83&#45;&gt;Node82</title>
<path fill="none" stroke="midnightblue" d="M701.209,-139C717.407,-139 736.457,-139 751.53,-139"/>
<polygon fill="midnightblue" stroke="midnightblue" points="751.705,-142.5 761.705,-139 751.705,-135.5 751.705,-142.5"/>
</g>
<!-- Node84&#45;&gt;Node82 -->
<g id="edge14" class="edge"><title>Node84&#45;&gt;Node82</title>
<path fill="none" stroke="midnightblue" d="M697.062,-110.039C706.355,-113.183 716.615,-116.695 726,-120 734.508,-122.996 743.766,-126.348 752.081,-129.394"/>
<polygon fill="midnightblue" stroke="midnightblue" points="751.048,-132.743 761.641,-132.911 753.465,-126.174 751.048,-132.743"/>
</g>
</g>
</svg>
        <g id="navigator" transform="translate(0 0)" fill="#404254">
                <rect fill="#f2f5e9" fill-opacity="0.5" stroke="#606060" stroke-width=".5" x="0" y="0" width="60" height="60"/>
                <use id="zoomplus" xlink:href="#zoomPlus" x="17" y="9" onmousedown="handleZoom(evt,'in')"/>
                <use id="zoomminus" xlink:href="#zoomMin" x="42" y="9" onmousedown="handleZoom(evt,'out')"/>
                <use id="reset" xlink:href="#resetDef" x="30" y="36" onmousedown="handleReset()"/>
                <g id="arrowUp" xlink:href="#dirArrow" transform="translate(30 24)" onmousedown="handlePan(0,-1)">
                  <use xlink:href="#rim" fill="#404040">
                        <set attributeName="fill" to="#808080" begin="arrowUp.mouseover" end="arrowUp.mouseout"/>
                  </use>
                  <path fill="none" stroke="white" stroke-width="1.5" d="M0,-3.0v7 M-2.5,-0.5L0,-3.0L2.5,-0.5"/>
                </g>
                <g id="arrowRight" xlink:href="#dirArrow" transform="rotate(90) translate(36 -43)" onmousedown="handlePan(1,0)">
                  <use xlink:href="#rim" fill="#404040">
                        <set attributeName="fill" to="#808080" begin="arrowRight.mouseover" end="arrowRight.mouseout"/>
                  </use>
                  <path fill="none" stroke="white" stroke-width="1.5" d="M0,-3.0v7 M-2.5,-0.5L0,-3.0L2.5,-0.5"/>
                </g>
                <g id="arrowDown" xlink:href="#dirArrow" transform="rotate(180) translate(-30 -48)" onmousedown="handlePan(0,1)">
                  <use xlink:href="#rim" fill="#404040">
                        <set attributeName="fill" to="#808080" begin="arrowDown.mouseover" end="arrowDown.mouseout"/>
                  </use>
                  <path fill="none" stroke="white" stroke-width="1.5" d="M0,-3.0v7 M-2.5,-0.5L0,-3.0L2.5,-0.5"/>
                </g>
                <g id="arrowLeft" xlink:href="#dirArrow" transform="rotate(270) translate(-36 17)" onmousedown="handlePan(-1,0)">
                  <use xlink:href="#rim" fill="#404040">
                        <set attributeName="fill" to="#808080" begin="arrowLeft.mouseover" end="arrowLeft.mouseout"/>
                  </use>
                  <path fill="none" stroke="white" stroke-width="1.5" d="M0,-3.0v7 M-2.5,-0.5L0,-3.0L2.5,-0.5"/>
                </g>
        </g>
        <svg viewBox="0 0 15 15" width="100%" height="30px" preserveAspectRatio="xMaxYMin meet">
         <g id="arrow_out" transform="scale(0.3 0.3)">
          <a xlink:href="classAP__InertialSensor__BMI160_ae7727eb583f2b0d7403b6e4dd40197e0_cgraph_org.svg" target="_base">
           <rect id="button" ry="5" rx="5" y="6" x="6" height="38" width="38"
                fill="#f2f5e9" fill-opacity="0.5" stroke="#606060" stroke-width="1.0"/>
           <path id="arrow"
             d="M 11.500037,31.436501 C 11.940474,20.09759 22.043105,11.32322 32.158766,21.979434 L 37.068811,17.246167 C 37.068811,17.246167 37.088388,32 37.088388,32 L 22.160133,31.978069 C 22.160133,31.978069 26.997745,27.140456 26.997745,27.140456 C 18.528582,18.264221 13.291696,25.230495 11.500037,31.436501 z"
             style="fill:#404040;"/>
          </a>
         </g>
        </svg>
</svg>
