<?xml version="1.0" encoding="UTF-8" standalone="no"?>
<!DOCTYPE svg PUBLIC "-//W3C//DTD SVG 1.1//EN"
 "http://www.w3.org/Graphics/SVG/1.1/DTD/svg11.dtd">
<!-- Generated by graphviz version 2.30.1 (20130221.2233)
 -->
<!-- Title: AP_HAL::GPIO::detach_interrupt Pages: 1 -->
<svg width="282pt" height="40pt"
 viewBox="0.00 0.00 282.00 40.00" xmlns="http://www.w3.org/2000/svg" xmlns:xlink="http://www.w3.org/1999/xlink">
<g id="graph0" class="graph" transform="scale(1 1) rotate(0) translate(4 36)">
<title>AP_HAL::GPIO::detach_interrupt</title>
<polygon fill="white" stroke="white" points="-4,5 -4,-36 279,-36 279,5 -4,5"/>
<!-- Node126 -->
<g id="node1" class="node"><title>Node126</title>
<g id="a_node1"><a xlink:title=" ">
<polygon fill="#bfbfbf" stroke="black" points="-0.248535,-0 -0.248535,-32 120.249,-32 120.249,-0 -0.248535,-0"/>
<text text-anchor="start" x="7.75146" y="-18" font-family="Helvetica,sans-Serif" font-size="10.00">AP_HAL::GPIO::detach</text>
<text text-anchor="middle" x="60" y="-6" font-family="Helvetica,sans-Serif" font-size="10.00">_interrupt</text>
</a>
</g>
</g>
<!-- Node127 -->
<g id="node2" class="node"><title>Node127</title>
<g id="a_node2"><a xlink:href="classAP__HAL_1_1GPIO.html#a25cb1ed83deec0e01b8468919f43bf21" target="_top" xlink:title=" ">
<polygon fill="white" stroke="black" points="156.143,-0 156.143,-32 273.857,-32 273.857,-0 156.143,-0"/>
<text text-anchor="start" x="164.143" y="-18" font-family="Helvetica,sans-Serif" font-size="10.00">AP_HAL::GPIO::attach</text>
<text text-anchor="middle" x="215" y="-6" font-family="Helvetica,sans-Serif" font-size="10.00">_interrupt</text>
</a>
</g>
</g>
<!-- Node126&#45;&gt;Node127 -->
<g id="edge1" class="edge"><title>Node126&#45;&gt;Node127</title>
<path fill="none" stroke="midnightblue" d="M120.592,-16C128.884,-16 137.454,-16 145.887,-16"/>
<polygon fill="midnightblue" stroke="midnightblue" points="146.077,-19.5001 156.077,-16 146.077,-12.5001 146.077,-19.5001"/>
</g>
</g>
</svg>
