<?xml version="1.0" encoding="UTF-8" standalone="no"?>
<!DOCTYPE svg PUBLIC "-//W3C//DTD SVG 1.1//EN"
 "http://www.w3.org/Graphics/SVG/1.1/DTD/svg11.dtd">
<!-- Generated by graphviz version 2.30.1 (20130221.2233)
 -->
<!-- Title: AP_OSD_Screen::draw_heading Pages: 1 -->
<svg width="458pt" height="67pt"
 viewBox="0.00 0.00 458.00 67.00" xmlns="http://www.w3.org/2000/svg" xmlns:xlink="http://www.w3.org/1999/xlink">
<g id="graph0" class="graph" transform="scale(1 1) rotate(0) translate(4 63)">
<title>AP_OSD_Screen::draw_heading</title>
<polygon fill="white" stroke="white" points="-4,5 -4,-63 455,-63 455,5 -4,5"/>
<!-- Node441 -->
<g id="node1" class="node"><title>Node441</title>
<g id="a_node1"><a xlink:title=" ">
<polygon fill="#bfbfbf" stroke="black" points="0.475586,-13 0.475586,-45 121.524,-45 121.524,-13 0.475586,-13"/>
<text text-anchor="start" x="8.47559" y="-31" font-family="Helvetica,sans-Serif" font-size="10.00">AP_OSD_Screen::draw</text>
<text text-anchor="middle" x="61" y="-19" font-family="Helvetica,sans-Serif" font-size="10.00">_heading</text>
</a>
</g>
</g>
<!-- Node442 -->
<g id="node2" class="node"><title>Node442</title>
<g id="a_node2"><a xlink:href="namespaceAP.html#a99432cfdb696952c9b7146f155a815aa" target="_top" xlink:title=" ">
<polygon fill="white" stroke="black" points="194.825,-39 194.825,-59 249.175,-59 249.175,-39 194.825,-39"/>
<text text-anchor="middle" x="222" y="-45" font-family="Helvetica,sans-Serif" font-size="10.00">AP::ahrs</text>
</a>
</g>
</g>
<!-- Node441&#45;&gt;Node442 -->
<g id="edge1" class="edge"><title>Node441&#45;&gt;Node442</title>
<path fill="none" stroke="midnightblue" d="M121.658,-36.5042C142.824,-39.1665 165.994,-42.081 184.63,-44.4252"/>
<polygon fill="midnightblue" stroke="midnightblue" points="184.393,-47.9228 194.751,-45.6983 185.266,-40.9775 184.393,-47.9228"/>
</g>
<!-- Node444 -->
<g id="node4" class="node"><title>Node444</title>
<g id="a_node4"><a xlink:href="classAP__OSD__Backend.html#a0874cc679cadd5bc77b95df77192ef99" target="_top" xlink:title=" ">
<polygon fill="white" stroke="black" points="158.141,-0 158.141,-20 285.859,-20 285.859,-0 158.141,-0"/>
<text text-anchor="middle" x="222" y="-6" font-family="Helvetica,sans-Serif" font-size="10.00">AP_OSD_Backend::write</text>
</a>
</g>
</g>
<!-- Node441&#45;&gt;Node444 -->
<g id="edge3" class="edge"><title>Node441&#45;&gt;Node444</title>
<path fill="none" stroke="midnightblue" d="M121.658,-21.871C130.301,-20.8382 139.279,-19.7654 148.145,-18.7059"/>
<polygon fill="midnightblue" stroke="midnightblue" points="148.571,-22.18 158.085,-17.5181 147.74,-15.2295 148.571,-22.18"/>
</g>
<!-- Node443 -->
<g id="node3" class="node"><title>Node443</title>
<g id="a_node3"><a xlink:href="classAP__AHRS.html#a3db167e808ba6d312c3b746e558008e9" target="_top" xlink:title=" ">
<polygon fill="white" stroke="black" points="322.133,-39 322.133,-59 449.867,-59 449.867,-39 322.133,-39"/>
<text text-anchor="middle" x="386" y="-45" font-family="Helvetica,sans-Serif" font-size="10.00">AP_AHRS::get_singleton</text>
</a>
</g>
</g>
<!-- Node442&#45;&gt;Node443 -->
<g id="edge2" class="edge"><title>Node442&#45;&gt;Node443</title>
<path fill="none" stroke="midnightblue" d="M249.389,-49C266.416,-49 289.47,-49 311.736,-49"/>
<polygon fill="midnightblue" stroke="midnightblue" points="311.887,-52.5001 321.887,-49 311.887,-45.5001 311.887,-52.5001"/>
</g>
</g>
</svg>
