<?xml version="1.0" encoding="UTF-8" standalone="no"?>
<!DOCTYPE svg PUBLIC "-//W3C//DTD SVG 1.1//EN"
 "http://www.w3.org/Graphics/SVG/1.1/DTD/svg11.dtd">
<!-- Generated by graphviz version 2.30.1 (20130221.2233)
 -->
<!-- Title: AP_IRLock_I2C::read_frames Pages: 1 -->
<svg width="542pt" height="220pt"
 viewBox="0.00 0.00 542.00 220.00" xmlns="http://www.w3.org/2000/svg" xmlns:xlink="http://www.w3.org/1999/xlink">
<g id="graph0" class="graph" transform="scale(1 1) rotate(0) translate(4 216)">
<title>AP_IRLock_I2C::read_frames</title>
<polygon fill="white" stroke="white" points="-4,5 -4,-216 539,-216 539,5 -4,5"/>
<!-- Node23 -->
<g id="node1" class="node"><title>Node23</title>
<g id="a_node1"><a xlink:title=" ">
<polygon fill="#bfbfbf" stroke="black" points="0.640625,-84 0.640625,-116 113.359,-116 113.359,-84 0.640625,-84"/>
<text text-anchor="start" x="8.64062" y="-102" font-family="Helvetica,sans-Serif" font-size="10.00">AP_IRLock_I2C::read</text>
<text text-anchor="middle" x="57" y="-90" font-family="Helvetica,sans-Serif" font-size="10.00">_frames</text>
</a>
</g>
</g>
<!-- Node24 -->
<g id="node2" class="node"><title>Node24</title>
<g id="a_node2"><a xlink:href="classAP__IRLock__I2C.html#aca64dc4c32a8495786949fa046882457" target="_top" xlink:title=" ">
<polygon fill="white" stroke="black" points="150.367,-129 150.367,-161 263.633,-161 263.633,-129 150.367,-129"/>
<text text-anchor="start" x="158.367" y="-147" font-family="Helvetica,sans-Serif" font-size="10.00">AP_IRLock_I2C::sync</text>
<text text-anchor="middle" x="207" y="-135" font-family="Helvetica,sans-Serif" font-size="10.00">_frame_start</text>
</a>
</g>
</g>
<!-- Node23&#45;&gt;Node24 -->
<g id="edge1" class="edge"><title>Node23&#45;&gt;Node24</title>
<path fill="none" stroke="midnightblue" d="M111.013,-116.119C121.555,-119.324 132.716,-122.718 143.539,-126.009"/>
<polygon fill="midnightblue" stroke="midnightblue" points="142.771,-129.433 153.357,-128.994 144.807,-122.736 142.771,-129.433"/>
</g>
<!-- Node28 -->
<g id="node6" class="node"><title>Node28</title>
<g id="a_node6"><a xlink:href="classAP__IRLock__I2C.html#ae1cb44a9e4c752a9305f90cbf9456da0" target="_top" xlink:title=" ">
<polygon fill="white" stroke="black" points="150.641,-180 150.641,-212 263.359,-212 263.359,-180 150.641,-180"/>
<text text-anchor="start" x="158.641" y="-198" font-family="Helvetica,sans-Serif" font-size="10.00">AP_IRLock_I2C::read</text>
<text text-anchor="middle" x="207" y="-186" font-family="Helvetica,sans-Serif" font-size="10.00">_block</text>
</a>
</g>
</g>
<!-- Node23&#45;&gt;Node28 -->
<g id="edge5" class="edge"><title>Node23&#45;&gt;Node28</title>
<path fill="none" stroke="midnightblue" d="M76.5278,-116.01C94.5264,-131.089 123.015,-153.731 150,-170 152.982,-171.798 156.109,-173.558 159.296,-175.261"/>
<polygon fill="midnightblue" stroke="midnightblue" points="157.869,-178.462 168.366,-179.894 161.053,-172.228 157.869,-178.462"/>
</g>
<!-- Node29 -->
<g id="node7" class="node"><title>Node29</title>
<g id="a_node7"><a xlink:href="classAP__IRLock__I2C.html#ae75bc61d4bcccf0524f2bcba9d65b084" target="_top" xlink:title=" ">
<polygon fill="white" stroke="black" points="150.365,-39 150.365,-71 263.635,-71 263.635,-39 150.365,-39"/>
<text text-anchor="start" x="158.365" y="-57" font-family="Helvetica,sans-Serif" font-size="10.00">AP_IRLock_I2C::pixel</text>
<text text-anchor="middle" x="207" y="-45" font-family="Helvetica,sans-Serif" font-size="10.00">_to_1M_plane</text>
</a>
</g>
</g>
<!-- Node23&#45;&gt;Node29 -->
<g id="edge8" class="edge"><title>Node23&#45;&gt;Node29</title>
<path fill="none" stroke="midnightblue" d="M111.013,-83.8811C121.555,-80.6759 132.716,-77.2823 143.539,-73.9914"/>
<polygon fill="midnightblue" stroke="midnightblue" points="144.807,-77.2641 153.357,-71.0064 142.771,-70.5669 144.807,-77.2641"/>
</g>
<!-- Node26 -->
<g id="node4" class="node"><title>Node26</title>
<g id="a_node4"><a xlink:href="namespaceAP__HAL.html#a77dffbb18891996280308e21316ec186" target="_top" xlink:title=" ">
<polygon fill="white" stroke="black" points="323.936,-135 323.936,-155 406.064,-155 406.064,-135 323.936,-135"/>
<text text-anchor="middle" x="365" y="-141" font-family="Helvetica,sans-Serif" font-size="10.00">AP_HAL::millis</text>
</a>
</g>
</g>
<!-- Node23&#45;&gt;Node26 -->
<g id="edge9" class="edge"><title>Node23&#45;&gt;Node26</title>
<path fill="none" stroke="midnightblue" d="M113.381,-103.143C155.022,-106.046 213.366,-111.262 264,-120 282.28,-123.154 302.151,-127.853 319.328,-132.328"/>
<polygon fill="midnightblue" stroke="midnightblue" points="318.535,-135.739 329.098,-134.924 320.332,-128.974 318.535,-135.739"/>
</g>
<!-- Node30 -->
<g id="node8" class="node"><title>Node30</title>
<g id="a_node8"><a xlink:href="stdio_8h.html#a55f3d956bb2ba20b5059e9e25484a47f" target="_top" xlink:title=" ">
<polygon fill="white" stroke="black" points="187.884,-0 187.884,-20 226.116,-20 226.116,-0 187.884,-0"/>
<text text-anchor="middle" x="207" y="-6" font-family="Helvetica,sans-Serif" font-size="10.00">printf</text>
</a>
</g>
</g>
<!-- Node23&#45;&gt;Node30 -->
<g id="edge10" class="edge"><title>Node23&#45;&gt;Node30</title>
<path fill="none" stroke="midnightblue" d="M75.868,-83.723C93.611,-68.2342 122.122,-45.1115 150,-30 158.798,-25.231 168.963,-21.2059 178.197,-18.0453"/>
<polygon fill="midnightblue" stroke="midnightblue" points="179.305,-21.3656 187.745,-14.9605 177.153,-14.7047 179.305,-21.3656"/>
</g>
<!-- Node25 -->
<g id="node3" class="node"><title>Node25</title>
<g id="a_node3"><a xlink:href="classAP__HAL_1_1Device.html#a2af24b5f93b678af718b65a606e538b0" target="_top" xlink:title=" ">
<polygon fill="white" stroke="black" points="300.032,-180 300.032,-200 429.968,-200 429.968,-180 300.032,-180"/>
<text text-anchor="middle" x="365" y="-186" font-family="Helvetica,sans-Serif" font-size="10.00">AP_HAL::Device::transfer</text>
</a>
</g>
</g>
<!-- Node24&#45;&gt;Node25 -->
<g id="edge2" class="edge"><title>Node24&#45;&gt;Node25</title>
<path fill="none" stroke="midnightblue" d="M263.879,-161.119C282.004,-166.347 301.866,-172.077 319.086,-177.044"/>
<polygon fill="midnightblue" stroke="midnightblue" points="318.309,-180.463 328.887,-179.871 320.249,-173.737 318.309,-180.463"/>
</g>
<!-- Node24&#45;&gt;Node26 -->
<g id="edge3" class="edge"><title>Node24&#45;&gt;Node26</title>
<path fill="none" stroke="midnightblue" d="M263.879,-145C280.087,-145 297.684,-145 313.54,-145"/>
<polygon fill="midnightblue" stroke="midnightblue" points="313.676,-148.5 323.676,-145 313.676,-141.5 313.676,-148.5"/>
</g>
<!-- Node27 -->
<g id="node5" class="node"><title>Node27</title>
<g id="a_node5"><a xlink:href="hrt_8c.html#a1295f128f60d29874243b5733c4db025" target="_top" xlink:title=" ">
<polygon fill="white" stroke="black" points="466.714,-135 466.714,-155 533.286,-155 533.286,-135 466.714,-135"/>
<text text-anchor="middle" x="500" y="-141" font-family="Helvetica,sans-Serif" font-size="10.00">hrt_millis32</text>
</a>
</g>
</g>
<!-- Node26&#45;&gt;Node27 -->
<g id="edge4" class="edge"><title>Node26&#45;&gt;Node27</title>
<path fill="none" stroke="midnightblue" d="M406.265,-145C422.07,-145 440.23,-145 456.266,-145"/>
<polygon fill="midnightblue" stroke="midnightblue" points="456.451,-148.5 466.451,-145 456.451,-141.5 456.451,-148.5"/>
</g>
<!-- Node28&#45;&gt;Node25 -->
<g id="edge6" class="edge"><title>Node28&#45;&gt;Node25</title>
<path fill="none" stroke="midnightblue" d="M263.439,-193.868C272.029,-193.537 281.018,-193.192 289.939,-192.849"/>
<polygon fill="midnightblue" stroke="midnightblue" points="290.098,-196.345 299.956,-192.463 289.829,-189.35 290.098,-196.345"/>
</g>
<!-- Node28&#45;&gt;Node26 -->
<g id="edge7" class="edge"><title>Node28&#45;&gt;Node26</title>
<path fill="none" stroke="midnightblue" d="M257.359,-179.863C278.685,-172.891 303.328,-164.835 323.549,-158.224"/>
<polygon fill="midnightblue" stroke="midnightblue" points="324.669,-161.541 333.086,-155.106 322.494,-154.887 324.669,-161.541"/>
</g>
</g>
</svg>
