<?xml version="1.0" encoding="UTF-8" standalone="no"?>
<!DOCTYPE svg PUBLIC "-//W3C//DTD SVG 1.1//EN"
 "http://www.w3.org/Graphics/SVG/1.1/DTD/svg11.dtd">
<!-- Generated by graphviz version 2.30.1 (20130221.2233)
 -->
<!-- Title: AP_RangeFinder_LightWareI2C::detect Pages: 1 -->
<svg width="1068pt" height="293pt"
 viewBox="0.00 0.00 1068.00 293.00" xmlns="http://www.w3.org/2000/svg" xmlns:xlink="http://www.w3.org/1999/xlink">
<g id="graph0" class="graph" transform="scale(1 1) rotate(0) translate(4 289)">
<title>AP_RangeFinder_LightWareI2C::detect</title>
<polygon fill="white" stroke="white" points="-4,5 -4,-289 1065,-289 1065,5 -4,5"/>
<!-- Node8 -->
<g id="node1" class="node"><title>Node8</title>
<g id="a_node1"><a xlink:title=" ">
<polygon fill="#bfbfbf" stroke="black" points="0.257324,-137 0.257324,-169 143.743,-169 143.743,-137 0.257324,-137"/>
<text text-anchor="start" x="8.25732" y="-155" font-family="Helvetica,sans-Serif" font-size="10.00">AP_RangeFinder_LightWare</text>
<text text-anchor="middle" x="72" y="-143" font-family="Helvetica,sans-Serif" font-size="10.00">I2C::detect</text>
</a>
</g>
</g>
<!-- Node9 -->
<g id="node2" class="node"><title>Node9</title>
<g id="a_node2"><a xlink:href="classAP__RangeFinder__LightWareI2C.html#a15a0d2cb0e9f33a96b13d885b2ede508" target="_top" xlink:title=" ">
<polygon fill="white" stroke="black" points="179.917,-253 179.917,-285 360.083,-285 360.083,-253 179.917,-253"/>
<text text-anchor="start" x="187.917" y="-271" font-family="Helvetica,sans-Serif" font-size="10.00">AP_RangeFinder_LightWare</text>
<text text-anchor="middle" x="270" y="-259" font-family="Helvetica,sans-Serif" font-size="10.00">I2C::AP_RangeFinder_LightWareI2C</text>
</a>
</g>
</g>
<!-- Node8&#45;&gt;Node9 -->
<g id="edge1" class="edge"><title>Node8&#45;&gt;Node9</title>
<path fill="none" stroke="midnightblue" d="M88.1131,-169.343C107.546,-189.435 143.196,-223.286 180,-243 184.213,-245.257 188.645,-247.339 193.19,-249.258"/>
<polygon fill="midnightblue" stroke="midnightblue" points="192.054,-252.573 202.641,-252.971 194.613,-246.057 192.054,-252.573"/>
</g>
<!-- Node10 -->
<g id="node3" class="node"><title>Node10</title>
<g id="a_node3"><a xlink:href="classAP__HAL_1_1I2CDevice.html#aecaa17329f98d50d437e53507b1e5c77" target="_top" xlink:title=" ">
<polygon fill="white" stroke="black" points="214.202,-202 214.202,-234 325.798,-234 325.798,-202 214.202,-202"/>
<text text-anchor="start" x="222.202" y="-220" font-family="Helvetica,sans-Serif" font-size="10.00">AP_HAL::I2CDevice::</text>
<text text-anchor="middle" x="270" y="-208" font-family="Helvetica,sans-Serif" font-size="10.00">get_semaphore</text>
</a>
</g>
</g>
<!-- Node8&#45;&gt;Node10 -->
<g id="edge2" class="edge"><title>Node8&#45;&gt;Node10</title>
<path fill="none" stroke="midnightblue" d="M114.96,-169.013C134.608,-176.325 158.394,-184.915 180,-192 187.721,-194.532 195.857,-197.076 203.945,-199.529"/>
<polygon fill="midnightblue" stroke="midnightblue" points="203.171,-202.951 213.755,-202.47 205.181,-196.246 203.171,-202.951"/>
</g>
<!-- Node11 -->
<g id="node4" class="node"><title>Node11</title>
<g id="a_node4"><a xlink:href="classAP__HAL_1_1Semaphore.html#abd3a0affad8bb211981a979f30386589" target="_top" xlink:title=" ">
<polygon fill="white" stroke="black" points="201.966,-163 201.966,-183 338.034,-183 338.034,-163 201.966,-163"/>
<text text-anchor="middle" x="270" y="-169" font-family="Helvetica,sans-Serif" font-size="10.00">AP_HAL::Semaphore::take</text>
</a>
</g>
</g>
<!-- Node8&#45;&gt;Node11 -->
<g id="edge3" class="edge"><title>Node8&#45;&gt;Node11</title>
<path fill="none" stroke="midnightblue" d="M143.76,-160.22C159.322,-161.808 175.878,-163.498 191.683,-165.11"/>
<polygon fill="midnightblue" stroke="midnightblue" points="191.638,-168.624 201.942,-166.157 192.349,-161.66 191.638,-168.624"/>
</g>
<!-- Node12 -->
<g id="node5" class="node"><title>Node12</title>
<g id="a_node5"><a xlink:href="classAP__RangeFinder__LightWareI2C.html#a37ea263e851b88939137c355193087d7" target="_top" xlink:title=" ">
<polygon fill="white" stroke="black" points="576.257,-115 576.257,-147 719.743,-147 719.743,-115 576.257,-115"/>
<text text-anchor="start" x="584.257" y="-133" font-family="Helvetica,sans-Serif" font-size="10.00">AP_RangeFinder_LightWare</text>
<text text-anchor="middle" x="648" y="-121" font-family="Helvetica,sans-Serif" font-size="10.00">I2C::get_reading</text>
</a>
</g>
</g>
<!-- Node8&#45;&gt;Node12 -->
<g id="edge4" class="edge"><title>Node8&#45;&gt;Node12</title>
<path fill="none" stroke="midnightblue" d="M143.959,-150.28C250.999,-146.178 453.203,-138.428 565.914,-134.108"/>
<polygon fill="midnightblue" stroke="midnightblue" points="566.344,-137.594 576.203,-133.713 566.076,-130.599 566.344,-137.594"/>
</g>
<!-- Node16 -->
<g id="node9" class="node"><title>Node16</title>
<g id="a_node9"><a xlink:href="classAP__HAL_1_1Semaphore.html#afcdbf03d5bea9d83037acc93bfaea7ce" target="_top" xlink:title=" ">
<polygon fill="white" stroke="black" points="202.244,-85 202.244,-105 337.756,-105 337.756,-85 202.244,-85"/>
<text text-anchor="middle" x="270" y="-91" font-family="Helvetica,sans-Serif" font-size="10.00">AP_HAL::Semaphore::give</text>
</a>
</g>
</g>
<!-- Node8&#45;&gt;Node16 -->
<g id="edge8" class="edge"><title>Node8&#45;&gt;Node16</title>
<path fill="none" stroke="midnightblue" d="M124.081,-136.958C141.762,-131.482 161.726,-125.384 180,-120 193.875,-115.912 209.011,-111.604 222.801,-107.738"/>
<polygon fill="midnightblue" stroke="midnightblue" points="223.877,-111.071 232.567,-105.01 221.994,-104.329 223.877,-111.071"/>
</g>
<!-- Node17 -->
<g id="node10" class="node"><title>Node17</title>
<g id="a_node10"><a xlink:href="classAP__RangeFinder__LightWareI2C.html#a4ecab260116f4b01a5e0853b3830736a" target="_top" xlink:title=" ">
<polygon fill="white" stroke="black" points="198.257,-34 198.257,-66 341.743,-66 341.743,-34 198.257,-34"/>
<text text-anchor="start" x="206.257" y="-52" font-family="Helvetica,sans-Serif" font-size="10.00">AP_RangeFinder_LightWare</text>
<text text-anchor="middle" x="270" y="-40" font-family="Helvetica,sans-Serif" font-size="10.00">I2C::init</text>
</a>
</g>
</g>
<!-- Node8&#45;&gt;Node17 -->
<g id="edge9" class="edge"><title>Node8&#45;&gt;Node17</title>
<path fill="none" stroke="midnightblue" d="M91.0135,-136.718C111.29,-119.178 145.876,-91.5625 180,-75 184.007,-73.0553 188.191,-71.2384 192.466,-69.5445"/>
<polygon fill="midnightblue" stroke="midnightblue" points="193.78,-72.7901 201.939,-66.0309 191.346,-66.227 193.78,-72.7901"/>
</g>
<!-- Node13 -->
<g id="node6" class="node"><title>Node13</title>
<g id="a_node6"><a xlink:href="classAP__HAL_1_1Device.html#add629993ccfd5242c5921a38a3969dba" target="_top" xlink:title=" ">
<polygon fill="white" stroke="black" points="766.976,-155 766.976,-175 883.024,-175 883.024,-155 766.976,-155"/>
<text text-anchor="middle" x="825" y="-161" font-family="Helvetica,sans-Serif" font-size="10.00">AP_HAL::Device::read</text>
</a>
</g>
</g>
<!-- Node12&#45;&gt;Node13 -->
<g id="edge5" class="edge"><title>Node12&#45;&gt;Node13</title>
<path fill="none" stroke="midnightblue" d="M719.927,-144.78C734.031,-147.52 748.732,-150.377 762.49,-153.05"/>
<polygon fill="midnightblue" stroke="midnightblue" points="761.835,-156.488 772.319,-154.959 763.171,-149.616 761.835,-156.488"/>
</g>
<!-- Node15 -->
<g id="node8" class="node"><title>Node15</title>
<g id="a_node8"><a xlink:href="sparse-endian_8h.html#a4460d76503583c1209bc0e78a5ccaefb" target="_top" xlink:title=" ">
<polygon fill="white" stroke="black" points="798.926,-116 798.926,-136 851.074,-136 851.074,-116 798.926,-116"/>
<text text-anchor="middle" x="825" y="-122" font-family="Helvetica,sans-Serif" font-size="10.00">be16toh</text>
</a>
</g>
</g>
<!-- Node12&#45;&gt;Node15 -->
<g id="edge7" class="edge"><title>Node12&#45;&gt;Node15</title>
<path fill="none" stroke="midnightblue" d="M719.927,-128.974C743.538,-128.299 768.821,-127.577 788.554,-127.013"/>
<polygon fill="midnightblue" stroke="midnightblue" points="788.718,-130.51 798.614,-126.725 788.518,-123.512 788.718,-130.51"/>
</g>
<!-- Node14 -->
<g id="node7" class="node"><title>Node14</title>
<g id="a_node7"><a xlink:href="classAP__HAL_1_1Device.html#a2af24b5f93b678af718b65a606e538b0" target="_top" xlink:title=" ">
<polygon fill="white" stroke="black" points="930.032,-155 930.032,-175 1059.97,-175 1059.97,-155 930.032,-155"/>
<text text-anchor="middle" x="995" y="-161" font-family="Helvetica,sans-Serif" font-size="10.00">AP_HAL::Device::transfer</text>
</a>
</g>
</g>
<!-- Node13&#45;&gt;Node14 -->
<g id="edge6" class="edge"><title>Node13&#45;&gt;Node14</title>
<path fill="none" stroke="midnightblue" d="M883.346,-165C895.08,-165 907.587,-165 919.813,-165"/>
<polygon fill="midnightblue" stroke="midnightblue" points="919.994,-168.5 929.994,-165 919.994,-161.5 919.994,-168.5"/>
</g>
<!-- Node18 -->
<g id="node11" class="node"><title>Node18</title>
<g id="a_node11"><a xlink:href="classAP__HAL_1_1I2CDevice.html#a5d6a208d57d47068884af3a4fb90f1a2" target="_top" xlink:title=" ">
<polygon fill="white" stroke="black" points="402.192,-73 402.192,-105 533.808,-105 533.808,-73 402.192,-73"/>
<text text-anchor="start" x="410.192" y="-91" font-family="Helvetica,sans-Serif" font-size="10.00">AP_HAL::I2CDevice::</text>
<text text-anchor="middle" x="468" y="-79" font-family="Helvetica,sans-Serif" font-size="10.00">register_periodic_callback</text>
</a>
</g>
</g>
<!-- Node17&#45;&gt;Node18 -->
<g id="edge10" class="edge"><title>Node17&#45;&gt;Node18</title>
<path fill="none" stroke="midnightblue" d="M341.76,-64.0799C358.015,-67.3141 375.355,-70.7645 391.79,-74.0347"/>
<polygon fill="midnightblue" stroke="midnightblue" points="391.397,-77.5251 401.888,-76.044 392.763,-70.6597 391.397,-77.5251"/>
</g>
<!-- Node19 -->
<g id="node12" class="node"><title>Node19</title>
<g id="a_node12"><a xlink:href="classAP__RangeFinder__LightWareI2C.html#af397f083c33ab36aab840d89831b0e7d" target="_top" xlink:title=" ">
<polygon fill="white" stroke="black" points="396.257,-22 396.257,-54 539.743,-54 539.743,-22 396.257,-22"/>
<text text-anchor="start" x="404.257" y="-40" font-family="Helvetica,sans-Serif" font-size="10.00">AP_RangeFinder_LightWare</text>
<text text-anchor="middle" x="468" y="-28" font-family="Helvetica,sans-Serif" font-size="10.00">I2C::timer</text>
</a>
</g>
</g>
<!-- Node17&#45;&gt;Node19 -->
<g id="edge11" class="edge"><title>Node17&#45;&gt;Node19</title>
<path fill="none" stroke="midnightblue" d="M341.76,-45.6677C356.104,-44.7895 371.294,-43.8596 385.961,-42.9616"/>
<polygon fill="midnightblue" stroke="midnightblue" points="386.247,-46.4507 396.014,-42.3461 385.819,-39.4638 386.247,-46.4507"/>
</g>
<!-- Node19&#45;&gt;Node12 -->
<g id="edge12" class="edge"><title>Node19&#45;&gt;Node12</title>
<path fill="none" stroke="midnightblue" d="M523.44,-54.0307C529.229,-56.6448 534.869,-59.6239 540,-63 559.706,-75.9661 556.619,-88.5529 576,-102 580.444,-105.084 585.266,-107.919 590.233,-110.507"/>
<polygon fill="midnightblue" stroke="midnightblue" points="588.757,-113.681 599.282,-114.898 591.814,-107.383 588.757,-113.681"/>
</g>
<!-- Node20 -->
<g id="node13" class="node"><title>Node20</title>
<g id="a_node13"><a xlink:href="namespaceAP__HAL.html#a77dffbb18891996280308e21316ec186" target="_top" xlink:title=" ">
<polygon fill="white" stroke="black" points="606.936,-73 606.936,-93 689.064,-93 689.064,-73 606.936,-73"/>
<text text-anchor="middle" x="648" y="-79" font-family="Helvetica,sans-Serif" font-size="10.00">AP_HAL::millis</text>
</a>
</g>
</g>
<!-- Node19&#45;&gt;Node20 -->
<g id="edge13" class="edge"><title>Node19&#45;&gt;Node20</title>
<path fill="none" stroke="midnightblue" d="M532.508,-54.0555C553.861,-59.4537 577.352,-65.3924 597.469,-70.4782"/>
<polygon fill="midnightblue" stroke="midnightblue" points="596.797,-73.9183 607.35,-72.9761 598.513,-67.1318 596.797,-73.9183"/>
</g>
<!-- Node22 -->
<g id="node15" class="node"><title>Node22</title>
<g id="a_node15"><a xlink:href="classAP__RangeFinder__Backend.html#a9e858f638e4c2d1138aa3f56d217a394" target="_top" xlink:title=" ">
<polygon fill="white" stroke="black" points="579.404,-22 579.404,-54 716.596,-54 716.596,-22 579.404,-22"/>
<text text-anchor="start" x="587.404" y="-40" font-family="Helvetica,sans-Serif" font-size="10.00">AP_RangeFinder_Backend</text>
<text text-anchor="middle" x="648" y="-28" font-family="Helvetica,sans-Serif" font-size="10.00">::update_status</text>
</a>
</g>
</g>
<!-- Node19&#45;&gt;Node22 -->
<g id="edge15" class="edge"><title>Node19&#45;&gt;Node22</title>
<path fill="none" stroke="midnightblue" d="M539.862,-38C549.504,-38 559.442,-38 569.199,-38"/>
<polygon fill="midnightblue" stroke="midnightblue" points="569.279,-41.5001 579.279,-38 569.279,-34.5001 569.279,-41.5001"/>
</g>
<!-- Node23 -->
<g id="node16" class="node"><title>Node23</title>
<g id="a_node16"><a xlink:href="classAP__RangeFinder__Backend.html#ac5b3771c47b58dfba89ebcf2a24541cd" target="_top" xlink:title=" ">
<polygon fill="white" stroke="black" points="756.404,-0 756.404,-32 893.596,-32 893.596,-0 756.404,-0"/>
<text text-anchor="start" x="764.404" y="-18" font-family="Helvetica,sans-Serif" font-size="10.00">AP_RangeFinder_Backend</text>
<text text-anchor="middle" x="825" y="-6" font-family="Helvetica,sans-Serif" font-size="10.00">::set_status</text>
</a>
</g>
</g>
<!-- Node19&#45;&gt;Node23 -->
<g id="edge17" class="edge"><title>Node19&#45;&gt;Node23</title>
<path fill="none" stroke="midnightblue" d="M524.075,-21.9616C540.62,-17.8666 558.917,-14.0458 576,-12 632.681,-5.21224 697.164,-6.52729 746.168,-9.3733"/>
<polygon fill="midnightblue" stroke="midnightblue" points="746.185,-12.8809 756.381,-10.0015 746.615,-5.89411 746.185,-12.8809"/>
</g>
<!-- Node21 -->
<g id="node14" class="node"><title>Node21</title>
<g id="a_node14"><a xlink:href="hrt_8c.html#a1295f128f60d29874243b5733c4db025" target="_top" xlink:title=" ">
<polygon fill="white" stroke="black" points="791.714,-73 791.714,-93 858.286,-93 858.286,-73 791.714,-73"/>
<text text-anchor="middle" x="825" y="-79" font-family="Helvetica,sans-Serif" font-size="10.00">hrt_millis32</text>
</a>
</g>
</g>
<!-- Node20&#45;&gt;Node21 -->
<g id="edge14" class="edge"><title>Node20&#45;&gt;Node21</title>
<path fill="none" stroke="midnightblue" d="M689.149,-83C716.708,-83 753.236,-83 781.323,-83"/>
<polygon fill="midnightblue" stroke="midnightblue" points="781.638,-86.5001 791.638,-83 781.638,-79.5001 781.638,-86.5001"/>
</g>
<!-- Node22&#45;&gt;Node23 -->
<g id="edge16" class="edge"><title>Node22&#45;&gt;Node23</title>
<path fill="none" stroke="midnightblue" d="M716.66,-29.4942C726.297,-28.2827 736.272,-27.0286 746.086,-25.795"/>
<polygon fill="midnightblue" stroke="midnightblue" points="746.747,-29.2395 756.232,-24.5194 745.873,-22.2942 746.747,-29.2395"/>
</g>
</g>
</svg>
