<?xml version="1.0" encoding="UTF-8" standalone="no"?>
<!DOCTYPE svg PUBLIC "-//W3C//DTD SVG 1.1//EN"
 "http://www.w3.org/Graphics/SVG/1.1/DTD/svg11.dtd">
<!-- Generated by graphviz version 2.30.1 (20130221.2233)
 -->
<!-- Title: NavEKF3::writeOptFlowMeas Pages: 1 -->
<svg width="1346pt" height="319pt"
 viewBox="0.00 0.00 1346.00 319.00" xmlns="http://www.w3.org/2000/svg" xmlns:xlink="http://www.w3.org/1999/xlink">
<g id="graph0" class="graph" transform="scale(1 1) rotate(0) translate(4 315)">
<title>NavEKF3::writeOptFlowMeas</title>
<polygon fill="white" stroke="white" points="-4,5 -4,-315 1343,-315 1343,5 -4,5"/>
<!-- Node2031 -->
<g id="node1" class="node"><title>Node2031</title>
<g id="a_node1"><a xlink:title=" ">
<polygon fill="#bfbfbf" stroke="black" points="0.42627,-115 0.42627,-135 147.574,-135 147.574,-115 0.42627,-115"/>
<text text-anchor="middle" x="74" y="-121" font-family="Helvetica,sans-Serif" font-size="10.00">NavEKF3::writeOptFlowMeas</text>
</a>
</g>
</g>
<!-- Node2032 -->
<g id="node2" class="node"><title>Node2032</title>
<g id="a_node2"><a xlink:href="classNavEKF3__core.html#ab60d04263304409d2a6fcb7acd100e5d" target="_top" xlink:title=" ">
<polygon fill="white" stroke="black" points="183.919,-115 183.919,-135 356.081,-135 356.081,-115 183.919,-115"/>
<text text-anchor="middle" x="270" y="-121" font-family="Helvetica,sans-Serif" font-size="10.00">NavEKF3_core::writeOptFlowMeas</text>
</a>
</g>
</g>
<!-- Node2031&#45;&gt;Node2032 -->
<g id="edge1" class="edge"><title>Node2031&#45;&gt;Node2032</title>
<path fill="none" stroke="midnightblue" d="M147.79,-125C156.214,-125 164.897,-125 173.564,-125"/>
<polygon fill="midnightblue" stroke="midnightblue" points="173.714,-128.5 183.714,-125 173.714,-121.5 173.714,-128.5"/>
</g>
<!-- Node2033 -->
<g id="node3" class="node"><title>Node2033</title>
<g id="a_node3"><a xlink:href="AP__Math_8h.html#ad525609d9dba6ffa556a0fbf08a3f9b4" target="_top" xlink:title=" ">
<polygon fill="white" stroke="black" points="428.48,-258 428.48,-278 509.52,-278 509.52,-258 428.48,-258"/>
<text text-anchor="middle" x="469" y="-264" font-family="Helvetica,sans-Serif" font-size="10.00">constrain_float</text>
</a>
</g>
</g>
<!-- Node2032&#45;&gt;Node2033 -->
<g id="edge2" class="edge"><title>Node2032&#45;&gt;Node2033</title>
<path fill="none" stroke="midnightblue" d="M278.634,-135.099C296.197,-157.661 341.827,-212.561 392,-243 400.197,-247.973 409.498,-252.082 418.713,-255.431"/>
<polygon fill="midnightblue" stroke="midnightblue" points="417.64,-258.762 428.235,-258.65 419.883,-252.131 417.64,-258.762"/>
</g>
<!-- Node2040 -->
<g id="node10" class="node"><title>Node2040</title>
<g id="a_node10"><a xlink:href="classVector3.html#adf1769d5ee5df2f8585df2f540fa5efe" target="_top" xlink:title=" ">
<polygon fill="white" stroke="black" points="775.537,-201 775.537,-221 850.463,-221 850.463,-201 775.537,-201"/>
<text text-anchor="middle" x="813" y="-207" font-family="Helvetica,sans-Serif" font-size="10.00">Vector3::zero</text>
</a>
</g>
</g>
<!-- Node2032&#45;&gt;Node2040 -->
<g id="edge9" class="edge"><title>Node2032&#45;&gt;Node2040</title>
<path fill="none" stroke="midnightblue" d="M291.037,-135.113C314.625,-146.622 355.251,-165.216 392,-176 474.241,-200.133 496.641,-201.268 582,-209 645.224,-214.727 718.621,-214.112 765.175,-212.824"/>
<polygon fill="midnightblue" stroke="midnightblue" points="765.37,-216.319 775.261,-212.522 765.161,-209.323 765.37,-216.319"/>
</g>
<!-- Node2041 -->
<g id="node11" class="node"><title>Node2041</title>
<g id="a_node11"><a xlink:href="classNavEKF3__core.html#a21617a7e7cfcb9a257022cd926338337" target="_top" xlink:title=" ">
<polygon fill="white" stroke="black" points="392.082,-135 392.082,-167 545.918,-167 545.918,-135 392.082,-135"/>
<text text-anchor="start" x="400.082" y="-153" font-family="Helvetica,sans-Serif" font-size="10.00">NavEKF3_core::detectOptFlow</text>
<text text-anchor="middle" x="469" y="-141" font-family="Helvetica,sans-Serif" font-size="10.00">Takeoff</text>
</a>
</g>
</g>
<!-- Node2032&#45;&gt;Node2041 -->
<g id="edge10" class="edge"><title>Node2032&#45;&gt;Node2041</title>
<path fill="none" stroke="midnightblue" d="M346.884,-135.015C358.285,-136.52 370.113,-138.081 381.713,-139.612"/>
<polygon fill="midnightblue" stroke="midnightblue" points="381.458,-143.109 391.83,-140.947 382.374,-136.169 381.458,-143.109"/>
</g>
<!-- Node2055 -->
<g id="node25" class="node"><title>Node2055</title>
<g id="a_node25"><a xlink:href="classQuaternion.html#a765626a23ca350f7f92b3169d68f9973" target="_top" xlink:title=" ">
<polygon fill="white" stroke="black" points="416.806,-84 416.806,-116 521.194,-116 521.194,-84 416.806,-84"/>
<text text-anchor="start" x="424.806" y="-102" font-family="Helvetica,sans-Serif" font-size="10.00">Quaternion::rotation</text>
<text text-anchor="middle" x="469" y="-90" font-family="Helvetica,sans-Serif" font-size="10.00">_matrix</text>
</a>
</g>
</g>
<!-- Node2032&#45;&gt;Node2055 -->
<g id="edge27" class="edge"><title>Node2032&#45;&gt;Node2055</title>
<path fill="none" stroke="midnightblue" d="M349.992,-114.976C368.872,-112.58 388.747,-110.058 406.692,-107.78"/>
<polygon fill="midnightblue" stroke="midnightblue" points="407.247,-111.238 416.727,-106.507 406.366,-104.294 407.247,-111.238"/>
</g>
<!-- Node2056 -->
<g id="node26" class="node"><title>Node2056</title>
<g id="a_node26"><a xlink:href="structVector2.html#a671d712528ea3b2cc21fd4616eea8f98" target="_top" xlink:title=" ">
<polygon fill="white" stroke="black" points="427.641,-45 427.641,-65 510.359,-65 510.359,-45 427.641,-45"/>
<text text-anchor="middle" x="469" y="-51" font-family="Helvetica,sans-Serif" font-size="10.00">Vector2::length</text>
</a>
</g>
</g>
<!-- Node2032&#45;&gt;Node2056 -->
<g id="edge28" class="edge"><title>Node2032&#45;&gt;Node2056</title>
<path fill="none" stroke="midnightblue" d="M292.961,-114.875C316.948,-104.065 356.67,-86.8883 392,-75 400.179,-72.2479 408.956,-69.6348 417.536,-67.2601"/>
<polygon fill="midnightblue" stroke="midnightblue" points="418.722,-70.5654 427.47,-64.5878 416.904,-63.8057 418.722,-70.5654"/>
</g>
<!-- Node2057 -->
<g id="node27" class="node"><title>Node2057</title>
<g id="a_node27"><a xlink:href="AP__Math_8h.html#a5abc8871f1e7781a55afe9bf299f0a39" target="_top" xlink:title=" ">
<polygon fill="white" stroke="black" points="450.165,-6 450.165,-26 487.835,-26 487.835,-6 450.165,-6"/>
<text text-anchor="middle" x="469" y="-12" font-family="Helvetica,sans-Serif" font-size="10.00">MAX</text>
</a>
</g>
</g>
<!-- Node2032&#45;&gt;Node2057 -->
<g id="edge29" class="edge"><title>Node2032&#45;&gt;Node2057</title>
<path fill="none" stroke="midnightblue" d="M281.388,-114.971C301.222,-96.3815 346.569,-56.513 392,-35 407.134,-27.8337 425.289,-23.1659 440.059,-20.2508"/>
<polygon fill="midnightblue" stroke="midnightblue" points="440.909,-23.6539 450.125,-18.4272 439.661,-16.7661 440.909,-23.6539"/>
</g>
<!-- Node2034 -->
<g id="node4" class="node"><title>Node2034</title>
<g id="a_node4"><a xlink:href="AP__Math_8h.html#a20e8f8671c282c69c1954652b6d61585" target="_top" xlink:title=" ">
<polygon fill="white" stroke="black" points="610.978,-258 610.978,-278 697.022,-278 697.022,-258 610.978,-258"/>
<text text-anchor="middle" x="654" y="-264" font-family="Helvetica,sans-Serif" font-size="10.00">constrain_value</text>
</a>
</g>
</g>
<!-- Node2033&#45;&gt;Node2034 -->
<g id="edge3" class="edge"><title>Node2033&#45;&gt;Node2034</title>
<path fill="none" stroke="midnightblue" d="M509.708,-268C536.297,-268 571.586,-268 600.49,-268"/>
<polygon fill="midnightblue" stroke="midnightblue" points="600.822,-271.5 610.822,-268 600.822,-264.5 600.822,-271.5"/>
</g>
<!-- Node2035 -->
<g id="node5" class="node"><title>Node2035</title>
<g id="a_node5"><a xlink:href="namespaceAP.html#afceb236ff617aaaa2b08afacd72532b0" target="_top" xlink:title=" ">
<polygon fill="white" stroke="black" points="768.596,-285 768.596,-305 857.404,-305 857.404,-285 768.596,-285"/>
<text text-anchor="middle" x="813" y="-291" font-family="Helvetica,sans-Serif" font-size="10.00">AP::internalerror</text>
</a>
</g>
</g>
<!-- Node2034&#45;&gt;Node2035 -->
<g id="edge4" class="edge"><title>Node2034&#45;&gt;Node2035</title>
<path fill="none" stroke="midnightblue" d="M697.073,-275.236C715.955,-278.483 738.45,-282.351 758.511,-285.801"/>
<polygon fill="midnightblue" stroke="midnightblue" points="757.992,-289.263 768.441,-287.509 759.179,-282.365 757.992,-289.263"/>
</g>
<!-- Node2036 -->
<g id="node6" class="node"><title>Node2036</title>
<g id="a_node6"><a xlink:href="classAP__InternalError.html#ab34174ba770b976b39a18c2b23e854f2" target="_top" xlink:title=" ">
<polygon fill="white" stroke="black" points="900.426,-246 900.426,-266 1017.57,-266 1017.57,-246 900.426,-246"/>
<text text-anchor="middle" x="959" y="-252" font-family="Helvetica,sans-Serif" font-size="10.00">AP_InternalError::error</text>
</a>
</g>
</g>
<!-- Node2034&#45;&gt;Node2036 -->
<g id="edge5" class="edge"><title>Node2034&#45;&gt;Node2036</title>
<path fill="none" stroke="midnightblue" d="M697.131,-266.331C747.089,-264.353 831.021,-261.029 890.167,-258.686"/>
<polygon fill="midnightblue" stroke="midnightblue" points="890.318,-262.183 900.172,-258.29 890.041,-255.189 890.318,-262.183"/>
</g>
<!-- Node2037 -->
<g id="node7" class="node"><title>Node2037</title>
<g id="a_node7"><a xlink:href="namespaceAP__HAL.html#a71832f03d849a0c088f04fc98d3c8143" target="_top" xlink:title=" ">
<polygon fill="white" stroke="black" points="1076.09,-246 1076.09,-266 1159.91,-266 1159.91,-246 1076.09,-246"/>
<text text-anchor="middle" x="1118" y="-252" font-family="Helvetica,sans-Serif" font-size="10.00">AP_HAL::panic</text>
</a>
</g>
</g>
<!-- Node2036&#45;&gt;Node2037 -->
<g id="edge6" class="edge"><title>Node2036&#45;&gt;Node2037</title>
<path fill="none" stroke="midnightblue" d="M1018.01,-256C1033.63,-256 1050.41,-256 1065.63,-256"/>
<polygon fill="midnightblue" stroke="midnightblue" points="1065.89,-259.5 1075.89,-256 1065.89,-252.5 1065.89,-259.5"/>
</g>
<!-- Node2038 -->
<g id="node8" class="node"><title>Node2038</title>
<g id="a_node8"><a xlink:href="stdio_8h.html#aae132cc6af1eb6cf43bf011d8d63e854" target="_top" xlink:title=" ">
<polygon fill="white" stroke="black" points="1256.38,-291 1256.38,-311 1299.62,-311 1299.62,-291 1256.38,-291"/>
<text text-anchor="middle" x="1278" y="-297" font-family="Helvetica,sans-Serif" font-size="10.00">vprintf</text>
</a>
</g>
</g>
<!-- Node2037&#45;&gt;Node2038 -->
<g id="edge7" class="edge"><title>Node2037&#45;&gt;Node2038</title>
<path fill="none" stroke="midnightblue" d="M1154.46,-266.099C1182.09,-273.968 1220.05,-284.781 1246.37,-292.277"/>
<polygon fill="midnightblue" stroke="midnightblue" points="1245.61,-295.699 1256.19,-295.072 1247.53,-288.967 1245.61,-295.699"/>
</g>
<!-- Node2039 -->
<g id="node9" class="node"><title>Node2039</title>
<g id="a_node9"><a xlink:href="classAP__HAL_1_1Scheduler.html#a78c4f1b1f192ac1c99544b6cc8f099b0" target="_top" xlink:title=" ">
<polygon fill="white" stroke="black" points="1222.75,-240 1222.75,-272 1333.25,-272 1333.25,-240 1222.75,-240"/>
<text text-anchor="start" x="1230.75" y="-258" font-family="Helvetica,sans-Serif" font-size="10.00">AP_HAL::Scheduler::</text>
<text text-anchor="middle" x="1278" y="-246" font-family="Helvetica,sans-Serif" font-size="10.00">delay_microseconds</text>
</a>
</g>
</g>
<!-- Node2037&#45;&gt;Node2039 -->
<g id="edge8" class="edge"><title>Node2037&#45;&gt;Node2039</title>
<path fill="none" stroke="midnightblue" d="M1160.1,-256C1176.07,-256 1194.76,-256 1212.44,-256"/>
<polygon fill="midnightblue" stroke="midnightblue" points="1212.71,-259.5 1222.71,-256 1212.71,-252.5 1212.71,-259.5"/>
</g>
<!-- Node2042 -->
<g id="node12" class="node"><title>Node2042</title>
<g id="a_node12"><a xlink:href="namespaceAP.html#ac571aa5a2ef71b7f4b4b2bfa09143fb9" target="_top" xlink:title=" ">
<polygon fill="white" stroke="black" points="630.16,-141 630.16,-161 677.84,-161 677.84,-141 630.16,-141"/>
<text text-anchor="middle" x="654" y="-147" font-family="Helvetica,sans-Serif" font-size="10.00">AP::ins</text>
</a>
</g>
</g>
<!-- Node2041&#45;&gt;Node2042 -->
<g id="edge11" class="edge"><title>Node2041&#45;&gt;Node2042</title>
<path fill="none" stroke="midnightblue" d="M546.019,-151C571.775,-151 599.217,-151 619.859,-151"/>
<polygon fill="midnightblue" stroke="midnightblue" points="619.988,-154.5 629.988,-151 619.988,-147.5 619.988,-154.5"/>
</g>
<!-- Node2050 -->
<g id="node20" class="node"><title>Node2050</title>
<g id="a_node20"><a xlink:href="classNavEKF3__core.html#ab96f7bf6ff4966c829aa6d77605f0316" target="_top" xlink:title=" ">
<polygon fill="white" stroke="black" points="581.806,-180 581.806,-200 726.194,-200 726.194,-180 581.806,-180"/>
<text text-anchor="middle" x="654" y="-186" font-family="Helvetica,sans-Serif" font-size="10.00">NavEKF3_core::getGyroBias</text>
</a>
</g>
</g>
<!-- Node2041&#45;&gt;Node2050 -->
<g id="edge20" class="edge"><title>Node2041&#45;&gt;Node2050</title>
<path fill="none" stroke="midnightblue" d="M545.225,-167.032C562.046,-170.616 579.625,-174.363 595.588,-177.765"/>
<polygon fill="midnightblue" stroke="midnightblue" points="595.311,-181.284 605.821,-179.945 596.77,-174.438 595.311,-181.284"/>
</g>
<!-- Node2051 -->
<g id="node21" class="node"><title>Node2051</title>
<g id="a_node21"><a xlink:href="classAP__InertialSensor.html#a714dc332f1f664de77df912220525653" target="_top" xlink:title=" ">
<polygon fill="white" stroke="black" points="602.921,-90 602.921,-122 705.079,-122 705.079,-90 602.921,-90"/>
<text text-anchor="start" x="610.921" y="-108" font-family="Helvetica,sans-Serif" font-size="10.00">AP_InertialSensor::</text>
<text text-anchor="middle" x="654" y="-96" font-family="Helvetica,sans-Serif" font-size="10.00">use_gyro</text>
</a>
</g>
</g>
<!-- Node2041&#45;&gt;Node2051 -->
<g id="edge22" class="edge"><title>Node2041&#45;&gt;Node2051</title>
<path fill="none" stroke="midnightblue" d="M535.292,-134.945C554.086,-130.323 574.491,-125.305 592.951,-120.766"/>
<polygon fill="midnightblue" stroke="midnightblue" points="593.821,-124.157 602.696,-118.37 592.149,-117.359 593.821,-124.157"/>
</g>
<!-- Node2053 -->
<g id="node23" class="node"><title>Node2053</title>
<g id="a_node23"><a xlink:href="classAP__InertialSensor.html#a8ca4ae8fdc18ff0d78f8dea93759cc93" target="_top" xlink:title=" ">
<polygon fill="white" stroke="black" points="602.921,-39 602.921,-71 705.079,-71 705.079,-39 602.921,-39"/>
<text text-anchor="start" x="610.921" y="-57" font-family="Helvetica,sans-Serif" font-size="10.00">AP_InertialSensor::</text>
<text text-anchor="middle" x="654" y="-45" font-family="Helvetica,sans-Serif" font-size="10.00">get_gyro</text>
</a>
</g>
</g>
<!-- Node2041&#45;&gt;Node2053 -->
<g id="edge25" class="edge"><title>Node2041&#45;&gt;Node2053</title>
<path fill="none" stroke="midnightblue" d="M528.1,-134.965C534.396,-132.122 540.503,-128.82 546,-125 566.748,-110.58 561.407,-95.6408 582,-81 585.649,-78.4055 589.586,-76.0409 593.67,-73.8908"/>
<polygon fill="midnightblue" stroke="midnightblue" points="595.284,-76.9988 602.789,-69.5209 592.259,-70.6862 595.284,-76.9988"/>
</g>
<!-- Node2054 -->
<g id="node24" class="node"><title>Node2054</title>
<g id="a_node24"><a xlink:href="classVector3.html#afcdfe81173c23d57e4a53a0282cddae7" target="_top" xlink:title=" ">
<polygon fill="white" stroke="black" points="612.641,-0 612.641,-20 695.359,-20 695.359,-0 612.641,-0"/>
<text text-anchor="middle" x="654" y="-6" font-family="Helvetica,sans-Serif" font-size="10.00">Vector3::length</text>
</a>
</g>
</g>
<!-- Node2041&#45;&gt;Node2054 -->
<g id="edge26" class="edge"><title>Node2041&#45;&gt;Node2054</title>
<path fill="none" stroke="midnightblue" d="M532.836,-134.794C537.622,-132.027 542.099,-128.789 546,-125 578.688,-93.2515 548.25,-59.6165 582,-29 587.914,-23.635 595.179,-19.7575 602.782,-16.961"/>
<polygon fill="midnightblue" stroke="midnightblue" points="603.987,-20.2522 612.516,-13.9662 601.929,-13.5617 603.987,-20.2522"/>
</g>
<!-- Node2043 -->
<g id="node13" class="node"><title>Node2043</title>
<g id="a_node13"><a xlink:href="classAP__InertialSensor.html#a2cf12201d711e4712a62ad10893be06f" target="_top" xlink:title=" ">
<polygon fill="white" stroke="black" points="761.921,-147 761.921,-179 864.079,-179 864.079,-147 761.921,-147"/>
<text text-anchor="start" x="769.921" y="-165" font-family="Helvetica,sans-Serif" font-size="10.00">AP_InertialSensor::</text>
<text text-anchor="middle" x="813" y="-153" font-family="Helvetica,sans-Serif" font-size="10.00">get_singleton</text>
</a>
</g>
</g>
<!-- Node2042&#45;&gt;Node2043 -->
<g id="edge12" class="edge"><title>Node2042&#45;&gt;Node2043</title>
<path fill="none" stroke="midnightblue" d="M678.166,-152.771C697.518,-154.25 726,-156.427 751.719,-158.393"/>
<polygon fill="midnightblue" stroke="midnightblue" points="751.55,-161.89 761.788,-159.162 752.084,-154.91 751.55,-161.89"/>
</g>
<!-- Node2044 -->
<g id="node14" class="node"><title>Node2044</title>
<g id="a_node14"><a xlink:href="classAP__InertialSensor.html#affc63e7edc9be1b0e128b8da3b8a24a5" target="_top" xlink:title=" ">
<polygon fill="white" stroke="black" points="907.921,-147 907.921,-179 1010.08,-179 1010.08,-147 907.921,-147"/>
<text text-anchor="start" x="915.921" y="-165" font-family="Helvetica,sans-Serif" font-size="10.00">AP_InertialSensor::</text>
<text text-anchor="middle" x="959" y="-153" font-family="Helvetica,sans-Serif" font-size="10.00">AP_InertialSensor</text>
</a>
</g>
</g>
<!-- Node2043&#45;&gt;Node2044 -->
<g id="edge13" class="edge"><title>Node2043&#45;&gt;Node2044</title>
<path fill="none" stroke="midnightblue" d="M864.364,-163C875.169,-163 886.69,-163 897.824,-163"/>
<polygon fill="midnightblue" stroke="midnightblue" points="897.907,-166.5 907.907,-163 897.907,-159.5 897.907,-166.5"/>
</g>
<!-- Node2044&#45;&gt;Node2037 -->
<g id="edge14" class="edge"><title>Node2044&#45;&gt;Node2037</title>
<path fill="none" stroke="midnightblue" d="M976.729,-179.001C994.597,-195.332 1024.37,-220.428 1054,-236 1058.52,-238.375 1063.37,-240.528 1068.3,-242.465"/>
<polygon fill="midnightblue" stroke="midnightblue" points="1067.22,-245.797 1077.81,-245.925 1069.61,-239.218 1067.22,-245.797"/>
</g>
<!-- Node2045 -->
<g id="node15" class="node"><title>Node2045</title>
<g id="a_node15"><a xlink:href="classAP__Param.html#a5f6dcfce1c0a79cf5bd81283e22f3201" target="_top" xlink:title=" ">
<polygon fill="white" stroke="black" points="1054.69,-195 1054.69,-227 1181.31,-227 1181.31,-195 1054.69,-195"/>
<text text-anchor="start" x="1062.69" y="-213" font-family="Helvetica,sans-Serif" font-size="10.00">AP_Param::setup_object</text>
<text text-anchor="middle" x="1118" y="-201" font-family="Helvetica,sans-Serif" font-size="10.00">_defaults</text>
</a>
</g>
</g>
<!-- Node2044&#45;&gt;Node2045 -->
<g id="edge15" class="edge"><title>Node2044&#45;&gt;Node2045</title>
<path fill="none" stroke="midnightblue" d="M1010.11,-178.319C1024.39,-182.686 1040.12,-187.495 1055.02,-192.05"/>
<polygon fill="midnightblue" stroke="midnightblue" points="1054.08,-195.423 1064.67,-194.999 1056.13,-188.729 1054.08,-195.423"/>
</g>
<!-- Node2048 -->
<g id="node18" class="node"><title>Node2048</title>
<g id="a_node18"><a xlink:href="classLowPassFilter.html#a1cc5016de137b01080fa0a6fa7fe53cd" target="_top" xlink:title=" ">
<polygon fill="white" stroke="black" points="1069.15,-144 1069.15,-176 1166.85,-176 1166.85,-144 1069.15,-144"/>
<text text-anchor="start" x="1077.15" y="-162" font-family="Helvetica,sans-Serif" font-size="10.00">LowPassFilter::set</text>
<text text-anchor="middle" x="1118" y="-150" font-family="Helvetica,sans-Serif" font-size="10.00">_cutoff_frequency</text>
</a>
</g>
</g>
<!-- Node2044&#45;&gt;Node2048 -->
<g id="edge18" class="edge"><title>Node2044&#45;&gt;Node2048</title>
<path fill="none" stroke="midnightblue" d="M1010.11,-162.043C1025.57,-161.747 1042.72,-161.419 1058.69,-161.114"/>
<polygon fill="midnightblue" stroke="midnightblue" points="1059.04,-164.608 1068.97,-160.918 1058.91,-157.609 1059.04,-164.608"/>
</g>
<!-- Node2049 -->
<g id="node19" class="node"><title>Node2049</title>
<g id="a_node19"><a xlink:href="classAP__AccelCal.html#a6ecd2cc4987ebcec35f59a538a131ace" target="_top" xlink:title=" ">
<polygon fill="white" stroke="black" points="1061.37,-93 1061.37,-125 1174.63,-125 1174.63,-93 1061.37,-93"/>
<text text-anchor="start" x="1069.37" y="-111" font-family="Helvetica,sans-Serif" font-size="10.00">AP_AccelCal::register</text>
<text text-anchor="middle" x="1118" y="-99" font-family="Helvetica,sans-Serif" font-size="10.00">_client</text>
</a>
</g>
</g>
<!-- Node2044&#45;&gt;Node2049 -->
<g id="edge19" class="edge"><title>Node2044&#45;&gt;Node2049</title>
<path fill="none" stroke="midnightblue" d="M1006.68,-146.944C1023.61,-141.121 1042.92,-134.48 1060.6,-128.399"/>
<polygon fill="midnightblue" stroke="midnightblue" points="1061.91,-131.649 1070.23,-125.087 1059.63,-125.03 1061.91,-131.649"/>
</g>
<!-- Node2046 -->
<g id="node16" class="node"><title>Node2046</title>
<g id="a_node16"><a xlink:href="classAP__Param.html#acd4b14f793c37f162e298761d2155ca6" target="_top" xlink:title=" ">
<polygon fill="white" stroke="black" points="1221.64,-201 1221.64,-221 1334.36,-221 1334.36,-201 1221.64,-201"/>
<text text-anchor="middle" x="1278" y="-207" font-family="Helvetica,sans-Serif" font-size="10.00">AP_Param::set_value</text>
</a>
</g>
</g>
<!-- Node2045&#45;&gt;Node2046 -->
<g id="edge16" class="edge"><title>Node2045&#45;&gt;Node2046</title>
<path fill="none" stroke="midnightblue" d="M1181.45,-211C1191.24,-211 1201.39,-211 1211.26,-211"/>
<polygon fill="midnightblue" stroke="midnightblue" points="1211.41,-214.5 1221.41,-211 1211.41,-207.5 1211.41,-214.5"/>
</g>
<!-- Node2047 -->
<g id="node17" class="node"><title>Node2047</title>
<g id="a_node17"><a xlink:href="classAP__Param.html#a7535a9b529dae326dcebb6be33dbbe9a" target="_top" xlink:title=" ">
<polygon fill="white" stroke="black" points="1218.3,-150 1218.3,-182 1337.7,-182 1337.7,-150 1218.3,-150"/>
<text text-anchor="start" x="1226.3" y="-168" font-family="Helvetica,sans-Serif" font-size="10.00">AP_Param::get_default</text>
<text text-anchor="middle" x="1278" y="-156" font-family="Helvetica,sans-Serif" font-size="10.00">_value</text>
</a>
</g>
</g>
<!-- Node2045&#45;&gt;Node2047 -->
<g id="edge17" class="edge"><title>Node2045&#45;&gt;Node2047</title>
<path fill="none" stroke="midnightblue" d="M1175.6,-194.881C1187.08,-191.61 1199.25,-188.144 1211.03,-184.79"/>
<polygon fill="midnightblue" stroke="midnightblue" points="1212.14,-188.112 1220.8,-182.006 1210.22,-181.379 1212.14,-188.112"/>
</g>
<!-- Node2050&#45;&gt;Node2040 -->
<g id="edge21" class="edge"><title>Node2050&#45;&gt;Node2040</title>
<path fill="none" stroke="midnightblue" d="M726.608,-199.578C739.619,-201.318 752.884,-203.093 764.959,-204.708"/>
<polygon fill="midnightblue" stroke="midnightblue" points="764.852,-208.225 775.228,-206.081 765.78,-201.286 764.852,-208.225"/>
</g>
<!-- Node2052 -->
<g id="node22" class="node"><title>Node2052</title>
<g id="a_node22"><a xlink:href="classAP__InertialSensor.html#adab0e15f297d55a8436b607627db0e5f" target="_top" xlink:title=" ">
<polygon fill="white" stroke="black" points="761.921,-78 761.921,-110 864.079,-110 864.079,-78 761.921,-78"/>
<text text-anchor="start" x="769.921" y="-96" font-family="Helvetica,sans-Serif" font-size="10.00">AP_InertialSensor::</text>
<text text-anchor="middle" x="813" y="-84" font-family="Helvetica,sans-Serif" font-size="10.00">get_gyro_health</text>
</a>
</g>
</g>
<!-- Node2051&#45;&gt;Node2052 -->
<g id="edge23" class="edge"><title>Node2051&#45;&gt;Node2052</title>
<path fill="none" stroke="midnightblue" d="M705.107,-102.17C719.978,-101.034 736.419,-99.7769 751.857,-98.5969"/>
<polygon fill="midnightblue" stroke="midnightblue" points="752.126,-102.087 761.83,-97.8346 751.592,-95.107 752.126,-102.087"/>
</g>
<!-- Node2052&#45;&gt;Node2052 -->
<g id="edge24" class="edge"><title>Node2052&#45;&gt;Node2052</title>
<path fill="none" stroke="midnightblue" d="M787.129,-110.091C781.849,-119.366 790.473,-128 813,-128 826.728,-128 835.292,-124.794 838.694,-120.19"/>
<polygon fill="midnightblue" stroke="midnightblue" points="842.195,-120.151 838.871,-110.091 835.196,-120.028 842.195,-120.151"/>
</g>
</g>
</svg>
