<?xml version="1.0" encoding="UTF-8" standalone="no"?>
<!DOCTYPE svg PUBLIC "-//W3C//DTD SVG 1.1//EN"
 "http://www.w3.org/Graphics/SVG/1.1/DTD/svg11.dtd">
<!-- Generated by graphviz version 2.30.1 (20130221.2233)
 -->
<!-- Title: AP_Proximity_SITL::load_fence Pages: 1 -->
<svg width="746pt" height="220pt"
 viewBox="0.00 0.00 746.00 220.00" xmlns="http://www.w3.org/2000/svg" xmlns:xlink="http://www.w3.org/1999/xlink">
<g id="graph0" class="graph" transform="scale(1 1) rotate(0) translate(4 216)">
<title>AP_Proximity_SITL::load_fence</title>
<polygon fill="white" stroke="white" points="-4,5 -4,-216 743,-216 743,5 -4,5"/>
<!-- Node31 -->
<g id="node1" class="node"><title>Node31</title>
<g id="a_node1"><a xlink:title=" ">
<polygon fill="#bfbfbf" stroke="black" points="-0.125488,-102 -0.125488,-134 108.125,-134 108.125,-102 -0.125488,-102"/>
<text text-anchor="start" x="7.87451" y="-120" font-family="Helvetica,sans-Serif" font-size="10.00">AP_Proximity_SITL::</text>
<text text-anchor="middle" x="54" y="-108" font-family="Helvetica,sans-Serif" font-size="10.00">load_fence</text>
</a>
</g>
</g>
<!-- Node32 -->
<g id="node2" class="node"><title>Node32</title>
<g id="a_node2"><a xlink:href="namespaceAP__HAL.html#a77dffbb18891996280308e21316ec186" target="_top" xlink:title=" ">
<polygon fill="white" stroke="black" points="169.936,-172 169.936,-192 252.064,-192 252.064,-172 169.936,-172"/>
<text text-anchor="middle" x="211" y="-178" font-family="Helvetica,sans-Serif" font-size="10.00">AP_HAL::millis</text>
</a>
</g>
</g>
<!-- Node31&#45;&gt;Node32 -->
<g id="edge1" class="edge"><title>Node31&#45;&gt;Node32</title>
<path fill="none" stroke="midnightblue" d="M94.113,-134.15C119.336,-144.565 151.817,-157.976 175.971,-167.949"/>
<polygon fill="midnightblue" stroke="midnightblue" points="174.861,-171.278 185.44,-171.859 177.533,-164.807 174.861,-171.278"/>
</g>
<!-- Node34 -->
<g id="node4" class="node"><title>Node34</title>
<g id="a_node4"><a xlink:href="classAC__PolyFence__loader.html#ab8cf5771a071bceda17f42d53ce244b2" target="_top" xlink:title=" ">
<polygon fill="white" stroke="black" points="152.971,-102 152.971,-134 269.029,-134 269.029,-102 152.971,-102"/>
<text text-anchor="start" x="160.971" y="-120" font-family="Helvetica,sans-Serif" font-size="10.00">AC_PolyFence_loader</text>
<text text-anchor="middle" x="211" y="-108" font-family="Helvetica,sans-Serif" font-size="10.00">::create_point_array</text>
</a>
</g>
</g>
<!-- Node31&#45;&gt;Node34 -->
<g id="edge3" class="edge"><title>Node31&#45;&gt;Node34</title>
<path fill="none" stroke="midnightblue" d="M108.342,-118C119.45,-118 131.293,-118 142.826,-118"/>
<polygon fill="midnightblue" stroke="midnightblue" points="142.855,-121.5 152.855,-118 142.855,-114.5 142.855,-121.5"/>
</g>
<!-- Node42 -->
<g id="node12" class="node"><title>Node42</title>
<g id="a_node12"><a xlink:href="classAC__PolyFence__loader.html#a28f972058b2fca40ed02a043e399d297" target="_top" xlink:title=" ">
<polygon fill="white" stroke="black" points="144.631,-51 144.631,-83 277.369,-83 277.369,-51 144.631,-51"/>
<text text-anchor="start" x="152.631" y="-69" font-family="Helvetica,sans-Serif" font-size="10.00">AC_PolyFence_loader</text>
<text text-anchor="middle" x="211" y="-57" font-family="Helvetica,sans-Serif" font-size="10.00">::load_point_from_eeprom</text>
</a>
</g>
</g>
<!-- Node31&#45;&gt;Node42 -->
<g id="edge11" class="edge"><title>Node31&#45;&gt;Node42</title>
<path fill="none" stroke="midnightblue" d="M104.043,-101.863C119.173,-96.8849 135.984,-91.3537 151.675,-86.1906"/>
<polygon fill="midnightblue" stroke="midnightblue" points="152.871,-89.482 161.276,-83.0317 150.683,-82.8326 152.871,-89.482"/>
</g>
<!-- Node33 -->
<g id="node3" class="node"><title>Node33</title>
<g id="a_node3"><a xlink:href="hrt_8c.html#a1295f128f60d29874243b5733c4db025" target="_top" xlink:title=" ">
<polygon fill="white" stroke="black" points="340.714,-192 340.714,-212 407.286,-212 407.286,-192 340.714,-192"/>
<text text-anchor="middle" x="374" y="-198" font-family="Helvetica,sans-Serif" font-size="10.00">hrt_millis32</text>
</a>
</g>
</g>
<!-- Node32&#45;&gt;Node33 -->
<g id="edge2" class="edge"><title>Node32&#45;&gt;Node33</title>
<path fill="none" stroke="midnightblue" d="M252.212,-186.995C276.09,-189.962 306.341,-193.719 330.595,-196.732"/>
<polygon fill="midnightblue" stroke="midnightblue" points="330.231,-200.214 340.586,-197.973 331.094,-193.267 330.231,-200.214"/>
</g>
<!-- Node35 -->
<g id="node5" class="node"><title>Node35</title>
<g id="a_node5"><a xlink:href="classAC__PolyFence__loader.html#a12c356c62f5dcbb038d85bca65f3c186" target="_top" xlink:title=" ">
<polygon fill="white" stroke="black" points="315.971,-51 315.971,-83 432.029,-83 432.029,-51 315.971,-51"/>
<text text-anchor="start" x="323.971" y="-69" font-family="Helvetica,sans-Serif" font-size="10.00">AC_PolyFence_loader</text>
<text text-anchor="middle" x="374" y="-57" font-family="Helvetica,sans-Serif" font-size="10.00">::max_points</text>
</a>
</g>
</g>
<!-- Node34&#45;&gt;Node35 -->
<g id="edge4" class="edge"><title>Node34&#45;&gt;Node35</title>
<path fill="none" stroke="midnightblue" d="M262.941,-101.863C278.657,-96.8849 296.119,-91.3537 312.418,-86.1906"/>
<polygon fill="midnightblue" stroke="midnightblue" points="313.914,-89.3882 322.39,-83.0317 311.8,-82.715 313.914,-89.3882"/>
</g>
<!-- Node38 -->
<g id="node8" class="node"><title>Node38</title>
<g id="a_node8"><a xlink:href="classAP__HAL_1_1Util.html#a2a2e64f649d25593951054d44c0ed53b" target="_top" xlink:title=" ">
<polygon fill="white" stroke="black" points="314.308,-102 314.308,-134 433.692,-134 433.692,-102 314.308,-102"/>
<text text-anchor="start" x="322.308" y="-120" font-family="Helvetica,sans-Serif" font-size="10.00">AP_HAL::Util::available</text>
<text text-anchor="middle" x="374" y="-108" font-family="Helvetica,sans-Serif" font-size="10.00">_memory</text>
</a>
</g>
</g>
<!-- Node34&#45;&gt;Node38 -->
<g id="edge7" class="edge"><title>Node34&#45;&gt;Node38</title>
<path fill="none" stroke="midnightblue" d="M269.216,-118C280.471,-118 292.39,-118 303.985,-118"/>
<polygon fill="midnightblue" stroke="midnightblue" points="304.065,-121.5 314.065,-118 304.065,-114.5 304.065,-121.5"/>
</g>
<!-- Node39 -->
<g id="node9" class="node"><title>Node39</title>
<g id="a_node9"><a xlink:href="malloc_8c.html#a62b7798461bd461da64c5f9d35feddf7" target="_top" xlink:title=" ">
<polygon fill="white" stroke="black" points="353.217,-153 353.217,-173 394.783,-173 394.783,-153 353.217,-153"/>
<text text-anchor="middle" x="374" y="-159" font-family="Helvetica,sans-Serif" font-size="10.00">calloc</text>
</a>
</g>
</g>
<!-- Node34&#45;&gt;Node39 -->
<g id="edge8" class="edge"><title>Node34&#45;&gt;Node39</title>
<path fill="none" stroke="midnightblue" d="M269.216,-133.992C294.267,-140.994 322.611,-148.916 343.34,-154.71"/>
<polygon fill="midnightblue" stroke="midnightblue" points="342.569,-158.129 353.142,-157.45 344.454,-151.387 342.569,-158.129"/>
</g>
<!-- Node36 -->
<g id="node6" class="node"><title>Node36</title>
<g id="a_node6"><a xlink:href="AP__Math_8h.html#a321a91de43cfb2e95d40cde314d0a80f" target="_top" xlink:title=" ">
<polygon fill="white" stroke="black" points="507.835,-54 507.835,-74 542.165,-74 542.165,-54 507.835,-54"/>
<text text-anchor="middle" x="525" y="-60" font-family="Helvetica,sans-Serif" font-size="10.00">MIN</text>
</a>
</g>
</g>
<!-- Node35&#45;&gt;Node36 -->
<g id="edge5" class="edge"><title>Node35&#45;&gt;Node36</title>
<path fill="none" stroke="midnightblue" d="M432.181,-65.8487C454.715,-65.395 479.486,-64.8963 497.614,-64.5313"/>
<polygon fill="midnightblue" stroke="midnightblue" points="497.781,-68.0287 507.708,-64.328 497.64,-61.0301 497.781,-68.0287"/>
</g>
<!-- Node37 -->
<g id="node7" class="node"><title>Node37</title>
<g id="a_node7"><a xlink:href="classStorageAccess.html#aa810ebbc83bfc0986aa6c13f76d08eaf" target="_top" xlink:title=" ">
<polygon fill="white" stroke="black" points="471.702,-93 471.702,-113 578.298,-113 578.298,-93 471.702,-93"/>
<text text-anchor="middle" x="525" y="-99" font-family="Helvetica,sans-Serif" font-size="10.00">StorageAccess::size</text>
</a>
</g>
</g>
<!-- Node35&#45;&gt;Node37 -->
<g id="edge6" class="edge"><title>Node35&#45;&gt;Node37</title>
<path fill="none" stroke="midnightblue" d="M432.181,-80.8156C445.522,-84.039 459.648,-87.4518 472.715,-90.609"/>
<polygon fill="midnightblue" stroke="midnightblue" points="471.928,-94.0195 482.47,-92.966 473.572,-87.2153 471.928,-94.0195"/>
</g>
<!-- Node40 -->
<g id="node10" class="node"><title>Node40</title>
<g id="a_node10"><a xlink:href="malloc_8c.html#a7ac38fce3243a7dcf448301ee9ffd392" target="_top" xlink:title=" ">
<polygon fill="white" stroke="black" points="502.552,-153 502.552,-173 547.448,-173 547.448,-153 502.552,-153"/>
<text text-anchor="middle" x="525" y="-159" font-family="Helvetica,sans-Serif" font-size="10.00">malloc</text>
</a>
</g>
</g>
<!-- Node39&#45;&gt;Node40 -->
<g id="edge9" class="edge"><title>Node39&#45;&gt;Node40</title>
<path fill="none" stroke="midnightblue" d="M394.786,-163C419.603,-163 462.474,-163 491.985,-163"/>
<polygon fill="midnightblue" stroke="midnightblue" points="492.195,-166.5 502.195,-163 492.194,-159.5 492.195,-166.5"/>
</g>
<!-- Node41 -->
<g id="node11" class="node"><title>Node41</title>
<g id="a_node11"><a xlink:href="malloc_8c.html#aa5c105052a59261e63119d5203374a41" target="_top" xlink:title=" ">
<polygon fill="white" stroke="black" points="641.209,-153 641.209,-173 712.791,-173 712.791,-153 641.209,-153"/>
<text text-anchor="middle" x="677" y="-159" font-family="Helvetica,sans-Serif" font-size="10.00">malloc_flags</text>
</a>
</g>
</g>
<!-- Node40&#45;&gt;Node41 -->
<g id="edge10" class="edge"><title>Node40&#45;&gt;Node41</title>
<path fill="none" stroke="midnightblue" d="M547.491,-163C569.113,-163 603.114,-163 630.712,-163"/>
<polygon fill="midnightblue" stroke="midnightblue" points="630.937,-166.5 640.937,-163 630.937,-159.5 630.937,-166.5"/>
</g>
<!-- Node42&#45;&gt;Node35 -->
<g id="edge12" class="edge"><title>Node42&#45;&gt;Node35</title>
<path fill="none" stroke="midnightblue" d="M277.485,-67C286.819,-67 296.433,-67 305.799,-67"/>
<polygon fill="midnightblue" stroke="midnightblue" points="305.841,-70.5001 315.841,-67 305.841,-63.5001 305.841,-70.5001"/>
</g>
<!-- Node43 -->
<g id="node13" class="node"><title>Node43</title>
<g id="a_node13"><a xlink:href="classStorageAccess.html#a1c68c0847ccce3b406f2195c2fab44a1" target="_top" xlink:title=" ">
<polygon fill="white" stroke="black" points="319.586,-0 319.586,-32 428.414,-32 428.414,-0 319.586,-0"/>
<text text-anchor="start" x="327.586" y="-18" font-family="Helvetica,sans-Serif" font-size="10.00">StorageAccess::read</text>
<text text-anchor="middle" x="374" y="-6" font-family="Helvetica,sans-Serif" font-size="10.00">_uint32</text>
</a>
</g>
</g>
<!-- Node42&#45;&gt;Node43 -->
<g id="edge13" class="edge"><title>Node42&#45;&gt;Node43</title>
<path fill="none" stroke="midnightblue" d="M262.941,-50.8633C278.657,-45.8849 296.119,-40.3537 312.418,-35.1906"/>
<polygon fill="midnightblue" stroke="midnightblue" points="313.914,-38.3882 322.39,-32.0317 311.8,-31.715 313.914,-38.3882"/>
</g>
<!-- Node44 -->
<g id="node14" class="node"><title>Node44</title>
<g id="a_node14"><a xlink:href="classStorageAccess.html#abb169f592c849f2158a48615c8dee90a" target="_top" xlink:title=" ">
<polygon fill="white" stroke="black" points="470.586,-0 470.586,-32 579.414,-32 579.414,-0 470.586,-0"/>
<text text-anchor="start" x="478.586" y="-18" font-family="Helvetica,sans-Serif" font-size="10.00">StorageAccess::read</text>
<text text-anchor="middle" x="525" y="-6" font-family="Helvetica,sans-Serif" font-size="10.00">_block</text>
</a>
</g>
</g>
<!-- Node43&#45;&gt;Node44 -->
<g id="edge14" class="edge"><title>Node43&#45;&gt;Node44</title>
<path fill="none" stroke="midnightblue" d="M428.792,-16C438.92,-16 449.603,-16 460.007,-16"/>
<polygon fill="midnightblue" stroke="midnightblue" points="460.287,-19.5001 470.287,-16 460.287,-12.5001 460.287,-19.5001"/>
</g>
<!-- Node45 -->
<g id="node15" class="node"><title>Node45</title>
<g id="a_node15"><a xlink:href="classAP__HAL_1_1Storage.html#a1c3b1e80b0bec7d4bacd3ecbefb3b3f3" target="_top" xlink:title=" ">
<polygon fill="white" stroke="black" points="616.747,-0 616.747,-32 737.253,-32 737.253,-0 616.747,-0"/>
<text text-anchor="start" x="624.747" y="-18" font-family="Helvetica,sans-Serif" font-size="10.00">AP_HAL::Storage::read</text>
<text text-anchor="middle" x="677" y="-6" font-family="Helvetica,sans-Serif" font-size="10.00">_block</text>
</a>
</g>
</g>
<!-- Node44&#45;&gt;Node45 -->
<g id="edge15" class="edge"><title>Node44&#45;&gt;Node45</title>
<path fill="none" stroke="midnightblue" d="M579.73,-16C588.403,-16 597.49,-16 606.471,-16"/>
<polygon fill="midnightblue" stroke="midnightblue" points="606.539,-19.5001 616.539,-16 606.539,-12.5001 606.539,-19.5001"/>
</g>
</g>
</svg>
