<?xml version="1.0" encoding="UTF-8" standalone="no"?>
<!DOCTYPE svg PUBLIC "-//W3C//DTD SVG 1.1//EN"
 "http://www.w3.org/Graphics/SVG/1.1/DTD/svg11.dtd">
<!-- Generated by graphviz version 2.30.1 (20130221.2233)
 -->
<!-- Title: AP_Logger::Write_Proximity Pages: 1 -->
<!--zoomable 298 -->
<svg id="main" version="1.1" xmlns="http://www.w3.org/2000/svg" xmlns:xlink="http://www.w3.org/1999/xlink" xml:space="preserve" onload="init(evt)">
<style type="text/css"><![CDATA[
.edge:hover path { stroke: red; }
.edge:hover polygon { stroke: red; fill: red; }
]]></style>
<script type="text/javascript"><![CDATA[
var edges = document.getElementsByTagName('g');
if (edges && edges.length) {
  for (var i=0;i<edges.length;i++) {
    if (edges[i].id.substr(0,4)=='edge') {
      edges[i].setAttribute('class','edge');
    }
  }
}
]]></script>
        <defs>
                <circle id="rim" cx="0" cy="0" r="7"/>
                <circle id="rim2" cx="0" cy="0" r="3.5"/>
                <g id="zoomPlus">
                        <use xlink:href="#rim" fill="#404040">
                                <set attributeName="fill" to="#808080" begin="zoomplus.mouseover" end="zoomplus.mouseout"/>
                        </use>
                        <path d="M-4,0h8M0,-4v8" fill="none" stroke="white" stroke-width="1.5" pointer-events="none"/>
                </g>
                <g id="zoomMin">
                        <use xlink:href="#rim" fill="#404040">
                                <set attributeName="fill" to="#808080" begin="zoomminus.mouseover" end="zoomminus.mouseout"/>
                        </use>
                        <path d="M-4,0h8" fill="none" stroke="white" stroke-width="1.5" pointer-events="none"/>
                </g>
                <g id="dirArrow">
                        <path fill="none" stroke="white" stroke-width="1.5" d="M0,-3.0v7 M-2.5,-0.5L0,-3.0L2.5,-0.5"/>
                </g>
               <g id="resetDef">
                       <use xlink:href="#rim2" fill="#404040">
                               <set attributeName="fill" to="#808080" begin="reset.mouseover" end="reset.mouseout"/>
                       </use>
               </g>
        </defs>

<script type="text/javascript">
var viewWidth = 664;
var viewHeight = 298;
var sectionId = 'dynsection-145';
</script>
<script xlink:href="svgpan.js"/>
<svg id="graph" class="graph">
<g id="viewport">
<title>AP_Logger::Write_Proximity</title>
<polygon fill="white" stroke="white" points="-4,5 -4,-294 661,-294 661,5 -4,5"/>
<!-- Node4952 -->
<g id="node1" class="node"><title>Node4952</title>
<g id="a_node1"><a xlink:title=" ">
<polygon fill="#bfbfbf" stroke="black" points="0.287598,-135 0.287598,-155 141.712,-155 141.712,-135 0.287598,-135"/>
<text text-anchor="middle" x="71" y="-141" font-family="Helvetica,sans-Serif" font-size="10.00">AP_Logger::Write_Proximity</text>
</a>
</g>
</g>
<!-- Node4953 -->
<g id="node2" class="node"><title>Node4953</title>
<g id="a_node2"><a xlink:href="namespaceAP.html#a8b4b4424addfab0bbe9a7290107af2d7" target="_top" xlink:title=" ">
<polygon fill="white" stroke="black" points="212.549,-270 212.549,-290 287.451,-290 287.451,-270 212.549,-270"/>
<text text-anchor="middle" x="250" y="-276" font-family="Helvetica,sans-Serif" font-size="10.00">AP::proximity</text>
</a>
</g>
</g>
<!-- Node4952&#45;&gt;Node4953 -->
<g id="edge1" class="edge"><title>Node4952&#45;&gt;Node4953</title>
<path fill="none" stroke="midnightblue" d="M78.3529,-155.024C93.0521,-177.384 131.713,-231.6 178,-260 185.534,-264.623 194.167,-268.207 202.758,-270.976"/>
<polygon fill="midnightblue" stroke="midnightblue" points="201.801,-274.342 212.38,-273.768 203.752,-267.619 201.801,-274.342"/>
</g>
<!-- Node4955 -->
<g id="node4" class="node"><title>Node4955</title>
<g id="a_node4"><a xlink:href="classAP__Proximity.html#a5828d33a5e6873d29c01d0ea377bad3a" target="_top" xlink:title=" ">
<polygon fill="white" stroke="black" points="186.143,-231 186.143,-251 313.857,-251 313.857,-231 186.143,-231"/>
<text text-anchor="middle" x="250" y="-237" font-family="Helvetica,sans-Serif" font-size="10.00">AP_Proximity::get_status</text>
</a>
</g>
</g>
<!-- Node4952&#45;&gt;Node4955 -->
<g id="edge3" class="edge"><title>Node4952&#45;&gt;Node4955</title>
<path fill="none" stroke="midnightblue" d="M83.2262,-155.105C101.703,-171.239 140.248,-202.843 178,-221 183.249,-223.525 188.874,-225.784 194.576,-227.791"/>
<polygon fill="midnightblue" stroke="midnightblue" points="193.599,-231.154 204.192,-230.936 195.775,-224.501 193.599,-231.154"/>
</g>
<!-- Node4956 -->
<g id="node5" class="node"><title>Node4956</title>
<g id="a_node5"><a xlink:href="classAP__Proximity.html#acd6596edd8f65dea41aa89730343f9a3" target="_top" xlink:title=" ">
<polygon fill="white" stroke="black" points="177.803,-180 177.803,-212 322.197,-212 322.197,-180 177.803,-180"/>
<text text-anchor="start" x="185.803" y="-198" font-family="Helvetica,sans-Serif" font-size="10.00">AP_Proximity::get_horizontal</text>
<text text-anchor="middle" x="250" y="-186" font-family="Helvetica,sans-Serif" font-size="10.00">_distances</text>
</a>
</g>
</g>
<!-- Node4952&#45;&gt;Node4956 -->
<g id="edge4" class="edge"><title>Node4952&#45;&gt;Node4956</title>
<path fill="none" stroke="midnightblue" d="M106.97,-155.076C128.767,-161.357 157.505,-169.637 183.425,-177.106"/>
<polygon fill="midnightblue" stroke="midnightblue" points="182.623,-180.517 193.201,-179.922 184.561,-173.79 182.623,-180.517"/>
</g>
<!-- Node4959 -->
<g id="node8" class="node"><title>Node4959</title>
<g id="a_node8"><a xlink:href="classAP__Proximity.html#a9feaf5dbfcd60e26d0f7b807592414f3" target="_top" xlink:title=" ">
<polygon fill="white" stroke="black" points="183.084,-129 183.084,-161 316.916,-161 316.916,-129 183.084,-129"/>
<text text-anchor="start" x="191.084" y="-147" font-family="Helvetica,sans-Serif" font-size="10.00">AP_Proximity::get_upward</text>
<text text-anchor="middle" x="250" y="-135" font-family="Helvetica,sans-Serif" font-size="10.00">_distance</text>
</a>
</g>
</g>
<!-- Node4952&#45;&gt;Node4959 -->
<g id="edge7" class="edge"><title>Node4952&#45;&gt;Node4959</title>
<path fill="none" stroke="midnightblue" d="M141.955,-145C152.101,-145 162.588,-145 172.849,-145"/>
<polygon fill="midnightblue" stroke="midnightblue" points="173.013,-148.5 183.013,-145 173.013,-141.5 173.013,-148.5"/>
</g>
<!-- Node4961 -->
<g id="node10" class="node"><title>Node4961</title>
<g id="a_node10"><a xlink:href="classAP__Proximity.html#a0b8a7a7718d5343334b77bdb9c4e717b" target="_top" xlink:title=" ">
<polygon fill="white" stroke="black" points="183.921,-78 183.921,-110 316.079,-110 316.079,-78 183.921,-78"/>
<text text-anchor="start" x="191.921" y="-96" font-family="Helvetica,sans-Serif" font-size="10.00">AP_Proximity::get_closest</text>
<text text-anchor="middle" x="250" y="-84" font-family="Helvetica,sans-Serif" font-size="10.00">_object</text>
</a>
</g>
</g>
<!-- Node4952&#45;&gt;Node4961 -->
<g id="edge9" class="edge"><title>Node4952&#45;&gt;Node4961</title>
<path fill="none" stroke="midnightblue" d="M106.97,-134.924C128.767,-128.643 157.505,-120.363 183.425,-112.894"/>
<polygon fill="midnightblue" stroke="midnightblue" points="184.561,-116.21 193.201,-110.078 182.623,-109.483 184.561,-116.21"/>
</g>
<!-- Node4963 -->
<g id="node12" class="node"><title>Node4963</title>
<g id="a_node12"><a xlink:href="namespaceAP__HAL.html#a7aa0ce7625c9680e30ff4a99940907a5" target="_top" xlink:title=" ">
<polygon fill="white" stroke="black" points="199.761,-39 199.761,-59 300.239,-59 300.239,-39 199.761,-39"/>
<text text-anchor="middle" x="250" y="-45" font-family="Helvetica,sans-Serif" font-size="10.00">AP_HAL::micros64</text>
</a>
</g>
</g>
<!-- Node4952&#45;&gt;Node4963 -->
<g id="edge11" class="edge"><title>Node4952&#45;&gt;Node4963</title>
<path fill="none" stroke="midnightblue" d="M82.876,-134.961C101.159,-118.604 139.811,-86.2059 178,-68 182.377,-65.9134 187.019,-64.0276 191.751,-62.329"/>
<polygon fill="midnightblue" stroke="midnightblue" points="193.134,-65.5583 201.533,-59.1009 190.94,-58.9108 193.134,-65.5583"/>
</g>
<!-- Node4965 -->
<g id="node14" class="node"><title>Node4965</title>
<g id="a_node14"><a xlink:href="classAP__Logger.html#ada8172473eb14aabbf121c20ef6ad76b" target="_top" xlink:title=" ">
<polygon fill="white" stroke="black" points="190.398,-0 190.398,-20 309.602,-20 309.602,-0 190.398,-0"/>
<text text-anchor="middle" x="250" y="-6" font-family="Helvetica,sans-Serif" font-size="10.00">AP_Logger::WriteBlock</text>
</a>
</g>
</g>
<!-- Node4952&#45;&gt;Node4965 -->
<g id="edge13" class="edge"><title>Node4952&#45;&gt;Node4965</title>
<path fill="none" stroke="midnightblue" d="M78.3037,-134.843C92.902,-112.195 131.37,-57.3297 178,-29 181.186,-27.0641 184.57,-25.3227 188.065,-23.7564"/>
<polygon fill="midnightblue" stroke="midnightblue" points="189.512,-26.948 197.516,-20.0066 186.93,-20.4414 189.512,-26.948"/>
</g>
<!-- Node4954 -->
<g id="node3" class="node"><title>Node4954</title>
<g id="a_node3"><a xlink:href="classAP__Proximity.html#a9a5196c465fcce6e3a0c38b77b2f4d28" target="_top" xlink:title=" ">
<polygon fill="white" stroke="black" points="358.468,-270 358.468,-290 499.532,-290 499.532,-270 358.468,-270"/>
<text text-anchor="middle" x="429" y="-276" font-family="Helvetica,sans-Serif" font-size="10.00">AP_Proximity::get_singleton</text>
</a>
</g>
</g>
<!-- Node4953&#45;&gt;Node4954 -->
<g id="edge2" class="edge"><title>Node4953&#45;&gt;Node4954</title>
<path fill="none" stroke="midnightblue" d="M287.675,-280C305.332,-280 327.24,-280 348.454,-280"/>
<polygon fill="midnightblue" stroke="midnightblue" points="348.462,-283.5 358.462,-280 348.462,-276.5 348.462,-283.5"/>
</g>
<!-- Node4957 -->
<g id="node6" class="node"><title>Node4957</title>
<g id="a_node6"><a xlink:href="classAP__Proximity__Backend.html#a48928e9c0e50bf4bfe83f5e21655e5bb" target="_top" xlink:title=" ">
<polygon fill="white" stroke="black" points="362.907,-180 362.907,-212 495.093,-212 495.093,-180 362.907,-180"/>
<text text-anchor="start" x="370.907" y="-198" font-family="Helvetica,sans-Serif" font-size="10.00">AP_Proximity_Backend</text>
<text text-anchor="middle" x="429" y="-186" font-family="Helvetica,sans-Serif" font-size="10.00">::get_horizontal_distances</text>
</a>
</g>
</g>
<!-- Node4956&#45;&gt;Node4957 -->
<g id="edge5" class="edge"><title>Node4956&#45;&gt;Node4957</title>
<path fill="none" stroke="midnightblue" d="M322.228,-196C332.138,-196 342.348,-196 352.336,-196"/>
<polygon fill="midnightblue" stroke="midnightblue" points="352.642,-199.5 362.642,-196 352.642,-192.5 352.642,-199.5"/>
</g>
<!-- Node4958 -->
<g id="node7" class="node"><title>Node4958</title>
<g id="a_node7"><a xlink:href="classAP__Proximity__Backend.html#a95642cf035b9219ee43efdd32d568e8f" target="_top" xlink:title=" ">
<polygon fill="white" stroke="black" points="535.754,-180 535.754,-212 656.246,-212 656.246,-180 535.754,-180"/>
<text text-anchor="start" x="543.754" y="-198" font-family="Helvetica,sans-Serif" font-size="10.00">AP_Proximity_Backend</text>
<text text-anchor="middle" x="596" y="-186" font-family="Helvetica,sans-Serif" font-size="10.00">::distance_max</text>
</a>
</g>
</g>
<!-- Node4957&#45;&gt;Node4958 -->
<g id="edge6" class="edge"><title>Node4957&#45;&gt;Node4958</title>
<path fill="none" stroke="midnightblue" d="M495.212,-196C505.107,-196 515.349,-196 525.334,-196"/>
<polygon fill="midnightblue" stroke="midnightblue" points="525.621,-199.5 535.621,-196 525.621,-192.5 525.621,-199.5"/>
</g>
<!-- Node4960 -->
<g id="node9" class="node"><title>Node4960</title>
<g id="a_node9"><a xlink:href="classAP__Proximity__Backend.html#a08f8590a129e8db6c731ddcdd6e37fe6" target="_top" xlink:title=" ">
<polygon fill="white" stroke="black" points="368.754,-129 368.754,-161 489.246,-161 489.246,-129 368.754,-129"/>
<text text-anchor="start" x="376.754" y="-147" font-family="Helvetica,sans-Serif" font-size="10.00">AP_Proximity_Backend</text>
<text text-anchor="middle" x="429" y="-135" font-family="Helvetica,sans-Serif" font-size="10.00">::get_upward_distance</text>
</a>
</g>
</g>
<!-- Node4959&#45;&gt;Node4960 -->
<g id="edge8" class="edge"><title>Node4959&#45;&gt;Node4960</title>
<path fill="none" stroke="midnightblue" d="M317.16,-145C330.618,-145 344.814,-145 358.388,-145"/>
<polygon fill="midnightblue" stroke="midnightblue" points="358.625,-148.5 368.625,-145 358.625,-141.5 358.625,-148.5"/>
</g>
<!-- Node4962 -->
<g id="node11" class="node"><title>Node4962</title>
<g id="a_node11"><a xlink:href="classAP__Proximity__Backend.html#abe6c3694e946f5ad831980e33232e0ce" target="_top" xlink:title=" ">
<polygon fill="white" stroke="black" points="368.754,-78 368.754,-110 489.246,-110 489.246,-78 368.754,-78"/>
<text text-anchor="start" x="376.754" y="-96" font-family="Helvetica,sans-Serif" font-size="10.00">AP_Proximity_Backend</text>
<text text-anchor="middle" x="429" y="-84" font-family="Helvetica,sans-Serif" font-size="10.00">::get_closest_object</text>
</a>
</g>
</g>
<!-- Node4961&#45;&gt;Node4962 -->
<g id="edge10" class="edge"><title>Node4961&#45;&gt;Node4962</title>
<path fill="none" stroke="midnightblue" d="M316.154,-94C329.956,-94 344.573,-94 358.528,-94"/>
<polygon fill="midnightblue" stroke="midnightblue" points="358.551,-97.5001 368.551,-94 358.551,-90.5001 358.551,-97.5001"/>
</g>
<!-- Node4964 -->
<g id="node13" class="node"><title>Node4964</title>
<g id="a_node13"><a xlink:href="hrt_8c.html#a152c3348a8e83f2dfe35b44cc2e30362" target="_top" xlink:title=" ">
<polygon fill="white" stroke="black" points="392.101,-39 392.101,-59 465.899,-59 465.899,-39 392.101,-39"/>
<text text-anchor="middle" x="429" y="-45" font-family="Helvetica,sans-Serif" font-size="10.00">hrt_micros64</text>
</a>
</g>
</g>
<!-- Node4963&#45;&gt;Node4964 -->
<g id="edge12" class="edge"><title>Node4963&#45;&gt;Node4964</title>
<path fill="none" stroke="midnightblue" d="M300.304,-49C325.724,-49 356.549,-49 381.545,-49"/>
<polygon fill="midnightblue" stroke="midnightblue" points="381.868,-52.5001 391.868,-49 381.868,-45.5001 381.868,-52.5001"/>
</g>
</g>
</svg>
        <g id="navigator" transform="translate(0 0)" fill="#404254">
                <rect fill="#f2f5e9" fill-opacity="0.5" stroke="#606060" stroke-width=".5" x="0" y="0" width="60" height="60"/>
                <use id="zoomplus" xlink:href="#zoomPlus" x="17" y="9" onmousedown="handleZoom(evt,'in')"/>
                <use id="zoomminus" xlink:href="#zoomMin" x="42" y="9" onmousedown="handleZoom(evt,'out')"/>
                <use id="reset" xlink:href="#resetDef" x="30" y="36" onmousedown="handleReset()"/>
                <g id="arrowUp" xlink:href="#dirArrow" transform="translate(30 24)" onmousedown="handlePan(0,-1)">
                  <use xlink:href="#rim" fill="#404040">
                        <set attributeName="fill" to="#808080" begin="arrowUp.mouseover" end="arrowUp.mouseout"/>
                  </use>
                  <path fill="none" stroke="white" stroke-width="1.5" d="M0,-3.0v7 M-2.5,-0.5L0,-3.0L2.5,-0.5"/>
                </g>
                <g id="arrowRight" xlink:href="#dirArrow" transform="rotate(90) translate(36 -43)" onmousedown="handlePan(1,0)">
                  <use xlink:href="#rim" fill="#404040">
                        <set attributeName="fill" to="#808080" begin="arrowRight.mouseover" end="arrowRight.mouseout"/>
                  </use>
                  <path fill="none" stroke="white" stroke-width="1.5" d="M0,-3.0v7 M-2.5,-0.5L0,-3.0L2.5,-0.5"/>
                </g>
                <g id="arrowDown" xlink:href="#dirArrow" transform="rotate(180) translate(-30 -48)" onmousedown="handlePan(0,1)">
                  <use xlink:href="#rim" fill="#404040">
                        <set attributeName="fill" to="#808080" begin="arrowDown.mouseover" end="arrowDown.mouseout"/>
                  </use>
                  <path fill="none" stroke="white" stroke-width="1.5" d="M0,-3.0v7 M-2.5,-0.5L0,-3.0L2.5,-0.5"/>
                </g>
                <g id="arrowLeft" xlink:href="#dirArrow" transform="rotate(270) translate(-36 17)" onmousedown="handlePan(-1,0)">
                  <use xlink:href="#rim" fill="#404040">
                        <set attributeName="fill" to="#808080" begin="arrowLeft.mouseover" end="arrowLeft.mouseout"/>
                  </use>
                  <path fill="none" stroke="white" stroke-width="1.5" d="M0,-3.0v7 M-2.5,-0.5L0,-3.0L2.5,-0.5"/>
                </g>
        </g>
        <svg viewBox="0 0 15 15" width="100%" height="30px" preserveAspectRatio="xMaxYMin meet">
         <g id="arrow_out" transform="scale(0.3 0.3)">
          <a xlink:href="classAP__Logger_a7c0f1c94759ad85749b7d3dab3ce4ae8_cgraph_org.svg" target="_base">
           <rect id="button" ry="5" rx="5" y="6" x="6" height="38" width="38"
                fill="#f2f5e9" fill-opacity="0.5" stroke="#606060" stroke-width="1.0"/>
           <path id="arrow"
             d="M 11.500037,31.436501 C 11.940474,20.09759 22.043105,11.32322 32.158766,21.979434 L 37.068811,17.246167 C 37.068811,17.246167 37.088388,32 37.088388,32 L 22.160133,31.978069 C 22.160133,31.978069 26.997745,27.140456 26.997745,27.140456 C 18.528582,18.264221 13.291696,25.230495 11.500037,31.436501 z"
             style="fill:#404040;"/>
          </a>
         </g>
        </svg>
</svg>
