<?xml version="1.0" encoding="UTF-8" standalone="no"?>
<!DOCTYPE svg PUBLIC "-//W3C//DTD SVG 1.1//EN"
 "http://www.w3.org/Graphics/SVG/1.1/DTD/svg11.dtd">
<!-- Generated by graphviz version 2.30.1 (20130221.2233)
 -->
<!-- Title: AP_Proximity_LightWareSF40C::detect Pages: 1 -->
<svg width="436pt" height="40pt"
 viewBox="0.00 0.00 436.00 40.00" xmlns="http://www.w3.org/2000/svg" xmlns:xlink="http://www.w3.org/1999/xlink">
<g id="graph0" class="graph" transform="scale(1 1) rotate(0) translate(4 36)">
<title>AP_Proximity_LightWareSF40C::detect</title>
<polygon fill="white" stroke="white" points="-4,5 -4,-36 433,-36 433,5 -4,5"/>
<!-- Node43 -->
<g id="node1" class="node"><title>Node43</title>
<g id="a_node1"><a xlink:title=" ">
<polygon fill="#bfbfbf" stroke="black" points="276.656,-0 276.656,-32 427.344,-32 427.344,-0 276.656,-0"/>
<text text-anchor="start" x="284.656" y="-18" font-family="Helvetica,sans-Serif" font-size="10.00">AP_Proximity_LightWareSF40</text>
<text text-anchor="middle" x="352" y="-6" font-family="Helvetica,sans-Serif" font-size="10.00">C::detect</text>
</a>
</g>
</g>
<!-- Node44 -->
<g id="node2" class="node"><title>Node44</title>
<g id="a_node2"><a xlink:href="classAP__Proximity.html#aa06a750c61f34848a0cabaafbad387d5" target="_top" xlink:title=" ">
<polygon fill="white" stroke="black" points="130.594,-0 130.594,-32 239.406,-32 239.406,-0 130.594,-0"/>
<text text-anchor="start" x="138.594" y="-18" font-family="Helvetica,sans-Serif" font-size="10.00">AP_Proximity::detect</text>
<text text-anchor="middle" x="185" y="-6" font-family="Helvetica,sans-Serif" font-size="10.00">_instance</text>
</a>
</g>
</g>
<!-- Node43&#45;&gt;Node44 -->
<g id="edge1" class="edge"><title>Node43&#45;&gt;Node44</title>
<path fill="none" stroke="midnightblue" d="M266.123,-16C257.17,-16 248.255,-16 239.799,-16"/>
<polygon fill="midnightblue" stroke="midnightblue" points="266.224,-19.5001 276.224,-16 266.224,-12.5001 266.224,-19.5001"/>
</g>
<!-- Node45 -->
<g id="node3" class="node"><title>Node45</title>
<g id="a_node3"><a xlink:href="classAP__Proximity.html#a4fb240810284854fe169203d2dad280e" target="_top" xlink:title=" ">
<polygon fill="white" stroke="black" points="-0.177246,-6 -0.177246,-26 94.1772,-26 94.1772,-6 -0.177246,-6"/>
<text text-anchor="middle" x="47" y="-12" font-family="Helvetica,sans-Serif" font-size="10.00">AP_Proximity::init</text>
</a>
</g>
</g>
<!-- Node44&#45;&gt;Node45 -->
<g id="edge2" class="edge"><title>Node44&#45;&gt;Node45</title>
<path fill="none" stroke="midnightblue" d="M120.116,-16C111.42,-16 102.633,-16 94.3281,-16"/>
<polygon fill="midnightblue" stroke="midnightblue" points="120.249,-19.5001 130.249,-16 120.249,-12.5001 120.249,-19.5001"/>
</g>
</g>
</svg>
