<?xml version="1.0" encoding="UTF-8" standalone="no"?>
<!DOCTYPE svg PUBLIC "-//W3C//DTD SVG 1.1//EN"
 "http://www.w3.org/Graphics/SVG/1.1/DTD/svg11.dtd">
<!-- Generated by graphviz version 2.30.1 (20130221.2233)
 -->
<!-- Title: SITL::Aircraft::get_home_yaw Pages: 1 -->
<svg width="380pt" height="40pt"
 viewBox="0.00 0.00 380.00 40.00" xmlns="http://www.w3.org/2000/svg" xmlns:xlink="http://www.w3.org/1999/xlink">
<g id="graph0" class="graph" transform="scale(1 1) rotate(0) translate(4 36)">
<title>SITL::Aircraft::get_home_yaw</title>
<polygon fill="white" stroke="white" points="-4,5 -4,-36 377,-36 377,5 -4,5"/>
<!-- Node196 -->
<g id="node1" class="node"><title>Node196</title>
<g id="a_node1"><a xlink:title=" ">
<polygon fill="#bfbfbf" stroke="black" points="278.099,-0 278.099,-32 371.901,-32 371.901,-0 278.099,-0"/>
<text text-anchor="start" x="286.099" y="-18" font-family="Helvetica,sans-Serif" font-size="10.00">SITL::Aircraft::get</text>
<text text-anchor="middle" x="325" y="-6" font-family="Helvetica,sans-Serif" font-size="10.00">_home_yaw</text>
</a>
</g>
</g>
<!-- Node197 -->
<g id="node2" class="node"><title>Node197</title>
<g id="a_node2"><a xlink:href="classSITL_1_1Aircraft.html#aa6c48d7b39acb903f34811ff9185bb50" target="_top" xlink:title=" ">
<polygon fill="white" stroke="black" points="148.379,-0 148.379,-32 241.621,-32 241.621,-0 148.379,-0"/>
<text text-anchor="start" x="156.379" y="-18" font-family="Helvetica,sans-Serif" font-size="10.00">SITL::Aircraft::set</text>
<text text-anchor="middle" x="195" y="-6" font-family="Helvetica,sans-Serif" font-size="10.00">_precland</text>
</a>
</g>
</g>
<!-- Node196&#45;&gt;Node197 -->
<g id="edge1" class="edge"><title>Node196&#45;&gt;Node197</title>
<path fill="none" stroke="midnightblue" d="M267.713,-16C259.021,-16 250.137,-16 241.714,-16"/>
<polygon fill="midnightblue" stroke="midnightblue" points="267.789,-19.5001 277.789,-16 267.789,-12.5001 267.789,-19.5001"/>
</g>
<!-- Node198 -->
<g id="node3" class="node"><title>Node198</title>
<g id="a_node3"><a xlink:href="classHALSITL_1_1SITL__State.html#a06b639a288676fcc2775cf34e17e4dd7" target="_top" xlink:title=" ">
<polygon fill="white" stroke="black" points="-0.0786133,-0 -0.0786133,-32 112.079,-32 112.079,-0 -0.0786133,-0"/>
<text text-anchor="start" x="7.92139" y="-18" font-family="Helvetica,sans-Serif" font-size="10.00">HALSITL::SITL_State</text>
<text text-anchor="middle" x="56" y="-6" font-family="Helvetica,sans-Serif" font-size="10.00">::_sitl_setup</text>
</a>
</g>
</g>
<!-- Node197&#45;&gt;Node198 -->
<g id="edge2" class="edge"><title>Node197&#45;&gt;Node198</title>
<path fill="none" stroke="midnightblue" d="M137.821,-16C129.34,-16 120.599,-16 112.14,-16"/>
<polygon fill="midnightblue" stroke="midnightblue" points="138,-19.5001 148,-16 138,-12.5001 138,-19.5001"/>
</g>
</g>
</svg>
