<?xml version="1.0" encoding="UTF-8" standalone="no"?>
<!DOCTYPE svg PUBLIC "-//W3C//DTD SVG 1.1//EN"
 "http://www.w3.org/Graphics/SVG/1.1/DTD/svg11.dtd">
<!-- Generated by graphviz version 2.30.1 (20130221.2233)
 -->
<!-- Title: AP_Airspeed::last_update_ms Pages: 1 -->
<svg width="1352pt" height="67pt"
 viewBox="0.00 0.00 1352.00 67.00" xmlns="http://www.w3.org/2000/svg" xmlns:xlink="http://www.w3.org/1999/xlink">
<g id="graph0" class="graph" transform="scale(1 1) rotate(0) translate(4 63)">
<title>AP_Airspeed::last_update_ms</title>
<polygon fill="white" stroke="white" points="-4,5 -4,-63 1349,-63 1349,5 -4,5"/>
<!-- Node709 -->
<g id="node1" class="node"><title>Node709</title>
<g id="a_node1"><a xlink:title=" ">
<polygon fill="#bfbfbf" stroke="black" points="1192.74,-19 1192.74,-39 1343.26,-39 1343.26,-19 1192.74,-19"/>
<text text-anchor="middle" x="1268" y="-25" font-family="Helvetica,sans-Serif" font-size="10.00">AP_Airspeed::last_update_ms</text>
</a>
</g>
</g>
<!-- Node710 -->
<g id="node2" class="node"><title>Node710</title>
<g id="a_node2"><a xlink:href="classNavEKF2__core.html#abcfe3d0d4e6a148df1272d14541c5be1" target="_top" xlink:title=" ">
<polygon fill="white" stroke="black" points="994.742,-39 994.742,-59 1155.26,-59 1155.26,-39 994.742,-39"/>
<text text-anchor="middle" x="1075" y="-45" font-family="Helvetica,sans-Serif" font-size="10.00">NavEKF2_core::readAirSpdData</text>
</a>
</g>
</g>
<!-- Node709&#45;&gt;Node710 -->
<g id="edge1" class="edge"><title>Node709&#45;&gt;Node710</title>
<path fill="none" stroke="midnightblue" d="M1182.55,-37.8429C1173.58,-38.7825 1164.47,-39.7359 1155.56,-40.6694"/>
<polygon fill="midnightblue" stroke="midnightblue" points="1183.03,-41.3123 1192.61,-36.7898 1182.3,-34.3503 1183.03,-41.3123"/>
</g>
<!-- Node717 -->
<g id="node9" class="node"><title>Node717</title>
<g id="a_node9"><a xlink:href="classNavEKF3__core.html#a99b7c56750cb0a41f9e3a9ce4130dd00" target="_top" xlink:title=" ">
<polygon fill="white" stroke="black" points="994.742,-0 994.742,-20 1155.26,-20 1155.26,-0 994.742,-0"/>
<text text-anchor="middle" x="1075" y="-6" font-family="Helvetica,sans-Serif" font-size="10.00">NavEKF3_core::readAirSpdData</text>
</a>
</g>
</g>
<!-- Node709&#45;&gt;Node717 -->
<g id="edge8" class="edge"><title>Node709&#45;&gt;Node717</title>
<path fill="none" stroke="midnightblue" d="M1182.55,-20.5992C1173.58,-19.7066 1164.47,-18.8009 1155.56,-17.9141"/>
<polygon fill="midnightblue" stroke="midnightblue" points="1182.31,-24.0925 1192.61,-21.5997 1183,-17.1269 1182.31,-24.0925"/>
</g>
<!-- Node711 -->
<g id="node3" class="node"><title>Node711</title>
<g id="a_node3"><a xlink:href="classNavEKF2__core.html#a387322a0a89407c6293e92dd5d174e12" target="_top" xlink:title=" ">
<polygon fill="white" stroke="black" points="794.633,-39 794.633,-59 957.367,-59 957.367,-39 794.633,-39"/>
<text text-anchor="middle" x="876" y="-45" font-family="Helvetica,sans-Serif" font-size="10.00">NavEKF2_core::SelectTasFusion</text>
</a>
</g>
</g>
<!-- Node710&#45;&gt;Node711 -->
<g id="edge2" class="edge"><title>Node710&#45;&gt;Node711</title>
<path fill="none" stroke="midnightblue" d="M984.561,-49C975.507,-49 966.349,-49 957.398,-49"/>
<polygon fill="midnightblue" stroke="midnightblue" points="984.724,-52.5001 994.724,-49 984.724,-45.5001 984.724,-52.5001"/>
</g>
<!-- Node712 -->
<g id="node4" class="node"><title>Node712</title>
<g id="a_node4"><a xlink:href="classNavEKF2__core.html#a5f5c815cbd5ebba30d731f89f87726c3" target="_top" xlink:title=" ">
<polygon fill="white" stroke="black" points="614.084,-39 614.084,-59 757.916,-59 757.916,-39 614.084,-39"/>
<text text-anchor="middle" x="686" y="-45" font-family="Helvetica,sans-Serif" font-size="10.00">NavEKF2_core::UpdateFilter</text>
</a>
</g>
</g>
<!-- Node711&#45;&gt;Node712 -->
<g id="edge3" class="edge"><title>Node711&#45;&gt;Node712</title>
<path fill="none" stroke="midnightblue" d="M784.225,-49C775.482,-49 766.702,-49 758.187,-49"/>
<polygon fill="midnightblue" stroke="midnightblue" points="784.453,-52.5001 794.453,-49 784.453,-45.5001 784.453,-52.5001"/>
</g>
<!-- Node713 -->
<g id="node5" class="node"><title>Node713</title>
<g id="a_node5"><a xlink:href="classNavEKF2.html#a72815b1bbd9d7ceb0ff7ae52d14516df" target="_top" xlink:title=" ">
<polygon fill="white" stroke="black" points="458.591,-39 458.591,-59 577.409,-59 577.409,-39 458.591,-39"/>
<text text-anchor="middle" x="518" y="-45" font-family="Helvetica,sans-Serif" font-size="10.00">NavEKF2::UpdateFilter</text>
</a>
</g>
</g>
<!-- Node712&#45;&gt;Node713 -->
<g id="edge4" class="edge"><title>Node712&#45;&gt;Node713</title>
<path fill="none" stroke="midnightblue" d="M603.424,-49C594.696,-49 585.946,-49 577.562,-49"/>
<polygon fill="midnightblue" stroke="midnightblue" points="603.638,-52.5001 613.638,-49 603.638,-45.5001 603.638,-52.5001"/>
</g>
<!-- Node714 -->
<g id="node6" class="node"><title>Node714</title>
<g id="a_node6"><a xlink:href="classAP__AHRS__NavEKF.html#a0187c6d3d4348b002a204c05d3e94b07" target="_top" xlink:title=" ">
<polygon fill="white" stroke="black" points="249.904,-39 249.904,-59 422.096,-59 422.096,-39 249.904,-39"/>
<text text-anchor="middle" x="336" y="-45" font-family="Helvetica,sans-Serif" font-size="10.00">AP_AHRS_NavEKF::update_EKF2</text>
</a>
</g>
</g>
<!-- Node713&#45;&gt;Node714 -->
<g id="edge5" class="edge"><title>Node713&#45;&gt;Node714</title>
<path fill="none" stroke="midnightblue" d="M448.321,-49C439.8,-49 431.008,-49 422.275,-49"/>
<polygon fill="midnightblue" stroke="midnightblue" points="448.559,-52.5001 458.559,-49 448.559,-45.5001 448.559,-52.5001"/>
</g>
<!-- Node715 -->
<g id="node7" class="node"><title>Node715</title>
<g id="a_node7"><a xlink:href="classAP__AHRS__NavEKF.html#ac8111979c5dc37a55b2c50818534ea52" target="_top" xlink:title=" ">
<polygon fill="white" stroke="black" points="72.1899,-19 72.1899,-39 213.81,-39 213.81,-19 72.1899,-19"/>
<text text-anchor="middle" x="143" y="-25" font-family="Helvetica,sans-Serif" font-size="10.00">AP_AHRS_NavEKF::update</text>
</a>
</g>
</g>
<!-- Node714&#45;&gt;Node715 -->
<g id="edge6" class="edge"><title>Node714&#45;&gt;Node715</title>
<path fill="none" stroke="midnightblue" d="M239.643,-39.0149C230.946,-38.1042 222.247,-37.1934 213.835,-36.3126"/>
<polygon fill="midnightblue" stroke="midnightblue" points="239.524,-42.5216 249.834,-40.0821 240.253,-35.5596 239.524,-42.5216"/>
</g>
<!-- Node716 -->
<g id="node8" class="node"><title>Node716</title>
<g id="a_node8"><a xlink:href="AHRS__Test_8cpp.html#afe461d27b9c48d5921c00d521181f12f" target="_top" xlink:title=" ">
<polygon fill="white" stroke="black" points="0.546875,-19 0.546875,-39 35.4531,-39 35.4531,-19 0.546875,-19"/>
<text text-anchor="middle" x="18" y="-25" font-family="Helvetica,sans-Serif" font-size="10.00">loop</text>
</a>
</g>
</g>
<!-- Node715&#45;&gt;Node716 -->
<g id="edge7" class="edge"><title>Node715&#45;&gt;Node716</title>
<path fill="none" stroke="midnightblue" d="M61.8306,-29C51.9771,-29 42.8299,-29 35.5404,-29"/>
<polygon fill="midnightblue" stroke="midnightblue" points="61.8769,-32.5001 71.8769,-29 61.8769,-25.5001 61.8769,-32.5001"/>
</g>
<!-- Node718 -->
<g id="node10" class="node"><title>Node718</title>
<g id="a_node10"><a xlink:href="classNavEKF3__core.html#a26f75214891e1ce1406fd8f6aea398de" target="_top" xlink:title=" ">
<polygon fill="white" stroke="black" points="794.633,-0 794.633,-20 957.367,-20 957.367,-0 794.633,-0"/>
<text text-anchor="middle" x="876" y="-6" font-family="Helvetica,sans-Serif" font-size="10.00">NavEKF3_core::SelectTasFusion</text>
</a>
</g>
</g>
<!-- Node717&#45;&gt;Node718 -->
<g id="edge9" class="edge"><title>Node717&#45;&gt;Node718</title>
<path fill="none" stroke="midnightblue" d="M984.561,-10C975.507,-10 966.349,-10 957.398,-10"/>
<polygon fill="midnightblue" stroke="midnightblue" points="984.724,-13.5001 994.724,-10 984.724,-6.5001 984.724,-13.5001"/>
</g>
<!-- Node719 -->
<g id="node11" class="node"><title>Node719</title>
<g id="a_node11"><a xlink:href="classNavEKF3__core.html#a2a7fae9e0bf2ce6fc2f9b3918dc168d3" target="_top" xlink:title=" ">
<polygon fill="white" stroke="black" points="614.084,-0 614.084,-20 757.916,-20 757.916,-0 614.084,-0"/>
<text text-anchor="middle" x="686" y="-6" font-family="Helvetica,sans-Serif" font-size="10.00">NavEKF3_core::UpdateFilter</text>
</a>
</g>
</g>
<!-- Node718&#45;&gt;Node719 -->
<g id="edge10" class="edge"><title>Node718&#45;&gt;Node719</title>
<path fill="none" stroke="midnightblue" d="M784.225,-10C775.482,-10 766.702,-10 758.187,-10"/>
<polygon fill="midnightblue" stroke="midnightblue" points="784.453,-13.5001 794.453,-10 784.453,-6.5001 784.453,-13.5001"/>
</g>
<!-- Node720 -->
<g id="node12" class="node"><title>Node720</title>
<g id="a_node12"><a xlink:href="classNavEKF3.html#a477020fcf29376e0c2205dbf79728104" target="_top" xlink:title=" ">
<polygon fill="white" stroke="black" points="458.591,-0 458.591,-20 577.409,-20 577.409,-0 458.591,-0"/>
<text text-anchor="middle" x="518" y="-6" font-family="Helvetica,sans-Serif" font-size="10.00">NavEKF3::UpdateFilter</text>
</a>
</g>
</g>
<!-- Node719&#45;&gt;Node720 -->
<g id="edge11" class="edge"><title>Node719&#45;&gt;Node720</title>
<path fill="none" stroke="midnightblue" d="M603.424,-10C594.696,-10 585.946,-10 577.562,-10"/>
<polygon fill="midnightblue" stroke="midnightblue" points="603.638,-13.5001 613.638,-10 603.638,-6.5001 603.638,-13.5001"/>
</g>
<!-- Node721 -->
<g id="node13" class="node"><title>Node721</title>
<g id="a_node13"><a xlink:href="classAP__AHRS__NavEKF.html#a324160404f12959e955554f5aed26459" target="_top" xlink:title=" ">
<polygon fill="white" stroke="black" points="249.904,-0 249.904,-20 422.096,-20 422.096,-0 249.904,-0"/>
<text text-anchor="middle" x="336" y="-6" font-family="Helvetica,sans-Serif" font-size="10.00">AP_AHRS_NavEKF::update_EKF3</text>
</a>
</g>
</g>
<!-- Node720&#45;&gt;Node721 -->
<g id="edge12" class="edge"><title>Node720&#45;&gt;Node721</title>
<path fill="none" stroke="midnightblue" d="M448.321,-10C439.8,-10 431.008,-10 422.275,-10"/>
<polygon fill="midnightblue" stroke="midnightblue" points="448.559,-13.5001 458.559,-10 448.559,-6.5001 448.559,-13.5001"/>
</g>
<!-- Node721&#45;&gt;Node715 -->
<g id="edge13" class="edge"><title>Node721&#45;&gt;Node715</title>
<path fill="none" stroke="midnightblue" d="M239.643,-19.4858C230.946,-20.351 222.247,-21.2163 213.835,-22.053"/>
<polygon fill="midnightblue" stroke="midnightblue" points="240.23,-22.9448 249.834,-18.472 239.537,-15.9792 240.23,-22.9448"/>
</g>
</g>
</svg>
