<?xml version="1.0" encoding="UTF-8" standalone="no"?>
<!DOCTYPE svg PUBLIC "-//W3C//DTD SVG 1.1//EN"
 "http://www.w3.org/Graphics/SVG/1.1/DTD/svg11.dtd">
<!-- Generated by graphviz version 2.30.1 (20130221.2233)
 -->
<!-- Title: NavEKF3_core::UpdateStrapdownEquationsNED Pages: 1 -->
<svg width="1076pt" height="352pt"
 viewBox="0.00 0.00 1076.00 352.00" xmlns="http://www.w3.org/2000/svg" xmlns:xlink="http://www.w3.org/1999/xlink">
<g id="graph0" class="graph" transform="scale(1 1) rotate(0) translate(4 348)">
<title>NavEKF3_core::UpdateStrapdownEquationsNED</title>
<polygon fill="white" stroke="white" points="-4,5 -4,-348 1073,-348 1073,5 -4,5"/>
<!-- Node4244 -->
<g id="node1" class="node"><title>Node4244</title>
<g id="a_node1"><a xlink:title=" ">
<polygon fill="#bfbfbf" stroke="black" points="0.291016,-166 0.291016,-198 169.709,-198 169.709,-166 0.291016,-166"/>
<text text-anchor="start" x="8.29102" y="-184" font-family="Helvetica,sans-Serif" font-size="10.00">NavEKF3_core::UpdateStrapdown</text>
<text text-anchor="middle" x="85" y="-172" font-family="Helvetica,sans-Serif" font-size="10.00">EquationsNED</text>
</a>
</g>
</g>
<!-- Node4245 -->
<g id="node2" class="node"><title>Node4245</title>
<g id="a_node2"><a xlink:href="classQuaternion.html#aad078c52b4d7e9221963199f0dd075df" target="_top" xlink:title=" ">
<polygon fill="white" stroke="black" points="238.697,-315 238.697,-335 335.303,-335 335.303,-315 238.697,-315"/>
<text text-anchor="middle" x="287" y="-321" font-family="Helvetica,sans-Serif" font-size="10.00">Quaternion::rotate</text>
</a>
</g>
</g>
<!-- Node4244&#45;&gt;Node4245 -->
<g id="edge1" class="edge"><title>Node4244&#45;&gt;Node4245</title>
<path fill="none" stroke="midnightblue" d="M97.7359,-198.184C117.287,-223.978 159.046,-274.32 206,-302 213.081,-306.174 220.964,-309.629 228.943,-312.478"/>
<polygon fill="midnightblue" stroke="midnightblue" points="228.084,-315.879 238.677,-315.66 230.259,-309.226 228.084,-315.879"/>
</g>
<!-- Node4248 -->
<g id="node5" class="node"><title>Node4248</title>
<g id="a_node5"><a xlink:href="classQuaternion.html#a48e6bafb249c895ed25f29dc9170e11e" target="_top" xlink:title=" ">
<polygon fill="white" stroke="black" points="229.808,-273 229.808,-293 344.192,-293 344.192,-273 229.808,-273"/>
<text text-anchor="middle" x="287" y="-279" font-family="Helvetica,sans-Serif" font-size="10.00">Quaternion::normalize</text>
</a>
</g>
</g>
<!-- Node4244&#45;&gt;Node4248 -->
<g id="edge4" class="edge"><title>Node4244&#45;&gt;Node4248</title>
<path fill="none" stroke="midnightblue" d="M105.118,-198.038C127.805,-216.295 167.432,-245.806 206,-263 211.835,-265.601 218.067,-267.903 224.379,-269.932"/>
<polygon fill="midnightblue" stroke="midnightblue" points="223.737,-273.393 234.321,-272.897 225.738,-266.685 223.737,-273.393"/>
</g>
<!-- Node4251 -->
<g id="node8" class="node"><title>Node4251</title>
<g id="a_node8"><a xlink:href="classMatrix3.html#a212a94e2a9c26def827fa766f4d0ae3e" target="_top" xlink:title=" ">
<polygon fill="white" stroke="black" points="227.035,-234 227.035,-254 346.965,-254 346.965,-234 227.035,-234"/>
<text text-anchor="middle" x="287" y="-240" font-family="Helvetica,sans-Serif" font-size="10.00">Matrix3::mul_transpose</text>
</a>
</g>
</g>
<!-- Node4244&#45;&gt;Node4251 -->
<g id="edge8" class="edge"><title>Node4244&#45;&gt;Node4251</title>
<path fill="none" stroke="midnightblue" d="M128.732,-198.027C151.506,-206.297 180.097,-216.247 206,-224 214.57,-226.565 223.722,-229.069 232.662,-231.39"/>
<polygon fill="midnightblue" stroke="midnightblue" points="232.069,-234.85 242.623,-233.925 233.795,-228.067 232.069,-234.85"/>
</g>
<!-- Node4252 -->
<g id="node9" class="node"><title>Node4252</title>
<g id="a_node9"><a xlink:href="classQuaternion.html#aca6ca416a75f8ad627a85cfca7d6c250" target="_top" xlink:title=" ">
<polygon fill="white" stroke="black" points="235.365,-195 235.365,-215 338.635,-215 338.635,-195 235.365,-195"/>
<text text-anchor="middle" x="287" y="-201" font-family="Helvetica,sans-Serif" font-size="10.00">Quaternion::inverse</text>
</a>
</g>
</g>
<!-- Node4244&#45;&gt;Node4252 -->
<g id="edge9" class="edge"><title>Node4244&#45;&gt;Node4252</title>
<path fill="none" stroke="midnightblue" d="M169.949,-191.654C188.536,-193.792 207.882,-196.016 225.329,-198.023"/>
<polygon fill="midnightblue" stroke="midnightblue" points="225.028,-201.511 235.362,-199.177 225.827,-194.557 225.028,-201.511"/>
</g>
<!-- Node4254 -->
<g id="node11" class="node"><title>Node4254</title>
<g id="a_node11"><a xlink:href="classQuaternion.html#a765626a23ca350f7f92b3169d68f9973" target="_top" xlink:title=" ">
<polygon fill="white" stroke="black" points="234.806,-144 234.806,-176 339.194,-176 339.194,-144 234.806,-144"/>
<text text-anchor="start" x="242.806" y="-162" font-family="Helvetica,sans-Serif" font-size="10.00">Quaternion::rotation</text>
<text text-anchor="middle" x="287" y="-150" font-family="Helvetica,sans-Serif" font-size="10.00">_matrix</text>
</a>
</g>
</g>
<!-- Node4244&#45;&gt;Node4254 -->
<g id="edge11" class="edge"><title>Node4244&#45;&gt;Node4254</title>
<path fill="none" stroke="midnightblue" d="M169.949,-172.766C188.357,-170.741 207.51,-168.634 224.825,-166.729"/>
<polygon fill="midnightblue" stroke="midnightblue" points="225.231,-170.206 234.788,-165.633 224.465,-163.248 225.231,-170.206"/>
</g>
<!-- Node4255 -->
<g id="node12" class="node"><title>Node4255</title>
<g id="a_node12"><a xlink:href="classVector3.html#afcdfe81173c23d57e4a53a0282cddae7" target="_top" xlink:title=" ">
<polygon fill="white" stroke="black" points="245.641,-105 245.641,-125 328.359,-125 328.359,-105 245.641,-105"/>
<text text-anchor="middle" x="287" y="-111" font-family="Helvetica,sans-Serif" font-size="10.00">Vector3::length</text>
</a>
</g>
</g>
<!-- Node4244&#45;&gt;Node4255 -->
<g id="edge12" class="edge"><title>Node4244&#45;&gt;Node4255</title>
<path fill="none" stroke="midnightblue" d="M121.992,-165.987C145.567,-155.902 177.23,-143.116 206,-134 215.492,-130.992 225.75,-128.213 235.653,-125.761"/>
<polygon fill="midnightblue" stroke="midnightblue" points="236.489,-129.16 245.395,-123.422 234.854,-122.354 236.489,-129.16"/>
</g>
<!-- Node4256 -->
<g id="node13" class="node"><title>Node4256</title>
<g id="a_node13"><a xlink:href="AP__Math_8h.html#a45fe9f81332c93a04d1fdbcf0bc89c29" target="_top" xlink:title=" ">
<polygon fill="white" stroke="black" points="445.608,-111 445.608,-131 484.392,-131 484.392,-111 445.608,-111"/>
<text text-anchor="middle" x="465" y="-117" font-family="Helvetica,sans-Serif" font-size="10.00">norm</text>
</a>
</g>
</g>
<!-- Node4244&#45;&gt;Node4256 -->
<g id="edge13" class="edge"><title>Node4244&#45;&gt;Node4256</title>
<path fill="none" stroke="midnightblue" d="M101.211,-165.916C122.356,-144.854 162.92,-108.973 206,-95 286.357,-68.9353 387.535,-95.0525 435.833,-110.856"/>
<polygon fill="midnightblue" stroke="midnightblue" points="434.716,-114.173 445.31,-114.049 436.951,-107.539 434.716,-114.173"/>
</g>
<!-- Node4257 -->
<g id="node14" class="node"><title>Node4257</title>
<g id="a_node14"><a xlink:href="classNavEKF3__core.html#ab3fc055c453339a59363ebaa1b082c0d" target="_top" xlink:title=" ">
<polygon fill="white" stroke="black" points="206.744,-27 206.744,-47 367.256,-47 367.256,-27 206.744,-27"/>
<text text-anchor="middle" x="287" y="-33" font-family="Helvetica,sans-Serif" font-size="10.00">NavEKF3_core::ConstrainStates</text>
</a>
</g>
</g>
<!-- Node4244&#45;&gt;Node4257 -->
<g id="edge15" class="edge"><title>Node4244&#45;&gt;Node4257</title>
<path fill="none" stroke="midnightblue" d="M97.8099,-165.94C117.465,-140.319 159.366,-90.2169 206,-62 213.598,-57.4025 222.12,-53.5763 230.694,-50.4148"/>
<polygon fill="midnightblue" stroke="midnightblue" points="232.015,-53.6625 240.35,-47.1222 229.755,-47.0372 232.015,-53.6625"/>
</g>
<!-- Node4246 -->
<g id="node3" class="node"><title>Node4246</title>
<g id="a_node3"><a xlink:href="classQuaternion.html#a6c21fe33378aa16a33cba869ba4af5dc" target="_top" xlink:title=" ">
<polygon fill="white" stroke="black" points="407.811,-312 407.811,-344 522.189,-344 522.189,-312 407.811,-312"/>
<text text-anchor="start" x="415.811" y="-330" font-family="Helvetica,sans-Serif" font-size="10.00">Quaternion::from_axis</text>
<text text-anchor="middle" x="465" y="-318" font-family="Helvetica,sans-Serif" font-size="10.00">_angle</text>
</a>
</g>
</g>
<!-- Node4245&#45;&gt;Node4246 -->
<g id="edge2" class="edge"><title>Node4245&#45;&gt;Node4246</title>
<path fill="none" stroke="midnightblue" d="M335.628,-325.812C354.614,-326.135 376.8,-326.514 397.336,-326.864"/>
<polygon fill="midnightblue" stroke="midnightblue" points="397.522,-330.367 407.581,-327.038 397.642,-323.368 397.522,-330.367"/>
</g>
<!-- Node4247 -->
<g id="node4" class="node"><title>Node4247</title>
<g id="a_node4"><a xlink:href="AP__Math_8h.html#a2a12cce483e9b870da70d30406d82c60" target="_top" xlink:title=" ">
<polygon fill="white" stroke="black" points="580.882,-295 580.882,-315 629.118,-315 629.118,-295 580.882,-295"/>
<text text-anchor="middle" x="605" y="-301" font-family="Helvetica,sans-Serif" font-size="10.00">is_zero</text>
</a>
</g>
</g>
<!-- Node4246&#45;&gt;Node4247 -->
<g id="edge3" class="edge"><title>Node4246&#45;&gt;Node4247</title>
<path fill="none" stroke="midnightblue" d="M522.528,-318.579C538.94,-315.843 556.325,-312.946 570.802,-310.533"/>
<polygon fill="midnightblue" stroke="midnightblue" points="571.486,-313.967 580.774,-308.871 570.335,-307.063 571.486,-313.967"/>
</g>
<!-- Node4249 -->
<g id="node6" class="node"><title>Node4249</title>
<g id="a_node6"><a xlink:href="classQuaternion.html#a8f414875fdf99c0da07cbbc721787cd2" target="_top" xlink:title=" ">
<polygon fill="white" stroke="black" points="415.86,-234 415.86,-254 514.14,-254 514.14,-234 415.86,-234"/>
<text text-anchor="middle" x="465" y="-240" font-family="Helvetica,sans-Serif" font-size="10.00">Quaternion::length</text>
</a>
</g>
</g>
<!-- Node4248&#45;&gt;Node4249 -->
<g id="edge5" class="edge"><title>Node4248&#45;&gt;Node4249</title>
<path fill="none" stroke="midnightblue" d="M333.324,-272.957C356.42,-267.839 384.69,-261.574 409.021,-256.183"/>
<polygon fill="midnightblue" stroke="midnightblue" points="409.823,-259.59 418.829,-254.009 408.309,-252.756 409.823,-259.59"/>
</g>
<!-- Node4248&#45;&gt;Node4247 -->
<g id="edge7" class="edge"><title>Node4248&#45;&gt;Node4247</title>
<path fill="none" stroke="midnightblue" d="M344.494,-286.933C410.234,-291.51 516.63,-298.917 570.483,-302.667"/>
<polygon fill="midnightblue" stroke="midnightblue" points="570.306,-306.163 580.525,-303.366 570.792,-299.179 570.306,-306.163"/>
</g>
<!-- Node4250 -->
<g id="node7" class="node"><title>Node4250</title>
<g id="a_node7"><a xlink:href="AP__Math_8h.html#a0375e3d67fd3911cacee5c3e1408c0f2" target="_top" xlink:title=" ">
<polygon fill="white" stroke="black" points="590.5,-175 590.5,-195 619.5,-195 619.5,-175 590.5,-175"/>
<text text-anchor="middle" x="605" y="-181" font-family="Helvetica,sans-Serif" font-size="10.00">sq</text>
</a>
</g>
</g>
<!-- Node4249&#45;&gt;Node4250 -->
<g id="edge6" class="edge"><title>Node4249&#45;&gt;Node4250</title>
<path fill="none" stroke="midnightblue" d="M499.007,-233.931C507.866,-230.976 517.377,-227.572 526,-224 545.047,-216.11 565.9,-205.579 581.249,-197.449"/>
<polygon fill="midnightblue" stroke="midnightblue" points="583.309,-200.317 590.466,-192.505 580,-194.148 583.309,-200.317"/>
</g>
<!-- Node4253 -->
<g id="node10" class="node"><title>Node4253</title>
<g id="a_node10"><a xlink:href="classQuaternion.html#abcc01358aada56ea5f0db4da18aaf77d" target="_top" xlink:title=" ">
<polygon fill="white" stroke="black" points="404.744,-195 404.744,-215 525.256,-215 525.256,-195 404.744,-195"/>
<text text-anchor="middle" x="465" y="-201" font-family="Helvetica,sans-Serif" font-size="10.00">Quaternion::Quaternion</text>
</a>
</g>
</g>
<!-- Node4252&#45;&gt;Node4253 -->
<g id="edge10" class="edge"><title>Node4252&#45;&gt;Node4253</title>
<path fill="none" stroke="midnightblue" d="M338.906,-205C356.21,-205 375.855,-205 394.365,-205"/>
<polygon fill="midnightblue" stroke="midnightblue" points="394.51,-208.5 404.51,-205 394.51,-201.5 394.51,-208.5"/>
</g>
<!-- Node4256&#45;&gt;Node4250 -->
<g id="edge14" class="edge"><title>Node4256&#45;&gt;Node4250</title>
<path fill="none" stroke="midnightblue" d="M484.611,-129.631C509.641,-141.239 554.123,-161.868 581.153,-174.404"/>
<polygon fill="midnightblue" stroke="midnightblue" points="579.709,-177.593 590.254,-178.625 582.654,-171.242 579.709,-177.593"/>
</g>
<!-- Node4258 -->
<g id="node15" class="node"><title>Node4258</title>
<g id="a_node15"><a xlink:href="AP__Math_8h.html#ad525609d9dba6ffa556a0fbf08a3f9b4" target="_top" xlink:title=" ">
<polygon fill="white" stroke="black" points="424.48,-47 424.48,-67 505.52,-67 505.52,-47 424.48,-47"/>
<text text-anchor="middle" x="465" y="-53" font-family="Helvetica,sans-Serif" font-size="10.00">constrain_float</text>
</a>
</g>
</g>
<!-- Node4257&#45;&gt;Node4258 -->
<g id="edge16" class="edge"><title>Node4257&#45;&gt;Node4258</title>
<path fill="none" stroke="midnightblue" d="M367.504,-46.0345C383.338,-47.8338 399.542,-49.6752 414.04,-51.3227"/>
<polygon fill="midnightblue" stroke="midnightblue" points="413.934,-54.8332 424.266,-52.4847 414.725,-47.8779 413.934,-54.8332"/>
</g>
<!-- Node4265 -->
<g id="node22" class="node"><title>Node4265</title>
<g id="a_node22"><a xlink:href="AP__Math_8h.html#a5abc8871f1e7781a55afe9bf299f0a39" target="_top" xlink:title=" ">
<polygon fill="white" stroke="black" points="446.165,-8 446.165,-28 483.835,-28 483.835,-8 446.165,-8"/>
<text text-anchor="middle" x="465" y="-14" font-family="Helvetica,sans-Serif" font-size="10.00">MAX</text>
</a>
</g>
</g>
<!-- Node4257&#45;&gt;Node4265 -->
<g id="edge23" class="edge"><title>Node4257&#45;&gt;Node4265</title>
<path fill="none" stroke="midnightblue" d="M367.504,-28.4172C392.025,-25.7701 417.433,-23.0271 436.019,-21.0207"/>
<polygon fill="midnightblue" stroke="midnightblue" points="436.549,-24.4839 446.115,-19.9307 435.797,-17.5243 436.549,-24.4839"/>
</g>
<!-- Node4259 -->
<g id="node16" class="node"><title>Node4259</title>
<g id="a_node16"><a xlink:href="AP__Math_8h.html#a20e8f8671c282c69c1954652b6d61585" target="_top" xlink:title=" ">
<polygon fill="white" stroke="black" points="561.978,-47 561.978,-67 648.022,-67 648.022,-47 561.978,-47"/>
<text text-anchor="middle" x="605" y="-53" font-family="Helvetica,sans-Serif" font-size="10.00">constrain_value</text>
</a>
</g>
</g>
<!-- Node4258&#45;&gt;Node4259 -->
<g id="edge17" class="edge"><title>Node4258&#45;&gt;Node4259</title>
<path fill="none" stroke="midnightblue" d="M505.545,-57C519.782,-57 536.078,-57 551.261,-57"/>
<polygon fill="midnightblue" stroke="midnightblue" points="551.555,-60.5001 561.555,-57 551.555,-53.5001 551.555,-60.5001"/>
</g>
<!-- Node4260 -->
<g id="node17" class="node"><title>Node4260</title>
<g id="a_node17"><a xlink:href="namespaceAP.html#afceb236ff617aaaa2b08afacd72532b0" target="_top" xlink:title=" ">
<polygon fill="white" stroke="black" points="698.596,-67 698.596,-87 787.404,-87 787.404,-67 698.596,-67"/>
<text text-anchor="middle" x="743" y="-73" font-family="Helvetica,sans-Serif" font-size="10.00">AP::internalerror</text>
</a>
</g>
</g>
<!-- Node4259&#45;&gt;Node4260 -->
<g id="edge18" class="edge"><title>Node4259&#45;&gt;Node4260</title>
<path fill="none" stroke="midnightblue" d="M648.286,-63.2185C660.962,-65.0826 675.035,-67.1523 688.342,-69.1091"/>
<polygon fill="midnightblue" stroke="midnightblue" points="687.929,-72.5859 698.331,-70.5782 688.947,-65.6604 687.929,-72.5859"/>
</g>
<!-- Node4261 -->
<g id="node18" class="node"><title>Node4261</title>
<g id="a_node18"><a xlink:href="classAP__InternalError.html#ab34174ba770b976b39a18c2b23e854f2" target="_top" xlink:title=" ">
<polygon fill="white" stroke="black" points="684.426,-28 684.426,-48 801.574,-48 801.574,-28 684.426,-28"/>
<text text-anchor="middle" x="743" y="-34" font-family="Helvetica,sans-Serif" font-size="10.00">AP_InternalError::error</text>
</a>
</g>
</g>
<!-- Node4259&#45;&gt;Node4261 -->
<g id="edge19" class="edge"><title>Node4259&#45;&gt;Node4261</title>
<path fill="none" stroke="midnightblue" d="M648.286,-51.0924C656.557,-49.9369 665.424,-48.6981 674.284,-47.4603"/>
<polygon fill="midnightblue" stroke="midnightblue" points="674.833,-50.9177 684.253,-46.0676 673.865,-43.985 674.833,-50.9177"/>
</g>
<!-- Node4262 -->
<g id="node19" class="node"><title>Node4262</title>
<g id="a_node19"><a xlink:href="namespaceAP__HAL.html#a71832f03d849a0c088f04fc98d3c8143" target="_top" xlink:title=" ">
<polygon fill="white" stroke="black" points="838.091,-28 838.091,-48 921.909,-48 921.909,-28 838.091,-28"/>
<text text-anchor="middle" x="880" y="-34" font-family="Helvetica,sans-Serif" font-size="10.00">AP_HAL::panic</text>
</a>
</g>
</g>
<!-- Node4261&#45;&gt;Node4262 -->
<g id="edge20" class="edge"><title>Node4261&#45;&gt;Node4262</title>
<path fill="none" stroke="midnightblue" d="M801.644,-38C810.305,-38 819.188,-38 827.705,-38"/>
<polygon fill="midnightblue" stroke="midnightblue" points="827.873,-41.5001 837.873,-38 827.872,-34.5001 827.873,-41.5001"/>
</g>
<!-- Node4263 -->
<g id="node20" class="node"><title>Node4263</title>
<g id="a_node20"><a xlink:href="stdio_8h.html#aae132cc6af1eb6cf43bf011d8d63e854" target="_top" xlink:title=" ">
<polygon fill="white" stroke="black" points="991.384,-51 991.384,-71 1034.62,-71 1034.62,-51 991.384,-51"/>
<text text-anchor="middle" x="1013" y="-57" font-family="Helvetica,sans-Serif" font-size="10.00">vprintf</text>
</a>
</g>
</g>
<!-- Node4262&#45;&gt;Node4263 -->
<g id="edge21" class="edge"><title>Node4262&#45;&gt;Node4263</title>
<path fill="none" stroke="midnightblue" d="M922.09,-45.2142C941.104,-48.5526 963.321,-52.4533 980.913,-55.542"/>
<polygon fill="midnightblue" stroke="midnightblue" points="980.744,-59.0658 991.199,-57.3478 981.954,-52.1712 980.744,-59.0658"/>
</g>
<!-- Node4264 -->
<g id="node21" class="node"><title>Node4264</title>
<g id="a_node21"><a xlink:href="classAP__HAL_1_1Scheduler.html#a78c4f1b1f192ac1c99544b6cc8f099b0" target="_top" xlink:title=" ">
<polygon fill="white" stroke="black" points="957.751,-0 957.751,-32 1068.25,-32 1068.25,-0 957.751,-0"/>
<text text-anchor="start" x="965.751" y="-18" font-family="Helvetica,sans-Serif" font-size="10.00">AP_HAL::Scheduler::</text>
<text text-anchor="middle" x="1013" y="-6" font-family="Helvetica,sans-Serif" font-size="10.00">delay_microseconds</text>
</a>
</g>
</g>
<!-- Node4262&#45;&gt;Node4264 -->
<g id="edge22" class="edge"><title>Node4262&#45;&gt;Node4264</title>
<path fill="none" stroke="midnightblue" d="M922.09,-31.0994C930.18,-29.7408 938.849,-28.2849 947.495,-26.8329"/>
<polygon fill="midnightblue" stroke="midnightblue" points="948.316,-30.2441 957.599,-25.1361 947.157,-23.3407 948.316,-30.2441"/>
</g>
</g>
</svg>
