<?xml version="1.0" encoding="UTF-8" standalone="no"?>
<!DOCTYPE svg PUBLIC "-//W3C//DTD SVG 1.1//EN"
 "http://www.w3.org/Graphics/SVG/1.1/DTD/svg11.dtd">
<!-- Generated by graphviz version 2.30.1 (20130221.2233)
 -->
<!-- Title: AP_InertialSensor::use_accel Pages: 1 -->
<svg width="1812pt" height="367pt"
 viewBox="0.00 0.00 1812.00 367.00" xmlns="http://www.w3.org/2000/svg" xmlns:xlink="http://www.w3.org/1999/xlink">
<g id="graph0" class="graph" transform="scale(1 1) rotate(0) translate(4 363)">
<title>AP_InertialSensor::use_accel</title>
<polygon fill="white" stroke="white" points="-4,5 -4,-363 1809,-363 1809,5 -4,5"/>
<!-- Node5031 -->
<g id="node1" class="node"><title>Node5031</title>
<g id="a_node1"><a xlink:title=" ">
<polygon fill="#bfbfbf" stroke="black" points="1701.92,-185 1701.92,-217 1804.08,-217 1804.08,-185 1701.92,-185"/>
<text text-anchor="start" x="1709.92" y="-203" font-family="Helvetica,sans-Serif" font-size="10.00">AP_InertialSensor::</text>
<text text-anchor="middle" x="1753" y="-191" font-family="Helvetica,sans-Serif" font-size="10.00">use_accel</text>
</a>
</g>
</g>
<!-- Node5032 -->
<g id="node2" class="node"><title>Node5032</title>
<g id="a_node2"><a xlink:href="classAP__AHRS__DCM.html#a8c3304b59bc6a27f24c686985c100549" target="_top" xlink:title=" ">
<polygon fill="white" stroke="black" points="1536.38,-236 1536.38,-268 1649.62,-268 1649.62,-236 1536.38,-236"/>
<text text-anchor="start" x="1544.38" y="-254" font-family="Helvetica,sans-Serif" font-size="10.00">AP_AHRS_DCM::drift</text>
<text text-anchor="middle" x="1593" y="-242" font-family="Helvetica,sans-Serif" font-size="10.00">_correction</text>
</a>
</g>
</g>
<!-- Node5031&#45;&gt;Node5032 -->
<g id="edge1" class="edge"><title>Node5031&#45;&gt;Node5032</title>
<path fill="none" stroke="midnightblue" d="M1692.21,-220.3C1676.2,-225.468 1659.07,-230.998 1643.67,-235.968"/>
<polygon fill="midnightblue" stroke="midnightblue" points="1693.57,-223.539 1702.01,-217.137 1691.42,-216.878 1693.57,-223.539"/>
</g>
<!-- Node5038 -->
<g id="node8" class="node"><title>Node5038</title>
<g id="a_node8"><a xlink:href="classAP__Arming.html#a19bb15e880d04c7543961ce363ddd343" target="_top" xlink:title=" ">
<polygon fill="white" stroke="black" points="1533.59,-326 1533.59,-358 1652.41,-358 1652.41,-326 1533.59,-326"/>
<text text-anchor="start" x="1541.59" y="-344" font-family="Helvetica,sans-Serif" font-size="10.00">AP_Arming::ins_accels</text>
<text text-anchor="middle" x="1593" y="-332" font-family="Helvetica,sans-Serif" font-size="10.00">_consistent</text>
</a>
</g>
</g>
<!-- Node5031&#45;&gt;Node5038 -->
<g id="edge7" class="edge"><title>Node5031&#45;&gt;Node5038</title>
<path fill="none" stroke="midnightblue" d="M1737.64,-225.992C1722.5,-250.448 1696.64,-287.373 1666,-311 1658.46,-316.818 1649.65,-321.771 1640.85,-325.899"/>
<polygon fill="midnightblue" stroke="midnightblue" points="1740.72,-227.652 1742.9,-217.283 1734.73,-224.032 1740.72,-227.652"/>
</g>
<!-- Node5050 -->
<g id="node20" class="node"><title>Node5050</title>
<g id="a_node20"><a xlink:href="classAP__InertialSensor.html#a38a02931e6daedb5177a6006abcbd0db" target="_top" xlink:title=" ">
<polygon fill="white" stroke="black" points="1357.92,-281 1357.92,-313 1460.08,-313 1460.08,-281 1357.92,-281"/>
<text text-anchor="start" x="1365.92" y="-299" font-family="Helvetica,sans-Serif" font-size="10.00">AP_InertialSensor::</text>
<text text-anchor="middle" x="1409" y="-287" font-family="Helvetica,sans-Serif" font-size="10.00">kill_imu</text>
</a>
</g>
</g>
<!-- Node5031&#45;&gt;Node5050 -->
<g id="edge19" class="edge"><title>Node5031&#45;&gt;Node5050</title>
<path fill="none" stroke="midnightblue" d="M1732.74,-224.864C1716.89,-242.624 1692.73,-265.673 1666,-277 1599.1,-305.355 1513.6,-305.71 1460.32,-302.225"/>
<polygon fill="midnightblue" stroke="midnightblue" points="1735.53,-226.991 1739.43,-217.137 1730.24,-222.412 1735.53,-226.991"/>
</g>
<!-- Node5051 -->
<g id="node21" class="node"><title>Node5051</title>
<g id="a_node21"><a xlink:href="classNavEKF2__core.html#a81897b2b567feef251bc532845c5f13e" target="_top" xlink:title=" ">
<polygon fill="white" stroke="black" points="1519.97,-57 1519.97,-89 1666.03,-89 1666.03,-57 1519.97,-57"/>
<text text-anchor="start" x="1527.97" y="-75" font-family="Helvetica,sans-Serif" font-size="10.00">NavEKF2_core::learnInactive</text>
<text text-anchor="middle" x="1593" y="-63" font-family="Helvetica,sans-Serif" font-size="10.00">Biases</text>
</a>
</g>
</g>
<!-- Node5031&#45;&gt;Node5051 -->
<g id="edge21" class="edge"><title>Node5031&#45;&gt;Node5051</title>
<path fill="none" stroke="midnightblue" d="M1735.24,-176.665C1719.44,-155.207 1694.05,-124.282 1666,-104 1658.06,-98.2588 1648.89,-93.2949 1639.81,-89.1252"/>
<polygon fill="midnightblue" stroke="midnightblue" points="1732.52,-178.877 1741.21,-184.943 1738.2,-174.784 1732.52,-178.877"/>
</g>
<!-- Node5060 -->
<g id="node30" class="node"><title>Node5060</title>
<g id="a_node30"><a xlink:href="classNavEKF3__core.html#a326dc29f3cdeb603cf3531378ac67887" target="_top" xlink:title=" ">
<polygon fill="white" stroke="black" points="1519.97,-185 1519.97,-217 1666.03,-217 1666.03,-185 1519.97,-185"/>
<text text-anchor="start" x="1527.97" y="-203" font-family="Helvetica,sans-Serif" font-size="10.00">NavEKF3_core::learnInactive</text>
<text text-anchor="middle" x="1593" y="-191" font-family="Helvetica,sans-Serif" font-size="10.00">Biases</text>
</a>
</g>
</g>
<!-- Node5031&#45;&gt;Node5060 -->
<g id="edge33" class="edge"><title>Node5031&#45;&gt;Node5060</title>
<path fill="none" stroke="midnightblue" d="M1691.31,-201C1683.07,-201 1674.54,-201 1666.12,-201"/>
<polygon fill="midnightblue" stroke="midnightblue" points="1691.57,-204.5 1701.57,-201 1691.57,-197.5 1691.57,-204.5"/>
</g>
<!-- Node5052 -->
<g id="node22" class="node"><title>Node5052</title>
<g id="a_node22"><a xlink:href="classNavEKF2__core.html#a1f2a0ba92a52069437a3d0a192a6e88c" target="_top" xlink:title=" ">
<polygon fill="white" stroke="black" points="1334.58,-67 1334.58,-87 1483.42,-87 1483.42,-67 1334.58,-67"/>
<text text-anchor="middle" x="1409" y="-73" font-family="Helvetica,sans-Serif" font-size="10.00">NavEKF2_core::readIMUData</text>
</a>
</g>
</g>
<!-- Node5031&#45;&gt;Node5052 -->
<g id="edge44" class="edge"><title>Node5031&#45;&gt;Node5052</title>
<path fill="none" stroke="midnightblue" d="M1710.39,-180.436C1696.43,-173.866 1680.68,-166.8 1666,-161 1588.34,-130.325 1494.52,-101.588 1444.83,-87.0001"/>
<polygon fill="midnightblue" stroke="midnightblue" points="1709.19,-183.745 1719.73,-184.884 1712.2,-177.425 1709.19,-183.745"/>
</g>
<!-- Node5061 -->
<g id="node31" class="node"><title>Node5061</title>
<g id="a_node31"><a xlink:href="classNavEKF3__core.html#aece73c326fbd95e59a3fa171ac5988a3" target="_top" xlink:title=" ">
<polygon fill="white" stroke="black" points="1334.58,-157 1334.58,-177 1483.42,-177 1483.42,-157 1334.58,-157"/>
<text text-anchor="middle" x="1409" y="-163" font-family="Helvetica,sans-Serif" font-size="10.00">NavEKF3_core::readIMUData</text>
</a>
</g>
</g>
<!-- Node5031&#45;&gt;Node5061 -->
<g id="edge45" class="edge"><title>Node5031&#45;&gt;Node5061</title>
<path fill="none" stroke="midnightblue" d="M1697.31,-182.133C1687.02,-179.252 1676.27,-176.682 1666,-175 1605.12,-165.024 1535.03,-163.511 1483.6,-164.219"/>
<polygon fill="midnightblue" stroke="midnightblue" points="1696.42,-185.52 1707,-184.972 1698.39,-178.802 1696.42,-185.52"/>
</g>
<!-- Node5033 -->
<g id="node3" class="node"><title>Node5033</title>
<g id="a_node3"><a xlink:href="classAP__AHRS__DCM.html#aa8a135d6852e94f279c0be3c8206bfdd" target="_top" xlink:title=" ">
<polygon fill="white" stroke="black" points="1345.42,-242 1345.42,-262 1472.58,-262 1472.58,-242 1345.42,-242"/>
<text text-anchor="middle" x="1409" y="-248" font-family="Helvetica,sans-Serif" font-size="10.00">AP_AHRS_DCM::update</text>
</a>
</g>
</g>
<!-- Node5032&#45;&gt;Node5033 -->
<g id="edge2" class="edge"><title>Node5032&#45;&gt;Node5033</title>
<path fill="none" stroke="midnightblue" d="M1525.9,-252C1508.61,-252 1490.01,-252 1472.89,-252"/>
<polygon fill="midnightblue" stroke="midnightblue" points="1525.91,-255.5 1535.91,-252 1525.91,-248.5 1525.91,-255.5"/>
</g>
<!-- Node5034 -->
<g id="node4" class="node"><title>Node5034</title>
<g id="a_node4"><a xlink:href="ModuleTest_8cpp.html#afe461d27b9c48d5921c00d521181f12f" target="_top" xlink:title=" ">
<polygon fill="white" stroke="black" points="1208.55,-207 1208.55,-227 1243.45,-227 1243.45,-207 1208.55,-207"/>
<text text-anchor="middle" x="1226" y="-213" font-family="Helvetica,sans-Serif" font-size="10.00">loop</text>
</a>
</g>
</g>
<!-- Node5033&#45;&gt;Node5034 -->
<g id="edge3" class="edge"><title>Node5033&#45;&gt;Node5034</title>
<path fill="none" stroke="midnightblue" d="M1346.1,-240.031C1309.82,-233.016 1266.71,-224.679 1243.6,-220.21"/>
<polygon fill="midnightblue" stroke="midnightblue" points="1345.65,-243.508 1356.13,-241.97 1346.98,-236.635 1345.65,-243.508"/>
</g>
<!-- Node5035 -->
<g id="node5" class="node"><title>Node5035</title>
<g id="a_node5"><a xlink:href="classAP__AHRS__NavEKF.html#a7ce0035d07be995b5f45ac6c711570ce" target="_top" xlink:title=" ">
<polygon fill="white" stroke="black" points="559.022,-223 559.022,-243 728.978,-243 728.978,-223 559.022,-223"/>
<text text-anchor="middle" x="644" y="-229" font-family="Helvetica,sans-Serif" font-size="10.00">AP_AHRS_NavEKF::update_DCM</text>
</a>
</g>
</g>
<!-- Node5033&#45;&gt;Node5035 -->
<g id="edge4" class="edge"><title>Node5033&#45;&gt;Node5035</title>
<path fill="none" stroke="midnightblue" d="M1334.89,-250.179C1192.67,-246.638 879.567,-238.841 729.047,-235.093"/>
<polygon fill="midnightblue" stroke="midnightblue" points="1335.15,-253.687 1345.24,-250.437 1335.33,-246.689 1335.15,-253.687"/>
</g>
<!-- Node5036 -->
<g id="node6" class="node"><title>Node5036</title>
<g id="a_node6"><a xlink:href="classAP__AHRS__NavEKF.html#ac8111979c5dc37a55b2c50818534ea52" target="_top" xlink:title=" ">
<polygon fill="white" stroke="black" points="380.19,-168 380.19,-188 521.81,-188 521.81,-168 380.19,-168"/>
<text text-anchor="middle" x="451" y="-174" font-family="Helvetica,sans-Serif" font-size="10.00">AP_AHRS_NavEKF::update</text>
</a>
</g>
</g>
<!-- Node5035&#45;&gt;Node5036 -->
<g id="edge5" class="edge"><title>Node5035&#45;&gt;Node5036</title>
<path fill="none" stroke="midnightblue" d="M598.273,-220.12C564.25,-210.323 518.107,-197.036 486.81,-188.024"/>
<polygon fill="midnightblue" stroke="midnightblue" points="597.39,-223.508 607.968,-222.912 599.327,-216.782 597.39,-223.508"/>
</g>
<!-- Node5037 -->
<g id="node7" class="node"><title>Node5037</title>
<g id="a_node7"><a xlink:href="AHRS__Test_8cpp.html#afe461d27b9c48d5921c00d521181f12f" target="_top" xlink:title=" ">
<polygon fill="white" stroke="black" points="259.547,-168 259.547,-188 294.453,-188 294.453,-168 259.547,-168"/>
<text text-anchor="middle" x="277" y="-174" font-family="Helvetica,sans-Serif" font-size="10.00">loop</text>
</a>
</g>
</g>
<!-- Node5036&#45;&gt;Node5037 -->
<g id="edge6" class="edge"><title>Node5036&#45;&gt;Node5037</title>
<path fill="none" stroke="midnightblue" d="M369.705,-178C341.486,-178 312.445,-178 294.805,-178"/>
<polygon fill="midnightblue" stroke="midnightblue" points="370.041,-181.5 380.041,-178 370.041,-174.5 370.041,-181.5"/>
</g>
<!-- Node5039 -->
<g id="node9" class="node"><title>Node5039</title>
<g id="a_node9"><a xlink:href="classAP__Arming.html#a98bb929393d206413a92adb94d443fc8" target="_top" xlink:title=" ">
<polygon fill="white" stroke="black" points="1348.2,-332 1348.2,-352 1469.8,-352 1469.8,-332 1348.2,-332"/>
<text text-anchor="middle" x="1409" y="-338" font-family="Helvetica,sans-Serif" font-size="10.00">AP_Arming::ins_checks</text>
</a>
</g>
</g>
<!-- Node5038&#45;&gt;Node5039 -->
<g id="edge8" class="edge"><title>Node5038&#45;&gt;Node5039</title>
<path fill="none" stroke="midnightblue" d="M1523.26,-342C1505.75,-342 1487.08,-342 1470.04,-342"/>
<polygon fill="midnightblue" stroke="midnightblue" points="1523.41,-345.5 1533.41,-342 1523.41,-338.5 1523.41,-345.5"/>
</g>
<!-- Node5040 -->
<g id="node10" class="node"><title>Node5040</title>
<g id="a_node10"><a xlink:href="classAP__Arming.html#a73c03baf7f22b7124a2ac9e9286a850a" target="_top" xlink:title=" ">
<polygon fill="white" stroke="black" points="1171.32,-326 1171.32,-358 1280.68,-358 1280.68,-326 1171.32,-326"/>
<text text-anchor="start" x="1179.32" y="-344" font-family="Helvetica,sans-Serif" font-size="10.00">AP_Arming::pre_arm</text>
<text text-anchor="middle" x="1226" y="-332" font-family="Helvetica,sans-Serif" font-size="10.00">_checks</text>
</a>
</g>
</g>
<!-- Node5039&#45;&gt;Node5040 -->
<g id="edge9" class="edge"><title>Node5039&#45;&gt;Node5040</title>
<path fill="none" stroke="midnightblue" d="M1337.89,-342C1318.92,-342 1298.68,-342 1280.76,-342"/>
<polygon fill="midnightblue" stroke="midnightblue" points="1337.98,-345.5 1347.98,-342 1337.98,-338.5 1337.98,-345.5"/>
</g>
<!-- Node5041 -->
<g id="node11" class="node"><title>Node5041</title>
<g id="a_node11"><a xlink:href="classAP__Arming.html#abeebfae7f8ef321308d6ca739c25d4f9" target="_top" xlink:title=" ">
<polygon fill="white" stroke="black" points="1001.32,-329 1001.32,-349 1090.68,-349 1090.68,-329 1001.32,-329"/>
<text text-anchor="middle" x="1046" y="-335" font-family="Helvetica,sans-Serif" font-size="10.00">AP_Arming::arm</text>
</a>
</g>
</g>
<!-- Node5040&#45;&gt;Node5041 -->
<g id="edge10" class="edge"><title>Node5040&#45;&gt;Node5041</title>
<path fill="none" stroke="midnightblue" d="M1160.97,-340.921C1137.71,-340.529 1111.97,-340.095 1090.85,-339.739"/>
<polygon fill="midnightblue" stroke="midnightblue" points="1161.05,-344.423 1171.11,-341.092 1161.17,-337.424 1161.05,-344.423"/>
</g>
<!-- Node5042 -->
<g id="node12" class="node"><title>Node5042</title>
<g id="a_node12"><a xlink:href="classRC__Channel.html#a070b1061842188951985a20f5d1a886f" target="_top" xlink:title=" ">
<polygon fill="white" stroke="black" points="796.19,-300 796.19,-332 907.81,-332 907.81,-300 796.19,-300"/>
<text text-anchor="start" x="804.19" y="-318" font-family="Helvetica,sans-Serif" font-size="10.00">RC_Channel::do_aux</text>
<text text-anchor="middle" x="852" y="-306" font-family="Helvetica,sans-Serif" font-size="10.00">_function</text>
</a>
</g>
</g>
<!-- Node5041&#45;&gt;Node5042 -->
<g id="edge11" class="edge"><title>Node5041&#45;&gt;Node5042</title>
<path fill="none" stroke="midnightblue" d="M990.905,-332.52C964.942,-329.41 933.891,-325.69 907.833,-322.569"/>
<polygon fill="midnightblue" stroke="midnightblue" points="990.606,-336.009 1000.95,-333.723 991.439,-329.059 990.606,-336.009"/>
</g>
<!-- Node5043 -->
<g id="node13" class="node"><title>Node5043</title>
<g id="a_node13"><a xlink:href="classRC__Channel.html#a1bc648b7400d7068721d275275f7927e" target="_top" xlink:title=" ">
<polygon fill="white" stroke="black" points="587.36,-270 587.36,-302 700.64,-302 700.64,-270 587.36,-270"/>
<text text-anchor="start" x="595.36" y="-288" font-family="Helvetica,sans-Serif" font-size="10.00">RC_Channel::init_aux</text>
<text text-anchor="middle" x="644" y="-276" font-family="Helvetica,sans-Serif" font-size="10.00">_function</text>
</a>
</g>
</g>
<!-- Node5042&#45;&gt;Node5043 -->
<g id="edge12" class="edge"><title>Node5042&#45;&gt;Node5043</title>
<path fill="none" stroke="midnightblue" d="M785.821,-306.508C758.512,-302.531 727.083,-297.954 700.855,-294.134"/>
<polygon fill="midnightblue" stroke="midnightblue" points="785.666,-310.022 796.066,-308 786.675,-303.095 785.666,-310.022"/>
</g>
<!-- Node5048 -->
<g id="node18" class="node"><title>Node5048</title>
<g id="a_node18"><a xlink:href="classRC__Channel.html#aac5143b957916aec428b6bc79f29456d" target="_top" xlink:title=" ">
<polygon fill="white" stroke="black" points="583.744,-321 583.744,-341 704.256,-341 704.256,-321 583.744,-321"/>
<text text-anchor="middle" x="644" y="-327" font-family="Helvetica,sans-Serif" font-size="10.00">RC_Channel::read_aux</text>
</a>
</g>
</g>
<!-- Node5042&#45;&gt;Node5048 -->
<g id="edge17" class="edge"><title>Node5042&#45;&gt;Node5048</title>
<path fill="none" stroke="midnightblue" d="M785.898,-320.74C759.818,-322.639 729.97,-324.813 704.48,-326.669"/>
<polygon fill="midnightblue" stroke="midnightblue" points="786.347,-324.217 796.066,-320 785.839,-317.236 786.347,-324.217"/>
</g>
<!-- Node5044 -->
<g id="node14" class="node"><title>Node5044</title>
<g id="a_node14"><a xlink:href="classRC__Channel.html#a2e0ed24b88e1d47d9056bc8b6e28650f" target="_top" xlink:title=" ">
<polygon fill="white" stroke="black" points="394.36,-276 394.36,-296 507.64,-296 507.64,-276 394.36,-276"/>
<text text-anchor="middle" x="451" y="-282" font-family="Helvetica,sans-Serif" font-size="10.00">RC_Channel::init_aux</text>
</a>
</g>
</g>
<!-- Node5043&#45;&gt;Node5044 -->
<g id="edge13" class="edge"><title>Node5043&#45;&gt;Node5044</title>
<path fill="none" stroke="midnightblue" d="M577.069,-286C554.511,-286 529.51,-286 507.828,-286"/>
<polygon fill="midnightblue" stroke="midnightblue" points="577.241,-289.5 587.241,-286 577.241,-282.5 577.241,-289.5"/>
</g>
<!-- Node5045 -->
<g id="node15" class="node"><title>Node5045</title>
<g id="a_node15"><a xlink:href="classRC__Channels.html#a668ee11266919ed21cc542df61043cca" target="_top" xlink:title=" ">
<polygon fill="white" stroke="black" points="210.077,-276 210.077,-296 343.923,-296 343.923,-276 210.077,-276"/>
<text text-anchor="middle" x="277" y="-282" font-family="Helvetica,sans-Serif" font-size="10.00">RC_Channels::init_aux_all</text>
</a>
</g>
</g>
<!-- Node5044&#45;&gt;Node5045 -->
<g id="edge14" class="edge"><title>Node5044&#45;&gt;Node5045</title>
<path fill="none" stroke="midnightblue" d="M383.851,-286C370.797,-286 357.098,-286 344.047,-286"/>
<polygon fill="midnightblue" stroke="midnightblue" points="384.157,-289.5 394.157,-286 384.156,-282.5 384.157,-289.5"/>
</g>
<!-- Node5046 -->
<g id="node16" class="node"><title>Node5046</title>
<g id="a_node16"><a xlink:href="classRC__Channels.html#a41ac050f115225f84b06b97fb79ee56f" target="_top" xlink:title=" ">
<polygon fill="white" stroke="black" points="76.7021,-276 76.7021,-296 173.298,-296 173.298,-276 76.7021,-276"/>
<text text-anchor="middle" x="125" y="-282" font-family="Helvetica,sans-Serif" font-size="10.00">RC_Channels::init</text>
</a>
</g>
</g>
<!-- Node5045&#45;&gt;Node5046 -->
<g id="edge15" class="edge"><title>Node5045&#45;&gt;Node5046</title>
<path fill="none" stroke="midnightblue" d="M199.684,-286C190.735,-286 181.811,-286 173.422,-286"/>
<polygon fill="midnightblue" stroke="midnightblue" points="199.771,-289.5 209.771,-286 199.771,-282.5 199.771,-289.5"/>
</g>
<!-- Node5047 -->
<g id="node17" class="node"><title>Node5047</title>
<g id="a_node17"><a xlink:href="AC__PID__test_8cpp.html#a4fc01d736fe50cf5b977f755b675f11d" target="_top" xlink:title=" ">
<polygon fill="white" stroke="black" points="-0.231445,-276 -0.231445,-296 40.2314,-296 40.2314,-276 -0.231445,-276"/>
<text text-anchor="middle" x="20" y="-282" font-family="Helvetica,sans-Serif" font-size="10.00">setup</text>
</a>
</g>
</g>
<!-- Node5046&#45;&gt;Node5047 -->
<g id="edge16" class="edge"><title>Node5046&#45;&gt;Node5047</title>
<path fill="none" stroke="midnightblue" d="M66.2454,-286C56.9154,-286 47.8633,-286 40.3386,-286"/>
<polygon fill="midnightblue" stroke="midnightblue" points="66.4195,-289.5 76.4195,-286 66.4194,-282.5 66.4195,-289.5"/>
</g>
<!-- Node5049 -->
<g id="node19" class="node"><title>Node5049</title>
<g id="a_node19"><a xlink:href="classRC__Channels.html#afce42af83fb4e3a19d56c330a99c59b5" target="_top" xlink:title=" ">
<polygon fill="white" stroke="black" points="380.461,-321 380.461,-341 521.539,-341 521.539,-321 380.461,-321"/>
<text text-anchor="middle" x="451" y="-327" font-family="Helvetica,sans-Serif" font-size="10.00">RC_Channels::read_aux_all</text>
</a>
</g>
</g>
<!-- Node5048&#45;&gt;Node5049 -->
<g id="edge18" class="edge"><title>Node5048&#45;&gt;Node5049</title>
<path fill="none" stroke="midnightblue" d="M573.316,-331C556.504,-331 538.539,-331 521.726,-331"/>
<polygon fill="midnightblue" stroke="midnightblue" points="573.613,-334.5 583.613,-331 573.613,-327.5 573.613,-334.5"/>
</g>
<!-- Node5050&#45;&gt;Node5042 -->
<g id="edge20" class="edge"><title>Node5050&#45;&gt;Node5042</title>
<path fill="none" stroke="midnightblue" d="M1347.64,-299.066C1239.09,-302.782 1012.54,-310.538 908.01,-314.117"/>
<polygon fill="midnightblue" stroke="midnightblue" points="1347.89,-302.56 1357.77,-298.72 1347.65,-295.564 1347.89,-302.56"/>
</g>
<!-- Node5051&#45;&gt;Node5052 -->
<g id="edge22" class="edge"><title>Node5051&#45;&gt;Node5052</title>
<path fill="none" stroke="midnightblue" d="M1509.67,-74.8094C1500.98,-75.0005 1492.18,-75.1938 1483.6,-75.3825"/>
<polygon fill="midnightblue" stroke="midnightblue" points="1509.89,-78.3056 1519.81,-74.5867 1509.73,-71.3073 1509.89,-78.3056"/>
</g>
<!-- Node5053 -->
<g id="node23" class="node"><title>Node5053</title>
<g id="a_node23"><a xlink:href="classNavEKF2__core.html#a4a06ae47c3edebdecd2b179a0567f00b" target="_top" xlink:title=" ">
<polygon fill="white" stroke="black" points="1163.25,-63 1163.25,-95 1288.75,-95 1288.75,-63 1163.25,-63"/>
<text text-anchor="start" x="1171.25" y="-81" font-family="Helvetica,sans-Serif" font-size="10.00">NavEKF2_core::Initialise</text>
<text text-anchor="middle" x="1226" y="-69" font-family="Helvetica,sans-Serif" font-size="10.00">FilterBootstrap</text>
</a>
</g>
</g>
<!-- Node5052&#45;&gt;Node5053 -->
<g id="edge23" class="edge"><title>Node5052&#45;&gt;Node5053</title>
<path fill="none" stroke="midnightblue" d="M1324.06,-77.9276C1312.24,-78.0581 1300.28,-78.1903 1288.97,-78.3152"/>
<polygon fill="midnightblue" stroke="midnightblue" points="1324.42,-81.4238 1334.38,-77.8135 1324.34,-74.4243 1324.42,-81.4238"/>
</g>
<!-- Node5058 -->
<g id="node28" class="node"><title>Node5058</title>
<g id="a_node28"><a xlink:href="classNavEKF2__core.html#a5f5c815cbd5ebba30d731f89f87726c3" target="_top" xlink:title=" ">
<polygon fill="white" stroke="black" points="974.084,-24 974.084,-44 1117.92,-44 1117.92,-24 974.084,-24"/>
<text text-anchor="middle" x="1046" y="-30" font-family="Helvetica,sans-Serif" font-size="10.00">NavEKF2_core::UpdateFilter</text>
</a>
</g>
</g>
<!-- Node5052&#45;&gt;Node5058 -->
<g id="edge32" class="edge"><title>Node5052&#45;&gt;Node5058</title>
<path fill="none" stroke="midnightblue" d="M1358.67,-64.7019C1339.79,-60.4026 1318,-55.9244 1298,-53 1237.68,-44.1802 1168.57,-39.3307 1118.16,-36.7435"/>
<polygon fill="midnightblue" stroke="midnightblue" points="1358,-68.14 1368.53,-66.9926 1359.58,-61.3214 1358,-68.14"/>
</g>
<!-- Node5054 -->
<g id="node24" class="node"><title>Node5054</title>
<g id="a_node24"><a xlink:href="classNavEKF2.html#a9c447b8d84abf2dfc845ddbbbad46a2b" target="_top" xlink:title=" ">
<polygon fill="white" stroke="black" points="984.65,-76 984.65,-96 1107.35,-96 1107.35,-76 984.65,-76"/>
<text text-anchor="middle" x="1046" y="-82" font-family="Helvetica,sans-Serif" font-size="10.00">NavEKF2::InitialiseFilter</text>
</a>
</g>
</g>
<!-- Node5053&#45;&gt;Node5054 -->
<g id="edge24" class="edge"><title>Node5053&#45;&gt;Node5054</title>
<path fill="none" stroke="midnightblue" d="M1152.92,-81.8344C1137.83,-82.428 1122.06,-83.0481 1107.45,-83.6229"/>
<polygon fill="midnightblue" stroke="midnightblue" points="1153.39,-85.319 1163.24,-81.4286 1153.11,-78.3244 1153.39,-85.319"/>
</g>
<!-- Node5053&#45;&gt;Node5058 -->
<g id="edge29" class="edge"><title>Node5053&#45;&gt;Node5058</title>
<path fill="none" stroke="midnightblue" d="M1153.28,-60.8676C1130.55,-55.1216 1106.26,-48.9803 1086.64,-44.0217"/>
<polygon fill="midnightblue" stroke="midnightblue" points="1152.69,-64.3297 1163.24,-63.3875 1154.41,-57.5432 1152.69,-64.3297"/>
</g>
<!-- Node5055 -->
<g id="node25" class="node"><title>Node5055</title>
<g id="a_node25"><a xlink:href="classAP__AHRS__NavEKF.html#a0187c6d3d4348b002a204c05d3e94b07" target="_top" xlink:title=" ">
<polygon fill="white" stroke="black" points="557.904,-39 557.904,-59 730.096,-59 730.096,-39 557.904,-39"/>
<text text-anchor="middle" x="644" y="-45" font-family="Helvetica,sans-Serif" font-size="10.00">AP_AHRS_NavEKF::update_EKF2</text>
</a>
</g>
</g>
<!-- Node5054&#45;&gt;Node5055 -->
<g id="edge25" class="edge"><title>Node5054&#45;&gt;Node5055</title>
<path fill="none" stroke="midnightblue" d="M981.58,-74.2353C967.284,-71.8894 952.153,-69.645 938,-68 868.252,-59.8932 788.73,-55.0095 730.148,-52.2275"/>
<polygon fill="midnightblue" stroke="midnightblue" points="981.374,-77.7497 991.815,-75.9544 982.533,-70.8463 981.374,-77.7497"/>
</g>
<!-- Node5056 -->
<g id="node26" class="node"><title>Node5056</title>
<g id="a_node26"><a xlink:href="classAP__AHRS__NavEKF.html#a532ff0df024a4537e5a108c42ba405a7" target="_top" xlink:title=" ">
<polygon fill="white" stroke="black" points="785.367,-78 785.367,-98 918.633,-98 918.633,-78 785.367,-78"/>
<text text-anchor="middle" x="852" y="-84" font-family="Helvetica,sans-Serif" font-size="10.00">AP_AHRS_NavEKF::reset</text>
</a>
</g>
</g>
<!-- Node5054&#45;&gt;Node5056 -->
<g id="edge27" class="edge"><title>Node5054&#45;&gt;Node5056</title>
<path fill="none" stroke="midnightblue" d="M974.298,-86.7365C956.159,-86.9254 936.724,-87.1279 918.842,-87.3142"/>
<polygon fill="midnightblue" stroke="midnightblue" points="974.551,-90.2341 984.514,-86.6301 974.478,-83.2345 974.551,-90.2341"/>
</g>
<!-- Node5057 -->
<g id="node27" class="node"><title>Node5057</title>
<g id="a_node27"><a xlink:href="classAP__AHRS__NavEKF.html#a9bd3c7f1793a48cd0d736b19fbfaf19a" target="_top" xlink:title=" ">
<polygon fill="white" stroke="black" points="785.367,-117 785.367,-149 918.633,-149 918.633,-117 785.367,-117"/>
<text text-anchor="start" x="793.367" y="-135" font-family="Helvetica,sans-Serif" font-size="10.00">AP_AHRS_NavEKF::reset</text>
<text text-anchor="middle" x="852" y="-123" font-family="Helvetica,sans-Serif" font-size="10.00">_attitude</text>
</a>
</g>
</g>
<!-- Node5054&#45;&gt;Node5057 -->
<g id="edge28" class="edge"><title>Node5054&#45;&gt;Node5057</title>
<path fill="none" stroke="midnightblue" d="M993.882,-98.5133C970.801,-104.163 943.254,-110.907 918.665,-116.926"/>
<polygon fill="midnightblue" stroke="midnightblue" points="994.93,-101.86 1003.81,-96.0827 993.266,-95.0608 994.93,-101.86"/>
</g>
<!-- Node5055&#45;&gt;Node5036 -->
<g id="edge26" class="edge"><title>Node5055&#45;&gt;Node5036</title>
<path fill="none" stroke="midnightblue" d="M619.717,-64.7251C579.954,-91.5811 500.046,-145.55 466.918,-167.925"/>
<polygon fill="midnightblue" stroke="midnightblue" points="621.685,-67.6199 628.013,-59.1224 617.767,-61.819 621.685,-67.6199"/>
</g>
<!-- Node5059 -->
<g id="node29" class="node"><title>Node5059</title>
<g id="a_node29"><a xlink:href="classNavEKF2.html#a72815b1bbd9d7ceb0ff7ae52d14516df" target="_top" xlink:title=" ">
<polygon fill="white" stroke="black" points="792.591,-0 792.591,-20 911.409,-20 911.409,-0 792.591,-0"/>
<text text-anchor="middle" x="852" y="-6" font-family="Helvetica,sans-Serif" font-size="10.00">NavEKF2::UpdateFilter</text>
</a>
</g>
</g>
<!-- Node5058&#45;&gt;Node5059 -->
<g id="edge30" class="edge"><title>Node5058&#45;&gt;Node5059</title>
<path fill="none" stroke="midnightblue" d="M963.843,-23.8553C946.34,-21.6675 928.163,-19.3954 911.715,-17.3394"/>
<polygon fill="midnightblue" stroke="midnightblue" points="963.695,-27.364 974.052,-25.1315 964.563,-20.4181 963.695,-27.364"/>
</g>
<!-- Node5059&#45;&gt;Node5055 -->
<g id="edge31" class="edge"><title>Node5059&#45;&gt;Node5055</title>
<path fill="none" stroke="midnightblue" d="M787.975,-21.9319C759.139,-27.3911 725.356,-33.787 697.87,-38.9906"/>
<polygon fill="midnightblue" stroke="midnightblue" points="788.775,-25.3426 797.95,-20.0435 787.473,-18.4648 788.775,-25.3426"/>
</g>
<!-- Node5060&#45;&gt;Node5061 -->
<g id="edge34" class="edge"><title>Node5060&#45;&gt;Node5061</title>
<path fill="none" stroke="midnightblue" d="M1509.61,-185.608C1493.98,-182.689 1478.01,-179.706 1463.57,-177.008"/>
<polygon fill="midnightblue" stroke="midnightblue" points="1509.33,-189.118 1519.81,-187.513 1510.62,-182.237 1509.33,-189.118"/>
</g>
<!-- Node5062 -->
<g id="node32" class="node"><title>Node5062</title>
<g id="a_node32"><a xlink:href="classNavEKF3__core.html#aae18ada44b1b7be0d45af03391ef961a" target="_top" xlink:title=" ">
<polygon fill="white" stroke="black" points="1163.25,-117 1163.25,-149 1288.75,-149 1288.75,-117 1163.25,-117"/>
<text text-anchor="start" x="1171.25" y="-135" font-family="Helvetica,sans-Serif" font-size="10.00">NavEKF3_core::Initialise</text>
<text text-anchor="middle" x="1226" y="-123" font-family="Helvetica,sans-Serif" font-size="10.00">FilterBootstrap</text>
</a>
</g>
</g>
<!-- Node5061&#45;&gt;Node5062 -->
<g id="edge35" class="edge"><title>Node5061&#45;&gt;Node5062</title>
<path fill="none" stroke="midnightblue" d="M1344.79,-155.126C1326.66,-151.72 1306.91,-148.011 1288.86,-144.621"/>
<polygon fill="midnightblue" stroke="midnightblue" points="1344.2,-158.576 1354.67,-156.983 1345.49,-151.697 1344.2,-158.576"/>
</g>
<!-- Node5065 -->
<g id="node35" class="node"><title>Node5065</title>
<g id="a_node35"><a xlink:href="classNavEKF3__core.html#a2a7fae9e0bf2ce6fc2f9b3918dc168d3" target="_top" xlink:title=" ">
<polygon fill="white" stroke="black" points="1154.08,-168 1154.08,-188 1297.92,-188 1297.92,-168 1154.08,-168"/>
<text text-anchor="middle" x="1226" y="-174" font-family="Helvetica,sans-Serif" font-size="10.00">NavEKF3_core::UpdateFilter</text>
</a>
</g>
</g>
<!-- Node5061&#45;&gt;Node5065 -->
<g id="edge41" class="edge"><title>Node5061&#45;&gt;Node5065</title>
<path fill="none" stroke="midnightblue" d="M1324.14,-172.096C1315.38,-172.629 1306.52,-173.167 1297.92,-173.69"/>
<polygon fill="midnightblue" stroke="midnightblue" points="1324.61,-175.574 1334.38,-171.474 1324.19,-168.587 1324.61,-175.574"/>
</g>
<!-- Node5063 -->
<g id="node33" class="node"><title>Node5063</title>
<g id="a_node33"><a xlink:href="classNavEKF3.html#a07f064fa513fbb6e7188141904f3b5b5" target="_top" xlink:title=" ">
<polygon fill="white" stroke="black" points="984.65,-123 984.65,-143 1107.35,-143 1107.35,-123 984.65,-123"/>
<text text-anchor="middle" x="1046" y="-129" font-family="Helvetica,sans-Serif" font-size="10.00">NavEKF3::InitialiseFilter</text>
</a>
</g>
</g>
<!-- Node5062&#45;&gt;Node5063 -->
<g id="edge36" class="edge"><title>Node5062&#45;&gt;Node5063</title>
<path fill="none" stroke="midnightblue" d="M1152.92,-133C1137.83,-133 1122.06,-133 1107.45,-133"/>
<polygon fill="midnightblue" stroke="midnightblue" points="1153.24,-136.5 1163.24,-133 1153.24,-129.5 1153.24,-136.5"/>
</g>
<!-- Node5064 -->
<g id="node34" class="node"><title>Node5064</title>
<g id="a_node34"><a xlink:href="classAP__AHRS__NavEKF.html#a324160404f12959e955554f5aed26459" target="_top" xlink:title=" ">
<polygon fill="white" stroke="black" points="765.904,-168 765.904,-188 938.096,-188 938.096,-168 765.904,-168"/>
<text text-anchor="middle" x="852" y="-174" font-family="Helvetica,sans-Serif" font-size="10.00">AP_AHRS_NavEKF::update_EKF3</text>
</a>
</g>
</g>
<!-- Node5063&#45;&gt;Node5064 -->
<g id="edge37" class="edge"><title>Node5063&#45;&gt;Node5064</title>
<path fill="none" stroke="midnightblue" d="M991.956,-145.432C961.72,-152.519 924.324,-161.284 895.945,-167.935"/>
<polygon fill="midnightblue" stroke="midnightblue" points="992.974,-148.789 1001.91,-143.099 991.377,-141.973 992.974,-148.789"/>
</g>
<!-- Node5063&#45;&gt;Node5056 -->
<g id="edge39" class="edge"><title>Node5063&#45;&gt;Node5056</title>
<path fill="none" stroke="midnightblue" d="M994.232,-120.461C976.462,-116.126 956.364,-111.283 938,-107 925.188,-104.012 911.268,-100.86 898.472,-98.0016"/>
<polygon fill="midnightblue" stroke="midnightblue" points="993.849,-123.97 1004.39,-122.946 995.512,-117.171 993.849,-123.97"/>
</g>
<!-- Node5063&#45;&gt;Node5057 -->
<g id="edge40" class="edge"><title>Node5063&#45;&gt;Node5057</title>
<path fill="none" stroke="midnightblue" d="M974.298,-133C956.159,-133 936.724,-133 918.842,-133"/>
<polygon fill="midnightblue" stroke="midnightblue" points="974.514,-136.5 984.514,-133 974.513,-129.5 974.514,-136.5"/>
</g>
<!-- Node5064&#45;&gt;Node5036 -->
<g id="edge38" class="edge"><title>Node5064&#45;&gt;Node5036</title>
<path fill="none" stroke="midnightblue" d="M755.48,-178C683.625,-178 586.792,-178 522.019,-178"/>
<polygon fill="midnightblue" stroke="midnightblue" points="755.894,-181.5 765.894,-178 755.894,-174.5 755.894,-181.5"/>
</g>
<!-- Node5066 -->
<g id="node36" class="node"><title>Node5066</title>
<g id="a_node36"><a xlink:href="classNavEKF3.html#a477020fcf29376e0c2205dbf79728104" target="_top" xlink:title=" ">
<polygon fill="white" stroke="black" points="986.591,-168 986.591,-188 1105.41,-188 1105.41,-168 986.591,-168"/>
<text text-anchor="middle" x="1046" y="-174" font-family="Helvetica,sans-Serif" font-size="10.00">NavEKF3::UpdateFilter</text>
</a>
</g>
</g>
<!-- Node5065&#45;&gt;Node5066 -->
<g id="edge42" class="edge"><title>Node5065&#45;&gt;Node5066</title>
<path fill="none" stroke="midnightblue" d="M1143.62,-178C1130.75,-178 1117.66,-178 1105.44,-178"/>
<polygon fill="midnightblue" stroke="midnightblue" points="1143.88,-181.5 1153.88,-178 1143.88,-174.5 1143.88,-181.5"/>
</g>
<!-- Node5066&#45;&gt;Node5064 -->
<g id="edge43" class="edge"><title>Node5066&#45;&gt;Node5064</title>
<path fill="none" stroke="midnightblue" d="M976.17,-178C963.845,-178 950.868,-178 938.149,-178"/>
<polygon fill="midnightblue" stroke="midnightblue" points="976.35,-181.5 986.35,-178 976.35,-174.5 976.35,-181.5"/>
</g>
</g>
</svg>
