<?xml version="1.0" encoding="UTF-8" standalone="no"?>
<!DOCTYPE svg PUBLIC "-//W3C//DTD SVG 1.1//EN"
 "http://www.w3.org/Graphics/SVG/1.1/DTD/svg11.dtd">
<!-- Generated by graphviz version 2.30.1 (20130221.2233)
 -->
<!-- Title: AP_RangeFinder_VL53L0X::encodeTimeout Pages: 1 -->
<svg width="1042pt" height="40pt"
 viewBox="0.00 0.00 1042.00 40.00" xmlns="http://www.w3.org/2000/svg" xmlns:xlink="http://www.w3.org/1999/xlink">
<g id="graph0" class="graph" transform="scale(1 1) rotate(0) translate(4 36)">
<title>AP_RangeFinder_VL53L0X::encodeTimeout</title>
<polygon fill="white" stroke="white" points="-4,5 -4,-36 1039,-36 1039,5 -4,5"/>
<!-- Node71 -->
<g id="node1" class="node"><title>Node71</title>
<g id="a_node1"><a xlink:title=" ">
<polygon fill="#bfbfbf" stroke="black" points="894.289,-0 894.289,-32 1033.71,-32 1033.71,-0 894.289,-0"/>
<text text-anchor="start" x="902.289" y="-18" font-family="Helvetica,sans-Serif" font-size="10.00">AP_RangeFinder_VL53L0X</text>
<text text-anchor="middle" x="964" y="-6" font-family="Helvetica,sans-Serif" font-size="10.00">::encodeTimeout</text>
</a>
</g>
</g>
<!-- Node72 -->
<g id="node2" class="node"><title>Node72</title>
<g id="a_node2"><a xlink:href="classAP__RangeFinder__VL53L0X.html#adec2d569b8b1567535371a3d69b4c95f" target="_top" xlink:title=" ">
<polygon fill="white" stroke="black" points="700.316,-0 700.316,-32 857.684,-32 857.684,-0 700.316,-0"/>
<text text-anchor="start" x="708.316" y="-18" font-family="Helvetica,sans-Serif" font-size="10.00">AP_RangeFinder_VL53L0X</text>
<text text-anchor="middle" x="779" y="-6" font-family="Helvetica,sans-Serif" font-size="10.00">::setMeasurementTimingBudget</text>
</a>
</g>
</g>
<!-- Node71&#45;&gt;Node72 -->
<g id="edge1" class="edge"><title>Node71&#45;&gt;Node72</title>
<path fill="none" stroke="midnightblue" d="M883.966,-16C875.277,-16 866.435,-16 857.761,-16"/>
<polygon fill="midnightblue" stroke="midnightblue" points="884.076,-19.5001 894.076,-16 884.076,-12.5001 884.076,-19.5001"/>
</g>
<!-- Node73 -->
<g id="node3" class="node"><title>Node73</title>
<g id="a_node3"><a xlink:href="classAP__RangeFinder__VL53L0X.html#a9bfdf8ae014422adc21f93b7d4218a04" target="_top" xlink:title=" ">
<polygon fill="white" stroke="black" points="524.289,-0 524.289,-32 663.711,-32 663.711,-0 524.289,-0"/>
<text text-anchor="start" x="532.289" y="-18" font-family="Helvetica,sans-Serif" font-size="10.00">AP_RangeFinder_VL53L0X</text>
<text text-anchor="middle" x="594" y="-6" font-family="Helvetica,sans-Serif" font-size="10.00">::init</text>
</a>
</g>
</g>
<!-- Node72&#45;&gt;Node73 -->
<g id="edge2" class="edge"><title>Node72&#45;&gt;Node73</title>
<path fill="none" stroke="midnightblue" d="M689.891,-16C681.139,-16 672.346,-16 663.832,-16"/>
<polygon fill="midnightblue" stroke="midnightblue" points="690.126,-19.5001 700.126,-16 690.126,-12.5001 690.126,-19.5001"/>
</g>
<!-- Node74 -->
<g id="node4" class="node"><title>Node74</title>
<g id="a_node4"><a xlink:href="classAP__RangeFinder__VL53L0X.html#aee87f0704b1531571f9d645f7a3a7dac" target="_top" xlink:title=" ">
<polygon fill="white" stroke="black" points="348.289,-0 348.289,-32 487.711,-32 487.711,-0 348.289,-0"/>
<text text-anchor="start" x="356.289" y="-18" font-family="Helvetica,sans-Serif" font-size="10.00">AP_RangeFinder_VL53L0X</text>
<text text-anchor="middle" x="418" y="-6" font-family="Helvetica,sans-Serif" font-size="10.00">::detect</text>
</a>
</g>
</g>
<!-- Node73&#45;&gt;Node74 -->
<g id="edge3" class="edge"><title>Node73&#45;&gt;Node74</title>
<path fill="none" stroke="midnightblue" d="M514.039,-16C505.296,-16 496.444,-16 487.84,-16"/>
<polygon fill="midnightblue" stroke="midnightblue" points="514.231,-19.5001 524.231,-16 514.231,-12.5001 514.231,-19.5001"/>
</g>
<!-- Node75 -->
<g id="node5" class="node"><title>Node75</title>
<g id="a_node5"><a xlink:href="classRangeFinder.html#a2d16a636e444ce916e524d1e2623d1d3" target="_top" xlink:title=" ">
<polygon fill="white" stroke="black" points="204.695,-0 204.695,-32 311.305,-32 311.305,-0 204.695,-0"/>
<text text-anchor="start" x="212.695" y="-18" font-family="Helvetica,sans-Serif" font-size="10.00">RangeFinder::detect</text>
<text text-anchor="middle" x="258" y="-6" font-family="Helvetica,sans-Serif" font-size="10.00">_instance</text>
</a>
</g>
</g>
<!-- Node74&#45;&gt;Node75 -->
<g id="edge4" class="edge"><title>Node74&#45;&gt;Node75</title>
<path fill="none" stroke="midnightblue" d="M338.012,-16C329.004,-16 319.995,-16 311.454,-16"/>
<polygon fill="midnightblue" stroke="midnightblue" points="338.159,-19.5001 348.159,-16 338.158,-12.5001 338.159,-19.5001"/>
</g>
<!-- Node76 -->
<g id="node6" class="node"><title>Node76</title>
<g id="a_node6"><a xlink:href="classRangeFinder.html#ad3e3b3a548b8da70aedd97c4be3a5b6d" target="_top" xlink:title=" ">
<polygon fill="white" stroke="black" points="75.9238,-6 75.9238,-26 168.076,-26 168.076,-6 75.9238,-6"/>
<text text-anchor="middle" x="122" y="-12" font-family="Helvetica,sans-Serif" font-size="10.00">RangeFinder::init</text>
</a>
</g>
</g>
<!-- Node75&#45;&gt;Node76 -->
<g id="edge5" class="edge"><title>Node75&#45;&gt;Node76</title>
<path fill="none" stroke="midnightblue" d="M194.287,-16C185.583,-16 176.783,-16 168.476,-16"/>
<polygon fill="midnightblue" stroke="midnightblue" points="194.424,-19.5001 204.424,-16 194.424,-12.5001 194.424,-19.5001"/>
</g>
<!-- Node77 -->
<g id="node7" class="node"><title>Node77</title>
<g id="a_node7"><a xlink:href="RFIND__test_8cpp.html#a4fc01d736fe50cf5b977f755b675f11d" target="_top" xlink:title=" ">
<polygon fill="white" stroke="black" points="-0.231445,-6 -0.231445,-26 40.2314,-26 40.2314,-6 -0.231445,-6"/>
<text text-anchor="middle" x="20" y="-12" font-family="Helvetica,sans-Serif" font-size="10.00">setup</text>
</a>
</g>
</g>
<!-- Node76&#45;&gt;Node77 -->
<g id="edge6" class="edge"><title>Node76&#45;&gt;Node77</title>
<path fill="none" stroke="midnightblue" d="M65.4836,-16C56.4862,-16 47.73,-16 40.3996,-16"/>
<polygon fill="midnightblue" stroke="midnightblue" points="65.6814,-19.5001 75.6814,-16 65.6814,-12.5001 65.6814,-19.5001"/>
</g>
</g>
</svg>
