<?xml version="1.0" encoding="UTF-8" standalone="no"?>
<!DOCTYPE svg PUBLIC "-//W3C//DTD SVG 1.1//EN"
 "http://www.w3.org/Graphics/SVG/1.1/DTD/svg11.dtd">
<!-- Generated by graphviz version 2.30.1 (20130221.2233)
 -->
<!-- Title: AP_MotorsMatrix::add_motor Pages: 1 -->
<!--zoomable 113 -->
<svg id="main" version="1.1" xmlns="http://www.w3.org/2000/svg" xmlns:xlink="http://www.w3.org/1999/xlink" xml:space="preserve" onload="init(evt)">
<style type="text/css"><![CDATA[
.edge:hover path { stroke: red; }
.edge:hover polygon { stroke: red; fill: red; }
]]></style>
<script type="text/javascript"><![CDATA[
var edges = document.getElementsByTagName('g');
if (edges && edges.length) {
  for (var i=0;i<edges.length;i++) {
    if (edges[i].id.substr(0,4)=='edge') {
      edges[i].setAttribute('class','edge');
    }
  }
}
]]></script>
        <defs>
                <circle id="rim" cx="0" cy="0" r="7"/>
                <circle id="rim2" cx="0" cy="0" r="3.5"/>
                <g id="zoomPlus">
                        <use xlink:href="#rim" fill="#404040">
                                <set attributeName="fill" to="#808080" begin="zoomplus.mouseover" end="zoomplus.mouseout"/>
                        </use>
                        <path d="M-4,0h8M0,-4v8" fill="none" stroke="white" stroke-width="1.5" pointer-events="none"/>
                </g>
                <g id="zoomMin">
                        <use xlink:href="#rim" fill="#404040">
                                <set attributeName="fill" to="#808080" begin="zoomminus.mouseover" end="zoomminus.mouseout"/>
                        </use>
                        <path d="M-4,0h8" fill="none" stroke="white" stroke-width="1.5" pointer-events="none"/>
                </g>
                <g id="dirArrow">
                        <path fill="none" stroke="white" stroke-width="1.5" d="M0,-3.0v7 M-2.5,-0.5L0,-3.0L2.5,-0.5"/>
                </g>
               <g id="resetDef">
                       <use xlink:href="#rim2" fill="#404040">
                               <set attributeName="fill" to="#808080" begin="reset.mouseover" end="reset.mouseout"/>
                       </use>
               </g>
        </defs>

<script type="text/javascript">
var viewWidth = 518;
var viewHeight = 113;
var sectionId = 'dynsection-2';
</script>
<script xlink:href="svgpan.js"/>
<svg id="graph" class="graph">
<g id="viewport">
<title>AP_MotorsMatrix::add_motor</title>
<polygon fill="white" stroke="white" points="-4,5 -4,-109 515,-109 515,5 -4,5"/>
<!-- Node3 -->
<g id="node1" class="node"><title>Node3</title>
<g id="a_node1"><a xlink:title=" ">
<polygon fill="#bfbfbf" stroke="black" points="394.537,-47 394.537,-79 509.463,-79 509.463,-47 394.537,-47"/>
<text text-anchor="start" x="402.537" y="-65" font-family="Helvetica,sans-Serif" font-size="10.00">AP_MotorsMatrix::add</text>
<text text-anchor="middle" x="452" y="-53" font-family="Helvetica,sans-Serif" font-size="10.00">_motor</text>
</a>
</g>
</g>
<!-- Node4 -->
<g id="node2" class="node"><title>Node4</title>
<g id="a_node2"><a xlink:href="classAP__MotorsMatrixTS.html#ae19cab9551fd5f6d9760f768d04e2187" target="_top" xlink:title=" ">
<polygon fill="white" stroke="black" points="240.49,-73 240.49,-105 351.51,-105 351.51,-73 240.49,-73"/>
<text text-anchor="start" x="248.49" y="-91" font-family="Helvetica,sans-Serif" font-size="10.00">AP_MotorsMatrixTS::</text>
<text text-anchor="middle" x="296" y="-79" font-family="Helvetica,sans-Serif" font-size="10.00">setup_motors</text>
</a>
</g>
</g>
<!-- Node3&#45;&gt;Node4 -->
<g id="edge1" class="edge"><title>Node3&#45;&gt;Node4</title>
<path fill="none" stroke="midnightblue" d="M384.558,-74.2175C373.58,-76.0709 362.311,-77.9734 351.666,-79.7708"/>
<polygon fill="midnightblue" stroke="midnightblue" points="385.253,-77.6498 394.531,-72.5338 384.087,-70.7475 385.253,-77.6498"/>
</g>
<!-- Node5 -->
<g id="node3" class="node"><title>Node5</title>
<g id="a_node3"><a xlink:href="classAP__MotorsMatrix.html#add4cc7528ad5a337f58ec38a64156bd4" target="_top" xlink:title=" ">
<polygon fill="white" stroke="black" points="234.648,-22 234.648,-54 357.352,-54 357.352,-22 234.648,-22"/>
<text text-anchor="start" x="242.648" y="-40" font-family="Helvetica,sans-Serif" font-size="10.00">AP_MotorsMatrix::setup</text>
<text text-anchor="middle" x="296" y="-28" font-family="Helvetica,sans-Serif" font-size="10.00">_motors</text>
</a>
</g>
</g>
<!-- Node3&#45;&gt;Node5 -->
<g id="edge2" class="edge"><title>Node3&#45;&gt;Node5</title>
<path fill="none" stroke="midnightblue" d="M384.537,-52.2105C375.589,-50.758 366.448,-49.2741 357.609,-47.8392"/>
<polygon fill="midnightblue" stroke="midnightblue" points="384.099,-55.6852 394.531,-53.8329 385.221,-48.7756 384.099,-55.6852"/>
</g>
<!-- Node6 -->
<g id="node4" class="node"><title>Node6</title>
<g id="a_node4"><a xlink:href="classAP__MotorsMatrix.html#a74999b8c2bdb8a6c9a139e4d4a742679" target="_top" xlink:title=" ">
<polygon fill="white" stroke="black" points="81.4878,-51 81.4878,-71 192.512,-71 192.512,-51 81.4878,-51"/>
<text text-anchor="middle" x="137" y="-57" font-family="Helvetica,sans-Serif" font-size="10.00">AP_MotorsMatrix::init</text>
</a>
</g>
</g>
<!-- Node5&#45;&gt;Node6 -->
<g id="edge3" class="edge"><title>Node5&#45;&gt;Node6</title>
<path fill="none" stroke="midnightblue" d="M224.222,-48.3687C213.624,-49.9213 202.836,-51.5017 192.642,-52.9952"/>
<polygon fill="midnightblue" stroke="midnightblue" points="224.913,-51.805 234.3,-46.8924 223.898,-44.8789 224.913,-51.805"/>
</g>
<!-- Node8 -->
<g id="node6" class="node"><title>Node8</title>
<g id="a_node6"><a xlink:href="classAP__MotorsMatrix.html#ad608ef0a8298cd204251d4374a2699c4" target="_top" xlink:title=" ">
<polygon fill="white" stroke="black" points="75.9116,-0 75.9116,-32 198.088,-32 198.088,-0 75.9116,-0"/>
<text text-anchor="start" x="83.9116" y="-18" font-family="Helvetica,sans-Serif" font-size="10.00">AP_MotorsMatrix::set</text>
<text text-anchor="middle" x="137" y="-6" font-family="Helvetica,sans-Serif" font-size="10.00">_frame_class_and_type</text>
</a>
</g>
</g>
<!-- Node5&#45;&gt;Node8 -->
<g id="edge5" class="edge"><title>Node5&#45;&gt;Node8</title>
<path fill="none" stroke="midnightblue" d="M224.216,-28.0812C215.555,-26.8676 206.767,-25.6362 198.28,-24.4469"/>
<polygon fill="midnightblue" stroke="midnightblue" points="223.911,-31.5726 234.3,-29.4942 224.882,-24.6403 223.911,-31.5726"/>
</g>
<!-- Node7 -->
<g id="node5" class="node"><title>Node7</title>
<g id="a_node5"><a xlink:href="AP__Motors__test_8cpp.html#a4fc01d736fe50cf5b977f755b675f11d" target="_top" xlink:title=" ">
<polygon fill="white" stroke="black" points="-0.231445,-51 -0.231445,-71 40.2314,-71 40.2314,-51 -0.231445,-51"/>
<text text-anchor="middle" x="20" y="-57" font-family="Helvetica,sans-Serif" font-size="10.00">setup</text>
</a>
</g>
</g>
<!-- Node6&#45;&gt;Node7 -->
<g id="edge4" class="edge"><title>Node6&#45;&gt;Node7</title>
<path fill="none" stroke="midnightblue" d="M70.8735,-61C59.7009,-61 48.9193,-61 40.2565,-61"/>
<polygon fill="midnightblue" stroke="midnightblue" points="71.1945,-64.5001 81.1944,-61 71.1944,-57.5001 71.1945,-64.5001"/>
</g>
</g>
</svg>
        <g id="navigator" transform="translate(0 0)" fill="#404254">
                <rect fill="#f2f5e9" fill-opacity="0.5" stroke="#606060" stroke-width=".5" x="0" y="0" width="60" height="60"/>
                <use id="zoomplus" xlink:href="#zoomPlus" x="17" y="9" onmousedown="handleZoom(evt,'in')"/>
                <use id="zoomminus" xlink:href="#zoomMin" x="42" y="9" onmousedown="handleZoom(evt,'out')"/>
                <use id="reset" xlink:href="#resetDef" x="30" y="36" onmousedown="handleReset()"/>
                <g id="arrowUp" xlink:href="#dirArrow" transform="translate(30 24)" onmousedown="handlePan(0,-1)">
                  <use xlink:href="#rim" fill="#404040">
                        <set attributeName="fill" to="#808080" begin="arrowUp.mouseover" end="arrowUp.mouseout"/>
                  </use>
                  <path fill="none" stroke="white" stroke-width="1.5" d="M0,-3.0v7 M-2.5,-0.5L0,-3.0L2.5,-0.5"/>
                </g>
                <g id="arrowRight" xlink:href="#dirArrow" transform="rotate(90) translate(36 -43)" onmousedown="handlePan(1,0)">
                  <use xlink:href="#rim" fill="#404040">
                        <set attributeName="fill" to="#808080" begin="arrowRight.mouseover" end="arrowRight.mouseout"/>
                  </use>
                  <path fill="none" stroke="white" stroke-width="1.5" d="M0,-3.0v7 M-2.5,-0.5L0,-3.0L2.5,-0.5"/>
                </g>
                <g id="arrowDown" xlink:href="#dirArrow" transform="rotate(180) translate(-30 -48)" onmousedown="handlePan(0,1)">
                  <use xlink:href="#rim" fill="#404040">
                        <set attributeName="fill" to="#808080" begin="arrowDown.mouseover" end="arrowDown.mouseout"/>
                  </use>
                  <path fill="none" stroke="white" stroke-width="1.5" d="M0,-3.0v7 M-2.5,-0.5L0,-3.0L2.5,-0.5"/>
                </g>
                <g id="arrowLeft" xlink:href="#dirArrow" transform="rotate(270) translate(-36 17)" onmousedown="handlePan(-1,0)">
                  <use xlink:href="#rim" fill="#404040">
                        <set attributeName="fill" to="#808080" begin="arrowLeft.mouseover" end="arrowLeft.mouseout"/>
                  </use>
                  <path fill="none" stroke="white" stroke-width="1.5" d="M0,-3.0v7 M-2.5,-0.5L0,-3.0L2.5,-0.5"/>
                </g>
        </g>
        <svg viewBox="0 0 15 15" width="100%" height="30px" preserveAspectRatio="xMaxYMin meet">
         <g id="arrow_out" transform="scale(0.3 0.3)">
          <a xlink:href="classAP__MotorsMatrix_a96211b4b9a24e1abc125892780815b32_icgraph_org.svg" target="_base">
           <rect id="button" ry="5" rx="5" y="6" x="6" height="38" width="38"
                fill="#f2f5e9" fill-opacity="0.5" stroke="#606060" stroke-width="1.0"/>
           <path id="arrow"
             d="M 11.500037,31.436501 C 11.940474,20.09759 22.043105,11.32322 32.158766,21.979434 L 37.068811,17.246167 C 37.068811,17.246167 37.088388,32 37.088388,32 L 22.160133,31.978069 C 22.160133,31.978069 26.997745,27.140456 26.997745,27.140456 C 18.528582,18.264221 13.291696,25.230495 11.500037,31.436501 z"
             style="fill:#404040;"/>
          </a>
         </g>
        </svg>
</svg>
