<?xml version="1.0" encoding="UTF-8" standalone="no"?>
<!DOCTYPE svg PUBLIC "-//W3C//DTD SVG 1.1//EN"
 "http://www.w3.org/Graphics/SVG/1.1/DTD/svg11.dtd">
<!-- Generated by graphviz version 2.30.1 (20130221.2233)
 -->
<!-- Title: NCP5623::hw_init Pages: 1 -->
<!--zoomable 400 -->
<svg id="main" version="1.1" xmlns="http://www.w3.org/2000/svg" xmlns:xlink="http://www.w3.org/1999/xlink" xml:space="preserve" onload="init(evt)">
<style type="text/css"><![CDATA[
.edge:hover path { stroke: red; }
.edge:hover polygon { stroke: red; fill: red; }
]]></style>
<script type="text/javascript"><![CDATA[
var edges = document.getElementsByTagName('g');
if (edges && edges.length) {
  for (var i=0;i<edges.length;i++) {
    if (edges[i].id.substr(0,4)=='edge') {
      edges[i].setAttribute('class','edge');
    }
  }
}
]]></script>
        <defs>
                <circle id="rim" cx="0" cy="0" r="7"/>
                <circle id="rim2" cx="0" cy="0" r="3.5"/>
                <g id="zoomPlus">
                        <use xlink:href="#rim" fill="#404040">
                                <set attributeName="fill" to="#808080" begin="zoomplus.mouseover" end="zoomplus.mouseout"/>
                        </use>
                        <path d="M-4,0h8M0,-4v8" fill="none" stroke="white" stroke-width="1.5" pointer-events="none"/>
                </g>
                <g id="zoomMin">
                        <use xlink:href="#rim" fill="#404040">
                                <set attributeName="fill" to="#808080" begin="zoomminus.mouseover" end="zoomminus.mouseout"/>
                        </use>
                        <path d="M-4,0h8" fill="none" stroke="white" stroke-width="1.5" pointer-events="none"/>
                </g>
                <g id="dirArrow">
                        <path fill="none" stroke="white" stroke-width="1.5" d="M0,-3.0v7 M-2.5,-0.5L0,-3.0L2.5,-0.5"/>
                </g>
               <g id="resetDef">
                       <use xlink:href="#rim2" fill="#404040">
                               <set attributeName="fill" to="#808080" begin="reset.mouseover" end="reset.mouseout"/>
                       </use>
               </g>
        </defs>

<script type="text/javascript">
var viewWidth = 728;
var viewHeight = 400;
var sectionId = 'dynsection-4';
</script>
<script xlink:href="svgpan.js"/>
<svg id="graph" class="graph">
<g id="viewport">
<title>NCP5623::hw_init</title>
<polygon fill="white" stroke="white" points="-4,5 -4,-396 725,-396 725,5 -4,5"/>
<!-- Node8 -->
<g id="node1" class="node"><title>Node8</title>
<g id="a_node1"><a xlink:title=" ">
<polygon fill="#bfbfbf" stroke="black" points="-0.0219727,-168 -0.0219727,-188 96.022,-188 96.022,-168 -0.0219727,-168"/>
<text text-anchor="middle" x="48" y="-174" font-family="Helvetica,sans-Serif" font-size="10.00">NCP5623::hw_init</text>
</a>
</g>
</g>
<!-- Node9 -->
<g id="node2" class="node"><title>Node9</title>
<g id="a_node2"><a xlink:href="classAP__HAL_1_1I2CDeviceManager.html#a8153774ecb8d07a14cb0eeac74ce6211" target="_top" xlink:title=" ">
<polygon fill="white" stroke="black" points="132.247,-360 132.247,-392 277.753,-392 277.753,-360 132.247,-360"/>
<text text-anchor="start" x="140.247" y="-378" font-family="Helvetica,sans-Serif" font-size="10.00">AP_HAL::I2CDeviceManager</text>
<text text-anchor="middle" x="205" y="-366" font-family="Helvetica,sans-Serif" font-size="10.00">::get_device</text>
</a>
</g>
</g>
<!-- Node8&#45;&gt;Node9 -->
<g id="edge1" class="edge"><title>Node8&#45;&gt;Node9</title>
<path fill="none" stroke="midnightblue" d="M51.0683,-188.148C57.5668,-217.5 80.2952,-303.367 132,-350 133.724,-351.555 135.548,-353.019 137.45,-354.396"/>
<polygon fill="midnightblue" stroke="midnightblue" points="135.894,-357.552 146.225,-359.903 139.615,-351.623 135.894,-357.552"/>
</g>
<!-- Node10 -->
<g id="node3" class="node"><title>Node10</title>
<g id="a_node3"><a xlink:href="classAP__HAL_1_1I2CDevice.html#aecaa17329f98d50d437e53507b1e5c77" target="_top" xlink:title=" ">
<polygon fill="white" stroke="black" points="149.202,-309 149.202,-341 260.798,-341 260.798,-309 149.202,-309"/>
<text text-anchor="start" x="157.202" y="-327" font-family="Helvetica,sans-Serif" font-size="10.00">AP_HAL::I2CDevice::</text>
<text text-anchor="middle" x="205" y="-315" font-family="Helvetica,sans-Serif" font-size="10.00">get_semaphore</text>
</a>
</g>
</g>
<!-- Node8&#45;&gt;Node10 -->
<g id="edge2" class="edge"><title>Node8&#45;&gt;Node10</title>
<path fill="none" stroke="midnightblue" d="M53.2374,-188.019C63.4258,-210.952 91.4889,-267.685 132,-299 134.576,-300.991 137.319,-302.84 140.172,-304.554"/>
<polygon fill="midnightblue" stroke="midnightblue" points="138.545,-307.653 149.01,-309.305 141.859,-301.487 138.545,-307.653"/>
</g>
<!-- Node11 -->
<g id="node4" class="node"><title>Node11</title>
<g id="a_node4"><a xlink:href="classAP__HAL_1_1Semaphore.html#ab4866b1d5b6d1ec196328fafdc4705a8" target="_top" xlink:title=" ">
<polygon fill="white" stroke="black" points="146.417,-258 146.417,-290 263.583,-290 263.583,-258 146.417,-258"/>
<text text-anchor="start" x="154.417" y="-276" font-family="Helvetica,sans-Serif" font-size="10.00">AP_HAL::Semaphore::</text>
<text text-anchor="middle" x="205" y="-264" font-family="Helvetica,sans-Serif" font-size="10.00">take_blocking</text>
</a>
</g>
</g>
<!-- Node8&#45;&gt;Node11 -->
<g id="edge3" class="edge"><title>Node8&#45;&gt;Node11</title>
<path fill="none" stroke="midnightblue" d="M58.8327,-188.36C73.5189,-203.32 102.615,-231.035 132,-248 135.462,-249.999 139.104,-251.887 142.837,-253.662"/>
<polygon fill="midnightblue" stroke="midnightblue" points="141.69,-256.982 152.249,-257.844 144.532,-250.585 141.69,-256.982"/>
</g>
<!-- Node13 -->
<g id="node6" class="node"><title>Node13</title>
<g id="a_node6"><a xlink:href="classAP__HAL_1_1Device.html#a871deca702e85b91191788a3415b50ca" target="_top" xlink:title=" ">
<polygon fill="white" stroke="black" points="150.313,-207 150.313,-239 259.687,-239 259.687,-207 150.313,-207"/>
<text text-anchor="start" x="158.313" y="-225" font-family="Helvetica,sans-Serif" font-size="10.00">AP_HAL::Device::set</text>
<text text-anchor="middle" x="205" y="-213" font-family="Helvetica,sans-Serif" font-size="10.00">_retries</text>
</a>
</g>
</g>
<!-- Node8&#45;&gt;Node13 -->
<g id="edge5" class="edge"><title>Node8&#45;&gt;Node13</title>
<path fill="none" stroke="midnightblue" d="M83.785,-188.099C100.507,-192.954 121.087,-198.929 140.463,-204.554"/>
<polygon fill="midnightblue" stroke="midnightblue" points="139.577,-207.941 150.156,-207.368 141.529,-201.219 139.577,-207.941"/>
</g>
<!-- Node14 -->
<g id="node7" class="node"><title>Node14</title>
<g id="a_node7"><a xlink:href="classNCP5623.html#a60b36f938a58b51bf5d9abe9051d813d" target="_top" xlink:title=" ">
<polygon fill="white" stroke="black" points="485.985,-129 485.985,-149 572.015,-149 572.015,-129 485.985,-129"/>
<text text-anchor="middle" x="529" y="-135" font-family="Helvetica,sans-Serif" font-size="10.00">NCP5623::write</text>
</a>
</g>
</g>
<!-- Node8&#45;&gt;Node14 -->
<g id="edge6" class="edge"><title>Node8&#45;&gt;Node14</title>
<path fill="none" stroke="midnightblue" d="M96.2393,-174.154C186.328,-166.819 382.05,-150.883 475.841,-143.247"/>
<polygon fill="midnightblue" stroke="midnightblue" points="476.265,-146.724 485.948,-142.424 475.697,-139.747 476.265,-146.724"/>
</g>
<!-- Node16 -->
<g id="node9" class="node"><title>Node16</title>
<g id="a_node9"><a xlink:href="classAP__HAL_1_1Semaphore.html#afcdbf03d5bea9d83037acc93bfaea7ce" target="_top" xlink:title=" ">
<polygon fill="white" stroke="black" points="137.244,-129 137.244,-149 272.756,-149 272.756,-129 137.244,-129"/>
<text text-anchor="middle" x="205" y="-135" font-family="Helvetica,sans-Serif" font-size="10.00">AP_HAL::Semaphore::give</text>
</a>
</g>
</g>
<!-- Node8&#45;&gt;Node16 -->
<g id="edge8" class="edge"><title>Node8&#45;&gt;Node16</title>
<path fill="none" stroke="midnightblue" d="M88.9164,-167.957C108.894,-162.93 133.269,-156.797 154.435,-151.471"/>
<polygon fill="midnightblue" stroke="midnightblue" points="155.375,-154.844 164.219,-149.009 153.667,-148.055 155.375,-154.844"/>
</g>
<!-- Node17 -->
<g id="node10" class="node"><title>Node17</title>
<g id="a_node10"><a xlink:href="classNCP5623.html#aa860fbfb282e48a4d2434547b099b6ee" target="_top" xlink:title=" ">
<polygon fill="white" stroke="black" points="325.648,-90 325.648,-110 438.352,-110 438.352,-90 325.648,-90"/>
<text text-anchor="middle" x="382" y="-96" font-family="Helvetica,sans-Serif" font-size="10.00">NCP5623::write_pwm</text>
</a>
</g>
</g>
<!-- Node8&#45;&gt;Node17 -->
<g id="edge9" class="edge"><title>Node8&#45;&gt;Node17</title>
<path fill="none" stroke="midnightblue" d="M59.7203,-167.614C74.5719,-153.954 102.884,-130.465 132,-120 191.373,-98.6608 263.676,-95.1159 315.04,-96.0324"/>
<polygon fill="midnightblue" stroke="midnightblue" points="315.266,-99.5387 325.347,-96.281 315.435,-92.5408 315.266,-99.5387"/>
</g>
<!-- Node18 -->
<g id="node11" class="node"><title>Node18</title>
<g id="a_node11"><a xlink:href="classAP__HAL_1_1I2CDevice.html#a5d6a208d57d47068884af3a4fb90f1a2" target="_top" xlink:title=" ">
<polygon fill="white" stroke="black" points="139.192,-39 139.192,-71 270.808,-71 270.808,-39 139.192,-39"/>
<text text-anchor="start" x="147.192" y="-57" font-family="Helvetica,sans-Serif" font-size="10.00">AP_HAL::I2CDevice::</text>
<text text-anchor="middle" x="205" y="-45" font-family="Helvetica,sans-Serif" font-size="10.00">register_periodic_callback</text>
</a>
</g>
</g>
<!-- Node8&#45;&gt;Node18 -->
<g id="edge11" class="edge"><title>Node8&#45;&gt;Node18</title>
<path fill="none" stroke="midnightblue" d="M55.8756,-167.847C68.8366,-149.364 98.6,-109.929 132,-86 137.426,-82.1125 143.416,-78.5767 149.554,-75.4006"/>
<polygon fill="midnightblue" stroke="midnightblue" points="151.139,-78.522 158.606,-71.0054 148.081,-72.2251 151.139,-78.522"/>
</g>
<!-- Node19 -->
<g id="node12" class="node"><title>Node19</title>
<g id="a_node12"><a xlink:href="classNCP5623.html#aee2b455331d98e86a4755709b736f626" target="_top" xlink:title=" ">
<polygon fill="white" stroke="black" points="158.65,-0 158.65,-20 251.35,-20 251.35,-0 158.65,-0"/>
<text text-anchor="middle" x="205" y="-6" font-family="Helvetica,sans-Serif" font-size="10.00">NCP5623::_timer</text>
</a>
</g>
</g>
<!-- Node8&#45;&gt;Node19 -->
<g id="edge12" class="edge"><title>Node8&#45;&gt;Node19</title>
<path fill="none" stroke="midnightblue" d="M51.6375,-167.845C59.2002,-140.811 83.5887,-66.5942 132,-29 137.026,-25.0973 142.78,-21.993 148.798,-19.5243"/>
<polygon fill="midnightblue" stroke="midnightblue" points="150.132,-22.7654 158.403,-16.1447 147.808,-16.1622 150.132,-22.7654"/>
</g>
<!-- Node12 -->
<g id="node5" class="node"><title>Node12</title>
<g id="a_node5"><a xlink:href="classAP__HAL_1_1Semaphore.html#abd3a0affad8bb211981a979f30386589" target="_top" xlink:title=" ">
<polygon fill="white" stroke="black" points="313.966,-264 313.966,-284 450.034,-284 450.034,-264 313.966,-264"/>
<text text-anchor="middle" x="382" y="-270" font-family="Helvetica,sans-Serif" font-size="10.00">AP_HAL::Semaphore::take</text>
</a>
</g>
</g>
<!-- Node11&#45;&gt;Node12 -->
<g id="edge4" class="edge"><title>Node11&#45;&gt;Node12</title>
<path fill="none" stroke="midnightblue" d="M263.787,-274C276.56,-274 290.291,-274 303.699,-274"/>
<polygon fill="midnightblue" stroke="midnightblue" points="303.867,-277.5 313.867,-274 303.867,-270.5 303.867,-277.5"/>
</g>
<!-- Node15 -->
<g id="node8" class="node"><title>Node15</title>
<g id="a_node8"><a xlink:href="classAP__HAL_1_1I2CDevice.html#a2e581ddc9b02eb73ad2fdf488fe8dc86" target="_top" xlink:title=" ">
<polygon fill="white" stroke="black" points="608.202,-123 608.202,-155 719.798,-155 719.798,-123 608.202,-123"/>
<text text-anchor="start" x="616.202" y="-141" font-family="Helvetica,sans-Serif" font-size="10.00">AP_HAL::I2CDevice::</text>
<text text-anchor="middle" x="664" y="-129" font-family="Helvetica,sans-Serif" font-size="10.00">transfer</text>
</a>
</g>
</g>
<!-- Node14&#45;&gt;Node15 -->
<g id="edge7" class="edge"><title>Node14&#45;&gt;Node15</title>
<path fill="none" stroke="midnightblue" d="M572.082,-139C580.287,-139 589.068,-139 597.818,-139"/>
<polygon fill="midnightblue" stroke="midnightblue" points="598.04,-142.5 608.04,-139 598.04,-135.5 598.04,-142.5"/>
</g>
<!-- Node17&#45;&gt;Node14 -->
<g id="edge10" class="edge"><title>Node17&#45;&gt;Node14</title>
<path fill="none" stroke="midnightblue" d="M420.341,-110.043C438.861,-115.025 461.42,-121.092 481.094,-126.384"/>
<polygon fill="midnightblue" stroke="midnightblue" points="480.22,-129.773 490.785,-128.991 482.038,-123.013 480.22,-129.773"/>
</g>
<!-- Node19&#45;&gt;Node17 -->
<g id="edge13" class="edge"><title>Node19&#45;&gt;Node17</title>
<path fill="none" stroke="midnightblue" d="M251.391,-19.4215C260.407,-21.999 269.66,-25.1672 278,-29 309.287,-43.3779 341.325,-67.1778 361.185,-83.2154"/>
<polygon fill="midnightblue" stroke="midnightblue" points="359.212,-86.124 369.16,-89.7696 363.657,-80.7161 359.212,-86.124"/>
</g>
</g>
</svg>
        <g id="navigator" transform="translate(0 0)" fill="#404254">
                <rect fill="#f2f5e9" fill-opacity="0.5" stroke="#606060" stroke-width=".5" x="0" y="0" width="60" height="60"/>
                <use id="zoomplus" xlink:href="#zoomPlus" x="17" y="9" onmousedown="handleZoom(evt,'in')"/>
                <use id="zoomminus" xlink:href="#zoomMin" x="42" y="9" onmousedown="handleZoom(evt,'out')"/>
                <use id="reset" xlink:href="#resetDef" x="30" y="36" onmousedown="handleReset()"/>
                <g id="arrowUp" xlink:href="#dirArrow" transform="translate(30 24)" onmousedown="handlePan(0,-1)">
                  <use xlink:href="#rim" fill="#404040">
                        <set attributeName="fill" to="#808080" begin="arrowUp.mouseover" end="arrowUp.mouseout"/>
                  </use>
                  <path fill="none" stroke="white" stroke-width="1.5" d="M0,-3.0v7 M-2.5,-0.5L0,-3.0L2.5,-0.5"/>
                </g>
                <g id="arrowRight" xlink:href="#dirArrow" transform="rotate(90) translate(36 -43)" onmousedown="handlePan(1,0)">
                  <use xlink:href="#rim" fill="#404040">
                        <set attributeName="fill" to="#808080" begin="arrowRight.mouseover" end="arrowRight.mouseout"/>
                  </use>
                  <path fill="none" stroke="white" stroke-width="1.5" d="M0,-3.0v7 M-2.5,-0.5L0,-3.0L2.5,-0.5"/>
                </g>
                <g id="arrowDown" xlink:href="#dirArrow" transform="rotate(180) translate(-30 -48)" onmousedown="handlePan(0,1)">
                  <use xlink:href="#rim" fill="#404040">
                        <set attributeName="fill" to="#808080" begin="arrowDown.mouseover" end="arrowDown.mouseout"/>
                  </use>
                  <path fill="none" stroke="white" stroke-width="1.5" d="M0,-3.0v7 M-2.5,-0.5L0,-3.0L2.5,-0.5"/>
                </g>
                <g id="arrowLeft" xlink:href="#dirArrow" transform="rotate(270) translate(-36 17)" onmousedown="handlePan(-1,0)">
                  <use xlink:href="#rim" fill="#404040">
                        <set attributeName="fill" to="#808080" begin="arrowLeft.mouseover" end="arrowLeft.mouseout"/>
                  </use>
                  <path fill="none" stroke="white" stroke-width="1.5" d="M0,-3.0v7 M-2.5,-0.5L0,-3.0L2.5,-0.5"/>
                </g>
        </g>
        <svg viewBox="0 0 15 15" width="100%" height="30px" preserveAspectRatio="xMaxYMin meet">
         <g id="arrow_out" transform="scale(0.3 0.3)">
          <a xlink:href="classNCP5623_a764df98f02679bdac817b8f1b39f383d_cgraph_org.svg" target="_base">
           <rect id="button" ry="5" rx="5" y="6" x="6" height="38" width="38"
                fill="#f2f5e9" fill-opacity="0.5" stroke="#606060" stroke-width="1.0"/>
           <path id="arrow"
             d="M 11.500037,31.436501 C 11.940474,20.09759 22.043105,11.32322 32.158766,21.979434 L 37.068811,17.246167 C 37.068811,17.246167 37.088388,32 37.088388,32 L 22.160133,31.978069 C 22.160133,31.978069 26.997745,27.140456 26.997745,27.140456 C 18.528582,18.264221 13.291696,25.230495 11.500037,31.436501 z"
             style="fill:#404040;"/>
          </a>
         </g>
        </svg>
</svg>
