<?xml version="1.0" encoding="UTF-8" standalone="no"?>
<!DOCTYPE svg PUBLIC "-//W3C//DTD SVG 1.1//EN"
 "http://www.w3.org/Graphics/SVG/1.1/DTD/svg11.dtd">
<!-- Generated by graphviz version 2.30.1 (20130221.2233)
 -->
<!-- Title: HALSITL::UARTDriver::_udp_start_client Pages: 1 -->
<svg width="548pt" height="190pt"
 viewBox="0.00 0.00 548.00 189.61" xmlns="http://www.w3.org/2000/svg" xmlns:xlink="http://www.w3.org/1999/xlink">
<g id="graph0" class="graph" transform="scale(1 1) rotate(0) translate(4 185.605)">
<title>HALSITL::UARTDriver::_udp_start_client</title>
<polygon fill="white" stroke="white" points="-4,5 -4,-185.605 545,-185.605 545,5 -4,5"/>
<!-- Node175 -->
<g id="node1" class="node"><title>Node175</title>
<g id="a_node1"><a xlink:title=" ">
<polygon fill="#bfbfbf" stroke="black" points="0.0805664,-52 0.0805664,-84 115.919,-84 115.919,-52 0.0805664,-52"/>
<text text-anchor="start" x="8.08057" y="-70" font-family="Helvetica,sans-Serif" font-size="10.00">HALSITL::UARTDriver</text>
<text text-anchor="middle" x="58" y="-58" font-family="Helvetica,sans-Serif" font-size="10.00">::_udp_start_client</text>
</a>
</g>
</g>
<!-- Node176 -->
<g id="node2" class="node"><title>Node176</title>
<g id="a_node2"><a xlink:href="posix_8c.html#a8877deace0c63591fee0cc9c94d249d3" target="_top" xlink:title="POSIX Close a file with fileno handel.">
<polygon fill="white" stroke="black" points="156.328,-78 156.328,-98 195.672,-98 195.672,-78 156.328,-78"/>
<text text-anchor="middle" x="176" y="-84" font-family="Helvetica,sans-Serif" font-size="10.00">close</text>
</a>
</g>
</g>
<!-- Node175&#45;&gt;Node176 -->
<g id="edge1" class="edge"><title>Node175&#45;&gt;Node176</title>
<path fill="none" stroke="midnightblue" d="M115.981,-77.8242C126.441,-79.6277 136.945,-81.4388 146.132,-83.0228"/>
<polygon fill="midnightblue" stroke="midnightblue" points="145.781,-86.5139 156.231,-84.7639 146.971,-79.6156 145.781,-86.5139"/>
</g>
<!-- Node184 -->
<g id="node10" class="node"><title>Node184</title>
<g id="a_node10"><a xlink:href="posix_8c.html#add46ab98f32b76457852dbb872842bf2" target="_top" xlink:title="POSIX strerror() &#45; convert POSIX errno to text with user message.">
<polygon fill="white" stroke="black" points="151.889,-39 151.889,-59 200.111,-59 200.111,-39 151.889,-39"/>
<text text-anchor="middle" x="176" y="-45" font-family="Helvetica,sans-Serif" font-size="10.00">strerror</text>
</a>
</g>
</g>
<!-- Node175&#45;&gt;Node184 -->
<g id="edge16" class="edge"><title>Node175&#45;&gt;Node184</title>
<path fill="none" stroke="midnightblue" d="M115.981,-58.667C124.825,-57.2184 133.701,-55.7646 141.785,-54.4404"/>
<polygon fill="midnightblue" stroke="midnightblue" points="142.585,-57.856 151.888,-52.7856 141.454,-50.9481 142.585,-57.856"/>
</g>
<!-- Node177 -->
<g id="node3" class="node"><title>Node177</title>
<g id="a_node3"><a xlink:href="posix_8c.html#ae0821388c321f66b16fbca4a625022de" target="_top" xlink:title="Convert POSIX fileno to POSIX FILE stream pointer. NOT POSIX.">
<polygon fill="white" stroke="black" points="374.035,-78 374.035,-98 463.965,-98 463.965,-78 374.035,-78"/>
<text text-anchor="middle" x="419" y="-84" font-family="Helvetica,sans-Serif" font-size="10.00">fileno_to_stream</text>
</a>
</g>
</g>
<!-- Node176&#45;&gt;Node177 -->
<g id="edge2" class="edge"><title>Node176&#45;&gt;Node177</title>
<path fill="none" stroke="midnightblue" d="M195.911,-88C231.593,-88 310.057,-88 363.49,-88"/>
<polygon fill="midnightblue" stroke="midnightblue" points="363.823,-91.5001 373.823,-88 363.823,-84.5001 363.823,-91.5001"/>
</g>
<!-- Node178 -->
<g id="node4" class="node"><title>Node178</title>
<g id="a_node4"><a xlink:href="posix_8c.html#af86fa14728c9bad5418a6d29cad9f9ff" target="_top" xlink:title="Convert POSIX stream pointer to POSIX fileno (index of __iob[])">
<polygon fill="white" stroke="black" points="500.047,-117 500.047,-137 539.953,-137 539.953,-117 500.047,-117"/>
<text text-anchor="middle" x="520" y="-123" font-family="Helvetica,sans-Serif" font-size="10.00">fileno</text>
</a>
</g>
</g>
<!-- Node176&#45;&gt;Node178 -->
<g id="edge4" class="edge"><title>Node176&#45;&gt;Node178</title>
<path fill="none" stroke="midnightblue" d="M184.003,-98.2565C193.86,-111.768 213.194,-135.092 236,-146 327.64,-189.831 366.469,-190.401 464,-162 476.775,-158.28 489.416,-150.595 499.351,-143.372"/>
<polygon fill="midnightblue" stroke="midnightblue" points="501.52,-146.12 507.322,-137.254 497.258,-140.567 501.52,-146.12"/>
</g>
<!-- Node179 -->
<g id="node5" class="node"><title>Node179</title>
<g id="a_node5"><a xlink:href="posix_8c.html#a1eeda4d85cf3cae5cf1ee8c1e196a686" target="_top" xlink:title="Convert POSIX fileno to FatFS handle NOT POSIX.">
<polygon fill="white" stroke="black" points="247.867,-117 247.867,-137 326.133,-137 326.133,-117 247.867,-117"/>
<text text-anchor="middle" x="287" y="-123" font-family="Helvetica,sans-Serif" font-size="10.00">fileno_to_fatfs</text>
</a>
</g>
</g>
<!-- Node176&#45;&gt;Node179 -->
<g id="edge5" class="edge"><title>Node176&#45;&gt;Node179</title>
<path fill="none" stroke="midnightblue" d="M195.986,-94.7933C210.396,-99.9491 230.673,-107.204 248.335,-113.523"/>
<polygon fill="midnightblue" stroke="midnightblue" points="247.229,-116.845 257.823,-116.918 249.587,-110.254 247.229,-116.845"/>
</g>
<!-- Node181 -->
<g id="node7" class="node"><title>Node181</title>
<g id="a_node7"><a xlink:href="posix_8c.html#a9d5502ebc4eba38ea5ef6ca4ba71bc02" target="_top" xlink:title="Free POSIX fileno FILE descriptor. NOT POSIX.">
<polygon fill="white" stroke="black" points="236.478,-39 236.478,-59 337.522,-59 337.522,-39 236.478,-39"/>
<text text-anchor="middle" x="287" y="-45" font-family="Helvetica,sans-Serif" font-size="10.00">free_file_descriptor</text>
</a>
</g>
</g>
<!-- Node176&#45;&gt;Node181 -->
<g id="edge10" class="edge"><title>Node176&#45;&gt;Node181</title>
<path fill="none" stroke="midnightblue" d="M195.986,-81.2067C210.396,-76.0509 230.673,-68.7958 248.335,-62.4766"/>
<polygon fill="midnightblue" stroke="midnightblue" points="249.587,-65.7458 257.823,-59.0815 247.229,-59.155 249.587,-65.7458"/>
</g>
<!-- Node183 -->
<g id="node9" class="node"><title>Node183</title>
<g id="a_node9"><a xlink:href="posix_8c.html#aeb68afd2fdf966f8d89cc7aaa9aa7c23" target="_top" xlink:title="Convert FafFs error result to POSIX errno. NOT POSIX.">
<polygon fill="white" stroke="black" points="248.148,-0 248.148,-20 325.852,-20 325.852,-0 248.148,-0"/>
<text text-anchor="middle" x="287" y="-6" font-family="Helvetica,sans-Serif" font-size="10.00">fatfs_to_errno</text>
</a>
</g>
</g>
<!-- Node176&#45;&gt;Node183 -->
<g id="edge15" class="edge"><title>Node176&#45;&gt;Node183</title>
<path fill="none" stroke="midnightblue" d="M189.398,-77.6557C192.897,-74.6204 196.659,-71.2435 200,-68 216.926,-51.5693 216.455,-42.2075 236,-29 238.416,-27.3671 240.993,-25.8489 243.653,-24.4418"/>
<polygon fill="midnightblue" stroke="midnightblue" points="245.356,-27.5083 252.911,-20.0807 242.373,-21.1757 245.356,-27.5083"/>
</g>
<!-- Node177&#45;&gt;Node178 -->
<g id="edge3" class="edge"><title>Node177&#45;&gt;Node178</title>
<path fill="none" stroke="midnightblue" d="M445.495,-98.0435C459.273,-103.471 476.326,-110.189 490.537,-115.787"/>
<polygon fill="midnightblue" stroke="midnightblue" points="489.259,-119.046 499.846,-119.454 491.825,-112.533 489.259,-119.046"/>
</g>
<!-- Node180 -->
<g id="node6" class="node"><title>Node180</title>
<g id="a_node6"><a xlink:href="posix_8c.html#aeac589354c9d47c7d9c7c49ba4b0d266" target="_top" xlink:title="Test POSIX fileno if it is a Serial Console/TTY.">
<polygon fill="white" stroke="black" points="399.33,-117 399.33,-137 438.67,-137 438.67,-117 399.33,-117"/>
<text text-anchor="middle" x="419" y="-123" font-family="Helvetica,sans-Serif" font-size="10.00">isatty</text>
</a>
</g>
</g>
<!-- Node179&#45;&gt;Node180 -->
<g id="edge6" class="edge"><title>Node179&#45;&gt;Node180</title>
<path fill="none" stroke="midnightblue" d="M326.301,-127C346.336,-127 370.466,-127 388.944,-127"/>
<polygon fill="midnightblue" stroke="midnightblue" points="389.097,-130.5 399.097,-127 389.097,-123.5 389.097,-130.5"/>
</g>
<!-- Node179&#45;&gt;Node178 -->
<g id="edge8" class="edge"><title>Node179&#45;&gt;Node178</title>
<path fill="none" stroke="midnightblue" d="M324.958,-137.013C340.043,-140.614 357.736,-144.225 374,-146 413.764,-150.34 424.552,-152.622 464,-146 472.712,-144.538 481.89,-141.857 490.198,-138.962"/>
<polygon fill="midnightblue" stroke="midnightblue" points="491.657,-142.154 499.812,-135.391 489.219,-135.592 491.657,-142.154"/>
</g>
<!-- Node179&#45;&gt;Node177 -->
<g id="edge9" class="edge"><title>Node179&#45;&gt;Node177</title>
<path fill="none" stroke="midnightblue" d="M321.478,-116.957C337.703,-112.089 357.386,-106.184 374.734,-100.98"/>
<polygon fill="midnightblue" stroke="midnightblue" points="376.063,-104.235 384.635,-98.0094 374.051,-97.5306 376.063,-104.235"/>
</g>
<!-- Node180&#45;&gt;Node178 -->
<g id="edge7" class="edge"><title>Node180&#45;&gt;Node178</title>
<path fill="none" stroke="midnightblue" d="M439.088,-127C453.469,-127 473.441,-127 489.82,-127"/>
<polygon fill="midnightblue" stroke="midnightblue" points="489.97,-130.5 499.97,-127 489.97,-123.5 489.97,-130.5"/>
</g>
<!-- Node181&#45;&gt;Node180 -->
<g id="edge11" class="edge"><title>Node181&#45;&gt;Node180</title>
<path fill="none" stroke="midnightblue" d="M301.549,-59.1789C318.124,-71.3819 347.281,-92.0548 374,-107 379.035,-109.816 384.539,-112.562 389.897,-115.073"/>
<polygon fill="midnightblue" stroke="midnightblue" points="388.696,-118.371 399.25,-119.301 391.58,-111.993 388.696,-118.371"/>
</g>
<!-- Node181&#45;&gt;Node178 -->
<g id="edge12" class="edge"><title>Node181&#45;&gt;Node178</title>
<path fill="none" stroke="midnightblue" d="M337.63,-45.3412C374.387,-44.708 424.698,-48.3317 464,-68 481.908,-76.9618 496.971,-94.3212 506.779,-107.9"/>
<polygon fill="midnightblue" stroke="midnightblue" points="504.163,-110.274 512.701,-116.547 509.938,-106.319 504.163,-110.274"/>
</g>
<!-- Node181&#45;&gt;Node177 -->
<g id="edge13" class="edge"><title>Node181&#45;&gt;Node177</title>
<path fill="none" stroke="midnightblue" d="M321.478,-59.0435C337.703,-63.911 357.386,-69.8158 374.734,-75.0203"/>
<polygon fill="midnightblue" stroke="midnightblue" points="374.051,-78.4694 384.635,-77.9906 376.063,-71.7646 374.051,-78.4694"/>
</g>
<!-- Node182 -->
<g id="node8" class="node"><title>Node182</title>
<g id="a_node8"><a xlink:href="malloc_8c.html#afbedc913aa4651b3c3b4b3aecd9b4711" target="_top" xlink:title=" ">
<polygon fill="white" stroke="black" points="402.384,-0 402.384,-20 435.616,-20 435.616,-0 402.384,-0"/>
<text text-anchor="middle" x="419" y="-6" font-family="Helvetica,sans-Serif" font-size="10.00">free</text>
</a>
</g>
</g>
<!-- Node181&#45;&gt;Node182 -->
<g id="edge14" class="edge"><title>Node181&#45;&gt;Node182</title>
<path fill="none" stroke="midnightblue" d="M321.478,-38.9565C343.644,-32.3067 372.263,-23.721 392.568,-17.6297"/>
<polygon fill="midnightblue" stroke="midnightblue" points="393.777,-20.9212 402.349,-14.6952 391.765,-14.2164 393.777,-20.9212"/>
</g>
</g>
</svg>
