<?xml version="1.0" encoding="UTF-8" standalone="no"?>
<!DOCTYPE svg PUBLIC "-//W3C//DTD SVG 1.1//EN"
 "http://www.w3.org/Graphics/SVG/1.1/DTD/svg11.dtd">
<!-- Generated by graphviz version 2.30.1 (20130221.2233)
 -->
<!-- Title: AC_PosControl::set_desired_velocity_xy Pages: 1 -->
<svg width="448pt" height="157pt"
 viewBox="0.00 0.00 448.00 157.00" xmlns="http://www.w3.org/2000/svg" xmlns:xlink="http://www.w3.org/1999/xlink">
<g id="graph0" class="graph" transform="scale(1 1) rotate(0) translate(4 153)">
<title>AC_PosControl::set_desired_velocity_xy</title>
<polygon fill="white" stroke="white" points="-4,5 -4,-153 445,-153 445,5 -4,5"/>
<!-- Node616 -->
<g id="node1" class="node"><title>Node616</title>
<g id="a_node1"><a xlink:title=" ">
<polygon fill="#bfbfbf" stroke="black" points="330.586,-52 330.586,-84 439.414,-84 439.414,-52 330.586,-52"/>
<text text-anchor="start" x="338.586" y="-70" font-family="Helvetica,sans-Serif" font-size="10.00">AC_PosControl::set</text>
<text text-anchor="middle" x="385" y="-58" font-family="Helvetica,sans-Serif" font-size="10.00">_desired_velocity_xy</text>
</a>
</g>
</g>
<!-- Node617 -->
<g id="node2" class="node"><title>Node617</title>
<g id="a_node2"><a xlink:href="classAC__Loiter.html#a5a2f3d8bb29a6cf03ea900e24dae2b75" target="_top" xlink:title=" ">
<polygon fill="white" stroke="black" points="152.917,-117 152.917,-149 275.083,-149 275.083,-117 152.917,-117"/>
<text text-anchor="start" x="160.917" y="-135" font-family="Helvetica,sans-Serif" font-size="10.00">AC_Loiter::calc_desired</text>
<text text-anchor="middle" x="214" y="-123" font-family="Helvetica,sans-Serif" font-size="10.00">_velocity</text>
</a>
</g>
</g>
<!-- Node616&#45;&gt;Node617 -->
<g id="edge1" class="edge"><title>Node616&#45;&gt;Node617</title>
<path fill="none" stroke="midnightblue" d="M339.621,-88.1834C325.185,-94.4916 309.015,-101.289 294,-107 285.093,-110.388 275.527,-113.757 266.235,-116.892"/>
<polygon fill="midnightblue" stroke="midnightblue" points="341.088,-91.3616 348.826,-84.125 338.264,-84.9564 341.088,-91.3616"/>
</g>
<!-- Node619 -->
<g id="node4" class="node"><title>Node619</title>
<g id="a_node4"><a xlink:href="classAC__Circle.html#aeecf8efd6d546820ee831e749935df8b" target="_top" xlink:title=" ">
<polygon fill="white" stroke="black" points="174.325,-78 174.325,-98 253.675,-98 253.675,-78 174.325,-78"/>
<text text-anchor="middle" x="214" y="-84" font-family="Helvetica,sans-Serif" font-size="10.00">AC_Circle::init</text>
</a>
</g>
</g>
<!-- Node616&#45;&gt;Node619 -->
<g id="edge3" class="edge"><title>Node616&#45;&gt;Node619</title>
<path fill="none" stroke="midnightblue" d="M320.43,-75.5231C298.08,-78.1681 273.645,-81.0598 253.931,-83.3928"/>
<polygon fill="midnightblue" stroke="midnightblue" points="321.008,-78.9792 330.527,-74.3281 320.185,-72.0277 321.008,-78.9792"/>
</g>
<!-- Node620 -->
<g id="node5" class="node"><title>Node620</title>
<g id="a_node5"><a xlink:href="classAC__Loiter.html#ac61cfb41e7da4ba41276d3e731d6ea85" target="_top" xlink:title="init_target to a position in cm from ekf origin">
<polygon fill="white" stroke="black" points="159.03,-39 159.03,-59 268.97,-59 268.97,-39 159.03,-39"/>
<text text-anchor="middle" x="214" y="-45" font-family="Helvetica,sans-Serif" font-size="10.00">AC_Loiter::init_target</text>
</a>
</g>
</g>
<!-- Node616&#45;&gt;Node620 -->
<g id="edge4" class="edge"><title>Node616&#45;&gt;Node620</title>
<path fill="none" stroke="midnightblue" d="M320.201,-60.8274C303.332,-58.9308 285.29,-56.9024 268.995,-55.0705"/>
<polygon fill="midnightblue" stroke="midnightblue" points="320.199,-64.3491 330.527,-61.9883 320.981,-57.3929 320.199,-64.3491"/>
</g>
<!-- Node621 -->
<g id="node6" class="node"><title>Node621</title>
<g id="a_node6"><a xlink:href="classAC__WPNav.html#a47964df8ebcc78bb101f328a23187e65" target="_top" xlink:title=" ">
<polygon fill="white" stroke="black" points="134.018,-0 134.018,-20 293.982,-20 293.982,-0 134.018,-0"/>
<text text-anchor="middle" x="214" y="-6" font-family="Helvetica,sans-Serif" font-size="10.00">AC_WPNav::wp_and_spline_init</text>
</a>
</g>
</g>
<!-- Node616&#45;&gt;Node621 -->
<g id="edge5" class="edge"><title>Node616&#45;&gt;Node621</title>
<path fill="none" stroke="midnightblue" d="M340.18,-47.9277C325.662,-41.7016 309.301,-35.134 294,-30 283.001,-26.3095 270.943,-22.9312 259.633,-20.0438"/>
<polygon fill="midnightblue" stroke="midnightblue" points="338.86,-51.1699 349.426,-51.9513 341.653,-44.7514 338.86,-51.1699"/>
</g>
<!-- Node618 -->
<g id="node3" class="node"><title>Node618</title>
<g id="a_node3"><a xlink:href="classAC__Loiter.html#ad73abbc1c7fcefbb9d18bac3b1fe4444" target="_top" xlink:title="run the loiter controller">
<polygon fill="white" stroke="black" points="0.694824,-123 0.694824,-143 97.3052,-143 97.3052,-123 0.694824,-123"/>
<text text-anchor="middle" x="49" y="-129" font-family="Helvetica,sans-Serif" font-size="10.00">AC_Loiter::update</text>
</a>
</g>
</g>
<!-- Node617&#45;&gt;Node618 -->
<g id="edge2" class="edge"><title>Node617&#45;&gt;Node618</title>
<path fill="none" stroke="midnightblue" d="M142.38,-133C127.219,-133 111.546,-133 97.5117,-133"/>
<polygon fill="midnightblue" stroke="midnightblue" points="142.768,-136.5 152.768,-133 142.768,-129.5 142.768,-136.5"/>
</g>
</g>
</svg>
