<?xml version="1.0" encoding="UTF-8" standalone="no"?>
<!DOCTYPE svg PUBLIC "-//W3C//DTD SVG 1.1//EN"
 "http://www.w3.org/Graphics/SVG/1.1/DTD/svg11.dtd">
<!-- Generated by graphviz version 2.30.1 (20130221.2233)
 -->
<!-- Title: AC_PrecLand_SITL_Gazebo::get_los_body Pages: 1 -->
<svg width="336pt" height="40pt"
 viewBox="0.00 0.00 336.00 40.00" xmlns="http://www.w3.org/2000/svg" xmlns:xlink="http://www.w3.org/1999/xlink">
<g id="graph0" class="graph" transform="scale(1 1) rotate(0) translate(4 36)">
<title>AC_PrecLand_SITL_Gazebo::get_los_body</title>
<polygon fill="white" stroke="white" points="-4,5 -4,-36 333,-36 333,5 -4,5"/>
<!-- Node2 -->
<g id="node1" class="node"><title>Node2</title>
<g id="a_node1"><a xlink:title=" ">
<polygon fill="#bfbfbf" stroke="black" points="0.236816,-0 0.236816,-32 145.763,-32 145.763,-0 0.236816,-0"/>
<text text-anchor="start" x="8.23682" y="-18" font-family="Helvetica,sans-Serif" font-size="10.00">AC_PrecLand_SITL_Gazebo</text>
<text text-anchor="middle" x="73" y="-6" font-family="Helvetica,sans-Serif" font-size="10.00">::get_los_body</text>
</a>
</g>
</g>
<!-- Node3 -->
<g id="node2" class="node"><title>Node3</title>
<g id="a_node2"><a xlink:href="classAC__PrecLand__SITL__Gazebo.html#a8bf87f51ef7b1ee3c5c02af7aeed50cc" target="_top" xlink:title=" ">
<polygon fill="white" stroke="black" points="182.237,-0 182.237,-32 327.763,-32 327.763,-0 182.237,-0"/>
<text text-anchor="start" x="190.237" y="-18" font-family="Helvetica,sans-Serif" font-size="10.00">AC_PrecLand_SITL_Gazebo</text>
<text text-anchor="middle" x="255" y="-6" font-family="Helvetica,sans-Serif" font-size="10.00">::have_los_meas</text>
</a>
</g>
</g>
<!-- Node2&#45;&gt;Node3 -->
<g id="edge1" class="edge"><title>Node2&#45;&gt;Node3</title>
<path fill="none" stroke="midnightblue" d="M145.917,-16C154.503,-16 163.319,-16 172.034,-16"/>
<polygon fill="midnightblue" stroke="midnightblue" points="172.198,-19.5001 182.197,-16 172.197,-12.5001 172.198,-19.5001"/>
</g>
</g>
</svg>
