<?xml version="1.0" encoding="UTF-8" standalone="no"?>
<!DOCTYPE svg PUBLIC "-//W3C//DTD SVG 1.1//EN"
 "http://www.w3.org/Graphics/SVG/1.1/DTD/svg11.dtd">
<!-- Generated by graphviz version 2.30.1 (20130221.2233)
 -->
<!-- Title: AP_BoardConfig::board_setup_uart Pages: 1 -->
<svg width="280pt" height="40pt"
 viewBox="0.00 0.00 280.00 40.00" xmlns="http://www.w3.org/2000/svg" xmlns:xlink="http://www.w3.org/1999/xlink">
<g id="graph0" class="graph" transform="scale(1 1) rotate(0) translate(4 36)">
<title>AP_BoardConfig::board_setup_uart</title>
<polygon fill="white" stroke="white" points="-4,5 -4,-36 277,-36 277,5 -4,5"/>
<!-- Node78 -->
<g id="node1" class="node"><title>Node78</title>
<g id="a_node1"><a xlink:title=" ">
<polygon fill="#bfbfbf" stroke="black" points="0.1875,-0 0.1875,-32 121.812,-32 121.812,-0 0.1875,-0"/>
<text text-anchor="start" x="8.1875" y="-18" font-family="Helvetica,sans-Serif" font-size="10.00">AP_BoardConfig::board</text>
<text text-anchor="middle" x="61" y="-6" font-family="Helvetica,sans-Serif" font-size="10.00">_setup_uart</text>
</a>
</g>
</g>
<!-- Node79 -->
<g id="node2" class="node"><title>Node79</title>
<g id="a_node2"><a xlink:href="classAP__HAL_1_1UARTDriver.html#ae831a0d75f4760267d444c522e1271a1" target="_top" xlink:title=" ">
<polygon fill="white" stroke="black" points="158.189,-0 158.189,-32 271.811,-32 271.811,-0 158.189,-0"/>
<text text-anchor="start" x="166.189" y="-18" font-family="Helvetica,sans-Serif" font-size="10.00">AP_HAL::UARTDriver</text>
<text text-anchor="middle" x="215" y="-6" font-family="Helvetica,sans-Serif" font-size="10.00">::set_flow_control</text>
</a>
</g>
</g>
<!-- Node78&#45;&gt;Node79 -->
<g id="edge1" class="edge"><title>Node78&#45;&gt;Node79</title>
<path fill="none" stroke="midnightblue" d="M122.074,-16C130.452,-16 139.099,-16 147.585,-16"/>
<polygon fill="midnightblue" stroke="midnightblue" points="147.826,-19.5001 157.826,-16 147.826,-12.5001 147.826,-19.5001"/>
</g>
</g>
</svg>
