<?xml version="1.0" encoding="UTF-8" standalone="no"?>
<!DOCTYPE svg PUBLIC "-//W3C//DTD SVG 1.1//EN"
 "http://www.w3.org/Graphics/SVG/1.1/DTD/svg11.dtd">
<!-- Generated by graphviz version 2.30.1 (20130221.2233)
 -->
<!-- Title: AP_TECS::_initialise_states Pages: 1 -->
<svg width="276pt" height="40pt"
 viewBox="0.00 0.00 276.00 40.00" xmlns="http://www.w3.org/2000/svg" xmlns:xlink="http://www.w3.org/1999/xlink">
<g id="graph0" class="graph" transform="scale(1 1) rotate(0) translate(4 36)">
<title>AP_TECS::_initialise_states</title>
<polygon fill="white" stroke="white" points="-4,5 -4,-36 273,-36 273,5 -4,5"/>
<!-- Node24 -->
<g id="node1" class="node"><title>Node24</title>
<g id="a_node1"><a xlink:title=" ">
<polygon fill="#bfbfbf" stroke="black" points="159.87,-0 159.87,-32 268.13,-32 268.13,-0 159.87,-0"/>
<text text-anchor="start" x="167.87" y="-18" font-family="Helvetica,sans-Serif" font-size="10.00">AP_TECS::_initialise</text>
<text text-anchor="middle" x="214" y="-6" font-family="Helvetica,sans-Serif" font-size="10.00">_states</text>
</a>
</g>
</g>
<!-- Node25 -->
<g id="node2" class="node"><title>Node25</title>
<g id="a_node2"><a xlink:href="classAP__TECS.html#aa8bb2218960edb71526d380f752b411e" target="_top" xlink:title=" ">
<polygon fill="white" stroke="black" points="-0.199219,-0 -0.199219,-32 124.199,-32 124.199,-0 -0.199219,-0"/>
<text text-anchor="start" x="7.80078" y="-18" font-family="Helvetica,sans-Serif" font-size="10.00">AP_TECS::update_pitch</text>
<text text-anchor="middle" x="62" y="-6" font-family="Helvetica,sans-Serif" font-size="10.00">_throttle</text>
</a>
</g>
</g>
<!-- Node24&#45;&gt;Node25 -->
<g id="edge1" class="edge"><title>Node24&#45;&gt;Node25</title>
<path fill="none" stroke="midnightblue" d="M149.606,-16C141.232,-16 132.66,-16 124.322,-16"/>
<polygon fill="midnightblue" stroke="midnightblue" points="149.693,-19.5001 159.693,-16 149.693,-12.5001 149.693,-19.5001"/>
</g>
</g>
</svg>
