<?xml version="1.0" encoding="UTF-8" standalone="no"?>
<!DOCTYPE svg PUBLIC "-//W3C//DTD SVG 1.1//EN"
 "http://www.w3.org/Graphics/SVG/1.1/DTD/svg11.dtd">
<!-- Generated by graphviz version 2.30.1 (20130221.2233)
 -->
<!-- Title: AP_Mission::add_cmd Pages: 1 -->
<svg width="794pt" height="247pt"
 viewBox="0.00 0.00 794.00 247.00" xmlns="http://www.w3.org/2000/svg" xmlns:xlink="http://www.w3.org/1999/xlink">
<g id="graph0" class="graph" transform="scale(1 1) rotate(0) translate(4 243)">
<title>AP_Mission::add_cmd</title>
<polygon fill="white" stroke="white" points="-4,5 -4,-243 791,-243 791,5 -4,5"/>
<!-- Node10 -->
<g id="node1" class="node"><title>Node10</title>
<g id="a_node1"><a xlink:title=" ">
<polygon fill="#bfbfbf" stroke="black" points="0.253906,-106 0.253906,-126 115.746,-126 115.746,-106 0.253906,-106"/>
<text text-anchor="middle" x="58" y="-112" font-family="Helvetica,sans-Serif" font-size="10.00">AP_Mission::add_cmd</text>
</a>
</g>
</g>
<!-- Node11 -->
<g id="node2" class="node"><title>Node11</title>
<g id="a_node2"><a xlink:href="classAP__Mission.html#a6e787da19b3bfd4b12e529476c444487" target="_top" xlink:title=" ">
<polygon fill="white" stroke="black" points="152.04,-100 152.04,-132 271.96,-132 271.96,-100 152.04,-100"/>
<text text-anchor="start" x="160.04" y="-118" font-family="Helvetica,sans-Serif" font-size="10.00">AP_Mission::write_cmd</text>
<text text-anchor="middle" x="212" y="-106" font-family="Helvetica,sans-Serif" font-size="10.00">_to_storage</text>
</a>
</g>
</g>
<!-- Node10&#45;&gt;Node11 -->
<g id="edge1" class="edge"><title>Node10&#45;&gt;Node11</title>
<path fill="none" stroke="midnightblue" d="M116.032,-116C124.448,-116 133.195,-116 141.825,-116"/>
<polygon fill="midnightblue" stroke="midnightblue" points="141.873,-119.5 151.873,-116 141.873,-112.5 141.873,-119.5"/>
</g>
<!-- Node12 -->
<g id="node3" class="node"><title>Node12</title>
<g id="a_node3"><a xlink:href="classAP__Mission.html#a8da65cb025ac03d381635653634450ab" target="_top" xlink:title="num_commands_max &#45; returns maximum number of commands that can be stored">
<polygon fill="white" stroke="black" points="308.636,-219 308.636,-239 481.364,-239 481.364,-219 308.636,-219"/>
<text text-anchor="middle" x="395" y="-225" font-family="Helvetica,sans-Serif" font-size="10.00">AP_Mission::num_commands_max</text>
</a>
</g>
</g>
<!-- Node11&#45;&gt;Node12 -->
<g id="edge2" class="edge"><title>Node11&#45;&gt;Node12</title>
<path fill="none" stroke="midnightblue" d="M224.877,-132.206C241.196,-153.251 272.585,-189.578 308,-209 312.505,-211.47 317.304,-213.637 322.243,-215.536"/>
<polygon fill="midnightblue" stroke="midnightblue" points="321.28,-218.907 331.874,-218.87 323.57,-212.292 321.28,-218.907"/>
</g>
<!-- Node14 -->
<g id="node5" class="node"><title>Node14</title>
<g id="a_node5"><a xlink:href="classAP__Mission.html#a2288c5294ff615a062c515f66ecf0f00" target="_top" xlink:title=" ">
<polygon fill="white" stroke="black" points="343.926,-168 343.926,-200 446.074,-200 446.074,-168 343.926,-168"/>
<text text-anchor="start" x="351.926" y="-186" font-family="Helvetica,sans-Serif" font-size="10.00">AP_Mission::stored</text>
<text text-anchor="middle" x="395" y="-174" font-family="Helvetica,sans-Serif" font-size="10.00">_in_location</text>
</a>
</g>
</g>
<!-- Node11&#45;&gt;Node14 -->
<g id="edge4" class="edge"><title>Node11&#45;&gt;Node14</title>
<path fill="none" stroke="midnightblue" d="M246.881,-132.191C264.828,-140.457 287.371,-150.354 308,-158 316.289,-161.072 325.122,-164.058 333.853,-166.846"/>
<polygon fill="midnightblue" stroke="midnightblue" points="333.043,-170.26 343.632,-169.903 335.132,-163.578 333.043,-170.26"/>
</g>
<!-- Node15 -->
<g id="node6" class="node"><title>Node15</title>
<g id="a_node6"><a xlink:href="classStorageAccess.html#a2fd46bf31b55e654b26ebc7c05539e80" target="_top" xlink:title=" ">
<polygon fill="white" stroke="black" points="327.806,-129 327.806,-149 462.194,-149 462.194,-129 327.806,-129"/>
<text text-anchor="middle" x="395" y="-135" font-family="Helvetica,sans-Serif" font-size="10.00">StorageAccess::write_byte</text>
</a>
</g>
</g>
<!-- Node11&#45;&gt;Node15 -->
<g id="edge5" class="edge"><title>Node11&#45;&gt;Node15</title>
<path fill="none" stroke="midnightblue" d="M272.266,-123.531C286.674,-125.362 302.287,-127.346 317.372,-129.263"/>
<polygon fill="midnightblue" stroke="midnightblue" points="317.349,-132.788 327.71,-130.576 318.231,-125.844 317.349,-132.788"/>
</g>
<!-- Node18 -->
<g id="node9" class="node"><title>Node18</title>
<g id="a_node9"><a xlink:href="classStorageAccess.html#aa300d9e84286bdd5b3e2ae4384075252" target="_top" xlink:title=" ">
<polygon fill="white" stroke="black" points="340.037,-78 340.037,-110 449.963,-110 449.963,-78 340.037,-78"/>
<text text-anchor="start" x="348.037" y="-96" font-family="Helvetica,sans-Serif" font-size="10.00">StorageAccess::write</text>
<text text-anchor="middle" x="395" y="-84" font-family="Helvetica,sans-Serif" font-size="10.00">_uint16</text>
</a>
</g>
</g>
<!-- Node11&#45;&gt;Node18 -->
<g id="edge8" class="edge"><title>Node11&#45;&gt;Node18</title>
<path fill="none" stroke="midnightblue" d="M272.266,-108.796C290.706,-106.555 311.118,-104.074 329.874,-101.794"/>
<polygon fill="midnightblue" stroke="midnightblue" points="330.301,-105.268 339.805,-100.587 329.456,-98.3195 330.301,-105.268"/>
</g>
<!-- Node16 -->
<g id="node7" class="node"><title>Node16</title>
<g id="a_node7"><a xlink:href="classStorageAccess.html#a926243785eeb37f394e3abb352715186" target="_top" xlink:title=" ">
<polygon fill="white" stroke="black" points="518.037,-78 518.037,-110 627.963,-110 627.963,-78 518.037,-78"/>
<text text-anchor="start" x="526.037" y="-96" font-family="Helvetica,sans-Serif" font-size="10.00">StorageAccess::write</text>
<text text-anchor="middle" x="573" y="-84" font-family="Helvetica,sans-Serif" font-size="10.00">_block</text>
</a>
</g>
</g>
<!-- Node11&#45;&gt;Node16 -->
<g id="edge10" class="edge"><title>Node11&#45;&gt;Node16</title>
<path fill="none" stroke="midnightblue" d="M237.164,-99.7797C255.665,-88.3847 282.295,-74.1252 308,-68 383.227,-50.0744 405.43,-57.1615 482,-68 493.209,-69.5867 504.977,-72.2329 516.171,-75.245"/>
<polygon fill="midnightblue" stroke="midnightblue" points="515.257,-78.6237 525.831,-77.9688 517.156,-71.8864 515.257,-78.6237"/>
</g>
<!-- Node19 -->
<g id="node10" class="node"><title>Node19</title>
<g id="a_node10"><a xlink:href="namespaceAP__HAL.html#a77dffbb18891996280308e21316ec186" target="_top" xlink:title=" ">
<polygon fill="white" stroke="black" points="353.936,-0 353.936,-20 436.064,-20 436.064,-0 353.936,-0"/>
<text text-anchor="middle" x="395" y="-6" font-family="Helvetica,sans-Serif" font-size="10.00">AP_HAL::millis</text>
</a>
</g>
</g>
<!-- Node11&#45;&gt;Node19 -->
<g id="edge11" class="edge"><title>Node11&#45;&gt;Node19</title>
<path fill="none" stroke="midnightblue" d="M227.597,-99.992C245.052,-81.7637 275.949,-52.2799 308,-35 319.013,-29.0625 331.6,-24.3875 343.683,-20.7681"/>
<polygon fill="midnightblue" stroke="midnightblue" points="344.983,-24.0387 353.668,-17.9715 343.095,-17.2981 344.983,-24.0387"/>
</g>
<!-- Node13 -->
<g id="node4" class="node"><title>Node13</title>
<g id="a_node4"><a xlink:href="classStorageAccess.html#aa810ebbc83bfc0986aa6c13f76d08eaf" target="_top" xlink:title=" ">
<polygon fill="white" stroke="black" points="519.702,-219 519.702,-239 626.298,-239 626.298,-219 519.702,-219"/>
<text text-anchor="middle" x="573" y="-225" font-family="Helvetica,sans-Serif" font-size="10.00">StorageAccess::size</text>
</a>
</g>
</g>
<!-- Node12&#45;&gt;Node13 -->
<g id="edge3" class="edge"><title>Node12&#45;&gt;Node13</title>
<path fill="none" stroke="midnightblue" d="M481.422,-229C490.84,-229 500.297,-229 509.362,-229"/>
<polygon fill="midnightblue" stroke="midnightblue" points="509.407,-232.5 519.407,-229 509.406,-225.5 509.407,-232.5"/>
</g>
<!-- Node15&#45;&gt;Node16 -->
<g id="edge6" class="edge"><title>Node15&#45;&gt;Node16</title>
<path fill="none" stroke="midnightblue" d="M440.723,-128.978C454.034,-125.894 468.632,-122.409 482,-119 490.449,-116.845 499.318,-114.493 508.059,-112.121"/>
<polygon fill="midnightblue" stroke="midnightblue" points="509.122,-115.459 517.844,-109.444 507.275,-108.707 509.122,-115.459"/>
</g>
<!-- Node17 -->
<g id="node8" class="node"><title>Node17</title>
<g id="a_node8"><a xlink:href="classAP__HAL_1_1Storage.html#a9de79ab93ea4374bd3d1583e28620d2e" target="_top" xlink:title=" ">
<polygon fill="white" stroke="black" points="664.197,-78 664.197,-110 785.803,-110 785.803,-78 664.197,-78"/>
<text text-anchor="start" x="672.197" y="-96" font-family="Helvetica,sans-Serif" font-size="10.00">AP_HAL::Storage::write</text>
<text text-anchor="middle" x="725" y="-84" font-family="Helvetica,sans-Serif" font-size="10.00">_block</text>
</a>
</g>
</g>
<!-- Node16&#45;&gt;Node17 -->
<g id="edge7" class="edge"><title>Node16&#45;&gt;Node17</title>
<path fill="none" stroke="midnightblue" d="M628.153,-94C636.537,-94 645.299,-94 653.971,-94"/>
<polygon fill="midnightblue" stroke="midnightblue" points="654.083,-97.5001 664.083,-94 654.083,-90.5001 654.083,-97.5001"/>
</g>
<!-- Node18&#45;&gt;Node16 -->
<g id="edge9" class="edge"><title>Node18&#45;&gt;Node16</title>
<path fill="none" stroke="midnightblue" d="M450.242,-94C468.478,-94 488.994,-94 507.913,-94"/>
<polygon fill="midnightblue" stroke="midnightblue" points="507.937,-97.5001 517.937,-94 507.937,-90.5001 507.937,-97.5001"/>
</g>
<!-- Node20 -->
<g id="node11" class="node"><title>Node20</title>
<g id="a_node11"><a xlink:href="hrt_8c.html#a1295f128f60d29874243b5733c4db025" target="_top" xlink:title=" ">
<polygon fill="white" stroke="black" points="539.714,-0 539.714,-20 606.286,-20 606.286,-0 539.714,-0"/>
<text text-anchor="middle" x="573" y="-6" font-family="Helvetica,sans-Serif" font-size="10.00">hrt_millis32</text>
</a>
</g>
</g>
<!-- Node19&#45;&gt;Node20 -->
<g id="edge12" class="edge"><title>Node19&#45;&gt;Node20</title>
<path fill="none" stroke="midnightblue" d="M436.378,-10C464.217,-10 501.155,-10 529.452,-10"/>
<polygon fill="midnightblue" stroke="midnightblue" points="529.453,-13.5001 539.453,-10 529.453,-6.5001 529.453,-13.5001"/>
</g>
</g>
</svg>
