<?xml version="1.0" encoding="UTF-8" standalone="no"?>
<!DOCTYPE svg PUBLIC "-//W3C//DTD SVG 1.1//EN"
 "http://www.w3.org/Graphics/SVG/1.1/DTD/svg11.dtd">
<!-- Generated by graphviz version 2.30.1 (20130221.2233)
 -->
<!-- Title: Linux::CameraSensor_Mt9v117::_read_var16 Pages: 1 -->
<svg width="930pt" height="168pt"
 viewBox="0.00 0.00 930.00 168.00" xmlns="http://www.w3.org/2000/svg" xmlns:xlink="http://www.w3.org/1999/xlink">
<g id="graph0" class="graph" transform="scale(1 1) rotate(0) translate(4 164)">
<title>Linux::CameraSensor_Mt9v117::_read_var16</title>
<polygon fill="white" stroke="white" points="-4,5 -4,-164 927,-164 927,5 -4,5"/>
<!-- Node164 -->
<g id="node1" class="node"><title>Node164</title>
<g id="a_node1"><a xlink:title=" ">
<polygon fill="#bfbfbf" stroke="black" points="0.556152,-102 0.556152,-134 121.444,-134 121.444,-102 0.556152,-102"/>
<text text-anchor="start" x="8.55615" y="-120" font-family="Helvetica,sans-Serif" font-size="10.00">Linux::CameraSensor</text>
<text text-anchor="middle" x="61" y="-108" font-family="Helvetica,sans-Serif" font-size="10.00">_Mt9v117::_read_var16</text>
</a>
</g>
</g>
<!-- Node165 -->
<g id="node2" class="node"><title>Node165</title>
<g id="a_node2"><a xlink:href="classLinux_1_1CameraSensor__Mt9v117.html#aef526835a39c5c310c8d803a682df9b3" target="_top" xlink:title=" ">
<polygon fill="white" stroke="black" points="162.643,-128 162.643,-160 275.357,-160 275.357,-128 162.643,-128"/>
<text text-anchor="start" x="170.643" y="-146" font-family="Helvetica,sans-Serif" font-size="10.00">Linux::CameraSensor</text>
<text text-anchor="middle" x="219" y="-134" font-family="Helvetica,sans-Serif" font-size="10.00">_Mt9v117::_var2reg</text>
</a>
</g>
</g>
<!-- Node164&#45;&gt;Node165 -->
<g id="edge1" class="edge"><title>Node164&#45;&gt;Node165</title>
<path fill="none" stroke="midnightblue" d="M121.868,-127.978C131.856,-129.643 142.265,-131.377 152.388,-133.065"/>
<polygon fill="midnightblue" stroke="midnightblue" points="151.95,-136.54 162.389,-134.732 153.101,-129.635 151.95,-136.54"/>
</g>
<!-- Node166 -->
<g id="node3" class="node"><title>Node166</title>
<g id="a_node3"><a xlink:href="classLinux_1_1CameraSensor__Mt9v117.html#aab3d927a0988beacbdad8be5ee52d27c" target="_top" xlink:title=" ">
<polygon fill="white" stroke="black" points="158.275,-77 158.275,-109 279.725,-109 279.725,-77 158.275,-77"/>
<text text-anchor="start" x="166.275" y="-95" font-family="Helvetica,sans-Serif" font-size="10.00">Linux::CameraSensor</text>
<text text-anchor="middle" x="219" y="-83" font-family="Helvetica,sans-Serif" font-size="10.00">_Mt9v117::_read_reg16</text>
</a>
</g>
</g>
<!-- Node164&#45;&gt;Node166 -->
<g id="edge2" class="edge"><title>Node164&#45;&gt;Node166</title>
<path fill="none" stroke="midnightblue" d="M121.868,-108.406C130.39,-107.04 139.218,-105.625 147.914,-104.232"/>
<polygon fill="midnightblue" stroke="midnightblue" points="148.715,-107.648 158.035,-102.61 147.607,-100.736 148.715,-107.648"/>
</g>
<!-- Node167 -->
<g id="node4" class="node"><title>Node167</title>
<g id="a_node4"><a xlink:href="classAP__HAL_1_1I2CDevice.html#a2e581ddc9b02eb73ad2fdf488fe8dc86" target="_top" xlink:title=" ">
<polygon fill="white" stroke="black" points="320.202,-103 320.202,-135 431.798,-135 431.798,-103 320.202,-103"/>
<text text-anchor="start" x="328.202" y="-121" font-family="Helvetica,sans-Serif" font-size="10.00">AP_HAL::I2CDevice::</text>
<text text-anchor="middle" x="376" y="-109" font-family="Helvetica,sans-Serif" font-size="10.00">transfer</text>
</a>
</g>
</g>
<!-- Node166&#45;&gt;Node167 -->
<g id="edge3" class="edge"><title>Node166&#45;&gt;Node167</title>
<path fill="none" stroke="midnightblue" d="M279.927,-103.052C289.83,-104.713 300.138,-106.442 310.155,-108.123"/>
<polygon fill="midnightblue" stroke="midnightblue" points="309.609,-111.58 320.05,-109.783 310.767,-104.676 309.609,-111.58"/>
</g>
<!-- Node168 -->
<g id="node5" class="node"><title>Node168</title>
<g id="a_node5"><a xlink:href="classAP__HAL_1_1BetterStream.html#a8534aa004599bb81ad60f3e762791032" target="_top" xlink:title=" ">
<polygon fill="white" stroke="black" points="316.589,-52 316.589,-84 435.411,-84 435.411,-52 316.589,-52"/>
<text text-anchor="start" x="324.589" y="-70" font-family="Helvetica,sans-Serif" font-size="10.00">AP_HAL::BetterStream</text>
<text text-anchor="middle" x="376" y="-58" font-family="Helvetica,sans-Serif" font-size="10.00">::printf</text>
</a>
</g>
</g>
<!-- Node166&#45;&gt;Node168 -->
<g id="edge4" class="edge"><title>Node166&#45;&gt;Node168</title>
<path fill="none" stroke="midnightblue" d="M279.927,-83.3343C288.654,-81.9267 297.695,-80.4685 306.575,-79.0362"/>
<polygon fill="midnightblue" stroke="midnightblue" points="307.192,-82.4821 316.507,-77.4343 306.078,-75.5714 307.192,-82.4821"/>
</g>
<!-- Node169 -->
<g id="node6" class="node"><title>Node169</title>
<g id="a_node6"><a xlink:href="classAP__HAL_1_1BetterStream.html#aa730be451d385d7ba03ee9677e6d91a2" target="_top" xlink:title=" ">
<polygon fill="white" stroke="black" points="472.589,-52 472.589,-84 591.411,-84 591.411,-52 472.589,-52"/>
<text text-anchor="start" x="480.589" y="-70" font-family="Helvetica,sans-Serif" font-size="10.00">AP_HAL::BetterStream</text>
<text text-anchor="middle" x="532" y="-58" font-family="Helvetica,sans-Serif" font-size="10.00">::vprintf</text>
</a>
</g>
</g>
<!-- Node168&#45;&gt;Node169 -->
<g id="edge5" class="edge"><title>Node168&#45;&gt;Node169</title>
<path fill="none" stroke="midnightblue" d="M435.66,-68C444.43,-68 453.536,-68 462.488,-68"/>
<polygon fill="midnightblue" stroke="midnightblue" points="462.503,-71.5001 472.503,-68 462.503,-64.5001 462.503,-71.5001"/>
</g>
<!-- Node170 -->
<g id="node7" class="node"><title>Node170</title>
<g id="a_node7"><a xlink:href="print__vprintf_8cpp.html#a98e0d5bb436a207f576379beaa786040" target="_top" xlink:title=" ">
<polygon fill="white" stroke="black" points="627.877,-58 627.877,-78 696.123,-78 696.123,-58 627.877,-58"/>
<text text-anchor="middle" x="662" y="-64" font-family="Helvetica,sans-Serif" font-size="10.00">print_vprintf</text>
</a>
</g>
</g>
<!-- Node169&#45;&gt;Node170 -->
<g id="edge6" class="edge"><title>Node169&#45;&gt;Node170</title>
<path fill="none" stroke="midnightblue" d="M591.755,-68C600.443,-68 609.26,-68 617.561,-68"/>
<polygon fill="midnightblue" stroke="midnightblue" points="617.751,-71.5001 627.751,-68 617.751,-64.5001 617.751,-71.5001"/>
</g>
<!-- Node171 -->
<g id="node8" class="node"><title>Node171</title>
<g id="a_node8"><a xlink:href="classAP__HAL_1_1BetterStream.html#a915cc01273d4b418c2fb2989fb31a508" target="_top" xlink:title=" ">
<polygon fill="white" stroke="black" points="732.589,-117 732.589,-149 851.411,-149 851.411,-117 732.589,-117"/>
<text text-anchor="start" x="740.589" y="-135" font-family="Helvetica,sans-Serif" font-size="10.00">AP_HAL::BetterStream</text>
<text text-anchor="middle" x="792" y="-123" font-family="Helvetica,sans-Serif" font-size="10.00">::write</text>
</a>
</g>
</g>
<!-- Node170&#45;&gt;Node171 -->
<g id="edge7" class="edge"><title>Node170&#45;&gt;Node171</title>
<path fill="none" stroke="midnightblue" d="M679.76,-78.0932C693.578,-86.2634 713.795,-97.8721 732,-107 735.771,-108.891 739.711,-110.788 743.687,-112.65"/>
<polygon fill="midnightblue" stroke="midnightblue" points="742.422,-115.92 752.971,-116.907 745.34,-109.557 742.422,-115.92"/>
</g>
<!-- Node172 -->
<g id="node9" class="node"><title>Node172</title>
<g id="a_node9"><a xlink:href="ftoa__engine_8cpp.html#a1c28234da8f20b43c85890d4bb452947" target="_top" xlink:title=" ">
<polygon fill="white" stroke="black" points="757.865,-78 757.865,-98 826.135,-98 826.135,-78 757.865,-78"/>
<text text-anchor="middle" x="792" y="-84" font-family="Helvetica,sans-Serif" font-size="10.00">ftoa_engine</text>
</a>
</g>
</g>
<!-- Node170&#45;&gt;Node172 -->
<g id="edge8" class="edge"><title>Node170&#45;&gt;Node172</title>
<path fill="none" stroke="midnightblue" d="M696.296,-73.2026C711.877,-75.6371 730.64,-78.5688 747.341,-81.1782"/>
<polygon fill="midnightblue" stroke="midnightblue" points="747.005,-84.6682 757.426,-82.754 748.086,-77.7521 747.005,-84.6682"/>
</g>
<!-- Node174 -->
<g id="node11" class="node"><title>Node174</title>
<g id="a_node11"><a xlink:href="utoa__invert_8cpp.html#a34926f552460b47c414ec4d83b32815c" target="_top" xlink:title=" ">
<polygon fill="white" stroke="black" points="757.04,-39 757.04,-59 826.96,-59 826.96,-39 757.04,-39"/>
<text text-anchor="middle" x="792" y="-45" font-family="Helvetica,sans-Serif" font-size="10.00">ulltoa_invert</text>
</a>
</g>
</g>
<!-- Node170&#45;&gt;Node174 -->
<g id="edge10" class="edge"><title>Node170&#45;&gt;Node174</title>
<path fill="none" stroke="midnightblue" d="M696.296,-63.0576C711.755,-60.763 730.345,-58.0035 746.946,-55.5393"/>
<polygon fill="midnightblue" stroke="midnightblue" points="747.602,-58.9804 756.979,-54.0499 746.574,-52.0562 747.602,-58.9804"/>
</g>
<!-- Node175 -->
<g id="node12" class="node"><title>Node175</title>
<g id="a_node12"><a xlink:href="utoa__invert_8cpp.html#a5d99bba8e697c1e11da489d88fca8559" target="_top" xlink:title=" ">
<polygon fill="white" stroke="black" points="758.15,-0 758.15,-20 825.85,-20 825.85,-0 758.15,-0"/>
<text text-anchor="middle" x="792" y="-6" font-family="Helvetica,sans-Serif" font-size="10.00">ultoa_invert</text>
</a>
</g>
</g>
<!-- Node170&#45;&gt;Node175 -->
<g id="edge12" class="edge"><title>Node170&#45;&gt;Node175</title>
<path fill="none" stroke="midnightblue" d="M679.314,-57.9407C693.039,-49.7425 713.354,-38.2178 732,-30 737.326,-27.6528 743.02,-25.4086 748.691,-23.3279"/>
<polygon fill="midnightblue" stroke="midnightblue" points="749.881,-26.6196 758.147,-19.9913 747.552,-20.0185 749.881,-26.6196"/>
</g>
<!-- Node173 -->
<g id="node10" class="node"><title>Node173</title>
<g id="a_node10"><a xlink:href="lstrlib_8c.html#a9605f4d16ae762782f8be8b54aef0a22" target="_top" xlink:title=" ">
<polygon fill="white" stroke="black" points="887.828,-39 887.828,-59 922.172,-59 922.172,-39 887.828,-39"/>
<text text-anchor="middle" x="905" y="-45" font-family="Helvetica,sans-Serif" font-size="10.00">digit</text>
</a>
</g>
</g>
<!-- Node172&#45;&gt;Node173 -->
<g id="edge9" class="edge"><title>Node172&#45;&gt;Node173</title>
<path fill="none" stroke="midnightblue" d="M823.062,-77.9615C832.355,-74.8174 842.615,-71.3049 852,-68 860.508,-65.0042 869.766,-61.6515 878.081,-58.6063"/>
<polygon fill="midnightblue" stroke="midnightblue" points="879.465,-61.8264 887.641,-55.0888 877.048,-55.2569 879.465,-61.8264"/>
</g>
<!-- Node174&#45;&gt;Node173 -->
<g id="edge11" class="edge"><title>Node174&#45;&gt;Node173</title>
<path fill="none" stroke="midnightblue" d="M827.209,-49C843.407,-49 862.457,-49 877.53,-49"/>
<polygon fill="midnightblue" stroke="midnightblue" points="877.705,-52.5001 887.705,-49 877.705,-45.5001 877.705,-52.5001"/>
</g>
<!-- Node175&#45;&gt;Node173 -->
<g id="edge13" class="edge"><title>Node175&#45;&gt;Node173</title>
<path fill="none" stroke="midnightblue" d="M823.062,-20.0385C832.355,-23.1826 842.615,-26.6951 852,-30 860.508,-32.9958 869.766,-36.3485 878.081,-39.3937"/>
<polygon fill="midnightblue" stroke="midnightblue" points="877.048,-42.7431 887.641,-42.9112 879.465,-36.1736 877.048,-42.7431"/>
</g>
</g>
</svg>
