<?xml version="1.0" encoding="UTF-8" standalone="no"?>
<!DOCTYPE svg PUBLIC "-//W3C//DTD SVG 1.1//EN"
 "http://www.w3.org/Graphics/SVG/1.1/DTD/svg11.dtd">
<!-- Generated by graphviz version 2.30.1 (20130221.2233)
 -->
<!-- Title: Linux::VideoIn::allocate_buffers Pages: 1 -->
<svg width="774pt" height="209pt"
 viewBox="0.00 0.00 774.00 209.00" xmlns="http://www.w3.org/2000/svg" xmlns:xlink="http://www.w3.org/1999/xlink">
<g id="graph0" class="graph" transform="scale(1 1) rotate(0) translate(4 205)">
<title>Linux::VideoIn::allocate_buffers</title>
<polygon fill="white" stroke="white" points="-4,5 -4,-205 771,-205 771,5 -4,5"/>
<!-- Node47 -->
<g id="node1" class="node"><title>Node47</title>
<g id="a_node1"><a xlink:title=" ">
<polygon fill="#bfbfbf" stroke="black" points="0.38623,-116 0.38623,-148 119.614,-148 119.614,-116 0.38623,-116"/>
<text text-anchor="start" x="8.38623" y="-134" font-family="Helvetica,sans-Serif" font-size="10.00">Linux::VideoIn::allocate</text>
<text text-anchor="middle" x="60" y="-122" font-family="Helvetica,sans-Serif" font-size="10.00">_buffers</text>
</a>
</g>
</g>
<!-- Node48 -->
<g id="node2" class="node"><title>Node48</title>
<g id="a_node2"><a xlink:href="stdio_8h.html#a55f3d956bb2ba20b5059e9e25484a47f" target="_top" xlink:title=" ">
<polygon fill="white" stroke="black" points="196.884,-181 196.884,-201 235.116,-201 235.116,-181 196.884,-181"/>
<text text-anchor="middle" x="216" y="-187" font-family="Helvetica,sans-Serif" font-size="10.00">printf</text>
</a>
</g>
</g>
<!-- Node47&#45;&gt;Node48 -->
<g id="edge1" class="edge"><title>Node47&#45;&gt;Node48</title>
<path fill="none" stroke="midnightblue" d="M98.6921,-148.109C116.044,-155.361 136.965,-163.875 156,-171 166.074,-174.771 177.225,-178.63 187.096,-181.941"/>
<polygon fill="midnightblue" stroke="midnightblue" points="186.227,-185.34 196.821,-185.164 188.43,-178.695 186.227,-185.34"/>
</g>
<!-- Node49 -->
<g id="node3" class="node"><title>Node49</title>
<g id="a_node3"><a xlink:href="posix_8c.html#add46ab98f32b76457852dbb872842bf2" target="_top" xlink:title="POSIX strerror() &#45; convert POSIX errno to text with user message.">
<polygon fill="white" stroke="black" points="191.889,-142 191.889,-162 240.111,-162 240.111,-142 191.889,-142"/>
<text text-anchor="middle" x="216" y="-148" font-family="Helvetica,sans-Serif" font-size="10.00">strerror</text>
</a>
</g>
</g>
<!-- Node47&#45;&gt;Node49 -->
<g id="edge2" class="edge"><title>Node47&#45;&gt;Node49</title>
<path fill="none" stroke="midnightblue" d="M119.66,-139.618C140.692,-142.35 163.663,-145.333 181.786,-147.687"/>
<polygon fill="midnightblue" stroke="midnightblue" points="181.478,-151.176 191.846,-148.993 182.38,-144.234 181.478,-151.176"/>
</g>
<!-- Node50 -->
<g id="node4" class="node"><title>Node50</title>
<g id="a_node4"><a xlink:href="malloc_8c.html#a62b7798461bd461da64c5f9d35feddf7" target="_top" xlink:title=" ">
<polygon fill="white" stroke="black" points="195.217,-103 195.217,-123 236.783,-123 236.783,-103 195.217,-103"/>
<text text-anchor="middle" x="216" y="-109" font-family="Helvetica,sans-Serif" font-size="10.00">calloc</text>
</a>
</g>
</g>
<!-- Node47&#45;&gt;Node50 -->
<g id="edge3" class="edge"><title>Node47&#45;&gt;Node50</title>
<path fill="none" stroke="midnightblue" d="M119.66,-124.763C141.829,-122.028 166.152,-119.027 184.682,-116.741"/>
<polygon fill="midnightblue" stroke="midnightblue" points="185.366,-120.183 194.862,-115.485 184.509,-113.235 185.366,-120.183"/>
</g>
<!-- Node53 -->
<g id="node7" class="node"><title>Node53</title>
<g id="a_node7"><a xlink:href="classAP__HAL_1_1BetterStream.html#a8534aa004599bb81ad60f3e762791032" target="_top" xlink:title=" ">
<polygon fill="white" stroke="black" points="156.589,-52 156.589,-84 275.411,-84 275.411,-52 156.589,-52"/>
<text text-anchor="start" x="164.589" y="-70" font-family="Helvetica,sans-Serif" font-size="10.00">AP_HAL::BetterStream</text>
<text text-anchor="middle" x="216" y="-58" font-family="Helvetica,sans-Serif" font-size="10.00">::printf</text>
</a>
</g>
</g>
<!-- Node47&#45;&gt;Node53 -->
<g id="edge6" class="edge"><title>Node47&#45;&gt;Node53</title>
<path fill="none" stroke="midnightblue" d="M99.8607,-115.85C120.274,-107.367 145.472,-96.8946 167.086,-87.9123"/>
<polygon fill="midnightblue" stroke="midnightblue" points="168.528,-91.1035 176.419,-84.0338 165.841,-84.6395 168.528,-91.1035"/>
</g>
<!-- Node51 -->
<g id="node5" class="node"><title>Node51</title>
<g id="a_node5"><a xlink:href="malloc_8c.html#a7ac38fce3243a7dcf448301ee9ffd392" target="_top" xlink:title=" ">
<polygon fill="white" stroke="black" points="349.552,-103 349.552,-123 394.448,-123 394.448,-103 349.552,-103"/>
<text text-anchor="middle" x="372" y="-109" font-family="Helvetica,sans-Serif" font-size="10.00">malloc</text>
</a>
</g>
</g>
<!-- Node50&#45;&gt;Node51 -->
<g id="edge4" class="edge"><title>Node50&#45;&gt;Node51</title>
<path fill="none" stroke="midnightblue" d="M236.818,-113C262.76,-113 308.542,-113 339.322,-113"/>
<polygon fill="midnightblue" stroke="midnightblue" points="339.527,-116.5 349.527,-113 339.527,-109.5 339.527,-116.5"/>
</g>
<!-- Node52 -->
<g id="node6" class="node"><title>Node52</title>
<g id="a_node6"><a xlink:href="malloc_8c.html#aa5c105052a59261e63119d5203374a41" target="_top" xlink:title=" ">
<polygon fill="white" stroke="black" points="468.209,-103 468.209,-123 539.791,-123 539.791,-103 468.209,-103"/>
<text text-anchor="middle" x="504" y="-109" font-family="Helvetica,sans-Serif" font-size="10.00">malloc_flags</text>
</a>
</g>
</g>
<!-- Node51&#45;&gt;Node52 -->
<g id="edge5" class="edge"><title>Node51&#45;&gt;Node52</title>
<path fill="none" stroke="midnightblue" d="M394.467,-113C411.634,-113 436.299,-113 457.779,-113"/>
<polygon fill="midnightblue" stroke="midnightblue" points="458.021,-116.5 468.021,-113 458.021,-109.5 458.021,-116.5"/>
</g>
<!-- Node54 -->
<g id="node8" class="node"><title>Node54</title>
<g id="a_node8"><a xlink:href="classAP__HAL_1_1BetterStream.html#aa730be451d385d7ba03ee9677e6d91a2" target="_top" xlink:title=" ">
<polygon fill="white" stroke="black" points="312.589,-52 312.589,-84 431.411,-84 431.411,-52 312.589,-52"/>
<text text-anchor="start" x="320.589" y="-70" font-family="Helvetica,sans-Serif" font-size="10.00">AP_HAL::BetterStream</text>
<text text-anchor="middle" x="372" y="-58" font-family="Helvetica,sans-Serif" font-size="10.00">::vprintf</text>
</a>
</g>
</g>
<!-- Node53&#45;&gt;Node54 -->
<g id="edge7" class="edge"><title>Node53&#45;&gt;Node54</title>
<path fill="none" stroke="midnightblue" d="M275.66,-68C284.43,-68 293.536,-68 302.488,-68"/>
<polygon fill="midnightblue" stroke="midnightblue" points="302.503,-71.5001 312.503,-68 302.503,-64.5001 302.503,-71.5001"/>
</g>
<!-- Node55 -->
<g id="node9" class="node"><title>Node55</title>
<g id="a_node9"><a xlink:href="print__vprintf_8cpp.html#a98e0d5bb436a207f576379beaa786040" target="_top" xlink:title=" ">
<polygon fill="white" stroke="black" points="469.877,-58 469.877,-78 538.123,-78 538.123,-58 469.877,-58"/>
<text text-anchor="middle" x="504" y="-64" font-family="Helvetica,sans-Serif" font-size="10.00">print_vprintf</text>
</a>
</g>
</g>
<!-- Node54&#45;&gt;Node55 -->
<g id="edge8" class="edge"><title>Node54&#45;&gt;Node55</title>
<path fill="none" stroke="midnightblue" d="M431.535,-68C440.932,-68 450.511,-68 459.476,-68"/>
<polygon fill="midnightblue" stroke="midnightblue" points="459.671,-71.5001 469.671,-68 459.671,-64.5001 459.671,-71.5001"/>
</g>
<!-- Node56 -->
<g id="node10" class="node"><title>Node56</title>
<g id="a_node10"><a xlink:href="classAP__HAL_1_1BetterStream.html#a915cc01273d4b418c2fb2989fb31a508" target="_top" xlink:title=" ">
<polygon fill="white" stroke="black" points="576.589,-117 576.589,-149 695.411,-149 695.411,-117 576.589,-117"/>
<text text-anchor="start" x="584.589" y="-135" font-family="Helvetica,sans-Serif" font-size="10.00">AP_HAL::BetterStream</text>
<text text-anchor="middle" x="636" y="-123" font-family="Helvetica,sans-Serif" font-size="10.00">::write</text>
</a>
</g>
</g>
<!-- Node55&#45;&gt;Node56 -->
<g id="edge9" class="edge"><title>Node55&#45;&gt;Node56</title>
<path fill="none" stroke="midnightblue" d="M522.283,-78.0462C536.523,-86.1892 557.337,-97.7841 576,-107 579.839,-108.896 583.848,-110.805 587.89,-112.683"/>
<polygon fill="midnightblue" stroke="midnightblue" points="586.768,-116.018 597.319,-116.982 589.672,-109.648 586.768,-116.018"/>
</g>
<!-- Node57 -->
<g id="node11" class="node"><title>Node57</title>
<g id="a_node11"><a xlink:href="ftoa__engine_8cpp.html#a1c28234da8f20b43c85890d4bb452947" target="_top" xlink:title=" ">
<polygon fill="white" stroke="black" points="601.865,-78 601.865,-98 670.135,-98 670.135,-78 601.865,-78"/>
<text text-anchor="middle" x="636" y="-84" font-family="Helvetica,sans-Serif" font-size="10.00">ftoa_engine</text>
</a>
</g>
</g>
<!-- Node55&#45;&gt;Node57 -->
<g id="edge10" class="edge"><title>Node55&#45;&gt;Node57</title>
<path fill="none" stroke="midnightblue" d="M538.141,-73.0986C554.365,-75.5946 574.107,-78.6319 591.525,-81.3116"/>
<polygon fill="midnightblue" stroke="midnightblue" points="591.052,-84.7798 601.468,-82.8412 592.116,-77.8612 591.052,-84.7798"/>
</g>
<!-- Node59 -->
<g id="node13" class="node"><title>Node59</title>
<g id="a_node13"><a xlink:href="utoa__invert_8cpp.html#a34926f552460b47c414ec4d83b32815c" target="_top" xlink:title=" ">
<polygon fill="white" stroke="black" points="601.04,-39 601.04,-59 670.96,-59 670.96,-39 601.04,-39"/>
<text text-anchor="middle" x="636" y="-45" font-family="Helvetica,sans-Serif" font-size="10.00">ulltoa_invert</text>
</a>
</g>
</g>
<!-- Node55&#45;&gt;Node59 -->
<g id="edge12" class="edge"><title>Node55&#45;&gt;Node59</title>
<path fill="none" stroke="midnightblue" d="M538.141,-63.1563C554.089,-60.8255 573.436,-57.9978 590.633,-55.4843"/>
<polygon fill="midnightblue" stroke="midnightblue" points="591.625,-58.8767 601.014,-53.9672 590.613,-51.9503 591.625,-58.8767"/>
</g>
<!-- Node60 -->
<g id="node14" class="node"><title>Node60</title>
<g id="a_node14"><a xlink:href="utoa__invert_8cpp.html#a5d99bba8e697c1e11da489d88fca8559" target="_top" xlink:title=" ">
<polygon fill="white" stroke="black" points="602.15,-0 602.15,-20 669.85,-20 669.85,-0 602.15,-0"/>
<text text-anchor="middle" x="636" y="-6" font-family="Helvetica,sans-Serif" font-size="10.00">ultoa_invert</text>
</a>
</g>
</g>
<!-- Node55&#45;&gt;Node60 -->
<g id="edge14" class="edge"><title>Node55&#45;&gt;Node60</title>
<path fill="none" stroke="midnightblue" d="M521.825,-57.9769C535.971,-49.8002 556.888,-38.2868 576,-30 581.34,-27.6847 587.042,-25.4591 592.717,-23.3877"/>
<polygon fill="midnightblue" stroke="midnightblue" points="593.905,-26.6802 602.176,-20.0588 591.581,-20.0772 593.905,-26.6802"/>
</g>
<!-- Node58 -->
<g id="node12" class="node"><title>Node58</title>
<g id="a_node12"><a xlink:href="lstrlib_8c.html#a9605f4d16ae762782f8be8b54aef0a22" target="_top" xlink:title=" ">
<polygon fill="white" stroke="black" points="731.828,-39 731.828,-59 766.172,-59 766.172,-39 731.828,-39"/>
<text text-anchor="middle" x="749" y="-45" font-family="Helvetica,sans-Serif" font-size="10.00">digit</text>
</a>
</g>
</g>
<!-- Node57&#45;&gt;Node58 -->
<g id="edge11" class="edge"><title>Node57&#45;&gt;Node58</title>
<path fill="none" stroke="midnightblue" d="M667.062,-77.9615C676.355,-74.8174 686.615,-71.3049 696,-68 704.508,-65.0042 713.766,-61.6515 722.081,-58.6063"/>
<polygon fill="midnightblue" stroke="midnightblue" points="723.465,-61.8264 731.641,-55.0888 721.048,-55.2569 723.465,-61.8264"/>
</g>
<!-- Node59&#45;&gt;Node58 -->
<g id="edge13" class="edge"><title>Node59&#45;&gt;Node58</title>
<path fill="none" stroke="midnightblue" d="M671.209,-49C687.407,-49 706.457,-49 721.53,-49"/>
<polygon fill="midnightblue" stroke="midnightblue" points="721.705,-52.5001 731.705,-49 721.705,-45.5001 721.705,-52.5001"/>
</g>
<!-- Node60&#45;&gt;Node58 -->
<g id="edge15" class="edge"><title>Node60&#45;&gt;Node58</title>
<path fill="none" stroke="midnightblue" d="M667.062,-20.0385C676.355,-23.1826 686.615,-26.6951 696,-30 704.508,-32.9958 713.766,-36.3485 722.081,-39.3937"/>
<polygon fill="midnightblue" stroke="midnightblue" points="721.048,-42.7431 731.641,-42.9112 723.465,-36.1736 721.048,-42.7431"/>
</g>
</g>
</svg>
