<?xml version="1.0" encoding="UTF-8" standalone="no"?>
<!DOCTYPE svg PUBLIC "-//W3C//DTD SVG 1.1//EN"
 "http://www.w3.org/Graphics/SVG/1.1/DTD/svg11.dtd">
<!-- Generated by graphviz version 2.30.1 (20130221.2233)
 -->
<!-- Title: AP_GPS_NOVA::process_message Pages: 1 -->
<svg width="1028pt" height="247pt"
 viewBox="0.00 0.00 1028.00 247.00" xmlns="http://www.w3.org/2000/svg" xmlns:xlink="http://www.w3.org/1999/xlink">
<g id="graph0" class="graph" transform="scale(1 1) rotate(0) translate(4 243)">
<title>AP_GPS_NOVA::process_message</title>
<polygon fill="white" stroke="white" points="-4,5 -4,-243 1025,-243 1025,5 -4,5"/>
<!-- Node45 -->
<g id="node1" class="node"><title>Node45</title>
<g id="a_node1"><a xlink:title=" ">
<polygon fill="#bfbfbf" stroke="black" points="0.122559,-123 0.122559,-155 129.877,-155 129.877,-123 0.122559,-123"/>
<text text-anchor="start" x="8.12256" y="-141" font-family="Helvetica,sans-Serif" font-size="10.00">AP_GPS_NOVA::process</text>
<text text-anchor="middle" x="65" y="-129" font-family="Helvetica,sans-Serif" font-size="10.00">_message</text>
</a>
</g>
</g>
<!-- Node46 -->
<g id="node2" class="node"><title>Node46</title>
<g id="a_node2"><a xlink:href="classAP__GPS__Backend.html#a1489c7e65028a52d0fa60cbea4546714" target="_top" xlink:title=" ">
<polygon fill="white" stroke="black" points="165.912,-123 165.912,-155 298.088,-155 298.088,-123 165.912,-123"/>
<text text-anchor="start" x="173.912" y="-141" font-family="Helvetica,sans-Serif" font-size="10.00">AP_GPS_Backend::check</text>
<text text-anchor="middle" x="232" y="-129" font-family="Helvetica,sans-Serif" font-size="10.00">_new_itow</text>
</a>
</g>
</g>
<!-- Node45&#45;&gt;Node46 -->
<g id="edge1" class="edge"><title>Node45&#45;&gt;Node46</title>
<path fill="none" stroke="midnightblue" d="M130.266,-139C138.564,-139 147.122,-139 155.58,-139"/>
<polygon fill="midnightblue" stroke="midnightblue" points="155.823,-142.5 165.823,-139 155.823,-135.5 155.823,-142.5"/>
</g>
<!-- Node48 -->
<g id="node4" class="node"><title>Node48</title>
<g id="a_node4"><a xlink:href="namespaceAP__HAL.html#a77dffbb18891996280308e21316ec186" target="_top" xlink:title=" ">
<polygon fill="white" stroke="black" points="364.936,-219 364.936,-239 447.064,-239 447.064,-219 364.936,-219"/>
<text text-anchor="middle" x="406" y="-225" font-family="Helvetica,sans-Serif" font-size="10.00">AP_HAL::millis</text>
</a>
</g>
</g>
<!-- Node45&#45;&gt;Node48 -->
<g id="edge15" class="edge"><title>Node45&#45;&gt;Node48</title>
<path fill="none" stroke="midnightblue" d="M126.606,-155.09C192.634,-172.62 296.892,-200.299 357.33,-216.344"/>
<polygon fill="midnightblue" stroke="midnightblue" points="356.439,-219.729 367.002,-218.912 358.235,-212.963 356.439,-219.729"/>
</g>
<!-- Node60 -->
<g id="node16" class="node"><title>Node60</title>
<g id="a_node16"><a xlink:href="classAP__GPS__Backend.html#a349cb407ea3c09c424ed77bcf72a488b" target="_top" xlink:title=" ">
<polygon fill="white" stroke="black" points="174.251,-33 174.251,-65 289.749,-65 289.749,-33 174.251,-33"/>
<text text-anchor="start" x="182.251" y="-51" font-family="Helvetica,sans-Serif" font-size="10.00">AP_GPS_Backend::fill</text>
<text text-anchor="middle" x="232" y="-39" font-family="Helvetica,sans-Serif" font-size="10.00">_3d_velocity</text>
</a>
</g>
</g>
<!-- Node45&#45;&gt;Node60 -->
<g id="edge16" class="edge"><title>Node45&#45;&gt;Node60</title>
<path fill="none" stroke="midnightblue" d="M95.4987,-122.91C122.632,-108.11 163.03,-86.0744 192.657,-69.9144"/>
<polygon fill="midnightblue" stroke="midnightblue" points="194.376,-72.9636 201.479,-65.1024 191.024,-66.8183 194.376,-72.9636"/>
</g>
<!-- Node47 -->
<g id="node3" class="node"><title>Node47</title>
<g id="a_node3"><a xlink:href="classAP__HAL_1_1UARTDriver.html#a050efe232fa3e0106e5576ccc2538bd3" target="_top" xlink:title=" ">
<polygon fill="white" stroke="black" points="334.357,-168 334.357,-200 477.643,-200 477.643,-168 334.357,-168"/>
<text text-anchor="start" x="342.357" y="-186" font-family="Helvetica,sans-Serif" font-size="10.00">AP_HAL::UARTDriver</text>
<text text-anchor="middle" x="406" y="-174" font-family="Helvetica,sans-Serif" font-size="10.00">::receive_time_constraint_us</text>
</a>
</g>
</g>
<!-- Node46&#45;&gt;Node47 -->
<g id="edge2" class="edge"><title>Node46&#45;&gt;Node47</title>
<path fill="none" stroke="midnightblue" d="M294.61,-155.119C307.361,-158.455 320.892,-161.995 333.949,-165.411"/>
<polygon fill="midnightblue" stroke="midnightblue" points="333.26,-168.848 343.82,-167.994 335.032,-162.076 333.26,-168.848"/>
</g>
<!-- Node46&#45;&gt;Node48 -->
<g id="edge3" class="edge"><title>Node46&#45;&gt;Node48</title>
<path fill="none" stroke="midnightblue" d="M251.93,-155.01C271.388,-170.744 303.121,-194.451 334,-209 340.61,-212.115 347.802,-214.834 354.986,-217.181"/>
<polygon fill="midnightblue" stroke="midnightblue" points="354.138,-220.581 364.724,-220.151 356.18,-213.886 354.138,-220.581"/>
</g>
<!-- Node50 -->
<g id="node6" class="node"><title>Node50</title>
<g id="a_node6"><a xlink:href="AP__Math_8h.html#a68558c4f79a8582543daefde13c64abc" target="_top" xlink:title=" ">
<polygon fill="white" stroke="black" points="364.089,-129 364.089,-149 447.911,-149 447.911,-129 364.089,-129"/>
<text text-anchor="middle" x="406" y="-135" font-family="Helvetica,sans-Serif" font-size="10.00">constrain_int16</text>
</a>
</g>
</g>
<!-- Node46&#45;&gt;Node50 -->
<g id="edge5" class="edge"><title>Node46&#45;&gt;Node50</title>
<path fill="none" stroke="midnightblue" d="M298.516,-139C316.756,-139 336.301,-139 353.603,-139"/>
<polygon fill="midnightblue" stroke="midnightblue" points="354.054,-142.5 364.054,-139 354.054,-135.5 354.054,-142.5"/>
</g>
<!-- Node57 -->
<g id="node13" class="node"><title>Node57</title>
<g id="a_node13"><a xlink:href="classAP__GPS.html#ac9f4da4e698ba211f2323a9a6731826c" target="_top" xlink:title=" ">
<polygon fill="white" stroke="black" points="347.419,-90 347.419,-110 464.581,-110 464.581,-90 347.419,-90"/>
<text text-anchor="middle" x="406" y="-96" font-family="Helvetica,sans-Serif" font-size="10.00">AP_GPS::get_rate_ms</text>
</a>
</g>
</g>
<!-- Node46&#45;&gt;Node57 -->
<g id="edge12" class="edge"><title>Node46&#45;&gt;Node57</title>
<path fill="none" stroke="midnightblue" d="M298.516,-124.145C315.734,-120.241 334.114,-116.073 350.674,-112.318"/>
<polygon fill="midnightblue" stroke="midnightblue" points="351.744,-115.664 360.722,-110.04 350.196,-108.838 351.744,-115.664"/>
</g>
<!-- Node59 -->
<g id="node15" class="node"><title>Node59</title>
<g id="a_node15"><a xlink:href="classJitterCorrection.html#acac0fcd86c6ed7583727e5ba00eaa008" target="_top" xlink:title=" ">
<polygon fill="white" stroke="black" points="337.775,-39 337.775,-71 474.225,-71 474.225,-39 337.775,-39"/>
<text text-anchor="start" x="345.775" y="-57" font-family="Helvetica,sans-Serif" font-size="10.00">JitterCorrection::correct</text>
<text text-anchor="middle" x="406" y="-45" font-family="Helvetica,sans-Serif" font-size="10.00">_offboard_timestamp_usec</text>
</a>
</g>
</g>
<!-- Node46&#45;&gt;Node59 -->
<g id="edge14" class="edge"><title>Node46&#45;&gt;Node59</title>
<path fill="none" stroke="midnightblue" d="M257.606,-122.842C277.63,-110.135 306.911,-92.5425 334,-80 337.869,-78.2086 341.905,-76.4678 346.002,-74.7938"/>
<polygon fill="midnightblue" stroke="midnightblue" points="347.596,-77.9284 355.626,-71.0165 345.038,-71.4124 347.596,-77.9284"/>
</g>
<!-- Node49 -->
<g id="node5" class="node"><title>Node49</title>
<g id="a_node5"><a xlink:href="hrt_8c.html#a1295f128f60d29874243b5733c4db025" target="_top" xlink:title=" ">
<polygon fill="white" stroke="black" points="523.714,-219 523.714,-239 590.286,-239 590.286,-219 523.714,-219"/>
<text text-anchor="middle" x="557" y="-225" font-family="Helvetica,sans-Serif" font-size="10.00">hrt_millis32</text>
</a>
</g>
</g>
<!-- Node48&#45;&gt;Node49 -->
<g id="edge4" class="edge"><title>Node48&#45;&gt;Node49</title>
<path fill="none" stroke="midnightblue" d="M447.322,-229C467.818,-229 492.722,-229 513.516,-229"/>
<polygon fill="midnightblue" stroke="midnightblue" points="513.662,-232.5 523.662,-229 513.662,-225.5 513.662,-232.5"/>
</g>
<!-- Node51 -->
<g id="node7" class="node"><title>Node51</title>
<g id="a_node7"><a xlink:href="AP__Math_8h.html#a20e8f8671c282c69c1954652b6d61585" target="_top" xlink:title=" ">
<polygon fill="white" stroke="black" points="513.978,-129 513.978,-149 600.022,-149 600.022,-129 513.978,-129"/>
<text text-anchor="middle" x="557" y="-135" font-family="Helvetica,sans-Serif" font-size="10.00">constrain_value</text>
</a>
</g>
</g>
<!-- Node50&#45;&gt;Node51 -->
<g id="edge6" class="edge"><title>Node50&#45;&gt;Node51</title>
<path fill="none" stroke="midnightblue" d="M448.109,-139C465.255,-139 485.375,-139 503.566,-139"/>
<polygon fill="midnightblue" stroke="midnightblue" points="503.728,-142.5 513.728,-139 503.728,-135.5 503.728,-142.5"/>
</g>
<!-- Node52 -->
<g id="node8" class="node"><title>Node52</title>
<g id="a_node8"><a xlink:href="namespaceAP.html#afceb236ff617aaaa2b08afacd72532b0" target="_top" xlink:title=" ">
<polygon fill="white" stroke="black" points="650.596,-149 650.596,-169 739.404,-169 739.404,-149 650.596,-149"/>
<text text-anchor="middle" x="695" y="-155" font-family="Helvetica,sans-Serif" font-size="10.00">AP::internalerror</text>
</a>
</g>
</g>
<!-- Node51&#45;&gt;Node52 -->
<g id="edge7" class="edge"><title>Node51&#45;&gt;Node52</title>
<path fill="none" stroke="midnightblue" d="M600.286,-145.218C612.962,-147.083 627.035,-149.152 640.342,-151.109"/>
<polygon fill="midnightblue" stroke="midnightblue" points="639.929,-154.586 650.331,-152.578 640.947,-147.66 639.929,-154.586"/>
</g>
<!-- Node53 -->
<g id="node9" class="node"><title>Node53</title>
<g id="a_node9"><a xlink:href="classAP__InternalError.html#ab34174ba770b976b39a18c2b23e854f2" target="_top" xlink:title=" ">
<polygon fill="white" stroke="black" points="636.426,-110 636.426,-130 753.574,-130 753.574,-110 636.426,-110"/>
<text text-anchor="middle" x="695" y="-116" font-family="Helvetica,sans-Serif" font-size="10.00">AP_InternalError::error</text>
</a>
</g>
</g>
<!-- Node51&#45;&gt;Node53 -->
<g id="edge8" class="edge"><title>Node51&#45;&gt;Node53</title>
<path fill="none" stroke="midnightblue" d="M600.286,-133.092C608.557,-131.937 617.424,-130.698 626.284,-129.46"/>
<polygon fill="midnightblue" stroke="midnightblue" points="626.833,-132.918 636.253,-128.068 625.865,-125.985 626.833,-132.918"/>
</g>
<!-- Node54 -->
<g id="node10" class="node"><title>Node54</title>
<g id="a_node10"><a xlink:href="namespaceAP__HAL.html#a71832f03d849a0c088f04fc98d3c8143" target="_top" xlink:title=" ">
<polygon fill="white" stroke="black" points="790.091,-110 790.091,-130 873.909,-130 873.909,-110 790.091,-110"/>
<text text-anchor="middle" x="832" y="-116" font-family="Helvetica,sans-Serif" font-size="10.00">AP_HAL::panic</text>
</a>
</g>
</g>
<!-- Node53&#45;&gt;Node54 -->
<g id="edge9" class="edge"><title>Node53&#45;&gt;Node54</title>
<path fill="none" stroke="midnightblue" d="M753.644,-120C762.305,-120 771.188,-120 779.705,-120"/>
<polygon fill="midnightblue" stroke="midnightblue" points="779.873,-123.5 789.873,-120 779.872,-116.5 779.873,-123.5"/>
</g>
<!-- Node55 -->
<g id="node11" class="node"><title>Node55</title>
<g id="a_node11"><a xlink:href="stdio_8h.html#aae132cc6af1eb6cf43bf011d8d63e854" target="_top" xlink:title=" ">
<polygon fill="white" stroke="black" points="943.384,-133 943.384,-153 986.616,-153 986.616,-133 943.384,-133"/>
<text text-anchor="middle" x="965" y="-139" font-family="Helvetica,sans-Serif" font-size="10.00">vprintf</text>
</a>
</g>
</g>
<!-- Node54&#45;&gt;Node55 -->
<g id="edge10" class="edge"><title>Node54&#45;&gt;Node55</title>
<path fill="none" stroke="midnightblue" d="M874.09,-127.214C893.104,-130.553 915.321,-134.453 932.913,-137.542"/>
<polygon fill="midnightblue" stroke="midnightblue" points="932.744,-141.066 943.199,-139.348 933.954,-134.171 932.744,-141.066"/>
</g>
<!-- Node56 -->
<g id="node12" class="node"><title>Node56</title>
<g id="a_node12"><a xlink:href="classAP__HAL_1_1Scheduler.html#a78c4f1b1f192ac1c99544b6cc8f099b0" target="_top" xlink:title=" ">
<polygon fill="white" stroke="black" points="909.751,-82 909.751,-114 1020.25,-114 1020.25,-82 909.751,-82"/>
<text text-anchor="start" x="917.751" y="-100" font-family="Helvetica,sans-Serif" font-size="10.00">AP_HAL::Scheduler::</text>
<text text-anchor="middle" x="965" y="-88" font-family="Helvetica,sans-Serif" font-size="10.00">delay_microseconds</text>
</a>
</g>
</g>
<!-- Node54&#45;&gt;Node56 -->
<g id="edge11" class="edge"><title>Node54&#45;&gt;Node56</title>
<path fill="none" stroke="midnightblue" d="M874.09,-113.099C882.18,-111.741 890.849,-110.285 899.495,-108.833"/>
<polygon fill="midnightblue" stroke="midnightblue" points="900.316,-112.244 909.599,-107.136 899.157,-105.341 900.316,-112.244"/>
</g>
<!-- Node58 -->
<g id="node14" class="node"><title>Node58</title>
<g id="a_node14"><a xlink:href="AP__Math_8h.html#a321a91de43cfb2e95d40cde314d0a80f" target="_top" xlink:title=" ">
<polygon fill="white" stroke="black" points="539.835,-90 539.835,-110 574.165,-110 574.165,-90 539.835,-90"/>
<text text-anchor="middle" x="557" y="-96" font-family="Helvetica,sans-Serif" font-size="10.00">MIN</text>
</a>
</g>
</g>
<!-- Node57&#45;&gt;Node58 -->
<g id="edge13" class="edge"><title>Node57&#45;&gt;Node58</title>
<path fill="none" stroke="midnightblue" d="M464.607,-100C487.092,-100 511.744,-100 529.773,-100"/>
<polygon fill="midnightblue" stroke="midnightblue" points="529.81,-103.5 539.81,-100 529.81,-96.5001 529.81,-103.5"/>
</g>
<!-- Node61 -->
<g id="node17" class="node"><title>Node61</title>
<g id="a_node17"><a xlink:href="AP__Math_8h.html#a37d7c62a8231d9d22826261297b99da4" target="_top" xlink:title=" ">
<polygon fill="white" stroke="black" points="381.601,-0 381.601,-20 430.399,-20 430.399,-0 381.601,-0"/>
<text text-anchor="middle" x="406" y="-6" font-family="Helvetica,sans-Serif" font-size="10.00">radians</text>
</a>
</g>
</g>
<!-- Node60&#45;&gt;Node61 -->
<g id="edge17" class="edge"><title>Node60&#45;&gt;Node61</title>
<path fill="none" stroke="midnightblue" d="M289.796,-36.1219C316.78,-30.0034 348.117,-22.898 371.289,-17.6437"/>
<polygon fill="midnightblue" stroke="midnightblue" points="372.338,-20.9948 381.317,-15.37 370.79,-14.1681 372.338,-20.9948"/>
</g>
</g>
</svg>
