<?xml version="1.0" encoding="UTF-8" standalone="no"?>
<!DOCTYPE svg PUBLIC "-//W3C//DTD SVG 1.1//EN"
 "http://www.w3.org/Graphics/SVG/1.1/DTD/svg11.dtd">
<!-- Generated by graphviz version 2.30.1 (20130221.2233)
 -->
<!-- Title: AP_WheelEncoder_Quadrature::irq_handler Pages: 1 -->
<svg width="560pt" height="40pt"
 viewBox="0.00 0.00 560.00 40.00" xmlns="http://www.w3.org/2000/svg" xmlns:xlink="http://www.w3.org/1999/xlink">
<g id="graph0" class="graph" transform="scale(1 1) rotate(0) translate(4 36)">
<title>AP_WheelEncoder_Quadrature::irq_handler</title>
<polygon fill="white" stroke="white" points="-4,5 -4,-36 557,-36 557,5 -4,5"/>
<!-- Node2 -->
<g id="node1" class="node"><title>Node2</title>
<g id="a_node1"><a xlink:title=" ">
<polygon fill="#bfbfbf" stroke="black" points="0.680176,-0 0.680176,-32 157.32,-32 157.32,-0 0.680176,-0"/>
<text text-anchor="start" x="8.68018" y="-18" font-family="Helvetica,sans-Serif" font-size="10.00">AP_WheelEncoder_Quadrature</text>
<text text-anchor="middle" x="79" y="-6" font-family="Helvetica,sans-Serif" font-size="10.00">::irq_handler</text>
</a>
</g>
</g>
<!-- Node3 -->
<g id="node2" class="node"><title>Node3</title>
<g id="a_node2"><a xlink:href="classAP__WheelEncoder__Quadrature.html#a2678f8831f26270d5466c649b244ae75" target="_top" xlink:title=" ">
<polygon fill="white" stroke="black" points="194.052,-0 194.052,-32 357.948,-32 357.948,-0 194.052,-0"/>
<text text-anchor="start" x="202.052" y="-18" font-family="Helvetica,sans-Serif" font-size="10.00">AP_WheelEncoder_Quadrature</text>
<text text-anchor="middle" x="276" y="-6" font-family="Helvetica,sans-Serif" font-size="10.00">::update_phase_and_error_count</text>
</a>
</g>
</g>
<!-- Node2&#45;&gt;Node3 -->
<g id="edge1" class="edge"><title>Node2&#45;&gt;Node3</title>
<path fill="none" stroke="midnightblue" d="M157.349,-16C165.986,-16 174.842,-16 183.632,-16"/>
<polygon fill="midnightblue" stroke="midnightblue" points="183.903,-19.5001 193.903,-16 183.903,-12.5001 183.903,-19.5001"/>
</g>
<!-- Node4 -->
<g id="node3" class="node"><title>Node4</title>
<g id="a_node3"><a xlink:href="classAP__WheelEncoder__Quadrature.html#a42ca1932842ff0ec62030ff42becc5be" target="_top" xlink:title=" ">
<polygon fill="white" stroke="black" points="394.68,-0 394.68,-32 551.32,-32 551.32,-0 394.68,-0"/>
<text text-anchor="start" x="402.68" y="-18" font-family="Helvetica,sans-Serif" font-size="10.00">AP_WheelEncoder_Quadrature</text>
<text text-anchor="middle" x="473" y="-6" font-family="Helvetica,sans-Serif" font-size="10.00">::pin_ab_to_phase</text>
</a>
</g>
</g>
<!-- Node3&#45;&gt;Node4 -->
<g id="edge2" class="edge"><title>Node3&#45;&gt;Node4</title>
<path fill="none" stroke="midnightblue" d="M358.003,-16C366.653,-16 375.48,-16 384.203,-16"/>
<polygon fill="midnightblue" stroke="midnightblue" points="384.378,-19.5001 394.378,-16 384.378,-12.5001 384.378,-19.5001"/>
</g>
</g>
</svg>
