<?xml version="1.0" encoding="UTF-8" standalone="no"?>
<!DOCTYPE svg PUBLIC "-//W3C//DTD SVG 1.1//EN"
 "http://www.w3.org/Graphics/SVG/1.1/DTD/svg11.dtd">
<!-- Generated by graphviz version 2.30.1 (20130221.2233)
 -->
<!-- Title: Linux::SPIBus::~SPIBus Pages: 1 -->
<!--zoomable 190 -->
<svg id="main" version="1.1" xmlns="http://www.w3.org/2000/svg" xmlns:xlink="http://www.w3.org/1999/xlink" xml:space="preserve" onload="init(evt)">
<style type="text/css"><![CDATA[
.edge:hover path { stroke: red; }
.edge:hover polygon { stroke: red; fill: red; }
]]></style>
<script type="text/javascript"><![CDATA[
var edges = document.getElementsByTagName('g');
if (edges && edges.length) {
  for (var i=0;i<edges.length;i++) {
    if (edges[i].id.substr(0,4)=='edge') {
      edges[i].setAttribute('class','edge');
    }
  }
}
]]></script>
        <defs>
                <circle id="rim" cx="0" cy="0" r="7"/>
                <circle id="rim2" cx="0" cy="0" r="3.5"/>
                <g id="zoomPlus">
                        <use xlink:href="#rim" fill="#404040">
                                <set attributeName="fill" to="#808080" begin="zoomplus.mouseover" end="zoomplus.mouseout"/>
                        </use>
                        <path d="M-4,0h8M0,-4v8" fill="none" stroke="white" stroke-width="1.5" pointer-events="none"/>
                </g>
                <g id="zoomMin">
                        <use xlink:href="#rim" fill="#404040">
                                <set attributeName="fill" to="#808080" begin="zoomminus.mouseover" end="zoomminus.mouseout"/>
                        </use>
                        <path d="M-4,0h8" fill="none" stroke="white" stroke-width="1.5" pointer-events="none"/>
                </g>
                <g id="dirArrow">
                        <path fill="none" stroke="white" stroke-width="1.5" d="M0,-3.0v7 M-2.5,-0.5L0,-3.0L2.5,-0.5"/>
                </g>
               <g id="resetDef">
                       <use xlink:href="#rim2" fill="#404040">
                               <set attributeName="fill" to="#808080" begin="reset.mouseover" end="reset.mouseout"/>
                       </use>
               </g>
        </defs>

<script type="text/javascript">
var viewWidth = 548;
var viewHeight = 190;
var sectionId = 'dynsection-2';
</script>
<script xlink:href="svgpan.js"/>
<svg id="graph" class="graph">
<g id="viewport">
<title>Linux::SPIBus::~SPIBus</title>
<polygon fill="white" stroke="white" points="-4,5 -4,-186.155 545,-186.155 545,5 -4,5"/>
<!-- Node2 -->
<g id="node1" class="node"><title>Node2</title>
<g id="a_node1"><a xlink:title=" ">
<polygon fill="#bfbfbf" stroke="black" points="0.220703,-78 0.220703,-98 123.779,-98 123.779,-78 0.220703,-78"/>
<text text-anchor="middle" x="62" y="-84" font-family="Helvetica,sans-Serif" font-size="10.00">Linux::SPIBus::~SPIBus</text>
</a>
</g>
</g>
<!-- Node3 -->
<g id="node2" class="node"><title>Node3</title>
<g id="a_node2"><a xlink:href="posix_8c.html#a8877deace0c63591fee0cc9c94d249d3" target="_top" xlink:title="POSIX Close a file with fileno handel.">
<polygon fill="white" stroke="black" points="160.328,-78 160.328,-98 199.672,-98 199.672,-78 160.328,-78"/>
<text text-anchor="middle" x="180" y="-84" font-family="Helvetica,sans-Serif" font-size="10.00">close</text>
</a>
</g>
</g>
<!-- Node2&#45;&gt;Node3 -->
<g id="edge1" class="edge"><title>Node2&#45;&gt;Node3</title>
<path fill="none" stroke="midnightblue" d="M124.057,-88C133.063,-88 141.971,-88 149.908,-88"/>
<polygon fill="midnightblue" stroke="midnightblue" points="150.048,-91.5001 160.048,-88 150.048,-84.5001 150.048,-91.5001"/>
</g>
<!-- Node4 -->
<g id="node3" class="node"><title>Node4</title>
<g id="a_node3"><a xlink:href="posix_8c.html#ae0821388c321f66b16fbca4a625022de" target="_top" xlink:title="Convert POSIX fileno to POSIX FILE stream pointer. NOT POSIX.">
<polygon fill="white" stroke="black" points="374.035,-78 374.035,-98 463.965,-98 463.965,-78 374.035,-78"/>
<text text-anchor="middle" x="419" y="-84" font-family="Helvetica,sans-Serif" font-size="10.00">fileno_to_stream</text>
</a>
</g>
</g>
<!-- Node3&#45;&gt;Node4 -->
<g id="edge2" class="edge"><title>Node3&#45;&gt;Node4</title>
<path fill="none" stroke="midnightblue" d="M199.994,-88C235.109,-88 311.366,-88 363.697,-88"/>
<polygon fill="midnightblue" stroke="midnightblue" points="363.825,-91.5001 373.825,-88 363.825,-84.5001 363.825,-91.5001"/>
</g>
<!-- Node5 -->
<g id="node4" class="node"><title>Node5</title>
<g id="a_node4"><a xlink:href="posix_8c.html#af86fa14728c9bad5418a6d29cad9f9ff" target="_top" xlink:title="Convert POSIX stream pointer to POSIX fileno (index of __iob[])">
<polygon fill="white" stroke="black" points="500.047,-117 500.047,-137 539.953,-137 539.953,-117 500.047,-117"/>
<text text-anchor="middle" x="520" y="-123" font-family="Helvetica,sans-Serif" font-size="10.00">fileno</text>
</a>
</g>
</g>
<!-- Node3&#45;&gt;Node5 -->
<g id="edge4" class="edge"><title>Node3&#45;&gt;Node5</title>
<path fill="none" stroke="midnightblue" d="M187.357,-98.252C196.351,-111.759 214.155,-135.077 236,-146 326.857,-191.432 366.469,-190.401 464,-162 476.775,-158.28 489.416,-150.595 499.351,-143.372"/>
<polygon fill="midnightblue" stroke="midnightblue" points="501.52,-146.12 507.322,-137.254 497.258,-140.567 501.52,-146.12"/>
</g>
<!-- Node6 -->
<g id="node5" class="node"><title>Node6</title>
<g id="a_node5"><a xlink:href="posix_8c.html#a1eeda4d85cf3cae5cf1ee8c1e196a686" target="_top" xlink:title="Convert POSIX fileno to FatFS handle NOT POSIX.">
<polygon fill="white" stroke="black" points="247.867,-117 247.867,-137 326.133,-137 326.133,-117 247.867,-117"/>
<text text-anchor="middle" x="287" y="-123" font-family="Helvetica,sans-Serif" font-size="10.00">fileno_to_fatfs</text>
</a>
</g>
</g>
<!-- Node3&#45;&gt;Node6 -->
<g id="edge5" class="edge"><title>Node3&#45;&gt;Node6</title>
<path fill="none" stroke="midnightblue" d="M199.772,-94.9724C213.48,-100.064 232.509,-107.132 249.204,-113.333"/>
<polygon fill="midnightblue" stroke="midnightblue" points="248.113,-116.661 258.706,-116.862 250.55,-110.099 248.113,-116.661"/>
</g>
<!-- Node8 -->
<g id="node7" class="node"><title>Node8</title>
<g id="a_node7"><a xlink:href="posix_8c.html#a9d5502ebc4eba38ea5ef6ca4ba71bc02" target="_top" xlink:title="Free POSIX fileno FILE descriptor. NOT POSIX.">
<polygon fill="white" stroke="black" points="236.478,-39 236.478,-59 337.522,-59 337.522,-39 236.478,-39"/>
<text text-anchor="middle" x="287" y="-45" font-family="Helvetica,sans-Serif" font-size="10.00">free_file_descriptor</text>
</a>
</g>
</g>
<!-- Node3&#45;&gt;Node8 -->
<g id="edge10" class="edge"><title>Node3&#45;&gt;Node8</title>
<path fill="none" stroke="midnightblue" d="M199.772,-81.0276C213.48,-75.936 232.509,-68.8683 249.204,-62.6673"/>
<polygon fill="midnightblue" stroke="midnightblue" points="250.55,-65.9008 258.706,-59.1378 248.113,-59.3388 250.55,-65.9008"/>
</g>
<!-- Node10 -->
<g id="node9" class="node"><title>Node10</title>
<g id="a_node9"><a xlink:href="posix_8c.html#aeb68afd2fdf966f8d89cc7aaa9aa7c23" target="_top" xlink:title="Convert FafFs error result to POSIX errno. NOT POSIX.">
<polygon fill="white" stroke="black" points="248.148,-0 248.148,-20 325.852,-20 325.852,-0 248.148,-0"/>
<text text-anchor="middle" x="287" y="-6" font-family="Helvetica,sans-Serif" font-size="10.00">fatfs_to_errno</text>
</a>
</g>
</g>
<!-- Node3&#45;&gt;Node10 -->
<g id="edge15" class="edge"><title>Node3&#45;&gt;Node10</title>
<path fill="none" stroke="midnightblue" d="M188.09,-77.9016C197.637,-64.9645 215.778,-42.5929 236,-29 238.42,-27.373 241,-25.8593 243.662,-24.4555"/>
<polygon fill="midnightblue" stroke="midnightblue" points="245.364,-27.5229 252.925,-20.1014 242.386,-21.1878 245.364,-27.5229"/>
</g>
<!-- Node4&#45;&gt;Node5 -->
<g id="edge3" class="edge"><title>Node4&#45;&gt;Node5</title>
<path fill="none" stroke="midnightblue" d="M445.495,-98.0435C459.273,-103.471 476.326,-110.189 490.537,-115.787"/>
<polygon fill="midnightblue" stroke="midnightblue" points="489.259,-119.046 499.846,-119.454 491.825,-112.533 489.259,-119.046"/>
</g>
<!-- Node7 -->
<g id="node6" class="node"><title>Node7</title>
<g id="a_node6"><a xlink:href="posix_8c.html#aeac589354c9d47c7d9c7c49ba4b0d266" target="_top" xlink:title="Test POSIX fileno if it is a Serial Console/TTY.">
<polygon fill="white" stroke="black" points="399.33,-117 399.33,-137 438.67,-137 438.67,-117 399.33,-117"/>
<text text-anchor="middle" x="419" y="-123" font-family="Helvetica,sans-Serif" font-size="10.00">isatty</text>
</a>
</g>
</g>
<!-- Node6&#45;&gt;Node7 -->
<g id="edge6" class="edge"><title>Node6&#45;&gt;Node7</title>
<path fill="none" stroke="midnightblue" d="M326.301,-127C346.336,-127 370.466,-127 388.944,-127"/>
<polygon fill="midnightblue" stroke="midnightblue" points="389.097,-130.5 399.097,-127 389.097,-123.5 389.097,-130.5"/>
</g>
<!-- Node6&#45;&gt;Node5 -->
<g id="edge8" class="edge"><title>Node6&#45;&gt;Node5</title>
<path fill="none" stroke="midnightblue" d="M324.958,-137.013C340.043,-140.614 357.736,-144.225 374,-146 413.764,-150.34 424.552,-152.622 464,-146 472.712,-144.538 481.89,-141.857 490.198,-138.962"/>
<polygon fill="midnightblue" stroke="midnightblue" points="491.657,-142.154 499.812,-135.391 489.219,-135.592 491.657,-142.154"/>
</g>
<!-- Node6&#45;&gt;Node4 -->
<g id="edge9" class="edge"><title>Node6&#45;&gt;Node4</title>
<path fill="none" stroke="midnightblue" d="M321.478,-116.957C337.703,-112.089 357.386,-106.184 374.734,-100.98"/>
<polygon fill="midnightblue" stroke="midnightblue" points="376.063,-104.235 384.635,-98.0094 374.051,-97.5306 376.063,-104.235"/>
</g>
<!-- Node7&#45;&gt;Node5 -->
<g id="edge7" class="edge"><title>Node7&#45;&gt;Node5</title>
<path fill="none" stroke="midnightblue" d="M439.088,-127C453.469,-127 473.441,-127 489.82,-127"/>
<polygon fill="midnightblue" stroke="midnightblue" points="489.97,-130.5 499.97,-127 489.97,-123.5 489.97,-130.5"/>
</g>
<!-- Node8&#45;&gt;Node7 -->
<g id="edge11" class="edge"><title>Node8&#45;&gt;Node7</title>
<path fill="none" stroke="midnightblue" d="M301.549,-59.1789C318.124,-71.3819 347.281,-92.0548 374,-107 379.035,-109.816 384.539,-112.562 389.897,-115.073"/>
<polygon fill="midnightblue" stroke="midnightblue" points="388.696,-118.371 399.25,-119.301 391.58,-111.993 388.696,-118.371"/>
</g>
<!-- Node8&#45;&gt;Node5 -->
<g id="edge12" class="edge"><title>Node8&#45;&gt;Node5</title>
<path fill="none" stroke="midnightblue" d="M337.63,-45.3412C374.387,-44.708 424.698,-48.3317 464,-68 481.908,-76.9618 496.971,-94.3212 506.779,-107.9"/>
<polygon fill="midnightblue" stroke="midnightblue" points="504.163,-110.274 512.701,-116.547 509.938,-106.319 504.163,-110.274"/>
</g>
<!-- Node8&#45;&gt;Node4 -->
<g id="edge13" class="edge"><title>Node8&#45;&gt;Node4</title>
<path fill="none" stroke="midnightblue" d="M321.478,-59.0435C337.703,-63.911 357.386,-69.8158 374.734,-75.0203"/>
<polygon fill="midnightblue" stroke="midnightblue" points="374.051,-78.4694 384.635,-77.9906 376.063,-71.7646 374.051,-78.4694"/>
</g>
<!-- Node9 -->
<g id="node8" class="node"><title>Node9</title>
<g id="a_node8"><a xlink:href="malloc_8c.html#afbedc913aa4651b3c3b4b3aecd9b4711" target="_top" xlink:title=" ">
<polygon fill="white" stroke="black" points="402.384,-0 402.384,-20 435.616,-20 435.616,-0 402.384,-0"/>
<text text-anchor="middle" x="419" y="-6" font-family="Helvetica,sans-Serif" font-size="10.00">free</text>
</a>
</g>
</g>
<!-- Node8&#45;&gt;Node9 -->
<g id="edge14" class="edge"><title>Node8&#45;&gt;Node9</title>
<path fill="none" stroke="midnightblue" d="M321.478,-38.9565C343.644,-32.3067 372.263,-23.721 392.568,-17.6297"/>
<polygon fill="midnightblue" stroke="midnightblue" points="393.777,-20.9212 402.349,-14.6952 391.765,-14.2164 393.777,-20.9212"/>
</g>
</g>
</svg>
        <g id="navigator" transform="translate(0 0)" fill="#404254">
                <rect fill="#f2f5e9" fill-opacity="0.5" stroke="#606060" stroke-width=".5" x="0" y="0" width="60" height="60"/>
                <use id="zoomplus" xlink:href="#zoomPlus" x="17" y="9" onmousedown="handleZoom(evt,'in')"/>
                <use id="zoomminus" xlink:href="#zoomMin" x="42" y="9" onmousedown="handleZoom(evt,'out')"/>
                <use id="reset" xlink:href="#resetDef" x="30" y="36" onmousedown="handleReset()"/>
                <g id="arrowUp" xlink:href="#dirArrow" transform="translate(30 24)" onmousedown="handlePan(0,-1)">
                  <use xlink:href="#rim" fill="#404040">
                        <set attributeName="fill" to="#808080" begin="arrowUp.mouseover" end="arrowUp.mouseout"/>
                  </use>
                  <path fill="none" stroke="white" stroke-width="1.5" d="M0,-3.0v7 M-2.5,-0.5L0,-3.0L2.5,-0.5"/>
                </g>
                <g id="arrowRight" xlink:href="#dirArrow" transform="rotate(90) translate(36 -43)" onmousedown="handlePan(1,0)">
                  <use xlink:href="#rim" fill="#404040">
                        <set attributeName="fill" to="#808080" begin="arrowRight.mouseover" end="arrowRight.mouseout"/>
                  </use>
                  <path fill="none" stroke="white" stroke-width="1.5" d="M0,-3.0v7 M-2.5,-0.5L0,-3.0L2.5,-0.5"/>
                </g>
                <g id="arrowDown" xlink:href="#dirArrow" transform="rotate(180) translate(-30 -48)" onmousedown="handlePan(0,1)">
                  <use xlink:href="#rim" fill="#404040">
                        <set attributeName="fill" to="#808080" begin="arrowDown.mouseover" end="arrowDown.mouseout"/>
                  </use>
                  <path fill="none" stroke="white" stroke-width="1.5" d="M0,-3.0v7 M-2.5,-0.5L0,-3.0L2.5,-0.5"/>
                </g>
                <g id="arrowLeft" xlink:href="#dirArrow" transform="rotate(270) translate(-36 17)" onmousedown="handlePan(-1,0)">
                  <use xlink:href="#rim" fill="#404040">
                        <set attributeName="fill" to="#808080" begin="arrowLeft.mouseover" end="arrowLeft.mouseout"/>
                  </use>
                  <path fill="none" stroke="white" stroke-width="1.5" d="M0,-3.0v7 M-2.5,-0.5L0,-3.0L2.5,-0.5"/>
                </g>
        </g>
        <svg viewBox="0 0 15 15" width="100%" height="30px" preserveAspectRatio="xMaxYMin meet">
         <g id="arrow_out" transform="scale(0.3 0.3)">
          <a xlink:href="classLinux_1_1SPIBus_a7aae6a40a5867be12ece40158006348d_cgraph_org.svg" target="_base">
           <rect id="button" ry="5" rx="5" y="6" x="6" height="38" width="38"
                fill="#f2f5e9" fill-opacity="0.5" stroke="#606060" stroke-width="1.0"/>
           <path id="arrow"
             d="M 11.500037,31.436501 C 11.940474,20.09759 22.043105,11.32322 32.158766,21.979434 L 37.068811,17.246167 C 37.068811,17.246167 37.088388,32 37.088388,32 L 22.160133,31.978069 C 22.160133,31.978069 26.997745,27.140456 26.997745,27.140456 C 18.528582,18.264221 13.291696,25.230495 11.500037,31.436501 z"
             style="fill:#404040;"/>
          </a>
         </g>
        </svg>
</svg>
