<?xml version="1.0" encoding="UTF-8" standalone="no"?>
<!DOCTYPE svg PUBLIC "-//W3C//DTD SVG 1.1//EN"
 "http://www.w3.org/Graphics/SVG/1.1/DTD/svg11.dtd">
<!-- Generated by graphviz version 2.30.1 (20130221.2233)
 -->
<!-- Title: RGBLed::update Pages: 1 -->
<!--zoomable 279 -->
<svg id="main" version="1.1" xmlns="http://www.w3.org/2000/svg" xmlns:xlink="http://www.w3.org/1999/xlink" xml:space="preserve" onload="init(evt)">
<style type="text/css"><![CDATA[
.edge:hover path { stroke: red; }
.edge:hover polygon { stroke: red; fill: red; }
]]></style>
<script type="text/javascript"><![CDATA[
var edges = document.getElementsByTagName('g');
if (edges && edges.length) {
  for (var i=0;i<edges.length;i++) {
    if (edges[i].id.substr(0,4)=='edge') {
      edges[i].setAttribute('class','edge');
    }
  }
}
]]></script>
        <defs>
                <circle id="rim" cx="0" cy="0" r="7"/>
                <circle id="rim2" cx="0" cy="0" r="3.5"/>
                <g id="zoomPlus">
                        <use xlink:href="#rim" fill="#404040">
                                <set attributeName="fill" to="#808080" begin="zoomplus.mouseover" end="zoomplus.mouseout"/>
                        </use>
                        <path d="M-4,0h8M0,-4v8" fill="none" stroke="white" stroke-width="1.5" pointer-events="none"/>
                </g>
                <g id="zoomMin">
                        <use xlink:href="#rim" fill="#404040">
                                <set attributeName="fill" to="#808080" begin="zoomminus.mouseover" end="zoomminus.mouseout"/>
                        </use>
                        <path d="M-4,0h8" fill="none" stroke="white" stroke-width="1.5" pointer-events="none"/>
                </g>
                <g id="dirArrow">
                        <path fill="none" stroke="white" stroke-width="1.5" d="M0,-3.0v7 M-2.5,-0.5L0,-3.0L2.5,-0.5"/>
                </g>
               <g id="resetDef">
                       <use xlink:href="#rim2" fill="#404040">
                               <set attributeName="fill" to="#808080" begin="reset.mouseover" end="reset.mouseout"/>
                       </use>
               </g>
        </defs>

<script type="text/javascript">
var viewWidth = 608;
var viewHeight = 279;
var sectionId = 'dynsection-16';
</script>
<script xlink:href="svgpan.js"/>
<svg id="graph" class="graph">
<g id="viewport">
<title>RGBLed::update</title>
<polygon fill="white" stroke="white" points="-4,5 -4,-274.644 605,-274.644 605,5 -4,5"/>
<!-- Node67 -->
<g id="node1" class="node"><title>Node67</title>
<g id="a_node1"><a xlink:title=" ">
<polygon fill="#bfbfbf" stroke="black" points="-0.248535,-123 -0.248535,-143 90.2485,-143 90.2485,-123 -0.248535,-123"/>
<text text-anchor="middle" x="45" y="-129" font-family="Helvetica,sans-Serif" font-size="10.00">RGBLed::update</text>
</a>
</g>
</g>
<!-- Node68 -->
<g id="node2" class="node"><title>Node68</title>
<g id="a_node2"><a xlink:href="classRGBLed.html#a4e53dee894f2b8d7e45039aac28a6b5b" target="_top" xlink:title=" ">
<polygon fill="white" stroke="black" points="318.03,-238 318.03,-258 427.97,-258 427.97,-238 318.03,-238"/>
<text text-anchor="middle" x="373" y="-244" font-family="Helvetica,sans-Serif" font-size="10.00">RGBLed::rgb_source</text>
</a>
</g>
</g>
<!-- Node67&#45;&gt;Node68 -->
<g id="edge1" class="edge"><title>Node67&#45;&gt;Node68</title>
<path fill="none" stroke="midnightblue" d="M49.3648,-143.155C57.8208,-166.8 82.4573,-225.248 126,-248 188.812,-280.82 273.553,-271.093 325.404,-260.186"/>
<polygon fill="midnightblue" stroke="midnightblue" points="326.307,-263.571 335.32,-258.001 324.801,-256.735 326.307,-263.571"/>
</g>
<!-- Node69 -->
<g id="node3" class="node"><title>Node69</title>
<g id="a_node3"><a xlink:href="classRGBLed.html#aaacde030b84601c5802bf153f0b337a0" target="_top" xlink:title=" ">
<polygon fill="white" stroke="black" points="125.907,-78 125.907,-98 258.093,-98 258.093,-78 125.907,-78"/>
<text text-anchor="middle" x="192" y="-84" font-family="Helvetica,sans-Serif" font-size="10.00">RGBLed::update_override</text>
</a>
</g>
</g>
<!-- Node67&#45;&gt;Node69 -->
<g id="edge2" class="edge"><title>Node67&#45;&gt;Node69</title>
<path fill="none" stroke="midnightblue" d="M76.323,-122.909C91.2499,-118.002 109.533,-112.081 126,-107 132.491,-104.997 139.364,-102.93 146.114,-100.93"/>
<polygon fill="midnightblue" stroke="midnightblue" points="147.254,-104.244 155.859,-98.0639 145.278,-97.5282 147.254,-104.244"/>
</g>
<!-- Node74 -->
<g id="node8" class="node"><title>Node74</title>
<g id="a_node8"><a xlink:href="classRGBLed.html#a33a4da5e6c8cfc9cd7fea41abd025167" target="_top" xlink:title=" ">
<polygon fill="white" stroke="black" points="138.695,-168 138.695,-200 245.305,-200 245.305,-168 138.695,-168"/>
<text text-anchor="start" x="146.695" y="-186" font-family="Helvetica,sans-Serif" font-size="10.00">RGBLed::get_colour</text>
<text text-anchor="middle" x="192" y="-174" font-family="Helvetica,sans-Serif" font-size="10.00">_sequence</text>
</a>
</g>
</g>
<!-- Node67&#45;&gt;Node74 -->
<g id="edge7" class="edge"><title>Node67&#45;&gt;Node74</title>
<path fill="none" stroke="midnightblue" d="M74.6473,-143.076C92.0324,-149.191 114.806,-157.201 135.592,-164.512"/>
<polygon fill="midnightblue" stroke="midnightblue" points="134.694,-167.906 145.289,-167.922 137.017,-161.303 134.694,-167.906"/>
</g>
<!-- Node75 -->
<g id="node9" class="node"><title>Node75</title>
<g id="a_node9"><a xlink:href="classRGBLed.html#a051f0b78ba64c090494c4b96cd5b4003" target="_top" xlink:title=" ">
<polygon fill="white" stroke="black" points="138.695,-117 138.695,-149 245.305,-149 245.305,-117 138.695,-117"/>
<text text-anchor="start" x="146.695" y="-135" font-family="Helvetica,sans-Serif" font-size="10.00">RGBLed::get_colour</text>
<text text-anchor="middle" x="192" y="-123" font-family="Helvetica,sans-Serif" font-size="10.00">_sequence_obc</text>
</a>
</g>
</g>
<!-- Node67&#45;&gt;Node75 -->
<g id="edge8" class="edge"><title>Node67&#45;&gt;Node75</title>
<path fill="none" stroke="midnightblue" d="M90.2927,-133C102.319,-133 115.572,-133 128.403,-133"/>
<polygon fill="midnightblue" stroke="midnightblue" points="128.572,-136.5 138.572,-133 128.572,-129.5 128.572,-136.5"/>
</g>
<!-- Node76 -->
<g id="node10" class="node"><title>Node76</title>
<g id="a_node10"><a xlink:href="classRGBLed.html#a09a5fb0fec0b6b6aa6976b11650c6716" target="_top" xlink:title=" ">
<polygon fill="white" stroke="black" points="129.244,-0 129.244,-20 254.756,-20 254.756,-0 129.244,-0"/>
<text text-anchor="middle" x="192" y="-6" font-family="Helvetica,sans-Serif" font-size="10.00">RGBLed::get_brightness</text>
</a>
</g>
</g>
<!-- Node67&#45;&gt;Node76 -->
<g id="edge9" class="edge"><title>Node67&#45;&gt;Node76</title>
<path fill="none" stroke="midnightblue" d="M51.7314,-122.937C63.3409,-103.383 91.4881,-59.9879 126,-35 131.925,-30.7102 138.68,-27.0517 145.541,-23.9657"/>
<polygon fill="midnightblue" stroke="midnightblue" points="146.986,-27.1558 154.896,-20.1069 144.317,-20.6847 146.986,-27.1558"/>
</g>
<!-- Node72 -->
<g id="node6" class="node"><title>Node72</title>
<g id="a_node6"><a xlink:href="namespaceAP__HAL.html#a77dffbb18891996280308e21316ec186" target="_top" xlink:title=" ">
<polygon fill="white" stroke="black" points="331.936,-58 331.936,-78 414.064,-78 414.064,-58 331.936,-58"/>
<text text-anchor="middle" x="373" y="-64" font-family="Helvetica,sans-Serif" font-size="10.00">AP_HAL::millis</text>
</a>
</g>
</g>
<!-- Node67&#45;&gt;Node72 -->
<g id="edge11" class="edge"><title>Node67&#45;&gt;Node72</title>
<path fill="none" stroke="midnightblue" d="M54.2771,-122.831C67.5193,-107.464 95.1388,-78.957 126,-68 190.575,-45.0733 270.836,-50.8849 321.756,-58.4175"/>
<polygon fill="midnightblue" stroke="midnightblue" points="321.428,-61.9086 331.848,-59.99 322.506,-54.992 321.428,-61.9086"/>
</g>
<!-- Node78 -->
<g id="node12" class="node"><title>Node78</title>
<g id="a_node12"><a xlink:href="classRGBLed.html#ac226b0a197dc8535b9a12fa43ac3eb57" target="_top" xlink:title=" ">
<polygon fill="white" stroke="black" points="145.367,-219 145.367,-239 238.633,-239 238.633,-219 145.367,-219"/>
<text text-anchor="middle" x="192" y="-225" font-family="Helvetica,sans-Serif" font-size="10.00">RGBLed::set_rgb</text>
</a>
</g>
</g>
<!-- Node67&#45;&gt;Node78 -->
<g id="edge12" class="edge"><title>Node67&#45;&gt;Node78</title>
<path fill="none" stroke="midnightblue" d="M53.9876,-143.167C67.2513,-159.387 95.406,-191.11 126,-209 129.948,-211.309 134.189,-213.376 138.545,-215.223"/>
<polygon fill="midnightblue" stroke="midnightblue" points="137.602,-218.611 148.193,-218.922 140.108,-212.074 137.602,-218.611"/>
</g>
<!-- Node70 -->
<g id="node4" class="node"><title>Node70</title>
<g id="a_node4"><a xlink:href="classRGBLed.html#a8ad814a914d6bc9877e47c352588e256" target="_top" xlink:title=" ">
<polygon fill="white" stroke="black" points="323.586,-157 323.586,-177 422.414,-177 422.414,-157 323.586,-157"/>
<text text-anchor="middle" x="373" y="-163" font-family="Helvetica,sans-Serif" font-size="10.00">RGBLed::_set_rgb</text>
</a>
</g>
</g>
<!-- Node69&#45;&gt;Node70 -->
<g id="edge3" class="edge"><title>Node69&#45;&gt;Node70</title>
<path fill="none" stroke="midnightblue" d="M231.93,-98.0005C240.623,-100.613 249.717,-103.649 258,-107 289.707,-119.827 324.214,-138.741 346.861,-151.892"/>
<polygon fill="midnightblue" stroke="midnightblue" points="345.112,-154.923 355.508,-156.968 348.656,-148.887 345.112,-154.923"/>
</g>
<!-- Node69&#45;&gt;Node72 -->
<g id="edge5" class="edge"><title>Node69&#45;&gt;Node72</title>
<path fill="none" stroke="midnightblue" d="M258.129,-80.723C279.155,-78.3737 302.123,-75.8075 321.889,-73.599"/>
<polygon fill="midnightblue" stroke="midnightblue" points="322.357,-77.0686 331.906,-72.4797 321.58,-70.1119 322.357,-77.0686"/>
</g>
<!-- Node71 -->
<g id="node5" class="node"><title>Node71</title>
<g id="a_node5"><a xlink:href="classRGBLed.html#af048bc2b0da82e9599945910aac07aa6" target="_top" xlink:title=" ">
<polygon fill="white" stroke="black" points="488.195,-157 488.195,-177 599.805,-177 599.805,-157 488.195,-157"/>
<text text-anchor="middle" x="544" y="-163" font-family="Helvetica,sans-Serif" font-size="10.00">RGBLed::hw_set_rgb</text>
</a>
</g>
</g>
<!-- Node70&#45;&gt;Node71 -->
<g id="edge4" class="edge"><title>Node70&#45;&gt;Node71</title>
<path fill="none" stroke="midnightblue" d="M422.429,-167C439.711,-167 459.472,-167 477.926,-167"/>
<polygon fill="midnightblue" stroke="midnightblue" points="478.019,-170.5 488.019,-167 478.019,-163.5 478.019,-170.5"/>
</g>
<!-- Node73 -->
<g id="node7" class="node"><title>Node73</title>
<g id="a_node7"><a xlink:href="hrt_8c.html#a1295f128f60d29874243b5733c4db025" target="_top" xlink:title=" ">
<polygon fill="white" stroke="black" points="510.714,-58 510.714,-78 577.286,-78 577.286,-58 510.714,-58"/>
<text text-anchor="middle" x="544" y="-64" font-family="Helvetica,sans-Serif" font-size="10.00">hrt_millis32</text>
</a>
</g>
</g>
<!-- Node72&#45;&gt;Node73 -->
<g id="edge6" class="edge"><title>Node72&#45;&gt;Node73</title>
<path fill="none" stroke="midnightblue" d="M414.48,-68C440.428,-68 474.06,-68 500.411,-68"/>
<polygon fill="midnightblue" stroke="midnightblue" points="500.485,-71.5001 510.485,-68 500.485,-64.5001 500.485,-71.5001"/>
</g>
<!-- Node77 -->
<g id="node11" class="node"><title>Node77</title>
<g id="a_node11"><a xlink:href="classAP__HAL_1_1GPIO.html#ab0ea67003249493b7efc0528410b9be6" target="_top" xlink:title=" ">
<polygon fill="white" stroke="black" points="293.848,-0 293.848,-20 452.152,-20 452.152,-0 293.848,-0"/>
<text text-anchor="middle" x="373" y="-6" font-family="Helvetica,sans-Serif" font-size="10.00">AP_HAL::GPIO::usb_connected</text>
</a>
</g>
</g>
<!-- Node76&#45;&gt;Node77 -->
<g id="edge10" class="edge"><title>Node76&#45;&gt;Node77</title>
<path fill="none" stroke="midnightblue" d="M254.852,-10C264.152,-10 273.894,-10 283.618,-10"/>
<polygon fill="midnightblue" stroke="midnightblue" points="283.726,-13.5001 293.726,-10 283.726,-6.5001 283.726,-13.5001"/>
</g>
<!-- Node78&#45;&gt;Node68 -->
<g id="edge13" class="edge"><title>Node78&#45;&gt;Node68</title>
<path fill="none" stroke="midnightblue" d="M239.097,-233.893C259.937,-236.105 284.92,-238.757 307.573,-241.161"/>
<polygon fill="midnightblue" stroke="midnightblue" points="307.48,-244.671 317.793,-242.246 308.218,-237.71 307.48,-244.671"/>
</g>
<!-- Node78&#45;&gt;Node70 -->
<g id="edge14" class="edge"><title>Node78&#45;&gt;Node70</title>
<path fill="none" stroke="midnightblue" d="M226.848,-218.967C236.91,-215.882 247.933,-212.401 258,-209 284.459,-200.063 314.044,-189.135 336.443,-180.667"/>
<polygon fill="midnightblue" stroke="midnightblue" points="337.776,-183.905 345.882,-177.083 335.291,-177.361 337.776,-183.905"/>
</g>
</g>
</svg>
        <g id="navigator" transform="translate(0 0)" fill="#404254">
                <rect fill="#f2f5e9" fill-opacity="0.5" stroke="#606060" stroke-width=".5" x="0" y="0" width="60" height="60"/>
                <use id="zoomplus" xlink:href="#zoomPlus" x="17" y="9" onmousedown="handleZoom(evt,'in')"/>
                <use id="zoomminus" xlink:href="#zoomMin" x="42" y="9" onmousedown="handleZoom(evt,'out')"/>
                <use id="reset" xlink:href="#resetDef" x="30" y="36" onmousedown="handleReset()"/>
                <g id="arrowUp" xlink:href="#dirArrow" transform="translate(30 24)" onmousedown="handlePan(0,-1)">
                  <use xlink:href="#rim" fill="#404040">
                        <set attributeName="fill" to="#808080" begin="arrowUp.mouseover" end="arrowUp.mouseout"/>
                  </use>
                  <path fill="none" stroke="white" stroke-width="1.5" d="M0,-3.0v7 M-2.5,-0.5L0,-3.0L2.5,-0.5"/>
                </g>
                <g id="arrowRight" xlink:href="#dirArrow" transform="rotate(90) translate(36 -43)" onmousedown="handlePan(1,0)">
                  <use xlink:href="#rim" fill="#404040">
                        <set attributeName="fill" to="#808080" begin="arrowRight.mouseover" end="arrowRight.mouseout"/>
                  </use>
                  <path fill="none" stroke="white" stroke-width="1.5" d="M0,-3.0v7 M-2.5,-0.5L0,-3.0L2.5,-0.5"/>
                </g>
                <g id="arrowDown" xlink:href="#dirArrow" transform="rotate(180) translate(-30 -48)" onmousedown="handlePan(0,1)">
                  <use xlink:href="#rim" fill="#404040">
                        <set attributeName="fill" to="#808080" begin="arrowDown.mouseover" end="arrowDown.mouseout"/>
                  </use>
                  <path fill="none" stroke="white" stroke-width="1.5" d="M0,-3.0v7 M-2.5,-0.5L0,-3.0L2.5,-0.5"/>
                </g>
                <g id="arrowLeft" xlink:href="#dirArrow" transform="rotate(270) translate(-36 17)" onmousedown="handlePan(-1,0)">
                  <use xlink:href="#rim" fill="#404040">
                        <set attributeName="fill" to="#808080" begin="arrowLeft.mouseover" end="arrowLeft.mouseout"/>
                  </use>
                  <path fill="none" stroke="white" stroke-width="1.5" d="M0,-3.0v7 M-2.5,-0.5L0,-3.0L2.5,-0.5"/>
                </g>
        </g>
        <svg viewBox="0 0 15 15" width="100%" height="30px" preserveAspectRatio="xMaxYMin meet">
         <g id="arrow_out" transform="scale(0.3 0.3)">
          <a xlink:href="classRGBLed_ae2ad8c31ec27dbf4f574744404543063_cgraph_org.svg" target="_base">
           <rect id="button" ry="5" rx="5" y="6" x="6" height="38" width="38"
                fill="#f2f5e9" fill-opacity="0.5" stroke="#606060" stroke-width="1.0"/>
           <path id="arrow"
             d="M 11.500037,31.436501 C 11.940474,20.09759 22.043105,11.32322 32.158766,21.979434 L 37.068811,17.246167 C 37.068811,17.246167 37.088388,32 37.088388,32 L 22.160133,31.978069 C 22.160133,31.978069 26.997745,27.140456 26.997745,27.140456 C 18.528582,18.264221 13.291696,25.230495 11.500037,31.436501 z"
             style="fill:#404040;"/>
          </a>
         </g>
        </svg>
</svg>
