<?xml version="1.0" encoding="UTF-8" standalone="no"?>
<!DOCTYPE svg PUBLIC "-//W3C//DTD SVG 1.1//EN"
 "http://www.w3.org/Graphics/SVG/1.1/DTD/svg11.dtd">
<!-- Generated by graphviz version 2.30.1 (20130221.2233)
 -->
<!-- Title: AC_PID::set_desired_rate Pages: 1 -->
<svg width="656pt" height="602pt"
 viewBox="0.00 0.00 656.00 602.00" xmlns="http://www.w3.org/2000/svg" xmlns:xlink="http://www.w3.org/1999/xlink">
<g id="graph0" class="graph" transform="scale(1 1) rotate(0) translate(4 598)">
<title>AC_PID::set_desired_rate</title>
<polygon fill="white" stroke="white" points="-4,5 -4,-598 653,-598 653,5 -4,5"/>
<!-- Node6869 -->
<g id="node1" class="node"><title>Node6869</title>
<g id="a_node1"><a xlink:title=" ">
<polygon fill="#bfbfbf" stroke="black" points="515.914,-295 515.914,-315 648.086,-315 648.086,-295 515.914,-295"/>
<text text-anchor="middle" x="582" y="-301" font-family="Helvetica,sans-Serif" font-size="10.00">AC_PID::set_desired_rate</text>
</a>
</g>
</g>
<!-- Node6870 -->
<g id="node2" class="node"><title>Node6870</title>
<g id="a_node2"><a xlink:href="classAP__WheelRateControl.html#aa11e56bbe3141ebf5acdae6cb885f2b7" target="_top" xlink:title=" ">
<polygon fill="white" stroke="black" points="349.697,-550 349.697,-594 466.303,-594 466.303,-550 349.697,-550"/>
<text text-anchor="start" x="357.697" y="-580" font-family="Helvetica,sans-Serif" font-size="10.00">AP_WheelRateControl</text>
<text text-anchor="start" x="357.697" y="-568" font-family="Helvetica,sans-Serif" font-size="10.00">::get_rate_controlled</text>
<text text-anchor="middle" x="408" y="-556" font-family="Helvetica,sans-Serif" font-size="10.00">_throttle</text>
</a>
</g>
</g>
<!-- Node6869&#45;&gt;Node6870 -->
<g id="edge1" class="edge"><title>Node6869&#45;&gt;Node6870</title>
<path fill="none" stroke="midnightblue" d="M577.437,-325.304C568.646,-369.795 541.976,-476.928 480,-540 476.02,-544.05 471.435,-547.633 466.55,-550.793"/>
<polygon fill="midnightblue" stroke="midnightblue" points="580.889,-325.883 579.297,-315.408 574.01,-324.589 580.889,-325.883"/>
</g>
<!-- Node6871 -->
<g id="node3" class="node"><title>Node6871</title>
<g id="a_node3"><a xlink:href="classAR__AttitudeControl.html#a641d4c472cc0dbe3745e600a5dd2d201" target="_top" xlink:title=" ">
<polygon fill="white" stroke="black" points="345.242,-499 345.242,-531 470.758,-531 470.758,-499 345.242,-499"/>
<text text-anchor="start" x="353.242" y="-517" font-family="Helvetica,sans-Serif" font-size="10.00">AR_AttitudeControl</text>
<text text-anchor="middle" x="408" y="-505" font-family="Helvetica,sans-Serif" font-size="10.00">::get_sail_out_from_heel</text>
</a>
</g>
</g>
<!-- Node6869&#45;&gt;Node6871 -->
<g id="edge2" class="edge"><title>Node6869&#45;&gt;Node6871</title>
<path fill="none" stroke="midnightblue" d="M575.176,-325.175C563.358,-362.663 533.075,-443.388 480,-489 475.52,-492.85 470.421,-496.15 465.059,-498.974"/>
<polygon fill="midnightblue" stroke="midnightblue" points="578.584,-325.998 578.14,-315.412 571.886,-323.964 578.584,-325.998"/>
</g>
<!-- Node6872 -->
<g id="node4" class="node"><title>Node6872</title>
<g id="a_node4"><a xlink:href="classAR__AttitudeControl.html#a1fc75455078aaf1f936c483013f96a2b" target="_top" xlink:title=" ">
<polygon fill="white" stroke="black" points="348.574,-448 348.574,-480 467.426,-480 467.426,-448 348.574,-448"/>
<text text-anchor="start" x="356.574" y="-466" font-family="Helvetica,sans-Serif" font-size="10.00">AR_AttitudeControl</text>
<text text-anchor="middle" x="408" y="-454" font-family="Helvetica,sans-Serif" font-size="10.00">::get_steering_out_rate</text>
</a>
</g>
</g>
<!-- Node6869&#45;&gt;Node6872 -->
<g id="edge3" class="edge"><title>Node6869&#45;&gt;Node6872</title>
<path fill="none" stroke="midnightblue" d="M571.095,-324.25C555.438,-352.896 522.35,-406.72 480,-438 474.826,-441.821 469.032,-445.133 463.044,-447.989"/>
<polygon fill="midnightblue" stroke="midnightblue" points="574.279,-325.716 575.893,-315.245 568.102,-322.425 574.279,-325.716"/>
</g>
<!-- Node6875 -->
<g id="node7" class="node"><title>Node6875</title>
<g id="a_node7"><a xlink:href="classAR__AttitudeControl.html#a47e559a2d86de77ef1ce3513f5ce159e" target="_top" xlink:title=" ">
<polygon fill="white" stroke="black" points="336.35,-397 336.35,-429 479.65,-429 479.65,-397 336.35,-397"/>
<text text-anchor="start" x="344.35" y="-415" font-family="Helvetica,sans-Serif" font-size="10.00">AR_AttitudeControl</text>
<text text-anchor="middle" x="408" y="-403" font-family="Helvetica,sans-Serif" font-size="10.00">::get_throttle_out_from_pitch</text>
</a>
</g>
</g>
<!-- Node6869&#45;&gt;Node6875 -->
<g id="edge6" class="edge"><title>Node6869&#45;&gt;Node6875</title>
<path fill="none" stroke="midnightblue" d="M563.591,-322.196C544.453,-340.33 512.136,-368.75 480,-387 473.494,-390.695 466.365,-394.034 459.213,-396.991"/>
<polygon fill="midnightblue" stroke="midnightblue" points="566.171,-324.571 570.948,-315.114 561.316,-319.528 566.171,-324.571"/>
</g>
<!-- Node6876 -->
<g id="node8" class="node"><title>Node6876</title>
<g id="a_node8"><a xlink:href="classAR__AttitudeControl.html#a9aab31d9702c59bf0cd5dbfc8db2fc6b" target="_top" xlink:title=" ">
<polygon fill="white" stroke="black" points="346.069,-346 346.069,-378 469.931,-378 469.931,-346 346.069,-346"/>
<text text-anchor="start" x="354.069" y="-364" font-family="Helvetica,sans-Serif" font-size="10.00">AR_AttitudeControl</text>
<text text-anchor="middle" x="408" y="-352" font-family="Helvetica,sans-Serif" font-size="10.00">::get_throttle_out_speed</text>
</a>
</g>
</g>
<!-- Node6869&#45;&gt;Node6876 -->
<g id="edge7" class="edge"><title>Node6869&#45;&gt;Node6876</title>
<path fill="none" stroke="midnightblue" d="M541.143,-318.208C516.23,-326.464 483.977,-337.153 457.573,-345.903"/>
<polygon fill="midnightblue" stroke="midnightblue" points="542.254,-321.527 550.646,-315.059 540.052,-314.883 542.254,-321.527"/>
</g>
<!-- Node6878 -->
<g id="node10" class="node"><title>Node6878</title>
<g id="a_node10"><a xlink:href="classAC__AttitudeControl__Heli.html#ae1e17847d017cc4f71e36397df689ddb" target="_top" xlink:title=" ">
<polygon fill="white" stroke="black" points="347.749,-220 347.749,-264 468.251,-264 468.251,-220 347.749,-220"/>
<text text-anchor="start" x="355.749" y="-250" font-family="Helvetica,sans-Serif" font-size="10.00">AC_AttitudeControl</text>
<text text-anchor="start" x="355.749" y="-238" font-family="Helvetica,sans-Serif" font-size="10.00">_Heli::rate_bf_to_motor</text>
<text text-anchor="middle" x="408" y="-226" font-family="Helvetica,sans-Serif" font-size="10.00">_roll_pitch</text>
</a>
</g>
</g>
<!-- Node6869&#45;&gt;Node6878 -->
<g id="edge9" class="edge"><title>Node6869&#45;&gt;Node6878</title>
<path fill="none" stroke="midnightblue" d="M543.729,-291.348C521.706,-283.282 493.319,-272.884 468.285,-263.715"/>
<polygon fill="midnightblue" stroke="midnightblue" points="542.771,-294.725 553.365,-294.878 545.179,-288.152 542.771,-294.725"/>
</g>
<!-- Node6880 -->
<g id="node12" class="node"><title>Node6880</title>
<g id="a_node12"><a xlink:href="classAC__AttitudeControl.html#af828fefadbe69fe4b05db836886ffca5" target="_top" xlink:title=" ">
<polygon fill="white" stroke="black" points="337.185,-169 337.185,-201 478.815,-201 478.815,-169 337.185,-169"/>
<text text-anchor="start" x="345.185" y="-187" font-family="Helvetica,sans-Serif" font-size="10.00">AC_AttitudeControl</text>
<text text-anchor="middle" x="408" y="-175" font-family="Helvetica,sans-Serif" font-size="10.00">::rate_target_to_motor_pitch</text>
</a>
</g>
</g>
<!-- Node6869&#45;&gt;Node6880 -->
<g id="edge11" class="edge"><title>Node6869&#45;&gt;Node6880</title>
<path fill="none" stroke="midnightblue" d="M565.808,-287.052C547.372,-266.253 514.455,-232.138 480,-211 473.958,-207.293 467.306,-203.993 460.57,-201.094"/>
<polygon fill="midnightblue" stroke="midnightblue" points="563.364,-289.576 572.569,-294.822 568.645,-284.981 563.364,-289.576"/>
</g>
<!-- Node6883 -->
<g id="node15" class="node"><title>Node6883</title>
<g id="a_node15"><a xlink:href="classAC__AttitudeControl.html#a11b25e42766e40c97e90d9dc33164b3e" target="_top" xlink:title=" ">
<polygon fill="white" stroke="black" points="341.079,-118 341.079,-150 474.921,-150 474.921,-118 341.079,-118"/>
<text text-anchor="start" x="349.079" y="-136" font-family="Helvetica,sans-Serif" font-size="10.00">AC_AttitudeControl</text>
<text text-anchor="middle" x="408" y="-124" font-family="Helvetica,sans-Serif" font-size="10.00">::rate_target_to_motor_roll</text>
</a>
</g>
</g>
<!-- Node6869&#45;&gt;Node6883 -->
<g id="edge14" class="edge"><title>Node6869&#45;&gt;Node6883</title>
<path fill="none" stroke="midnightblue" d="M572.394,-285.761C557.707,-254.994 524.97,-194.665 480,-160 475.114,-156.233 469.628,-152.973 463.929,-150.161"/>
<polygon fill="midnightblue" stroke="midnightblue" points="569.289,-287.386 576.675,-294.982 575.638,-284.438 569.289,-287.386"/>
</g>
<!-- Node6884 -->
<g id="node16" class="node"><title>Node6884</title>
<g id="a_node16"><a xlink:href="classAC__AttitudeControl__Heli.html#aef34dd1057c38a30edc419bdfc257bab" target="_top" xlink:title=" ">
<polygon fill="white" stroke="black" points="354.695,-283 354.695,-327 461.305,-327 461.305,-283 354.695,-283"/>
<text text-anchor="start" x="362.695" y="-313" font-family="Helvetica,sans-Serif" font-size="10.00">AC_AttitudeControl</text>
<text text-anchor="start" x="362.695" y="-301" font-family="Helvetica,sans-Serif" font-size="10.00">_Heli::rate_target_to</text>
<text text-anchor="middle" x="408" y="-289" font-family="Helvetica,sans-Serif" font-size="10.00">_motor_yaw</text>
</a>
</g>
</g>
<!-- Node6869&#45;&gt;Node6884 -->
<g id="edge17" class="edge"><title>Node6869&#45;&gt;Node6884</title>
<path fill="none" stroke="midnightblue" d="M505.334,-305C490.547,-305 475.346,-305 461.515,-305"/>
<polygon fill="midnightblue" stroke="midnightblue" points="505.484,-308.5 515.484,-305 505.483,-301.5 505.484,-308.5"/>
</g>
<!-- Node6885 -->
<g id="node17" class="node"><title>Node6885</title>
<g id="a_node17"><a xlink:href="classAC__AttitudeControl.html#aaa638b2161d9a8cddfa0750ab02fb378" target="_top" xlink:title=" ">
<polygon fill="white" stroke="black" points="338.855,-67 338.855,-99 477.145,-99 477.145,-67 338.855,-67"/>
<text text-anchor="start" x="346.855" y="-85" font-family="Helvetica,sans-Serif" font-size="10.00">AC_AttitudeControl</text>
<text text-anchor="middle" x="408" y="-73" font-family="Helvetica,sans-Serif" font-size="10.00">::rate_target_to_motor_yaw</text>
</a>
</g>
</g>
<!-- Node6869&#45;&gt;Node6885 -->
<g id="edge19" class="edge"><title>Node6869&#45;&gt;Node6885</title>
<path fill="none" stroke="midnightblue" d="M576.012,-285.147C565.184,-245.985 535.884,-158.312 480,-109 475.669,-105.178 470.73,-101.903 465.519,-99.0975"/>
<polygon fill="midnightblue" stroke="midnightblue" points="572.635,-286.067 578.583,-294.834 579.401,-284.271 572.635,-286.067"/>
</g>
<!-- Node6886 -->
<g id="node18" class="node"><title>Node6886</title>
<g id="a_node18"><a xlink:href="classAC__PosControl.html#a625788a4c99f7dda2425b7578fe514fb" target="_top" xlink:title=" ">
<polygon fill="white" stroke="black" points="355.535,-16 355.535,-48 460.465,-48 460.465,-16 355.535,-16"/>
<text text-anchor="start" x="363.535" y="-34" font-family="Helvetica,sans-Serif" font-size="10.00">AC_PosControl::run</text>
<text text-anchor="middle" x="408" y="-22" font-family="Helvetica,sans-Serif" font-size="10.00">_z_controller</text>
</a>
</g>
</g>
<!-- Node6869&#45;&gt;Node6886 -->
<g id="edge22" class="edge"><title>Node6869&#45;&gt;Node6886</title>
<path fill="none" stroke="midnightblue" d="M578.345,-284.917C571.171,-238.485 547.189,-122.739 480,-58 474.423,-52.6262 467.645,-48.3483 460.517,-44.9467"/>
<polygon fill="midnightblue" stroke="midnightblue" points="574.897,-285.525 579.792,-294.921 581.825,-284.523 574.897,-285.525"/>
</g>
<!-- Node6873 -->
<g id="node5" class="node"><title>Node6873</title>
<g id="a_node5"><a xlink:href="classAR__AttitudeControl.html#aedb2c49f989bc820c8df3a01f8c4d780" target="_top" xlink:title=" ">
<polygon fill="white" stroke="black" points="158.456,-422 158.456,-454 299.544,-454 299.544,-422 158.456,-422"/>
<text text-anchor="start" x="166.456" y="-440" font-family="Helvetica,sans-Serif" font-size="10.00">AR_AttitudeControl</text>
<text text-anchor="middle" x="229" y="-428" font-family="Helvetica,sans-Serif" font-size="10.00">::get_steering_out_lat_accel</text>
</a>
</g>
</g>
<!-- Node6872&#45;&gt;Node6873 -->
<g id="edge4" class="edge"><title>Node6872&#45;&gt;Node6873</title>
<path fill="none" stroke="midnightblue" d="M338.509,-453.939C325.802,-452.073 312.515,-450.121 299.771,-448.249"/>
<polygon fill="midnightblue" stroke="midnightblue" points="338.151,-457.424 348.553,-455.415 339.168,-450.498 338.151,-457.424"/>
</g>
<!-- Node6874 -->
<g id="node6" class="node"><title>Node6874</title>
<g id="a_node6"><a xlink:href="classAR__AttitudeControl.html#abf916c52557e5fab8099983f346c256f" target="_top" xlink:title=" ">
<polygon fill="white" stroke="black" points="160.395,-473 160.395,-505 297.605,-505 297.605,-473 160.395,-473"/>
<text text-anchor="start" x="168.395" y="-491" font-family="Helvetica,sans-Serif" font-size="10.00">AR_AttitudeControl</text>
<text text-anchor="middle" x="229" y="-479" font-family="Helvetica,sans-Serif" font-size="10.00">::get_steering_out_heading</text>
</a>
</g>
</g>
<!-- Node6872&#45;&gt;Node6874 -->
<g id="edge5" class="edge"><title>Node6872&#45;&gt;Node6874</title>
<path fill="none" stroke="midnightblue" d="M338.506,-473.674C325.177,-475.557 311.21,-477.53 297.9,-479.41"/>
<polygon fill="midnightblue" stroke="midnightblue" points="339.141,-477.119 348.553,-472.255 338.162,-470.188 339.141,-477.119"/>
</g>
<!-- Node6877 -->
<g id="node9" class="node"><title>Node6877</title>
<g id="a_node9"><a xlink:href="classAR__AttitudeControl.html#aa6d93dc014f5037bbcd88e96a392cc5e" target="_top" xlink:title=" ">
<polygon fill="white" stroke="black" points="171.242,-346 171.242,-378 286.758,-378 286.758,-346 171.242,-346"/>
<text text-anchor="start" x="179.242" y="-364" font-family="Helvetica,sans-Serif" font-size="10.00">AR_AttitudeControl</text>
<text text-anchor="middle" x="229" y="-352" font-family="Helvetica,sans-Serif" font-size="10.00">::get_throttle_out_stop</text>
</a>
</g>
</g>
<!-- Node6876&#45;&gt;Node6877 -->
<g id="edge8" class="edge"><title>Node6876&#45;&gt;Node6877</title>
<path fill="none" stroke="midnightblue" d="M335.154,-362C319.069,-362 302.223,-362 286.846,-362"/>
<polygon fill="midnightblue" stroke="midnightblue" points="335.591,-365.5 345.591,-362 335.591,-358.5 335.591,-365.5"/>
</g>
<!-- Node6879 -->
<g id="node11" class="node"><title>Node6879</title>
<g id="a_node11"><a xlink:href="classAC__AttitudeControl__Heli.html#a5f1a3e763623f247c1cb72d8fb35645d" target="_top" xlink:title=" ">
<polygon fill="white" stroke="black" points="164.86,-257 164.86,-289 293.14,-289 293.14,-257 164.86,-257"/>
<text text-anchor="start" x="172.86" y="-275" font-family="Helvetica,sans-Serif" font-size="10.00">AC_AttitudeControl</text>
<text text-anchor="middle" x="229" y="-263" font-family="Helvetica,sans-Serif" font-size="10.00">_Heli::rate_controller_run</text>
</a>
</g>
</g>
<!-- Node6878&#45;&gt;Node6879 -->
<g id="edge10" class="edge"><title>Node6878&#45;&gt;Node6879</title>
<path fill="none" stroke="midnightblue" d="M337.581,-254.158C322.955,-256.72 307.599,-259.409 293.216,-261.928"/>
<polygon fill="midnightblue" stroke="midnightblue" points="338.323,-257.582 347.569,-252.409 337.115,-250.686 338.323,-257.582"/>
</g>
<!-- Node6881 -->
<g id="node13" class="node"><title>Node6881</title>
<g id="a_node13"><a xlink:href="classAC__AttitudeControl__Sub.html#ac2c2aeb7080b1e40eb19d005e14513b6" target="_top" xlink:title=" ">
<polygon fill="white" stroke="black" points="164.577,-92 164.577,-124 293.423,-124 293.423,-92 164.577,-92"/>
<text text-anchor="start" x="172.577" y="-110" font-family="Helvetica,sans-Serif" font-size="10.00">AC_AttitudeControl</text>
<text text-anchor="middle" x="229" y="-98" font-family="Helvetica,sans-Serif" font-size="10.00">_Sub::rate_controller_run</text>
</a>
</g>
</g>
<!-- Node6880&#45;&gt;Node6881 -->
<g id="edge12" class="edge"><title>Node6880&#45;&gt;Node6881</title>
<path fill="none" stroke="midnightblue" d="M348.617,-165.008C344.29,-163.106 340.041,-161.099 336,-159 318.713,-150.022 317.267,-143.018 300,-134 293.105,-130.399 285.597,-127.058 278.142,-124.052"/>
<polygon fill="midnightblue" stroke="midnightblue" points="347.588,-168.371 358.164,-168.999 350.288,-161.913 347.588,-168.371"/>
</g>
<!-- Node6882 -->
<g id="node14" class="node"><title>Node6882</title>
<g id="a_node14"><a xlink:href="classAC__AttitudeControl__Multi.html#af304b91ae160b32aa4cd1de9c872b798" target="_top" xlink:title=" ">
<polygon fill="white" stroke="black" points="162.917,-143 162.917,-175 295.083,-175 295.083,-143 162.917,-143"/>
<text text-anchor="start" x="170.917" y="-161" font-family="Helvetica,sans-Serif" font-size="10.00">AC_AttitudeControl</text>
<text text-anchor="middle" x="229" y="-149" font-family="Helvetica,sans-Serif" font-size="10.00">_Multi::rate_controller_run</text>
</a>
</g>
</g>
<!-- Node6880&#45;&gt;Node6882 -->
<g id="edge13" class="edge"><title>Node6880&#45;&gt;Node6882</title>
<path fill="none" stroke="midnightblue" d="M326.914,-173.236C316.275,-171.673 305.471,-170.086 295.127,-168.567"/>
<polygon fill="midnightblue" stroke="midnightblue" points="326.642,-176.734 337.045,-174.724 327.66,-169.808 326.642,-176.734"/>
</g>
<!-- Node6883&#45;&gt;Node6881 -->
<g id="edge15" class="edge"><title>Node6883&#45;&gt;Node6881</title>
<path fill="none" stroke="midnightblue" d="M330.911,-122.823C318.416,-120.988 305.585,-119.103 293.439,-117.319"/>
<polygon fill="midnightblue" stroke="midnightblue" points="330.438,-126.291 340.84,-124.282 331.455,-119.365 330.438,-126.291"/>
</g>
<!-- Node6883&#45;&gt;Node6882 -->
<g id="edge16" class="edge"><title>Node6883&#45;&gt;Node6882</title>
<path fill="none" stroke="midnightblue" d="M330.935,-144.744C319.034,-146.425 306.826,-148.149 295.197,-149.791"/>
<polygon fill="midnightblue" stroke="midnightblue" points="331.428,-148.209 340.84,-143.345 330.449,-141.278 331.428,-148.209"/>
</g>
<!-- Node6884&#45;&gt;Node6879 -->
<g id="edge18" class="edge"><title>Node6884&#45;&gt;Node6879</title>
<path fill="none" stroke="midnightblue" d="M344.279,-293.661C327.757,-290.674 309.922,-287.449 293.366,-284.456"/>
<polygon fill="midnightblue" stroke="midnightblue" points="343.91,-297.151 354.373,-295.486 345.156,-290.262 343.91,-297.151"/>
</g>
<!-- Node6885&#45;&gt;Node6881 -->
<g id="edge20" class="edge"><title>Node6885&#45;&gt;Node6881</title>
<path fill="none" stroke="midnightblue" d="M328.589,-94.075C316.852,-95.7327 304.875,-97.4244 293.499,-99.0312"/>
<polygon fill="midnightblue" stroke="midnightblue" points="329.408,-97.4941 338.82,-92.6299 328.429,-90.5629 329.408,-97.4941"/>
</g>
<!-- Node6885&#45;&gt;Node6882 -->
<g id="edge21" class="edge"><title>Node6885&#45;&gt;Node6882</title>
<path fill="none" stroke="midnightblue" d="M348.662,-103.078C344.324,-104.961 340.061,-106.94 336,-109 318.851,-117.701 317.129,-124.26 300,-133 292.956,-136.594 285.294,-139.952 277.71,-142.982"/>
<polygon fill="midnightblue" stroke="midnightblue" points="350.324,-106.178 358.224,-99.1181 347.646,-99.7107 350.324,-106.178"/>
</g>
<!-- Node6887 -->
<g id="node19" class="node"><title>Node6887</title>
<g id="a_node19"><a xlink:href="classAC__PosControl.html#af9c555a3b07ea1420ea28e7333379941" target="_top" xlink:title="update_z_controller &#45; fly to altitude in cm above home">
<polygon fill="white" stroke="black" points="168.468,-16 168.468,-48 289.532,-48 289.532,-16 168.468,-16"/>
<text text-anchor="start" x="176.468" y="-34" font-family="Helvetica,sans-Serif" font-size="10.00">AC_PosControl::update</text>
<text text-anchor="middle" x="229" y="-22" font-family="Helvetica,sans-Serif" font-size="10.00">_z_controller</text>
</a>
</g>
</g>
<!-- Node6886&#45;&gt;Node6887 -->
<g id="edge23" class="edge"><title>Node6886&#45;&gt;Node6887</title>
<path fill="none" stroke="midnightblue" d="M345.25,-32C327.284,-32 307.693,-32 289.846,-32"/>
<polygon fill="midnightblue" stroke="midnightblue" points="345.328,-35.5001 355.328,-32 345.328,-28.5001 345.328,-35.5001"/>
</g>
<!-- Node6888 -->
<g id="node20" class="node"><title>Node6888</title>
<g id="a_node20"><a xlink:href="classAC__PosControl.html#a4acc8cd7285895654901011106aeab6d" target="_top" xlink:title=" ">
<polygon fill="white" stroke="black" points="0.468262,-39 0.468262,-71 121.532,-71 121.532,-39 0.468262,-39"/>
<text text-anchor="start" x="8.46826" y="-57" font-family="Helvetica,sans-Serif" font-size="10.00">AC_PosControl::update</text>
<text text-anchor="middle" x="61" y="-45" font-family="Helvetica,sans-Serif" font-size="10.00">_vel_controller_xyz</text>
</a>
</g>
</g>
<!-- Node6887&#45;&gt;Node6888 -->
<g id="edge24" class="edge"><title>Node6887&#45;&gt;Node6888</title>
<path fill="none" stroke="midnightblue" d="M158,-41.6988C145.877,-43.3784 133.376,-45.1106 121.563,-46.7472"/>
<polygon fill="midnightblue" stroke="midnightblue" points="158.645,-45.1429 168.07,-40.3035 157.684,-38.2092 158.645,-45.1429"/>
</g>
<!-- Node6889 -->
<g id="node21" class="node"><title>Node6889</title>
<g id="a_node21"><a xlink:href="classAC__AutoTune.html#a1a880de557aca3dc882924b746bcf383" target="_top" xlink:title=" ">
<polygon fill="white" stroke="black" points="11.7695,-0 11.7695,-20 110.23,-20 110.23,-0 11.7695,-0"/>
<text text-anchor="middle" x="61" y="-6" font-family="Helvetica,sans-Serif" font-size="10.00">AC_AutoTune::run</text>
</a>
</g>
</g>
<!-- Node6887&#45;&gt;Node6889 -->
<g id="edge25" class="edge"><title>Node6887&#45;&gt;Node6889</title>
<path fill="none" stroke="midnightblue" d="M157.714,-22.685C141.776,-20.5728 125.197,-18.3756 110.404,-16.4151"/>
<polygon fill="midnightblue" stroke="midnightblue" points="157.697,-26.2133 168.07,-24.0575 158.617,-19.2739 157.697,-26.2133"/>
</g>
</g>
</svg>
