<?xml version="1.0" encoding="UTF-8" standalone="no"?>
<!DOCTYPE svg PUBLIC "-//W3C//DTD SVG 1.1//EN"
 "http://www.w3.org/Graphics/SVG/1.1/DTD/svg11.dtd">
<!-- Generated by graphviz version 2.30.1 (20130221.2233)
 -->
<!-- Title: AC_PosControl::set_xy_target Pages: 1 -->
<svg width="258pt" height="169pt"
 viewBox="0.00 0.00 258.00 169.00" xmlns="http://www.w3.org/2000/svg" xmlns:xlink="http://www.w3.org/1999/xlink">
<g id="graph0" class="graph" transform="scale(1 1) rotate(0) translate(4 165)">
<title>AC_PosControl::set_xy_target</title>
<polygon fill="white" stroke="white" points="-4,5 -4,-165 255,-165 255,5 -4,5"/>
<!-- Node732 -->
<g id="node1" class="node"><title>Node732</title>
<g id="a_node1"><a xlink:title="set_xy_target in cm from home">
<polygon fill="#bfbfbf" stroke="black" points="146.091,-64 146.091,-96 249.909,-96 249.909,-64 146.091,-64"/>
<text text-anchor="start" x="154.091" y="-82" font-family="Helvetica,sans-Serif" font-size="10.00">AC_PosControl::set</text>
<text text-anchor="middle" x="198" y="-70" font-family="Helvetica,sans-Serif" font-size="10.00">_xy_target</text>
</a>
</g>
</g>
<!-- Node733 -->
<g id="node2" class="node"><title>Node733</title>
<g id="a_node2"><a xlink:href="classAC__Loiter.html#ac61cfb41e7da4ba41276d3e731d6ea85" target="_top" xlink:title="init_target to a position in cm from ekf origin">
<polygon fill="white" stroke="black" points="0.0297852,-141 0.0297852,-161 109.97,-161 109.97,-141 0.0297852,-141"/>
<text text-anchor="middle" x="55" y="-147" font-family="Helvetica,sans-Serif" font-size="10.00">AC_Loiter::init_target</text>
</a>
</g>
</g>
<!-- Node732&#45;&gt;Node733 -->
<g id="edge1" class="edge"><title>Node732&#45;&gt;Node733</title>
<path fill="none" stroke="midnightblue" d="M163.258,-101.646C147.439,-111.305 128.12,-122.415 110,-131 102.411,-134.596 93.9882,-137.985 86.096,-140.916"/>
<polygon fill="midnightblue" stroke="midnightblue" points="165.468,-104.395 172.132,-96.1576 161.786,-98.4413 165.468,-104.395"/>
</g>
<!-- Node734 -->
<g id="node3" class="node"><title>Node734</title>
<g id="a_node3"><a xlink:href="classAC__PosControl.html#ae2897de0075f8f8aaa94eb7e8cad100b" target="_top" xlink:title="xyz velocity controller">
<polygon fill="white" stroke="black" points="3.36963,-90 3.36963,-122 106.63,-122 106.63,-90 3.36963,-90"/>
<text text-anchor="start" x="11.3696" y="-108" font-family="Helvetica,sans-Serif" font-size="10.00">AC_PosControl::init</text>
<text text-anchor="middle" x="55" y="-96" font-family="Helvetica,sans-Serif" font-size="10.00">_vel_controller_xyz</text>
</a>
</g>
</g>
<!-- Node732&#45;&gt;Node734 -->
<g id="edge2" class="edge"><title>Node732&#45;&gt;Node734</title>
<path fill="none" stroke="midnightblue" d="M135.807,-91.2839C126.205,-93.0543 116.37,-94.868 107.029,-96.5904"/>
<polygon fill="midnightblue" stroke="midnightblue" points="136.497,-94.7156 145.697,-89.4601 135.228,-87.8317 136.497,-94.7156"/>
</g>
<!-- Node735 -->
<g id="node4" class="node"><title>Node735</title>
<g id="a_node4"><a xlink:href="classAC__Loiter.html#a625fb859e5225e5938b285fb53901f6c" target="_top" xlink:title="reduce response for landing">
<polygon fill="white" stroke="black" points="-0.248535,-39 -0.248535,-71 110.249,-71 110.249,-39 -0.248535,-39"/>
<text text-anchor="start" x="7.75146" y="-57" font-family="Helvetica,sans-Serif" font-size="10.00">AC_Loiter::soften_for</text>
<text text-anchor="middle" x="55" y="-45" font-family="Helvetica,sans-Serif" font-size="10.00">_landing</text>
</a>
</g>
</g>
<!-- Node732&#45;&gt;Node735 -->
<g id="edge3" class="edge"><title>Node732&#45;&gt;Node735</title>
<path fill="none" stroke="midnightblue" d="M135.575,-69.1091C127.18,-67.6206 118.61,-66.101 110.352,-64.6369"/>
<polygon fill="midnightblue" stroke="midnightblue" points="135.239,-72.6041 145.697,-70.9037 136.462,-65.7116 135.239,-72.6041"/>
</g>
<!-- Node736 -->
<g id="node5" class="node"><title>Node736</title>
<g id="a_node5"><a xlink:href="classAC__Circle.html#ad28205982ae7bc5f1e72f5285696c99b" target="_top" xlink:title="update &#45; update circle controller">
<polygon fill="white" stroke="black" points="6.42383,-0 6.42383,-20 103.576,-20 103.576,-0 6.42383,-0"/>
<text text-anchor="middle" x="55" y="-6" font-family="Helvetica,sans-Serif" font-size="10.00">AC_Circle::update</text>
</a>
</g>
</g>
<!-- Node732&#45;&gt;Node736 -->
<g id="edge4" class="edge"><title>Node732&#45;&gt;Node736</title>
<path fill="none" stroke="midnightblue" d="M162.861,-58.6147C147.098,-49.2034 127.934,-38.4029 110,-30 102.305,-26.3946 93.7668,-22.9785 85.7936,-20.0235"/>
<polygon fill="midnightblue" stroke="midnightblue" points="161.346,-61.7887 171.715,-63.9669 164.968,-55.7982 161.346,-61.7887"/>
</g>
</g>
</svg>
