<?xml version="1.0" encoding="UTF-8" standalone="no"?>
<!DOCTYPE svg PUBLIC "-//W3C//DTD SVG 1.1//EN"
 "http://www.w3.org/Graphics/SVG/1.1/DTD/svg11.dtd">
<!-- Generated by graphviz version 2.30.1 (20130221.2233)
 -->
<!-- Title: AC_AttitudeControl::get_accel_yaw_max_radss Pages: 1 -->
<svg width="942pt" height="595pt"
 viewBox="0.00 0.00 942.00 595.00" xmlns="http://www.w3.org/2000/svg" xmlns:xlink="http://www.w3.org/1999/xlink">
<g id="graph0" class="graph" transform="scale(1 1) rotate(0) translate(4 591)">
<title>AC_AttitudeControl::get_accel_yaw_max_radss</title>
<polygon fill="white" stroke="white" points="-4,5 -4,-591 939,-591 939,5 -4,5"/>
<!-- Node293 -->
<g id="node1" class="node"><title>Node293</title>
<g id="a_node1"><a xlink:title=" ">
<polygon fill="#bfbfbf" stroke="black" points="791.912,-209 791.912,-241 934.088,-241 934.088,-209 791.912,-209"/>
<text text-anchor="start" x="799.912" y="-227" font-family="Helvetica,sans-Serif" font-size="10.00">AC_AttitudeControl</text>
<text text-anchor="middle" x="863" y="-215" font-family="Helvetica,sans-Serif" font-size="10.00">::get_accel_yaw_max_radss</text>
</a>
</g>
</g>
<!-- Node294 -->
<g id="node2" class="node"><title>Node294</title>
<g id="a_node2"><a xlink:href="classAC__AttitudeControl.html#af0e7aef643e29d1f1af2a9cd1945d426" target="_top" xlink:title=" ">
<polygon fill="white" stroke="black" points="306.242,-354 306.242,-398 441.758,-398 441.758,-354 306.242,-354"/>
<text text-anchor="start" x="314.242" y="-384" font-family="Helvetica,sans-Serif" font-size="10.00">AC_AttitudeControl</text>
<text text-anchor="start" x="314.242" y="-372" font-family="Helvetica,sans-Serif" font-size="10.00">::input_euler_angle</text>
<text text-anchor="middle" x="374" y="-360" font-family="Helvetica,sans-Serif" font-size="10.00">_roll_pitch_euler_rate_yaw</text>
</a>
</g>
</g>
<!-- Node293&#45;&gt;Node294 -->
<g id="edge1" class="edge"><title>Node293&#45;&gt;Node294</title>
<path fill="none" stroke="midnightblue" d="M845.323,-249.559C808.018,-302.014 711.933,-423.881 596,-469 547.126,-488.021 523.543,-495.005 478,-469 450.662,-453.39 465.213,-429.264 442,-408 438.008,-404.343 433.522,-401.025 428.812,-398.032"/>
<polygon fill="midnightblue" stroke="midnightblue" points="848.323,-251.377 851.2,-241.18 842.592,-247.357 848.323,-251.377"/>
</g>
<!-- Node297 -->
<g id="node5" class="node"><title>Node297</title>
<g id="a_node5"><a xlink:href="classAC__AttitudeControl.html#aa111691a6822ceea4c70c434ee6d38e7" target="_top" xlink:title=" ">
<polygon fill="white" stroke="black" points="323.2,-543 323.2,-587 424.8,-587 424.8,-543 323.2,-543"/>
<text text-anchor="start" x="331.2" y="-573" font-family="Helvetica,sans-Serif" font-size="10.00">AC_AttitudeControl</text>
<text text-anchor="start" x="331.2" y="-561" font-family="Helvetica,sans-Serif" font-size="10.00">::input_euler_angle</text>
<text text-anchor="middle" x="374" y="-549" font-family="Helvetica,sans-Serif" font-size="10.00">_roll_pitch_yaw</text>
</a>
</g>
</g>
<!-- Node293&#45;&gt;Node297 -->
<g id="edge4" class="edge"><title>Node293&#45;&gt;Node297</title>
<path fill="none" stroke="midnightblue" d="M857.796,-251.305C848.532,-300.57 821.718,-406.991 756,-465 661.279,-548.61 504.842,-563.623 425.099,-565.503"/>
<polygon fill="midnightblue" stroke="midnightblue" points="861.296,-251.613 859.606,-241.154 854.405,-250.385 861.296,-251.613"/>
</g>
<!-- Node300 -->
<g id="node8" class="node"><title>Node300</title>
<g id="a_node8"><a xlink:href="classAC__AttitudeControl.html#a49cd1e5d7c1a3550080c9ccca6ce8da8" target="_top" xlink:title=" ">
<polygon fill="white" stroke="black" points="317.636,-245 317.636,-289 430.364,-289 430.364,-245 317.636,-245"/>
<text text-anchor="start" x="325.636" y="-275" font-family="Helvetica,sans-Serif" font-size="10.00">AC_AttitudeControl</text>
<text text-anchor="start" x="325.636" y="-263" font-family="Helvetica,sans-Serif" font-size="10.00">::input_euler_rate_roll</text>
<text text-anchor="middle" x="374" y="-251" font-family="Helvetica,sans-Serif" font-size="10.00">_pitch_yaw</text>
</a>
</g>
</g>
<!-- Node293&#45;&gt;Node300 -->
<g id="edge8" class="edge"><title>Node293&#45;&gt;Node300</title>
<path fill="none" stroke="midnightblue" d="M830.641,-203.297C763.012,-159.402 599.724,-69.2267 478,-130 429.812,-154.059 398.276,-212.582 383.934,-244.808"/>
<polygon fill="midnightblue" stroke="midnightblue" points="828.884,-206.331 839.16,-208.912 832.736,-200.486 828.884,-206.331"/>
</g>
<!-- Node301 -->
<g id="node9" class="node"><title>Node301</title>
<g id="a_node9"><a xlink:href="classAC__AttitudeControl.html#aa534dbef87d61ff598744ffa60782bbc" target="_top" xlink:title=" ">
<polygon fill="white" stroke="black" points="323.2,-103 323.2,-135 424.8,-135 424.8,-103 323.2,-103"/>
<text text-anchor="start" x="331.2" y="-121" font-family="Helvetica,sans-Serif" font-size="10.00">AC_AttitudeControl</text>
<text text-anchor="middle" x="374" y="-109" font-family="Helvetica,sans-Serif" font-size="10.00">::input_quaternion</text>
</a>
</g>
</g>
<!-- Node293&#45;&gt;Node301 -->
<g id="edge9" class="edge"><title>Node293&#45;&gt;Node301</title>
<path fill="none" stroke="midnightblue" d="M846.89,-200.416C828.933,-173.72 796.272,-132.431 756,-114 646.674,-63.9672 500.542,-87.4973 424.97,-105.355"/>
<polygon fill="midnightblue" stroke="midnightblue" points="844.005,-202.399 852.406,-208.856 849.865,-198.57 844.005,-202.399"/>
</g>
<!-- Node302 -->
<g id="node10" class="node"><title>Node302</title>
<g id="a_node10"><a xlink:href="classAC__AttitudeControl.html#a2ca277e7c4a5ac2980814673aae2d037" target="_top" xlink:title=" ">
<polygon fill="white" stroke="black" points="323.2,-480 323.2,-524 424.8,-524 424.8,-480 323.2,-480"/>
<text text-anchor="start" x="331.2" y="-510" font-family="Helvetica,sans-Serif" font-size="10.00">AC_AttitudeControl</text>
<text text-anchor="start" x="331.2" y="-498" font-family="Helvetica,sans-Serif" font-size="10.00">::input_rate_bf_roll</text>
<text text-anchor="middle" x="374" y="-486" font-family="Helvetica,sans-Serif" font-size="10.00">_pitch_yaw</text>
</a>
</g>
</g>
<!-- Node293&#45;&gt;Node302 -->
<g id="edge10" class="edge"><title>Node293&#45;&gt;Node302</title>
<path fill="none" stroke="midnightblue" d="M853.791,-250.866C839.75,-291.389 807.544,-370.146 756,-418 663.919,-503.489 505.236,-509.191 424.82,-505.848"/>
<polygon fill="midnightblue" stroke="midnightblue" points="857.172,-251.792 857.046,-241.198 850.538,-249.559 857.172,-251.792"/>
</g>
<!-- Node304 -->
<g id="node12" class="node"><title>Node304</title>
<g id="a_node12"><a xlink:href="classAC__AttitudeControl.html#ae23c97bb2a32c96c680959fd586d9e61" target="_top" xlink:title=" ">
<polygon fill="white" stroke="black" points="643.2,-0 643.2,-44 744.8,-44 744.8,-0 643.2,-0"/>
<text text-anchor="start" x="651.2" y="-30" font-family="Helvetica,sans-Serif" font-size="10.00">AC_AttitudeControl</text>
<text text-anchor="start" x="651.2" y="-18" font-family="Helvetica,sans-Serif" font-size="10.00">::input_rate_bf_roll</text>
<text text-anchor="middle" x="694" y="-6" font-family="Helvetica,sans-Serif" font-size="10.00">_pitch_yaw_2</text>
</a>
</g>
</g>
<!-- Node293&#45;&gt;Node304 -->
<g id="edge13" class="edge"><title>Node293&#45;&gt;Node304</title>
<path fill="none" stroke="midnightblue" d="M850.408,-199.611C833.515,-164.696 799.367,-101.379 756,-59 750.419,-53.5462 743.891,-48.5359 737.219,-44.0812"/>
<polygon fill="midnightblue" stroke="midnightblue" points="847.256,-201.133 854.708,-208.664 853.579,-198.13 847.256,-201.133"/>
</g>
<!-- Node305 -->
<g id="node13" class="node"><title>Node305</title>
<g id="a_node13"><a xlink:href="classAC__AttitudeControl.html#ae23959f7f64068fed032553f5d66eeb9" target="_top" xlink:title=" ">
<polygon fill="white" stroke="black" points="486.2,-203 486.2,-247 587.8,-247 587.8,-203 486.2,-203"/>
<text text-anchor="start" x="494.2" y="-233" font-family="Helvetica,sans-Serif" font-size="10.00">AC_AttitudeControl</text>
<text text-anchor="start" x="494.2" y="-221" font-family="Helvetica,sans-Serif" font-size="10.00">::input_rate_bf_roll</text>
<text text-anchor="middle" x="537" y="-209" font-family="Helvetica,sans-Serif" font-size="10.00">_pitch_yaw_3</text>
</a>
</g>
</g>
<!-- Node293&#45;&gt;Node305 -->
<g id="edge14" class="edge"><title>Node293&#45;&gt;Node305</title>
<path fill="none" stroke="midnightblue" d="M781.395,-225C720.792,-225 639.659,-225 588.098,-225"/>
<polygon fill="midnightblue" stroke="midnightblue" points="781.697,-228.5 791.697,-225 781.697,-221.5 781.697,-228.5"/>
</g>
<!-- Node306 -->
<g id="node14" class="node"><title>Node306</title>
<g id="a_node14"><a xlink:href="classAC__AttitudeControl__Heli.html#a3741c5f0deabfef2c6889171b5c4a217" target="_top" xlink:title=" ">
<polygon fill="white" stroke="black" points="480.357,-140 480.357,-184 593.643,-184 593.643,-140 480.357,-140"/>
<text text-anchor="start" x="488.357" y="-170" font-family="Helvetica,sans-Serif" font-size="10.00">AC_AttitudeControl</text>
<text text-anchor="start" x="488.357" y="-158" font-family="Helvetica,sans-Serif" font-size="10.00">_Heli::passthrough_bf</text>
<text text-anchor="middle" x="537" y="-146" font-family="Helvetica,sans-Serif" font-size="10.00">_roll_pitch_rate_yaw</text>
</a>
</g>
</g>
<!-- Node293&#45;&gt;Node306 -->
<g id="edge15" class="edge"><title>Node293&#45;&gt;Node306</title>
<path fill="none" stroke="midnightblue" d="M781.745,-209.395C723.24,-198.019 645.458,-182.895 593.66,-172.823"/>
<polygon fill="midnightblue" stroke="midnightblue" points="781.213,-212.857 791.697,-211.33 782.549,-205.986 781.213,-212.857"/>
</g>
<!-- Node307 -->
<g id="node15" class="node"><title>Node307</title>
<g id="a_node15"><a xlink:href="classAC__AttitudeControl.html#a7f7cec9628825614829c5372500d07a2" target="_top" xlink:title=" ">
<polygon fill="white" stroke="black" points="632.067,-263 632.067,-307 755.933,-307 755.933,-263 632.067,-263"/>
<text text-anchor="start" x="640.067" y="-293" font-family="Helvetica,sans-Serif" font-size="10.00">AC_AttitudeControl</text>
<text text-anchor="start" x="640.067" y="-281" font-family="Helvetica,sans-Serif" font-size="10.00">::update_ang_vel_target</text>
<text text-anchor="middle" x="694" y="-269" font-family="Helvetica,sans-Serif" font-size="10.00">_from_att_error</text>
</a>
</g>
</g>
<!-- Node293&#45;&gt;Node307 -->
<g id="edge16" class="edge"><title>Node293&#45;&gt;Node307</title>
<path fill="none" stroke="midnightblue" d="M807.775,-244.482C791.306,-250.399 773.097,-256.941 756.203,-263.011"/>
<polygon fill="midnightblue" stroke="midnightblue" points="809.019,-247.754 817.247,-241.079 806.653,-241.166 809.019,-247.754"/>
</g>
<!-- Node295 -->
<g id="node3" class="node"><title>Node295</title>
<g id="a_node3"><a xlink:href="classAC__AttitudeControl__Heli.html#a96317d64d32a0d29202c4f443bd06076" target="_top" xlink:title=" ">
<polygon fill="white" stroke="black" points="134.242,-327 134.242,-371 269.758,-371 269.758,-327 134.242,-327"/>
<text text-anchor="start" x="142.242" y="-357" font-family="Helvetica,sans-Serif" font-size="10.00">AC_AttitudeControl</text>
<text text-anchor="start" x="142.242" y="-345" font-family="Helvetica,sans-Serif" font-size="10.00">_Heli::input_euler_angle</text>
<text text-anchor="middle" x="202" y="-333" font-family="Helvetica,sans-Serif" font-size="10.00">_roll_pitch_euler_rate_yaw</text>
</a>
</g>
</g>
<!-- Node294&#45;&gt;Node295 -->
<g id="edge2" class="edge"><title>Node294&#45;&gt;Node295</title>
<path fill="none" stroke="midnightblue" d="M295.774,-363.735C287.164,-362.367 278.446,-360.983 269.979,-359.638"/>
<polygon fill="midnightblue" stroke="midnightblue" points="295.386,-367.217 305.811,-365.329 296.484,-360.304 295.386,-367.217"/>
</g>
<!-- Node296 -->
<g id="node4" class="node"><title>Node296</title>
<g id="a_node4"><a xlink:href="classAC__AutoTune.html#a1a880de557aca3dc882924b746bcf383" target="_top" xlink:title=" ">
<polygon fill="white" stroke="black" points="-0.230469,-412 -0.230469,-432 98.2305,-432 98.2305,-412 -0.230469,-412"/>
<text text-anchor="middle" x="49" y="-418" font-family="Helvetica,sans-Serif" font-size="10.00">AC_AutoTune::run</text>
</a>
</g>
</g>
<!-- Node294&#45;&gt;Node296 -->
<g id="edge3" class="edge"><title>Node294&#45;&gt;Node296</title>
<path fill="none" stroke="midnightblue" d="M296.052,-386.959C234.723,-395.693 150.738,-407.653 98.4574,-415.099"/>
<polygon fill="midnightblue" stroke="midnightblue" points="296.668,-390.406 306.074,-385.531 295.681,-383.476 296.668,-390.406"/>
</g>
<!-- Node298 -->
<g id="node6" class="node"><title>Node298</title>
<g id="a_node6"><a xlink:href="classAC__AttitudeControl__Heli.html#a8720532877383f5bc054862f88e64dfe" target="_top" xlink:title=" ">
<polygon fill="white" stroke="black" points="140.072,-543 140.072,-587 263.928,-587 263.928,-543 140.072,-543"/>
<text text-anchor="start" x="148.072" y="-573" font-family="Helvetica,sans-Serif" font-size="10.00">AC_AttitudeControl</text>
<text text-anchor="start" x="148.072" y="-561" font-family="Helvetica,sans-Serif" font-size="10.00">_Heli::input_euler_angle</text>
<text text-anchor="middle" x="202" y="-549" font-family="Helvetica,sans-Serif" font-size="10.00">_roll_pitch_yaw</text>
</a>
</g>
</g>
<!-- Node297&#45;&gt;Node298 -->
<g id="edge5" class="edge"><title>Node297&#45;&gt;Node298</title>
<path fill="none" stroke="midnightblue" d="M312.758,-565C296.991,-565 279.978,-565 264.164,-565"/>
<polygon fill="midnightblue" stroke="midnightblue" points="312.914,-568.5 322.914,-565 312.914,-561.5 312.914,-568.5"/>
</g>
<!-- Node299 -->
<g id="node7" class="node"><title>Node299</title>
<g id="a_node7"><a xlink:href="classAC__AutoTune.html#a7553749cc2b73850fcf4b14a61e384bb" target="_top" xlink:title=" ">
<polygon fill="white" stroke="black" points="144.989,-429 144.989,-461 259.011,-461 259.011,-429 144.989,-429"/>
<text text-anchor="start" x="152.989" y="-447" font-family="Helvetica,sans-Serif" font-size="10.00">AC_AutoTune::control</text>
<text text-anchor="middle" x="202" y="-435" font-family="Helvetica,sans-Serif" font-size="10.00">_attitude</text>
</a>
</g>
</g>
<!-- Node297&#45;&gt;Node299 -->
<g id="edge6" class="edge"><title>Node297&#45;&gt;Node299</title>
<path fill="none" stroke="midnightblue" d="M314.325,-539.734C311.389,-537.632 308.589,-535.389 306,-533 282.581,-511.394 294.217,-491.708 270,-471 265.543,-467.189 260.464,-463.901 255.142,-461.072"/>
<polygon fill="midnightblue" stroke="midnightblue" points="312.602,-542.788 322.899,-545.286 316.407,-536.912 312.602,-542.788"/>
</g>
<!-- Node299&#45;&gt;Node296 -->
<g id="edge7" class="edge"><title>Node299&#45;&gt;Node296</title>
<path fill="none" stroke="midnightblue" d="M134.625,-434.89C122.42,-433.031 109.892,-431.123 98.3419,-429.363"/>
<polygon fill="midnightblue" stroke="midnightblue" points="134.36,-438.39 144.773,-436.436 135.414,-431.47 134.36,-438.39"/>
</g>
<!-- Node303 -->
<g id="node11" class="node"><title>Node303</title>
<g id="a_node11"><a xlink:href="classAC__AttitudeControl__Heli.html#aa78e07c940c43aa150caf3c52cf76809" target="_top" xlink:title=" ">
<polygon fill="white" stroke="black" points="150.638,-480 150.638,-524 253.362,-524 253.362,-480 150.638,-480"/>
<text text-anchor="start" x="158.638" y="-510" font-family="Helvetica,sans-Serif" font-size="10.00">AC_AttitudeControl</text>
<text text-anchor="start" x="158.638" y="-498" font-family="Helvetica,sans-Serif" font-size="10.00">_Heli::input_rate_bf</text>
<text text-anchor="middle" x="202" y="-486" font-family="Helvetica,sans-Serif" font-size="10.00">_roll_pitch_yaw</text>
</a>
</g>
</g>
<!-- Node302&#45;&gt;Node303 -->
<g id="edge11" class="edge"><title>Node302&#45;&gt;Node303</title>
<path fill="none" stroke="midnightblue" d="M312.699,-502C293.369,-502 272.174,-502 253.61,-502"/>
<polygon fill="midnightblue" stroke="midnightblue" points="312.914,-505.5 322.914,-502 312.914,-498.5 312.914,-505.5"/>
</g>
<!-- Node302&#45;&gt;Node299 -->
<g id="edge12" class="edge"><title>Node302&#45;&gt;Node299</title>
<path fill="none" stroke="midnightblue" d="M313.389,-482.013C292.957,-475.162 270.369,-467.588 250.977,-461.086"/>
<polygon fill="midnightblue" stroke="midnightblue" points="312.32,-485.346 322.914,-485.206 314.545,-478.709 312.32,-485.346"/>
</g>
<!-- Node308 -->
<g id="node16" class="node"><title>Node308</title>
<g id="a_node16"><a xlink:href="classAC__AttitudeControl.html#ad2bc0648cdbb5c9b40bb40de2eb649fc" target="_top" xlink:title=" ">
<polygon fill="white" stroke="black" points="478.412,-266 478.412,-322 595.588,-322 595.588,-266 478.412,-266"/>
<text text-anchor="start" x="486.412" y="-308" font-family="Helvetica,sans-Serif" font-size="10.00">AC_AttitudeControl</text>
<text text-anchor="start" x="486.412" y="-296" font-family="Helvetica,sans-Serif" font-size="10.00">::input_euler_rate_yaw</text>
<text text-anchor="start" x="486.412" y="-284" font-family="Helvetica,sans-Serif" font-size="10.00">_euler_angle_pitch_bf</text>
<text text-anchor="middle" x="537" y="-272" font-family="Helvetica,sans-Serif" font-size="10.00">_roll_m</text>
</a>
</g>
</g>
<!-- Node307&#45;&gt;Node308 -->
<g id="edge17" class="edge"><title>Node307&#45;&gt;Node308</title>
<path fill="none" stroke="midnightblue" d="M621.645,-289.143C612.982,-289.646 604.217,-290.155 595.785,-290.645"/>
<polygon fill="midnightblue" stroke="midnightblue" points="621.96,-292.631 631.74,-288.557 621.554,-285.643 621.96,-292.631"/>
</g>
<!-- Node309 -->
<g id="node17" class="node"><title>Node309</title>
<g id="a_node17"><a xlink:href="classAC__AttitudeControl.html#a9ecacc87c18ae007560914d04fc3ba0d" target="_top" xlink:title=" ">
<polygon fill="white" stroke="black" points="478.412,-341 478.412,-397 595.588,-397 595.588,-341 478.412,-341"/>
<text text-anchor="start" x="486.412" y="-383" font-family="Helvetica,sans-Serif" font-size="10.00">AC_AttitudeControl</text>
<text text-anchor="start" x="486.412" y="-371" font-family="Helvetica,sans-Serif" font-size="10.00">::input_euler_rate_yaw</text>
<text text-anchor="start" x="486.412" y="-359" font-family="Helvetica,sans-Serif" font-size="10.00">_euler_angle_pitch_bf</text>
<text text-anchor="middle" x="537" y="-347" font-family="Helvetica,sans-Serif" font-size="10.00">_roll_p</text>
</a>
</g>
</g>
<!-- Node307&#45;&gt;Node309 -->
<g id="edge18" class="edge"><title>Node307&#45;&gt;Node309</title>
<path fill="none" stroke="midnightblue" d="M643.061,-312.064C626.052,-321.281 607.007,-331.603 589.852,-340.9"/>
<polygon fill="midnightblue" stroke="midnightblue" points="645.151,-314.912 652.276,-307.07 641.816,-308.758 645.151,-314.912"/>
</g>
<!-- Node307&#45;&gt;Node305 -->
<g id="edge19" class="edge"><title>Node307&#45;&gt;Node305</title>
<path fill="none" stroke="midnightblue" d="M626.779,-259.366C613.756,-254.325 600.299,-249.116 587.921,-244.324"/>
<polygon fill="midnightblue" stroke="midnightblue" points="625.575,-262.653 636.164,-262.999 628.102,-256.125 625.575,-262.653"/>
</g>
<!-- Node310 -->
<g id="node18" class="node"><title>Node310</title>
<g id="a_node18"><a xlink:href="classAC__AttitudeControl.html#a7b9cf8568575052931b43054717b4f87" target="_top" xlink:title=" ">
<polygon fill="white" stroke="black" points="486.2,-416 486.2,-460 587.8,-460 587.8,-416 486.2,-416"/>
<text text-anchor="start" x="494.2" y="-446" font-family="Helvetica,sans-Serif" font-size="10.00">AC_AttitudeControl</text>
<text text-anchor="start" x="494.2" y="-434" font-family="Helvetica,sans-Serif" font-size="10.00">::attitude_controller</text>
<text text-anchor="middle" x="537" y="-422" font-family="Helvetica,sans-Serif" font-size="10.00">_run_quat</text>
</a>
</g>
</g>
<!-- Node307&#45;&gt;Node310 -->
<g id="edge20" class="edge"><title>Node307&#45;&gt;Node310</title>
<path fill="none" stroke="midnightblue" d="M673.425,-315.722C655.575,-342.013 627.277,-379.677 596,-406 591.777,-409.555 587.098,-412.901 582.283,-415.993"/>
<polygon fill="midnightblue" stroke="midnightblue" points="676.424,-317.534 679.068,-307.274 670.603,-313.646 676.424,-317.534"/>
</g>
<!-- Node307&#45;&gt;Node306 -->
<g id="edge28" class="edge"><title>Node307&#45;&gt;Node306</title>
<path fill="none" stroke="midnightblue" d="M665.897,-255.46C647.359,-236.26 621.592,-211.46 596,-193 591.74,-189.927 587.139,-186.958 582.456,-184.154"/>
<polygon fill="midnightblue" stroke="midnightblue" points="663.446,-257.961 672.88,-262.782 668.511,-253.13 663.446,-257.961"/>
</g>
<!-- Node311 -->
<g id="node19" class="node"><title>Node311</title>
<g id="a_node19"><a xlink:href="classAC__AttitudeControl.html#a2115e6e5df7db5798f73423d5d2a5149" target="_top" xlink:title=" ">
<polygon fill="white" stroke="black" points="318.183,-417 318.183,-461 429.817,-461 429.817,-417 318.183,-417"/>
<text text-anchor="start" x="326.183" y="-447" font-family="Helvetica,sans-Serif" font-size="10.00">AC_AttitudeControl</text>
<text text-anchor="start" x="326.183" y="-435" font-family="Helvetica,sans-Serif" font-size="10.00">::input_angle_step_bf</text>
<text text-anchor="middle" x="374" y="-423" font-family="Helvetica,sans-Serif" font-size="10.00">_roll_pitch_yaw</text>
</a>
</g>
</g>
<!-- Node310&#45;&gt;Node311 -->
<g id="edge21" class="edge"><title>Node310&#45;&gt;Node311</title>
<path fill="none" stroke="midnightblue" d="M475.756,-438.374C460.773,-438.467 444.789,-438.567 430.069,-438.658"/>
<polygon fill="midnightblue" stroke="midnightblue" points="475.963,-441.873 485.941,-438.311 475.92,-434.873 475.963,-441.873"/>
</g>
<!-- Node310&#45;&gt;Node294 -->
<g id="edge23" class="edge"><title>Node310&#45;&gt;Node294</title>
<path fill="none" stroke="midnightblue" d="M476.601,-415.126C462.142,-409.558 446.705,-403.613 432.344,-398.083"/>
<polygon fill="midnightblue" stroke="midnightblue" points="475.351,-418.395 485.941,-418.723 477.867,-411.863 475.351,-418.395"/>
</g>
<!-- Node310&#45;&gt;Node297 -->
<g id="edge24" class="edge"><title>Node310&#45;&gt;Node297</title>
<path fill="none" stroke="midnightblue" d="M511.361,-467.854C493.591,-488.06 468.208,-514.364 442,-533 436.747,-536.735 430.991,-540.232 425.127,-543.441"/>
<polygon fill="midnightblue" stroke="midnightblue" points="514.12,-470.014 518.019,-460.162 508.828,-465.433 514.12,-470.014"/>
</g>
<!-- Node310&#45;&gt;Node300 -->
<g id="edge25" class="edge"><title>Node310&#45;&gt;Node300</title>
<path fill="none" stroke="midnightblue" d="M481.989,-409.619C480.61,-408.446 479.276,-407.24 478,-406 455.42,-384.065 460.328,-370.595 442,-345 427.762,-325.115 409.574,-304.175 395.743,-289.004"/>
<polygon fill="midnightblue" stroke="midnightblue" points="480.238,-412.685 490.312,-415.968 484.483,-407.12 480.238,-412.685"/>
</g>
<!-- Node310&#45;&gt;Node301 -->
<g id="edge26" class="edge"><title>Node310&#45;&gt;Node301</title>
<path fill="none" stroke="midnightblue" d="M480.438,-409.031C479.585,-408.05 478.77,-407.04 478,-406 432.023,-343.945 469.522,-308.161 442,-236 427.402,-197.727 401.453,-157.106 386.494,-135.232"/>
<polygon fill="midnightblue" stroke="midnightblue" points="478.028,-411.568 487.654,-415.994 482.889,-406.531 478.028,-411.568"/>
</g>
<!-- Node310&#45;&gt;Node302 -->
<g id="edge27" class="edge"><title>Node310&#45;&gt;Node302</title>
<path fill="none" stroke="midnightblue" d="M476.202,-461.771C459.364,-468.464 441.23,-475.673 425.028,-482.113"/>
<polygon fill="midnightblue" stroke="midnightblue" points="477.941,-464.846 485.941,-457.899 475.355,-458.341 477.941,-464.846"/>
</g>
<!-- Node311&#45;&gt;Node299 -->
<g id="edge22" class="edge"><title>Node311&#45;&gt;Node299</title>
<path fill="none" stroke="midnightblue" d="M307.476,-441.313C291.507,-441.876 274.567,-442.474 259.082,-443.021"/>
<polygon fill="midnightblue" stroke="midnightblue" points="307.936,-444.799 317.806,-440.948 307.689,-437.803 307.936,-444.799"/>
</g>
</g>
</svg>
