<?xml version="1.0" encoding="UTF-8" standalone="no"?>
<!DOCTYPE svg PUBLIC "-//W3C//DTD SVG 1.1//EN"
 "http://www.w3.org/Graphics/SVG/1.1/DTD/svg11.dtd">
<!-- Generated by graphviz version 2.30.1 (20130221.2233)
 -->
<!-- Title: NavEKF2_core::selectHeightForFusion Pages: 1 -->
<svg width="1130pt" height="40pt"
 viewBox="0.00 0.00 1130.00 40.00" xmlns="http://www.w3.org/2000/svg" xmlns:xlink="http://www.w3.org/1999/xlink">
<g id="graph0" class="graph" transform="scale(1 1) rotate(0) translate(4 36)">
<title>NavEKF2_core::selectHeightForFusion</title>
<polygon fill="white" stroke="white" points="-4,5 -4,-36 1127,-36 1127,5 -4,5"/>
<!-- Node3295 -->
<g id="node1" class="node"><title>Node3295</title>
<g id="a_node1"><a xlink:title=" ">
<polygon fill="#bfbfbf" stroke="black" points="977.803,-0 977.803,-32 1122.2,-32 1122.2,-0 977.803,-0"/>
<text text-anchor="start" x="985.803" y="-18" font-family="Helvetica,sans-Serif" font-size="10.00">NavEKF2_core::selectHeight</text>
<text text-anchor="middle" x="1050" y="-6" font-family="Helvetica,sans-Serif" font-size="10.00">ForFusion</text>
</a>
</g>
</g>
<!-- Node3296 -->
<g id="node2" class="node"><title>Node3296</title>
<g id="a_node2"><a xlink:href="classNavEKF2__core.html#aff31047fa71772bca7ce574617ede0f6" target="_top" xlink:title=" ">
<polygon fill="white" stroke="black" points="793.853,-0 793.853,-32 942.147,-32 942.147,-0 793.853,-0"/>
<text text-anchor="start" x="801.853" y="-18" font-family="Helvetica,sans-Serif" font-size="10.00">NavEKF2_core::SelectVelPos</text>
<text text-anchor="middle" x="868" y="-6" font-family="Helvetica,sans-Serif" font-size="10.00">Fusion</text>
</a>
</g>
</g>
<!-- Node3295&#45;&gt;Node3296 -->
<g id="edge1" class="edge"><title>Node3295&#45;&gt;Node3296</title>
<path fill="none" stroke="midnightblue" d="M967.469,-16C959.106,-16 950.645,-16 942.378,-16"/>
<polygon fill="midnightblue" stroke="midnightblue" points="967.601,-19.5001 977.601,-16 967.601,-12.5001 967.601,-19.5001"/>
</g>
<!-- Node3297 -->
<g id="node3" class="node"><title>Node3297</title>
<g id="a_node3"><a xlink:href="classNavEKF2__core.html#a5f5c815cbd5ebba30d731f89f87726c3" target="_top" xlink:title=" ">
<polygon fill="white" stroke="black" points="614.084,-6 614.084,-26 757.916,-26 757.916,-6 614.084,-6"/>
<text text-anchor="middle" x="686" y="-12" font-family="Helvetica,sans-Serif" font-size="10.00">NavEKF2_core::UpdateFilter</text>
</a>
</g>
</g>
<!-- Node3296&#45;&gt;Node3297 -->
<g id="edge2" class="edge"><title>Node3296&#45;&gt;Node3297</title>
<path fill="none" stroke="midnightblue" d="M783.775,-16C775.197,-16 766.537,-16 758.108,-16"/>
<polygon fill="midnightblue" stroke="midnightblue" points="783.787,-19.5001 793.787,-16 783.787,-12.5001 783.787,-19.5001"/>
</g>
<!-- Node3298 -->
<g id="node4" class="node"><title>Node3298</title>
<g id="a_node4"><a xlink:href="classNavEKF2.html#a72815b1bbd9d7ceb0ff7ae52d14516df" target="_top" xlink:title=" ">
<polygon fill="white" stroke="black" points="458.591,-6 458.591,-26 577.409,-26 577.409,-6 458.591,-6"/>
<text text-anchor="middle" x="518" y="-12" font-family="Helvetica,sans-Serif" font-size="10.00">NavEKF2::UpdateFilter</text>
</a>
</g>
</g>
<!-- Node3297&#45;&gt;Node3298 -->
<g id="edge3" class="edge"><title>Node3297&#45;&gt;Node3298</title>
<path fill="none" stroke="midnightblue" d="M603.424,-16C594.696,-16 585.946,-16 577.562,-16"/>
<polygon fill="midnightblue" stroke="midnightblue" points="603.638,-19.5001 613.638,-16 603.638,-12.5001 603.638,-19.5001"/>
</g>
<!-- Node3299 -->
<g id="node5" class="node"><title>Node3299</title>
<g id="a_node5"><a xlink:href="classAP__AHRS__NavEKF.html#a0187c6d3d4348b002a204c05d3e94b07" target="_top" xlink:title=" ">
<polygon fill="white" stroke="black" points="249.904,-6 249.904,-26 422.096,-26 422.096,-6 249.904,-6"/>
<text text-anchor="middle" x="336" y="-12" font-family="Helvetica,sans-Serif" font-size="10.00">AP_AHRS_NavEKF::update_EKF2</text>
</a>
</g>
</g>
<!-- Node3298&#45;&gt;Node3299 -->
<g id="edge4" class="edge"><title>Node3298&#45;&gt;Node3299</title>
<path fill="none" stroke="midnightblue" d="M448.321,-16C439.8,-16 431.008,-16 422.275,-16"/>
<polygon fill="midnightblue" stroke="midnightblue" points="448.559,-19.5001 458.559,-16 448.559,-12.5001 448.559,-19.5001"/>
</g>
<!-- Node3300 -->
<g id="node6" class="node"><title>Node3300</title>
<g id="a_node6"><a xlink:href="classAP__AHRS__NavEKF.html#ac8111979c5dc37a55b2c50818534ea52" target="_top" xlink:title=" ">
<polygon fill="white" stroke="black" points="72.1899,-6 72.1899,-26 213.81,-26 213.81,-6 72.1899,-6"/>
<text text-anchor="middle" x="143" y="-12" font-family="Helvetica,sans-Serif" font-size="10.00">AP_AHRS_NavEKF::update</text>
</a>
</g>
</g>
<!-- Node3299&#45;&gt;Node3300 -->
<g id="edge5" class="edge"><title>Node3299&#45;&gt;Node3300</title>
<path fill="none" stroke="midnightblue" d="M239.643,-16C230.946,-16 222.247,-16 213.835,-16"/>
<polygon fill="midnightblue" stroke="midnightblue" points="239.834,-19.5001 249.834,-16 239.834,-12.5001 239.834,-19.5001"/>
</g>
<!-- Node3301 -->
<g id="node7" class="node"><title>Node3301</title>
<g id="a_node7"><a xlink:href="AHRS__Test_8cpp.html#afe461d27b9c48d5921c00d521181f12f" target="_top" xlink:title=" ">
<polygon fill="white" stroke="black" points="0.546875,-6 0.546875,-26 35.4531,-26 35.4531,-6 0.546875,-6"/>
<text text-anchor="middle" x="18" y="-12" font-family="Helvetica,sans-Serif" font-size="10.00">loop</text>
</a>
</g>
</g>
<!-- Node3300&#45;&gt;Node3301 -->
<g id="edge6" class="edge"><title>Node3300&#45;&gt;Node3301</title>
<path fill="none" stroke="midnightblue" d="M61.8306,-16C51.9771,-16 42.8299,-16 35.5404,-16"/>
<polygon fill="midnightblue" stroke="midnightblue" points="61.8769,-19.5001 71.8769,-16 61.8769,-12.5001 61.8769,-19.5001"/>
</g>
</g>
</svg>
