<?xml version="1.0" encoding="UTF-8" standalone="no"?>
<!DOCTYPE svg PUBLIC "-//W3C//DTD SVG 1.1//EN"
 "http://www.w3.org/Graphics/SVG/1.1/DTD/svg11.dtd">
<!-- Generated by graphviz version 2.30.1 (20130221.2233)
 -->
<!-- Title: AP_L1_Control::turn_distance Pages: 1 -->
<svg width="832pt" height="271pt"
 viewBox="0.00 0.00 832.00 271.00" xmlns="http://www.w3.org/2000/svg" xmlns:xlink="http://www.w3.org/1999/xlink">
<g id="graph0" class="graph" transform="scale(1 1) rotate(0) translate(4 267)">
<title>AP_L1_Control::turn_distance</title>
<polygon fill="white" stroke="white" points="-4,5 -4,-267 829,-267 829,5 -4,5"/>
<!-- Node105 -->
<g id="node1" class="node"><title>Node105</title>
<g id="a_node1"><a xlink:title=" ">
<polygon fill="#bfbfbf" stroke="black" points="0.694824,-163 0.694824,-195 107.305,-195 107.305,-163 0.694824,-163"/>
<text text-anchor="start" x="8.69482" y="-181" font-family="Helvetica,sans-Serif" font-size="10.00">AP_L1_Control::turn</text>
<text text-anchor="middle" x="54" y="-169" font-family="Helvetica,sans-Serif" font-size="10.00">_distance</text>
</a>
</g>
</g>
<!-- Node106 -->
<g id="node2" class="node"><title>Node106</title>
<g id="a_node2"><a xlink:href="classAP__L1__Control.html#ab99bfec3eb21aa7b9dc1edef4cc60fc0" target="_top" xlink:title=" ">
<polygon fill="white" stroke="black" points="144.695,-163 144.695,-195 251.305,-195 251.305,-163 144.695,-163"/>
<text text-anchor="start" x="152.695" y="-181" font-family="Helvetica,sans-Serif" font-size="10.00">AP_L1_Control::turn</text>
<text text-anchor="middle" x="198" y="-169" font-family="Helvetica,sans-Serif" font-size="10.00">_distance</text>
</a>
</g>
</g>
<!-- Node105&#45;&gt;Node106 -->
<g id="edge1" class="edge"><title>Node105&#45;&gt;Node106</title>
<path fill="none" stroke="midnightblue" d="M107.472,-179C116.103,-179 125.127,-179 133.984,-179"/>
<polygon fill="midnightblue" stroke="midnightblue" points="134.27,-182.5 144.269,-179 134.269,-175.5 134.27,-182.5"/>
</g>
<!-- Node107 -->
<g id="node3" class="node"><title>Node107</title>
<g id="a_node3"><a xlink:href="AP__Math_8h.html#a0375e3d67fd3911cacee5c3e1408c0f2" target="_top" xlink:title=" ">
<polygon fill="white" stroke="black" points="339.5,-208 339.5,-228 368.5,-228 368.5,-208 339.5,-208"/>
<text text-anchor="middle" x="354" y="-214" font-family="Helvetica,sans-Serif" font-size="10.00">sq</text>
</a>
</g>
</g>
<!-- Node106&#45;&gt;Node107 -->
<g id="edge2" class="edge"><title>Node106&#45;&gt;Node107</title>
<path fill="none" stroke="midnightblue" d="M251.567,-192.313C278.131,-199.04 309.023,-206.863 329.67,-212.092"/>
<polygon fill="midnightblue" stroke="midnightblue" points="328.904,-215.508 339.457,-214.57 330.622,-208.722 328.904,-215.508"/>
</g>
<!-- Node108 -->
<g id="node4" class="node"><title>Node108</title>
<g id="a_node4"><a xlink:href="classAP__AHRS.html#a64786b58a1607ee420ed4f0696c755b6" target="_top" xlink:title=" ">
<polygon fill="white" stroke="black" points="288.007,-169 288.007,-189 419.993,-189 419.993,-169 288.007,-169"/>
<text text-anchor="middle" x="354" y="-175" font-family="Helvetica,sans-Serif" font-size="10.00">AP_AHRS::get_EAS2TAS</text>
</a>
</g>
</g>
<!-- Node106&#45;&gt;Node108 -->
<g id="edge3" class="edge"><title>Node106&#45;&gt;Node108</title>
<path fill="none" stroke="midnightblue" d="M251.567,-179C259.959,-179 268.783,-179 277.58,-179"/>
<polygon fill="midnightblue" stroke="midnightblue" points="277.866,-182.5 287.866,-179 277.866,-175.5 277.866,-182.5"/>
</g>
<!-- Node117 -->
<g id="node13" class="node"><title>Node117</title>
<g id="a_node13"><a xlink:href="AP__Math_8h.html#a321a91de43cfb2e95d40cde314d0a80f" target="_top" xlink:title=" ">
<polygon fill="white" stroke="black" points="336.835,-130 336.835,-150 371.165,-150 371.165,-130 336.835,-130"/>
<text text-anchor="middle" x="354" y="-136" font-family="Helvetica,sans-Serif" font-size="10.00">MIN</text>
</a>
</g>
</g>
<!-- Node106&#45;&gt;Node117 -->
<g id="edge15" class="edge"><title>Node106&#45;&gt;Node117</title>
<path fill="none" stroke="midnightblue" d="M251.567,-165.687C276.944,-159.261 306.27,-151.834 326.842,-146.624"/>
<polygon fill="midnightblue" stroke="midnightblue" points="327.9,-149.967 336.734,-144.119 326.181,-143.181 327.9,-149.967"/>
</g>
<!-- Node109 -->
<g id="node5" class="node"><title>Node109</title>
<g id="a_node5"><a xlink:href="namespaceAP.html#a8aec57eb0b7a79044cbc1f0ca4b75bcf" target="_top" xlink:title=" ">
<polygon fill="white" stroke="black" points="491.544,-214 491.544,-234 546.456,-234 546.456,-214 491.544,-214"/>
<text text-anchor="middle" x="519" y="-220" font-family="Helvetica,sans-Serif" font-size="10.00">AP::baro</text>
</a>
</g>
</g>
<!-- Node108&#45;&gt;Node109 -->
<g id="edge4" class="edge"><title>Node108&#45;&gt;Node109</title>
<path fill="none" stroke="midnightblue" d="M391.58,-189.099C418.464,-196.521 454.83,-206.56 481.657,-213.967"/>
<polygon fill="midnightblue" stroke="midnightblue" points="480.861,-217.378 491.432,-216.665 482.724,-210.63 480.861,-217.378"/>
</g>
<!-- Node111 -->
<g id="node7" class="node"><title>Node111</title>
<g id="a_node7"><a xlink:href="classAP__Baro.html#a0115c37618652051c1f6efd072fcc74b" target="_top" xlink:title=" ">
<polygon fill="white" stroke="black" points="456.337,-124 456.337,-144 581.663,-144 581.663,-124 456.337,-124"/>
<text text-anchor="middle" x="519" y="-130" font-family="Helvetica,sans-Serif" font-size="10.00">AP_Baro::get_EAS2TAS</text>
</a>
</g>
</g>
<!-- Node108&#45;&gt;Node111 -->
<g id="edge6" class="edge"><title>Node108&#45;&gt;Node111</title>
<path fill="none" stroke="midnightblue" d="M391.58,-168.901C415.279,-162.358 446.348,-153.781 471.754,-146.767"/>
<polygon fill="midnightblue" stroke="midnightblue" points="472.834,-150.1 481.542,-144.065 470.971,-143.353 472.834,-150.1"/>
</g>
<!-- Node110 -->
<g id="node6" class="node"><title>Node110</title>
<g id="a_node6"><a xlink:href="classAP__Baro.html#a92b0efed71f214529da6c54d692f1d61" target="_top" xlink:title=" ">
<polygon fill="white" stroke="black" points="618.463,-243 618.463,-263 739.537,-263 739.537,-243 618.463,-243"/>
<text text-anchor="middle" x="679" y="-249" font-family="Helvetica,sans-Serif" font-size="10.00">AP_Baro::get_singleton</text>
</a>
</g>
</g>
<!-- Node109&#45;&gt;Node110 -->
<g id="edge5" class="edge"><title>Node109&#45;&gt;Node110</title>
<path fill="none" stroke="midnightblue" d="M546.803,-228.919C565.138,-232.285 590.262,-236.896 613.62,-241.183"/>
<polygon fill="midnightblue" stroke="midnightblue" points="613.03,-244.633 623.497,-242.996 614.294,-237.749 613.03,-244.633"/>
</g>
<!-- Node112 -->
<g id="node8" class="node"><title>Node112</title>
<g id="a_node8"><a xlink:href="classAP__Baro.html#a50ae73cce1699d88638e3dfab4ffd330" target="_top" xlink:title=" ">
<polygon fill="white" stroke="black" points="622.355,-186 622.355,-206 735.645,-206 735.645,-186 622.355,-186"/>
<text text-anchor="middle" x="679" y="-192" font-family="Helvetica,sans-Serif" font-size="10.00">AP_Baro::get_altitude</text>
</a>
</g>
</g>
<!-- Node111&#45;&gt;Node112 -->
<g id="edge7" class="edge"><title>Node111&#45;&gt;Node112</title>
<path fill="none" stroke="midnightblue" d="M545.737,-144.099C572.134,-154.458 613.382,-170.644 642.792,-182.184"/>
<polygon fill="midnightblue" stroke="midnightblue" points="641.686,-185.51 652.274,-185.905 644.244,-178.994 641.686,-185.51"/>
</g>
<!-- Node113 -->
<g id="node9" class="node"><title>Node113</title>
<g id="a_node9"><a xlink:href="AP__Math_8h.html#a2a12cce483e9b870da70d30406d82c60" target="_top" xlink:title=" ">
<polygon fill="white" stroke="black" points="775.882,-124 775.882,-144 824.118,-144 824.118,-124 775.882,-124"/>
<text text-anchor="middle" x="800" y="-130" font-family="Helvetica,sans-Serif" font-size="10.00">is_zero</text>
</a>
</g>
</g>
<!-- Node111&#45;&gt;Node113 -->
<g id="edge9" class="edge"><title>Node111&#45;&gt;Node113</title>
<path fill="none" stroke="midnightblue" d="M581.681,-136.176C593.724,-136.52 606.256,-136.82 618,-137 672.216,-137.83 685.795,-138.377 740,-137 748.29,-136.789 757.23,-136.412 765.581,-135.995"/>
<polygon fill="midnightblue" stroke="midnightblue" points="765.952,-139.481 775.752,-135.455 765.58,-132.491 765.952,-139.481"/>
</g>
<!-- Node114 -->
<g id="node10" class="node"><title>Node114</title>
<g id="a_node10"><a xlink:href="classAP__Baro.html#a932c39564d42db7594dc132eb6703919" target="_top" xlink:title=" ">
<polygon fill="white" stroke="black" points="622.909,-96 622.909,-128 735.091,-128 735.091,-96 622.909,-96"/>
<text text-anchor="start" x="630.909" y="-114" font-family="Helvetica,sans-Serif" font-size="10.00">AP_Baro::get_ground</text>
<text text-anchor="middle" x="679" y="-102" font-family="Helvetica,sans-Serif" font-size="10.00">_temperature</text>
</a>
</g>
</g>
<!-- Node111&#45;&gt;Node114 -->
<g id="edge10" class="edge"><title>Node111&#45;&gt;Node114</title>
<path fill="none" stroke="midnightblue" d="M581.992,-125.368C592.107,-123.96 602.613,-122.497 612.803,-121.078"/>
<polygon fill="midnightblue" stroke="midnightblue" points="613.439,-124.523 622.861,-119.678 612.473,-117.59 613.439,-124.523"/>
</g>
<!-- Node115 -->
<g id="node11" class="node"><title>Node115</title>
<g id="a_node11"><a xlink:href="classAP__Baro.html#a41b3c00624c78b883413b53fc5a81a32" target="_top" xlink:title=" ">
<polygon fill="white" stroke="black" points="619.025,-39 619.025,-59 738.975,-59 738.975,-39 619.025,-39"/>
<text text-anchor="middle" x="679" y="-45" font-family="Helvetica,sans-Serif" font-size="10.00">AP_Baro::get_pressure</text>
</a>
</g>
</g>
<!-- Node111&#45;&gt;Node115 -->
<g id="edge12" class="edge"><title>Node111&#45;&gt;Node115</title>
<path fill="none" stroke="midnightblue" d="M538.745,-123.916C566.422,-109.026 618.39,-81.0687 650.42,-63.8376"/>
<polygon fill="midnightblue" stroke="midnightblue" points="652.131,-66.8913 659.279,-59.0713 648.815,-60.7267 652.131,-66.8913"/>
</g>
<!-- Node116 -->
<g id="node12" class="node"><title>Node116</title>
<g id="a_node12"><a xlink:href="AP__Math_8h.html#a4e3ae698e8f99cec214348ad233e3c41" target="_top" xlink:title=" ">
<polygon fill="white" stroke="black" points="647.655,-0 647.655,-20 710.345,-20 710.345,-0 647.655,-0"/>
<text text-anchor="middle" x="679" y="-6" font-family="Helvetica,sans-Serif" font-size="10.00">is_positive</text>
</a>
</g>
</g>
<!-- Node111&#45;&gt;Node116 -->
<g id="edge14" class="edge"><title>Node111&#45;&gt;Node116</title>
<path fill="none" stroke="midnightblue" d="M526.873,-123.853C541.345,-103.232 577.021,-56.1751 618,-30 623.969,-26.1876 630.738,-23.0267 637.527,-20.4311"/>
<polygon fill="midnightblue" stroke="midnightblue" points="639.085,-23.5956 647.395,-17.0224 636.8,-16.9792 639.085,-23.5956"/>
</g>
<!-- Node112&#45;&gt;Node112 -->
<g id="edge8" class="edge"><title>Node112&#45;&gt;Node112</title>
<path fill="none" stroke="midnightblue" d="M660.213,-206.048C651.644,-214.771 657.906,-224 679,-224 692.184,-224 699.574,-220.395 701.17,-215.562"/>
<polygon fill="midnightblue" stroke="midnightblue" points="704.435,-214.297 697.787,-206.048 697.84,-216.642 704.435,-214.297"/>
</g>
<!-- Node114&#45;&gt;Node113 -->
<g id="edge11" class="edge"><title>Node114&#45;&gt;Node113</title>
<path fill="none" stroke="midnightblue" d="M735.319,-122.227C745.639,-124.135 756.126,-126.074 765.533,-127.813"/>
<polygon fill="midnightblue" stroke="midnightblue" points="765.157,-131.303 775.627,-129.679 766.43,-124.419 765.157,-131.303"/>
</g>
<!-- Node115&#45;&gt;Node115 -->
<g id="edge13" class="edge"><title>Node115&#45;&gt;Node115</title>
<path fill="none" stroke="midnightblue" d="M660.213,-59.0477C651.644,-67.7715 657.906,-77 679,-77 692.184,-77 699.574,-73.3951 701.17,-68.5616"/>
<polygon fill="midnightblue" stroke="midnightblue" points="704.435,-67.2968 697.787,-59.0477 697.84,-69.6424 704.435,-67.2968"/>
</g>
</g>
</svg>
