<?xml version="1.0" encoding="UTF-8" standalone="no"?>
<!DOCTYPE svg PUBLIC "-//W3C//DTD SVG 1.1//EN"
 "http://www.w3.org/Graphics/SVG/1.1/DTD/svg11.dtd">
<!-- Generated by graphviz version 2.30.1 (20130221.2233)
 -->
<!-- Title: AP_RCProtocol_SUMD::process_byte Pages: 1 -->
<svg width="1018pt" height="285pt"
 viewBox="0.00 0.00 1018.00 285.00" xmlns="http://www.w3.org/2000/svg" xmlns:xlink="http://www.w3.org/1999/xlink">
<g id="graph0" class="graph" transform="scale(1 1) rotate(0) translate(4 281)">
<title>AP_RCProtocol_SUMD::process_byte</title>
<polygon fill="white" stroke="white" points="-4,5 -4,-281 1015,-281 1015,5 -4,5"/>
<!-- Node20 -->
<g id="node1" class="node"><title>Node20</title>
<g id="a_node1"><a xlink:title=" ">
<polygon fill="#bfbfbf" stroke="black" points="0.48291,-55 0.48291,-87 121.517,-87 121.517,-55 0.48291,-55"/>
<text text-anchor="start" x="8.48291" y="-73" font-family="Helvetica,sans-Serif" font-size="10.00">AP_RCProtocol_SUMD</text>
<text text-anchor="middle" x="61" y="-61" font-family="Helvetica,sans-Serif" font-size="10.00">::process_byte</text>
</a>
</g>
</g>
<!-- Node21 -->
<g id="node2" class="node"><title>Node21</title>
<g id="a_node2"><a xlink:href="classAP__RCProtocol__SUMD.html#aea349133d3a3e1f15d1450cde0142d25" target="_top" xlink:title=" ">
<polygon fill="white" stroke="black" points="158.483,-90 158.483,-122 279.517,-122 279.517,-90 158.483,-90"/>
<text text-anchor="start" x="166.483" y="-108" font-family="Helvetica,sans-Serif" font-size="10.00">AP_RCProtocol_SUMD</text>
<text text-anchor="middle" x="219" y="-96" font-family="Helvetica,sans-Serif" font-size="10.00">::_process_byte</text>
</a>
</g>
</g>
<!-- Node20&#45;&gt;Node21 -->
<g id="edge1" class="edge"><title>Node20&#45;&gt;Node21</title>
<path fill="none" stroke="midnightblue" d="M121.868,-84.4318C130.545,-86.3787 139.54,-88.3967 148.389,-90.3821"/>
<polygon fill="midnightblue" stroke="midnightblue" points="147.769,-93.83 158.293,-92.6041 149.301,-86.9998 147.769,-93.83"/>
</g>
<!-- Node36 -->
<g id="node17" class="node"><title>Node36</title>
<g id="a_node17"><a xlink:href="namespaceAP__HAL.html#a8293355e35887733b1fd151aef08a787" target="_top" xlink:title=" ">
<polygon fill="white" stroke="black" points="174.323,-26 174.323,-46 263.677,-46 263.677,-26 174.323,-26"/>
<text text-anchor="middle" x="219" y="-32" font-family="Helvetica,sans-Serif" font-size="10.00">AP_HAL::micros</text>
</a>
</g>
</g>
<!-- Node20&#45;&gt;Node36 -->
<g id="edge18" class="edge"><title>Node20&#45;&gt;Node36</title>
<path fill="none" stroke="midnightblue" d="M121.868,-57.5682C135.699,-54.4651 150.335,-51.1813 163.903,-48.1372"/>
<polygon fill="midnightblue" stroke="midnightblue" points="165.048,-51.4673 174.039,-45.863 163.516,-44.6371 165.048,-51.4673"/>
</g>
<!-- Node22 -->
<g id="node3" class="node"><title>Node22</title>
<g id="a_node3"><a xlink:href="classAP__HAL_1_1BetterStream.html#a8534aa004599bb81ad60f3e762791032" target="_top" xlink:title=" ">
<polygon fill="white" stroke="black" points="322.589,-180 322.589,-212 441.411,-212 441.411,-180 322.589,-180"/>
<text text-anchor="start" x="330.589" y="-198" font-family="Helvetica,sans-Serif" font-size="10.00">AP_HAL::BetterStream</text>
<text text-anchor="middle" x="382" y="-186" font-family="Helvetica,sans-Serif" font-size="10.00">::printf</text>
</a>
</g>
</g>
<!-- Node21&#45;&gt;Node22 -->
<g id="edge2" class="edge"><title>Node21&#45;&gt;Node22</title>
<path fill="none" stroke="midnightblue" d="M241.317,-122.087C260.262,-135.921 289.054,-155.825 316,-170 319.751,-171.973 323.687,-173.892 327.687,-175.733"/>
<polygon fill="midnightblue" stroke="midnightblue" points="326.519,-179.043 337.081,-179.88 329.346,-172.64 326.519,-179.043"/>
</g>
<!-- Node30 -->
<g id="node11" class="node"><title>Node30</title>
<g id="a_node11"><a xlink:href="crc_8cpp.html#abe3d4804a4bf6a43485c6a6ffcbceb38" target="_top" xlink:title=" ">
<polygon fill="white" stroke="black" points="327.308,-141 327.308,-161 436.692,-161 436.692,-141 327.308,-141"/>
<text text-anchor="middle" x="382" y="-147" font-family="Helvetica,sans-Serif" font-size="10.00">crc_xmodem_update</text>
</a>
</g>
</g>
<!-- Node21&#45;&gt;Node30 -->
<g id="edge12" class="edge"><title>Node21&#45;&gt;Node30</title>
<path fill="none" stroke="midnightblue" d="M277.67,-122.119C296.376,-127.347 316.874,-133.077 334.647,-138.044"/>
<polygon fill="midnightblue" stroke="midnightblue" points="334.189,-141.55 344.762,-140.871 336.073,-134.809 334.189,-141.55"/>
</g>
<!-- Node31 -->
<g id="node12" class="node"><title>Node31</title>
<g id="a_node12"><a xlink:href="classAP__RCProtocol__SUMD.html#ad1aaec87b9261b00fb1e14385431fece" target="_top" xlink:title=" ">
<polygon fill="white" stroke="black" points="321.483,-90 321.483,-122 442.517,-122 442.517,-90 321.483,-90"/>
<text text-anchor="start" x="329.483" y="-108" font-family="Helvetica,sans-Serif" font-size="10.00">AP_RCProtocol_SUMD</text>
<text text-anchor="middle" x="382" y="-96" font-family="Helvetica,sans-Serif" font-size="10.00">::sumd_crc8</text>
</a>
</g>
</g>
<!-- Node21&#45;&gt;Node31 -->
<g id="edge13" class="edge"><title>Node21&#45;&gt;Node31</title>
<path fill="none" stroke="midnightblue" d="M279.95,-106C290.075,-106 300.665,-106 311.019,-106"/>
<polygon fill="midnightblue" stroke="midnightblue" points="311.268,-109.5 321.268,-106 311.268,-102.5 311.268,-109.5"/>
</g>
<!-- Node32 -->
<g id="node13" class="node"><title>Node32</title>
<g id="a_node13"><a xlink:href="classAP__RCProtocol__Backend.html#a07a0cb46703f289db379e832dad921a0" target="_top" xlink:title=" ">
<polygon fill="white" stroke="black" points="316.747,-39 316.747,-71 447.253,-71 447.253,-39 316.747,-39"/>
<text text-anchor="start" x="324.747" y="-57" font-family="Helvetica,sans-Serif" font-size="10.00">AP_RCProtocol_Backend</text>
<text text-anchor="middle" x="382" y="-45" font-family="Helvetica,sans-Serif" font-size="10.00">::add_input</text>
</a>
</g>
</g>
<!-- Node21&#45;&gt;Node32 -->
<g id="edge14" class="edge"><title>Node21&#45;&gt;Node32</title>
<path fill="none" stroke="midnightblue" d="M270.941,-89.8633C286.657,-84.8849 304.119,-79.3537 320.418,-74.1906"/>
<polygon fill="midnightblue" stroke="midnightblue" points="321.914,-77.3882 330.39,-71.0317 319.8,-70.715 321.914,-77.3882"/>
</g>
<!-- Node23 -->
<g id="node4" class="node"><title>Node23</title>
<g id="a_node4"><a xlink:href="classAP__HAL_1_1BetterStream.html#aa730be451d385d7ba03ee9677e6d91a2" target="_top" xlink:title=" ">
<polygon fill="white" stroke="black" points="484.589,-180 484.589,-212 603.411,-212 603.411,-180 484.589,-180"/>
<text text-anchor="start" x="492.589" y="-198" font-family="Helvetica,sans-Serif" font-size="10.00">AP_HAL::BetterStream</text>
<text text-anchor="middle" x="544" y="-186" font-family="Helvetica,sans-Serif" font-size="10.00">::vprintf</text>
</a>
</g>
</g>
<!-- Node22&#45;&gt;Node23 -->
<g id="edge3" class="edge"><title>Node22&#45;&gt;Node23</title>
<path fill="none" stroke="midnightblue" d="M441.67,-196C452.213,-196 463.29,-196 474.092,-196"/>
<polygon fill="midnightblue" stroke="midnightblue" points="474.338,-199.5 484.338,-196 474.337,-192.5 474.338,-199.5"/>
</g>
<!-- Node24 -->
<g id="node5" class="node"><title>Node24</title>
<g id="a_node5"><a xlink:href="print__vprintf_8cpp.html#a98e0d5bb436a207f576379beaa786040" target="_top" xlink:title=" ">
<polygon fill="white" stroke="black" points="677.877,-186 677.877,-206 746.123,-206 746.123,-186 677.877,-186"/>
<text text-anchor="middle" x="712" y="-192" font-family="Helvetica,sans-Serif" font-size="10.00">print_vprintf</text>
</a>
</g>
</g>
<!-- Node23&#45;&gt;Node24 -->
<g id="edge4" class="edge"><title>Node23&#45;&gt;Node24</title>
<path fill="none" stroke="midnightblue" d="M603.525,-196C624.572,-196 647.925,-196 667.471,-196"/>
<polygon fill="midnightblue" stroke="midnightblue" points="667.606,-199.5 677.606,-196 667.606,-192.5 667.606,-199.5"/>
</g>
<!-- Node25 -->
<g id="node6" class="node"><title>Node25</title>
<g id="a_node6"><a xlink:href="classAP__HAL_1_1BetterStream.html#a915cc01273d4b418c2fb2989fb31a508" target="_top" xlink:title=" ">
<polygon fill="white" stroke="black" points="820.589,-245 820.589,-277 939.411,-277 939.411,-245 820.589,-245"/>
<text text-anchor="start" x="828.589" y="-263" font-family="Helvetica,sans-Serif" font-size="10.00">AP_HAL::BetterStream</text>
<text text-anchor="middle" x="880" y="-251" font-family="Helvetica,sans-Serif" font-size="10.00">::write</text>
</a>
</g>
</g>
<!-- Node24&#45;&gt;Node25 -->
<g id="edge5" class="edge"><title>Node24&#45;&gt;Node25</title>
<path fill="none" stroke="midnightblue" d="M738.574,-206.014C762.454,-215.365 798.776,-229.587 828.496,-241.224"/>
<polygon fill="midnightblue" stroke="midnightblue" points="827.301,-244.515 837.889,-244.902 829.853,-237.997 827.301,-244.515"/>
</g>
<!-- Node26 -->
<g id="node7" class="node"><title>Node26</title>
<g id="a_node7"><a xlink:href="ftoa__engine_8cpp.html#a1c28234da8f20b43c85890d4bb452947" target="_top" xlink:title=" ">
<polygon fill="white" stroke="black" points="845.865,-206 845.865,-226 914.135,-226 914.135,-206 845.865,-206"/>
<text text-anchor="middle" x="880" y="-212" font-family="Helvetica,sans-Serif" font-size="10.00">ftoa_engine</text>
</a>
</g>
</g>
<!-- Node24&#45;&gt;Node26 -->
<g id="edge6" class="edge"><title>Node24&#45;&gt;Node26</title>
<path fill="none" stroke="midnightblue" d="M746.194,-199.999C771.866,-203.092 807.627,-207.401 835.573,-210.768"/>
<polygon fill="midnightblue" stroke="midnightblue" points="835.517,-214.286 845.864,-212.008 836.354,-207.337 835.517,-214.286"/>
</g>
<!-- Node28 -->
<g id="node9" class="node"><title>Node28</title>
<g id="a_node9"><a xlink:href="utoa__invert_8cpp.html#a34926f552460b47c414ec4d83b32815c" target="_top" xlink:title=" ">
<polygon fill="white" stroke="black" points="845.04,-167 845.04,-187 914.96,-187 914.96,-167 845.04,-167"/>
<text text-anchor="middle" x="880" y="-173" font-family="Helvetica,sans-Serif" font-size="10.00">ulltoa_invert</text>
</a>
</g>
</g>
<!-- Node24&#45;&gt;Node28 -->
<g id="edge8" class="edge"><title>Node24&#45;&gt;Node28</title>
<path fill="none" stroke="midnightblue" d="M746.194,-192.201C771.614,-189.291 806.927,-185.249 834.749,-182.065"/>
<polygon fill="midnightblue" stroke="midnightblue" points="835.472,-185.505 845.009,-180.891 834.676,-178.55 835.472,-185.505"/>
</g>
<!-- Node29 -->
<g id="node10" class="node"><title>Node29</title>
<g id="a_node10"><a xlink:href="utoa__invert_8cpp.html#a5d99bba8e697c1e11da489d88fca8559" target="_top" xlink:title=" ">
<polygon fill="white" stroke="black" points="846.15,-128 846.15,-148 913.85,-148 913.85,-128 846.15,-128"/>
<text text-anchor="middle" x="880" y="-134" font-family="Helvetica,sans-Serif" font-size="10.00">ultoa_invert</text>
</a>
</g>
</g>
<!-- Node24&#45;&gt;Node29 -->
<g id="edge10" class="edge"><title>Node24&#45;&gt;Node29</title>
<path fill="none" stroke="midnightblue" d="M741.122,-185.888C762.679,-178.167 793.182,-167.307 820,-158 826.169,-155.859 832.71,-153.616 839.104,-151.437"/>
<polygon fill="midnightblue" stroke="midnightblue" points="840.613,-154.621 848.957,-148.091 838.362,-147.993 840.613,-154.621"/>
</g>
<!-- Node27 -->
<g id="node8" class="node"><title>Node27</title>
<g id="a_node8"><a xlink:href="lstrlib_8c.html#a9605f4d16ae762782f8be8b54aef0a22" target="_top" xlink:title=" ">
<polygon fill="white" stroke="black" points="975.828,-167 975.828,-187 1010.17,-187 1010.17,-167 975.828,-167"/>
<text text-anchor="middle" x="993" y="-173" font-family="Helvetica,sans-Serif" font-size="10.00">digit</text>
</a>
</g>
</g>
<!-- Node26&#45;&gt;Node27 -->
<g id="edge7" class="edge"><title>Node26&#45;&gt;Node27</title>
<path fill="none" stroke="midnightblue" d="M911.062,-205.961C920.355,-202.817 930.615,-199.305 940,-196 948.508,-193.004 957.766,-189.652 966.081,-186.606"/>
<polygon fill="midnightblue" stroke="midnightblue" points="967.465,-189.826 975.641,-183.089 965.048,-183.257 967.465,-189.826"/>
</g>
<!-- Node28&#45;&gt;Node27 -->
<g id="edge9" class="edge"><title>Node28&#45;&gt;Node27</title>
<path fill="none" stroke="midnightblue" d="M915.209,-177C931.407,-177 950.457,-177 965.53,-177"/>
<polygon fill="midnightblue" stroke="midnightblue" points="965.705,-180.5 975.705,-177 965.705,-173.5 965.705,-180.5"/>
</g>
<!-- Node29&#45;&gt;Node27 -->
<g id="edge11" class="edge"><title>Node29&#45;&gt;Node27</title>
<path fill="none" stroke="midnightblue" d="M911.062,-148.039C920.355,-151.183 930.615,-154.695 940,-158 948.508,-160.996 957.766,-164.348 966.081,-167.394"/>
<polygon fill="midnightblue" stroke="midnightblue" points="965.048,-170.743 975.641,-170.911 967.465,-164.174 965.048,-170.743"/>
</g>
<!-- Node33 -->
<g id="node14" class="node"><title>Node33</title>
<g id="a_node14"><a xlink:href="AP__Math_8h.html#a321a91de43cfb2e95d40cde314d0a80f" target="_top" xlink:title=" ">
<polygon fill="white" stroke="black" points="526.835,-65 526.835,-85 561.165,-85 561.165,-65 526.835,-65"/>
<text text-anchor="middle" x="544" y="-71" font-family="Helvetica,sans-Serif" font-size="10.00">MIN</text>
</a>
</g>
</g>
<!-- Node32&#45;&gt;Node33 -->
<g id="edge15" class="edge"><title>Node32&#45;&gt;Node33</title>
<path fill="none" stroke="midnightblue" d="M447.617,-63.0771C471.687,-66.0859 497.688,-69.3361 516.455,-71.6818"/>
<polygon fill="midnightblue" stroke="midnightblue" points="516.242,-75.1824 526.599,-72.9499 517.11,-68.2364 516.242,-75.1824"/>
</g>
<!-- Node34 -->
<g id="node15" class="node"><title>Node34</title>
<g id="a_node15"><a xlink:href="RC__Channel_8h.html#acb66f35c4fe350096704f48e4c651948" target="_top" xlink:title=" ">
<polygon fill="white" stroke="black" points="529.5,-26 529.5,-46 558.5,-46 558.5,-26 529.5,-26"/>
<text text-anchor="middle" x="544" y="-32" font-family="Helvetica,sans-Serif" font-size="10.00">rc</text>
</a>
</g>
</g>
<!-- Node32&#45;&gt;Node34 -->
<g id="edge16" class="edge"><title>Node32&#45;&gt;Node34</title>
<path fill="none" stroke="midnightblue" d="M447.617,-47.3267C472.847,-44.3306 500.199,-41.0826 519.117,-38.8362"/>
<polygon fill="midnightblue" stroke="midnightblue" points="519.683,-42.2936 529.2,-37.6387 518.858,-35.3424 519.683,-42.2936"/>
</g>
<!-- Node35 -->
<g id="node16" class="node"><title>Node35</title>
<g id="a_node16"><a xlink:href="classRC__Channels.html#aff83e1bebc777f76d2c19fc601c40c4f" target="_top" xlink:title=" ">
<polygon fill="white" stroke="black" points="640.348,-26 640.348,-46 783.652,-46 783.652,-26 640.348,-26"/>
<text text-anchor="middle" x="712" y="-32" font-family="Helvetica,sans-Serif" font-size="10.00">RC_Channels::get_singleton</text>
</a>
</g>
</g>
<!-- Node34&#45;&gt;Node35 -->
<g id="edge17" class="edge"><title>Node34&#45;&gt;Node35</title>
<path fill="none" stroke="midnightblue" d="M558.584,-36C574.584,-36 602.493,-36 630.093,-36"/>
<polygon fill="midnightblue" stroke="midnightblue" points="630.225,-39.5001 640.225,-36 630.225,-32.5001 630.225,-39.5001"/>
</g>
<!-- Node37 -->
<g id="node18" class="node"><title>Node37</title>
<g id="a_node18"><a xlink:href="hrt_8c.html#aaec580bcdf1351b82110305f0f6dd437" target="_top" xlink:title=" ">
<polygon fill="white" stroke="black" points="345.101,-0 345.101,-20 418.899,-20 418.899,-0 345.101,-0"/>
<text text-anchor="middle" x="382" y="-6" font-family="Helvetica,sans-Serif" font-size="10.00">hrt_micros32</text>
</a>
</g>
</g>
<!-- Node36&#45;&gt;Node37 -->
<g id="edge19" class="edge"><title>Node36&#45;&gt;Node37</title>
<path fill="none" stroke="midnightblue" d="M263.994,-28.8954C286.036,-25.3359 312.71,-21.0282 335.02,-17.4254"/>
<polygon fill="midnightblue" stroke="midnightblue" points="335.617,-20.8744 344.931,-15.8248 334.501,-13.9639 335.617,-20.8744"/>
</g>
</g>
</svg>
