<?xml version="1.0" encoding="UTF-8" standalone="no"?>
<!DOCTYPE svg PUBLIC "-//W3C//DTD SVG 1.1//EN"
 "http://www.w3.org/Graphics/SVG/1.1/DTD/svg11.dtd">
<!-- Generated by graphviz version 2.30.1 (20130221.2233)
 -->
<!-- Title: AP_Airspeed::healthy Pages: 1 -->
<svg width="518pt" height="157pt"
 viewBox="0.00 0.00 518.00 157.00" xmlns="http://www.w3.org/2000/svg" xmlns:xlink="http://www.w3.org/1999/xlink">
<g id="graph0" class="graph" transform="scale(1 1) rotate(0) translate(4 153)">
<title>AP_Airspeed::healthy</title>
<polygon fill="white" stroke="white" points="-4,5 -4,-153 515,-153 515,5 -4,5"/>
<!-- Node673 -->
<g id="node1" class="node"><title>Node673</title>
<g id="a_node1"><a xlink:title=" ">
<polygon fill="#bfbfbf" stroke="black" points="397.914,-70 397.914,-90 510.086,-90 510.086,-70 397.914,-70"/>
<text text-anchor="middle" x="454" y="-76" font-family="Helvetica,sans-Serif" font-size="10.00">AP_Airspeed::healthy</text>
</a>
</g>
</g>
<!-- Node674 -->
<g id="node2" class="node"><title>Node674</title>
<g id="a_node2"><a xlink:href="classAP__Airspeed.html#a026632eec4016aa6508389cd8ccf385d" target="_top" xlink:title=" ">
<polygon fill="white" stroke="black" points="227.131,-129 227.131,-149 354.869,-149 354.869,-129 227.131,-129"/>
<text text-anchor="middle" x="291" y="-135" font-family="Helvetica,sans-Serif" font-size="10.00">AP_Airspeed::all_healthy</text>
</a>
</g>
</g>
<!-- Node673&#45;&gt;Node674 -->
<g id="edge1" class="edge"><title>Node673&#45;&gt;Node674</title>
<path fill="none" stroke="midnightblue" d="M422.454,-94.2395C404.969,-102.099 382.497,-111.713 362,-119 351.878,-122.599 340.76,-126.013 330.424,-128.968"/>
<polygon fill="midnightblue" stroke="midnightblue" points="423.953,-97.4026 431.61,-90.0798 421.058,-91.0295 423.953,-97.4026"/>
</g>
<!-- Node673&#45;&gt;Node673 -->
<g id="edge2" class="edge"><title>Node673&#45;&gt;Node673</title>
<path fill="none" stroke="midnightblue" d="M484.194,-98.8277C482.752,-104.026 472.688,-108 454,-108 425.523,-108 417.069,-98.7715 428.638,-90.0477"/>
<polygon fill="midnightblue" stroke="midnightblue" points="487.25,-97.1208 479.362,-90.0477 481.117,-100.496 487.25,-97.1208"/>
</g>
<!-- Node675 -->
<g id="node3" class="node"><title>Node675</title>
<g id="a_node3"><a xlink:href="classAP__Airspeed.html#ac4301d128dccde68d647bc3c191d6461" target="_top" xlink:title=" ">
<polygon fill="white" stroke="black" points="220.18,-90 220.18,-110 361.82,-110 361.82,-90 220.18,-90"/>
<text text-anchor="middle" x="291" y="-96" font-family="Helvetica,sans-Serif" font-size="10.00">AP_Airspeed::Log_Airspeed</text>
</a>
</g>
</g>
<!-- Node673&#45;&gt;Node675 -->
<g id="edge3" class="edge"><title>Node673&#45;&gt;Node675</title>
<path fill="none" stroke="midnightblue" d="M387.491,-88.1378C379.096,-89.1806 370.476,-90.2514 362.013,-91.3027"/>
<polygon fill="midnightblue" stroke="midnightblue" points="388.101,-91.589 397.593,-86.8829 387.238,-84.6424 388.101,-91.589"/>
</g>
<!-- Node676 -->
<g id="node4" class="node"><title>Node676</title>
<g id="a_node4"><a xlink:href="classAP__Airspeed.html#acbfd9b9539ea2e60f1e6f69509cae1e4" target="_top" xlink:title=" ">
<polygon fill="white" stroke="black" points="72.7441,-70 72.7441,-90 183.256,-90 183.256,-70 72.7441,-70"/>
<text text-anchor="middle" x="128" y="-76" font-family="Helvetica,sans-Serif" font-size="10.00">AP_Airspeed::update</text>
</a>
</g>
</g>
<!-- Node673&#45;&gt;Node676 -->
<g id="edge6" class="edge"><title>Node673&#45;&gt;Node676</title>
<path fill="none" stroke="midnightblue" d="M387.538,-80C327.476,-80 239.543,-80 183.291,-80"/>
<polygon fill="midnightblue" stroke="midnightblue" points="387.671,-83.5001 397.671,-80 387.671,-76.5001 387.671,-83.5001"/>
</g>
<!-- Node678 -->
<g id="node6" class="node"><title>Node678</title>
<g id="a_node6"><a xlink:href="classAP__Airspeed.html#a4fcbb494a95e1043ef3242d7524cce90" target="_top" xlink:title=" ">
<polygon fill="white" stroke="black" points="235.744,-0 235.744,-32 346.256,-32 346.256,-0 235.744,-0"/>
<text text-anchor="start" x="243.744" y="-18" font-family="Helvetica,sans-Serif" font-size="10.00">AP_Airspeed::update</text>
<text text-anchor="middle" x="291" y="-6" font-family="Helvetica,sans-Serif" font-size="10.00">_calibration</text>
</a>
</g>
</g>
<!-- Node673&#45;&gt;Node678 -->
<g id="edge7" class="edge"><title>Node673&#45;&gt;Node678</title>
<path fill="none" stroke="midnightblue" d="M417.968,-66.074C392.789,-56.0651 358.78,-42.5459 332.445,-32.0776"/>
<polygon fill="midnightblue" stroke="midnightblue" points="416.903,-69.4174 427.489,-69.859 419.489,-62.9125 416.903,-69.4174"/>
</g>
<!-- Node675&#45;&gt;Node676 -->
<g id="edge4" class="edge"><title>Node675&#45;&gt;Node676</title>
<path fill="none" stroke="midnightblue" d="M209.793,-90.0364C200.861,-88.9268 191.925,-87.8167 183.423,-86.7606"/>
<polygon fill="midnightblue" stroke="midnightblue" points="209.496,-93.5263 219.851,-91.2859 210.359,-86.5797 209.496,-93.5263"/>
</g>
<!-- Node677 -->
<g id="node5" class="node"><title>Node677</title>
<g id="a_node5"><a xlink:href="Airspeed_8cpp.html#afe461d27b9c48d5921c00d521181f12f" target="_top" xlink:title=" ">
<polygon fill="white" stroke="black" points="0.546875,-70 0.546875,-90 35.4531,-90 35.4531,-70 0.546875,-70"/>
<text text-anchor="middle" x="18" y="-76" font-family="Helvetica,sans-Serif" font-size="10.00">loop</text>
</a>
</g>
</g>
<!-- Node676&#45;&gt;Node677 -->
<g id="edge5" class="edge"><title>Node676&#45;&gt;Node677</title>
<path fill="none" stroke="midnightblue" d="M62.6553,-80C52.7362,-80 43.3009,-80 35.7565,-80"/>
<polygon fill="midnightblue" stroke="midnightblue" points="62.6836,-83.5001 72.6836,-80 62.6836,-76.5001 62.6836,-83.5001"/>
</g>
</g>
</svg>
