<?xml version="1.0" encoding="UTF-8" standalone="no"?>
<!DOCTYPE svg PUBLIC "-//W3C//DTD SVG 1.1//EN"
 "http://www.w3.org/Graphics/SVG/1.1/DTD/svg11.dtd">
<!-- Generated by graphviz version 2.30.1 (20130221.2233)
 -->
<!-- Title: Quaternion::rotate Pages: 1 -->
<svg width="340pt" height="40pt"
 viewBox="0.00 0.00 340.00 40.00" xmlns="http://www.w3.org/2000/svg" xmlns:xlink="http://www.w3.org/1999/xlink">
<g id="graph0" class="graph" transform="scale(1 1) rotate(0) translate(4 36)">
<title>Quaternion::rotate</title>
<polygon fill="white" stroke="white" points="-4,5 -4,-36 337,-36 337,5 -4,5"/>
<!-- Node851 -->
<g id="node1" class="node"><title>Node851</title>
<g id="a_node1"><a xlink:title=" ">
<polygon fill="#bfbfbf" stroke="black" points="0.697266,-6 0.697266,-26 97.3027,-26 97.3027,-6 0.697266,-6"/>
<text text-anchor="middle" x="49" y="-12" font-family="Helvetica,sans-Serif" font-size="10.00">Quaternion::rotate</text>
</a>
</g>
</g>
<!-- Node852 -->
<g id="node2" class="node"><title>Node852</title>
<g id="a_node2"><a xlink:href="classQuaternion.html#a6c21fe33378aa16a33cba869ba4af5dc" target="_top" xlink:title=" ">
<polygon fill="white" stroke="black" points="133.811,-0 133.811,-32 248.189,-32 248.189,-0 133.811,-0"/>
<text text-anchor="start" x="141.811" y="-18" font-family="Helvetica,sans-Serif" font-size="10.00">Quaternion::from_axis</text>
<text text-anchor="middle" x="191" y="-6" font-family="Helvetica,sans-Serif" font-size="10.00">_angle</text>
</a>
</g>
</g>
<!-- Node851&#45;&gt;Node852 -->
<g id="edge1" class="edge"><title>Node851&#45;&gt;Node852</title>
<path fill="none" stroke="midnightblue" d="M97.3976,-16C105.722,-16 114.524,-16 123.258,-16"/>
<polygon fill="midnightblue" stroke="midnightblue" points="123.448,-19.5001 133.448,-16 123.448,-12.5001 123.448,-19.5001"/>
</g>
<!-- Node853 -->
<g id="node3" class="node"><title>Node853</title>
<g id="a_node3"><a xlink:href="AP__Math_8h.html#a2a12cce483e9b870da70d30406d82c60" target="_top" xlink:title=" ">
<polygon fill="white" stroke="black" points="283.882,-6 283.882,-26 332.118,-26 332.118,-6 283.882,-6"/>
<text text-anchor="middle" x="308" y="-12" font-family="Helvetica,sans-Serif" font-size="10.00">is_zero</text>
</a>
</g>
</g>
<!-- Node852&#45;&gt;Node853 -->
<g id="edge2" class="edge"><title>Node852&#45;&gt;Node853</title>
<path fill="none" stroke="midnightblue" d="M248.489,-16C257.081,-16 265.702,-16 273.586,-16"/>
<polygon fill="midnightblue" stroke="midnightblue" points="273.808,-19.5001 283.808,-16 273.808,-12.5001 273.808,-19.5001"/>
</g>
</g>
</svg>
