<?xml version="1.0" encoding="UTF-8" standalone="no"?>
<!DOCTYPE svg PUBLIC "-//W3C//DTD SVG 1.1//EN"
 "http://www.w3.org/Graphics/SVG/1.1/DTD/svg11.dtd">
<!-- Generated by graphviz version 2.30.1 (20130221.2233)
 -->
<!-- Title: AP_Airspeed::get_singleton Pages: 1 -->
<svg width="2162pt" height="486pt"
 viewBox="0.00 0.00 2162.00 486.00" xmlns="http://www.w3.org/2000/svg" xmlns:xlink="http://www.w3.org/1999/xlink">
<g id="graph0" class="graph" transform="scale(1 1) rotate(0) translate(4 482)">
<title>AP_Airspeed::get_singleton</title>
<polygon fill="white" stroke="white" points="-4,5 -4,-482 2159,-482 2159,5 -4,5"/>
<!-- Node500 -->
<g id="node1" class="node"><title>Node500</title>
<g id="a_node1"><a xlink:title=" ">
<polygon fill="#bfbfbf" stroke="black" points="2014.29,-260 2014.29,-280 2153.71,-280 2153.71,-260 2014.29,-260"/>
<text text-anchor="middle" x="2084" y="-266" font-family="Helvetica,sans-Serif" font-size="10.00">AP_Airspeed::get_singleton</text>
</a>
</g>
</g>
<!-- Node501 -->
<g id="node2" class="node"><title>Node501</title>
<g id="a_node2"><a xlink:href="structGCS__MAVLINK.html#ab18a4f9e78055494fc43c9665b6644a5" target="_top" xlink:title=" ">
<polygon fill="white" stroke="black" points="1794.34,-446 1794.34,-478 1977.66,-478 1977.66,-446 1794.34,-446"/>
<text text-anchor="start" x="1802.34" y="-464" font-family="Helvetica,sans-Serif" font-size="10.00">GCS_MAVLINK::_handle</text>
<text text-anchor="middle" x="1886" y="-452" font-family="Helvetica,sans-Serif" font-size="10.00">_command_preflight_calibration_baro</text>
</a>
</g>
</g>
<!-- Node500&#45;&gt;Node501 -->
<g id="edge1" class="edge"><title>Node500&#45;&gt;Node501</title>
<path fill="none" stroke="midnightblue" d="M2075.88,-289.998C2062.38,-324.994 2029.71,-397.296 1978,-436 1972.87,-439.84 1967.19,-443.113 1961.25,-445.904"/>
<polygon fill="midnightblue" stroke="midnightblue" points="2079.24,-291.005 2079.45,-280.413 2072.68,-288.56 2079.24,-291.005"/>
</g>
<!-- Node507 -->
<g id="node8" class="node"><title>Node507</title>
<g id="a_node8"><a xlink:href="namespaceAP.html#a8d01caed65921a37d8d68f70ac255aa5" target="_top" xlink:title=" ">
<polygon fill="white" stroke="black" points="1849.37,-407 1849.37,-427 1922.63,-427 1922.63,-407 1849.37,-407"/>
<text text-anchor="middle" x="1886" y="-413" font-family="Helvetica,sans-Serif" font-size="10.00">AP::airspeed</text>
</a>
</g>
</g>
<!-- Node500&#45;&gt;Node507 -->
<g id="edge7" class="edge"><title>Node500&#45;&gt;Node507</title>
<path fill="none" stroke="midnightblue" d="M2072.78,-289.09C2056.61,-317.362 2022.34,-369.929 1978,-397 1961.43,-407.115 1940.4,-412.142 1922.73,-414.628"/>
<polygon fill="midnightblue" stroke="midnightblue" points="2075.93,-290.625 2077.74,-280.185 2069.82,-287.223 2075.93,-290.625"/>
</g>
<!-- Node508 -->
<g id="node9" class="node"><title>Node508</title>
<g id="a_node9"><a xlink:href="classAP__Arming.html#a2b7ca6e3c7517feca088b28d45f2fc61" target="_top" xlink:title=" ">
<polygon fill="white" stroke="black" points="1830.75,-356 1830.75,-388 1941.25,-388 1941.25,-356 1830.75,-356"/>
<text text-anchor="start" x="1838.75" y="-374" font-family="Helvetica,sans-Serif" font-size="10.00">AP_Arming::airspeed</text>
<text text-anchor="middle" x="1886" y="-362" font-family="Helvetica,sans-Serif" font-size="10.00">_checks</text>
</a>
</g>
</g>
<!-- Node500&#45;&gt;Node508 -->
<g id="edge8" class="edge"><title>Node500&#45;&gt;Node508</title>
<path fill="none" stroke="midnightblue" d="M2064.14,-286.809C2044.07,-303.903 2010.76,-330.076 1978,-346 1966.62,-351.531 1953.85,-356.086 1941.56,-359.753"/>
<polygon fill="midnightblue" stroke="midnightblue" points="2066.62,-289.289 2071.89,-280.096 2062.04,-283.998 2066.62,-289.289"/>
</g>
<!-- Node509 -->
<g id="node10" class="node"><title>Node509</title>
<g id="a_node10"><a xlink:href="classAP__OSD__Screen.html#ade33ff212f56d235bfe1921eb48363b1" target="_top" xlink:title=" ">
<polygon fill="white" stroke="black" points="1825.48,-305 1825.48,-337 1946.52,-337 1946.52,-305 1825.48,-305"/>
<text text-anchor="start" x="1833.48" y="-323" font-family="Helvetica,sans-Serif" font-size="10.00">AP_OSD_Screen::draw</text>
<text text-anchor="middle" x="1886" y="-311" font-family="Helvetica,sans-Serif" font-size="10.00">_aspd2</text>
</a>
</g>
</g>
<!-- Node500&#45;&gt;Node509 -->
<g id="edge9" class="edge"><title>Node500&#45;&gt;Node509</title>
<path fill="none" stroke="midnightblue" d="M2034.47,-282.628C2007.98,-289.521 1974.95,-298.114 1946.87,-305.421"/>
<polygon fill="midnightblue" stroke="midnightblue" points="2035.48,-285.981 2044.28,-280.076 2033.72,-279.207 2035.48,-285.981"/>
</g>
<!-- Node510 -->
<g id="node11" class="node"><title>Node510</title>
<g id="a_node11"><a xlink:href="classAP__OSD__Screen.html#a6951a62893c02d15e1e0badf882495c6" target="_top" xlink:title=" ">
<polygon fill="white" stroke="black" points="1825.48,-254 1825.48,-286 1946.52,-286 1946.52,-254 1825.48,-254"/>
<text text-anchor="start" x="1833.48" y="-272" font-family="Helvetica,sans-Serif" font-size="10.00">AP_OSD_Screen::draw</text>
<text text-anchor="middle" x="1886" y="-260" font-family="Helvetica,sans-Serif" font-size="10.00">_atemp</text>
</a>
</g>
</g>
<!-- Node500&#45;&gt;Node510 -->
<g id="edge10" class="edge"><title>Node500&#45;&gt;Node510</title>
<path fill="none" stroke="midnightblue" d="M2003.96,-270C1984.8,-270 1964.63,-270 1946.54,-270"/>
<polygon fill="midnightblue" stroke="midnightblue" points="2004.17,-273.5 2014.17,-270 2004.17,-266.5 2004.17,-273.5"/>
</g>
<!-- Node511 -->
<g id="node12" class="node"><title>Node511</title>
<g id="a_node12"><a xlink:href="classAP__Baro.html#a8affc3caba94e5dc21192f39a04a8b69" target="_top" xlink:title=" ">
<polygon fill="white" stroke="black" points="1827.69,-203 1827.69,-235 1944.31,-235 1944.31,-203 1827.69,-203"/>
<text text-anchor="start" x="1835.69" y="-221" font-family="Helvetica,sans-Serif" font-size="10.00">AP_Baro::get_external</text>
<text text-anchor="middle" x="1886" y="-209" font-family="Helvetica,sans-Serif" font-size="10.00">_temperature</text>
</a>
</g>
</g>
<!-- Node500&#45;&gt;Node511 -->
<g id="edge11" class="edge"><title>Node500&#45;&gt;Node511</title>
<path fill="none" stroke="midnightblue" d="M2034.58,-257.401C2007.35,-250.317 1973.19,-241.428 1944.6,-233.987"/>
<polygon fill="midnightblue" stroke="midnightblue" points="2033.72,-260.793 2044.28,-259.924 2035.48,-254.019 2033.72,-260.793"/>
</g>
<!-- Node512 -->
<g id="node13" class="node"><title>Node512</title>
<g id="a_node13"><a xlink:href="structGCS__MAVLINK.html#a9ffa2d0359bf7dd8b3607617938a510f" target="_top" xlink:title=" ">
<polygon fill="white" stroke="black" points="1811.95,-50 1811.95,-82 1960.05,-82 1960.05,-50 1811.95,-50"/>
<text text-anchor="start" x="1819.95" y="-68" font-family="Helvetica,sans-Serif" font-size="10.00">GCS_MAVLINK::send_scaled</text>
<text text-anchor="middle" x="1886" y="-56" font-family="Helvetica,sans-Serif" font-size="10.00">_pressure_instance</text>
</a>
</g>
</g>
<!-- Node500&#45;&gt;Node512 -->
<g id="edge12" class="edge"><title>Node500&#45;&gt;Node512</title>
<path fill="none" stroke="midnightblue" d="M2076.89,-249.949C2064.52,-212.77 2032.9,-133.104 1978,-91 1972.67,-86.9123 1966.71,-83.4926 1960.47,-80.632"/>
<polygon fill="midnightblue" stroke="midnightblue" points="2073.61,-251.185 2080,-259.64 2080.28,-249.049 2073.61,-251.185"/>
</g>
<!-- Node537 -->
<g id="node38" class="node"><title>Node537</title>
<g id="a_node38"><a xlink:href="classAP__WindVane__Airspeed.html#a99b638c9e5265f5256f738b6cc01ec6a" target="_top" xlink:title=" ">
<polygon fill="white" stroke="black" points="1823.33,-101 1823.33,-133 1948.67,-133 1948.67,-101 1823.33,-101"/>
<text text-anchor="start" x="1831.33" y="-119" font-family="Helvetica,sans-Serif" font-size="10.00">AP_WindVane_Airspeed</text>
<text text-anchor="middle" x="1886" y="-107" font-family="Helvetica,sans-Serif" font-size="10.00">::update_speed</text>
</a>
</g>
</g>
<!-- Node500&#45;&gt;Node537 -->
<g id="edge42" class="edge"><title>Node500&#45;&gt;Node537</title>
<path fill="none" stroke="midnightblue" d="M2072.64,-251.049C2056.28,-222.929 2021.77,-170.426 1978,-142 1969.21,-136.289 1959.12,-131.871 1948.94,-128.457"/>
<polygon fill="midnightblue" stroke="midnightblue" points="2069.68,-252.925 2077.65,-259.899 2075.77,-249.473 2069.68,-252.925"/>
</g>
<!-- Node538 -->
<g id="node39" class="node"><title>Node538</title>
<g id="a_node39"><a xlink:href="structGCS__MAVLINK.html#adb3b41a33f84e6f33bda6ffca0a39f46" target="_top" xlink:title=" ">
<polygon fill="white" stroke="black" points="1823.35,-152 1823.35,-184 1948.65,-184 1948.65,-152 1823.35,-152"/>
<text text-anchor="start" x="1831.35" y="-170" font-family="Helvetica,sans-Serif" font-size="10.00">GCS_MAVLINK::vfr_hud</text>
<text text-anchor="middle" x="1886" y="-158" font-family="Helvetica,sans-Serif" font-size="10.00">_airspeed</text>
</a>
</g>
</g>
<!-- Node500&#45;&gt;Node538 -->
<g id="edge43" class="edge"><title>Node500&#45;&gt;Node538</title>
<path fill="none" stroke="midnightblue" d="M2064.54,-253.169C2044.57,-235.789 2011.12,-209.017 1978,-193 1968.86,-188.578 1958.8,-184.831 1948.82,-181.692"/>
<polygon fill="midnightblue" stroke="midnightblue" points="2062.43,-255.973 2072.23,-259.983 2067.07,-250.733 2062.43,-255.973"/>
</g>
<!-- Node502 -->
<g id="node3" class="node"><title>Node502</title>
<g id="a_node3"><a xlink:href="structGCS__MAVLINK.html#a60c3c7ed1d9e0a9d298fac37c688763b" target="_top" xlink:title=" ">
<polygon fill="white" stroke="black" points="1600.13,-415 1600.13,-447 1757.87,-447 1757.87,-415 1600.13,-415"/>
<text text-anchor="start" x="1608.13" y="-433" font-family="Helvetica,sans-Serif" font-size="10.00">GCS_MAVLINK::_handle</text>
<text text-anchor="middle" x="1679" y="-421" font-family="Helvetica,sans-Serif" font-size="10.00">_command_preflight_calibration</text>
</a>
</g>
</g>
<!-- Node501&#45;&gt;Node502 -->
<g id="edge2" class="edge"><title>Node501&#45;&gt;Node502</title>
<path fill="none" stroke="midnightblue" d="M1784.23,-446.761C1775.38,-445.424 1766.52,-444.084 1757.91,-442.781"/>
<polygon fill="midnightblue" stroke="midnightblue" points="1783.78,-450.233 1794.19,-448.268 1784.82,-443.312 1783.78,-450.233"/>
</g>
<!-- Node503 -->
<g id="node4" class="node"><title>Node503</title>
<g id="a_node4"><a xlink:href="structGCS__MAVLINK.html#a562b2955a49da7d782d3f55ed8e021c9" target="_top" xlink:title=" ">
<polygon fill="white" stroke="black" points="1406.13,-385 1406.13,-417 1563.87,-417 1563.87,-385 1406.13,-385"/>
<text text-anchor="start" x="1414.13" y="-403" font-family="Helvetica,sans-Serif" font-size="10.00">GCS_MAVLINK::handle</text>
<text text-anchor="middle" x="1485" y="-391" font-family="Helvetica,sans-Serif" font-size="10.00">_command_preflight_calibration</text>
</a>
</g>
</g>
<!-- Node502&#45;&gt;Node503 -->
<g id="edge3" class="edge"><title>Node502&#45;&gt;Node503</title>
<path fill="none" stroke="midnightblue" d="M1589.85,-417.226C1581.23,-415.88 1572.53,-414.52 1564.02,-413.191"/>
<polygon fill="midnightblue" stroke="midnightblue" points="1589.49,-420.712 1599.91,-418.798 1590.57,-413.796 1589.49,-420.712"/>
</g>
<!-- Node504 -->
<g id="node5" class="node"><title>Node504</title>
<g id="a_node5"><a xlink:href="structGCS__MAVLINK.html#a29e2941413d50ab63cd70f5beadef19a" target="_top" xlink:title=" ">
<polygon fill="white" stroke="black" points="1040.52,-181 1040.52,-213 1165.48,-213 1165.48,-181 1040.52,-181"/>
<text text-anchor="start" x="1048.52" y="-199" font-family="Helvetica,sans-Serif" font-size="10.00">GCS_MAVLINK::handle</text>
<text text-anchor="middle" x="1103" y="-187" font-family="Helvetica,sans-Serif" font-size="10.00">_command_long_packet</text>
</a>
</g>
</g>
<!-- Node503&#45;&gt;Node504 -->
<g id="edge4" class="edge"><title>Node503&#45;&gt;Node504</title>
<path fill="none" stroke="midnightblue" d="M1444.93,-380.023C1368.79,-339.153 1202.1,-249.664 1133.94,-213.074"/>
<polygon fill="midnightblue" stroke="midnightblue" points="1443.72,-383.346 1454.18,-384.992 1447.03,-377.179 1443.72,-383.346"/>
</g>
<!-- Node505 -->
<g id="node6" class="node"><title>Node505</title>
<g id="a_node6"><a xlink:href="structGCS__MAVLINK.html#abc79cdd8393234b66f2e8217a527f8f9" target="_top" xlink:title=" ">
<polygon fill="white" stroke="black" points="870.009,-181 870.009,-213 991.991,-213 991.991,-181 870.009,-181"/>
<text text-anchor="start" x="878.009" y="-199" font-family="Helvetica,sans-Serif" font-size="10.00">GCS_MAVLINK::handle</text>
<text text-anchor="middle" x="931" y="-187" font-family="Helvetica,sans-Serif" font-size="10.00">_command_long</text>
</a>
</g>
</g>
<!-- Node504&#45;&gt;Node505 -->
<g id="edge5" class="edge"><title>Node504&#45;&gt;Node505</title>
<path fill="none" stroke="midnightblue" d="M1030.1,-197C1017.45,-197 1004.4,-197 992.105,-197"/>
<polygon fill="midnightblue" stroke="midnightblue" points="1030.15,-200.5 1040.15,-197 1030.15,-193.5 1030.15,-200.5"/>
</g>
<!-- Node506 -->
<g id="node7" class="node"><title>Node506</title>
<g id="a_node7"><a xlink:href="structGCS__MAVLINK.html#a13da94a2548ade6552a5250eb3251e89" target="_top" xlink:title=" ">
<polygon fill="white" stroke="black" points="710.009,-158 710.009,-190 831.991,-190 831.991,-158 710.009,-158"/>
<text text-anchor="start" x="718.009" y="-176" font-family="Helvetica,sans-Serif" font-size="10.00">GCS_MAVLINK::handle</text>
<text text-anchor="middle" x="771" y="-164" font-family="Helvetica,sans-Serif" font-size="10.00">_common_message</text>
</a>
</g>
</g>
<!-- Node505&#45;&gt;Node506 -->
<g id="edge6" class="edge"><title>Node505&#45;&gt;Node506</title>
<path fill="none" stroke="midnightblue" d="M859.834,-186.786C850.553,-185.435 841.106,-184.06 832.016,-182.737"/>
<polygon fill="midnightblue" stroke="midnightblue" points="859.416,-190.262 869.816,-188.239 860.425,-183.335 859.416,-190.262"/>
</g>
<!-- Node513 -->
<g id="node14" class="node"><title>Node513</title>
<g id="a_node14"><a xlink:href="structGCS__MAVLINK.html#af9bb82ea69a50e86660dfc8d0076153c" target="_top" xlink:title=" ">
<polygon fill="white" stroke="black" points="1604.95,-5 1604.95,-37 1753.05,-37 1753.05,-5 1604.95,-5"/>
<text text-anchor="start" x="1612.95" y="-23" font-family="Helvetica,sans-Serif" font-size="10.00">GCS_MAVLINK::send_scaled</text>
<text text-anchor="middle" x="1679" y="-11" font-family="Helvetica,sans-Serif" font-size="10.00">_pressure</text>
</a>
</g>
</g>
<!-- Node512&#45;&gt;Node513 -->
<g id="edge13" class="edge"><title>Node512&#45;&gt;Node513</title>
<path fill="none" stroke="midnightblue" d="M1801.9,-47.7585C1785.74,-44.2119 1768.92,-40.5188 1753.11,-37.0493"/>
<polygon fill="midnightblue" stroke="midnightblue" points="1801.34,-51.219 1811.86,-49.9445 1802.84,-44.3818 1801.34,-51.219"/>
</g>
<!-- Node535 -->
<g id="node36" class="node"><title>Node535</title>
<g id="a_node36"><a xlink:href="structGCS__MAVLINK.html#a76ce47aa6ba6b03708dc5632bc9785f3" target="_top" xlink:title=" ">
<polygon fill="white" stroke="black" points="1604.95,-107 1604.95,-139 1753.05,-139 1753.05,-107 1604.95,-107"/>
<text text-anchor="start" x="1612.95" y="-125" font-family="Helvetica,sans-Serif" font-size="10.00">GCS_MAVLINK::send_scaled</text>
<text text-anchor="middle" x="1679" y="-113" font-family="Helvetica,sans-Serif" font-size="10.00">_pressure2</text>
</a>
</g>
</g>
<!-- Node512&#45;&gt;Node535 -->
<g id="edge38" class="edge"><title>Node512&#45;&gt;Node535</title>
<path fill="none" stroke="midnightblue" d="M1816.36,-84.8122C1808.82,-86.8942 1801.24,-88.9881 1794,-91 1775.38,-96.1706 1755.07,-101.858 1736.81,-106.987"/>
<polygon fill="midnightblue" stroke="midnightblue" points="1817.53,-88.1206 1826.24,-82.0902 1815.67,-81.372 1817.53,-88.1206"/>
</g>
<!-- Node536 -->
<g id="node37" class="node"><title>Node536</title>
<g id="a_node37"><a xlink:href="structGCS__MAVLINK.html#ab18dbbbce41d8a78d46a9b477ca43d07" target="_top" xlink:title=" ">
<polygon fill="white" stroke="black" points="1604.95,-56 1604.95,-88 1753.05,-88 1753.05,-56 1604.95,-56"/>
<text text-anchor="start" x="1612.95" y="-74" font-family="Helvetica,sans-Serif" font-size="10.00">GCS_MAVLINK::send_scaled</text>
<text text-anchor="middle" x="1679" y="-62" font-family="Helvetica,sans-Serif" font-size="10.00">_pressure3</text>
</a>
</g>
</g>
<!-- Node512&#45;&gt;Node536 -->
<g id="edge40" class="edge"><title>Node512&#45;&gt;Node536</title>
<path fill="none" stroke="midnightblue" d="M1801.44,-68.4456C1785.43,-68.9144 1768.77,-69.4019 1753.11,-69.8601"/>
<polygon fill="midnightblue" stroke="midnightblue" points="1801.97,-71.9319 1811.86,-68.1407 1801.76,-64.9349 1801.97,-71.9319"/>
</g>
<!-- Node514 -->
<g id="node15" class="node"><title>Node514</title>
<g id="a_node15"><a xlink:href="structGCS__MAVLINK.html#a30034cdbd89bcfb86392411f9b5935db" target="_top" xlink:title=" ">
<polygon fill="white" stroke="black" points="1419.85,-107 1419.85,-139 1550.15,-139 1550.15,-107 1419.85,-107"/>
<text text-anchor="start" x="1427.85" y="-125" font-family="Helvetica,sans-Serif" font-size="10.00">GCS_MAVLINK::try_send</text>
<text text-anchor="middle" x="1485" y="-113" font-family="Helvetica,sans-Serif" font-size="10.00">_message</text>
</a>
</g>
</g>
<!-- Node513&#45;&gt;Node514 -->
<g id="edge14" class="edge"><title>Node513&#45;&gt;Node514</title>
<path fill="none" stroke="midnightblue" d="M1611.86,-40.7244C1607.8,-42.3882 1603.81,-44.148 1600,-46 1564.77,-63.1114 1527.89,-89.8997 1505.94,-106.944"/>
<polygon fill="midnightblue" stroke="midnightblue" points="1613.37,-43.8917 1621.43,-37.018 1610.84,-37.3636 1613.37,-43.8917"/>
</g>
<!-- Node515 -->
<g id="node16" class="node"><title>Node515</title>
<g id="a_node16"><a xlink:href="structGCS__MAVLINK.html#ae94077536892270b4a40e5bcddb1c2f9" target="_top" xlink:title=" ">
<polygon fill="white" stroke="black" points="1232.13,-85 1232.13,-117 1351.87,-117 1351.87,-85 1232.13,-85"/>
<text text-anchor="start" x="1240.13" y="-103" font-family="Helvetica,sans-Serif" font-size="10.00">GCS_MAVLINK::do_try</text>
<text text-anchor="middle" x="1292" y="-91" font-family="Helvetica,sans-Serif" font-size="10.00">_send_message</text>
</a>
</g>
</g>
<!-- Node514&#45;&gt;Node515 -->
<g id="edge15" class="edge"><title>Node514&#45;&gt;Node515</title>
<path fill="none" stroke="midnightblue" d="M1409.45,-114.413C1390.38,-112.217 1370.14,-109.885 1351.97,-107.793"/>
<polygon fill="midnightblue" stroke="midnightblue" points="1409.27,-117.915 1419.6,-115.582 1410.07,-110.961 1409.27,-117.915"/>
</g>
<!-- Node532 -->
<g id="node33" class="node"><title>Node532</title>
<g id="a_node33"><a xlink:href="structGCS__MAVLINK.html#af12f472c624f3c0735b082c982e7ec42" target="_top" xlink:title=" ">
<polygon fill="white" stroke="black" points="1040.9,-130 1040.9,-162 1165.1,-162 1165.1,-130 1040.9,-130"/>
<text text-anchor="start" x="1048.9" y="-148" font-family="Helvetica,sans-Serif" font-size="10.00">GCS_MAVLINK::set_ekf</text>
<text text-anchor="middle" x="1103" y="-136" font-family="Helvetica,sans-Serif" font-size="10.00">_origin</text>
</a>
</g>
</g>
<!-- Node514&#45;&gt;Node532 -->
<g id="edge33" class="edge"><title>Node514&#45;&gt;Node532</title>
<path fill="none" stroke="midnightblue" d="M1409.28,-127.523C1337.96,-131.839 1231.8,-138.265 1165.31,-142.289"/>
<polygon fill="midnightblue" stroke="midnightblue" points="1409.77,-130.999 1419.54,-126.902 1409.34,-124.012 1409.77,-130.999"/>
</g>
<!-- Node534 -->
<g id="node35" class="node"><title>Node534</title>
<g id="a_node35"><a xlink:href="structGCS__MAVLINK.html#a256bd83477e0d72b40300bf1d7207750" target="_top" xlink:title=" ">
<polygon fill="white" stroke="black" points="1214.23,-178 1214.23,-210 1369.77,-210 1369.77,-178 1214.23,-178"/>
<text text-anchor="start" x="1222.23" y="-196" font-family="Helvetica,sans-Serif" font-size="10.00">GCS_MAVLINK::handle</text>
<text text-anchor="middle" x="1292" y="-184" font-family="Helvetica,sans-Serif" font-size="10.00">_command_get_home_position</text>
</a>
</g>
</g>
<!-- Node514&#45;&gt;Node534 -->
<g id="edge36" class="edge"><title>Node514&#45;&gt;Node534</title>
<path fill="none" stroke="midnightblue" d="M1431.21,-142.622C1401.3,-153.743 1364.34,-167.481 1336.17,-177.953"/>
<polygon fill="midnightblue" stroke="midnightblue" points="1432.51,-145.876 1440.66,-139.111 1430.07,-139.315 1432.51,-145.876"/>
</g>
<!-- Node516 -->
<g id="node17" class="node"><title>Node516</title>
<g id="a_node17"><a xlink:href="structGCS__MAVLINK.html#a97b3a94ebc165ee34ee93b26e2dee23d" target="_top" xlink:title=" ">
<polygon fill="white" stroke="black" points="1028.11,-91 1028.11,-111 1177.89,-111 1177.89,-91 1028.11,-91"/>
<text text-anchor="middle" x="1103" y="-97" font-family="Helvetica,sans-Serif" font-size="10.00">GCS_MAVLINK::update_send</text>
</a>
</g>
</g>
<!-- Node515&#45;&gt;Node516 -->
<g id="edge16" class="edge"><title>Node515&#45;&gt;Node516</title>
<path fill="none" stroke="midnightblue" d="M1221.87,-101C1207.6,-101 1192.52,-101 1178.09,-101"/>
<polygon fill="midnightblue" stroke="midnightblue" points="1222.09,-104.5 1232.09,-101 1222.09,-97.5001 1222.09,-104.5"/>
</g>
<!-- Node517 -->
<g id="node18" class="node"><title>Node517</title>
<g id="a_node18"><a xlink:href="classGCS.html#a07a8ce284513a8ce8336b085d0b8aadf" target="_top" xlink:title=" ">
<polygon fill="white" stroke="black" points="880.471,-91 880.471,-111 981.529,-111 981.529,-91 880.471,-91"/>
<text text-anchor="middle" x="931" y="-97" font-family="Helvetica,sans-Serif" font-size="10.00">GCS::update_send</text>
</a>
</g>
</g>
<!-- Node516&#45;&gt;Node517 -->
<g id="edge17" class="edge"><title>Node516&#45;&gt;Node517</title>
<path fill="none" stroke="midnightblue" d="M1017.66,-101C1005.41,-101 993.139,-101 981.868,-101"/>
<polygon fill="midnightblue" stroke="midnightblue" points="1017.93,-104.5 1027.93,-101 1017.93,-97.5001 1017.93,-104.5"/>
</g>
<!-- Node518 -->
<g id="node19" class="node"><title>Node518</title>
<g id="a_node19"><a xlink:href="classAP__BoardConfig.html#ab7d977aecbbe7090266bee755bf2cc32" target="_top" xlink:title=" ">
<polygon fill="white" stroke="black" points="707.968,-85 707.968,-117 834.032,-117 834.032,-85 707.968,-85"/>
<text text-anchor="start" x="715.968" y="-103" font-family="Helvetica,sans-Serif" font-size="10.00">AP_BoardConfig::sensor</text>
<text text-anchor="middle" x="771" y="-91" font-family="Helvetica,sans-Serif" font-size="10.00">_config_error</text>
</a>
</g>
</g>
<!-- Node517&#45;&gt;Node518 -->
<g id="edge18" class="edge"><title>Node517&#45;&gt;Node518</title>
<path fill="none" stroke="midnightblue" d="M870.262,-101C858.467,-101 846.062,-101 834.189,-101"/>
<polygon fill="midnightblue" stroke="midnightblue" points="870.441,-104.5 880.441,-101 870.441,-97.5001 870.441,-104.5"/>
</g>
<!-- Node519 -->
<g id="node20" class="node"><title>Node519</title>
<g id="a_node20"><a xlink:href="classAP__Baro.html#a942db790233528bfbb4d9a07c3454360" target="_top" xlink:title=" ">
<polygon fill="white" stroke="black" points="572.818,-161 572.818,-181 647.182,-181 647.182,-161 572.818,-161"/>
<text text-anchor="middle" x="610" y="-167" font-family="Helvetica,sans-Serif" font-size="10.00">AP_Baro::init</text>
</a>
</g>
</g>
<!-- Node518&#45;&gt;Node519 -->
<g id="edge19" class="edge"><title>Node518&#45;&gt;Node519</title>
<path fill="none" stroke="midnightblue" d="M724.229,-121.151C694.698,-134.152 657.545,-150.508 634.026,-160.863"/>
<polygon fill="midnightblue" stroke="midnightblue" points="725.78,-124.292 733.522,-117.059 722.96,-117.885 725.78,-124.292"/>
</g>
<!-- Node521 -->
<g id="node22" class="node"><title>Node521</title>
<g id="a_node22"><a xlink:href="classAP__InertialSensor.html#a8967734e82a4f472c6d8ddd8db656804" target="_top" xlink:title=" ">
<polygon fill="white" stroke="black" points="558.921,-85 558.921,-117 661.079,-117 661.079,-85 558.921,-85"/>
<text text-anchor="start" x="566.921" y="-103" font-family="Helvetica,sans-Serif" font-size="10.00">AP_InertialSensor::</text>
<text text-anchor="middle" x="610" y="-91" font-family="Helvetica,sans-Serif" font-size="10.00">detect_backends</text>
</a>
</g>
</g>
<!-- Node518&#45;&gt;Node521 -->
<g id="edge21" class="edge"><title>Node518&#45;&gt;Node521</title>
<path fill="none" stroke="midnightblue" d="M697.464,-101C685.288,-101 672.892,-101 661.431,-101"/>
<polygon fill="midnightblue" stroke="midnightblue" points="697.615,-104.5 707.615,-101 697.615,-97.5001 697.615,-104.5"/>
</g>
<!-- Node531 -->
<g id="node32" class="node"><title>Node531</title>
<g id="a_node32"><a xlink:href="classAP__Param.html#a0c15e6322af82416e599f89db54501e6" target="_top" xlink:title=" ">
<polygon fill="white" stroke="black" points="548.082,-34 548.082,-66 671.918,-66 671.918,-34 548.082,-34"/>
<text text-anchor="start" x="556.082" y="-52" font-family="Helvetica,sans-Serif" font-size="10.00">AP_Param::set_defaults</text>
<text text-anchor="middle" x="610" y="-40" font-family="Helvetica,sans-Serif" font-size="10.00">_from_table</text>
</a>
</g>
</g>
<!-- Node518&#45;&gt;Node531 -->
<g id="edge32" class="edge"><title>Node518&#45;&gt;Node531</title>
<path fill="none" stroke="midnightblue" d="M709.83,-81.7003C693.718,-76.5322 676.478,-71.0023 660.981,-66.0317"/>
<polygon fill="midnightblue" stroke="midnightblue" points="709.1,-85.1417 719.691,-84.8633 711.238,-78.4762 709.1,-85.1417"/>
</g>
<!-- Node520 -->
<g id="node21" class="node"><title>Node520</title>
<g id="a_node21"><a xlink:href="BARO__generic_8cpp.html#a4fc01d736fe50cf5b977f755b675f11d" target="_top" xlink:title=" ">
<polygon fill="white" stroke="black" points="429.769,-174 429.769,-194 470.231,-194 470.231,-174 429.769,-174"/>
<text text-anchor="middle" x="450" y="-180" font-family="Helvetica,sans-Serif" font-size="10.00">setup</text>
</a>
</g>
</g>
<!-- Node519&#45;&gt;Node520 -->
<g id="edge20" class="edge"><title>Node519&#45;&gt;Node520</title>
<path fill="none" stroke="midnightblue" d="M562.659,-174.813C531.89,-177.345 493.098,-180.536 470.276,-182.414"/>
<polygon fill="midnightblue" stroke="midnightblue" points="563.072,-178.291 572.752,-173.982 562.498,-171.314 563.072,-178.291"/>
</g>
<!-- Node522 -->
<g id="node23" class="node"><title>Node522</title>
<g id="a_node23"><a xlink:href="classAP__Compass__AK8963.html#a0e8c9e0c82de409e0225fc81ed4ed6db" target="_top" xlink:title=" ">
<polygon fill="white" stroke="black" points="388.079,-72 388.079,-104 511.921,-104 511.921,-72 388.079,-72"/>
<text text-anchor="start" x="396.079" y="-90" font-family="Helvetica,sans-Serif" font-size="10.00">AP_Compass_AK8963::</text>
<text text-anchor="middle" x="450" y="-78" font-family="Helvetica,sans-Serif" font-size="10.00">probe_mpu9250</text>
</a>
</g>
</g>
<!-- Node521&#45;&gt;Node522 -->
<g id="edge22" class="edge"><title>Node521&#45;&gt;Node522</title>
<path fill="none" stroke="midnightblue" d="M548.297,-96.0055C536.399,-95.0265 523.914,-93.9993 512.006,-93.0195"/>
<polygon fill="midnightblue" stroke="midnightblue" points="548.32,-99.5191 558.573,-96.851 548.894,-92.5427 548.32,-99.5191"/>
</g>
<!-- Node526 -->
<g id="node27" class="node"><title>Node526</title>
<g id="a_node27"><a xlink:href="classAP__InertialSensor.html#a9949b7e301b0d7a5f3e59385d2e8d97a" target="_top" xlink:title=" ">
<polygon fill="white" stroke="black" points="398.921,-21 398.921,-53 501.079,-53 501.079,-21 398.921,-21"/>
<text text-anchor="start" x="406.921" y="-39" font-family="Helvetica,sans-Serif" font-size="10.00">AP_InertialSensor::</text>
<text text-anchor="middle" x="450" y="-27" font-family="Helvetica,sans-Serif" font-size="10.00">_start_backends</text>
</a>
</g>
</g>
<!-- Node521&#45;&gt;Node526 -->
<g id="edge26" class="edge"><title>Node521&#45;&gt;Node526</title>
<path fill="none" stroke="midnightblue" d="M559.836,-81.0854C537.561,-72.0626 511.576,-61.537 490.583,-53.0338"/>
<polygon fill="midnightblue" stroke="midnightblue" points="558.547,-84.3397 569.13,-84.8501 561.175,-77.8517 558.547,-84.3397"/>
</g>
<!-- Node530 -->
<g id="node31" class="node"><title>Node530</title>
<g id="a_node31"><a xlink:href="classAP__InertialSensor.html#ad649def5689aecaebca16cf910d77fd8" target="_top" xlink:title=" ">
<polygon fill="white" stroke="black" points="398.921,-123 398.921,-155 501.079,-155 501.079,-123 398.921,-123"/>
<text text-anchor="start" x="406.921" y="-141" font-family="Helvetica,sans-Serif" font-size="10.00">AP_InertialSensor::</text>
<text text-anchor="middle" x="450" y="-129" font-family="Helvetica,sans-Serif" font-size="10.00">get_auxiliary_bus</text>
</a>
</g>
</g>
<!-- Node521&#45;&gt;Node530 -->
<g id="edge31" class="edge"><title>Node521&#45;&gt;Node530</title>
<path fill="none" stroke="midnightblue" d="M548.488,-115.553C532.876,-119.308 516.243,-123.309 501.219,-126.922"/>
<polygon fill="midnightblue" stroke="midnightblue" points="549.669,-118.869 558.573,-113.128 548.032,-112.063 549.669,-118.869"/>
</g>
<!-- Node523 -->
<g id="node24" class="node"><title>Node523</title>
<g id="a_node24"><a xlink:href="classCompass.html#a1c48170d8c8966b22fb150b1634443ec" target="_top" xlink:title=" ">
<polygon fill="white" stroke="black" points="206.518,-78 206.518,-98 351.482,-98 351.482,-78 206.518,-78"/>
<text text-anchor="middle" x="279" y="-84" font-family="Helvetica,sans-Serif" font-size="10.00">Compass::_detect_backends</text>
</a>
</g>
</g>
<!-- Node522&#45;&gt;Node523 -->
<g id="edge23" class="edge"><title>Node522&#45;&gt;Node523</title>
<path fill="none" stroke="midnightblue" d="M377.88,-88C369.175,-88 360.276,-88 351.564,-88"/>
<polygon fill="midnightblue" stroke="midnightblue" points="377.987,-91.5001 387.987,-88 377.987,-84.5001 377.987,-91.5001"/>
</g>
<!-- Node524 -->
<g id="node25" class="node"><title>Node524</title>
<g id="a_node25"><a xlink:href="classCompass.html#a79db6bfd3fe309c6258d783f126326c6" target="_top" xlink:title=" ">
<polygon fill="white" stroke="black" points="84.7119,-78 84.7119,-98 161.288,-98 161.288,-78 84.7119,-78"/>
<text text-anchor="middle" x="123" y="-84" font-family="Helvetica,sans-Serif" font-size="10.00">Compass::init</text>
</a>
</g>
</g>
<!-- Node523&#45;&gt;Node524 -->
<g id="edge24" class="edge"><title>Node523&#45;&gt;Node524</title>
<path fill="none" stroke="midnightblue" d="M196.188,-88C184.032,-88 172.037,-88 161.42,-88"/>
<polygon fill="midnightblue" stroke="midnightblue" points="196.41,-91.5001 206.41,-88 196.41,-84.5001 196.41,-91.5001"/>
</g>
<!-- Node525 -->
<g id="node26" class="node"><title>Node525</title>
<g id="a_node26"><a xlink:href="AHRS__Test_8cpp.html#a4fc01d736fe50cf5b977f755b675f11d" target="_top" xlink:title=" ">
<polygon fill="white" stroke="black" points="-0.231445,-58 -0.231445,-78 40.2314,-78 40.2314,-58 -0.231445,-58"/>
<text text-anchor="middle" x="20" y="-64" font-family="Helvetica,sans-Serif" font-size="10.00">setup</text>
</a>
</g>
</g>
<!-- Node524&#45;&gt;Node525 -->
<g id="edge25" class="edge"><title>Node524&#45;&gt;Node525</title>
<path fill="none" stroke="midnightblue" d="M74.6155,-78.6169C62.4954,-76.2169 50.1351,-73.7693 40.3413,-71.83"/>
<polygon fill="midnightblue" stroke="midnightblue" points="74.1889,-82.1003 84.6783,-80.6096 75.5487,-75.2337 74.1889,-82.1003"/>
</g>
<!-- Node527 -->
<g id="node28" class="node"><title>Node527</title>
<g id="a_node28"><a xlink:href="classAP__InertialSensor.html#a741065b13832b5e4c90bbae17519c0ad" target="_top" xlink:title=" ">
<polygon fill="white" stroke="black" points="221.53,-27 221.53,-47 336.47,-47 336.47,-27 221.53,-27"/>
<text text-anchor="middle" x="279" y="-33" font-family="Helvetica,sans-Serif" font-size="10.00">AP_InertialSensor::init</text>
</a>
</g>
</g>
<!-- Node526&#45;&gt;Node527 -->
<g id="edge27" class="edge"><title>Node526&#45;&gt;Node527</title>
<path fill="none" stroke="midnightblue" d="M388.434,-37C371.53,-37 353.233,-37 336.569,-37"/>
<polygon fill="midnightblue" stroke="midnightblue" points="388.752,-40.5001 398.752,-37 388.752,-33.5001 388.752,-40.5001"/>
</g>
<!-- Node527&#45;&gt;Node525 -->
<g id="edge28" class="edge"><title>Node527&#45;&gt;Node525</title>
<path fill="none" stroke="midnightblue" d="M211.28,-45.048C154.401,-51.9088 76.3296,-61.326 40.46,-65.6527"/>
<polygon fill="midnightblue" stroke="midnightblue" points="211.773,-48.5139 221.282,-43.8415 210.935,-41.5643 211.773,-48.5139"/>
</g>
<!-- Node528 -->
<g id="node29" class="node"><title>Node528</title>
<g id="a_node29"><a xlink:href="classSchedTest.html#ae9afb73f76391e34d47286a516fe5292" target="_top" xlink:title=" ">
<polygon fill="white" stroke="black" points="76.6431,-0 76.6431,-20 169.357,-20 169.357,-0 76.6431,-0"/>
<text text-anchor="middle" x="123" y="-6" font-family="Helvetica,sans-Serif" font-size="10.00">SchedTest::setup</text>
</a>
</g>
</g>
<!-- Node527&#45;&gt;Node528 -->
<g id="edge29" class="edge"><title>Node527&#45;&gt;Node528</title>
<path fill="none" stroke="midnightblue" d="M211.02,-25.2568C197.04,-22.8057 182.611,-20.276 169.621,-17.9984"/>
<polygon fill="midnightblue" stroke="midnightblue" points="210.639,-28.7433 221.094,-27.0229 211.848,-21.8485 210.639,-28.7433"/>
</g>
<!-- Node529 -->
<g id="node30" class="node"><title>Node529</title>
<g id="a_node30"><a xlink:href="Scheduler__test_8cpp.html#a7dfd9b79bc5a37d7df40207afbc5431f" target="_top" xlink:title=" ">
<polygon fill="white" stroke="black" points="-0.231445,-0 -0.231445,-20 40.2314,-20 40.2314,-0 -0.231445,-0"/>
<text text-anchor="middle" x="20" y="-6" font-family="Helvetica,sans-Serif" font-size="10.00">setup</text>
</a>
</g>
</g>
<!-- Node528&#45;&gt;Node529 -->
<g id="edge30" class="edge"><title>Node528&#45;&gt;Node529</title>
<path fill="none" stroke="midnightblue" d="M66.3961,-10C57.0922,-10 48.0218,-10 40.4654,-10"/>
<polygon fill="midnightblue" stroke="midnightblue" points="66.5229,-13.5001 76.5229,-10 66.5228,-6.5001 66.5229,-13.5001"/>
</g>
<!-- Node533 -->
<g id="node34" class="node"><title>Node533</title>
<g id="a_node34"><a xlink:href="structGCS__MAVLINK.html#ad02c83895334e008e3c2f454a616893e" target="_top" xlink:title=" ">
<polygon fill="white" stroke="black" points="870.009,-130 870.009,-162 991.991,-162 991.991,-130 870.009,-130"/>
<text text-anchor="start" x="878.009" y="-148" font-family="Helvetica,sans-Serif" font-size="10.00">GCS_MAVLINK::handle</text>
<text text-anchor="middle" x="931" y="-136" font-family="Helvetica,sans-Serif" font-size="10.00">_set_gps_global_origin</text>
</a>
</g>
</g>
<!-- Node532&#45;&gt;Node533 -->
<g id="edge34" class="edge"><title>Node532&#45;&gt;Node533</title>
<path fill="none" stroke="midnightblue" d="M1030.5,-146C1017.74,-146 1004.55,-146 992.145,-146"/>
<polygon fill="midnightblue" stroke="midnightblue" points="1030.63,-149.5 1040.63,-146 1030.63,-142.5 1030.63,-149.5"/>
</g>
<!-- Node533&#45;&gt;Node506 -->
<g id="edge35" class="edge"><title>Node533&#45;&gt;Node506</title>
<path fill="none" stroke="midnightblue" d="M859.834,-158.434C850.553,-160.079 841.106,-161.753 832.016,-163.364"/>
<polygon fill="midnightblue" stroke="midnightblue" points="860.58,-161.857 869.816,-156.665 859.359,-154.964 860.58,-161.857"/>
</g>
<!-- Node534&#45;&gt;Node504 -->
<g id="edge37" class="edge"><title>Node534&#45;&gt;Node504</title>
<path fill="none" stroke="midnightblue" d="M1203.86,-195.398C1190.98,-195.605 1177.95,-195.814 1165.73,-196.01"/>
<polygon fill="midnightblue" stroke="midnightblue" points="1204.19,-198.893 1214.13,-195.233 1204.08,-191.894 1204.19,-198.893"/>
</g>
<!-- Node535&#45;&gt;Node514 -->
<g id="edge39" class="edge"><title>Node535&#45;&gt;Node514</title>
<path fill="none" stroke="midnightblue" d="M1594.69,-123C1579.87,-123 1564.64,-123 1550.45,-123"/>
<polygon fill="midnightblue" stroke="midnightblue" points="1594.87,-126.5 1604.87,-123 1594.87,-119.5 1594.87,-126.5"/>
</g>
<!-- Node536&#45;&gt;Node514 -->
<g id="edge41" class="edge"><title>Node536&#45;&gt;Node514</title>
<path fill="none" stroke="midnightblue" d="M1607.8,-90.648C1587.7,-95.9862 1565.97,-101.757 1546.51,-106.926"/>
<polygon fill="midnightblue" stroke="midnightblue" points="1608.75,-94.0167 1617.51,-88.0667 1606.95,-87.2513 1608.75,-94.0167"/>
</g>
<!-- Node539 -->
<g id="node40" class="node"><title>Node539</title>
<g id="a_node40"><a xlink:href="structGCS__MAVLINK.html#af4c7fce15464d8ff4a13eb30a0d7d8d5" target="_top" xlink:title=" ">
<polygon fill="white" stroke="black" points="1602.72,-158 1602.72,-178 1755.28,-178 1755.28,-158 1602.72,-158"/>
<text text-anchor="middle" x="1679" y="-164" font-family="Helvetica,sans-Serif" font-size="10.00">GCS_MAVLINK::send_vfr_hud</text>
</a>
</g>
</g>
<!-- Node538&#45;&gt;Node539 -->
<g id="edge44" class="edge"><title>Node538&#45;&gt;Node539</title>
<path fill="none" stroke="midnightblue" d="M1813.02,-168C1794.38,-168 1774.24,-168 1755.42,-168"/>
<polygon fill="midnightblue" stroke="midnightblue" points="1813.22,-171.5 1823.22,-168 1813.22,-164.5 1813.22,-171.5"/>
</g>
<!-- Node539&#45;&gt;Node514 -->
<g id="edge45" class="edge"><title>Node539&#45;&gt;Node514</title>
<path fill="none" stroke="midnightblue" d="M1624.97,-155.571C1601.91,-150.166 1574.68,-143.785 1550.46,-138.109"/>
<polygon fill="midnightblue" stroke="midnightblue" points="1624.38,-159.027 1634.91,-157.901 1625.97,-152.211 1624.38,-159.027"/>
</g>
</g>
</svg>
