<?xml version="1.0" encoding="UTF-8" standalone="no"?>
<!DOCTYPE svg PUBLIC "-//W3C//DTD SVG 1.1//EN"
 "http://www.w3.org/Graphics/SVG/1.1/DTD/svg11.dtd">
<!-- Generated by graphviz version 2.30.1 (20130221.2233)
 -->
<!-- Title: AP_OSD_Screen::draw_altitude Pages: 1 -->
<svg width="1340pt" height="845pt"
 viewBox="0.00 0.00 1340.00 844.72" xmlns="http://www.w3.org/2000/svg" xmlns:xlink="http://www.w3.org/1999/xlink">
<g id="graph0" class="graph" transform="scale(1 1) rotate(0) translate(4 840.724)">
<title>AP_OSD_Screen::draw_altitude</title>
<polygon fill="white" stroke="white" points="-4,5 -4,-840.724 1337,-840.724 1337,5 -4,5"/>
<!-- Node11 -->
<g id="node1" class="node"><title>Node11</title>
<g id="a_node1"><a xlink:title=" ">
<polygon fill="#bfbfbf" stroke="black" points="0.475586,-236 0.475586,-268 121.524,-268 121.524,-236 0.475586,-236"/>
<text text-anchor="start" x="8.47559" y="-254" font-family="Helvetica,sans-Serif" font-size="10.00">AP_OSD_Screen::draw</text>
<text text-anchor="middle" x="61" y="-242" font-family="Helvetica,sans-Serif" font-size="10.00">_altitude</text>
</a>
</g>
</g>
<!-- Node12 -->
<g id="node2" class="node"><title>Node12</title>
<g id="a_node2"><a xlink:href="namespaceAP.html#a99432cfdb696952c9b7146f155a815aa" target="_top" xlink:title=" ">
<polygon fill="white" stroke="black" points="199.825,-538 199.825,-558 254.175,-558 254.175,-538 199.825,-538"/>
<text text-anchor="middle" x="227" y="-544" font-family="Helvetica,sans-Serif" font-size="10.00">AP::ahrs</text>
</a>
</g>
</g>
<!-- Node11&#45;&gt;Node12 -->
<g id="edge1" class="edge"><title>Node11&#45;&gt;Node12</title>
<path fill="none" stroke="midnightblue" d="M71.051,-268.336C99.245,-319.223 185.399,-474.72 215.492,-529.035"/>
<polygon fill="midnightblue" stroke="midnightblue" points="212.525,-530.9 220.432,-537.951 218.648,-527.508 212.525,-530.9"/>
</g>
<!-- Node14 -->
<g id="node4" class="node"><title>Node14</title>
<g id="a_node4"><a xlink:href="classAP__AHRS.html#a18da546d7331020ae62f3ccb75f17d5e" target="_top" xlink:title=" ">
<polygon fill="white" stroke="black" points="158.133,-310 158.133,-330 295.867,-330 295.867,-310 158.133,-310"/>
<text text-anchor="middle" x="227" y="-316" font-family="Helvetica,sans-Serif" font-size="10.00">AP_AHRS::get_semaphore</text>
</a>
</g>
</g>
<!-- Node11&#45;&gt;Node14 -->
<g id="edge3" class="edge"><title>Node11&#45;&gt;Node14</title>
<path fill="none" stroke="midnightblue" d="M90.7962,-268.085C109.551,-278.135 134.764,-290.858 158,-300 164.309,-302.482 171.052,-304.822 177.75,-306.967"/>
<polygon fill="midnightblue" stroke="midnightblue" points="176.887,-310.363 187.475,-309.962 178.948,-303.673 176.887,-310.363"/>
</g>
<!-- Node15 -->
<g id="node5" class="node"><title>Node15</title>
<g id="a_node5"><a xlink:href="classAP__AHRS__NavEKF.html#acf8913fdd3d47c9b2cfcdda9d4e27268" target="_top" xlink:title=" ">
<polygon fill="white" stroke="black" points="158.407,-259 158.407,-291 295.593,-291 295.593,-259 158.407,-259"/>
<text text-anchor="start" x="166.407" y="-277" font-family="Helvetica,sans-Serif" font-size="10.00">AP_AHRS_NavEKF::get</text>
<text text-anchor="middle" x="227" y="-265" font-family="Helvetica,sans-Serif" font-size="10.00">_relative_position_D_home</text>
</a>
</g>
</g>
<!-- Node11&#45;&gt;Node15 -->
<g id="edge4" class="edge"><title>Node11&#45;&gt;Node15</title>
<path fill="none" stroke="midnightblue" d="M121.672,-260.369C130.322,-261.582 139.332,-262.845 148.273,-264.099"/>
<polygon fill="midnightblue" stroke="midnightblue" points="147.927,-267.585 158.317,-265.508 148.9,-260.653 147.927,-267.585"/>
</g>
<!-- Node56 -->
<g id="node46" class="node"><title>Node56</title>
<g id="a_node46"><a xlink:href="classAP__OSD__Backend.html#a0874cc679cadd5bc77b95df77192ef99" target="_top" xlink:title=" ">
<polygon fill="white" stroke="black" points="163.141,-220 163.141,-240 290.859,-240 290.859,-220 163.141,-220"/>
<text text-anchor="middle" x="227" y="-226" font-family="Helvetica,sans-Serif" font-size="10.00">AP_OSD_Backend::write</text>
</a>
</g>
</g>
<!-- Node11&#45;&gt;Node56 -->
<g id="edge56" class="edge"><title>Node11&#45;&gt;Node56</title>
<path fill="none" stroke="midnightblue" d="M121.672,-243.995C131.874,-242.627 142.576,-241.191 153.076,-239.782"/>
<polygon fill="midnightblue" stroke="midnightblue" points="153.614,-243.242 163.06,-238.443 152.683,-236.304 153.614,-243.242"/>
</g>
<!-- Node57 -->
<g id="node47" class="node"><title>Node57</title>
<g id="a_node47"><a xlink:href="classAP__OSD__Screen.html#af9376e65207b0fc527597134f8802b08" target="_top" xlink:title=" ">
<polygon fill="white" stroke="black" points="160.079,-181 160.079,-201 293.921,-201 293.921,-181 160.079,-181"/>
<text text-anchor="middle" x="227" y="-187" font-family="Helvetica,sans-Serif" font-size="10.00">AP_OSD_Screen::u_scale</text>
</a>
</g>
</g>
<!-- Node11&#45;&gt;Node57 -->
<g id="edge57" class="edge"><title>Node11&#45;&gt;Node57</title>
<path fill="none" stroke="midnightblue" d="M95.7443,-235.854C113.938,-227.503 136.923,-217.514 158,-210 163.986,-207.866 170.336,-205.817 176.658,-203.907"/>
<polygon fill="midnightblue" stroke="midnightblue" points="177.896,-207.191 186.511,-201.025 175.931,-200.473 177.896,-207.191"/>
</g>
<!-- Node65 -->
<g id="node55" class="node"><title>Node65</title>
<g id="a_node55"><a xlink:href="classAP__OSD__Screen.html#a4118b4ebd416c8d1da09858868ae91fa" target="_top" xlink:title=" ">
<polygon fill="white" stroke="black" points="162.579,-142 162.579,-162 291.421,-162 291.421,-142 162.579,-142"/>
<text text-anchor="middle" x="227" y="-148" font-family="Helvetica,sans-Serif" font-size="10.00">AP_OSD_Screen::u_icon</text>
</a>
</g>
</g>
<!-- Node11&#45;&gt;Node65 -->
<g id="edge65" class="edge"><title>Node11&#45;&gt;Node65</title>
<path fill="none" stroke="midnightblue" d="M76.7533,-235.94C94.3937,-217.663 125.618,-188.133 158,-171 161.779,-169.001 165.79,-167.194 169.9,-165.563"/>
<polygon fill="midnightblue" stroke="midnightblue" points="171.381,-168.75 179.607,-162.073 169.012,-162.163 171.381,-168.75"/>
</g>
<!-- Node13 -->
<g id="node3" class="node"><title>Node13</title>
<g id="a_node3"><a xlink:href="classAP__AHRS.html#a3db167e808ba6d312c3b746e558008e9" target="_top" xlink:title=" ">
<polygon fill="white" stroke="black" points="332.133,-758 332.133,-778 459.867,-778 459.867,-758 332.133,-758"/>
<text text-anchor="middle" x="396" y="-764" font-family="Helvetica,sans-Serif" font-size="10.00">AP_AHRS::get_singleton</text>
</a>
</g>
</g>
<!-- Node12&#45;&gt;Node13 -->
<g id="edge2" class="edge"><title>Node12&#45;&gt;Node13</title>
<path fill="none" stroke="midnightblue" d="M230.304,-558.03C238.295,-590.552 267.908,-694.088 332,-748 334.264,-749.904 336.711,-751.628 339.281,-753.188"/>
<polygon fill="midnightblue" stroke="midnightblue" points="337.914,-756.421 348.407,-757.887 341.118,-750.197 337.914,-756.421"/>
</g>
<!-- Node16 -->
<g id="node6" class="node"><title>Node16</title>
<g id="a_node6"><a xlink:href="classAP__AHRS__NavEKF.html#ab68965d5fecbacf68d3e1a5180d944d2" target="_top" xlink:title=" ">
<polygon fill="white" stroke="black" points="333.532,-291 333.532,-335 458.468,-335 458.468,-291 333.532,-291"/>
<text text-anchor="start" x="341.532" y="-321" font-family="Helvetica,sans-Serif" font-size="10.00">AP_AHRS_NavEKF::get</text>
<text text-anchor="start" x="341.532" y="-309" font-family="Helvetica,sans-Serif" font-size="10.00">_relative_position_D</text>
<text text-anchor="middle" x="396" y="-297" font-family="Helvetica,sans-Serif" font-size="10.00">_origin</text>
</a>
</g>
</g>
<!-- Node15&#45;&gt;Node16 -->
<g id="edge5" class="edge"><title>Node15&#45;&gt;Node16</title>
<path fill="none" stroke="midnightblue" d="M295.925,-290.456C305.011,-292.523 314.351,-294.649 323.495,-296.729"/>
<polygon fill="midnightblue" stroke="midnightblue" points="322.792,-300.159 333.319,-298.965 324.345,-293.333 322.792,-300.159"/>
</g>
<!-- Node48 -->
<g id="node38" class="node"><title>Node48</title>
<g id="a_node38"><a xlink:href="classAP__AHRS__NavEKF.html#ae1df19ca0e69b1b93219865c9136ea2a" target="_top" xlink:title=" ">
<polygon fill="white" stroke="black" points="333.532,-707 333.532,-739 458.468,-739 458.468,-707 333.532,-707"/>
<text text-anchor="start" x="341.532" y="-725" font-family="Helvetica,sans-Serif" font-size="10.00">AP_AHRS_NavEKF::get</text>
<text text-anchor="middle" x="396" y="-713" font-family="Helvetica,sans-Serif" font-size="10.00">_origin</text>
</a>
</g>
</g>
<!-- Node15&#45;&gt;Node48 -->
<g id="edge46" class="edge"><title>Node15&#45;&gt;Node48</title>
<path fill="none" stroke="midnightblue" d="M285.697,-291.141C289.499,-293.676 293,-296.608 296,-300 349.322,-360.284 382.543,-614.038 392.12,-696.787"/>
<polygon fill="midnightblue" stroke="midnightblue" points="388.658,-697.325 393.266,-706.865 395.614,-696.534 388.658,-697.325"/>
</g>
<!-- Node53 -->
<g id="node43" class="node"><title>Node53</title>
<g id="a_node43"><a xlink:href="namespaceAP.html#a8aec57eb0b7a79044cbc1f0ca4b75bcf" target="_top" xlink:title=" ">
<polygon fill="white" stroke="black" points="368.544,-252 368.544,-272 423.456,-272 423.456,-252 368.544,-252"/>
<text text-anchor="middle" x="396" y="-258" font-family="Helvetica,sans-Serif" font-size="10.00">AP::baro</text>
</a>
</g>
</g>
<!-- Node15&#45;&gt;Node53 -->
<g id="edge52" class="edge"><title>Node15&#45;&gt;Node53</title>
<path fill="none" stroke="midnightblue" d="M295.925,-269.712C317.213,-268.055 339.9,-266.289 358.186,-264.866"/>
<polygon fill="midnightblue" stroke="midnightblue" points="358.702,-268.336 368.4,-264.071 358.158,-261.357 358.702,-268.336"/>
</g>
<!-- Node55 -->
<g id="node45" class="node"><title>Node55</title>
<g id="a_node45"><a xlink:href="classAP__Baro.html#a50ae73cce1699d88638e3dfab4ffd330" target="_top" xlink:title=" ">
<polygon fill="white" stroke="black" points="339.355,-195 339.355,-215 452.645,-215 452.645,-195 339.355,-195"/>
<text text-anchor="middle" x="396" y="-201" font-family="Helvetica,sans-Serif" font-size="10.00">AP_Baro::get_altitude</text>
</a>
</g>
</g>
<!-- Node15&#45;&gt;Node55 -->
<g id="edge54" class="edge"><title>Node15&#45;&gt;Node55</title>
<path fill="none" stroke="midnightblue" d="M270.94,-258.978C279.284,-255.753 287.94,-252.329 296,-249 318.902,-239.54 344.451,-228.164 363.857,-219.349"/>
<polygon fill="midnightblue" stroke="midnightblue" points="365.479,-222.457 373.125,-215.123 362.574,-216.088 365.479,-222.457"/>
</g>
<!-- Node17 -->
<g id="node7" class="node"><title>Node17</title>
<g id="a_node7"><a xlink:href="classAP__AHRS__NavEKF.html#adc26c0f781cb13d7066a4bc25ff24377" target="_top" xlink:title=" ">
<polygon fill="white" stroke="black" points="496.421,-424 496.421,-456 633.579,-456 633.579,-424 496.421,-424"/>
<text text-anchor="start" x="504.421" y="-442" font-family="Helvetica,sans-Serif" font-size="10.00">AP_AHRS_NavEKF::active</text>
<text text-anchor="middle" x="565" y="-430" font-family="Helvetica,sans-Serif" font-size="10.00">_EKF_type</text>
</a>
</g>
</g>
<!-- Node16&#45;&gt;Node17 -->
<g id="edge6" class="edge"><title>Node16&#45;&gt;Node17</title>
<path fill="none" stroke="midnightblue" d="M426.089,-335.122C456.499,-358.247 503.961,-394.342 534.517,-417.579"/>
<polygon fill="midnightblue" stroke="midnightblue" points="532.58,-420.503 542.658,-423.77 536.817,-414.931 532.58,-420.503"/>
</g>
<!-- Node43 -->
<g id="node33" class="node"><title>Node43</title>
<g id="a_node33"><a xlink:href="classNavEKF2.html#ab940afe0a80f245b942ed7882a88995e" target="_top" xlink:title=" ">
<polygon fill="white" stroke="black" points="513.648,-323 513.648,-343 616.352,-343 616.352,-323 513.648,-323"/>
<text text-anchor="middle" x="565" y="-329" font-family="Helvetica,sans-Serif" font-size="10.00">NavEKF2::getPosD</text>
</a>
</g>
</g>
<!-- Node16&#45;&gt;Node43 -->
<g id="edge41" class="edge"><title>Node16&#45;&gt;Node43</title>
<path fill="none" stroke="midnightblue" d="M458.71,-320.39C473.215,-322.128 488.663,-323.978 503.13,-325.71"/>
<polygon fill="midnightblue" stroke="midnightblue" points="503.119,-329.234 513.464,-326.948 503.952,-322.283 503.119,-329.234"/>
</g>
<!-- Node45 -->
<g id="node35" class="node"><title>Node45</title>
<g id="a_node35"><a xlink:href="classNavEKF3.html#a68b26db500569d4f8ad6bf85d8fe98e0" target="_top" xlink:title=" ">
<polygon fill="white" stroke="black" points="513.648,-284 513.648,-304 616.352,-304 616.352,-284 513.648,-284"/>
<text text-anchor="middle" x="565" y="-290" font-family="Helvetica,sans-Serif" font-size="10.00">NavEKF3::getPosD</text>
</a>
</g>
</g>
<!-- Node16&#45;&gt;Node45 -->
<g id="edge43" class="edge"><title>Node16&#45;&gt;Node45</title>
<path fill="none" stroke="midnightblue" d="M458.71,-305.979C473.215,-304.329 488.663,-302.571 503.13,-300.925"/>
<polygon fill="midnightblue" stroke="midnightblue" points="503.924,-304.358 513.464,-299.75 503.133,-297.403 503.924,-304.358"/>
</g>
<!-- Node47 -->
<g id="node37" class="node"><title>Node47</title>
<g id="a_node37"><a xlink:href="classAP__AHRS.html#a8ebd6624062d91ec1d19fc3306513e9a" target="_top" xlink:title=" ">
<polygon fill="white" stroke="black" points="508.641,-245 508.641,-265 621.359,-265 621.359,-245 508.641,-245"/>
<text text-anchor="middle" x="565" y="-251" font-family="Helvetica,sans-Serif" font-size="10.00">AP_AHRS::get_home</text>
</a>
</g>
</g>
<!-- Node16&#45;&gt;Node47 -->
<g id="edge45" class="edge"><title>Node16&#45;&gt;Node47</title>
<path fill="none" stroke="midnightblue" d="M450.064,-290.935C464.825,-285.116 480.939,-279.056 496,-274 502.324,-271.877 509.032,-269.798 515.676,-267.84"/>
<polygon fill="midnightblue" stroke="midnightblue" points="516.669,-271.197 525.311,-265.068 514.733,-264.47 516.669,-271.197"/>
</g>
<!-- Node18 -->
<g id="node8" class="node"><title>Node18</title>
<g id="a_node8"><a xlink:href="classAP__AHRS__NavEKF.html#a9f010f72e8cc321678118e78be8a264e" target="_top" xlink:title=" ">
<polygon fill="white" stroke="black" points="854.582,-732 854.582,-752 1003.42,-752 1003.42,-732 854.582,-732"/>
<text text-anchor="middle" x="929" y="-738" font-family="Helvetica,sans-Serif" font-size="10.00">AP_AHRS_NavEKF::ekf_type</text>
</a>
</g>
</g>
<!-- Node17&#45;&gt;Node18 -->
<g id="edge7" class="edge"><title>Node17&#45;&gt;Node18</title>
<path fill="none" stroke="midnightblue" d="M568.677,-456.084C576.398,-497.263 602.612,-607.235 670,-664 722.113,-707.898 752.871,-683.975 818,-704 842.508,-711.535 869.748,-720.938 890.99,-728.504"/>
<polygon fill="midnightblue" stroke="midnightblue" points="890.002,-731.868 900.596,-731.947 892.363,-725.278 890.002,-731.868"/>
</g>
<!-- Node19 -->
<g id="node9" class="node"><title>Node19</title>
<g id="a_node9"><a xlink:href="classAP__AHRS__NavEKF.html#a398575c9b9d19f35e2000fc0219a42ef" target="_top" xlink:title=" ">
<polygon fill="white" stroke="black" points="1046.2,-774 1046.2,-806 1187.8,-806 1187.8,-774 1046.2,-774"/>
<text text-anchor="start" x="1054.2" y="-792" font-family="Helvetica,sans-Serif" font-size="10.00">AP_AHRS_NavEKF::always</text>
<text text-anchor="middle" x="1117" y="-780" font-family="Helvetica,sans-Serif" font-size="10.00">_use_EKF</text>
</a>
</g>
</g>
<!-- Node17&#45;&gt;Node19 -->
<g id="edge9" class="edge"><title>Node17&#45;&gt;Node19</title>
<path fill="none" stroke="midnightblue" d="M569.771,-456.222C585.035,-521.228 642.725,-760.374 670,-781 783.539,-866.861 963.951,-834.069 1056.68,-808.743"/>
<polygon fill="midnightblue" stroke="midnightblue" points="1057.77,-812.073 1066.46,-806.011 1055.89,-805.331 1057.77,-812.073"/>
</g>
<!-- Node20 -->
<g id="node10" class="node"><title>Node20</title>
<g id="a_node10"><a xlink:href="classNavEKF2.html#aa94990caa9db3c052d553f28b68f1bc1" target="_top" xlink:title=" ">
<polygon fill="white" stroke="black" points="865.148,-508 865.148,-528 992.852,-528 992.852,-508 865.148,-508"/>
<text text-anchor="middle" x="929" y="-514" font-family="Helvetica,sans-Serif" font-size="10.00">NavEKF2::getFilterFaults</text>
</a>
</g>
</g>
<!-- Node17&#45;&gt;Node20 -->
<g id="edge10" class="edge"><title>Node17&#45;&gt;Node20</title>
<path fill="none" stroke="midnightblue" d="M588.253,-456.175C608.484,-469.93 639.718,-488.863 670,-498 730.484,-516.25 802.369,-520.485 854.879,-520.595"/>
<polygon fill="midnightblue" stroke="midnightblue" points="855.124,-524.095 865.114,-520.565 855.104,-517.095 855.124,-524.095"/>
</g>
<!-- Node24 -->
<g id="node14" class="node"><title>Node24</title>
<g id="a_node14"><a xlink:href="classNavEKF2.html#a8cb16a3d93ba2de38da068ad28216460" target="_top" xlink:title=" ">
<polygon fill="white" stroke="black" points="695.702,-469 695.702,-489 792.298,-489 792.298,-469 695.702,-469"/>
<text text-anchor="middle" x="744" y="-475" font-family="Helvetica,sans-Serif" font-size="10.00">NavEKF2::healthy</text>
</a>
</g>
</g>
<!-- Node17&#45;&gt;Node24 -->
<g id="edge14" class="edge"><title>Node17&#45;&gt;Node24</title>
<path fill="none" stroke="midnightblue" d="M633.674,-454.911C651.54,-458.848 670.607,-463.049 687.732,-466.822"/>
<polygon fill="midnightblue" stroke="midnightblue" points="687.048,-470.255 697.567,-468.989 688.554,-463.419 687.048,-470.255"/>
</g>
<!-- Node27 -->
<g id="node17" class="node"><title>Node27</title>
<g id="a_node17"><a xlink:href="classNavEKF3.html#a8229a5210b66ce336147ef2674817de7" target="_top" xlink:title=" ">
<polygon fill="white" stroke="black" points="865.148,-430 865.148,-450 992.852,-450 992.852,-430 865.148,-430"/>
<text text-anchor="middle" x="929" y="-436" font-family="Helvetica,sans-Serif" font-size="10.00">NavEKF3::getFilterFaults</text>
</a>
</g>
</g>
<!-- Node17&#45;&gt;Node27 -->
<g id="edge18" class="edge"><title>Node17&#45;&gt;Node27</title>
<path fill="none" stroke="midnightblue" d="M633.665,-440C696.601,-440 790.129,-440 854.788,-440"/>
<polygon fill="midnightblue" stroke="midnightblue" points="854.909,-443.5 864.909,-440 854.909,-436.5 854.909,-443.5"/>
</g>
<!-- Node29 -->
<g id="node19" class="node"><title>Node29</title>
<g id="a_node19"><a xlink:href="classNavEKF3.html#a789658732d8d736866067a7871e4c447" target="_top" xlink:title=" ">
<polygon fill="white" stroke="black" points="695.702,-391 695.702,-411 792.298,-411 792.298,-391 695.702,-391"/>
<text text-anchor="middle" x="744" y="-397" font-family="Helvetica,sans-Serif" font-size="10.00">NavEKF3::healthy</text>
</a>
</g>
</g>
<!-- Node17&#45;&gt;Node29 -->
<g id="edge22" class="edge"><title>Node17&#45;&gt;Node29</title>
<path fill="none" stroke="midnightblue" d="M633.674,-425.089C651.54,-421.152 670.607,-416.951 687.732,-413.178"/>
<polygon fill="midnightblue" stroke="midnightblue" points="688.554,-416.581 697.567,-411.011 687.048,-409.745 688.554,-416.581"/>
</g>
<!-- Node31 -->
<g id="node21" class="node"><title>Node31</title>
<g id="a_node21"><a xlink:href="classAP__HAL_1_1Util.html#a287a2b82fa30b92c8d52aad61d4d27b7" target="_top" xlink:title=" ">
<polygon fill="white" stroke="black" points="686.254,-340 686.254,-372 801.746,-372 801.746,-340 686.254,-340"/>
<text text-anchor="start" x="694.254" y="-358" font-family="Helvetica,sans-Serif" font-size="10.00">AP_HAL::Util::get_soft</text>
<text text-anchor="middle" x="744" y="-346" font-family="Helvetica,sans-Serif" font-size="10.00">_armed</text>
</a>
</g>
</g>
<!-- Node17&#45;&gt;Node31 -->
<g id="edge26" class="edge"><title>Node17&#45;&gt;Node31</title>
<path fill="none" stroke="midnightblue" d="M591.373,-423.833C612.013,-411.121 642.174,-393.526 670,-381 674.096,-379.156 678.371,-377.366 682.709,-375.648"/>
<polygon fill="midnightblue" stroke="midnightblue" points="684.161,-378.84 692.258,-372.008 681.668,-372.3 684.161,-378.84"/>
</g>
<!-- Node32 -->
<g id="node22" class="node"><title>Node32</title>
<g id="a_node22"><a xlink:href="classNavEKF2.html#ac4d641d37b5d4ade7b41f5156a3db5c8" target="_top" xlink:title=" ">
<polygon fill="white" stroke="black" points="864.589,-618 864.589,-638 993.411,-638 993.411,-618 864.589,-618"/>
<text text-anchor="middle" x="929" y="-624" font-family="Helvetica,sans-Serif" font-size="10.00">NavEKF2::getFilterStatus</text>
</a>
</g>
</g>
<!-- Node17&#45;&gt;Node32 -->
<g id="edge27" class="edge"><title>Node17&#45;&gt;Node32</title>
<path fill="none" stroke="midnightblue" d="M575.664,-456.036C591.897,-481.571 627.109,-531.309 670,-558 726.385,-593.089 800.345,-610.821 854.615,-619.638"/>
<polygon fill="midnightblue" stroke="midnightblue" points="854.091,-623.098 864.511,-621.183 855.17,-616.182 854.091,-623.098"/>
</g>
<!-- Node34 -->
<g id="node24" class="node"><title>Node34</title>
<g id="a_node24"><a xlink:href="classNavEKF3.html#a1045d2d2e22076a9cb08643dc10560c2" target="_top" xlink:title=" ">
<polygon fill="white" stroke="black" points="864.589,-568 864.589,-588 993.411,-588 993.411,-568 864.589,-568"/>
<text text-anchor="middle" x="929" y="-574" font-family="Helvetica,sans-Serif" font-size="10.00">NavEKF3::getFilterStatus</text>
</a>
</g>
</g>
<!-- Node17&#45;&gt;Node34 -->
<g id="edge29" class="edge"><title>Node17&#45;&gt;Node34</title>
<path fill="none" stroke="midnightblue" d="M581.306,-456.122C600.286,-475.117 634.499,-506.209 670,-523 728.536,-550.686 801.111,-564.567 854.363,-571.447"/>
<polygon fill="midnightblue" stroke="midnightblue" points="854.055,-574.935 864.409,-572.692 854.916,-567.989 854.055,-574.935"/>
</g>
<!-- Node36 -->
<g id="node26" class="node"><title>Node36</title>
<g id="a_node26"><a xlink:href="classAP__AHRS__NavEKF.html#a9939ba75e3dbd76daae03c21d21a25c6" target="_top" xlink:title=" ">
<polygon fill="white" stroke="black" points="681.532,-623 681.532,-655 806.468,-655 806.468,-623 681.532,-623"/>
<text text-anchor="start" x="689.532" y="-641" font-family="Helvetica,sans-Serif" font-size="10.00">AP_AHRS_NavEKF::get</text>
<text text-anchor="middle" x="744" y="-629" font-family="Helvetica,sans-Serif" font-size="10.00">_filter_status</text>
</a>
</g>
</g>
<!-- Node17&#45;&gt;Node36 -->
<g id="edge31" class="edge"><title>Node17&#45;&gt;Node36</title>
<path fill="none" stroke="midnightblue" d="M572.051,-456.146C585.117,-489.001 618.97,-564.224 670,-608 674.419,-611.791 679.369,-615.175 684.555,-618.183"/>
<polygon fill="midnightblue" stroke="midnightblue" points="682.977,-621.308 693.453,-622.897 686.255,-615.123 682.977,-621.308"/>
</g>
<!-- Node37 -->
<g id="node27" class="node"><title>Node37</title>
<g id="a_node27"><a xlink:href="namespaceAP.html#ae6eeec356455220f913e47e323057cd5" target="_top" xlink:title=" ">
<polygon fill="white" stroke="black" points="718.49,-301 718.49,-321 769.51,-321 769.51,-301 718.49,-301"/>
<text text-anchor="middle" x="744" y="-307" font-family="Helvetica,sans-Serif" font-size="10.00">AP::gps</text>
</a>
</g>
</g>
<!-- Node17&#45;&gt;Node37 -->
<g id="edge35" class="edge"><title>Node17&#45;&gt;Node37</title>
<path fill="none" stroke="midnightblue" d="M576.725,-423.843C593.632,-399.673 628.828,-354.347 670,-330 681.652,-323.11 695.796,-318.686 708.52,-315.86"/>
<polygon fill="midnightblue" stroke="midnightblue" points="709.213,-319.291 718.345,-313.92 707.856,-312.424 709.213,-319.291"/>
</g>
<!-- Node39 -->
<g id="node29" class="node"><title>Node39</title>
<g id="a_node29"><a xlink:href="classAP__GPS.html#ac22b61d2e6cf0b6ff647173ea336de01" target="_top" xlink:title="Query GPS status.">
<polygon fill="white" stroke="black" points="699.872,-262 699.872,-282 788.128,-282 788.128,-262 699.872,-262"/>
<text text-anchor="middle" x="744" y="-268" font-family="Helvetica,sans-Serif" font-size="10.00">AP_GPS::status</text>
</a>
</g>
</g>
<!-- Node17&#45;&gt;Node39 -->
<g id="edge37" class="edge"><title>Node17&#45;&gt;Node39</title>
<path fill="none" stroke="midnightblue" d="M579.413,-423.912C593.606,-406.606 616.346,-378.054 634,-352 651.659,-325.939 644.866,-309.954 670,-291 675.895,-286.555 682.733,-283.146 689.814,-280.533"/>
<polygon fill="midnightblue" stroke="midnightblue" points="691.082,-283.802 699.554,-277.44 688.964,-277.131 691.082,-283.802"/>
</g>
<!-- Node41 -->
<g id="node31" class="node"><title>Node41</title>
<g id="a_node31"><a xlink:href="classCompass.html#af5c3da7e49f681c1d7a0354b91eba7ba" target="_top" xlink:title="return true if the compass should be used for yaw calculations">
<polygon fill="white" stroke="black" points="683.754,-223 683.754,-243 804.246,-243 804.246,-223 683.754,-223"/>
<text text-anchor="middle" x="744" y="-229" font-family="Helvetica,sans-Serif" font-size="10.00">Compass::use_for_yaw</text>
</a>
</g>
</g>
<!-- Node17&#45;&gt;Node41 -->
<g id="edge39" class="edge"><title>Node17&#45;&gt;Node41</title>
<path fill="none" stroke="midnightblue" d="M580.967,-423.898C596.009,-407.034 619.05,-379.254 634,-352 656.718,-310.585 635.115,-283.849 670,-252 671.487,-250.642 673.059,-249.379 674.7,-248.204"/>
<polygon fill="midnightblue" stroke="midnightblue" points="676.597,-251.149 683.408,-243.034 673.023,-245.13 676.597,-251.149"/>
</g>
<!-- Node42 -->
<g id="node32" class="node"><title>Node42</title>
<g id="a_node32"><a xlink:href="classAP__GPS.html#ae7f097588dd863d4624f6fec1509e0e6" target="_top" xlink:title=" ">
<polygon fill="white" stroke="black" points="681.239,-184 681.239,-204 806.761,-204 806.761,-184 681.239,-184"/>
<text text-anchor="middle" x="744" y="-190" font-family="Helvetica,sans-Serif" font-size="10.00">AP_GPS::ground_speed</text>
</a>
</g>
</g>
<!-- Node17&#45;&gt;Node42 -->
<g id="edge40" class="edge"><title>Node17&#45;&gt;Node42</title>
<path fill="none" stroke="midnightblue" d="M581.781,-423.859C597.242,-407.18 620.406,-379.74 634,-352 662.082,-294.695 624.902,-258.152 670,-213 671.241,-211.758 672.552,-210.594 673.922,-209.503"/>
<polygon fill="midnightblue" stroke="midnightblue" points="675.873,-212.409 682.347,-204.022 672.056,-206.541 675.873,-212.409"/>
</g>
<!-- Node18&#45;&gt;Node19 -->
<g id="edge8" class="edge"><title>Node18&#45;&gt;Node19</title>
<path fill="none" stroke="midnightblue" d="M968.992,-752.062C990.812,-757.693 1018.7,-764.891 1044.31,-771.5"/>
<polygon fill="midnightblue" stroke="midnightblue" points="1043.44,-774.89 1054,-774 1045.19,-768.112 1043.44,-774.89"/>
</g>
<!-- Node21 -->
<g id="node11" class="node"><title>Node21</title>
<g id="a_node11"><a xlink:href="classNavEKF2__core.html#a592b9676c553d0032005f9dba248f983" target="_top" xlink:title=" ">
<polygon fill="white" stroke="black" points="1040.64,-488 1040.64,-508 1193.36,-508 1193.36,-488 1040.64,-488"/>
<text text-anchor="middle" x="1117" y="-494" font-family="Helvetica,sans-Serif" font-size="10.00">NavEKF2_core::getFilterFaults</text>
</a>
</g>
</g>
<!-- Node20&#45;&gt;Node21 -->
<g id="edge11" class="edge"><title>Node20&#45;&gt;Node21</title>
<path fill="none" stroke="midnightblue" d="M992.971,-511.229C1005.03,-509.932 1017.84,-508.555 1030.47,-507.197"/>
<polygon fill="midnightblue" stroke="midnightblue" points="1030.97,-510.663 1040.54,-506.114 1030.22,-503.703 1030.97,-510.663"/>
</g>
<!-- Node22 -->
<g id="node12" class="node"><title>Node22</title>
<g id="a_node12"><a xlink:href="classQuaternion.html#abcf4d5106b0d09f6a443050bfd8b4bc9" target="_top" xlink:title=" ">
<polygon fill="white" stroke="black" points="1230.75,-478 1230.75,-498 1331.25,-498 1331.25,-478 1230.75,-478"/>
<text text-anchor="middle" x="1281" y="-484" font-family="Helvetica,sans-Serif" font-size="10.00">Quaternion::is_nan</text>
</a>
</g>
</g>
<!-- Node21&#45;&gt;Node22 -->
<g id="edge12" class="edge"><title>Node21&#45;&gt;Node22</title>
<path fill="none" stroke="midnightblue" d="M1193.78,-493.322C1202.78,-492.767 1211.86,-492.206 1220.58,-491.668"/>
<polygon fill="midnightblue" stroke="midnightblue" points="1220.87,-495.157 1230.63,-491.047 1220.43,-488.17 1220.87,-495.157"/>
</g>
<!-- Node23 -->
<g id="node13" class="node"><title>Node23</title>
<g id="a_node13"><a xlink:href="classVector3.html#a938ff6c07ddb4789f64e2c1709a590b5" target="_top" xlink:title=" ">
<polygon fill="white" stroke="black" points="1238.53,-429 1238.53,-449 1323.47,-449 1323.47,-429 1238.53,-429"/>
<text text-anchor="middle" x="1281" y="-435" font-family="Helvetica,sans-Serif" font-size="10.00">Vector3::is_nan</text>
</a>
</g>
</g>
<!-- Node21&#45;&gt;Node23 -->
<g id="edge13" class="edge"><title>Node21&#45;&gt;Node23</title>
<path fill="none" stroke="midnightblue" d="M1161.39,-487.929C1172.15,-485.063 1183.59,-481.702 1194,-478 1213.5,-471.069 1234.68,-461.491 1251.14,-453.562"/>
<polygon fill="midnightblue" stroke="midnightblue" points="1252.79,-456.651 1260.24,-449.116 1249.72,-450.362 1252.79,-456.651"/>
</g>
<!-- Node25 -->
<g id="node15" class="node"><title>Node25</title>
<g id="a_node15"><a xlink:href="classNavEKF2__core.html#a66754380c8cb82819db95fc2b3838037" target="_top" xlink:title=" ">
<polygon fill="white" stroke="black" points="868.195,-469 868.195,-489 989.805,-489 989.805,-469 868.195,-469"/>
<text text-anchor="middle" x="929" y="-475" font-family="Helvetica,sans-Serif" font-size="10.00">NavEKF2_core::healthy</text>
</a>
</g>
</g>
<!-- Node24&#45;&gt;Node25 -->
<g id="edge15" class="edge"><title>Node24&#45;&gt;Node25</title>
<path fill="none" stroke="midnightblue" d="M792.603,-479C812.534,-479 836.106,-479 857.949,-479"/>
<polygon fill="midnightblue" stroke="midnightblue" points="858.176,-482.5 868.176,-479 858.176,-475.5 858.176,-482.5"/>
</g>
<!-- Node25&#45;&gt;Node21 -->
<g id="edge16" class="edge"><title>Node25&#45;&gt;Node21</title>
<path fill="none" stroke="midnightblue" d="M989.875,-485.116C1002.86,-486.443 1016.85,-487.871 1030.6,-489.277"/>
<polygon fill="midnightblue" stroke="midnightblue" points="1030.26,-492.76 1040.56,-490.294 1030.97,-485.796 1030.26,-492.76"/>
</g>
<!-- Node26 -->
<g id="node16" class="node"><title>Node26</title>
<g id="a_node16"><a xlink:href="AP__Math_8h.html#a0375e3d67fd3911cacee5c3e1408c0f2" target="_top" xlink:title=" ">
<polygon fill="white" stroke="black" points="1102.5,-449 1102.5,-469 1131.5,-469 1131.5,-449 1102.5,-449"/>
<text text-anchor="middle" x="1117" y="-455" font-family="Helvetica,sans-Serif" font-size="10.00">sq</text>
</a>
</g>
</g>
<!-- Node25&#45;&gt;Node26 -->
<g id="edge17" class="edge"><title>Node25&#45;&gt;Node26</title>
<path fill="none" stroke="midnightblue" d="M989.875,-472.562C1024.66,-468.822 1066.55,-464.317 1092.23,-461.556"/>
<polygon fill="midnightblue" stroke="midnightblue" points="1092.91,-465.003 1102.48,-460.453 1092.17,-458.043 1092.91,-465.003"/>
</g>
<!-- Node28 -->
<g id="node18" class="node"><title>Node28</title>
<g id="a_node18"><a xlink:href="classNavEKF3__core.html#a93505e1079be2ea93f2e0cac8e3cd5d4" target="_top" xlink:title=" ">
<polygon fill="white" stroke="black" points="1040.64,-410 1040.64,-430 1193.36,-430 1193.36,-410 1040.64,-410"/>
<text text-anchor="middle" x="1117" y="-416" font-family="Helvetica,sans-Serif" font-size="10.00">NavEKF3_core::getFilterFaults</text>
</a>
</g>
</g>
<!-- Node27&#45;&gt;Node28 -->
<g id="edge19" class="edge"><title>Node27&#45;&gt;Node28</title>
<path fill="none" stroke="midnightblue" d="M992.971,-433.229C1005.03,-431.932 1017.84,-430.555 1030.47,-429.197"/>
<polygon fill="midnightblue" stroke="midnightblue" points="1030.97,-432.663 1040.54,-428.114 1030.22,-425.703 1030.97,-432.663"/>
</g>
<!-- Node28&#45;&gt;Node22 -->
<g id="edge20" class="edge"><title>Node28&#45;&gt;Node22</title>
<path fill="none" stroke="midnightblue" d="M1166.47,-430.011C1175.75,-432.516 1185.29,-435.507 1194,-439 1206.09,-443.848 1234.01,-460.132 1254.78,-472.611"/>
<polygon fill="midnightblue" stroke="midnightblue" points="1253.08,-475.677 1263.45,-477.851 1256.7,-469.685 1253.08,-475.677"/>
</g>
<!-- Node28&#45;&gt;Node23 -->
<g id="edge21" class="edge"><title>Node28&#45;&gt;Node23</title>
<path fill="none" stroke="midnightblue" d="M1193.78,-428.888C1205.39,-430.249 1217.14,-431.628 1228.08,-432.91"/>
<polygon fill="midnightblue" stroke="midnightblue" points="1227.94,-436.418 1238.28,-434.107 1228.76,-429.466 1227.94,-436.418"/>
</g>
<!-- Node30 -->
<g id="node20" class="node"><title>Node30</title>
<g id="a_node20"><a xlink:href="classNavEKF3__core.html#a1084d1fe66f563415bf1f0bc9cd2ca6e" target="_top" xlink:title=" ">
<polygon fill="white" stroke="black" points="868.195,-391 868.195,-411 989.805,-411 989.805,-391 868.195,-391"/>
<text text-anchor="middle" x="929" y="-397" font-family="Helvetica,sans-Serif" font-size="10.00">NavEKF3_core::healthy</text>
</a>
</g>
</g>
<!-- Node29&#45;&gt;Node30 -->
<g id="edge23" class="edge"><title>Node29&#45;&gt;Node30</title>
<path fill="none" stroke="midnightblue" d="M792.603,-401C812.534,-401 836.106,-401 857.949,-401"/>
<polygon fill="midnightblue" stroke="midnightblue" points="858.176,-404.5 868.176,-401 858.176,-397.5 858.176,-404.5"/>
</g>
<!-- Node30&#45;&gt;Node28 -->
<g id="edge24" class="edge"><title>Node30&#45;&gt;Node28</title>
<path fill="none" stroke="midnightblue" d="M989.875,-407.116C1002.86,-408.443 1016.85,-409.871 1030.6,-411.277"/>
<polygon fill="midnightblue" stroke="midnightblue" points="1030.26,-414.76 1040.56,-412.294 1030.97,-407.796 1030.26,-414.76"/>
</g>
<!-- Node30&#45;&gt;Node26 -->
<g id="edge25" class="edge"><title>Node30&#45;&gt;Node26</title>
<path fill="none" stroke="midnightblue" d="M975.925,-411.006C985.34,-413.552 995.091,-416.56 1004,-420 1020.88,-426.516 1023.14,-432.433 1040,-439 1056.98,-445.615 1076.93,-450.772 1092.13,-454.192"/>
<polygon fill="midnightblue" stroke="midnightblue" points="1091.74,-457.687 1102.25,-456.371 1093.21,-450.844 1091.74,-457.687"/>
</g>
<!-- Node33 -->
<g id="node23" class="node"><title>Node33</title>
<g id="a_node23"><a xlink:href="classNavEKF2__core.html#acf059be09104ba49cb34446a02c61fc7" target="_top" xlink:title=" ">
<polygon fill="white" stroke="black" points="1040.08,-618 1040.08,-638 1193.92,-638 1193.92,-618 1040.08,-618"/>
<text text-anchor="middle" x="1117" y="-624" font-family="Helvetica,sans-Serif" font-size="10.00">NavEKF2_core::getFilterStatus</text>
</a>
</g>
</g>
<!-- Node32&#45;&gt;Node33 -->
<g id="edge28" class="edge"><title>Node32&#45;&gt;Node33</title>
<path fill="none" stroke="midnightblue" d="M993.49,-628C1005.17,-628 1017.53,-628 1029.74,-628"/>
<polygon fill="midnightblue" stroke="midnightblue" points="1029.95,-631.5 1039.95,-628 1029.95,-624.5 1029.95,-631.5"/>
</g>
<!-- Node35 -->
<g id="node25" class="node"><title>Node35</title>
<g id="a_node25"><a xlink:href="classNavEKF3__core.html#a0367f32f87569616404164da99b5c83f" target="_top" xlink:title=" ">
<polygon fill="white" stroke="black" points="1040.08,-568 1040.08,-588 1193.92,-588 1193.92,-568 1040.08,-568"/>
<text text-anchor="middle" x="1117" y="-574" font-family="Helvetica,sans-Serif" font-size="10.00">NavEKF3_core::getFilterStatus</text>
</a>
</g>
</g>
<!-- Node34&#45;&gt;Node35 -->
<g id="edge30" class="edge"><title>Node34&#45;&gt;Node35</title>
<path fill="none" stroke="midnightblue" d="M993.49,-578C1005.17,-578 1017.53,-578 1029.74,-578"/>
<polygon fill="midnightblue" stroke="midnightblue" points="1029.95,-581.5 1039.95,-578 1029.95,-574.5 1029.95,-581.5"/>
</g>
<!-- Node36&#45;&gt;Node18 -->
<g id="edge32" class="edge"><title>Node36&#45;&gt;Node18</title>
<path fill="none" stroke="midnightblue" d="M786.526,-655.124C796.972,-659.588 808.041,-664.681 818,-670 849.85,-687.012 884.344,-710.495 906.05,-725.954"/>
<polygon fill="midnightblue" stroke="midnightblue" points="904.09,-728.855 914.253,-731.848 908.175,-723.171 904.09,-728.855"/>
</g>
<!-- Node36&#45;&gt;Node32 -->
<g id="edge33" class="edge"><title>Node36&#45;&gt;Node32</title>
<path fill="none" stroke="midnightblue" d="M806.7,-635.291C821.937,-634.375 838.41,-633.385 854.158,-632.439"/>
<polygon fill="midnightblue" stroke="midnightblue" points="854.61,-635.918 864.382,-631.824 854.19,-628.93 854.61,-635.918"/>
</g>
<!-- Node36&#45;&gt;Node34 -->
<g id="edge34" class="edge"><title>Node36&#45;&gt;Node34</title>
<path fill="none" stroke="midnightblue" d="M793.081,-622.973C822.696,-613.101 860.211,-600.596 888.161,-591.28"/>
<polygon fill="midnightblue" stroke="midnightblue" points="889.613,-594.485 897.993,-588.002 887.399,-587.844 889.613,-594.485"/>
</g>
<!-- Node38 -->
<g id="node28" class="node"><title>Node38</title>
<g id="a_node28"><a xlink:href="classAP__GPS.html#a08d0437767d62a318e59b40cf323a31a" target="_top" xlink:title=" ">
<polygon fill="white" stroke="black" points="868.466,-301 868.466,-321 989.534,-321 989.534,-301 868.466,-301"/>
<text text-anchor="middle" x="929" y="-307" font-family="Helvetica,sans-Serif" font-size="10.00">AP_GPS::get_singleton</text>
</a>
</g>
</g>
<!-- Node37&#45;&gt;Node38 -->
<g id="edge36" class="edge"><title>Node37&#45;&gt;Node38</title>
<path fill="none" stroke="midnightblue" d="M769.68,-311C792.295,-311 826.882,-311 857.967,-311"/>
<polygon fill="midnightblue" stroke="midnightblue" points="858.352,-314.5 868.352,-311 858.352,-307.5 858.352,-314.5"/>
</g>
<!-- Node40 -->
<g id="node30" class="node"><title>Node40</title>
<g id="a_node30"><a xlink:href="classAP__GPS.html#a23a9fce42abaf8f53d5a3f64c84461e7" target="_top" xlink:title=" ">
<polygon fill="white" stroke="black" points="884.872,-262 884.872,-282 973.128,-282 973.128,-262 884.872,-262"/>
<text text-anchor="middle" x="929" y="-268" font-family="Helvetica,sans-Serif" font-size="10.00">AP_GPS::status</text>
</a>
</g>
</g>
<!-- Node39&#45;&gt;Node40 -->
<g id="edge38" class="edge"><title>Node39&#45;&gt;Node40</title>
<path fill="none" stroke="midnightblue" d="M788.368,-272C814.142,-272 847.038,-272 874.425,-272"/>
<polygon fill="midnightblue" stroke="midnightblue" points="874.626,-275.5 884.626,-272 874.626,-268.5 874.626,-275.5"/>
</g>
<!-- Node44 -->
<g id="node34" class="node"><title>Node44</title>
<g id="a_node34"><a xlink:href="classNavEKF2__core.html#ac630c55a89dc06d29fb8dd25ae50efde" target="_top" xlink:title=" ">
<polygon fill="white" stroke="black" points="680.141,-145 680.141,-165 807.859,-165 807.859,-145 680.141,-145"/>
<text text-anchor="middle" x="744" y="-151" font-family="Helvetica,sans-Serif" font-size="10.00">NavEKF2_core::getPosD</text>
</a>
</g>
</g>
<!-- Node43&#45;&gt;Node44 -->
<g id="edge42" class="edge"><title>Node43&#45;&gt;Node44</title>
<path fill="none" stroke="midnightblue" d="M616.545,-324.67C623.045,-321.827 629.122,-318.04 634,-313 678.383,-267.145 624.902,-219.152 670,-174 671.241,-172.758 672.552,-171.594 673.922,-170.503"/>
<polygon fill="midnightblue" stroke="midnightblue" points="675.873,-173.409 682.347,-165.022 672.056,-167.541 675.873,-173.409"/>
</g>
<!-- Node46 -->
<g id="node36" class="node"><title>Node46</title>
<g id="a_node36"><a xlink:href="classNavEKF3__core.html#a44d9f37a3ad6be9710d583e269743347" target="_top" xlink:title=" ">
<polygon fill="white" stroke="black" points="680.141,-106 680.141,-126 807.859,-126 807.859,-106 680.141,-106"/>
<text text-anchor="middle" x="744" y="-112" font-family="Helvetica,sans-Serif" font-size="10.00">NavEKF3_core::getPosD</text>
</a>
</g>
</g>
<!-- Node45&#45;&gt;Node46 -->
<g id="edge44" class="edge"><title>Node45&#45;&gt;Node46</title>
<path fill="none" stroke="midnightblue" d="M616.545,-285.67C623.045,-282.827 629.122,-279.04 634,-274 678.383,-228.145 624.902,-180.152 670,-135 671.241,-133.758 672.552,-132.594 673.922,-131.503"/>
<polygon fill="midnightblue" stroke="midnightblue" points="675.873,-134.409 682.347,-126.022 672.056,-128.541 675.873,-134.409"/>
</g>
<!-- Node48&#45;&gt;Node18 -->
<g id="edge47" class="edge"><title>Node48&#45;&gt;Node18</title>
<path fill="none" stroke="midnightblue" d="M441.323,-739.069C447.766,-742.035 454.182,-745.36 460,-749 478.149,-760.354 475.99,-773.392 496,-781 629.769,-831.859 676.961,-805.263 818,-781 845.707,-776.234 875.693,-765.178 897.349,-756.05"/>
<polygon fill="midnightblue" stroke="midnightblue" points="898.882,-759.2 906.674,-752.021 896.106,-752.774 898.882,-759.2"/>
</g>
<!-- Node49 -->
<g id="node39" class="node"><title>Node49</title>
<g id="a_node39"><a xlink:href="classNavEKF2.html#a80ecf97c17c6726160c66575095afb02" target="_top" xlink:title=" ">
<polygon fill="white" stroke="black" points="503.365,-752 503.365,-772 626.635,-772 626.635,-752 503.365,-752"/>
<text text-anchor="middle" x="565" y="-758" font-family="Helvetica,sans-Serif" font-size="10.00">NavEKF2::getOriginLLH</text>
</a>
</g>
</g>
<!-- Node48&#45;&gt;Node49 -->
<g id="edge48" class="edge"><title>Node48&#45;&gt;Node49</title>
<path fill="none" stroke="midnightblue" d="M458.71,-737.411C475.869,-741.418 494.347,-745.734 510.961,-749.614"/>
<polygon fill="midnightblue" stroke="midnightblue" points="510.503,-753.101 521.037,-751.967 512.095,-746.284 510.503,-753.101"/>
</g>
<!-- Node51 -->
<g id="node41" class="node"><title>Node51</title>
<g id="a_node41"><a xlink:href="classNavEKF3.html#ac108a36b646bcb242914b20a3140d9ff" target="_top" xlink:title=" ">
<polygon fill="white" stroke="black" points="503.365,-713 503.365,-733 626.635,-733 626.635,-713 503.365,-713"/>
<text text-anchor="middle" x="565" y="-719" font-family="Helvetica,sans-Serif" font-size="10.00">NavEKF3::getOriginLLH</text>
</a>
</g>
</g>
<!-- Node48&#45;&gt;Node51 -->
<g id="edge50" class="edge"><title>Node48&#45;&gt;Node51</title>
<path fill="none" stroke="midnightblue" d="M458.71,-723C469.808,-723 481.457,-723 492.797,-723"/>
<polygon fill="midnightblue" stroke="midnightblue" points="493.1,-726.5 503.1,-723 493.1,-719.5 493.1,-726.5"/>
</g>
<!-- Node50 -->
<g id="node40" class="node"><title>Node50</title>
<g id="a_node40"><a xlink:href="classNavEKF2__core.html#a438221bc1cc946005c10e47f4cbf7797" target="_top" xlink:title=" ">
<polygon fill="white" stroke="black" points="669.857,-752 669.857,-772 818.143,-772 818.143,-752 669.857,-752"/>
<text text-anchor="middle" x="744" y="-758" font-family="Helvetica,sans-Serif" font-size="10.00">NavEKF2_core::getOriginLLH</text>
</a>
</g>
</g>
<!-- Node49&#45;&gt;Node50 -->
<g id="edge49" class="edge"><title>Node49&#45;&gt;Node50</title>
<path fill="none" stroke="midnightblue" d="M626.913,-762C637.479,-762 648.627,-762 659.668,-762"/>
<polygon fill="midnightblue" stroke="midnightblue" points="659.758,-765.5 669.758,-762 659.758,-758.5 659.758,-765.5"/>
</g>
<!-- Node52 -->
<g id="node42" class="node"><title>Node52</title>
<g id="a_node42"><a xlink:href="classNavEKF3__core.html#a294296c7cecb33960362863a52ef512d" target="_top" xlink:title=" ">
<polygon fill="white" stroke="black" points="669.857,-713 669.857,-733 818.143,-733 818.143,-713 669.857,-713"/>
<text text-anchor="middle" x="744" y="-719" font-family="Helvetica,sans-Serif" font-size="10.00">NavEKF3_core::getOriginLLH</text>
</a>
</g>
</g>
<!-- Node51&#45;&gt;Node52 -->
<g id="edge51" class="edge"><title>Node51&#45;&gt;Node52</title>
<path fill="none" stroke="midnightblue" d="M626.913,-723C637.479,-723 648.627,-723 659.668,-723"/>
<polygon fill="midnightblue" stroke="midnightblue" points="659.758,-726.5 669.758,-723 659.758,-719.5 659.758,-726.5"/>
</g>
<!-- Node54 -->
<g id="node44" class="node"><title>Node54</title>
<g id="a_node44"><a xlink:href="classAP__Baro.html#a92b0efed71f214529da6c54d692f1d61" target="_top" xlink:title=" ">
<polygon fill="white" stroke="black" points="504.463,-206 504.463,-226 625.537,-226 625.537,-206 504.463,-206"/>
<text text-anchor="middle" x="565" y="-212" font-family="Helvetica,sans-Serif" font-size="10.00">AP_Baro::get_singleton</text>
</a>
</g>
</g>
<!-- Node53&#45;&gt;Node54 -->
<g id="edge53" class="edge"><title>Node53&#45;&gt;Node54</title>
<path fill="none" stroke="midnightblue" d="M423.462,-254.711C448.664,-247.769 487.146,-237.169 517.473,-228.816"/>
<polygon fill="midnightblue" stroke="midnightblue" points="518.703,-232.107 527.415,-226.077 516.844,-225.359 518.703,-232.107"/>
</g>
<!-- Node55&#45;&gt;Node55 -->
<g id="edge55" class="edge"><title>Node55&#45;&gt;Node55</title>
<path fill="none" stroke="midnightblue" d="M369.699,-215.048C357.702,-223.771 366.469,-233 396,-233 415.38,-233 425.817,-229.026 427.313,-223.828"/>
<polygon fill="midnightblue" stroke="midnightblue" points="430.298,-221.998 422.301,-215.048 424.219,-225.468 430.298,-221.998"/>
</g>
<!-- Node58 -->
<g id="node48" class="node"><title>Node58</title>
<g id="a_node48"><a xlink:href="AP__Math_8h.html#a68558c4f79a8582543daefde13c64abc" target="_top" xlink:title=" ">
<polygon fill="white" stroke="black" points="354.089,-142 354.089,-162 437.911,-162 437.911,-142 354.089,-142"/>
<text text-anchor="middle" x="396" y="-148" font-family="Helvetica,sans-Serif" font-size="10.00">constrain_int16</text>
</a>
</g>
</g>
<!-- Node57&#45;&gt;Node58 -->
<g id="edge58" class="edge"><title>Node57&#45;&gt;Node58</title>
<path fill="none" stroke="midnightblue" d="M271.007,-180.957C293.331,-175.743 320.751,-169.34 344.124,-163.881"/>
<polygon fill="midnightblue" stroke="midnightblue" points="344.924,-167.289 353.866,-161.606 343.332,-160.472 344.924,-167.289"/>
</g>
<!-- Node59 -->
<g id="node49" class="node"><title>Node59</title>
<g id="a_node49"><a xlink:href="AP__Math_8h.html#a20e8f8671c282c69c1954652b6d61585" target="_top" xlink:title=" ">
<polygon fill="white" stroke="black" points="521.978,-67 521.978,-87 608.022,-87 608.022,-67 521.978,-67"/>
<text text-anchor="middle" x="565" y="-73" font-family="Helvetica,sans-Serif" font-size="10.00">constrain_value</text>
</a>
</g>
</g>
<!-- Node58&#45;&gt;Node59 -->
<g id="edge59" class="edge"><title>Node58&#45;&gt;Node59</title>
<path fill="none" stroke="midnightblue" d="M419.522,-141.885C448.613,-128.821 499.415,-106.005 532.369,-91.2055"/>
<polygon fill="midnightblue" stroke="midnightblue" points="533.88,-94.3638 541.568,-87.0741 531.012,-87.9782 533.88,-94.3638"/>
</g>
<!-- Node60 -->
<g id="node50" class="node"><title>Node60</title>
<g id="a_node50"><a xlink:href="namespaceAP.html#afceb236ff617aaaa2b08afacd72532b0" target="_top" xlink:title=" ">
<polygon fill="white" stroke="black" points="699.596,-67 699.596,-87 788.404,-87 788.404,-67 699.596,-67"/>
<text text-anchor="middle" x="744" y="-73" font-family="Helvetica,sans-Serif" font-size="10.00">AP::internalerror</text>
</a>
</g>
</g>
<!-- Node59&#45;&gt;Node60 -->
<g id="edge60" class="edge"><title>Node59&#45;&gt;Node60</title>
<path fill="none" stroke="midnightblue" d="M608.396,-77C632.683,-77 663.398,-77 689.353,-77"/>
<polygon fill="midnightblue" stroke="midnightblue" points="689.411,-80.5001 699.411,-77 689.411,-73.5001 689.411,-80.5001"/>
</g>
<!-- Node61 -->
<g id="node51" class="node"><title>Node61</title>
<g id="a_node51"><a xlink:href="classAP__InternalError.html#ab34174ba770b976b39a18c2b23e854f2" target="_top" xlink:title=" ">
<polygon fill="white" stroke="black" points="685.426,-28 685.426,-48 802.574,-48 802.574,-28 685.426,-28"/>
<text text-anchor="middle" x="744" y="-34" font-family="Helvetica,sans-Serif" font-size="10.00">AP_InternalError::error</text>
</a>
</g>
</g>
<!-- Node59&#45;&gt;Node61 -->
<g id="edge61" class="edge"><title>Node59&#45;&gt;Node61</title>
<path fill="none" stroke="midnightblue" d="M608.396,-67.6585C632.142,-62.4264 662.031,-55.8406 687.609,-50.2047"/>
<polygon fill="midnightblue" stroke="midnightblue" points="688.53,-53.5858 697.543,-48.016 687.024,-46.7498 688.53,-53.5858"/>
</g>
<!-- Node62 -->
<g id="node52" class="node"><title>Node62</title>
<g id="a_node52"><a xlink:href="namespaceAP__HAL.html#a71832f03d849a0c088f04fc98d3c8143" target="_top" xlink:title=" ">
<polygon fill="white" stroke="black" points="887.091,-28 887.091,-48 970.909,-48 970.909,-28 887.091,-28"/>
<text text-anchor="middle" x="929" y="-34" font-family="Helvetica,sans-Serif" font-size="10.00">AP_HAL::panic</text>
</a>
</g>
</g>
<!-- Node61&#45;&gt;Node62 -->
<g id="edge62" class="edge"><title>Node61&#45;&gt;Node62</title>
<path fill="none" stroke="midnightblue" d="M802.651,-38C826.364,-38 853.607,-38 876.626,-38"/>
<polygon fill="midnightblue" stroke="midnightblue" points="876.876,-41.5001 886.876,-38 876.876,-34.5001 876.876,-41.5001"/>
</g>
<!-- Node63 -->
<g id="node53" class="node"><title>Node63</title>
<g id="a_node53"><a xlink:href="stdio_8h.html#aae132cc6af1eb6cf43bf011d8d63e854" target="_top" xlink:title=" ">
<polygon fill="white" stroke="black" points="1095.38,-51 1095.38,-71 1138.62,-71 1138.62,-51 1095.38,-51"/>
<text text-anchor="middle" x="1117" y="-57" font-family="Helvetica,sans-Serif" font-size="10.00">vprintf</text>
</a>
</g>
</g>
<!-- Node62&#45;&gt;Node63 -->
<g id="edge63" class="edge"><title>Node62&#45;&gt;Node63</title>
<path fill="none" stroke="midnightblue" d="M971.279,-43.1044C1005.65,-47.3545 1053.84,-53.3133 1084.99,-57.1654"/>
<polygon fill="midnightblue" stroke="midnightblue" points="1084.89,-60.68 1095.25,-58.4338 1085.75,-53.7329 1084.89,-60.68"/>
</g>
<!-- Node64 -->
<g id="node54" class="node"><title>Node64</title>
<g id="a_node54"><a xlink:href="classAP__HAL_1_1Scheduler.html#a78c4f1b1f192ac1c99544b6cc8f099b0" target="_top" xlink:title=" ">
<polygon fill="white" stroke="black" points="1061.75,-0 1061.75,-32 1172.25,-32 1172.25,-0 1061.75,-0"/>
<text text-anchor="start" x="1069.75" y="-18" font-family="Helvetica,sans-Serif" font-size="10.00">AP_HAL::Scheduler::</text>
<text text-anchor="middle" x="1117" y="-6" font-family="Helvetica,sans-Serif" font-size="10.00">delay_microseconds</text>
</a>
</g>
</g>
<!-- Node62&#45;&gt;Node64 -->
<g id="edge64" class="edge"><title>Node62&#45;&gt;Node64</title>
<path fill="none" stroke="midnightblue" d="M971.279,-33.1175C994.815,-30.3337 1024.83,-26.7835 1051.42,-23.6387"/>
<polygon fill="midnightblue" stroke="midnightblue" points="1051.9,-27.1062 1061.42,-22.4558 1051.08,-20.1547 1051.9,-27.1062"/>
</g>
<!-- Node65&#45;&gt;Node58 -->
<g id="edge66" class="edge"><title>Node65&#45;&gt;Node58</title>
<path fill="none" stroke="midnightblue" d="M291.612,-152C308.701,-152 326.969,-152 343.323,-152"/>
<polygon fill="midnightblue" stroke="midnightblue" points="343.761,-155.5 353.761,-152 343.761,-148.5 343.761,-155.5"/>
</g>
</g>
</svg>
