<?xml version="1.0" encoding="UTF-8" standalone="no"?>
<!DOCTYPE svg PUBLIC "-//W3C//DTD SVG 1.1//EN"
 "http://www.w3.org/Graphics/SVG/1.1/DTD/svg11.dtd">
<!-- Generated by graphviz version 2.30.1 (20130221.2233)
 -->
<!-- Title: Linux::RCInput::_process_sbus_pulse Pages: 1 -->
<svg width="886pt" height="122pt"
 viewBox="0.00 0.00 886.00 122.00" xmlns="http://www.w3.org/2000/svg" xmlns:xlink="http://www.w3.org/1999/xlink">
<g id="graph0" class="graph" transform="scale(1 1) rotate(0) translate(4 118)">
<title>Linux::RCInput::_process_sbus_pulse</title>
<polygon fill="white" stroke="white" points="-4,5 -4,-118 883,-118 883,5 -4,5"/>
<!-- Node67 -->
<g id="node1" class="node"><title>Node67</title>
<g id="a_node1"><a xlink:title=" ">
<polygon fill="#bfbfbf" stroke="black" points="-0.140137,-13 -0.140137,-45 128.14,-45 128.14,-13 -0.140137,-13"/>
<text text-anchor="start" x="7.85986" y="-31" font-family="Helvetica,sans-Serif" font-size="10.00">Linux::RCInput::_process</text>
<text text-anchor="middle" x="64" y="-19" font-family="Helvetica,sans-Serif" font-size="10.00">_sbus_pulse</text>
</a>
</g>
</g>
<!-- Node68 -->
<g id="node2" class="node"><title>Node68</title>
<g id="a_node2"><a xlink:href="SmartRTL__test_8cpp.html#ad20897c5c8bd47f5d4005989bead0e55" target="_top" xlink:title=" ">
<polygon fill="white" stroke="black" points="182.884,-39 182.884,-59 221.116,-59 221.116,-39 182.884,-39"/>
<text text-anchor="middle" x="202" y="-45" font-family="Helvetica,sans-Serif" font-size="10.00">reset</text>
</a>
</g>
</g>
<!-- Node67&#45;&gt;Node68 -->
<g id="edge1" class="edge"><title>Node67&#45;&gt;Node68</title>
<path fill="none" stroke="midnightblue" d="M128.222,-38.2974C143.83,-40.5926 159.774,-42.9374 172.746,-44.845"/>
<polygon fill="midnightblue" stroke="midnightblue" points="172.467,-48.3416 182.87,-46.3338 173.486,-41.416 172.467,-48.3416"/>
</g>
<!-- Node74 -->
<g id="node8" class="node"><title>Node74</title>
<g id="a_node8"><a xlink:href="sbus_8cpp.html#ae8ff4d6576477166a18b6d229030f21e" target="_top" xlink:title=" ">
<polygon fill="white" stroke="black" points="164.254,-0 164.254,-20 239.746,-20 239.746,-0 164.254,-0"/>
<text text-anchor="middle" x="202" y="-6" font-family="Helvetica,sans-Serif" font-size="10.00">sbus_decode</text>
</a>
</g>
</g>
<!-- Node67&#45;&gt;Node74 -->
<g id="edge10" class="edge"><title>Node67&#45;&gt;Node74</title>
<path fill="none" stroke="midnightblue" d="M128.222,-20.1675C136.806,-18.9682 145.492,-17.7547 153.73,-16.6039"/>
<polygon fill="midnightblue" stroke="midnightblue" points="154.463,-20.0356 163.882,-15.1856 153.494,-13.1029 154.463,-20.0356"/>
</g>
<!-- Node69 -->
<g id="node3" class="node"><title>Node69</title>
<g id="a_node3"><a xlink:href="classAP__SmartRTL.html#ab385d8b52e321f9a01d01b42e52e0c4b" target="_top" xlink:title=" ">
<polygon fill="white" stroke="black" points="428.12,-19 428.12,-39 557.88,-39 557.88,-19 428.12,-19"/>
<text text-anchor="middle" x="493" y="-25" font-family="Helvetica,sans-Serif" font-size="10.00">AP_SmartRTL::set_home</text>
</a>
</g>
</g>
<!-- Node68&#45;&gt;Node69 -->
<g id="edge2" class="edge"><title>Node68&#45;&gt;Node69</title>
<path fill="none" stroke="midnightblue" d="M221.518,-47.7185C260.246,-45.0383 351.659,-38.7122 417.502,-34.1555"/>
<polygon fill="midnightblue" stroke="midnightblue" points="418.104,-37.6224 427.838,-33.4402 417.621,-30.6391 418.104,-37.6224"/>
</g>
<!-- Node73 -->
<g id="node7" class="node"><title>Node73</title>
<g id="a_node7"><a xlink:href="classAP__SmartRTL.html#ab817af3df8d87b6d60859fd7e5e6a0d9" target="_top" xlink:title=" ">
<polygon fill="white" stroke="black" points="275.785,-58 275.785,-78 392.215,-78 392.215,-58 275.785,-58"/>
<text text-anchor="middle" x="334" y="-64" font-family="Helvetica,sans-Serif" font-size="10.00">AP_SmartRTL::update</text>
</a>
</g>
</g>
<!-- Node68&#45;&gt;Node73 -->
<g id="edge6" class="edge"><title>Node68&#45;&gt;Node73</title>
<path fill="none" stroke="midnightblue" d="M221.35,-51.6819C233.116,-53.4016 249.192,-55.7511 265.479,-58.1316"/>
<polygon fill="midnightblue" stroke="midnightblue" points="265.21,-61.6294 275.611,-59.6124 266.223,-54.703 265.21,-61.6294"/>
</g>
<!-- Node70 -->
<g id="node4" class="node"><title>Node70</title>
<g id="a_node4"><a xlink:href="namespaceAP.html#a99432cfdb696952c9b7146f155a815aa" target="_top" xlink:title=" ">
<polygon fill="white" stroke="black" points="626.825,-27 626.825,-47 681.175,-47 681.175,-27 626.825,-27"/>
<text text-anchor="middle" x="654" y="-33" font-family="Helvetica,sans-Serif" font-size="10.00">AP::ahrs</text>
</a>
</g>
</g>
<!-- Node69&#45;&gt;Node70 -->
<g id="edge3" class="edge"><title>Node69&#45;&gt;Node70</title>
<path fill="none" stroke="midnightblue" d="M558.213,-32.2308C578.055,-33.2292 599.218,-34.294 616.501,-35.1636"/>
<polygon fill="midnightblue" stroke="midnightblue" points="616.552,-38.6705 626.715,-35.6775 616.904,-31.6793 616.552,-38.6705"/>
</g>
<!-- Node72 -->
<g id="node6" class="node"><title>Node72</title>
<g id="a_node6"><a xlink:href="classAP__AHRS.html#a3e061eda3110837c4f389b75003423e2" target="_top" xlink:title=" ">
<polygon fill="white" stroke="black" points="594.03,-82 594.03,-114 713.97,-114 713.97,-82 594.03,-82"/>
<text text-anchor="start" x="602.03" y="-100" font-family="Helvetica,sans-Serif" font-size="10.00">AP_AHRS::get_relative</text>
<text text-anchor="middle" x="654" y="-88" font-family="Helvetica,sans-Serif" font-size="10.00">_position_NED_origin</text>
</a>
</g>
</g>
<!-- Node69&#45;&gt;Node72 -->
<g id="edge5" class="edge"><title>Node69&#45;&gt;Node72</title>
<path fill="none" stroke="midnightblue" d="M517.12,-39.0332C540.513,-49.185 577.325,-65.1599 606.736,-77.923"/>
<polygon fill="midnightblue" stroke="midnightblue" points="605.431,-81.1723 615.998,-81.9426 608.218,-74.7509 605.431,-81.1723"/>
</g>
<!-- Node71 -->
<g id="node5" class="node"><title>Node71</title>
<g id="a_node5"><a xlink:href="classAP__AHRS.html#a3db167e808ba6d312c3b746e558008e9" target="_top" xlink:title=" ">
<polygon fill="white" stroke="black" points="750.133,-27 750.133,-47 877.867,-47 877.867,-27 750.133,-27"/>
<text text-anchor="middle" x="814" y="-33" font-family="Helvetica,sans-Serif" font-size="10.00">AP_AHRS::get_singleton</text>
</a>
</g>
</g>
<!-- Node70&#45;&gt;Node71 -->
<g id="edge4" class="edge"><title>Node70&#45;&gt;Node71</title>
<path fill="none" stroke="midnightblue" d="M681.446,-37C697.526,-37 718.923,-37 739.78,-37"/>
<polygon fill="midnightblue" stroke="midnightblue" points="739.95,-40.5001 749.95,-37 739.95,-33.5001 739.95,-40.5001"/>
</g>
<!-- Node73&#45;&gt;Node69 -->
<g id="edge7" class="edge"><title>Node73&#45;&gt;Node69</title>
<path fill="none" stroke="midnightblue" d="M375.431,-57.9565C395.667,-52.9298 420.356,-46.7968 441.795,-41.4713"/>
<polygon fill="midnightblue" stroke="midnightblue" points="442.844,-44.8171 451.706,-39.0094 441.157,-38.0235 442.844,-44.8171"/>
</g>
<!-- Node73&#45;&gt;Node70 -->
<g id="edge8" class="edge"><title>Node73&#45;&gt;Node70</title>
<path fill="none" stroke="midnightblue" d="M392.33,-63.2682C437.395,-59.4497 501.739,-53.7791 558,-48 577.467,-46.0003 599.147,-43.5102 616.875,-41.4051"/>
<polygon fill="midnightblue" stroke="midnightblue" points="617.296,-44.8798 626.81,-40.2168 616.465,-37.9293 617.296,-44.8798"/>
</g>
<!-- Node73&#45;&gt;Node72 -->
<g id="edge9" class="edge"><title>Node73&#45;&gt;Node72</title>
<path fill="none" stroke="midnightblue" d="M392.455,-77.3692C404.193,-79.0804 416.478,-80.725 428,-82 479.999,-87.7538 539.001,-91.8596 583.535,-94.4705"/>
<polygon fill="midnightblue" stroke="midnightblue" points="583.484,-97.9733 593.669,-95.0535 583.886,-90.9848 583.484,-97.9733"/>
</g>
</g>
</svg>
