<?xml version="1.0" encoding="UTF-8" standalone="no"?>
<!DOCTYPE svg PUBLIC "-//W3C//DTD SVG 1.1//EN"
 "http://www.w3.org/Graphics/SVG/1.1/DTD/svg11.dtd">
<!-- Generated by graphviz version 2.30.1 (20130221.2233)
 -->
<!-- Title: Vector3::normalized Pages: 1 -->
<!--zoomable 385 -->
<svg id="main" version="1.1" xmlns="http://www.w3.org/2000/svg" xmlns:xlink="http://www.w3.org/1999/xlink" xml:space="preserve" onload="init(evt)">
<style type="text/css"><![CDATA[
.edge:hover path { stroke: red; }
.edge:hover polygon { stroke: red; fill: red; }
]]></style>
<script type="text/javascript"><![CDATA[
var edges = document.getElementsByTagName('g');
if (edges && edges.length) {
  for (var i=0;i<edges.length;i++) {
    if (edges[i].id.substr(0,4)=='edge') {
      edges[i].setAttribute('class','edge');
    }
  }
}
]]></script>
        <defs>
                <circle id="rim" cx="0" cy="0" r="7"/>
                <circle id="rim2" cx="0" cy="0" r="3.5"/>
                <g id="zoomPlus">
                        <use xlink:href="#rim" fill="#404040">
                                <set attributeName="fill" to="#808080" begin="zoomplus.mouseover" end="zoomplus.mouseout"/>
                        </use>
                        <path d="M-4,0h8M0,-4v8" fill="none" stroke="white" stroke-width="1.5" pointer-events="none"/>
                </g>
                <g id="zoomMin">
                        <use xlink:href="#rim" fill="#404040">
                                <set attributeName="fill" to="#808080" begin="zoomminus.mouseover" end="zoomminus.mouseout"/>
                        </use>
                        <path d="M-4,0h8" fill="none" stroke="white" stroke-width="1.5" pointer-events="none"/>
                </g>
                <g id="dirArrow">
                        <path fill="none" stroke="white" stroke-width="1.5" d="M0,-3.0v7 M-2.5,-0.5L0,-3.0L2.5,-0.5"/>
                </g>
               <g id="resetDef">
                       <use xlink:href="#rim2" fill="#404040">
                               <set attributeName="fill" to="#808080" begin="reset.mouseover" end="reset.mouseout"/>
                       </use>
               </g>
        </defs>

<script type="text/javascript">
var viewWidth = 2030;
var viewHeight = 385;
var sectionId = 'dynsection-10';
</script>
<script xlink:href="svgpan.js"/>
<svg id="graph" class="graph">
<g id="viewport">
<title>Vector3::normalized</title>
<polygon fill="white" stroke="white" points="-4,5 -4,-381 2027,-381 2027,5 -4,5"/>
<!-- Node594 -->
<g id="node1" class="node"><title>Node594</title>
<g id="a_node1"><a xlink:title=" ">
<polygon fill="#bfbfbf" stroke="black" points="1917.81,-219 1917.81,-239 2022.19,-239 2022.19,-219 1917.81,-219"/>
<text text-anchor="middle" x="1970" y="-225" font-family="Helvetica,sans-Serif" font-size="10.00">Vector3::normalized</text>
</a>
</g>
</g>
<!-- Node595 -->
<g id="node2" class="node"><title>Node595</title>
<g id="a_node2"><a xlink:href="classCompass.html#af8d0469972b7da6464a0d91e20715082" target="_top" xlink:title=" ">
<polygon fill="white" stroke="black" points="1772.59,-219 1772.59,-239 1881.41,-239 1881.41,-219 1772.59,-219"/>
<text text-anchor="middle" x="1827" y="-225" font-family="Helvetica,sans-Serif" font-size="10.00">Compass::consistent</text>
</a>
</g>
</g>
<!-- Node594&#45;&gt;Node595 -->
<g id="edge1" class="edge"><title>Node594&#45;&gt;Node595</title>
<path fill="none" stroke="midnightblue" d="M1907.44,-229C1898.92,-229 1890.23,-229 1881.87,-229"/>
<polygon fill="midnightblue" stroke="midnightblue" points="1907.7,-232.5 1917.7,-229 1907.7,-225.5 1907.7,-232.5"/>
</g>
<!-- Node596 -->
<g id="node3" class="node"><title>Node596</title>
<g id="a_node3"><a xlink:href="classAP__Arming.html#a24332b3f5e2e233914bce12e69ae9564" target="_top" xlink:title=" ">
<polygon fill="white" stroke="black" points="1604.93,-270 1604.93,-302 1717.07,-302 1717.07,-270 1604.93,-270"/>
<text text-anchor="start" x="1612.93" y="-288" font-family="Helvetica,sans-Serif" font-size="10.00">AP_Arming::compass</text>
<text text-anchor="middle" x="1661" y="-276" font-family="Helvetica,sans-Serif" font-size="10.00">_checks</text>
</a>
</g>
</g>
<!-- Node595&#45;&gt;Node596 -->
<g id="edge2" class="edge"><title>Node595&#45;&gt;Node596</title>
<path fill="none" stroke="midnightblue" d="M1787.36,-242.428C1763.7,-250.653 1733.27,-261.23 1708.31,-269.903"/>
<polygon fill="midnightblue" stroke="midnightblue" points="1788.76,-245.648 1797.06,-239.059 1786.46,-239.036 1788.76,-245.648"/>
</g>
<!-- Node607 -->
<g id="node14" class="node"><title>Node607</title>
<g id="a_node14"><a xlink:href="classNavEKF2__core.html#abf6ac301297f486d9690d97c7a19dad8" target="_top" xlink:title=" ">
<polygon fill="white" stroke="black" points="1586.02,-106 1586.02,-126 1735.98,-126 1735.98,-106 1586.02,-106"/>
<text text-anchor="middle" x="1661" y="-112" font-family="Helvetica,sans-Serif" font-size="10.00">NavEKF2_core::readMagData</text>
</a>
</g>
</g>
<!-- Node595&#45;&gt;Node607 -->
<g id="edge13" class="edge"><title>Node595&#45;&gt;Node607</title>
<path fill="none" stroke="midnightblue" d="M1803.02,-213.164C1768.8,-189.586 1705.42,-145.917 1676.76,-126.168"/>
<polygon fill="midnightblue" stroke="midnightblue" points="1801.23,-216.18 1811.45,-218.972 1805.2,-210.416 1801.23,-216.18"/>
</g>
<!-- Node623 -->
<g id="node30" class="node"><title>Node623</title>
<g id="a_node30"><a xlink:href="classNavEKF3__core.html#a39fe9f76e9c368cba51e9af9b2367513" target="_top" xlink:title=" ">
<polygon fill="white" stroke="black" points="1400.02,-219 1400.02,-239 1549.98,-239 1549.98,-219 1400.02,-219"/>
<text text-anchor="middle" x="1475" y="-225" font-family="Helvetica,sans-Serif" font-size="10.00">NavEKF3_core::readMagData</text>
</a>
</g>
</g>
<!-- Node595&#45;&gt;Node623 -->
<g id="edge34" class="edge"><title>Node595&#45;&gt;Node623</title>
<path fill="none" stroke="midnightblue" d="M1762.39,-229C1702.55,-229 1612.98,-229 1549.98,-229"/>
<polygon fill="midnightblue" stroke="midnightblue" points="1762.46,-232.5 1772.46,-229 1762.46,-225.5 1762.46,-232.5"/>
</g>
<!-- Node597 -->
<g id="node4" class="node"><title>Node597</title>
<g id="a_node4"><a xlink:href="classAP__Arming.html#a73c03baf7f22b7124a2ac9e9286a850a" target="_top" xlink:title=" ">
<polygon fill="white" stroke="black" points="1420.32,-294 1420.32,-326 1529.68,-326 1529.68,-294 1420.32,-294"/>
<text text-anchor="start" x="1428.32" y="-312" font-family="Helvetica,sans-Serif" font-size="10.00">AP_Arming::pre_arm</text>
<text text-anchor="middle" x="1475" y="-300" font-family="Helvetica,sans-Serif" font-size="10.00">_checks</text>
</a>
</g>
</g>
<!-- Node596&#45;&gt;Node597 -->
<g id="edge3" class="edge"><title>Node596&#45;&gt;Node597</title>
<path fill="none" stroke="midnightblue" d="M1594.87,-294.495C1573.61,-297.269 1550.24,-300.316 1529.9,-302.969"/>
<polygon fill="midnightblue" stroke="midnightblue" points="1595.33,-297.965 1604.79,-293.201 1594.43,-291.024 1595.33,-297.965"/>
</g>
<!-- Node598 -->
<g id="node5" class="node"><title>Node598</title>
<g id="a_node5"><a xlink:href="classAP__Arming.html#abeebfae7f8ef321308d6ca739c25d4f9" target="_top" xlink:title=" ">
<polygon fill="white" stroke="black" points="1245.32,-312 1245.32,-332 1334.68,-332 1334.68,-312 1245.32,-312"/>
<text text-anchor="middle" x="1290" y="-318" font-family="Helvetica,sans-Serif" font-size="10.00">AP_Arming::arm</text>
</a>
</g>
</g>
<!-- Node597&#45;&gt;Node598 -->
<g id="edge4" class="edge"><title>Node597&#45;&gt;Node598</title>
<path fill="none" stroke="midnightblue" d="M1409.99,-314.198C1385.1,-315.83 1357.22,-317.658 1334.7,-319.134"/>
<polygon fill="midnightblue" stroke="midnightblue" points="1410.33,-317.682 1420.08,-313.535 1409.88,-310.697 1410.33,-317.682"/>
</g>
<!-- Node599 -->
<g id="node6" class="node"><title>Node599</title>
<g id="a_node6"><a xlink:href="classRC__Channel.html#a070b1061842188951985a20f5d1a886f" target="_top" xlink:title=" ">
<polygon fill="white" stroke="black" points="1040.19,-309 1040.19,-341 1151.81,-341 1151.81,-309 1040.19,-309"/>
<text text-anchor="start" x="1048.19" y="-327" font-family="Helvetica,sans-Serif" font-size="10.00">RC_Channel::do_aux</text>
<text text-anchor="middle" x="1096" y="-315" font-family="Helvetica,sans-Serif" font-size="10.00">_function</text>
</a>
</g>
</g>
<!-- Node598&#45;&gt;Node599 -->
<g id="edge5" class="edge"><title>Node598&#45;&gt;Node599</title>
<path fill="none" stroke="midnightblue" d="M1234.9,-322.845C1208.94,-323.251 1177.89,-323.736 1151.83,-324.143"/>
<polygon fill="midnightblue" stroke="midnightblue" points="1235.01,-326.344 1244.95,-322.688 1234.9,-319.345 1235.01,-326.344"/>
</g>
<!-- Node600 -->
<g id="node7" class="node"><title>Node600</title>
<g id="a_node7"><a xlink:href="classRC__Channel.html#a1bc648b7400d7068721d275275f7927e" target="_top" xlink:title=" ">
<polygon fill="white" stroke="black" points="835.36,-345 835.36,-377 948.64,-377 948.64,-345 835.36,-345"/>
<text text-anchor="start" x="843.36" y="-363" font-family="Helvetica,sans-Serif" font-size="10.00">RC_Channel::init_aux</text>
<text text-anchor="middle" x="892" y="-351" font-family="Helvetica,sans-Serif" font-size="10.00">_function</text>
</a>
</g>
</g>
<!-- Node599&#45;&gt;Node600 -->
<g id="edge6" class="edge"><title>Node599&#45;&gt;Node600</title>
<path fill="none" stroke="midnightblue" d="M1029.9,-336.603C1003.82,-341.251 974.064,-346.553 948.974,-351.024"/>
<polygon fill="midnightblue" stroke="midnightblue" points="1030.84,-339.99 1040.07,-334.79 1029.61,-333.099 1030.84,-339.99"/>
</g>
<!-- Node605 -->
<g id="node12" class="node"><title>Node605</title>
<g id="a_node12"><a xlink:href="classRC__Channel.html#aac5143b957916aec428b6bc79f29456d" target="_top" xlink:title=" ">
<polygon fill="white" stroke="black" points="831.744,-306 831.744,-326 952.256,-326 952.256,-306 831.744,-306"/>
<text text-anchor="middle" x="892" y="-312" font-family="Helvetica,sans-Serif" font-size="10.00">RC_Channel::read_aux</text>
</a>
</g>
</g>
<!-- Node599&#45;&gt;Node605 -->
<g id="edge11" class="edge"><title>Node599&#45;&gt;Node605</title>
<path fill="none" stroke="midnightblue" d="M1029.99,-322.104C1005.11,-320.995 976.873,-319.737 952.527,-318.652"/>
<polygon fill="midnightblue" stroke="midnightblue" points="1029.92,-325.604 1040.07,-322.553 1030.24,-318.611 1029.92,-325.604"/>
</g>
<!-- Node601 -->
<g id="node8" class="node"><title>Node601</title>
<g id="a_node8"><a xlink:href="classRC__Channel.html#a2e0ed24b88e1d47d9056bc8b6e28650f" target="_top" xlink:title=" ">
<polygon fill="white" stroke="black" points="643.36,-351 643.36,-371 756.64,-371 756.64,-351 643.36,-351"/>
<text text-anchor="middle" x="700" y="-357" font-family="Helvetica,sans-Serif" font-size="10.00">RC_Channel::init_aux</text>
</a>
</g>
</g>
<!-- Node600&#45;&gt;Node601 -->
<g id="edge7" class="edge"><title>Node600&#45;&gt;Node601</title>
<path fill="none" stroke="midnightblue" d="M825.209,-361C802.887,-361 778.181,-361 756.721,-361"/>
<polygon fill="midnightblue" stroke="midnightblue" points="825.278,-364.5 835.278,-361 825.277,-357.5 825.278,-364.5"/>
</g>
<!-- Node602 -->
<g id="node9" class="node"><title>Node602</title>
<g id="a_node9"><a xlink:href="classRC__Channels.html#a668ee11266919ed21cc542df61043cca" target="_top" xlink:title=" ">
<polygon fill="white" stroke="black" points="458.077,-351 458.077,-371 591.923,-371 591.923,-351 458.077,-351"/>
<text text-anchor="middle" x="525" y="-357" font-family="Helvetica,sans-Serif" font-size="10.00">RC_Channels::init_aux_all</text>
</a>
</g>
</g>
<!-- Node601&#45;&gt;Node602 -->
<g id="edge8" class="edge"><title>Node601&#45;&gt;Node602</title>
<path fill="none" stroke="midnightblue" d="M633.193,-361C619.754,-361 605.606,-361 592.154,-361"/>
<polygon fill="midnightblue" stroke="midnightblue" points="633.309,-364.5 643.309,-361 633.309,-357.5 633.309,-364.5"/>
</g>
<!-- Node603 -->
<g id="node10" class="node"><title>Node603</title>
<g id="a_node10"><a xlink:href="classRC__Channels.html#a41ac050f115225f84b06b97fb79ee56f" target="_top" xlink:title=" ">
<polygon fill="white" stroke="black" points="287.702,-351 287.702,-371 384.298,-371 384.298,-351 287.702,-351"/>
<text text-anchor="middle" x="336" y="-357" font-family="Helvetica,sans-Serif" font-size="10.00">RC_Channels::init</text>
</a>
</g>
</g>
<!-- Node602&#45;&gt;Node603 -->
<g id="edge9" class="edge"><title>Node602&#45;&gt;Node603</title>
<path fill="none" stroke="midnightblue" d="M447.974,-361C426.48,-361 403.71,-361 384.425,-361"/>
<polygon fill="midnightblue" stroke="midnightblue" points="448.071,-364.5 458.071,-361 448.071,-357.5 448.071,-364.5"/>
</g>
<!-- Node604 -->
<g id="node11" class="node"><title>Node604</title>
<g id="a_node11"><a xlink:href="AC__PID__test_8cpp.html#a4fc01d736fe50cf5b977f755b675f11d" target="_top" xlink:title=" ">
<polygon fill="white" stroke="black" points="122.769,-351 122.769,-371 163.231,-371 163.231,-351 122.769,-351"/>
<text text-anchor="middle" x="143" y="-357" font-family="Helvetica,sans-Serif" font-size="10.00">setup</text>
</a>
</g>
</g>
<!-- Node603&#45;&gt;Node604 -->
<g id="edge10" class="edge"><title>Node603&#45;&gt;Node604</title>
<path fill="none" stroke="midnightblue" d="M277.17,-361C238.438,-361 189.861,-361 163.392,-361"/>
<polygon fill="midnightblue" stroke="midnightblue" points="277.295,-364.5 287.295,-361 277.295,-357.5 277.295,-364.5"/>
</g>
<!-- Node606 -->
<g id="node13" class="node"><title>Node606</title>
<g id="a_node13"><a xlink:href="classRC__Channels.html#afce42af83fb4e3a19d56c330a99c59b5" target="_top" xlink:title=" ">
<polygon fill="white" stroke="black" points="629.461,-306 629.461,-326 770.539,-326 770.539,-306 629.461,-306"/>
<text text-anchor="middle" x="700" y="-312" font-family="Helvetica,sans-Serif" font-size="10.00">RC_Channels::read_aux_all</text>
</a>
</g>
</g>
<!-- Node605&#45;&gt;Node606 -->
<g id="edge12" class="edge"><title>Node605&#45;&gt;Node606</title>
<path fill="none" stroke="midnightblue" d="M821.544,-316C805.027,-316 787.397,-316 770.862,-316"/>
<polygon fill="midnightblue" stroke="midnightblue" points="821.664,-319.5 831.664,-316 821.664,-312.5 821.664,-319.5"/>
</g>
<!-- Node608 -->
<g id="node15" class="node"><title>Node608</title>
<g id="a_node15"><a xlink:href="classNavEKF2__core.html#af6d172634e15ba1643bf4c53c390f5e2" target="_top" xlink:title=" ">
<polygon fill="white" stroke="black" points="1401.69,-78 1401.69,-110 1548.31,-110 1548.31,-78 1401.69,-78"/>
<text text-anchor="start" x="1409.69" y="-96" font-family="Helvetica,sans-Serif" font-size="10.00">NavEKF2_core::calcQuatAnd</text>
<text text-anchor="middle" x="1475" y="-84" font-family="Helvetica,sans-Serif" font-size="10.00">FieldStates</text>
</a>
</g>
</g>
<!-- Node607&#45;&gt;Node608 -->
<g id="edge14" class="edge"><title>Node607&#45;&gt;Node608</title>
<path fill="none" stroke="midnightblue" d="M1576.01,-105.958C1566.79,-104.855 1557.46,-103.74 1548.4,-102.656"/>
<polygon fill="midnightblue" stroke="midnightblue" points="1575.61,-109.435 1585.96,-107.147 1576.44,-102.484 1575.61,-109.435"/>
</g>
<!-- Node619 -->
<g id="node26" class="node"><title>Node619</title>
<g id="a_node26"><a xlink:href="classNavEKF2__core.html#a4a06ae47c3edebdecd2b179a0567f00b" target="_top" xlink:title=" ">
<polygon fill="white" stroke="black" points="829.254,-123 829.254,-155 954.746,-155 954.746,-123 829.254,-123"/>
<text text-anchor="start" x="837.254" y="-141" font-family="Helvetica,sans-Serif" font-size="10.00">NavEKF2_core::Initialise</text>
<text text-anchor="middle" x="892" y="-129" font-family="Helvetica,sans-Serif" font-size="10.00">FilterBootstrap</text>
</a>
</g>
</g>
<!-- Node607&#45;&gt;Node619 -->
<g id="edge27" class="edge"><title>Node607&#45;&gt;Node619</title>
<path fill="none" stroke="midnightblue" d="M1575.31,-118.54C1419.63,-123.208 1091.46,-133.049 954.783,-137.147"/>
<polygon fill="midnightblue" stroke="midnightblue" points="1575.87,-122.024 1585.76,-118.226 1575.66,-115.028 1575.87,-122.024"/>
</g>
<!-- Node610 -->
<g id="node17" class="node"><title>Node610</title>
<g id="a_node17"><a xlink:href="classNavEKF2__core.html#aa0f6cd840e93e0233f056c88ce45ef85" target="_top" xlink:title=" ">
<polygon fill="white" stroke="black" points="1012.69,-0 1012.69,-20 1179.31,-20 1179.31,-0 1012.69,-0"/>
<text text-anchor="middle" x="1096" y="-6" font-family="Helvetica,sans-Serif" font-size="10.00">NavEKF2_core::SelectMagFusion</text>
</a>
</g>
</g>
<!-- Node607&#45;&gt;Node610 -->
<g id="edge33" class="edge"><title>Node607&#45;&gt;Node610</title>
<path fill="none" stroke="midnightblue" d="M1632.53,-101.395C1610.75,-90.4658 1579.22,-76.0674 1550,-68 1423.51,-33.0751 1271.24,-19.0664 1179.39,-13.5264"/>
<polygon fill="midnightblue" stroke="midnightblue" points="1631.02,-104.555 1641.52,-105.987 1634.21,-98.3214 1631.02,-104.555"/>
</g>
<!-- Node609 -->
<g id="node16" class="node"><title>Node609</title>
<g id="a_node16"><a xlink:href="classNavEKF2__core.html#a3989e564224adfa26b0e32a5a03aca10" target="_top" xlink:title=" ">
<polygon fill="white" stroke="black" points="1220.58,-68 1220.58,-100 1359.42,-100 1359.42,-68 1220.58,-68"/>
<text text-anchor="start" x="1228.58" y="-86" font-family="Helvetica,sans-Serif" font-size="10.00">NavEKF2_core::controlMag</text>
<text text-anchor="middle" x="1290" y="-74" font-family="Helvetica,sans-Serif" font-size="10.00">YawReset</text>
</a>
</g>
</g>
<!-- Node608&#45;&gt;Node609 -->
<g id="edge15" class="edge"><title>Node608&#45;&gt;Node609</title>
<path fill="none" stroke="midnightblue" d="M1391.49,-89.4915C1380.8,-88.9074 1369.95,-88.3142 1359.52,-87.7443"/>
<polygon fill="midnightblue" stroke="midnightblue" points="1391.5,-92.9968 1401.67,-90.0477 1391.88,-86.0072 1391.5,-92.9968"/>
</g>
<!-- Node609&#45;&gt;Node610 -->
<g id="edge16" class="edge"><title>Node609&#45;&gt;Node610</title>
<path fill="none" stroke="midnightblue" d="M1252.81,-62.9492C1232.05,-51.593 1205.18,-38.084 1180,-29 1170.41,-25.5392 1159.95,-22.5636 1149.8,-20.0632"/>
<polygon fill="midnightblue" stroke="midnightblue" points="1251.16,-66.0348 1261.6,-67.828 1254.56,-59.9145 1251.16,-66.0348"/>
</g>
<!-- Node616 -->
<g id="node23" class="node"><title>Node616</title>
<g id="a_node23"><a xlink:href="classNavEKF2__core.html#aff31047fa71772bca7ce574617ede0f6" target="_top" xlink:title=" ">
<polygon fill="white" stroke="black" points="1021.85,-78 1021.85,-110 1170.15,-110 1170.15,-78 1021.85,-78"/>
<text text-anchor="start" x="1029.85" y="-96" font-family="Helvetica,sans-Serif" font-size="10.00">NavEKF2_core::SelectVelPos</text>
<text text-anchor="middle" x="1096" y="-84" font-family="Helvetica,sans-Serif" font-size="10.00">Fusion</text>
</a>
</g>
</g>
<!-- Node609&#45;&gt;Node616 -->
<g id="edge22" class="edge"><title>Node609&#45;&gt;Node616</title>
<path fill="none" stroke="midnightblue" d="M1210.46,-88.0905C1197.2,-88.7812 1183.48,-89.4959 1170.35,-90.1794"/>
<polygon fill="midnightblue" stroke="midnightblue" points="1210.69,-91.5834 1220.5,-87.5679 1210.33,-84.5928 1210.69,-91.5834"/>
</g>
<!-- Node617 -->
<g id="node24" class="node"><title>Node617</title>
<g id="a_node24"><a xlink:href="classNavEKF2__core.html#a9bd042974d65cfc6b789959c980281e9" target="_top" xlink:title=" ">
<polygon fill="white" stroke="black" points="1018.24,-39 1018.24,-59 1173.76,-59 1173.76,-39 1018.24,-39"/>
<text text-anchor="middle" x="1096" y="-45" font-family="Helvetica,sans-Serif" font-size="10.00">NavEKF2_core::setAidingMode</text>
</a>
</g>
</g>
<!-- Node609&#45;&gt;Node617 -->
<g id="edge24" class="edge"><title>Node609&#45;&gt;Node617</title>
<path fill="none" stroke="midnightblue" d="M1210.62,-69.7113C1190.92,-66.12 1170.19,-62.342 1151.91,-59.0103"/>
<polygon fill="midnightblue" stroke="midnightblue" points="1210.03,-73.1622 1220.5,-71.5124 1211.29,-66.2757 1210.03,-73.1622"/>
</g>
<!-- Node611 -->
<g id="node18" class="node"><title>Node611</title>
<g id="a_node18"><a xlink:href="classNavEKF2__core.html#a5f5c815cbd5ebba30d731f89f87726c3" target="_top" xlink:title=" ">
<polygon fill="white" stroke="black" points="628.084,-51 628.084,-71 771.916,-71 771.916,-51 628.084,-51"/>
<text text-anchor="middle" x="700" y="-57" font-family="Helvetica,sans-Serif" font-size="10.00">NavEKF2_core::UpdateFilter</text>
</a>
</g>
</g>
<!-- Node610&#45;&gt;Node611 -->
<g id="edge17" class="edge"><title>Node610&#45;&gt;Node611</title>
<path fill="none" stroke="midnightblue" d="M1002.57,-7.29581C945.916,-7.33517 872.185,-10.439 808,-23 777.82,-28.9062 744.689,-41.725 723.41,-50.8386"/>
<polygon fill="midnightblue" stroke="midnightblue" points="1002.58,-10.7957 1012.59,-7.32048 1002.6,-3.79575 1002.58,-10.7957"/>
</g>
<!-- Node612 -->
<g id="node19" class="node"><title>Node612</title>
<g id="a_node19"><a xlink:href="classNavEKF2.html#a72815b1bbd9d7ceb0ff7ae52d14516df" target="_top" xlink:title=" ">
<polygon fill="white" stroke="black" points="465.591,-51 465.591,-71 584.409,-71 584.409,-51 465.591,-51"/>
<text text-anchor="middle" x="525" y="-57" font-family="Helvetica,sans-Serif" font-size="10.00">NavEKF2::UpdateFilter</text>
</a>
</g>
</g>
<!-- Node611&#45;&gt;Node612 -->
<g id="edge18" class="edge"><title>Node611&#45;&gt;Node612</title>
<path fill="none" stroke="midnightblue" d="M617.484,-61C606.373,-61 595.153,-61 584.559,-61"/>
<polygon fill="midnightblue" stroke="midnightblue" points="617.636,-64.5001 627.635,-61 617.635,-57.5001 617.636,-64.5001"/>
</g>
<!-- Node613 -->
<g id="node20" class="node"><title>Node613</title>
<g id="a_node20"><a xlink:href="classAP__AHRS__NavEKF.html#a0187c6d3d4348b002a204c05d3e94b07" target="_top" xlink:title=" ">
<polygon fill="white" stroke="black" points="249.904,-90 249.904,-110 422.096,-110 422.096,-90 249.904,-90"/>
<text text-anchor="middle" x="336" y="-96" font-family="Helvetica,sans-Serif" font-size="10.00">AP_AHRS_NavEKF::update_EKF2</text>
</a>
</g>
</g>
<!-- Node612&#45;&gt;Node613 -->
<g id="edge19" class="edge"><title>Node612&#45;&gt;Node613</title>
<path fill="none" stroke="midnightblue" d="M465.757,-73.1469C439.809,-78.5585 409.617,-84.8552 384.994,-89.9906"/>
<polygon fill="midnightblue" stroke="midnightblue" points="466.768,-76.5115 475.843,-71.0435 465.339,-69.6589 466.768,-76.5115"/>
</g>
<!-- Node614 -->
<g id="node21" class="node"><title>Node614</title>
<g id="a_node21"><a xlink:href="classAP__AHRS__NavEKF.html#ac8111979c5dc37a55b2c50818534ea52" target="_top" xlink:title=" ">
<polygon fill="white" stroke="black" points="72.1899,-155 72.1899,-175 213.81,-175 213.81,-155 72.1899,-155"/>
<text text-anchor="middle" x="143" y="-161" font-family="Helvetica,sans-Serif" font-size="10.00">AP_AHRS_NavEKF::update</text>
</a>
</g>
</g>
<!-- Node613&#45;&gt;Node614 -->
<g id="edge20" class="edge"><title>Node613&#45;&gt;Node614</title>
<path fill="none" stroke="midnightblue" d="M295.811,-113.337C259.496,-125.695 206.28,-143.805 173.459,-154.975"/>
<polygon fill="midnightblue" stroke="midnightblue" points="297.236,-116.549 305.575,-110.014 294.98,-109.922 297.236,-116.549"/>
</g>
<!-- Node615 -->
<g id="node22" class="node"><title>Node615</title>
<g id="a_node22"><a xlink:href="AHRS__Test_8cpp.html#afe461d27b9c48d5921c00d521181f12f" target="_top" xlink:title=" ">
<polygon fill="white" stroke="black" points="0.546875,-155 0.546875,-175 35.4531,-175 35.4531,-155 0.546875,-155"/>
<text text-anchor="middle" x="18" y="-161" font-family="Helvetica,sans-Serif" font-size="10.00">loop</text>
</a>
</g>
</g>
<!-- Node614&#45;&gt;Node615 -->
<g id="edge21" class="edge"><title>Node614&#45;&gt;Node615</title>
<path fill="none" stroke="midnightblue" d="M61.8306,-165C51.9771,-165 42.8299,-165 35.5404,-165"/>
<polygon fill="midnightblue" stroke="midnightblue" points="61.8769,-168.5 71.8769,-165 61.8769,-161.5 61.8769,-168.5"/>
</g>
<!-- Node616&#45;&gt;Node611 -->
<g id="edge23" class="edge"><title>Node616&#45;&gt;Node611</title>
<path fill="none" stroke="midnightblue" d="M1011.68,-89.3268C954.348,-85.8336 876.481,-80.5418 808,-74 796.357,-72.8878 784.022,-71.5438 772.026,-70.1475"/>
<polygon fill="midnightblue" stroke="midnightblue" points="1011.59,-92.8274 1021.78,-89.9365 1012.01,-85.8401 1011.59,-92.8274"/>
</g>
<!-- Node618 -->
<g id="node25" class="node"><title>Node618</title>
<g id="a_node25"><a xlink:href="classNavEKF2__core.html#a9c41b138c335540f4cc51c4b3fff9b9f" target="_top" xlink:title=" ">
<polygon fill="white" stroke="black" points="821.2,-33 821.2,-65 962.8,-65 962.8,-33 821.2,-33"/>
<text text-anchor="start" x="829.2" y="-51" font-family="Helvetica,sans-Serif" font-size="10.00">NavEKF2_core::controlFilter</text>
<text text-anchor="middle" x="892" y="-39" font-family="Helvetica,sans-Serif" font-size="10.00">Modes</text>
</a>
</g>
</g>
<!-- Node617&#45;&gt;Node618 -->
<g id="edge25" class="edge"><title>Node617&#45;&gt;Node618</title>
<path fill="none" stroke="midnightblue" d="M1007.8,-49C992.862,-49 977.515,-49 963.098,-49"/>
<polygon fill="midnightblue" stroke="midnightblue" points="1008.06,-52.5001 1018.06,-49 1008.06,-45.5001 1008.06,-52.5001"/>
</g>
<!-- Node618&#45;&gt;Node611 -->
<g id="edge26" class="edge"><title>Node618&#45;&gt;Node611</title>
<path fill="none" stroke="midnightblue" d="M810.832,-54.0632C797.956,-54.8765 784.707,-55.7132 772.063,-56.5118"/>
<polygon fill="midnightblue" stroke="midnightblue" points="811.301,-57.5407 821.06,-53.4172 810.86,-50.5546 811.301,-57.5407"/>
</g>
<!-- Node620 -->
<g id="node27" class="node"><title>Node620</title>
<g id="a_node27"><a xlink:href="classNavEKF2.html#a9c447b8d84abf2dfc845ddbbbad46a2b" target="_top" xlink:title=" ">
<polygon fill="white" stroke="black" points="638.65,-129 638.65,-149 761.35,-149 761.35,-129 638.65,-129"/>
<text text-anchor="middle" x="700" y="-135" font-family="Helvetica,sans-Serif" font-size="10.00">NavEKF2::InitialiseFilter</text>
</a>
</g>
</g>
<!-- Node619&#45;&gt;Node620 -->
<g id="edge28" class="edge"><title>Node619&#45;&gt;Node620</title>
<path fill="none" stroke="midnightblue" d="M818.988,-139C800.058,-139 779.833,-139 761.57,-139"/>
<polygon fill="midnightblue" stroke="midnightblue" points="819.05,-142.5 829.05,-139 819.05,-135.5 819.05,-142.5"/>
</g>
<!-- Node619&#45;&gt;Node611 -->
<g id="edge32" class="edge"><title>Node619&#45;&gt;Node611</title>
<path fill="none" stroke="midnightblue" d="M836.917,-119.304C827.251,-115.64 817.3,-111.776 808,-108 778.297,-95.9408 744.5,-80.8639 722.977,-71.0879"/>
<polygon fill="midnightblue" stroke="midnightblue" points="835.862,-122.646 846.454,-122.889 838.325,-116.094 835.862,-122.646"/>
</g>
<!-- Node621 -->
<g id="node28" class="node"><title>Node621</title>
<g id="a_node28"><a xlink:href="classAP__AHRS__NavEKF.html#a532ff0df024a4537e5a108c42ba405a7" target="_top" xlink:title=" ">
<polygon fill="white" stroke="black" points="458.367,-129 458.367,-149 591.633,-149 591.633,-129 458.367,-129"/>
<text text-anchor="middle" x="525" y="-135" font-family="Helvetica,sans-Serif" font-size="10.00">AP_AHRS_NavEKF::reset</text>
</a>
</g>
</g>
<!-- Node620&#45;&gt;Node621 -->
<g id="edge29" class="edge"><title>Node620&#45;&gt;Node621</title>
<path fill="none" stroke="midnightblue" d="M628.436,-139C616.317,-139 603.765,-139 591.778,-139"/>
<polygon fill="midnightblue" stroke="midnightblue" points="628.493,-142.5 638.493,-139 628.493,-135.5 628.493,-142.5"/>
</g>
<!-- Node622 -->
<g id="node29" class="node"><title>Node622</title>
<g id="a_node29"><a xlink:href="classAP__AHRS__NavEKF.html#a9bd3c7f1793a48cd0d736b19fbfaf19a" target="_top" xlink:title=" ">
<polygon fill="white" stroke="black" points="458.367,-168 458.367,-200 591.633,-200 591.633,-168 458.367,-168"/>
<text text-anchor="start" x="466.367" y="-186" font-family="Helvetica,sans-Serif" font-size="10.00">AP_AHRS_NavEKF::reset</text>
<text text-anchor="middle" x="525" y="-174" font-family="Helvetica,sans-Serif" font-size="10.00">_attitude</text>
</a>
</g>
</g>
<!-- Node620&#45;&gt;Node622 -->
<g id="edge30" class="edge"><title>Node620&#45;&gt;Node622</title>
<path fill="none" stroke="midnightblue" d="M650.338,-151.658C630.921,-156.708 608.336,-162.583 587.783,-167.929"/>
<polygon fill="midnightblue" stroke="midnightblue" points="651.379,-155.004 660.175,-149.099 649.616,-148.229 651.379,-155.004"/>
</g>
<!-- Node620&#45;&gt;Node613 -->
<g id="edge31" class="edge"><title>Node620&#45;&gt;Node613</title>
<path fill="none" stroke="midnightblue" d="M641.279,-127.004C625.368,-124.027 608.064,-121.093 592,-119 535.653,-111.657 471.903,-106.907 422.239,-103.993"/>
<polygon fill="midnightblue" stroke="midnightblue" points="641.028,-130.519 651.507,-128.958 642.342,-123.644 641.028,-130.519"/>
</g>
<!-- Node624 -->
<g id="node31" class="node"><title>Node624</title>
<g id="a_node31"><a xlink:href="classNavEKF3__core.html#a93a3f4411a8dc4df4819e13856d037d5" target="_top" xlink:title=" ">
<polygon fill="white" stroke="black" points="1216.69,-258 1216.69,-290 1363.31,-290 1363.31,-258 1216.69,-258"/>
<text text-anchor="start" x="1224.69" y="-276" font-family="Helvetica,sans-Serif" font-size="10.00">NavEKF3_core::calcQuatAnd</text>
<text text-anchor="middle" x="1290" y="-264" font-family="Helvetica,sans-Serif" font-size="10.00">FieldStates</text>
</a>
</g>
</g>
<!-- Node623&#45;&gt;Node624 -->
<g id="edge35" class="edge"><title>Node623&#45;&gt;Node624</title>
<path fill="none" stroke="midnightblue" d="M1423.09,-241.519C1402.42,-246.601 1378.29,-252.534 1356.35,-257.929"/>
<polygon fill="midnightblue" stroke="midnightblue" points="1424.06,-244.886 1432.93,-239.099 1422.38,-238.088 1424.06,-244.886"/>
</g>
<!-- Node630 -->
<g id="node37" class="node"><title>Node630</title>
<g id="a_node37"><a xlink:href="classNavEKF3__core.html#aae18ada44b1b7be0d45af03391ef961a" target="_top" xlink:title=" ">
<polygon fill="white" stroke="black" points="1227.25,-168 1227.25,-200 1352.75,-200 1352.75,-168 1227.25,-168"/>
<text text-anchor="start" x="1235.25" y="-186" font-family="Helvetica,sans-Serif" font-size="10.00">NavEKF3_core::Initialise</text>
<text text-anchor="middle" x="1290" y="-174" font-family="Helvetica,sans-Serif" font-size="10.00">FilterBootstrap</text>
</a>
</g>
</g>
<!-- Node623&#45;&gt;Node630 -->
<g id="edge42" class="edge"><title>Node623&#45;&gt;Node630</title>
<path fill="none" stroke="midnightblue" d="M1423.21,-216.51C1401.39,-211.145 1375.7,-204.828 1352.8,-199.196"/>
<polygon fill="midnightblue" stroke="midnightblue" points="1422.38,-219.912 1432.93,-218.901 1424.06,-213.114 1422.38,-219.912"/>
</g>
<!-- Node626 -->
<g id="node33" class="node"><title>Node626</title>
<g id="a_node33"><a xlink:href="classNavEKF3__core.html#a800d407d377e6532d563c68cc3c731d8" target="_top" xlink:title=" ">
<polygon fill="white" stroke="black" points="808.688,-258 808.688,-278 975.312,-278 975.312,-258 808.688,-258"/>
<text text-anchor="middle" x="892" y="-264" font-family="Helvetica,sans-Serif" font-size="10.00">NavEKF3_core::SelectMagFusion</text>
</a>
</g>
</g>
<!-- Node623&#45;&gt;Node626 -->
<g id="edge47" class="edge"><title>Node623&#45;&gt;Node626</title>
<path fill="none" stroke="midnightblue" d="M1389.6,-229.301C1296.8,-230.369 1143.41,-234.31 1012,-248 989.601,-250.334 965.029,-254.234 944.06,-257.974"/>
<polygon fill="midnightblue" stroke="midnightblue" points="1389.82,-232.799 1399.78,-229.192 1389.74,-225.799 1389.82,-232.799"/>
</g>
<!-- Node625 -->
<g id="node32" class="node"><title>Node625</title>
<g id="a_node32"><a xlink:href="classNavEKF3__core.html#ae050fc8e6c45d5134f8cba8dabc719e8" target="_top" xlink:title=" ">
<polygon fill="white" stroke="black" points="1026.58,-258 1026.58,-290 1165.42,-290 1165.42,-258 1026.58,-258"/>
<text text-anchor="start" x="1034.58" y="-276" font-family="Helvetica,sans-Serif" font-size="10.00">NavEKF3_core::controlMag</text>
<text text-anchor="middle" x="1096" y="-264" font-family="Helvetica,sans-Serif" font-size="10.00">YawReset</text>
</a>
</g>
</g>
<!-- Node624&#45;&gt;Node625 -->
<g id="edge36" class="edge"><title>Node624&#45;&gt;Node625</title>
<path fill="none" stroke="midnightblue" d="M1206.34,-274C1192.7,-274 1178.69,-274 1165.44,-274"/>
<polygon fill="midnightblue" stroke="midnightblue" points="1206.69,-277.5 1216.69,-274 1206.69,-270.5 1206.69,-277.5"/>
</g>
<!-- Node625&#45;&gt;Node626 -->
<g id="edge37" class="edge"><title>Node625&#45;&gt;Node626</title>
<path fill="none" stroke="midnightblue" d="M1016.22,-271.66C1002.85,-271.263 988.921,-270.849 975.452,-270.449"/>
<polygon fill="midnightblue" stroke="midnightblue" points="1016.23,-275.162 1026.33,-271.96 1016.44,-268.165 1016.23,-275.162"/>
</g>
<!-- Node627 -->
<g id="node34" class="node"><title>Node627</title>
<g id="a_node34"><a xlink:href="classNavEKF3__core.html#a2a7fae9e0bf2ce6fc2f9b3918dc168d3" target="_top" xlink:title=" ">
<polygon fill="white" stroke="black" points="628.084,-258 628.084,-278 771.916,-278 771.916,-258 628.084,-258"/>
<text text-anchor="middle" x="700" y="-264" font-family="Helvetica,sans-Serif" font-size="10.00">NavEKF3_core::UpdateFilter</text>
</a>
</g>
</g>
<!-- Node626&#45;&gt;Node627 -->
<g id="edge38" class="edge"><title>Node626&#45;&gt;Node627</title>
<path fill="none" stroke="midnightblue" d="M798.22,-268C789.445,-268 780.644,-268 772.118,-268"/>
<polygon fill="midnightblue" stroke="midnightblue" points="798.492,-271.5 808.492,-268 798.492,-264.5 798.492,-271.5"/>
</g>
<!-- Node628 -->
<g id="node35" class="node"><title>Node628</title>
<g id="a_node35"><a xlink:href="classNavEKF3.html#a477020fcf29376e0c2205dbf79728104" target="_top" xlink:title=" ">
<polygon fill="white" stroke="black" points="465.591,-258 465.591,-278 584.409,-278 584.409,-258 465.591,-258"/>
<text text-anchor="middle" x="525" y="-264" font-family="Helvetica,sans-Serif" font-size="10.00">NavEKF3::UpdateFilter</text>
</a>
</g>
</g>
<!-- Node627&#45;&gt;Node628 -->
<g id="edge39" class="edge"><title>Node627&#45;&gt;Node628</title>
<path fill="none" stroke="midnightblue" d="M617.484,-268C606.373,-268 595.153,-268 584.559,-268"/>
<polygon fill="midnightblue" stroke="midnightblue" points="617.636,-271.5 627.635,-268 617.635,-264.5 617.636,-271.5"/>
</g>
<!-- Node629 -->
<g id="node36" class="node"><title>Node629</title>
<g id="a_node36"><a xlink:href="classAP__AHRS__NavEKF.html#a324160404f12959e955554f5aed26459" target="_top" xlink:title=" ">
<polygon fill="white" stroke="black" points="249.904,-219 249.904,-239 422.096,-239 422.096,-219 249.904,-219"/>
<text text-anchor="middle" x="336" y="-225" font-family="Helvetica,sans-Serif" font-size="10.00">AP_AHRS_NavEKF::update_EKF3</text>
</a>
</g>
</g>
<!-- Node628&#45;&gt;Node629 -->
<g id="edge40" class="edge"><title>Node628&#45;&gt;Node629</title>
<path fill="none" stroke="midnightblue" d="M465.757,-255.853C439.809,-250.442 409.617,-244.145 384.994,-239.009"/>
<polygon fill="midnightblue" stroke="midnightblue" points="465.339,-259.341 475.843,-257.957 466.768,-252.489 465.339,-259.341"/>
</g>
<!-- Node629&#45;&gt;Node614 -->
<g id="edge41" class="edge"><title>Node629&#45;&gt;Node614</title>
<path fill="none" stroke="midnightblue" d="M295.027,-215.606C258.979,-203.527 206.757,-186.029 174.123,-175.094"/>
<polygon fill="midnightblue" stroke="midnightblue" points="294.142,-219 304.735,-218.859 296.366,-212.363 294.142,-219"/>
</g>
<!-- Node631 -->
<g id="node38" class="node"><title>Node631</title>
<g id="a_node38"><a xlink:href="classNavEKF3.html#a07f064fa513fbb6e7188141904f3b5b5" target="_top" xlink:title=" ">
<polygon fill="white" stroke="black" points="638.65,-174 638.65,-194 761.35,-194 761.35,-174 638.65,-174"/>
<text text-anchor="middle" x="700" y="-180" font-family="Helvetica,sans-Serif" font-size="10.00">NavEKF3::InitialiseFilter</text>
</a>
</g>
</g>
<!-- Node630&#45;&gt;Node631 -->
<g id="edge43" class="edge"><title>Node630&#45;&gt;Node631</title>
<path fill="none" stroke="midnightblue" d="M1216.9,-184C1099.87,-184 870.676,-184 761.547,-184"/>
<polygon fill="midnightblue" stroke="midnightblue" points="1217.19,-187.5 1227.19,-184 1217.19,-180.5 1217.19,-187.5"/>
</g>
<!-- Node631&#45;&gt;Node621 -->
<g id="edge44" class="edge"><title>Node631&#45;&gt;Node621</title>
<path fill="none" stroke="midnightblue" d="M650.493,-171.382C623.376,-164.329 590.043,-155.659 564.695,-149.065"/>
<polygon fill="midnightblue" stroke="midnightblue" points="649.616,-174.771 660.175,-173.901 651.379,-167.996 649.616,-174.771"/>
</g>
<!-- Node631&#45;&gt;Node622 -->
<g id="edge45" class="edge"><title>Node631&#45;&gt;Node622</title>
<path fill="none" stroke="midnightblue" d="M628.436,-184C616.317,-184 603.765,-184 591.778,-184"/>
<polygon fill="midnightblue" stroke="midnightblue" points="628.493,-187.5 638.493,-184 628.493,-180.5 628.493,-187.5"/>
</g>
<!-- Node631&#45;&gt;Node629 -->
<g id="edge46" class="edge"><title>Node631&#45;&gt;Node629</title>
<path fill="none" stroke="midnightblue" d="M652.401,-196.504C633.744,-201.085 611.974,-205.901 592,-209 535.831,-217.713 472.081,-222.713 422.373,-225.535"/>
<polygon fill="midnightblue" stroke="midnightblue" points="653.28,-199.892 662.131,-194.068 651.58,-193.101 653.28,-199.892"/>
</g>
</g>
</svg>
        <g id="navigator" transform="translate(0 0)" fill="#404254">
                <rect fill="#f2f5e9" fill-opacity="0.5" stroke="#606060" stroke-width=".5" x="0" y="0" width="60" height="60"/>
                <use id="zoomplus" xlink:href="#zoomPlus" x="17" y="9" onmousedown="handleZoom(evt,'in')"/>
                <use id="zoomminus" xlink:href="#zoomMin" x="42" y="9" onmousedown="handleZoom(evt,'out')"/>
                <use id="reset" xlink:href="#resetDef" x="30" y="36" onmousedown="handleReset()"/>
                <g id="arrowUp" xlink:href="#dirArrow" transform="translate(30 24)" onmousedown="handlePan(0,-1)">
                  <use xlink:href="#rim" fill="#404040">
                        <set attributeName="fill" to="#808080" begin="arrowUp.mouseover" end="arrowUp.mouseout"/>
                  </use>
                  <path fill="none" stroke="white" stroke-width="1.5" d="M0,-3.0v7 M-2.5,-0.5L0,-3.0L2.5,-0.5"/>
                </g>
                <g id="arrowRight" xlink:href="#dirArrow" transform="rotate(90) translate(36 -43)" onmousedown="handlePan(1,0)">
                  <use xlink:href="#rim" fill="#404040">
                        <set attributeName="fill" to="#808080" begin="arrowRight.mouseover" end="arrowRight.mouseout"/>
                  </use>
                  <path fill="none" stroke="white" stroke-width="1.5" d="M0,-3.0v7 M-2.5,-0.5L0,-3.0L2.5,-0.5"/>
                </g>
                <g id="arrowDown" xlink:href="#dirArrow" transform="rotate(180) translate(-30 -48)" onmousedown="handlePan(0,1)">
                  <use xlink:href="#rim" fill="#404040">
                        <set attributeName="fill" to="#808080" begin="arrowDown.mouseover" end="arrowDown.mouseout"/>
                  </use>
                  <path fill="none" stroke="white" stroke-width="1.5" d="M0,-3.0v7 M-2.5,-0.5L0,-3.0L2.5,-0.5"/>
                </g>
                <g id="arrowLeft" xlink:href="#dirArrow" transform="rotate(270) translate(-36 17)" onmousedown="handlePan(-1,0)">
                  <use xlink:href="#rim" fill="#404040">
                        <set attributeName="fill" to="#808080" begin="arrowLeft.mouseover" end="arrowLeft.mouseout"/>
                  </use>
                  <path fill="none" stroke="white" stroke-width="1.5" d="M0,-3.0v7 M-2.5,-0.5L0,-3.0L2.5,-0.5"/>
                </g>
        </g>
        <svg viewBox="0 0 15 15" width="100%" height="30px" preserveAspectRatio="xMaxYMin meet">
         <g id="arrow_out" transform="scale(0.3 0.3)">
          <a xlink:href="classVector3_ac41bad1b2f43442abc3b7d4c6909f2a9_icgraph_org.svg" target="_base">
           <rect id="button" ry="5" rx="5" y="6" x="6" height="38" width="38"
                fill="#f2f5e9" fill-opacity="0.5" stroke="#606060" stroke-width="1.0"/>
           <path id="arrow"
             d="M 11.500037,31.436501 C 11.940474,20.09759 22.043105,11.32322 32.158766,21.979434 L 37.068811,17.246167 C 37.068811,17.246167 37.088388,32 37.088388,32 L 22.160133,31.978069 C 22.160133,31.978069 26.997745,27.140456 26.997745,27.140456 C 18.528582,18.264221 13.291696,25.230495 11.500037,31.436501 z"
             style="fill:#404040;"/>
          </a>
         </g>
        </svg>
</svg>
