<?xml version="1.0" encoding="UTF-8" standalone="no"?>
<!DOCTYPE svg PUBLIC "-//W3C//DTD SVG 1.1//EN"
 "http://www.w3.org/Graphics/SVG/1.1/DTD/svg11.dtd">
<!-- Generated by graphviz version 2.30.1 (20130221.2233)
 -->
<!-- Title: AP_ADSB::set_callsign Pages: 1 -->
<svg width="378pt" height="49pt"
 viewBox="0.00 0.00 378.00 49.00" xmlns="http://www.w3.org/2000/svg" xmlns:xlink="http://www.w3.org/1999/xlink">
<g id="graph0" class="graph" transform="scale(1 1) rotate(0) translate(4 45)">
<title>AP_ADSB::set_callsign</title>
<polygon fill="white" stroke="white" points="-4,5 -4,-45 375,-45 375,5 -4,5"/>
<!-- Node273 -->
<g id="node1" class="node"><title>Node273</title>
<g id="a_node1"><a xlink:title=" ">
<polygon fill="#bfbfbf" stroke="black" points="250.03,-1 250.03,-21 369.97,-21 369.97,-1 250.03,-1"/>
<text text-anchor="middle" x="310" y="-7" font-family="Helvetica,sans-Serif" font-size="10.00">AP_ADSB::set_callsign</text>
</a>
</g>
</g>
<!-- Node274 -->
<g id="node2" class="node"><title>Node274</title>
<g id="a_node2"><a xlink:href="classAP__ADSB.html#afcd0982d6c1f245d47e5ffeee6ecb6fb" target="_top" xlink:title=" ">
<polygon fill="white" stroke="black" points="133.764,-21 133.764,-41 214.236,-41 214.236,-21 133.764,-21"/>
<text text-anchor="middle" x="174" y="-27" font-family="Helvetica,sans-Serif" font-size="10.00">AP_ADSB::init</text>
</a>
</g>
</g>
<!-- Node273&#45;&gt;Node274 -->
<g id="edge1" class="edge"><title>Node273&#45;&gt;Node274</title>
<path fill="none" stroke="midnightblue" d="M239.734,-21.3383C231.119,-22.6241 222.554,-23.9024 214.61,-25.0881"/>
<polygon fill="midnightblue" stroke="midnightblue" points="240.462,-24.7684 249.836,-19.8305 239.428,-17.8451 240.462,-24.7684"/>
</g>
<!-- Node275 -->
<g id="node3" class="node"><title>Node275</title>
<g id="a_node3"><a xlink:href="classAP__ADSB.html#ab8305f5d3238ab9efff026ed1e6dc283" target="_top" xlink:title=" ">
<polygon fill="white" stroke="black" points="-0.137695,-1 -0.137695,-21 98.1377,-21 98.1377,-1 -0.137695,-1"/>
<text text-anchor="middle" x="49" y="-7" font-family="Helvetica,sans-Serif" font-size="10.00">AP_ADSB::update</text>
</a>
</g>
</g>
<!-- Node273&#45;&gt;Node275 -->
<g id="edge3" class="edge"><title>Node273&#45;&gt;Node275</title>
<path fill="none" stroke="midnightblue" d="M239.717,-11C195.106,-11 138.229,-11 98.4352,-11"/>
<polygon fill="midnightblue" stroke="midnightblue" points="239.905,-14.5001 249.905,-11 239.905,-7.5001 239.905,-14.5001"/>
</g>
<!-- Node274&#45;&gt;Node275 -->
<g id="edge2" class="edge"><title>Node274&#45;&gt;Node275</title>
<path fill="none" stroke="midnightblue" d="M123.745,-22.9911C115.384,-21.6315 106.708,-20.2208 98.3701,-18.8651"/>
<polygon fill="midnightblue" stroke="midnightblue" points="123.312,-26.4665 133.744,-24.6169 124.435,-19.5572 123.312,-26.4665"/>
</g>
</g>
</svg>
