<?xml version="1.0" encoding="UTF-8" standalone="no"?>
<!DOCTYPE svg PUBLIC "-//W3C//DTD SVG 1.1//EN"
 "http://www.w3.org/Graphics/SVG/1.1/DTD/svg11.dtd">
<!-- Generated by graphviz version 2.30.1 (20130221.2233)
 -->
<!-- Title: AP_Mission::contains_item Pages: 1 -->
<svg width="820pt" height="247pt"
 viewBox="0.00 0.00 820.00 247.00" xmlns="http://www.w3.org/2000/svg" xmlns:xlink="http://www.w3.org/1999/xlink">
<g id="graph0" class="graph" transform="scale(1 1) rotate(0) translate(4 243)">
<title>AP_Mission::contains_item</title>
<polygon fill="white" stroke="white" points="-4,5 -4,-243 817,-243 817,5 -4,5"/>
<!-- Node429 -->
<g id="node1" class="node"><title>Node429</title>
<g id="a_node1"><a xlink:title=" ">
<polygon fill="#bfbfbf" stroke="black" points="-0.0268555,-140 -0.0268555,-160 136.027,-160 136.027,-140 -0.0268555,-140"/>
<text text-anchor="middle" x="68" y="-146" font-family="Helvetica,sans-Serif" font-size="10.00">AP_Mission::contains_item</text>
</a>
</g>
</g>
<!-- Node430 -->
<g id="node2" class="node"><title>Node430</title>
<g id="a_node2"><a xlink:href="classAP__Mission.html#af26b7935304c34d8c03881b02beb3f48" target="_top" xlink:title=" ">
<polygon fill="white" stroke="black" points="171.862,-163 171.862,-183 320.138,-183 320.138,-163 171.862,-163"/>
<text text-anchor="middle" x="246" y="-169" font-family="Helvetica,sans-Serif" font-size="10.00">AP_Mission::num_commands</text>
</a>
</g>
</g>
<!-- Node429&#45;&gt;Node430 -->
<g id="edge1" class="edge"><title>Node429&#45;&gt;Node430</title>
<path fill="none" stroke="midnightblue" d="M136.04,-158.761C144.419,-159.856 153.067,-160.986 161.655,-162.108"/>
<polygon fill="midnightblue" stroke="midnightblue" points="161.321,-165.594 171.69,-163.42 162.228,-158.653 161.321,-165.594"/>
</g>
<!-- Node431 -->
<g id="node3" class="node"><title>Node431</title>
<g id="a_node3"><a xlink:href="classAP__Mission.html#aac82471fe961e31cd0fba02ba7783aba" target="_top" xlink:title=" ">
<polygon fill="white" stroke="black" points="186.589,-112 186.589,-144 305.411,-144 305.411,-112 186.589,-112"/>
<text text-anchor="start" x="194.589" y="-130" font-family="Helvetica,sans-Serif" font-size="10.00">AP_Mission::read_cmd</text>
<text text-anchor="middle" x="246" y="-118" font-family="Helvetica,sans-Serif" font-size="10.00">_from_storage</text>
</a>
</g>
</g>
<!-- Node429&#45;&gt;Node431 -->
<g id="edge2" class="edge"><title>Node429&#45;&gt;Node431</title>
<path fill="none" stroke="midnightblue" d="M136.04,-141.62C149.277,-139.965 163.187,-138.227 176.472,-136.566"/>
<polygon fill="midnightblue" stroke="midnightblue" points="177,-140.027 186.489,-135.314 176.132,-133.081 177,-140.027"/>
</g>
<!-- Node432 -->
<g id="node4" class="node"><title>Node432</title>
<g id="a_node4"><a xlink:href="namespaceAP.html#a99432cfdb696952c9b7146f155a815aa" target="_top" xlink:title=" ">
<polygon fill="white" stroke="black" points="395.825,-219 395.825,-239 450.175,-239 450.175,-219 395.825,-219"/>
<text text-anchor="middle" x="423" y="-225" font-family="Helvetica,sans-Serif" font-size="10.00">AP::ahrs</text>
</a>
</g>
</g>
<!-- Node431&#45;&gt;Node432 -->
<g id="edge3" class="edge"><title>Node431&#45;&gt;Node432</title>
<path fill="none" stroke="midnightblue" d="M303.958,-144.058C309.664,-146.882 315.137,-150.173 320,-154 342.959,-172.066 332.614,-191.489 356,-209 364.715,-215.526 375.567,-219.939 385.938,-222.917"/>
<polygon fill="midnightblue" stroke="midnightblue" points="385.096,-226.315 395.648,-225.355 386.801,-219.525 385.096,-226.315"/>
</g>
<!-- Node434 -->
<g id="node6" class="node"><title>Node434</title>
<g id="a_node6"><a xlink:href="classAP__AHRS.html#a8ebd6624062d91ec1d19fc3306513e9a" target="_top" xlink:title=" ">
<polygon fill="white" stroke="black" points="366.641,-180 366.641,-200 479.359,-200 479.359,-180 366.641,-180"/>
<text text-anchor="middle" x="423" y="-186" font-family="Helvetica,sans-Serif" font-size="10.00">AP_AHRS::get_home</text>
</a>
</g>
</g>
<!-- Node431&#45;&gt;Node434 -->
<g id="edge5" class="edge"><title>Node431&#45;&gt;Node434</title>
<path fill="none" stroke="midnightblue" d="M293.93,-144.12C302.641,-147.28 311.63,-150.655 320,-154 336.259,-160.498 339.59,-163.894 356,-170 362.408,-172.385 369.242,-174.701 375.992,-176.86"/>
<polygon fill="midnightblue" stroke="midnightblue" points="375.175,-180.271 385.764,-179.901 377.256,-173.587 375.175,-180.271"/>
</g>
<!-- Node435 -->
<g id="node7" class="node"><title>Node435</title>
<g id="a_node7"><a xlink:href="classStorageAccess.html#aa5a1a59ac0cdaeed075fa76941690cdc" target="_top" xlink:title=" ">
<polygon fill="white" stroke="black" points="356.355,-141 356.355,-161 489.645,-161 489.645,-141 356.355,-141"/>
<text text-anchor="middle" x="423" y="-147" font-family="Helvetica,sans-Serif" font-size="10.00">StorageAccess::read_byte</text>
</a>
</g>
</g>
<!-- Node431&#45;&gt;Node435 -->
<g id="edge6" class="edge"><title>Node431&#45;&gt;Node435</title>
<path fill="none" stroke="midnightblue" d="M305.759,-135.723C318.657,-137.418 332.492,-139.236 345.958,-141.006"/>
<polygon fill="midnightblue" stroke="midnightblue" points="345.792,-144.514 356.162,-142.347 346.704,-137.574 345.792,-144.514"/>
</g>
<!-- Node438 -->
<g id="node10" class="node"><title>Node438</title>
<g id="a_node10"><a xlink:href="classStorageAccess.html#a8e817b12c3a6284cf78ebbba43cc32cf" target="_top" xlink:title=" ">
<polygon fill="white" stroke="black" points="368.586,-90 368.586,-122 477.414,-122 477.414,-90 368.586,-90"/>
<text text-anchor="start" x="376.586" y="-108" font-family="Helvetica,sans-Serif" font-size="10.00">StorageAccess::read</text>
<text text-anchor="middle" x="423" y="-96" font-family="Helvetica,sans-Serif" font-size="10.00">_uint16</text>
</a>
</g>
</g>
<!-- Node431&#45;&gt;Node438 -->
<g id="edge9" class="edge"><title>Node431&#45;&gt;Node438</title>
<path fill="none" stroke="midnightblue" d="M305.759,-120.613C322.692,-118.484 341.241,-116.153 358.45,-113.989"/>
<polygon fill="midnightblue" stroke="midnightblue" points="358.92,-117.458 368.406,-112.738 358.047,-110.512 358.92,-117.458"/>
</g>
<!-- Node436 -->
<g id="node8" class="node"><title>Node436</title>
<g id="a_node8"><a xlink:href="classStorageAccess.html#abb169f592c849f2158a48615c8dee90a" target="_top" xlink:title=" ">
<polygon fill="white" stroke="black" points="535.586,-90 535.586,-122 644.414,-122 644.414,-90 535.586,-90"/>
<text text-anchor="start" x="543.586" y="-108" font-family="Helvetica,sans-Serif" font-size="10.00">StorageAccess::read</text>
<text text-anchor="middle" x="590" y="-96" font-family="Helvetica,sans-Serif" font-size="10.00">_block</text>
</a>
</g>
</g>
<!-- Node431&#45;&gt;Node436 -->
<g id="edge11" class="edge"><title>Node431&#45;&gt;Node436</title>
<path fill="none" stroke="midnightblue" d="M274.603,-111.997C296.017,-100.552 326.863,-86.1314 356,-80 414.279,-67.7361 430.935,-72.3733 490,-80 502.516,-81.6161 515.706,-84.3363 528.234,-87.4238"/>
<polygon fill="midnightblue" stroke="midnightblue" points="527.556,-90.8634 538.113,-89.9645 529.3,-84.084 527.556,-90.8634"/>
</g>
<!-- Node439 -->
<g id="node11" class="node"><title>Node439</title>
<g id="a_node11"><a xlink:href="classAP__Mission.html#a2288c5294ff615a062c515f66ecf0f00" target="_top" xlink:title=" ">
<polygon fill="white" stroke="black" points="371.926,-0 371.926,-32 474.074,-32 474.074,-0 371.926,-0"/>
<text text-anchor="start" x="379.926" y="-18" font-family="Helvetica,sans-Serif" font-size="10.00">AP_Mission::stored</text>
<text text-anchor="middle" x="423" y="-6" font-family="Helvetica,sans-Serif" font-size="10.00">_in_location</text>
</a>
</g>
</g>
<!-- Node431&#45;&gt;Node439 -->
<g id="edge12" class="edge"><title>Node431&#45;&gt;Node439</title>
<path fill="none" stroke="midnightblue" d="M266.258,-111.826C287.417,-94.5092 322.818,-66.8495 356,-47 361.985,-43.4196 368.451,-39.9444 374.914,-36.6951"/>
<polygon fill="midnightblue" stroke="midnightblue" points="376.867,-39.6369 384.323,-32.1101 373.8,-33.3442 376.867,-39.6369"/>
</g>
<!-- Node433 -->
<g id="node5" class="node"><title>Node433</title>
<g id="a_node5"><a xlink:href="classAP__AHRS.html#a3db167e808ba6d312c3b746e558008e9" target="_top" xlink:title=" ">
<polygon fill="white" stroke="black" points="526.133,-219 526.133,-239 653.867,-239 653.867,-219 526.133,-219"/>
<text text-anchor="middle" x="590" y="-225" font-family="Helvetica,sans-Serif" font-size="10.00">AP_AHRS::get_singleton</text>
</a>
</g>
</g>
<!-- Node432&#45;&gt;Node433 -->
<g id="edge4" class="edge"><title>Node432&#45;&gt;Node433</title>
<path fill="none" stroke="midnightblue" d="M450.51,-229C468.206,-229 492.409,-229 515.635,-229"/>
<polygon fill="midnightblue" stroke="midnightblue" points="515.857,-232.5 525.857,-229 515.857,-225.5 515.857,-232.5"/>
</g>
<!-- Node435&#45;&gt;Node436 -->
<g id="edge7" class="edge"><title>Node435&#45;&gt;Node436</title>
<path fill="none" stroke="midnightblue" d="M461.029,-140.901C480.063,-135.71 503.792,-129.239 525.629,-123.283"/>
<polygon fill="midnightblue" stroke="midnightblue" points="526.778,-126.597 535.505,-120.59 524.936,-119.844 526.778,-126.597"/>
</g>
<!-- Node437 -->
<g id="node9" class="node"><title>Node437</title>
<g id="a_node9"><a xlink:href="classAP__HAL_1_1Storage.html#a1c3b1e80b0bec7d4bacd3ecbefb3b3f3" target="_top" xlink:title=" ">
<polygon fill="white" stroke="black" points="690.747,-90 690.747,-122 811.253,-122 811.253,-90 690.747,-90"/>
<text text-anchor="start" x="698.747" y="-108" font-family="Helvetica,sans-Serif" font-size="10.00">AP_HAL::Storage::read</text>
<text text-anchor="middle" x="751" y="-96" font-family="Helvetica,sans-Serif" font-size="10.00">_block</text>
</a>
</g>
</g>
<!-- Node436&#45;&gt;Node437 -->
<g id="edge8" class="edge"><title>Node436&#45;&gt;Node437</title>
<path fill="none" stroke="midnightblue" d="M644.83,-106C656.188,-106 668.329,-106 680.179,-106"/>
<polygon fill="midnightblue" stroke="midnightblue" points="680.49,-109.5 690.49,-106 680.49,-102.5 680.49,-109.5"/>
</g>
<!-- Node438&#45;&gt;Node436 -->
<g id="edge10" class="edge"><title>Node438&#45;&gt;Node436</title>
<path fill="none" stroke="midnightblue" d="M477.571,-106C492.777,-106 509.485,-106 525.232,-106"/>
<polygon fill="midnightblue" stroke="midnightblue" points="525.416,-109.5 535.416,-106 525.416,-102.5 525.416,-109.5"/>
</g>
</g>
</svg>
