<?xml version="1.0" encoding="UTF-8" standalone="no"?>
<!DOCTYPE svg PUBLIC "-//W3C//DTD SVG 1.1//EN"
 "http://www.w3.org/Graphics/SVG/1.1/DTD/svg11.dtd">
<!-- Generated by graphviz version 2.30.1 (20130221.2233)
 -->
<!-- Title: HALSITL::SITL_State::_gps_nmea_checksum Pages: 1 -->
<svg width="1324pt" height="91pt"
 viewBox="0.00 0.00 1324.00 91.00" xmlns="http://www.w3.org/2000/svg" xmlns:xlink="http://www.w3.org/1999/xlink">
<g id="graph0" class="graph" transform="scale(1 1) rotate(0) translate(4 87)">
<title>HALSITL::SITL_State::_gps_nmea_checksum</title>
<polygon fill="white" stroke="white" points="-4,5 -4,-87 1321,-87 1321,5 -4,5"/>
<!-- Node344 -->
<g id="node1" class="node"><title>Node344</title>
<g id="a_node1"><a xlink:title=" ">
<polygon fill="#bfbfbf" stroke="black" points="1191.8,-25 1191.8,-57 1316.2,-57 1316.2,-25 1191.8,-25"/>
<text text-anchor="start" x="1199.8" y="-43" font-family="Helvetica,sans-Serif" font-size="10.00">HALSITL::SITL_State</text>
<text text-anchor="middle" x="1254" y="-31" font-family="Helvetica,sans-Serif" font-size="10.00">::_gps_nmea_checksum</text>
</a>
</g>
</g>
<!-- Node345 -->
<g id="node2" class="node"><title>Node345</title>
<g id="a_node2"><a xlink:href="classHALSITL_1_1SITL__State.html#aad5ba24c79435bd01010cf4d80248e06" target="_top" xlink:title=" ">
<polygon fill="white" stroke="black" points="1043.92,-25 1043.92,-57 1156.08,-57 1156.08,-25 1043.92,-25"/>
<text text-anchor="start" x="1051.92" y="-43" font-family="Helvetica,sans-Serif" font-size="10.00">HALSITL::SITL_State</text>
<text text-anchor="middle" x="1100" y="-31" font-family="Helvetica,sans-Serif" font-size="10.00">::_gps_nmea_printf</text>
</a>
</g>
</g>
<!-- Node344&#45;&gt;Node345 -->
<g id="edge1" class="edge"><title>Node344&#45;&gt;Node345</title>
<path fill="none" stroke="midnightblue" d="M1181.38,-41C1172.93,-41 1164.41,-41 1156.24,-41"/>
<polygon fill="midnightblue" stroke="midnightblue" points="1181.61,-44.5001 1191.61,-41 1181.61,-37.5001 1181.61,-44.5001"/>
</g>
<!-- Node346 -->
<g id="node3" class="node"><title>Node346</title>
<g id="a_node3"><a xlink:href="classHALSITL_1_1SITL__State.html#a9b3233d3dbfc1115318feda8f82babc3" target="_top" xlink:title=" ">
<polygon fill="white" stroke="black" points="895.921,-25 895.921,-57 1008.08,-57 1008.08,-25 895.921,-25"/>
<text text-anchor="start" x="903.921" y="-43" font-family="Helvetica,sans-Serif" font-size="10.00">HALSITL::SITL_State</text>
<text text-anchor="middle" x="952" y="-31" font-family="Helvetica,sans-Serif" font-size="10.00">::_update_gps_nmea</text>
</a>
</g>
</g>
<!-- Node345&#45;&gt;Node346 -->
<g id="edge2" class="edge"><title>Node345&#45;&gt;Node346</title>
<path fill="none" stroke="midnightblue" d="M1033.59,-41C1025.14,-41 1016.54,-41 1008.27,-41"/>
<polygon fill="midnightblue" stroke="midnightblue" points="1033.8,-44.5001 1043.8,-41 1033.8,-37.5001 1033.8,-44.5001"/>
</g>
<!-- Node347 -->
<g id="node4" class="node"><title>Node347</title>
<g id="a_node4"><a xlink:href="classHALSITL_1_1SITL__State.html#af12d45991e268f47866fe2b8be77726c" target="_top" xlink:title=" ">
<polygon fill="white" stroke="black" points="737.902,-25 737.902,-57 860.098,-57 860.098,-25 737.902,-25"/>
<text text-anchor="start" x="745.902" y="-43" font-family="Helvetica,sans-Serif" font-size="10.00">HALSITL::SITL_State</text>
<text text-anchor="middle" x="799" y="-31" font-family="Helvetica,sans-Serif" font-size="10.00">::_update_gps_instance</text>
</a>
</g>
</g>
<!-- Node346&#45;&gt;Node347 -->
<g id="edge3" class="edge"><title>Node346&#45;&gt;Node347</title>
<path fill="none" stroke="midnightblue" d="M885.49,-41C877.085,-41 868.511,-41 860.196,-41"/>
<polygon fill="midnightblue" stroke="midnightblue" points="885.631,-44.5001 895.631,-41 885.631,-37.5001 885.631,-44.5001"/>
</g>
<!-- Node348 -->
<g id="node5" class="node"><title>Node348</title>
<g id="a_node5"><a xlink:href="classHALSITL_1_1SITL__State.html#a09b6857a6f87a51390d4e045cb671207" target="_top" xlink:title=" ">
<polygon fill="white" stroke="black" points="589.921,-25 589.921,-57 702.079,-57 702.079,-25 589.921,-25"/>
<text text-anchor="start" x="597.921" y="-43" font-family="Helvetica,sans-Serif" font-size="10.00">HALSITL::SITL_State</text>
<text text-anchor="middle" x="646" y="-31" font-family="Helvetica,sans-Serif" font-size="10.00">::_update_gps</text>
</a>
</g>
</g>
<!-- Node347&#45;&gt;Node348 -->
<g id="edge4" class="edge"><title>Node347&#45;&gt;Node348</title>
<path fill="none" stroke="midnightblue" d="M727.659,-41C719.216,-41 710.686,-41 702.495,-41"/>
<polygon fill="midnightblue" stroke="midnightblue" points="727.887,-44.5001 737.887,-41 727.887,-37.5001 727.887,-44.5001"/>
</g>
<!-- Node349 -->
<g id="node6" class="node"><title>Node349</title>
<g id="a_node6"><a xlink:href="classHALSITL_1_1SITL__State.html#a06b639a288676fcc2775cf34e17e4dd7" target="_top" xlink:title=" ">
<polygon fill="white" stroke="black" points="441.921,-51 441.921,-83 554.079,-83 554.079,-51 441.921,-51"/>
<text text-anchor="start" x="449.921" y="-69" font-family="Helvetica,sans-Serif" font-size="10.00">HALSITL::SITL_State</text>
<text text-anchor="middle" x="498" y="-57" font-family="Helvetica,sans-Serif" font-size="10.00">::_sitl_setup</text>
</a>
</g>
</g>
<!-- Node348&#45;&gt;Node349 -->
<g id="edge5" class="edge"><title>Node348&#45;&gt;Node349</title>
<path fill="none" stroke="midnightblue" d="M579.869,-52.5987C571.324,-54.1204 562.634,-55.6679 554.274,-57.1566"/>
<polygon fill="midnightblue" stroke="midnightblue" points="580.572,-56.0286 589.804,-50.8295 579.345,-49.137 580.572,-56.0286"/>
</g>
<!-- Node350 -->
<g id="node7" class="node"><title>Node350</title>
<g id="a_node7"><a xlink:href="classHALSITL_1_1SITL__State.html#ae31c93a26ca780bb508dded2498e2e93" target="_top" xlink:title=" ">
<polygon fill="white" stroke="black" points="441.921,-0 441.921,-32 554.079,-32 554.079,-0 441.921,-0"/>
<text text-anchor="start" x="449.921" y="-18" font-family="Helvetica,sans-Serif" font-size="10.00">HALSITL::SITL_State</text>
<text text-anchor="middle" x="498" y="-6" font-family="Helvetica,sans-Serif" font-size="10.00">::_fdm_input_step</text>
</a>
</g>
</g>
<!-- Node348&#45;&gt;Node350 -->
<g id="edge6" class="edge"><title>Node348&#45;&gt;Node350</title>
<path fill="none" stroke="midnightblue" d="M579.869,-29.8474C571.324,-28.3843 562.634,-26.8963 554.274,-25.4648"/>
<polygon fill="midnightblue" stroke="midnightblue" points="579.356,-33.3105 589.804,-31.5486 580.538,-26.4109 579.356,-33.3105"/>
</g>
<!-- Node351 -->
<g id="node8" class="node"><title>Node351</title>
<g id="a_node8"><a xlink:href="classHALSITL_1_1SITL__State.html#a3eeaf330efded46259bbf64fc53e6b9f" target="_top" xlink:title=" ">
<polygon fill="white" stroke="black" points="293.921,-0 293.921,-32 406.079,-32 406.079,-0 293.921,-0"/>
<text text-anchor="start" x="301.921" y="-18" font-family="Helvetica,sans-Serif" font-size="10.00">HALSITL::SITL_State</text>
<text text-anchor="middle" x="350" y="-6" font-family="Helvetica,sans-Serif" font-size="10.00">::wait_clock</text>
</a>
</g>
</g>
<!-- Node350&#45;&gt;Node351 -->
<g id="edge7" class="edge"><title>Node350&#45;&gt;Node351</title>
<path fill="none" stroke="midnightblue" d="M431.59,-16C423.135,-16 414.543,-16 406.274,-16"/>
<polygon fill="midnightblue" stroke="midnightblue" points="431.804,-19.5001 441.804,-16 431.804,-12.5001 431.804,-19.5001"/>
</g>
<!-- Node352 -->
<g id="node9" class="node"><title>Node352</title>
<g id="a_node9"><a xlink:href="classHALSITL_1_1Scheduler.html#a332cd2e17889c12f84b469eaf9f24fc8" target="_top" xlink:title=" ">
<polygon fill="white" stroke="black" points="144.643,-0 144.643,-32 257.357,-32 257.357,-0 144.643,-0"/>
<text text-anchor="start" x="152.643" y="-18" font-family="Helvetica,sans-Serif" font-size="10.00">HALSITL::Scheduler</text>
<text text-anchor="middle" x="201" y="-6" font-family="Helvetica,sans-Serif" font-size="10.00">::delay_microseconds</text>
</a>
</g>
</g>
<!-- Node351&#45;&gt;Node352 -->
<g id="edge8" class="edge"><title>Node351&#45;&gt;Node352</title>
<path fill="none" stroke="midnightblue" d="M283.676,-16C274.927,-16 266.022,-16 257.465,-16"/>
<polygon fill="midnightblue" stroke="midnightblue" points="283.844,-19.5001 293.844,-16 283.844,-12.5001 283.844,-19.5001"/>
</g>
<!-- Node353 -->
<g id="node10" class="node"><title>Node353</title>
<g id="a_node10"><a xlink:href="classHALSITL_1_1Scheduler.html#a8b298eda68e2de4c5c082f02dda3abd9" target="_top" xlink:title=" ">
<polygon fill="white" stroke="black" points="0.421387,-0 0.421387,-32 107.579,-32 107.579,-0 0.421387,-0"/>
<text text-anchor="start" x="8.42139" y="-18" font-family="Helvetica,sans-Serif" font-size="10.00">HALSITL::Scheduler</text>
<text text-anchor="middle" x="54" y="-6" font-family="Helvetica,sans-Serif" font-size="10.00">::delay</text>
</a>
</g>
</g>
<!-- Node352&#45;&gt;Node353 -->
<g id="edge9" class="edge"><title>Node352&#45;&gt;Node353</title>
<path fill="none" stroke="midnightblue" d="M134.123,-16C125.33,-16 116.406,-16 107.874,-16"/>
<polygon fill="midnightblue" stroke="midnightblue" points="134.354,-19.5001 144.354,-16 134.354,-12.5001 134.354,-19.5001"/>
</g>
</g>
</svg>
