<?xml version="1.0" encoding="UTF-8" standalone="no"?>
<!DOCTYPE svg PUBLIC "-//W3C//DTD SVG 1.1//EN"
 "http://www.w3.org/Graphics/SVG/1.1/DTD/svg11.dtd">
<!-- Generated by graphviz version 2.30.1 (20130221.2233)
 -->
<!-- Title: NavEKF2_core::send_status_report Pages: 1 -->
<!--zoomable 151 -->
<svg id="main" version="1.1" xmlns="http://www.w3.org/2000/svg" xmlns:xlink="http://www.w3.org/1999/xlink" xml:space="preserve" onload="init(evt)">
<style type="text/css"><![CDATA[
.edge:hover path { stroke: red; }
.edge:hover polygon { stroke: red; fill: red; }
]]></style>
<script type="text/javascript"><![CDATA[
var edges = document.getElementsByTagName('g');
if (edges && edges.length) {
  for (var i=0;i<edges.length;i++) {
    if (edges[i].id.substr(0,4)=='edge') {
      edges[i].setAttribute('class','edge');
    }
  }
}
]]></script>
        <defs>
                <circle id="rim" cx="0" cy="0" r="7"/>
                <circle id="rim2" cx="0" cy="0" r="3.5"/>
                <g id="zoomPlus">
                        <use xlink:href="#rim" fill="#404040">
                                <set attributeName="fill" to="#808080" begin="zoomplus.mouseover" end="zoomplus.mouseout"/>
                        </use>
                        <path d="M-4,0h8M0,-4v8" fill="none" stroke="white" stroke-width="1.5" pointer-events="none"/>
                </g>
                <g id="zoomMin">
                        <use xlink:href="#rim" fill="#404040">
                                <set attributeName="fill" to="#808080" begin="zoomminus.mouseover" end="zoomminus.mouseout"/>
                        </use>
                        <path d="M-4,0h8" fill="none" stroke="white" stroke-width="1.5" pointer-events="none"/>
                </g>
                <g id="dirArrow">
                        <path fill="none" stroke="white" stroke-width="1.5" d="M0,-3.0v7 M-2.5,-0.5L0,-3.0L2.5,-0.5"/>
                </g>
               <g id="resetDef">
                       <use xlink:href="#rim2" fill="#404040">
                               <set attributeName="fill" to="#808080" begin="reset.mouseover" end="reset.mouseout"/>
                       </use>
               </g>
        </defs>

<script type="text/javascript">
var viewWidth = 634;
var viewHeight = 151;
var sectionId = 'dynsection-186';
</script>
<script xlink:href="svgpan.js"/>
<svg id="graph" class="graph">
<g id="viewport">
<title>NavEKF2_core::send_status_report</title>
<polygon fill="white" stroke="white" points="-4,5 -4,-147 631,-147 631,5 -4,5"/>
<!-- Node3674 -->
<g id="node1" class="node"><title>Node3674</title>
<g id="a_node1"><a xlink:title=" ">
<polygon fill="#bfbfbf" stroke="black" points="0.475586,-33 0.475586,-65 111.524,-65 111.524,-33 0.475586,-33"/>
<text text-anchor="start" x="8.47559" y="-51" font-family="Helvetica,sans-Serif" font-size="10.00">NavEKF2_core::send</text>
<text text-anchor="middle" x="56" y="-39" font-family="Helvetica,sans-Serif" font-size="10.00">_status_report</text>
</a>
</g>
</g>
<!-- Node3675 -->
<g id="node2" class="node"><title>Node3675</title>
<g id="a_node2"><a xlink:href="classLocation.html#a02afc332b5f374b923aa57ec0a63c1af" target="_top" xlink:title=" ">
<polygon fill="white" stroke="black" points="332.177,-78 332.177,-98 415.823,-98 415.823,-78 332.177,-78"/>
<text text-anchor="middle" x="374" y="-84" font-family="Helvetica,sans-Serif" font-size="10.00">Location::offset</text>
</a>
</g>
</g>
<!-- Node3674&#45;&gt;Node3675 -->
<g id="edge1" class="edge"><title>Node3674&#45;&gt;Node3675</title>
<path fill="none" stroke="midnightblue" d="M111.672,-61.4982C123.598,-63.921 136.186,-66.2478 148,-68 207.202,-76.7807 275.78,-82.2 321.516,-85.1451"/>
<polygon fill="midnightblue" stroke="midnightblue" points="321.573,-88.6555 331.772,-85.7888 322.011,-81.6693 321.573,-88.6555"/>
</g>
<!-- Node3679 -->
<g id="node6" class="node"><title>Node3679</title>
<g id="a_node6"><a xlink:href="classNavEKF2__core.html#a1f512c939771330fe9d2bec4dc2b0a48" target="_top" xlink:title=" ">
<polygon fill="white" stroke="black" points="148.502,-39 148.502,-59 295.498,-59 295.498,-39 148.502,-39"/>
<text text-anchor="middle" x="222" y="-45" font-family="Helvetica,sans-Serif" font-size="10.00">NavEKF2_core::getVariances</text>
</a>
</g>
</g>
<!-- Node3674&#45;&gt;Node3679 -->
<g id="edge5" class="edge"><title>Node3674&#45;&gt;Node3679</title>
<path fill="none" stroke="midnightblue" d="M111.61,-49C120.14,-49 129.117,-49 138.108,-49"/>
<polygon fill="midnightblue" stroke="midnightblue" points="138.243,-52.5001 148.243,-49 138.243,-45.5001 138.243,-52.5001"/>
</g>
<!-- Node3680 -->
<g id="node7" class="node"><title>Node3680</title>
<g id="a_node7"><a xlink:href="classVector3.html#afcdfe81173c23d57e4a53a0282cddae7" target="_top" xlink:title=" ">
<polygon fill="white" stroke="black" points="180.641,-0 180.641,-20 263.359,-20 263.359,-0 180.641,-0"/>
<text text-anchor="middle" x="222" y="-6" font-family="Helvetica,sans-Serif" font-size="10.00">Vector3::length</text>
</a>
</g>
</g>
<!-- Node3674&#45;&gt;Node3680 -->
<g id="edge8" class="edge"><title>Node3674&#45;&gt;Node3680</title>
<path fill="none" stroke="midnightblue" d="M111.61,-36.0136C130.724,-31.4681 152.081,-26.3893 170.816,-21.934"/>
<polygon fill="midnightblue" stroke="midnightblue" points="171.716,-25.3177 180.635,-19.599 170.096,-18.5076 171.716,-25.3177"/>
</g>
<!-- Node3676 -->
<g id="node3" class="node"><title>Node3676</title>
<g id="a_node3"><a xlink:href="AP__Math_8cpp.html#accbd9f8bbc0adacd51efa66fad490c24" target="_top" xlink:title=" ">
<polygon fill="white" stroke="black" points="475.375,-123 475.375,-143 528.625,-143 528.625,-123 475.375,-123"/>
<text text-anchor="middle" x="502" y="-129" font-family="Helvetica,sans-Serif" font-size="10.00">is_equal</text>
</a>
</g>
</g>
<!-- Node3675&#45;&gt;Node3676 -->
<g id="edge2" class="edge"><title>Node3675&#45;&gt;Node3676</title>
<path fill="none" stroke="midnightblue" d="M403.277,-98.0989C421.65,-104.661 445.752,-113.269 465.423,-120.294"/>
<polygon fill="midnightblue" stroke="midnightblue" points="464.37,-123.634 474.964,-123.702 466.724,-117.042 464.37,-123.634"/>
</g>
<!-- Node3677 -->
<g id="node4" class="node"><title>Node3677</title>
<g id="a_node4"><a xlink:href="classLocation.html#aa23d345c5562140fb21682f9cc0cc247" target="_top" xlink:title=" ">
<polygon fill="white" stroke="black" points="452.022,-72 452.022,-104 551.978,-104 551.978,-72 452.022,-72"/>
<text text-anchor="start" x="460.022" y="-90" font-family="Helvetica,sans-Serif" font-size="10.00">Location::longitude</text>
<text text-anchor="middle" x="502" y="-78" font-family="Helvetica,sans-Serif" font-size="10.00">_scale</text>
</a>
</g>
</g>
<!-- Node3675&#45;&gt;Node3677 -->
<g id="edge3" class="edge"><title>Node3675&#45;&gt;Node3677</title>
<path fill="none" stroke="midnightblue" d="M415.909,-88C424.172,-88 433.017,-88 441.764,-88"/>
<polygon fill="midnightblue" stroke="midnightblue" points="441.947,-91.5001 451.947,-88 441.947,-84.5001 441.947,-91.5001"/>
</g>
<!-- Node3678 -->
<g id="node5" class="node"><title>Node3678</title>
<g id="a_node5"><a xlink:href="AP__Math_8h.html#a5abc8871f1e7781a55afe9bf299f0a39" target="_top" xlink:title=" ">
<polygon fill="white" stroke="black" points="588.165,-55 588.165,-75 625.835,-75 625.835,-55 588.165,-55"/>
<text text-anchor="middle" x="607" y="-61" font-family="Helvetica,sans-Serif" font-size="10.00">MAX</text>
</a>
</g>
</g>
<!-- Node3677&#45;&gt;Node3678 -->
<g id="edge4" class="edge"><title>Node3677&#45;&gt;Node3678</title>
<path fill="none" stroke="midnightblue" d="M552.087,-77.0389C561.021,-75.0438 570.053,-73.027 578.103,-71.2294"/>
<polygon fill="midnightblue" stroke="midnightblue" points="579.032,-74.6082 588.029,-69.0129 577.507,-67.7764 579.032,-74.6082"/>
</g>
<!-- Node3679&#45;&gt;Node3678 -->
<g id="edge6" class="edge"><title>Node3679&#45;&gt;Node3678</title>
<path fill="none" stroke="midnightblue" d="M295.941,-52.0471C381.552,-55.6236 519.281,-61.3773 578.011,-63.8308"/>
<polygon fill="midnightblue" stroke="midnightblue" points="577.89,-67.3287 588.028,-64.2492 578.183,-60.3348 577.89,-67.3287"/>
</g>
<!-- Node3679&#45;&gt;Node3675 -->
<g id="edge7" class="edge"><title>Node3679&#45;&gt;Node3675</title>
<path fill="none" stroke="midnightblue" d="M261.629,-59.0435C280.875,-64.0475 304.337,-70.1477 324.755,-75.4564"/>
<polygon fill="midnightblue" stroke="midnightblue" points="323.943,-78.8615 334.502,-77.9906 325.705,-72.0868 323.943,-78.8615"/>
</g>
</g>
</svg>
        <g id="navigator" transform="translate(0 0)" fill="#404254">
                <rect fill="#f2f5e9" fill-opacity="0.5" stroke="#606060" stroke-width=".5" x="0" y="0" width="60" height="60"/>
                <use id="zoomplus" xlink:href="#zoomPlus" x="17" y="9" onmousedown="handleZoom(evt,'in')"/>
                <use id="zoomminus" xlink:href="#zoomMin" x="42" y="9" onmousedown="handleZoom(evt,'out')"/>
                <use id="reset" xlink:href="#resetDef" x="30" y="36" onmousedown="handleReset()"/>
                <g id="arrowUp" xlink:href="#dirArrow" transform="translate(30 24)" onmousedown="handlePan(0,-1)">
                  <use xlink:href="#rim" fill="#404040">
                        <set attributeName="fill" to="#808080" begin="arrowUp.mouseover" end="arrowUp.mouseout"/>
                  </use>
                  <path fill="none" stroke="white" stroke-width="1.5" d="M0,-3.0v7 M-2.5,-0.5L0,-3.0L2.5,-0.5"/>
                </g>
                <g id="arrowRight" xlink:href="#dirArrow" transform="rotate(90) translate(36 -43)" onmousedown="handlePan(1,0)">
                  <use xlink:href="#rim" fill="#404040">
                        <set attributeName="fill" to="#808080" begin="arrowRight.mouseover" end="arrowRight.mouseout"/>
                  </use>
                  <path fill="none" stroke="white" stroke-width="1.5" d="M0,-3.0v7 M-2.5,-0.5L0,-3.0L2.5,-0.5"/>
                </g>
                <g id="arrowDown" xlink:href="#dirArrow" transform="rotate(180) translate(-30 -48)" onmousedown="handlePan(0,1)">
                  <use xlink:href="#rim" fill="#404040">
                        <set attributeName="fill" to="#808080" begin="arrowDown.mouseover" end="arrowDown.mouseout"/>
                  </use>
                  <path fill="none" stroke="white" stroke-width="1.5" d="M0,-3.0v7 M-2.5,-0.5L0,-3.0L2.5,-0.5"/>
                </g>
                <g id="arrowLeft" xlink:href="#dirArrow" transform="rotate(270) translate(-36 17)" onmousedown="handlePan(-1,0)">
                  <use xlink:href="#rim" fill="#404040">
                        <set attributeName="fill" to="#808080" begin="arrowLeft.mouseover" end="arrowLeft.mouseout"/>
                  </use>
                  <path fill="none" stroke="white" stroke-width="1.5" d="M0,-3.0v7 M-2.5,-0.5L0,-3.0L2.5,-0.5"/>
                </g>
        </g>
        <svg viewBox="0 0 15 15" width="100%" height="30px" preserveAspectRatio="xMaxYMin meet">
         <g id="arrow_out" transform="scale(0.3 0.3)">
          <a xlink:href="classNavEKF2__core_a80db500b0f07feed04eae5fd5c53d497_cgraph_org.svg" target="_base">
           <rect id="button" ry="5" rx="5" y="6" x="6" height="38" width="38"
                fill="#f2f5e9" fill-opacity="0.5" stroke="#606060" stroke-width="1.0"/>
           <path id="arrow"
             d="M 11.500037,31.436501 C 11.940474,20.09759 22.043105,11.32322 32.158766,21.979434 L 37.068811,17.246167 C 37.068811,17.246167 37.088388,32 37.088388,32 L 22.160133,31.978069 C 22.160133,31.978069 26.997745,27.140456 26.997745,27.140456 C 18.528582,18.264221 13.291696,25.230495 11.500037,31.436501 z"
             style="fill:#404040;"/>
          </a>
         </g>
        </svg>
</svg>
