<?xml version="1.0" encoding="UTF-8" standalone="no"?>
<!DOCTYPE svg PUBLIC "-//W3C//DTD SVG 1.1//EN"
 "http://www.w3.org/Graphics/SVG/1.1/DTD/svg11.dtd">
<!-- Generated by graphviz version 2.30.1 (20130221.2233)
 -->
<!-- Title: RC_Channels::set_gcs_overrides_enabled Pages: 1 -->
<svg width="626pt" height="118pt"
 viewBox="0.00 0.00 626.00 118.00" xmlns="http://www.w3.org/2000/svg" xmlns:xlink="http://www.w3.org/1999/xlink">
<g id="graph0" class="graph" transform="scale(1 1) rotate(0) translate(4 114)">
<title>RC_Channels::set_gcs_overrides_enabled</title>
<polygon fill="white" stroke="white" points="-4,5 -4,-114 623,-114 623,5 -4,5"/>
<!-- Node5285 -->
<g id="node1" class="node"><title>Node5285</title>
<g id="a_node1"><a xlink:title=" ">
<polygon fill="#bfbfbf" stroke="black" points="-0.137695,-39 -0.137695,-71 118.138,-71 118.138,-39 -0.137695,-39"/>
<text text-anchor="start" x="7.8623" y="-57" font-family="Helvetica,sans-Serif" font-size="10.00">RC_Channels::set_gcs</text>
<text text-anchor="middle" x="59" y="-45" font-family="Helvetica,sans-Serif" font-size="10.00">_overrides_enabled</text>
</a>
</g>
</g>
<!-- Node5286 -->
<g id="node2" class="node"><title>Node5286</title>
<g id="a_node2"><a xlink:href="classRC__Channels.html#a3dd4b82ba0b130b51ab4db4829975378" target="_top" xlink:title=" ">
<polygon fill="white" stroke="black" points="154.256,-39 154.256,-71 259.744,-71 259.744,-39 154.256,-39"/>
<text text-anchor="start" x="162.256" y="-57" font-family="Helvetica,sans-Serif" font-size="10.00">RC_Channels::clear</text>
<text text-anchor="middle" x="207" y="-45" font-family="Helvetica,sans-Serif" font-size="10.00">_overrides</text>
</a>
</g>
</g>
<!-- Node5285&#45;&gt;Node5286 -->
<g id="edge1" class="edge"><title>Node5285&#45;&gt;Node5286</title>
<path fill="none" stroke="midnightblue" d="M118.543,-55C126.89,-55 135.5,-55 143.912,-55"/>
<polygon fill="midnightblue" stroke="midnightblue" points="144.044,-58.5001 154.044,-55 144.044,-51.5001 144.044,-58.5001"/>
</g>
<!-- Node5287 -->
<g id="node3" class="node"><title>Node5287</title>
<g id="a_node3"><a xlink:href="RC__Channels_8cpp.html#acb66f35c4fe350096704f48e4c651948" target="_top" xlink:title=" ">
<polygon fill="white" stroke="black" points="352.5,-90 352.5,-110 381.5,-110 381.5,-90 352.5,-90"/>
<text text-anchor="middle" x="367" y="-96" font-family="Helvetica,sans-Serif" font-size="10.00">rc</text>
</a>
</g>
</g>
<!-- Node5286&#45;&gt;Node5287 -->
<g id="edge2" class="edge"><title>Node5286&#45;&gt;Node5287</title>
<path fill="none" stroke="midnightblue" d="M260.173,-69.8594C288.136,-77.8236 321.188,-87.237 342.821,-93.3983"/>
<polygon fill="midnightblue" stroke="midnightblue" points="341.875,-96.768 352.451,-96.1411 343.792,-90.0358 341.875,-96.768"/>
</g>
<!-- Node5289 -->
<g id="node5" class="node"><title>Node5289</title>
<g id="a_node5"><a xlink:href="classRC__Channels__PIDTest.html#a69f044d83694eafbe844e0ccdb55925a" target="_top" xlink:title=" ">
<polygon fill="white" stroke="black" points="307.586,-39 307.586,-71 426.414,-71 426.414,-39 307.586,-39"/>
<text text-anchor="start" x="315.586" y="-57" font-family="Helvetica,sans-Serif" font-size="10.00">RC_Channels_PIDTest</text>
<text text-anchor="middle" x="367" y="-45" font-family="Helvetica,sans-Serif" font-size="10.00">::channel</text>
</a>
</g>
</g>
<!-- Node5286&#45;&gt;Node5289 -->
<g id="edge4" class="edge"><title>Node5286&#45;&gt;Node5289</title>
<path fill="none" stroke="midnightblue" d="M260.173,-55C271.971,-55 284.674,-55 297.043,-55"/>
<polygon fill="midnightblue" stroke="midnightblue" points="297.328,-58.5001 307.328,-55 297.328,-51.5001 297.328,-58.5001"/>
</g>
<!-- Node5290 -->
<g id="node6" class="node"><title>Node5290</title>
<g id="a_node6"><a xlink:href="classRC__Channel.html#aa105fa778f4df7cf49dc1e619c0e2a41" target="_top" xlink:title=" ">
<polygon fill="white" stroke="black" points="295.912,-0 295.912,-20 438.088,-20 438.088,-0 295.912,-0"/>
<text text-anchor="middle" x="367" y="-6" font-family="Helvetica,sans-Serif" font-size="10.00">RC_Channel::clear_override</text>
</a>
</g>
</g>
<!-- Node5286&#45;&gt;Node5290 -->
<g id="edge5" class="edge"><title>Node5286&#45;&gt;Node5290</title>
<path fill="none" stroke="midnightblue" d="M260.173,-40.1406C279.831,-34.5419 302.003,-28.2269 320.956,-22.8291"/>
<polygon fill="midnightblue" stroke="midnightblue" points="322.17,-26.1225 330.829,-20.0171 320.253,-19.3902 322.17,-26.1225"/>
</g>
<!-- Node5288 -->
<g id="node4" class="node"><title>Node5288</title>
<g id="a_node4"><a xlink:href="classRC__Channels.html#aff83e1bebc777f76d2c19fc601c40c4f" target="_top" xlink:title=" ">
<polygon fill="white" stroke="black" points="474.348,-90 474.348,-110 617.652,-110 617.652,-90 474.348,-90"/>
<text text-anchor="middle" x="546" y="-96" font-family="Helvetica,sans-Serif" font-size="10.00">RC_Channels::get_singleton</text>
</a>
</g>
</g>
<!-- Node5287&#45;&gt;Node5288 -->
<g id="edge3" class="edge"><title>Node5287&#45;&gt;Node5288</title>
<path fill="none" stroke="midnightblue" d="M381.595,-100C399.491,-100 432.398,-100 464.016,-100"/>
<polygon fill="midnightblue" stroke="midnightblue" points="464.215,-103.5 474.215,-100 464.215,-96.5001 464.215,-103.5"/>
</g>
</g>
</svg>
