<?xml version="1.0" encoding="UTF-8" standalone="no"?>
<!DOCTYPE svg PUBLIC "-//W3C//DTD SVG 1.1//EN"
 "http://www.w3.org/Graphics/SVG/1.1/DTD/svg11.dtd">
<!-- Generated by graphviz version 2.30.1 (20130221.2233)
 -->
<!-- Title: HALSITL::UARTDriver::write Pages: 1 -->
<!--zoomable 345 -->
<svg id="main" version="1.1" xmlns="http://www.w3.org/2000/svg" xmlns:xlink="http://www.w3.org/1999/xlink" xml:space="preserve" onload="init(evt)">
<style type="text/css"><![CDATA[
.edge:hover path { stroke: red; }
.edge:hover polygon { stroke: red; fill: red; }
]]></style>
<script type="text/javascript"><![CDATA[
var edges = document.getElementsByTagName('g');
if (edges && edges.length) {
  for (var i=0;i<edges.length;i++) {
    if (edges[i].id.substr(0,4)=='edge') {
      edges[i].setAttribute('class','edge');
    }
  }
}
]]></script>
        <defs>
                <circle id="rim" cx="0" cy="0" r="7"/>
                <circle id="rim2" cx="0" cy="0" r="3.5"/>
                <g id="zoomPlus">
                        <use xlink:href="#rim" fill="#404040">
                                <set attributeName="fill" to="#808080" begin="zoomplus.mouseover" end="zoomplus.mouseout"/>
                        </use>
                        <path d="M-4,0h8M0,-4v8" fill="none" stroke="white" stroke-width="1.5" pointer-events="none"/>
                </g>
                <g id="zoomMin">
                        <use xlink:href="#rim" fill="#404040">
                                <set attributeName="fill" to="#808080" begin="zoomminus.mouseover" end="zoomminus.mouseout"/>
                        </use>
                        <path d="M-4,0h8" fill="none" stroke="white" stroke-width="1.5" pointer-events="none"/>
                </g>
                <g id="dirArrow">
                        <path fill="none" stroke="white" stroke-width="1.5" d="M0,-3.0v7 M-2.5,-0.5L0,-3.0L2.5,-0.5"/>
                </g>
               <g id="resetDef">
                       <use xlink:href="#rim2" fill="#404040">
                               <set attributeName="fill" to="#808080" begin="reset.mouseover" end="reset.mouseout"/>
                       </use>
               </g>
        </defs>

<script type="text/javascript">
var viewWidth = 732;
var viewHeight = 345;
var sectionId = 'dynsection-30';
</script>
<script xlink:href="svgpan.js"/>
<svg id="graph" class="graph">
<g id="viewport">
<title>HALSITL::UARTDriver::write</title>
<polygon fill="white" stroke="white" points="-4,5 -4,-340.886 729,-340.886 729,5 -4,5"/>
<!-- Node318 -->
<g id="node1" class="node"><title>Node318</title>
<g id="a_node1"><a xlink:title=" ">
<polygon fill="#bfbfbf" stroke="black" points="0.0805664,-191.886 0.0805664,-223.886 115.919,-223.886 115.919,-191.886 0.0805664,-191.886"/>
<text text-anchor="start" x="8.08057" y="-209.886" font-family="Helvetica,sans-Serif" font-size="10.00">HALSITL::UARTDriver</text>
<text text-anchor="middle" x="58" y="-197.886" font-family="Helvetica,sans-Serif" font-size="10.00">::write</text>
</a>
</g>
</g>
<!-- Node319 -->
<g id="node2" class="node"><title>Node319</title>
<g id="a_node2"><a xlink:href="classHALSITL_1_1UARTDriver.html#a79b346ccb9ef5581a13d113364883250" target="_top" xlink:title=" ">
<polygon fill="white" stroke="black" points="304.081,-259.886 304.081,-291.886 419.919,-291.886 419.919,-259.886 304.081,-259.886"/>
<text text-anchor="start" x="312.081" y="-277.886" font-family="Helvetica,sans-Serif" font-size="10.00">HALSITL::UARTDriver</text>
<text text-anchor="middle" x="362" y="-265.886" font-family="Helvetica,sans-Serif" font-size="10.00">::txspace</text>
</a>
</g>
</g>
<!-- Node318&#45;&gt;Node319 -->
<g id="edge1" class="edge"><title>Node318&#45;&gt;Node319</title>
<path fill="none" stroke="midnightblue" d="M83.9477,-224.102C102.07,-235.028 127.595,-248.711 152,-255.886 198.199,-269.468 252.373,-274.358 293.989,-275.91"/>
<polygon fill="midnightblue" stroke="midnightblue" points="293.909,-279.41 304.016,-276.229 294.132,-272.413 293.909,-279.41"/>
</g>
<!-- Node323 -->
<g id="node6" class="node"><title>Node323</title>
<g id="a_node6"><a xlink:href="classHALSITL_1_1UARTDriver.html#ae96f354c09f42de79fcdfcbe9e5d2f6b" target="_top" xlink:title=" ">
<polygon fill="white" stroke="black" points="152.081,-214.886 152.081,-246.886 267.919,-246.886 267.919,-214.886 152.081,-214.886"/>
<text text-anchor="start" x="160.081" y="-232.886" font-family="Helvetica,sans-Serif" font-size="10.00">HALSITL::UARTDriver</text>
<text text-anchor="middle" x="210" y="-220.886" font-family="Helvetica,sans-Serif" font-size="10.00">::write</text>
</a>
</g>
</g>
<!-- Node318&#45;&gt;Node323 -->
<g id="edge5" class="edge"><title>Node318&#45;&gt;Node323</title>
<path fill="none" stroke="midnightblue" d="M116.136,-216.647C124.587,-217.943 133.358,-219.288 141.986,-220.611"/>
<polygon fill="midnightblue" stroke="midnightblue" points="141.607,-224.093 152.022,-222.149 142.668,-217.174 141.607,-224.093"/>
</g>
<!-- Node327 -->
<g id="node10" class="node"><title>Node327</title>
<g id="a_node10"><a xlink:href="posix_8c.html#a8877deace0c63591fee0cc9c94d249d3" target="_top" xlink:title="POSIX Close a file with fileno handel.">
<polygon fill="white" stroke="black" points="190.328,-71.886 190.328,-91.886 229.672,-91.886 229.672,-71.886 190.328,-71.886"/>
<text text-anchor="middle" x="210" y="-77.886" font-family="Helvetica,sans-Serif" font-size="10.00">close</text>
</a>
</g>
</g>
<!-- Node318&#45;&gt;Node327 -->
<g id="edge12" class="edge"><title>Node318&#45;&gt;Node327</title>
<path fill="none" stroke="midnightblue" d="M78.3028,-191.672C106.822,-167.716 159.955,-123.084 188.916,-98.7566"/>
<polygon fill="midnightblue" stroke="midnightblue" points="191.333,-101.297 196.739,-92.1854 186.831,-95.9374 191.333,-101.297"/>
</g>
<!-- Node324 -->
<g id="node7" class="node"><title>Node324</title>
<g id="a_node7"><a xlink:href="classByteBuffer.html#ac57883bb2bce8263d26221a250f452dc" target="_top" xlink:title=" ">
<polygon fill="white" stroke="black" points="317.408,-204.886 317.408,-224.886 406.592,-224.886 406.592,-204.886 317.408,-204.886"/>
<text text-anchor="middle" x="362" y="-210.886" font-family="Helvetica,sans-Serif" font-size="10.00">ByteBuffer::write</text>
</a>
</g>
</g>
<!-- Node318&#45;&gt;Node324 -->
<g id="edge27" class="edge"><title>Node318&#45;&gt;Node324</title>
<path fill="none" stroke="midnightblue" d="M116.257,-204.973C158.281,-203.344 216.725,-202.137 268,-204.886 280.667,-205.565 294.263,-206.761 307.042,-208.095"/>
<polygon fill="midnightblue" stroke="midnightblue" points="306.762,-211.585 317.081,-209.187 307.519,-204.626 306.762,-211.585"/>
</g>
<!-- Node320 -->
<g id="node3" class="node"><title>Node320</title>
<g id="a_node3"><a xlink:href="classHALSITL_1_1UARTDriver.html#af540d04ec612fa06ec6a75b77d73ba4d" target="_top" xlink:title=" ">
<polygon fill="white" stroke="black" points="456.081,-304.886 456.081,-336.886 571.919,-336.886 571.919,-304.886 456.081,-304.886"/>
<text text-anchor="start" x="464.081" y="-322.886" font-family="Helvetica,sans-Serif" font-size="10.00">HALSITL::UARTDriver</text>
<text text-anchor="middle" x="514" y="-310.886" font-family="Helvetica,sans-Serif" font-size="10.00">::_check_connection</text>
</a>
</g>
</g>
<!-- Node319&#45;&gt;Node320 -->
<g id="edge2" class="edge"><title>Node319&#45;&gt;Node320</title>
<path fill="none" stroke="midnightblue" d="M416.73,-292.005C427.523,-295.243 438.957,-298.673 450.031,-301.995"/>
<polygon fill="midnightblue" stroke="midnightblue" points="449.061,-305.358 459.645,-304.88 451.073,-298.654 449.061,-305.358"/>
</g>
<!-- Node322 -->
<g id="node5" class="node"><title>Node322</title>
<g id="a_node5"><a xlink:href="classByteBuffer.html#a44decf7619adddfa5833f9d337fe56f4" target="_top" xlink:title=" ">
<polygon fill="white" stroke="black" points="618.623,-226.886 618.623,-246.886 713.377,-246.886 713.377,-226.886 618.623,-226.886"/>
<text text-anchor="middle" x="666" y="-232.886" font-family="Helvetica,sans-Serif" font-size="10.00">ByteBuffer::space</text>
</a>
</g>
</g>
<!-- Node319&#45;&gt;Node322 -->
<g id="edge4" class="edge"><title>Node319&#45;&gt;Node322</title>
<path fill="none" stroke="midnightblue" d="M419.97,-272.075C462.104,-268.858 520.81,-263.542 572,-255.886 584.603,-254.001 598.078,-251.521 610.748,-248.978"/>
<polygon fill="midnightblue" stroke="midnightblue" points="611.612,-252.374 620.704,-246.935 610.205,-245.516 611.612,-252.374"/>
</g>
<!-- Node321 -->
<g id="node4" class="node"><title>Node321</title>
<g id="a_node4"><a xlink:href="classHALSITL_1_1UARTDriver.html#a8b8c6116a527641b0c1a2f907c673740" target="_top" xlink:title=" ">
<polygon fill="white" stroke="black" points="608.081,-304.886 608.081,-336.886 723.919,-336.886 723.919,-304.886 608.081,-304.886"/>
<text text-anchor="start" x="616.081" y="-322.886" font-family="Helvetica,sans-Serif" font-size="10.00">HALSITL::UARTDriver</text>
<text text-anchor="middle" x="666" y="-310.886" font-family="Helvetica,sans-Serif" font-size="10.00">::_select_check</text>
</a>
</g>
</g>
<!-- Node320&#45;&gt;Node321 -->
<g id="edge3" class="edge"><title>Node320&#45;&gt;Node321</title>
<path fill="none" stroke="midnightblue" d="M572.136,-320.886C580.587,-320.886 589.358,-320.886 597.986,-320.886"/>
<polygon fill="midnightblue" stroke="midnightblue" points="598.022,-324.386 608.022,-320.886 598.022,-317.386 598.022,-324.386"/>
</g>
<!-- Node323&#45;&gt;Node319 -->
<g id="edge6" class="edge"><title>Node323&#45;&gt;Node319</title>
<path fill="none" stroke="midnightblue" d="M264.73,-247.005C275.523,-250.243 286.957,-253.673 298.031,-256.995"/>
<polygon fill="midnightblue" stroke="midnightblue" points="297.061,-260.358 307.645,-259.88 299.073,-253.654 297.061,-260.358"/>
</g>
<!-- Node323&#45;&gt;Node324 -->
<g id="edge7" class="edge"><title>Node323&#45;&gt;Node324</title>
<path fill="none" stroke="midnightblue" d="M268.136,-224.791C280.814,-223.439 294.215,-222.01 306.772,-220.67"/>
<polygon fill="midnightblue" stroke="midnightblue" points="307.515,-224.111 317.088,-219.57 306.773,-217.15 307.515,-224.111"/>
</g>
<!-- Node325 -->
<g id="node8" class="node"><title>Node325</title>
<g id="a_node8"><a xlink:href="classByteBuffer.html#ad5f9e7af638987efeadb7b4bb9c0ae28" target="_top" xlink:title=" ">
<polygon fill="white" stroke="black" points="463.292,-187.886 463.292,-207.886 564.708,-207.886 564.708,-187.886 463.292,-187.886"/>
<text text-anchor="middle" x="514" y="-193.886" font-family="Helvetica,sans-Serif" font-size="10.00">ByteBuffer::reserve</text>
</a>
</g>
</g>
<!-- Node324&#45;&gt;Node325 -->
<g id="edge8" class="edge"><title>Node324&#45;&gt;Node325</title>
<path fill="none" stroke="midnightblue" d="M406.789,-209.923C421.26,-208.283 437.618,-206.429 453.083,-204.677"/>
<polygon fill="midnightblue" stroke="midnightblue" points="453.546,-208.147 463.088,-203.543 452.757,-201.191 453.546,-208.147"/>
</g>
<!-- Node326 -->
<g id="node9" class="node"><title>Node326</title>
<g id="a_node9"><a xlink:href="classByteBuffer.html#a866914509694b8f71af1280ad2eba222" target="_top" xlink:title=" ">
<polygon fill="white" stroke="black" points="463.854,-226.886 463.854,-246.886 564.146,-246.886 564.146,-226.886 463.854,-226.886"/>
<text text-anchor="middle" x="514" y="-232.886" font-family="Helvetica,sans-Serif" font-size="10.00">ByteBuffer::commit</text>
</a>
</g>
</g>
<!-- Node324&#45;&gt;Node326 -->
<g id="edge10" class="edge"><title>Node324&#45;&gt;Node326</title>
<path fill="none" stroke="midnightblue" d="M406.789,-221.308C421.402,-223.452 437.939,-225.877 453.538,-228.165"/>
<polygon fill="midnightblue" stroke="midnightblue" points="453.221,-231.656 463.623,-229.644 454.237,-224.73 453.221,-231.656"/>
</g>
<!-- Node325&#45;&gt;Node322 -->
<g id="edge9" class="edge"><title>Node325&#45;&gt;Node322</title>
<path fill="none" stroke="midnightblue" d="M553.629,-207.929C572.875,-212.933 596.337,-219.034 616.755,-224.342"/>
<polygon fill="midnightblue" stroke="midnightblue" points="615.943,-227.748 626.502,-226.877 617.705,-220.973 615.943,-227.748"/>
</g>
<!-- Node326&#45;&gt;Node322 -->
<g id="edge11" class="edge"><title>Node326&#45;&gt;Node322</title>
<path fill="none" stroke="midnightblue" d="M564.531,-236.886C578.54,-236.886 593.893,-236.886 608.289,-236.886"/>
<polygon fill="midnightblue" stroke="midnightblue" points="608.57,-240.386 618.57,-236.886 608.569,-233.386 608.57,-240.386"/>
</g>
<!-- Node328 -->
<g id="node11" class="node"><title>Node328</title>
<g id="a_node11"><a xlink:href="posix_8c.html#ae0821388c321f66b16fbca4a625022de" target="_top" xlink:title="Convert POSIX fileno to POSIX FILE stream pointer. NOT POSIX.">
<polygon fill="white" stroke="black" points="469.035,-31.886 469.035,-51.886 558.965,-51.886 558.965,-31.886 469.035,-31.886"/>
<text text-anchor="middle" x="514" y="-37.886" font-family="Helvetica,sans-Serif" font-size="10.00">fileno_to_stream</text>
</a>
</g>
</g>
<!-- Node327&#45;&gt;Node328 -->
<g id="edge13" class="edge"><title>Node327&#45;&gt;Node328</title>
<path fill="none" stroke="midnightblue" d="M228.466,-71.807C246.646,-61.943 276.284,-47.5936 304,-41.886 355.71,-31.2371 416.156,-32.6933 458.702,-35.9342"/>
<polygon fill="midnightblue" stroke="midnightblue" points="458.593,-39.437 468.846,-36.7665 459.166,-32.4604 458.593,-39.437"/>
</g>
<!-- Node329 -->
<g id="node12" class="node"><title>Node329</title>
<g id="a_node12"><a xlink:href="posix_8c.html#af86fa14728c9bad5418a6d29cad9f9ff" target="_top" xlink:title="Convert POSIX stream pointer to POSIX fileno (index of __iob[])">
<polygon fill="white" stroke="black" points="646.047,-31.886 646.047,-51.886 685.953,-51.886 685.953,-31.886 646.047,-31.886"/>
<text text-anchor="middle" x="666" y="-37.886" font-family="Helvetica,sans-Serif" font-size="10.00">fileno</text>
</a>
</g>
</g>
<!-- Node327&#45;&gt;Node329 -->
<g id="edge15" class="edge"><title>Node327&#45;&gt;Node329</title>
<path fill="none" stroke="midnightblue" d="M224.989,-71.6922C242.504,-59.5076 273.881,-39.5539 304,-29.886 417.639,6.59179 454.01,5.08358 572,-12.886 594.149,-16.2592 618.277,-23.9065 636.406,-30.5014"/>
<polygon fill="midnightblue" stroke="midnightblue" points="635.217,-33.7935 645.81,-34.0231 637.672,-27.2382 635.217,-33.7935"/>
</g>
<!-- Node330 -->
<g id="node13" class="node"><title>Node330</title>
<g id="a_node13"><a xlink:href="posix_8c.html#a1eeda4d85cf3cae5cf1ee8c1e196a686" target="_top" xlink:title="Convert POSIX fileno to FatFS handle NOT POSIX.">
<polygon fill="white" stroke="black" points="322.867,-51.886 322.867,-71.886 401.133,-71.886 401.133,-51.886 322.867,-51.886"/>
<text text-anchor="middle" x="362" y="-57.886" font-family="Helvetica,sans-Serif" font-size="10.00">fileno_to_fatfs</text>
</a>
</g>
</g>
<!-- Node327&#45;&gt;Node330 -->
<g id="edge16" class="edge"><title>Node327&#45;&gt;Node330</title>
<path fill="none" stroke="midnightblue" d="M229.694,-79.3934C250.328,-76.6422 284.362,-72.1045 312.609,-68.3381"/>
<polygon fill="midnightblue" stroke="midnightblue" points="313.269,-71.7812 322.719,-66.9902 312.344,-64.8426 313.269,-71.7812"/>
</g>
<!-- Node332 -->
<g id="node15" class="node"><title>Node332</title>
<g id="a_node15"><a xlink:href="posix_8c.html#a9d5502ebc4eba38ea5ef6ca4ba71bc02" target="_top" xlink:title="Free POSIX fileno FILE descriptor. NOT POSIX.">
<polygon fill="white" stroke="black" points="311.478,-90.886 311.478,-110.886 412.522,-110.886 412.522,-90.886 311.478,-90.886"/>
<text text-anchor="middle" x="362" y="-96.886" font-family="Helvetica,sans-Serif" font-size="10.00">free_file_descriptor</text>
</a>
</g>
</g>
<!-- Node327&#45;&gt;Node332 -->
<g id="edge21" class="edge"><title>Node327&#45;&gt;Node332</title>
<path fill="none" stroke="midnightblue" d="M229.694,-84.254C247.651,-86.5285 275.757,-90.0885 301.365,-93.3322"/>
<polygon fill="midnightblue" stroke="midnightblue" points="301.041,-96.819 311.401,-94.6035 301.92,-89.8745 301.041,-96.819"/>
</g>
<!-- Node334 -->
<g id="node17" class="node"><title>Node334</title>
<g id="a_node17"><a xlink:href="posix_8c.html#aeb68afd2fdf966f8d89cc7aaa9aa7c23" target="_top" xlink:title="Convert FafFs error result to POSIX errno. NOT POSIX.">
<polygon fill="white" stroke="black" points="323.148,-129.886 323.148,-149.886 400.852,-149.886 400.852,-129.886 323.148,-129.886"/>
<text text-anchor="middle" x="362" y="-135.886" font-family="Helvetica,sans-Serif" font-size="10.00">fatfs_to_errno</text>
</a>
</g>
</g>
<!-- Node327&#45;&gt;Node334 -->
<g id="edge26" class="edge"><title>Node327&#45;&gt;Node334</title>
<path fill="none" stroke="midnightblue" d="M229.77,-89.8809C248.476,-97.7712 278.072,-110.047 304,-119.886 309.653,-122.031 315.651,-124.225 321.552,-126.336"/>
<polygon fill="midnightblue" stroke="midnightblue" points="320.718,-129.753 331.313,-129.788 323.052,-123.154 320.718,-129.753"/>
</g>
<!-- Node328&#45;&gt;Node329 -->
<g id="edge14" class="edge"><title>Node328&#45;&gt;Node329</title>
<path fill="none" stroke="midnightblue" d="M559.194,-41.886C583.886,-41.886 613.97,-41.886 635.738,-41.886"/>
<polygon fill="midnightblue" stroke="midnightblue" points="635.993,-45.3861 645.993,-41.886 635.993,-38.3861 635.993,-45.3861"/>
</g>
<!-- Node331 -->
<g id="node14" class="node"><title>Node331</title>
<g id="a_node14"><a xlink:href="posix_8c.html#aeac589354c9d47c7d9c7c49ba4b0d266" target="_top" xlink:title="Test POSIX fileno if it is a Serial Console/TTY.">
<polygon fill="white" stroke="black" points="494.33,-70.886 494.33,-90.886 533.67,-90.886 533.67,-70.886 494.33,-70.886"/>
<text text-anchor="middle" x="514" y="-76.886" font-family="Helvetica,sans-Serif" font-size="10.00">isatty</text>
</a>
</g>
</g>
<!-- Node330&#45;&gt;Node331 -->
<g id="edge17" class="edge"><title>Node330&#45;&gt;Node331</title>
<path fill="none" stroke="midnightblue" d="M401.239,-66.7297C426.982,-69.9904 460.401,-74.2235 483.966,-77.2084"/>
<polygon fill="midnightblue" stroke="midnightblue" points="483.676,-80.6996 494.037,-78.484 484.556,-73.755 483.676,-80.6996"/>
</g>
<!-- Node330&#45;&gt;Node329 -->
<g id="edge19" class="edge"><title>Node330&#45;&gt;Node329</title>
<path fill="none" stroke="midnightblue" d="M380.466,-51.807C398.646,-41.943 428.284,-27.5936 456,-21.886 519.386,-8.83273 595.378,-23.5051 636.003,-33.7242"/>
<polygon fill="midnightblue" stroke="midnightblue" points="635.217,-37.1361 645.776,-36.2704 636.982,-30.3623 635.217,-37.1361"/>
</g>
<!-- Node330&#45;&gt;Node328 -->
<g id="edge20" class="edge"><title>Node330&#45;&gt;Node328</title>
<path fill="none" stroke="midnightblue" d="M401.239,-56.7874C418.751,-54.4526 439.814,-51.6442 458.911,-49.0979"/>
<polygon fill="midnightblue" stroke="midnightblue" points="459.535,-52.5457 468.985,-47.7547 458.61,-45.6071 459.535,-52.5457"/>
</g>
<!-- Node331&#45;&gt;Node329 -->
<g id="edge18" class="edge"><title>Node331&#45;&gt;Node329</title>
<path fill="none" stroke="midnightblue" d="M533.694,-76.0255C559.266,-69.3768 605.418,-57.3773 635.632,-49.5217"/>
<polygon fill="midnightblue" stroke="midnightblue" points="636.797,-52.8353 645.594,-46.9315 635.035,-46.0605 636.797,-52.8353"/>
</g>
<!-- Node332&#45;&gt;Node331 -->
<g id="edge22" class="edge"><title>Node332&#45;&gt;Node331</title>
<path fill="none" stroke="midnightblue" d="M412.531,-94.2818C436.257,-91.1184 463.842,-87.4404 484.098,-84.7396"/>
<polygon fill="midnightblue" stroke="midnightblue" points="484.795,-88.1778 494.244,-83.3868 483.869,-81.2392 484.795,-88.1778"/>
</g>
<!-- Node332&#45;&gt;Node329 -->
<g id="edge23" class="edge"><title>Node332&#45;&gt;Node329</title>
<path fill="none" stroke="midnightblue" d="M412.644,-108.148C455.687,-112.691 519.187,-115.142 572,-99.886 600.121,-91.7628 628.026,-72.4598 645.821,-58.3458"/>
<polygon fill="midnightblue" stroke="midnightblue" points="648.173,-60.9439 653.702,-51.9057 643.744,-55.5237 648.173,-60.9439"/>
</g>
<!-- Node332&#45;&gt;Node328 -->
<g id="edge24" class="edge"><title>Node332&#45;&gt;Node328</title>
<path fill="none" stroke="midnightblue" d="M394.734,-90.8222C403.065,-87.8908 411.964,-84.4964 420,-80.886 436.696,-73.3846 439.246,-68.2561 456,-60.886 460.422,-58.9408 465.109,-57.0775 469.822,-55.3303"/>
<polygon fill="midnightblue" stroke="midnightblue" points="471.195,-58.5569 479.452,-51.9176 468.857,-51.9589 471.195,-58.5569"/>
</g>
<!-- Node333 -->
<g id="node16" class="node"><title>Node333</title>
<g id="a_node16"><a xlink:href="malloc_8c.html#afbedc913aa4651b3c3b4b3aecd9b4711" target="_top" xlink:title=" ">
<polygon fill="white" stroke="black" points="497.384,-148.886 497.384,-168.886 530.616,-168.886 530.616,-148.886 497.384,-148.886"/>
<text text-anchor="middle" x="514" y="-154.886" font-family="Helvetica,sans-Serif" font-size="10.00">free</text>
</a>
</g>
</g>
<!-- Node332&#45;&gt;Node333 -->
<g id="edge25" class="edge"><title>Node332&#45;&gt;Node333</title>
<path fill="none" stroke="midnightblue" d="M394.509,-110.918C402.841,-113.699 411.798,-116.804 420,-119.886 443.339,-128.655 469.491,-139.737 488.103,-147.844"/>
<polygon fill="midnightblue" stroke="midnightblue" points="486.784,-151.087 497.348,-151.896 489.594,-144.676 486.784,-151.087"/>
</g>
</g>
</svg>
        <g id="navigator" transform="translate(0 0)" fill="#404254">
                <rect fill="#f2f5e9" fill-opacity="0.5" stroke="#606060" stroke-width=".5" x="0" y="0" width="60" height="60"/>
                <use id="zoomplus" xlink:href="#zoomPlus" x="17" y="9" onmousedown="handleZoom(evt,'in')"/>
                <use id="zoomminus" xlink:href="#zoomMin" x="42" y="9" onmousedown="handleZoom(evt,'out')"/>
                <use id="reset" xlink:href="#resetDef" x="30" y="36" onmousedown="handleReset()"/>
                <g id="arrowUp" xlink:href="#dirArrow" transform="translate(30 24)" onmousedown="handlePan(0,-1)">
                  <use xlink:href="#rim" fill="#404040">
                        <set attributeName="fill" to="#808080" begin="arrowUp.mouseover" end="arrowUp.mouseout"/>
                  </use>
                  <path fill="none" stroke="white" stroke-width="1.5" d="M0,-3.0v7 M-2.5,-0.5L0,-3.0L2.5,-0.5"/>
                </g>
                <g id="arrowRight" xlink:href="#dirArrow" transform="rotate(90) translate(36 -43)" onmousedown="handlePan(1,0)">
                  <use xlink:href="#rim" fill="#404040">
                        <set attributeName="fill" to="#808080" begin="arrowRight.mouseover" end="arrowRight.mouseout"/>
                  </use>
                  <path fill="none" stroke="white" stroke-width="1.5" d="M0,-3.0v7 M-2.5,-0.5L0,-3.0L2.5,-0.5"/>
                </g>
                <g id="arrowDown" xlink:href="#dirArrow" transform="rotate(180) translate(-30 -48)" onmousedown="handlePan(0,1)">
                  <use xlink:href="#rim" fill="#404040">
                        <set attributeName="fill" to="#808080" begin="arrowDown.mouseover" end="arrowDown.mouseout"/>
                  </use>
                  <path fill="none" stroke="white" stroke-width="1.5" d="M0,-3.0v7 M-2.5,-0.5L0,-3.0L2.5,-0.5"/>
                </g>
                <g id="arrowLeft" xlink:href="#dirArrow" transform="rotate(270) translate(-36 17)" onmousedown="handlePan(-1,0)">
                  <use xlink:href="#rim" fill="#404040">
                        <set attributeName="fill" to="#808080" begin="arrowLeft.mouseover" end="arrowLeft.mouseout"/>
                  </use>
                  <path fill="none" stroke="white" stroke-width="1.5" d="M0,-3.0v7 M-2.5,-0.5L0,-3.0L2.5,-0.5"/>
                </g>
        </g>
        <svg viewBox="0 0 15 15" width="100%" height="30px" preserveAspectRatio="xMaxYMin meet">
         <g id="arrow_out" transform="scale(0.3 0.3)">
          <a xlink:href="classHALSITL_1_1UARTDriver_aee6e6861ad56a217d1ab00c684b8e851_cgraph_org.svg" target="_base">
           <rect id="button" ry="5" rx="5" y="6" x="6" height="38" width="38"
                fill="#f2f5e9" fill-opacity="0.5" stroke="#606060" stroke-width="1.0"/>
           <path id="arrow"
             d="M 11.500037,31.436501 C 11.940474,20.09759 22.043105,11.32322 32.158766,21.979434 L 37.068811,17.246167 C 37.068811,17.246167 37.088388,32 37.088388,32 L 22.160133,31.978069 C 22.160133,31.978069 26.997745,27.140456 26.997745,27.140456 C 18.528582,18.264221 13.291696,25.230495 11.500037,31.436501 z"
             style="fill:#404040;"/>
          </a>
         </g>
        </svg>
</svg>
