<?xml version="1.0" encoding="UTF-8" standalone="no"?>
<!DOCTYPE svg PUBLIC "-//W3C//DTD SVG 1.1//EN"
 "http://www.w3.org/Graphics/SVG/1.1/DTD/svg11.dtd">
<!-- Generated by graphviz version 2.30.1 (20130221.2233)
 -->
<!-- Title: AP_MotorsSingle::get_motor_mask Pages: 1 -->
<!--zoomable 130 -->
<svg id="main" version="1.1" xmlns="http://www.w3.org/2000/svg" xmlns:xlink="http://www.w3.org/1999/xlink" xml:space="preserve" onload="init(evt)">
<style type="text/css"><![CDATA[
.edge:hover path { stroke: red; }
.edge:hover polygon { stroke: red; fill: red; }
]]></style>
<script type="text/javascript"><![CDATA[
var edges = document.getElementsByTagName('g');
if (edges && edges.length) {
  for (var i=0;i<edges.length;i++) {
    if (edges[i].id.substr(0,4)=='edge') {
      edges[i].setAttribute('class','edge');
    }
  }
}
]]></script>
        <defs>
                <circle id="rim" cx="0" cy="0" r="7"/>
                <circle id="rim2" cx="0" cy="0" r="3.5"/>
                <g id="zoomPlus">
                        <use xlink:href="#rim" fill="#404040">
                                <set attributeName="fill" to="#808080" begin="zoomplus.mouseover" end="zoomplus.mouseout"/>
                        </use>
                        <path d="M-4,0h8M0,-4v8" fill="none" stroke="white" stroke-width="1.5" pointer-events="none"/>
                </g>
                <g id="zoomMin">
                        <use xlink:href="#rim" fill="#404040">
                                <set attributeName="fill" to="#808080" begin="zoomminus.mouseover" end="zoomminus.mouseout"/>
                        </use>
                        <path d="M-4,0h8" fill="none" stroke="white" stroke-width="1.5" pointer-events="none"/>
                </g>
                <g id="dirArrow">
                        <path fill="none" stroke="white" stroke-width="1.5" d="M0,-3.0v7 M-2.5,-0.5L0,-3.0L2.5,-0.5"/>
                </g>
               <g id="resetDef">
                       <use xlink:href="#rim2" fill="#404040">
                               <set attributeName="fill" to="#808080" begin="reset.mouseover" end="reset.mouseout"/>
                       </use>
               </g>
        </defs>

<script type="text/javascript">
var viewWidth = 956;
var viewHeight = 130;
var sectionId = 'dynsection-2';
</script>
<script xlink:href="svgpan.js"/>
<svg id="graph" class="graph">
<g id="viewport">
<title>AP_MotorsSingle::get_motor_mask</title>
<polygon fill="white" stroke="white" points="-4,5 -4,-126 953,-126 953,5 -4,5"/>
<!-- Node2 -->
<g id="node1" class="node"><title>Node2</title>
<g id="a_node1"><a xlink:title=" ">
<polygon fill="#bfbfbf" stroke="black" points="0.640625,-61 0.640625,-93 113.359,-93 113.359,-61 0.640625,-61"/>
<text text-anchor="start" x="8.64062" y="-79" font-family="Helvetica,sans-Serif" font-size="10.00">AP_MotorsSingle::get</text>
<text text-anchor="middle" x="57" y="-67" font-family="Helvetica,sans-Serif" font-size="10.00">_motor_mask</text>
</a>
</g>
</g>
<!-- Node3 -->
<g id="node2" class="node"><title>Node3</title>
<g id="a_node2"><a xlink:href="classAP__Motors.html#ad49597b2238eada981aee164f6de0ab1" target="_top" xlink:title=" ">
<polygon fill="white" stroke="black" points="150.091,-90 150.091,-110 283.909,-110 283.909,-90 150.091,-90"/>
<text text-anchor="middle" x="217" y="-96" font-family="Helvetica,sans-Serif" font-size="10.00">AP_Motors::rc_map_mask</text>
</a>
</g>
</g>
<!-- Node2&#45;&gt;Node3 -->
<g id="edge1" class="edge"><title>Node2&#45;&gt;Node3</title>
<path fill="none" stroke="midnightblue" d="M113.705,-85.1089C122.226,-86.3493 131.144,-87.6475 140.011,-88.9383"/>
<polygon fill="midnightblue" stroke="midnightblue" points="139.577,-92.412 149.977,-90.3891 140.586,-85.485 139.577,-92.412"/>
</g>
<!-- Node12 -->
<g id="node11" class="node"><title>Node12</title>
<g id="a_node11"><a xlink:href="classAP__MotorsMulticopter.html#a8682067490be2453c708b5cb20c6b802" target="_top" xlink:title=" ">
<polygon fill="white" stroke="black" points="159.815,-39 159.815,-71 274.185,-71 274.185,-39 159.815,-39"/>
<text text-anchor="start" x="167.815" y="-57" font-family="Helvetica,sans-Serif" font-size="10.00">AP_MotorsMulticopter</text>
<text text-anchor="middle" x="217" y="-45" font-family="Helvetica,sans-Serif" font-size="10.00">::get_motor_mask</text>
</a>
</g>
</g>
<!-- Node2&#45;&gt;Node12 -->
<g id="edge10" class="edge"><title>Node2&#45;&gt;Node12</title>
<path fill="none" stroke="midnightblue" d="M113.705,-69.2436C125.366,-67.6199 137.771,-65.8927 149.771,-64.2217"/>
<polygon fill="midnightblue" stroke="midnightblue" points="150.31,-67.6805 159.732,-62.8348 149.345,-60.7474 150.31,-67.6805"/>
</g>
<!-- Node4 -->
<g id="node3" class="node"><title>Node4</title>
<g id="a_node3"><a xlink:href="classSRV__Channels.html#acab9e1aba9fcbde6e598169af5b3181f" target="_top" xlink:title=" ">
<polygon fill="white" stroke="black" points="321.61,-90 321.61,-122 456.39,-122 456.39,-90 321.61,-90"/>
<text text-anchor="start" x="329.61" y="-108" font-family="Helvetica,sans-Serif" font-size="10.00">SRV_Channels::get_motor</text>
<text text-anchor="middle" x="389" y="-96" font-family="Helvetica,sans-Serif" font-size="10.00">_function</text>
</a>
</g>
</g>
<!-- Node3&#45;&gt;Node4 -->
<g id="edge2" class="edge"><title>Node3&#45;&gt;Node4</title>
<path fill="none" stroke="midnightblue" d="M284.213,-102.337C293.087,-102.65 302.248,-102.973 311.283,-103.292"/>
<polygon fill="midnightblue" stroke="midnightblue" points="311.291,-106.795 321.408,-103.65 311.538,-99.7991 311.291,-106.795"/>
</g>
<!-- Node5 -->
<g id="node4" class="node"><title>Node5</title>
<g id="a_node4"><a xlink:href="classSRV__Channels.html#aa8ed20a48e6ffe0cb62e87fb9fa2f772" target="_top" xlink:title=" ">
<polygon fill="white" stroke="black" points="320.49,-39 320.49,-71 457.51,-71 457.51,-39 320.49,-39"/>
<text text-anchor="start" x="328.49" y="-57" font-family="Helvetica,sans-Serif" font-size="10.00">SRV_Channels::get_output</text>
<text text-anchor="middle" x="389" y="-45" font-family="Helvetica,sans-Serif" font-size="10.00">_channel_mask</text>
</a>
</g>
</g>
<!-- Node3&#45;&gt;Node5 -->
<g id="edge3" class="edge"><title>Node3&#45;&gt;Node5</title>
<path fill="none" stroke="midnightblue" d="M256.151,-89.9011C274.236,-85.1139 296.436,-79.2374 317.427,-73.681"/>
<polygon fill="midnightblue" stroke="midnightblue" points="318.517,-77.0133 327.288,-71.0708 316.725,-70.2463 318.517,-77.0133"/>
</g>
<!-- Node6 -->
<g id="node5" class="node"><title>Node6</title>
<g id="a_node5"><a xlink:href="classSRV__Channels.html#a2bce803f8a1de705be47d8cf7a46584c" target="_top" xlink:title="setup the output range types of all functions">
<polygon fill="white" stroke="black" points="493.83,-39 493.83,-71 614.17,-71 614.17,-39 493.83,-39"/>
<text text-anchor="start" x="501.83" y="-57" font-family="Helvetica,sans-Serif" font-size="10.00">SRV_Channels::update</text>
<text text-anchor="middle" x="554" y="-45" font-family="Helvetica,sans-Serif" font-size="10.00">_aux_servo_function</text>
</a>
</g>
</g>
<!-- Node5&#45;&gt;Node6 -->
<g id="edge4" class="edge"><title>Node5&#45;&gt;Node6</title>
<path fill="none" stroke="midnightblue" d="M457.711,-55C466.324,-55 475.148,-55 483.784,-55"/>
<polygon fill="midnightblue" stroke="midnightblue" points="483.812,-58.5001 493.812,-55 483.812,-51.5001 483.812,-58.5001"/>
</g>
<!-- Node7 -->
<g id="node6" class="node"><title>Node7</title>
<g id="a_node6"><a xlink:href="classBitmask.html#ab753bfb6058f8a60e523c949802f3823" target="_top" xlink:title=" ">
<polygon fill="white" stroke="black" points="671.601,-90 671.601,-110 760.399,-110 760.399,-90 671.601,-90"/>
<text text-anchor="middle" x="716" y="-96" font-family="Helvetica,sans-Serif" font-size="10.00">Bitmask::clearall</text>
</a>
</g>
</g>
<!-- Node6&#45;&gt;Node7 -->
<g id="edge5" class="edge"><title>Node6&#45;&gt;Node7</title>
<path fill="none" stroke="midnightblue" d="M612.312,-71.1189C630.901,-76.3472 651.272,-82.0766 668.935,-87.0441"/>
<polygon fill="midnightblue" stroke="midnightblue" points="668.413,-90.5331 678.987,-89.8713 670.308,-83.7945 668.413,-90.5331"/>
</g>
<!-- Node8 -->
<g id="node7" class="node"><title>Node8</title>
<g id="a_node7"><a xlink:href="classSRV__Channel.html#aadaab2dbeb62aa6f7b42eb39bf4f2430" target="_top" xlink:title=" ">
<polygon fill="white" stroke="black" points="650.554,-39 650.554,-71 781.446,-71 781.446,-39 650.554,-39"/>
<text text-anchor="start" x="658.554" y="-57" font-family="Helvetica,sans-Serif" font-size="10.00">SRV_Channel::aux_servo</text>
<text text-anchor="middle" x="716" y="-45" font-family="Helvetica,sans-Serif" font-size="10.00">_function_setup</text>
</a>
</g>
</g>
<!-- Node6&#45;&gt;Node8 -->
<g id="edge6" class="edge"><title>Node6&#45;&gt;Node8</title>
<path fill="none" stroke="midnightblue" d="M614.578,-55C623.008,-55 631.761,-55 640.429,-55"/>
<polygon fill="midnightblue" stroke="midnightblue" points="640.542,-58.5001 650.541,-55 640.541,-51.5001 640.542,-58.5001"/>
</g>
<!-- Node11 -->
<g id="node10" class="node"><title>Node11</title>
<g id="a_node10"><a xlink:href="classBitmask.html#a6d942e61abc55c452b001b11dadf8a18" target="_top" xlink:title=" ">
<polygon fill="white" stroke="black" points="680.771,-0 680.771,-20 751.229,-20 751.229,-0 680.771,-0"/>
<text text-anchor="middle" x="716" y="-6" font-family="Helvetica,sans-Serif" font-size="10.00">Bitmask::set</text>
</a>
</g>
</g>
<!-- Node6&#45;&gt;Node11 -->
<g id="edge9" class="edge"><title>Node6&#45;&gt;Node11</title>
<path fill="none" stroke="midnightblue" d="M612.312,-38.8811C631.529,-33.4763 652.65,-27.5359 670.714,-22.4554"/>
<polygon fill="midnightblue" stroke="midnightblue" points="671.725,-25.8069 680.404,-19.7301 669.83,-19.0684 671.725,-25.8069"/>
</g>
<!-- Node9 -->
<g id="node8" class="node"><title>Node9</title>
<g id="a_node8"><a xlink:href="classSRV__Channel.html#a04f5baeec785c9f696798fa4a6c7d6ce" target="_top" xlink:title=" ">
<polygon fill="white" stroke="black" points="818.384,-64 818.384,-84 947.616,-84 947.616,-64 818.384,-64"/>
<text text-anchor="middle" x="883" y="-70" font-family="Helvetica,sans-Serif" font-size="10.00">SRV_Channel::set_range</text>
</a>
</g>
</g>
<!-- Node8&#45;&gt;Node9 -->
<g id="edge7" class="edge"><title>Node8&#45;&gt;Node9</title>
<path fill="none" stroke="midnightblue" d="M781.739,-62.4548C790.369,-63.4486 799.272,-64.4738 808.045,-65.484"/>
<polygon fill="midnightblue" stroke="midnightblue" points="807.924,-68.9931 818.259,-66.6602 808.725,-62.0391 807.924,-68.9931"/>
</g>
<!-- Node10 -->
<g id="node9" class="node"><title>Node10</title>
<g id="a_node9"><a xlink:href="classSRV__Channel.html#aaf3193d70a486747bfbc9c6398cff261" target="_top" xlink:title=" ">
<polygon fill="white" stroke="black" points="818.938,-25 818.938,-45 947.062,-45 947.062,-25 818.938,-25"/>
<text text-anchor="middle" x="883" y="-31" font-family="Helvetica,sans-Serif" font-size="10.00">SRV_Channel::set_angle</text>
</a>
</g>
</g>
<!-- Node8&#45;&gt;Node10 -->
<g id="edge8" class="edge"><title>Node8&#45;&gt;Node10</title>
<path fill="none" stroke="midnightblue" d="M781.739,-47.1529C790.594,-46.0795 799.737,-44.9713 808.731,-43.8811"/>
<polygon fill="midnightblue" stroke="midnightblue" points="809.293,-47.3387 818.799,-42.6607 808.451,-40.3895 809.293,-47.3387"/>
</g>
<!-- Node12&#45;&gt;Node5 -->
<g id="edge11" class="edge"><title>Node12&#45;&gt;Node5</title>
<path fill="none" stroke="midnightblue" d="M274.608,-55C286.077,-55 298.326,-55 310.376,-55"/>
<polygon fill="midnightblue" stroke="midnightblue" points="310.43,-58.5001 320.43,-55 310.43,-51.5001 310.43,-58.5001"/>
</g>
</g>
</svg>
        <g id="navigator" transform="translate(0 0)" fill="#404254">
                <rect fill="#f2f5e9" fill-opacity="0.5" stroke="#606060" stroke-width=".5" x="0" y="0" width="60" height="60"/>
                <use id="zoomplus" xlink:href="#zoomPlus" x="17" y="9" onmousedown="handleZoom(evt,'in')"/>
                <use id="zoomminus" xlink:href="#zoomMin" x="42" y="9" onmousedown="handleZoom(evt,'out')"/>
                <use id="reset" xlink:href="#resetDef" x="30" y="36" onmousedown="handleReset()"/>
                <g id="arrowUp" xlink:href="#dirArrow" transform="translate(30 24)" onmousedown="handlePan(0,-1)">
                  <use xlink:href="#rim" fill="#404040">
                        <set attributeName="fill" to="#808080" begin="arrowUp.mouseover" end="arrowUp.mouseout"/>
                  </use>
                  <path fill="none" stroke="white" stroke-width="1.5" d="M0,-3.0v7 M-2.5,-0.5L0,-3.0L2.5,-0.5"/>
                </g>
                <g id="arrowRight" xlink:href="#dirArrow" transform="rotate(90) translate(36 -43)" onmousedown="handlePan(1,0)">
                  <use xlink:href="#rim" fill="#404040">
                        <set attributeName="fill" to="#808080" begin="arrowRight.mouseover" end="arrowRight.mouseout"/>
                  </use>
                  <path fill="none" stroke="white" stroke-width="1.5" d="M0,-3.0v7 M-2.5,-0.5L0,-3.0L2.5,-0.5"/>
                </g>
                <g id="arrowDown" xlink:href="#dirArrow" transform="rotate(180) translate(-30 -48)" onmousedown="handlePan(0,1)">
                  <use xlink:href="#rim" fill="#404040">
                        <set attributeName="fill" to="#808080" begin="arrowDown.mouseover" end="arrowDown.mouseout"/>
                  </use>
                  <path fill="none" stroke="white" stroke-width="1.5" d="M0,-3.0v7 M-2.5,-0.5L0,-3.0L2.5,-0.5"/>
                </g>
                <g id="arrowLeft" xlink:href="#dirArrow" transform="rotate(270) translate(-36 17)" onmousedown="handlePan(-1,0)">
                  <use xlink:href="#rim" fill="#404040">
                        <set attributeName="fill" to="#808080" begin="arrowLeft.mouseover" end="arrowLeft.mouseout"/>
                  </use>
                  <path fill="none" stroke="white" stroke-width="1.5" d="M0,-3.0v7 M-2.5,-0.5L0,-3.0L2.5,-0.5"/>
                </g>
        </g>
        <svg viewBox="0 0 15 15" width="100%" height="30px" preserveAspectRatio="xMaxYMin meet">
         <g id="arrow_out" transform="scale(0.3 0.3)">
          <a xlink:href="classAP__MotorsSingle_a4696c17b47fab66b0e0a844493cb80c9_cgraph_org.svg" target="_base">
           <rect id="button" ry="5" rx="5" y="6" x="6" height="38" width="38"
                fill="#f2f5e9" fill-opacity="0.5" stroke="#606060" stroke-width="1.0"/>
           <path id="arrow"
             d="M 11.500037,31.436501 C 11.940474,20.09759 22.043105,11.32322 32.158766,21.979434 L 37.068811,17.246167 C 37.068811,17.246167 37.088388,32 37.088388,32 L 22.160133,31.978069 C 22.160133,31.978069 26.997745,27.140456 26.997745,27.140456 C 18.528582,18.264221 13.291696,25.230495 11.500037,31.436501 z"
             style="fill:#404040;"/>
          </a>
         </g>
        </svg>
</svg>
