<?xml version="1.0" encoding="UTF-8" standalone="no"?>
<!DOCTYPE svg PUBLIC "-//W3C//DTD SVG 1.1//EN"
 "http://www.w3.org/Graphics/SVG/1.1/DTD/svg11.dtd">
<!-- Generated by graphviz version 2.30.1 (20130221.2233)
 -->
<!-- Title: AP_InertialSensor::BatchSampler::should_log Pages: 1 -->
<!--zoomable 142 -->
<svg id="main" version="1.1" xmlns="http://www.w3.org/2000/svg" xmlns:xlink="http://www.w3.org/1999/xlink" xml:space="preserve" onload="init(evt)">
<style type="text/css"><![CDATA[
.edge:hover path { stroke: red; }
.edge:hover polygon { stroke: red; fill: red; }
]]></style>
<script type="text/javascript"><![CDATA[
var edges = document.getElementsByTagName('g');
if (edges && edges.length) {
  for (var i=0;i<edges.length;i++) {
    if (edges[i].id.substr(0,4)=='edge') {
      edges[i].setAttribute('class','edge');
    }
  }
}
]]></script>
        <defs>
                <circle id="rim" cx="0" cy="0" r="7"/>
                <circle id="rim2" cx="0" cy="0" r="3.5"/>
                <g id="zoomPlus">
                        <use xlink:href="#rim" fill="#404040">
                                <set attributeName="fill" to="#808080" begin="zoomplus.mouseover" end="zoomplus.mouseout"/>
                        </use>
                        <path d="M-4,0h8M0,-4v8" fill="none" stroke="white" stroke-width="1.5" pointer-events="none"/>
                </g>
                <g id="zoomMin">
                        <use xlink:href="#rim" fill="#404040">
                                <set attributeName="fill" to="#808080" begin="zoomminus.mouseover" end="zoomminus.mouseout"/>
                        </use>
                        <path d="M-4,0h8" fill="none" stroke="white" stroke-width="1.5" pointer-events="none"/>
                </g>
                <g id="dirArrow">
                        <path fill="none" stroke="white" stroke-width="1.5" d="M0,-3.0v7 M-2.5,-0.5L0,-3.0L2.5,-0.5"/>
                </g>
               <g id="resetDef">
                       <use xlink:href="#rim2" fill="#404040">
                               <set attributeName="fill" to="#808080" begin="reset.mouseover" end="reset.mouseout"/>
                       </use>
               </g>
        </defs>

<script type="text/javascript">
var viewWidth = 750;
var viewHeight = 142;
var sectionId = 'dynsection-11';
</script>
<script xlink:href="svgpan.js"/>
<svg id="graph" class="graph">
<g id="viewport">
<title>AP_InertialSensor::BatchSampler::should_log</title>
<polygon fill="white" stroke="white" points="-4,5 -4,-138 747,-138 747,5 -4,5"/>
<!-- Node247 -->
<g id="node1" class="node"><title>Node247</title>
<g id="a_node1"><a xlink:title=" ">
<polygon fill="#bfbfbf" stroke="black" points="0.630859,-70 0.630859,-102 133.369,-102 133.369,-70 0.630859,-70"/>
<text text-anchor="start" x="8.63086" y="-88" font-family="Helvetica,sans-Serif" font-size="10.00">AP_InertialSensor::</text>
<text text-anchor="middle" x="67" y="-76" font-family="Helvetica,sans-Serif" font-size="10.00">BatchSampler::should_log</text>
</a>
</g>
</g>
<!-- Node248 -->
<g id="node2" class="node"><title>Node248</title>
<g id="a_node2"><a xlink:href="classAP__Logger.html#a7dfeda4dc3df2edc8531110c9d7252dc" target="_top" xlink:title=" ">
<polygon fill="white" stroke="black" points="170.456,-96 170.456,-116 301.544,-116 301.544,-96 170.456,-96"/>
<text text-anchor="middle" x="236" y="-102" font-family="Helvetica,sans-Serif" font-size="10.00">AP_Logger::get_singleton</text>
</a>
</g>
</g>
<!-- Node247&#45;&gt;Node248 -->
<g id="edge1" class="edge"><title>Node247&#45;&gt;Node248</title>
<path fill="none" stroke="midnightblue" d="M133.524,-93.8471C142.287,-94.8967 151.328,-95.9795 160.236,-97.0462"/>
<polygon fill="midnightblue" stroke="midnightblue" points="159.868,-100.527 170.213,-98.2411 160.7,-93.5767 159.868,-100.527"/>
</g>
<!-- Node249 -->
<g id="node3" class="node"><title>Node249</title>
<g id="a_node3"><a xlink:href="classAP__Logger.html#a8bed25359bc401b7d00def25bd8173b9" target="_top" xlink:title=" ">
<polygon fill="white" stroke="black" points="176.015,-57 176.015,-77 295.985,-77 295.985,-57 176.015,-57"/>
<text text-anchor="middle" x="236" y="-63" font-family="Helvetica,sans-Serif" font-size="10.00">AP_Logger::should_log</text>
</a>
</g>
</g>
<!-- Node247&#45;&gt;Node249 -->
<g id="edge2" class="edge"><title>Node247&#45;&gt;Node249</title>
<path fill="none" stroke="midnightblue" d="M133.524,-78.5452C144.118,-77.3398 155.119,-76.0883 165.798,-74.8733"/>
<polygon fill="midnightblue" stroke="midnightblue" points="166.373,-78.3305 175.914,-73.7224 165.582,-71.3754 166.373,-78.3305"/>
</g>
<!-- Node250 -->
<g id="node4" class="node"><title>Node250</title>
<g id="a_node4"><a xlink:href="classAP__Logger.html#ae4fe1337d154fa1508237f006d9f0a82" target="_top" xlink:title=" ">
<polygon fill="white" stroke="black" points="360.638,-102 360.638,-134 463.362,-134 463.362,-102 360.638,-102"/>
<text text-anchor="start" x="368.638" y="-120" font-family="Helvetica,sans-Serif" font-size="10.00">AP_Logger::vehicle</text>
<text text-anchor="middle" x="412" y="-108" font-family="Helvetica,sans-Serif" font-size="10.00">_is_armed</text>
</a>
</g>
</g>
<!-- Node249&#45;&gt;Node250 -->
<g id="edge3" class="edge"><title>Node249&#45;&gt;Node250</title>
<path fill="none" stroke="midnightblue" d="M271.377,-77.076C294.046,-83.7205 324.351,-92.603 350.934,-100.395"/>
<polygon fill="midnightblue" stroke="midnightblue" points="349.958,-103.756 360.539,-103.21 351.927,-97.0381 349.958,-103.756"/>
</g>
<!-- Node251 -->
<g id="node5" class="node"><title>Node251</title>
<g id="a_node5"><a xlink:href="classAP__Logger.html#af5b52fbea289c0b3267417f7ba3b619f" target="_top" xlink:title=" ">
<polygon fill="white" stroke="black" points="355.355,-51 355.355,-83 468.645,-83 468.645,-51 355.355,-51"/>
<text text-anchor="start" x="363.355" y="-69" font-family="Helvetica,sans-Serif" font-size="10.00">AP_Logger::log_while</text>
<text text-anchor="middle" x="412" y="-57" font-family="Helvetica,sans-Serif" font-size="10.00">_disarmed</text>
</a>
</g>
</g>
<!-- Node249&#45;&gt;Node251 -->
<g id="edge4" class="edge"><title>Node249&#45;&gt;Node251</title>
<path fill="none" stroke="midnightblue" d="M296.394,-67C311.981,-67 328.886,-67 344.805,-67"/>
<polygon fill="midnightblue" stroke="midnightblue" points="345.099,-70.5001 355.099,-67 345.099,-63.5001 345.099,-70.5001"/>
</g>
<!-- Node256 -->
<g id="node10" class="node"><title>Node256</title>
<g id="a_node10"><a xlink:href="classAP__Logger.html#a3af6ee4664cc4b54ad6990a7eed7f766" target="_top" xlink:title=" ">
<polygon fill="white" stroke="black" points="338.67,-12 338.67,-32 485.33,-32 485.33,-12 338.67,-12"/>
<text text-anchor="middle" x="412" y="-18" font-family="Helvetica,sans-Serif" font-size="10.00">AP_Logger::in_log_download</text>
</a>
</g>
</g>
<!-- Node249&#45;&gt;Node256 -->
<g id="edge9" class="edge"><title>Node249&#45;&gt;Node256</title>
<path fill="none" stroke="midnightblue" d="M276.049,-56.9011C301.571,-50.3006 335.1,-41.6294 362.352,-34.5815"/>
<polygon fill="midnightblue" stroke="midnightblue" points="363.276,-37.9576 372.081,-32.0652 361.523,-31.1806 363.276,-37.9576"/>
</g>
<!-- Node252 -->
<g id="node6" class="node"><title>Node252</title>
<g id="a_node6"><a xlink:href="namespaceAP__HAL.html#a77dffbb18891996280308e21316ec186" target="_top" xlink:title=" ">
<polygon fill="white" stroke="black" points="538.936,-102 538.936,-122 621.064,-122 621.064,-102 538.936,-102"/>
<text text-anchor="middle" x="580" y="-108" font-family="Helvetica,sans-Serif" font-size="10.00">AP_HAL::millis</text>
</a>
</g>
</g>
<!-- Node251&#45;&gt;Node252 -->
<g id="edge5" class="edge"><title>Node251&#45;&gt;Node252</title>
<path fill="none" stroke="midnightblue" d="M468.737,-82.1095C489.365,-87.7013 512.519,-93.9781 532.265,-99.3309"/>
<polygon fill="midnightblue" stroke="midnightblue" points="531.386,-102.719 541.953,-101.957 533.217,-95.9626 531.386,-102.719"/>
</g>
<!-- Node254 -->
<g id="node8" class="node"><title>Node254</title>
<g id="a_node8"><a xlink:href="classAP__HAL_1_1Util.html#a0321a03bc467b55d887de4587750b599" target="_top" xlink:title=" ">
<polygon fill="white" stroke="black" points="522.532,-51 522.532,-83 637.468,-83 637.468,-51 522.532,-51"/>
<text text-anchor="start" x="530.532" y="-69" font-family="Helvetica,sans-Serif" font-size="10.00">AP_HAL::Util::get_last</text>
<text text-anchor="middle" x="580" y="-57" font-family="Helvetica,sans-Serif" font-size="10.00">_armed_change</text>
</a>
</g>
</g>
<!-- Node251&#45;&gt;Node254 -->
<g id="edge7" class="edge"><title>Node251&#45;&gt;Node254</title>
<path fill="none" stroke="midnightblue" d="M468.737,-67C482.607,-67 497.62,-67 511.971,-67"/>
<polygon fill="midnightblue" stroke="midnightblue" points="512.278,-70.5001 522.278,-67 512.278,-63.5001 512.278,-70.5001"/>
</g>
<!-- Node255 -->
<g id="node9" class="node"><title>Node255</title>
<g id="a_node9"><a xlink:href="classAP__HAL_1_1Util.html#a287a2b82fa30b92c8d52aad61d4d27b7" target="_top" xlink:title=" ">
<polygon fill="white" stroke="black" points="522.254,-0 522.254,-32 637.746,-32 637.746,-0 522.254,-0"/>
<text text-anchor="start" x="530.254" y="-18" font-family="Helvetica,sans-Serif" font-size="10.00">AP_HAL::Util::get_soft</text>
<text text-anchor="middle" x="580" y="-6" font-family="Helvetica,sans-Serif" font-size="10.00">_armed</text>
</a>
</g>
</g>
<!-- Node251&#45;&gt;Node255 -->
<g id="edge8" class="edge"><title>Node251&#45;&gt;Node255</title>
<path fill="none" stroke="midnightblue" d="M465.523,-50.8633C481.88,-45.838 500.071,-40.2493 517.012,-35.0446"/>
<polygon fill="midnightblue" stroke="midnightblue" points="518.287,-38.3143 526.818,-32.0317 516.231,-31.623 518.287,-38.3143"/>
</g>
<!-- Node253 -->
<g id="node7" class="node"><title>Node253</title>
<g id="a_node7"><a xlink:href="hrt_8c.html#a1295f128f60d29874243b5733c4db025" target="_top" xlink:title=" ">
<polygon fill="white" stroke="black" points="674.714,-102 674.714,-122 741.286,-122 741.286,-102 674.714,-102"/>
<text text-anchor="middle" x="708" y="-108" font-family="Helvetica,sans-Serif" font-size="10.00">hrt_millis32</text>
</a>
</g>
</g>
<!-- Node252&#45;&gt;Node253 -->
<g id="edge6" class="edge"><title>Node252&#45;&gt;Node253</title>
<path fill="none" stroke="midnightblue" d="M621.214,-112C634.873,-112 650.184,-112 664.048,-112"/>
<polygon fill="midnightblue" stroke="midnightblue" points="664.318,-115.5 674.318,-112 664.317,-108.5 664.318,-115.5"/>
</g>
</g>
</svg>
        <g id="navigator" transform="translate(0 0)" fill="#404254">
                <rect fill="#f2f5e9" fill-opacity="0.5" stroke="#606060" stroke-width=".5" x="0" y="0" width="60" height="60"/>
                <use id="zoomplus" xlink:href="#zoomPlus" x="17" y="9" onmousedown="handleZoom(evt,'in')"/>
                <use id="zoomminus" xlink:href="#zoomMin" x="42" y="9" onmousedown="handleZoom(evt,'out')"/>
                <use id="reset" xlink:href="#resetDef" x="30" y="36" onmousedown="handleReset()"/>
                <g id="arrowUp" xlink:href="#dirArrow" transform="translate(30 24)" onmousedown="handlePan(0,-1)">
                  <use xlink:href="#rim" fill="#404040">
                        <set attributeName="fill" to="#808080" begin="arrowUp.mouseover" end="arrowUp.mouseout"/>
                  </use>
                  <path fill="none" stroke="white" stroke-width="1.5" d="M0,-3.0v7 M-2.5,-0.5L0,-3.0L2.5,-0.5"/>
                </g>
                <g id="arrowRight" xlink:href="#dirArrow" transform="rotate(90) translate(36 -43)" onmousedown="handlePan(1,0)">
                  <use xlink:href="#rim" fill="#404040">
                        <set attributeName="fill" to="#808080" begin="arrowRight.mouseover" end="arrowRight.mouseout"/>
                  </use>
                  <path fill="none" stroke="white" stroke-width="1.5" d="M0,-3.0v7 M-2.5,-0.5L0,-3.0L2.5,-0.5"/>
                </g>
                <g id="arrowDown" xlink:href="#dirArrow" transform="rotate(180) translate(-30 -48)" onmousedown="handlePan(0,1)">
                  <use xlink:href="#rim" fill="#404040">
                        <set attributeName="fill" to="#808080" begin="arrowDown.mouseover" end="arrowDown.mouseout"/>
                  </use>
                  <path fill="none" stroke="white" stroke-width="1.5" d="M0,-3.0v7 M-2.5,-0.5L0,-3.0L2.5,-0.5"/>
                </g>
                <g id="arrowLeft" xlink:href="#dirArrow" transform="rotate(270) translate(-36 17)" onmousedown="handlePan(-1,0)">
                  <use xlink:href="#rim" fill="#404040">
                        <set attributeName="fill" to="#808080" begin="arrowLeft.mouseover" end="arrowLeft.mouseout"/>
                  </use>
                  <path fill="none" stroke="white" stroke-width="1.5" d="M0,-3.0v7 M-2.5,-0.5L0,-3.0L2.5,-0.5"/>
                </g>
        </g>
        <svg viewBox="0 0 15 15" width="100%" height="30px" preserveAspectRatio="xMaxYMin meet">
         <g id="arrow_out" transform="scale(0.3 0.3)">
          <a xlink:href="classAP__InertialSensor_1_1BatchSampler_aeee6f715b4e6fead914020ff4ef74c67_cgraph_org.svg" target="_base">
           <rect id="button" ry="5" rx="5" y="6" x="6" height="38" width="38"
                fill="#f2f5e9" fill-opacity="0.5" stroke="#606060" stroke-width="1.0"/>
           <path id="arrow"
             d="M 11.500037,31.436501 C 11.940474,20.09759 22.043105,11.32322 32.158766,21.979434 L 37.068811,17.246167 C 37.068811,17.246167 37.088388,32 37.088388,32 L 22.160133,31.978069 C 22.160133,31.978069 26.997745,27.140456 26.997745,27.140456 C 18.528582,18.264221 13.291696,25.230495 11.500037,31.436501 z"
             style="fill:#404040;"/>
          </a>
         </g>
        </svg>
</svg>
