<?xml version="1.0" encoding="UTF-8" standalone="no"?>
<!DOCTYPE svg PUBLIC "-//W3C//DTD SVG 1.1//EN"
 "http://www.w3.org/Graphics/SVG/1.1/DTD/svg11.dtd">
<!-- Generated by graphviz version 2.30.1 (20130221.2233)
 -->
<!-- Title: AP_AHRS_NavEKF::getEkfControlLimits Pages: 1 -->
<!--zoomable 142 -->
<svg id="main" version="1.1" xmlns="http://www.w3.org/2000/svg" xmlns:xlink="http://www.w3.org/1999/xlink" xml:space="preserve" onload="init(evt)">
<style type="text/css"><![CDATA[
.edge:hover path { stroke: red; }
.edge:hover polygon { stroke: red; fill: red; }
]]></style>
<script type="text/javascript"><![CDATA[
var edges = document.getElementsByTagName('g');
if (edges && edges.length) {
  for (var i=0;i<edges.length;i++) {
    if (edges[i].id.substr(0,4)=='edge') {
      edges[i].setAttribute('class','edge');
    }
  }
}
]]></script>
        <defs>
                <circle id="rim" cx="0" cy="0" r="7"/>
                <circle id="rim2" cx="0" cy="0" r="3.5"/>
                <g id="zoomPlus">
                        <use xlink:href="#rim" fill="#404040">
                                <set attributeName="fill" to="#808080" begin="zoomplus.mouseover" end="zoomplus.mouseout"/>
                        </use>
                        <path d="M-4,0h8M0,-4v8" fill="none" stroke="white" stroke-width="1.5" pointer-events="none"/>
                </g>
                <g id="zoomMin">
                        <use xlink:href="#rim" fill="#404040">
                                <set attributeName="fill" to="#808080" begin="zoomminus.mouseover" end="zoomminus.mouseout"/>
                        </use>
                        <path d="M-4,0h8" fill="none" stroke="white" stroke-width="1.5" pointer-events="none"/>
                </g>
                <g id="dirArrow">
                        <path fill="none" stroke="white" stroke-width="1.5" d="M0,-3.0v7 M-2.5,-0.5L0,-3.0L2.5,-0.5"/>
                </g>
               <g id="resetDef">
                       <use xlink:href="#rim2" fill="#404040">
                               <set attributeName="fill" to="#808080" begin="reset.mouseover" end="reset.mouseout"/>
                       </use>
               </g>
        </defs>

<script type="text/javascript">
var viewWidth = 628;
var viewHeight = 142;
var sectionId = 'dynsection-70';
</script>
<script xlink:href="svgpan.js"/>
<svg id="graph" class="graph">
<g id="viewport">
<title>AP_AHRS_NavEKF::getEkfControlLimits</title>
<polygon fill="white" stroke="white" points="-4,5 -4,-138 625,-138 625,5 -4,5"/>
<!-- Node2189 -->
<g id="node1" class="node"><title>Node2189</title>
<g id="a_node1"><a xlink:title=" ">
<polygon fill="#bfbfbf" stroke="black" points="0.189941,-51 0.189941,-83 171.81,-83 171.81,-51 0.189941,-51"/>
<text text-anchor="start" x="8.18994" y="-69" font-family="Helvetica,sans-Serif" font-size="10.00">AP_AHRS_NavEKF::getEkfControl</text>
<text text-anchor="middle" x="86" y="-57" font-family="Helvetica,sans-Serif" font-size="10.00">Limits</text>
</a>
</g>
</g>
<!-- Node2190 -->
<g id="node2" class="node"><title>Node2190</title>
<g id="a_node2"><a xlink:href="classAP__AHRS__NavEKF.html#a9f010f72e8cc321678118e78be8a264e" target="_top" xlink:title=" ">
<polygon fill="white" stroke="black" points="209.582,-102 209.582,-122 358.418,-122 358.418,-102 209.582,-102"/>
<text text-anchor="middle" x="284" y="-108" font-family="Helvetica,sans-Serif" font-size="10.00">AP_AHRS_NavEKF::ekf_type</text>
</a>
</g>
</g>
<!-- Node2189&#45;&gt;Node2190 -->
<g id="edge1" class="edge"><title>Node2189&#45;&gt;Node2190</title>
<path fill="none" stroke="midnightblue" d="M156.93,-83.0555C180.765,-88.5276 207.018,-94.5552 229.369,-99.6867"/>
<polygon fill="midnightblue" stroke="midnightblue" points="228.811,-103.15 239.341,-101.976 230.377,-96.3271 228.811,-103.15"/>
</g>
<!-- Node2192 -->
<g id="node4" class="node"><title>Node2192</title>
<g id="a_node4"><a xlink:href="classNavEKF2.html#a7d8a2056d3b8af9de62a76f6804111bf" target="_top" xlink:title=" ">
<polygon fill="white" stroke="black" points="208.476,-57 208.476,-77 359.524,-77 359.524,-57 208.476,-57"/>
<text text-anchor="middle" x="284" y="-63" font-family="Helvetica,sans-Serif" font-size="10.00">NavEKF2::getEkfControlLimits</text>
</a>
</g>
</g>
<!-- Node2189&#45;&gt;Node2192 -->
<g id="edge3" class="edge"><title>Node2189&#45;&gt;Node2192</title>
<path fill="none" stroke="midnightblue" d="M171.829,-67C180.529,-67 189.37,-67 198.072,-67"/>
<polygon fill="midnightblue" stroke="midnightblue" points="198.205,-70.5001 208.205,-67 198.205,-63.5001 198.205,-70.5001"/>
</g>
<!-- Node2195 -->
<g id="node7" class="node"><title>Node2195</title>
<g id="a_node7"><a xlink:href="classNavEKF3.html#a9ff516d8cf7091cd56ae86737ca404d6" target="_top" xlink:title=" ">
<polygon fill="white" stroke="black" points="208.476,-12 208.476,-32 359.524,-32 359.524,-12 208.476,-12"/>
<text text-anchor="middle" x="284" y="-18" font-family="Helvetica,sans-Serif" font-size="10.00">NavEKF3::getEkfControlLimits</text>
</a>
</g>
</g>
<!-- Node2189&#45;&gt;Node2195 -->
<g id="edge6" class="edge"><title>Node2189&#45;&gt;Node2195</title>
<path fill="none" stroke="midnightblue" d="M156.93,-50.9445C180.765,-45.4724 207.018,-39.4448 229.369,-34.3133"/>
<polygon fill="midnightblue" stroke="midnightblue" points="230.377,-37.6729 239.341,-32.0239 228.811,-30.8504 230.377,-37.6729"/>
</g>
<!-- Node2191 -->
<g id="node3" class="node"><title>Node2191</title>
<g id="a_node3"><a xlink:href="classAP__AHRS__NavEKF.html#a398575c9b9d19f35e2000fc0219a42ef" target="_top" xlink:title=" ">
<polygon fill="white" stroke="black" points="400.2,-102 400.2,-134 541.8,-134 541.8,-102 400.2,-102"/>
<text text-anchor="start" x="408.2" y="-120" font-family="Helvetica,sans-Serif" font-size="10.00">AP_AHRS_NavEKF::always</text>
<text text-anchor="middle" x="471" y="-108" font-family="Helvetica,sans-Serif" font-size="10.00">_use_EKF</text>
</a>
</g>
</g>
<!-- Node2190&#45;&gt;Node2191 -->
<g id="edge2" class="edge"><title>Node2190&#45;&gt;Node2191</title>
<path fill="none" stroke="midnightblue" d="M358.648,-114.389C368.851,-114.719 379.372,-115.061 389.688,-115.395"/>
<polygon fill="midnightblue" stroke="midnightblue" points="389.808,-118.901 399.916,-115.727 390.035,-111.905 389.808,-118.901"/>
</g>
<!-- Node2193 -->
<g id="node5" class="node"><title>Node2193</title>
<g id="a_node5"><a xlink:href="classNavEKF2__core.html#a0b61d2c7ad5a17fc0a7add8d6b8ef21a" target="_top" xlink:title=" ">
<polygon fill="white" stroke="black" points="396.025,-51 396.025,-83 545.975,-83 545.975,-51 396.025,-51"/>
<text text-anchor="start" x="404.025" y="-69" font-family="Helvetica,sans-Serif" font-size="10.00">NavEKF2_core::getEkfControl</text>
<text text-anchor="middle" x="471" y="-57" font-family="Helvetica,sans-Serif" font-size="10.00">Limits</text>
</a>
</g>
</g>
<!-- Node2192&#45;&gt;Node2193 -->
<g id="edge4" class="edge"><title>Node2192&#45;&gt;Node2193</title>
<path fill="none" stroke="midnightblue" d="M359.713,-67C368.291,-67 377.08,-67 385.771,-67"/>
<polygon fill="midnightblue" stroke="midnightblue" points="385.91,-70.5001 395.91,-67 385.91,-63.5001 385.91,-70.5001"/>
</g>
<!-- Node2194 -->
<g id="node6" class="node"><title>Node2194</title>
<g id="a_node6"><a xlink:href="AP__Math_8h.html#a5abc8871f1e7781a55afe9bf299f0a39" target="_top" xlink:title=" ">
<polygon fill="white" stroke="black" points="582.165,-31 582.165,-51 619.835,-51 619.835,-31 582.165,-31"/>
<text text-anchor="middle" x="601" y="-37" font-family="Helvetica,sans-Serif" font-size="10.00">MAX</text>
</a>
</g>
</g>
<!-- Node2193&#45;&gt;Node2194 -->
<g id="edge5" class="edge"><title>Node2193&#45;&gt;Node2194</title>
<path fill="none" stroke="midnightblue" d="M546.087,-51.951C555.21,-50.098 564.051,-48.302 571.846,-46.7188"/>
<polygon fill="midnightblue" stroke="midnightblue" points="572.651,-50.1268 581.754,-44.7062 571.258,-43.2669 572.651,-50.1268"/>
</g>
<!-- Node2196 -->
<g id="node8" class="node"><title>Node2196</title>
<g id="a_node8"><a xlink:href="classNavEKF3__core.html#a5a9f0e2cd73cf625c7015bf0dbb43393" target="_top" xlink:title=" ">
<polygon fill="white" stroke="black" points="396.025,-0 396.025,-32 545.975,-32 545.975,-0 396.025,-0"/>
<text text-anchor="start" x="404.025" y="-18" font-family="Helvetica,sans-Serif" font-size="10.00">NavEKF3_core::getEkfControl</text>
<text text-anchor="middle" x="471" y="-6" font-family="Helvetica,sans-Serif" font-size="10.00">Limits</text>
</a>
</g>
</g>
<!-- Node2195&#45;&gt;Node2196 -->
<g id="edge7" class="edge"><title>Node2195&#45;&gt;Node2196</title>
<path fill="none" stroke="midnightblue" d="M359.713,-19.5769C368.291,-19.2987 377.08,-19.0136 385.771,-18.7318"/>
<polygon fill="midnightblue" stroke="midnightblue" points="386.029,-22.2253 395.91,-18.4029 385.802,-15.229 386.029,-22.2253"/>
</g>
<!-- Node2196&#45;&gt;Node2194 -->
<g id="edge8" class="edge"><title>Node2196&#45;&gt;Node2194</title>
<path fill="none" stroke="midnightblue" d="M546.087,-30.4702C555.21,-32.2519 564.051,-33.9788 571.846,-35.5012"/>
<polygon fill="midnightblue" stroke="midnightblue" points="571.269,-38.9545 581.754,-37.4364 572.611,-32.0843 571.269,-38.9545"/>
</g>
</g>
</svg>
        <g id="navigator" transform="translate(0 0)" fill="#404254">
                <rect fill="#f2f5e9" fill-opacity="0.5" stroke="#606060" stroke-width=".5" x="0" y="0" width="60" height="60"/>
                <use id="zoomplus" xlink:href="#zoomPlus" x="17" y="9" onmousedown="handleZoom(evt,'in')"/>
                <use id="zoomminus" xlink:href="#zoomMin" x="42" y="9" onmousedown="handleZoom(evt,'out')"/>
                <use id="reset" xlink:href="#resetDef" x="30" y="36" onmousedown="handleReset()"/>
                <g id="arrowUp" xlink:href="#dirArrow" transform="translate(30 24)" onmousedown="handlePan(0,-1)">
                  <use xlink:href="#rim" fill="#404040">
                        <set attributeName="fill" to="#808080" begin="arrowUp.mouseover" end="arrowUp.mouseout"/>
                  </use>
                  <path fill="none" stroke="white" stroke-width="1.5" d="M0,-3.0v7 M-2.5,-0.5L0,-3.0L2.5,-0.5"/>
                </g>
                <g id="arrowRight" xlink:href="#dirArrow" transform="rotate(90) translate(36 -43)" onmousedown="handlePan(1,0)">
                  <use xlink:href="#rim" fill="#404040">
                        <set attributeName="fill" to="#808080" begin="arrowRight.mouseover" end="arrowRight.mouseout"/>
                  </use>
                  <path fill="none" stroke="white" stroke-width="1.5" d="M0,-3.0v7 M-2.5,-0.5L0,-3.0L2.5,-0.5"/>
                </g>
                <g id="arrowDown" xlink:href="#dirArrow" transform="rotate(180) translate(-30 -48)" onmousedown="handlePan(0,1)">
                  <use xlink:href="#rim" fill="#404040">
                        <set attributeName="fill" to="#808080" begin="arrowDown.mouseover" end="arrowDown.mouseout"/>
                  </use>
                  <path fill="none" stroke="white" stroke-width="1.5" d="M0,-3.0v7 M-2.5,-0.5L0,-3.0L2.5,-0.5"/>
                </g>
                <g id="arrowLeft" xlink:href="#dirArrow" transform="rotate(270) translate(-36 17)" onmousedown="handlePan(-1,0)">
                  <use xlink:href="#rim" fill="#404040">
                        <set attributeName="fill" to="#808080" begin="arrowLeft.mouseover" end="arrowLeft.mouseout"/>
                  </use>
                  <path fill="none" stroke="white" stroke-width="1.5" d="M0,-3.0v7 M-2.5,-0.5L0,-3.0L2.5,-0.5"/>
                </g>
        </g>
        <svg viewBox="0 0 15 15" width="100%" height="30px" preserveAspectRatio="xMaxYMin meet">
         <g id="arrow_out" transform="scale(0.3 0.3)">
          <a xlink:href="classAP__AHRS__NavEKF_ac5a65085554dbf46c0718752e9425945_cgraph_org.svg" target="_base">
           <rect id="button" ry="5" rx="5" y="6" x="6" height="38" width="38"
                fill="#f2f5e9" fill-opacity="0.5" stroke="#606060" stroke-width="1.0"/>
           <path id="arrow"
             d="M 11.500037,31.436501 C 11.940474,20.09759 22.043105,11.32322 32.158766,21.979434 L 37.068811,17.246167 C 37.068811,17.246167 37.088388,32 37.088388,32 L 22.160133,31.978069 C 22.160133,31.978069 26.997745,27.140456 26.997745,27.140456 C 18.528582,18.264221 13.291696,25.230495 11.500037,31.436501 z"
             style="fill:#404040;"/>
          </a>
         </g>
        </svg>
</svg>
