<?xml version="1.0" encoding="UTF-8" standalone="no"?>
<!DOCTYPE svg PUBLIC "-//W3C//DTD SVG 1.1//EN"
 "http://www.w3.org/Graphics/SVG/1.1/DTD/svg11.dtd">
<!-- Generated by graphviz version 2.30.1 (20130221.2233)
 -->
<!-- Title: AC_PosControl::set_max_speed_xy Pages: 1 -->
<svg width="442pt" height="196pt"
 viewBox="0.00 0.00 442.00 196.00" xmlns="http://www.w3.org/2000/svg" xmlns:xlink="http://www.w3.org/1999/xlink">
<g id="graph0" class="graph" transform="scale(1 1) rotate(0) translate(4 192)">
<title>AC_PosControl::set_max_speed_xy</title>
<polygon fill="white" stroke="white" points="-4,5 -4,-192 439,-192 439,5 -4,5"/>
<!-- Node665 -->
<g id="node1" class="node"><title>Node665</title>
<g id="a_node1"><a xlink:title="set_max_speed_xy &#45; set the maximum horizontal speed maximum in cm/s">
<polygon fill="#bfbfbf" stroke="black" points="330.091,-72 330.091,-104 433.909,-104 433.909,-72 330.091,-72"/>
<text text-anchor="start" x="338.091" y="-90" font-family="Helvetica,sans-Serif" font-size="10.00">AC_PosControl::set</text>
<text text-anchor="middle" x="382" y="-78" font-family="Helvetica,sans-Serif" font-size="10.00">_max_speed_xy</text>
</a>
</g>
</g>
<!-- Node666 -->
<g id="node2" class="node"><title>Node666</title>
<g id="a_node2"><a xlink:href="classAC__Loiter.html#a5a2f3d8bb29a6cf03ea900e24dae2b75" target="_top" xlink:title=" ">
<polygon fill="white" stroke="black" points="152.917,-156 152.917,-188 275.083,-188 275.083,-156 152.917,-156"/>
<text text-anchor="start" x="160.917" y="-174" font-family="Helvetica,sans-Serif" font-size="10.00">AC_Loiter::calc_desired</text>
<text text-anchor="middle" x="214" y="-162" font-family="Helvetica,sans-Serif" font-size="10.00">_velocity</text>
</a>
</g>
</g>
<!-- Node665&#45;&gt;Node666 -->
<g id="edge1" class="edge"><title>Node665&#45;&gt;Node666</title>
<path fill="none" stroke="midnightblue" d="M352.069,-110.167C335.684,-121.968 314.432,-136.055 294,-146 286.47,-149.665 278.297,-153.004 270.159,-155.976"/>
<polygon fill="midnightblue" stroke="midnightblue" points="354.164,-112.971 360.164,-104.239 350.028,-107.324 354.164,-112.971"/>
</g>
<!-- Node668 -->
<g id="node4" class="node"><title>Node668</title>
<g id="a_node4"><a xlink:href="classAC__Loiter.html#ac61cfb41e7da4ba41276d3e731d6ea85" target="_top" xlink:title="init_target to a position in cm from ekf origin">
<polygon fill="white" stroke="black" points="159.03,-117 159.03,-137 268.97,-137 268.97,-117 159.03,-117"/>
<text text-anchor="middle" x="214" y="-123" font-family="Helvetica,sans-Serif" font-size="10.00">AC_Loiter::init_target</text>
</a>
</g>
</g>
<!-- Node665&#45;&gt;Node668 -->
<g id="edge3" class="edge"><title>Node665&#45;&gt;Node668</title>
<path fill="none" stroke="midnightblue" d="M319.868,-102.362C299.184,-107.222 276.55,-112.54 257.62,-116.987"/>
<polygon fill="midnightblue" stroke="midnightblue" points="320.906,-105.714 329.84,-100.02 319.305,-98.8995 320.906,-105.714"/>
</g>
<!-- Node669 -->
<g id="node5" class="node"><title>Node669</title>
<g id="a_node5"><a xlink:href="classAC__WPNav.html#a0ff7209545f3c7169054b2ee79cd4216" target="_top" xlink:title="set current target horizontal speed during wp navigation">
<polygon fill="white" stroke="black" points="145.695,-78 145.695,-98 282.305,-98 282.305,-78 145.695,-78"/>
<text text-anchor="middle" x="214" y="-84" font-family="Helvetica,sans-Serif" font-size="10.00">AC_WPNav::set_speed_xy</text>
</a>
</g>
</g>
<!-- Node665&#45;&gt;Node669 -->
<g id="edge4" class="edge"><title>Node665&#45;&gt;Node669</title>
<path fill="none" stroke="midnightblue" d="M319.817,-88C307.666,-88 294.844,-88 282.497,-88"/>
<polygon fill="midnightblue" stroke="midnightblue" points="319.84,-91.5001 329.84,-88 319.84,-84.5001 319.84,-91.5001"/>
</g>
<!-- Node667 -->
<g id="node3" class="node"><title>Node667</title>
<g id="a_node3"><a xlink:href="classAC__Loiter.html#ad73abbc1c7fcefbb9d18bac3b1fe4444" target="_top" xlink:title="run the loiter controller">
<polygon fill="white" stroke="black" points="0.694824,-100 0.694824,-120 97.3052,-120 97.3052,-100 0.694824,-100"/>
<text text-anchor="middle" x="49" y="-106" font-family="Helvetica,sans-Serif" font-size="10.00">AC_Loiter::update</text>
</a>
</g>
</g>
<!-- Node665&#45;&gt;Node667 -->
<g id="edge5" class="edge"><title>Node665&#45;&gt;Node667</title>
<path fill="none" stroke="midnightblue" d="M319.614,-73.1147C269.163,-63.2943 196.138,-54.6446 134,-69 108.386,-74.9175 81.5515,-89.7642 65.2987,-99.8694"/>
<polygon fill="midnightblue" stroke="midnightblue" points="319.214,-76.6045 329.709,-75.154 320.6,-69.7431 319.214,-76.6045"/>
</g>
<!-- Node670 -->
<g id="node6" class="node"><title>Node670</title>
<g id="a_node6"><a xlink:href="classAC__WPNav.html#a47964df8ebcc78bb101f328a23187e65" target="_top" xlink:title=" ">
<polygon fill="white" stroke="black" points="134.018,-0 134.018,-20 293.982,-20 293.982,-0 134.018,-0"/>
<text text-anchor="middle" x="214" y="-6" font-family="Helvetica,sans-Serif" font-size="10.00">AC_WPNav::wp_and_spline_init</text>
</a>
</g>
</g>
<!-- Node665&#45;&gt;Node670 -->
<g id="edge6" class="edge"><title>Node665&#45;&gt;Node670</title>
<path fill="none" stroke="midnightblue" d="M349.367,-66.1873C333.294,-55.7713 313.153,-43.7105 294,-35 281.036,-29.1042 266.284,-24.0297 253.066,-20.0229"/>
<polygon fill="midnightblue" stroke="midnightblue" points="347.57,-69.1947 357.847,-71.773 351.421,-63.349 347.57,-69.1947"/>
</g>
<!-- Node666&#45;&gt;Node667 -->
<g id="edge2" class="edge"><title>Node666&#45;&gt;Node667</title>
<path fill="none" stroke="midnightblue" d="M152.132,-152.56C145.982,-150.419 139.85,-148.211 134,-146 112.629,-137.921 88.722,-127.54 71.8942,-120.004"/>
<polygon fill="midnightblue" stroke="midnightblue" points="151.181,-155.934 161.776,-155.862 153.449,-149.311 151.181,-155.934"/>
</g>
</g>
</svg>
