<?xml version="1.0" encoding="UTF-8" standalone="no"?>
<!DOCTYPE svg PUBLIC "-//W3C//DTD SVG 1.1//EN"
 "http://www.w3.org/Graphics/SVG/1.1/DTD/svg11.dtd">
<!-- Generated by graphviz version 2.30.1 (20130221.2233)
 -->
<!-- Title: DiscreteRGBLed::hw_set_rgb Pages: 1 -->
<svg width="274pt" height="40pt"
 viewBox="0.00 0.00 274.00 40.00" xmlns="http://www.w3.org/2000/svg" xmlns:xlink="http://www.w3.org/1999/xlink">
<g id="graph0" class="graph" transform="scale(1 1) rotate(0) translate(4 36)">
<title>DiscreteRGBLed::hw_set_rgb</title>
<polygon fill="white" stroke="white" points="-4,5 -4,-36 271,-36 271,5 -4,5"/>
<!-- Node7 -->
<g id="node1" class="node"><title>Node7</title>
<g id="a_node1"><a xlink:title=" ">
<polygon fill="#bfbfbf" stroke="black" points="0.31543,-0 0.31543,-32 109.685,-32 109.685,-0 0.31543,-0"/>
<text text-anchor="start" x="8.31543" y="-18" font-family="Helvetica,sans-Serif" font-size="10.00">DiscreteRGBLed::hw</text>
<text text-anchor="middle" x="55" y="-6" font-family="Helvetica,sans-Serif" font-size="10.00">_set_rgb</text>
</a>
</g>
</g>
<!-- Node8 -->
<g id="node2" class="node"><title>Node8</title>
<g id="a_node2"><a xlink:href="classAP__HAL_1_1DigitalSource.html#a43392c05a7dae030a78dd1c4800bf5fe" target="_top" xlink:title=" ">
<polygon fill="white" stroke="black" points="146.308,-0 146.308,-32 265.692,-32 265.692,-0 146.308,-0"/>
<text text-anchor="start" x="154.308" y="-18" font-family="Helvetica,sans-Serif" font-size="10.00">AP_HAL::DigitalSource</text>
<text text-anchor="middle" x="206" y="-6" font-family="Helvetica,sans-Serif" font-size="10.00">::write</text>
</a>
</g>
</g>
<!-- Node7&#45;&gt;Node8 -->
<g id="edge1" class="edge"><title>Node7&#45;&gt;Node8</title>
<path fill="none" stroke="midnightblue" d="M109.792,-16C118.3,-16 127.199,-16 135.996,-16"/>
<polygon fill="midnightblue" stroke="midnightblue" points="136.245,-19.5001 146.245,-16 136.245,-12.5001 136.245,-19.5001"/>
</g>
</g>
</svg>
