<?xml version="1.0" encoding="UTF-8" standalone="no"?>
<!DOCTYPE svg PUBLIC "-//W3C//DTD SVG 1.1//EN"
 "http://www.w3.org/Graphics/SVG/1.1/DTD/svg11.dtd">
<!-- Generated by graphviz version 2.30.1 (20130221.2233)
 -->
<!-- Title: NavEKF2_core::resetGyroBias Pages: 1 -->
<svg width="496pt" height="40pt"
 viewBox="0.00 0.00 496.00 40.00" xmlns="http://www.w3.org/2000/svg" xmlns:xlink="http://www.w3.org/1999/xlink">
<g id="graph0" class="graph" transform="scale(1 1) rotate(0) translate(4 36)">
<title>NavEKF2_core::resetGyroBias</title>
<polygon fill="white" stroke="white" points="-4,5 -4,-36 493,-36 493,5 -4,5"/>
<!-- Node3115 -->
<g id="node1" class="node"><title>Node3115</title>
<g id="a_node1"><a xlink:title=" ">
<polygon fill="#bfbfbf" stroke="black" points="334.641,-6 334.641,-26 487.359,-26 487.359,-6 334.641,-6"/>
<text text-anchor="middle" x="411" y="-12" font-family="Helvetica,sans-Serif" font-size="10.00">NavEKF2_core::resetGyroBias</text>
</a>
</g>
</g>
<!-- Node3116 -->
<g id="node2" class="node"><title>Node3116</title>
<g id="a_node2"><a xlink:href="classNavEKF2.html#a29af93a8cbadcc09cadb11b36d22086e" target="_top" xlink:title=" ">
<polygon fill="white" stroke="black" points="170.148,-6 170.148,-26 297.852,-26 297.852,-6 170.148,-6"/>
<text text-anchor="middle" x="234" y="-12" font-family="Helvetica,sans-Serif" font-size="10.00">NavEKF2::resetGyroBias</text>
</a>
</g>
</g>
<!-- Node3115&#45;&gt;Node3116 -->
<g id="edge1" class="edge"><title>Node3115&#45;&gt;Node3116</title>
<path fill="none" stroke="midnightblue" d="M324.446,-16C315.501,-16 306.528,-16 297.903,-16"/>
<polygon fill="midnightblue" stroke="midnightblue" points="324.515,-19.5001 334.514,-16 324.514,-12.5001 324.515,-19.5001"/>
</g>
<!-- Node3117 -->
<g id="node3" class="node"><title>Node3117</title>
<g id="a_node3"><a xlink:href="classAP__AHRS__NavEKF.html#a35a5899de79b7f3dec781e1338ff58a8" target="_top" xlink:title=" ">
<polygon fill="white" stroke="black" points="0.367188,-0 0.367188,-32 133.633,-32 133.633,-0 0.367188,-0"/>
<text text-anchor="start" x="8.36719" y="-18" font-family="Helvetica,sans-Serif" font-size="10.00">AP_AHRS_NavEKF::reset</text>
<text text-anchor="middle" x="67" y="-6" font-family="Helvetica,sans-Serif" font-size="10.00">_gyro_drift</text>
</a>
</g>
</g>
<!-- Node3116&#45;&gt;Node3117 -->
<g id="edge2" class="edge"><title>Node3116&#45;&gt;Node3117</title>
<path fill="none" stroke="midnightblue" d="M159.4,-16C150.901,-16 142.274,-16 133.887,-16"/>
<polygon fill="midnightblue" stroke="midnightblue" points="159.679,-19.5001 169.679,-16 159.679,-12.5001 159.679,-19.5001"/>
</g>
</g>
</svg>
