<?xml version="1.0" encoding="UTF-8" standalone="no"?>
<!DOCTYPE svg PUBLIC "-//W3C//DTD SVG 1.1//EN"
 "http://www.w3.org/Graphics/SVG/1.1/DTD/svg11.dtd">
<!-- Generated by graphviz version 2.30.1 (20130221.2233)
 -->
<!-- Title: AP_MotorsTailsitter::init Pages: 1 -->
<svg width="1002pt" height="304pt"
 viewBox="0.00 0.00 1002.00 304.00" xmlns="http://www.w3.org/2000/svg" xmlns:xlink="http://www.w3.org/1999/xlink">
<g id="graph0" class="graph" transform="scale(1 1) rotate(0) translate(4 300)">
<title>AP_MotorsTailsitter::init</title>
<polygon fill="white" stroke="white" points="-4,5 -4,-300 999,-300 999,5 -4,5"/>
<!-- Node18 -->
<g id="node1" class="node"><title>Node18</title>
<g id="a_node1"><a xlink:title=" ">
<polygon fill="#bfbfbf" stroke="black" points="-0.0688477,-214 -0.0688477,-246 102.069,-246 102.069,-214 -0.0688477,-214"/>
<text text-anchor="start" x="7.93115" y="-232" font-family="Helvetica,sans-Serif" font-size="10.00">AP_MotorsTailsitter</text>
<text text-anchor="middle" x="51" y="-220" font-family="Helvetica,sans-Serif" font-size="10.00">::init</text>
</a>
</g>
</g>
<!-- Node19 -->
<g id="node2" class="node"><title>Node19</title>
<g id="a_node2"><a xlink:href="classSRV__Channels.html#a97577ca02c12e3b851cd5d563d32b640" target="_top" xlink:title=" ">
<polygon fill="white" stroke="black" points="142.61,-141 142.61,-173 267.39,-173 267.39,-141 142.61,-141"/>
<text text-anchor="start" x="150.61" y="-159" font-family="Helvetica,sans-Serif" font-size="10.00">SRV_Channels::set_aux</text>
<text text-anchor="middle" x="205" y="-147" font-family="Helvetica,sans-Serif" font-size="10.00">_channel_default</text>
</a>
</g>
</g>
<!-- Node18&#45;&gt;Node19 -->
<g id="edge1" class="edge"><title>Node18&#45;&gt;Node19</title>
<path fill="none" stroke="midnightblue" d="M85.357,-213.98C107.653,-203.272 137.189,-189.087 161.213,-177.549"/>
<polygon fill="midnightblue" stroke="midnightblue" points="162.959,-180.593 170.458,-173.109 159.929,-174.283 162.959,-180.593"/>
</g>
<!-- Node36 -->
<g id="node19" class="node"><title>Node36</title>
<g id="a_node19"><a xlink:href="classSRV__Channels.html#aa8ce392569ac9b773e5edd27bd3c6650" target="_top" xlink:title=" ">
<polygon fill="white" stroke="black" points="152.061,-214 152.061,-246 257.939,-246 257.939,-214 152.061,-214"/>
<text text-anchor="start" x="160.061" y="-232" font-family="Helvetica,sans-Serif" font-size="10.00">SRV_Channels::find</text>
<text text-anchor="middle" x="205" y="-220" font-family="Helvetica,sans-Serif" font-size="10.00">_channel</text>
</a>
</g>
</g>
<!-- Node18&#45;&gt;Node36 -->
<g id="edge22" class="edge"><title>Node18&#45;&gt;Node36</title>
<path fill="none" stroke="midnightblue" d="M102.192,-230C114.815,-230 128.516,-230 141.654,-230"/>
<polygon fill="midnightblue" stroke="midnightblue" points="142.038,-233.5 152.038,-230 142.038,-226.5 142.038,-233.5"/>
</g>
<!-- Node37 -->
<g id="node20" class="node"><title>Node37</title>
<g id="a_node20"><a xlink:href="classSRV__Channels.html#a7522c0412b2174273d656caec3c55317" target="_top" xlink:title=" ">
<polygon fill="white" stroke="black" points="138.438,-276 138.438,-296 271.562,-296 271.562,-276 138.438,-276"/>
<text text-anchor="middle" x="205" y="-282" font-family="Helvetica,sans-Serif" font-size="10.00">SRV_Channels::set_angle</text>
</a>
</g>
</g>
<!-- Node18&#45;&gt;Node37 -->
<g id="edge25" class="edge"><title>Node18&#45;&gt;Node37</title>
<path fill="none" stroke="midnightblue" d="M95.5571,-246.047C118.227,-254.4 145.639,-264.499 167.231,-272.453"/>
<polygon fill="midnightblue" stroke="midnightblue" points="166.11,-275.77 176.703,-275.943 168.53,-269.202 166.11,-275.77"/>
</g>
<!-- Node20 -->
<g id="node3" class="node"><title>Node20</title>
<g id="a_node3"><a xlink:href="classSRV__Channels.html#a2bce803f8a1de705be47d8cf7a46584c" target="_top" xlink:title="setup the output range types of all functions">
<polygon fill="white" stroke="black" points="310.83,-180 310.83,-212 431.17,-212 431.17,-180 310.83,-180"/>
<text text-anchor="start" x="318.83" y="-198" font-family="Helvetica,sans-Serif" font-size="10.00">SRV_Channels::update</text>
<text text-anchor="middle" x="371" y="-186" font-family="Helvetica,sans-Serif" font-size="10.00">_aux_servo_function</text>
</a>
</g>
</g>
<!-- Node19&#45;&gt;Node20 -->
<g id="edge2" class="edge"><title>Node19&#45;&gt;Node20</title>
<path fill="none" stroke="midnightblue" d="M267.534,-171.633C278.32,-174.198 289.611,-176.883 300.593,-179.495"/>
<polygon fill="midnightblue" stroke="midnightblue" points="300.03,-182.958 310.569,-181.867 301.65,-176.148 300.03,-182.958"/>
</g>
<!-- Node26 -->
<g id="node9" class="node"><title>Node26</title>
<g id="a_node9"><a xlink:href="classSRV__Channels.html#a378e0022237c196e6107c9e79f340285" target="_top" xlink:title=" ">
<polygon fill="white" stroke="black" points="308.61,-231 308.61,-263 433.39,-263 433.39,-231 308.61,-231"/>
<text text-anchor="start" x="316.61" y="-249" font-family="Helvetica,sans-Serif" font-size="10.00">SRV_Channels::function</text>
<text text-anchor="middle" x="371" y="-237" font-family="Helvetica,sans-Serif" font-size="10.00">_assigned</text>
</a>
</g>
</g>
<!-- Node19&#45;&gt;Node26 -->
<g id="edge8" class="edge"><title>Node19&#45;&gt;Node26</title>
<path fill="none" stroke="midnightblue" d="M229.261,-173.129C249.528,-186.805 279.981,-206.459 308,-221 311.73,-222.936 315.636,-224.841 319.597,-226.686"/>
<polygon fill="midnightblue" stroke="midnightblue" points="318.321,-229.951 328.876,-230.869 321.198,-223.569 318.321,-229.951"/>
</g>
<!-- Node28 -->
<g id="node11" class="node"><title>Node28</title>
<g id="a_node11"><a xlink:href="classAP__HAL_1_1BetterStream.html#a8534aa004599bb81ad60f3e762791032" target="_top" xlink:title=" ">
<polygon fill="white" stroke="black" points="311.589,-52 311.589,-84 430.411,-84 430.411,-52 311.589,-52"/>
<text text-anchor="start" x="319.589" y="-70" font-family="Helvetica,sans-Serif" font-size="10.00">AP_HAL::BetterStream</text>
<text text-anchor="middle" x="371" y="-58" font-family="Helvetica,sans-Serif" font-size="10.00">::printf</text>
</a>
</g>
</g>
<!-- Node19&#45;&gt;Node28 -->
<g id="edge10" class="edge"><title>Node19&#45;&gt;Node28</title>
<path fill="none" stroke="midnightblue" d="M233.485,-140.843C253.889,-128.978 282.482,-112.622 308,-99 314.423,-95.5713 321.273,-92.0318 327.989,-88.6254"/>
<polygon fill="midnightblue" stroke="midnightblue" points="329.652,-91.7067 337.012,-84.0857 326.506,-85.4536 329.652,-91.7067"/>
</g>
<!-- Node22 -->
<g id="node5" class="node"><title>Node22</title>
<g id="a_node5"><a xlink:href="classSRV__Channel.html#aadaab2dbeb62aa6f7b42eb39bf4f2430" target="_top" xlink:title=" ">
<polygon fill="white" stroke="black" points="470.554,-105 470.554,-137 601.446,-137 601.446,-105 470.554,-105"/>
<text text-anchor="start" x="478.554" y="-123" font-family="Helvetica,sans-Serif" font-size="10.00">SRV_Channel::aux_servo</text>
<text text-anchor="middle" x="536" y="-111" font-family="Helvetica,sans-Serif" font-size="10.00">_function_setup</text>
</a>
</g>
</g>
<!-- Node19&#45;&gt;Node22 -->
<g id="edge20" class="edge"><title>Node19&#45;&gt;Node22</title>
<path fill="none" stroke="midnightblue" d="M267.496,-150.271C322.062,-144.3 401.928,-135.561 460.183,-129.187"/>
<polygon fill="midnightblue" stroke="midnightblue" points="460.872,-132.632 470.432,-128.065 460.11,-125.674 460.872,-132.632"/>
</g>
<!-- Node25 -->
<g id="node8" class="node"><title>Node25</title>
<g id="a_node8"><a xlink:href="classBitmask.html#a6d942e61abc55c452b001b11dadf8a18" target="_top" xlink:title=" ">
<polygon fill="white" stroke="black" points="500.771,-156 500.771,-176 571.229,-176 571.229,-156 500.771,-156"/>
<text text-anchor="middle" x="536" y="-162" font-family="Helvetica,sans-Serif" font-size="10.00">Bitmask::set</text>
</a>
</g>
</g>
<!-- Node19&#45;&gt;Node25 -->
<g id="edge21" class="edge"><title>Node19&#45;&gt;Node25</title>
<path fill="none" stroke="midnightblue" d="M267.496,-158.682C332.279,-160.454 432.724,-163.202 490.326,-164.778"/>
<polygon fill="midnightblue" stroke="midnightblue" points="490.472,-168.283 500.564,-165.058 490.664,-161.286 490.472,-168.283"/>
</g>
<!-- Node21 -->
<g id="node4" class="node"><title>Node21</title>
<g id="a_node4"><a xlink:href="classBitmask.html#ab753bfb6058f8a60e523c949802f3823" target="_top" xlink:title=" ">
<polygon fill="white" stroke="black" points="491.601,-195 491.601,-215 580.399,-215 580.399,-195 491.601,-195"/>
<text text-anchor="middle" x="536" y="-201" font-family="Helvetica,sans-Serif" font-size="10.00">Bitmask::clearall</text>
</a>
</g>
</g>
<!-- Node20&#45;&gt;Node21 -->
<g id="edge3" class="edge"><title>Node20&#45;&gt;Node21</title>
<path fill="none" stroke="midnightblue" d="M431.308,-199.275C447.661,-200.178 465.304,-201.152 481.319,-202.036"/>
<polygon fill="midnightblue" stroke="midnightblue" points="481.4,-205.546 491.577,-202.602 481.786,-198.556 481.4,-205.546"/>
</g>
<!-- Node20&#45;&gt;Node22 -->
<g id="edge4" class="edge"><title>Node20&#45;&gt;Node22</title>
<path fill="none" stroke="midnightblue" d="M401.631,-179.859C420.869,-169.635 446.624,-156.424 470,-146 473.851,-144.283 477.859,-142.569 481.91,-140.891"/>
<polygon fill="midnightblue" stroke="midnightblue" points="483.432,-144.05 491.386,-137.051 480.804,-137.563 483.432,-144.05"/>
</g>
<!-- Node20&#45;&gt;Node25 -->
<g id="edge7" class="edge"><title>Node20&#45;&gt;Node25</title>
<path fill="none" stroke="midnightblue" d="M431.308,-185.084C450.879,-181.482 472.297,-177.54 490.561,-174.179"/>
<polygon fill="midnightblue" stroke="midnightblue" points="491.43,-177.578 500.631,-172.326 490.163,-170.694 491.43,-177.578"/>
</g>
<!-- Node23 -->
<g id="node6" class="node"><title>Node23</title>
<g id="a_node6"><a xlink:href="classSRV__Channel.html#a04f5baeec785c9f696798fa4a6c7d6ce" target="_top" xlink:title=" ">
<polygon fill="white" stroke="black" points="638.384,-111 638.384,-131 767.616,-131 767.616,-111 638.384,-111"/>
<text text-anchor="middle" x="703" y="-117" font-family="Helvetica,sans-Serif" font-size="10.00">SRV_Channel::set_range</text>
</a>
</g>
</g>
<!-- Node22&#45;&gt;Node23 -->
<g id="edge5" class="edge"><title>Node22&#45;&gt;Node23</title>
<path fill="none" stroke="midnightblue" d="M601.739,-121C610.369,-121 619.272,-121 628.045,-121"/>
<polygon fill="midnightblue" stroke="midnightblue" points="628.259,-124.5 638.259,-121 628.259,-117.5 628.259,-124.5"/>
</g>
<!-- Node24 -->
<g id="node7" class="node"><title>Node24</title>
<g id="a_node7"><a xlink:href="classSRV__Channel.html#aaf3193d70a486747bfbc9c6398cff261" target="_top" xlink:title=" ">
<polygon fill="white" stroke="black" points="638.938,-217 638.938,-237 767.062,-237 767.062,-217 638.938,-217"/>
<text text-anchor="middle" x="703" y="-223" font-family="Helvetica,sans-Serif" font-size="10.00">SRV_Channel::set_angle</text>
</a>
</g>
</g>
<!-- Node22&#45;&gt;Node24 -->
<g id="edge6" class="edge"><title>Node22&#45;&gt;Node24</title>
<path fill="none" stroke="midnightblue" d="M583.985,-137.03C590.187,-139.732 596.347,-142.733 602,-146 633.483,-164.193 665.353,-191.992 684.393,-209.829"/>
<polygon fill="midnightblue" stroke="midnightblue" points="682.071,-212.451 691.729,-216.807 686.895,-207.379 682.071,-212.451"/>
</g>
<!-- Node27 -->
<g id="node10" class="node"><title>Node27</title>
<g id="a_node10"><a xlink:href="classBitmask.html#a0be34bb49dbf06972c4a16c0b12cd846" target="_top" xlink:title=" ">
<polygon fill="white" stroke="black" points="500.49,-237 500.49,-257 571.51,-257 571.51,-237 500.49,-237"/>
<text text-anchor="middle" x="536" y="-243" font-family="Helvetica,sans-Serif" font-size="10.00">Bitmask::get</text>
</a>
</g>
</g>
<!-- Node26&#45;&gt;Node27 -->
<g id="edge9" class="edge"><title>Node26&#45;&gt;Node27</title>
<path fill="none" stroke="midnightblue" d="M433.623,-247C452.288,-247 472.434,-247 489.811,-247"/>
<polygon fill="midnightblue" stroke="midnightblue" points="490.235,-250.5 500.235,-247 490.235,-243.5 490.235,-250.5"/>
</g>
<!-- Node29 -->
<g id="node12" class="node"><title>Node29</title>
<g id="a_node12"><a xlink:href="classAP__HAL_1_1BetterStream.html#aa730be451d385d7ba03ee9677e6d91a2" target="_top" xlink:title=" ">
<polygon fill="white" stroke="black" points="476.589,-52 476.589,-84 595.411,-84 595.411,-52 476.589,-52"/>
<text text-anchor="start" x="484.589" y="-70" font-family="Helvetica,sans-Serif" font-size="10.00">AP_HAL::BetterStream</text>
<text text-anchor="middle" x="536" y="-58" font-family="Helvetica,sans-Serif" font-size="10.00">::vprintf</text>
</a>
</g>
</g>
<!-- Node28&#45;&gt;Node29 -->
<g id="edge11" class="edge"><title>Node28&#45;&gt;Node29</title>
<path fill="none" stroke="midnightblue" d="M430.847,-68C442.343,-68 454.493,-68 466.277,-68"/>
<polygon fill="midnightblue" stroke="midnightblue" points="466.513,-71.5001 476.513,-68 466.513,-64.5001 466.513,-71.5001"/>
</g>
<!-- Node30 -->
<g id="node13" class="node"><title>Node30</title>
<g id="a_node13"><a xlink:href="print__vprintf_8cpp.html#a98e0d5bb436a207f576379beaa786040" target="_top" xlink:title=" ">
<polygon fill="white" stroke="black" points="668.877,-58 668.877,-78 737.123,-78 737.123,-58 668.877,-58"/>
<text text-anchor="middle" x="703" y="-64" font-family="Helvetica,sans-Serif" font-size="10.00">print_vprintf</text>
</a>
</g>
</g>
<!-- Node29&#45;&gt;Node30 -->
<g id="edge12" class="edge"><title>Node29&#45;&gt;Node30</title>
<path fill="none" stroke="midnightblue" d="M595.637,-68C616.27,-68 639.082,-68 658.272,-68"/>
<polygon fill="midnightblue" stroke="midnightblue" points="658.523,-71.5001 668.523,-68 658.523,-64.5001 658.523,-71.5001"/>
</g>
<!-- Node31 -->
<g id="node14" class="node"><title>Node31</title>
<g id="a_node14"><a xlink:href="classAP__HAL_1_1BetterStream.html#a915cc01273d4b418c2fb2989fb31a508" target="_top" xlink:title=" ">
<polygon fill="white" stroke="black" points="804.589,-117 804.589,-149 923.411,-149 923.411,-117 804.589,-117"/>
<text text-anchor="start" x="812.589" y="-135" font-family="Helvetica,sans-Serif" font-size="10.00">AP_HAL::BetterStream</text>
<text text-anchor="middle" x="864" y="-123" font-family="Helvetica,sans-Serif" font-size="10.00">::write</text>
</a>
</g>
</g>
<!-- Node30&#45;&gt;Node31 -->
<g id="edge13" class="edge"><title>Node30&#45;&gt;Node31</title>
<path fill="none" stroke="midnightblue" d="M728.495,-78.0138C751.27,-87.3242 785.857,-101.464 814.255,-113.073"/>
<polygon fill="midnightblue" stroke="midnightblue" points="813.042,-116.358 823.622,-116.902 815.69,-109.878 813.042,-116.358"/>
</g>
<!-- Node32 -->
<g id="node15" class="node"><title>Node32</title>
<g id="a_node15"><a xlink:href="ftoa__engine_8cpp.html#a1c28234da8f20b43c85890d4bb452947" target="_top" xlink:title=" ">
<polygon fill="white" stroke="black" points="829.865,-78 829.865,-98 898.135,-98 898.135,-78 829.865,-78"/>
<text text-anchor="middle" x="864" y="-84" font-family="Helvetica,sans-Serif" font-size="10.00">ftoa_engine</text>
</a>
</g>
</g>
<!-- Node30&#45;&gt;Node32 -->
<g id="edge14" class="edge"><title>Node30&#45;&gt;Node32</title>
<path fill="none" stroke="midnightblue" d="M737.332,-72.1927C761.288,-75.2061 793.804,-79.2961 819.759,-82.5608"/>
<polygon fill="midnightblue" stroke="midnightblue" points="819.354,-86.0374 829.712,-83.8129 820.227,-79.0921 819.354,-86.0374"/>
</g>
<!-- Node34 -->
<g id="node17" class="node"><title>Node34</title>
<g id="a_node17"><a xlink:href="utoa__invert_8cpp.html#a34926f552460b47c414ec4d83b32815c" target="_top" xlink:title=" ">
<polygon fill="white" stroke="black" points="829.04,-39 829.04,-59 898.96,-59 898.96,-39 829.04,-39"/>
<text text-anchor="middle" x="864" y="-45" font-family="Helvetica,sans-Serif" font-size="10.00">ulltoa_invert</text>
</a>
</g>
</g>
<!-- Node30&#45;&gt;Node34 -->
<g id="edge16" class="edge"><title>Node30&#45;&gt;Node34</title>
<path fill="none" stroke="midnightblue" d="M737.332,-64.017C760.942,-61.1956 792.866,-57.3807 818.63,-54.3021"/>
<polygon fill="midnightblue" stroke="midnightblue" points="819.376,-57.738 828.89,-53.0761 818.545,-50.7874 819.376,-57.738"/>
</g>
<!-- Node35 -->
<g id="node18" class="node"><title>Node35</title>
<g id="a_node18"><a xlink:href="utoa__invert_8cpp.html#a5d99bba8e697c1e11da489d88fca8559" target="_top" xlink:title=" ">
<polygon fill="white" stroke="black" points="830.15,-0 830.15,-20 897.85,-20 897.85,-0 830.15,-0"/>
<text text-anchor="middle" x="864" y="-6" font-family="Helvetica,sans-Serif" font-size="10.00">ultoa_invert</text>
</a>
</g>
</g>
<!-- Node30&#45;&gt;Node35 -->
<g id="edge18" class="edge"><title>Node30&#45;&gt;Node35</title>
<path fill="none" stroke="midnightblue" d="M728.502,-57.9675C748.652,-49.8325 778.015,-38.2416 804,-29 809.521,-27.0365 815.363,-25.0486 821.139,-23.1356"/>
<polygon fill="midnightblue" stroke="midnightblue" points="822.31,-26.4352 830.73,-20.0043 820.137,-19.7808 822.31,-26.4352"/>
</g>
<!-- Node33 -->
<g id="node16" class="node"><title>Node33</title>
<g id="a_node16"><a xlink:href="lstrlib_8c.html#a9605f4d16ae762782f8be8b54aef0a22" target="_top" xlink:title=" ">
<polygon fill="white" stroke="black" points="959.828,-39 959.828,-59 994.172,-59 994.172,-39 959.828,-39"/>
<text text-anchor="middle" x="977" y="-45" font-family="Helvetica,sans-Serif" font-size="10.00">digit</text>
</a>
</g>
</g>
<!-- Node32&#45;&gt;Node33 -->
<g id="edge15" class="edge"><title>Node32&#45;&gt;Node33</title>
<path fill="none" stroke="midnightblue" d="M895.062,-77.9615C904.355,-74.8174 914.615,-71.3049 924,-68 932.508,-65.0042 941.766,-61.6515 950.081,-58.6063"/>
<polygon fill="midnightblue" stroke="midnightblue" points="951.465,-61.8264 959.641,-55.0888 949.048,-55.2569 951.465,-61.8264"/>
</g>
<!-- Node34&#45;&gt;Node33 -->
<g id="edge17" class="edge"><title>Node34&#45;&gt;Node33</title>
<path fill="none" stroke="midnightblue" d="M899.209,-49C915.407,-49 934.457,-49 949.53,-49"/>
<polygon fill="midnightblue" stroke="midnightblue" points="949.705,-52.5001 959.705,-49 949.705,-45.5001 949.705,-52.5001"/>
</g>
<!-- Node35&#45;&gt;Node33 -->
<g id="edge19" class="edge"><title>Node35&#45;&gt;Node33</title>
<path fill="none" stroke="midnightblue" d="M897.261,-20.0313C905.973,-22.8376 915.375,-25.9551 924,-29 932.559,-32.0216 941.831,-35.5155 950.143,-38.7293"/>
<polygon fill="midnightblue" stroke="midnightblue" points="949.104,-42.0813 959.692,-42.4601 951.652,-35.5611 949.104,-42.0813"/>
</g>
<!-- Node36&#45;&gt;Node20 -->
<g id="edge23" class="edge"><title>Node36&#45;&gt;Node20</title>
<path fill="none" stroke="midnightblue" d="M258.342,-219.149C271.769,-216.365 286.422,-213.327 300.564,-210.395"/>
<polygon fill="midnightblue" stroke="midnightblue" points="301.666,-213.741 310.747,-208.284 300.245,-206.887 301.666,-213.741"/>
</g>
<!-- Node36&#45;&gt;Node26 -->
<g id="edge24" class="edge"><title>Node36&#45;&gt;Node26</title>
<path fill="none" stroke="midnightblue" d="M258.342,-235.426C271.041,-236.742 284.836,-238.172 298.26,-239.564"/>
<polygon fill="midnightblue" stroke="midnightblue" points="298.12,-243.068 308.428,-240.617 298.842,-236.105 298.12,-243.068"/>
</g>
<!-- Node37&#45;&gt;Node24 -->
<g id="edge26" class="edge"><title>Node37&#45;&gt;Node24</title>
<path fill="none" stroke="midnightblue" d="M271.654,-289.059C350.896,-291.297 487.744,-290.491 602,-266 626.628,-260.721 653.126,-250.144 672.655,-241.336"/>
<polygon fill="midnightblue" stroke="midnightblue" points="674.304,-244.43 681.913,-237.057 671.367,-238.075 674.304,-244.43"/>
</g>
</g>
</svg>
