<?xml version="1.0" encoding="UTF-8" standalone="no"?>
<!DOCTYPE svg PUBLIC "-//W3C//DTD SVG 1.1//EN"
 "http://www.w3.org/Graphics/SVG/1.1/DTD/svg11.dtd">
<!-- Generated by graphviz version 2.30.1 (20130221.2233)
 -->
<!-- Title: AP_AdvancedFailsafe::check_altlimit Pages: 1 -->
<!--zoomable 349 -->
<svg id="main" version="1.1" xmlns="http://www.w3.org/2000/svg" xmlns:xlink="http://www.w3.org/1999/xlink" xml:space="preserve" onload="init(evt)">
<style type="text/css"><![CDATA[
.edge:hover path { stroke: red; }
.edge:hover polygon { stroke: red; fill: red; }
]]></style>
<script type="text/javascript"><![CDATA[
var edges = document.getElementsByTagName('g');
if (edges && edges.length) {
  for (var i=0;i<edges.length;i++) {
    if (edges[i].id.substr(0,4)=='edge') {
      edges[i].setAttribute('class','edge');
    }
  }
}
]]></script>
        <defs>
                <circle id="rim" cx="0" cy="0" r="7"/>
                <circle id="rim2" cx="0" cy="0" r="3.5"/>
                <g id="zoomPlus">
                        <use xlink:href="#rim" fill="#404040">
                                <set attributeName="fill" to="#808080" begin="zoomplus.mouseover" end="zoomplus.mouseout"/>
                        </use>
                        <path d="M-4,0h8M0,-4v8" fill="none" stroke="white" stroke-width="1.5" pointer-events="none"/>
                </g>
                <g id="zoomMin">
                        <use xlink:href="#rim" fill="#404040">
                                <set attributeName="fill" to="#808080" begin="zoomminus.mouseover" end="zoomminus.mouseout"/>
                        </use>
                        <path d="M-4,0h8" fill="none" stroke="white" stroke-width="1.5" pointer-events="none"/>
                </g>
                <g id="dirArrow">
                        <path fill="none" stroke="white" stroke-width="1.5" d="M0,-3.0v7 M-2.5,-0.5L0,-3.0L2.5,-0.5"/>
                </g>
               <g id="resetDef">
                       <use xlink:href="#rim2" fill="#404040">
                               <set attributeName="fill" to="#808080" begin="reset.mouseover" end="reset.mouseout"/>
                       </use>
               </g>
        </defs>

<script type="text/javascript">
var viewWidth = 534;
var viewHeight = 349;
var sectionId = 'dynsection-4';
</script>
<script xlink:href="svgpan.js"/>
<svg id="graph" class="graph">
<g id="viewport">
<title>AP_AdvancedFailsafe::check_altlimit</title>
<polygon fill="white" stroke="white" points="-4,5 -4,-345 531,-345 531,5 -4,5"/>
<!-- Node176 -->
<g id="node1" class="node"><title>Node176</title>
<g id="a_node1"><a xlink:title=" ">
<polygon fill="#bfbfbf" stroke="black" points="-0.196777,-160 -0.196777,-192 114.197,-192 114.197,-160 -0.196777,-160"/>
<text text-anchor="start" x="7.80322" y="-178" font-family="Helvetica,sans-Serif" font-size="10.00">AP_AdvancedFailsafe</text>
<text text-anchor="middle" x="57" y="-166" font-family="Helvetica,sans-Serif" font-size="10.00">::check_altlimit</text>
</a>
</g>
</g>
<!-- Node177 -->
<g id="node2" class="node"><title>Node177</title>
<g id="a_node2"><a xlink:href="namespaceAP.html#a8aec57eb0b7a79044cbc1f0ca4b75bcf" target="_top" xlink:title=" ">
<polygon fill="white" stroke="black" points="189.544,-321 189.544,-341 244.456,-341 244.456,-321 189.544,-321"/>
<text text-anchor="middle" x="217" y="-327" font-family="Helvetica,sans-Serif" font-size="10.00">AP::baro</text>
</a>
</g>
</g>
<!-- Node176&#45;&gt;Node177 -->
<g id="edge1" class="edge"><title>Node176&#45;&gt;Node177</title>
<path fill="none" stroke="midnightblue" d="M64.7281,-192.381C77.2389,-220.809 106.794,-279.271 150,-311 158.613,-317.325 169.242,-321.671 179.435,-324.648"/>
<polygon fill="midnightblue" stroke="midnightblue" points="178.837,-328.108 189.392,-327.193 180.57,-321.326 178.837,-328.108"/>
</g>
<!-- Node179 -->
<g id="node4" class="node"><title>Node179</title>
<g id="a_node4"><a xlink:href="namespaceAP.html#ae6eeec356455220f913e47e323057cd5" target="_top" xlink:title=" ">
<polygon fill="white" stroke="black" points="191.49,-282 191.49,-302 242.51,-302 242.51,-282 191.49,-282"/>
<text text-anchor="middle" x="217" y="-288" font-family="Helvetica,sans-Serif" font-size="10.00">AP::gps</text>
</a>
</g>
</g>
<!-- Node176&#45;&gt;Node179 -->
<g id="edge3" class="edge"><title>Node176&#45;&gt;Node179</title>
<path fill="none" stroke="midnightblue" d="M69.1932,-192.04C84.8736,-213.343 115.373,-250.748 150,-272 159.512,-277.838 170.846,-282.076 181.416,-285.105"/>
<polygon fill="midnightblue" stroke="midnightblue" points="180.672,-288.528 191.231,-287.652 182.43,-281.752 180.672,-288.528"/>
</g>
<!-- Node181 -->
<g id="node6" class="node"><title>Node181</title>
<g id="a_node6"><a xlink:href="namespaceAP__HAL.html#a77dffbb18891996280308e21316ec186" target="_top" xlink:title=" ">
<polygon fill="white" stroke="black" points="175.936,-243 175.936,-263 258.064,-263 258.064,-243 175.936,-243"/>
<text text-anchor="middle" x="217" y="-249" font-family="Helvetica,sans-Serif" font-size="10.00">AP_HAL::millis</text>
</a>
</g>
</g>
<!-- Node176&#45;&gt;Node181 -->
<g id="edge5" class="edge"><title>Node176&#45;&gt;Node181</title>
<path fill="none" stroke="midnightblue" d="M80.1442,-192.015C98.2318,-204.519 124.831,-221.625 150,-233 155.382,-235.432 161.14,-237.67 166.93,-239.697"/>
<polygon fill="midnightblue" stroke="midnightblue" points="166.05,-243.092 176.643,-242.908 168.247,-236.446 166.05,-243.092"/>
</g>
<!-- Node183 -->
<g id="node8" class="node"><title>Node183</title>
<g id="a_node8"><a xlink:href="classAP__Baro.html#a6d51aa8a0b2e283837b5eab833bd5137" target="_top" xlink:title=" ">
<polygon fill="white" stroke="black" points="150.624,-186 150.624,-206 283.376,-206 283.376,-186 150.624,-186"/>
<text text-anchor="middle" x="217" y="-192" font-family="Helvetica,sans-Serif" font-size="10.00">AP_Baro::get_last_update</text>
</a>
</g>
</g>
<!-- Node176&#45;&gt;Node183 -->
<g id="edge7" class="edge"><title>Node176&#45;&gt;Node183</title>
<path fill="none" stroke="midnightblue" d="M114.595,-183.164C122.933,-184.219 131.633,-185.321 140.281,-186.415"/>
<polygon fill="midnightblue" stroke="midnightblue" points="140.023,-189.911 150.383,-187.694 140.902,-182.966 140.023,-189.911"/>
</g>
<!-- Node184 -->
<g id="node9" class="node"><title>Node184</title>
<g id="a_node9"><a xlink:href="classAP__GPS.html#ac22b61d2e6cf0b6ff647173ea336de01" target="_top" xlink:title="Query GPS status.">
<polygon fill="white" stroke="black" points="172.872,-147 172.872,-167 261.128,-167 261.128,-147 172.872,-147"/>
<text text-anchor="middle" x="217" y="-153" font-family="Helvetica,sans-Serif" font-size="10.00">AP_GPS::status</text>
</a>
</g>
</g>
<!-- Node176&#45;&gt;Node184 -->
<g id="edge9" class="edge"><title>Node176&#45;&gt;Node184</title>
<path fill="none" stroke="midnightblue" d="M114.595,-169.194C130.285,-167.308 147.26,-165.266 162.751,-163.403"/>
<polygon fill="midnightblue" stroke="midnightblue" points="163.178,-166.877 172.689,-162.208 162.342,-159.927 163.178,-166.877"/>
</g>
<!-- Node186 -->
<g id="node11" class="node"><title>Node186</title>
<g id="a_node11"><a xlink:href="classAP__GPS.html#a14652c171d9c34d23f22f23b1ab04d12" target="_top" xlink:title=" ">
<polygon fill="white" stroke="black" points="168.978,-108 168.978,-128 265.022,-128 265.022,-108 168.978,-108"/>
<text text-anchor="middle" x="217" y="-114" font-family="Helvetica,sans-Serif" font-size="10.00">AP_GPS::location</text>
</a>
</g>
</g>
<!-- Node176&#45;&gt;Node186 -->
<g id="edge11" class="edge"><title>Node176&#45;&gt;Node186</title>
<path fill="none" stroke="midnightblue" d="M94.8341,-159.823C111.529,-152.74 131.61,-144.567 150,-138 156.591,-135.647 163.613,-133.325 170.526,-131.144"/>
<polygon fill="midnightblue" stroke="midnightblue" points="171.99,-134.355 180.512,-128.061 169.925,-127.666 171.99,-134.355"/>
</g>
<!-- Node187 -->
<g id="node12" class="node"><title>Node187</title>
<g id="a_node12"><a xlink:href="classAP__Baro.html#a54dee5f283f1b59007fd4872db0f6eea" target="_top" xlink:title=" ">
<polygon fill="white" stroke="black" points="160.355,-57 160.355,-89 273.645,-89 273.645,-57 160.355,-57"/>
<text text-anchor="start" x="168.355" y="-75" font-family="Helvetica,sans-Serif" font-size="10.00">AP_Baro::get_altitude</text>
<text text-anchor="middle" x="217" y="-63" font-family="Helvetica,sans-Serif" font-size="10.00">_difference</text>
</a>
</g>
</g>
<!-- Node176&#45;&gt;Node187 -->
<g id="edge12" class="edge"><title>Node176&#45;&gt;Node187</title>
<path fill="none" stroke="midnightblue" d="M74.0471,-159.763C91.4956,-142.816 120.812,-116.34 150,-99 153.358,-97.0048 156.898,-95.1049 160.522,-93.3073"/>
<polygon fill="midnightblue" stroke="midnightblue" points="162.063,-96.4502 169.649,-89.0536 159.106,-90.1054 162.063,-96.4502"/>
</g>
<!-- Node190 -->
<g id="node15" class="node"><title>Node190</title>
<g id="a_node15"><a xlink:href="classAP__Baro.html#a41b3c00624c78b883413b53fc5a81a32" target="_top" xlink:title=" ">
<polygon fill="white" stroke="black" points="157.025,-0 157.025,-20 276.975,-20 276.975,-0 157.025,-0"/>
<text text-anchor="middle" x="217" y="-6" font-family="Helvetica,sans-Serif" font-size="10.00">AP_Baro::get_pressure</text>
</a>
</g>
</g>
<!-- Node176&#45;&gt;Node190 -->
<g id="edge15" class="edge"><title>Node176&#45;&gt;Node190</title>
<path fill="none" stroke="midnightblue" d="M66.6377,-159.759C81.1218,-133.678 112.442,-81.9508 150,-48 160.139,-38.8351 172.85,-30.8759 184.404,-24.6431"/>
<polygon fill="midnightblue" stroke="midnightblue" points="186.07,-27.7219 193.35,-20.0245 182.859,-21.5018 186.07,-27.7219"/>
</g>
<!-- Node178 -->
<g id="node3" class="node"><title>Node178</title>
<g id="a_node3"><a xlink:href="classAP__Baro.html#a92b0efed71f214529da6c54d692f1d61" target="_top" xlink:title=" ">
<polygon fill="white" stroke="black" points="320.463,-321 320.463,-341 441.537,-341 441.537,-321 320.463,-321"/>
<text text-anchor="middle" x="381" y="-327" font-family="Helvetica,sans-Serif" font-size="10.00">AP_Baro::get_singleton</text>
</a>
</g>
</g>
<!-- Node177&#45;&gt;Node178 -->
<g id="edge2" class="edge"><title>Node177&#45;&gt;Node178</title>
<path fill="none" stroke="midnightblue" d="M244.751,-331C262.6,-331 286.952,-331 310.077,-331"/>
<polygon fill="midnightblue" stroke="midnightblue" points="310.238,-334.5 320.238,-331 310.238,-327.5 310.238,-334.5"/>
</g>
<!-- Node180 -->
<g id="node5" class="node"><title>Node180</title>
<g id="a_node5"><a xlink:href="classAP__GPS.html#a08d0437767d62a318e59b40cf323a31a" target="_top" xlink:title=" ">
<polygon fill="white" stroke="black" points="320.466,-282 320.466,-302 441.534,-302 441.534,-282 320.466,-282"/>
<text text-anchor="middle" x="381" y="-288" font-family="Helvetica,sans-Serif" font-size="10.00">AP_GPS::get_singleton</text>
</a>
</g>
</g>
<!-- Node179&#45;&gt;Node180 -->
<g id="edge4" class="edge"><title>Node179&#45;&gt;Node180</title>
<path fill="none" stroke="midnightblue" d="M242.604,-292C260.65,-292 286.11,-292 310.217,-292"/>
<polygon fill="midnightblue" stroke="midnightblue" points="310.441,-295.5 320.441,-292 310.441,-288.5 310.441,-295.5"/>
</g>
<!-- Node182 -->
<g id="node7" class="node"><title>Node182</title>
<g id="a_node7"><a xlink:href="hrt_8c.html#a1295f128f60d29874243b5733c4db025" target="_top" xlink:title=" ">
<polygon fill="white" stroke="black" points="347.714,-243 347.714,-263 414.286,-263 414.286,-243 347.714,-243"/>
<text text-anchor="middle" x="381" y="-249" font-family="Helvetica,sans-Serif" font-size="10.00">hrt_millis32</text>
</a>
</g>
</g>
<!-- Node181&#45;&gt;Node182 -->
<g id="edge6" class="edge"><title>Node181&#45;&gt;Node182</title>
<path fill="none" stroke="midnightblue" d="M258.462,-253C282.57,-253 313.135,-253 337.581,-253"/>
<polygon fill="midnightblue" stroke="midnightblue" points="337.647,-256.5 347.647,-253 337.647,-249.5 337.647,-256.5"/>
</g>
<!-- Node183&#45;&gt;Node183 -->
<g id="edge8" class="edge"><title>Node183&#45;&gt;Node183</title>
<path fill="none" stroke="midnightblue" d="M191.951,-206.048C180.525,-214.771 188.875,-224 217,-224 235.018,-224 244.919,-220.213 246.705,-215.197"/>
<polygon fill="midnightblue" stroke="midnightblue" points="249.704,-213.372 242.049,-206.048 243.465,-216.547 249.704,-213.372"/>
</g>
<!-- Node185 -->
<g id="node10" class="node"><title>Node185</title>
<g id="a_node10"><a xlink:href="classAP__GPS.html#a23a9fce42abaf8f53d5a3f64c84461e7" target="_top" xlink:title=" ">
<polygon fill="white" stroke="black" points="336.872,-147 336.872,-167 425.128,-167 425.128,-147 336.872,-147"/>
<text text-anchor="middle" x="381" y="-153" font-family="Helvetica,sans-Serif" font-size="10.00">AP_GPS::status</text>
</a>
</g>
</g>
<!-- Node184&#45;&gt;Node185 -->
<g id="edge10" class="edge"><title>Node184&#45;&gt;Node185</title>
<path fill="none" stroke="midnightblue" d="M261.413,-157C281.468,-157 305.474,-157 326.624,-157"/>
<polygon fill="midnightblue" stroke="midnightblue" points="326.748,-160.5 336.748,-157 326.748,-153.5 326.748,-160.5"/>
</g>
<!-- Node188 -->
<g id="node13" class="node"><title>Node188</title>
<g id="a_node13"><a xlink:href="classAP__Baro.html#a932c39564d42db7594dc132eb6703919" target="_top" xlink:title=" ">
<polygon fill="white" stroke="black" points="324.909,-57 324.909,-89 437.091,-89 437.091,-57 324.909,-57"/>
<text text-anchor="start" x="332.909" y="-75" font-family="Helvetica,sans-Serif" font-size="10.00">AP_Baro::get_ground</text>
<text text-anchor="middle" x="381" y="-63" font-family="Helvetica,sans-Serif" font-size="10.00">_temperature</text>
</a>
</g>
</g>
<!-- Node187&#45;&gt;Node188 -->
<g id="edge13" class="edge"><title>Node187&#45;&gt;Node188</title>
<path fill="none" stroke="midnightblue" d="M273.751,-73C286.879,-73 300.991,-73 314.504,-73"/>
<polygon fill="midnightblue" stroke="midnightblue" points="314.695,-76.5001 324.695,-73 314.695,-69.5001 314.695,-76.5001"/>
</g>
<!-- Node189 -->
<g id="node14" class="node"><title>Node189</title>
<g id="a_node14"><a xlink:href="AP__Math_8h.html#a2a12cce483e9b870da70d30406d82c60" target="_top" xlink:title=" ">
<polygon fill="white" stroke="black" points="477.882,-63 477.882,-83 526.118,-83 526.118,-63 477.882,-63"/>
<text text-anchor="middle" x="502" y="-69" font-family="Helvetica,sans-Serif" font-size="10.00">is_zero</text>
</a>
</g>
</g>
<!-- Node188&#45;&gt;Node189 -->
<g id="edge14" class="edge"><title>Node188&#45;&gt;Node189</title>
<path fill="none" stroke="midnightblue" d="M437.319,-73C447.639,-73 458.126,-73 467.533,-73"/>
<polygon fill="midnightblue" stroke="midnightblue" points="467.627,-76.5001 477.627,-73 467.627,-69.5001 467.627,-76.5001"/>
</g>
<!-- Node190&#45;&gt;Node190 -->
<g id="edge16" class="edge"><title>Node190&#45;&gt;Node190</title>
<path fill="none" stroke="midnightblue" d="M191.951,-20.0477C180.525,-28.7715 188.875,-38 217,-38 235.018,-38 244.919,-34.2126 246.705,-29.1968"/>
<polygon fill="midnightblue" stroke="midnightblue" points="249.704,-27.3723 242.049,-20.0477 243.465,-30.5474 249.704,-27.3723"/>
</g>
</g>
</svg>
        <g id="navigator" transform="translate(0 0)" fill="#404254">
                <rect fill="#f2f5e9" fill-opacity="0.5" stroke="#606060" stroke-width=".5" x="0" y="0" width="60" height="60"/>
                <use id="zoomplus" xlink:href="#zoomPlus" x="17" y="9" onmousedown="handleZoom(evt,'in')"/>
                <use id="zoomminus" xlink:href="#zoomMin" x="42" y="9" onmousedown="handleZoom(evt,'out')"/>
                <use id="reset" xlink:href="#resetDef" x="30" y="36" onmousedown="handleReset()"/>
                <g id="arrowUp" xlink:href="#dirArrow" transform="translate(30 24)" onmousedown="handlePan(0,-1)">
                  <use xlink:href="#rim" fill="#404040">
                        <set attributeName="fill" to="#808080" begin="arrowUp.mouseover" end="arrowUp.mouseout"/>
                  </use>
                  <path fill="none" stroke="white" stroke-width="1.5" d="M0,-3.0v7 M-2.5,-0.5L0,-3.0L2.5,-0.5"/>
                </g>
                <g id="arrowRight" xlink:href="#dirArrow" transform="rotate(90) translate(36 -43)" onmousedown="handlePan(1,0)">
                  <use xlink:href="#rim" fill="#404040">
                        <set attributeName="fill" to="#808080" begin="arrowRight.mouseover" end="arrowRight.mouseout"/>
                  </use>
                  <path fill="none" stroke="white" stroke-width="1.5" d="M0,-3.0v7 M-2.5,-0.5L0,-3.0L2.5,-0.5"/>
                </g>
                <g id="arrowDown" xlink:href="#dirArrow" transform="rotate(180) translate(-30 -48)" onmousedown="handlePan(0,1)">
                  <use xlink:href="#rim" fill="#404040">
                        <set attributeName="fill" to="#808080" begin="arrowDown.mouseover" end="arrowDown.mouseout"/>
                  </use>
                  <path fill="none" stroke="white" stroke-width="1.5" d="M0,-3.0v7 M-2.5,-0.5L0,-3.0L2.5,-0.5"/>
                </g>
                <g id="arrowLeft" xlink:href="#dirArrow" transform="rotate(270) translate(-36 17)" onmousedown="handlePan(-1,0)">
                  <use xlink:href="#rim" fill="#404040">
                        <set attributeName="fill" to="#808080" begin="arrowLeft.mouseover" end="arrowLeft.mouseout"/>
                  </use>
                  <path fill="none" stroke="white" stroke-width="1.5" d="M0,-3.0v7 M-2.5,-0.5L0,-3.0L2.5,-0.5"/>
                </g>
        </g>
        <svg viewBox="0 0 15 15" width="100%" height="30px" preserveAspectRatio="xMaxYMin meet">
         <g id="arrow_out" transform="scale(0.3 0.3)">
          <a xlink:href="classAP__AdvancedFailsafe_afcae077373d7958b1dba0ebc6c25d61b_cgraph_org.svg" target="_base">
           <rect id="button" ry="5" rx="5" y="6" x="6" height="38" width="38"
                fill="#f2f5e9" fill-opacity="0.5" stroke="#606060" stroke-width="1.0"/>
           <path id="arrow"
             d="M 11.500037,31.436501 C 11.940474,20.09759 22.043105,11.32322 32.158766,21.979434 L 37.068811,17.246167 C 37.068811,17.246167 37.088388,32 37.088388,32 L 22.160133,31.978069 C 22.160133,31.978069 26.997745,27.140456 26.997745,27.140456 C 18.528582,18.264221 13.291696,25.230495 11.500037,31.436501 z"
             style="fill:#404040;"/>
          </a>
         </g>
        </svg>
</svg>
