<?xml version="1.0" encoding="UTF-8" standalone="no"?>
<!DOCTYPE svg PUBLIC "-//W3C//DTD SVG 1.1//EN"
 "http://www.w3.org/Graphics/SVG/1.1/DTD/svg11.dtd">
<!-- Generated by graphviz version 2.30.1 (20130221.2233)
 -->
<!-- Title: AP_OSD_Screen::draw_dist Pages: 1 -->
<svg width="1140pt" height="137pt"
 viewBox="0.00 0.00 1140.00 137.00" xmlns="http://www.w3.org/2000/svg" xmlns:xlink="http://www.w3.org/1999/xlink">
<g id="graph0" class="graph" transform="scale(1 1) rotate(0) translate(4 133)">
<title>AP_OSD_Screen::draw_dist</title>
<polygon fill="white" stroke="white" points="-4,5 -4,-133 1137,-133 1137,5 -4,5"/>
<!-- Node249 -->
<g id="node1" class="node"><title>Node249</title>
<g id="a_node1"><a xlink:title=" ">
<polygon fill="#bfbfbf" stroke="black" points="-0.0859375,-87 -0.0859375,-107 142.086,-107 142.086,-87 -0.0859375,-87"/>
<text text-anchor="middle" x="71" y="-93" font-family="Helvetica,sans-Serif" font-size="10.00">AP_OSD_Screen::draw_dist</text>
</a>
</g>
</g>
<!-- Node250 -->
<g id="node2" class="node"><title>Node250</title>
<g id="a_node2"><a xlink:href="classAP__OSD__Backend.html#a0874cc679cadd5bc77b95df77192ef99" target="_top" xlink:title=" ">
<polygon fill="white" stroke="black" points="339.141,-109 339.141,-129 466.859,-129 466.859,-109 339.141,-109"/>
<text text-anchor="middle" x="403" y="-115" font-family="Helvetica,sans-Serif" font-size="10.00">AP_OSD_Backend::write</text>
</a>
</g>
</g>
<!-- Node249&#45;&gt;Node250 -->
<g id="edge1" class="edge"><title>Node249&#45;&gt;Node250</title>
<path fill="none" stroke="midnightblue" d="M142.389,-101.693C197.274,-105.352 273.255,-110.417 328.836,-114.122"/>
<polygon fill="midnightblue" stroke="midnightblue" points="328.756,-117.625 338.967,-114.798 329.222,-110.64 328.756,-117.625"/>
</g>
<!-- Node251 -->
<g id="node3" class="node"><title>Node251</title>
<g id="a_node3"><a xlink:href="classAP__OSD__Screen.html#acf2686ff57f8d857825839af0052d29e" target="_top" xlink:title=" ">
<polygon fill="white" stroke="black" points="178.476,-59 178.476,-91 299.524,-91 299.524,-59 178.476,-59"/>
<text text-anchor="start" x="186.476" y="-77" font-family="Helvetica,sans-Serif" font-size="10.00">AP_OSD_Screen::draw</text>
<text text-anchor="middle" x="239" y="-65" font-family="Helvetica,sans-Serif" font-size="10.00">_distance</text>
</a>
</g>
</g>
<!-- Node249&#45;&gt;Node251 -->
<g id="edge2" class="edge"><title>Node249&#45;&gt;Node251</title>
<path fill="none" stroke="midnightblue" d="M142.399,-87.67C150.973,-86.5337 159.731,-85.373 168.295,-84.238"/>
<polygon fill="midnightblue" stroke="midnightblue" points="168.783,-87.704 178.237,-82.9204 167.864,-80.7646 168.783,-87.704"/>
</g>
<!-- Node252 -->
<g id="node4" class="node"><title>Node252</title>
<g id="a_node4"><a xlink:href="classAP__OSD__Screen.html#a4118b4ebd416c8d1da09858868ae91fa" target="_top" xlink:title=" ">
<polygon fill="white" stroke="black" points="338.579,-67 338.579,-87 467.421,-87 467.421,-67 338.579,-67"/>
<text text-anchor="middle" x="403" y="-73" font-family="Helvetica,sans-Serif" font-size="10.00">AP_OSD_Screen::u_icon</text>
</a>
</g>
</g>
<!-- Node251&#45;&gt;Node252 -->
<g id="edge3" class="edge"><title>Node251&#45;&gt;Node252</title>
<path fill="none" stroke="midnightblue" d="M299.863,-75.739C309.063,-75.8526 318.655,-75.971 328.116,-76.0879"/>
<polygon fill="midnightblue" stroke="midnightblue" points="328.264,-79.5899 338.307,-76.2137 328.351,-72.5904 328.264,-79.5899"/>
</g>
<!-- Node260 -->
<g id="node12" class="node"><title>Node260</title>
<g id="a_node12"><a xlink:href="classAP__OSD__Screen.html#af9376e65207b0fc527597134f8802b08" target="_top" xlink:title=" ">
<polygon fill="white" stroke="black" points="336.079,-28 336.079,-48 469.921,-48 469.921,-28 336.079,-28"/>
<text text-anchor="middle" x="403" y="-34" font-family="Helvetica,sans-Serif" font-size="10.00">AP_OSD_Screen::u_scale</text>
</a>
</g>
</g>
<!-- Node251&#45;&gt;Node260 -->
<g id="edge11" class="edge"><title>Node251&#45;&gt;Node260</title>
<path fill="none" stroke="midnightblue" d="M299.863,-61.3277C315.685,-57.7139 332.664,-53.8359 348.147,-50.2997"/>
<polygon fill="midnightblue" stroke="midnightblue" points="349.109,-53.6702 358.079,-48.0314 347.55,-46.846 349.109,-53.6702"/>
</g>
<!-- Node251&#45;&gt;Node250 -->
<g id="edge13" class="edge"><title>Node251&#45;&gt;Node250</title>
<path fill="none" stroke="midnightblue" d="M298.944,-91.0095C317.397,-96.0213 337.503,-101.482 355.016,-106.239"/>
<polygon fill="midnightblue" stroke="midnightblue" points="354.428,-109.706 364.996,-108.949 356.263,-102.951 354.428,-109.706"/>
</g>
<!-- Node253 -->
<g id="node5" class="node"><title>Node253</title>
<g id="a_node5"><a xlink:href="AP__Math_8h.html#a68558c4f79a8582543daefde13c64abc" target="_top" xlink:title=" ">
<polygon fill="white" stroke="black" points="506.089,-47 506.089,-67 589.911,-67 589.911,-47 506.089,-47"/>
<text text-anchor="middle" x="548" y="-53" font-family="Helvetica,sans-Serif" font-size="10.00">constrain_int16</text>
</a>
</g>
</g>
<!-- Node252&#45;&gt;Node253 -->
<g id="edge4" class="edge"><title>Node252&#45;&gt;Node253</title>
<path fill="none" stroke="midnightblue" d="M467.555,-68.1112C476.985,-66.7923 486.602,-65.4473 495.738,-64.1695"/>
<polygon fill="midnightblue" stroke="midnightblue" points="496.395,-67.6118 505.814,-62.7603 495.425,-60.6792 496.395,-67.6118"/>
</g>
<!-- Node254 -->
<g id="node6" class="node"><title>Node254</title>
<g id="a_node6"><a xlink:href="AP__Math_8h.html#a20e8f8671c282c69c1954652b6d61585" target="_top" xlink:title=" ">
<polygon fill="white" stroke="black" points="625.978,-47 625.978,-67 712.022,-67 712.022,-47 625.978,-47"/>
<text text-anchor="middle" x="669" y="-53" font-family="Helvetica,sans-Serif" font-size="10.00">constrain_value</text>
</a>
</g>
</g>
<!-- Node253&#45;&gt;Node254 -->
<g id="edge5" class="edge"><title>Node253&#45;&gt;Node254</title>
<path fill="none" stroke="midnightblue" d="M589.953,-57C598.265,-57 607.112,-57 615.753,-57"/>
<polygon fill="midnightblue" stroke="midnightblue" points="615.757,-60.5001 625.757,-57 615.757,-53.5001 615.757,-60.5001"/>
</g>
<!-- Node255 -->
<g id="node7" class="node"><title>Node255</title>
<g id="a_node7"><a xlink:href="namespaceAP.html#afceb236ff617aaaa2b08afacd72532b0" target="_top" xlink:title=" ">
<polygon fill="white" stroke="black" points="762.596,-67 762.596,-87 851.404,-87 851.404,-67 762.596,-67"/>
<text text-anchor="middle" x="807" y="-73" font-family="Helvetica,sans-Serif" font-size="10.00">AP::internalerror</text>
</a>
</g>
</g>
<!-- Node254&#45;&gt;Node255 -->
<g id="edge6" class="edge"><title>Node254&#45;&gt;Node255</title>
<path fill="none" stroke="midnightblue" d="M712.286,-63.2185C724.962,-65.0826 739.035,-67.1523 752.342,-69.1091"/>
<polygon fill="midnightblue" stroke="midnightblue" points="751.929,-72.5859 762.331,-70.5782 752.947,-65.6604 751.929,-72.5859"/>
</g>
<!-- Node256 -->
<g id="node8" class="node"><title>Node256</title>
<g id="a_node8"><a xlink:href="classAP__InternalError.html#ab34174ba770b976b39a18c2b23e854f2" target="_top" xlink:title=" ">
<polygon fill="white" stroke="black" points="748.426,-28 748.426,-48 865.574,-48 865.574,-28 748.426,-28"/>
<text text-anchor="middle" x="807" y="-34" font-family="Helvetica,sans-Serif" font-size="10.00">AP_InternalError::error</text>
</a>
</g>
</g>
<!-- Node254&#45;&gt;Node256 -->
<g id="edge7" class="edge"><title>Node254&#45;&gt;Node256</title>
<path fill="none" stroke="midnightblue" d="M712.286,-51.0924C720.557,-49.9369 729.424,-48.6981 738.284,-47.4603"/>
<polygon fill="midnightblue" stroke="midnightblue" points="738.833,-50.9177 748.253,-46.0676 737.865,-43.985 738.833,-50.9177"/>
</g>
<!-- Node257 -->
<g id="node9" class="node"><title>Node257</title>
<g id="a_node9"><a xlink:href="namespaceAP__HAL.html#a71832f03d849a0c088f04fc98d3c8143" target="_top" xlink:title=" ">
<polygon fill="white" stroke="black" points="902.091,-28 902.091,-48 985.909,-48 985.909,-28 902.091,-28"/>
<text text-anchor="middle" x="944" y="-34" font-family="Helvetica,sans-Serif" font-size="10.00">AP_HAL::panic</text>
</a>
</g>
</g>
<!-- Node256&#45;&gt;Node257 -->
<g id="edge8" class="edge"><title>Node256&#45;&gt;Node257</title>
<path fill="none" stroke="midnightblue" d="M865.644,-38C874.305,-38 883.188,-38 891.705,-38"/>
<polygon fill="midnightblue" stroke="midnightblue" points="891.873,-41.5001 901.873,-38 891.872,-34.5001 891.873,-41.5001"/>
</g>
<!-- Node258 -->
<g id="node10" class="node"><title>Node258</title>
<g id="a_node10"><a xlink:href="stdio_8h.html#aae132cc6af1eb6cf43bf011d8d63e854" target="_top" xlink:title=" ">
<polygon fill="white" stroke="black" points="1055.38,-51 1055.38,-71 1098.62,-71 1098.62,-51 1055.38,-51"/>
<text text-anchor="middle" x="1077" y="-57" font-family="Helvetica,sans-Serif" font-size="10.00">vprintf</text>
</a>
</g>
</g>
<!-- Node257&#45;&gt;Node258 -->
<g id="edge9" class="edge"><title>Node257&#45;&gt;Node258</title>
<path fill="none" stroke="midnightblue" d="M986.09,-45.2142C1005.1,-48.5526 1027.32,-52.4533 1044.91,-55.542"/>
<polygon fill="midnightblue" stroke="midnightblue" points="1044.74,-59.0658 1055.2,-57.3478 1045.95,-52.1712 1044.74,-59.0658"/>
</g>
<!-- Node259 -->
<g id="node11" class="node"><title>Node259</title>
<g id="a_node11"><a xlink:href="classAP__HAL_1_1Scheduler.html#a78c4f1b1f192ac1c99544b6cc8f099b0" target="_top" xlink:title=" ">
<polygon fill="white" stroke="black" points="1021.75,-0 1021.75,-32 1132.25,-32 1132.25,-0 1021.75,-0"/>
<text text-anchor="start" x="1029.75" y="-18" font-family="Helvetica,sans-Serif" font-size="10.00">AP_HAL::Scheduler::</text>
<text text-anchor="middle" x="1077" y="-6" font-family="Helvetica,sans-Serif" font-size="10.00">delay_microseconds</text>
</a>
</g>
</g>
<!-- Node257&#45;&gt;Node259 -->
<g id="edge10" class="edge"><title>Node257&#45;&gt;Node259</title>
<path fill="none" stroke="midnightblue" d="M986.09,-31.0994C994.18,-29.7408 1002.85,-28.2849 1011.5,-26.8329"/>
<polygon fill="midnightblue" stroke="midnightblue" points="1012.32,-30.2441 1021.6,-25.1361 1011.16,-23.3407 1012.32,-30.2441"/>
</g>
<!-- Node260&#45;&gt;Node253 -->
<g id="edge12" class="edge"><title>Node260&#45;&gt;Node253</title>
<path fill="none" stroke="midnightblue" d="M470.058,-46.777C478.695,-47.9245 487.438,-49.0861 495.779,-50.1945"/>
<polygon fill="midnightblue" stroke="midnightblue" points="495.347,-53.6677 505.721,-51.5154 496.269,-46.7287 495.347,-53.6677"/>
</g>
</g>
</svg>
