<?xml version="1.0" encoding="UTF-8" standalone="no"?>
<!DOCTYPE svg PUBLIC "-//W3C//DTD SVG 1.1//EN"
 "http://www.w3.org/Graphics/SVG/1.1/DTD/svg11.dtd">
<!-- Generated by graphviz version 2.30.1 (20130221.2233)
 -->
<!-- Title: AP_Baro_MS56XX::_timer Pages: 1 -->
<svg width="506pt" height="179pt"
 viewBox="0.00 0.00 506.00 179.00" xmlns="http://www.w3.org/2000/svg" xmlns:xlink="http://www.w3.org/1999/xlink">
<g id="graph0" class="graph" transform="scale(1 1) rotate(0) translate(4 175)">
<title>AP_Baro_MS56XX::_timer</title>
<polygon fill="white" stroke="white" points="-4,5 -4,-175 503,-175 503,5 -4,5"/>
<!-- Node104 -->
<g id="node1" class="node"><title>Node104</title>
<g id="a_node1"><a xlink:title=" ">
<polygon fill="#bfbfbf" stroke="black" points="-0.194336,-89 -0.194336,-109 134.194,-109 134.194,-89 -0.194336,-89"/>
<text text-anchor="middle" x="67" y="-95" font-family="Helvetica,sans-Serif" font-size="10.00">AP_Baro_MS56XX::_timer</text>
</a>
</g>
</g>
<!-- Node105 -->
<g id="node2" class="node"><title>Node105</title>
<g id="a_node2"><a xlink:href="classAP__Baro__MS56XX.html#a7bb536520a94483d01a9a000281ca6fb" target="_top" xlink:title=" ">
<polygon fill="white" stroke="black" points="174.067,-151 174.067,-171 327.933,-171 327.933,-151 174.067,-151"/>
<text text-anchor="middle" x="251" y="-157" font-family="Helvetica,sans-Serif" font-size="10.00">AP_Baro_MS56XX::_read_adc</text>
</a>
</g>
</g>
<!-- Node104&#45;&gt;Node105 -->
<g id="edge1" class="edge"><title>Node104&#45;&gt;Node105</title>
<path fill="none" stroke="midnightblue" d="M94.7287,-109.069C115.237,-116.704 144.298,-127.327 170,-136 181.956,-140.034 194.992,-144.204 207.004,-147.955"/>
<polygon fill="midnightblue" stroke="midnightblue" points="206.22,-151.376 216.808,-150.995 208.293,-144.69 206.22,-151.376"/>
</g>
<!-- Node106 -->
<g id="node3" class="node"><title>Node106</title>
<g id="a_node3"><a xlink:href="classAP__HAL_1_1Device.html#a2af24b5f93b678af718b65a606e538b0" target="_top" xlink:title=" ">
<polygon fill="white" stroke="black" points="368.032,-131 368.032,-151 497.968,-151 497.968,-131 368.032,-131"/>
<text text-anchor="middle" x="433" y="-137" font-family="Helvetica,sans-Serif" font-size="10.00">AP_HAL::Device::transfer</text>
</a>
</g>
</g>
<!-- Node104&#45;&gt;Node106 -->
<g id="edge3" class="edge"><title>Node104&#45;&gt;Node106</title>
<path fill="none" stroke="midnightblue" d="M134.34,-106.655C197.405,-113.931 292.106,-124.858 357.683,-132.425"/>
<polygon fill="midnightblue" stroke="midnightblue" points="357.613,-135.94 367.948,-133.609 358.415,-128.986 357.613,-135.94"/>
</g>
<!-- Node107 -->
<g id="node4" class="node"><title>Node107</title>
<g id="a_node4"><a xlink:href="classAP__Baro__MS56XX.html#a3fbe5997c7b2934b8bec33f8d3d92760" target="_top" xlink:title=" ">
<polygon fill="white" stroke="black" points="179.624,-61 179.624,-93 322.376,-93 322.376,-61 179.624,-61"/>
<text text-anchor="start" x="187.624" y="-79" font-family="Helvetica,sans-Serif" font-size="10.00">AP_Baro_MS56XX::_update</text>
<text text-anchor="middle" x="251" y="-67" font-family="Helvetica,sans-Serif" font-size="10.00">_and_wrap_accumulator</text>
</a>
</g>
</g>
<!-- Node104&#45;&gt;Node107 -->
<g id="edge4" class="edge"><title>Node104&#45;&gt;Node107</title>
<path fill="none" stroke="midnightblue" d="M134.221,-90.9953C145.619,-89.6174 157.579,-88.1717 169.308,-86.754"/>
<polygon fill="midnightblue" stroke="midnightblue" points="170.028,-90.1926 179.535,-85.5177 169.188,-83.2431 170.028,-90.1926"/>
</g>
<!-- Node108 -->
<g id="node5" class="node"><title>Node108</title>
<g id="a_node5"><a xlink:href="classAP__Baro__Backend.html#adf46bf795e1e13967264596cf4faadd7" target="_top" xlink:title=" ">
<polygon fill="white" stroke="black" points="170.456,-22 170.456,-42 331.544,-42 331.544,-22 170.456,-22"/>
<text text-anchor="middle" x="251" y="-28" font-family="Helvetica,sans-Serif" font-size="10.00">AP_Baro_Backend::pressure_ok</text>
</a>
</g>
</g>
<!-- Node104&#45;&gt;Node108 -->
<g id="edge5" class="edge"><title>Node104&#45;&gt;Node108</title>
<path fill="none" stroke="midnightblue" d="M86.3133,-88.9643C106.364,-78.3167 139.704,-61.5982 170,-51 176.518,-48.7198 183.43,-46.6229 190.353,-44.7214"/>
<polygon fill="midnightblue" stroke="midnightblue" points="191.672,-47.9942 200.461,-42.0769 189.9,-41.2222 191.672,-47.9942"/>
</g>
<!-- Node105&#45;&gt;Node106 -->
<g id="edge2" class="edge"><title>Node105&#45;&gt;Node106</title>
<path fill="none" stroke="midnightblue" d="M328.075,-152.547C337.903,-151.455 347.957,-150.338 357.754,-149.25"/>
<polygon fill="midnightblue" stroke="midnightblue" points="358.298,-152.711 367.851,-148.128 357.525,-145.754 358.298,-152.711"/>
</g>
<!-- Node109 -->
<g id="node6" class="node"><title>Node109</title>
<g id="a_node6"><a xlink:href="classAP__Baro.html#a0f2f5b99445cb04a204cbf48819d82c0" target="_top" xlink:title=" ">
<polygon fill="white" stroke="black" points="383.032,-39 383.032,-71 482.968,-71 482.968,-39 383.032,-39"/>
<text text-anchor="start" x="391.032" y="-57" font-family="Helvetica,sans-Serif" font-size="10.00">AP_Baro::get_filter</text>
<text text-anchor="middle" x="433" y="-45" font-family="Helvetica,sans-Serif" font-size="10.00">_range</text>
</a>
</g>
</g>
<!-- Node108&#45;&gt;Node109 -->
<g id="edge6" class="edge"><title>Node108&#45;&gt;Node109</title>
<path fill="none" stroke="midnightblue" d="M330.427,-42.0212C344.62,-43.8348 359.204,-45.6982 372.734,-47.4271"/>
<polygon fill="midnightblue" stroke="midnightblue" points="372.488,-50.9241 382.851,-48.7199 373.376,-43.9806 372.488,-50.9241"/>
</g>
<!-- Node110 -->
<g id="node7" class="node"><title>Node110</title>
<g id="a_node7"><a xlink:href="AP__Math_8h.html#a2a12cce483e9b870da70d30406d82c60" target="_top" xlink:title=" ">
<polygon fill="white" stroke="black" points="408.882,-0 408.882,-20 457.118,-20 457.118,-0 408.882,-0"/>
<text text-anchor="middle" x="433" y="-6" font-family="Helvetica,sans-Serif" font-size="10.00">is_zero</text>
</a>
</g>
</g>
<!-- Node108&#45;&gt;Node110 -->
<g id="edge7" class="edge"><title>Node108&#45;&gt;Node110</title>
<path fill="none" stroke="midnightblue" d="M331.737,-22.2544C355.272,-19.3779 379.755,-16.3855 398.636,-14.0778"/>
<polygon fill="midnightblue" stroke="midnightblue" points="399.28,-17.5253 408.781,-12.8378 398.431,-10.577 399.28,-17.5253"/>
</g>
</g>
</svg>
