<?xml version="1.0" encoding="UTF-8" standalone="no"?>
<!DOCTYPE svg PUBLIC "-//W3C//DTD SVG 1.1//EN"
 "http://www.w3.org/Graphics/SVG/1.1/DTD/svg11.dtd">
<!-- Generated by graphviz version 2.30.1 (20130221.2233)
 -->
<!-- Title: NavEKF3_core::getVariances Pages: 1 -->
<svg width="486pt" height="101pt"
 viewBox="0.00 0.00 486.00 100.68" xmlns="http://www.w3.org/2000/svg" xmlns:xlink="http://www.w3.org/1999/xlink">
<g id="graph0" class="graph" transform="scale(1 1) rotate(0) translate(4 96.6838)">
<title>NavEKF3_core::getVariances</title>
<polygon fill="white" stroke="white" points="-4,5 -4,-96.6838 483,-96.6838 483,5 -4,5"/>
<!-- Node2015 -->
<g id="node1" class="node"><title>Node2015</title>
<g id="a_node1"><a xlink:title=" ">
<polygon fill="#bfbfbf" stroke="black" points="0.501953,-70 0.501953,-90 147.498,-90 147.498,-70 0.501953,-70"/>
<text text-anchor="middle" x="74" y="-76" font-family="Helvetica,sans-Serif" font-size="10.00">NavEKF3_core::getVariances</text>
</a>
</g>
</g>
<!-- Node2016 -->
<g id="node2" class="node"><title>Node2016</title>
<g id="a_node2"><a xlink:href="AP__Math_8h.html#a5abc8871f1e7781a55afe9bf299f0a39" target="_top" xlink:title=" ">
<polygon fill="white" stroke="black" points="440.165,-48 440.165,-68 477.835,-68 477.835,-48 440.165,-48"/>
<text text-anchor="middle" x="459" y="-54" font-family="Helvetica,sans-Serif" font-size="10.00">MAX</text>
</a>
</g>
</g>
<!-- Node2015&#45;&gt;Node2016 -->
<g id="edge1" class="edge"><title>Node2015&#45;&gt;Node2016</title>
<path fill="none" stroke="midnightblue" d="M147.652,-87.9473C214.836,-93.4291 317.118,-97.019 404,-80 412.997,-78.2376 422.386,-74.969 430.764,-71.4803"/>
<polygon fill="midnightblue" stroke="midnightblue" points="432.329,-74.6151 440.051,-67.3609 429.491,-68.2164 432.329,-74.6151"/>
</g>
<!-- Node2017 -->
<g id="node3" class="node"><title>Node2017</title>
<g id="a_node3"><a xlink:href="classLocation.html#a02afc332b5f374b923aa57ec0a63c1af" target="_top" xlink:title=" ">
<polygon fill="white" stroke="black" points="184.177,-51 184.177,-71 267.823,-71 267.823,-51 184.177,-51"/>
<text text-anchor="middle" x="226" y="-57" font-family="Helvetica,sans-Serif" font-size="10.00">Location::offset</text>
</a>
</g>
</g>
<!-- Node2015&#45;&gt;Node2017 -->
<g id="edge2" class="edge"><title>Node2015&#45;&gt;Node2017</title>
<path fill="none" stroke="midnightblue" d="M147.803,-70.7783C156.612,-69.6625 165.462,-68.5415 173.865,-67.4771"/>
<polygon fill="midnightblue" stroke="midnightblue" points="174.381,-70.9398 183.862,-66.2109 173.501,-63.9953 174.381,-70.9398"/>
</g>
<!-- Node2018 -->
<g id="node4" class="node"><title>Node2018</title>
<g id="a_node4"><a xlink:href="AP__Math_8cpp.html#accbd9f8bbc0adacd51efa66fad490c24" target="_top" xlink:title=" ">
<polygon fill="white" stroke="black" points="327.375,-51 327.375,-71 380.625,-71 380.625,-51 327.375,-51"/>
<text text-anchor="middle" x="354" y="-57" font-family="Helvetica,sans-Serif" font-size="10.00">is_equal</text>
</a>
</g>
</g>
<!-- Node2017&#45;&gt;Node2018 -->
<g id="edge3" class="edge"><title>Node2017&#45;&gt;Node2018</title>
<path fill="none" stroke="midnightblue" d="M267.909,-61C283.789,-61 301.814,-61 317.173,-61"/>
<polygon fill="midnightblue" stroke="midnightblue" points="317.322,-64.5001 327.322,-61 317.322,-57.5001 317.322,-64.5001"/>
</g>
<!-- Node2019 -->
<g id="node5" class="node"><title>Node2019</title>
<g id="a_node5"><a xlink:href="classLocation.html#aa23d345c5562140fb21682f9cc0cc247" target="_top" xlink:title=" ">
<polygon fill="white" stroke="black" points="304.022,-0 304.022,-32 403.978,-32 403.978,-0 304.022,-0"/>
<text text-anchor="start" x="312.022" y="-18" font-family="Helvetica,sans-Serif" font-size="10.00">Location::longitude</text>
<text text-anchor="middle" x="354" y="-6" font-family="Helvetica,sans-Serif" font-size="10.00">_scale</text>
</a>
</g>
</g>
<!-- Node2017&#45;&gt;Node2019 -->
<g id="edge4" class="edge"><title>Node2017&#45;&gt;Node2019</title>
<path fill="none" stroke="midnightblue" d="M255.277,-50.9011C268.014,-46.3522 283.505,-40.8197 298.364,-35.5129"/>
<polygon fill="midnightblue" stroke="midnightblue" points="299.761,-38.7303 308.002,-32.0708 297.407,-32.1381 299.761,-38.7303"/>
</g>
<!-- Node2019&#45;&gt;Node2016 -->
<g id="edge5" class="edge"><title>Node2019&#45;&gt;Node2016</title>
<path fill="none" stroke="midnightblue" d="M394.528,-32.1182C406.516,-37.0065 419.42,-42.2685 430.443,-46.763"/>
<polygon fill="midnightblue" stroke="midnightblue" points="429.374,-50.1071 439.956,-50.6421 432.017,-43.6253 429.374,-50.1071"/>
</g>
</g>
</svg>
