<?xml version="1.0" encoding="UTF-8" standalone="no"?>
<!DOCTYPE svg PUBLIC "-//W3C//DTD SVG 1.1//EN"
 "http://www.w3.org/Graphics/SVG/1.1/DTD/svg11.dtd">
<!-- Generated by graphviz version 2.30.1 (20130221.2233)
 -->
<!-- Title: AP_Compass_LSM303D::_block_read Pages: 1 -->
<!--zoomable 40 -->
<svg id="main" version="1.1" xmlns="http://www.w3.org/2000/svg" xmlns:xlink="http://www.w3.org/1999/xlink" xml:space="preserve" onload="init(evt)">
<style type="text/css"><![CDATA[
.edge:hover path { stroke: red; }
.edge:hover polygon { stroke: red; fill: red; }
]]></style>
<script type="text/javascript"><![CDATA[
var edges = document.getElementsByTagName('g');
if (edges && edges.length) {
  for (var i=0;i<edges.length;i++) {
    if (edges[i].id.substr(0,4)=='edge') {
      edges[i].setAttribute('class','edge');
    }
  }
}
]]></script>
        <defs>
                <circle id="rim" cx="0" cy="0" r="7"/>
                <circle id="rim2" cx="0" cy="0" r="3.5"/>
                <g id="zoomPlus">
                        <use xlink:href="#rim" fill="#404040">
                                <set attributeName="fill" to="#808080" begin="zoomplus.mouseover" end="zoomplus.mouseout"/>
                        </use>
                        <path d="M-4,0h8M0,-4v8" fill="none" stroke="white" stroke-width="1.5" pointer-events="none"/>
                </g>
                <g id="zoomMin">
                        <use xlink:href="#rim" fill="#404040">
                                <set attributeName="fill" to="#808080" begin="zoomminus.mouseover" end="zoomminus.mouseout"/>
                        </use>
                        <path d="M-4,0h8" fill="none" stroke="white" stroke-width="1.5" pointer-events="none"/>
                </g>
                <g id="dirArrow">
                        <path fill="none" stroke="white" stroke-width="1.5" d="M0,-3.0v7 M-2.5,-0.5L0,-3.0L2.5,-0.5"/>
                </g>
               <g id="resetDef">
                       <use xlink:href="#rim2" fill="#404040">
                               <set attributeName="fill" to="#808080" begin="reset.mouseover" end="reset.mouseout"/>
                       </use>
               </g>
        </defs>

<script type="text/javascript">
var viewWidth = 1164;
var viewHeight = 40;
var sectionId = 'dynsection-4';
</script>
<script xlink:href="svgpan.js"/>
<svg id="graph" class="graph">
<g id="viewport">
<title>AP_Compass_LSM303D::_block_read</title>
<polygon fill="white" stroke="white" points="-4,5 -4,-36 1161,-36 1161,5 -4,5"/>
<!-- Node11 -->
<g id="node1" class="node"><title>Node11</title>
<g id="a_node1"><a xlink:title=" ">
<polygon fill="#bfbfbf" stroke="black" points="1028.42,-0 1028.42,-32 1155.58,-32 1155.58,-0 1028.42,-0"/>
<text text-anchor="start" x="1036.42" y="-18" font-family="Helvetica,sans-Serif" font-size="10.00">AP_Compass_LSM303D</text>
<text text-anchor="middle" x="1092" y="-6" font-family="Helvetica,sans-Serif" font-size="10.00">::_block_read</text>
</a>
</g>
</g>
<!-- Node12 -->
<g id="node2" class="node"><title>Node12</title>
<g id="a_node2"><a xlink:href="classAP__Compass__LSM303D.html#a1720c26ac33ca84858451927adb75350" target="_top" xlink:title=" ">
<polygon fill="white" stroke="black" points="864.417,-0 864.417,-32 991.583,-32 991.583,-0 864.417,-0"/>
<text text-anchor="start" x="872.417" y="-18" font-family="Helvetica,sans-Serif" font-size="10.00">AP_Compass_LSM303D</text>
<text text-anchor="middle" x="928" y="-6" font-family="Helvetica,sans-Serif" font-size="10.00">::_read_sample</text>
</a>
</g>
</g>
<!-- Node11&#45;&gt;Node12 -->
<g id="edge1" class="edge"><title>Node11&#45;&gt;Node12</title>
<path fill="none" stroke="midnightblue" d="M1018.11,-16C1009.31,-16 1000.38,-16 991.734,-16"/>
<polygon fill="midnightblue" stroke="midnightblue" points="1018.37,-19.5001 1028.37,-16 1018.37,-12.5001 1018.37,-19.5001"/>
</g>
<!-- Node13 -->
<g id="node3" class="node"><title>Node13</title>
<g id="a_node3"><a xlink:href="classAP__Compass__LSM303D.html#a2ab7677dcc887ecc3ba926d1122ffb2e" target="_top" xlink:title=" ">
<polygon fill="white" stroke="black" points="700.417,-0 700.417,-32 827.583,-32 827.583,-0 700.417,-0"/>
<text text-anchor="start" x="708.417" y="-18" font-family="Helvetica,sans-Serif" font-size="10.00">AP_Compass_LSM303D</text>
<text text-anchor="middle" x="764" y="-6" font-family="Helvetica,sans-Serif" font-size="10.00">::_update</text>
</a>
</g>
</g>
<!-- Node12&#45;&gt;Node13 -->
<g id="edge2" class="edge"><title>Node12&#45;&gt;Node13</title>
<path fill="none" stroke="midnightblue" d="M854.115,-16C845.31,-16 836.376,-16 827.734,-16"/>
<polygon fill="midnightblue" stroke="midnightblue" points="854.367,-19.5001 864.367,-16 854.367,-12.5001 854.367,-19.5001"/>
</g>
<!-- Node14 -->
<g id="node4" class="node"><title>Node14</title>
<g id="a_node4"><a xlink:href="classAP__Compass__LSM303D.html#a8a56627c6487fbc701c4865f48e3edf4" target="_top" xlink:title=" ">
<polygon fill="white" stroke="black" points="536.417,-0 536.417,-32 663.583,-32 663.583,-0 536.417,-0"/>
<text text-anchor="start" x="544.417" y="-18" font-family="Helvetica,sans-Serif" font-size="10.00">AP_Compass_LSM303D</text>
<text text-anchor="middle" x="600" y="-6" font-family="Helvetica,sans-Serif" font-size="10.00">::init</text>
</a>
</g>
</g>
<!-- Node13&#45;&gt;Node14 -->
<g id="edge3" class="edge"><title>Node13&#45;&gt;Node14</title>
<path fill="none" stroke="midnightblue" d="M690.115,-16C681.31,-16 672.376,-16 663.734,-16"/>
<polygon fill="midnightblue" stroke="midnightblue" points="690.367,-19.5001 700.367,-16 690.367,-12.5001 690.367,-19.5001"/>
</g>
<!-- Node15 -->
<g id="node5" class="node"><title>Node15</title>
<g id="a_node5"><a xlink:href="classAP__Compass__LSM303D.html#a1633f14eb14b05dd82600ce9cc7827ec" target="_top" xlink:title=" ">
<polygon fill="white" stroke="black" points="372.417,-0 372.417,-32 499.583,-32 499.583,-0 372.417,-0"/>
<text text-anchor="start" x="380.417" y="-18" font-family="Helvetica,sans-Serif" font-size="10.00">AP_Compass_LSM303D</text>
<text text-anchor="middle" x="436" y="-6" font-family="Helvetica,sans-Serif" font-size="10.00">::probe</text>
</a>
</g>
</g>
<!-- Node14&#45;&gt;Node15 -->
<g id="edge4" class="edge"><title>Node14&#45;&gt;Node15</title>
<path fill="none" stroke="midnightblue" d="M526.115,-16C517.31,-16 508.376,-16 499.734,-16"/>
<polygon fill="midnightblue" stroke="midnightblue" points="526.367,-19.5001 536.367,-16 526.367,-12.5001 526.367,-19.5001"/>
</g>
<!-- Node16 -->
<g id="node6" class="node"><title>Node16</title>
<g id="a_node6"><a xlink:href="classCompass.html#a1c48170d8c8966b22fb150b1634443ec" target="_top" xlink:title=" ">
<polygon fill="white" stroke="black" points="190.518,-6 190.518,-26 335.482,-26 335.482,-6 190.518,-6"/>
<text text-anchor="middle" x="263" y="-12" font-family="Helvetica,sans-Serif" font-size="10.00">Compass::_detect_backends</text>
</a>
</g>
</g>
<!-- Node15&#45;&gt;Node16 -->
<g id="edge5" class="edge"><title>Node15&#45;&gt;Node16</title>
<path fill="none" stroke="midnightblue" d="M362.115,-16C353.352,-16 344.408,-16 335.662,-16"/>
<polygon fill="midnightblue" stroke="midnightblue" points="362.297,-19.5001 372.297,-16 362.297,-12.5001 362.297,-19.5001"/>
</g>
<!-- Node17 -->
<g id="node7" class="node"><title>Node17</title>
<g id="a_node7"><a xlink:href="classCompass.html#a79db6bfd3fe309c6258d783f126326c6" target="_top" xlink:title=" ">
<polygon fill="white" stroke="black" points="76.7119,-6 76.7119,-26 153.288,-26 153.288,-6 76.7119,-6"/>
<text text-anchor="middle" x="115" y="-12" font-family="Helvetica,sans-Serif" font-size="10.00">Compass::init</text>
</a>
</g>
</g>
<!-- Node16&#45;&gt;Node17 -->
<g id="edge6" class="edge"><title>Node16&#45;&gt;Node17</title>
<path fill="none" stroke="midnightblue" d="M180.187,-16C170.925,-16 161.856,-16 153.587,-16"/>
<polygon fill="midnightblue" stroke="midnightblue" points="180.283,-19.5001 190.283,-16 180.283,-12.5001 180.283,-19.5001"/>
</g>
<!-- Node18 -->
<g id="node8" class="node"><title>Node18</title>
<g id="a_node8"><a xlink:href="AHRS__Test_8cpp.html#a4fc01d736fe50cf5b977f755b675f11d" target="_top" xlink:title=" ">
<polygon fill="white" stroke="black" points="-0.231445,-6 -0.231445,-26 40.2314,-26 40.2314,-6 -0.231445,-6"/>
<text text-anchor="middle" x="20" y="-12" font-family="Helvetica,sans-Serif" font-size="10.00">setup</text>
</a>
</g>
</g>
<!-- Node17&#45;&gt;Node18 -->
<g id="edge7" class="edge"><title>Node17&#45;&gt;Node18</title>
<path fill="none" stroke="midnightblue" d="M66.6796,-16C57.3877,-16 48.1395,-16 40.4198,-16"/>
<polygon fill="midnightblue" stroke="midnightblue" points="66.7092,-19.5001 76.7092,-16 66.7092,-12.5001 66.7092,-19.5001"/>
</g>
</g>
</svg>
        <g id="navigator" transform="translate(0 0)" fill="#404254">
                <rect fill="#f2f5e9" fill-opacity="0.5" stroke="#606060" stroke-width=".5" x="0" y="0" width="60" height="60"/>
                <use id="zoomplus" xlink:href="#zoomPlus" x="17" y="9" onmousedown="handleZoom(evt,'in')"/>
                <use id="zoomminus" xlink:href="#zoomMin" x="42" y="9" onmousedown="handleZoom(evt,'out')"/>
                <use id="reset" xlink:href="#resetDef" x="30" y="36" onmousedown="handleReset()"/>
                <g id="arrowUp" xlink:href="#dirArrow" transform="translate(30 24)" onmousedown="handlePan(0,-1)">
                  <use xlink:href="#rim" fill="#404040">
                        <set attributeName="fill" to="#808080" begin="arrowUp.mouseover" end="arrowUp.mouseout"/>
                  </use>
                  <path fill="none" stroke="white" stroke-width="1.5" d="M0,-3.0v7 M-2.5,-0.5L0,-3.0L2.5,-0.5"/>
                </g>
                <g id="arrowRight" xlink:href="#dirArrow" transform="rotate(90) translate(36 -43)" onmousedown="handlePan(1,0)">
                  <use xlink:href="#rim" fill="#404040">
                        <set attributeName="fill" to="#808080" begin="arrowRight.mouseover" end="arrowRight.mouseout"/>
                  </use>
                  <path fill="none" stroke="white" stroke-width="1.5" d="M0,-3.0v7 M-2.5,-0.5L0,-3.0L2.5,-0.5"/>
                </g>
                <g id="arrowDown" xlink:href="#dirArrow" transform="rotate(180) translate(-30 -48)" onmousedown="handlePan(0,1)">
                  <use xlink:href="#rim" fill="#404040">
                        <set attributeName="fill" to="#808080" begin="arrowDown.mouseover" end="arrowDown.mouseout"/>
                  </use>
                  <path fill="none" stroke="white" stroke-width="1.5" d="M0,-3.0v7 M-2.5,-0.5L0,-3.0L2.5,-0.5"/>
                </g>
                <g id="arrowLeft" xlink:href="#dirArrow" transform="rotate(270) translate(-36 17)" onmousedown="handlePan(-1,0)">
                  <use xlink:href="#rim" fill="#404040">
                        <set attributeName="fill" to="#808080" begin="arrowLeft.mouseover" end="arrowLeft.mouseout"/>
                  </use>
                  <path fill="none" stroke="white" stroke-width="1.5" d="M0,-3.0v7 M-2.5,-0.5L0,-3.0L2.5,-0.5"/>
                </g>
        </g>
        <svg viewBox="0 0 15 15" width="100%" height="30px" preserveAspectRatio="xMaxYMin meet">
         <g id="arrow_out" transform="scale(0.3 0.3)">
          <a xlink:href="classAP__Compass__LSM303D_a0c1045d52b699fe2699e175b62561d39_icgraph_org.svg" target="_base">
           <rect id="button" ry="5" rx="5" y="6" x="6" height="38" width="38"
                fill="#f2f5e9" fill-opacity="0.5" stroke="#606060" stroke-width="1.0"/>
           <path id="arrow"
             d="M 11.500037,31.436501 C 11.940474,20.09759 22.043105,11.32322 32.158766,21.979434 L 37.068811,17.246167 C 37.068811,17.246167 37.088388,32 37.088388,32 L 22.160133,31.978069 C 22.160133,31.978069 26.997745,27.140456 26.997745,27.140456 C 18.528582,18.264221 13.291696,25.230495 11.500037,31.436501 z"
             style="fill:#404040;"/>
          </a>
         </g>
        </svg>
</svg>
