<?xml version="1.0" encoding="UTF-8" standalone="no"?>
<!DOCTYPE svg PUBLIC "-//W3C//DTD SVG 1.1//EN"
 "http://www.w3.org/Graphics/SVG/1.1/DTD/svg11.dtd">
<!-- Generated by graphviz version 2.30.1 (20130221.2233)
 -->
<!-- Title: AP_Mount_Backend::calc_angle_to_location Pages: 1 -->
<svg width="324pt" height="157pt"
 viewBox="0.00 0.00 324.00 157.00" xmlns="http://www.w3.org/2000/svg" xmlns:xlink="http://www.w3.org/1999/xlink">
<g id="graph0" class="graph" transform="scale(1 1) rotate(0) translate(4 153)">
<title>AP_Mount_Backend::calc_angle_to_location</title>
<polygon fill="white" stroke="white" points="-4,5 -4,-153 321,-153 321,5 -4,5"/>
<!-- Node22 -->
<g id="node1" class="node"><title>Node22</title>
<g id="a_node1"><a xlink:title=" ">
<polygon fill="#bfbfbf" stroke="black" points="184.744,-52 184.744,-84 315.256,-84 315.256,-52 184.744,-52"/>
<text text-anchor="start" x="192.744" y="-70" font-family="Helvetica,sans-Serif" font-size="10.00">AP_Mount_Backend::calc</text>
<text text-anchor="middle" x="250" y="-58" font-family="Helvetica,sans-Serif" font-size="10.00">_angle_to_location</text>
</a>
</g>
</g>
<!-- Node23 -->
<g id="node2" class="node"><title>Node23</title>
<g id="a_node2"><a xlink:href="classAP__Mount__SToRM32__serial.html#a6fbcffbed86302ab7ddfa4ddf2786c2a" target="_top" xlink:title=" ">
<polygon fill="white" stroke="black" points="3.18994,-117 3.18994,-149 144.81,-149 144.81,-117 3.18994,-117"/>
<text text-anchor="start" x="11.1899" y="-135" font-family="Helvetica,sans-Serif" font-size="10.00">AP_Mount_SToRM32_serial</text>
<text text-anchor="middle" x="74" y="-123" font-family="Helvetica,sans-Serif" font-size="10.00">::update</text>
</a>
</g>
</g>
<!-- Node22&#45;&gt;Node23 -->
<g id="edge1" class="edge"><title>Node22&#45;&gt;Node23</title>
<path fill="none" stroke="midnightblue" d="M198.107,-87.9522C182.104,-94.1452 164.345,-100.935 148,-107 139.171,-110.276 129.712,-113.705 120.628,-116.957"/>
<polygon fill="midnightblue" stroke="midnightblue" points="199.759,-91.0655 207.815,-84.1851 197.226,-84.5395 199.759,-91.0655"/>
</g>
<!-- Node24 -->
<g id="node3" class="node"><title>Node24</title>
<g id="a_node3"><a xlink:href="classAP__Mount__SToRM32.html#ae445341f9ca88faccc1daa53efb66f1e" target="_top" xlink:title=" ">
<polygon fill="white" stroke="black" points="-0.152344,-78 -0.152344,-98 148.152,-98 148.152,-78 -0.152344,-78"/>
<text text-anchor="middle" x="74" y="-84" font-family="Helvetica,sans-Serif" font-size="10.00">AP_Mount_SToRM32::update</text>
</a>
</g>
</g>
<!-- Node22&#45;&gt;Node24 -->
<g id="edge2" class="edge"><title>Node22&#45;&gt;Node24</title>
<path fill="none" stroke="midnightblue" d="M174.617,-76.5498C165.94,-77.5472 157.091,-78.5642 148.427,-79.5601"/>
<polygon fill="midnightblue" stroke="midnightblue" points="175.168,-80.0095 184.703,-75.3904 174.369,-73.0553 175.168,-80.0095"/>
</g>
<!-- Node25 -->
<g id="node4" class="node"><title>Node25</title>
<g id="a_node4"><a xlink:href="classAP__Mount__Servo.html#a4e46d4c891b157986810f9fba8eb69c6" target="_top" xlink:title=" ">
<polygon fill="white" stroke="black" points="8.73926,-39 8.73926,-59 139.261,-59 139.261,-39 8.73926,-39"/>
<text text-anchor="middle" x="74" y="-45" font-family="Helvetica,sans-Serif" font-size="10.00">AP_Mount_Servo::update</text>
</a>
</g>
</g>
<!-- Node22&#45;&gt;Node25 -->
<g id="edge3" class="edge"><title>Node22&#45;&gt;Node25</title>
<path fill="none" stroke="midnightblue" d="M174.512,-59.8663C162.801,-58.5874 150.78,-57.2748 139.323,-56.0238"/>
<polygon fill="midnightblue" stroke="midnightblue" points="174.382,-63.3728 184.703,-60.9791 175.142,-56.4142 174.382,-63.3728"/>
</g>
<!-- Node26 -->
<g id="node5" class="node"><title>Node26</title>
<g id="a_node5"><a xlink:href="classAP__Mount__Alexmos.html#a1c501a1afd6025356b70bf130982ba24" target="_top" xlink:title=" ">
<polygon fill="white" stroke="black" points="2.62842,-0 2.62842,-20 145.372,-20 145.372,-0 2.62842,-0"/>
<text text-anchor="middle" x="74" y="-6" font-family="Helvetica,sans-Serif" font-size="10.00">AP_Mount_Alexmos::update</text>
</a>
</g>
</g>
<!-- Node22&#45;&gt;Node26 -->
<g id="edge4" class="edge"><title>Node22&#45;&gt;Node26</title>
<path fill="none" stroke="midnightblue" d="M199.644,-48.3886C183.317,-42.1812 164.983,-35.5081 148,-30 137.125,-26.4729 125.211,-23.0333 114.22,-20.029"/>
<polygon fill="midnightblue" stroke="midnightblue" points="198.41,-51.6636 209,-51.9773 200.917,-45.1279 198.41,-51.6636"/>
</g>
</g>
</svg>
