<?xml version="1.0" encoding="UTF-8" standalone="no"?>
<!DOCTYPE svg PUBLIC "-//W3C//DTD SVG 1.1//EN"
 "http://www.w3.org/Graphics/SVG/1.1/DTD/svg11.dtd">
<!-- Generated by graphviz version 2.30.1 (20130221.2233)
 -->
<!-- Title: Linux::PollerThread::mainloop Pages: 1 -->
<svg width="252pt" height="40pt"
 viewBox="0.00 0.00 252.00 40.00" xmlns="http://www.w3.org/2000/svg" xmlns:xlink="http://www.w3.org/1999/xlink">
<g id="graph0" class="graph" transform="scale(1 1) rotate(0) translate(4 36)">
<title>Linux::PollerThread::mainloop</title>
<polygon fill="white" stroke="white" points="-4,5 -4,-36 249,-36 249,5 -4,5"/>
<!-- Node48 -->
<g id="node1" class="node"><title>Node48</title>
<g id="a_node1"><a xlink:title=" ">
<polygon fill="#bfbfbf" stroke="black" points="140.643,-0 140.643,-32 243.357,-32 243.357,-0 140.643,-0"/>
<text text-anchor="start" x="148.643" y="-18" font-family="Helvetica,sans-Serif" font-size="10.00">Linux::PollerThread</text>
<text text-anchor="middle" x="192" y="-6" font-family="Helvetica,sans-Serif" font-size="10.00">::mainloop</text>
</a>
</g>
</g>
<!-- Node49 -->
<g id="node2" class="node"><title>Node49</title>
<g id="a_node2"><a xlink:href="classLinux_1_1PollerThread.html#a2fefe58fdac5f9f040ddd86123cfd67c" target="_top" xlink:title=" ">
<polygon fill="white" stroke="black" points="0.643066,-0 0.643066,-32 103.357,-32 103.357,-0 0.643066,-0"/>
<text text-anchor="start" x="8.64307" y="-18" font-family="Helvetica,sans-Serif" font-size="10.00">Linux::PollerThread</text>
<text text-anchor="middle" x="52" y="-6" font-family="Helvetica,sans-Serif" font-size="10.00">::PollerThread</text>
</a>
</g>
</g>
<!-- Node48&#45;&gt;Node49 -->
<g id="edge1" class="edge"><title>Node48&#45;&gt;Node49</title>
<path fill="none" stroke="midnightblue" d="M130.118,-16C121.26,-16 112.221,-16 103.596,-16"/>
<polygon fill="midnightblue" stroke="midnightblue" points="130.398,-19.5001 140.397,-16 130.397,-12.5001 130.398,-19.5001"/>
</g>
</g>
</svg>
