<?xml version="1.0" encoding="UTF-8" standalone="no"?>
<!DOCTYPE svg PUBLIC "-//W3C//DTD SVG 1.1//EN"
 "http://www.w3.org/Graphics/SVG/1.1/DTD/svg11.dtd">
<!-- Generated by graphviz version 2.30.1 (20130221.2233)
 -->
<!-- Title: HALSITL::SITL_State::_simulator_servos Pages: 1 -->
<svg width="812pt" height="211pt"
 viewBox="0.00 0.00 812.00 211.00" xmlns="http://www.w3.org/2000/svg" xmlns:xlink="http://www.w3.org/1999/xlink">
<g id="graph0" class="graph" transform="scale(1 1) rotate(0) translate(4 207)">
<title>HALSITL::SITL_State::_simulator_servos</title>
<polygon fill="white" stroke="white" points="-4,5 -4,-207 809,-207 809,5 -4,5"/>
<!-- Node584 -->
<g id="node1" class="node"><title>Node584</title>
<g id="a_node1"><a xlink:title=" ">
<polygon fill="#bfbfbf" stroke="black" points="-0.0786133,-81 -0.0786133,-113 112.079,-113 112.079,-81 -0.0786133,-81"/>
<text text-anchor="start" x="7.92139" y="-99" font-family="Helvetica,sans-Serif" font-size="10.00">HALSITL::SITL_State</text>
<text text-anchor="middle" x="56" y="-87" font-family="Helvetica,sans-Serif" font-size="10.00">::_simulator_servos</text>
</a>
</g>
</g>
<!-- Node585 -->
<g id="node2" class="node"><title>Node585</title>
<g id="a_node2"><a xlink:href="namespaceAP__HAL.html#a8293355e35887733b1fd151aef08a787" target="_top" xlink:title=" ">
<polygon fill="white" stroke="black" points="160.323,-183 160.323,-203 249.677,-203 249.677,-183 160.323,-183"/>
<text text-anchor="middle" x="205" y="-189" font-family="Helvetica,sans-Serif" font-size="10.00">AP_HAL::micros</text>
</a>
</g>
</g>
<!-- Node584&#45;&gt;Node585 -->
<g id="edge1" class="edge"><title>Node584&#45;&gt;Node585</title>
<path fill="none" stroke="midnightblue" d="M72.7713,-113.209C89.9456,-130.088 118.874,-156.346 148,-173 151.886,-175.222 156.062,-177.265 160.318,-179.126"/>
<polygon fill="midnightblue" stroke="midnightblue" points="159.1,-182.409 169.683,-182.908 161.722,-175.918 159.1,-182.409"/>
</g>
<!-- Node587 -->
<g id="node4" class="node"><title>Node587</title>
<g id="a_node4"><a xlink:href="classAP__Baro.html#a50ae73cce1699d88638e3dfab4ffd330" target="_top" xlink:title=" ">
<polygon fill="white" stroke="black" points="148.355,-126 148.355,-146 261.645,-146 261.645,-126 148.355,-126"/>
<text text-anchor="middle" x="205" y="-132" font-family="Helvetica,sans-Serif" font-size="10.00">AP_Baro::get_altitude</text>
</a>
</g>
</g>
<!-- Node584&#45;&gt;Node587 -->
<g id="edge3" class="edge"><title>Node584&#45;&gt;Node587</title>
<path fill="none" stroke="midnightblue" d="M112.156,-111.633C126.578,-115.459 142.007,-119.553 156.023,-123.271"/>
<polygon fill="midnightblue" stroke="midnightblue" points="155.381,-126.722 165.944,-125.903 157.176,-119.956 155.381,-126.722"/>
</g>
<!-- Node588 -->
<g id="node5" class="node"><title>Node588</title>
<g id="a_node5"><a xlink:href="AP__Math_8h.html#a5abc8871f1e7781a55afe9bf299f0a39" target="_top" xlink:title=" ">
<polygon fill="white" stroke="black" points="186.165,-87 186.165,-107 223.835,-107 223.835,-87 186.165,-87"/>
<text text-anchor="middle" x="205" y="-93" font-family="Helvetica,sans-Serif" font-size="10.00">MAX</text>
</a>
</g>
</g>
<!-- Node584&#45;&gt;Node588 -->
<g id="edge5" class="edge"><title>Node584&#45;&gt;Node588</title>
<path fill="none" stroke="midnightblue" d="M112.156,-97C133.847,-97 157.815,-97 175.826,-97"/>
<polygon fill="midnightblue" stroke="midnightblue" points="175.938,-100.5 185.938,-97 175.938,-93.5001 175.938,-100.5"/>
</g>
<!-- Node589 -->
<g id="node6" class="node"><title>Node589</title>
<g id="a_node6"><a xlink:href="AP__Math_8h.html#a68558c4f79a8582543daefde13c64abc" target="_top" xlink:title=" ">
<polygon fill="white" stroke="black" points="163.089,-48 163.089,-68 246.911,-68 246.911,-48 163.089,-48"/>
<text text-anchor="middle" x="205" y="-54" font-family="Helvetica,sans-Serif" font-size="10.00">constrain_int16</text>
</a>
</g>
</g>
<!-- Node584&#45;&gt;Node589 -->
<g id="edge6" class="edge"><title>Node584&#45;&gt;Node589</title>
<path fill="none" stroke="midnightblue" d="M112.156,-82.3669C126.578,-78.5405 142.007,-74.4471 156.023,-70.7287"/>
<polygon fill="midnightblue" stroke="midnightblue" points="157.176,-74.044 165.944,-68.0966 155.381,-67.278 157.176,-74.044"/>
</g>
<!-- Node596 -->
<g id="node13" class="node"><title>Node596</title>
<g id="a_node13"><a xlink:href="AP__Math_8h.html#a2a12cce483e9b870da70d30406d82c60" target="_top" xlink:title=" ">
<polygon fill="white" stroke="black" points="180.882,-9 180.882,-29 229.118,-29 229.118,-9 180.882,-9"/>
<text text-anchor="middle" x="205" y="-15" font-family="Helvetica,sans-Serif" font-size="10.00">is_zero</text>
</a>
</g>
</g>
<!-- Node584&#45;&gt;Node596 -->
<g id="edge13" class="edge"><title>Node584&#45;&gt;Node596</title>
<path fill="none" stroke="midnightblue" d="M78.9908,-80.9951C96.9311,-68.4354 123.265,-51.1085 148,-39 155.302,-35.4255 163.411,-32.1576 171.139,-29.3459"/>
<polygon fill="midnightblue" stroke="midnightblue" points="172.342,-32.6332 180.635,-26.0397 170.04,-26.0224 172.342,-32.6332"/>
</g>
<!-- Node586 -->
<g id="node3" class="node"><title>Node586</title>
<g id="a_node3"><a xlink:href="hrt_8c.html#aaec580bcdf1351b82110305f0f6dd437" target="_top" xlink:title=" ">
<polygon fill="white" stroke="black" points="304.101,-183 304.101,-203 377.899,-203 377.899,-183 304.101,-183"/>
<text text-anchor="middle" x="341" y="-189" font-family="Helvetica,sans-Serif" font-size="10.00">hrt_micros32</text>
</a>
</g>
</g>
<!-- Node585&#45;&gt;Node586 -->
<g id="edge2" class="edge"><title>Node585&#45;&gt;Node586</title>
<path fill="none" stroke="midnightblue" d="M249.877,-193C264.003,-193 279.693,-193 293.97,-193"/>
<polygon fill="midnightblue" stroke="midnightblue" points="294.074,-196.5 304.074,-193 294.074,-189.5 294.074,-196.5"/>
</g>
<!-- Node587&#45;&gt;Node587 -->
<g id="edge4" class="edge"><title>Node587&#45;&gt;Node587</title>
<path fill="none" stroke="midnightblue" d="M183.708,-146.048C173.997,-154.771 181.094,-164 205,-164 219.941,-164 228.317,-160.395 230.126,-155.562"/>
<polygon fill="midnightblue" stroke="midnightblue" points="233.276,-154.014 226.292,-146.048 226.784,-156.631 233.276,-154.014"/>
</g>
<!-- Node590 -->
<g id="node7" class="node"><title>Node590</title>
<g id="a_node7"><a xlink:href="AP__Math_8h.html#a20e8f8671c282c69c1954652b6d61585" target="_top" xlink:title=" ">
<polygon fill="white" stroke="black" points="297.978,-48 297.978,-68 384.022,-68 384.022,-48 297.978,-48"/>
<text text-anchor="middle" x="341" y="-54" font-family="Helvetica,sans-Serif" font-size="10.00">constrain_value</text>
</a>
</g>
</g>
<!-- Node589&#45;&gt;Node590 -->
<g id="edge7" class="edge"><title>Node589&#45;&gt;Node590</title>
<path fill="none" stroke="midnightblue" d="M246.933,-58C259.812,-58 274.215,-58 287.769,-58"/>
<polygon fill="midnightblue" stroke="midnightblue" points="287.929,-61.5001 297.929,-58 287.929,-54.5001 287.929,-61.5001"/>
</g>
<!-- Node591 -->
<g id="node8" class="node"><title>Node591</title>
<g id="a_node8"><a xlink:href="namespaceAP.html#afceb236ff617aaaa2b08afacd72532b0" target="_top" xlink:title=" ">
<polygon fill="white" stroke="black" points="434.596,-68 434.596,-88 523.404,-88 523.404,-68 434.596,-68"/>
<text text-anchor="middle" x="479" y="-74" font-family="Helvetica,sans-Serif" font-size="10.00">AP::internalerror</text>
</a>
</g>
</g>
<!-- Node590&#45;&gt;Node591 -->
<g id="edge8" class="edge"><title>Node590&#45;&gt;Node591</title>
<path fill="none" stroke="midnightblue" d="M384.286,-64.2185C396.962,-66.0826 411.035,-68.1523 424.342,-70.1091"/>
<polygon fill="midnightblue" stroke="midnightblue" points="423.929,-73.5859 434.331,-71.5782 424.947,-66.6604 423.929,-73.5859"/>
</g>
<!-- Node592 -->
<g id="node9" class="node"><title>Node592</title>
<g id="a_node9"><a xlink:href="classAP__InternalError.html#ab34174ba770b976b39a18c2b23e854f2" target="_top" xlink:title=" ">
<polygon fill="white" stroke="black" points="420.426,-29 420.426,-49 537.574,-49 537.574,-29 420.426,-29"/>
<text text-anchor="middle" x="479" y="-35" font-family="Helvetica,sans-Serif" font-size="10.00">AP_InternalError::error</text>
</a>
</g>
</g>
<!-- Node590&#45;&gt;Node592 -->
<g id="edge9" class="edge"><title>Node590&#45;&gt;Node592</title>
<path fill="none" stroke="midnightblue" d="M384.286,-52.0924C392.557,-50.9369 401.424,-49.6981 410.284,-48.4603"/>
<polygon fill="midnightblue" stroke="midnightblue" points="410.833,-51.9177 420.253,-47.0676 409.865,-44.985 410.833,-51.9177"/>
</g>
<!-- Node593 -->
<g id="node10" class="node"><title>Node593</title>
<g id="a_node10"><a xlink:href="namespaceAP__HAL.html#a71832f03d849a0c088f04fc98d3c8143" target="_top" xlink:title=" ">
<polygon fill="white" stroke="black" points="574.091,-29 574.091,-49 657.909,-49 657.909,-29 574.091,-29"/>
<text text-anchor="middle" x="616" y="-35" font-family="Helvetica,sans-Serif" font-size="10.00">AP_HAL::panic</text>
</a>
</g>
</g>
<!-- Node592&#45;&gt;Node593 -->
<g id="edge10" class="edge"><title>Node592&#45;&gt;Node593</title>
<path fill="none" stroke="midnightblue" d="M537.644,-39C546.305,-39 555.188,-39 563.705,-39"/>
<polygon fill="midnightblue" stroke="midnightblue" points="563.873,-42.5001 573.873,-39 563.872,-35.5001 563.873,-42.5001"/>
</g>
<!-- Node594 -->
<g id="node11" class="node"><title>Node594</title>
<g id="a_node11"><a xlink:href="stdio_8h.html#aae132cc6af1eb6cf43bf011d8d63e854" target="_top" xlink:title=" ">
<polygon fill="white" stroke="black" points="727.384,-52 727.384,-72 770.616,-72 770.616,-52 727.384,-52"/>
<text text-anchor="middle" x="749" y="-58" font-family="Helvetica,sans-Serif" font-size="10.00">vprintf</text>
</a>
</g>
</g>
<!-- Node593&#45;&gt;Node594 -->
<g id="edge11" class="edge"><title>Node593&#45;&gt;Node594</title>
<path fill="none" stroke="midnightblue" d="M658.09,-46.2142C677.104,-49.5526 699.321,-53.4533 716.913,-56.542"/>
<polygon fill="midnightblue" stroke="midnightblue" points="716.744,-60.0658 727.199,-58.3478 717.954,-53.1712 716.744,-60.0658"/>
</g>
<!-- Node595 -->
<g id="node12" class="node"><title>Node595</title>
<g id="a_node12"><a xlink:href="classAP__HAL_1_1Scheduler.html#a78c4f1b1f192ac1c99544b6cc8f099b0" target="_top" xlink:title=" ">
<polygon fill="white" stroke="black" points="693.751,-1 693.751,-33 804.249,-33 804.249,-1 693.751,-1"/>
<text text-anchor="start" x="701.751" y="-19" font-family="Helvetica,sans-Serif" font-size="10.00">AP_HAL::Scheduler::</text>
<text text-anchor="middle" x="749" y="-7" font-family="Helvetica,sans-Serif" font-size="10.00">delay_microseconds</text>
</a>
</g>
</g>
<!-- Node593&#45;&gt;Node595 -->
<g id="edge12" class="edge"><title>Node593&#45;&gt;Node595</title>
<path fill="none" stroke="midnightblue" d="M658.09,-32.0994C666.18,-30.7408 674.849,-29.2849 683.495,-27.8329"/>
<polygon fill="midnightblue" stroke="midnightblue" points="684.316,-31.2441 693.599,-26.1361 683.157,-24.3407 684.316,-31.2441"/>
</g>
</g>
</svg>
