<?xml version="1.0" encoding="UTF-8" standalone="no"?>
<!DOCTYPE svg PUBLIC "-//W3C//DTD SVG 1.1//EN"
 "http://www.w3.org/Graphics/SVG/1.1/DTD/svg11.dtd">
<!-- Generated by graphviz version 2.30.1 (20130221.2233)
 -->
<!-- Title: ChibiOS::UARTDriver::_timer_tick Pages: 1 -->
<svg width="572pt" height="40pt"
 viewBox="0.00 0.00 572.00 40.00" xmlns="http://www.w3.org/2000/svg" xmlns:xlink="http://www.w3.org/1999/xlink">
<g id="graph0" class="graph" transform="scale(1 1) rotate(0) translate(4 36)">
<title>ChibiOS::UARTDriver::_timer_tick</title>
<polygon fill="white" stroke="white" points="-4,5 -4,-36 569,-36 569,5 -4,5"/>
<!-- Node39 -->
<g id="node1" class="node"><title>Node39</title>
<g id="a_node1"><a xlink:title=" ">
<polygon fill="#bfbfbf" stroke="black" points="450.748,-0 450.748,-32 563.252,-32 563.252,-0 450.748,-0"/>
<text text-anchor="start" x="458.748" y="-18" font-family="Helvetica,sans-Serif" font-size="10.00">ChibiOS::UARTDriver</text>
<text text-anchor="middle" x="507" y="-6" font-family="Helvetica,sans-Serif" font-size="10.00">::_timer_tick</text>
</a>
</g>
</g>
<!-- Node40 -->
<g id="node2" class="node"><title>Node40</title>
<g id="a_node2"><a xlink:href="classChibiOS_1_1UARTDriver.html#af445518212a5fb4c0f21f9d528d09e5d" target="_top" xlink:title=" ">
<polygon fill="white" stroke="black" points="300.748,-0 300.748,-32 413.252,-32 413.252,-0 300.748,-0"/>
<text text-anchor="start" x="308.748" y="-18" font-family="Helvetica,sans-Serif" font-size="10.00">ChibiOS::UARTDriver</text>
<text text-anchor="middle" x="357" y="-6" font-family="Helvetica,sans-Serif" font-size="10.00">::uart_thread</text>
</a>
</g>
</g>
<!-- Node39&#45;&gt;Node40 -->
<g id="edge1" class="edge"><title>Node39&#45;&gt;Node40</title>
<path fill="none" stroke="midnightblue" d="M440.381,-16C431.357,-16 422.165,-16 413.35,-16"/>
<polygon fill="midnightblue" stroke="midnightblue" points="440.469,-19.5001 450.469,-16 440.469,-12.5001 440.469,-19.5001"/>
</g>
<!-- Node41 -->
<g id="node3" class="node"><title>Node41</title>
<g id="a_node3"><a xlink:href="classChibiOS_1_1UARTDriver.html#a21f70260a0e24ab9457c83c18101def1" target="_top" xlink:title=" ">
<polygon fill="white" stroke="black" points="150.748,-0 150.748,-32 263.252,-32 263.252,-0 150.748,-0"/>
<text text-anchor="start" x="158.748" y="-18" font-family="Helvetica,sans-Serif" font-size="10.00">ChibiOS::UARTDriver</text>
<text text-anchor="middle" x="207" y="-6" font-family="Helvetica,sans-Serif" font-size="10.00">::thread_init</text>
</a>
</g>
</g>
<!-- Node40&#45;&gt;Node41 -->
<g id="edge2" class="edge"><title>Node40&#45;&gt;Node41</title>
<path fill="none" stroke="midnightblue" d="M290.381,-16C281.357,-16 272.165,-16 263.35,-16"/>
<polygon fill="midnightblue" stroke="midnightblue" points="290.469,-19.5001 300.469,-16 290.469,-12.5001 290.469,-19.5001"/>
</g>
<!-- Node42 -->
<g id="node4" class="node"><title>Node42</title>
<g id="a_node4"><a xlink:href="classChibiOS_1_1UARTDriver.html#a9e0f62386e505ff552ae03611b0ee341" target="_top" xlink:title=" ">
<polygon fill="white" stroke="black" points="0.748047,-0 0.748047,-32 113.252,-32 113.252,-0 0.748047,-0"/>
<text text-anchor="start" x="8.74805" y="-18" font-family="Helvetica,sans-Serif" font-size="10.00">ChibiOS::UARTDriver</text>
<text text-anchor="middle" x="57" y="-6" font-family="Helvetica,sans-Serif" font-size="10.00">::begin</text>
</a>
</g>
</g>
<!-- Node41&#45;&gt;Node42 -->
<g id="edge3" class="edge"><title>Node41&#45;&gt;Node42</title>
<path fill="none" stroke="midnightblue" d="M140.381,-16C131.357,-16 122.165,-16 113.35,-16"/>
<polygon fill="midnightblue" stroke="midnightblue" points="140.469,-19.5001 150.469,-16 140.469,-12.5001 140.469,-19.5001"/>
</g>
</g>
</svg>
