<?xml version="1.0" encoding="UTF-8" standalone="no"?>
<!DOCTYPE svg PUBLIC "-//W3C//DTD SVG 1.1//EN"
 "http://www.w3.org/Graphics/SVG/1.1/DTD/svg11.dtd">
<!-- Generated by graphviz version 2.30.1 (20130221.2233)
 -->
<!-- Title: AP_AHRS::init Pages: 1 -->
<svg width="1024pt" height="286pt"
 viewBox="0.00 0.00 1024.00 286.00" xmlns="http://www.w3.org/2000/svg" xmlns:xlink="http://www.w3.org/1999/xlink">
<g id="graph0" class="graph" transform="scale(1 1) rotate(0) translate(4 282)">
<title>AP_AHRS::init</title>
<polygon fill="white" stroke="white" points="-4,5 -4,-282 1021,-282 1021,5 -4,5"/>
<!-- Node2209 -->
<g id="node1" class="node"><title>Node2209</title>
<g id="a_node1"><a xlink:title=" ">
<polygon fill="#bfbfbf" stroke="black" points="0.487793,-71 0.487793,-91 81.5122,-91 81.5122,-71 0.487793,-71"/>
<text text-anchor="middle" x="41" y="-77" font-family="Helvetica,sans-Serif" font-size="10.00">AP_AHRS::init</text>
</a>
</g>
</g>
<!-- Node2210 -->
<g id="node2" class="node"><title>Node2210</title>
<g id="a_node2"><a xlink:href="classAP__AHRS.html#a7284d5e65c5863f5678b4d93000b116e" target="_top" xlink:title=" ">
<polygon fill="white" stroke="black" points="118.456,-71 118.456,-91 269.544,-91 269.544,-71 118.456,-71"/>
<text text-anchor="middle" x="194" y="-77" font-family="Helvetica,sans-Serif" font-size="10.00">AP_AHRS::update_orientation</text>
</a>
</g>
</g>
<!-- Node2209&#45;&gt;Node2210 -->
<g id="edge1" class="edge"><title>Node2209&#45;&gt;Node2210</title>
<path fill="none" stroke="midnightblue" d="M81.6735,-81C89.9514,-81 98.9773,-81 108.191,-81"/>
<polygon fill="midnightblue" stroke="midnightblue" points="108.236,-84.5001 118.236,-81 108.236,-77.5001 108.236,-84.5001"/>
</g>
<!-- Node2211 -->
<g id="node3" class="node"><title>Node2211</title>
<g id="a_node3"><a xlink:href="namespaceAP.html#ac571aa5a2ef71b7f4b4b2bfa09143fb9" target="_top" xlink:title=" ">
<polygon fill="white" stroke="black" points="339.16,-142 339.16,-162 386.84,-162 386.84,-142 339.16,-142"/>
<text text-anchor="middle" x="363" y="-148" font-family="Helvetica,sans-Serif" font-size="10.00">AP::ins</text>
</a>
</g>
</g>
<!-- Node2210&#45;&gt;Node2211 -->
<g id="edge2" class="edge"><title>Node2210&#45;&gt;Node2211</title>
<path fill="none" stroke="midnightblue" d="M215.629,-91.1381C237.739,-101.848 273.986,-118.958 306,-132 313.529,-135.067 321.725,-138.14 329.465,-140.925"/>
<polygon fill="midnightblue" stroke="midnightblue" points="328.347,-144.241 338.942,-144.276 330.681,-137.642 328.347,-144.241"/>
</g>
<!-- Node2222 -->
<g id="node14" class="node"><title>Node2222</title>
<g id="a_node14"><a xlink:href="classAP__InertialSensor.html#a101cb0b8b188ced0f16db50a5e45fb7b" target="_top" xlink:title=" ">
<polygon fill="white" stroke="black" points="306.631,-91 306.631,-123 419.369,-123 419.369,-91 306.631,-91"/>
<text text-anchor="start" x="314.631" y="-109" font-family="Helvetica,sans-Serif" font-size="10.00">AP_InertialSensor::</text>
<text text-anchor="middle" x="363" y="-97" font-family="Helvetica,sans-Serif" font-size="10.00">set_board_orientation</text>
</a>
</g>
</g>
<!-- Node2210&#45;&gt;Node2222 -->
<g id="edge13" class="edge"><title>Node2210&#45;&gt;Node2222</title>
<path fill="none" stroke="midnightblue" d="M259.567,-91.0523C271.685,-92.939 284.365,-94.9131 296.511,-96.8042"/>
<polygon fill="midnightblue" stroke="midnightblue" points="296.145,-100.289 306.565,-98.3693 297.222,-93.3725 296.145,-100.289"/>
</g>
<!-- Node2223 -->
<g id="node15" class="node"><title>Node2223</title>
<g id="a_node15"><a xlink:href="classCompass.html#ad7386676db63a3c8da5ecaa977522526" target="_top" xlink:title=" ">
<polygon fill="white" stroke="black" points="308.865,-40 308.865,-72 417.135,-72 417.135,-40 308.865,-40"/>
<text text-anchor="start" x="316.865" y="-58" font-family="Helvetica,sans-Serif" font-size="10.00">Compass::set_board</text>
<text text-anchor="middle" x="363" y="-46" font-family="Helvetica,sans-Serif" font-size="10.00">_orientation</text>
</a>
</g>
</g>
<!-- Node2210&#45;&gt;Node2223 -->
<g id="edge14" class="edge"><title>Node2210&#45;&gt;Node2223</title>
<path fill="none" stroke="midnightblue" d="M261.963,-70.9756C274.086,-69.1608 286.693,-67.2735 298.707,-65.4751"/>
<polygon fill="midnightblue" stroke="midnightblue" points="299.263,-68.9309 308.635,-63.9888 298.227,-62.008 299.263,-68.9309"/>
</g>
<!-- Node2224 -->
<g id="node16" class="node"><title>Node2224</title>
<g id="a_node16"><a xlink:href="classMatrix3.html#a62587bd216436f09f06b9e1330f84bc0" target="_top" xlink:title=" ">
<polygon fill="white" stroke="black" points="311.931,-1 311.931,-21 414.069,-21 414.069,-1 311.931,-1"/>
<text text-anchor="middle" x="363" y="-7" font-family="Helvetica,sans-Serif" font-size="10.00">Matrix3::from_euler</text>
</a>
</g>
</g>
<!-- Node2210&#45;&gt;Node2224 -->
<g id="edge15" class="edge"><title>Node2210&#45;&gt;Node2224</title>
<path fill="none" stroke="midnightblue" d="M216.062,-70.9038C238.228,-60.4223 274.243,-43.7996 306,-31 311.459,-28.7996 317.265,-26.5873 322.991,-24.4776"/>
<polygon fill="midnightblue" stroke="midnightblue" points="324.267,-27.7382 332.479,-21.044 321.884,-21.156 324.267,-27.7382"/>
</g>
<!-- Node2212 -->
<g id="node4" class="node"><title>Node2212</title>
<g id="a_node4"><a xlink:href="classAP__InertialSensor.html#a2cf12201d711e4712a62ad10893be06f" target="_top" xlink:title=" ">
<polygon fill="white" stroke="black" points="455.921,-136 455.921,-168 558.079,-168 558.079,-136 455.921,-136"/>
<text text-anchor="start" x="463.921" y="-154" font-family="Helvetica,sans-Serif" font-size="10.00">AP_InertialSensor::</text>
<text text-anchor="middle" x="507" y="-142" font-family="Helvetica,sans-Serif" font-size="10.00">get_singleton</text>
</a>
</g>
</g>
<!-- Node2211&#45;&gt;Node2212 -->
<g id="edge3" class="edge"><title>Node2211&#45;&gt;Node2212</title>
<path fill="none" stroke="midnightblue" d="M387.131,-152C403.07,-152 425.033,-152 445.747,-152"/>
<polygon fill="midnightblue" stroke="midnightblue" points="445.783,-155.5 455.783,-152 445.783,-148.5 445.783,-155.5"/>
</g>
<!-- Node2213 -->
<g id="node5" class="node"><title>Node2213</title>
<g id="a_node5"><a xlink:href="classAP__InertialSensor.html#affc63e7edc9be1b0e128b8da3b8a24a5" target="_top" xlink:title=" ">
<polygon fill="white" stroke="black" points="593.921,-136 593.921,-168 696.079,-168 696.079,-136 593.921,-136"/>
<text text-anchor="start" x="601.921" y="-154" font-family="Helvetica,sans-Serif" font-size="10.00">AP_InertialSensor::</text>
<text text-anchor="middle" x="645" y="-142" font-family="Helvetica,sans-Serif" font-size="10.00">AP_InertialSensor</text>
</a>
</g>
</g>
<!-- Node2212&#45;&gt;Node2213 -->
<g id="edge4" class="edge"><title>Node2212&#45;&gt;Node2213</title>
<path fill="none" stroke="midnightblue" d="M558.255,-152C566.432,-152 574.976,-152 583.37,-152"/>
<polygon fill="midnightblue" stroke="midnightblue" points="583.498,-155.5 593.498,-152 583.498,-148.5 583.498,-155.5"/>
</g>
<!-- Node2214 -->
<g id="node6" class="node"><title>Node2214</title>
<g id="a_node6"><a xlink:href="namespaceAP__HAL.html#a71832f03d849a0c088f04fc98d3c8143" target="_top" xlink:title=" ">
<polygon fill="white" stroke="black" points="754.091,-213 754.091,-233 837.909,-233 837.909,-213 754.091,-213"/>
<text text-anchor="middle" x="796" y="-219" font-family="Helvetica,sans-Serif" font-size="10.00">AP_HAL::panic</text>
</a>
</g>
</g>
<!-- Node2213&#45;&gt;Node2214 -->
<g id="edge5" class="edge"><title>Node2213&#45;&gt;Node2214</title>
<path fill="none" stroke="midnightblue" d="M669.673,-168.037C686.52,-178.944 709.982,-193.132 732,-203 737.367,-205.405 743.11,-207.649 748.863,-209.7"/>
<polygon fill="midnightblue" stroke="midnightblue" points="747.896,-213.068 758.491,-212.963 750.143,-206.438 747.896,-213.068"/>
</g>
<!-- Node2217 -->
<g id="node9" class="node"><title>Node2217</title>
<g id="a_node9"><a xlink:href="classAP__Param.html#a5f6dcfce1c0a79cf5bd81283e22f3201" target="_top" xlink:title=" ">
<polygon fill="white" stroke="black" points="732.69,-162 732.69,-194 859.31,-194 859.31,-162 732.69,-162"/>
<text text-anchor="start" x="740.69" y="-180" font-family="Helvetica,sans-Serif" font-size="10.00">AP_Param::setup_object</text>
<text text-anchor="middle" x="796" y="-168" font-family="Helvetica,sans-Serif" font-size="10.00">_defaults</text>
</a>
</g>
</g>
<!-- Node2213&#45;&gt;Node2217 -->
<g id="edge8" class="edge"><title>Node2213&#45;&gt;Node2217</title>
<path fill="none" stroke="midnightblue" d="M696.445,-160.802C704.848,-162.269 713.709,-163.815 722.532,-165.355"/>
<polygon fill="midnightblue" stroke="midnightblue" points="721.999,-168.814 732.451,-167.085 723.202,-161.919 721.999,-168.814"/>
</g>
<!-- Node2220 -->
<g id="node12" class="node"><title>Node2220</title>
<g id="a_node12"><a xlink:href="classLowPassFilter.html#a1cc5016de137b01080fa0a6fa7fe53cd" target="_top" xlink:title=" ">
<polygon fill="white" stroke="black" points="747.153,-111 747.153,-143 844.847,-143 844.847,-111 747.153,-111"/>
<text text-anchor="start" x="755.153" y="-129" font-family="Helvetica,sans-Serif" font-size="10.00">LowPassFilter::set</text>
<text text-anchor="middle" x="796" y="-117" font-family="Helvetica,sans-Serif" font-size="10.00">_cutoff_frequency</text>
</a>
</g>
</g>
<!-- Node2213&#45;&gt;Node2220 -->
<g id="edge11" class="edge"><title>Node2213&#45;&gt;Node2220</title>
<path fill="none" stroke="midnightblue" d="M696.445,-143.536C709.496,-141.346 723.651,-138.971 737.054,-136.723"/>
<polygon fill="midnightblue" stroke="midnightblue" points="737.842,-140.139 747.125,-135.033 736.684,-133.236 737.842,-140.139"/>
</g>
<!-- Node2221 -->
<g id="node13" class="node"><title>Node2221</title>
<g id="a_node13"><a xlink:href="classAP__AccelCal.html#a6ecd2cc4987ebcec35f59a538a131ace" target="_top" xlink:title=" ">
<polygon fill="white" stroke="black" points="739.37,-60 739.37,-92 852.63,-92 852.63,-60 739.37,-60"/>
<text text-anchor="start" x="747.37" y="-78" font-family="Helvetica,sans-Serif" font-size="10.00">AP_AccelCal::register</text>
<text text-anchor="middle" x="796" y="-66" font-family="Helvetica,sans-Serif" font-size="10.00">_client</text>
</a>
</g>
</g>
<!-- Node2213&#45;&gt;Node2221 -->
<g id="edge12" class="edge"><title>Node2213&#45;&gt;Node2221</title>
<path fill="none" stroke="midnightblue" d="M671.467,-135.972C688.325,-125.67 711.098,-112.33 732,-102 735.986,-100.03 740.159,-98.0781 744.379,-96.1814"/>
<polygon fill="midnightblue" stroke="midnightblue" points="745.877,-99.3464 753.636,-92.132 743.072,-92.9331 745.877,-99.3464"/>
</g>
<!-- Node2215 -->
<g id="node7" class="node"><title>Node2215</title>
<g id="a_node7"><a xlink:href="stdio_8h.html#aae132cc6af1eb6cf43bf011d8d63e854" target="_top" xlink:title=" ">
<polygon fill="white" stroke="black" points="934.384,-258 934.384,-278 977.616,-278 977.616,-258 934.384,-258"/>
<text text-anchor="middle" x="956" y="-264" font-family="Helvetica,sans-Serif" font-size="10.00">vprintf</text>
</a>
</g>
</g>
<!-- Node2214&#45;&gt;Node2215 -->
<g id="edge6" class="edge"><title>Node2214&#45;&gt;Node2215</title>
<path fill="none" stroke="midnightblue" d="M832.458,-233.099C860.089,-240.968 898.054,-251.781 924.373,-259.277"/>
<polygon fill="midnightblue" stroke="midnightblue" points="923.611,-262.699 934.187,-262.072 925.528,-255.967 923.611,-262.699"/>
</g>
<!-- Node2216 -->
<g id="node8" class="node"><title>Node2216</title>
<g id="a_node8"><a xlink:href="classAP__HAL_1_1Scheduler.html#a78c4f1b1f192ac1c99544b6cc8f099b0" target="_top" xlink:title=" ">
<polygon fill="white" stroke="black" points="900.751,-207 900.751,-239 1011.25,-239 1011.25,-207 900.751,-207"/>
<text text-anchor="start" x="908.751" y="-225" font-family="Helvetica,sans-Serif" font-size="10.00">AP_HAL::Scheduler::</text>
<text text-anchor="middle" x="956" y="-213" font-family="Helvetica,sans-Serif" font-size="10.00">delay_microseconds</text>
</a>
</g>
</g>
<!-- Node2214&#45;&gt;Node2216 -->
<g id="edge7" class="edge"><title>Node2214&#45;&gt;Node2216</title>
<path fill="none" stroke="midnightblue" d="M838.1,-223C854.075,-223 872.759,-223 890.444,-223"/>
<polygon fill="midnightblue" stroke="midnightblue" points="890.713,-226.5 900.713,-223 890.713,-219.5 890.713,-226.5"/>
</g>
<!-- Node2218 -->
<g id="node10" class="node"><title>Node2218</title>
<g id="a_node10"><a xlink:href="classAP__Param.html#acd4b14f793c37f162e298761d2155ca6" target="_top" xlink:title=" ">
<polygon fill="white" stroke="black" points="899.641,-168 899.641,-188 1012.36,-188 1012.36,-168 899.641,-168"/>
<text text-anchor="middle" x="956" y="-174" font-family="Helvetica,sans-Serif" font-size="10.00">AP_Param::set_value</text>
</a>
</g>
</g>
<!-- Node2217&#45;&gt;Node2218 -->
<g id="edge9" class="edge"><title>Node2217&#45;&gt;Node2218</title>
<path fill="none" stroke="midnightblue" d="M859.446,-178C869.241,-178 879.391,-178 889.257,-178"/>
<polygon fill="midnightblue" stroke="midnightblue" points="889.41,-181.5 899.41,-178 889.41,-174.5 889.41,-181.5"/>
</g>
<!-- Node2219 -->
<g id="node11" class="node"><title>Node2219</title>
<g id="a_node11"><a xlink:href="classAP__Param.html#a7535a9b529dae326dcebb6be33dbbe9a" target="_top" xlink:title=" ">
<polygon fill="white" stroke="black" points="896.301,-117 896.301,-149 1015.7,-149 1015.7,-117 896.301,-117"/>
<text text-anchor="start" x="904.301" y="-135" font-family="Helvetica,sans-Serif" font-size="10.00">AP_Param::get_default</text>
<text text-anchor="middle" x="956" y="-123" font-family="Helvetica,sans-Serif" font-size="10.00">_value</text>
</a>
</g>
</g>
<!-- Node2217&#45;&gt;Node2219 -->
<g id="edge10" class="edge"><title>Node2217&#45;&gt;Node2219</title>
<path fill="none" stroke="midnightblue" d="M853.595,-161.881C865.079,-158.61 877.251,-155.144 889.026,-151.79"/>
<polygon fill="midnightblue" stroke="midnightblue" points="890.141,-155.112 898.8,-149.006 888.224,-148.379 890.141,-155.112"/>
</g>
</g>
</svg>
