<?xml version="1.0" encoding="UTF-8" standalone="no"?>
<!DOCTYPE svg PUBLIC "-//W3C//DTD SVG 1.1//EN"
 "http://www.w3.org/Graphics/SVG/1.1/DTD/svg11.dtd">
<!-- Generated by graphviz version 2.30.1 (20130221.2233)
 -->
<!-- Title: NavEKF2::Log_Write_EKF1 Pages: 1 -->
<svg width="458pt" height="40pt"
 viewBox="0.00 0.00 458.00 40.00" xmlns="http://www.w3.org/2000/svg" xmlns:xlink="http://www.w3.org/1999/xlink">
<g id="graph0" class="graph" transform="scale(1 1) rotate(0) translate(4 36)">
<title>NavEKF2::Log_Write_EKF1</title>
<polygon fill="white" stroke="white" points="-4,5 -4,-36 455,-36 455,5 -4,5"/>
<!-- Node1478 -->
<g id="node1" class="node"><title>Node1478</title>
<g id="a_node1"><a xlink:title=" ">
<polygon fill="#bfbfbf" stroke="black" points="309.839,-6 309.839,-26 450.161,-26 450.161,-6 309.839,-6"/>
<text text-anchor="middle" x="380" y="-12" font-family="Helvetica,sans-Serif" font-size="10.00">NavEKF2::Log_Write_EKF1</text>
</a>
</g>
</g>
<!-- Node1479 -->
<g id="node2" class="node"><title>Node1479</title>
<g id="a_node2"><a xlink:href="classNavEKF2.html#ae038ac654f847b58d6cd0fbc75d2fdd9" target="_top" xlink:title=" ">
<polygon fill="white" stroke="black" points="164.125,-6 164.125,-26 273.875,-26 273.875,-6 164.125,-6"/>
<text text-anchor="middle" x="219" y="-12" font-family="Helvetica,sans-Serif" font-size="10.00">NavEKF2::Log_Write</text>
</a>
</g>
</g>
<!-- Node1478&#45;&gt;Node1479 -->
<g id="edge1" class="edge"><title>Node1478&#45;&gt;Node1479</title>
<path fill="none" stroke="midnightblue" d="M299.647,-16C291.042,-16 282.435,-16 274.229,-16"/>
<polygon fill="midnightblue" stroke="midnightblue" points="299.723,-19.5001 309.723,-16 299.723,-12.5001 299.723,-19.5001"/>
</g>
<!-- Node1480 -->
<g id="node3" class="node"><title>Node1480</title>
<g id="a_node3"><a xlink:href="classAP__AHRS__NavEKF.html#a1c5d4cbc750d19efec25a619c34be78a" target="_top" xlink:title=" ">
<polygon fill="white" stroke="black" points="0.140625,-0 0.140625,-32 127.859,-32 127.859,-0 0.140625,-0"/>
<text text-anchor="start" x="8.14062" y="-18" font-family="Helvetica,sans-Serif" font-size="10.00">AP_AHRS_NavEKF::Log</text>
<text text-anchor="middle" x="64" y="-6" font-family="Helvetica,sans-Serif" font-size="10.00">_Write</text>
</a>
</g>
</g>
<!-- Node1479&#45;&gt;Node1480 -->
<g id="edge2" class="edge"><title>Node1479&#45;&gt;Node1480</title>
<path fill="none" stroke="midnightblue" d="M154.029,-16C145.377,-16 136.505,-16 127.873,-16"/>
<polygon fill="midnightblue" stroke="midnightblue" points="154.058,-19.5001 164.058,-16 154.058,-12.5001 154.058,-19.5001"/>
</g>
</g>
</svg>
