<?xml version="1.0" encoding="UTF-8" standalone="no"?>
<!DOCTYPE svg PUBLIC "-//W3C//DTD SVG 1.1//EN"
 "http://www.w3.org/Graphics/SVG/1.1/DTD/svg11.dtd">
<!-- Generated by graphviz version 2.30.1 (20130221.2233)
 -->
<!-- Title: MMLPlayer::next_action Pages: 1 -->
<!--zoomable 393 -->
<svg id="main" version="1.1" xmlns="http://www.w3.org/2000/svg" xmlns:xlink="http://www.w3.org/1999/xlink" xml:space="preserve" onload="init(evt)">
<style type="text/css"><![CDATA[
.edge:hover path { stroke: red; }
.edge:hover polygon { stroke: red; fill: red; }
]]></style>
<script type="text/javascript"><![CDATA[
var edges = document.getElementsByTagName('g');
if (edges && edges.length) {
  for (var i=0;i<edges.length;i++) {
    if (edges[i].id.substr(0,4)=='edge') {
      edges[i].setAttribute('class','edge');
    }
  }
}
]]></script>
        <defs>
                <circle id="rim" cx="0" cy="0" r="7"/>
                <circle id="rim2" cx="0" cy="0" r="3.5"/>
                <g id="zoomPlus">
                        <use xlink:href="#rim" fill="#404040">
                                <set attributeName="fill" to="#808080" begin="zoomplus.mouseover" end="zoomplus.mouseout"/>
                        </use>
                        <path d="M-4,0h8M0,-4v8" fill="none" stroke="white" stroke-width="1.5" pointer-events="none"/>
                </g>
                <g id="zoomMin">
                        <use xlink:href="#rim" fill="#404040">
                                <set attributeName="fill" to="#808080" begin="zoomminus.mouseover" end="zoomminus.mouseout"/>
                        </use>
                        <path d="M-4,0h8" fill="none" stroke="white" stroke-width="1.5" pointer-events="none"/>
                </g>
                <g id="dirArrow">
                        <path fill="none" stroke="white" stroke-width="1.5" d="M0,-3.0v7 M-2.5,-0.5L0,-3.0L2.5,-0.5"/>
                </g>
               <g id="resetDef">
                       <use xlink:href="#rim2" fill="#404040">
                               <set attributeName="fill" to="#808080" begin="reset.mouseover" end="reset.mouseout"/>
                       </use>
               </g>
        </defs>

<script type="text/javascript">
var viewWidth = 878;
var viewHeight = 393;
var sectionId = 'dynsection-0';
</script>
<script xlink:href="svgpan.js"/>
<svg id="graph" class="graph">
<g id="viewport">
<title>MMLPlayer::next_action</title>
<polygon fill="white" stroke="white" points="-4,5 -4,-388.675 875,-388.675 875,5 -4,5"/>
<!-- Node0 -->
<g id="node1" class="node"><title>Node0</title>
<g id="a_node1"><a xlink:title=" ">
<polygon fill="#bfbfbf" stroke="black" points="0.364746,-222 0.364746,-242 123.635,-242 123.635,-222 0.364746,-222"/>
<text text-anchor="middle" x="62" y="-228" font-family="Helvetica,sans-Serif" font-size="10.00">MMLPlayer::next_action</text>
</a>
</g>
</g>
<!-- Node1 -->
<g id="node2" class="node"><title>Node1</title>
<g id="a_node2"><a xlink:href="classMMLPlayer.html#a9c114c42a1da9aa87e2f8c402d2e6a3e" target="_top" xlink:title=" ">
<polygon fill="white" stroke="black" points="160.87,-320 160.87,-340 289.13,-340 289.13,-320 160.87,-320"/>
<text text-anchor="middle" x="225" y="-326" font-family="Helvetica,sans-Serif" font-size="10.00">MMLPlayer::start_silence</text>
</a>
</g>
</g>
<!-- Node0&#45;&gt;Node1 -->
<g id="edge1" class="edge"><title>Node0&#45;&gt;Node1</title>
<path fill="none" stroke="midnightblue" d="M74.2318,-242.089C91.6055,-257.301 126.499,-286.315 160,-305 167.488,-309.176 175.816,-312.978 183.922,-316.287"/>
<polygon fill="midnightblue" stroke="midnightblue" points="182.685,-319.561 193.273,-319.937 185.23,-313.04 182.685,-319.561"/>
</g>
<!-- Node5 -->
<g id="node6" class="node"><title>Node5</title>
<g id="a_node6"><a xlink:href="classMMLPlayer.html#a22ae97794d817c3eb9c248380732da6a" target="_top" xlink:title=" ">
<polygon fill="white" stroke="black" points="325.98,-164 325.98,-184 442.02,-184 442.02,-164 325.98,-164"/>
<text text-anchor="middle" x="384" y="-170" font-family="Helvetica,sans-Serif" font-size="10.00">MMLPlayer::next_char</text>
</a>
</g>
</g>
<!-- Node0&#45;&gt;Node5 -->
<g id="edge5" class="edge"><title>Node0&#45;&gt;Node5</title>
<path fill="none" stroke="midnightblue" d="M123.792,-222.088C169.558,-214.496 233.803,-203.565 290,-193 301.399,-190.857 313.56,-188.456 325.202,-186.101"/>
<polygon fill="midnightblue" stroke="midnightblue" points="326.167,-189.477 335.267,-184.051 324.769,-182.617 326.167,-189.477"/>
</g>
<!-- Node6 -->
<g id="node7" class="node"><title>Node6</title>
<g id="a_node7"><a xlink:href="classMMLPlayer.html#aca473b99b4ade0145244b2959efca869" target="_top" xlink:title=" ">
<polygon fill="white" stroke="black" points="179.766,-242 179.766,-262 270.234,-262 270.234,-242 179.766,-242"/>
<text text-anchor="middle" x="225" y="-248" font-family="Helvetica,sans-Serif" font-size="10.00">MMLPlayer::play</text>
</a>
</g>
</g>
<!-- Node0&#45;&gt;Node6 -->
<g id="edge6" class="edge"><title>Node0&#45;&gt;Node6</title>
<path fill="none" stroke="midnightblue" d="M123.867,-232.993C142.008,-234.904 161.565,-237.475 178.54,-240.207"/>
<polygon fill="midnightblue" stroke="midnightblue" points="178.297,-243.715 188.739,-241.924 179.459,-236.812 178.297,-243.715"/>
</g>
<!-- Node7 -->
<g id="node8" class="node"><title>Node7</title>
<g id="a_node8"><a xlink:href="classMMLPlayer.html#a5af6d6d9d5636bba5d656c73bc3ab58a" target="_top" xlink:title=" ">
<polygon fill="white" stroke="black" points="338.488,-261 338.488,-281 429.512,-281 429.512,-261 338.488,-261"/>
<text text-anchor="middle" x="384" y="-267" font-family="Helvetica,sans-Serif" font-size="10.00">MMLPlayer::stop</text>
</a>
</g>
</g>
<!-- Node0&#45;&gt;Node7 -->
<g id="edge10" class="edge"><title>Node0&#45;&gt;Node7</title>
<path fill="none" stroke="midnightblue" d="M81.663,-242.012C100.725,-251.628 131.488,-265.483 160,-271 216.421,-281.918 282.387,-280.175 327.859,-276.782"/>
<polygon fill="midnightblue" stroke="midnightblue" points="328.409,-280.25 338.098,-275.965 327.851,-273.272 328.409,-280.25"/>
</g>
<!-- Node8 -->
<g id="node9" class="node"><title>Node8</title>
<g id="a_node9"><a xlink:href="classMMLPlayer.html#a8dd687f90070b4a6645ad9cc03a9968c" target="_top" xlink:title=" ">
<polygon fill="white" stroke="black" points="159.754,-164 159.754,-184 290.246,-184 290.246,-164 159.754,-164"/>
<text text-anchor="middle" x="225" y="-170" font-family="Helvetica,sans-Serif" font-size="10.00">MMLPlayer::next_number</text>
</a>
</g>
</g>
<!-- Node0&#45;&gt;Node8 -->
<g id="edge11" class="edge"><title>Node0&#45;&gt;Node8</title>
<path fill="none" stroke="midnightblue" d="M91.0441,-221.897C117.512,-212.362 157.382,-197.999 186.558,-187.488"/>
<polygon fill="midnightblue" stroke="midnightblue" points="187.786,-190.766 196.008,-184.084 185.413,-184.181 187.786,-190.766"/>
</g>
<!-- Node9 -->
<g id="node10" class="node"><title>Node9</title>
<g id="a_node10"><a xlink:href="classMMLPlayer.html#ab30e3f5b1c68aed0a49326da078c6103" target="_top" xlink:title=" ">
<polygon fill="white" stroke="black" points="167.256,-125 167.256,-145 282.744,-145 282.744,-125 167.256,-125"/>
<text text-anchor="middle" x="225" y="-131" font-family="Helvetica,sans-Serif" font-size="10.00">MMLPlayer::next_dots</text>
</a>
</g>
</g>
<!-- Node0&#45;&gt;Node9 -->
<g id="edge13" class="edge"><title>Node0&#45;&gt;Node9</title>
<path fill="none" stroke="midnightblue" d="M72.8067,-221.88C89.3271,-205.383 124.403,-172.665 160,-154 163.753,-152.032 167.74,-150.239 171.816,-148.61"/>
<polygon fill="midnightblue" stroke="midnightblue" points="173.23,-151.82 181.425,-145.105 170.831,-145.244 173.23,-151.82"/>
</g>
<!-- Node10 -->
<g id="node11" class="node"><title>Node10</title>
<g id="a_node11"><a xlink:href="classMMLPlayer.html#a7ddacbb7cdf7a7f26e3f265f1a30d6c6" target="_top" xlink:title=" ">
<polygon fill="white" stroke="black" points="159.754,-86 159.754,-106 290.246,-106 290.246,-86 159.754,-86"/>
<text text-anchor="middle" x="225" y="-92" font-family="Helvetica,sans-Serif" font-size="10.00">MMLPlayer::rest_duration</text>
</a>
</g>
</g>
<!-- Node0&#45;&gt;Node10 -->
<g id="edge15" class="edge"><title>Node0&#45;&gt;Node10</title>
<path fill="none" stroke="midnightblue" d="M68.5724,-221.828C81.5298,-199.133 115.963,-144.078 160,-115 162.708,-113.212 165.59,-111.587 168.574,-110.112"/>
<polygon fill="midnightblue" stroke="midnightblue" points="169.987,-113.315 177.765,-106.122 167.199,-106.894 169.987,-113.315"/>
</g>
<!-- Node11 -->
<g id="node12" class="node"><title>Node11</title>
<g id="a_node12"><a xlink:href="AP__Math_8h.html#ad525609d9dba6ffa556a0fbf08a3f9b4" target="_top" xlink:title=" ">
<polygon fill="white" stroke="black" points="184.48,-47 184.48,-67 265.52,-67 265.52,-47 184.48,-47"/>
<text text-anchor="middle" x="225" y="-53" font-family="Helvetica,sans-Serif" font-size="10.00">constrain_float</text>
</a>
</g>
</g>
<!-- Node0&#45;&gt;Node11 -->
<g id="edge16" class="edge"><title>Node0&#45;&gt;Node11</title>
<path fill="none" stroke="midnightblue" d="M66.3886,-221.846C76.1849,-194.069 107.254,-116.227 160,-76 164.435,-72.6175 169.465,-69.8353 174.708,-67.5472"/>
<polygon fill="midnightblue" stroke="midnightblue" points="176.169,-70.7371 184.295,-63.9393 173.703,-64.1857 176.169,-70.7371"/>
</g>
<!-- Node18 -->
<g id="node19" class="node"><title>Node18</title>
<g id="a_node19"><a xlink:href="classMMLPlayer.html#a1f943f137994990d453bd8fb3d2ffa25" target="_top" xlink:title=" ">
<polygon fill="white" stroke="black" points="166.702,-359 166.702,-379 283.298,-379 283.298,-359 166.702,-359"/>
<text text-anchor="middle" x="225" y="-365" font-family="Helvetica,sans-Serif" font-size="10.00">MMLPlayer::start_note</text>
</a>
</g>
</g>
<!-- Node0&#45;&gt;Node18 -->
<g id="edge23" class="edge"><title>Node0&#45;&gt;Node18</title>
<path fill="none" stroke="midnightblue" d="M68.6024,-242.127C81.6212,-264.73 116.172,-319.608 160,-349 163.278,-351.198 166.811,-353.165 170.473,-354.923"/>
<polygon fill="midnightblue" stroke="midnightblue" points="169.198,-358.185 179.771,-358.877 171.937,-351.743 169.198,-358.185"/>
</g>
<!-- Node2 -->
<g id="node3" class="node"><title>Node2</title>
<g id="a_node3"><a xlink:href="namespaceAP__HAL.html#a8293355e35887733b1fd151aef08a787" target="_top" xlink:title=" ">
<polygon fill="white" stroke="black" points="339.323,-339 339.323,-359 428.677,-359 428.677,-339 339.323,-339"/>
<text text-anchor="middle" x="384" y="-345" font-family="Helvetica,sans-Serif" font-size="10.00">AP_HAL::micros</text>
</a>
</g>
</g>
<!-- Node1&#45;&gt;Node2 -->
<g id="edge2" class="edge"><title>Node1&#45;&gt;Node2</title>
<path fill="none" stroke="midnightblue" d="M289.405,-337.673C302.567,-339.266 316.317,-340.93 329.1,-342.477"/>
<polygon fill="midnightblue" stroke="midnightblue" points="328.765,-345.962 339.113,-343.689 329.606,-339.013 328.765,-345.962"/>
</g>
<!-- Node4 -->
<g id="node5" class="node"><title>Node4</title>
<g id="a_node5"><a xlink:href="classAP__HAL_1_1Util.html#a598a1298cee96d7f0467b39401a1fc1b" target="_top" xlink:title=" ">
<polygon fill="white" stroke="black" points="478.256,-291 478.256,-323 603.744,-323 603.744,-291 478.256,-291"/>
<text text-anchor="start" x="486.256" y="-309" font-family="Helvetica,sans-Serif" font-size="10.00">AP_HAL::Util::toneAlarm</text>
<text text-anchor="middle" x="541" y="-297" font-family="Helvetica,sans-Serif" font-size="10.00">_set_buzzer_tone</text>
</a>
</g>
</g>
<!-- Node1&#45;&gt;Node4 -->
<g id="edge4" class="edge"><title>Node1&#45;&gt;Node4</title>
<path fill="none" stroke="midnightblue" d="M289.165,-325.373C340.816,-321.59 413.87,-316.239 467.824,-312.287"/>
<polygon fill="midnightblue" stroke="midnightblue" points="468.289,-315.762 478.007,-311.541 467.778,-308.781 468.289,-315.762"/>
</g>
<!-- Node3 -->
<g id="node4" class="node"><title>Node3</title>
<g id="a_node4"><a xlink:href="hrt_8c.html#aaec580bcdf1351b82110305f0f6dd437" target="_top" xlink:title=" ">
<polygon fill="white" stroke="black" points="504.101,-342 504.101,-362 577.899,-362 577.899,-342 504.101,-342"/>
<text text-anchor="middle" x="541" y="-348" font-family="Helvetica,sans-Serif" font-size="10.00">hrt_micros32</text>
</a>
</g>
</g>
<!-- Node2&#45;&gt;Node3 -->
<g id="edge3" class="edge"><title>Node2&#45;&gt;Node3</title>
<path fill="none" stroke="midnightblue" d="M429.002,-349.852C449.292,-350.244 473.375,-350.71 493.915,-351.108"/>
<polygon fill="midnightblue" stroke="midnightblue" points="493.92,-354.609 503.986,-351.303 494.056,-347.61 493.92,-354.609"/>
</g>
<!-- Node6&#45;&gt;Node7 -->
<g id="edge7" class="edge"><title>Node6&#45;&gt;Node7</title>
<path fill="none" stroke="midnightblue" d="M270.57,-257.394C288.552,-259.57 309.475,-262.102 328.362,-264.388"/>
<polygon fill="midnightblue" stroke="midnightblue" points="327.971,-267.866 338.319,-265.593 328.812,-260.917 327.971,-267.866"/>
</g>
<!-- Node6&#45;&gt;Node0 -->
<g id="edge9" class="edge"><title>Node6&#45;&gt;Node0</title>
<path fill="none" stroke="midnightblue" d="M179.622,-252.593C157.287,-250.671 130.272,-247.322 107.87,-243.698"/>
<polygon fill="midnightblue" stroke="midnightblue" points="108.378,-240.234 97.9346,-242.018 107.211,-247.136 108.378,-240.234"/>
</g>
<!-- Node7&#45;&gt;Node4 -->
<g id="edge8" class="edge"><title>Node7&#45;&gt;Node4</title>
<path fill="none" stroke="midnightblue" d="M428.176,-281.028C440.646,-283.924 454.602,-287.166 468.314,-290.35"/>
<polygon fill="midnightblue" stroke="midnightblue" points="467.698,-293.8 478.23,-292.653 469.281,-286.982 467.698,-293.8"/>
</g>
<!-- Node8&#45;&gt;Node5 -->
<g id="edge12" class="edge"><title>Node8&#45;&gt;Node5</title>
<path fill="none" stroke="midnightblue" d="M290.311,-174C298.619,-174 307.147,-174 315.504,-174"/>
<polygon fill="midnightblue" stroke="midnightblue" points="315.589,-177.5 325.589,-174 315.589,-170.5 315.589,-177.5"/>
</g>
<!-- Node9&#45;&gt;Node5 -->
<g id="edge14" class="edge"><title>Node9&#45;&gt;Node5</title>
<path fill="none" stroke="midnightblue" d="M266.431,-145.043C286.667,-150.07 311.356,-156.203 332.795,-161.529"/>
<polygon fill="midnightblue" stroke="midnightblue" points="332.157,-164.976 342.706,-163.991 333.844,-158.183 332.157,-164.976"/>
</g>
<!-- Node12 -->
<g id="node13" class="node"><title>Node12</title>
<g id="a_node13"><a xlink:href="AP__Math_8h.html#a20e8f8671c282c69c1954652b6d61585" target="_top" xlink:title=" ">
<polygon fill="white" stroke="black" points="340.978,-47 340.978,-67 427.022,-67 427.022,-47 340.978,-47"/>
<text text-anchor="middle" x="384" y="-53" font-family="Helvetica,sans-Serif" font-size="10.00">constrain_value</text>
</a>
</g>
</g>
<!-- Node11&#45;&gt;Node12 -->
<g id="edge17" class="edge"><title>Node11&#45;&gt;Node12</title>
<path fill="none" stroke="midnightblue" d="M265.618,-57C285.368,-57 309.512,-57 330.756,-57"/>
<polygon fill="midnightblue" stroke="midnightblue" points="330.92,-60.5001 340.92,-57 330.92,-53.5001 330.92,-60.5001"/>
</g>
<!-- Node13 -->
<g id="node14" class="node"><title>Node13</title>
<g id="a_node14"><a xlink:href="namespaceAP.html#afceb236ff617aaaa2b08afacd72532b0" target="_top" xlink:title=" ">
<polygon fill="white" stroke="black" points="496.596,-67 496.596,-87 585.404,-87 585.404,-67 496.596,-67"/>
<text text-anchor="middle" x="541" y="-73" font-family="Helvetica,sans-Serif" font-size="10.00">AP::internalerror</text>
</a>
</g>
</g>
<!-- Node12&#45;&gt;Node13 -->
<g id="edge18" class="edge"><title>Node12&#45;&gt;Node13</title>
<path fill="none" stroke="midnightblue" d="M427.354,-62.4651C445.513,-64.8082 466.938,-67.5727 486.202,-70.0583"/>
<polygon fill="midnightblue" stroke="midnightblue" points="485.981,-73.5588 496.347,-71.3673 486.877,-66.6163 485.981,-73.5588"/>
</g>
<!-- Node14 -->
<g id="node15" class="node"><title>Node14</title>
<g id="a_node15"><a xlink:href="classAP__InternalError.html#ab34174ba770b976b39a18c2b23e854f2" target="_top" xlink:title=" ">
<polygon fill="white" stroke="black" points="482.426,-28 482.426,-48 599.574,-48 599.574,-28 482.426,-28"/>
<text text-anchor="middle" x="541" y="-34" font-family="Helvetica,sans-Serif" font-size="10.00">AP_InternalError::error</text>
</a>
</g>
</g>
<!-- Node12&#45;&gt;Node14 -->
<g id="edge19" class="edge"><title>Node12&#45;&gt;Node14</title>
<path fill="none" stroke="midnightblue" d="M427.354,-51.8082C441.251,-50.1047 457.061,-48.1667 472.35,-46.2925"/>
<polygon fill="midnightblue" stroke="midnightblue" points="472.798,-49.764 482.297,-45.0732 471.946,-42.816 472.798,-49.764"/>
</g>
<!-- Node15 -->
<g id="node16" class="node"><title>Node15</title>
<g id="a_node16"><a xlink:href="namespaceAP__HAL.html#a71832f03d849a0c088f04fc98d3c8143" target="_top" xlink:title=" ">
<polygon fill="white" stroke="black" points="640.091,-28 640.091,-48 723.909,-48 723.909,-28 640.091,-28"/>
<text text-anchor="middle" x="682" y="-34" font-family="Helvetica,sans-Serif" font-size="10.00">AP_HAL::panic</text>
</a>
</g>
</g>
<!-- Node14&#45;&gt;Node15 -->
<g id="edge20" class="edge"><title>Node14&#45;&gt;Node15</title>
<path fill="none" stroke="midnightblue" d="M599.741,-38C609.601,-38 619.786,-38 629.471,-38"/>
<polygon fill="midnightblue" stroke="midnightblue" points="629.745,-41.5001 639.745,-38 629.745,-34.5001 629.745,-41.5001"/>
</g>
<!-- Node16 -->
<g id="node17" class="node"><title>Node16</title>
<g id="a_node17"><a xlink:href="stdio_8h.html#aae132cc6af1eb6cf43bf011d8d63e854" target="_top" xlink:title=" ">
<polygon fill="white" stroke="black" points="793.384,-51 793.384,-71 836.616,-71 836.616,-51 793.384,-51"/>
<text text-anchor="middle" x="815" y="-57" font-family="Helvetica,sans-Serif" font-size="10.00">vprintf</text>
</a>
</g>
</g>
<!-- Node15&#45;&gt;Node16 -->
<g id="edge21" class="edge"><title>Node15&#45;&gt;Node16</title>
<path fill="none" stroke="midnightblue" d="M724.09,-45.2142C743.104,-48.5526 765.321,-52.4533 782.913,-55.542"/>
<polygon fill="midnightblue" stroke="midnightblue" points="782.744,-59.0658 793.199,-57.3478 783.954,-52.1712 782.744,-59.0658"/>
</g>
<!-- Node17 -->
<g id="node18" class="node"><title>Node17</title>
<g id="a_node18"><a xlink:href="classAP__HAL_1_1Scheduler.html#a78c4f1b1f192ac1c99544b6cc8f099b0" target="_top" xlink:title=" ">
<polygon fill="white" stroke="black" points="759.751,-0 759.751,-32 870.249,-32 870.249,-0 759.751,-0"/>
<text text-anchor="start" x="767.751" y="-18" font-family="Helvetica,sans-Serif" font-size="10.00">AP_HAL::Scheduler::</text>
<text text-anchor="middle" x="815" y="-6" font-family="Helvetica,sans-Serif" font-size="10.00">delay_microseconds</text>
</a>
</g>
</g>
<!-- Node15&#45;&gt;Node17 -->
<g id="edge22" class="edge"><title>Node15&#45;&gt;Node17</title>
<path fill="none" stroke="midnightblue" d="M724.09,-31.0994C732.18,-29.7408 740.849,-28.2849 749.495,-26.8329"/>
<polygon fill="midnightblue" stroke="midnightblue" points="750.316,-30.2441 759.599,-25.1361 749.157,-23.3407 750.316,-30.2441"/>
</g>
<!-- Node18&#45;&gt;Node2 -->
<g id="edge24" class="edge"><title>Node18&#45;&gt;Node2</title>
<path fill="none" stroke="midnightblue" d="M283.57,-361.666C298.502,-359.764 314.524,-357.723 329.252,-355.847"/>
<polygon fill="midnightblue" stroke="midnightblue" points="329.734,-359.314 339.211,-354.578 328.849,-352.37 329.734,-359.314"/>
</g>
<!-- Node18&#45;&gt;Node4 -->
<g id="edge25" class="edge"><title>Node18&#45;&gt;Node4</title>
<path fill="none" stroke="midnightblue" d="M276.086,-379.055C321.235,-385.772 388.542,-389.848 442,-368 462.657,-359.558 459.386,-345.308 478,-333 480.862,-331.108 483.883,-329.308 486.991,-327.603"/>
<polygon fill="midnightblue" stroke="midnightblue" points="488.593,-330.715 495.913,-323.055 485.414,-324.478 488.593,-330.715"/>
</g>
</g>
</svg>
        <g id="navigator" transform="translate(0 0)" fill="#404254">
                <rect fill="#f2f5e9" fill-opacity="0.5" stroke="#606060" stroke-width=".5" x="0" y="0" width="60" height="60"/>
                <use id="zoomplus" xlink:href="#zoomPlus" x="17" y="9" onmousedown="handleZoom(evt,'in')"/>
                <use id="zoomminus" xlink:href="#zoomMin" x="42" y="9" onmousedown="handleZoom(evt,'out')"/>
                <use id="reset" xlink:href="#resetDef" x="30" y="36" onmousedown="handleReset()"/>
                <g id="arrowUp" xlink:href="#dirArrow" transform="translate(30 24)" onmousedown="handlePan(0,-1)">
                  <use xlink:href="#rim" fill="#404040">
                        <set attributeName="fill" to="#808080" begin="arrowUp.mouseover" end="arrowUp.mouseout"/>
                  </use>
                  <path fill="none" stroke="white" stroke-width="1.5" d="M0,-3.0v7 M-2.5,-0.5L0,-3.0L2.5,-0.5"/>
                </g>
                <g id="arrowRight" xlink:href="#dirArrow" transform="rotate(90) translate(36 -43)" onmousedown="handlePan(1,0)">
                  <use xlink:href="#rim" fill="#404040">
                        <set attributeName="fill" to="#808080" begin="arrowRight.mouseover" end="arrowRight.mouseout"/>
                  </use>
                  <path fill="none" stroke="white" stroke-width="1.5" d="M0,-3.0v7 M-2.5,-0.5L0,-3.0L2.5,-0.5"/>
                </g>
                <g id="arrowDown" xlink:href="#dirArrow" transform="rotate(180) translate(-30 -48)" onmousedown="handlePan(0,1)">
                  <use xlink:href="#rim" fill="#404040">
                        <set attributeName="fill" to="#808080" begin="arrowDown.mouseover" end="arrowDown.mouseout"/>
                  </use>
                  <path fill="none" stroke="white" stroke-width="1.5" d="M0,-3.0v7 M-2.5,-0.5L0,-3.0L2.5,-0.5"/>
                </g>
                <g id="arrowLeft" xlink:href="#dirArrow" transform="rotate(270) translate(-36 17)" onmousedown="handlePan(-1,0)">
                  <use xlink:href="#rim" fill="#404040">
                        <set attributeName="fill" to="#808080" begin="arrowLeft.mouseover" end="arrowLeft.mouseout"/>
                  </use>
                  <path fill="none" stroke="white" stroke-width="1.5" d="M0,-3.0v7 M-2.5,-0.5L0,-3.0L2.5,-0.5"/>
                </g>
        </g>
        <svg viewBox="0 0 15 15" width="100%" height="30px" preserveAspectRatio="xMaxYMin meet">
         <g id="arrow_out" transform="scale(0.3 0.3)">
          <a xlink:href="classMMLPlayer_a12f8014198187f6834a533bb9c40c7f0_cgraph_org.svg" target="_base">
           <rect id="button" ry="5" rx="5" y="6" x="6" height="38" width="38"
                fill="#f2f5e9" fill-opacity="0.5" stroke="#606060" stroke-width="1.0"/>
           <path id="arrow"
             d="M 11.500037,31.436501 C 11.940474,20.09759 22.043105,11.32322 32.158766,21.979434 L 37.068811,17.246167 C 37.068811,17.246167 37.088388,32 37.088388,32 L 22.160133,31.978069 C 22.160133,31.978069 26.997745,27.140456 26.997745,27.140456 C 18.528582,18.264221 13.291696,25.230495 11.500037,31.436501 z"
             style="fill:#404040;"/>
          </a>
         </g>
        </svg>
</svg>
