<?xml version="1.0" encoding="UTF-8" standalone="no"?>
<!DOCTYPE svg PUBLIC "-//W3C//DTD SVG 1.1//EN"
 "http://www.w3.org/Graphics/SVG/1.1/DTD/svg11.dtd">
<!-- Generated by graphviz version 2.30.1 (20130221.2233)
 -->
<!-- Title: AP_MotorsHeli_Swash::get_servo_out Pages: 1 -->
<svg width="278pt" height="91pt"
 viewBox="0.00 0.00 278.00 91.00" xmlns="http://www.w3.org/2000/svg" xmlns:xlink="http://www.w3.org/1999/xlink">
<g id="graph0" class="graph" transform="scale(1 1) rotate(0) translate(4 87)">
<title>AP_MotorsHeli_Swash::get_servo_out</title>
<polygon fill="white" stroke="white" points="-4,5 -4,-87 275,-87 275,5 -4,5"/>
<!-- Node41 -->
<g id="node1" class="node"><title>Node41</title>
<g id="a_node1"><a xlink:title=" ">
<polygon fill="#bfbfbf" stroke="black" points="151.867,-25 151.867,-57 270.133,-57 270.133,-25 151.867,-25"/>
<text text-anchor="start" x="159.867" y="-43" font-family="Helvetica,sans-Serif" font-size="10.00">AP_MotorsHeli_Swash</text>
<text text-anchor="middle" x="211" y="-31" font-family="Helvetica,sans-Serif" font-size="10.00">::get_servo_out</text>
</a>
</g>
</g>
<!-- Node42 -->
<g id="node2" class="node"><title>Node42</title>
<g id="a_node2"><a xlink:href="classAP__MotorsHeli__Single.html#a7be196cb13761dc47480224bc1b51115" target="_top" xlink:title=" ">
<polygon fill="white" stroke="black" points="-0.0244141,-51 -0.0244141,-83 116.024,-83 116.024,-51 -0.0244141,-51"/>
<text text-anchor="start" x="7.97559" y="-69" font-family="Helvetica,sans-Serif" font-size="10.00">AP_MotorsHeli_Single</text>
<text text-anchor="middle" x="58" y="-57" font-family="Helvetica,sans-Serif" font-size="10.00">::move_actuators</text>
</a>
</g>
</g>
<!-- Node41&#45;&gt;Node42 -->
<g id="edge1" class="edge"><title>Node41&#45;&gt;Node42</title>
<path fill="none" stroke="midnightblue" d="M141.707,-52.7591C133.192,-54.2252 124.554,-55.7125 116.231,-57.1456"/>
<polygon fill="midnightblue" stroke="midnightblue" points="142.358,-56.1985 151.619,-51.0523 141.171,-49.3 142.358,-56.1985"/>
</g>
<!-- Node43 -->
<g id="node3" class="node"><title>Node43</title>
<g id="a_node3"><a xlink:href="classAP__MotorsHeli__Dual.html#a79cf1328b1d8a2be75b8a3440e9a5800" target="_top" xlink:title=" ">
<polygon fill="white" stroke="black" points="3.59131,-0 3.59131,-32 112.409,-32 112.409,-0 3.59131,-0"/>
<text text-anchor="start" x="11.5913" y="-18" font-family="Helvetica,sans-Serif" font-size="10.00">AP_MotorsHeli_Dual</text>
<text text-anchor="middle" x="58" y="-6" font-family="Helvetica,sans-Serif" font-size="10.00">::move_actuators</text>
</a>
</g>
</g>
<!-- Node41&#45;&gt;Node43 -->
<g id="edge2" class="edge"><title>Node41&#45;&gt;Node43</title>
<path fill="none" stroke="midnightblue" d="M141.624,-29.6794C131.951,-28.078 122.121,-26.4506 112.777,-24.9034"/>
<polygon fill="midnightblue" stroke="midnightblue" points="141.182,-33.1539 151.619,-31.3343 142.325,-26.2479 141.182,-33.1539"/>
</g>
</g>
</svg>
