<?xml version="1.0" encoding="UTF-8" standalone="no"?>
<!DOCTYPE svg PUBLIC "-//W3C//DTD SVG 1.1//EN"
 "http://www.w3.org/Graphics/SVG/1.1/DTD/svg11.dtd">
<!-- Generated by graphviz version 2.30.1 (20130221.2233)
 -->
<!-- Title: Linux::PWM_Sysfs_Base::init Pages: 1 -->
<svg width="466pt" height="169pt"
 viewBox="0.00 0.00 466.00 169.00" xmlns="http://www.w3.org/2000/svg" xmlns:xlink="http://www.w3.org/1999/xlink">
<g id="graph0" class="graph" transform="scale(1 1) rotate(0) translate(4 165)">
<title>Linux::PWM_Sysfs_Base::init</title>
<polygon fill="white" stroke="white" points="-4,5 -4,-165 463,-165 463,5 -4,5"/>
<!-- Node160 -->
<g id="node1" class="node"><title>Node160</title>
<g id="a_node1"><a xlink:title=" ">
<polygon fill="#bfbfbf" stroke="black" points="329.867,-73 329.867,-105 458.133,-105 458.133,-73 329.867,-73"/>
<text text-anchor="start" x="337.867" y="-91" font-family="Helvetica,sans-Serif" font-size="10.00">Linux::PWM_Sysfs_Base</text>
<text text-anchor="middle" x="394" y="-79" font-family="Helvetica,sans-Serif" font-size="10.00">::init</text>
</a>
</g>
</g>
<!-- Node161 -->
<g id="node2" class="node"><title>Node161</title>
<g id="a_node2"><a xlink:href="classLinux_1_1HeatPwm.html#a910503ba8647930c989ec4311051447a" target="_top" xlink:title=" ">
<polygon fill="white" stroke="black" points="156.146,-141 156.146,-161 293.854,-161 293.854,-141 156.146,-141"/>
<text text-anchor="middle" x="225" y="-147" font-family="Helvetica,sans-Serif" font-size="10.00">Linux::HeatPwm::HeatPwm</text>
</a>
</g>
</g>
<!-- Node160&#45;&gt;Node161 -->
<g id="edge1" class="edge"><title>Node160&#45;&gt;Node161</title>
<path fill="none" stroke="midnightblue" d="M348.083,-109.348C331.283,-116.615 311.928,-124.585 294,-131 284.036,-134.566 273.092,-137.993 262.952,-140.972"/>
<polygon fill="midnightblue" stroke="midnightblue" points="349.888,-112.379 357.65,-105.168 347.085,-105.965 349.888,-112.379"/>
</g>
<!-- Node162 -->
<g id="node3" class="node"><title>Node162</title>
<g id="a_node3"><a xlink:href="classDiscoLED.html#a6d29ad2c6dbe761d0ec2bb9e3ce59e2d" target="_top" xlink:title=" ">
<polygon fill="white" stroke="black" points="176.429,-102 176.429,-122 273.571,-122 273.571,-102 176.429,-102"/>
<text text-anchor="middle" x="225" y="-108" font-family="Helvetica,sans-Serif" font-size="10.00">DiscoLED::hw_init</text>
</a>
</g>
</g>
<!-- Node160&#45;&gt;Node162 -->
<g id="edge2" class="edge"><title>Node160&#45;&gt;Node162</title>
<path fill="none" stroke="midnightblue" d="M319.69,-99.0966C304.066,-101.248 287.959,-103.467 273.601,-105.444"/>
<polygon fill="midnightblue" stroke="midnightblue" points="320.436,-102.527 329.864,-97.6953 319.48,-95.5925 320.436,-102.527"/>
</g>
<!-- Node163 -->
<g id="node4" class="node"><title>Node163</title>
<g id="a_node4"><a xlink:href="classLinux_1_1RCOutput__Sysfs.html#a2147e42f465594730c289e76c327643a" target="_top" xlink:title=" ">
<polygon fill="white" stroke="black" points="165.032,-51 165.032,-83 284.968,-83 284.968,-51 165.032,-51"/>
<text text-anchor="start" x="173.032" y="-69" font-family="Helvetica,sans-Serif" font-size="10.00">Linux::RCOutput_Sysfs</text>
<text text-anchor="middle" x="225" y="-57" font-family="Helvetica,sans-Serif" font-size="10.00">::init</text>
</a>
</g>
</g>
<!-- Node160&#45;&gt;Node163 -->
<g id="edge3" class="edge"><title>Node160&#45;&gt;Node163</title>
<path fill="none" stroke="midnightblue" d="M319.768,-79.3526C308.173,-77.8252 296.311,-76.2625 285.093,-74.7847"/>
<polygon fill="midnightblue" stroke="midnightblue" points="319.493,-82.8466 329.864,-80.6827 320.407,-75.9066 319.493,-82.8466"/>
</g>
<!-- Node165 -->
<g id="node6" class="node"><title>Node165</title>
<g id="a_node6"><a xlink:href="classLinux_1_1OpticalFlow__Onboard.html#ad2533ed83311a68c8201436f70c64713" target="_top" xlink:title=" ">
<polygon fill="white" stroke="black" points="176.15,-0 176.15,-32 273.85,-32 273.85,-0 176.15,-0"/>
<text text-anchor="start" x="184.15" y="-18" font-family="Helvetica,sans-Serif" font-size="10.00">Linux::OpticalFlow</text>
<text text-anchor="middle" x="225" y="-6" font-family="Helvetica,sans-Serif" font-size="10.00">_Onboard::init</text>
</a>
</g>
</g>
<!-- Node160&#45;&gt;Node165 -->
<g id="edge5" class="edge"><title>Node160&#45;&gt;Node165</title>
<path fill="none" stroke="midnightblue" d="M351.345,-68.3378C333.785,-59.8599 313.04,-50.1448 294,-42 286.098,-38.6197 277.596,-35.2007 269.371,-32.0021"/>
<polygon fill="midnightblue" stroke="midnightblue" points="350.217,-71.6809 360.741,-72.9025 353.276,-65.3846 350.217,-71.6809"/>
</g>
<!-- Node164 -->
<g id="node5" class="node"><title>Node164</title>
<g id="a_node5"><a xlink:href="classLinux_1_1RCOutput__Disco.html#aa7c4f715a6e793972896389de9d642ad" target="_top" xlink:title=" ">
<polygon fill="white" stroke="black" points="-0.246094,-51 -0.246094,-83 120.246,-83 120.246,-51 -0.246094,-51"/>
<text text-anchor="start" x="7.75391" y="-69" font-family="Helvetica,sans-Serif" font-size="10.00">Linux::RCOutput_Disco</text>
<text text-anchor="middle" x="60" y="-57" font-family="Helvetica,sans-Serif" font-size="10.00">::init</text>
</a>
</g>
</g>
<!-- Node163&#45;&gt;Node164 -->
<g id="edge4" class="edge"><title>Node163&#45;&gt;Node164</title>
<path fill="none" stroke="midnightblue" d="M154.375,-67C143.016,-67 131.343,-67 120.264,-67"/>
<polygon fill="midnightblue" stroke="midnightblue" points="154.692,-70.5001 164.692,-67 154.692,-63.5001 154.692,-70.5001"/>
</g>
</g>
</svg>
