<?xml version="1.0" encoding="UTF-8" standalone="no"?>
<!DOCTYPE svg PUBLIC "-//W3C//DTD SVG 1.1//EN"
 "http://www.w3.org/Graphics/SVG/1.1/DTD/svg11.dtd">
<!-- Generated by graphviz version 2.30.1 (20130221.2233)
 -->
<!-- Title: Linux::SPIDevice::_cs_assert Pages: 1 -->
<svg width="262pt" height="40pt"
 viewBox="0.00 0.00 262.00 40.00" xmlns="http://www.w3.org/2000/svg" xmlns:xlink="http://www.w3.org/1999/xlink">
<g id="graph0" class="graph" transform="scale(1 1) rotate(0) translate(4 36)">
<title>Linux::SPIDevice::_cs_assert</title>
<polygon fill="white" stroke="white" points="-4,5 -4,-36 259,-36 259,5 -4,5"/>
<!-- Node15 -->
<g id="node1" class="node"><title>Node15</title>
<g id="a_node1"><a xlink:title=" ">
<polygon fill="#bfbfbf" stroke="black" points="0.147949,-0 0.147949,-32 97.8521,-32 97.8521,-0 0.147949,-0"/>
<text text-anchor="start" x="8.14795" y="-18" font-family="Helvetica,sans-Serif" font-size="10.00">Linux::SPIDevice::</text>
<text text-anchor="middle" x="49" y="-6" font-family="Helvetica,sans-Serif" font-size="10.00">_cs_assert</text>
</a>
</g>
</g>
<!-- Node16 -->
<g id="node2" class="node"><title>Node16</title>
<g id="a_node2"><a xlink:href="classAP__HAL_1_1DigitalSource.html#a43392c05a7dae030a78dd1c4800bf5fe" target="_top" xlink:title=" ">
<polygon fill="white" stroke="black" points="134.308,-0 134.308,-32 253.692,-32 253.692,-0 134.308,-0"/>
<text text-anchor="start" x="142.308" y="-18" font-family="Helvetica,sans-Serif" font-size="10.00">AP_HAL::DigitalSource</text>
<text text-anchor="middle" x="194" y="-6" font-family="Helvetica,sans-Serif" font-size="10.00">::write</text>
</a>
</g>
</g>
<!-- Node15&#45;&gt;Node16 -->
<g id="edge1" class="edge"><title>Node15&#45;&gt;Node16</title>
<path fill="none" stroke="midnightblue" d="M98.0147,-16C106.354,-16 115.173,-16 123.943,-16"/>
<polygon fill="midnightblue" stroke="midnightblue" points="124.184,-19.5001 134.184,-16 124.184,-12.5001 124.184,-19.5001"/>
</g>
</g>
</svg>
