<?xml version="1.0" encoding="UTF-8" standalone="no"?>
<!DOCTYPE svg PUBLIC "-//W3C//DTD SVG 1.1//EN"
 "http://www.w3.org/Graphics/SVG/1.1/DTD/svg11.dtd">
<!-- Generated by graphviz version 2.30.1 (20130221.2233)
 -->
<!-- Title: AP_Rally::get_rally_point_with_index Pages: 1 -->
<svg width="1736pt" height="227pt"
 viewBox="0.00 0.00 1736.00 227.00" xmlns="http://www.w3.org/2000/svg" xmlns:xlink="http://www.w3.org/1999/xlink">
<g id="graph0" class="graph" transform="scale(1 1) rotate(0) translate(4 223)">
<title>AP_Rally::get_rally_point_with_index</title>
<polygon fill="white" stroke="white" points="-4,5 -4,-223 1733,-223 1733,5 -4,5"/>
<!-- Node83 -->
<g id="node1" class="node"><title>Node83</title>
<g id="a_node1"><a xlink:title=" ">
<polygon fill="#bfbfbf" stroke="black" points="1627.76,-106 1627.76,-138 1728.24,-138 1728.24,-106 1627.76,-106"/>
<text text-anchor="start" x="1635.76" y="-124" font-family="Helvetica,sans-Serif" font-size="10.00">AP_Rally::get_rally</text>
<text text-anchor="middle" x="1678" y="-112" font-family="Helvetica,sans-Serif" font-size="10.00">_point_with_index</text>
</a>
</g>
</g>
<!-- Node84 -->
<g id="node2" class="node"><title>Node84</title>
<g id="a_node2"><a xlink:href="classAP__Rally.html#a599a1cba7da15f1be6178ea19ee47541" target="_top" xlink:title=" ">
<polygon fill="white" stroke="black" points="1472.14,-183 1472.14,-215 1589.86,-215 1589.86,-183 1472.14,-183"/>
<text text-anchor="start" x="1480.14" y="-201" font-family="Helvetica,sans-Serif" font-size="10.00">AP_Rally::find_nearest</text>
<text text-anchor="middle" x="1531" y="-189" font-family="Helvetica,sans-Serif" font-size="10.00">_rally_point</text>
</a>
</g>
</g>
<!-- Node83&#45;&gt;Node84 -->
<g id="edge1" class="edge"><title>Node83&#45;&gt;Node84</title>
<path fill="none" stroke="midnightblue" d="M1643.53,-143.469C1628.11,-153 1609.4,-164.058 1592,-173 1585.34,-176.424 1578.12,-179.811 1571.08,-182.952"/>
<polygon fill="midnightblue" stroke="midnightblue" points="1645.57,-146.324 1652.2,-138.061 1641.86,-140.386 1645.57,-146.324"/>
</g>
<!-- Node97 -->
<g id="node15" class="node"><title>Node97</title>
<g id="a_node15"><a xlink:href="classMissionItemProtocol__Rally.html#a4661930b9fa8f7cdf3fd800c4954b521" target="_top" xlink:title=" ">
<polygon fill="white" stroke="black" points="1477.99,-132 1477.99,-164 1584.01,-164 1584.01,-132 1477.99,-132"/>
<text text-anchor="start" x="1485.99" y="-150" font-family="Helvetica,sans-Serif" font-size="10.00">MissionItemProtocol</text>
<text text-anchor="middle" x="1531" y="-138" font-family="Helvetica,sans-Serif" font-size="10.00">_Rally::get_item</text>
</a>
</g>
</g>
<!-- Node83&#45;&gt;Node97 -->
<g id="edge14" class="edge"><title>Node83&#45;&gt;Node97</title>
<path fill="none" stroke="midnightblue" d="M1617.52,-132.665C1606.49,-134.644 1595.04,-136.697 1584.24,-138.633"/>
<polygon fill="midnightblue" stroke="midnightblue" points="1618.28,-136.085 1627.5,-130.875 1617.04,-129.195 1618.28,-136.085"/>
</g>
<!-- Node98 -->
<g id="node16" class="node"><title>Node98</title>
<g id="a_node16"><a xlink:href="structGCS__MAVLINK.html#afaa95bf142df1dcbc7f94be7783265c7" target="_top" xlink:title=" ">
<polygon fill="white" stroke="black" points="1470.01,-81 1470.01,-113 1591.99,-113 1591.99,-81 1470.01,-81"/>
<text text-anchor="start" x="1478.01" y="-99" font-family="Helvetica,sans-Serif" font-size="10.00">GCS_MAVLINK::handle</text>
<text text-anchor="middle" x="1531" y="-87" font-family="Helvetica,sans-Serif" font-size="10.00">_rally_fetch_point</text>
</a>
</g>
</g>
<!-- Node83&#45;&gt;Node98 -->
<g id="edge15" class="edge"><title>Node83&#45;&gt;Node98</title>
<path fill="none" stroke="midnightblue" d="M1617.43,-111.73C1609.06,-110.286 1600.44,-108.8 1592.05,-107.354"/>
<polygon fill="midnightblue" stroke="midnightblue" points="1617.06,-115.216 1627.5,-113.466 1618.24,-108.318 1617.06,-115.216"/>
</g>
<!-- Node101 -->
<g id="node19" class="node"><title>Node101</title>
<g id="a_node19"><a xlink:href="classLoggerMessageWriter__WriteAllRallyPoints.html#ae17a01096b15b26317e10dc04c9830c6" target="_top" xlink:title=" ">
<polygon fill="white" stroke="black" points="1473.9,-18 1473.9,-62 1588.1,-62 1588.1,-18 1473.9,-18"/>
<text text-anchor="start" x="1481.9" y="-48" font-family="Helvetica,sans-Serif" font-size="10.00">LoggerMessageWriter</text>
<text text-anchor="start" x="1481.9" y="-36" font-family="Helvetica,sans-Serif" font-size="10.00">_WriteAllRallyPoints</text>
<text text-anchor="middle" x="1531" y="-24" font-family="Helvetica,sans-Serif" font-size="10.00">::process</text>
</a>
</g>
</g>
<!-- Node83&#45;&gt;Node101 -->
<g id="edge18" class="edge"><title>Node83&#45;&gt;Node101</title>
<path fill="none" stroke="midnightblue" d="M1642.56,-100.658C1627.21,-91.3249 1608.84,-80.3881 1592,-71 1586.67,-68.0308 1581.04,-64.9887 1575.43,-62.026"/>
<polygon fill="midnightblue" stroke="midnightblue" points="1640.85,-103.716 1651.21,-105.943 1644.5,-97.7427 1640.85,-103.716"/>
</g>
<!-- Node85 -->
<g id="node3" class="node"><title>Node85</title>
<g id="a_node3"><a xlink:href="classAP__Rally.html#a2f79c1af4c3115a2d2cdcceb0dc04043" target="_top" xlink:title=" ">
<polygon fill="white" stroke="black" points="1306.52,-187 1306.52,-219 1431.48,-219 1431.48,-187 1306.52,-187"/>
<text text-anchor="start" x="1314.52" y="-205" font-family="Helvetica,sans-Serif" font-size="10.00">AP_Rally::calc_best</text>
<text text-anchor="middle" x="1369" y="-193" font-family="Helvetica,sans-Serif" font-size="10.00">_rally_or_home_location</text>
</a>
</g>
</g>
<!-- Node84&#45;&gt;Node85 -->
<g id="edge2" class="edge"><title>Node84&#45;&gt;Node85</title>
<path fill="none" stroke="midnightblue" d="M1461.55,-200.711C1451.63,-200.959 1441.46,-201.214 1431.68,-201.458"/>
<polygon fill="midnightblue" stroke="midnightblue" points="1461.87,-204.204 1471.78,-200.455 1461.7,-197.207 1461.87,-204.204"/>
</g>
<!-- Node86 -->
<g id="node4" class="node"><title>Node86</title>
<g id="a_node4"><a xlink:href="classAP__Arming.html#a4edef7ade35438eba0344c9443bf5dae" target="_top" xlink:title=" ">
<polygon fill="white" stroke="black" points="1315.99,-136 1315.99,-168 1422.01,-168 1422.01,-136 1315.99,-136"/>
<text text-anchor="start" x="1323.99" y="-154" font-family="Helvetica,sans-Serif" font-size="10.00">AP_Arming::mission</text>
<text text-anchor="middle" x="1369" y="-142" font-family="Helvetica,sans-Serif" font-size="10.00">_checks</text>
</a>
</g>
</g>
<!-- Node84&#45;&gt;Node86 -->
<g id="edge3" class="edge"><title>Node84&#45;&gt;Node86</title>
<path fill="none" stroke="midnightblue" d="M1465.55,-180.068C1451.15,-175.837 1436.04,-171.4 1422.21,-167.336"/>
<polygon fill="midnightblue" stroke="midnightblue" points="1464.8,-183.496 1475.38,-182.957 1466.78,-176.78 1464.8,-183.496"/>
</g>
<!-- Node87 -->
<g id="node5" class="node"><title>Node87</title>
<g id="a_node5"><a xlink:href="classAP__Arming.html#a73c03baf7f22b7124a2ac9e9286a850a" target="_top" xlink:title=" ">
<polygon fill="white" stroke="black" points="1143.32,-136 1143.32,-168 1252.68,-168 1252.68,-136 1143.32,-136"/>
<text text-anchor="start" x="1151.32" y="-154" font-family="Helvetica,sans-Serif" font-size="10.00">AP_Arming::pre_arm</text>
<text text-anchor="middle" x="1198" y="-142" font-family="Helvetica,sans-Serif" font-size="10.00">_checks</text>
</a>
</g>
</g>
<!-- Node86&#45;&gt;Node87 -->
<g id="edge4" class="edge"><title>Node86&#45;&gt;Node87</title>
<path fill="none" stroke="midnightblue" d="M1305.88,-152C1288.52,-152 1269.8,-152 1252.96,-152"/>
<polygon fill="midnightblue" stroke="midnightblue" points="1305.92,-155.5 1315.92,-152 1305.92,-148.5 1305.92,-155.5"/>
</g>
<!-- Node88 -->
<g id="node6" class="node"><title>Node88</title>
<g id="a_node6"><a xlink:href="classAP__Arming.html#abeebfae7f8ef321308d6ca739c25d4f9" target="_top" xlink:title=" ">
<polygon fill="white" stroke="black" points="989.323,-142 989.323,-162 1078.68,-162 1078.68,-142 989.323,-142"/>
<text text-anchor="middle" x="1034" y="-148" font-family="Helvetica,sans-Serif" font-size="10.00">AP_Arming::arm</text>
</a>
</g>
</g>
<!-- Node87&#45;&gt;Node88 -->
<g id="edge5" class="edge"><title>Node87&#45;&gt;Node88</title>
<path fill="none" stroke="midnightblue" d="M1132.84,-152C1114.7,-152 1095.38,-152 1078.75,-152"/>
<polygon fill="midnightblue" stroke="midnightblue" points="1133.06,-155.5 1143.06,-152 1133.06,-148.5 1133.06,-155.5"/>
</g>
<!-- Node89 -->
<g id="node7" class="node"><title>Node89</title>
<g id="a_node7"><a xlink:href="classRC__Channel.html#a070b1061842188951985a20f5d1a886f" target="_top" xlink:title=" ">
<polygon fill="white" stroke="black" points="799.19,-136 799.19,-168 910.81,-168 910.81,-136 799.19,-136"/>
<text text-anchor="start" x="807.19" y="-154" font-family="Helvetica,sans-Serif" font-size="10.00">RC_Channel::do_aux</text>
<text text-anchor="middle" x="855" y="-142" font-family="Helvetica,sans-Serif" font-size="10.00">_function</text>
</a>
</g>
</g>
<!-- Node88&#45;&gt;Node89 -->
<g id="edge6" class="edge"><title>Node88&#45;&gt;Node89</title>
<path fill="none" stroke="midnightblue" d="M978.955,-152C957.405,-152 932.625,-152 910.983,-152"/>
<polygon fill="midnightblue" stroke="midnightblue" points="979.247,-155.5 989.247,-152 979.247,-148.5 979.247,-155.5"/>
</g>
<!-- Node90 -->
<g id="node8" class="node"><title>Node90</title>
<g id="a_node8"><a xlink:href="classRC__Channel.html#a1bc648b7400d7068721d275275f7927e" target="_top" xlink:title=" ">
<polygon fill="white" stroke="black" points="589.36,-161 589.36,-193 702.64,-193 702.64,-161 589.36,-161"/>
<text text-anchor="start" x="597.36" y="-179" font-family="Helvetica,sans-Serif" font-size="10.00">RC_Channel::init_aux</text>
<text text-anchor="middle" x="646" y="-167" font-family="Helvetica,sans-Serif" font-size="10.00">_function</text>
</a>
</g>
</g>
<!-- Node89&#45;&gt;Node90 -->
<g id="edge7" class="edge"><title>Node89&#45;&gt;Node90</title>
<path fill="none" stroke="midnightblue" d="M789.095,-159.839C761.44,-163.179 729.495,-167.037 702.906,-170.248"/>
<polygon fill="midnightblue" stroke="midnightblue" points="789.563,-163.308 799.071,-158.634 788.724,-156.358 789.563,-163.308"/>
</g>
<!-- Node95 -->
<g id="node13" class="node"><title>Node95</title>
<g id="a_node13"><a xlink:href="classRC__Channel.html#aac5143b957916aec428b6bc79f29456d" target="_top" xlink:title=" ">
<polygon fill="white" stroke="black" points="585.744,-122 585.744,-142 706.256,-142 706.256,-122 585.744,-122"/>
<text text-anchor="middle" x="646" y="-128" font-family="Helvetica,sans-Serif" font-size="10.00">RC_Channel::read_aux</text>
</a>
</g>
</g>
<!-- Node89&#45;&gt;Node95 -->
<g id="edge12" class="edge"><title>Node89&#45;&gt;Node95</title>
<path fill="none" stroke="midnightblue" d="M788.807,-145.701C762.472,-143.157 732.285,-140.24 706.55,-137.754"/>
<polygon fill="midnightblue" stroke="midnightblue" points="788.781,-149.215 799.071,-146.693 789.454,-142.247 788.781,-149.215"/>
</g>
<!-- Node91 -->
<g id="node9" class="node"><title>Node91</title>
<g id="a_node9"><a xlink:href="classRC__Channel.html#a2e0ed24b88e1d47d9056bc8b6e28650f" target="_top" xlink:title=" ">
<polygon fill="white" stroke="black" points="394.36,-167 394.36,-187 507.64,-187 507.64,-167 394.36,-167"/>
<text text-anchor="middle" x="451" y="-173" font-family="Helvetica,sans-Serif" font-size="10.00">RC_Channel::init_aux</text>
</a>
</g>
</g>
<!-- Node90&#45;&gt;Node91 -->
<g id="edge8" class="edge"><title>Node90&#45;&gt;Node91</title>
<path fill="none" stroke="midnightblue" d="M579.061,-177C555.842,-177 529.99,-177 507.698,-177"/>
<polygon fill="midnightblue" stroke="midnightblue" points="579.176,-180.5 589.176,-177 579.176,-173.5 579.176,-180.5"/>
</g>
<!-- Node92 -->
<g id="node10" class="node"><title>Node92</title>
<g id="a_node10"><a xlink:href="classRC__Channels.html#a668ee11266919ed21cc542df61043cca" target="_top" xlink:title=" ">
<polygon fill="white" stroke="black" points="210.077,-167 210.077,-187 343.923,-187 343.923,-167 210.077,-167"/>
<text text-anchor="middle" x="277" y="-173" font-family="Helvetica,sans-Serif" font-size="10.00">RC_Channels::init_aux_all</text>
</a>
</g>
</g>
<!-- Node91&#45;&gt;Node92 -->
<g id="edge9" class="edge"><title>Node91&#45;&gt;Node92</title>
<path fill="none" stroke="midnightblue" d="M383.851,-177C370.797,-177 357.098,-177 344.047,-177"/>
<polygon fill="midnightblue" stroke="midnightblue" points="384.157,-180.5 394.157,-177 384.156,-173.5 384.157,-180.5"/>
</g>
<!-- Node93 -->
<g id="node11" class="node"><title>Node93</title>
<g id="a_node11"><a xlink:href="classRC__Channels.html#a41ac050f115225f84b06b97fb79ee56f" target="_top" xlink:title=" ">
<polygon fill="white" stroke="black" points="76.7021,-167 76.7021,-187 173.298,-187 173.298,-167 76.7021,-167"/>
<text text-anchor="middle" x="125" y="-173" font-family="Helvetica,sans-Serif" font-size="10.00">RC_Channels::init</text>
</a>
</g>
</g>
<!-- Node92&#45;&gt;Node93 -->
<g id="edge10" class="edge"><title>Node92&#45;&gt;Node93</title>
<path fill="none" stroke="midnightblue" d="M199.684,-177C190.735,-177 181.811,-177 173.422,-177"/>
<polygon fill="midnightblue" stroke="midnightblue" points="199.771,-180.5 209.771,-177 199.771,-173.5 199.771,-180.5"/>
</g>
<!-- Node94 -->
<g id="node12" class="node"><title>Node94</title>
<g id="a_node12"><a xlink:href="AC__PID__test_8cpp.html#a4fc01d736fe50cf5b977f755b675f11d" target="_top" xlink:title=" ">
<polygon fill="white" stroke="black" points="-0.231445,-167 -0.231445,-187 40.2314,-187 40.2314,-167 -0.231445,-167"/>
<text text-anchor="middle" x="20" y="-173" font-family="Helvetica,sans-Serif" font-size="10.00">setup</text>
</a>
</g>
</g>
<!-- Node93&#45;&gt;Node94 -->
<g id="edge11" class="edge"><title>Node93&#45;&gt;Node94</title>
<path fill="none" stroke="midnightblue" d="M66.2454,-177C56.9154,-177 47.8633,-177 40.3386,-177"/>
<polygon fill="midnightblue" stroke="midnightblue" points="66.4195,-180.5 76.4195,-177 66.4194,-173.5 66.4195,-180.5"/>
</g>
<!-- Node96 -->
<g id="node14" class="node"><title>Node96</title>
<g id="a_node14"><a xlink:href="classRC__Channels.html#afce42af83fb4e3a19d56c330a99c59b5" target="_top" xlink:title=" ">
<polygon fill="white" stroke="black" points="380.461,-122 380.461,-142 521.539,-142 521.539,-122 380.461,-122"/>
<text text-anchor="middle" x="451" y="-128" font-family="Helvetica,sans-Serif" font-size="10.00">RC_Channels::read_aux_all</text>
</a>
</g>
</g>
<!-- Node95&#45;&gt;Node96 -->
<g id="edge13" class="edge"><title>Node95&#45;&gt;Node96</title>
<path fill="none" stroke="midnightblue" d="M575.411,-132C557.962,-132 539.236,-132 521.778,-132"/>
<polygon fill="midnightblue" stroke="midnightblue" points="575.519,-135.5 585.519,-132 575.519,-128.5 575.519,-135.5"/>
</g>
<!-- Node99 -->
<g id="node17" class="node"><title>Node99</title>
<g id="a_node17"><a xlink:href="structGCS__MAVLINK.html#a0cddddd51bc5ea4c137c1927d2e34d97" target="_top" xlink:title=" ">
<polygon fill="white" stroke="black" points="1304.03,-81 1304.03,-113 1433.97,-113 1433.97,-81 1304.03,-81"/>
<text text-anchor="start" x="1312.03" y="-99" font-family="Helvetica,sans-Serif" font-size="10.00">GCS_MAVLINK::handle</text>
<text text-anchor="middle" x="1369" y="-87" font-family="Helvetica,sans-Serif" font-size="10.00">_common_rally_message</text>
</a>
</g>
</g>
<!-- Node98&#45;&gt;Node99 -->
<g id="edge16" class="edge"><title>Node98&#45;&gt;Node99</title>
<path fill="none" stroke="midnightblue" d="M1459.69,-97C1451.18,-97 1442.53,-97 1434.12,-97"/>
<polygon fill="midnightblue" stroke="midnightblue" points="1459.97,-100.5 1469.97,-97 1459.97,-93.5001 1459.97,-100.5"/>
</g>
<!-- Node100 -->
<g id="node18" class="node"><title>Node100</title>
<g id="a_node18"><a xlink:href="structGCS__MAVLINK.html#a13da94a2548ade6552a5250eb3251e89" target="_top" xlink:title=" ">
<polygon fill="white" stroke="black" points="1137.01,-81 1137.01,-113 1258.99,-113 1258.99,-81 1137.01,-81"/>
<text text-anchor="start" x="1145.01" y="-99" font-family="Helvetica,sans-Serif" font-size="10.00">GCS_MAVLINK::handle</text>
<text text-anchor="middle" x="1198" y="-87" font-family="Helvetica,sans-Serif" font-size="10.00">_common_message</text>
</a>
</g>
</g>
<!-- Node99&#45;&gt;Node100 -->
<g id="edge17" class="edge"><title>Node99&#45;&gt;Node100</title>
<path fill="none" stroke="midnightblue" d="M1293.56,-97C1282.01,-97 1270.2,-97 1259.02,-97"/>
<polygon fill="midnightblue" stroke="midnightblue" points="1293.63,-100.5 1303.63,-97 1293.63,-93.5001 1293.63,-100.5"/>
</g>
<!-- Node102 -->
<g id="node20" class="node"><title>Node102</title>
<g id="a_node20"><a xlink:href="classLoggerMessageWriter__DFLogStart.html#a620900808df16dda045b143c17bb0670" target="_top" xlink:title=" ">
<polygon fill="white" stroke="black" points="1311.9,-24 1311.9,-56 1426.1,-56 1426.1,-24 1311.9,-24"/>
<text text-anchor="start" x="1319.9" y="-42" font-family="Helvetica,sans-Serif" font-size="10.00">LoggerMessageWriter</text>
<text text-anchor="middle" x="1369" y="-30" font-family="Helvetica,sans-Serif" font-size="10.00">_DFLogStart::process</text>
</a>
</g>
</g>
<!-- Node101&#45;&gt;Node102 -->
<g id="edge19" class="edge"><title>Node101&#45;&gt;Node102</title>
<path fill="none" stroke="midnightblue" d="M1463.34,-40C1450.98,-40 1438.18,-40 1426.17,-40"/>
<polygon fill="midnightblue" stroke="midnightblue" points="1463.59,-43.5001 1473.59,-40 1463.59,-36.5001 1463.59,-43.5001"/>
</g>
<!-- Node103 -->
<g id="node21" class="node"><title>Node103</title>
<g id="a_node21"><a xlink:href="classAP__Logger__Backend.html#a70bac8d1493337dc4345af22ef99c799" target="_top" xlink:title=" ">
<polygon fill="white" stroke="black" points="1128.12,-24 1128.12,-56 1267.88,-56 1267.88,-24 1128.12,-24"/>
<text text-anchor="start" x="1136.12" y="-42" font-family="Helvetica,sans-Serif" font-size="10.00">AP_Logger_Backend::</text>
<text text-anchor="middle" x="1198" y="-30" font-family="Helvetica,sans-Serif" font-size="10.00">WriteMoreStartupMessages</text>
</a>
</g>
</g>
<!-- Node102&#45;&gt;Node103 -->
<g id="edge20" class="edge"><title>Node102&#45;&gt;Node103</title>
<path fill="none" stroke="midnightblue" d="M1301.7,-40C1290.62,-40 1279.11,-40 1267.96,-40"/>
<polygon fill="midnightblue" stroke="midnightblue" points="1301.73,-43.5001 1311.73,-40 1301.73,-36.5001 1301.73,-43.5001"/>
</g>
<!-- Node104 -->
<g id="node22" class="node"><title>Node104</title>
<g id="a_node22"><a xlink:href="classAP__Logger__MAVLink.html#a829d92ca276f4ffc755fd1d6f4a82d85" target="_top" xlink:title=" ">
<polygon fill="white" stroke="black" points="975.783,-67 975.783,-99 1092.22,-99 1092.22,-67 975.783,-67"/>
<text text-anchor="start" x="983.783" y="-85" font-family="Helvetica,sans-Serif" font-size="10.00">AP_Logger_MAVLink::</text>
<text text-anchor="middle" x="1034" y="-73" font-family="Helvetica,sans-Serif" font-size="10.00">push_log_blocks</text>
</a>
</g>
</g>
<!-- Node103&#45;&gt;Node104 -->
<g id="edge21" class="edge"><title>Node103&#45;&gt;Node104</title>
<path fill="none" stroke="midnightblue" d="M1126.71,-58.6569C1115.26,-61.6969 1103.51,-64.814 1092.42,-67.7594"/>
<polygon fill="midnightblue" stroke="midnightblue" points="1127.91,-61.96 1136.68,-56.0116 1126.11,-55.1943 1127.91,-61.96"/>
</g>
<!-- Node106 -->
<g id="node24" class="node"><title>Node106</title>
<g id="a_node24"><a xlink:href="classAP__Logger__Backend.html#af2057bbd5422205c3ebb4bd6528b4876" target="_top" xlink:title=" ">
<polygon fill="white" stroke="black" points="975.963,-16 975.963,-48 1092.04,-48 1092.04,-16 975.963,-16"/>
<text text-anchor="start" x="983.963" y="-34" font-family="Helvetica,sans-Serif" font-size="10.00">AP_Logger_Backend::</text>
<text text-anchor="middle" x="1034" y="-22" font-family="Helvetica,sans-Serif" font-size="10.00">push_log_blocks</text>
</a>
</g>
</g>
<!-- Node103&#45;&gt;Node106 -->
<g id="edge23" class="edge"><title>Node103&#45;&gt;Node106</title>
<path fill="none" stroke="midnightblue" d="M1117.76,-36.0867C1109.14,-35.6615 1100.51,-35.235 1092.23,-34.8264"/>
<polygon fill="midnightblue" stroke="midnightblue" points="1117.67,-39.5865 1127.83,-36.5841 1118.01,-32.595 1117.67,-39.5865"/>
</g>
<!-- Node105 -->
<g id="node23" class="node"><title>Node105</title>
<g id="a_node23"><a xlink:href="classAP__Logger__MAVLink.html#afdb4d0f3b20e0cf4132c236c8f968614" target="_top" xlink:title=" ">
<polygon fill="white" stroke="black" points="796.783,-67 796.783,-99 913.217,-99 913.217,-67 796.783,-67"/>
<text text-anchor="start" x="804.783" y="-85" font-family="Helvetica,sans-Serif" font-size="10.00">AP_Logger_MAVLink::</text>
<text text-anchor="middle" x="855" y="-73" font-family="Helvetica,sans-Serif" font-size="10.00">periodic_fullrate</text>
</a>
</g>
</g>
<!-- Node104&#45;&gt;Node105 -->
<g id="edge22" class="edge"><title>Node104&#45;&gt;Node105</title>
<path fill="none" stroke="midnightblue" d="M965.092,-83C948.06,-83 929.95,-83 913.481,-83"/>
<polygon fill="midnightblue" stroke="midnightblue" points="965.533,-86.5001 975.533,-83 965.533,-79.5001 965.533,-86.5001"/>
</g>
<!-- Node107 -->
<g id="node25" class="node"><title>Node107</title>
<g id="a_node25"><a xlink:href="classAP__Logger__Backend.html#a9343c876a19ea69c49771b070f4e18fd" target="_top" xlink:title=" ">
<polygon fill="white" stroke="black" points="770.115,-16 770.115,-48 939.885,-48 939.885,-16 770.115,-16"/>
<text text-anchor="start" x="778.115" y="-34" font-family="Helvetica,sans-Serif" font-size="10.00">AP_Logger_Backend::</text>
<text text-anchor="middle" x="855" y="-22" font-family="Helvetica,sans-Serif" font-size="10.00">WriteBlockCheckStartupMessages</text>
</a>
</g>
</g>
<!-- Node106&#45;&gt;Node107 -->
<g id="edge24" class="edge"><title>Node106&#45;&gt;Node107</title>
<path fill="none" stroke="midnightblue" d="M965.283,-32C957.065,-32 948.594,-32 940.175,-32"/>
<polygon fill="midnightblue" stroke="midnightblue" points="965.533,-35.5001 975.533,-32 965.533,-28.5001 965.533,-35.5001"/>
</g>
<!-- Node108 -->
<g id="node26" class="node"><title>Node108</title>
<g id="a_node26"><a xlink:href="classAP__Logger__Block.html#aca670ce37c20dcdad7c4b9cf40a37005" target="_top" xlink:title=" ">
<polygon fill="white" stroke="black" points="558.608,-51 558.608,-83 733.392,-83 733.392,-51 558.608,-51"/>
<text text-anchor="start" x="566.608" y="-69" font-family="Helvetica,sans-Serif" font-size="10.00">AP_Logger_Block::_WritePrioritised</text>
<text text-anchor="middle" x="646" y="-57" font-family="Helvetica,sans-Serif" font-size="10.00">Block</text>
</a>
</g>
</g>
<!-- Node107&#45;&gt;Node108 -->
<g id="edge25" class="edge"><title>Node107&#45;&gt;Node108</title>
<path fill="none" stroke="midnightblue" d="M760.199,-47.8601C751.378,-49.3515 742.463,-50.8589 733.712,-52.3386"/>
<polygon fill="midnightblue" stroke="midnightblue" points="760.827,-51.3036 770.104,-46.1854 759.66,-44.4016 760.827,-51.3036"/>
</g>
<!-- Node109 -->
<g id="node27" class="node"><title>Node109</title>
<g id="a_node27"><a xlink:href="classAP__Logger__MAVLink.html#a69be77a5af2ca49192a217bdc41d301a" target="_top" xlink:title=" ">
<polygon fill="white" stroke="black" points="587.783,-0 587.783,-32 704.217,-32 704.217,-0 587.783,-0"/>
<text text-anchor="start" x="595.783" y="-18" font-family="Helvetica,sans-Serif" font-size="10.00">AP_Logger_MAVLink::</text>
<text text-anchor="middle" x="646" y="-6" font-family="Helvetica,sans-Serif" font-size="10.00">_WritePrioritisedBlock</text>
</a>
</g>
</g>
<!-- Node107&#45;&gt;Node109 -->
<g id="edge26" class="edge"><title>Node107&#45;&gt;Node109</title>
<path fill="none" stroke="midnightblue" d="M759.942,-24.7298C740.992,-23.2651 721.616,-21.7674 704.383,-20.4354"/>
<polygon fill="midnightblue" stroke="midnightblue" points="759.864,-28.2341 770.104,-25.5153 760.403,-21.2549 759.864,-28.2341"/>
</g>
</g>
</svg>
