<?xml version="1.0" encoding="UTF-8" standalone="no"?>
<!DOCTYPE svg PUBLIC "-//W3C//DTD SVG 1.1//EN"
 "http://www.w3.org/Graphics/SVG/1.1/DTD/svg11.dtd">
<!-- Generated by graphviz version 2.30.1 (20130221.2233)
 -->
<!-- Title: AP_RCProtocol_ST24::process_pulse Pages: 1 -->
<svg width="1066pt" height="141pt"
 viewBox="0.00 0.00 1066.00 141.00" xmlns="http://www.w3.org/2000/svg" xmlns:xlink="http://www.w3.org/1999/xlink">
<g id="graph0" class="graph" transform="scale(1 1) rotate(0) translate(4 137)">
<title>AP_RCProtocol_ST24::process_pulse</title>
<polygon fill="white" stroke="white" points="-4,5 -4,-137 1063,-137 1063,5 -4,5"/>
<!-- Node11 -->
<g id="node1" class="node"><title>Node11</title>
<g id="a_node1"><a xlink:title=" ">
<polygon fill="#bfbfbf" stroke="black" points="0.253906,-25 0.253906,-57 115.746,-57 115.746,-25 0.253906,-25"/>
<text text-anchor="start" x="8.25391" y="-43" font-family="Helvetica,sans-Serif" font-size="10.00">AP_RCProtocol_ST24</text>
<text text-anchor="middle" x="58" y="-31" font-family="Helvetica,sans-Serif" font-size="10.00">::process_pulse</text>
</a>
</g>
</g>
<!-- Node12 -->
<g id="node2" class="node"><title>Node12</title>
<g id="a_node2"><a xlink:href="classSoftSerial.html#af475f92908f7b1464197f24e7b6d6f93" target="_top" xlink:title=" ">
<polygon fill="white" stroke="black" points="160.037,-51 160.037,-83 259.963,-83 259.963,-51 160.037,-51"/>
<text text-anchor="start" x="168.037" y="-69" font-family="Helvetica,sans-Serif" font-size="10.00">SoftSerial::process</text>
<text text-anchor="middle" x="210" y="-57" font-family="Helvetica,sans-Serif" font-size="10.00">_pulse</text>
</a>
</g>
</g>
<!-- Node11&#45;&gt;Node12 -->
<g id="edge1" class="edge"><title>Node11&#45;&gt;Node12</title>
<path fill="none" stroke="midnightblue" d="M116.136,-50.9037C127.166,-52.8154 138.743,-54.8221 149.835,-56.7448"/>
<polygon fill="midnightblue" stroke="midnightblue" points="149.406,-60.2225 159.857,-58.4818 150.602,-53.3253 149.406,-60.2225"/>
</g>
<!-- Node19 -->
<g id="node9" class="node"><title>Node19</title>
<g id="a_node9"><a xlink:href="classAP__RCProtocol__ST24.html#a36aac4acd37d2c21ec69e08e18a8916a" target="_top" xlink:title=" ">
<polygon fill="white" stroke="black" points="152.254,-0 152.254,-32 267.746,-32 267.746,-0 152.254,-0"/>
<text text-anchor="start" x="160.254" y="-18" font-family="Helvetica,sans-Serif" font-size="10.00">AP_RCProtocol_ST24</text>
<text text-anchor="middle" x="210" y="-6" font-family="Helvetica,sans-Serif" font-size="10.00">::_process_byte</text>
</a>
</g>
</g>
<!-- Node11&#45;&gt;Node19 -->
<g id="edge11" class="edge"><title>Node11&#45;&gt;Node19</title>
<path fill="none" stroke="midnightblue" d="M116.136,-31.4773C124.587,-30.0689 133.358,-28.607 141.986,-27.1689"/>
<polygon fill="midnightblue" stroke="midnightblue" points="142.734,-30.5927 152.022,-25.4963 141.583,-23.688 142.734,-30.5927"/>
</g>
<!-- Node13 -->
<g id="node3" class="node"><title>Node13</title>
<g id="a_node3"><a xlink:href="SmartRTL__test_8cpp.html#ad20897c5c8bd47f5d4005989bead0e55" target="_top" xlink:title=" ">
<polygon fill="white" stroke="black" points="342.884,-57 342.884,-77 381.116,-77 381.116,-57 342.884,-57"/>
<text text-anchor="middle" x="362" y="-63" font-family="Helvetica,sans-Serif" font-size="10.00">reset</text>
</a>
</g>
</g>
<!-- Node12&#45;&gt;Node13 -->
<g id="edge2" class="edge"><title>Node12&#45;&gt;Node13</title>
<path fill="none" stroke="midnightblue" d="M260.116,-67C284.161,-67 312.252,-67 332.677,-67"/>
<polygon fill="midnightblue" stroke="midnightblue" points="332.879,-70.5001 342.879,-67 332.878,-63.5001 332.879,-70.5001"/>
</g>
<!-- Node14 -->
<g id="node4" class="node"><title>Node14</title>
<g id="a_node4"><a xlink:href="classAP__SmartRTL.html#ab385d8b52e321f9a01d01b42e52e0c4b" target="_top" xlink:title=" ">
<polygon fill="white" stroke="black" points="608.12,-38 608.12,-58 737.88,-58 737.88,-38 608.12,-38"/>
<text text-anchor="middle" x="673" y="-44" font-family="Helvetica,sans-Serif" font-size="10.00">AP_SmartRTL::set_home</text>
</a>
</g>
</g>
<!-- Node13&#45;&gt;Node14 -->
<g id="edge3" class="edge"><title>Node13&#45;&gt;Node14</title>
<path fill="none" stroke="midnightblue" d="M381.404,-65.8684C423.013,-63.3099 526.261,-56.9613 597.761,-52.5649"/>
<polygon fill="midnightblue" stroke="midnightblue" points="598.302,-56.0383 608.069,-51.931 597.873,-49.0515 598.302,-56.0383"/>
</g>
<!-- Node18 -->
<g id="node8" class="node"><title>Node18</title>
<g id="a_node8"><a xlink:href="classAP__SmartRTL.html#ab817af3df8d87b6d60859fd7e5e6a0d9" target="_top" xlink:title=" ">
<polygon fill="white" stroke="black" points="455.785,-77 455.785,-97 572.215,-97 572.215,-77 455.785,-77"/>
<text text-anchor="middle" x="514" y="-83" font-family="Helvetica,sans-Serif" font-size="10.00">AP_SmartRTL::update</text>
</a>
</g>
</g>
<!-- Node13&#45;&gt;Node18 -->
<g id="edge7" class="edge"><title>Node13&#45;&gt;Node18</title>
<path fill="none" stroke="midnightblue" d="M381.393,-69.4524C397.548,-71.6064 422.079,-74.8773 445.603,-78.0138"/>
<polygon fill="midnightblue" stroke="midnightblue" points="445.221,-81.4937 455.596,-79.3461 446.146,-74.5551 445.221,-81.4937"/>
</g>
<!-- Node15 -->
<g id="node5" class="node"><title>Node15</title>
<g id="a_node5"><a xlink:href="namespaceAP.html#a99432cfdb696952c9b7146f155a815aa" target="_top" xlink:title=" ">
<polygon fill="white" stroke="black" points="806.825,-54 806.825,-74 861.175,-74 861.175,-54 806.825,-54"/>
<text text-anchor="middle" x="834" y="-60" font-family="Helvetica,sans-Serif" font-size="10.00">AP::ahrs</text>
</a>
</g>
</g>
<!-- Node14&#45;&gt;Node15 -->
<g id="edge4" class="edge"><title>Node14&#45;&gt;Node15</title>
<path fill="none" stroke="midnightblue" d="M738.213,-54.4617C758.055,-56.4584 779.218,-58.5879 796.501,-60.3272"/>
<polygon fill="midnightblue" stroke="midnightblue" points="796.415,-63.8361 806.715,-61.355 797.116,-56.8712 796.415,-63.8361"/>
</g>
<!-- Node17 -->
<g id="node7" class="node"><title>Node17</title>
<g id="a_node7"><a xlink:href="classAP__AHRS.html#a3e061eda3110837c4f389b75003423e2" target="_top" xlink:title=" ">
<polygon fill="white" stroke="black" points="774.03,-101 774.03,-133 893.97,-133 893.97,-101 774.03,-101"/>
<text text-anchor="start" x="782.03" y="-119" font-family="Helvetica,sans-Serif" font-size="10.00">AP_AHRS::get_relative</text>
<text text-anchor="middle" x="834" y="-107" font-family="Helvetica,sans-Serif" font-size="10.00">_position_NED_origin</text>
</a>
</g>
</g>
<!-- Node14&#45;&gt;Node17 -->
<g id="edge6" class="edge"><title>Node14&#45;&gt;Node17</title>
<path fill="none" stroke="midnightblue" d="M697.12,-58.0332C720.513,-68.185 757.325,-84.1599 786.736,-96.923"/>
<polygon fill="midnightblue" stroke="midnightblue" points="785.431,-100.172 795.998,-100.943 788.218,-93.7509 785.431,-100.172"/>
</g>
<!-- Node16 -->
<g id="node6" class="node"><title>Node16</title>
<g id="a_node6"><a xlink:href="classAP__AHRS.html#a3db167e808ba6d312c3b746e558008e9" target="_top" xlink:title=" ">
<polygon fill="white" stroke="black" points="930.133,-54 930.133,-74 1057.87,-74 1057.87,-54 930.133,-54"/>
<text text-anchor="middle" x="994" y="-60" font-family="Helvetica,sans-Serif" font-size="10.00">AP_AHRS::get_singleton</text>
</a>
</g>
</g>
<!-- Node15&#45;&gt;Node16 -->
<g id="edge5" class="edge"><title>Node15&#45;&gt;Node16</title>
<path fill="none" stroke="midnightblue" d="M861.446,-64C877.526,-64 898.923,-64 919.78,-64"/>
<polygon fill="midnightblue" stroke="midnightblue" points="919.95,-67.5001 929.95,-64 919.95,-60.5001 919.95,-67.5001"/>
</g>
<!-- Node18&#45;&gt;Node14 -->
<g id="edge8" class="edge"><title>Node18&#45;&gt;Node14</title>
<path fill="none" stroke="midnightblue" d="M555.431,-76.9565C575.667,-71.9298 600.356,-65.7968 621.795,-60.4713"/>
<polygon fill="midnightblue" stroke="midnightblue" points="622.844,-63.8171 631.706,-58.0094 621.157,-57.0235 622.844,-63.8171"/>
</g>
<!-- Node18&#45;&gt;Node15 -->
<g id="edge9" class="edge"><title>Node18&#45;&gt;Node15</title>
<path fill="none" stroke="midnightblue" d="M572.219,-82.8615C637.264,-78.157 741.513,-70.617 796.43,-66.645"/>
<polygon fill="midnightblue" stroke="midnightblue" points="797.008,-70.1124 806.729,-65.9001 796.503,-63.1307 797.008,-70.1124"/>
</g>
<!-- Node18&#45;&gt;Node17 -->
<g id="edge10" class="edge"><title>Node18&#45;&gt;Node17</title>
<path fill="none" stroke="midnightblue" d="M572.219,-92.398C625.947,-97.4667 706.422,-105.059 763.75,-110.467"/>
<polygon fill="midnightblue" stroke="midnightblue" points="763.531,-113.962 773.815,-111.417 764.188,-106.993 763.531,-113.962"/>
</g>
<!-- Node20 -->
<g id="node10" class="node"><title>Node20</title>
<g id="a_node10"><a xlink:href="classAP__RCProtocol__ST24.html#a4ed5faafab3b42e560c3f47a93215448" target="_top" xlink:title=" ">
<polygon fill="white" stroke="black" points="304.254,-0 304.254,-32 419.746,-32 419.746,-0 304.254,-0"/>
<text text-anchor="start" x="312.254" y="-18" font-family="Helvetica,sans-Serif" font-size="10.00">AP_RCProtocol_ST24</text>
<text text-anchor="middle" x="362" y="-6" font-family="Helvetica,sans-Serif" font-size="10.00">::st24_crc8</text>
</a>
</g>
</g>
<!-- Node19&#45;&gt;Node20 -->
<g id="edge12" class="edge"><title>Node19&#45;&gt;Node20</title>
<path fill="none" stroke="midnightblue" d="M268.136,-16C276.587,-16 285.358,-16 293.986,-16"/>
<polygon fill="midnightblue" stroke="midnightblue" points="294.022,-19.5001 304.022,-16 294.022,-12.5001 294.022,-19.5001"/>
</g>
</g>
</svg>
