<?xml version="1.0" encoding="UTF-8" standalone="no"?>
<!DOCTYPE svg PUBLIC "-//W3C//DTD SVG 1.1//EN"
 "http://www.w3.org/Graphics/SVG/1.1/DTD/svg11.dtd">
<!-- Generated by graphviz version 2.30.1 (20130221.2233)
 -->
<!-- Title: SRV_Channels::get_output_pwm Pages: 1 -->
<!--zoomable 385 -->
<svg id="main" version="1.1" xmlns="http://www.w3.org/2000/svg" xmlns:xlink="http://www.w3.org/1999/xlink" xml:space="preserve" onload="init(evt)">
<style type="text/css"><![CDATA[
.edge:hover path { stroke: red; }
.edge:hover polygon { stroke: red; fill: red; }
]]></style>
<script type="text/javascript"><![CDATA[
var edges = document.getElementsByTagName('g');
if (edges && edges.length) {
  for (var i=0;i<edges.length;i++) {
    if (edges[i].id.substr(0,4)=='edge') {
      edges[i].setAttribute('class','edge');
    }
  }
}
]]></script>
        <defs>
                <circle id="rim" cx="0" cy="0" r="7"/>
                <circle id="rim2" cx="0" cy="0" r="3.5"/>
                <g id="zoomPlus">
                        <use xlink:href="#rim" fill="#404040">
                                <set attributeName="fill" to="#808080" begin="zoomplus.mouseover" end="zoomplus.mouseout"/>
                        </use>
                        <path d="M-4,0h8M0,-4v8" fill="none" stroke="white" stroke-width="1.5" pointer-events="none"/>
                </g>
                <g id="zoomMin">
                        <use xlink:href="#rim" fill="#404040">
                                <set attributeName="fill" to="#808080" begin="zoomminus.mouseover" end="zoomminus.mouseout"/>
                        </use>
                        <path d="M-4,0h8" fill="none" stroke="white" stroke-width="1.5" pointer-events="none"/>
                </g>
                <g id="dirArrow">
                        <path fill="none" stroke="white" stroke-width="1.5" d="M0,-3.0v7 M-2.5,-0.5L0,-3.0L2.5,-0.5"/>
                </g>
               <g id="resetDef">
                       <use xlink:href="#rim2" fill="#404040">
                               <set attributeName="fill" to="#808080" begin="reset.mouseover" end="reset.mouseout"/>
                       </use>
               </g>
        </defs>

<script type="text/javascript">
var viewWidth = 1286;
var viewHeight = 385;
var sectionId = 'dynsection-22';
</script>
<script xlink:href="svgpan.js"/>
<svg id="graph" class="graph">
<g id="viewport">
<title>SRV_Channels::get_output_pwm</title>
<polygon fill="white" stroke="white" points="-4,5 -4,-381 1283,-381 1283,5 -4,5"/>
<!-- Node524 -->
<g id="node1" class="node"><title>Node524</title>
<g id="a_node1"><a xlink:title=" ">
<polygon fill="#bfbfbf" stroke="black" points="0.152344,-188 0.152344,-208 163.848,-208 163.848,-188 0.152344,-188"/>
<text text-anchor="middle" x="82" y="-194" font-family="Helvetica,sans-Serif" font-size="10.00">SRV_Channels::get_output_pwm</text>
</a>
</g>
</g>
<!-- Node525 -->
<g id="node2" class="node"><title>Node525</title>
<g id="a_node2"><a xlink:href="classSRV__Channels.html#aa8ce392569ac9b773e5edd27bd3c6650" target="_top" xlink:title=" ">
<polygon fill="white" stroke="black" points="212.061,-231 212.061,-263 317.939,-263 317.939,-231 212.061,-231"/>
<text text-anchor="start" x="220.061" y="-249" font-family="Helvetica,sans-Serif" font-size="10.00">SRV_Channels::find</text>
<text text-anchor="middle" x="265" y="-237" font-family="Helvetica,sans-Serif" font-size="10.00">_channel</text>
</a>
</g>
</g>
<!-- Node524&#45;&gt;Node525 -->
<g id="edge1" class="edge"><title>Node524&#45;&gt;Node525</title>
<path fill="none" stroke="midnightblue" d="M120.065,-208.034C143.646,-214.418 174.768,-222.843 202.038,-230.226"/>
<polygon fill="midnightblue" stroke="midnightblue" points="201.323,-233.658 211.89,-232.893 203.152,-226.901 201.323,-233.658"/>
</g>
<!-- Node534 -->
<g id="node11" class="node"><title>Node534</title>
<g id="a_node11"><a xlink:href="classSRV__Channel.html#a0e60517967c7ac444d0aa7ab95299b05" target="_top" xlink:title=" ">
<polygon fill="white" stroke="black" points="200.394,-118 200.394,-138 329.606,-138 329.606,-118 200.394,-118"/>
<text text-anchor="middle" x="265" y="-124" font-family="Helvetica,sans-Serif" font-size="10.00">SRV_Channel::calc_pwm</text>
</a>
</g>
</g>
<!-- Node524&#45;&gt;Node534 -->
<g id="edge10" class="edge"><title>Node524&#45;&gt;Node534</title>
<path fill="none" stroke="midnightblue" d="M108.933,-187.971C140.384,-175.807 193.544,-155.248 228.707,-141.649"/>
<polygon fill="midnightblue" stroke="midnightblue" points="230.051,-144.882 238.115,-138.011 227.526,-138.353 230.051,-144.882"/>
</g>
<!-- Node526 -->
<g id="node3" class="node"><title>Node526</title>
<g id="a_node3"><a xlink:href="classSRV__Channels.html#a2bce803f8a1de705be47d8cf7a46584c" target="_top" xlink:title="setup the output range types of all functions">
<polygon fill="white" stroke="black" points="384.83,-298 384.83,-330 505.17,-330 505.17,-298 384.83,-298"/>
<text text-anchor="start" x="392.83" y="-316" font-family="Helvetica,sans-Serif" font-size="10.00">SRV_Channels::update</text>
<text text-anchor="middle" x="445" y="-304" font-family="Helvetica,sans-Serif" font-size="10.00">_aux_servo_function</text>
</a>
</g>
</g>
<!-- Node525&#45;&gt;Node526 -->
<g id="edge2" class="edge"><title>Node525&#45;&gt;Node526</title>
<path fill="none" stroke="midnightblue" d="M308.635,-263.048C333.643,-272.461 365.426,-284.424 391.909,-294.393"/>
<polygon fill="midnightblue" stroke="midnightblue" points="390.812,-297.72 401.404,-297.967 393.278,-291.168 390.812,-297.72"/>
</g>
<!-- Node532 -->
<g id="node9" class="node"><title>Node532</title>
<g id="a_node9"><a xlink:href="classSRV__Channels.html#a378e0022237c196e6107c9e79f340285" target="_top" xlink:title=" ">
<polygon fill="white" stroke="black" points="382.61,-231 382.61,-263 507.39,-263 507.39,-231 382.61,-231"/>
<text text-anchor="start" x="390.61" y="-249" font-family="Helvetica,sans-Serif" font-size="10.00">SRV_Channels::function</text>
<text text-anchor="middle" x="445" y="-237" font-family="Helvetica,sans-Serif" font-size="10.00">_assigned</text>
</a>
</g>
</g>
<!-- Node525&#45;&gt;Node532 -->
<g id="edge8" class="edge"><title>Node525&#45;&gt;Node532</title>
<path fill="none" stroke="midnightblue" d="M317.963,-247C335.02,-247 354.286,-247 372.528,-247"/>
<polygon fill="midnightblue" stroke="midnightblue" points="372.537,-250.5 382.537,-247 372.537,-243.5 372.537,-250.5"/>
</g>
<!-- Node527 -->
<g id="node4" class="node"><title>Node527</title>
<g id="a_node4"><a xlink:href="classBitmask.html#ab753bfb6058f8a60e523c949802f3823" target="_top" xlink:title=" ">
<polygon fill="white" stroke="black" points="581.601,-357 581.601,-377 670.399,-377 670.399,-357 581.601,-357"/>
<text text-anchor="middle" x="626" y="-363" font-family="Helvetica,sans-Serif" font-size="10.00">Bitmask::clearall</text>
</a>
</g>
</g>
<!-- Node526&#45;&gt;Node527 -->
<g id="edge3" class="edge"><title>Node526&#45;&gt;Node527</title>
<path fill="none" stroke="midnightblue" d="M500.192,-330.046C526.148,-337.731 556.822,-346.813 581.265,-354.051"/>
<polygon fill="midnightblue" stroke="midnightblue" points="580.403,-357.445 590.985,-356.929 582.39,-350.733 580.403,-357.445"/>
</g>
<!-- Node528 -->
<g id="node5" class="node"><title>Node528</title>
<g id="a_node5"><a xlink:href="classSRV__Channel.html#aadaab2dbeb62aa6f7b42eb39bf4f2430" target="_top" xlink:title=" ">
<polygon fill="white" stroke="black" points="560.554,-306 560.554,-338 691.446,-338 691.446,-306 560.554,-306"/>
<text text-anchor="start" x="568.554" y="-324" font-family="Helvetica,sans-Serif" font-size="10.00">SRV_Channel::aux_servo</text>
<text text-anchor="middle" x="626" y="-312" font-family="Helvetica,sans-Serif" font-size="10.00">_function_setup</text>
</a>
</g>
</g>
<!-- Node526&#45;&gt;Node528 -->
<g id="edge4" class="edge"><title>Node526&#45;&gt;Node528</title>
<path fill="none" stroke="midnightblue" d="M505.604,-316.664C519.9,-317.303 535.345,-317.993 550.231,-318.658"/>
<polygon fill="midnightblue" stroke="midnightblue" points="550.28,-322.164 560.426,-319.114 550.593,-315.171 550.28,-322.164"/>
</g>
<!-- Node531 -->
<g id="node8" class="node"><title>Node531</title>
<g id="a_node8"><a xlink:href="classBitmask.html#a6d942e61abc55c452b001b11dadf8a18" target="_top" xlink:title=" ">
<polygon fill="white" stroke="black" points="590.771,-267 590.771,-287 661.229,-287 661.229,-267 590.771,-267"/>
<text text-anchor="middle" x="626" y="-273" font-family="Helvetica,sans-Serif" font-size="10.00">Bitmask::set</text>
</a>
</g>
</g>
<!-- Node526&#45;&gt;Node531 -->
<g id="edge7" class="edge"><title>Node526&#45;&gt;Node531</title>
<path fill="none" stroke="midnightblue" d="M505.604,-301.68C530.122,-296.612 558.022,-290.845 580.683,-286.16"/>
<polygon fill="midnightblue" stroke="midnightblue" points="581.611,-289.543 590.695,-284.091 580.194,-282.688 581.611,-289.543"/>
</g>
<!-- Node529 -->
<g id="node6" class="node"><title>Node529</title>
<g id="a_node6"><a xlink:href="classSRV__Channel.html#a04f5baeec785c9f696798fa4a6c7d6ce" target="_top" xlink:title=" ">
<polygon fill="white" stroke="black" points="728.384,-331 728.384,-351 857.616,-351 857.616,-331 728.384,-331"/>
<text text-anchor="middle" x="793" y="-337" font-family="Helvetica,sans-Serif" font-size="10.00">SRV_Channel::set_range</text>
</a>
</g>
</g>
<!-- Node528&#45;&gt;Node529 -->
<g id="edge5" class="edge"><title>Node528&#45;&gt;Node529</title>
<path fill="none" stroke="midnightblue" d="M691.739,-329.455C700.369,-330.449 709.272,-331.474 718.045,-332.484"/>
<polygon fill="midnightblue" stroke="midnightblue" points="717.924,-335.993 728.259,-333.66 718.725,-329.039 717.924,-335.993"/>
</g>
<!-- Node530 -->
<g id="node7" class="node"><title>Node530</title>
<g id="a_node7"><a xlink:href="classSRV__Channel.html#aaf3193d70a486747bfbc9c6398cff261" target="_top" xlink:title=" ">
<polygon fill="white" stroke="black" points="728.938,-292 728.938,-312 857.062,-312 857.062,-292 728.938,-292"/>
<text text-anchor="middle" x="793" y="-298" font-family="Helvetica,sans-Serif" font-size="10.00">SRV_Channel::set_angle</text>
</a>
</g>
</g>
<!-- Node528&#45;&gt;Node530 -->
<g id="edge6" class="edge"><title>Node528&#45;&gt;Node530</title>
<path fill="none" stroke="midnightblue" d="M691.739,-314.153C700.594,-313.079 709.737,-311.971 718.731,-310.881"/>
<polygon fill="midnightblue" stroke="midnightblue" points="719.293,-314.339 728.799,-309.661 718.451,-307.39 719.293,-314.339"/>
</g>
<!-- Node533 -->
<g id="node10" class="node"><title>Node533</title>
<g id="a_node10"><a xlink:href="classBitmask.html#a0be34bb49dbf06972c4a16c0b12cd846" target="_top" xlink:title=" ">
<polygon fill="white" stroke="black" points="590.49,-228 590.49,-248 661.51,-248 661.51,-228 590.49,-228"/>
<text text-anchor="middle" x="626" y="-234" font-family="Helvetica,sans-Serif" font-size="10.00">Bitmask::get</text>
</a>
</g>
</g>
<!-- Node532&#45;&gt;Node533 -->
<g id="edge9" class="edge"><title>Node532&#45;&gt;Node533</title>
<path fill="none" stroke="midnightblue" d="M507.602,-243.903C531.523,-242.7 558.398,-241.349 580.392,-240.243"/>
<polygon fill="midnightblue" stroke="midnightblue" points="580.632,-243.735 590.444,-239.737 580.281,-236.744 580.632,-243.735"/>
</g>
<!-- Node535 -->
<g id="node12" class="node"><title>Node535</title>
<g id="a_node12"><a xlink:href="classSRV__Channel.html#a8f507a020a37d43024a15d75c11f779b" target="_top" xlink:title=" ">
<polygon fill="white" stroke="black" points="387.889,-180 387.889,-212 502.111,-212 502.111,-180 387.889,-180"/>
<text text-anchor="start" x="395.889" y="-198" font-family="Helvetica,sans-Serif" font-size="10.00">SRV_Channel::should</text>
<text text-anchor="middle" x="445" y="-186" font-family="Helvetica,sans-Serif" font-size="10.00">_e_stop</text>
</a>
</g>
</g>
<!-- Node534&#45;&gt;Node535 -->
<g id="edge11" class="edge"><title>Node534&#45;&gt;Node535</title>
<path fill="none" stroke="midnightblue" d="M288.442,-138.001C308.581,-146.838 339.033,-159.859 366,-170 371.875,-172.209 378.032,-174.426 384.202,-176.584"/>
<polygon fill="midnightblue" stroke="midnightblue" points="383.275,-179.966 393.869,-179.915 385.555,-173.348 383.275,-179.966"/>
</g>
<!-- Node536 -->
<g id="node13" class="node"><title>Node536</title>
<g id="a_node13"><a xlink:href="classSRV__Channel.html#ab088a5a7d588b766d004f579088d9504" target="_top" xlink:title=" ">
<polygon fill="white" stroke="black" points="375.379,-141 375.379,-161 514.621,-161 514.621,-141 375.379,-141"/>
<text text-anchor="middle" x="445" y="-147" font-family="Helvetica,sans-Serif" font-size="10.00">SRV_Channel::get_function</text>
</a>
</g>
</g>
<!-- Node534&#45;&gt;Node536 -->
<g id="edge12" class="edge"><title>Node534&#45;&gt;Node536</title>
<path fill="none" stroke="midnightblue" d="M329.759,-136.239C341.294,-137.729 353.445,-139.299 365.345,-140.837"/>
<polygon fill="midnightblue" stroke="midnightblue" points="364.898,-144.308 375.264,-142.118 365.795,-137.366 364.898,-144.308"/>
</g>
<!-- Node537 -->
<g id="node14" class="node"><title>Node537</title>
<g id="a_node14"><a xlink:href="classSRV__Channel.html#a3ffa7019fb9b408b8f960916e87d3ae7" target="_top" xlink:title=" ">
<polygon fill="white" stroke="black" points="379.285,-90 379.285,-122 510.715,-122 510.715,-90 379.285,-90"/>
<text text-anchor="start" x="387.285" y="-108" font-family="Helvetica,sans-Serif" font-size="10.00">SRV_Channel::pwm_from</text>
<text text-anchor="middle" x="445" y="-96" font-family="Helvetica,sans-Serif" font-size="10.00">_angle</text>
</a>
</g>
</g>
<!-- Node534&#45;&gt;Node537 -->
<g id="edge13" class="edge"><title>Node534&#45;&gt;Node537</title>
<path fill="none" stroke="midnightblue" d="M329.759,-120.12C342.558,-118.538 356.115,-116.862 369.248,-115.239"/>
<polygon fill="midnightblue" stroke="midnightblue" points="369.693,-118.711 379.188,-114.01 368.834,-111.764 369.693,-118.711"/>
</g>
<!-- Node545 -->
<g id="node22" class="node"><title>Node545</title>
<g id="a_node22"><a xlink:href="classSRV__Channel.html#a84323eefb049d7183196722cc0b15e50" target="_top" xlink:title=" ">
<polygon fill="white" stroke="black" points="379.285,-39 379.285,-71 510.715,-71 510.715,-39 379.285,-39"/>
<text text-anchor="start" x="387.285" y="-57" font-family="Helvetica,sans-Serif" font-size="10.00">SRV_Channel::pwm_from</text>
<text text-anchor="middle" x="445" y="-45" font-family="Helvetica,sans-Serif" font-size="10.00">_range</text>
</a>
</g>
</g>
<!-- Node534&#45;&gt;Node545 -->
<g id="edge21" class="edge"><title>Node534&#45;&gt;Node545</title>
<path fill="none" stroke="midnightblue" d="M285.618,-117.938C305.565,-107.91 337.503,-92.4005 366,-81 371.519,-78.7922 377.306,-76.6148 383.128,-74.5162"/>
<polygon fill="midnightblue" stroke="midnightblue" points="384.649,-77.6913 392.918,-71.0675 382.323,-71.0889 384.649,-77.6913"/>
</g>
<!-- Node546 -->
<g id="node23" class="node"><title>Node546</title>
<g id="a_node23"><a xlink:href="classSRV__Channel.html#ac3aad9644438d9f8250effcb21858ef3" target="_top" xlink:title=" ">
<polygon fill="white" stroke="black" points="365.933,-0 365.933,-20 524.067,-20 524.067,-0 365.933,-0"/>
<text text-anchor="middle" x="445" y="-6" font-family="Helvetica,sans-Serif" font-size="10.00">SRV_Channel::set_output_pwm</text>
</a>
</g>
</g>
<!-- Node534&#45;&gt;Node546 -->
<g id="edge23" class="edge"><title>Node534&#45;&gt;Node546</title>
<path fill="none" stroke="midnightblue" d="M273.294,-117.923C288.299,-97.9508 324.704,-53.2701 366,-30 370.267,-27.5958 374.826,-25.4751 379.518,-23.6053"/>
<polygon fill="midnightblue" stroke="midnightblue" points="381.05,-26.7747 389.285,-20.1092 378.691,-20.1842 381.05,-26.7747"/>
</g>
<!-- Node538 -->
<g id="node15" class="node"><title>Node538</title>
<g id="a_node15"><a xlink:href="AP__Math_8h.html#a68558c4f79a8582543daefde13c64abc" target="_top" xlink:title=" ">
<polygon fill="white" stroke="black" points="584.089,-71 584.089,-91 667.911,-91 667.911,-71 584.089,-71"/>
<text text-anchor="middle" x="626" y="-77" font-family="Helvetica,sans-Serif" font-size="10.00">constrain_int16</text>
</a>
</g>
</g>
<!-- Node537&#45;&gt;Node538 -->
<g id="edge14" class="edge"><title>Node537&#45;&gt;Node538</title>
<path fill="none" stroke="midnightblue" d="M510.876,-96.9391C531.665,-94.0356 554.376,-90.8637 574.025,-88.1194"/>
<polygon fill="midnightblue" stroke="midnightblue" points="574.575,-91.5766 583.995,-86.7269 573.607,-84.6439 574.575,-91.5766"/>
</g>
<!-- Node539 -->
<g id="node16" class="node"><title>Node539</title>
<g id="a_node16"><a xlink:href="AP__Math_8h.html#a20e8f8671c282c69c1954652b6d61585" target="_top" xlink:title=" ">
<polygon fill="white" stroke="black" points="749.978,-71 749.978,-91 836.022,-91 836.022,-71 749.978,-71"/>
<text text-anchor="middle" x="793" y="-77" font-family="Helvetica,sans-Serif" font-size="10.00">constrain_value</text>
</a>
</g>
</g>
<!-- Node538&#45;&gt;Node539 -->
<g id="edge15" class="edge"><title>Node538&#45;&gt;Node539</title>
<path fill="none" stroke="midnightblue" d="M668.211,-81C689.815,-81 716.509,-81 739.571,-81"/>
<polygon fill="midnightblue" stroke="midnightblue" points="739.881,-84.5001 749.881,-81 739.881,-77.5001 739.881,-84.5001"/>
</g>
<!-- Node540 -->
<g id="node17" class="node"><title>Node540</title>
<g id="a_node17"><a xlink:href="namespaceAP.html#afceb236ff617aaaa2b08afacd72532b0" target="_top" xlink:title=" ">
<polygon fill="white" stroke="black" points="908.596,-91 908.596,-111 997.404,-111 997.404,-91 908.596,-91"/>
<text text-anchor="middle" x="953" y="-97" font-family="Helvetica,sans-Serif" font-size="10.00">AP::internalerror</text>
</a>
</g>
</g>
<!-- Node539&#45;&gt;Node540 -->
<g id="edge16" class="edge"><title>Node539&#45;&gt;Node540</title>
<path fill="none" stroke="midnightblue" d="M836.341,-86.3596C855.421,-88.7749 878.167,-91.6541 898.419,-94.2176"/>
<polygon fill="midnightblue" stroke="midnightblue" points="898.08,-97.7025 908.44,-95.4861 898.959,-90.7579 898.08,-97.7025"/>
</g>
<!-- Node541 -->
<g id="node18" class="node"><title>Node541</title>
<g id="a_node18"><a xlink:href="classAP__InternalError.html#ab34174ba770b976b39a18c2b23e854f2" target="_top" xlink:title=" ">
<polygon fill="white" stroke="black" points="894.426,-52 894.426,-72 1011.57,-72 1011.57,-52 894.426,-52"/>
<text text-anchor="middle" x="953" y="-58" font-family="Helvetica,sans-Serif" font-size="10.00">AP_InternalError::error</text>
</a>
</g>
</g>
<!-- Node539&#45;&gt;Node541 -->
<g id="edge17" class="edge"><title>Node539&#45;&gt;Node541</title>
<path fill="none" stroke="midnightblue" d="M836.341,-75.9083C851.102,-74.1333 868.057,-72.0944 884.354,-70.1346"/>
<polygon fill="midnightblue" stroke="midnightblue" points="884.88,-73.5967 894.391,-68.9277 884.044,-66.6467 884.88,-73.5967"/>
</g>
<!-- Node542 -->
<g id="node19" class="node"><title>Node542</title>
<g id="a_node19"><a xlink:href="namespaceAP__HAL.html#a71832f03d849a0c088f04fc98d3c8143" target="_top" xlink:title=" ">
<polygon fill="white" stroke="black" points="1048.09,-52 1048.09,-72 1131.91,-72 1131.91,-52 1048.09,-52"/>
<text text-anchor="middle" x="1090" y="-58" font-family="Helvetica,sans-Serif" font-size="10.00">AP_HAL::panic</text>
</a>
</g>
</g>
<!-- Node541&#45;&gt;Node542 -->
<g id="edge18" class="edge"><title>Node541&#45;&gt;Node542</title>
<path fill="none" stroke="midnightblue" d="M1011.64,-62C1020.31,-62 1029.19,-62 1037.7,-62"/>
<polygon fill="midnightblue" stroke="midnightblue" points="1037.87,-65.5001 1047.87,-62 1037.87,-58.5001 1037.87,-65.5001"/>
</g>
<!-- Node543 -->
<g id="node20" class="node"><title>Node543</title>
<g id="a_node20"><a xlink:href="stdio_8h.html#aae132cc6af1eb6cf43bf011d8d63e854" target="_top" xlink:title=" ">
<polygon fill="white" stroke="black" points="1201.38,-75 1201.38,-95 1244.62,-95 1244.62,-75 1201.38,-75"/>
<text text-anchor="middle" x="1223" y="-81" font-family="Helvetica,sans-Serif" font-size="10.00">vprintf</text>
</a>
</g>
</g>
<!-- Node542&#45;&gt;Node543 -->
<g id="edge19" class="edge"><title>Node542&#45;&gt;Node543</title>
<path fill="none" stroke="midnightblue" d="M1132.09,-69.2142C1151.1,-72.5526 1173.32,-76.4533 1190.91,-79.542"/>
<polygon fill="midnightblue" stroke="midnightblue" points="1190.74,-83.0658 1201.2,-81.3478 1191.95,-76.1712 1190.74,-83.0658"/>
</g>
<!-- Node544 -->
<g id="node21" class="node"><title>Node544</title>
<g id="a_node21"><a xlink:href="classAP__HAL_1_1Scheduler.html#a78c4f1b1f192ac1c99544b6cc8f099b0" target="_top" xlink:title=" ">
<polygon fill="white" stroke="black" points="1167.75,-24 1167.75,-56 1278.25,-56 1278.25,-24 1167.75,-24"/>
<text text-anchor="start" x="1175.75" y="-42" font-family="Helvetica,sans-Serif" font-size="10.00">AP_HAL::Scheduler::</text>
<text text-anchor="middle" x="1223" y="-30" font-family="Helvetica,sans-Serif" font-size="10.00">delay_microseconds</text>
</a>
</g>
</g>
<!-- Node542&#45;&gt;Node544 -->
<g id="edge20" class="edge"><title>Node542&#45;&gt;Node544</title>
<path fill="none" stroke="midnightblue" d="M1132.09,-55.0994C1140.18,-53.7408 1148.85,-52.2849 1157.5,-50.8329"/>
<polygon fill="midnightblue" stroke="midnightblue" points="1158.32,-54.2441 1167.6,-49.1361 1157.16,-47.3407 1158.32,-54.2441"/>
</g>
<!-- Node545&#45;&gt;Node538 -->
<g id="edge22" class="edge"><title>Node545&#45;&gt;Node538</title>
<path fill="none" stroke="midnightblue" d="M510.876,-64.4234C531.665,-67.443 554.376,-70.7418 574.025,-73.5959"/>
<polygon fill="midnightblue" stroke="midnightblue" points="573.596,-77.0701 583.995,-75.044 574.602,-70.1428 573.596,-77.0701"/>
</g>
</g>
</svg>
        <g id="navigator" transform="translate(0 0)" fill="#404254">
                <rect fill="#f2f5e9" fill-opacity="0.5" stroke="#606060" stroke-width=".5" x="0" y="0" width="60" height="60"/>
                <use id="zoomplus" xlink:href="#zoomPlus" x="17" y="9" onmousedown="handleZoom(evt,'in')"/>
                <use id="zoomminus" xlink:href="#zoomMin" x="42" y="9" onmousedown="handleZoom(evt,'out')"/>
                <use id="reset" xlink:href="#resetDef" x="30" y="36" onmousedown="handleReset()"/>
                <g id="arrowUp" xlink:href="#dirArrow" transform="translate(30 24)" onmousedown="handlePan(0,-1)">
                  <use xlink:href="#rim" fill="#404040">
                        <set attributeName="fill" to="#808080" begin="arrowUp.mouseover" end="arrowUp.mouseout"/>
                  </use>
                  <path fill="none" stroke="white" stroke-width="1.5" d="M0,-3.0v7 M-2.5,-0.5L0,-3.0L2.5,-0.5"/>
                </g>
                <g id="arrowRight" xlink:href="#dirArrow" transform="rotate(90) translate(36 -43)" onmousedown="handlePan(1,0)">
                  <use xlink:href="#rim" fill="#404040">
                        <set attributeName="fill" to="#808080" begin="arrowRight.mouseover" end="arrowRight.mouseout"/>
                  </use>
                  <path fill="none" stroke="white" stroke-width="1.5" d="M0,-3.0v7 M-2.5,-0.5L0,-3.0L2.5,-0.5"/>
                </g>
                <g id="arrowDown" xlink:href="#dirArrow" transform="rotate(180) translate(-30 -48)" onmousedown="handlePan(0,1)">
                  <use xlink:href="#rim" fill="#404040">
                        <set attributeName="fill" to="#808080" begin="arrowDown.mouseover" end="arrowDown.mouseout"/>
                  </use>
                  <path fill="none" stroke="white" stroke-width="1.5" d="M0,-3.0v7 M-2.5,-0.5L0,-3.0L2.5,-0.5"/>
                </g>
                <g id="arrowLeft" xlink:href="#dirArrow" transform="rotate(270) translate(-36 17)" onmousedown="handlePan(-1,0)">
                  <use xlink:href="#rim" fill="#404040">
                        <set attributeName="fill" to="#808080" begin="arrowLeft.mouseover" end="arrowLeft.mouseout"/>
                  </use>
                  <path fill="none" stroke="white" stroke-width="1.5" d="M0,-3.0v7 M-2.5,-0.5L0,-3.0L2.5,-0.5"/>
                </g>
        </g>
        <svg viewBox="0 0 15 15" width="100%" height="30px" preserveAspectRatio="xMaxYMin meet">
         <g id="arrow_out" transform="scale(0.3 0.3)">
          <a xlink:href="classSRV__Channels_af661b523ee4f3d6265810fd22b4ce71e_cgraph_org.svg" target="_base">
           <rect id="button" ry="5" rx="5" y="6" x="6" height="38" width="38"
                fill="#f2f5e9" fill-opacity="0.5" stroke="#606060" stroke-width="1.0"/>
           <path id="arrow"
             d="M 11.500037,31.436501 C 11.940474,20.09759 22.043105,11.32322 32.158766,21.979434 L 37.068811,17.246167 C 37.068811,17.246167 37.088388,32 37.088388,32 L 22.160133,31.978069 C 22.160133,31.978069 26.997745,27.140456 26.997745,27.140456 C 18.528582,18.264221 13.291696,25.230495 11.500037,31.436501 z"
             style="fill:#404040;"/>
          </a>
         </g>
        </svg>
</svg>
