<?xml version="1.0" encoding="UTF-8" standalone="no"?>
<!DOCTYPE svg PUBLIC "-//W3C//DTD SVG 1.1//EN"
 "http://www.w3.org/Graphics/SVG/1.1/DTD/svg11.dtd">
<!-- Generated by graphviz version 2.30.1 (20130221.2233)
 -->
<!-- Title: AP_Landing_Deepstall::build_approach_path Pages: 1 -->
<svg width="440pt" height="91pt"
 viewBox="0.00 0.00 440.00 91.00" xmlns="http://www.w3.org/2000/svg" xmlns:xlink="http://www.w3.org/1999/xlink">
<g id="graph0" class="graph" transform="scale(1 1) rotate(0) translate(4 87)">
<title>AP_Landing_Deepstall::build_approach_path</title>
<polygon fill="white" stroke="white" points="-4,5 -4,-87 437,-87 437,5 -4,5"/>
<!-- Node50 -->
<g id="node1" class="node"><title>Node50</title>
<g id="a_node1"><a xlink:title=" ">
<polygon fill="#bfbfbf" stroke="black" points="314.128,-25 314.128,-57 431.872,-57 431.872,-25 314.128,-25"/>
<text text-anchor="start" x="322.128" y="-43" font-family="Helvetica,sans-Serif" font-size="10.00">AP_Landing_Deepstall</text>
<text text-anchor="middle" x="373" y="-31" font-family="Helvetica,sans-Serif" font-size="10.00">::build_approach_path</text>
</a>
</g>
</g>
<!-- Node51 -->
<g id="node2" class="node"><title>Node51</title>
<g id="a_node2"><a xlink:href="classAP__Landing__Deepstall.html#ab9fd65ed1d3a6b21c83f61845ebcd92e" target="_top" xlink:title=" ">
<polygon fill="white" stroke="black" points="160.128,-51 160.128,-83 277.872,-83 277.872,-51 160.128,-51"/>
<text text-anchor="start" x="168.128" y="-69" font-family="Helvetica,sans-Serif" font-size="10.00">AP_Landing_Deepstall</text>
<text text-anchor="middle" x="219" y="-57" font-family="Helvetica,sans-Serif" font-size="10.00">::terminate</text>
</a>
</g>
</g>
<!-- Node50&#45;&gt;Node51 -->
<g id="edge1" class="edge"><title>Node50&#45;&gt;Node51</title>
<path fill="none" stroke="midnightblue" d="M304.001,-52.6314C295.318,-54.1167 286.494,-55.6261 277.989,-57.0808"/>
<polygon fill="midnightblue" stroke="midnightblue" points="304.835,-56.0397 314.102,-50.9037 303.655,-49.1399 304.835,-56.0397"/>
</g>
<!-- Node53 -->
<g id="node4" class="node"><title>Node53</title>
<g id="a_node4"><a xlink:href="classAP__Landing__Deepstall.html#af3cde793ef57477c3468547de0a8a90f" target="_top" xlink:title=" ">
<polygon fill="white" stroke="black" points="160.128,-0 160.128,-32 277.872,-32 277.872,-0 160.128,-0"/>
<text text-anchor="start" x="168.128" y="-18" font-family="Helvetica,sans-Serif" font-size="10.00">AP_Landing_Deepstall</text>
<text text-anchor="middle" x="219" y="-6" font-family="Helvetica,sans-Serif" font-size="10.00">::verify_land</text>
</a>
</g>
</g>
<!-- Node50&#45;&gt;Node53 -->
<g id="edge3" class="edge"><title>Node50&#45;&gt;Node53</title>
<path fill="none" stroke="midnightblue" d="M304.001,-29.8159C295.318,-28.3878 286.494,-26.9365 277.989,-25.5377"/>
<polygon fill="midnightblue" stroke="midnightblue" points="303.666,-33.3078 314.102,-31.4773 304.802,-26.4006 303.666,-33.3078"/>
</g>
<!-- Node52 -->
<g id="node3" class="node"><title>Node52</title>
<g id="a_node3"><a xlink:href="classAP__Landing.html#aa04ce62e6126784003d606619b2c74f1" target="_top" xlink:title=" ">
<polygon fill="white" stroke="black" points="3.1333,-57 3.1333,-77 120.867,-77 120.867,-57 3.1333,-57"/>
<text text-anchor="middle" x="62" y="-63" font-family="Helvetica,sans-Serif" font-size="10.00">AP_Landing::terminate</text>
</a>
</g>
</g>
<!-- Node51&#45;&gt;Node52 -->
<g id="edge2" class="edge"><title>Node51&#45;&gt;Node52</title>
<path fill="none" stroke="midnightblue" d="M149.583,-67C140.034,-67 130.299,-67 120.968,-67"/>
<polygon fill="midnightblue" stroke="midnightblue" points="149.843,-70.5001 159.843,-67 149.843,-63.5001 149.843,-70.5001"/>
</g>
<!-- Node54 -->
<g id="node5" class="node"><title>Node54</title>
<g id="a_node5"><a xlink:href="classAP__Landing.html#afdbc34de818b9cb366336c23660fd495" target="_top" xlink:title=" ">
<polygon fill="white" stroke="black" points="-0.204102,-6 -0.204102,-26 124.204,-26 124.204,-6 -0.204102,-6"/>
<text text-anchor="middle" x="62" y="-12" font-family="Helvetica,sans-Serif" font-size="10.00">AP_Landing::verify_land</text>
</a>
</g>
</g>
<!-- Node53&#45;&gt;Node54 -->
<g id="edge4" class="edge"><title>Node53&#45;&gt;Node54</title>
<path fill="none" stroke="midnightblue" d="M149.659,-16C141.228,-16 132.65,-16 124.332,-16"/>
<polygon fill="midnightblue" stroke="midnightblue" points="149.843,-19.5001 159.843,-16 149.843,-12.5001 149.843,-19.5001"/>
</g>
</g>
</svg>
