<?xml version="1.0" encoding="UTF-8" standalone="no"?>
<!DOCTYPE svg PUBLIC "-//W3C//DTD SVG 1.1//EN"
 "http://www.w3.org/Graphics/SVG/1.1/DTD/svg11.dtd">
<!-- Generated by graphviz version 2.30.1 (20130221.2233)
 -->
<!-- Title: ChibiOS::RCInput::rc_bind Pages: 1 -->
<svg width="592pt" height="232pt"
 viewBox="0.00 0.00 592.00 232.00" xmlns="http://www.w3.org/2000/svg" xmlns:xlink="http://www.w3.org/1999/xlink">
<g id="graph0" class="graph" transform="scale(1 1) rotate(0) translate(4 228)">
<title>ChibiOS::RCInput::rc_bind</title>
<polygon fill="white" stroke="white" points="-4,5 -4,-228 589,-228 589,5 -4,5"/>
<!-- Node71 -->
<g id="node1" class="node"><title>Node71</title>
<g id="a_node1"><a xlink:title=" ">
<polygon fill="#bfbfbf" stroke="black" points="0.0839844,-76 0.0839844,-96 133.916,-96 133.916,-76 0.0839844,-76"/>
<text text-anchor="middle" x="67" y="-82" font-family="Helvetica,sans-Serif" font-size="10.00">ChibiOS::RCInput::rc_bind</text>
</a>
</g>
</g>
<!-- Node72 -->
<g id="node2" class="node"><title>Node72</title>
<g id="a_node2"><a xlink:href="classChibiOS_1_1Semaphore.html#a8bf61c47a321957ad30034420d442bce" target="_top" xlink:title=" ">
<polygon fill="white" stroke="black" points="182.754,-147 182.754,-179 293.246,-179 293.246,-147 182.754,-147"/>
<text text-anchor="start" x="190.754" y="-165" font-family="Helvetica,sans-Serif" font-size="10.00">ChibiOS::Semaphore</text>
<text text-anchor="middle" x="238" y="-153" font-family="Helvetica,sans-Serif" font-size="10.00">::take</text>
</a>
</g>
</g>
<!-- Node71&#45;&gt;Node72 -->
<g id="edge1" class="edge"><title>Node71&#45;&gt;Node72</title>
<path fill="none" stroke="midnightblue" d="M86.9208,-96.1278C107.209,-106.829 140.493,-123.932 170,-137 174.658,-139.063 179.534,-141.129 184.441,-143.145"/>
<polygon fill="midnightblue" stroke="midnightblue" points="183.281,-146.451 193.864,-146.946 185.899,-139.959 183.281,-146.451"/>
</g>
<!-- Node77 -->
<g id="node7" class="node"><title>Node77</title>
<g id="a_node7"><a xlink:href="classAP__BoardConfig.html#a88fafdbccbeac097961a7cf64993530f" target="_top" xlink:title=" ">
<polygon fill="white" stroke="black" points="186.084,-96 186.084,-128 289.916,-128 289.916,-96 186.084,-96"/>
<text text-anchor="start" x="194.084" y="-114" font-family="Helvetica,sans-Serif" font-size="10.00">AP_BoardConfig::io</text>
<text text-anchor="middle" x="238" y="-102" font-family="Helvetica,sans-Serif" font-size="10.00">_enabled</text>
</a>
</g>
</g>
<!-- Node71&#45;&gt;Node77 -->
<g id="edge6" class="edge"><title>Node71&#45;&gt;Node77</title>
<path fill="none" stroke="midnightblue" d="M133.34,-96.0523C147.391,-98.2141 162.189,-100.491 176.065,-102.625"/>
<polygon fill="midnightblue" stroke="midnightblue" points="175.567,-106.09 185.983,-104.151 176.631,-99.1712 175.567,-106.09"/>
</g>
<!-- Node78 -->
<g id="node8" class="node"><title>Node78</title>
<g id="a_node8"><a xlink:href="classChibiOS_1_1Semaphore.html#afe45528a5225a2736da02cf613845769" target="_top" xlink:title=" ">
<polygon fill="white" stroke="black" points="182.754,-45 182.754,-77 293.246,-77 293.246,-45 182.754,-45"/>
<text text-anchor="start" x="190.754" y="-63" font-family="Helvetica,sans-Serif" font-size="10.00">ChibiOS::Semaphore</text>
<text text-anchor="middle" x="238" y="-51" font-family="Helvetica,sans-Serif" font-size="10.00">::give</text>
</a>
</g>
</g>
<!-- Node71&#45;&gt;Node78 -->
<g id="edge7" class="edge"><title>Node71&#45;&gt;Node78</title>
<path fill="none" stroke="midnightblue" d="M134.308,-76.1911C146.932,-74.3237 160.123,-72.3723 172.684,-70.5143"/>
<polygon fill="midnightblue" stroke="midnightblue" points="173.218,-73.9734 182.598,-69.0476 172.193,-67.0488 173.218,-73.9734"/>
</g>
<!-- Node79 -->
<g id="node9" class="node"><title>Node79</title>
<g id="a_node9"><a xlink:href="classAP__RCProtocol.html#a675b2cb022c16586407fa6cec152739b" target="_top" xlink:title=" ">
<polygon fill="white" stroke="black" points="170.249,-6 170.249,-26 305.751,-26 305.751,-6 170.249,-6"/>
<text text-anchor="middle" x="238" y="-12" font-family="Helvetica,sans-Serif" font-size="10.00">AP_RCProtocol::start_bind</text>
</a>
</g>
</g>
<!-- Node71&#45;&gt;Node79 -->
<g id="edge8" class="edge"><title>Node71&#45;&gt;Node79</title>
<path fill="none" stroke="midnightblue" d="M85.5947,-75.9284C105.567,-64.8002 139.358,-46.8843 170,-35 175.488,-32.8714 181.312,-30.8652 187.146,-29.0118"/>
<polygon fill="midnightblue" stroke="midnightblue" points="188.365,-32.2994 196.915,-26.0425 186.33,-25.602 188.365,-32.2994"/>
</g>
<!-- Node73 -->
<g id="node3" class="node"><title>Node73</title>
<g id="a_node3"><a xlink:href="classChibiOS_1_1Semaphore.html#a3d32468b4916580646301fd236f396e7" target="_top" xlink:title=" ">
<polygon fill="white" stroke="black" points="352.754,-192 352.754,-224 463.246,-224 463.246,-192 352.754,-192"/>
<text text-anchor="start" x="360.754" y="-210" font-family="Helvetica,sans-Serif" font-size="10.00">ChibiOS::Semaphore</text>
<text text-anchor="middle" x="408" y="-198" font-family="Helvetica,sans-Serif" font-size="10.00">::take_nonblocking</text>
</a>
</g>
</g>
<!-- Node72&#45;&gt;Node73 -->
<g id="edge2" class="edge"><title>Node72&#45;&gt;Node73</title>
<path fill="none" stroke="midnightblue" d="M293.545,-177.61C309.255,-181.818 326.538,-186.448 342.777,-190.797"/>
<polygon fill="midnightblue" stroke="midnightblue" points="342.164,-194.256 352.729,-193.463 343.975,-187.495 342.164,-194.256"/>
</g>
<!-- Node74 -->
<g id="node4" class="node"><title>Node74</title>
<g id="a_node4"><a xlink:href="namespaceAP__HAL.html#a7aa0ce7625c9680e30ff4a99940907a5" target="_top" xlink:title=" ">
<polygon fill="white" stroke="black" points="357.761,-153 357.761,-173 458.239,-173 458.239,-153 357.761,-153"/>
<text text-anchor="middle" x="408" y="-159" font-family="Helvetica,sans-Serif" font-size="10.00">AP_HAL::micros64</text>
</a>
</g>
</g>
<!-- Node72&#45;&gt;Node74 -->
<g id="edge3" class="edge"><title>Node72&#45;&gt;Node74</title>
<path fill="none" stroke="midnightblue" d="M293.545,-163C310.764,-163 329.875,-163 347.427,-163"/>
<polygon fill="midnightblue" stroke="midnightblue" points="347.555,-166.5 357.555,-163 347.555,-159.5 347.555,-166.5"/>
</g>
<!-- Node76 -->
<g id="node6" class="node"><title>Node76</title>
<g id="a_node6"><a xlink:href="classAP__HAL_1_1Scheduler.html#a78c4f1b1f192ac1c99544b6cc8f099b0" target="_top" xlink:title=" ">
<polygon fill="white" stroke="black" points="352.751,-102 352.751,-134 463.249,-134 463.249,-102 352.751,-102"/>
<text text-anchor="start" x="360.751" y="-120" font-family="Helvetica,sans-Serif" font-size="10.00">AP_HAL::Scheduler::</text>
<text text-anchor="middle" x="408" y="-108" font-family="Helvetica,sans-Serif" font-size="10.00">delay_microseconds</text>
</a>
</g>
</g>
<!-- Node72&#45;&gt;Node76 -->
<g id="edge5" class="edge"><title>Node72&#45;&gt;Node76</title>
<path fill="none" stroke="midnightblue" d="M293.545,-148.39C309.255,-144.182 326.538,-139.552 342.777,-135.203"/>
<polygon fill="midnightblue" stroke="midnightblue" points="343.975,-138.505 352.729,-132.537 342.164,-131.744 343.975,-138.505"/>
</g>
<!-- Node75 -->
<g id="node5" class="node"><title>Node75</title>
<g id="a_node5"><a xlink:href="hrt_8c.html#a152c3348a8e83f2dfe35b44cc2e30362" target="_top" xlink:title=" ">
<polygon fill="white" stroke="black" points="510.101,-153 510.101,-173 583.899,-173 583.899,-153 510.101,-153"/>
<text text-anchor="middle" x="547" y="-159" font-family="Helvetica,sans-Serif" font-size="10.00">hrt_micros64</text>
</a>
</g>
</g>
<!-- Node74&#45;&gt;Node75 -->
<g id="edge4" class="edge"><title>Node74&#45;&gt;Node75</title>
<path fill="none" stroke="midnightblue" d="M458.46,-163C471.886,-163 486.372,-163 499.621,-163"/>
<polygon fill="midnightblue" stroke="midnightblue" points="499.938,-166.5 509.938,-163 499.938,-159.5 499.938,-166.5"/>
</g>
<!-- Node80 -->
<g id="node10" class="node"><title>Node80</title>
<g id="a_node10"><a xlink:href="classAP__RCProtocol__Backend.html#a2c6391db27937be3d95ad7d4c8f1a9f2" target="_top" xlink:title=" ">
<polygon fill="white" stroke="black" points="342.747,-0 342.747,-32 473.253,-32 473.253,-0 342.747,-0"/>
<text text-anchor="start" x="350.747" y="-18" font-family="Helvetica,sans-Serif" font-size="10.00">AP_RCProtocol_Backend</text>
<text text-anchor="middle" x="408" y="-6" font-family="Helvetica,sans-Serif" font-size="10.00">::start_bind</text>
</a>
</g>
</g>
<!-- Node79&#45;&gt;Node80 -->
<g id="edge9" class="edge"><title>Node79&#45;&gt;Node80</title>
<path fill="none" stroke="midnightblue" d="M305.881,-16C314.562,-16 323.498,-16 332.297,-16"/>
<polygon fill="midnightblue" stroke="midnightblue" points="332.539,-19.5001 342.539,-16 332.539,-12.5001 332.539,-19.5001"/>
</g>
</g>
</svg>
