<?xml version="1.0" encoding="UTF-8" standalone="no"?>
<!DOCTYPE svg PUBLIC "-//W3C//DTD SVG 1.1//EN"
 "http://www.w3.org/Graphics/SVG/1.1/DTD/svg11.dtd">
<!-- Generated by graphviz version 2.30.1 (20130221.2233)
 -->
<!-- Title: AP_AK8963_BusDriver::block_read Pages: 1 -->
<svg width="1154pt" height="91pt"
 viewBox="0.00 0.00 1154.00 91.00" xmlns="http://www.w3.org/2000/svg" xmlns:xlink="http://www.w3.org/1999/xlink">
<g id="graph0" class="graph" transform="scale(1 1) rotate(0) translate(4 87)">
<title>AP_AK8963_BusDriver::block_read</title>
<polygon fill="white" stroke="white" points="-4,5 -4,-87 1151,-87 1151,5 -4,5"/>
<!-- Node3 -->
<g id="node1" class="node"><title>Node3</title>
<g id="a_node1"><a xlink:title=" ">
<polygon fill="#bfbfbf" stroke="black" points="1026.03,-25 1026.03,-57 1145.97,-57 1145.97,-25 1026.03,-25"/>
<text text-anchor="start" x="1034.03" y="-43" font-family="Helvetica,sans-Serif" font-size="10.00">AP_AK8963_BusDriver</text>
<text text-anchor="middle" x="1086" y="-31" font-family="Helvetica,sans-Serif" font-size="10.00">::block_read</text>
</a>
</g>
</g>
<!-- Node4 -->
<g id="node2" class="node"><title>Node4</title>
<g id="a_node2"><a xlink:href="classAP__Compass__AK8963.html#ad72f424d1313f4ad5951ef6a2f399740" target="_top" xlink:title=" ">
<polygon fill="white" stroke="black" points="866.079,-51 866.079,-83 989.921,-83 989.921,-51 866.079,-51"/>
<text text-anchor="start" x="874.079" y="-69" font-family="Helvetica,sans-Serif" font-size="10.00">AP_Compass_AK8963::</text>
<text text-anchor="middle" x="928" y="-57" font-family="Helvetica,sans-Serif" font-size="10.00">_calibrate</text>
</a>
</g>
</g>
<!-- Node3&#45;&gt;Node4 -->
<g id="edge1" class="edge"><title>Node3&#45;&gt;Node4</title>
<path fill="none" stroke="midnightblue" d="M1016,-52.4996C1007.39,-53.9355 998.622,-55.3963 990.138,-56.8104"/>
<polygon fill="midnightblue" stroke="midnightblue" points="1016.73,-55.9259 1026.02,-50.8295 1015.58,-49.0212 1016.73,-55.9259"/>
</g>
<!-- Node12 -->
<g id="node10" class="node"><title>Node12</title>
<g id="a_node10"><a xlink:href="classAP__Compass__AK8963.html#aad72266ce1554cc660d865e37fdc72d3" target="_top" xlink:title=" ">
<polygon fill="white" stroke="black" points="866.079,-0 866.079,-32 989.921,-32 989.921,-0 866.079,-0"/>
<text text-anchor="start" x="874.079" y="-18" font-family="Helvetica,sans-Serif" font-size="10.00">AP_Compass_AK8963::</text>
<text text-anchor="middle" x="928" y="-6" font-family="Helvetica,sans-Serif" font-size="10.00">_update</text>
</a>
</g>
</g>
<!-- Node3&#45;&gt;Node12 -->
<g id="edge10" class="edge"><title>Node3&#45;&gt;Node12</title>
<path fill="none" stroke="midnightblue" d="M1016,-29.9427C1007.39,-28.562 998.622,-27.1574 990.138,-25.7977"/>
<polygon fill="midnightblue" stroke="midnightblue" points="1015.6,-33.422 1026.02,-31.5486 1016.7,-26.5102 1015.6,-33.422"/>
</g>
<!-- Node5 -->
<g id="node3" class="node"><title>Node5</title>
<g id="a_node3"><a xlink:href="classAP__Compass__AK8963.html#a3c4eeb6c32512c231c858d246d5fc560" target="_top" xlink:title=" ">
<polygon fill="white" stroke="black" points="692.688,-31 692.688,-51 829.312,-51 829.312,-31 692.688,-31"/>
<text text-anchor="middle" x="761" y="-37" font-family="Helvetica,sans-Serif" font-size="10.00">AP_Compass_AK8963::init</text>
</a>
</g>
</g>
<!-- Node4&#45;&gt;Node5 -->
<g id="edge2" class="edge"><title>Node4&#45;&gt;Node5</title>
<path fill="none" stroke="midnightblue" d="M855.989,-55.8104C845.847,-54.2123 835.469,-52.5769 825.484,-51.0035"/>
<polygon fill="midnightblue" stroke="midnightblue" points="855.606,-59.2931 866.029,-57.3924 856.696,-52.3785 855.606,-59.2931"/>
</g>
<!-- Node6 -->
<g id="node4" class="node"><title>Node6</title>
<g id="a_node4"><a xlink:href="classAP__Compass__AK8963.html#afcde08c622086b5faec26b55304e8457" target="_top" xlink:title=" ">
<polygon fill="white" stroke="black" points="532.079,-51 532.079,-83 655.921,-83 655.921,-51 532.079,-51"/>
<text text-anchor="start" x="540.079" y="-69" font-family="Helvetica,sans-Serif" font-size="10.00">AP_Compass_AK8963::</text>
<text text-anchor="middle" x="594" y="-57" font-family="Helvetica,sans-Serif" font-size="10.00">probe</text>
</a>
</g>
</g>
<!-- Node5&#45;&gt;Node6 -->
<g id="edge3" class="edge"><title>Node5&#45;&gt;Node6</title>
<path fill="none" stroke="midnightblue" d="M686.242,-52.6225C676.196,-54.2055 665.975,-55.8161 656.184,-57.3588"/>
<polygon fill="midnightblue" stroke="midnightblue" points="686.873,-56.0663 696.207,-51.0523 685.784,-49.1516 686.873,-56.0663"/>
</g>
<!-- Node11 -->
<g id="node9" class="node"><title>Node11</title>
<g id="a_node9"><a xlink:href="classAP__Compass__AK8963.html#a8900c4f1fc44dc91f1efb0a673b33c8d" target="_top" xlink:title=" ">
<polygon fill="white" stroke="black" points="532.079,-0 532.079,-32 655.921,-32 655.921,-0 532.079,-0"/>
<text text-anchor="start" x="540.079" y="-18" font-family="Helvetica,sans-Serif" font-size="10.00">AP_Compass_AK8963::</text>
<text text-anchor="middle" x="594" y="-6" font-family="Helvetica,sans-Serif" font-size="10.00">probe_mpu9250</text>
</a>
</g>
</g>
<!-- Node5&#45;&gt;Node11 -->
<g id="edge9" class="edge"><title>Node5&#45;&gt;Node11</title>
<path fill="none" stroke="midnightblue" d="M683.821,-29.4577C674.529,-28.0498 665.129,-26.6257 656.097,-25.2572"/>
<polygon fill="midnightblue" stroke="midnightblue" points="683.427,-32.938 693.839,-30.9756 684.476,-26.017 683.427,-32.938"/>
</g>
<!-- Node7 -->
<g id="node5" class="node"><title>Node7</title>
<g id="a_node5"><a xlink:href="classCompass.html#a1c48170d8c8966b22fb150b1634443ec" target="_top" xlink:title=" ">
<polygon fill="white" stroke="black" points="190.518,-57 190.518,-77 335.482,-77 335.482,-57 190.518,-57"/>
<text text-anchor="middle" x="263" y="-63" font-family="Helvetica,sans-Serif" font-size="10.00">Compass::_detect_backends</text>
</a>
</g>
</g>
<!-- Node6&#45;&gt;Node7 -->
<g id="edge4" class="edge"><title>Node6&#45;&gt;Node7</title>
<path fill="none" stroke="midnightblue" d="M521.804,-69.454C513.113,-69.6791 504.355,-69.8708 496,-70 440.895,-70.8519 427.106,-70.7652 372,-70 360.278,-69.8372 347.842,-69.5751 335.74,-69.2719"/>
<polygon fill="midnightblue" stroke="midnightblue" points="522.048,-72.9487 531.949,-69.176 521.857,-65.9513 522.048,-72.9487"/>
</g>
<!-- Node10 -->
<g id="node8" class="node"><title>Node10</title>
<g id="a_node8"><a xlink:href="classAP__Compass__AK8963.html#a0e8c9e0c82de409e0225fc81ed4ed6db" target="_top" xlink:title=" ">
<polygon fill="white" stroke="black" points="372.079,-29 372.079,-61 495.921,-61 495.921,-29 372.079,-29"/>
<text text-anchor="start" x="380.079" y="-47" font-family="Helvetica,sans-Serif" font-size="10.00">AP_Compass_AK8963::</text>
<text text-anchor="middle" x="434" y="-35" font-family="Helvetica,sans-Serif" font-size="10.00">probe_mpu9250</text>
</a>
</g>
</g>
<!-- Node6&#45;&gt;Node10 -->
<g id="edge7" class="edge"><title>Node6&#45;&gt;Node10</title>
<path fill="none" stroke="midnightblue" d="M521.84,-57.0916C513.188,-55.8869 504.409,-54.6646 495.924,-53.4832"/>
<polygon fill="midnightblue" stroke="midnightblue" points="521.526,-60.5816 531.913,-58.4942 522.491,-53.6485 521.526,-60.5816"/>
</g>
<!-- Node8 -->
<g id="node6" class="node"><title>Node8</title>
<g id="a_node6"><a xlink:href="classCompass.html#a79db6bfd3fe309c6258d783f126326c6" target="_top" xlink:title=" ">
<polygon fill="white" stroke="black" points="76.7119,-57 76.7119,-77 153.288,-77 153.288,-57 76.7119,-57"/>
<text text-anchor="middle" x="115" y="-63" font-family="Helvetica,sans-Serif" font-size="10.00">Compass::init</text>
</a>
</g>
</g>
<!-- Node7&#45;&gt;Node8 -->
<g id="edge5" class="edge"><title>Node7&#45;&gt;Node8</title>
<path fill="none" stroke="midnightblue" d="M180.187,-67C170.925,-67 161.856,-67 153.587,-67"/>
<polygon fill="midnightblue" stroke="midnightblue" points="180.283,-70.5001 190.283,-67 180.283,-63.5001 180.283,-70.5001"/>
</g>
<!-- Node9 -->
<g id="node7" class="node"><title>Node9</title>
<g id="a_node7"><a xlink:href="AHRS__Test_8cpp.html#a4fc01d736fe50cf5b977f755b675f11d" target="_top" xlink:title=" ">
<polygon fill="white" stroke="black" points="-0.231445,-57 -0.231445,-77 40.2314,-77 40.2314,-57 -0.231445,-57"/>
<text text-anchor="middle" x="20" y="-63" font-family="Helvetica,sans-Serif" font-size="10.00">setup</text>
</a>
</g>
</g>
<!-- Node8&#45;&gt;Node9 -->
<g id="edge6" class="edge"><title>Node8&#45;&gt;Node9</title>
<path fill="none" stroke="midnightblue" d="M66.6796,-67C57.3877,-67 48.1395,-67 40.4198,-67"/>
<polygon fill="midnightblue" stroke="midnightblue" points="66.7092,-70.5001 76.7092,-67 66.7092,-63.5001 66.7092,-70.5001"/>
</g>
<!-- Node10&#45;&gt;Node7 -->
<g id="edge8" class="edge"><title>Node10&#45;&gt;Node7</title>
<path fill="none" stroke="midnightblue" d="M361.88,-54.2582C353.175,-55.3914 344.276,-56.5499 335.564,-57.684"/>
<polygon fill="midnightblue" stroke="midnightblue" points="362.523,-57.7042 371.987,-52.9425 361.619,-50.7628 362.523,-57.7042"/>
</g>
<!-- Node12&#45;&gt;Node5 -->
<g id="edge11" class="edge"><title>Node12&#45;&gt;Node5</title>
<path fill="none" stroke="midnightblue" d="M856.103,-26.7419C846.864,-28.1418 837.426,-29.5718 828.267,-30.9596"/>
<polygon fill="midnightblue" stroke="midnightblue" points="856.666,-30.1967 866.029,-25.238 855.617,-23.2757 856.666,-30.1967"/>
</g>
</g>
</svg>
