<?xml version="1.0" encoding="UTF-8" standalone="no"?>
<!DOCTYPE svg PUBLIC "-//W3C//DTD SVG 1.1//EN"
 "http://www.w3.org/Graphics/SVG/1.1/DTD/svg11.dtd">
<!-- Generated by graphviz version 2.30.1 (20130221.2233)
 -->
<!-- Title: AP_Baro_Backend::_copy_to_frontend Pages: 1 -->
<svg width="364pt" height="67pt"
 viewBox="0.00 0.00 364.00 67.00" xmlns="http://www.w3.org/2000/svg" xmlns:xlink="http://www.w3.org/1999/xlink">
<g id="graph0" class="graph" transform="scale(1 1) rotate(0) translate(4 63)">
<title>AP_Baro_Backend::_copy_to_frontend</title>
<polygon fill="white" stroke="white" points="-4,5 -4,-63 361,-63 361,5 -4,5"/>
<!-- Node4 -->
<g id="node1" class="node"><title>Node4</title>
<g id="a_node1"><a xlink:title=" ">
<polygon fill="#bfbfbf" stroke="black" points="0.628418,-13 0.628418,-45 133.372,-45 133.372,-13 0.628418,-13"/>
<text text-anchor="start" x="8.62842" y="-31" font-family="Helvetica,sans-Serif" font-size="10.00">AP_Baro_Backend::_copy</text>
<text text-anchor="middle" x="67" y="-19" font-family="Helvetica,sans-Serif" font-size="10.00">_to_frontend</text>
</a>
</g>
</g>
<!-- Node5 -->
<g id="node2" class="node"><title>Node5</title>
<g id="a_node2"><a xlink:href="namespaceAP__HAL.html#a77dffbb18891996280308e21316ec186" target="_top" xlink:title=" ">
<polygon fill="white" stroke="black" points="169.936,-39 169.936,-59 252.064,-59 252.064,-39 169.936,-39"/>
<text text-anchor="middle" x="211" y="-45" font-family="Helvetica,sans-Serif" font-size="10.00">AP_HAL::millis</text>
</a>
</g>
</g>
<!-- Node4&#45;&gt;Node5 -->
<g id="edge1" class="edge"><title>Node4&#45;&gt;Node5</title>
<path fill="none" stroke="midnightblue" d="M133.596,-38.2389C142.379,-39.4759 151.273,-40.7286 159.736,-41.9205"/>
<polygon fill="midnightblue" stroke="midnightblue" points="159.418,-45.4102 169.808,-43.3392 160.394,-38.4786 159.418,-45.4102"/>
</g>
<!-- Node7 -->
<g id="node4" class="node"><title>Node7</title>
<g id="a_node4"><a xlink:href="AP__Math_8cpp.html#accbd9f8bbc0adacd51efa66fad490c24" target="_top" xlink:title=" ">
<polygon fill="white" stroke="black" points="184.375,-0 184.375,-20 237.625,-20 237.625,-0 184.375,-0"/>
<text text-anchor="middle" x="211" y="-6" font-family="Helvetica,sans-Serif" font-size="10.00">is_equal</text>
</a>
</g>
</g>
<!-- Node4&#45;&gt;Node7 -->
<g id="edge3" class="edge"><title>Node4&#45;&gt;Node7</title>
<path fill="none" stroke="midnightblue" d="M133.596,-20.223C147.423,-18.373 161.524,-16.4862 173.787,-14.8454"/>
<polygon fill="midnightblue" stroke="midnightblue" points="174.589,-18.2694 184.036,-13.474 173.66,-11.3312 174.589,-18.2694"/>
</g>
<!-- Node6 -->
<g id="node3" class="node"><title>Node6</title>
<g id="a_node3"><a xlink:href="hrt_8c.html#a1295f128f60d29874243b5733c4db025" target="_top" xlink:title=" ">
<polygon fill="white" stroke="black" points="288.714,-39 288.714,-59 355.286,-59 355.286,-39 288.714,-39"/>
<text text-anchor="middle" x="322" y="-45" font-family="Helvetica,sans-Serif" font-size="10.00">hrt_millis32</text>
</a>
</g>
</g>
<!-- Node5&#45;&gt;Node6 -->
<g id="edge2" class="edge"><title>Node5&#45;&gt;Node6</title>
<path fill="none" stroke="midnightblue" d="M252.278,-49C260.815,-49 269.852,-49 278.469,-49"/>
<polygon fill="midnightblue" stroke="midnightblue" points="278.71,-52.5001 288.71,-49 278.71,-45.5001 278.71,-52.5001"/>
</g>
</g>
</svg>
