<?xml version="1.0" encoding="UTF-8" standalone="no"?>
<!DOCTYPE svg PUBLIC "-//W3C//DTD SVG 1.1//EN"
 "http://www.w3.org/Graphics/SVG/1.1/DTD/svg11.dtd">
<!-- Generated by graphviz version 2.30.1 (20130221.2233)
 -->
<!-- Title: AC_PosControl::set_max_accel_z Pages: 1 -->
<svg width="308pt" height="67pt"
 viewBox="0.00 0.00 308.00 67.00" xmlns="http://www.w3.org/2000/svg" xmlns:xlink="http://www.w3.org/1999/xlink">
<g id="graph0" class="graph" transform="scale(1 1) rotate(0) translate(4 63)">
<title>AC_PosControl::set_max_accel_z</title>
<polygon fill="white" stroke="white" points="-4,5 -4,-63 305,-63 305,5 -4,5"/>
<!-- Node658 -->
<g id="node1" class="node"><title>Node658</title>
<g id="a_node1"><a xlink:title="set_max_accel_z &#45; set the maximum vertical acceleration in cm/s/s">
<polygon fill="#bfbfbf" stroke="black" points="196.091,-13 196.091,-45 299.909,-45 299.909,-13 196.091,-13"/>
<text text-anchor="start" x="204.091" y="-31" font-family="Helvetica,sans-Serif" font-size="10.00">AC_PosControl::set</text>
<text text-anchor="middle" x="248" y="-19" font-family="Helvetica,sans-Serif" font-size="10.00">_max_accel_z</text>
</a>
</g>
</g>
<!-- Node659 -->
<g id="node2" class="node"><title>Node659</title>
<g id="a_node2"><a xlink:href="classAC__WPNav.html#a7dc4785fbce8364d7eb3d8e2d0c1b987" target="_top" xlink:title="update_wpnav &#45; run the wp controller &#45; should be called at 100hz or higher">
<polygon fill="white" stroke="black" points="10.0225,-39 10.0225,-59 149.978,-59 149.978,-39 10.0225,-39"/>
<text text-anchor="middle" x="80" y="-45" font-family="Helvetica,sans-Serif" font-size="10.00">AC_WPNav::update_wpnav</text>
</a>
</g>
</g>
<!-- Node658&#45;&gt;Node659 -->
<g id="edge1" class="edge"><title>Node658&#45;&gt;Node659</title>
<path fill="none" stroke="midnightblue" d="M185.789,-36.3748C174.142,-37.7781 161.879,-39.2555 150.009,-40.6856"/>
<polygon fill="midnightblue" stroke="midnightblue" points="186.331,-39.835 195.84,-35.1639 185.493,-32.8852 186.331,-39.835"/>
</g>
<!-- Node660 -->
<g id="node3" class="node"><title>Node660</title>
<g id="a_node3"><a xlink:href="classAC__WPNav.html#a47964df8ebcc78bb101f328a23187e65" target="_top" xlink:title=" ">
<polygon fill="white" stroke="black" points="0.0175781,-0 0.0175781,-20 159.982,-20 159.982,-0 0.0175781,-0"/>
<text text-anchor="middle" x="80" y="-6" font-family="Helvetica,sans-Serif" font-size="10.00">AC_WPNav::wp_and_spline_init</text>
</a>
</g>
</g>
<!-- Node658&#45;&gt;Node660 -->
<g id="edge2" class="edge"><title>Node658&#45;&gt;Node660</title>
<path fill="none" stroke="midnightblue" d="M185.8,-21.9952C177.419,-21.0359 168.719,-20.0401 160.076,-19.0508"/>
<polygon fill="midnightblue" stroke="midnightblue" points="185.507,-25.4844 195.84,-23.1443 186.303,-18.5298 185.507,-25.4844"/>
</g>
</g>
</svg>
