<?xml version="1.0" encoding="UTF-8" standalone="no"?>
<!DOCTYPE svg PUBLIC "-//W3C//DTD SVG 1.1//EN"
 "http://www.w3.org/Graphics/SVG/1.1/DTD/svg11.dtd">
<!-- Generated by graphviz version 2.30.1 (20130221.2233)
 -->
<!-- Title: AP_Baro_UAVCAN::probe Pages: 1 -->
<svg width="328pt" height="28pt"
 viewBox="0.00 0.00 328.00 28.00" xmlns="http://www.w3.org/2000/svg" xmlns:xlink="http://www.w3.org/1999/xlink">
<g id="graph0" class="graph" transform="scale(1 1) rotate(0) translate(4 24)">
<title>AP_Baro_UAVCAN::probe</title>
<polygon fill="white" stroke="white" points="-4,5 -4,-24 325,-24 325,5 -4,5"/>
<!-- Node9 -->
<g id="node1" class="node"><title>Node9</title>
<g id="a_node1"><a xlink:title=" ">
<polygon fill="#bfbfbf" stroke="black" points="186.172,-0 186.172,-20 319.828,-20 319.828,-0 186.172,-0"/>
<text text-anchor="middle" x="253" y="-6" font-family="Helvetica,sans-Serif" font-size="10.00">AP_Baro_UAVCAN::probe</text>
</a>
</g>
</g>
<!-- Node10 -->
<g id="node2" class="node"><title>Node10</title>
<g id="a_node2"><a xlink:href="classAP__Baro.html#a942db790233528bfbb4d9a07c3454360" target="_top" xlink:title=" ">
<polygon fill="white" stroke="black" points="75.8179,-0 75.8179,-20 150.182,-20 150.182,-0 75.8179,-0"/>
<text text-anchor="middle" x="113" y="-6" font-family="Helvetica,sans-Serif" font-size="10.00">AP_Baro::init</text>
</a>
</g>
</g>
<!-- Node9&#45;&gt;Node10 -->
<g id="edge1" class="edge"><title>Node9&#45;&gt;Node10</title>
<path fill="none" stroke="midnightblue" d="M175.563,-10C166.851,-10 158.3,-10 150.472,-10"/>
<polygon fill="midnightblue" stroke="midnightblue" points="175.829,-13.5001 185.829,-10 175.829,-6.5001 175.829,-13.5001"/>
</g>
<!-- Node11 -->
<g id="node3" class="node"><title>Node11</title>
<g id="a_node3"><a xlink:href="BARO__generic_8cpp.html#a4fc01d736fe50cf5b977f755b675f11d" target="_top" xlink:title=" ">
<polygon fill="white" stroke="black" points="-0.231445,-0 -0.231445,-20 40.2314,-20 40.2314,-0 -0.231445,-0"/>
<text text-anchor="middle" x="20" y="-6" font-family="Helvetica,sans-Serif" font-size="10.00">setup</text>
</a>
</g>
</g>
<!-- Node10&#45;&gt;Node11 -->
<g id="edge2" class="edge"><title>Node10&#45;&gt;Node11</title>
<path fill="none" stroke="midnightblue" d="M65.7215,-10C56.7685,-10 47.8556,-10 40.3701,-10"/>
<polygon fill="midnightblue" stroke="midnightblue" points="65.773,-13.5001 75.7729,-10 65.7729,-6.5001 65.773,-13.5001"/>
</g>
</g>
</svg>
