<?xml version="1.0" encoding="UTF-8" standalone="no"?>
<!DOCTYPE svg PUBLIC "-//W3C//DTD SVG 1.1//EN"
 "http://www.w3.org/Graphics/SVG/1.1/DTD/svg11.dtd">
<!-- Generated by graphviz version 2.30.1 (20130221.2233)
 -->
<!-- Title: HALSITL::SITL_State::_update_gps_nmea Pages: 1 -->
<!--zoomable 411 -->
<svg id="main" version="1.1" xmlns="http://www.w3.org/2000/svg" xmlns:xlink="http://www.w3.org/1999/xlink" xml:space="preserve" onload="init(evt)">
<style type="text/css"><![CDATA[
.edge:hover path { stroke: red; }
.edge:hover polygon { stroke: red; fill: red; }
]]></style>
<script type="text/javascript"><![CDATA[
var edges = document.getElementsByTagName('g');
if (edges && edges.length) {
  for (var i=0;i<edges.length;i++) {
    if (edges[i].id.substr(0,4)=='edge') {
      edges[i].setAttribute('class','edge');
    }
  }
}
]]></script>
        <defs>
                <circle id="rim" cx="0" cy="0" r="7"/>
                <circle id="rim2" cx="0" cy="0" r="3.5"/>
                <g id="zoomPlus">
                        <use xlink:href="#rim" fill="#404040">
                                <set attributeName="fill" to="#808080" begin="zoomplus.mouseover" end="zoomplus.mouseout"/>
                        </use>
                        <path d="M-4,0h8M0,-4v8" fill="none" stroke="white" stroke-width="1.5" pointer-events="none"/>
                </g>
                <g id="zoomMin">
                        <use xlink:href="#rim" fill="#404040">
                                <set attributeName="fill" to="#808080" begin="zoomminus.mouseover" end="zoomminus.mouseout"/>
                        </use>
                        <path d="M-4,0h8" fill="none" stroke="white" stroke-width="1.5" pointer-events="none"/>
                </g>
                <g id="dirArrow">
                        <path fill="none" stroke="white" stroke-width="1.5" d="M0,-3.0v7 M-2.5,-0.5L0,-3.0L2.5,-0.5"/>
                </g>
               <g id="resetDef">
                       <use xlink:href="#rim2" fill="#404040">
                               <set attributeName="fill" to="#808080" begin="reset.mouseover" end="reset.mouseout"/>
                       </use>
               </g>
        </defs>

<script type="text/javascript">
var viewWidth = 940;
var viewHeight = 411;
var sectionId = 'dynsection-44';
</script>
<script xlink:href="svgpan.js"/>
<svg id="graph" class="graph">
<g id="viewport">
<title>HALSITL::SITL_State::_update_gps_nmea</title>
<polygon fill="white" stroke="white" points="-4,5 -4,-407 937,-407 937,5 -4,5"/>
<!-- Node953 -->
<g id="node1" class="node"><title>Node953</title>
<g id="a_node1"><a xlink:title=" ">
<polygon fill="#bfbfbf" stroke="black" points="-0.0786133,-282 -0.0786133,-314 112.079,-314 112.079,-282 -0.0786133,-282"/>
<text text-anchor="start" x="7.92139" y="-300" font-family="Helvetica,sans-Serif" font-size="10.00">HALSITL::SITL_State</text>
<text text-anchor="middle" x="56" y="-288" font-family="Helvetica,sans-Serif" font-size="10.00">::_update_gps_nmea</text>
</a>
</g>
</g>
<!-- Node954 -->
<g id="node2" class="node"><title>Node954</title>
<g id="a_node2"><a xlink:href="sitl__gps_8cpp.html#a48480785106d15a99c7fda2ba42e054f" target="_top" xlink:title=" ">
<polygon fill="white" stroke="black" points="154.872,-375 154.872,-395 253.128,-395 253.128,-375 154.872,-375"/>
<text text-anchor="middle" x="204" y="-381" font-family="Helvetica,sans-Serif" font-size="10.00">simulation_timeval</text>
</a>
</g>
</g>
<!-- Node953&#45;&gt;Node954 -->
<g id="edge1" class="edge"><title>Node953&#45;&gt;Node954</title>
<path fill="none" stroke="midnightblue" d="M84.1193,-314.16C110.823,-330.073 151.302,-354.194 177.45,-369.775"/>
<polygon fill="midnightblue" stroke="midnightblue" points="175.672,-372.79 186.055,-374.902 179.256,-366.777 175.672,-372.79"/>
</g>
<!-- Node957 -->
<g id="node5" class="node"><title>Node957</title>
<g id="a_node5"><a xlink:href="stdio_8h.html#a37c1e8ce8a2b411fa666dc33972a2cec" target="_top" xlink:title=" ">
<polygon fill="white" stroke="black" points="333.604,-343 333.604,-363 382.396,-363 382.396,-343 333.604,-343"/>
<text text-anchor="middle" x="358" y="-349" font-family="Helvetica,sans-Serif" font-size="10.00">snprintf</text>
</a>
</g>
</g>
<!-- Node953&#45;&gt;Node957 -->
<g id="edge4" class="edge"><title>Node953&#45;&gt;Node957</title>
<path fill="none" stroke="midnightblue" d="M112.374,-308.152C174.305,-319.506 272.61,-337.528 323.701,-346.895"/>
<polygon fill="midnightblue" stroke="midnightblue" points="323.094,-350.342 333.562,-348.703 324.357,-343.457 323.094,-350.342"/>
</g>
<!-- Node958 -->
<g id="node6" class="node"><title>Node958</title>
<g id="a_node6"><a xlink:href="classHALSITL_1_1SITL__State.html#aad5ba24c79435bd01010cf4d80248e06" target="_top" xlink:title=" ">
<polygon fill="white" stroke="black" points="147.921,-247 147.921,-279 260.079,-279 260.079,-247 147.921,-247"/>
<text text-anchor="start" x="155.921" y="-265" font-family="Helvetica,sans-Serif" font-size="10.00">HALSITL::SITL_State</text>
<text text-anchor="middle" x="204" y="-253" font-family="Helvetica,sans-Serif" font-size="10.00">::_gps_nmea_printf</text>
</a>
</g>
</g>
<!-- Node953&#45;&gt;Node958 -->
<g id="edge5" class="edge"><title>Node953&#45;&gt;Node958</title>
<path fill="none" stroke="midnightblue" d="M112.196,-284.768C120.554,-282.764 129.243,-280.681 137.789,-278.633"/>
<polygon fill="midnightblue" stroke="midnightblue" points="138.817,-281.986 147.726,-276.251 137.185,-275.178 138.817,-281.986"/>
</g>
<!-- Node982 -->
<g id="node30" class="node"><title>Node982</title>
<g id="a_node30"><a xlink:href="AP__Math_8h.html#a45fe9f81332c93a04d1fdbcf0bc89c29" target="_top" xlink:title=" ">
<polygon fill="white" stroke="black" points="184.608,-169 184.608,-189 223.392,-189 223.392,-169 184.608,-169"/>
<text text-anchor="middle" x="204" y="-175" font-family="Helvetica,sans-Serif" font-size="10.00">norm</text>
</a>
</g>
</g>
<!-- Node953&#45;&gt;Node982 -->
<g id="edge36" class="edge"><title>Node953&#45;&gt;Node982</title>
<path fill="none" stroke="midnightblue" d="M76.6902,-281.951C104.341,-259.414 154.43,-218.588 182.507,-195.703"/>
<polygon fill="midnightblue" stroke="midnightblue" points="184.925,-198.248 190.465,-189.217 180.503,-192.822 184.925,-198.248"/>
</g>
<!-- Node955 -->
<g id="node3" class="node"><title>Node955</title>
<g id="a_node3"><a xlink:href="namespaceAP__HAL.html#a7aa0ce7625c9680e30ff4a99940907a5" target="_top" xlink:title=" ">
<polygon fill="white" stroke="black" points="307.761,-382 307.761,-402 408.239,-402 408.239,-382 307.761,-382"/>
<text text-anchor="middle" x="358" y="-388" font-family="Helvetica,sans-Serif" font-size="10.00">AP_HAL::micros64</text>
</a>
</g>
</g>
<!-- Node954&#45;&gt;Node955 -->
<g id="edge2" class="edge"><title>Node954&#45;&gt;Node955</title>
<path fill="none" stroke="midnightblue" d="M253.512,-387.234C267.424,-387.875 282.758,-388.581 297.262,-389.249"/>
<polygon fill="midnightblue" stroke="midnightblue" points="297.494,-392.763 307.644,-389.727 297.816,-385.771 297.494,-392.763"/>
</g>
<!-- Node956 -->
<g id="node4" class="node"><title>Node956</title>
<g id="a_node4"><a xlink:href="hrt_8c.html#a152c3348a8e83f2dfe35b44cc2e30362" target="_top" xlink:title=" ">
<polygon fill="white" stroke="black" points="456.101,-382 456.101,-402 529.899,-402 529.899,-382 456.101,-382"/>
<text text-anchor="middle" x="493" y="-388" font-family="Helvetica,sans-Serif" font-size="10.00">hrt_micros64</text>
</a>
</g>
</g>
<!-- Node955&#45;&gt;Node956 -->
<g id="edge3" class="edge"><title>Node955&#45;&gt;Node956</title>
<path fill="none" stroke="midnightblue" d="M408.524,-392C420.634,-392 433.549,-392 445.511,-392"/>
<polygon fill="midnightblue" stroke="midnightblue" points="445.734,-395.5 455.734,-392 445.734,-388.5 445.734,-395.5"/>
</g>
<!-- Node959 -->
<g id="node7" class="node"><title>Node959</title>
<g id="a_node7"><a xlink:href="stdio_8h.html#a5ec7fd90ebe6015636bce974c192c86a" target="_top" xlink:title=" ">
<polygon fill="white" stroke="black" points="331.104,-163 331.104,-183 384.896,-183 384.896,-163 331.104,-163"/>
<text text-anchor="middle" x="358" y="-169" font-family="Helvetica,sans-Serif" font-size="10.00">vasprintf</text>
</a>
</g>
</g>
<!-- Node958&#45;&gt;Node959 -->
<g id="edge6" class="edge"><title>Node958&#45;&gt;Node959</title>
<path fill="none" stroke="midnightblue" d="M221.81,-246.808C239.15,-230.886 267.595,-206.869 296,-192 303.84,-187.896 312.718,-184.504 321.226,-181.78"/>
<polygon fill="midnightblue" stroke="midnightblue" points="322.371,-185.091 330.958,-178.886 320.375,-178.382 322.371,-185.091"/>
</g>
<!-- Node971 -->
<g id="node19" class="node"><title>Node971</title>
<g id="a_node19"><a xlink:href="classHALSITL_1_1SITL__State.html#a267deca7c08a085770083d3d3ca853f7" target="_top" xlink:title=" ">
<polygon fill="white" stroke="black" points="295.803,-292 295.803,-324 420.197,-324 420.197,-292 295.803,-292"/>
<text text-anchor="start" x="303.803" y="-310" font-family="Helvetica,sans-Serif" font-size="10.00">HALSITL::SITL_State</text>
<text text-anchor="middle" x="358" y="-298" font-family="Helvetica,sans-Serif" font-size="10.00">::_gps_nmea_checksum</text>
</a>
</g>
</g>
<!-- Node958&#45;&gt;Node971 -->
<g id="edge20" class="edge"><title>Node958&#45;&gt;Node971</title>
<path fill="none" stroke="midnightblue" d="M259.446,-279.119C270.383,-282.357 281.969,-285.787 293.191,-289.109"/>
<polygon fill="midnightblue" stroke="midnightblue" points="292.352,-292.511 302.934,-291.994 294.339,-285.799 292.352,-292.511"/>
</g>
<!-- Node958&#45;&gt;Node957 -->
<g id="edge21" class="edge"><title>Node958&#45;&gt;Node957</title>
<path fill="none" stroke="midnightblue" d="M222.226,-279.155C239.663,-294.773 267.982,-318.19 296,-333 304.611,-337.552 314.451,-341.326 323.678,-344.324"/>
<polygon fill="midnightblue" stroke="midnightblue" points="322.777,-347.708 333.363,-347.272 324.815,-341.012 322.777,-347.708"/>
</g>
<!-- Node972 -->
<g id="node20" class="node"><title>Node972</title>
<g id="a_node20"><a xlink:href="classHALSITL_1_1SITL__State.html#af66ab3a2dca826a589d0051cd9478364" target="_top" xlink:title=" ">
<polygon fill="white" stroke="black" points="301.921,-241 301.921,-273 414.079,-273 414.079,-241 301.921,-241"/>
<text text-anchor="start" x="309.921" y="-259" font-family="Helvetica,sans-Serif" font-size="10.00">HALSITL::SITL_State</text>
<text text-anchor="middle" x="358" y="-247" font-family="Helvetica,sans-Serif" font-size="10.00">::_gps_write</text>
</a>
</g>
</g>
<!-- Node958&#45;&gt;Node972 -->
<g id="edge22" class="edge"><title>Node958&#45;&gt;Node972</title>
<path fill="none" stroke="midnightblue" d="M260.305,-260.817C270.428,-260.417 281.08,-259.997 291.467,-259.587"/>
<polygon fill="midnightblue" stroke="midnightblue" points="291.882,-263.073 301.736,-259.181 291.605,-256.079 291.882,-263.073"/>
</g>
<!-- Node981 -->
<g id="node29" class="node"><title>Node981</title>
<g id="a_node29"><a xlink:href="malloc_8c.html#afbedc913aa4651b3c3b4b3aecd9b4711" target="_top" xlink:title=" ">
<polygon fill="white" stroke="black" points="341.384,-202 341.384,-222 374.616,-222 374.616,-202 341.384,-202"/>
<text text-anchor="middle" x="358" y="-208" font-family="Helvetica,sans-Serif" font-size="10.00">free</text>
</a>
</g>
</g>
<!-- Node958&#45;&gt;Node981 -->
<g id="edge35" class="edge"><title>Node958&#45;&gt;Node981</title>
<path fill="none" stroke="midnightblue" d="M249.787,-246.889C264.473,-241.703 280.898,-236.005 296,-231 307.569,-227.165 320.445,-223.122 331.375,-219.756"/>
<polygon fill="midnightblue" stroke="midnightblue" points="332.613,-223.037 341.151,-216.765 330.565,-216.344 332.613,-223.037"/>
</g>
<!-- Node960 -->
<g id="node8" class="node"><title>Node960</title>
<g id="a_node8"><a xlink:href="stdio_8cpp.html#a154043ea6d83b8616f3148fbf4f24244" target="_top" xlink:title=" ">
<polygon fill="white" stroke="black" points="466.104,-78 466.104,-98 519.896,-98 519.896,-78 466.104,-78"/>
<text text-anchor="middle" x="493" y="-84" font-family="Helvetica,sans-Serif" font-size="10.00">vsnprintf</text>
</a>
</g>
</g>
<!-- Node959&#45;&gt;Node960 -->
<g id="edge7" class="edge"><title>Node959&#45;&gt;Node960</title>
<path fill="none" stroke="midnightblue" d="M384.94,-167.079C396.177,-163.874 409.202,-159.263 420,-153 441.878,-140.311 462.867,-120.138 476.48,-105.631"/>
<polygon fill="midnightblue" stroke="midnightblue" points="479.076,-107.978 483.242,-98.2371 473.911,-103.254 479.076,-107.978"/>
</g>
<!-- Node968 -->
<g id="node16" class="node"><title>Node968</title>
<g id="a_node16"><a xlink:href="malloc_8c.html#a62b7798461bd461da64c5f9d35feddf7" target="_top" xlink:title=" ">
<polygon fill="white" stroke="black" points="472.217,-164 472.217,-184 513.783,-184 513.783,-164 472.217,-164"/>
<text text-anchor="middle" x="493" y="-170" font-family="Helvetica,sans-Serif" font-size="10.00">calloc</text>
</a>
</g>
</g>
<!-- Node959&#45;&gt;Node968 -->
<g id="edge17" class="edge"><title>Node959&#45;&gt;Node968</title>
<path fill="none" stroke="midnightblue" d="M384.959,-173.195C407.018,-173.361 438.699,-173.599 461.871,-173.773"/>
<polygon fill="midnightblue" stroke="midnightblue" points="462.142,-177.276 472.168,-173.851 462.195,-170.276 462.142,-177.276"/>
</g>
<!-- Node961 -->
<g id="node9" class="node"><title>Node961</title>
<g id="a_node9"><a xlink:href="print__vprintf_8cpp.html#a98e0d5bb436a207f576379beaa786040" target="_top" xlink:title=" ">
<polygon fill="white" stroke="black" points="579.877,-78 579.877,-98 648.123,-98 648.123,-78 579.877,-78"/>
<text text-anchor="middle" x="614" y="-84" font-family="Helvetica,sans-Serif" font-size="10.00">print_vprintf</text>
</a>
</g>
</g>
<!-- Node960&#45;&gt;Node961 -->
<g id="edge8" class="edge"><title>Node960&#45;&gt;Node961</title>
<path fill="none" stroke="midnightblue" d="M520.115,-88C534.619,-88 553.037,-88 569.641,-88"/>
<polygon fill="midnightblue" stroke="midnightblue" points="569.694,-91.5001 579.694,-88 569.694,-84.5001 569.694,-91.5001"/>
</g>
<!-- Node967 -->
<g id="node15" class="node"><title>Node967</title>
<g id="a_node15"><a xlink:href="classStdioBufferPrinter.html#a0eb5677b7b0fb57865bdecb6557d6d6a" target="_top" xlink:title=" ">
<polygon fill="white" stroke="black" points="566.625,-27 566.625,-59 661.375,-59 661.375,-27 566.625,-27"/>
<text text-anchor="start" x="574.625" y="-45" font-family="Helvetica,sans-Serif" font-size="10.00">StdioBufferPrinter</text>
<text text-anchor="middle" x="614" y="-33" font-family="Helvetica,sans-Serif" font-size="10.00">::write</text>
</a>
</g>
</g>
<!-- Node960&#45;&gt;Node967 -->
<g id="edge16" class="edge"><title>Node960&#45;&gt;Node967</title>
<path fill="none" stroke="midnightblue" d="M520.115,-78.1246C532.122,-73.584 546.811,-68.0293 560.933,-62.6892"/>
<polygon fill="midnightblue" stroke="midnightblue" points="562.463,-65.8524 570.579,-59.0416 559.987,-59.3049 562.463,-65.8524"/>
</g>
<!-- Node962 -->
<g id="node10" class="node"><title>Node962</title>
<g id="a_node10"><a xlink:href="classAP__HAL_1_1BetterStream.html#a915cc01273d4b418c2fb2989fb31a508" target="_top" xlink:title=" ">
<polygon fill="white" stroke="black" points="698.589,-117 698.589,-149 817.411,-149 817.411,-117 698.589,-117"/>
<text text-anchor="start" x="706.589" y="-135" font-family="Helvetica,sans-Serif" font-size="10.00">AP_HAL::BetterStream</text>
<text text-anchor="middle" x="758" y="-123" font-family="Helvetica,sans-Serif" font-size="10.00">::write</text>
</a>
</g>
</g>
<!-- Node961&#45;&gt;Node962 -->
<g id="edge9" class="edge"><title>Node961&#45;&gt;Node962</title>
<path fill="none" stroke="midnightblue" d="M646.868,-98.0989C661.495,-102.734 679.346,-108.391 696.382,-113.79"/>
<polygon fill="midnightblue" stroke="midnightblue" points="695.697,-117.245 706.288,-116.929 697.812,-110.572 695.697,-117.245"/>
</g>
<!-- Node963 -->
<g id="node11" class="node"><title>Node963</title>
<g id="a_node11"><a xlink:href="ftoa__engine_8cpp.html#a1c28234da8f20b43c85890d4bb452947" target="_top" xlink:title=" ">
<polygon fill="white" stroke="black" points="723.865,-39 723.865,-59 792.135,-59 792.135,-39 723.865,-39"/>
<text text-anchor="middle" x="758" y="-45" font-family="Helvetica,sans-Serif" font-size="10.00">ftoa_engine</text>
</a>
</g>
</g>
<!-- Node961&#45;&gt;Node963 -->
<g id="edge10" class="edge"><title>Node961&#45;&gt;Node963</title>
<path fill="none" stroke="midnightblue" d="M648.293,-78.8562C667.824,-73.4919 692.719,-66.6545 713.756,-60.8769"/>
<polygon fill="midnightblue" stroke="midnightblue" points="714.708,-64.2451 723.424,-58.2216 712.854,-57.4951 714.708,-64.2451"/>
</g>
<!-- Node965 -->
<g id="node13" class="node"><title>Node965</title>
<g id="a_node13"><a xlink:href="utoa__invert_8cpp.html#a34926f552460b47c414ec4d83b32815c" target="_top" xlink:title=" ">
<polygon fill="white" stroke="black" points="723.04,-0 723.04,-20 792.96,-20 792.96,-0 723.04,-0"/>
<text text-anchor="middle" x="758" y="-6" font-family="Helvetica,sans-Serif" font-size="10.00">ulltoa_invert</text>
</a>
</g>
</g>
<!-- Node961&#45;&gt;Node965 -->
<g id="edge12" class="edge"><title>Node961&#45;&gt;Node965</title>
<path fill="none" stroke="midnightblue" d="M643.862,-77.9992C650.11,-75.2219 656.491,-71.8821 662,-68 681.283,-54.4123 678.121,-41.6989 698,-29 702.704,-25.9948 707.925,-23.4274 713.259,-21.2437"/>
<polygon fill="midnightblue" stroke="midnightblue" points="714.709,-24.4401 722.897,-17.7159 712.303,-17.8667 714.709,-24.4401"/>
</g>
<!-- Node966 -->
<g id="node14" class="node"><title>Node966</title>
<g id="a_node14"><a xlink:href="utoa__invert_8cpp.html#a5d99bba8e697c1e11da489d88fca8559" target="_top" xlink:title=" ">
<polygon fill="white" stroke="black" points="724.15,-78 724.15,-98 791.85,-98 791.85,-78 724.15,-78"/>
<text text-anchor="middle" x="758" y="-84" font-family="Helvetica,sans-Serif" font-size="10.00">ultoa_invert</text>
</a>
</g>
</g>
<!-- Node961&#45;&gt;Node966 -->
<g id="edge14" class="edge"><title>Node961&#45;&gt;Node966</title>
<path fill="none" stroke="midnightblue" d="M648.293,-88C667.788,-88 692.626,-88 713.638,-88"/>
<polygon fill="midnightblue" stroke="midnightblue" points="713.916,-91.5001 723.916,-88 713.916,-84.5001 713.916,-91.5001"/>
</g>
<!-- Node964 -->
<g id="node12" class="node"><title>Node964</title>
<g id="a_node12"><a xlink:href="lstrlib_8c.html#a9605f4d16ae762782f8be8b54aef0a22" target="_top" xlink:title=" ">
<polygon fill="white" stroke="black" points="875.828,-39 875.828,-59 910.172,-59 910.172,-39 875.828,-39"/>
<text text-anchor="middle" x="893" y="-45" font-family="Helvetica,sans-Serif" font-size="10.00">digit</text>
</a>
</g>
</g>
<!-- Node963&#45;&gt;Node964 -->
<g id="edge11" class="edge"><title>Node963&#45;&gt;Node964</title>
<path fill="none" stroke="midnightblue" d="M792.218,-49C814.888,-49 844.511,-49 865.576,-49"/>
<polygon fill="midnightblue" stroke="midnightblue" points="865.73,-52.5001 875.73,-49 865.73,-45.5001 865.73,-52.5001"/>
</g>
<!-- Node965&#45;&gt;Node964 -->
<g id="edge13" class="edge"><title>Node965&#45;&gt;Node964</title>
<path fill="none" stroke="midnightblue" d="M793.251,-20.0435C815.901,-26.6852 845.136,-35.258 865.905,-41.348"/>
<polygon fill="midnightblue" stroke="midnightblue" points="865.052,-44.7454 875.633,-44.2007 867.022,-38.0282 865.052,-44.7454"/>
</g>
<!-- Node966&#45;&gt;Node964 -->
<g id="edge15" class="edge"><title>Node966&#45;&gt;Node964</title>
<path fill="none" stroke="midnightblue" d="M791.876,-78.3595C814.749,-71.6525 844.824,-62.8336 866.021,-56.6178"/>
<polygon fill="midnightblue" stroke="midnightblue" points="867.033,-59.9687 875.644,-53.7962 865.063,-53.2515 867.033,-59.9687"/>
</g>
<!-- Node969 -->
<g id="node17" class="node"><title>Node969</title>
<g id="a_node17"><a xlink:href="malloc_8c.html#a7ac38fce3243a7dcf448301ee9ffd392" target="_top" xlink:title=" ">
<polygon fill="white" stroke="black" points="591.552,-165 591.552,-185 636.448,-185 636.448,-165 591.552,-165"/>
<text text-anchor="middle" x="614" y="-171" font-family="Helvetica,sans-Serif" font-size="10.00">malloc</text>
</a>
</g>
</g>
<!-- Node968&#45;&gt;Node969 -->
<g id="edge18" class="edge"><title>Node968&#45;&gt;Node969</title>
<path fill="none" stroke="midnightblue" d="M513.918,-174.167C532.257,-174.321 559.777,-174.553 581.164,-174.732"/>
<polygon fill="midnightblue" stroke="midnightblue" points="581.376,-178.234 591.405,-174.819 581.435,-171.235 581.376,-178.234"/>
</g>
<!-- Node970 -->
<g id="node18" class="node"><title>Node970</title>
<g id="a_node18"><a xlink:href="malloc_8c.html#aa5c105052a59261e63119d5203374a41" target="_top" xlink:title=" ">
<polygon fill="white" stroke="black" points="722.209,-168 722.209,-188 793.791,-188 793.791,-168 722.209,-168"/>
<text text-anchor="middle" x="758" y="-174" font-family="Helvetica,sans-Serif" font-size="10.00">malloc_flags</text>
</a>
</g>
</g>
<!-- Node969&#45;&gt;Node970 -->
<g id="edge19" class="edge"><title>Node969&#45;&gt;Node970</title>
<path fill="none" stroke="midnightblue" d="M636.567,-175.456C656.478,-175.876 686.688,-176.515 711.869,-177.047"/>
<polygon fill="midnightblue" stroke="midnightblue" points="711.878,-180.547 721.95,-177.26 712.026,-173.549 711.878,-180.547"/>
</g>
<!-- Node973 -->
<g id="node21" class="node"><title>Node973</title>
<g id="a_node21"><a xlink:href="posix_8c.html#abb39b21888372e95ad3e5c59b166f5c8" target="_top" xlink:title="POSIX Write count bytes from *buf to fileno fd.">
<polygon fill="white" stroke="black" points="474.443,-247 474.443,-267 511.557,-267 511.557,-247 474.443,-247"/>
<text text-anchor="middle" x="493" y="-253" font-family="Helvetica,sans-Serif" font-size="10.00">write</text>
</a>
</g>
</g>
<!-- Node972&#45;&gt;Node973 -->
<g id="edge23" class="edge"><title>Node972&#45;&gt;Node973</title>
<path fill="none" stroke="midnightblue" d="M414.249,-257C431.424,-257 449.631,-257 464.106,-257"/>
<polygon fill="midnightblue" stroke="midnightblue" points="464.368,-260.5 474.368,-257 464.368,-253.5 464.368,-260.5"/>
</g>
<!-- Node974 -->
<g id="node22" class="node"><title>Node974</title>
<g id="a_node22"><a xlink:href="posix_8c.html#ae0821388c321f66b16fbca4a625022de" target="_top" xlink:title="Convert POSIX fileno to POSIX FILE stream pointer. NOT POSIX.">
<polygon fill="white" stroke="black" points="713.035,-207 713.035,-227 802.965,-227 802.965,-207 713.035,-207"/>
<text text-anchor="middle" x="758" y="-213" font-family="Helvetica,sans-Serif" font-size="10.00">fileno_to_stream</text>
</a>
</g>
</g>
<!-- Node973&#45;&gt;Node974 -->
<g id="edge24" class="edge"><title>Node973&#45;&gt;Node974</title>
<path fill="none" stroke="midnightblue" d="M511.823,-250.802C526.258,-246.026 547.209,-239.643 566,-236 611.453,-227.189 663.828,-222.346 702.223,-219.758"/>
<polygon fill="midnightblue" stroke="midnightblue" points="702.91,-223.221 712.665,-219.087 702.461,-216.236 702.91,-223.221"/>
</g>
<!-- Node976 -->
<g id="node24" class="node"><title>Node976</title>
<g id="a_node24"><a xlink:href="posix_8c.html#abe6299d5823dd023e610aaa619735a3f" target="_top" xlink:title="Put a byte to TTY device or FatFs file stream open() or fopen() sets stream&#45;&gt;put = fatfs_outc() for F...">
<polygon fill="white" stroke="black" points="595.16,-363 595.16,-383 632.84,-383 632.84,-363 595.16,-363"/>
<text text-anchor="middle" x="614" y="-369" font-family="Helvetica,sans-Serif" font-size="10.00">fputc</text>
</a>
</g>
</g>
<!-- Node973&#45;&gt;Node976 -->
<g id="edge26" class="edge"><title>Node973&#45;&gt;Node976</title>
<path fill="none" stroke="midnightblue" d="M500.028,-267.138C511.183,-285.232 536.605,-323.484 566,-348 571.953,-352.965 579.051,-357.36 585.904,-361.026"/>
<polygon fill="midnightblue" stroke="midnightblue" points="584.457,-364.216 594.966,-365.558 587.588,-357.955 584.457,-364.216"/>
</g>
<!-- Node979 -->
<g id="node27" class="node"><title>Node979</title>
<g id="a_node27"><a xlink:href="posix_8c.html#a1eeda4d85cf3cae5cf1ee8c1e196a686" target="_top" xlink:title="Convert POSIX fileno to FatFS handle NOT POSIX.">
<polygon fill="white" stroke="black" points="574.867,-246 574.867,-266 653.133,-266 653.133,-246 574.867,-246"/>
<text text-anchor="middle" x="614" y="-252" font-family="Helvetica,sans-Serif" font-size="10.00">fileno_to_fatfs</text>
</a>
</g>
</g>
<!-- Node973&#45;&gt;Node979 -->
<g id="edge29" class="edge"><title>Node973&#45;&gt;Node979</title>
<path fill="none" stroke="midnightblue" d="M511.559,-256.852C525.524,-256.735 545.76,-256.565 564.491,-256.408"/>
<polygon fill="midnightblue" stroke="midnightblue" points="564.722,-259.906 574.693,-256.322 564.664,-252.906 564.722,-259.906"/>
</g>
<!-- Node978 -->
<g id="node26" class="node"><title>Node978</title>
<g id="a_node26"><a xlink:href="posix_8c.html#aeb68afd2fdf966f8d89cc7aaa9aa7c23" target="_top" xlink:title="Convert FafFs error result to POSIX errno. NOT POSIX.">
<polygon fill="white" stroke="black" points="854.148,-343 854.148,-363 931.852,-363 931.852,-343 854.148,-343"/>
<text text-anchor="middle" x="893" y="-349" font-family="Helvetica,sans-Serif" font-size="10.00">fatfs_to_errno</text>
</a>
</g>
</g>
<!-- Node973&#45;&gt;Node978 -->
<g id="edge34" class="edge"><title>Node973&#45;&gt;Node978</title>
<path fill="none" stroke="midnightblue" d="M511.621,-262.4C546.825,-273.081 628.449,-297.317 698,-314 747.478,-325.868 804.64,-337.058 844.034,-344.381"/>
<polygon fill="midnightblue" stroke="midnightblue" points="843.431,-347.829 853.901,-346.204 844.703,-340.946 843.431,-347.829"/>
</g>
<!-- Node975 -->
<g id="node23" class="node"><title>Node975</title>
<g id="a_node23"><a xlink:href="posix_8c.html#af86fa14728c9bad5418a6d29cad9f9ff" target="_top" xlink:title="Convert POSIX stream pointer to POSIX fileno (index of __iob[])">
<polygon fill="white" stroke="black" points="873.047,-246 873.047,-266 912.953,-266 912.953,-246 873.047,-246"/>
<text text-anchor="middle" x="893" y="-252" font-family="Helvetica,sans-Serif" font-size="10.00">fileno</text>
</a>
</g>
</g>
<!-- Node974&#45;&gt;Node975 -->
<g id="edge25" class="edge"><title>Node974&#45;&gt;Node975</title>
<path fill="none" stroke="midnightblue" d="M793.251,-227.043C814.847,-233.376 842.431,-241.465 862.953,-247.483"/>
<polygon fill="midnightblue" stroke="midnightblue" points="862.106,-250.882 872.687,-250.337 864.076,-244.164 862.106,-250.882"/>
</g>
<!-- Node977 -->
<g id="node25" class="node"><title>Node977</title>
<g id="a_node25"><a xlink:href="posix_8c.html#a90d998e82aa4f903a1570c0c48aeae59" target="_top" xlink:title="Private FatFs function called by fputc() to put a byte from file stream NOT POSIX open() assigns stre...">
<polygon fill="white" stroke="black" points="728.32,-363 728.32,-383 787.68,-383 787.68,-363 728.32,-363"/>
<text text-anchor="middle" x="758" y="-369" font-family="Helvetica,sans-Serif" font-size="10.00">fatfs_putc</text>
</a>
</g>
</g>
<!-- Node976&#45;&gt;Node977 -->
<g id="edge27" class="edge"><title>Node976&#45;&gt;Node977</title>
<path fill="none" stroke="midnightblue" d="M632.984,-373C654.227,-373 690.179,-373 717.92,-373"/>
<polygon fill="midnightblue" stroke="midnightblue" points="718.102,-376.5 728.102,-373 718.102,-369.5 718.102,-376.5"/>
</g>
<!-- Node977&#45;&gt;Node978 -->
<g id="edge28" class="edge"><title>Node977&#45;&gt;Node978</title>
<path fill="none" stroke="midnightblue" d="M787.859,-368.66C804.308,-366.187 825.339,-363.024 844.189,-360.19"/>
<polygon fill="midnightblue" stroke="midnightblue" points="844.733,-363.647 854.102,-358.699 843.692,-356.725 844.733,-363.647"/>
</g>
<!-- Node980 -->
<g id="node28" class="node"><title>Node980</title>
<g id="a_node28"><a xlink:href="posix_8c.html#aeac589354c9d47c7d9c7c49ba4b0d266" target="_top" xlink:title="Test POSIX fileno if it is a Serial Console/TTY.">
<polygon fill="white" stroke="black" points="738.33,-285 738.33,-305 777.67,-305 777.67,-285 738.33,-285"/>
<text text-anchor="middle" x="758" y="-291" font-family="Helvetica,sans-Serif" font-size="10.00">isatty</text>
</a>
</g>
</g>
<!-- Node979&#45;&gt;Node980 -->
<g id="edge30" class="edge"><title>Node979&#45;&gt;Node980</title>
<path fill="none" stroke="midnightblue" d="M651.569,-266.043C675.404,-272.59 706.072,-281.013 728.18,-287.085"/>
<polygon fill="midnightblue" stroke="midnightblue" points="727.408,-290.502 737.978,-289.776 729.262,-283.752 727.408,-290.502"/>
</g>
<!-- Node979&#45;&gt;Node975 -->
<g id="edge32" class="edge"><title>Node979&#45;&gt;Node975</title>
<path fill="none" stroke="midnightblue" d="M653.225,-256C709.224,-256 812.362,-256 862.749,-256"/>
<polygon fill="midnightblue" stroke="midnightblue" points="862.949,-259.5 872.949,-256 862.949,-252.5 862.949,-259.5"/>
</g>
<!-- Node979&#45;&gt;Node974 -->
<g id="edge33" class="edge"><title>Node979&#45;&gt;Node974</title>
<path fill="none" stroke="midnightblue" d="M651.569,-245.957C669.623,-240.998 691.596,-234.963 710.8,-229.689"/>
<polygon fill="midnightblue" stroke="midnightblue" points="711.839,-233.033 720.555,-227.009 709.985,-226.283 711.839,-233.033"/>
</g>
<!-- Node980&#45;&gt;Node975 -->
<g id="edge31" class="edge"><title>Node980&#45;&gt;Node975</title>
<path fill="none" stroke="midnightblue" d="M777.774,-289.495C800.025,-282.97 837.343,-272.027 863.243,-264.433"/>
<polygon fill="midnightblue" stroke="midnightblue" points="864.28,-267.776 872.891,-261.603 862.31,-261.059 864.28,-267.776"/>
</g>
<!-- Node983 -->
<g id="node31" class="node"><title>Node983</title>
<g id="a_node31"><a xlink:href="AP__Math_8h.html#a0375e3d67fd3911cacee5c3e1408c0f2" target="_top" xlink:title=" ">
<polygon fill="white" stroke="black" points="343.5,-124 343.5,-144 372.5,-144 372.5,-124 343.5,-124"/>
<text text-anchor="middle" x="358" y="-130" font-family="Helvetica,sans-Serif" font-size="10.00">sq</text>
</a>
</g>
</g>
<!-- Node982&#45;&gt;Node983 -->
<g id="edge37" class="edge"><title>Node982&#45;&gt;Node983</title>
<path fill="none" stroke="midnightblue" d="M223.638,-173.482C251.294,-165.294 303.179,-149.934 333.434,-140.977"/>
<polygon fill="midnightblue" stroke="midnightblue" points="334.564,-144.293 343.159,-138.098 332.576,-137.581 334.564,-144.293"/>
</g>
</g>
</svg>
        <g id="navigator" transform="translate(0 0)" fill="#404254">
                <rect fill="#f2f5e9" fill-opacity="0.5" stroke="#606060" stroke-width=".5" x="0" y="0" width="60" height="60"/>
                <use id="zoomplus" xlink:href="#zoomPlus" x="17" y="9" onmousedown="handleZoom(evt,'in')"/>
                <use id="zoomminus" xlink:href="#zoomMin" x="42" y="9" onmousedown="handleZoom(evt,'out')"/>
                <use id="reset" xlink:href="#resetDef" x="30" y="36" onmousedown="handleReset()"/>
                <g id="arrowUp" xlink:href="#dirArrow" transform="translate(30 24)" onmousedown="handlePan(0,-1)">
                  <use xlink:href="#rim" fill="#404040">
                        <set attributeName="fill" to="#808080" begin="arrowUp.mouseover" end="arrowUp.mouseout"/>
                  </use>
                  <path fill="none" stroke="white" stroke-width="1.5" d="M0,-3.0v7 M-2.5,-0.5L0,-3.0L2.5,-0.5"/>
                </g>
                <g id="arrowRight" xlink:href="#dirArrow" transform="rotate(90) translate(36 -43)" onmousedown="handlePan(1,0)">
                  <use xlink:href="#rim" fill="#404040">
                        <set attributeName="fill" to="#808080" begin="arrowRight.mouseover" end="arrowRight.mouseout"/>
                  </use>
                  <path fill="none" stroke="white" stroke-width="1.5" d="M0,-3.0v7 M-2.5,-0.5L0,-3.0L2.5,-0.5"/>
                </g>
                <g id="arrowDown" xlink:href="#dirArrow" transform="rotate(180) translate(-30 -48)" onmousedown="handlePan(0,1)">
                  <use xlink:href="#rim" fill="#404040">
                        <set attributeName="fill" to="#808080" begin="arrowDown.mouseover" end="arrowDown.mouseout"/>
                  </use>
                  <path fill="none" stroke="white" stroke-width="1.5" d="M0,-3.0v7 M-2.5,-0.5L0,-3.0L2.5,-0.5"/>
                </g>
                <g id="arrowLeft" xlink:href="#dirArrow" transform="rotate(270) translate(-36 17)" onmousedown="handlePan(-1,0)">
                  <use xlink:href="#rim" fill="#404040">
                        <set attributeName="fill" to="#808080" begin="arrowLeft.mouseover" end="arrowLeft.mouseout"/>
                  </use>
                  <path fill="none" stroke="white" stroke-width="1.5" d="M0,-3.0v7 M-2.5,-0.5L0,-3.0L2.5,-0.5"/>
                </g>
        </g>
        <svg viewBox="0 0 15 15" width="100%" height="30px" preserveAspectRatio="xMaxYMin meet">
         <g id="arrow_out" transform="scale(0.3 0.3)">
          <a xlink:href="classHALSITL_1_1SITL__State_a9b3233d3dbfc1115318feda8f82babc3_cgraph_org.svg" target="_base">
           <rect id="button" ry="5" rx="5" y="6" x="6" height="38" width="38"
                fill="#f2f5e9" fill-opacity="0.5" stroke="#606060" stroke-width="1.0"/>
           <path id="arrow"
             d="M 11.500037,31.436501 C 11.940474,20.09759 22.043105,11.32322 32.158766,21.979434 L 37.068811,17.246167 C 37.068811,17.246167 37.088388,32 37.088388,32 L 22.160133,31.978069 C 22.160133,31.978069 26.997745,27.140456 26.997745,27.140456 C 18.528582,18.264221 13.291696,25.230495 11.500037,31.436501 z"
             style="fill:#404040;"/>
          </a>
         </g>
        </svg>
</svg>
