<?xml version="1.0" encoding="UTF-8" standalone="no"?>
<!DOCTYPE svg PUBLIC "-//W3C//DTD SVG 1.1//EN"
 "http://www.w3.org/Graphics/SVG/1.1/DTD/svg11.dtd">
<!-- Generated by graphviz version 2.30.1 (20130221.2233)
 -->
<!-- Title: Linux::UARTDriver::set_flow_control Pages: 1 -->
<svg width="264pt" height="40pt"
 viewBox="0.00 0.00 264.00 40.00" xmlns="http://www.w3.org/2000/svg" xmlns:xlink="http://www.w3.org/1999/xlink">
<g id="graph0" class="graph" transform="scale(1 1) rotate(0) translate(4 36)">
<title>Linux::UARTDriver::set_flow_control</title>
<polygon fill="white" stroke="white" points="-4,5 -4,-36 261,-36 261,5 -4,5"/>
<!-- Node145 -->
<g id="node1" class="node"><title>Node145</title>
<g id="a_node1"><a xlink:title=" ">
<polygon fill="#bfbfbf" stroke="black" points="0.634766,-0 0.634766,-32 105.365,-32 105.365,-0 0.634766,-0"/>
<text text-anchor="start" x="8.63477" y="-18" font-family="Helvetica,sans-Serif" font-size="10.00">Linux::UARTDriver::</text>
<text text-anchor="middle" x="53" y="-6" font-family="Helvetica,sans-Serif" font-size="10.00">set_flow_control</text>
</a>
</g>
</g>
<!-- Node146 -->
<g id="node2" class="node"><title>Node146</title>
<g id="a_node2"><a xlink:href="classSerialDevice.html#a9b554438ff29709cdc205c6dca040fc0" target="_top" xlink:title=" ">
<polygon fill="white" stroke="black" points="141.813,-0 141.813,-32 256.187,-32 256.187,-0 141.813,-0"/>
<text text-anchor="start" x="149.813" y="-18" font-family="Helvetica,sans-Serif" font-size="10.00">SerialDevice::set_flow</text>
<text text-anchor="middle" x="199" y="-6" font-family="Helvetica,sans-Serif" font-size="10.00">_control</text>
</a>
</g>
</g>
<!-- Node145&#45;&gt;Node146 -->
<g id="edge1" class="edge"><title>Node145&#45;&gt;Node146</title>
<path fill="none" stroke="midnightblue" d="M105.581,-16C113.933,-16 122.686,-16 131.335,-16"/>
<polygon fill="midnightblue" stroke="midnightblue" points="131.41,-19.5001 141.41,-16 131.41,-12.5001 131.41,-19.5001"/>
</g>
</g>
</svg>
