<?xml version="1.0" encoding="UTF-8" standalone="no"?>
<!DOCTYPE svg PUBLIC "-//W3C//DTD SVG 1.1//EN"
 "http://www.w3.org/Graphics/SVG/1.1/DTD/svg11.dtd">
<!-- Generated by graphviz version 2.30.1 (20130221.2233)
 -->
<!-- Title: AP_AHRS::calc_trig Pages: 1 -->
<!--zoomable 263 -->
<svg id="main" version="1.1" xmlns="http://www.w3.org/2000/svg" xmlns:xlink="http://www.w3.org/1999/xlink" xml:space="preserve" onload="init(evt)">
<style type="text/css"><![CDATA[
.edge:hover path { stroke: red; }
.edge:hover polygon { stroke: red; fill: red; }
]]></style>
<script type="text/javascript"><![CDATA[
var edges = document.getElementsByTagName('g');
if (edges && edges.length) {
  for (var i=0;i<edges.length;i++) {
    if (edges[i].id.substr(0,4)=='edge') {
      edges[i].setAttribute('class','edge');
    }
  }
}
]]></script>
        <defs>
                <circle id="rim" cx="0" cy="0" r="7"/>
                <circle id="rim2" cx="0" cy="0" r="3.5"/>
                <g id="zoomPlus">
                        <use xlink:href="#rim" fill="#404040">
                                <set attributeName="fill" to="#808080" begin="zoomplus.mouseover" end="zoomplus.mouseout"/>
                        </use>
                        <path d="M-4,0h8M0,-4v8" fill="none" stroke="white" stroke-width="1.5" pointer-events="none"/>
                </g>
                <g id="zoomMin">
                        <use xlink:href="#rim" fill="#404040">
                                <set attributeName="fill" to="#808080" begin="zoomminus.mouseover" end="zoomminus.mouseout"/>
                        </use>
                        <path d="M-4,0h8" fill="none" stroke="white" stroke-width="1.5" pointer-events="none"/>
                </g>
                <g id="dirArrow">
                        <path fill="none" stroke="white" stroke-width="1.5" d="M0,-3.0v7 M-2.5,-0.5L0,-3.0L2.5,-0.5"/>
                </g>
               <g id="resetDef">
                       <use xlink:href="#rim2" fill="#404040">
                               <set attributeName="fill" to="#808080" begin="reset.mouseover" end="reset.mouseout"/>
                       </use>
               </g>
        </defs>

<script type="text/javascript">
var viewWidth = 792;
var viewHeight = 263;
var sectionId = 'dynsection-10';
</script>
<script xlink:href="svgpan.js"/>
<svg id="graph" class="graph">
<g id="viewport">
<title>AP_AHRS::calc_trig</title>
<polygon fill="white" stroke="white" points="-4,5 -4,-259 789,-259 789,5 -4,5"/>
<!-- Node336 -->
<g id="node1" class="node"><title>Node336</title>
<g id="a_node1"><a xlink:title=" ">
<polygon fill="#bfbfbf" stroke="black" points="0.26123,-118 0.26123,-138 105.739,-138 105.739,-118 0.26123,-118"/>
<text text-anchor="middle" x="53" y="-124" font-family="Helvetica,sans-Serif" font-size="10.00">AP_AHRS::calc_trig</text>
</a>
</g>
</g>
<!-- Node337 -->
<g id="node2" class="node"><title>Node337</title>
<g id="a_node2"><a xlink:href="structVector2.html#ace2a626eaa79412e2946216e9c3e63c6" target="_top" xlink:title=" ">
<polygon fill="white" stroke="black" points="142.589,-235 142.589,-255 241.411,-255 241.411,-235 142.589,-235"/>
<text text-anchor="middle" x="192" y="-241" font-family="Helvetica,sans-Serif" font-size="10.00">Vector2::normalize</text>
</a>
</g>
</g>
<!-- Node336&#45;&gt;Node337 -->
<g id="edge1" class="edge"><title>Node336&#45;&gt;Node337</title>
<path fill="none" stroke="midnightblue" d="M60.8337,-138.16C74.2889,-157.481 106.05,-199.833 142,-225 144.872,-227.011 147.977,-228.866 151.18,-230.568"/>
<polygon fill="midnightblue" stroke="midnightblue" points="149.83,-233.802 160.362,-234.96 152.851,-227.487 149.83,-233.802"/>
</g>
<!-- Node338 -->
<g id="node3" class="node"><title>Node338</title>
<g id="a_node3"><a xlink:href="AP__Math_8h.html#ad525609d9dba6ffa556a0fbf08a3f9b4" target="_top" xlink:title=" ">
<polygon fill="white" stroke="black" points="151.48,-196 151.48,-216 232.52,-216 232.52,-196 151.48,-196"/>
<text text-anchor="middle" x="192" y="-202" font-family="Helvetica,sans-Serif" font-size="10.00">constrain_float</text>
</a>
</g>
</g>
<!-- Node336&#45;&gt;Node338 -->
<g id="edge2" class="edge"><title>Node336&#45;&gt;Node338</title>
<path fill="none" stroke="midnightblue" d="M67.5079,-138.111C84.3556,-150.432 114.321,-171.409 142,-186 145.947,-188.081 150.16,-190.092 154.396,-191.985"/>
<polygon fill="midnightblue" stroke="midnightblue" points="153.04,-195.211 163.611,-195.921 155.79,-188.774 153.04,-195.211"/>
</g>
<!-- Node345 -->
<g id="node10" class="node"><title>Node345</title>
<g id="a_node10"><a xlink:href="structVector2.html#a4e9114e7f5f457d4ab8b4d33e9d253c9" target="_top" xlink:title=" ">
<polygon fill="white" stroke="black" points="152.591,-157 152.591,-177 231.409,-177 231.409,-157 152.591,-157"/>
<text text-anchor="middle" x="192" y="-163" font-family="Helvetica,sans-Serif" font-size="10.00">Vector2::is_inf</text>
</a>
</g>
</g>
<!-- Node336&#45;&gt;Node345 -->
<g id="edge9" class="edge"><title>Node336&#45;&gt;Node345</title>
<path fill="none" stroke="midnightblue" d="M89.2809,-138.043C106.619,-142.979 127.704,-148.982 146.172,-154.239"/>
<polygon fill="midnightblue" stroke="midnightblue" points="145.262,-157.619 155.839,-156.991 147.179,-150.886 145.262,-157.619"/>
</g>
<!-- Node346 -->
<g id="node11" class="node"><title>Node346</title>
<g id="a_node11"><a xlink:href="structVector2.html#aa53d6fde95d48878ba8eb99abab80997" target="_top" xlink:title=" ">
<polygon fill="white" stroke="black" points="149.53,-118 149.53,-138 234.47,-138 234.47,-118 149.53,-118"/>
<text text-anchor="middle" x="192" y="-124" font-family="Helvetica,sans-Serif" font-size="10.00">Vector2::is_nan</text>
</a>
</g>
</g>
<!-- Node336&#45;&gt;Node346 -->
<g id="edge10" class="edge"><title>Node336&#45;&gt;Node346</title>
<path fill="none" stroke="midnightblue" d="M105.794,-128C116.704,-128 128.216,-128 139.129,-128"/>
<polygon fill="midnightblue" stroke="midnightblue" points="139.37,-131.5 149.37,-128 139.369,-124.5 139.37,-131.5"/>
</g>
<!-- Node347 -->
<g id="node12" class="node"><title>Node347</title>
<g id="a_node12"><a xlink:href="AP__Math_8cpp.html#ac89eb1832d8e4d67fcf1ac07e3c25184" target="_top" xlink:title=" ">
<polygon fill="white" stroke="black" points="163.434,-79 163.434,-99 220.566,-99 220.566,-79 163.434,-79"/>
<text text-anchor="middle" x="192" y="-85" font-family="Helvetica,sans-Serif" font-size="10.00">safe_sqrt</text>
</a>
</g>
</g>
<!-- Node336&#45;&gt;Node347 -->
<g id="edge11" class="edge"><title>Node336&#45;&gt;Node347</title>
<path fill="none" stroke="midnightblue" d="M89.2809,-117.957C108.95,-112.357 133.439,-105.386 153.46,-99.6865"/>
<polygon fill="midnightblue" stroke="midnightblue" points="154.521,-103.024 163.181,-96.9194 152.604,-96.2911 154.521,-103.024"/>
</g>
<!-- Node348 -->
<g id="node13" class="node"><title>Node348</title>
<g id="a_node13"><a xlink:href="AP__Math_8h.html#a2a12cce483e9b870da70d30406d82c60" target="_top" xlink:title=" ">
<polygon fill="white" stroke="black" points="167.882,-40 167.882,-60 216.118,-60 216.118,-40 167.882,-40"/>
<text text-anchor="middle" x="192" y="-46" font-family="Helvetica,sans-Serif" font-size="10.00">is_zero</text>
</a>
</g>
</g>
<!-- Node336&#45;&gt;Node348 -->
<g id="edge12" class="edge"><title>Node336&#45;&gt;Node348</title>
<path fill="none" stroke="midnightblue" d="M67.5079,-117.889C84.3556,-105.568 114.321,-84.5908 142,-70 147.08,-67.322 152.6,-64.7596 158.043,-62.4159"/>
<polygon fill="midnightblue" stroke="midnightblue" points="159.734,-65.5044 167.644,-58.4557 157.065,-59.0333 159.734,-65.5044"/>
</g>
<!-- Node349 -->
<g id="node14" class="node"><title>Node349</title>
<g id="a_node14"><a xlink:href="classMatrix3.html#a3a809878d75c408fb8173b052016b529" target="_top" xlink:title=" ">
<polygon fill="white" stroke="black" points="146.761,-1 146.761,-21 237.239,-21 237.239,-1 146.761,-1"/>
<text text-anchor="middle" x="192" y="-7" font-family="Helvetica,sans-Serif" font-size="10.00">Matrix3::to_euler</text>
</a>
</g>
</g>
<!-- Node336&#45;&gt;Node349 -->
<g id="edge13" class="edge"><title>Node336&#45;&gt;Node349</title>
<path fill="none" stroke="midnightblue" d="M60.8337,-117.84C74.2889,-98.5193 106.05,-56.1672 142,-31 144.872,-28.9894 147.977,-27.1338 151.18,-25.4317"/>
<polygon fill="midnightblue" stroke="midnightblue" points="152.851,-28.5125 160.362,-21.0401 149.83,-22.1977 152.851,-28.5125"/>
</g>
<!-- Node339 -->
<g id="node4" class="node"><title>Node339</title>
<g id="a_node4"><a xlink:href="AP__Math_8h.html#a20e8f8671c282c69c1954652b6d61585" target="_top" xlink:title=" ">
<polygon fill="white" stroke="black" points="277.978,-196 277.978,-216 364.022,-216 364.022,-196 277.978,-196"/>
<text text-anchor="middle" x="321" y="-202" font-family="Helvetica,sans-Serif" font-size="10.00">constrain_value</text>
</a>
</g>
</g>
<!-- Node338&#45;&gt;Node339 -->
<g id="edge3" class="edge"><title>Node338&#45;&gt;Node339</title>
<path fill="none" stroke="midnightblue" d="M232.835,-206C243.863,-206 256.001,-206 267.626,-206"/>
<polygon fill="midnightblue" stroke="midnightblue" points="267.67,-209.5 277.669,-206 267.669,-202.5 267.67,-209.5"/>
</g>
<!-- Node340 -->
<g id="node5" class="node"><title>Node340</title>
<g id="a_node5"><a xlink:href="namespaceAP.html#afceb236ff617aaaa2b08afacd72532b0" target="_top" xlink:title=" ">
<polygon fill="white" stroke="black" points="414.596,-216 414.596,-236 503.404,-236 503.404,-216 414.596,-216"/>
<text text-anchor="middle" x="459" y="-222" font-family="Helvetica,sans-Serif" font-size="10.00">AP::internalerror</text>
</a>
</g>
</g>
<!-- Node339&#45;&gt;Node340 -->
<g id="edge4" class="edge"><title>Node339&#45;&gt;Node340</title>
<path fill="none" stroke="midnightblue" d="M364.286,-212.218C376.962,-214.083 391.035,-216.152 404.342,-218.109"/>
<polygon fill="midnightblue" stroke="midnightblue" points="403.929,-221.586 414.331,-219.578 404.947,-214.66 403.929,-221.586"/>
</g>
<!-- Node341 -->
<g id="node6" class="node"><title>Node341</title>
<g id="a_node6"><a xlink:href="classAP__InternalError.html#ab34174ba770b976b39a18c2b23e854f2" target="_top" xlink:title=" ">
<polygon fill="white" stroke="black" points="400.426,-177 400.426,-197 517.574,-197 517.574,-177 400.426,-177"/>
<text text-anchor="middle" x="459" y="-183" font-family="Helvetica,sans-Serif" font-size="10.00">AP_InternalError::error</text>
</a>
</g>
</g>
<!-- Node339&#45;&gt;Node341 -->
<g id="edge5" class="edge"><title>Node339&#45;&gt;Node341</title>
<path fill="none" stroke="midnightblue" d="M364.286,-200.092C372.557,-198.937 381.424,-197.698 390.284,-196.46"/>
<polygon fill="midnightblue" stroke="midnightblue" points="390.833,-199.918 400.253,-195.068 389.865,-192.985 390.833,-199.918"/>
</g>
<!-- Node342 -->
<g id="node7" class="node"><title>Node342</title>
<g id="a_node7"><a xlink:href="namespaceAP__HAL.html#a71832f03d849a0c088f04fc98d3c8143" target="_top" xlink:title=" ">
<polygon fill="white" stroke="black" points="554.091,-177 554.091,-197 637.909,-197 637.909,-177 554.091,-177"/>
<text text-anchor="middle" x="596" y="-183" font-family="Helvetica,sans-Serif" font-size="10.00">AP_HAL::panic</text>
</a>
</g>
</g>
<!-- Node341&#45;&gt;Node342 -->
<g id="edge6" class="edge"><title>Node341&#45;&gt;Node342</title>
<path fill="none" stroke="midnightblue" d="M517.644,-187C526.305,-187 535.188,-187 543.705,-187"/>
<polygon fill="midnightblue" stroke="midnightblue" points="543.873,-190.5 553.873,-187 543.872,-183.5 543.873,-190.5"/>
</g>
<!-- Node343 -->
<g id="node8" class="node"><title>Node343</title>
<g id="a_node8"><a xlink:href="stdio_8h.html#aae132cc6af1eb6cf43bf011d8d63e854" target="_top" xlink:title=" ">
<polygon fill="white" stroke="black" points="707.384,-200 707.384,-220 750.616,-220 750.616,-200 707.384,-200"/>
<text text-anchor="middle" x="729" y="-206" font-family="Helvetica,sans-Serif" font-size="10.00">vprintf</text>
</a>
</g>
</g>
<!-- Node342&#45;&gt;Node343 -->
<g id="edge7" class="edge"><title>Node342&#45;&gt;Node343</title>
<path fill="none" stroke="midnightblue" d="M638.09,-194.214C657.104,-197.553 679.321,-201.453 696.913,-204.542"/>
<polygon fill="midnightblue" stroke="midnightblue" points="696.744,-208.066 707.199,-206.348 697.954,-201.171 696.744,-208.066"/>
</g>
<!-- Node344 -->
<g id="node9" class="node"><title>Node344</title>
<g id="a_node9"><a xlink:href="classAP__HAL_1_1Scheduler.html#a78c4f1b1f192ac1c99544b6cc8f099b0" target="_top" xlink:title=" ">
<polygon fill="white" stroke="black" points="673.751,-149 673.751,-181 784.249,-181 784.249,-149 673.751,-149"/>
<text text-anchor="start" x="681.751" y="-167" font-family="Helvetica,sans-Serif" font-size="10.00">AP_HAL::Scheduler::</text>
<text text-anchor="middle" x="729" y="-155" font-family="Helvetica,sans-Serif" font-size="10.00">delay_microseconds</text>
</a>
</g>
</g>
<!-- Node342&#45;&gt;Node344 -->
<g id="edge8" class="edge"><title>Node342&#45;&gt;Node344</title>
<path fill="none" stroke="midnightblue" d="M638.09,-180.099C646.18,-178.741 654.849,-177.285 663.495,-175.833"/>
<polygon fill="midnightblue" stroke="midnightblue" points="664.316,-179.244 673.599,-174.136 663.157,-172.341 664.316,-179.244"/>
</g>
</g>
</svg>
        <g id="navigator" transform="translate(0 0)" fill="#404254">
                <rect fill="#f2f5e9" fill-opacity="0.5" stroke="#606060" stroke-width=".5" x="0" y="0" width="60" height="60"/>
                <use id="zoomplus" xlink:href="#zoomPlus" x="17" y="9" onmousedown="handleZoom(evt,'in')"/>
                <use id="zoomminus" xlink:href="#zoomMin" x="42" y="9" onmousedown="handleZoom(evt,'out')"/>
                <use id="reset" xlink:href="#resetDef" x="30" y="36" onmousedown="handleReset()"/>
                <g id="arrowUp" xlink:href="#dirArrow" transform="translate(30 24)" onmousedown="handlePan(0,-1)">
                  <use xlink:href="#rim" fill="#404040">
                        <set attributeName="fill" to="#808080" begin="arrowUp.mouseover" end="arrowUp.mouseout"/>
                  </use>
                  <path fill="none" stroke="white" stroke-width="1.5" d="M0,-3.0v7 M-2.5,-0.5L0,-3.0L2.5,-0.5"/>
                </g>
                <g id="arrowRight" xlink:href="#dirArrow" transform="rotate(90) translate(36 -43)" onmousedown="handlePan(1,0)">
                  <use xlink:href="#rim" fill="#404040">
                        <set attributeName="fill" to="#808080" begin="arrowRight.mouseover" end="arrowRight.mouseout"/>
                  </use>
                  <path fill="none" stroke="white" stroke-width="1.5" d="M0,-3.0v7 M-2.5,-0.5L0,-3.0L2.5,-0.5"/>
                </g>
                <g id="arrowDown" xlink:href="#dirArrow" transform="rotate(180) translate(-30 -48)" onmousedown="handlePan(0,1)">
                  <use xlink:href="#rim" fill="#404040">
                        <set attributeName="fill" to="#808080" begin="arrowDown.mouseover" end="arrowDown.mouseout"/>
                  </use>
                  <path fill="none" stroke="white" stroke-width="1.5" d="M0,-3.0v7 M-2.5,-0.5L0,-3.0L2.5,-0.5"/>
                </g>
                <g id="arrowLeft" xlink:href="#dirArrow" transform="rotate(270) translate(-36 17)" onmousedown="handlePan(-1,0)">
                  <use xlink:href="#rim" fill="#404040">
                        <set attributeName="fill" to="#808080" begin="arrowLeft.mouseover" end="arrowLeft.mouseout"/>
                  </use>
                  <path fill="none" stroke="white" stroke-width="1.5" d="M0,-3.0v7 M-2.5,-0.5L0,-3.0L2.5,-0.5"/>
                </g>
        </g>
        <svg viewBox="0 0 15 15" width="100%" height="30px" preserveAspectRatio="xMaxYMin meet">
         <g id="arrow_out" transform="scale(0.3 0.3)">
          <a xlink:href="classAP__AHRS_af55335ae1d37aff06bc6ad997b9f5ab0_cgraph_org.svg" target="_base">
           <rect id="button" ry="5" rx="5" y="6" x="6" height="38" width="38"
                fill="#f2f5e9" fill-opacity="0.5" stroke="#606060" stroke-width="1.0"/>
           <path id="arrow"
             d="M 11.500037,31.436501 C 11.940474,20.09759 22.043105,11.32322 32.158766,21.979434 L 37.068811,17.246167 C 37.068811,17.246167 37.088388,32 37.088388,32 L 22.160133,31.978069 C 22.160133,31.978069 26.997745,27.140456 26.997745,27.140456 C 18.528582,18.264221 13.291696,25.230495 11.500037,31.436501 z"
             style="fill:#404040;"/>
          </a>
         </g>
        </svg>
</svg>
