<?xml version="1.0" encoding="UTF-8" standalone="no"?>
<!DOCTYPE svg PUBLIC "-//W3C//DTD SVG 1.1//EN"
 "http://www.w3.org/Graphics/SVG/1.1/DTD/svg11.dtd">
<!-- Generated by graphviz version 2.30.1 (20130221.2233)
 -->
<!-- Title: AP_Avoidance::add_obstacle Pages: 1 -->
<svg width="490pt" height="118pt"
 viewBox="0.00 0.00 490.00 118.00" xmlns="http://www.w3.org/2000/svg" xmlns:xlink="http://www.w3.org/1999/xlink">
<g id="graph0" class="graph" transform="scale(1 1) rotate(0) translate(4 114)">
<title>AP_Avoidance::add_obstacle</title>
<polygon fill="white" stroke="white" points="-4,5 -4,-114 487,-114 487,5 -4,5"/>
<!-- Node18 -->
<g id="node1" class="node"><title>Node18</title>
<g id="a_node1"><a xlink:title=" ">
<polygon fill="#bfbfbf" stroke="black" points="335.763,-45 335.763,-65 482.237,-65 482.237,-45 335.763,-45"/>
<text text-anchor="middle" x="409" y="-51" font-family="Helvetica,sans-Serif" font-size="10.00">AP_Avoidance::add_obstacle</text>
</a>
</g>
</g>
<!-- Node19 -->
<g id="node2" class="node"><title>Node19</title>
<g id="a_node2"><a xlink:href="classAP__Avoidance.html#a20897f1792d996e094ed92b076fe7740" target="_top" xlink:title=" ">
<polygon fill="white" stroke="black" points="153.763,-90 153.763,-110 300.237,-110 300.237,-90 153.763,-90"/>
<text text-anchor="middle" x="227" y="-96" font-family="Helvetica,sans-Serif" font-size="10.00">AP_Avoidance::add_obstacle</text>
</a>
</g>
</g>
<!-- Node18&#45;&gt;Node19 -->
<g id="edge1" class="edge"><title>Node18&#45;&gt;Node19</title>
<path fill="none" stroke="midnightblue" d="M357.901,-67.5248C329.621,-74.5948 294.75,-83.3124 268.261,-89.9348"/>
<polygon fill="midnightblue" stroke="midnightblue" points="358.752,-70.9198 367.604,-65.0989 357.054,-64.1288 358.752,-70.9198"/>
</g>
<!-- Node20 -->
<g id="node3" class="node"><title>Node20</title>
<g id="a_node3"><a xlink:href="classAP__Avoidance.html#aaa2a7d298e4d0349bc423525c2f97bd3" target="_top" xlink:title=" ">
<polygon fill="white" stroke="black" points="162.936,-39 162.936,-71 291.064,-71 291.064,-39 162.936,-39"/>
<text text-anchor="start" x="170.936" y="-57" font-family="Helvetica,sans-Serif" font-size="10.00">AP_Avoidance::get_adsb</text>
<text text-anchor="middle" x="227" y="-45" font-family="Helvetica,sans-Serif" font-size="10.00">_samples</text>
</a>
</g>
</g>
<!-- Node18&#45;&gt;Node20 -->
<g id="edge2" class="edge"><title>Node18&#45;&gt;Node20</title>
<path fill="none" stroke="midnightblue" d="M325.525,-55C314.03,-55 302.37,-55 291.302,-55"/>
<polygon fill="midnightblue" stroke="midnightblue" points="325.565,-58.5001 335.565,-55 325.565,-51.5001 325.565,-58.5001"/>
</g>
<!-- Node22 -->
<g id="node5" class="node"><title>Node22</title>
<g id="a_node5"><a xlink:href="classAP__Avoidance.html#ad4c6e3d73abd681053400138e9bd94ee" target="_top" xlink:title=" ">
<polygon fill="white" stroke="black" points="156.268,-0 156.268,-20 297.732,-20 297.732,-0 156.268,-0"/>
<text text-anchor="middle" x="227" y="-6" font-family="Helvetica,sans-Serif" font-size="10.00">AP_Avoidance::handle_msg</text>
</a>
</g>
</g>
<!-- Node18&#45;&gt;Node22 -->
<g id="edge4" class="edge"><title>Node18&#45;&gt;Node22</title>
<path fill="none" stroke="midnightblue" d="M357.901,-42.4752C329.621,-35.4052 294.75,-26.6876 268.261,-20.0652"/>
<polygon fill="midnightblue" stroke="midnightblue" points="357.054,-45.8712 367.604,-44.9011 358.752,-39.0802 357.054,-45.8712"/>
</g>
<!-- Node21 -->
<g id="node4" class="node"><title>Node21</title>
<g id="a_node4"><a xlink:href="classAP__Avoidance.html#a37059296c298d5f6d9a5fb11bab4d329" target="_top" xlink:title=" ">
<polygon fill="white" stroke="black" points="0.216309,-45 0.216309,-65 117.784,-65 117.784,-45 0.216309,-45"/>
<text text-anchor="middle" x="59" y="-51" font-family="Helvetica,sans-Serif" font-size="10.00">AP_Avoidance::update</text>
</a>
</g>
</g>
<!-- Node20&#45;&gt;Node21 -->
<g id="edge3" class="edge"><title>Node20&#45;&gt;Node21</title>
<path fill="none" stroke="midnightblue" d="M152.63,-55C140.99,-55 129.095,-55 117.876,-55"/>
<polygon fill="midnightblue" stroke="midnightblue" points="152.769,-58.5001 162.769,-55 152.769,-51.5001 152.769,-58.5001"/>
</g>
</g>
</svg>
