<?xml version="1.0" encoding="UTF-8" standalone="no"?>
<!DOCTYPE svg PUBLIC "-//W3C//DTD SVG 1.1//EN"
 "http://www.w3.org/Graphics/SVG/1.1/DTD/svg11.dtd">
<!-- Generated by graphviz version 2.30.1 (20130221.2233)
 -->
<!-- Title: SITL::Vicon::fd Pages: 1 -->
<svg width="390pt" height="40pt"
 viewBox="0.00 0.00 390.00 40.00" xmlns="http://www.w3.org/2000/svg" xmlns:xlink="http://www.w3.org/1999/xlink">
<g id="graph0" class="graph" transform="scale(1 1) rotate(0) translate(4 36)">
<title>SITL::Vicon::fd</title>
<polygon fill="white" stroke="white" points="-4,5 -4,-36 387,-36 387,5 -4,5"/>
<!-- Node7 -->
<g id="node1" class="node"><title>Node7</title>
<g id="a_node1"><a xlink:title=" ">
<polygon fill="#bfbfbf" stroke="black" points="300.295,-6 300.295,-26 381.705,-26 381.705,-6 300.295,-6"/>
<text text-anchor="middle" x="341" y="-12" font-family="Helvetica,sans-Serif" font-size="10.00">SITL::Vicon::fd</text>
</a>
</g>
</g>
<!-- Node8 -->
<g id="node2" class="node"><title>Node8</title>
<g id="a_node2"><a xlink:href="classHALSITL_1_1SITL__State.html#aeb4f85be12f0b19e26633c7e4ddee1f1" target="_top" xlink:title=" ">
<polygon fill="white" stroke="black" points="151.921,-0 151.921,-32 264.079,-32 264.079,-0 151.921,-0"/>
<text text-anchor="start" x="159.921" y="-18" font-family="Helvetica,sans-Serif" font-size="10.00">HALSITL::SITL_State</text>
<text text-anchor="middle" x="208" y="-6" font-family="Helvetica,sans-Serif" font-size="10.00">::sim_fd</text>
</a>
</g>
</g>
<!-- Node7&#45;&gt;Node8 -->
<g id="edge1" class="edge"><title>Node7&#45;&gt;Node8</title>
<path fill="none" stroke="midnightblue" d="M289.937,-16C281.52,-16 272.743,-16 264.206,-16"/>
<polygon fill="midnightblue" stroke="midnightblue" points="289.984,-19.5001 299.984,-16 289.984,-12.5001 289.984,-19.5001"/>
</g>
<!-- Node9 -->
<g id="node3" class="node"><title>Node9</title>
<g id="a_node3"><a xlink:href="classHALSITL_1_1UARTDriver.html#a9e0f62386e505ff552ae03611b0ee341" target="_top" xlink:title=" ">
<polygon fill="white" stroke="black" points="0.0805664,-0 0.0805664,-32 115.919,-32 115.919,-0 0.0805664,-0"/>
<text text-anchor="start" x="8.08057" y="-18" font-family="Helvetica,sans-Serif" font-size="10.00">HALSITL::UARTDriver</text>
<text text-anchor="middle" x="58" y="-6" font-family="Helvetica,sans-Serif" font-size="10.00">::begin</text>
</a>
</g>
</g>
<!-- Node8&#45;&gt;Node9 -->
<g id="edge2" class="edge"><title>Node8&#45;&gt;Node9</title>
<path fill="none" stroke="midnightblue" d="M141.632,-16C133.135,-16 124.483,-16 116.135,-16"/>
<polygon fill="midnightblue" stroke="midnightblue" points="141.89,-19.5001 151.89,-16 141.89,-12.5001 141.89,-19.5001"/>
</g>
</g>
</svg>
