<?xml version="1.0" encoding="UTF-8" standalone="no"?>
<!DOCTYPE svg PUBLIC "-//W3C//DTD SVG 1.1//EN"
 "http://www.w3.org/Graphics/SVG/1.1/DTD/svg11.dtd">
<!-- Generated by graphviz version 2.30.1 (20130221.2233)
 -->
<!-- Title: ChibiOS::RCOutput::enable_px4io_sbus_out Pages: 1 -->
<svg width="270pt" height="40pt"
 viewBox="0.00 0.00 270.00 40.00" xmlns="http://www.w3.org/2000/svg" xmlns:xlink="http://www.w3.org/1999/xlink">
<g id="graph0" class="graph" transform="scale(1 1) rotate(0) translate(4 36)">
<title>ChibiOS::RCOutput::enable_px4io_sbus_out</title>
<polygon fill="white" stroke="white" points="-4,5 -4,-36 267,-36 267,5 -4,5"/>
<!-- Node83 -->
<g id="node1" class="node"><title>Node83</title>
<g id="a_node1"><a xlink:title=" ">
<polygon fill="#bfbfbf" stroke="black" points="0.177734,-0 0.177734,-32 121.822,-32 121.822,-0 0.177734,-0"/>
<text text-anchor="start" x="8.17773" y="-18" font-family="Helvetica,sans-Serif" font-size="10.00">ChibiOS::RCOutput::</text>
<text text-anchor="middle" x="61" y="-6" font-family="Helvetica,sans-Serif" font-size="10.00">enable_px4io_sbus_out</text>
</a>
</g>
</g>
<!-- Node84 -->
<g id="node2" class="node"><title>Node84</title>
<g id="a_node2"><a xlink:href="classAP__BoardConfig.html#a88fafdbccbeac097961a7cf64993530f" target="_top" xlink:title=" ">
<polygon fill="white" stroke="black" points="158.084,-0 158.084,-32 261.916,-32 261.916,-0 158.084,-0"/>
<text text-anchor="start" x="166.084" y="-18" font-family="Helvetica,sans-Serif" font-size="10.00">AP_BoardConfig::io</text>
<text text-anchor="middle" x="210" y="-6" font-family="Helvetica,sans-Serif" font-size="10.00">_enabled</text>
</a>
</g>
</g>
<!-- Node83&#45;&gt;Node84 -->
<g id="edge1" class="edge"><title>Node83&#45;&gt;Node84</title>
<path fill="none" stroke="midnightblue" d="M122.215,-16C130.67,-16 139.368,-16 147.841,-16"/>
<polygon fill="midnightblue" stroke="midnightblue" points="148.033,-19.5001 158.033,-16 148.033,-12.5001 148.033,-19.5001"/>
</g>
</g>
</svg>
