<?xml version="1.0" encoding="UTF-8" standalone="no"?>
<!DOCTYPE svg PUBLIC "-//W3C//DTD SVG 1.1//EN"
 "http://www.w3.org/Graphics/SVG/1.1/DTD/svg11.dtd">
<!-- Generated by graphviz version 2.30.1 (20130221.2233)
 -->
<!-- Title: AP_Navigation::bearing_error_cd Pages: 1 -->
<svg width="450pt" height="40pt"
 viewBox="0.00 0.00 450.00 40.00" xmlns="http://www.w3.org/2000/svg" xmlns:xlink="http://www.w3.org/1999/xlink">
<g id="graph0" class="graph" transform="scale(1 1) rotate(0) translate(4 36)">
<title>AP_Navigation::bearing_error_cd</title>
<polygon fill="white" stroke="white" points="-4,5 -4,-36 447,-36 447,5 -4,5"/>
<!-- Node1 -->
<g id="node1" class="node"><title>Node1</title>
<g id="a_node1"><a xlink:title=" ">
<polygon fill="#bfbfbf" stroke="black" points="320.466,-0 320.466,-32 441.534,-32 441.534,-0 320.466,-0"/>
<text text-anchor="start" x="328.466" y="-18" font-family="Helvetica,sans-Serif" font-size="10.00">AP_Navigation::bearing</text>
<text text-anchor="middle" x="381" y="-6" font-family="Helvetica,sans-Serif" font-size="10.00">_error_cd</text>
</a>
</g>
</g>
<!-- Node2 -->
<g id="node2" class="node"><title>Node2</title>
<g id="a_node2"><a xlink:href="classAP__Landing.html#a7e884642791e4b1f0b9c396b86055a6a" target="_top" xlink:title=" ">
<polygon fill="white" stroke="black" points="159.791,-0 159.791,-32 284.209,-32 284.209,-0 159.791,-0"/>
<text text-anchor="start" x="167.791" y="-18" font-family="Helvetica,sans-Serif" font-size="10.00">AP_Landing::type_slope</text>
<text text-anchor="middle" x="222" y="-6" font-family="Helvetica,sans-Serif" font-size="10.00">_verify_land</text>
</a>
</g>
</g>
<!-- Node1&#45;&gt;Node2 -->
<g id="edge1" class="edge"><title>Node1&#45;&gt;Node2</title>
<path fill="none" stroke="midnightblue" d="M309.932,-16C301.44,-16 292.815,-16 284.46,-16"/>
<polygon fill="midnightblue" stroke="midnightblue" points="310.197,-19.5001 320.197,-16 310.197,-12.5001 310.197,-19.5001"/>
</g>
<!-- Node3 -->
<g id="node3" class="node"><title>Node3</title>
<g id="a_node3"><a xlink:href="classAP__Landing.html#afdbc34de818b9cb366336c23660fd495" target="_top" xlink:title=" ">
<polygon fill="white" stroke="black" points="-0.204102,-6 -0.204102,-26 124.204,-26 124.204,-6 -0.204102,-6"/>
<text text-anchor="middle" x="62" y="-12" font-family="Helvetica,sans-Serif" font-size="10.00">AP_Landing::verify_land</text>
</a>
</g>
</g>
<!-- Node2&#45;&gt;Node3 -->
<g id="edge2" class="edge"><title>Node2&#45;&gt;Node3</title>
<path fill="none" stroke="midnightblue" d="M149.362,-16C141.016,-16 132.561,-16 124.371,-16"/>
<polygon fill="midnightblue" stroke="midnightblue" points="149.461,-19.5001 159.461,-16 149.461,-12.5001 149.461,-19.5001"/>
</g>
</g>
</svg>
