<?xml version="1.0" encoding="UTF-8" standalone="no"?>
<!DOCTYPE svg PUBLIC "-//W3C//DTD SVG 1.1//EN"
 "http://www.w3.org/Graphics/SVG/1.1/DTD/svg11.dtd">
<!-- Generated by graphviz version 2.30.1 (20130221.2233)
 -->
<!-- Title: AP_Baro_ICM20789::init Pages: 1 -->
<svg width="496pt" height="28pt"
 viewBox="0.00 0.00 496.00 28.00" xmlns="http://www.w3.org/2000/svg" xmlns:xlink="http://www.w3.org/1999/xlink">
<g id="graph0" class="graph" transform="scale(1 1) rotate(0) translate(4 24)">
<title>AP_Baro_ICM20789::init</title>
<polygon fill="white" stroke="white" points="-4,5 -4,-24 493,-24 493,5 -4,5"/>
<!-- Node106 -->
<g id="node1" class="node"><title>Node106</title>
<g id="a_node1"><a xlink:title=" ">
<polygon fill="#bfbfbf" stroke="black" points="361.968,-0 361.968,-20 488.032,-20 488.032,-0 361.968,-0"/>
<text text-anchor="middle" x="425" y="-6" font-family="Helvetica,sans-Serif" font-size="10.00">AP_Baro_ICM20789::init</text>
</a>
</g>
</g>
<!-- Node107 -->
<g id="node2" class="node"><title>Node107</title>
<g id="a_node2"><a xlink:href="classAP__Baro__ICM20789.html#a2e0e725561f9b022d67f24f025433395" target="_top" xlink:title=" ">
<polygon fill="white" stroke="black" points="186.572,-0 186.572,-20 325.428,-20 325.428,-0 186.572,-0"/>
<text text-anchor="middle" x="256" y="-6" font-family="Helvetica,sans-Serif" font-size="10.00">AP_Baro_ICM20789::probe</text>
</a>
</g>
</g>
<!-- Node106&#45;&gt;Node107 -->
<g id="edge1" class="edge"><title>Node106&#45;&gt;Node107</title>
<path fill="none" stroke="midnightblue" d="M351.757,-10C343.105,-10 334.289,-10 325.69,-10"/>
<polygon fill="midnightblue" stroke="midnightblue" points="351.815,-13.5001 361.815,-10 351.815,-6.5001 351.815,-13.5001"/>
</g>
<!-- Node108 -->
<g id="node3" class="node"><title>Node108</title>
<g id="a_node3"><a xlink:href="classAP__Baro.html#a942db790233528bfbb4d9a07c3454360" target="_top" xlink:title=" ">
<polygon fill="white" stroke="black" points="75.8179,-0 75.8179,-20 150.182,-20 150.182,-0 75.8179,-0"/>
<text text-anchor="middle" x="113" y="-6" font-family="Helvetica,sans-Serif" font-size="10.00">AP_Baro::init</text>
</a>
</g>
</g>
<!-- Node107&#45;&gt;Node108 -->
<g id="edge2" class="edge"><title>Node107&#45;&gt;Node108</title>
<path fill="none" stroke="midnightblue" d="M176.333,-10C167.309,-10 158.467,-10 150.407,-10"/>
<polygon fill="midnightblue" stroke="midnightblue" points="176.565,-13.5001 186.565,-10 176.565,-6.5001 176.565,-13.5001"/>
</g>
<!-- Node109 -->
<g id="node4" class="node"><title>Node109</title>
<g id="a_node4"><a xlink:href="BARO__generic_8cpp.html#a4fc01d736fe50cf5b977f755b675f11d" target="_top" xlink:title=" ">
<polygon fill="white" stroke="black" points="-0.231445,-0 -0.231445,-20 40.2314,-20 40.2314,-0 -0.231445,-0"/>
<text text-anchor="middle" x="20" y="-6" font-family="Helvetica,sans-Serif" font-size="10.00">setup</text>
</a>
</g>
</g>
<!-- Node108&#45;&gt;Node109 -->
<g id="edge3" class="edge"><title>Node108&#45;&gt;Node109</title>
<path fill="none" stroke="midnightblue" d="M65.7215,-10C56.7685,-10 47.8556,-10 40.3701,-10"/>
<polygon fill="midnightblue" stroke="midnightblue" points="65.773,-13.5001 75.7729,-10 65.7729,-6.5001 65.773,-13.5001"/>
</g>
</g>
</svg>
