<?xml version="1.0" encoding="UTF-8" standalone="no"?>
<!DOCTYPE svg PUBLIC "-//W3C//DTD SVG 1.1//EN"
 "http://www.w3.org/Graphics/SVG/1.1/DTD/svg11.dtd">
<!-- Generated by graphviz version 2.30.1 (20130221.2233)
 -->
<!-- Title: AP_RangeFinder_Backend::status Pages: 1 -->
<!--zoomable 199 -->
<svg id="main" version="1.1" xmlns="http://www.w3.org/2000/svg" xmlns:xlink="http://www.w3.org/1999/xlink" xml:space="preserve" onload="init(evt)">
<style type="text/css"><![CDATA[
.edge:hover path { stroke: red; }
.edge:hover polygon { stroke: red; fill: red; }
]]></style>
<script type="text/javascript"><![CDATA[
var edges = document.getElementsByTagName('g');
if (edges && edges.length) {
  for (var i=0;i<edges.length;i++) {
    if (edges[i].id.substr(0,4)=='edge') {
      edges[i].setAttribute('class','edge');
    }
  }
}
]]></script>
        <defs>
                <circle id="rim" cx="0" cy="0" r="7"/>
                <circle id="rim2" cx="0" cy="0" r="3.5"/>
                <g id="zoomPlus">
                        <use xlink:href="#rim" fill="#404040">
                                <set attributeName="fill" to="#808080" begin="zoomplus.mouseover" end="zoomplus.mouseout"/>
                        </use>
                        <path d="M-4,0h8M0,-4v8" fill="none" stroke="white" stroke-width="1.5" pointer-events="none"/>
                </g>
                <g id="zoomMin">
                        <use xlink:href="#rim" fill="#404040">
                                <set attributeName="fill" to="#808080" begin="zoomminus.mouseover" end="zoomminus.mouseout"/>
                        </use>
                        <path d="M-4,0h8" fill="none" stroke="white" stroke-width="1.5" pointer-events="none"/>
                </g>
                <g id="dirArrow">
                        <path fill="none" stroke="white" stroke-width="1.5" d="M0,-3.0v7 M-2.5,-0.5L0,-3.0L2.5,-0.5"/>
                </g>
               <g id="resetDef">
                       <use xlink:href="#rim2" fill="#404040">
                               <set attributeName="fill" to="#808080" begin="reset.mouseover" end="reset.mouseout"/>
                       </use>
               </g>
        </defs>

<script type="text/javascript">
var viewWidth = 1508;
var viewHeight = 199;
var sectionId = 'dynsection-16';
</script>
<script xlink:href="svgpan.js"/>
<svg id="graph" class="graph">
<g id="viewport">
<title>AP_RangeFinder_Backend::status</title>
<polygon fill="white" stroke="white" points="-4,5 -4,-195 1505,-195 1505,5 -4,5"/>
<!-- Node248 -->
<g id="node1" class="node"><title>Node248</title>
<g id="a_node1"><a xlink:title=" ">
<polygon fill="#bfbfbf" stroke="black" points="1362.4,-84 1362.4,-116 1499.6,-116 1499.6,-84 1362.4,-84"/>
<text text-anchor="start" x="1370.4" y="-102" font-family="Helvetica,sans-Serif" font-size="10.00">AP_RangeFinder_Backend</text>
<text text-anchor="middle" x="1431" y="-90" font-family="Helvetica,sans-Serif" font-size="10.00">::status</text>
</a>
</g>
</g>
<!-- Node249 -->
<g id="node2" class="node"><title>Node249</title>
<g id="a_node2"><a xlink:href="classRangeFinder.html#aef7dcb081e0f52a55f0ba6c6d43f286e" target="_top" xlink:title=" ">
<polygon fill="white" stroke="black" points="1177.31,-171 1177.31,-191 1306.69,-191 1306.69,-171 1177.31,-171"/>
<text text-anchor="middle" x="1242" y="-177" font-family="Helvetica,sans-Serif" font-size="10.00">RangeFinder::Log_RFND</text>
</a>
</g>
</g>
<!-- Node248&#45;&gt;Node249 -->
<g id="edge1" class="edge"><title>Node248&#45;&gt;Node249</title>
<path fill="none" stroke="midnightblue" d="M1395.12,-121.066C1375.33,-132.434 1349.82,-146.119 1326,-156 1312.1,-161.767 1296.39,-166.843 1282.41,-170.888"/>
<polygon fill="midnightblue" stroke="midnightblue" points="1396.9,-124.08 1403.79,-116.028 1393.38,-118.028 1396.9,-124.08"/>
</g>
<!-- Node251 -->
<g id="node4" class="node"><title>Node251</title>
<g id="a_node4"><a xlink:href="RFIND__test_8cpp.html#afe461d27b9c48d5921c00d521181f12f" target="_top" xlink:title=" ">
<polygon fill="white" stroke="black" points="850.547,-151 850.547,-171 885.453,-171 885.453,-151 850.547,-151"/>
<text text-anchor="middle" x="868" y="-157" font-family="Helvetica,sans-Serif" font-size="10.00">loop</text>
</a>
</g>
</g>
<!-- Node248&#45;&gt;Node251 -->
<g id="edge4" class="edge"><title>Node248&#45;&gt;Node251</title>
<path fill="none" stroke="midnightblue" d="M1352.24,-114.985C1343.41,-116.455 1334.52,-117.832 1326,-119 1154.71,-142.471 945.445,-156.329 885.661,-160.007"/>
<polygon fill="midnightblue" stroke="midnightblue" points="1352.9,-118.423 1362.17,-113.291 1351.72,-111.523 1352.9,-118.423"/>
</g>
<!-- Node252 -->
<g id="node5" class="node"><title>Node252</title>
<g id="a_node5"><a xlink:href="classNavEKF2__core.html#a0c78437556b4a6020c91db03541e7228" target="_top" xlink:title=" ">
<polygon fill="white" stroke="black" points="1158.4,-90 1158.4,-110 1325.6,-110 1325.6,-90 1158.4,-90"/>
<text text-anchor="middle" x="1242" y="-96" font-family="Helvetica,sans-Serif" font-size="10.00">NavEKF2_core::readRangeFinder</text>
</a>
</g>
</g>
<!-- Node248&#45;&gt;Node252 -->
<g id="edge5" class="edge"><title>Node248&#45;&gt;Node252</title>
<path fill="none" stroke="midnightblue" d="M1352.14,-100C1343.45,-100 1334.59,-100 1325.85,-100"/>
<polygon fill="midnightblue" stroke="midnightblue" points="1352.22,-103.5 1362.22,-100 1352.22,-96.5001 1352.22,-103.5"/>
</g>
<!-- Node260 -->
<g id="node13" class="node"><title>Node260</title>
<g id="a_node13"><a xlink:href="classNavEKF3__core.html#aaaa48f79caab8e511134d29d53f9b5d9" target="_top" xlink:title=" ">
<polygon fill="white" stroke="black" points="1158.4,-51 1158.4,-71 1325.6,-71 1325.6,-51 1158.4,-51"/>
<text text-anchor="middle" x="1242" y="-57" font-family="Helvetica,sans-Serif" font-size="10.00">NavEKF3_core::readRangeFinder</text>
</a>
</g>
</g>
<!-- Node248&#45;&gt;Node260 -->
<g id="edge13" class="edge"><title>Node248&#45;&gt;Node260</title>
<path fill="none" stroke="midnightblue" d="M1352.18,-83.7705C1331.51,-79.4601 1309.79,-74.9304 1291.22,-71.0562"/>
<polygon fill="midnightblue" stroke="midnightblue" points="1351.72,-87.2495 1362.22,-85.865 1353.15,-80.397 1351.72,-87.2495"/>
</g>
<!-- Node266 -->
<g id="node19" class="node"><title>Node266</title>
<g id="a_node19"><a xlink:href="classRangeFinder.html#aadd670d311e72099f69e0916629f29a9" target="_top" xlink:title=" ">
<polygon fill="white" stroke="black" points="1188.98,-0 1188.98,-32 1295.02,-32 1295.02,-0 1188.98,-0"/>
<text text-anchor="start" x="1196.98" y="-18" font-family="Helvetica,sans-Serif" font-size="10.00">RangeFinder::status</text>
<text text-anchor="middle" x="1242" y="-6" font-family="Helvetica,sans-Serif" font-size="10.00">_orient</text>
</a>
</g>
</g>
<!-- Node248&#45;&gt;Node266 -->
<g id="edge20" class="edge"><title>Node248&#45;&gt;Node266</title>
<path fill="none" stroke="midnightblue" d="M1395.99,-78.695C1376.1,-66.836 1350.21,-52.4118 1326,-42 1316.29,-37.824 1305.68,-33.9878 1295.4,-30.6178"/>
<polygon fill="midnightblue" stroke="midnightblue" points="1394.31,-81.7687 1404.68,-83.9395 1397.92,-75.7756 1394.31,-81.7687"/>
</g>
<!-- Node250 -->
<g id="node3" class="node"><title>Node250</title>
<g id="a_node3"><a xlink:href="classRangeFinder.html#a37112967f0252ed7c3fdc42f840761c7" target="_top" xlink:title=" ">
<polygon fill="white" stroke="black" points="995.022,-171 995.022,-191 1104.98,-191 1104.98,-171 995.022,-171"/>
<text text-anchor="middle" x="1050" y="-177" font-family="Helvetica,sans-Serif" font-size="10.00">RangeFinder::update</text>
</a>
</g>
</g>
<!-- Node249&#45;&gt;Node250 -->
<g id="edge2" class="edge"><title>Node249&#45;&gt;Node250</title>
<path fill="none" stroke="midnightblue" d="M1167.18,-181C1146.51,-181 1124.42,-181 1105.11,-181"/>
<polygon fill="midnightblue" stroke="midnightblue" points="1167.2,-184.5 1177.2,-181 1167.2,-177.5 1167.2,-184.5"/>
</g>
<!-- Node250&#45;&gt;Node251 -->
<g id="edge3" class="edge"><title>Node250&#45;&gt;Node251</title>
<path fill="none" stroke="midnightblue" d="M984.672,-173.852C949.164,-169.907 907.836,-165.315 885.453,-162.828"/>
<polygon fill="midnightblue" stroke="midnightblue" points="984.669,-177.374 994.994,-174.999 985.442,-170.416 984.669,-177.374"/>
</g>
<!-- Node253 -->
<g id="node6" class="node"><title>Node253</title>
<g id="a_node6"><a xlink:href="classNavEKF2__core.html#a862c5f00d982bd111047bd3a90d537fd" target="_top" xlink:title=" ">
<polygon fill="white" stroke="black" points="977.803,-81 977.803,-113 1122.2,-113 1122.2,-81 977.803,-81"/>
<text text-anchor="start" x="985.803" y="-99" font-family="Helvetica,sans-Serif" font-size="10.00">NavEKF2_core::selectHeight</text>
<text text-anchor="middle" x="1050" y="-87" font-family="Helvetica,sans-Serif" font-size="10.00">ForFusion</text>
</a>
</g>
</g>
<!-- Node252&#45;&gt;Node253 -->
<g id="edge6" class="edge"><title>Node252&#45;&gt;Node253</title>
<path fill="none" stroke="midnightblue" d="M1148.05,-98.5323C1139.36,-98.3951 1130.65,-98.2576 1122.21,-98.1243"/>
<polygon fill="midnightblue" stroke="midnightblue" points="1148.16,-102.034 1158.22,-98.6929 1148.27,-95.0353 1148.16,-102.034"/>
</g>
<!-- Node254 -->
<g id="node7" class="node"><title>Node254</title>
<g id="a_node7"><a xlink:href="classNavEKF2__core.html#aff31047fa71772bca7ce574617ede0f6" target="_top" xlink:title=" ">
<polygon fill="white" stroke="black" points="793.853,-81 793.853,-113 942.147,-113 942.147,-81 793.853,-81"/>
<text text-anchor="start" x="801.853" y="-99" font-family="Helvetica,sans-Serif" font-size="10.00">NavEKF2_core::SelectVelPos</text>
<text text-anchor="middle" x="868" y="-87" font-family="Helvetica,sans-Serif" font-size="10.00">Fusion</text>
</a>
</g>
</g>
<!-- Node253&#45;&gt;Node254 -->
<g id="edge7" class="edge"><title>Node253&#45;&gt;Node254</title>
<path fill="none" stroke="midnightblue" d="M967.469,-97C959.106,-97 950.645,-97 942.378,-97"/>
<polygon fill="midnightblue" stroke="midnightblue" points="967.601,-100.5 977.601,-97 967.601,-93.5001 967.601,-100.5"/>
</g>
<!-- Node255 -->
<g id="node8" class="node"><title>Node255</title>
<g id="a_node8"><a xlink:href="classNavEKF2__core.html#a5f5c815cbd5ebba30d731f89f87726c3" target="_top" xlink:title=" ">
<polygon fill="white" stroke="black" points="614.084,-86 614.084,-106 757.916,-106 757.916,-86 614.084,-86"/>
<text text-anchor="middle" x="686" y="-92" font-family="Helvetica,sans-Serif" font-size="10.00">NavEKF2_core::UpdateFilter</text>
</a>
</g>
</g>
<!-- Node254&#45;&gt;Node255 -->
<g id="edge8" class="edge"><title>Node254&#45;&gt;Node255</title>
<path fill="none" stroke="midnightblue" d="M783.775,-96.5376C775.197,-96.49 766.537,-96.4419 758.108,-96.395"/>
<polygon fill="midnightblue" stroke="midnightblue" points="783.768,-100.038 793.787,-96.5933 783.807,-93.0377 783.768,-100.038"/>
</g>
<!-- Node256 -->
<g id="node9" class="node"><title>Node256</title>
<g id="a_node9"><a xlink:href="classNavEKF2.html#a72815b1bbd9d7ceb0ff7ae52d14516df" target="_top" xlink:title=" ">
<polygon fill="white" stroke="black" points="458.591,-83 458.591,-103 577.409,-103 577.409,-83 458.591,-83"/>
<text text-anchor="middle" x="518" y="-89" font-family="Helvetica,sans-Serif" font-size="10.00">NavEKF2::UpdateFilter</text>
</a>
</g>
</g>
<!-- Node255&#45;&gt;Node256 -->
<g id="edge9" class="edge"><title>Node255&#45;&gt;Node256</title>
<path fill="none" stroke="midnightblue" d="M603.424,-94.5257C594.696,-94.368 585.946,-94.2099 577.562,-94.0583"/>
<polygon fill="midnightblue" stroke="midnightblue" points="603.576,-98.029 613.638,-94.7103 603.703,-91.0301 603.576,-98.029"/>
</g>
<!-- Node257 -->
<g id="node10" class="node"><title>Node257</title>
<g id="a_node10"><a xlink:href="classAP__AHRS__NavEKF.html#a0187c6d3d4348b002a204c05d3e94b07" target="_top" xlink:title=" ">
<polygon fill="white" stroke="black" points="249.904,-82 249.904,-102 422.096,-102 422.096,-82 249.904,-82"/>
<text text-anchor="middle" x="336" y="-88" font-family="Helvetica,sans-Serif" font-size="10.00">AP_AHRS_NavEKF::update_EKF2</text>
</a>
</g>
</g>
<!-- Node256&#45;&gt;Node257 -->
<g id="edge10" class="edge"><title>Node256&#45;&gt;Node257</title>
<path fill="none" stroke="midnightblue" d="M448.321,-92.6185C439.8,-92.5711 431.008,-92.5223 422.275,-92.4738"/>
<polygon fill="midnightblue" stroke="midnightblue" points="448.54,-96.1196 458.559,-92.6753 448.579,-89.1197 448.54,-96.1196"/>
</g>
<!-- Node258 -->
<g id="node11" class="node"><title>Node258</title>
<g id="a_node11"><a xlink:href="classAP__AHRS__NavEKF.html#ac8111979c5dc37a55b2c50818534ea52" target="_top" xlink:title=" ">
<polygon fill="white" stroke="black" points="72.1899,-62 72.1899,-82 213.81,-82 213.81,-62 72.1899,-62"/>
<text text-anchor="middle" x="143" y="-68" font-family="Helvetica,sans-Serif" font-size="10.00">AP_AHRS_NavEKF::update</text>
</a>
</g>
</g>
<!-- Node257&#45;&gt;Node258 -->
<g id="edge11" class="edge"><title>Node257&#45;&gt;Node258</title>
<path fill="none" stroke="midnightblue" d="M239.643,-82.0149C230.946,-81.1042 222.247,-80.1934 213.835,-79.3126"/>
<polygon fill="midnightblue" stroke="midnightblue" points="239.524,-85.5216 249.834,-83.0821 240.253,-78.5596 239.524,-85.5216"/>
</g>
<!-- Node259 -->
<g id="node12" class="node"><title>Node259</title>
<g id="a_node12"><a xlink:href="AHRS__Test_8cpp.html#afe461d27b9c48d5921c00d521181f12f" target="_top" xlink:title=" ">
<polygon fill="white" stroke="black" points="0.546875,-62 0.546875,-82 35.4531,-82 35.4531,-62 0.546875,-62"/>
<text text-anchor="middle" x="18" y="-68" font-family="Helvetica,sans-Serif" font-size="10.00">loop</text>
</a>
</g>
</g>
<!-- Node258&#45;&gt;Node259 -->
<g id="edge12" class="edge"><title>Node258&#45;&gt;Node259</title>
<path fill="none" stroke="midnightblue" d="M61.8306,-72C51.9771,-72 42.8299,-72 35.5404,-72"/>
<polygon fill="midnightblue" stroke="midnightblue" points="61.8769,-75.5001 71.8769,-72 61.8769,-68.5001 61.8769,-75.5001"/>
</g>
<!-- Node261 -->
<g id="node14" class="node"><title>Node261</title>
<g id="a_node14"><a xlink:href="classNavEKF3__core.html#a01fae89d7fa75988df64635fc572039f" target="_top" xlink:title=" ">
<polygon fill="white" stroke="black" points="977.803,-30 977.803,-62 1122.2,-62 1122.2,-30 977.803,-30"/>
<text text-anchor="start" x="985.803" y="-48" font-family="Helvetica,sans-Serif" font-size="10.00">NavEKF3_core::selectHeight</text>
<text text-anchor="middle" x="1050" y="-36" font-family="Helvetica,sans-Serif" font-size="10.00">ForFusion</text>
</a>
</g>
</g>
<!-- Node260&#45;&gt;Node261 -->
<g id="edge14" class="edge"><title>Node260&#45;&gt;Node261</title>
<path fill="none" stroke="midnightblue" d="M1148.05,-53.6615C1139.36,-52.9756 1130.65,-52.288 1122.21,-51.6215"/>
<polygon fill="midnightblue" stroke="midnightblue" points="1147.97,-57.1664 1158.22,-54.4644 1148.52,-50.1882 1147.97,-57.1664"/>
</g>
<!-- Node262 -->
<g id="node15" class="node"><title>Node262</title>
<g id="a_node15"><a xlink:href="classNavEKF3__core.html#a8f4723dabc873f7112948a18b290fb01" target="_top" xlink:title=" ">
<polygon fill="white" stroke="black" points="793.853,-30 793.853,-62 942.147,-62 942.147,-30 793.853,-30"/>
<text text-anchor="start" x="801.853" y="-48" font-family="Helvetica,sans-Serif" font-size="10.00">NavEKF3_core::SelectVelPos</text>
<text text-anchor="middle" x="868" y="-36" font-family="Helvetica,sans-Serif" font-size="10.00">Fusion</text>
</a>
</g>
</g>
<!-- Node261&#45;&gt;Node262 -->
<g id="edge15" class="edge"><title>Node261&#45;&gt;Node262</title>
<path fill="none" stroke="midnightblue" d="M967.469,-46C959.106,-46 950.645,-46 942.378,-46"/>
<polygon fill="midnightblue" stroke="midnightblue" points="967.601,-49.5001 977.601,-46 967.601,-42.5001 967.601,-49.5001"/>
</g>
<!-- Node263 -->
<g id="node16" class="node"><title>Node263</title>
<g id="a_node16"><a xlink:href="classNavEKF3__core.html#a2a7fae9e0bf2ce6fc2f9b3918dc168d3" target="_top" xlink:title=" ">
<polygon fill="white" stroke="black" points="614.084,-42 614.084,-62 757.916,-62 757.916,-42 614.084,-42"/>
<text text-anchor="middle" x="686" y="-48" font-family="Helvetica,sans-Serif" font-size="10.00">NavEKF3_core::UpdateFilter</text>
</a>
</g>
</g>
<!-- Node262&#45;&gt;Node263 -->
<g id="edge16" class="edge"><title>Node262&#45;&gt;Node263</title>
<path fill="none" stroke="midnightblue" d="M783.775,-48.7742C775.197,-49.0601 766.537,-49.3488 758.108,-49.6297"/>
<polygon fill="midnightblue" stroke="midnightblue" points="783.909,-52.2717 793.787,-48.4404 783.676,-45.2756 783.909,-52.2717"/>
</g>
<!-- Node264 -->
<g id="node17" class="node"><title>Node264</title>
<g id="a_node17"><a xlink:href="classNavEKF3.html#a477020fcf29376e0c2205dbf79728104" target="_top" xlink:title=" ">
<polygon fill="white" stroke="black" points="458.591,-43 458.591,-63 577.409,-63 577.409,-43 458.591,-43"/>
<text text-anchor="middle" x="518" y="-49" font-family="Helvetica,sans-Serif" font-size="10.00">NavEKF3::UpdateFilter</text>
</a>
</g>
</g>
<!-- Node263&#45;&gt;Node264 -->
<g id="edge17" class="edge"><title>Node263&#45;&gt;Node264</title>
<path fill="none" stroke="midnightblue" d="M603.424,-52.4914C594.696,-52.544 585.946,-52.5967 577.562,-52.6472"/>
<polygon fill="midnightblue" stroke="midnightblue" points="603.659,-55.9902 613.638,-52.4299 603.617,-48.9903 603.659,-55.9902"/>
</g>
<!-- Node265 -->
<g id="node18" class="node"><title>Node265</title>
<g id="a_node18"><a xlink:href="classAP__AHRS__NavEKF.html#a324160404f12959e955554f5aed26459" target="_top" xlink:title=" ">
<polygon fill="white" stroke="black" points="249.904,-43 249.904,-63 422.096,-63 422.096,-43 249.904,-43"/>
<text text-anchor="middle" x="336" y="-49" font-family="Helvetica,sans-Serif" font-size="10.00">AP_AHRS_NavEKF::update_EKF3</text>
</a>
</g>
</g>
<!-- Node264&#45;&gt;Node265 -->
<g id="edge18" class="edge"><title>Node264&#45;&gt;Node265</title>
<path fill="none" stroke="midnightblue" d="M448.321,-53C439.8,-53 431.008,-53 422.275,-53"/>
<polygon fill="midnightblue" stroke="midnightblue" points="448.559,-56.5001 458.559,-53 448.559,-49.5001 448.559,-56.5001"/>
</g>
<!-- Node265&#45;&gt;Node258 -->
<g id="edge19" class="edge"><title>Node265&#45;&gt;Node258</title>
<path fill="none" stroke="midnightblue" d="M239.643,-62.4858C230.946,-63.351 222.247,-64.2163 213.835,-65.053"/>
<polygon fill="midnightblue" stroke="midnightblue" points="240.23,-65.9448 249.834,-61.472 239.537,-58.9792 240.23,-65.9448"/>
</g>
</g>
</svg>
        <g id="navigator" transform="translate(0 0)" fill="#404254">
                <rect fill="#f2f5e9" fill-opacity="0.5" stroke="#606060" stroke-width=".5" x="0" y="0" width="60" height="60"/>
                <use id="zoomplus" xlink:href="#zoomPlus" x="17" y="9" onmousedown="handleZoom(evt,'in')"/>
                <use id="zoomminus" xlink:href="#zoomMin" x="42" y="9" onmousedown="handleZoom(evt,'out')"/>
                <use id="reset" xlink:href="#resetDef" x="30" y="36" onmousedown="handleReset()"/>
                <g id="arrowUp" xlink:href="#dirArrow" transform="translate(30 24)" onmousedown="handlePan(0,-1)">
                  <use xlink:href="#rim" fill="#404040">
                        <set attributeName="fill" to="#808080" begin="arrowUp.mouseover" end="arrowUp.mouseout"/>
                  </use>
                  <path fill="none" stroke="white" stroke-width="1.5" d="M0,-3.0v7 M-2.5,-0.5L0,-3.0L2.5,-0.5"/>
                </g>
                <g id="arrowRight" xlink:href="#dirArrow" transform="rotate(90) translate(36 -43)" onmousedown="handlePan(1,0)">
                  <use xlink:href="#rim" fill="#404040">
                        <set attributeName="fill" to="#808080" begin="arrowRight.mouseover" end="arrowRight.mouseout"/>
                  </use>
                  <path fill="none" stroke="white" stroke-width="1.5" d="M0,-3.0v7 M-2.5,-0.5L0,-3.0L2.5,-0.5"/>
                </g>
                <g id="arrowDown" xlink:href="#dirArrow" transform="rotate(180) translate(-30 -48)" onmousedown="handlePan(0,1)">
                  <use xlink:href="#rim" fill="#404040">
                        <set attributeName="fill" to="#808080" begin="arrowDown.mouseover" end="arrowDown.mouseout"/>
                  </use>
                  <path fill="none" stroke="white" stroke-width="1.5" d="M0,-3.0v7 M-2.5,-0.5L0,-3.0L2.5,-0.5"/>
                </g>
                <g id="arrowLeft" xlink:href="#dirArrow" transform="rotate(270) translate(-36 17)" onmousedown="handlePan(-1,0)">
                  <use xlink:href="#rim" fill="#404040">
                        <set attributeName="fill" to="#808080" begin="arrowLeft.mouseover" end="arrowLeft.mouseout"/>
                  </use>
                  <path fill="none" stroke="white" stroke-width="1.5" d="M0,-3.0v7 M-2.5,-0.5L0,-3.0L2.5,-0.5"/>
                </g>
        </g>
        <svg viewBox="0 0 15 15" width="100%" height="30px" preserveAspectRatio="xMaxYMin meet">
         <g id="arrow_out" transform="scale(0.3 0.3)">
          <a xlink:href="classAP__RangeFinder__Backend_abe0cc6a4e1517f3bb28363a2b4b65bbc_icgraph_org.svg" target="_base">
           <rect id="button" ry="5" rx="5" y="6" x="6" height="38" width="38"
                fill="#f2f5e9" fill-opacity="0.5" stroke="#606060" stroke-width="1.0"/>
           <path id="arrow"
             d="M 11.500037,31.436501 C 11.940474,20.09759 22.043105,11.32322 32.158766,21.979434 L 37.068811,17.246167 C 37.068811,17.246167 37.088388,32 37.088388,32 L 22.160133,31.978069 C 22.160133,31.978069 26.997745,27.140456 26.997745,27.140456 C 18.528582,18.264221 13.291696,25.230495 11.500037,31.436501 z"
             style="fill:#404040;"/>
          </a>
         </g>
        </svg>
</svg>
