<?xml version="1.0" encoding="UTF-8" standalone="no"?>
<!DOCTYPE svg PUBLIC "-//W3C//DTD SVG 1.1//EN"
 "http://www.w3.org/Graphics/SVG/1.1/DTD/svg11.dtd">
<!-- Generated by graphviz version 2.30.1 (20130221.2233)
 -->
<!-- Title: LoggerMessageWriter_WriteAllRallyPoints Pages: 1 -->
<svg width="1652pt" height="1014pt"
 viewBox="0.00 0.00 1652.00 1014.08" xmlns="http://www.w3.org/2000/svg" xmlns:xlink="http://www.w3.org/1999/xlink">
<g id="graph0" class="graph" transform="scale(1 1) rotate(0) translate(4 1010.08)">
<title>LoggerMessageWriter_WriteAllRallyPoints</title>
<polygon fill="white" stroke="white" points="-4,5 -4,-1010.08 1649,-1010.08 1649,5 -4,5"/>
<!-- Node2 -->
<g id="node1" class="node"><title>Node2</title>
<g id="a_node1"><a xlink:title=" ">
<polygon fill="#bfbfbf" stroke="black" points="551.901,-920.289 551.901,-952.289 666.099,-952.289 666.099,-920.289 551.901,-920.289"/>
<text text-anchor="start" x="559.901" y="-938.289" font-family="Helvetica,sans-Serif" font-size="10.00">LoggerMessageWriter</text>
<text text-anchor="middle" x="609" y="-926.289" font-family="Helvetica,sans-Serif" font-size="10.00">_WriteAllRallyPoints</text>
</a>
</g>
</g>
<!-- Node34 -->
<g id="node33" class="node"><title>Node34</title>
<g id="a_node33"><a xlink:href="classLoggerMessageWriter__DFLogStart.html" target="_top" xlink:title=" ">
<polygon fill="white" stroke="black" points="848.901,-891.289 848.901,-923.289 963.099,-923.289 963.099,-891.289 848.901,-891.289"/>
<text text-anchor="start" x="856.901" y="-909.289" font-family="Helvetica,sans-Serif" font-size="10.00">LoggerMessageWriter</text>
<text text-anchor="middle" x="906" y="-897.289" font-family="Helvetica,sans-Serif" font-size="10.00">_DFLogStart</text>
</a>
</g>
</g>
<!-- Node2&#45;&gt;Node34 -->
<g id="edge56" class="edge"><title>Node2&#45;&gt;Node34</title>
<path fill="none" stroke="#9a32cd" stroke-dasharray="5,2" d="M676.293,-929.772C728.211,-924.668 799.632,-917.647 848.777,-912.816"/>
<polygon fill="#9a32cd" stroke="#9a32cd" points="675.791,-926.304 666.182,-930.766 676.476,-933.27 675.791,-926.304"/>
<text text-anchor="middle" x="755" y="-930.289" font-family="Helvetica,sans-Serif" font-size="10.00"> _writeallrallypoints</text>
</g>
<!-- Node3 -->
<g id="node2" class="node"><title>Node3</title>
<g id="a_node2"><a xlink:href="classLoggerMessageWriter.html" target="_top" xlink:title=" ">
<polygon fill="white" stroke="black" points="1377.9,-935.289 1377.9,-955.289 1492.1,-955.289 1492.1,-935.289 1377.9,-935.289"/>
<text text-anchor="middle" x="1435" y="-941.289" font-family="Helvetica,sans-Serif" font-size="10.00">LoggerMessageWriter</text>
</a>
</g>
</g>
<!-- Node3&#45;&gt;Node2 -->
<g id="edge1" class="edge"><title>Node3&#45;&gt;Node2</title>
<path fill="none" stroke="midnightblue" d="M1417.36,-962.656C1403.46,-975.829 1382.36,-992.89 1360,-1000.29 1322.87,-1012.58 1311.11,-1000.43 1272,-1000.29 1148.44,-999.844 1117.13,-1008.61 994,-998.289 876.572,-988.444 740.812,-963.213 666.273,-948.146"/>
<polygon fill="midnightblue" stroke="midnightblue" points="1420.01,-964.964 1424.67,-955.452 1415.09,-959.979 1420.01,-964.964"/>
</g>
<!-- Node3&#45;&gt;Node34 -->
<g id="edge49" class="edge"><title>Node3&#45;&gt;Node34</title>
<path fill="none" stroke="midnightblue" d="M1367.41,-943.833C1281.07,-941.447 1125.93,-935.463 994,-921.289 984.113,-920.226 973.638,-918.801 963.511,-917.265"/>
<polygon fill="midnightblue" stroke="midnightblue" points="1367.5,-947.336 1377.59,-944.106 1367.68,-940.339 1367.5,-947.336"/>
</g>
<!-- Node35 -->
<g id="node34" class="node"><title>Node35</title>
<g id="a_node34"><a xlink:href="classLoggerMessageWriter__WriteSysInfo.html" target="_top" xlink:title=" ">
<polygon fill="white" stroke="black" points="1529.9,-942.289 1529.9,-974.289 1644.1,-974.289 1644.1,-942.289 1529.9,-942.289"/>
<text text-anchor="start" x="1537.9" y="-960.289" font-family="Helvetica,sans-Serif" font-size="10.00">LoggerMessageWriter</text>
<text text-anchor="middle" x="1587" y="-948.289" font-family="Helvetica,sans-Serif" font-size="10.00">_WriteSysInfo</text>
</a>
</g>
</g>
<!-- Node3&#45;&gt;Node35 -->
<g id="edge52" class="edge"><title>Node3&#45;&gt;Node35</title>
<path fill="none" stroke="midnightblue" d="M1502.37,-951.04C1511.39,-951.822 1520.58,-952.619 1529.4,-953.384"/>
<polygon fill="midnightblue" stroke="midnightblue" points="1502.55,-947.543 1492.28,-950.166 1501.94,-954.517 1502.55,-947.543"/>
</g>
<!-- Node36 -->
<g id="node35" class="node"><title>Node36</title>
<g id="a_node35"><a xlink:href="classLoggerMessageWriter__WriteEntireMission.html" target="_top" xlink:title=" ">
<polygon fill="white" stroke="black" points="1529.9,-891.289 1529.9,-923.289 1644.1,-923.289 1644.1,-891.289 1529.9,-891.289"/>
<text text-anchor="start" x="1537.9" y="-909.289" font-family="Helvetica,sans-Serif" font-size="10.00">LoggerMessageWriter</text>
<text text-anchor="middle" x="1587" y="-897.289" font-family="Helvetica,sans-Serif" font-size="10.00">_WriteEntireMission</text>
</a>
</g>
</g>
<!-- Node3&#45;&gt;Node36 -->
<g id="edge55" class="edge"><title>Node3&#45;&gt;Node36</title>
<path fill="none" stroke="midnightblue" d="M1485.77,-932.68C1499.83,-929.12 1515.22,-925.22 1529.63,-921.568"/>
<polygon fill="midnightblue" stroke="midnightblue" points="1484.64,-929.356 1475.8,-935.205 1486.36,-936.142 1484.64,-929.356"/>
</g>
<!-- Node4 -->
<g id="node3" class="node"><title>Node4</title>
<g id="a_node3"><a xlink:href="classAP__Logger__Backend.html" target="_top" xlink:title=" ">
<polygon fill="white" stroke="black" points="1132.74,-843.289 1132.74,-863.289 1243.26,-863.289 1243.26,-843.289 1132.74,-843.289"/>
<text text-anchor="middle" x="1188" y="-849.289" font-family="Helvetica,sans-Serif" font-size="10.00">AP_Logger_Backend</text>
</a>
</g>
</g>
<!-- Node4&#45;&gt;Node3 -->
<g id="edge2" class="edge"><title>Node4&#45;&gt;Node3</title>
<path fill="none" stroke="#9a32cd" stroke-dasharray="5,2" d="M1253.53,-851.118C1286.76,-852.355 1327.1,-857.636 1360,-873.289 1389.94,-887.535 1415.26,-918.792 1426.99,-935.033"/>
<polygon fill="#9a32cd" stroke="#9a32cd" points="1253.55,-847.617 1243.46,-850.856 1253.37,-854.615 1253.55,-847.617"/>
<text text-anchor="middle" x="1316" y="-875.289" font-family="Helvetica,sans-Serif" font-size="10.00"> _logger_backend</text>
</g>
<!-- Node5 -->
<g id="node4" class="node"><title>Node5</title>
<g id="a_node4"><a xlink:href="classAP__Logger.html" target="_top" xlink:title=" ">
<polygon fill="white" stroke="black" points="1401.98,-707.289 1401.98,-727.289 1468.02,-727.289 1468.02,-707.289 1401.98,-707.289"/>
<text text-anchor="middle" x="1435" y="-713.289" font-family="Helvetica,sans-Serif" font-size="10.00">AP_Logger</text>
</a>
</g>
</g>
<!-- Node4&#45;&gt;Node5 -->
<g id="edge43" class="edge"><title>Node4&#45;&gt;Node5</title>
<path fill="none" stroke="#9a32cd" stroke-dasharray="5,2" d="M1209.91,-837.044C1226.05,-825.244 1249.37,-809.745 1272,-800.289 1309.01,-784.822 1324.14,-798.252 1360,-780.289 1386.85,-766.838 1412.14,-741.634 1425.06,-727.524"/>
<polygon fill="#9a32cd" stroke="#9a32cd" points="1207.64,-834.367 1201.73,-843.158 1211.83,-839.973 1207.64,-834.367"/>
<text text-anchor="middle" x="1316" y="-802.289" font-family="Helvetica,sans-Serif" font-size="10.00"> backends</text>
</g>
<!-- Node5&#45;&gt;Node4 -->
<g id="edge3" class="edge"><title>Node5&#45;&gt;Node4</title>
<path fill="none" stroke="#9a32cd" stroke-dasharray="5,2" d="M1424.85,-736.456C1413.08,-758.964 1390.46,-795.705 1360,-815.289 1354.79,-818.639 1286.89,-833.129 1238.24,-843.214"/>
<polygon fill="#9a32cd" stroke="#9a32cd" points="1427.99,-738.007 1429.35,-727.5 1421.73,-734.862 1427.99,-738.007"/>
<text text-anchor="middle" x="1316" y="-837.289" font-family="Helvetica,sans-Serif" font-size="10.00"> _front</text>
</g>
<!-- Node5&#45;&gt;Node5 -->
<g id="edge4" class="edge"><title>Node5&#45;&gt;Node5</title>
<path fill="none" stroke="#9a32cd" stroke-dasharray="5,2" d="M1421.04,-737.21C1422.21,-741.862 1426.86,-745.289 1435,-745.289 1448.36,-745.289 1452.33,-736.06 1446.9,-727.336"/>
<polygon fill="#9a32cd" stroke="#9a32cd" points="1424.49,-737.84 1423.1,-727.336 1417.63,-736.411 1424.49,-737.84"/>
<text text-anchor="middle" x="1435" y="-747.289" font-family="Helvetica,sans-Serif" font-size="10.00"> _singleton</text>
</g>
<!-- Node6 -->
<g id="node5" class="node"><title>Node6</title>
<g id="a_node5"><a xlink:href="structGCS__MAVLINK.html" target="_top" xlink:title="MAVLink transport control class.">
<polygon fill="white" stroke="black" points="862.802,-432.289 862.802,-452.289 949.198,-452.289 949.198,-432.289 862.802,-432.289"/>
<text text-anchor="middle" x="906" y="-438.289" font-family="Helvetica,sans-Serif" font-size="10.00">GCS_MAVLINK</text>
</a>
</g>
</g>
<!-- Node6&#45;&gt;Node5 -->
<g id="edge5" class="edge"><title>Node6&#45;&gt;Node5</title>
<path fill="none" stroke="#9a32cd" stroke-dasharray="5,2" d="M959.372,-450.347C1050.29,-466.69 1239.16,-511.317 1360,-614.289 1392.68,-642.136 1418.51,-687.322 1428.96,-707.275"/>
<polygon fill="#9a32cd" stroke="#9a32cd" points="959.76,-446.861 949.306,-448.581 958.551,-453.756 959.76,-446.861"/>
<text text-anchor="middle" x="1188" y="-545.289" font-family="Helvetica,sans-Serif" font-size="10.00"> _log_sending_link</text>
</g>
<!-- Node7 -->
<g id="node6" class="node"><title>Node7</title>
<g id="a_node6"><a xlink:title=" ">
<polygon fill="white" stroke="#bfbfbf" points="560.148,-483.289 560.148,-503.289 657.852,-503.289 657.852,-483.289 560.148,-483.289"/>
<text text-anchor="middle" x="609" y="-489.289" font-family="Helvetica,sans-Serif" font-size="10.00">all_stream_entries</text>
</a>
</g>
</g>
<!-- Node7&#45;&gt;Node6 -->
<g id="edge6" class="edge"><title>Node7&#45;&gt;Node6</title>
<path fill="none" stroke="midnightblue" d="M668.318,-504.065C710.716,-509.665 769.017,-512.69 818,-498.289 848.503,-489.32 878.416,-465.983 893.973,-452.434"/>
<polygon fill="midnightblue" stroke="midnightblue" points="668.56,-500.565 658.169,-502.636 667.583,-507.497 668.56,-500.565"/>
</g>
<!-- Node8 -->
<g id="node7" class="node"><title>Node8</title>
<g id="a_node7"><a xlink:title=" ">
<polygon fill="white" stroke="#bfbfbf" points="583.212,-432.289 583.212,-452.289 634.788,-452.289 634.788,-432.289 583.212,-432.289"/>
<text text-anchor="middle" x="609" y="-438.289" font-family="Helvetica,sans-Serif" font-size="10.00">var_info</text>
</a>
</g>
</g>
<!-- Node8&#45;&gt;Node6 -->
<g id="edge7" class="edge"><title>Node8&#45;&gt;Node6</title>
<path fill="none" stroke="midnightblue" d="M624.189,-426.76C677.459,-400.807 864.268,-402.578 899.311,-432.073"/>
<polygon fill="midnightblue" stroke="midnightblue" points="622.245,-423.847 615.63,-432.123 625.962,-429.779 622.245,-423.847"/>
</g>
<!-- Node8&#45;&gt;Node6 -->
<g id="edge8" class="edge"><title>Node8&#45;&gt;Node6</title>
<path fill="none" stroke="midnightblue" d="M636.487,-430.088C696.017,-418.685 839.011,-419.397 888.112,-432.226"/>
<polygon fill="midnightblue" stroke="midnightblue" points="635.702,-426.678 626.706,-432.274 637.228,-433.509 635.702,-426.678"/>
</g>
<!-- Node8&#45;&gt;Node6 -->
<g id="edge9" class="edge"><title>Node8&#45;&gt;Node6</title>
<path fill="none" stroke="midnightblue" d="M645.091,-437.729C699.553,-434.927 804.233,-434.813 862.758,-437.389"/>
<polygon fill="midnightblue" stroke="midnightblue" points="644.676,-434.248 634.897,-438.326 645.085,-441.236 644.676,-434.248"/>
</g>
<!-- Node8&#45;&gt;Node6 -->
<g id="edge10" class="edge"><title>Node8&#45;&gt;Node6</title>
<path fill="none" stroke="midnightblue" d="M645.091,-446.848C699.553,-449.651 804.233,-449.764 862.758,-447.188"/>
<polygon fill="midnightblue" stroke="midnightblue" points="645.085,-443.342 634.897,-446.251 644.676,-450.33 645.085,-443.342"/>
</g>
<!-- Node8&#45;&gt;Node6 -->
<g id="edge11" class="edge"><title>Node8&#45;&gt;Node6</title>
<path fill="none" stroke="midnightblue" d="M636.487,-454.489C696.017,-465.892 839.011,-465.18 888.112,-452.351"/>
<polygon fill="midnightblue" stroke="midnightblue" points="637.228,-451.068 626.706,-452.304 635.702,-457.9 637.228,-451.068"/>
</g>
<!-- Node8&#45;&gt;Node6 -->
<g id="edge12" class="edge"><title>Node8&#45;&gt;Node6</title>
<path fill="none" stroke="midnightblue" d="M624.189,-457.818C677.459,-483.77 864.268,-481.999 899.311,-452.504"/>
<polygon fill="midnightblue" stroke="midnightblue" points="625.962,-454.798 615.63,-452.454 622.245,-460.73 625.962,-454.798"/>
</g>
<!-- Node9 -->
<g id="node8" class="node"><title>Node9</title>
<g id="a_node8"><a xlink:href="classStorageAccess.html" target="_top" xlink:title=" ">
<polygon fill="white" stroke="black" points="246.372,-593.289 246.372,-613.289 329.628,-613.289 329.628,-593.289 246.372,-593.289"/>
<text text-anchor="middle" x="288" y="-599.289" font-family="Helvetica,sans-Serif" font-size="10.00">StorageAccess</text>
</a>
</g>
</g>
<!-- Node9&#45;&gt;Node6 -->
<g id="edge13" class="edge"><title>Node9&#45;&gt;Node6</title>
<path fill="none" stroke="#9a32cd" stroke-dasharray="5,2" d="M340.022,-600.534C464.496,-593.493 776.602,-573.802 818,-551.289 860.541,-528.154 889.712,-474.639 900.439,-452.333"/>
<polygon fill="#9a32cd" stroke="#9a32cd" points="339.768,-597.042 329.98,-601.097 340.16,-604.031 339.768,-597.042"/>
<text text-anchor="middle" x="609" y="-589.289" font-family="Helvetica,sans-Serif" font-size="10.00"> _signing_storage</text>
</g>
<!-- Node21 -->
<g id="node20" class="node"><title>Node21</title>
<g id="a_node20"><a xlink:href="classAP__Param.html" target="_top" xlink:title=" ">
<polygon fill="white" stroke="black" points="576.823,-660.289 576.823,-680.289 641.177,-680.289 641.177,-660.289 576.823,-660.289"/>
<text text-anchor="middle" x="609" y="-666.289" font-family="Helvetica,sans-Serif" font-size="10.00">AP_Param</text>
</a>
</g>
</g>
<!-- Node9&#45;&gt;Node21 -->
<g id="edge27" class="edge"><title>Node9&#45;&gt;Node21</title>
<path fill="none" stroke="#9a32cd" stroke-dasharray="5,2" d="M340.031,-608.851C388.476,-614.844 463.039,-625.928 526,-643.289 534.275,-645.57 535.899,-647.451 544,-650.289 554.547,-653.983 566.184,-657.719 576.61,-660.946"/>
<polygon fill="#9a32cd" stroke="#9a32cd" points="340.153,-605.34 329.804,-607.613 339.312,-612.289 340.153,-605.34"/>
<text text-anchor="middle" x="451" y="-645.289" font-family="Helvetica,sans-Serif" font-size="10.00"> _storage</text>
</g>
<!-- Node10 -->
<g id="node9" class="node"><title>Node10</title>
<g id="a_node9"><a xlink:href="classJitterCorrection.html" target="_top" xlink:title=" ">
<polygon fill="white" stroke="black" points="567.101,-203.289 567.101,-223.289 650.899,-223.289 650.899,-203.289 567.101,-203.289"/>
<text text-anchor="middle" x="609" y="-209.289" font-family="Helvetica,sans-Serif" font-size="10.00">JitterCorrection</text>
</a>
</g>
</g>
<!-- Node10&#45;&gt;Node6 -->
<g id="edge14" class="edge"><title>Node10&#45;&gt;Node6</title>
<path fill="none" stroke="#9a32cd" stroke-dasharray="5,2" d="M661.068,-204.816C706.659,-200.171 772.993,-200.944 818,-234.289 885.621,-284.387 901.024,-397.046 904.224,-431.847"/>
<polygon fill="#9a32cd" stroke="#9a32cd" points="660.638,-201.343 651.098,-205.952 661.43,-208.298 660.638,-201.343"/>
<text text-anchor="middle" x="755" y="-236.289" font-family="Helvetica,sans-Serif" font-size="10.00"> lag_correction</text>
</g>
<!-- Node11 -->
<g id="node10" class="node"><title>Node11</title>
<g id="a_node10"><a xlink:href="classObjectBuffer.html" target="_top" xlink:title=" ">
<polygon fill="white" stroke="black" points="375.791,-105.289 375.791,-137.289 526.209,-137.289 526.209,-105.289 375.791,-105.289"/>
<text text-anchor="start" x="383.791" y="-123.289" font-family="Helvetica,sans-Serif" font-size="10.00">ObjectBuffer&lt; GCS_MAVLINK</text>
<text text-anchor="middle" x="451" y="-111.289" font-family="Helvetica,sans-Serif" font-size="10.00">::pending_param_reply &gt;</text>
</a>
</g>
</g>
<!-- Node11&#45;&gt;Node6 -->
<g id="edge15" class="edge"><title>Node11&#45;&gt;Node6</title>
<path fill="none" stroke="#9a32cd" stroke-dasharray="5,2" d="M536.653,-117.331C631.533,-114.764 777.423,-117.024 818,-152.289 905.879,-228.663 906.817,-389.977 905.474,-432.069"/>
<polygon fill="#9a32cd" stroke="#9a32cd" points="536.385,-113.837 526.492,-117.629 536.591,-120.834 536.385,-113.837"/>
<text text-anchor="middle" x="609" y="-121.289" font-family="Helvetica,sans-Serif" font-size="10.00"> param_replies</text>
</g>
<!-- Node12 -->
<g id="node11" class="node"><title>Node12</title>
<g id="a_node11"><a xlink:href="classByteBuffer.html" target="_top" xlink:title=" ">
<polygon fill="white" stroke="black" points="25.7432,-111.289 25.7432,-131.289 88.2568,-131.289 88.2568,-111.289 25.7432,-111.289"/>
<text text-anchor="middle" x="57" y="-117.289" font-family="Helvetica,sans-Serif" font-size="10.00">ByteBuffer</text>
</a>
</g>
</g>
<!-- Node12&#45;&gt;Node11 -->
<g id="edge16" class="edge"><title>Node12&#45;&gt;Node11</title>
<path fill="none" stroke="#9a32cd" stroke-dasharray="5,2" d="M98.7427,-121.289C164.148,-121.289 293.544,-121.289 375.71,-121.289"/>
<polygon fill="#9a32cd" stroke="#9a32cd" points="98.4334,-117.789 88.4334,-121.289 98.4334,-124.789 98.4334,-117.789"/>
<text text-anchor="middle" x="166" y="-123.289" font-family="Helvetica,sans-Serif" font-size="10.00"> buffer</text>
</g>
<!-- Node13 -->
<g id="node12" class="node"><title>Node13</title>
<g id="a_node12"><a xlink:href="classObjectBuffer.html" target="_top" xlink:title=" ">
<polygon fill="white" stroke="black" points="375.791,-21.2886 375.791,-53.2886 526.209,-53.2886 526.209,-21.2886 375.791,-21.2886"/>
<text text-anchor="start" x="383.791" y="-39.2886" font-family="Helvetica,sans-Serif" font-size="10.00">ObjectBuffer&lt; GCS_MAVLINK</text>
<text text-anchor="middle" x="451" y="-27.2886" font-family="Helvetica,sans-Serif" font-size="10.00">::pending_param_request &gt;</text>
</a>
</g>
</g>
<!-- Node12&#45;&gt;Node13 -->
<g id="edge18" class="edge"><title>Node12&#45;&gt;Node13</title>
<path fill="none" stroke="#9a32cd" stroke-dasharray="5,2" d="M98.6632,-112.479C109.495,-110.137 121.191,-107.613 132,-105.289 215.482,-87.3377 311.322,-66.8617 375.777,-53.1104"/>
<polygon fill="#9a32cd" stroke="#9a32cd" points="97.6334,-109.121 88.5995,-114.656 99.1134,-115.963 97.6334,-109.121"/>
<text text-anchor="middle" x="166" y="-107.289" font-family="Helvetica,sans-Serif" font-size="10.00"> buffer</text>
</g>
<!-- Node22 -->
<g id="node21" class="node"><title>Node22</title>
<g id="a_node21"><a xlink:href="classObjectBuffer.html" target="_top" xlink:title=" ">
<polygon fill="white" stroke="black" points="220.105,-452.289 220.105,-484.289 355.895,-484.289 355.895,-452.289 220.105,-452.289"/>
<text text-anchor="start" x="228.105" y="-470.289" font-family="Helvetica,sans-Serif" font-size="10.00">ObjectBuffer&lt; struct</text>
<text text-anchor="middle" x="288" y="-458.289" font-family="Helvetica,sans-Serif" font-size="10.00"> AP_Param::param_save &gt;</text>
</a>
</g>
</g>
<!-- Node12&#45;&gt;Node22 -->
<g id="edge29" class="edge"><title>Node12&#45;&gt;Node22</title>
<path fill="none" stroke="#9a32cd" stroke-dasharray="5,2" d="M64.6005,-141.013C82.5118,-192.272 136.241,-331.968 218,-422.289 228.725,-434.136 243.121,-444.358 255.989,-452.136"/>
<polygon fill="#9a32cd" stroke="#9a32cd" points="67.8811,-139.789 61.3249,-131.467 61.26,-142.061 67.8811,-139.789"/>
<text text-anchor="middle" x="166" y="-396.289" font-family="Helvetica,sans-Serif" font-size="10.00"> buffer</text>
</g>
<!-- Node13&#45;&gt;Node6 -->
<g id="edge17" class="edge"><title>Node13&#45;&gt;Node6</title>
<path fill="none" stroke="#9a32cd" stroke-dasharray="5,2" d="M513.83,-18.6708C595.14,1.58651 737.135,21.6905 818,-55.2886 875.111,-109.654 899.663,-376.428 904.207,-432.096"/>
<polygon fill="#9a32cd" stroke="#9a32cd" points="512.554,-15.3848 503.74,-21.2632 514.296,-22.1646 512.554,-15.3848"/>
<text text-anchor="middle" x="609" y="-13.2886" font-family="Helvetica,sans-Serif" font-size="10.00"> param_requests</text>
</g>
<!-- Node14 -->
<g id="node13" class="node"><title>Node14</title>
<g id="a_node13"><a xlink:href="structAP__Param_1_1ParamToken.html" target="_top" xlink:title=" ">
<polygon fill="white" stroke="black" points="545.976,-861.289 545.976,-881.289 672.024,-881.289 672.024,-861.289 545.976,-861.289"/>
<text text-anchor="middle" x="609" y="-867.289" font-family="Helvetica,sans-Serif" font-size="10.00">AP_Param::ParamToken</text>
</a>
</g>
</g>
<!-- Node14&#45;&gt;Node6 -->
<g id="edge19" class="edge"><title>Node14&#45;&gt;Node6</title>
<path fill="none" stroke="#9a32cd" stroke-dasharray="5,2" d="M682.208,-860.967C734.9,-851.882 800.103,-836.881 818,-816.289 840.167,-790.782 828.977,-698.344 836,-665.289 853.856,-581.249 889.458,-483.469 901.168,-452.339"/>
<polygon fill="#9a32cd" stroke="#9a32cd" points="681.474,-857.541 672.192,-862.649 682.634,-864.444 681.474,-857.541"/>
<text text-anchor="middle" x="755" y="-861.289" font-family="Helvetica,sans-Serif" font-size="10.00"> _queued_parameter_token</text>
</g>
<!-- Node14&#45;&gt;Node34 -->
<g id="edge50" class="edge"><title>Node14&#45;&gt;Node34</title>
<path fill="none" stroke="#9a32cd" stroke-dasharray="5,2" d="M682.239,-880.104C733.591,-886.371 801.567,-894.666 848.865,-900.438"/>
<polygon fill="#9a32cd" stroke="#9a32cd" points="682.552,-876.616 672.201,-878.879 681.704,-883.565 682.552,-876.616"/>
<text text-anchor="middle" x="755" y="-899.289" font-family="Helvetica,sans-Serif" font-size="10.00"> token</text>
</g>
<!-- Node15 -->
<g id="node14" class="node"><title>Node15</title>
<g id="a_node14"><a xlink:href="structGCS__MAVLINK_1_1stream__entries.html" target="_top" xlink:title=" ">
<polygon fill="white" stroke="black" points="547.743,-52.2886 547.743,-84.2886 670.257,-84.2886 670.257,-52.2886 547.743,-52.2886"/>
<text text-anchor="start" x="555.743" y="-70.2886" font-family="Helvetica,sans-Serif" font-size="10.00">GCS_MAVLINK::stream</text>
<text text-anchor="middle" x="609" y="-58.2886" font-family="Helvetica,sans-Serif" font-size="10.00">_entries</text>
</a>
</g>
</g>
<!-- Node15&#45;&gt;Node6 -->
<g id="edge20" class="edge"><title>Node15&#45;&gt;Node6</title>
<path fill="none" stroke="#9a32cd" stroke-dasharray="5,2" d="M680.877,-58.7813C725.451,-56.8916 781.277,-62.6154 818,-95.2886 870.78,-142.249 898.459,-379.784 903.968,-432.09"/>
<polygon fill="#9a32cd" stroke="#9a32cd" points="680.469,-55.2986 670.68,-59.3524 680.86,-62.2877 680.469,-55.2986"/>
<text text-anchor="middle" x="755" y="-97.2886" font-family="Helvetica,sans-Serif" font-size="10.00"> all_stream_entries</text>
</g>
<!-- Node16 -->
<g id="node15" class="node"><title>Node16</title>
<g id="a_node15"><a xlink:href="classMAVLink__routing.html" target="_top" xlink:title=" ">
<polygon fill="white" stroke="black" points="563.292,-393.289 563.292,-413.289 654.708,-413.289 654.708,-393.289 563.292,-393.289"/>
<text text-anchor="middle" x="609" y="-399.289" font-family="Helvetica,sans-Serif" font-size="10.00">MAVLink_routing</text>
</a>
</g>
</g>
<!-- Node16&#45;&gt;Node6 -->
<g id="edge21" class="edge"><title>Node16&#45;&gt;Node6</title>
<path fill="none" stroke="#9a32cd" stroke-dasharray="5,2" d="M664.777,-408.263C706.801,-412.341 766.198,-418.671 818,-426.289 832.586,-428.434 848.467,-431.22 862.621,-433.865"/>
<polygon fill="#9a32cd" stroke="#9a32cd" points="665.039,-404.772 654.751,-407.301 664.371,-411.74 665.039,-404.772"/>
<text text-anchor="middle" x="755" y="-428.289" font-family="Helvetica,sans-Serif" font-size="10.00"> routing</text>
</g>
<!-- Node17 -->
<g id="node16" class="node"><title>Node17</title>
<g id="a_node16"><a xlink:href="structMAVLink__routing_1_1route.html" target="_top" xlink:title=" ">
<polygon fill="white" stroke="black" points="228.118,-393.289 228.118,-413.289 347.882,-413.289 347.882,-393.289 228.118,-393.289"/>
<text text-anchor="middle" x="288" y="-399.289" font-family="Helvetica,sans-Serif" font-size="10.00">MAVLink_routing::route</text>
</a>
</g>
</g>
<!-- Node17&#45;&gt;Node16 -->
<g id="edge22" class="edge"><title>Node17&#45;&gt;Node16</title>
<path fill="none" stroke="#9a32cd" stroke-dasharray="5,2" d="M358.362,-403.289C420.464,-403.289 509.706,-403.289 562.965,-403.289"/>
<polygon fill="#9a32cd" stroke="#9a32cd" points="358.254,-399.789 348.254,-403.289 358.254,-406.789 358.254,-399.789"/>
<text text-anchor="middle" x="451" y="-405.289" font-family="Helvetica,sans-Serif" font-size="10.00"> routes</text>
</g>
<!-- Node18 -->
<g id="node17" class="node"><title>Node18</title>
<g id="a_node17"><a xlink:href="structGCS__MAVLINK_1_1deferred__message__t.html" target="_top" xlink:title=" ">
<polygon fill="white" stroke="black" points="544.401,-609.289 544.401,-641.289 673.599,-641.289 673.599,-609.289 544.401,-609.289"/>
<text text-anchor="start" x="552.401" y="-627.289" font-family="Helvetica,sans-Serif" font-size="10.00">GCS_MAVLINK::deferred</text>
<text text-anchor="middle" x="609" y="-615.289" font-family="Helvetica,sans-Serif" font-size="10.00">_message_t</text>
</a>
</g>
</g>
<!-- Node18&#45;&gt;Node6 -->
<g id="edge23" class="edge"><title>Node18&#45;&gt;Node6</title>
<path fill="none" stroke="#9a32cd" stroke-dasharray="5,2" d="M671.745,-606.472C678.553,-604.62 685.406,-602.851 692,-601.289 747.392,-588.165 770.734,-610.013 818,-578.289 865.709,-546.267 892.798,-478.32 901.698,-452.518"/>
<polygon fill="#9a32cd" stroke="#9a32cd" points="670.531,-603.177 661.837,-609.231 672.409,-609.921 670.531,-603.177"/>
<text text-anchor="middle" x="755" y="-603.289" font-family="Helvetica,sans-Serif" font-size="10.00"> deferred_message</text>
</g>
<!-- Node19 -->
<g id="node18" class="node"><title>Node19</title>
<g id="a_node18"><a xlink:href="classAP__HAL_1_1UARTDriver.html" target="_top" xlink:title=" ">
<polygon fill="white" stroke="black" points="552.189,-354.289 552.189,-374.289 665.811,-374.289 665.811,-354.289 552.189,-354.289"/>
<text text-anchor="middle" x="609" y="-360.289" font-family="Helvetica,sans-Serif" font-size="10.00">AP_HAL::UARTDriver</text>
</a>
</g>
</g>
<!-- Node19&#45;&gt;Node6 -->
<g id="edge24" class="edge"><title>Node19&#45;&gt;Node6</title>
<path fill="none" stroke="#9a32cd" stroke-dasharray="5,2" d="M675.975,-368.247C717.564,-372.167 771.921,-379.935 818,-395.289 845.036,-404.297 873.591,-421.385 890.327,-432.286"/>
<polygon fill="#9a32cd" stroke="#9a32cd" points="676.232,-364.757 665.96,-367.354 675.61,-371.729 676.232,-364.757"/>
<text text-anchor="middle" x="755" y="-397.289" font-family="Helvetica,sans-Serif" font-size="10.00"> _port</text>
</g>
<!-- Node20 -->
<g id="node19" class="node"><title>Node20</title>
<g id="a_node19"><a xlink:href="classAP__HAL_1_1BetterStream.html" target="_top" xlink:title=" ">
<polygon fill="white" stroke="black" points="228.589,-354.289 228.589,-374.289 347.411,-374.289 347.411,-354.289 228.589,-354.289"/>
<text text-anchor="middle" x="288" y="-360.289" font-family="Helvetica,sans-Serif" font-size="10.00">AP_HAL::BetterStream</text>
</a>
</g>
</g>
<!-- Node20&#45;&gt;Node19 -->
<g id="edge25" class="edge"><title>Node20&#45;&gt;Node19</title>
<path fill="none" stroke="midnightblue" d="M357.695,-364.289C415.749,-364.289 497.871,-364.289 552.001,-364.289"/>
<polygon fill="midnightblue" stroke="midnightblue" points="357.51,-360.789 347.51,-364.289 357.509,-367.789 357.51,-360.789"/>
</g>
<!-- Node21&#45;&gt;Node6 -->
<g id="edge26" class="edge"><title>Node21&#45;&gt;Node6</title>
<path fill="none" stroke="#9a32cd" stroke-dasharray="5,2" d="M651.381,-660.846C708.237,-647.587 804.994,-623.888 818,-613.289 872.222,-569.098 896.029,-482.34 902.835,-452.588"/>
<polygon fill="#9a32cd" stroke="#9a32cd" points="650.548,-657.447 641.598,-663.117 652.13,-664.265 650.548,-657.447"/>
<text text-anchor="middle" x="755" y="-653.289" font-family="Helvetica,sans-Serif" font-size="10.00"> _queued_parameter</text>
</g>
<!-- Node26 -->
<g id="node25" class="node"><title>Node26</title>
<g id="a_node25"><a xlink:href="structAP__Param_1_1param__override.html" target="_top" xlink:title=" ">
<polygon fill="white" stroke="black" points="836.027,-675.289 836.027,-695.289 975.973,-695.289 975.973,-675.289 836.027,-675.289"/>
<text text-anchor="middle" x="906" y="-681.289" font-family="Helvetica,sans-Serif" font-size="10.00">AP_Param::param_override</text>
</a>
</g>
</g>
<!-- Node21&#45;&gt;Node26 -->
<g id="edge35" class="edge"><title>Node21&#45;&gt;Node26</title>
<path fill="none" stroke="#9a32cd" stroke-dasharray="5,2" d="M651.436,-678.078C664.379,-680.182 678.739,-682.181 692,-683.289 739.908,-687.289 794.087,-687.742 835.813,-687.219"/>
<polygon fill="#9a32cd" stroke="#9a32cd" points="651.852,-674.599 641.408,-676.383 650.685,-681.501 651.852,-674.599"/>
<text text-anchor="middle" x="755" y="-690.289" font-family="Helvetica,sans-Serif" font-size="10.00"> object_ptr</text>
</g>
<!-- Node21&#45;&gt;Node34 -->
<g id="edge53" class="edge"><title>Node21&#45;&gt;Node34</title>
<path fill="none" stroke="#9a32cd" stroke-dasharray="5,2" d="M623.471,-688.666C638.358,-707.841 663.967,-737.657 692,-756.289 741.908,-789.459 769.113,-769.631 818,-804.289 851.99,-828.385 880.774,-868.769 895.158,-891.141"/>
<polygon fill="#9a32cd" stroke="#9a32cd" points="626.068,-686.297 617.237,-680.442 620.489,-690.526 626.068,-686.297"/>
<text text-anchor="middle" x="755" y="-806.289" font-family="Helvetica,sans-Serif" font-size="10.00"> ap</text>
</g>
<!-- Node22&#45;&gt;Node21 -->
<g id="edge28" class="edge"><title>Node22&#45;&gt;Node21</title>
<path fill="none" stroke="#9a32cd" stroke-dasharray="5,2" d="M310.632,-491.775C327.175,-508.588 351.28,-530.736 376,-545.289 436.931,-581.159 476.164,-548.132 526,-598.289 543.238,-615.637 526.446,-633.26 544,-650.289 552.773,-658.799 565.116,-663.693 576.625,-666.505"/>
<polygon fill="#9a32cd" stroke="#9a32cd" points="313.049,-489.24 303.587,-484.473 308.011,-494.1 313.049,-489.24"/>
<text text-anchor="middle" x="451" y="-600.289" font-family="Helvetica,sans-Serif" font-size="10.00"> save_queue</text>
</g>
<!-- Node23 -->
<g id="node22" class="node"><title>Node23</title>
<g id="a_node22"><a xlink:href="structAP__Param_1_1Info.html" target="_top" xlink:title=" ">
<polygon fill="white" stroke="black" points="244.705,-691.289 244.705,-711.289 331.295,-711.289 331.295,-691.289 244.705,-691.289"/>
<text text-anchor="middle" x="288" y="-697.289" font-family="Helvetica,sans-Serif" font-size="10.00">AP_Param::Info</text>
</a>
</g>
</g>
<!-- Node23&#45;&gt;Node21 -->
<g id="edge30" class="edge"><title>Node23&#45;&gt;Node21</title>
<path fill="none" stroke="#9a32cd" stroke-dasharray="5,2" d="M341.68,-696.169C408.556,-689.67 521.798,-678.666 576.527,-673.347"/>
<polygon fill="#9a32cd" stroke="#9a32cd" points="340.975,-692.721 331.361,-697.172 341.652,-699.688 340.975,-692.721"/>
<text text-anchor="middle" x="451" y="-694.289" font-family="Helvetica,sans-Serif" font-size="10.00"> _var_info</text>
</g>
<!-- Node24 -->
<g id="node23" class="node"><title>Node24</title>
<g id="a_node23"><a xlink:href="structAP__Param_1_1GroupInfo.html" target="_top" xlink:title=" ">
<polygon fill="white" stroke="black" points="-0.191895,-691.289 -0.191895,-711.289 114.192,-711.289 114.192,-691.289 -0.191895,-691.289"/>
<text text-anchor="middle" x="57" y="-697.289" font-family="Helvetica,sans-Serif" font-size="10.00">AP_Param::GroupInfo</text>
</a>
</g>
</g>
<!-- Node24&#45;&gt;Node23 -->
<g id="edge31" class="edge"><title>Node24&#45;&gt;Node23</title>
<path fill="none" stroke="#9a32cd" stroke-dasharray="5,2" d="M124.468,-701.289C163.21,-701.289 210.912,-701.289 244.589,-701.289"/>
<polygon fill="#9a32cd" stroke="#9a32cd" points="124.313,-697.789 114.313,-701.289 124.313,-704.789 124.313,-697.789"/>
<text text-anchor="middle" x="166" y="-715.289" font-family="Helvetica,sans-Serif" font-size="10.00"> group_info_ptr</text>
<text text-anchor="middle" x="166" y="-703.289" font-family="Helvetica,sans-Serif" font-size="10.00">group_info</text>
</g>
<!-- Node24&#45;&gt;Node24 -->
<g id="edge32" class="edge"><title>Node24&#45;&gt;Node24</title>
<path fill="none" stroke="#9a32cd" stroke-dasharray="5,2" d="M37.1645,-721.21C38.8196,-725.862 45.4314,-729.289 57,-729.289 75.9844,-729.289 81.6204,-720.06 73.908,-711.336"/>
<polygon fill="#9a32cd" stroke="#9a32cd" points="40.605,-721.919 40.092,-711.336 33.8938,-719.929 40.605,-721.919"/>
<text text-anchor="middle" x="57" y="-743.289" font-family="Helvetica,sans-Serif" font-size="10.00"> group_info_ptr</text>
<text text-anchor="middle" x="57" y="-731.289" font-family="Helvetica,sans-Serif" font-size="10.00">group_info</text>
</g>
<!-- Node24&#45;&gt;Node6 -->
<g id="edge36" class="edge"><title>Node24&#45;&gt;Node6</title>
<path fill="none" stroke="#9a32cd" stroke-dasharray="5,2" d="M76.823,-684.311C105.465,-659.228 162.537,-612.131 218,-583.289 283.713,-549.115 303.069,-543.213 376,-530.289 569.502,-495.997 634.966,-589.824 818,-518.289 853.305,-504.49 883.9,-469.642 897.496,-452.346"/>
<polygon fill="#9a32cd" stroke="#9a32cd" points="74.3697,-681.808 69.2011,-691.057 79.0091,-687.05 74.3697,-681.808"/>
<text text-anchor="middle" x="451" y="-532.289" font-family="Helvetica,sans-Serif" font-size="10.00"> var_info</text>
</g>
<!-- Node24&#45;&gt;Node5 -->
<g id="edge44" class="edge"><title>Node24&#45;&gt;Node5</title>
<path fill="none" stroke="#9a32cd" stroke-dasharray="5,2" d="M92.3805,-714.782C104.702,-719.113 118.808,-723.505 132,-726.289 199.679,-740.568 217.831,-740.289 287,-740.289 287,-740.289 287,-740.289 1050,-740.289 1180.73,-740.289 1336.06,-726.841 1401.93,-720.511"/>
<polygon fill="#9a32cd" stroke="#9a32cd" points="93.5277,-711.475 82.9335,-711.353 91.1393,-718.055 93.5277,-711.475"/>
<text text-anchor="middle" x="755" y="-742.289" font-family="Helvetica,sans-Serif" font-size="10.00"> var_info</text>
</g>
<!-- Node25 -->
<g id="node24" class="node"><title>Node25</title>
<g id="a_node24"><a xlink:href="structAP__Param_1_1param__defaults__struct.html" target="_top" xlink:title=" ">
<polygon fill="white" stroke="black" points="218.579,-640.289 218.579,-672.289 357.421,-672.289 357.421,-640.289 218.579,-640.289"/>
<text text-anchor="start" x="226.579" y="-658.289" font-family="Helvetica,sans-Serif" font-size="10.00">AP_Param::param_defaults</text>
<text text-anchor="middle" x="288" y="-646.289" font-family="Helvetica,sans-Serif" font-size="10.00">_struct</text>
</a>
</g>
</g>
<!-- Node25&#45;&gt;Node21 -->
<g id="edge33" class="edge"><title>Node25&#45;&gt;Node21</title>
<path fill="none" stroke="#9a32cd" stroke-dasharray="5,2" d="M367.699,-658.824C413.835,-660.424 473.238,-662.679 526,-665.289 542.667,-666.113 561.227,-667.228 576.469,-668.196"/>
<polygon fill="#9a32cd" stroke="#9a32cd" points="367.582,-655.318 357.468,-658.473 367.342,-662.314 367.582,-655.318"/>
<text text-anchor="middle" x="451" y="-667.289" font-family="Helvetica,sans-Serif" font-size="10.00"> param_defaults_data</text>
</g>
<!-- Node26&#45;&gt;Node21 -->
<g id="edge34" class="edge"><title>Node26&#45;&gt;Node21</title>
<path fill="none" stroke="#9a32cd" stroke-dasharray="5,2" d="M840.841,-673.817C833.165,-672.785 825.421,-671.9 818,-671.289 755.558,-666.146 682.215,-667.514 641.428,-668.931"/>
<polygon fill="#9a32cd" stroke="#9a32cd" points="840.465,-677.299 850.859,-675.249 841.455,-670.369 840.465,-677.299"/>
<text text-anchor="middle" x="755" y="-673.289" font-family="Helvetica,sans-Serif" font-size="10.00"> param_overrides</text>
</g>
<!-- Node27 -->
<g id="node26" class="node"><title>Node27</title>
<g id="a_node26"><a xlink:href="classBitmask.html" target="_top" xlink:title=" ">
<polygon fill="white" stroke="black" points="227.014,-227.289 227.014,-247.289 348.986,-247.289 348.986,-227.289 227.014,-227.289"/>
<text text-anchor="middle" x="288" y="-233.289" font-family="Helvetica,sans-Serif" font-size="10.00">Bitmask&lt; MSG_LAST &gt;</text>
</a>
</g>
</g>
<!-- Node27&#45;&gt;Node6 -->
<g id="edge37" class="edge"><title>Node27&#45;&gt;Node6</title>
<path fill="none" stroke="#9a32cd" stroke-dasharray="5,2" d="M359.246,-237.603C437.056,-239.223 565.817,-245.694 674,-269.289 740.482,-283.788 763.706,-280.272 818,-321.289 859.495,-352.636 889.463,-409.351 900.424,-432.274"/>
<polygon fill="#9a32cd" stroke="#9a32cd" points="359.144,-234.1 349.08,-237.413 359.013,-241.099 359.144,-234.1"/>
<text text-anchor="middle" x="609" y="-295.289" font-family="Helvetica,sans-Serif" font-size="10.00"> pushed_ap_message_ids</text>
<text text-anchor="start" x="550.624" y="-283.289" font-family="Helvetica,sans-Serif" font-size="10.00">bucket_message_ids</text>
<text text-anchor="middle" x="609" y="-271.289" font-family="Helvetica,sans-Serif" font-size="10.00">_to_send</text>
</g>
<!-- Node29 -->
<g id="node28" class="node"><title>Node29</title>
<g id="a_node28"><a xlink:href="structGCS__MAVLINK_1_1deferred__message__bucket__t.html" target="_top" xlink:title=" ">
<polygon fill="white" stroke="black" points="544.401,-152.289 544.401,-184.289 673.599,-184.289 673.599,-152.289 544.401,-152.289"/>
<text text-anchor="start" x="552.401" y="-170.289" font-family="Helvetica,sans-Serif" font-size="10.00">GCS_MAVLINK::deferred</text>
<text text-anchor="middle" x="609" y="-158.289" font-family="Helvetica,sans-Serif" font-size="10.00">_message_bucket_t</text>
</a>
</g>
</g>
<!-- Node27&#45;&gt;Node29 -->
<g id="edge40" class="edge"><title>Node27&#45;&gt;Node29</title>
<path fill="none" stroke="#9a32cd" stroke-dasharray="5,2" d="M345.428,-225.083C401.106,-213.04 486.096,-194.657 544.201,-182.088"/>
<polygon fill="#9a32cd" stroke="#9a32cd" points="344.419,-221.72 335.385,-227.255 345.899,-228.562 344.419,-221.72"/>
<text text-anchor="middle" x="451" y="-219.289" font-family="Helvetica,sans-Serif" font-size="10.00"> ap_message_ids</text>
</g>
<!-- Node28 -->
<g id="node27" class="node"><title>Node28</title>
<g id="a_node27"><a xlink:href="classLocation.html" target="_top" xlink:title=" ">
<polygon fill="white" stroke="black" points="582.096,-315.289 582.096,-335.289 635.904,-335.289 635.904,-315.289 582.096,-315.289"/>
<text text-anchor="middle" x="609" y="-321.289" font-family="Helvetica,sans-Serif" font-size="10.00">Location</text>
</a>
</g>
</g>
<!-- Node28&#45;&gt;Node6 -->
<g id="edge38" class="edge"><title>Node28&#45;&gt;Node6</title>
<path fill="none" stroke="#9a32cd" stroke-dasharray="5,2" d="M646.238,-323.764C689.429,-323.421 762.698,-327.591 818,-355.289 854.67,-373.654 885.273,-413.409 898.282,-432.138"/>
<polygon fill="#9a32cd" stroke="#9a32cd" points="646.136,-320.265 636.195,-323.93 646.252,-327.264 646.136,-320.265"/>
<text text-anchor="middle" x="755" y="-357.289" font-family="Helvetica,sans-Serif" font-size="10.00"> global_position_current_loc</text>
</g>
<!-- Node29&#45;&gt;Node6 -->
<g id="edge39" class="edge"><title>Node29&#45;&gt;Node6</title>
<path fill="none" stroke="#9a32cd" stroke-dasharray="5,2" d="M684.103,-156.418C727.454,-153.663 780.797,-158.023 818,-187.289 898.698,-250.77 904.972,-392.86 905.12,-432.087"/>
<polygon fill="#9a32cd" stroke="#9a32cd" points="683.583,-152.948 673.883,-157.209 684.123,-159.927 683.583,-152.948"/>
<text text-anchor="middle" x="755" y="-189.289" font-family="Helvetica,sans-Serif" font-size="10.00"> deferred_message_bucket</text>
</g>
<!-- Node30 -->
<g id="node29" class="node"><title>Node30</title>
<g id="a_node29"><a xlink:href="structLogStructure.html" target="_top" xlink:title=" ">
<polygon fill="white" stroke="black" points="1151.37,-769.289 1151.37,-789.289 1224.63,-789.289 1224.63,-769.289 1151.37,-769.289"/>
<text text-anchor="middle" x="1188" y="-775.289" font-family="Helvetica,sans-Serif" font-size="10.00">LogStructure</text>
</a>
</g>
</g>
<!-- Node30&#45;&gt;Node5 -->
<g id="edge41" class="edge"><title>Node30&#45;&gt;Node5</title>
<path fill="none" stroke="#9a32cd" stroke-dasharray="5,2" d="M1235.08,-772.254C1269.78,-766.445 1318.34,-757.224 1360,-745.289 1377.17,-740.371 1395.98,-733.227 1410.34,-727.387"/>
<polygon fill="#9a32cd" stroke="#9a32cd" points="1234.08,-768.871 1224.78,-773.946 1235.21,-775.779 1234.08,-768.871"/>
<text text-anchor="middle" x="1316" y="-768.289" font-family="Helvetica,sans-Serif" font-size="10.00"> _structures</text>
</g>
<!-- Node31 -->
<g id="node30" class="node"><title>Node31</title>
<g id="a_node30"><a xlink:href="structUnitStructure.html" target="_top" xlink:title=" ">
<polygon fill="white" stroke="black" points="1150.82,-691.289 1150.82,-711.289 1225.18,-711.289 1225.18,-691.289 1150.82,-691.289"/>
<text text-anchor="middle" x="1188" y="-697.289" font-family="Helvetica,sans-Serif" font-size="10.00">UnitStructure</text>
</a>
</g>
</g>
<!-- Node31&#45;&gt;Node5 -->
<g id="edge42" class="edge"><title>Node31&#45;&gt;Node5</title>
<path fill="none" stroke="#9a32cd" stroke-dasharray="5,2" d="M1235.64,-702.19C1270.05,-703.1 1318,-704.88 1360,-708.289 1373.67,-709.398 1388.71,-711.132 1401.64,-712.783"/>
<polygon fill="#9a32cd" stroke="#9a32cd" points="1235.5,-698.685 1225.41,-701.935 1235.32,-705.683 1235.5,-698.685"/>
<text text-anchor="middle" x="1316" y="-710.289" font-family="Helvetica,sans-Serif" font-size="10.00"> _units</text>
</g>
<!-- Node32 -->
<g id="node31" class="node"><title>Node32</title>
<g id="a_node31"><a xlink:href="structMultiplierStructure.html" target="_top" xlink:title=" ">
<polygon fill="white" stroke="black" points="1139.71,-652.289 1139.71,-672.289 1236.29,-672.289 1236.29,-652.289 1139.71,-652.289"/>
<text text-anchor="middle" x="1188" y="-658.289" font-family="Helvetica,sans-Serif" font-size="10.00">MultiplierStructure</text>
</a>
</g>
</g>
<!-- Node32&#45;&gt;Node5 -->
<g id="edge45" class="edge"><title>Node32&#45;&gt;Node5</title>
<path fill="none" stroke="#9a32cd" stroke-dasharray="5,2" d="M1246.47,-667.794C1279.97,-671.802 1322.81,-678.308 1360,-688.289 1377.99,-693.117 1397.59,-700.918 1412.09,-707.213"/>
<polygon fill="#9a32cd" stroke="#9a32cd" points="1246.73,-664.301 1236.39,-666.63 1245.93,-671.255 1246.73,-664.301"/>
<text text-anchor="middle" x="1316" y="-690.289" font-family="Helvetica,sans-Serif" font-size="10.00"> _multipliers</text>
</g>
<!-- Node33 -->
<g id="node32" class="node"><title>Node33</title>
<g id="a_node32"><a xlink:href="structAP__Logger_1_1log__write__fmt.html" target="_top" xlink:title=" ">
<polygon fill="white" stroke="black" points="1122.47,-583.289 1122.47,-603.289 1253.53,-603.289 1253.53,-583.289 1122.47,-583.289"/>
<text text-anchor="middle" x="1188" y="-589.289" font-family="Helvetica,sans-Serif" font-size="10.00">AP_Logger::log_write_fmt</text>
</a>
</g>
</g>
<!-- Node33&#45;&gt;Node5 -->
<g id="edge46" class="edge"><title>Node33&#45;&gt;Node5</title>
<path fill="none" stroke="#9a32cd" stroke-dasharray="5,2" d="M1238.45,-606.212C1273.72,-616.602 1321.52,-633.124 1360,-655.289 1385.56,-670.013 1410.95,-693.796 1424.33,-707.222"/>
<polygon fill="#9a32cd" stroke="#9a32cd" points="1238.97,-602.719 1228.39,-603.314 1237.03,-609.446 1238.97,-602.719"/>
<text text-anchor="middle" x="1316" y="-657.289" font-family="Helvetica,sans-Serif" font-size="10.00"> log_write_fmts</text>
</g>
<!-- Node33&#45;&gt;Node33 -->
<g id="edge47" class="edge"><title>Node33&#45;&gt;Node33</title>
<path fill="none" stroke="#9a32cd" stroke-dasharray="5,2" d="M1164.35,-612.85C1166.05,-617.684 1173.94,-621.289 1188,-621.289 1210.5,-621.289 1217.18,-612.06 1208.04,-603.336"/>
<polygon fill="#9a32cd" stroke="#9a32cd" points="1167.69,-613.928 1167.96,-603.336 1161.14,-611.445 1167.69,-613.928"/>
<text text-anchor="middle" x="1188" y="-623.289" font-family="Helvetica,sans-Serif" font-size="10.00"> next</text>
</g>
<!-- Node34&#45;&gt;Node4 -->
<g id="edge48" class="edge"><title>Node34&#45;&gt;Node4</title>
<path fill="none" stroke="#9a32cd" stroke-dasharray="5,2" d="M966.25,-888.323C975.481,-885.734 984.956,-883.285 994,-881.289 1040.29,-871.072 1093.67,-863.656 1132.54,-859.033"/>
<polygon fill="#9a32cd" stroke="#9a32cd" points="964.999,-885.041 956.36,-891.173 966.938,-891.767 964.999,-885.041"/>
<text text-anchor="middle" x="1049" y="-883.289" font-family="Helvetica,sans-Serif" font-size="10.00"> _startup_messagewriter</text>
</g>
<!-- Node35&#45;&gt;Node34 -->
<g id="edge51" class="edge"><title>Node35&#45;&gt;Node34</title>
<path fill="none" stroke="#9a32cd" stroke-dasharray="5,2" d="M1519.74,-965.804C1517.13,-965.989 1514.54,-966.152 1512,-966.289 1452.52,-969.494 1437.53,-966.366 1378,-964.289 1296.78,-961.454 1038.13,-950.169 994,-940.289 976.66,-936.406 958.158,-929.768 942.695,-923.458"/>
<polygon fill="#9a32cd" stroke="#9a32cd" points="1520.2,-969.279 1529.89,-964.996 1519.64,-962.301 1520.2,-969.279"/>
<text text-anchor="middle" x="1316" y="-966.289" font-family="Helvetica,sans-Serif" font-size="10.00"> _writesysinfo</text>
</g>
<!-- Node36&#45;&gt;Node34 -->
<g id="edge54" class="edge"><title>Node36&#45;&gt;Node34</title>
<path fill="none" stroke="#9a32cd" stroke-dasharray="5,2" d="M1519.71,-907.289C1386.32,-907.289 1087.63,-907.289 963.143,-907.289"/>
<polygon fill="#9a32cd" stroke="#9a32cd" points="1519.79,-910.789 1529.79,-907.289 1519.79,-903.789 1519.79,-910.789"/>
<text text-anchor="middle" x="1316" y="-909.289" font-family="Helvetica,sans-Serif" font-size="10.00"> _writeentiremission</text>
</g>
</g>
</svg>
