<?xml version="1.0" encoding="UTF-8" standalone="no"?>
<!DOCTYPE svg PUBLIC "-//W3C//DTD SVG 1.1//EN"
 "http://www.w3.org/Graphics/SVG/1.1/DTD/svg11.dtd">
<!-- Generated by graphviz version 2.30.1 (20130221.2233)
 -->
<!-- Title: AP_MotorsMulticopter::output_boost_throttle Pages: 1 -->
<!--zoomable 138 -->
<svg id="main" version="1.1" xmlns="http://www.w3.org/2000/svg" xmlns:xlink="http://www.w3.org/1999/xlink" xml:space="preserve" onload="init(evt)">
<style type="text/css"><![CDATA[
.edge:hover path { stroke: red; }
.edge:hover polygon { stroke: red; fill: red; }
]]></style>
<script type="text/javascript"><![CDATA[
var edges = document.getElementsByTagName('g');
if (edges && edges.length) {
  for (var i=0;i<edges.length;i++) {
    if (edges[i].id.substr(0,4)=='edge') {
      edges[i].setAttribute('class','edge');
    }
  }
}
]]></script>
        <defs>
                <circle id="rim" cx="0" cy="0" r="7"/>
                <circle id="rim2" cx="0" cy="0" r="3.5"/>
                <g id="zoomPlus">
                        <use xlink:href="#rim" fill="#404040">
                                <set attributeName="fill" to="#808080" begin="zoomplus.mouseover" end="zoomplus.mouseout"/>
                        </use>
                        <path d="M-4,0h8M0,-4v8" fill="none" stroke="white" stroke-width="1.5" pointer-events="none"/>
                </g>
                <g id="zoomMin">
                        <use xlink:href="#rim" fill="#404040">
                                <set attributeName="fill" to="#808080" begin="zoomminus.mouseover" end="zoomminus.mouseout"/>
                        </use>
                        <path d="M-4,0h8" fill="none" stroke="white" stroke-width="1.5" pointer-events="none"/>
                </g>
                <g id="dirArrow">
                        <path fill="none" stroke="white" stroke-width="1.5" d="M0,-3.0v7 M-2.5,-0.5L0,-3.0L2.5,-0.5"/>
                </g>
               <g id="resetDef">
                       <use xlink:href="#rim2" fill="#404040">
                               <set attributeName="fill" to="#808080" begin="reset.mouseover" end="reset.mouseout"/>
                       </use>
               </g>
        </defs>

<script type="text/javascript">
var viewWidth = 972;
var viewHeight = 138;
var sectionId = 'dynsection-20';
</script>
<script xlink:href="svgpan.js"/>
<svg id="graph" class="graph">
<g id="viewport">
<title>AP_MotorsMulticopter::output_boost_throttle</title>
<polygon fill="white" stroke="white" points="-4,5 -4,-134 969,-134 969,5 -4,5"/>
<!-- Node195 -->
<g id="node1" class="node"><title>Node195</title>
<g id="a_node1"><a xlink:title=" ">
<polygon fill="#bfbfbf" stroke="black" points="0.241699,-45 0.241699,-77 115.758,-77 115.758,-45 0.241699,-45"/>
<text text-anchor="start" x="8.2417" y="-63" font-family="Helvetica,sans-Serif" font-size="10.00">AP_MotorsMulticopter</text>
<text text-anchor="middle" x="58" y="-51" font-family="Helvetica,sans-Serif" font-size="10.00">::output_boost_throttle</text>
</a>
</g>
</g>
<!-- Node196 -->
<g id="node2" class="node"><title>Node196</title>
<g id="a_node2"><a xlink:href="AP__Math_8h.html#ad525609d9dba6ffa556a0fbf08a3f9b4" target="_top" xlink:title=" ">
<polygon fill="white" stroke="black" points="332.48,-90 332.48,-110 413.52,-110 413.52,-90 332.48,-90"/>
<text text-anchor="middle" x="373" y="-96" font-family="Helvetica,sans-Serif" font-size="10.00">constrain_float</text>
</a>
</g>
</g>
<!-- Node195&#45;&gt;Node196 -->
<g id="edge1" class="edge"><title>Node195&#45;&gt;Node196</title>
<path fill="none" stroke="midnightblue" d="M115.876,-73.6597C127.769,-76.0141 140.261,-78.2727 152,-80 210.082,-88.5464 277.364,-94.023 322.077,-97.0453"/>
<polygon fill="midnightblue" stroke="midnightblue" points="321.89,-100.541 332.099,-97.7072 322.352,-93.5558 321.89,-100.541"/>
</g>
<!-- Node203 -->
<g id="node9" class="node"><title>Node203</title>
<g id="a_node9"><a xlink:href="classAP__Motors.html#a7ba8503cfea374e85ff327dbe892f786" target="_top" xlink:title=" ">
<polygon fill="white" stroke="black" points="159.473,-51 159.473,-71 280.527,-71 280.527,-51 159.473,-51"/>
<text text-anchor="middle" x="220" y="-57" font-family="Helvetica,sans-Serif" font-size="10.00">AP_Motors::get_throttle</text>
</a>
</g>
</g>
<!-- Node195&#45;&gt;Node203 -->
<g id="edge8" class="edge"><title>Node195&#45;&gt;Node203</title>
<path fill="none" stroke="midnightblue" d="M115.861,-61C126.657,-61 138.069,-61 149.213,-61"/>
<polygon fill="midnightblue" stroke="midnightblue" points="149.346,-64.5001 159.345,-61 149.345,-57.5001 149.346,-64.5001"/>
</g>
<!-- Node205 -->
<g id="node11" class="node"><title>Node205</title>
<g id="a_node11"><a xlink:href="classSRV__Channels.html#a61d6f8b037aa79f789a11e872f50e220" target="_top" xlink:title=" ">
<polygon fill="white" stroke="black" points="151.771,-0 151.771,-32 288.229,-32 288.229,-0 151.771,-0"/>
<text text-anchor="start" x="159.771" y="-18" font-family="Helvetica,sans-Serif" font-size="10.00">SRV_Channels::set_output</text>
<text text-anchor="middle" x="220" y="-6" font-family="Helvetica,sans-Serif" font-size="10.00">_scaled</text>
</a>
</g>
</g>
<!-- Node195&#45;&gt;Node205 -->
<g id="edge11" class="edge"><title>Node195&#45;&gt;Node205</title>
<path fill="none" stroke="midnightblue" d="M115.861,-45.008C127.697,-41.6791 140.272,-38.1422 152.422,-34.725"/>
<polygon fill="midnightblue" stroke="midnightblue" points="153.374,-38.0931 162.053,-32.0163 151.479,-31.3545 153.374,-38.0931"/>
</g>
<!-- Node197 -->
<g id="node3" class="node"><title>Node197</title>
<g id="a_node3"><a xlink:href="AP__Math_8h.html#a20e8f8671c282c69c1954652b6d61585" target="_top" xlink:title=" ">
<polygon fill="white" stroke="black" points="457.978,-90 457.978,-110 544.022,-110 544.022,-90 457.978,-90"/>
<text text-anchor="middle" x="501" y="-96" font-family="Helvetica,sans-Serif" font-size="10.00">constrain_value</text>
</a>
</g>
</g>
<!-- Node196&#45;&gt;Node197 -->
<g id="edge2" class="edge"><title>Node196&#45;&gt;Node197</title>
<path fill="none" stroke="midnightblue" d="M413.521,-100C424.241,-100 436.019,-100 447.339,-100"/>
<polygon fill="midnightblue" stroke="midnightblue" points="447.563,-103.5 457.563,-100 447.563,-96.5001 447.563,-103.5"/>
</g>
<!-- Node198 -->
<g id="node4" class="node"><title>Node198</title>
<g id="a_node4"><a xlink:href="namespaceAP.html#afceb236ff617aaaa2b08afacd72532b0" target="_top" xlink:title=" ">
<polygon fill="white" stroke="black" points="594.596,-110 594.596,-130 683.404,-130 683.404,-110 594.596,-110"/>
<text text-anchor="middle" x="639" y="-116" font-family="Helvetica,sans-Serif" font-size="10.00">AP::internalerror</text>
</a>
</g>
</g>
<!-- Node197&#45;&gt;Node198 -->
<g id="edge3" class="edge"><title>Node197&#45;&gt;Node198</title>
<path fill="none" stroke="midnightblue" d="M544.286,-106.218C556.962,-108.083 571.035,-110.152 584.342,-112.109"/>
<polygon fill="midnightblue" stroke="midnightblue" points="583.929,-115.586 594.331,-113.578 584.947,-108.66 583.929,-115.586"/>
</g>
<!-- Node199 -->
<g id="node5" class="node"><title>Node199</title>
<g id="a_node5"><a xlink:href="classAP__InternalError.html#ab34174ba770b976b39a18c2b23e854f2" target="_top" xlink:title=" ">
<polygon fill="white" stroke="black" points="580.426,-71 580.426,-91 697.574,-91 697.574,-71 580.426,-71"/>
<text text-anchor="middle" x="639" y="-77" font-family="Helvetica,sans-Serif" font-size="10.00">AP_InternalError::error</text>
</a>
</g>
</g>
<!-- Node197&#45;&gt;Node199 -->
<g id="edge4" class="edge"><title>Node197&#45;&gt;Node199</title>
<path fill="none" stroke="midnightblue" d="M544.286,-94.0924C552.557,-92.9369 561.424,-91.6981 570.284,-90.4603"/>
<polygon fill="midnightblue" stroke="midnightblue" points="570.833,-93.9177 580.253,-89.0676 569.865,-86.985 570.833,-93.9177"/>
</g>
<!-- Node200 -->
<g id="node6" class="node"><title>Node200</title>
<g id="a_node6"><a xlink:href="namespaceAP__HAL.html#a71832f03d849a0c088f04fc98d3c8143" target="_top" xlink:title=" ">
<polygon fill="white" stroke="black" points="734.091,-71 734.091,-91 817.909,-91 817.909,-71 734.091,-71"/>
<text text-anchor="middle" x="776" y="-77" font-family="Helvetica,sans-Serif" font-size="10.00">AP_HAL::panic</text>
</a>
</g>
</g>
<!-- Node199&#45;&gt;Node200 -->
<g id="edge5" class="edge"><title>Node199&#45;&gt;Node200</title>
<path fill="none" stroke="midnightblue" d="M697.644,-81C706.305,-81 715.188,-81 723.705,-81"/>
<polygon fill="midnightblue" stroke="midnightblue" points="723.873,-84.5001 733.873,-81 723.872,-77.5001 723.873,-84.5001"/>
</g>
<!-- Node201 -->
<g id="node7" class="node"><title>Node201</title>
<g id="a_node7"><a xlink:href="stdio_8h.html#aae132cc6af1eb6cf43bf011d8d63e854" target="_top" xlink:title=" ">
<polygon fill="white" stroke="black" points="887.384,-94 887.384,-114 930.616,-114 930.616,-94 887.384,-94"/>
<text text-anchor="middle" x="909" y="-100" font-family="Helvetica,sans-Serif" font-size="10.00">vprintf</text>
</a>
</g>
</g>
<!-- Node200&#45;&gt;Node201 -->
<g id="edge6" class="edge"><title>Node200&#45;&gt;Node201</title>
<path fill="none" stroke="midnightblue" d="M818.09,-88.2142C837.104,-91.5526 859.321,-95.4533 876.913,-98.542"/>
<polygon fill="midnightblue" stroke="midnightblue" points="876.744,-102.066 887.199,-100.348 877.954,-95.1712 876.744,-102.066"/>
</g>
<!-- Node202 -->
<g id="node8" class="node"><title>Node202</title>
<g id="a_node8"><a xlink:href="classAP__HAL_1_1Scheduler.html#a78c4f1b1f192ac1c99544b6cc8f099b0" target="_top" xlink:title=" ">
<polygon fill="white" stroke="black" points="853.751,-43 853.751,-75 964.249,-75 964.249,-43 853.751,-43"/>
<text text-anchor="start" x="861.751" y="-61" font-family="Helvetica,sans-Serif" font-size="10.00">AP_HAL::Scheduler::</text>
<text text-anchor="middle" x="909" y="-49" font-family="Helvetica,sans-Serif" font-size="10.00">delay_microseconds</text>
</a>
</g>
</g>
<!-- Node200&#45;&gt;Node202 -->
<g id="edge7" class="edge"><title>Node200&#45;&gt;Node202</title>
<path fill="none" stroke="midnightblue" d="M818.09,-74.0994C826.18,-72.7408 834.849,-71.2849 843.495,-69.8329"/>
<polygon fill="midnightblue" stroke="midnightblue" points="844.316,-73.2441 853.599,-68.1361 843.157,-66.3407 844.316,-73.2441"/>
</g>
<!-- Node203&#45;&gt;Node196 -->
<g id="edge9" class="edge"><title>Node203&#45;&gt;Node196</title>
<path fill="none" stroke="midnightblue" d="M259.886,-71.0435C279.261,-76.0475 302.88,-82.1477 323.434,-87.4564"/>
<polygon fill="midnightblue" stroke="midnightblue" points="322.688,-90.8786 333.246,-89.9906 324.439,-84.101 322.688,-90.8786"/>
</g>
<!-- Node204 -->
<g id="node10" class="node"><title>Node204</title>
<g id="a_node10"><a xlink:href="classLowPassFilter.html#a34bc75aa770bc6cc0facee3b43a05bec" target="_top" xlink:title=" ">
<polygon fill="white" stroke="black" points="323.872,-51 323.872,-71 422.128,-71 422.128,-51 323.872,-51"/>
<text text-anchor="middle" x="373" y="-57" font-family="Helvetica,sans-Serif" font-size="10.00">LowPassFilter::get</text>
</a>
</g>
</g>
<!-- Node203&#45;&gt;Node204 -->
<g id="edge10" class="edge"><title>Node203&#45;&gt;Node204</title>
<path fill="none" stroke="midnightblue" d="M280.679,-61C291.424,-61 302.617,-61 313.333,-61"/>
<polygon fill="midnightblue" stroke="midnightblue" points="313.431,-64.5001 323.431,-61 313.43,-57.5001 313.431,-64.5001"/>
</g>
</g>
</svg>
        <g id="navigator" transform="translate(0 0)" fill="#404254">
                <rect fill="#f2f5e9" fill-opacity="0.5" stroke="#606060" stroke-width=".5" x="0" y="0" width="60" height="60"/>
                <use id="zoomplus" xlink:href="#zoomPlus" x="17" y="9" onmousedown="handleZoom(evt,'in')"/>
                <use id="zoomminus" xlink:href="#zoomMin" x="42" y="9" onmousedown="handleZoom(evt,'out')"/>
                <use id="reset" xlink:href="#resetDef" x="30" y="36" onmousedown="handleReset()"/>
                <g id="arrowUp" xlink:href="#dirArrow" transform="translate(30 24)" onmousedown="handlePan(0,-1)">
                  <use xlink:href="#rim" fill="#404040">
                        <set attributeName="fill" to="#808080" begin="arrowUp.mouseover" end="arrowUp.mouseout"/>
                  </use>
                  <path fill="none" stroke="white" stroke-width="1.5" d="M0,-3.0v7 M-2.5,-0.5L0,-3.0L2.5,-0.5"/>
                </g>
                <g id="arrowRight" xlink:href="#dirArrow" transform="rotate(90) translate(36 -43)" onmousedown="handlePan(1,0)">
                  <use xlink:href="#rim" fill="#404040">
                        <set attributeName="fill" to="#808080" begin="arrowRight.mouseover" end="arrowRight.mouseout"/>
                  </use>
                  <path fill="none" stroke="white" stroke-width="1.5" d="M0,-3.0v7 M-2.5,-0.5L0,-3.0L2.5,-0.5"/>
                </g>
                <g id="arrowDown" xlink:href="#dirArrow" transform="rotate(180) translate(-30 -48)" onmousedown="handlePan(0,1)">
                  <use xlink:href="#rim" fill="#404040">
                        <set attributeName="fill" to="#808080" begin="arrowDown.mouseover" end="arrowDown.mouseout"/>
                  </use>
                  <path fill="none" stroke="white" stroke-width="1.5" d="M0,-3.0v7 M-2.5,-0.5L0,-3.0L2.5,-0.5"/>
                </g>
                <g id="arrowLeft" xlink:href="#dirArrow" transform="rotate(270) translate(-36 17)" onmousedown="handlePan(-1,0)">
                  <use xlink:href="#rim" fill="#404040">
                        <set attributeName="fill" to="#808080" begin="arrowLeft.mouseover" end="arrowLeft.mouseout"/>
                  </use>
                  <path fill="none" stroke="white" stroke-width="1.5" d="M0,-3.0v7 M-2.5,-0.5L0,-3.0L2.5,-0.5"/>
                </g>
        </g>
        <svg viewBox="0 0 15 15" width="100%" height="30px" preserveAspectRatio="xMaxYMin meet">
         <g id="arrow_out" transform="scale(0.3 0.3)">
          <a xlink:href="classAP__MotorsMulticopter_aa257b38145c98531f69e438af3158489_cgraph_org.svg" target="_base">
           <rect id="button" ry="5" rx="5" y="6" x="6" height="38" width="38"
                fill="#f2f5e9" fill-opacity="0.5" stroke="#606060" stroke-width="1.0"/>
           <path id="arrow"
             d="M 11.500037,31.436501 C 11.940474,20.09759 22.043105,11.32322 32.158766,21.979434 L 37.068811,17.246167 C 37.068811,17.246167 37.088388,32 37.088388,32 L 22.160133,31.978069 C 22.160133,31.978069 26.997745,27.140456 26.997745,27.140456 C 18.528582,18.264221 13.291696,25.230495 11.500037,31.436501 z"
             style="fill:#404040;"/>
          </a>
         </g>
        </svg>
</svg>
