<?xml version="1.0" encoding="UTF-8" standalone="no"?>
<!DOCTYPE svg PUBLIC "-//W3C//DTD SVG 1.1//EN"
 "http://www.w3.org/Graphics/SVG/1.1/DTD/svg11.dtd">
<!-- Generated by graphviz version 2.30.1 (20130221.2233)
 -->
<!-- Title: AP_Mission::get_current_nav_cmd Pages: 1 -->
<svg width="420pt" height="142pt"
 viewBox="0.00 0.00 420.00 142.00" xmlns="http://www.w3.org/2000/svg" xmlns:xlink="http://www.w3.org/1999/xlink">
<g id="graph0" class="graph" transform="scale(1 1) rotate(0) translate(4 138)">
<title>AP_Mission::get_current_nav_cmd</title>
<polygon fill="white" stroke="white" points="-4,5 -4,-138 417,-138 417,5 -4,5"/>
<!-- Node474 -->
<g id="node1" class="node"><title>Node474</title>
<g id="a_node1"><a xlink:title="get_current_nav_cmd &#45; returns the current &quot;navigation&quot; command">
<polygon fill="#bfbfbf" stroke="black" points="286.53,-51 286.53,-83 411.47,-83 411.47,-51 286.53,-51"/>
<text text-anchor="start" x="294.53" y="-69" font-family="Helvetica,sans-Serif" font-size="10.00">AP_Mission::get_current</text>
<text text-anchor="middle" x="349" y="-57" font-family="Helvetica,sans-Serif" font-size="10.00">_nav_cmd</text>
</a>
</g>
</g>
<!-- Node475 -->
<g id="node2" class="node"><title>Node475</title>
<g id="a_node2"><a xlink:href="classAP__AdvancedFailsafe.html#a017a878d56457eea9bd9a59c07b92190" target="_top" xlink:title=" ">
<polygon fill="white" stroke="black" points="135.803,-102 135.803,-134 250.197,-134 250.197,-102 135.803,-102"/>
<text text-anchor="start" x="143.803" y="-120" font-family="Helvetica,sans-Serif" font-size="10.00">AP_AdvancedFailsafe</text>
<text text-anchor="middle" x="193" y="-108" font-family="Helvetica,sans-Serif" font-size="10.00">::check</text>
</a>
</g>
</g>
<!-- Node474&#45;&gt;Node475 -->
<g id="edge1" class="edge"><title>Node474&#45;&gt;Node475</title>
<path fill="none" stroke="midnightblue" d="M289.723,-86.2997C274.117,-91.4678 257.419,-96.9977 242.41,-101.968"/>
<polygon fill="midnightblue" stroke="midnightblue" points="290.881,-89.6031 299.273,-83.1367 288.68,-82.958 290.881,-89.6031"/>
</g>
<!-- Node476 -->
<g id="node3" class="node"><title>Node476</title>
<g id="a_node3"><a xlink:href="classMissionItemProtocol__Waypoints.html#ab90a684c44ab37cf249d731c52da5bcc" target="_top" xlink:title=" ">
<polygon fill="white" stroke="black" points="137.104,-51 137.104,-83 248.896,-83 248.896,-51 137.104,-51"/>
<text text-anchor="start" x="145.104" y="-69" font-family="Helvetica,sans-Serif" font-size="10.00">MissionItemProtocol</text>
<text text-anchor="middle" x="193" y="-57" font-family="Helvetica,sans-Serif" font-size="10.00">_Waypoints::get_item</text>
</a>
</g>
</g>
<!-- Node474&#45;&gt;Node476 -->
<g id="edge2" class="edge"><title>Node474&#45;&gt;Node476</title>
<path fill="none" stroke="midnightblue" d="M276.135,-67C267.116,-67 258.004,-67 249.295,-67"/>
<polygon fill="midnightblue" stroke="midnightblue" points="276.25,-70.5001 286.25,-67 276.25,-63.5001 276.25,-70.5001"/>
</g>
<!-- Node477 -->
<g id="node4" class="node"><title>Node477</title>
<g id="a_node4"><a xlink:href="classAP__Landing.html#a4cb652398231c274e6061aa6b211366b" target="_top" xlink:title=" ">
<polygon fill="white" stroke="black" points="140.806,-0 140.806,-32 245.194,-32 245.194,-0 140.806,-0"/>
<text text-anchor="start" x="148.806" y="-18" font-family="Helvetica,sans-Serif" font-size="10.00">AP_Landing::restart</text>
<text text-anchor="middle" x="193" y="-6" font-family="Helvetica,sans-Serif" font-size="10.00">_landing_sequence</text>
</a>
</g>
</g>
<!-- Node474&#45;&gt;Node477 -->
<g id="edge3" class="edge"><title>Node474&#45;&gt;Node477</title>
<path fill="none" stroke="midnightblue" d="M289.723,-47.7003C274.117,-42.5322 257.419,-37.0023 242.41,-32.0317"/>
<polygon fill="midnightblue" stroke="midnightblue" points="288.68,-51.042 299.273,-50.8633 290.881,-44.3969 288.68,-51.042"/>
</g>
<!-- Node478 -->
<g id="node5" class="node"><title>Node478</title>
<g id="a_node5"><a xlink:href="classAP__Landing.html#a23d5d937afe630bfa1d3eeea5d767e4b" target="_top" xlink:title=" ">
<polygon fill="white" stroke="black" points="0.0297852,-0 0.0297852,-32 99.9702,-32 99.9702,-0 0.0297852,-0"/>
<text text-anchor="start" x="8.02979" y="-18" font-family="Helvetica,sans-Serif" font-size="10.00">AP_Landing::verify</text>
<text text-anchor="middle" x="50" y="-6" font-family="Helvetica,sans-Serif" font-size="10.00">_abort_landing</text>
</a>
</g>
</g>
<!-- Node477&#45;&gt;Node478 -->
<g id="edge4" class="edge"><title>Node477&#45;&gt;Node478</title>
<path fill="none" stroke="midnightblue" d="M130.625,-16C120.434,-16 109.985,-16 100.148,-16"/>
<polygon fill="midnightblue" stroke="midnightblue" points="130.697,-19.5001 140.697,-16 130.697,-12.5001 130.697,-19.5001"/>
</g>
</g>
</svg>
