<?xml version="1.0" encoding="UTF-8" standalone="no"?>
<!DOCTYPE svg PUBLIC "-//W3C//DTD SVG 1.1//EN"
 "http://www.w3.org/Graphics/SVG/1.1/DTD/svg11.dtd">
<!-- Generated by graphviz version 2.30.1 (20130221.2233)
 -->
<!-- Title: AP_Mount::handle_param_value Pages: 1 -->
<svg width="320pt" height="40pt"
 viewBox="0.00 0.00 320.00 40.00" xmlns="http://www.w3.org/2000/svg" xmlns:xlink="http://www.w3.org/1999/xlink">
<g id="graph0" class="graph" transform="scale(1 1) rotate(0) translate(4 36)">
<title>AP_Mount::handle_param_value</title>
<polygon fill="white" stroke="white" points="-4,5 -4,-36 317,-36 317,5 -4,5"/>
<!-- Node150 -->
<g id="node1" class="node"><title>Node150</title>
<g id="a_node1"><a xlink:title=" ">
<polygon fill="#bfbfbf" stroke="black" points="-0.0932617,-0 -0.0932617,-32 132.093,-32 132.093,-0 -0.0932617,-0"/>
<text text-anchor="start" x="7.90674" y="-18" font-family="Helvetica,sans-Serif" font-size="10.00">AP_Mount::handle_param</text>
<text text-anchor="middle" x="66" y="-6" font-family="Helvetica,sans-Serif" font-size="10.00">_value</text>
</a>
</g>
</g>
<!-- Node151 -->
<g id="node2" class="node"><title>Node151</title>
<g id="a_node2"><a xlink:href="classAP__Mount__Backend.html#a0ac611be514c9ec9778f43c0e2a0fe96" target="_top" xlink:title=" ">
<polygon fill="white" stroke="black" points="168.621,-0 168.621,-32 311.379,-32 311.379,-0 168.621,-0"/>
<text text-anchor="start" x="176.621" y="-18" font-family="Helvetica,sans-Serif" font-size="10.00">AP_Mount_Backend::handle</text>
<text text-anchor="middle" x="240" y="-6" font-family="Helvetica,sans-Serif" font-size="10.00">_param_value</text>
</a>
</g>
</g>
<!-- Node150&#45;&gt;Node151 -->
<g id="edge1" class="edge"><title>Node150&#45;&gt;Node151</title>
<path fill="none" stroke="midnightblue" d="M132.516,-16C140.978,-16 149.72,-16 158.388,-16"/>
<polygon fill="midnightblue" stroke="midnightblue" points="158.51,-19.5001 168.51,-16 158.51,-12.5001 158.51,-19.5001"/>
</g>
</g>
</svg>
