<?xml version="1.0" encoding="UTF-8" standalone="no"?>
<!DOCTYPE svg PUBLIC "-//W3C//DTD SVG 1.1//EN"
 "http://www.w3.org/Graphics/SVG/1.1/DTD/svg11.dtd">
<!-- Generated by graphviz version 2.30.1 (20130221.2233)
 -->
<!-- Title: SITL::Aircraft::set_sprayer Pages: 1 -->
<svg width="250pt" height="40pt"
 viewBox="0.00 0.00 250.00 40.00" xmlns="http://www.w3.org/2000/svg" xmlns:xlink="http://www.w3.org/1999/xlink">
<g id="graph0" class="graph" transform="scale(1 1) rotate(0) translate(4 36)">
<title>SITL::Aircraft::set_sprayer</title>
<polygon fill="white" stroke="white" points="-4,5 -4,-36 247,-36 247,5 -4,5"/>
<!-- Node391 -->
<g id="node1" class="node"><title>Node391</title>
<g id="a_node1"><a xlink:title=" ">
<polygon fill="#bfbfbf" stroke="black" points="148.379,-0 148.379,-32 241.621,-32 241.621,-0 148.379,-0"/>
<text text-anchor="start" x="156.379" y="-18" font-family="Helvetica,sans-Serif" font-size="10.00">SITL::Aircraft::set</text>
<text text-anchor="middle" x="195" y="-6" font-family="Helvetica,sans-Serif" font-size="10.00">_sprayer</text>
</a>
</g>
</g>
<!-- Node392 -->
<g id="node2" class="node"><title>Node392</title>
<g id="a_node2"><a xlink:href="classHALSITL_1_1SITL__State.html#a06b639a288676fcc2775cf34e17e4dd7" target="_top" xlink:title=" ">
<polygon fill="white" stroke="black" points="-0.0786133,-0 -0.0786133,-32 112.079,-32 112.079,-0 -0.0786133,-0"/>
<text text-anchor="start" x="7.92139" y="-18" font-family="Helvetica,sans-Serif" font-size="10.00">HALSITL::SITL_State</text>
<text text-anchor="middle" x="56" y="-6" font-family="Helvetica,sans-Serif" font-size="10.00">::_sitl_setup</text>
</a>
</g>
</g>
<!-- Node391&#45;&gt;Node392 -->
<g id="edge1" class="edge"><title>Node391&#45;&gt;Node392</title>
<path fill="none" stroke="midnightblue" d="M137.821,-16C129.34,-16 120.599,-16 112.14,-16"/>
<polygon fill="midnightblue" stroke="midnightblue" points="138,-19.5001 148,-16 138,-12.5001 138,-19.5001"/>
</g>
</g>
</svg>
