<?xml version="1.0" encoding="UTF-8" standalone="no"?>
<!DOCTYPE svg PUBLIC "-//W3C//DTD SVG 1.1//EN"
 "http://www.w3.org/Graphics/SVG/1.1/DTD/svg11.dtd">
<!-- Generated by graphviz version 2.30.1 (20130221.2233)
 -->
<!-- Title: AP_GPS_Backend::should_log Pages: 1 -->
<svg width="896pt" height="400pt"
 viewBox="0.00 0.00 896.00 400.00" xmlns="http://www.w3.org/2000/svg" xmlns:xlink="http://www.w3.org/1999/xlink">
<g id="graph0" class="graph" transform="scale(1 1) rotate(0) translate(4 396)">
<title>AP_GPS_Backend::should_log</title>
<polygon fill="white" stroke="white" points="-4,5 -4,-396 893,-396 893,5 -4,5"/>
<!-- Node294 -->
<g id="node1" class="node"><title>Node294</title>
<g id="a_node1"><a xlink:title=" ">
<polygon fill="#bfbfbf" stroke="black" points="733.786,-210 733.786,-230 888.214,-230 888.214,-210 733.786,-210"/>
<text text-anchor="middle" x="811" y="-216" font-family="Helvetica,sans-Serif" font-size="10.00">AP_GPS_Backend::should_log</text>
</a>
</g>
</g>
<!-- Node295 -->
<g id="node2" class="node"><title>Node295</title>
<g id="a_node2"><a xlink:href="classAP__GPS__UBLOX.html#afaad8ce1ad6c2192e2608e5731789b25" target="_top" xlink:title=" ">
<polygon fill="white" stroke="black" points="537.128,-333 537.128,-353 694.872,-353 694.872,-333 537.128,-333"/>
<text text-anchor="middle" x="616" y="-339" font-family="Helvetica,sans-Serif" font-size="10.00">AP_GPS_UBLOX::log_mon_hw</text>
</a>
</g>
</g>
<!-- Node294&#45;&gt;Node295 -->
<g id="edge1" class="edge"><title>Node294&#45;&gt;Node295</title>
<path fill="none" stroke="midnightblue" d="M795.543,-238.015C775.924,-261.228 738.627,-301.183 698,-323 690.471,-327.043 682.11,-330.285 673.7,-332.88"/>
<polygon fill="midnightblue" stroke="midnightblue" points="798.262,-240.219 801.944,-230.285 792.87,-235.754 798.262,-240.219"/>
</g>
<!-- Node298 -->
<g id="node5" class="node"><title>Node298</title>
<g id="a_node5"><a xlink:href="classAP__GPS__UBLOX.html#aa371c3daa15a309ab65f1522471ff5c2" target="_top" xlink:title=" ">
<polygon fill="white" stroke="black" points="534.348,-294 534.348,-314 697.652,-314 697.652,-294 534.348,-294"/>
<text text-anchor="middle" x="616" y="-300" font-family="Helvetica,sans-Serif" font-size="10.00">AP_GPS_UBLOX::log_mon_hw2</text>
</a>
</g>
</g>
<!-- Node294&#45;&gt;Node298 -->
<g id="edge4" class="edge"><title>Node294&#45;&gt;Node298</title>
<path fill="none" stroke="midnightblue" d="M786.824,-235.796C764.82,-250.162 730.384,-271.042 698,-284 688.183,-287.928 677.378,-291.242 666.947,-293.973"/>
<polygon fill="midnightblue" stroke="midnightblue" points="789.048,-238.521 795.451,-230.079 785.182,-232.685 789.048,-238.521"/>
</g>
<!-- Node299 -->
<g id="node6" class="node"><title>Node299</title>
<g id="a_node6"><a xlink:href="classAP__GPS__UBLOX.html#a599fc077195cbe106d1da825688b1440" target="_top" xlink:title=" ">
<polygon fill="white" stroke="black" points="536.86,-255 536.86,-275 695.14,-275 695.14,-255 536.86,-255"/>
<text text-anchor="middle" x="616" y="-261" font-family="Helvetica,sans-Serif" font-size="10.00">AP_GPS_UBLOX::log_rxm_raw</text>
</a>
</g>
</g>
<!-- Node294&#45;&gt;Node299 -->
<g id="edge6" class="edge"><title>Node294&#45;&gt;Node299</title>
<path fill="none" stroke="midnightblue" d="M756.679,-232.432C726.287,-239.519 688.695,-248.284 660.168,-254.935"/>
<polygon fill="midnightblue" stroke="midnightblue" points="757.743,-235.778 766.687,-230.099 756.153,-228.961 757.743,-235.778"/>
</g>
<!-- Node300 -->
<g id="node7" class="node"><title>Node300</title>
<g id="a_node7"><a xlink:href="classAP__GPS__UBLOX.html#a3974f2089cb33bed89e19cfe3c7521f8" target="_top" xlink:title=" ">
<polygon fill="white" stroke="black" points="534.36,-372 534.36,-392 697.64,-392 697.64,-372 534.36,-372"/>
<text text-anchor="middle" x="616" y="-378" font-family="Helvetica,sans-Serif" font-size="10.00">AP_GPS_UBLOX::log_rxm_rawx</text>
</a>
</g>
</g>
<!-- Node294&#45;&gt;Node300 -->
<g id="edge8" class="edge"><title>Node294&#45;&gt;Node300</title>
<path fill="none" stroke="midnightblue" d="M800.437,-239.007C783.923,-269.813 747.057,-330.381 698,-362 691.669,-366.081 684.568,-369.329 677.271,-371.914"/>
<polygon fill="midnightblue" stroke="midnightblue" points="803.548,-240.609 805.073,-230.125 797.343,-237.37 803.548,-240.609"/>
</g>
<!-- Node301 -->
<g id="node8" class="node"><title>Node301</title>
<g id="a_node8"><a xlink:href="classAP__GPS__SBP2.html#ae8c7f53ee8183d7f0b915e9b5a494ae6" target="_top" xlink:title=" ">
<polygon fill="white" stroke="black" points="553.52,-153 553.52,-185 678.48,-185 678.48,-153 553.52,-153"/>
<text text-anchor="start" x="561.52" y="-171" font-family="Helvetica,sans-Serif" font-size="10.00">AP_GPS_SBP2::logging</text>
<text text-anchor="middle" x="616" y="-159" font-family="Helvetica,sans-Serif" font-size="10.00">_ext_event</text>
</a>
</g>
</g>
<!-- Node294&#45;&gt;Node301 -->
<g id="edge10" class="edge"><title>Node294&#45;&gt;Node301</title>
<path fill="none" stroke="midnightblue" d="M762.074,-207.336C736.604,-200.605 705.027,-192.261 677.843,-185.078"/>
<polygon fill="midnightblue" stroke="midnightblue" points="761.307,-210.753 771.869,-209.924 763.095,-203.985 761.307,-210.753"/>
</g>
<!-- Node305 -->
<g id="node12" class="node"><title>Node305</title>
<g id="a_node12"><a xlink:href="classAP__GPS__SBP.html#af5d2846c5c8368ab5d6d9456f78cb04d" target="_top" xlink:title=" ">
<polygon fill="white" stroke="black" points="556.301,-0 556.301,-32 675.699,-32 675.699,-0 556.301,-0"/>
<text text-anchor="start" x="564.301" y="-18" font-family="Helvetica,sans-Serif" font-size="10.00">AP_GPS_SBP::logging</text>
<text text-anchor="middle" x="616" y="-6" font-family="Helvetica,sans-Serif" font-size="10.00">_log_full_update</text>
</a>
</g>
</g>
<!-- Node294&#45;&gt;Node305 -->
<g id="edge14" class="edge"><title>Node294&#45;&gt;Node305</title>
<path fill="none" stroke="midnightblue" d="M802.971,-200.101C788.913,-163.175 753.808,-83.9142 698,-41 691.467,-35.9761 683.916,-31.9539 676.105,-28.7355"/>
<polygon fill="midnightblue" stroke="midnightblue" points="799.775,-201.551 806.518,-209.722 806.343,-199.129 799.775,-201.551"/>
</g>
<!-- Node308 -->
<g id="node15" class="node"><title>Node308</title>
<g id="a_node15"><a xlink:href="classAP__GPS__SBP2.html#adc254567a151ff0db903b861319f0d56" target="_top" xlink:title=" ">
<polygon fill="white" stroke="black" points="553.52,-102 553.52,-134 678.48,-134 678.48,-102 553.52,-102"/>
<text text-anchor="start" x="561.52" y="-120" font-family="Helvetica,sans-Serif" font-size="10.00">AP_GPS_SBP2::logging</text>
<text text-anchor="middle" x="616" y="-108" font-family="Helvetica,sans-Serif" font-size="10.00">_log_full_update</text>
</a>
</g>
</g>
<!-- Node294&#45;&gt;Node308 -->
<g id="edge17" class="edge"><title>Node294&#45;&gt;Node308</title>
<path fill="none" stroke="midnightblue" d="M789.943,-203.405C768.382,-186.261 732.534,-159.717 698,-143 691.244,-139.73 683.965,-136.77 676.64,-134.127"/>
<polygon fill="midnightblue" stroke="midnightblue" points="788.02,-206.351 798.001,-209.906 792.415,-200.903 788.02,-206.351"/>
</g>
<!-- Node309 -->
<g id="node16" class="node"><title>Node309</title>
<g id="a_node16"><a xlink:href="classAP__GPS__SBP.html#a03c2f3629f94e7b6df5989cc33d9d59a" target="_top" xlink:title=" ">
<polygon fill="white" stroke="black" points="556.301,-51 556.301,-83 675.699,-83 675.699,-51 556.301,-51"/>
<text text-anchor="start" x="564.301" y="-69" font-family="Helvetica,sans-Serif" font-size="10.00">AP_GPS_SBP::logging</text>
<text text-anchor="middle" x="616" y="-57" font-family="Helvetica,sans-Serif" font-size="10.00">_log_raw_sbp</text>
</a>
</g>
</g>
<!-- Node294&#45;&gt;Node309 -->
<g id="edge18" class="edge"><title>Node294&#45;&gt;Node309</title>
<path fill="none" stroke="midnightblue" d="M798.482,-201.194C780.457,-173.313 742.952,-121.174 698,-92 691.21,-87.5935 683.599,-83.9264 675.833,-80.8845"/>
<polygon fill="midnightblue" stroke="midnightblue" points="795.528,-203.07 803.831,-209.651 801.444,-199.329 795.528,-203.07"/>
</g>
<!-- Node312 -->
<g id="node19" class="node"><title>Node312</title>
<g id="a_node19"><a xlink:href="classAP__GPS__SBP2.html#af58239a6684265d3fde51012411d110c" target="_top" xlink:title=" ">
<polygon fill="white" stroke="black" points="553.52,-204 553.52,-236 678.48,-236 678.48,-204 553.52,-204"/>
<text text-anchor="start" x="561.52" y="-222" font-family="Helvetica,sans-Serif" font-size="10.00">AP_GPS_SBP2::logging</text>
<text text-anchor="middle" x="616" y="-210" font-family="Helvetica,sans-Serif" font-size="10.00">_log_raw_sbp</text>
</a>
</g>
</g>
<!-- Node294&#45;&gt;Node312 -->
<g id="edge22" class="edge"><title>Node294&#45;&gt;Node312</title>
<path fill="none" stroke="midnightblue" d="M723.38,-220C708.341,-220 692.979,-220 678.776,-220"/>
<polygon fill="midnightblue" stroke="midnightblue" points="723.721,-223.5 733.721,-220 723.721,-216.5 723.721,-223.5"/>
</g>
<!-- Node296 -->
<g id="node3" class="node"><title>Node296</title>
<g id="a_node3"><a xlink:href="classAP__GPS__UBLOX.html#a16ae8ab4b0babfbc2245beb0a438ec33" target="_top" xlink:title=" ">
<polygon fill="white" stroke="black" points="343.35,-313 343.35,-333 496.65,-333 496.65,-313 343.35,-313"/>
<text text-anchor="middle" x="420" y="-319" font-family="Helvetica,sans-Serif" font-size="10.00">AP_GPS_UBLOX::_parse_gps</text>
</a>
</g>
</g>
<!-- Node295&#45;&gt;Node296 -->
<g id="edge2" class="edge"><title>Node295&#45;&gt;Node296</title>
<path fill="none" stroke="midnightblue" d="M526.906,-333.918C516.821,-332.878 506.606,-331.825 496.703,-330.804"/>
<polygon fill="midnightblue" stroke="midnightblue" points="526.625,-337.408 536.931,-334.952 527.343,-330.445 526.625,-337.408"/>
</g>
<!-- Node297 -->
<g id="node4" class="node"><title>Node297</title>
<g id="a_node4"><a xlink:href="classAP__GPS__UBLOX.html#a64d0773944721dc3cfdd0c81b31c3cf6" target="_top" xlink:title=" ">
<polygon fill="white" stroke="black" points="167.473,-313 167.473,-333 288.527,-333 288.527,-313 167.473,-313"/>
<text text-anchor="middle" x="228" y="-319" font-family="Helvetica,sans-Serif" font-size="10.00">AP_GPS_UBLOX::read</text>
</a>
</g>
</g>
<!-- Node296&#45;&gt;Node297 -->
<g id="edge3" class="edge"><title>Node296&#45;&gt;Node297</title>
<path fill="none" stroke="midnightblue" d="M332.83,-323C317.918,-323 302.714,-323 288.704,-323"/>
<polygon fill="midnightblue" stroke="midnightblue" points="333.088,-326.5 343.088,-323 333.088,-319.5 333.088,-326.5"/>
</g>
<!-- Node298&#45;&gt;Node296 -->
<g id="edge5" class="edge"><title>Node298&#45;&gt;Node296</title>
<path fill="none" stroke="midnightblue" d="M523.919,-312.92C514.832,-313.81 505.675,-314.707 496.77,-315.579"/>
<polygon fill="midnightblue" stroke="midnightblue" points="524.52,-316.378 534.131,-311.92 523.838,-309.412 524.52,-316.378"/>
</g>
<!-- Node299&#45;&gt;Node296 -->
<g id="edge7" class="edge"><title>Node299&#45;&gt;Node296</title>
<path fill="none" stroke="midnightblue" d="M561.629,-277.515C552.381,-279.873 542.886,-282.414 534,-285 504.588,-293.561 471.416,-304.924 448.661,-312.988"/>
<polygon fill="midnightblue" stroke="midnightblue" points="562.676,-280.861 571.526,-275.036 560.975,-274.071 562.676,-280.861"/>
</g>
<!-- Node300&#45;&gt;Node296 -->
<g id="edge9" class="edge"><title>Node300&#45;&gt;Node296</title>
<path fill="none" stroke="midnightblue" d="M561.293,-369.463C552.148,-367.121 542.773,-364.591 534,-362 504.344,-353.24 470.929,-341.466 448.178,-333.153"/>
<polygon fill="midnightblue" stroke="midnightblue" points="560.535,-372.881 571.087,-371.923 562.241,-366.092 560.535,-372.881"/>
</g>
<!-- Node302 -->
<g id="node9" class="node"><title>Node302</title>
<g id="a_node9"><a xlink:href="classAP__GPS__SBP2.html#ac64f29dd084dc165c676cfd2751e77ae" target="_top" xlink:title=" ">
<polygon fill="white" stroke="black" points="342.515,-178 342.515,-210 497.485,-210 497.485,-178 342.515,-178"/>
<text text-anchor="start" x="350.515" y="-196" font-family="Helvetica,sans-Serif" font-size="10.00">AP_GPS_SBP2::_sbp_process</text>
<text text-anchor="middle" x="420" y="-184" font-family="Helvetica,sans-Serif" font-size="10.00">_message</text>
</a>
</g>
</g>
<!-- Node301&#45;&gt;Node302 -->
<g id="edge11" class="edge"><title>Node301&#45;&gt;Node302</title>
<path fill="none" stroke="midnightblue" d="M543.256,-178.245C528.452,-180.153 512.806,-182.169 497.83,-184.099"/>
<polygon fill="midnightblue" stroke="midnightblue" points="543.88,-181.694 553.351,-176.945 542.985,-174.751 543.88,-181.694"/>
</g>
<!-- Node303 -->
<g id="node10" class="node"><title>Node303</title>
<g id="a_node10"><a xlink:href="classAP__GPS__SBP2.html#a401dc8505b1460b2cacbafea3d223a91" target="_top" xlink:title=" ">
<polygon fill="white" stroke="black" points="150.515,-184 150.515,-204 305.485,-204 305.485,-184 150.515,-184"/>
<text text-anchor="middle" x="228" y="-190" font-family="Helvetica,sans-Serif" font-size="10.00">AP_GPS_SBP2::_sbp_process</text>
</a>
</g>
</g>
<!-- Node302&#45;&gt;Node303 -->
<g id="edge12" class="edge"><title>Node302&#45;&gt;Node303</title>
<path fill="none" stroke="midnightblue" d="M332.022,-194C323.242,-194 314.371,-194 305.71,-194"/>
<polygon fill="midnightblue" stroke="midnightblue" points="332.267,-197.5 342.267,-194 332.267,-190.5 332.267,-197.5"/>
</g>
<!-- Node304 -->
<g id="node11" class="node"><title>Node304</title>
<g id="a_node11"><a xlink:href="classAP__GPS__SBP2.html#a251cdad10dff6c4e02d59f0507e5f3b6" target="_top" xlink:title=" ">
<polygon fill="white" stroke="black" points="0.638184,-184 0.638184,-204 113.362,-204 113.362,-184 0.638184,-184"/>
<text text-anchor="middle" x="57" y="-190" font-family="Helvetica,sans-Serif" font-size="10.00">AP_GPS_SBP2::read</text>
</a>
</g>
</g>
<!-- Node303&#45;&gt;Node304 -->
<g id="edge13" class="edge"><title>Node303&#45;&gt;Node304</title>
<path fill="none" stroke="midnightblue" d="M140.209,-194C131.166,-194 122.158,-194 113.6,-194"/>
<polygon fill="midnightblue" stroke="midnightblue" points="140.412,-197.5 150.412,-194 140.412,-190.5 140.412,-197.5"/>
</g>
<!-- Node306 -->
<g id="node13" class="node"><title>Node306</title>
<g id="a_node13"><a xlink:href="classAP__GPS__SBP.html#af9e1e7cae1c58891c9a47a6ae6425491" target="_top" xlink:title=" ">
<polygon fill="white" stroke="black" points="164.971,-3 164.971,-35 291.029,-35 291.029,-3 164.971,-3"/>
<text text-anchor="start" x="172.971" y="-21" font-family="Helvetica,sans-Serif" font-size="10.00">AP_GPS_SBP::_attempt</text>
<text text-anchor="middle" x="228" y="-9" font-family="Helvetica,sans-Serif" font-size="10.00">_state_update</text>
</a>
</g>
</g>
<!-- Node305&#45;&gt;Node306 -->
<g id="edge15" class="edge"><title>Node305&#45;&gt;Node306</title>
<path fill="none" stroke="midnightblue" d="M545.577,-16.5396C473.203,-17.102 360.818,-17.9755 291.238,-18.5163"/>
<polygon fill="midnightblue" stroke="midnightblue" points="545.982,-20.0366 555.955,-16.4589 545.928,-13.0368 545.982,-20.0366"/>
</g>
<!-- Node307 -->
<g id="node14" class="node"><title>Node307</title>
<g id="a_node14"><a xlink:href="classAP__GPS__SBP.html#a4b4a47d9631302cd12061493aa77299a" target="_top" xlink:title=" ">
<polygon fill="white" stroke="black" points="3.41895,-32 3.41895,-52 110.581,-52 110.581,-32 3.41895,-32"/>
<text text-anchor="middle" x="57" y="-38" font-family="Helvetica,sans-Serif" font-size="10.00">AP_GPS_SBP::read</text>
</a>
</g>
</g>
<!-- Node306&#45;&gt;Node307 -->
<g id="edge16" class="edge"><title>Node306&#45;&gt;Node307</title>
<path fill="none" stroke="midnightblue" d="M154.484,-28.8691C139.797,-30.8679 124.616,-32.9339 110.767,-34.8187"/>
<polygon fill="midnightblue" stroke="midnightblue" points="155.114,-32.3156 164.551,-27.499 154.17,-25.3796 155.114,-32.3156"/>
</g>
<!-- Node310 -->
<g id="node17" class="node"><title>Node310</title>
<g id="a_node17"><a xlink:href="classAP__GPS__SBP.html#a95d51866fda5a620229c74d5684acce4" target="_top" xlink:title=" ">
<polygon fill="white" stroke="black" points="345.296,-50 345.296,-82 494.704,-82 494.704,-50 345.296,-50"/>
<text text-anchor="start" x="353.296" y="-68" font-family="Helvetica,sans-Serif" font-size="10.00">AP_GPS_SBP::_sbp_process</text>
<text text-anchor="middle" x="420" y="-56" font-family="Helvetica,sans-Serif" font-size="10.00">_message</text>
</a>
</g>
</g>
<!-- Node309&#45;&gt;Node310 -->
<g id="edge19" class="edge"><title>Node309&#45;&gt;Node310</title>
<path fill="none" stroke="midnightblue" d="M546.125,-66.645C529.557,-66.5596 511.79,-66.468 494.999,-66.3814"/>
<polygon fill="midnightblue" stroke="midnightblue" points="546.249,-70.1456 556.267,-66.6973 546.285,-63.1457 546.249,-70.1456"/>
</g>
<!-- Node311 -->
<g id="node18" class="node"><title>Node311</title>
<g id="a_node18"><a xlink:href="classAP__GPS__SBP.html#ad6291fa91e5c338da770ffdfefb6cd8a" target="_top" xlink:title=" ">
<polygon fill="white" stroke="black" points="153.296,-55 153.296,-75 302.704,-75 302.704,-55 153.296,-55"/>
<text text-anchor="middle" x="228" y="-61" font-family="Helvetica,sans-Serif" font-size="10.00">AP_GPS_SBP::_sbp_process</text>
</a>
</g>
</g>
<!-- Node310&#45;&gt;Node311 -->
<g id="edge20" class="edge"><title>Node310&#45;&gt;Node311</title>
<path fill="none" stroke="midnightblue" d="M335.095,-65.5584C324.404,-65.5021 313.522,-65.4449 303.002,-65.3895"/>
<polygon fill="midnightblue" stroke="midnightblue" points="335.251,-69.0592 345.269,-65.6119 335.288,-62.0593 335.251,-69.0592"/>
</g>
<!-- Node311&#45;&gt;Node307 -->
<g id="edge21" class="edge"><title>Node311&#45;&gt;Node307</title>
<path fill="none" stroke="midnightblue" d="M143.248,-53.6018C132.203,-52.0986 121.14,-50.593 110.815,-49.1879"/>
<polygon fill="midnightblue" stroke="midnightblue" points="142.985,-57.0982 153.366,-54.9788 143.929,-50.1621 142.985,-57.0982"/>
</g>
<!-- Node312&#45;&gt;Node302 -->
<g id="edge23" class="edge"><title>Node312&#45;&gt;Node302</title>
<path fill="none" stroke="midnightblue" d="M543.256,-210.385C528.452,-208.401 512.806,-206.304 497.83,-204.297"/>
<polygon fill="midnightblue" stroke="midnightblue" points="542.974,-213.878 553.351,-211.738 543.904,-206.94 542.974,-213.878"/>
</g>
</g>
</svg>
