<?xml version="1.0" encoding="UTF-8" standalone="no"?>
<!DOCTYPE svg PUBLIC "-//W3C//DTD SVG 1.1//EN"
 "http://www.w3.org/Graphics/SVG/1.1/DTD/svg11.dtd">
<!-- Generated by graphviz version 2.30.1 (20130221.2233)
 -->
<!-- Title: AP_SteerController::get_steering_out_rate Pages: 1 -->
<svg width="318pt" height="91pt"
 viewBox="0.00 0.00 318.00 91.00" xmlns="http://www.w3.org/2000/svg" xmlns:xlink="http://www.w3.org/1999/xlink">
<g id="graph0" class="graph" transform="scale(1 1) rotate(0) translate(4 87)">
<title>AP_SteerController::get_steering_out_rate</title>
<polygon fill="white" stroke="white" points="-4,5 -4,-87 315,-87 315,5 -4,5"/>
<!-- Node133 -->
<g id="node1" class="node"><title>Node133</title>
<g id="a_node1"><a xlink:title=" ">
<polygon fill="#bfbfbf" stroke="black" points="190.574,-25 190.574,-57 309.426,-57 309.426,-25 190.574,-25"/>
<text text-anchor="start" x="198.574" y="-43" font-family="Helvetica,sans-Serif" font-size="10.00">AP_SteerController</text>
<text text-anchor="middle" x="250" y="-31" font-family="Helvetica,sans-Serif" font-size="10.00">::get_steering_out_rate</text>
</a>
</g>
</g>
<!-- Node134 -->
<g id="node2" class="node"><title>Node134</title>
<g id="a_node2"><a xlink:href="classAP__SteerController.html#a58fa2b841c4507318c4560ff237b4db9" target="_top" xlink:title=" ">
<polygon fill="white" stroke="black" points="0.618652,-51 0.618652,-83 153.381,-83 153.381,-51 0.618652,-51"/>
<text text-anchor="start" x="8.61865" y="-69" font-family="Helvetica,sans-Serif" font-size="10.00">AP_SteerController</text>
<text text-anchor="middle" x="77" y="-57" font-family="Helvetica,sans-Serif" font-size="10.00">::get_steering_out_angle_error</text>
</a>
</g>
</g>
<!-- Node133&#45;&gt;Node134 -->
<g id="edge1" class="edge"><title>Node133&#45;&gt;Node134</title>
<path fill="none" stroke="midnightblue" d="M180.051,-51.4834C171.335,-52.8087 162.38,-54.1704 153.567,-55.5103"/>
<polygon fill="midnightblue" stroke="midnightblue" points="180.791,-54.9112 190.152,-49.9477 179.739,-47.9908 180.791,-54.9112"/>
</g>
<!-- Node135 -->
<g id="node3" class="node"><title>Node135</title>
<g id="a_node3"><a xlink:href="classAP__SteerController.html#a6285aeb38fd5614ecd53ae0b83d162ba" target="_top" xlink:title=" ">
<polygon fill="white" stroke="black" points="6.45605,-0 6.45605,-32 147.544,-32 147.544,-0 6.45605,-0"/>
<text text-anchor="start" x="14.4561" y="-18" font-family="Helvetica,sans-Serif" font-size="10.00">AP_SteerController</text>
<text text-anchor="middle" x="77" y="-6" font-family="Helvetica,sans-Serif" font-size="10.00">::get_steering_out_lat_accel</text>
</a>
</g>
</g>
<!-- Node133&#45;&gt;Node135 -->
<g id="edge2" class="edge"><title>Node133&#45;&gt;Node135</title>
<path fill="none" stroke="midnightblue" d="M180.028,-30.9164C169.331,-29.3524 158.274,-27.736 147.564,-26.1701"/>
<polygon fill="midnightblue" stroke="midnightblue" points="179.75,-34.4129 190.152,-32.3964 180.763,-27.4865 179.75,-34.4129"/>
</g>
</g>
</svg>
