<?xml version="1.0" encoding="UTF-8" standalone="no"?>
<!DOCTYPE svg PUBLIC "-//W3C//DTD SVG 1.1//EN"
 "http://www.w3.org/Graphics/SVG/1.1/DTD/svg11.dtd">
<!-- Generated by graphviz version 2.30.1 (20130221.2233)
 -->
<!-- Title: AP_RangeFinder_VL53L1X::write_register Pages: 1 -->
<!--zoomable 243 -->
<svg id="main" version="1.1" xmlns="http://www.w3.org/2000/svg" xmlns:xlink="http://www.w3.org/1999/xlink" xml:space="preserve" onload="init(evt)">
<style type="text/css"><![CDATA[
.edge:hover path { stroke: red; }
.edge:hover polygon { stroke: red; fill: red; }
]]></style>
<script type="text/javascript"><![CDATA[
var edges = document.getElementsByTagName('g');
if (edges && edges.length) {
  for (var i=0;i<edges.length;i++) {
    if (edges[i].id.substr(0,4)=='edge') {
      edges[i].setAttribute('class','edge');
    }
  }
}
]]></script>
        <defs>
                <circle id="rim" cx="0" cy="0" r="7"/>
                <circle id="rim2" cx="0" cy="0" r="3.5"/>
                <g id="zoomPlus">
                        <use xlink:href="#rim" fill="#404040">
                                <set attributeName="fill" to="#808080" begin="zoomplus.mouseover" end="zoomplus.mouseout"/>
                        </use>
                        <path d="M-4,0h8M0,-4v8" fill="none" stroke="white" stroke-width="1.5" pointer-events="none"/>
                </g>
                <g id="zoomMin">
                        <use xlink:href="#rim" fill="#404040">
                                <set attributeName="fill" to="#808080" begin="zoomminus.mouseover" end="zoomminus.mouseout"/>
                        </use>
                        <path d="M-4,0h8" fill="none" stroke="white" stroke-width="1.5" pointer-events="none"/>
                </g>
                <g id="dirArrow">
                        <path fill="none" stroke="white" stroke-width="1.5" d="M0,-3.0v7 M-2.5,-0.5L0,-3.0L2.5,-0.5"/>
                </g>
               <g id="resetDef">
                       <use xlink:href="#rim2" fill="#404040">
                               <set attributeName="fill" to="#808080" begin="reset.mouseover" end="reset.mouseout"/>
                       </use>
               </g>
        </defs>

<script type="text/javascript">
var viewWidth = 1394;
var viewHeight = 243;
var sectionId = 'dynsection-36';
</script>
<script xlink:href="svgpan.js"/>
<svg id="graph" class="graph">
<g id="viewport">
<title>AP_RangeFinder_VL53L1X::write_register</title>
<polygon fill="white" stroke="white" points="-4,5 -4,-238.807 1391,-238.807 1391,5 -4,5"/>
<!-- Node320 -->
<g id="node1" class="node"><title>Node320</title>
<g id="a_node1"><a xlink:title=" ">
<polygon fill="#bfbfbf" stroke="black" points="1246.29,-116 1246.29,-148 1385.71,-148 1385.71,-116 1246.29,-116"/>
<text text-anchor="start" x="1254.29" y="-134" font-family="Helvetica,sans-Serif" font-size="10.00">AP_RangeFinder_VL53L1X</text>
<text text-anchor="middle" x="1316" y="-122" font-family="Helvetica,sans-Serif" font-size="10.00">::write_register</text>
</a>
</g>
</g>
<!-- Node321 -->
<g id="node2" class="node"><title>Node321</title>
<g id="a_node2"><a xlink:href="classAP__RangeFinder__VL53L1X.html#a51e41323966d652ad9969755fbb8b2ce" target="_top" xlink:title=" ">
<polygon fill="white" stroke="black" points="876.289,-180 876.289,-212 1015.71,-212 1015.71,-180 876.289,-180"/>
<text text-anchor="start" x="884.289" y="-198" font-family="Helvetica,sans-Serif" font-size="10.00">AP_RangeFinder_VL53L1X</text>
<text text-anchor="middle" x="946" y="-186" font-family="Helvetica,sans-Serif" font-size="10.00">::get_reading</text>
</a>
</g>
</g>
<!-- Node320&#45;&gt;Node321 -->
<g id="edge1" class="edge"><title>Node320&#45;&gt;Node321</title>
<path fill="none" stroke="midnightblue" d="M1295.82,-155.86C1276.71,-177.553 1245.21,-208.085 1210,-221 1137.44,-247.613 1046.46,-228.362 992.742,-212.093"/>
<polygon fill="midnightblue" stroke="midnightblue" points="1298.68,-157.908 1302.52,-148.034 1293.36,-153.356 1298.68,-157.908"/>
</g>
<!-- Node323 -->
<g id="node4" class="node"><title>Node323</title>
<g id="a_node4"><a xlink:href="classAP__RangeFinder__VL53L1X.html#aa3a2666e05e882690b533dd99c975024" target="_top" xlink:title=" ">
<polygon fill="white" stroke="black" points="524.289,-90 524.289,-122 663.711,-122 663.711,-90 524.289,-90"/>
<text text-anchor="start" x="532.289" y="-108" font-family="Helvetica,sans-Serif" font-size="10.00">AP_RangeFinder_VL53L1X</text>
<text text-anchor="middle" x="594" y="-96" font-family="Helvetica,sans-Serif" font-size="10.00">::init</text>
</a>
</g>
</g>
<!-- Node320&#45;&gt;Node323 -->
<g id="edge8" class="edge"><title>Node320&#45;&gt;Node323</title>
<path fill="none" stroke="midnightblue" d="M1235.76,-134.388C1118.41,-137.036 891.639,-138.741 700,-120 688.286,-118.854 675.866,-117.407 663.826,-115.879"/>
<polygon fill="midnightblue" stroke="midnightblue" points="1236.17,-137.88 1246.08,-134.147 1236,-130.882 1236.17,-137.88"/>
</g>
<!-- Node328 -->
<g id="node9" class="node"><title>Node328</title>
<g id="a_node9"><a xlink:href="classAP__RangeFinder__VL53L1X.html#a54f66b0f5ec3f1e112ab970ad933a322" target="_top" xlink:title=" ">
<polygon fill="white" stroke="black" points="876.289,-90 876.289,-122 1015.71,-122 1015.71,-90 876.289,-90"/>
<text text-anchor="start" x="884.289" y="-108" font-family="Helvetica,sans-Serif" font-size="10.00">AP_RangeFinder_VL53L1X</text>
<text text-anchor="middle" x="946" y="-96" font-family="Helvetica,sans-Serif" font-size="10.00">::setDistanceMode</text>
</a>
</g>
</g>
<!-- Node320&#45;&gt;Node328 -->
<g id="edge9" class="edge"><title>Node320&#45;&gt;Node328</title>
<path fill="none" stroke="midnightblue" d="M1235.94,-126.414C1170.42,-121.785 1078.25,-115.273 1015.76,-110.858"/>
<polygon fill="midnightblue" stroke="midnightblue" points="1235.99,-129.927 1246.21,-127.14 1236.49,-122.944 1235.99,-129.927"/>
</g>
<!-- Node329 -->
<g id="node10" class="node"><title>Node329</title>
<g id="a_node10"><a xlink:href="classAP__RangeFinder__VL53L1X.html#ad2788a0a70417b9225dc30dc76ffbaca" target="_top" xlink:title=" ">
<polygon fill="white" stroke="black" points="1052.32,-52 1052.32,-84 1209.68,-84 1209.68,-52 1052.32,-52"/>
<text text-anchor="start" x="1060.32" y="-70" font-family="Helvetica,sans-Serif" font-size="10.00">AP_RangeFinder_VL53L1X</text>
<text text-anchor="middle" x="1131" y="-58" font-family="Helvetica,sans-Serif" font-size="10.00">::setMeasurementTimingBudget</text>
</a>
</g>
</g>
<!-- Node320&#45;&gt;Node329 -->
<g id="edge11" class="edge"><title>Node320&#45;&gt;Node329</title>
<path fill="none" stroke="midnightblue" d="M1259.09,-112.447C1233.06,-103.345 1202.49,-92.6509 1177.85,-84.0338"/>
<polygon fill="midnightblue" stroke="midnightblue" points="1258.23,-115.853 1268.82,-115.85 1260.54,-109.245 1258.23,-115.853"/>
</g>
<!-- Node330 -->
<g id="node11" class="node"><title>Node330</title>
<g id="a_node11"><a xlink:href="classAP__RangeFinder__VL53L1X.html#afac1585f522f661b13b8ed075696fc70" target="_top" xlink:title=" ">
<polygon fill="white" stroke="black" points="1061.29,-180 1061.29,-212 1200.71,-212 1200.71,-180 1061.29,-180"/>
<text text-anchor="start" x="1069.29" y="-198" font-family="Helvetica,sans-Serif" font-size="10.00">AP_RangeFinder_VL53L1X</text>
<text text-anchor="middle" x="1131" y="-186" font-family="Helvetica,sans-Serif" font-size="10.00">::setupManualCalibration</text>
</a>
</g>
</g>
<!-- Node320&#45;&gt;Node330 -->
<g id="edge14" class="edge"><title>Node320&#45;&gt;Node330</title>
<path fill="none" stroke="midnightblue" d="M1259.09,-151.553C1233.06,-160.655 1202.49,-171.349 1177.85,-179.966"/>
<polygon fill="midnightblue" stroke="midnightblue" points="1260.54,-154.755 1268.82,-148.15 1258.23,-148.147 1260.54,-154.755"/>
</g>
<!-- Node331 -->
<g id="node12" class="node"><title>Node331</title>
<g id="a_node12"><a xlink:href="classAP__RangeFinder__VL53L1X.html#aaba5bcb17a1894d8c6a2a8b9eb479cd3" target="_top" xlink:title=" ">
<polygon fill="white" stroke="black" points="700.289,-0 700.289,-32 839.711,-32 839.711,-0 700.289,-0"/>
<text text-anchor="start" x="708.289" y="-18" font-family="Helvetica,sans-Serif" font-size="10.00">AP_RangeFinder_VL53L1X</text>
<text text-anchor="middle" x="770" y="-6" font-family="Helvetica,sans-Serif" font-size="10.00">::startContinuous</text>
</a>
</g>
</g>
<!-- Node320&#45;&gt;Node331 -->
<g id="edge16" class="edge"><title>Node320&#45;&gt;Node331</title>
<path fill="none" stroke="midnightblue" d="M1295.37,-107.977C1276.15,-86.404 1244.74,-56.0335 1210,-42 1087,7.68387 928.738,1.90263 839.739,-6.94097"/>
<polygon fill="midnightblue" stroke="midnightblue" points="1292.93,-110.502 1302.13,-115.763 1298.22,-105.915 1292.93,-110.502"/>
</g>
<!-- Node322 -->
<g id="node3" class="node"><title>Node322</title>
<g id="a_node3"><a xlink:href="classAP__RangeFinder__VL53L1X.html#afb93972292f9f948c590312038a46eed" target="_top" xlink:title=" ">
<polygon fill="white" stroke="black" points="700.289,-180 700.289,-212 839.711,-212 839.711,-180 700.289,-180"/>
<text text-anchor="start" x="708.289" y="-198" font-family="Helvetica,sans-Serif" font-size="10.00">AP_RangeFinder_VL53L1X</text>
<text text-anchor="middle" x="770" y="-186" font-family="Helvetica,sans-Serif" font-size="10.00">::timer</text>
</a>
</g>
</g>
<!-- Node321&#45;&gt;Node322 -->
<g id="edge2" class="edge"><title>Node321&#45;&gt;Node322</title>
<path fill="none" stroke="midnightblue" d="M866.039,-196C857.296,-196 848.444,-196 839.84,-196"/>
<polygon fill="midnightblue" stroke="midnightblue" points="866.231,-199.5 876.231,-196 866.231,-192.5 866.231,-199.5"/>
</g>
<!-- Node322&#45;&gt;Node323 -->
<g id="edge3" class="edge"><title>Node322&#45;&gt;Node323</title>
<path fill="none" stroke="midnightblue" d="M722.14,-175.63C714.681,-172.192 707.09,-168.576 700,-165 673.115,-151.442 643.253,-134.468 622.27,-122.212"/>
<polygon fill="midnightblue" stroke="midnightblue" points="720.918,-178.919 731.47,-179.873 723.816,-172.547 720.918,-178.919"/>
</g>
<!-- Node324 -->
<g id="node5" class="node"><title>Node324</title>
<g id="a_node5"><a xlink:href="classAP__RangeFinder__VL53L1X.html#a5b63daf9926d05b8249e0a4b87e3b1b3" target="_top" xlink:title=" ">
<polygon fill="white" stroke="black" points="348.289,-90 348.289,-122 487.711,-122 487.711,-90 348.289,-90"/>
<text text-anchor="start" x="356.289" y="-108" font-family="Helvetica,sans-Serif" font-size="10.00">AP_RangeFinder_VL53L1X</text>
<text text-anchor="middle" x="418" y="-96" font-family="Helvetica,sans-Serif" font-size="10.00">::detect</text>
</a>
</g>
</g>
<!-- Node323&#45;&gt;Node324 -->
<g id="edge4" class="edge"><title>Node323&#45;&gt;Node324</title>
<path fill="none" stroke="midnightblue" d="M514.039,-106C505.296,-106 496.444,-106 487.84,-106"/>
<polygon fill="midnightblue" stroke="midnightblue" points="514.231,-109.5 524.231,-106 514.231,-102.5 514.231,-109.5"/>
</g>
<!-- Node325 -->
<g id="node6" class="node"><title>Node325</title>
<g id="a_node6"><a xlink:href="classRangeFinder.html#a2d16a636e444ce916e524d1e2623d1d3" target="_top" xlink:title=" ">
<polygon fill="white" stroke="black" points="204.695,-90 204.695,-122 311.305,-122 311.305,-90 204.695,-90"/>
<text text-anchor="start" x="212.695" y="-108" font-family="Helvetica,sans-Serif" font-size="10.00">RangeFinder::detect</text>
<text text-anchor="middle" x="258" y="-96" font-family="Helvetica,sans-Serif" font-size="10.00">_instance</text>
</a>
</g>
</g>
<!-- Node324&#45;&gt;Node325 -->
<g id="edge5" class="edge"><title>Node324&#45;&gt;Node325</title>
<path fill="none" stroke="midnightblue" d="M338.012,-106C329.004,-106 319.995,-106 311.454,-106"/>
<polygon fill="midnightblue" stroke="midnightblue" points="338.159,-109.5 348.159,-106 338.158,-102.5 338.159,-109.5"/>
</g>
<!-- Node326 -->
<g id="node7" class="node"><title>Node326</title>
<g id="a_node7"><a xlink:href="classRangeFinder.html#ad3e3b3a548b8da70aedd97c4be3a5b6d" target="_top" xlink:title=" ">
<polygon fill="white" stroke="black" points="75.9238,-96 75.9238,-116 168.076,-116 168.076,-96 75.9238,-96"/>
<text text-anchor="middle" x="122" y="-102" font-family="Helvetica,sans-Serif" font-size="10.00">RangeFinder::init</text>
</a>
</g>
</g>
<!-- Node325&#45;&gt;Node326 -->
<g id="edge6" class="edge"><title>Node325&#45;&gt;Node326</title>
<path fill="none" stroke="midnightblue" d="M194.287,-106C185.583,-106 176.783,-106 168.476,-106"/>
<polygon fill="midnightblue" stroke="midnightblue" points="194.424,-109.5 204.424,-106 194.424,-102.5 194.424,-109.5"/>
</g>
<!-- Node327 -->
<g id="node8" class="node"><title>Node327</title>
<g id="a_node8"><a xlink:href="RFIND__test_8cpp.html#a4fc01d736fe50cf5b977f755b675f11d" target="_top" xlink:title=" ">
<polygon fill="white" stroke="black" points="-0.231445,-96 -0.231445,-116 40.2314,-116 40.2314,-96 -0.231445,-96"/>
<text text-anchor="middle" x="20" y="-102" font-family="Helvetica,sans-Serif" font-size="10.00">setup</text>
</a>
</g>
</g>
<!-- Node326&#45;&gt;Node327 -->
<g id="edge7" class="edge"><title>Node326&#45;&gt;Node327</title>
<path fill="none" stroke="midnightblue" d="M65.4836,-106C56.4862,-106 47.73,-106 40.3996,-106"/>
<polygon fill="midnightblue" stroke="midnightblue" points="65.6814,-109.5 75.6814,-106 65.6814,-102.5 65.6814,-109.5"/>
</g>
<!-- Node328&#45;&gt;Node323 -->
<g id="edge10" class="edge"><title>Node328&#45;&gt;Node323</title>
<path fill="none" stroke="midnightblue" d="M865.95,-106C805.145,-106 721.971,-106 663.873,-106"/>
<polygon fill="midnightblue" stroke="midnightblue" points="866.269,-109.5 876.269,-106 866.269,-102.5 866.269,-109.5"/>
</g>
<!-- Node329&#45;&gt;Node323 -->
<g id="edge12" class="edge"><title>Node329&#45;&gt;Node323</title>
<path fill="none" stroke="midnightblue" d="M1041.9,-71.1854C992.998,-73.1989 931.094,-76.1517 876,-80 803.544,-85.061 720.771,-92.9797 663.929,-98.749"/>
<polygon fill="midnightblue" stroke="midnightblue" points="1042.28,-74.6729 1052.13,-70.77 1042,-67.6786 1042.28,-74.6729"/>
</g>
<!-- Node329&#45;&gt;Node328 -->
<g id="edge13" class="edge"><title>Node329&#45;&gt;Node328</title>
<path fill="none" stroke="midnightblue" d="M1043.06,-86.054C1033.93,-87.9499 1024.73,-89.8583 1015.85,-91.7036"/>
<polygon fill="midnightblue" stroke="midnightblue" points="1043.84,-89.4654 1052.92,-84.0053 1042.42,-82.6116 1043.84,-89.4654"/>
</g>
<!-- Node330&#45;&gt;Node321 -->
<g id="edge15" class="edge"><title>Node330&#45;&gt;Node321</title>
<path fill="none" stroke="midnightblue" d="M1050.91,-196C1039.24,-196 1027.3,-196 1015.86,-196"/>
<polygon fill="midnightblue" stroke="midnightblue" points="1051.08,-199.5 1061.08,-196 1051.08,-192.5 1051.08,-199.5"/>
</g>
<!-- Node331&#45;&gt;Node323 -->
<g id="edge17" class="edge"><title>Node331&#45;&gt;Node323</title>
<path fill="none" stroke="midnightblue" d="M722.14,-36.3701C714.681,-39.808 707.09,-43.4242 700,-47 673.115,-60.5584 643.253,-77.5316 622.27,-89.788"/>
<polygon fill="midnightblue" stroke="midnightblue" points="723.816,-39.4529 731.47,-32.1271 720.918,-33.0809 723.816,-39.4529"/>
</g>
</g>
</svg>
        <g id="navigator" transform="translate(0 0)" fill="#404254">
                <rect fill="#f2f5e9" fill-opacity="0.5" stroke="#606060" stroke-width=".5" x="0" y="0" width="60" height="60"/>
                <use id="zoomplus" xlink:href="#zoomPlus" x="17" y="9" onmousedown="handleZoom(evt,'in')"/>
                <use id="zoomminus" xlink:href="#zoomMin" x="42" y="9" onmousedown="handleZoom(evt,'out')"/>
                <use id="reset" xlink:href="#resetDef" x="30" y="36" onmousedown="handleReset()"/>
                <g id="arrowUp" xlink:href="#dirArrow" transform="translate(30 24)" onmousedown="handlePan(0,-1)">
                  <use xlink:href="#rim" fill="#404040">
                        <set attributeName="fill" to="#808080" begin="arrowUp.mouseover" end="arrowUp.mouseout"/>
                  </use>
                  <path fill="none" stroke="white" stroke-width="1.5" d="M0,-3.0v7 M-2.5,-0.5L0,-3.0L2.5,-0.5"/>
                </g>
                <g id="arrowRight" xlink:href="#dirArrow" transform="rotate(90) translate(36 -43)" onmousedown="handlePan(1,0)">
                  <use xlink:href="#rim" fill="#404040">
                        <set attributeName="fill" to="#808080" begin="arrowRight.mouseover" end="arrowRight.mouseout"/>
                  </use>
                  <path fill="none" stroke="white" stroke-width="1.5" d="M0,-3.0v7 M-2.5,-0.5L0,-3.0L2.5,-0.5"/>
                </g>
                <g id="arrowDown" xlink:href="#dirArrow" transform="rotate(180) translate(-30 -48)" onmousedown="handlePan(0,1)">
                  <use xlink:href="#rim" fill="#404040">
                        <set attributeName="fill" to="#808080" begin="arrowDown.mouseover" end="arrowDown.mouseout"/>
                  </use>
                  <path fill="none" stroke="white" stroke-width="1.5" d="M0,-3.0v7 M-2.5,-0.5L0,-3.0L2.5,-0.5"/>
                </g>
                <g id="arrowLeft" xlink:href="#dirArrow" transform="rotate(270) translate(-36 17)" onmousedown="handlePan(-1,0)">
                  <use xlink:href="#rim" fill="#404040">
                        <set attributeName="fill" to="#808080" begin="arrowLeft.mouseover" end="arrowLeft.mouseout"/>
                  </use>
                  <path fill="none" stroke="white" stroke-width="1.5" d="M0,-3.0v7 M-2.5,-0.5L0,-3.0L2.5,-0.5"/>
                </g>
        </g>
        <svg viewBox="0 0 15 15" width="100%" height="30px" preserveAspectRatio="xMaxYMin meet">
         <g id="arrow_out" transform="scale(0.3 0.3)">
          <a xlink:href="classAP__RangeFinder__VL53L1X_a889fcc3b10a73c13b7bf614bee0c8e89_icgraph_org.svg" target="_base">
           <rect id="button" ry="5" rx="5" y="6" x="6" height="38" width="38"
                fill="#f2f5e9" fill-opacity="0.5" stroke="#606060" stroke-width="1.0"/>
           <path id="arrow"
             d="M 11.500037,31.436501 C 11.940474,20.09759 22.043105,11.32322 32.158766,21.979434 L 37.068811,17.246167 C 37.068811,17.246167 37.088388,32 37.088388,32 L 22.160133,31.978069 C 22.160133,31.978069 26.997745,27.140456 26.997745,27.140456 C 18.528582,18.264221 13.291696,25.230495 11.500037,31.436501 z"
             style="fill:#404040;"/>
          </a>
         </g>
        </svg>
</svg>
