<?xml version="1.0" encoding="UTF-8" standalone="no"?>
<!DOCTYPE svg PUBLIC "-//W3C//DTD SVG 1.1//EN"
 "http://www.w3.org/Graphics/SVG/1.1/DTD/svg11.dtd">
<!-- Generated by graphviz version 2.30.1 (20130221.2233)
 -->
<!-- Title: Linux::Poller::wakeup Pages: 1 -->
<!--zoomable 142 -->
<svg id="main" version="1.1" xmlns="http://www.w3.org/2000/svg" xmlns:xlink="http://www.w3.org/1999/xlink" xml:space="preserve" onload="init(evt)">
<style type="text/css"><![CDATA[
.edge:hover path { stroke: red; }
.edge:hover polygon { stroke: red; fill: red; }
]]></style>
<script type="text/javascript"><![CDATA[
var edges = document.getElementsByTagName('g');
if (edges && edges.length) {
  for (var i=0;i<edges.length;i++) {
    if (edges[i].id.substr(0,4)=='edge') {
      edges[i].setAttribute('class','edge');
    }
  }
}
]]></script>
        <defs>
                <circle id="rim" cx="0" cy="0" r="7"/>
                <circle id="rim2" cx="0" cy="0" r="3.5"/>
                <g id="zoomPlus">
                        <use xlink:href="#rim" fill="#404040">
                                <set attributeName="fill" to="#808080" begin="zoomplus.mouseover" end="zoomplus.mouseout"/>
                        </use>
                        <path d="M-4,0h8M0,-4v8" fill="none" stroke="white" stroke-width="1.5" pointer-events="none"/>
                </g>
                <g id="zoomMin">
                        <use xlink:href="#rim" fill="#404040">
                                <set attributeName="fill" to="#808080" begin="zoomminus.mouseover" end="zoomminus.mouseout"/>
                        </use>
                        <path d="M-4,0h8" fill="none" stroke="white" stroke-width="1.5" pointer-events="none"/>
                </g>
                <g id="dirArrow">
                        <path fill="none" stroke="white" stroke-width="1.5" d="M0,-3.0v7 M-2.5,-0.5L0,-3.0L2.5,-0.5"/>
                </g>
               <g id="resetDef">
                       <use xlink:href="#rim2" fill="#404040">
                               <set attributeName="fill" to="#808080" begin="reset.mouseover" end="reset.mouseout"/>
                       </use>
               </g>
        </defs>

<script type="text/javascript">
var viewWidth = 624;
var viewHeight = 142;
var sectionId = 'dynsection-9';
</script>
<script xlink:href="svgpan.js"/>
<svg id="graph" class="graph">
<g id="viewport">
<title>Linux::Poller::wakeup</title>
<polygon fill="white" stroke="white" points="-4,5 -4,-138.3 621,-138.3 621,5 -4,5"/>
<!-- Node50 -->
<g id="node1" class="node"><title>Node50</title>
<g id="a_node1"><a xlink:title=" ">
<polygon fill="#bfbfbf" stroke="black" points="0.473145,-23.5396 0.473145,-43.5396 111.527,-43.5396 111.527,-23.5396 0.473145,-23.5396"/>
<text text-anchor="middle" x="56" y="-29.5396" font-family="Helvetica,sans-Serif" font-size="10.00">Linux::Poller::wakeup</text>
</a>
</g>
</g>
<!-- Node51 -->
<g id="node2" class="node"><title>Node51</title>
<g id="a_node2"><a xlink:href="posix_8c.html#abb39b21888372e95ad3e5c59b166f5c8" target="_top" xlink:title="POSIX Write count bytes from *buf to fileno fd.">
<polygon fill="white" stroke="black" points="186.443,-43.5396 186.443,-63.5396 223.557,-63.5396 223.557,-43.5396 186.443,-43.5396"/>
<text text-anchor="middle" x="205" y="-49.5396" font-family="Helvetica,sans-Serif" font-size="10.00">write</text>
</a>
</g>
</g>
<!-- Node50&#45;&gt;Node51 -->
<g id="edge1" class="edge"><title>Node50&#45;&gt;Node51</title>
<path fill="none" stroke="midnightblue" d="M111.737,-40.9868C133.71,-43.9763 158.079,-47.2919 176.253,-49.7645"/>
<polygon fill="midnightblue" stroke="midnightblue" points="175.792,-53.2339 186.172,-51.114 176.735,-46.2978 175.792,-53.2339"/>
</g>
<!-- Node59 -->
<g id="node10" class="node"><title>Node59</title>
<g id="a_node10"><a xlink:href="classLinux_1_1Pollable.html#aceff9a6cf61b103feca35b463f22c3f9" target="_top" xlink:title=" ">
<polygon fill="white" stroke="black" points="147.798,-4.53958 147.798,-24.5396 262.202,-24.5396 262.202,-4.53958 147.798,-4.53958"/>
<text text-anchor="middle" x="205" y="-10.5396" font-family="Helvetica,sans-Serif" font-size="10.00">Linux::Pollable::get_fd</text>
</a>
</g>
</g>
<!-- Node50&#45;&gt;Node59 -->
<g id="edge13" class="edge"><title>Node50&#45;&gt;Node59</title>
<path fill="none" stroke="midnightblue" d="M111.737,-26.4647C120.186,-25.3727 128.989,-24.2349 137.658,-23.1144"/>
<polygon fill="midnightblue" stroke="midnightblue" points="138.275,-26.5638 147.744,-21.8108 137.378,-19.6216 138.275,-26.5638"/>
</g>
<!-- Node52 -->
<g id="node3" class="node"><title>Node52</title>
<g id="a_node3"><a xlink:href="posix_8c.html#ae0821388c321f66b16fbca4a625022de" target="_top" xlink:title="Convert POSIX fileno to POSIX FILE stream pointer. NOT POSIX.">
<polygon fill="white" stroke="black" points="412.035,-62.5396 412.035,-82.5396 501.965,-82.5396 501.965,-62.5396 412.035,-62.5396"/>
<text text-anchor="middle" x="457" y="-68.5396" font-family="Helvetica,sans-Serif" font-size="10.00">fileno_to_stream</text>
</a>
</g>
</g>
<!-- Node51&#45;&gt;Node52 -->
<g id="edge2" class="edge"><title>Node51&#45;&gt;Node52</title>
<path fill="none" stroke="midnightblue" d="M223.58,-54.8756C259.991,-57.6429 344.964,-64.1009 401.446,-68.3935"/>
<polygon fill="midnightblue" stroke="midnightblue" points="401.406,-71.9004 411.643,-69.1684 401.937,-64.9206 401.406,-71.9004"/>
</g>
<!-- Node54 -->
<g id="node5" class="node"><title>Node54</title>
<g id="a_node5"><a xlink:href="posix_8c.html#abe6299d5823dd023e610aaa619735a3f" target="_top" xlink:title="Put a byte to TTY device or FatFs file stream open() or fopen() sets stream&#45;&gt;put = fatfs_outc() for F...">
<polygon fill="white" stroke="black" points="318.16,-23.5396 318.16,-43.5396 355.84,-43.5396 355.84,-23.5396 318.16,-23.5396"/>
<text text-anchor="middle" x="337" y="-29.5396" font-family="Helvetica,sans-Serif" font-size="10.00">fputc</text>
</a>
</g>
</g>
<!-- Node51&#45;&gt;Node54 -->
<g id="edge4" class="edge"><title>Node51&#45;&gt;Node54</title>
<path fill="none" stroke="midnightblue" d="M223.803,-50.8006C245.465,-47.4681 282.298,-41.8014 307.824,-37.8743"/>
<polygon fill="midnightblue" stroke="midnightblue" points="308.643,-41.2896 317.994,-36.3097 307.579,-34.371 308.643,-41.2896"/>
</g>
<!-- Node57 -->
<g id="node8" class="node"><title>Node57</title>
<g id="a_node8"><a xlink:href="posix_8c.html#a1eeda4d85cf3cae5cf1ee8c1e196a686" target="_top" xlink:title="Convert POSIX fileno to FatFS handle NOT POSIX.">
<polygon fill="white" stroke="black" points="297.867,-101.54 297.867,-121.54 376.133,-121.54 376.133,-101.54 297.867,-101.54"/>
<text text-anchor="middle" x="337" y="-107.54" font-family="Helvetica,sans-Serif" font-size="10.00">fileno_to_fatfs</text>
</a>
</g>
</g>
<!-- Node51&#45;&gt;Node57 -->
<g id="edge7" class="edge"><title>Node51&#45;&gt;Node57</title>
<path fill="none" stroke="midnightblue" d="M223.803,-61.4826C244.398,-70.6711 278.708,-85.9785 303.975,-97.2515"/>
<polygon fill="midnightblue" stroke="midnightblue" points="302.61,-100.475 313.169,-101.353 305.462,-94.0825 302.61,-100.475"/>
</g>
<!-- Node56 -->
<g id="node7" class="node"><title>Node56</title>
<g id="a_node7"><a xlink:href="posix_8c.html#aeb68afd2fdf966f8d89cc7aaa9aa7c23" target="_top" xlink:title="Convert FafFs error result to POSIX errno. NOT POSIX.">
<polygon fill="white" stroke="black" points="538.148,-4.53958 538.148,-24.5396 615.852,-24.5396 615.852,-4.53958 538.148,-4.53958"/>
<text text-anchor="middle" x="577" y="-10.5396" font-family="Helvetica,sans-Serif" font-size="10.00">fatfs_to_errno</text>
</a>
</g>
</g>
<!-- Node51&#45;&gt;Node56 -->
<g id="edge12" class="edge"><title>Node51&#45;&gt;Node56</title>
<path fill="none" stroke="midnightblue" d="M223.697,-48.0465C234.865,-44.3788 249.491,-39.2017 262,-33.5396 278.675,-25.9917 280.282,-18.1308 298,-13.5396 376.511,6.80457 471.734,0.00963114 527.901,-7.06142"/>
<polygon fill="midnightblue" stroke="midnightblue" points="527.55,-10.5454 537.921,-8.37847 528.463,-3.60505 527.55,-10.5454"/>
</g>
<!-- Node53 -->
<g id="node4" class="node"><title>Node53</title>
<g id="a_node4"><a xlink:href="posix_8c.html#af86fa14728c9bad5418a6d29cad9f9ff" target="_top" xlink:title="Convert POSIX stream pointer to POSIX fileno (index of __iob[])">
<polygon fill="white" stroke="black" points="557.047,-101.54 557.047,-121.54 596.953,-121.54 596.953,-101.54 557.047,-101.54"/>
<text text-anchor="middle" x="577" y="-107.54" font-family="Helvetica,sans-Serif" font-size="10.00">fileno</text>
</a>
</g>
</g>
<!-- Node52&#45;&gt;Node53 -->
<g id="edge3" class="edge"><title>Node52&#45;&gt;Node53</title>
<path fill="none" stroke="midnightblue" d="M488.388,-82.583C506.51,-88.5727 529.385,-96.1329 547.216,-102.026"/>
<polygon fill="midnightblue" stroke="midnightblue" points="546.206,-105.379 556.799,-105.194 548.403,-98.7322 546.206,-105.379"/>
</g>
<!-- Node55 -->
<g id="node6" class="node"><title>Node55</title>
<g id="a_node6"><a xlink:href="posix_8c.html#a90d998e82aa4f903a1570c0c48aeae59" target="_top" xlink:title="Private FatFs function called by fputc() to put a byte from file stream NOT POSIX open() assigns stre...">
<polygon fill="white" stroke="black" points="427.32,-23.5396 427.32,-43.5396 486.68,-43.5396 486.68,-23.5396 427.32,-23.5396"/>
<text text-anchor="middle" x="457" y="-29.5396" font-family="Helvetica,sans-Serif" font-size="10.00">fatfs_putc</text>
</a>
</g>
</g>
<!-- Node54&#45;&gt;Node55 -->
<g id="edge5" class="edge"><title>Node54&#45;&gt;Node55</title>
<path fill="none" stroke="midnightblue" d="M355.922,-33.5396C372.027,-33.5396 396.239,-33.5396 416.814,-33.5396"/>
<polygon fill="midnightblue" stroke="midnightblue" points="416.874,-37.0397 426.874,-33.5396 416.874,-30.0397 416.874,-37.0397"/>
</g>
<!-- Node55&#45;&gt;Node56 -->
<g id="edge6" class="edge"><title>Node55&#45;&gt;Node56</title>
<path fill="none" stroke="midnightblue" d="M486.866,-28.8917C499.274,-26.8937 514.113,-24.5044 528.091,-22.2538"/>
<polygon fill="midnightblue" stroke="midnightblue" points="528.753,-25.6924 538.069,-20.6471 527.64,-18.7814 528.753,-25.6924"/>
</g>
<!-- Node58 -->
<g id="node9" class="node"><title>Node58</title>
<g id="a_node9"><a xlink:href="posix_8c.html#aeac589354c9d47c7d9c7c49ba4b0d266" target="_top" xlink:title="Test POSIX fileno if it is a Serial Console/TTY.">
<polygon fill="white" stroke="black" points="437.33,-101.54 437.33,-121.54 476.67,-121.54 476.67,-101.54 437.33,-101.54"/>
<text text-anchor="middle" x="457" y="-107.54" font-family="Helvetica,sans-Serif" font-size="10.00">isatty</text>
</a>
</g>
</g>
<!-- Node57&#45;&gt;Node58 -->
<g id="edge8" class="edge"><title>Node57&#45;&gt;Node58</title>
<path fill="none" stroke="midnightblue" d="M376.311,-111.54C392.665,-111.54 411.447,-111.54 426.668,-111.54"/>
<polygon fill="midnightblue" stroke="midnightblue" points="427.036,-115.04 437.036,-111.54 427.036,-108.04 427.036,-115.04"/>
</g>
<!-- Node57&#45;&gt;Node53 -->
<g id="edge10" class="edge"><title>Node57&#45;&gt;Node53</title>
<path fill="none" stroke="midnightblue" d="M369.714,-121.549C382.682,-125.15 397.92,-128.761 412,-130.54 451.685,-135.553 462.315,-135.553 502,-130.54 517.1,-128.632 533.532,-124.617 547.067,-120.767"/>
<polygon fill="midnightblue" stroke="midnightblue" points="548.186,-124.086 556.782,-117.893 546.2,-117.374 548.186,-124.086"/>
</g>
<!-- Node57&#45;&gt;Node52 -->
<g id="edge11" class="edge"><title>Node57&#45;&gt;Node52</title>
<path fill="none" stroke="midnightblue" d="M368.388,-101.496C382.84,-96.7196 400.314,-90.9442 415.843,-85.8118"/>
<polygon fill="midnightblue" stroke="midnightblue" points="417.319,-89.0104 425.715,-82.549 415.122,-82.364 417.319,-89.0104"/>
</g>
<!-- Node58&#45;&gt;Node53 -->
<g id="edge9" class="edge"><title>Node58&#45;&gt;Node53</title>
<path fill="none" stroke="midnightblue" d="M476.697,-111.54C495.574,-111.54 524.993,-111.54 546.918,-111.54"/>
<polygon fill="midnightblue" stroke="midnightblue" points="546.999,-115.04 556.999,-111.54 546.999,-108.04 546.999,-115.04"/>
</g>
</g>
</svg>
        <g id="navigator" transform="translate(0 0)" fill="#404254">
                <rect fill="#f2f5e9" fill-opacity="0.5" stroke="#606060" stroke-width=".5" x="0" y="0" width="60" height="60"/>
                <use id="zoomplus" xlink:href="#zoomPlus" x="17" y="9" onmousedown="handleZoom(evt,'in')"/>
                <use id="zoomminus" xlink:href="#zoomMin" x="42" y="9" onmousedown="handleZoom(evt,'out')"/>
                <use id="reset" xlink:href="#resetDef" x="30" y="36" onmousedown="handleReset()"/>
                <g id="arrowUp" xlink:href="#dirArrow" transform="translate(30 24)" onmousedown="handlePan(0,-1)">
                  <use xlink:href="#rim" fill="#404040">
                        <set attributeName="fill" to="#808080" begin="arrowUp.mouseover" end="arrowUp.mouseout"/>
                  </use>
                  <path fill="none" stroke="white" stroke-width="1.5" d="M0,-3.0v7 M-2.5,-0.5L0,-3.0L2.5,-0.5"/>
                </g>
                <g id="arrowRight" xlink:href="#dirArrow" transform="rotate(90) translate(36 -43)" onmousedown="handlePan(1,0)">
                  <use xlink:href="#rim" fill="#404040">
                        <set attributeName="fill" to="#808080" begin="arrowRight.mouseover" end="arrowRight.mouseout"/>
                  </use>
                  <path fill="none" stroke="white" stroke-width="1.5" d="M0,-3.0v7 M-2.5,-0.5L0,-3.0L2.5,-0.5"/>
                </g>
                <g id="arrowDown" xlink:href="#dirArrow" transform="rotate(180) translate(-30 -48)" onmousedown="handlePan(0,1)">
                  <use xlink:href="#rim" fill="#404040">
                        <set attributeName="fill" to="#808080" begin="arrowDown.mouseover" end="arrowDown.mouseout"/>
                  </use>
                  <path fill="none" stroke="white" stroke-width="1.5" d="M0,-3.0v7 M-2.5,-0.5L0,-3.0L2.5,-0.5"/>
                </g>
                <g id="arrowLeft" xlink:href="#dirArrow" transform="rotate(270) translate(-36 17)" onmousedown="handlePan(-1,0)">
                  <use xlink:href="#rim" fill="#404040">
                        <set attributeName="fill" to="#808080" begin="arrowLeft.mouseover" end="arrowLeft.mouseout"/>
                  </use>
                  <path fill="none" stroke="white" stroke-width="1.5" d="M0,-3.0v7 M-2.5,-0.5L0,-3.0L2.5,-0.5"/>
                </g>
        </g>
        <svg viewBox="0 0 15 15" width="100%" height="30px" preserveAspectRatio="xMaxYMin meet">
         <g id="arrow_out" transform="scale(0.3 0.3)">
          <a xlink:href="classLinux_1_1Poller_a299f4a158a274c24d3b2501a36fc3568_cgraph_org.svg" target="_base">
           <rect id="button" ry="5" rx="5" y="6" x="6" height="38" width="38"
                fill="#f2f5e9" fill-opacity="0.5" stroke="#606060" stroke-width="1.0"/>
           <path id="arrow"
             d="M 11.500037,31.436501 C 11.940474,20.09759 22.043105,11.32322 32.158766,21.979434 L 37.068811,17.246167 C 37.068811,17.246167 37.088388,32 37.088388,32 L 22.160133,31.978069 C 22.160133,31.978069 26.997745,27.140456 26.997745,27.140456 C 18.528582,18.264221 13.291696,25.230495 11.500037,31.436501 z"
             style="fill:#404040;"/>
          </a>
         </g>
        </svg>
</svg>
