<?xml version="1.0" encoding="UTF-8" standalone="no"?>
<!DOCTYPE svg PUBLIC "-//W3C//DTD SVG 1.1//EN"
 "http://www.w3.org/Graphics/SVG/1.1/DTD/svg11.dtd">
<!-- Generated by graphviz version 2.30.1 (20130221.2233)
 -->
<!-- Title: MissionItemProtocol::handle_mission_request_list Pages: 1 -->
<!--zoomable 40 -->
<svg id="main" version="1.1" xmlns="http://www.w3.org/2000/svg" xmlns:xlink="http://www.w3.org/1999/xlink" xml:space="preserve" onload="init(evt)">
<style type="text/css"><![CDATA[
.edge:hover path { stroke: red; }
.edge:hover polygon { stroke: red; fill: red; }
]]></style>
<script type="text/javascript"><![CDATA[
var edges = document.getElementsByTagName('g');
if (edges && edges.length) {
  for (var i=0;i<edges.length;i++) {
    if (edges[i].id.substr(0,4)=='edge') {
      edges[i].setAttribute('class','edge');
    }
  }
}
]]></script>
        <defs>
                <circle id="rim" cx="0" cy="0" r="7"/>
                <circle id="rim2" cx="0" cy="0" r="3.5"/>
                <g id="zoomPlus">
                        <use xlink:href="#rim" fill="#404040">
                                <set attributeName="fill" to="#808080" begin="zoomplus.mouseover" end="zoomplus.mouseout"/>
                        </use>
                        <path d="M-4,0h8M0,-4v8" fill="none" stroke="white" stroke-width="1.5" pointer-events="none"/>
                </g>
                <g id="zoomMin">
                        <use xlink:href="#rim" fill="#404040">
                                <set attributeName="fill" to="#808080" begin="zoomminus.mouseover" end="zoomminus.mouseout"/>
                        </use>
                        <path d="M-4,0h8" fill="none" stroke="white" stroke-width="1.5" pointer-events="none"/>
                </g>
                <g id="dirArrow">
                        <path fill="none" stroke="white" stroke-width="1.5" d="M0,-3.0v7 M-2.5,-0.5L0,-3.0L2.5,-0.5"/>
                </g>
               <g id="resetDef">
                       <use xlink:href="#rim2" fill="#404040">
                               <set attributeName="fill" to="#808080" begin="reset.mouseover" end="reset.mouseout"/>
                       </use>
               </g>
        </defs>

<script type="text/javascript">
var viewWidth = 654;
var viewHeight = 40;
var sectionId = 'dynsection-18';
</script>
<script xlink:href="svgpan.js"/>
<svg id="graph" class="graph">
<g id="viewport">
<title>MissionItemProtocol::handle_mission_request_list</title>
<polygon fill="white" stroke="white" points="-4,5 -4,-36 651,-36 651,5 -4,5"/>
<!-- Node167 -->
<g id="node1" class="node"><title>Node167</title>
<g id="a_node1"><a xlink:title=" ">
<polygon fill="#bfbfbf" stroke="black" points="498.128,-0 498.128,-32 645.872,-32 645.872,-0 498.128,-0"/>
<text text-anchor="start" x="506.128" y="-18" font-family="Helvetica,sans-Serif" font-size="10.00">MissionItemProtocol</text>
<text text-anchor="middle" x="572" y="-6" font-family="Helvetica,sans-Serif" font-size="10.00">::handle_mission_request_list</text>
</a>
</g>
</g>
<!-- Node168 -->
<g id="node2" class="node"><title>Node168</title>
<g id="a_node2"><a xlink:href="structGCS__MAVLINK.html#a77d0ba68a753475e530318db583575a4" target="_top" xlink:title=" ">
<polygon fill="white" stroke="black" points="340.009,-0 340.009,-32 461.991,-32 461.991,-0 340.009,-0"/>
<text text-anchor="start" x="348.009" y="-18" font-family="Helvetica,sans-Serif" font-size="10.00">GCS_MAVLINK::handle</text>
<text text-anchor="middle" x="401" y="-6" font-family="Helvetica,sans-Serif" font-size="10.00">_mission_request_list</text>
</a>
</g>
</g>
<!-- Node167&#45;&gt;Node168 -->
<g id="edge1" class="edge"><title>Node167&#45;&gt;Node168</title>
<path fill="none" stroke="midnightblue" d="M487.72,-16C479.059,-16 470.381,-16 462.05,-16"/>
<polygon fill="midnightblue" stroke="midnightblue" points="487.857,-19.5001 497.857,-16 487.857,-12.5001 487.857,-19.5001"/>
</g>
<!-- Node169 -->
<g id="node3" class="node"><title>Node169</title>
<g id="a_node3"><a xlink:href="structGCS__MAVLINK.html#a00013e2a14c47d88af2638763d82e7d3" target="_top" xlink:title=" ">
<polygon fill="white" stroke="black" points="158.249,-0 158.249,-32 303.751,-32 303.751,-0 158.249,-0"/>
<text text-anchor="start" x="166.249" y="-18" font-family="Helvetica,sans-Serif" font-size="10.00">GCS_MAVLINK::handle</text>
<text text-anchor="middle" x="231" y="-6" font-family="Helvetica,sans-Serif" font-size="10.00">_common_mission_message</text>
</a>
</g>
</g>
<!-- Node168&#45;&gt;Node169 -->
<g id="edge2" class="edge"><title>Node168&#45;&gt;Node169</title>
<path fill="none" stroke="midnightblue" d="M329.555,-16C321.04,-16 312.334,-16 303.799,-16"/>
<polygon fill="midnightblue" stroke="midnightblue" points="329.823,-19.5001 339.823,-16 329.823,-12.5001 329.823,-19.5001"/>
</g>
<!-- Node170 -->
<g id="node4" class="node"><title>Node170</title>
<g id="a_node4"><a xlink:href="structGCS__MAVLINK.html#a13da94a2548ade6552a5250eb3251e89" target="_top" xlink:title=" ">
<polygon fill="white" stroke="black" points="0.00927734,-0 0.00927734,-32 121.991,-32 121.991,-0 0.00927734,-0"/>
<text text-anchor="start" x="8.00928" y="-18" font-family="Helvetica,sans-Serif" font-size="10.00">GCS_MAVLINK::handle</text>
<text text-anchor="middle" x="61" y="-6" font-family="Helvetica,sans-Serif" font-size="10.00">_common_message</text>
</a>
</g>
</g>
<!-- Node169&#45;&gt;Node170 -->
<g id="edge3" class="edge"><title>Node169&#45;&gt;Node170</title>
<path fill="none" stroke="midnightblue" d="M147.668,-16C139.028,-16 130.365,-16 122.044,-16"/>
<polygon fill="midnightblue" stroke="midnightblue" points="147.778,-19.5001 157.778,-16 147.778,-12.5001 147.778,-19.5001"/>
</g>
</g>
</svg>
        <g id="navigator" transform="translate(0 0)" fill="#404254">
                <rect fill="#f2f5e9" fill-opacity="0.5" stroke="#606060" stroke-width=".5" x="0" y="0" width="60" height="60"/>
                <use id="zoomplus" xlink:href="#zoomPlus" x="17" y="9" onmousedown="handleZoom(evt,'in')"/>
                <use id="zoomminus" xlink:href="#zoomMin" x="42" y="9" onmousedown="handleZoom(evt,'out')"/>
                <use id="reset" xlink:href="#resetDef" x="30" y="36" onmousedown="handleReset()"/>
                <g id="arrowUp" xlink:href="#dirArrow" transform="translate(30 24)" onmousedown="handlePan(0,-1)">
                  <use xlink:href="#rim" fill="#404040">
                        <set attributeName="fill" to="#808080" begin="arrowUp.mouseover" end="arrowUp.mouseout"/>
                  </use>
                  <path fill="none" stroke="white" stroke-width="1.5" d="M0,-3.0v7 M-2.5,-0.5L0,-3.0L2.5,-0.5"/>
                </g>
                <g id="arrowRight" xlink:href="#dirArrow" transform="rotate(90) translate(36 -43)" onmousedown="handlePan(1,0)">
                  <use xlink:href="#rim" fill="#404040">
                        <set attributeName="fill" to="#808080" begin="arrowRight.mouseover" end="arrowRight.mouseout"/>
                  </use>
                  <path fill="none" stroke="white" stroke-width="1.5" d="M0,-3.0v7 M-2.5,-0.5L0,-3.0L2.5,-0.5"/>
                </g>
                <g id="arrowDown" xlink:href="#dirArrow" transform="rotate(180) translate(-30 -48)" onmousedown="handlePan(0,1)">
                  <use xlink:href="#rim" fill="#404040">
                        <set attributeName="fill" to="#808080" begin="arrowDown.mouseover" end="arrowDown.mouseout"/>
                  </use>
                  <path fill="none" stroke="white" stroke-width="1.5" d="M0,-3.0v7 M-2.5,-0.5L0,-3.0L2.5,-0.5"/>
                </g>
                <g id="arrowLeft" xlink:href="#dirArrow" transform="rotate(270) translate(-36 17)" onmousedown="handlePan(-1,0)">
                  <use xlink:href="#rim" fill="#404040">
                        <set attributeName="fill" to="#808080" begin="arrowLeft.mouseover" end="arrowLeft.mouseout"/>
                  </use>
                  <path fill="none" stroke="white" stroke-width="1.5" d="M0,-3.0v7 M-2.5,-0.5L0,-3.0L2.5,-0.5"/>
                </g>
        </g>
        <svg viewBox="0 0 15 15" width="100%" height="30px" preserveAspectRatio="xMaxYMin meet">
         <g id="arrow_out" transform="scale(0.3 0.3)">
          <a xlink:href="classMissionItemProtocol_acc1492c720e16c7768373029616af2da_icgraph_org.svg" target="_base">
           <rect id="button" ry="5" rx="5" y="6" x="6" height="38" width="38"
                fill="#f2f5e9" fill-opacity="0.5" stroke="#606060" stroke-width="1.0"/>
           <path id="arrow"
             d="M 11.500037,31.436501 C 11.940474,20.09759 22.043105,11.32322 32.158766,21.979434 L 37.068811,17.246167 C 37.068811,17.246167 37.088388,32 37.088388,32 L 22.160133,31.978069 C 22.160133,31.978069 26.997745,27.140456 26.997745,27.140456 C 18.528582,18.264221 13.291696,25.230495 11.500037,31.436501 z"
             style="fill:#404040;"/>
          </a>
         </g>
        </svg>
</svg>
