<?xml version="1.0" encoding="UTF-8" standalone="no"?>
<!DOCTYPE svg PUBLIC "-//W3C//DTD SVG 1.1//EN"
 "http://www.w3.org/Graphics/SVG/1.1/DTD/svg11.dtd">
<!-- Generated by graphviz version 2.30.1 (20130221.2233)
 -->
<!-- Title: AP_InertialSensor::update Pages: 1 -->
<svg width="952pt" height="273pt"
 viewBox="0.00 0.00 952.00 273.00" xmlns="http://www.w3.org/2000/svg" xmlns:xlink="http://www.w3.org/1999/xlink">
<g id="graph0" class="graph" transform="scale(1 1) rotate(0) translate(4 269)">
<title>AP_InertialSensor::update</title>
<polygon fill="white" stroke="white" points="-4,5 -4,-269 949,-269 949,5 -4,5"/>
<!-- Node4982 -->
<g id="node1" class="node"><title>Node4982</title>
<g id="a_node1"><a xlink:title=" ">
<polygon fill="#bfbfbf" stroke="black" points="-0.0786133,-72 -0.0786133,-104 102.079,-104 102.079,-72 -0.0786133,-72"/>
<text text-anchor="start" x="7.92139" y="-90" font-family="Helvetica,sans-Serif" font-size="10.00">AP_InertialSensor::</text>
<text text-anchor="middle" x="51" y="-78" font-family="Helvetica,sans-Serif" font-size="10.00">update</text>
</a>
</g>
</g>
<!-- Node4983 -->
<g id="node2" class="node"><title>Node4983</title>
<g id="a_node2"><a xlink:href="classAP__InertialSensor.html#aa4faf114689e827390b5da7bc6fd5f20" target="_top" xlink:title=" ">
<polygon fill="white" stroke="black" points="157.921,-168 157.921,-200 260.079,-200 260.079,-168 157.921,-168"/>
<text text-anchor="start" x="165.921" y="-186" font-family="Helvetica,sans-Serif" font-size="10.00">AP_InertialSensor::</text>
<text text-anchor="middle" x="209" y="-174" font-family="Helvetica,sans-Serif" font-size="10.00">wait_for_sample</text>
</a>
</g>
</g>
<!-- Node4982&#45;&gt;Node4983 -->
<g id="edge1" class="edge"><title>Node4982&#45;&gt;Node4983</title>
<path fill="none" stroke="midnightblue" d="M68.5509,-104.283C85.0243,-119.776 111.595,-142.902 138,-158 141.608,-160.063 145.411,-162.017 149.302,-163.858"/>
<polygon fill="midnightblue" stroke="midnightblue" points="147.935,-167.08 158.494,-167.942 150.777,-160.683 147.935,-167.08"/>
</g>
<!-- Node4997 -->
<g id="node16" class="node"><title>Node4997</title>
<g id="a_node16"><a xlink:href="classAP__InertialSensor__Backend.html#a7016ddeb343d823f9fe518fd414ba848" target="_top" xlink:title=" ">
<polygon fill="white" stroke="black" points="138.461,-117 138.461,-149 279.539,-149 279.539,-117 138.461,-117"/>
<text text-anchor="start" x="146.461" y="-135" font-family="Helvetica,sans-Serif" font-size="10.00">AP_InertialSensor_Backend</text>
<text text-anchor="middle" x="209" y="-123" font-family="Helvetica,sans-Serif" font-size="10.00">::update</text>
</a>
</g>
</g>
<!-- Node4982&#45;&gt;Node4997 -->
<g id="edge17" class="edge"><title>Node4982&#45;&gt;Node4997</title>
<path fill="none" stroke="midnightblue" d="M102.218,-102.486C115.119,-106.207 129.187,-110.265 142.728,-114.172"/>
<polygon fill="midnightblue" stroke="midnightblue" points="141.893,-117.573 152.472,-116.982 143.834,-110.848 141.893,-117.573"/>
</g>
<!-- Node4998 -->
<g id="node17" class="node"><title>Node4998</title>
<g id="a_node17"><a xlink:href="classVector3.html#adf1769d5ee5df2f8585df2f540fa5efe" target="_top" xlink:title=" ">
<polygon fill="white" stroke="black" points="171.537,-78 171.537,-98 246.463,-98 246.463,-78 171.537,-78"/>
<text text-anchor="middle" x="209" y="-84" font-family="Helvetica,sans-Serif" font-size="10.00">Vector3::zero</text>
</a>
</g>
</g>
<!-- Node4982&#45;&gt;Node4998 -->
<g id="edge18" class="edge"><title>Node4982&#45;&gt;Node4998</title>
<path fill="none" stroke="midnightblue" d="M102.218,-88C121.157,-88 142.609,-88 161.22,-88"/>
<polygon fill="midnightblue" stroke="midnightblue" points="161.234,-91.5001 171.234,-88 161.234,-84.5001 161.234,-91.5001"/>
</g>
<!-- Node4999 -->
<g id="node18" class="node"><title>Node4999</title>
<g id="a_node18"><a xlink:href="namespaceAP__HAL.html#a77dffbb18891996280308e21316ec186" target="_top" xlink:title=" ">
<polygon fill="white" stroke="black" points="167.936,-0 167.936,-20 250.064,-20 250.064,-0 167.936,-0"/>
<text text-anchor="middle" x="209" y="-6" font-family="Helvetica,sans-Serif" font-size="10.00">AP_HAL::millis</text>
</a>
</g>
</g>
<!-- Node4982&#45;&gt;Node4999 -->
<g id="edge19" class="edge"><title>Node4982&#45;&gt;Node4999</title>
<path fill="none" stroke="midnightblue" d="M75.3371,-71.7623C92.2209,-60.4826 115.866,-45.6282 138,-35 146.807,-30.7713 156.526,-26.8574 165.848,-23.4419"/>
<polygon fill="midnightblue" stroke="midnightblue" points="167.107,-26.7091 175.364,-20.0707 164.77,-20.111 167.107,-26.7091"/>
</g>
<!-- Node4984 -->
<g id="node3" class="node"><title>Node4984</title>
<g id="a_node3"><a xlink:href="namespaceAP__HAL.html#a8293355e35887733b1fd151aef08a787" target="_top" xlink:title=" ">
<polygon fill="white" stroke="black" points="342.323,-58 342.323,-78 431.677,-78 431.677,-58 342.323,-58"/>
<text text-anchor="middle" x="387" y="-64" font-family="Helvetica,sans-Serif" font-size="10.00">AP_HAL::micros</text>
</a>
</g>
</g>
<!-- Node4982&#45;&gt;Node4984 -->
<g id="edge21" class="edge"><title>Node4982&#45;&gt;Node4984</title>
<path fill="none" stroke="midnightblue" d="M102.14,-74.3133C113.821,-71.6911 126.274,-69.3456 138,-68 204.43,-60.3773 281.529,-62.0031 331.906,-64.4616"/>
<polygon fill="midnightblue" stroke="midnightblue" points="331.758,-67.9586 341.925,-64.9789 332.119,-60.9679 331.758,-67.9586"/>
</g>
<!-- Node4983&#45;&gt;Node4984 -->
<g id="edge2" class="edge"><title>Node4983&#45;&gt;Node4984</title>
<path fill="none" stroke="midnightblue" d="M260.155,-169.628C267.189,-166.428 274.041,-162.586 280,-158 301.988,-141.079 295.366,-125.548 316,-107 326.8,-97.2914 340.432,-89.0157 352.79,-82.6186"/>
<polygon fill="midnightblue" stroke="midnightblue" points="354.513,-85.6714 361.924,-78.1004 351.409,-79.397 354.513,-85.6714"/>
</g>
<!-- Node4986 -->
<g id="node5" class="node"><title>Node4986</title>
<g id="a_node5"><a xlink:href="classAP__HAL_1_1Scheduler.html#aa0beaea3a0ce331569f7617c10a06f53" target="_top" xlink:title=" ">
<polygon fill="white" stroke="black" points="318.409,-117 318.409,-149 455.591,-149 455.591,-117 318.409,-117"/>
<text text-anchor="start" x="326.409" y="-135" font-family="Helvetica,sans-Serif" font-size="10.00">AP_HAL::Scheduler::</text>
<text text-anchor="middle" x="387" y="-123" font-family="Helvetica,sans-Serif" font-size="10.00">delay_microseconds_boost</text>
</a>
</g>
</g>
<!-- Node4983&#45;&gt;Node4986 -->
<g id="edge4" class="edge"><title>Node4983&#45;&gt;Node4986</title>
<path fill="none" stroke="midnightblue" d="M260.435,-169.385C279.29,-163.922 300.978,-157.637 320.966,-151.845"/>
<polygon fill="midnightblue" stroke="midnightblue" points="321.991,-155.192 330.622,-149.047 320.043,-148.469 321.991,-155.192"/>
</g>
<!-- Node4988 -->
<g id="node7" class="node"><title>Node4988</title>
<g id="a_node7"><a xlink:href="classAP__InertialSensor__Backend.html#af4c09c40d7977ee0406c91134d6c3dca" target="_top" xlink:title=" ">
<polygon fill="white" stroke="black" points="316.461,-219 316.461,-251 457.539,-251 457.539,-219 316.461,-219"/>
<text text-anchor="start" x="324.461" y="-237" font-family="Helvetica,sans-Serif" font-size="10.00">AP_InertialSensor_Backend</text>
<text text-anchor="middle" x="387" y="-225" font-family="Helvetica,sans-Serif" font-size="10.00">::accumulate</text>
</a>
</g>
</g>
<!-- Node4983&#45;&gt;Node4988 -->
<g id="edge6" class="edge"><title>Node4983&#45;&gt;Node4988</title>
<path fill="none" stroke="midnightblue" d="M260.435,-198.615C279.29,-204.078 300.978,-210.363 320.966,-216.155"/>
<polygon fill="midnightblue" stroke="midnightblue" points="320.043,-219.531 330.622,-218.953 321.991,-212.808 320.043,-219.531"/>
</g>
<!-- Node4989 -->
<g id="node8" class="node"><title>Node4989</title>
<g id="a_node8"><a xlink:href="classAP__HAL_1_1BetterStream.html#a8534aa004599bb81ad60f3e762791032" target="_top" xlink:title=" ">
<polygon fill="white" stroke="black" points="327.589,-168 327.589,-200 446.411,-200 446.411,-168 327.589,-168"/>
<text text-anchor="start" x="335.589" y="-186" font-family="Helvetica,sans-Serif" font-size="10.00">AP_HAL::BetterStream</text>
<text text-anchor="middle" x="387" y="-174" font-family="Helvetica,sans-Serif" font-size="10.00">::printf</text>
</a>
</g>
</g>
<!-- Node4983&#45;&gt;Node4989 -->
<g id="edge7" class="edge"><title>Node4983&#45;&gt;Node4989</title>
<path fill="none" stroke="midnightblue" d="M260.435,-184C278.172,-184 298.415,-184 317.393,-184"/>
<polygon fill="midnightblue" stroke="midnightblue" points="317.481,-187.5 327.481,-184 317.48,-180.5 317.481,-187.5"/>
</g>
<!-- Node4985 -->
<g id="node4" class="node"><title>Node4985</title>
<g id="a_node4"><a xlink:href="hrt_8c.html#aaec580bcdf1351b82110305f0f6dd437" target="_top" xlink:title=" ">
<polygon fill="white" stroke="black" points="517.101,-58 517.101,-78 590.899,-78 590.899,-58 517.101,-58"/>
<text text-anchor="middle" x="554" y="-64" font-family="Helvetica,sans-Serif" font-size="10.00">hrt_micros32</text>
</a>
</g>
</g>
<!-- Node4984&#45;&gt;Node4985 -->
<g id="edge3" class="edge"><title>Node4984&#45;&gt;Node4985</title>
<path fill="none" stroke="midnightblue" d="M431.784,-68C454.987,-68 483.474,-68 507.001,-68"/>
<polygon fill="midnightblue" stroke="midnightblue" points="507.087,-71.5001 517.087,-68 507.087,-64.5001 507.087,-71.5001"/>
</g>
<!-- Node4987 -->
<g id="node6" class="node"><title>Node4987</title>
<g id="a_node6"><a xlink:href="classAP__HAL_1_1Scheduler.html#a78c4f1b1f192ac1c99544b6cc8f099b0" target="_top" xlink:title=" ">
<polygon fill="white" stroke="black" points="498.751,-117 498.751,-149 609.249,-149 609.249,-117 498.751,-117"/>
<text text-anchor="start" x="506.751" y="-135" font-family="Helvetica,sans-Serif" font-size="10.00">AP_HAL::Scheduler::</text>
<text text-anchor="middle" x="554" y="-123" font-family="Helvetica,sans-Serif" font-size="10.00">delay_microseconds</text>
</a>
</g>
</g>
<!-- Node4986&#45;&gt;Node4987 -->
<g id="edge5" class="edge"><title>Node4986&#45;&gt;Node4987</title>
<path fill="none" stroke="midnightblue" d="M456.064,-133C466.828,-133 477.93,-133 488.606,-133"/>
<polygon fill="midnightblue" stroke="midnightblue" points="488.687,-136.5 498.687,-133 488.687,-129.5 488.687,-136.5"/>
</g>
<!-- Node4990 -->
<g id="node9" class="node"><title>Node4990</title>
<g id="a_node9"><a xlink:href="classAP__HAL_1_1BetterStream.html#aa730be451d385d7ba03ee9677e6d91a2" target="_top" xlink:title=" ">
<polygon fill="white" stroke="black" points="494.589,-168 494.589,-200 613.411,-200 613.411,-168 494.589,-168"/>
<text text-anchor="start" x="502.589" y="-186" font-family="Helvetica,sans-Serif" font-size="10.00">AP_HAL::BetterStream</text>
<text text-anchor="middle" x="554" y="-174" font-family="Helvetica,sans-Serif" font-size="10.00">::vprintf</text>
</a>
</g>
</g>
<!-- Node4989&#45;&gt;Node4990 -->
<g id="edge8" class="edge"><title>Node4989&#45;&gt;Node4990</title>
<path fill="none" stroke="midnightblue" d="M446.637,-184C458.795,-184 471.709,-184 484.192,-184"/>
<polygon fill="midnightblue" stroke="midnightblue" points="484.551,-187.5 494.551,-184 484.551,-180.5 484.551,-187.5"/>
</g>
<!-- Node4991 -->
<g id="node10" class="node"><title>Node4991</title>
<g id="a_node10"><a xlink:href="print__vprintf_8cpp.html#a98e0d5bb436a207f576379beaa786040" target="_top" xlink:title=" ">
<polygon fill="white" stroke="black" points="649.877,-174 649.877,-194 718.123,-194 718.123,-174 649.877,-174"/>
<text text-anchor="middle" x="684" y="-180" font-family="Helvetica,sans-Serif" font-size="10.00">print_vprintf</text>
</a>
</g>
</g>
<!-- Node4990&#45;&gt;Node4991 -->
<g id="edge9" class="edge"><title>Node4990&#45;&gt;Node4991</title>
<path fill="none" stroke="midnightblue" d="M613.755,-184C622.443,-184 631.26,-184 639.561,-184"/>
<polygon fill="midnightblue" stroke="midnightblue" points="639.751,-187.5 649.751,-184 639.751,-180.5 639.751,-187.5"/>
</g>
<!-- Node4992 -->
<g id="node11" class="node"><title>Node4992</title>
<g id="a_node11"><a xlink:href="classAP__HAL_1_1BetterStream.html#a915cc01273d4b418c2fb2989fb31a508" target="_top" xlink:title=" ">
<polygon fill="white" stroke="black" points="754.589,-233 754.589,-265 873.411,-265 873.411,-233 754.589,-233"/>
<text text-anchor="start" x="762.589" y="-251" font-family="Helvetica,sans-Serif" font-size="10.00">AP_HAL::BetterStream</text>
<text text-anchor="middle" x="814" y="-239" font-family="Helvetica,sans-Serif" font-size="10.00">::write</text>
</a>
</g>
</g>
<!-- Node4991&#45;&gt;Node4992 -->
<g id="edge10" class="edge"><title>Node4991&#45;&gt;Node4992</title>
<path fill="none" stroke="midnightblue" d="M701.76,-194.093C715.578,-202.263 735.795,-213.872 754,-223 757.771,-224.891 761.711,-226.788 765.687,-228.65"/>
<polygon fill="midnightblue" stroke="midnightblue" points="764.422,-231.92 774.971,-232.907 767.34,-225.557 764.422,-231.92"/>
</g>
<!-- Node4993 -->
<g id="node12" class="node"><title>Node4993</title>
<g id="a_node12"><a xlink:href="ftoa__engine_8cpp.html#a1c28234da8f20b43c85890d4bb452947" target="_top" xlink:title=" ">
<polygon fill="white" stroke="black" points="779.865,-194 779.865,-214 848.135,-214 848.135,-194 779.865,-194"/>
<text text-anchor="middle" x="814" y="-200" font-family="Helvetica,sans-Serif" font-size="10.00">ftoa_engine</text>
</a>
</g>
</g>
<!-- Node4991&#45;&gt;Node4993 -->
<g id="edge11" class="edge"><title>Node4991&#45;&gt;Node4993</title>
<path fill="none" stroke="midnightblue" d="M718.296,-189.203C733.877,-191.637 752.64,-194.569 769.341,-197.178"/>
<polygon fill="midnightblue" stroke="midnightblue" points="769.005,-200.668 779.426,-198.754 770.086,-193.752 769.005,-200.668"/>
</g>
<!-- Node4995 -->
<g id="node14" class="node"><title>Node4995</title>
<g id="a_node14"><a xlink:href="utoa__invert_8cpp.html#a34926f552460b47c414ec4d83b32815c" target="_top" xlink:title=" ">
<polygon fill="white" stroke="black" points="779.04,-155 779.04,-175 848.96,-175 848.96,-155 779.04,-155"/>
<text text-anchor="middle" x="814" y="-161" font-family="Helvetica,sans-Serif" font-size="10.00">ulltoa_invert</text>
</a>
</g>
</g>
<!-- Node4991&#45;&gt;Node4995 -->
<g id="edge13" class="edge"><title>Node4991&#45;&gt;Node4995</title>
<path fill="none" stroke="midnightblue" d="M718.296,-179.058C733.755,-176.763 752.345,-174.003 768.946,-171.539"/>
<polygon fill="midnightblue" stroke="midnightblue" points="769.602,-174.98 778.979,-170.05 768.574,-168.056 769.602,-174.98"/>
</g>
<!-- Node4996 -->
<g id="node15" class="node"><title>Node4996</title>
<g id="a_node15"><a xlink:href="utoa__invert_8cpp.html#a5d99bba8e697c1e11da489d88fca8559" target="_top" xlink:title=" ">
<polygon fill="white" stroke="black" points="780.15,-116 780.15,-136 847.85,-136 847.85,-116 780.15,-116"/>
<text text-anchor="middle" x="814" y="-122" font-family="Helvetica,sans-Serif" font-size="10.00">ultoa_invert</text>
</a>
</g>
</g>
<!-- Node4991&#45;&gt;Node4996 -->
<g id="edge15" class="edge"><title>Node4991&#45;&gt;Node4996</title>
<path fill="none" stroke="midnightblue" d="M700.697,-173.908C714.382,-165.41 734.969,-153.339 754,-145 759.175,-142.732 764.708,-140.596 770.236,-138.632"/>
<polygon fill="midnightblue" stroke="midnightblue" points="771.751,-141.814 780.1,-135.292 769.506,-135.184 771.751,-141.814"/>
</g>
<!-- Node4994 -->
<g id="node13" class="node"><title>Node4994</title>
<g id="a_node13"><a xlink:href="lstrlib_8c.html#a9605f4d16ae762782f8be8b54aef0a22" target="_top" xlink:title=" ">
<polygon fill="white" stroke="black" points="909.828,-155 909.828,-175 944.172,-175 944.172,-155 909.828,-155"/>
<text text-anchor="middle" x="927" y="-161" font-family="Helvetica,sans-Serif" font-size="10.00">digit</text>
</a>
</g>
</g>
<!-- Node4993&#45;&gt;Node4994 -->
<g id="edge12" class="edge"><title>Node4993&#45;&gt;Node4994</title>
<path fill="none" stroke="midnightblue" d="M845.062,-193.961C854.355,-190.817 864.615,-187.305 874,-184 882.508,-181.004 891.766,-177.652 900.081,-174.606"/>
<polygon fill="midnightblue" stroke="midnightblue" points="901.465,-177.826 909.641,-171.089 899.048,-171.257 901.465,-177.826"/>
</g>
<!-- Node4995&#45;&gt;Node4994 -->
<g id="edge14" class="edge"><title>Node4995&#45;&gt;Node4994</title>
<path fill="none" stroke="midnightblue" d="M849.209,-165C865.407,-165 884.457,-165 899.53,-165"/>
<polygon fill="midnightblue" stroke="midnightblue" points="899.705,-168.5 909.705,-165 899.705,-161.5 899.705,-168.5"/>
</g>
<!-- Node4996&#45;&gt;Node4994 -->
<g id="edge16" class="edge"><title>Node4996&#45;&gt;Node4994</title>
<path fill="none" stroke="midnightblue" d="M847.261,-136.031C855.973,-138.838 865.375,-141.955 874,-145 882.559,-148.022 891.831,-151.515 900.143,-154.729"/>
<polygon fill="midnightblue" stroke="midnightblue" points="899.104,-158.081 909.692,-158.46 901.652,-151.561 899.104,-158.081"/>
</g>
<!-- Node5000 -->
<g id="node19" class="node"><title>Node5000</title>
<g id="a_node19"><a xlink:href="hrt_8c.html#a1295f128f60d29874243b5733c4db025" target="_top" xlink:title=" ">
<polygon fill="white" stroke="black" points="353.714,-0 353.714,-20 420.286,-20 420.286,-0 353.714,-0"/>
<text text-anchor="middle" x="387" y="-6" font-family="Helvetica,sans-Serif" font-size="10.00">hrt_millis32</text>
</a>
</g>
</g>
<!-- Node4999&#45;&gt;Node5000 -->
<g id="edge20" class="edge"><title>Node4999&#45;&gt;Node5000</title>
<path fill="none" stroke="midnightblue" d="M250.378,-10C278.217,-10 315.155,-10 343.452,-10"/>
<polygon fill="midnightblue" stroke="midnightblue" points="343.453,-13.5001 353.453,-10 343.453,-6.5001 343.453,-13.5001"/>
</g>
</g>
</svg>
