<?xml version="1.0" encoding="UTF-8" standalone="no"?>
<!DOCTYPE svg PUBLIC "-//W3C//DTD SVG 1.1//EN"
 "http://www.w3.org/Graphics/SVG/1.1/DTD/svg11.dtd">
<!-- Generated by graphviz version 2.30.1 (20130221.2233)
 -->
<!-- Title: AP_AHRS_NavEKF::getMagOffsets Pages: 1 -->
<svg width="548pt" height="151pt"
 viewBox="0.00 0.00 548.00 151.00" xmlns="http://www.w3.org/2000/svg" xmlns:xlink="http://www.w3.org/1999/xlink">
<g id="graph0" class="graph" transform="scale(1 1) rotate(0) translate(4 147)">
<title>AP_AHRS_NavEKF::getMagOffsets</title>
<polygon fill="white" stroke="white" points="-4,5 -4,-147 545,-147 545,5 -4,5"/>
<!-- Node2251 -->
<g id="node1" class="node"><title>Node2251</title>
<g id="a_node1"><a xlink:title=" ">
<polygon fill="#bfbfbf" stroke="black" points="0.0561523,-58 0.0561523,-78 175.944,-78 175.944,-58 0.0561523,-58"/>
<text text-anchor="middle" x="88" y="-64" font-family="Helvetica,sans-Serif" font-size="10.00">AP_AHRS_NavEKF::getMagOffsets</text>
</a>
</g>
</g>
<!-- Node2252 -->
<g id="node2" class="node"><title>Node2252</title>
<g id="a_node2"><a xlink:href="classAP__AHRS__NavEKF.html#a9f010f72e8cc321678118e78be8a264e" target="_top" xlink:title=" ">
<polygon fill="white" stroke="black" points="212.582,-117 212.582,-137 361.418,-137 361.418,-117 212.582,-117"/>
<text text-anchor="middle" x="287" y="-123" font-family="Helvetica,sans-Serif" font-size="10.00">AP_AHRS_NavEKF::ekf_type</text>
</a>
</g>
</g>
<!-- Node2251&#45;&gt;Node2252 -->
<g id="edge1" class="edge"><title>Node2251&#45;&gt;Node2252</title>
<path fill="none" stroke="midnightblue" d="M119.469,-78.0634C144.292,-86.1645 180.295,-97.6938 212,-107 220.26,-109.425 229.071,-111.901 237.626,-114.248"/>
<polygon fill="midnightblue" stroke="midnightblue" points="236.936,-117.687 247.504,-116.933 238.773,-110.932 236.936,-117.687"/>
</g>
<!-- Node2254 -->
<g id="node4" class="node"><title>Node2254</title>
<g id="a_node4"><a xlink:href="classNavEKF2.html#aedc7547bfae7b769c8d670a91b423493" target="_top" xlink:title=" ">
<polygon fill="white" stroke="black" points="222.398,-78 222.398,-98 351.602,-98 351.602,-78 222.398,-78"/>
<text text-anchor="middle" x="287" y="-84" font-family="Helvetica,sans-Serif" font-size="10.00">NavEKF2::getMagOffsets</text>
</a>
</g>
</g>
<!-- Node2251&#45;&gt;Node2254 -->
<g id="edge3" class="edge"><title>Node2251&#45;&gt;Node2254</title>
<path fill="none" stroke="midnightblue" d="M175.981,-76.8305C188.018,-78.0526 200.289,-79.2984 212.06,-80.4934"/>
<polygon fill="midnightblue" stroke="midnightblue" points="211.954,-84.0006 222.257,-81.5286 212.661,-77.0364 211.954,-84.0006"/>
</g>
<!-- Node2255 -->
<g id="node5" class="node"><title>Node2255</title>
<g id="a_node5"><a xlink:href="classNavEKF3.html#a5da888b64f34e042cf00c2ef2efdb669" target="_top" xlink:title=" ">
<polygon fill="white" stroke="black" points="222.398,-39 222.398,-59 351.602,-59 351.602,-39 222.398,-39"/>
<text text-anchor="middle" x="287" y="-45" font-family="Helvetica,sans-Serif" font-size="10.00">NavEKF3::getMagOffsets</text>
</a>
</g>
</g>
<!-- Node2251&#45;&gt;Node2255 -->
<g id="edge4" class="edge"><title>Node2251&#45;&gt;Node2255</title>
<path fill="none" stroke="midnightblue" d="M175.981,-59.611C188.018,-58.45 200.289,-57.2666 212.06,-56.1313"/>
<polygon fill="midnightblue" stroke="midnightblue" points="212.639,-59.5918 222.257,-55.1478 211.967,-52.6241 212.639,-59.5918"/>
</g>
<!-- Node2256 -->
<g id="node6" class="node"><title>Node2256</title>
<g id="a_node6"><a xlink:href="classVector3.html#adf1769d5ee5df2f8585df2f540fa5efe" target="_top" xlink:title=" ">
<polygon fill="white" stroke="black" points="249.537,-0 249.537,-20 324.463,-20 324.463,-0 249.537,-0"/>
<text text-anchor="middle" x="287" y="-6" font-family="Helvetica,sans-Serif" font-size="10.00">Vector3::zero</text>
</a>
</g>
</g>
<!-- Node2251&#45;&gt;Node2256 -->
<g id="edge5" class="edge"><title>Node2251&#45;&gt;Node2256</title>
<path fill="none" stroke="midnightblue" d="M120.507,-57.9268C145.301,-50.0821 180.763,-39.0432 212,-30 220.918,-27.4181 230.472,-24.7581 239.651,-22.2543"/>
<polygon fill="midnightblue" stroke="midnightblue" points="240.681,-25.6017 249.418,-19.6098 238.851,-18.845 240.681,-25.6017"/>
</g>
<!-- Node2253 -->
<g id="node3" class="node"><title>Node2253</title>
<g id="a_node3"><a xlink:href="classAP__AHRS__NavEKF.html#a398575c9b9d19f35e2000fc0219a42ef" target="_top" xlink:title=" ">
<polygon fill="white" stroke="black" points="398.2,-111 398.2,-143 539.8,-143 539.8,-111 398.2,-111"/>
<text text-anchor="start" x="406.2" y="-129" font-family="Helvetica,sans-Serif" font-size="10.00">AP_AHRS_NavEKF::always</text>
<text text-anchor="middle" x="469" y="-117" font-family="Helvetica,sans-Serif" font-size="10.00">_use_EKF</text>
</a>
</g>
</g>
<!-- Node2252&#45;&gt;Node2253 -->
<g id="edge2" class="edge"><title>Node2252&#45;&gt;Node2253</title>
<path fill="none" stroke="midnightblue" d="M361.473,-127C370.136,-127 379.012,-127 387.763,-127"/>
<polygon fill="midnightblue" stroke="midnightblue" points="387.958,-130.5 397.958,-127 387.958,-123.5 387.958,-130.5"/>
</g>
</g>
</svg>
