<?xml version="1.0" encoding="UTF-8" standalone="no"?>
<!DOCTYPE svg PUBLIC "-//W3C//DTD SVG 1.1//EN"
 "http://www.w3.org/Graphics/SVG/1.1/DTD/svg11.dtd">
<!-- Generated by graphviz version 2.30.1 (20130221.2233)
 -->
<!-- Title: AP_TempCalibration::setup_learning Pages: 1 -->
<svg width="446pt" height="85pt"
 viewBox="0.00 0.00 446.00 85.00" xmlns="http://www.w3.org/2000/svg" xmlns:xlink="http://www.w3.org/1999/xlink">
<g id="graph0" class="graph" transform="scale(1 1) rotate(0) translate(4 81)">
<title>AP_TempCalibration::setup_learning</title>
<polygon fill="white" stroke="white" points="-4,5 -4,-81 443,-81 443,5 -4,5"/>
<!-- Node75 -->
<g id="node1" class="node"><title>Node75</title>
<g id="a_node1"><a xlink:title=" ">
<polygon fill="#bfbfbf" stroke="black" points="0.421387,-22 0.421387,-54 107.579,-54 107.579,-22 0.421387,-22"/>
<text text-anchor="start" x="8.42139" y="-40" font-family="Helvetica,sans-Serif" font-size="10.00">AP_TempCalibration</text>
<text text-anchor="middle" x="54" y="-28" font-family="Helvetica,sans-Serif" font-size="10.00">::setup_learning</text>
</a>
</g>
</g>
<!-- Node76 -->
<g id="node2" class="node"><title>Node76</title>
<g id="a_node2"><a xlink:href="namespaceAP.html#a8aec57eb0b7a79044cbc1f0ca4b75bcf" target="_top" xlink:title=" ">
<polygon fill="white" stroke="black" points="184.544,-57 184.544,-77 239.456,-77 239.456,-57 184.544,-57"/>
<text text-anchor="middle" x="212" y="-63" font-family="Helvetica,sans-Serif" font-size="10.00">AP::baro</text>
</a>
</g>
</g>
<!-- Node75&#45;&gt;Node76 -->
<g id="edge1" class="edge"><title>Node75&#45;&gt;Node76</title>
<path fill="none" stroke="midnightblue" d="M107.814,-47.8181C129.794,-51.904 154.762,-56.5455 174.632,-60.2392"/>
<polygon fill="midnightblue" stroke="midnightblue" points="174.043,-63.6897 184.515,-62.0764 175.323,-56.8076 174.043,-63.6897"/>
</g>
<!-- Node78 -->
<g id="node4" class="node"><title>Node78</title>
<g id="a_node4"><a xlink:href="classAP__Baro.html#ae7be7aff322792daa05c01e4f326cc42" target="_top" xlink:title=" ">
<polygon fill="white" stroke="black" points="144.52,-0 144.52,-20 279.48,-20 279.48,-0 144.52,-0"/>
<text text-anchor="middle" x="212" y="-6" font-family="Helvetica,sans-Serif" font-size="10.00">AP_Baro::get_temperature</text>
</a>
</g>
</g>
<!-- Node75&#45;&gt;Node78 -->
<g id="edge3" class="edge"><title>Node75&#45;&gt;Node78</title>
<path fill="none" stroke="midnightblue" d="M107.814,-28.5205C119.811,-26.3673 132.698,-24.0542 145.16,-21.8174"/>
<polygon fill="midnightblue" stroke="midnightblue" points="145.814,-25.256 155.038,-20.0444 144.577,-18.3661 145.814,-25.256"/>
</g>
<!-- Node77 -->
<g id="node3" class="node"><title>Node77</title>
<g id="a_node3"><a xlink:href="classAP__Baro.html#a92b0efed71f214529da6c54d692f1d61" target="_top" xlink:title=" ">
<polygon fill="white" stroke="black" points="316.463,-57 316.463,-77 437.537,-77 437.537,-57 316.463,-57"/>
<text text-anchor="middle" x="377" y="-63" font-family="Helvetica,sans-Serif" font-size="10.00">AP_Baro::get_singleton</text>
</a>
</g>
</g>
<!-- Node76&#45;&gt;Node77 -->
<g id="edge2" class="edge"><title>Node76&#45;&gt;Node77</title>
<path fill="none" stroke="midnightblue" d="M239.552,-67C257.706,-67 282.671,-67 306.286,-67"/>
<polygon fill="midnightblue" stroke="midnightblue" points="306.301,-70.5001 316.301,-67 306.301,-63.5001 306.301,-70.5001"/>
</g>
<!-- Node78&#45;&gt;Node78 -->
<g id="edge4" class="edge"><title>Node78&#45;&gt;Node78</title>
<path fill="none" stroke="midnightblue" d="M187.264,-20.0477C175.981,-28.7715 184.227,-38 212,-38 229.792,-38 239.57,-34.2126 241.334,-29.1968"/>
<polygon fill="midnightblue" stroke="midnightblue" points="244.354,-27.411 236.736,-20.0477 238.099,-30.5544 244.354,-27.411"/>
</g>
</g>
</svg>
