<?xml version="1.0" encoding="UTF-8" standalone="no"?>
<!DOCTYPE svg PUBLIC "-//W3C//DTD SVG 1.1//EN"
 "http://www.w3.org/Graphics/SVG/1.1/DTD/svg11.dtd">
<!-- Generated by graphviz version 2.30.1 (20130221.2233)
 -->
<!-- Title: AP_RCProtocol_SBUS::process_pulse Pages: 1 -->
<!--zoomable 203 -->
<svg id="main" version="1.1" xmlns="http://www.w3.org/2000/svg" xmlns:xlink="http://www.w3.org/1999/xlink" xml:space="preserve" onload="init(evt)">
<style type="text/css"><![CDATA[
.edge:hover path { stroke: red; }
.edge:hover polygon { stroke: red; fill: red; }
]]></style>
<script type="text/javascript"><![CDATA[
var edges = document.getElementsByTagName('g');
if (edges && edges.length) {
  for (var i=0;i<edges.length;i++) {
    if (edges[i].id.substr(0,4)=='edge') {
      edges[i].setAttribute('class','edge');
    }
  }
}
]]></script>
        <defs>
                <circle id="rim" cx="0" cy="0" r="7"/>
                <circle id="rim2" cx="0" cy="0" r="3.5"/>
                <g id="zoomPlus">
                        <use xlink:href="#rim" fill="#404040">
                                <set attributeName="fill" to="#808080" begin="zoomplus.mouseover" end="zoomplus.mouseout"/>
                        </use>
                        <path d="M-4,0h8M0,-4v8" fill="none" stroke="white" stroke-width="1.5" pointer-events="none"/>
                </g>
                <g id="zoomMin">
                        <use xlink:href="#rim" fill="#404040">
                                <set attributeName="fill" to="#808080" begin="zoomminus.mouseover" end="zoomminus.mouseout"/>
                        </use>
                        <path d="M-4,0h8" fill="none" stroke="white" stroke-width="1.5" pointer-events="none"/>
                </g>
                <g id="dirArrow">
                        <path fill="none" stroke="white" stroke-width="1.5" d="M0,-3.0v7 M-2.5,-0.5L0,-3.0L2.5,-0.5"/>
                </g>
               <g id="resetDef">
                       <use xlink:href="#rim2" fill="#404040">
                               <set attributeName="fill" to="#808080" begin="reset.mouseover" end="reset.mouseout"/>
                       </use>
               </g>
        </defs>

<script type="text/javascript">
var viewWidth = 1104;
var viewHeight = 203;
var sectionId = 'dynsection-5';
</script>
<script xlink:href="svgpan.js"/>
<svg id="graph" class="graph">
<g id="viewport">
<title>AP_RCProtocol_SBUS::process_pulse</title>
<polygon fill="white" stroke="white" points="-4,5 -4,-199 1101,-199 1101,5 -4,5"/>
<!-- Node21 -->
<g id="node1" class="node"><title>Node21</title>
<g id="a_node1"><a xlink:title=" ">
<polygon fill="#bfbfbf" stroke="black" points="0.588867,-51 0.588867,-83 119.411,-83 119.411,-51 0.588867,-51"/>
<text text-anchor="start" x="8.58887" y="-69" font-family="Helvetica,sans-Serif" font-size="10.00">AP_RCProtocol_SBUS</text>
<text text-anchor="middle" x="60" y="-57" font-family="Helvetica,sans-Serif" font-size="10.00">::process_pulse</text>
</a>
</g>
</g>
<!-- Node22 -->
<g id="node2" class="node"><title>Node22</title>
<g id="a_node2"><a xlink:href="classSoftSerial.html#af475f92908f7b1464197f24e7b6d6f93" target="_top" xlink:title=" ">
<polygon fill="white" stroke="black" points="166.037,-102 166.037,-134 265.963,-134 265.963,-102 166.037,-102"/>
<text text-anchor="start" x="174.037" y="-120" font-family="Helvetica,sans-Serif" font-size="10.00">SoftSerial::process</text>
<text text-anchor="middle" x="216" y="-108" font-family="Helvetica,sans-Serif" font-size="10.00">_pulse</text>
</a>
</g>
</g>
<!-- Node21&#45;&gt;Node22 -->
<g id="edge1" class="edge"><title>Node21&#45;&gt;Node22</title>
<path fill="none" stroke="midnightblue" d="M109.727,-83.1367C124.759,-88.1151 141.461,-93.6463 157.052,-98.8094"/>
<polygon fill="midnightblue" stroke="midnightblue" points="155.997,-102.147 166.59,-101.968 158.198,-95.5019 155.997,-102.147"/>
</g>
<!-- Node29 -->
<g id="node9" class="node"><title>Node29</title>
<g id="a_node9"><a xlink:href="classAP__RCProtocol__SBUS.html#adacc694a5a198a66c1fed6479fd04262" target="_top" xlink:title=" ">
<polygon fill="white" stroke="black" points="156.589,-51 156.589,-83 275.411,-83 275.411,-51 156.589,-51"/>
<text text-anchor="start" x="164.589" y="-69" font-family="Helvetica,sans-Serif" font-size="10.00">AP_RCProtocol_SBUS</text>
<text text-anchor="middle" x="216" y="-57" font-family="Helvetica,sans-Serif" font-size="10.00">::_process_byte</text>
</a>
</g>
</g>
<!-- Node21&#45;&gt;Node29 -->
<g id="edge11" class="edge"><title>Node21&#45;&gt;Node29</title>
<path fill="none" stroke="midnightblue" d="M119.66,-67C128.43,-67 137.536,-67 146.488,-67"/>
<polygon fill="midnightblue" stroke="midnightblue" points="146.503,-70.5001 156.503,-67 146.503,-63.5001 146.503,-70.5001"/>
</g>
<!-- Node35 -->
<g id="node15" class="node"><title>Node35</title>
<g id="a_node15"><a xlink:href="classSoftSerial.html#afdcf39fc4cddc6d123d205d4fdcc6eaa" target="_top" xlink:title=" ">
<polygon fill="white" stroke="black" points="164.362,-0 164.362,-32 267.638,-32 267.638,-0 164.362,-0"/>
<text text-anchor="start" x="172.362" y="-18" font-family="Helvetica,sans-Serif" font-size="10.00">SoftSerial::get_byte</text>
<text text-anchor="middle" x="216" y="-6" font-family="Helvetica,sans-Serif" font-size="10.00">_timestamp_us</text>
</a>
</g>
</g>
<!-- Node21&#45;&gt;Node35 -->
<g id="edge17" class="edge"><title>Node21&#45;&gt;Node35</title>
<path fill="none" stroke="midnightblue" d="M109.727,-50.8633C124.759,-45.8849 141.461,-40.3537 157.052,-35.1906"/>
<polygon fill="midnightblue" stroke="midnightblue" points="158.198,-38.4981 166.59,-32.0317 155.997,-31.853 158.198,-38.4981"/>
</g>
<!-- Node23 -->
<g id="node3" class="node"><title>Node23</title>
<g id="a_node3"><a xlink:href="SmartRTL__test_8cpp.html#ad20897c5c8bd47f5d4005989bead0e55" target="_top" xlink:title=" ">
<polygon fill="white" stroke="black" points="358.884,-108 358.884,-128 397.116,-128 397.116,-108 358.884,-108"/>
<text text-anchor="middle" x="378" y="-114" font-family="Helvetica,sans-Serif" font-size="10.00">reset</text>
</a>
</g>
</g>
<!-- Node22&#45;&gt;Node23 -->
<g id="edge2" class="edge"><title>Node22&#45;&gt;Node23</title>
<path fill="none" stroke="midnightblue" d="M266.311,-118C293.42,-118 326.071,-118 348.858,-118"/>
<polygon fill="midnightblue" stroke="midnightblue" points="348.881,-121.5 358.881,-118 348.881,-114.5 348.881,-121.5"/>
</g>
<!-- Node24 -->
<g id="node4" class="node"><title>Node24</title>
<g id="a_node4"><a xlink:href="classAP__SmartRTL.html#ab385d8b52e321f9a01d01b42e52e0c4b" target="_top" xlink:title=" ">
<polygon fill="white" stroke="black" points="639.12,-106 639.12,-126 768.88,-126 768.88,-106 639.12,-106"/>
<text text-anchor="middle" x="704" y="-112" font-family="Helvetica,sans-Serif" font-size="10.00">AP_SmartRTL::set_home</text>
</a>
</g>
</g>
<!-- Node23&#45;&gt;Node24 -->
<g id="edge3" class="edge"><title>Node23&#45;&gt;Node24</title>
<path fill="none" stroke="midnightblue" d="M397.348,-117.887C441.01,-117.617 553.08,-116.925 628.683,-116.459"/>
<polygon fill="midnightblue" stroke="midnightblue" points="629.12,-119.956 639.098,-116.394 629.077,-112.956 629.12,-119.956"/>
</g>
<!-- Node28 -->
<g id="node8" class="node"><title>Node28</title>
<g id="a_node8"><a xlink:href="classAP__SmartRTL.html#ab817af3df8d87b6d60859fd7e5e6a0d9" target="_top" xlink:title=" ">
<polygon fill="white" stroke="black" points="479.785,-145 479.785,-165 596.215,-165 596.215,-145 479.785,-145"/>
<text text-anchor="middle" x="538" y="-151" font-family="Helvetica,sans-Serif" font-size="10.00">AP_SmartRTL::update</text>
</a>
</g>
</g>
<!-- Node23&#45;&gt;Node28 -->
<g id="edge7" class="edge"><title>Node23&#45;&gt;Node28</title>
<path fill="none" stroke="midnightblue" d="M397.125,-122.244C418.244,-127.19 454.091,-135.585 484.207,-142.637"/>
<polygon fill="midnightblue" stroke="midnightblue" points="483.637,-146.098 494.171,-144.97 485.233,-139.283 483.637,-146.098"/>
</g>
<!-- Node25 -->
<g id="node5" class="node"><title>Node25</title>
<g id="a_node5"><a xlink:href="namespaceAP.html#a99432cfdb696952c9b7146f155a815aa" target="_top" xlink:title=" ">
<polygon fill="white" stroke="black" points="844.825,-175 844.825,-195 899.175,-195 899.175,-175 844.825,-175"/>
<text text-anchor="middle" x="872" y="-181" font-family="Helvetica,sans-Serif" font-size="10.00">AP::ahrs</text>
</a>
</g>
</g>
<!-- Node24&#45;&gt;Node25 -->
<g id="edge4" class="edge"><title>Node24&#45;&gt;Node25</title>
<path fill="none" stroke="midnightblue" d="M729.138,-126.033C757.66,-137.889 805.288,-157.686 837.403,-171.035"/>
<polygon fill="midnightblue" stroke="midnightblue" points="836.256,-174.348 846.833,-174.955 838.942,-167.884 836.256,-174.348"/>
</g>
<!-- Node27 -->
<g id="node7" class="node"><title>Node27</title>
<g id="a_node7"><a xlink:href="classAP__AHRS.html#a3e061eda3110837c4f389b75003423e2" target="_top" xlink:title=" ">
<polygon fill="white" stroke="black" points="812.03,-116 812.03,-148 931.97,-148 931.97,-116 812.03,-116"/>
<text text-anchor="start" x="820.03" y="-134" font-family="Helvetica,sans-Serif" font-size="10.00">AP_AHRS::get_relative</text>
<text text-anchor="middle" x="872" y="-122" font-family="Helvetica,sans-Serif" font-size="10.00">_position_NED_origin</text>
</a>
</g>
</g>
<!-- Node24&#45;&gt;Node27 -->
<g id="edge6" class="edge"><title>Node24&#45;&gt;Node27</title>
<path fill="none" stroke="midnightblue" d="M769.18,-122.186C779.827,-123.212 790.911,-124.281 801.679,-125.318"/>
<polygon fill="midnightblue" stroke="midnightblue" points="801.591,-128.826 811.881,-126.302 802.263,-121.858 801.591,-128.826"/>
</g>
<!-- Node26 -->
<g id="node6" class="node"><title>Node26</title>
<g id="a_node6"><a xlink:href="classAP__AHRS.html#a3db167e808ba6d312c3b746e558008e9" target="_top" xlink:title=" ">
<polygon fill="white" stroke="black" points="968.133,-175 968.133,-195 1095.87,-195 1095.87,-175 968.133,-175"/>
<text text-anchor="middle" x="1032" y="-181" font-family="Helvetica,sans-Serif" font-size="10.00">AP_AHRS::get_singleton</text>
</a>
</g>
</g>
<!-- Node25&#45;&gt;Node26 -->
<g id="edge5" class="edge"><title>Node25&#45;&gt;Node26</title>
<path fill="none" stroke="midnightblue" d="M899.446,-185C915.526,-185 936.923,-185 957.78,-185"/>
<polygon fill="midnightblue" stroke="midnightblue" points="957.95,-188.5 967.95,-185 957.95,-181.5 957.95,-188.5"/>
</g>
<!-- Node28&#45;&gt;Node24 -->
<g id="edge8" class="edge"><title>Node28&#45;&gt;Node24</title>
<path fill="none" stroke="midnightblue" d="M581.234,-144.957C602.564,-139.884 628.629,-133.686 651.164,-128.327"/>
<polygon fill="midnightblue" stroke="midnightblue" points="651.99,-131.728 660.909,-126.009 650.371,-124.918 651.99,-131.728"/>
</g>
<!-- Node28&#45;&gt;Node25 -->
<g id="edge9" class="edge"><title>Node28&#45;&gt;Node25</title>
<path fill="none" stroke="midnightblue" d="M596.451,-160.191C664.94,-166.38 777.329,-176.536 834.754,-181.725"/>
<polygon fill="midnightblue" stroke="midnightblue" points="834.54,-185.22 844.814,-182.634 835.17,-178.248 834.54,-185.22"/>
</g>
<!-- Node28&#45;&gt;Node27 -->
<g id="edge10" class="edge"><title>Node28&#45;&gt;Node27</title>
<path fill="none" stroke="midnightblue" d="M596.451,-151.02C653.47,-147.07 740.915,-141.012 801.741,-136.798"/>
<polygon fill="midnightblue" stroke="midnightblue" points="802.285,-140.269 812.019,-136.086 801.801,-133.286 802.285,-140.269"/>
</g>
<!-- Node30 -->
<g id="node10" class="node"><title>Node30</title>
<g id="a_node10"><a xlink:href="classAP__RCProtocol__SBUS.html#a6637ff02defa6b10a872bab1ca18acd3" target="_top" xlink:title=" ">
<polygon fill="white" stroke="black" points="318.589,-3 318.589,-35 437.411,-35 437.411,-3 318.589,-3"/>
<text text-anchor="start" x="326.589" y="-21" font-family="Helvetica,sans-Serif" font-size="10.00">AP_RCProtocol_SBUS</text>
<text text-anchor="middle" x="378" y="-9" font-family="Helvetica,sans-Serif" font-size="10.00">::sbus_decode</text>
</a>
</g>
</g>
<!-- Node29&#45;&gt;Node30 -->
<g id="edge12" class="edge"><title>Node29&#45;&gt;Node30</title>
<path fill="none" stroke="midnightblue" d="M270.723,-50.8832C284.516,-46.7451 299.482,-42.2553 313.71,-37.9869"/>
<polygon fill="midnightblue" stroke="midnightblue" points="314.846,-41.3002 323.419,-35.0743 312.835,-34.5955 314.846,-41.3002"/>
</g>
<!-- Node31 -->
<g id="node11" class="node"><title>Node31</title>
<g id="a_node11"><a xlink:href="classAP__RCProtocol__Backend.html#a07a0cb46703f289db379e832dad921a0" target="_top" xlink:title=" ">
<polygon fill="white" stroke="black" points="312.747,-54 312.747,-86 443.253,-86 443.253,-54 312.747,-54"/>
<text text-anchor="start" x="320.747" y="-72" font-family="Helvetica,sans-Serif" font-size="10.00">AP_RCProtocol_Backend</text>
<text text-anchor="middle" x="378" y="-60" font-family="Helvetica,sans-Serif" font-size="10.00">::add_input</text>
</a>
</g>
</g>
<!-- Node29&#45;&gt;Node31 -->
<g id="edge13" class="edge"><title>Node29&#45;&gt;Node31</title>
<path fill="none" stroke="midnightblue" d="M275.67,-68.1001C284.418,-68.2641 293.533,-68.435 302.553,-68.6041"/>
<polygon fill="midnightblue" stroke="midnightblue" points="302.609,-72.1057 312.673,-68.7939 302.74,-65.1069 302.609,-72.1057"/>
</g>
<!-- Node32 -->
<g id="node12" class="node"><title>Node32</title>
<g id="a_node12"><a xlink:href="AP__Math_8h.html#a321a91de43cfb2e95d40cde314d0a80f" target="_top" xlink:title=" ">
<polygon fill="white" stroke="black" points="520.835,-61 520.835,-81 555.165,-81 555.165,-61 520.835,-61"/>
<text text-anchor="middle" x="538" y="-67" font-family="Helvetica,sans-Serif" font-size="10.00">MIN</text>
</a>
</g>
</g>
<!-- Node31&#45;&gt;Node32 -->
<g id="edge14" class="edge"><title>Node31&#45;&gt;Node32</title>
<path fill="none" stroke="midnightblue" d="M443.265,-70.4067C466.723,-70.5552 491.978,-70.7151 510.357,-70.8314"/>
<polygon fill="midnightblue" stroke="midnightblue" points="510.553,-74.3326 520.575,-70.896 510.598,-67.3327 510.553,-74.3326"/>
</g>
<!-- Node33 -->
<g id="node13" class="node"><title>Node33</title>
<g id="a_node13"><a xlink:href="RC__Channel_8h.html#acb66f35c4fe350096704f48e4c651948" target="_top" xlink:title=" ">
<polygon fill="white" stroke="black" points="523.5,-22 523.5,-42 552.5,-42 552.5,-22 523.5,-22"/>
<text text-anchor="middle" x="538" y="-28" font-family="Helvetica,sans-Serif" font-size="10.00">rc</text>
</a>
</g>
</g>
<!-- Node31&#45;&gt;Node33 -->
<g id="edge15" class="edge"><title>Node31&#45;&gt;Node33</title>
<path fill="none" stroke="midnightblue" d="M443.265,-54.5439C468.118,-48.5664 494.99,-42.1038 513.562,-37.6369"/>
<polygon fill="midnightblue" stroke="midnightblue" points="514.556,-40.9977 523.461,-35.2563 512.919,-34.1918 514.556,-40.9977"/>
</g>
<!-- Node34 -->
<g id="node14" class="node"><title>Node34</title>
<g id="a_node14"><a xlink:href="classRC__Channels.html#aff83e1bebc777f76d2c19fc601c40c4f" target="_top" xlink:title=" ">
<polygon fill="white" stroke="black" points="632.348,-22 632.348,-42 775.652,-42 775.652,-22 632.348,-22"/>
<text text-anchor="middle" x="704" y="-28" font-family="Helvetica,sans-Serif" font-size="10.00">RC_Channels::get_singleton</text>
</a>
</g>
</g>
<!-- Node33&#45;&gt;Node34 -->
<g id="edge16" class="edge"><title>Node33&#45;&gt;Node34</title>
<path fill="none" stroke="midnightblue" d="M552.7,-32C568.333,-32 595.206,-32 621.946,-32"/>
<polygon fill="midnightblue" stroke="midnightblue" points="622.163,-35.5001 632.163,-32 622.163,-28.5001 622.163,-35.5001"/>
</g>
</g>
</svg>
        <g id="navigator" transform="translate(0 0)" fill="#404254">
                <rect fill="#f2f5e9" fill-opacity="0.5" stroke="#606060" stroke-width=".5" x="0" y="0" width="60" height="60"/>
                <use id="zoomplus" xlink:href="#zoomPlus" x="17" y="9" onmousedown="handleZoom(evt,'in')"/>
                <use id="zoomminus" xlink:href="#zoomMin" x="42" y="9" onmousedown="handleZoom(evt,'out')"/>
                <use id="reset" xlink:href="#resetDef" x="30" y="36" onmousedown="handleReset()"/>
                <g id="arrowUp" xlink:href="#dirArrow" transform="translate(30 24)" onmousedown="handlePan(0,-1)">
                  <use xlink:href="#rim" fill="#404040">
                        <set attributeName="fill" to="#808080" begin="arrowUp.mouseover" end="arrowUp.mouseout"/>
                  </use>
                  <path fill="none" stroke="white" stroke-width="1.5" d="M0,-3.0v7 M-2.5,-0.5L0,-3.0L2.5,-0.5"/>
                </g>
                <g id="arrowRight" xlink:href="#dirArrow" transform="rotate(90) translate(36 -43)" onmousedown="handlePan(1,0)">
                  <use xlink:href="#rim" fill="#404040">
                        <set attributeName="fill" to="#808080" begin="arrowRight.mouseover" end="arrowRight.mouseout"/>
                  </use>
                  <path fill="none" stroke="white" stroke-width="1.5" d="M0,-3.0v7 M-2.5,-0.5L0,-3.0L2.5,-0.5"/>
                </g>
                <g id="arrowDown" xlink:href="#dirArrow" transform="rotate(180) translate(-30 -48)" onmousedown="handlePan(0,1)">
                  <use xlink:href="#rim" fill="#404040">
                        <set attributeName="fill" to="#808080" begin="arrowDown.mouseover" end="arrowDown.mouseout"/>
                  </use>
                  <path fill="none" stroke="white" stroke-width="1.5" d="M0,-3.0v7 M-2.5,-0.5L0,-3.0L2.5,-0.5"/>
                </g>
                <g id="arrowLeft" xlink:href="#dirArrow" transform="rotate(270) translate(-36 17)" onmousedown="handlePan(-1,0)">
                  <use xlink:href="#rim" fill="#404040">
                        <set attributeName="fill" to="#808080" begin="arrowLeft.mouseover" end="arrowLeft.mouseout"/>
                  </use>
                  <path fill="none" stroke="white" stroke-width="1.5" d="M0,-3.0v7 M-2.5,-0.5L0,-3.0L2.5,-0.5"/>
                </g>
        </g>
        <svg viewBox="0 0 15 15" width="100%" height="30px" preserveAspectRatio="xMaxYMin meet">
         <g id="arrow_out" transform="scale(0.3 0.3)">
          <a xlink:href="classAP__RCProtocol__SBUS_a29e66e11b2fa30a04de13bdffc9ffc11_cgraph_org.svg" target="_base">
           <rect id="button" ry="5" rx="5" y="6" x="6" height="38" width="38"
                fill="#f2f5e9" fill-opacity="0.5" stroke="#606060" stroke-width="1.0"/>
           <path id="arrow"
             d="M 11.500037,31.436501 C 11.940474,20.09759 22.043105,11.32322 32.158766,21.979434 L 37.068811,17.246167 C 37.068811,17.246167 37.088388,32 37.088388,32 L 22.160133,31.978069 C 22.160133,31.978069 26.997745,27.140456 26.997745,27.140456 C 18.528582,18.264221 13.291696,25.230495 11.500037,31.436501 z"
             style="fill:#404040;"/>
          </a>
         </g>
        </svg>
</svg>
