<?xml version="1.0" encoding="UTF-8" standalone="no"?>
<!DOCTYPE svg PUBLIC "-//W3C//DTD SVG 1.1//EN"
 "http://www.w3.org/Graphics/SVG/1.1/DTD/svg11.dtd">
<!-- Generated by graphviz version 2.30.1 (20130221.2233)
 -->
<!-- Title: AP_Airspeed_UAVCAN::probe Pages: 1 -->
<svg width="336pt" height="40pt"
 viewBox="0.00 0.00 336.00 40.00" xmlns="http://www.w3.org/2000/svg" xmlns:xlink="http://www.w3.org/1999/xlink">
<g id="graph0" class="graph" transform="scale(1 1) rotate(0) translate(4 36)">
<title>AP_Airspeed_UAVCAN::probe</title>
<polygon fill="white" stroke="white" points="-4,5 -4,-36 333,-36 333,5 -4,5"/>
<!-- Node13 -->
<g id="node1" class="node"><title>Node13</title>
<g id="a_node1"><a xlink:title=" ">
<polygon fill="#bfbfbf" stroke="black" points="206.566,-0 206.566,-32 327.434,-32 327.434,-0 206.566,-0"/>
<text text-anchor="start" x="214.566" y="-18" font-family="Helvetica,sans-Serif" font-size="10.00">AP_Airspeed_UAVCAN</text>
<text text-anchor="middle" x="267" y="-6" font-family="Helvetica,sans-Serif" font-size="10.00">::probe</text>
</a>
</g>
</g>
<!-- Node14 -->
<g id="node2" class="node"><title>Node14</title>
<g id="a_node2"><a xlink:href="classAP__Airspeed.html#a7499575104f24c6502e1148c353d9637" target="_top" xlink:title=" ">
<polygon fill="white" stroke="black" points="76.6455,-6 76.6455,-26 169.354,-26 169.354,-6 76.6455,-6"/>
<text text-anchor="middle" x="123" y="-12" font-family="Helvetica,sans-Serif" font-size="10.00">AP_Airspeed::init</text>
</a>
</g>
</g>
<!-- Node13&#45;&gt;Node14 -->
<g id="edge1" class="edge"><title>Node13&#45;&gt;Node14</title>
<path fill="none" stroke="midnightblue" d="M196.046,-16C187.026,-16 177.982,-16 169.499,-16"/>
<polygon fill="midnightblue" stroke="midnightblue" points="196.191,-19.5001 206.191,-16 196.191,-12.5001 196.191,-19.5001"/>
</g>
<!-- Node15 -->
<g id="node3" class="node"><title>Node15</title>
<g id="a_node3"><a xlink:href="Airspeed_8cpp.html#a4fc01d736fe50cf5b977f755b675f11d" target="_top" xlink:title=" ">
<polygon fill="white" stroke="black" points="-0.231445,-6 -0.231445,-26 40.2314,-26 40.2314,-6 -0.231445,-6"/>
<text text-anchor="middle" x="20" y="-12" font-family="Helvetica,sans-Serif" font-size="10.00">setup</text>
</a>
</g>
</g>
<!-- Node14&#45;&gt;Node15 -->
<g id="edge2" class="edge"><title>Node14&#45;&gt;Node15</title>
<path fill="none" stroke="midnightblue" d="M66.3961,-16C57.0922,-16 48.0218,-16 40.4654,-16"/>
<polygon fill="midnightblue" stroke="midnightblue" points="66.5229,-19.5001 76.5229,-16 66.5228,-12.5001 66.5229,-19.5001"/>
</g>
</g>
</svg>
