<?xml version="1.0" encoding="UTF-8" standalone="no"?>
<!DOCTYPE svg PUBLIC "-//W3C//DTD SVG 1.1//EN"
 "http://www.w3.org/Graphics/SVG/1.1/DTD/svg11.dtd">
<!-- Generated by graphviz version 2.30.1 (20130221.2233)
 -->
<!-- Title: AP_Compass_AK09916::probe Pages: 1 -->
<svg width="836pt" height="85pt"
 viewBox="0.00 0.00 836.00 85.00" xmlns="http://www.w3.org/2000/svg" xmlns:xlink="http://www.w3.org/1999/xlink">
<g id="graph0" class="graph" transform="scale(1 1) rotate(0) translate(4 81)">
<title>AP_Compass_AK09916::probe</title>
<polygon fill="white" stroke="white" points="-4,5 -4,-81 833,-81 833,5 -4,5"/>
<!-- Node1640 -->
<g id="node1" class="node"><title>Node1640</title>
<g id="a_node1"><a xlink:title=" ">
<polygon fill="#bfbfbf" stroke="black" points="704.077,-22 704.077,-54 827.923,-54 827.923,-22 704.077,-22"/>
<text text-anchor="start" x="712.077" y="-40" font-family="Helvetica,sans-Serif" font-size="10.00">AP_Compass_AK09916</text>
<text text-anchor="middle" x="766" y="-28" font-family="Helvetica,sans-Serif" font-size="10.00">::probe</text>
</a>
</g>
</g>
<!-- Node1641 -->
<g id="node2" class="node"><title>Node1641</title>
<g id="a_node2"><a xlink:href="classCompass.html#a766d77e1b78dc08be50ba76994c8b4ab" target="_top" xlink:title=" ">
<polygon fill="white" stroke="black" points="371.966,-45 371.966,-77 508.034,-77 508.034,-45 371.966,-45"/>
<text text-anchor="start" x="379.966" y="-63" font-family="Helvetica,sans-Serif" font-size="10.00">Compass::_probe_external</text>
<text text-anchor="middle" x="440" y="-51" font-family="Helvetica,sans-Serif" font-size="10.00">_i2c_compasses</text>
</a>
</g>
</g>
<!-- Node1640&#45;&gt;Node1641 -->
<g id="edge1" class="edge"><title>Node1640&#45;&gt;Node1641</title>
<path fill="none" stroke="midnightblue" d="M693.982,-43.0414C638.661,-46.9685 562.392,-52.3827 508.095,-56.2371"/>
<polygon fill="midnightblue" stroke="midnightblue" points="694.331,-46.5255 704.058,-42.3261 693.835,-39.5431 694.331,-46.5255"/>
</g>
<!-- Node1645 -->
<g id="node6" class="node"><title>Node1645</title>
<g id="a_node6"><a xlink:href="classAP__Compass__AK09916.html#a3dc547853733f3261ff83a6051a4684b" target="_top" xlink:title=" ">
<polygon fill="white" stroke="black" points="544.077,-0 544.077,-32 667.923,-32 667.923,-0 544.077,-0"/>
<text text-anchor="start" x="552.077" y="-18" font-family="Helvetica,sans-Serif" font-size="10.00">AP_Compass_AK09916</text>
<text text-anchor="middle" x="606" y="-6" font-family="Helvetica,sans-Serif" font-size="10.00">::probe_ICM20948</text>
</a>
</g>
</g>
<!-- Node1640&#45;&gt;Node1645 -->
<g id="edge5" class="edge"><title>Node1640&#45;&gt;Node1645</title>
<path fill="none" stroke="midnightblue" d="M693.84,-28.0916C685.188,-26.8869 676.409,-25.6646 667.924,-24.4832"/>
<polygon fill="midnightblue" stroke="midnightblue" points="693.526,-31.5816 703.913,-29.4942 694.491,-24.6485 693.526,-31.5816"/>
</g>
<!-- Node1642 -->
<g id="node3" class="node"><title>Node1642</title>
<g id="a_node3"><a xlink:href="classCompass.html#a1c48170d8c8966b22fb150b1634443ec" target="_top" xlink:title=" ">
<polygon fill="white" stroke="black" points="190.518,-28 190.518,-48 335.482,-48 335.482,-28 190.518,-28"/>
<text text-anchor="middle" x="263" y="-34" font-family="Helvetica,sans-Serif" font-size="10.00">Compass::_detect_backends</text>
</a>
</g>
</g>
<!-- Node1641&#45;&gt;Node1642 -->
<g id="edge2" class="edge"><title>Node1641&#45;&gt;Node1642</title>
<path fill="none" stroke="midnightblue" d="M361.733,-50.8449C353.052,-49.704 344.234,-48.5451 335.629,-47.4141"/>
<polygon fill="midnightblue" stroke="midnightblue" points="361.47,-54.3404 371.841,-52.1734 362.382,-47.4001 361.47,-54.3404"/>
</g>
<!-- Node1643 -->
<g id="node4" class="node"><title>Node1643</title>
<g id="a_node4"><a xlink:href="classCompass.html#a79db6bfd3fe309c6258d783f126326c6" target="_top" xlink:title=" ">
<polygon fill="white" stroke="black" points="76.7119,-28 76.7119,-48 153.288,-48 153.288,-28 76.7119,-28"/>
<text text-anchor="middle" x="115" y="-34" font-family="Helvetica,sans-Serif" font-size="10.00">Compass::init</text>
</a>
</g>
</g>
<!-- Node1642&#45;&gt;Node1643 -->
<g id="edge3" class="edge"><title>Node1642&#45;&gt;Node1643</title>
<path fill="none" stroke="midnightblue" d="M180.187,-38C170.925,-38 161.856,-38 153.587,-38"/>
<polygon fill="midnightblue" stroke="midnightblue" points="180.283,-41.5001 190.283,-38 180.283,-34.5001 180.283,-41.5001"/>
</g>
<!-- Node1644 -->
<g id="node5" class="node"><title>Node1644</title>
<g id="a_node5"><a xlink:href="AHRS__Test_8cpp.html#a4fc01d736fe50cf5b977f755b675f11d" target="_top" xlink:title=" ">
<polygon fill="white" stroke="black" points="-0.231445,-28 -0.231445,-48 40.2314,-48 40.2314,-28 -0.231445,-28"/>
<text text-anchor="middle" x="20" y="-34" font-family="Helvetica,sans-Serif" font-size="10.00">setup</text>
</a>
</g>
</g>
<!-- Node1643&#45;&gt;Node1644 -->
<g id="edge4" class="edge"><title>Node1643&#45;&gt;Node1644</title>
<path fill="none" stroke="midnightblue" d="M66.6796,-38C57.3877,-38 48.1395,-38 40.4198,-38"/>
<polygon fill="midnightblue" stroke="midnightblue" points="66.7092,-41.5001 76.7092,-38 66.7092,-34.5001 66.7092,-41.5001"/>
</g>
<!-- Node1645&#45;&gt;Node1641 -->
<g id="edge6" class="edge"><title>Node1645&#45;&gt;Node1641</title>
<path fill="none" stroke="midnightblue" d="M536.466,-34.8049C524.121,-38.1925 511.356,-41.6949 499.334,-44.9936"/>
<polygon fill="midnightblue" stroke="midnightblue" points="537.538,-38.1403 546.255,-32.1189 535.686,-31.3899 537.538,-38.1403"/>
</g>
<!-- Node1645&#45;&gt;Node1642 -->
<g id="edge7" class="edge"><title>Node1645&#45;&gt;Node1642</title>
<path fill="none" stroke="midnightblue" d="M533.831,-20.5915C475.702,-24.3418 393.919,-29.6182 335.657,-33.377"/>
<polygon fill="midnightblue" stroke="midnightblue" points="534.282,-24.0698 544.036,-19.9332 533.831,-17.0843 534.282,-24.0698"/>
</g>
</g>
</svg>
