<?xml version="1.0" encoding="UTF-8" standalone="no"?>
<!DOCTYPE svg PUBLIC "-//W3C//DTD SVG 1.1//EN"
 "http://www.w3.org/Graphics/SVG/1.1/DTD/svg11.dtd">
<!-- Generated by graphviz version 2.30.1 (20130221.2233)
 -->
<!-- Title: AP_InertialSensor_Backend::log_gyro_raw Pages: 1 -->
<svg width="1832pt" height="625pt"
 viewBox="0.00 0.00 1832.00 625.00" xmlns="http://www.w3.org/2000/svg" xmlns:xlink="http://www.w3.org/1999/xlink">
<g id="graph0" class="graph" transform="scale(1 1) rotate(0) translate(4 621)">
<title>AP_InertialSensor_Backend::log_gyro_raw</title>
<polygon fill="white" stroke="white" points="-4,5 -4,-621 1829,-621 1829,5 -4,5"/>
<!-- Node856 -->
<g id="node1" class="node"><title>Node856</title>
<g id="a_node1"><a xlink:title=" ">
<polygon fill="#bfbfbf" stroke="black" points="1682.46,-280 1682.46,-312 1823.54,-312 1823.54,-280 1682.46,-280"/>
<text text-anchor="start" x="1690.46" y="-298" font-family="Helvetica,sans-Serif" font-size="10.00">AP_InertialSensor_Backend</text>
<text text-anchor="middle" x="1753" y="-286" font-family="Helvetica,sans-Serif" font-size="10.00">::log_gyro_raw</text>
</a>
</g>
</g>
<!-- Node857 -->
<g id="node2" class="node"><title>Node857</title>
<g id="a_node2"><a xlink:href="classAP__InertialSensor__Backend.html#a32a5d3f083aae76feb1f3e9cbf3cc095" target="_top" xlink:title=" ">
<polygon fill="white" stroke="black" points="1486.29,-280 1486.29,-312 1645.71,-312 1645.71,-280 1486.29,-280"/>
<text text-anchor="start" x="1494.29" y="-298" font-family="Helvetica,sans-Serif" font-size="10.00">AP_InertialSensor_Backend</text>
<text text-anchor="middle" x="1566" y="-286" font-family="Helvetica,sans-Serif" font-size="10.00">::_notify_new_gyro_raw_sample</text>
</a>
</g>
</g>
<!-- Node856&#45;&gt;Node857 -->
<g id="edge1" class="edge"><title>Node856&#45;&gt;Node857</title>
<path fill="none" stroke="midnightblue" d="M1672.19,-296C1663.48,-296 1654.62,-296 1645.92,-296"/>
<polygon fill="midnightblue" stroke="midnightblue" points="1672.32,-299.5 1682.32,-296 1672.32,-292.5 1672.32,-299.5"/>
</g>
<!-- Node858 -->
<g id="node3" class="node"><title>Node858</title>
<g id="a_node3"><a xlink:href="classAP__InertialSensor__L3G4200D.html#ab07f7d4df52cbab3fee7f509f50e81fc" target="_top" xlink:title=" ">
<polygon fill="white" stroke="black" points="1296.35,-585 1296.35,-617 1439.65,-617 1439.65,-585 1296.35,-585"/>
<text text-anchor="start" x="1304.35" y="-603" font-family="Helvetica,sans-Serif" font-size="10.00">AP_InertialSensor_L3G4200</text>
<text text-anchor="middle" x="1368" y="-591" font-family="Helvetica,sans-Serif" font-size="10.00">D::_accumulate</text>
</a>
</g>
</g>
<!-- Node857&#45;&gt;Node858 -->
<g id="edge2" class="edge"><title>Node857&#45;&gt;Node858</title>
<path fill="none" stroke="midnightblue" d="M1561.62,-322.187C1553.16,-377.076 1525.99,-504.888 1450,-575 1445.88,-578.806 1441.19,-582.055 1436.2,-584.828"/>
<polygon fill="midnightblue" stroke="midnightblue" points="1565.1,-322.62 1563.07,-312.22 1558.17,-321.611 1565.1,-322.62"/>
</g>
<!-- Node860 -->
<g id="node5" class="node"><title>Node860</title>
<g id="a_node5"><a xlink:href="classAP__InertialSensor__Invensensev2.html#ab4e62501692ee3a29e58758c59c832b7" target="_top" xlink:title=" ">
<polygon fill="white" stroke="black" points="1286.06,-534 1286.06,-566 1449.94,-566 1449.94,-534 1286.06,-534"/>
<text text-anchor="start" x="1294.06" y="-552" font-family="Helvetica,sans-Serif" font-size="10.00">AP_InertialSensor_Invensensev2</text>
<text text-anchor="middle" x="1368" y="-540" font-family="Helvetica,sans-Serif" font-size="10.00">::_accumulate</text>
</a>
</g>
</g>
<!-- Node857&#45;&gt;Node860 -->
<g id="edge4" class="edge"><title>Node857&#45;&gt;Node860</title>
<path fill="none" stroke="midnightblue" d="M1558.98,-321.955C1546.72,-369.094 1514.39,-468.975 1450,-524 1445.51,-527.838 1440.44,-531.111 1435.09,-533.903"/>
<polygon fill="midnightblue" stroke="midnightblue" points="1562.39,-322.758 1561.43,-312.207 1555.6,-321.056 1562.39,-322.758"/>
</g>
<!-- Node864 -->
<g id="node9" class="node"><title>Node864</title>
<g id="a_node9"><a xlink:href="classAP__InertialSensor__Invensense.html#a1a06a8d1e4db8924dcdcf9a6439dcaa9" target="_top" xlink:title=" ">
<polygon fill="white" stroke="black" points="1291.35,-420 1291.35,-452 1444.65,-452 1444.65,-420 1291.35,-420"/>
<text text-anchor="start" x="1299.35" y="-438" font-family="Helvetica,sans-Serif" font-size="10.00">AP_InertialSensor_Invensense</text>
<text text-anchor="middle" x="1368" y="-426" font-family="Helvetica,sans-Serif" font-size="10.00">::_accumulate</text>
</a>
</g>
</g>
<!-- Node857&#45;&gt;Node864 -->
<g id="edge8" class="edge"><title>Node857&#45;&gt;Node864</title>
<path fill="none" stroke="midnightblue" d="M1546.54,-320.12C1525.7,-345.81 1489.51,-386.006 1450,-410 1443.81,-413.757 1437.03,-417.028 1430.1,-419.862"/>
<polygon fill="midnightblue" stroke="midnightblue" points="1549.51,-322.01 1553.01,-312.008 1544.04,-317.648 1549.51,-322.01"/>
</g>
<!-- Node868 -->
<g id="node13" class="node"><title>Node868</title>
<g id="a_node13"><a xlink:href="classAP__InertialSensor__Invensensev2.html#a3bc795a504602197b122d51c6477ead0" target="_top" xlink:title=" ">
<polygon fill="white" stroke="black" points="1286.06,-471 1286.06,-515 1449.94,-515 1449.94,-471 1286.06,-471"/>
<text text-anchor="start" x="1294.06" y="-501" font-family="Helvetica,sans-Serif" font-size="10.00">AP_InertialSensor_Invensensev2</text>
<text text-anchor="start" x="1294.06" y="-489" font-family="Helvetica,sans-Serif" font-size="10.00">::_accumulate_sensor_rate</text>
<text text-anchor="middle" x="1368" y="-477" font-family="Helvetica,sans-Serif" font-size="10.00">_sampling</text>
</a>
</g>
</g>
<!-- Node857&#45;&gt;Node868 -->
<g id="edge12" class="edge"><title>Node857&#45;&gt;Node868</title>
<path fill="none" stroke="midnightblue" d="M1553.26,-321.46C1535.59,-357.226 1498.94,-422.293 1450,-461 1445.37,-464.658 1440.28,-467.944 1434.96,-470.887"/>
<polygon fill="midnightblue" stroke="midnightblue" points="1556.54,-322.722 1557.74,-312.195 1550.24,-319.677 1556.54,-322.722"/>
</g>
<!-- Node869 -->
<g id="node14" class="node"><title>Node869</title>
<g id="a_node14"><a xlink:href="classAP__InertialSensor__Invensense.html#a08417afd32023faa71679e553fc5d437" target="_top" xlink:title=" ">
<polygon fill="white" stroke="black" points="1291.35,-357 1291.35,-401 1444.65,-401 1444.65,-357 1291.35,-357"/>
<text text-anchor="start" x="1299.35" y="-387" font-family="Helvetica,sans-Serif" font-size="10.00">AP_InertialSensor_Invensense</text>
<text text-anchor="start" x="1299.35" y="-375" font-family="Helvetica,sans-Serif" font-size="10.00">::_accumulate_sensor_rate</text>
<text text-anchor="middle" x="1368" y="-363" font-family="Helvetica,sans-Serif" font-size="10.00">_sampling</text>
</a>
</g>
</g>
<!-- Node857&#45;&gt;Node869 -->
<g id="edge14" class="edge"><title>Node857&#45;&gt;Node869</title>
<path fill="none" stroke="midnightblue" d="M1520.8,-316.111C1499.49,-325.676 1473.51,-337.147 1450,-347 1442.19,-350.273 1433.92,-353.645 1425.77,-356.916"/>
<polygon fill="midnightblue" stroke="midnightblue" points="1522.25,-319.298 1529.93,-312.002 1519.38,-312.915 1522.25,-319.298"/>
</g>
<!-- Node870 -->
<g id="node15" class="node"><title>Node870</title>
<g id="a_node15"><a xlink:href="classAP__InertialSensor__LSM9DS1.html#af8f54b6decbb67a2795e4bcd3ac52c59" target="_top" xlink:title=" ">
<polygon fill="white" stroke="black" points="1294.13,-306 1294.13,-338 1441.87,-338 1441.87,-306 1294.13,-306"/>
<text text-anchor="start" x="1302.13" y="-324" font-family="Helvetica,sans-Serif" font-size="10.00">AP_InertialSensor_LSM9DS1</text>
<text text-anchor="middle" x="1368" y="-312" font-family="Helvetica,sans-Serif" font-size="10.00">::_read_data_transaction_g</text>
</a>
</g>
</g>
<!-- Node857&#45;&gt;Node870 -->
<g id="edge16" class="edge"><title>Node857&#45;&gt;Node870</title>
<path fill="none" stroke="midnightblue" d="M1476.15,-307.787C1464.72,-309.302 1453.13,-310.84 1442,-312.316"/>
<polygon fill="midnightblue" stroke="midnightblue" points="1476.67,-311.248 1486.13,-306.463 1475.75,-304.308 1476.67,-311.248"/>
</g>
<!-- Node873 -->
<g id="node18" class="node"><title>Node873</title>
<g id="a_node18"><a xlink:href="classAP__InertialSensor__LSM9DS0.html#a8d90205092ed9e6b959fe3da5f4f6477" target="_top" xlink:title=" ">
<polygon fill="white" stroke="black" points="1294.13,-255 1294.13,-287 1441.87,-287 1441.87,-255 1294.13,-255"/>
<text text-anchor="start" x="1302.13" y="-273" font-family="Helvetica,sans-Serif" font-size="10.00">AP_InertialSensor_LSM9DS0</text>
<text text-anchor="middle" x="1368" y="-261" font-family="Helvetica,sans-Serif" font-size="10.00">::_read_data_transaction_g</text>
</a>
</g>
</g>
<!-- Node857&#45;&gt;Node873 -->
<g id="edge19" class="edge"><title>Node857&#45;&gt;Node873</title>
<path fill="none" stroke="midnightblue" d="M1476.15,-284.667C1464.72,-283.21 1453.13,-281.731 1442,-280.312"/>
<polygon fill="midnightblue" stroke="midnightblue" points="1475.76,-288.146 1486.13,-285.94 1476.65,-281.202 1475.76,-288.146"/>
</g>
<!-- Node876 -->
<g id="node21" class="node"><title>Node876</title>
<g id="a_node21"><a xlink:href="classAP__InertialSensor__BMI160.html#a1a519a3be822e3db7a19d0d0ed21d0c6" target="_top" xlink:title=" ">
<polygon fill="white" stroke="black" points="1299.69,-204 1299.69,-236 1436.31,-236 1436.31,-204 1299.69,-204"/>
<text text-anchor="start" x="1307.69" y="-222" font-family="Helvetica,sans-Serif" font-size="10.00">AP_InertialSensor_BMI160</text>
<text text-anchor="middle" x="1368" y="-210" font-family="Helvetica,sans-Serif" font-size="10.00">::_read_fifo</text>
</a>
</g>
</g>
<!-- Node857&#45;&gt;Node876 -->
<g id="edge22" class="edge"><title>Node857&#45;&gt;Node876</title>
<path fill="none" stroke="midnightblue" d="M1522.54,-275.732C1501.05,-265.844 1474.41,-254.143 1450,-245 1441.73,-241.903 1432.89,-238.884 1424.2,-236.077"/>
<polygon fill="midnightblue" stroke="midnightblue" points="1521.17,-278.956 1531.72,-279.989 1524.12,-272.606 1521.17,-278.956"/>
</g>
<!-- Node879 -->
<g id="node24" class="node"><title>Node879</title>
<g id="a_node24"><a xlink:href="classAP__InertialSensor__SITL.html#a884efe3040d8e915376390a36d778398" target="_top" xlink:title=" ">
<polygon fill="white" stroke="black" points="1306.36,-153 1306.36,-185 1429.64,-185 1429.64,-153 1306.36,-153"/>
<text text-anchor="start" x="1314.36" y="-171" font-family="Helvetica,sans-Serif" font-size="10.00">AP_InertialSensor_SITL</text>
<text text-anchor="middle" x="1368" y="-159" font-family="Helvetica,sans-Serif" font-size="10.00">::generate_gyro</text>
</a>
</g>
</g>
<!-- Node857&#45;&gt;Node879 -->
<g id="edge25" class="edge"><title>Node857&#45;&gt;Node879</title>
<path fill="none" stroke="midnightblue" d="M1544,-272.225C1522.49,-249.212 1487.03,-214.835 1450,-194 1443.72,-190.464 1436.87,-187.366 1429.91,-184.667"/>
<polygon fill="midnightblue" stroke="midnightblue" points="1541.66,-274.855 1551.01,-279.85 1546.82,-270.118 1541.66,-274.855"/>
</g>
<!-- Node893 -->
<g id="node38" class="node"><title>Node893</title>
<g id="a_node38"><a xlink:href="classAP__InertialSensor__RST.html#a32ad0bdb4472e3b8cbefc52dd07b241a" target="_top" xlink:title=" ">
<polygon fill="white" stroke="black" points="1306.92,-102 1306.92,-134 1429.08,-134 1429.08,-102 1306.92,-102"/>
<text text-anchor="start" x="1314.92" y="-120" font-family="Helvetica,sans-Serif" font-size="10.00">AP_InertialSensor_RST</text>
<text text-anchor="middle" x="1368" y="-108" font-family="Helvetica,sans-Serif" font-size="10.00">::gyro_measure</text>
</a>
</g>
</g>
<!-- Node857&#45;&gt;Node893 -->
<g id="edge40" class="edge"><title>Node857&#45;&gt;Node893</title>
<path fill="none" stroke="midnightblue" d="M1552.52,-270.699C1534.49,-236.727 1498,-176.747 1450,-143 1443.74,-138.598 1436.68,-134.953 1429.41,-131.939"/>
<polygon fill="midnightblue" stroke="midnightblue" points="1549.6,-272.679 1557.31,-279.949 1555.82,-269.459 1549.6,-272.679"/>
</g>
<!-- Node895 -->
<g id="node40" class="node"><title>Node895</title>
<g id="a_node40"><a xlink:href="classAP__InertialSensor__BMI055.html#ac499d9fac2034e0bc4b6bc44fa734b02" target="_top" xlink:title=" ">
<polygon fill="white" stroke="black" points="1299.69,-51 1299.69,-83 1436.31,-83 1436.31,-51 1299.69,-51"/>
<text text-anchor="start" x="1307.69" y="-69" font-family="Helvetica,sans-Serif" font-size="10.00">AP_InertialSensor_BMI055</text>
<text text-anchor="middle" x="1368" y="-57" font-family="Helvetica,sans-Serif" font-size="10.00">::read_fifo_gyro</text>
</a>
</g>
</g>
<!-- Node857&#45;&gt;Node895 -->
<g id="edge42" class="edge"><title>Node857&#45;&gt;Node895</title>
<path fill="none" stroke="midnightblue" d="M1557.36,-269.98C1543.3,-226.641 1509.22,-139.731 1450,-92 1445.76,-88.5827 1441.05,-85.631 1436.11,-83.0817"/>
<polygon fill="midnightblue" stroke="midnightblue" points="1554.1,-271.272 1560.43,-279.765 1560.77,-269.175 1554.1,-271.272"/>
</g>
<!-- Node897 -->
<g id="node42" class="node"><title>Node897</title>
<g id="a_node42"><a xlink:href="classAP__InertialSensor__BMI088.html#ab2e04e660d1229b5d72527218bc47351" target="_top" xlink:title=" ">
<polygon fill="white" stroke="black" points="1299.69,-0 1299.69,-32 1436.31,-32 1436.31,-0 1299.69,-0"/>
<text text-anchor="start" x="1307.69" y="-18" font-family="Helvetica,sans-Serif" font-size="10.00">AP_InertialSensor_BMI088</text>
<text text-anchor="middle" x="1368" y="-6" font-family="Helvetica,sans-Serif" font-size="10.00">::read_fifo_gyro</text>
</a>
</g>
</g>
<!-- Node857&#45;&gt;Node897 -->
<g id="edge44" class="edge"><title>Node857&#45;&gt;Node897</title>
<path fill="none" stroke="midnightblue" d="M1560.56,-269.867C1550.45,-218.415 1520.87,-103.564 1450,-41 1445.92,-37.3962 1441.32,-34.3118 1436.45,-31.6721"/>
<polygon fill="midnightblue" stroke="midnightblue" points="1557.15,-270.658 1562.43,-279.842 1564.03,-269.368 1557.15,-270.658"/>
</g>
<!-- Node859 -->
<g id="node4" class="node"><title>Node859</title>
<g id="a_node4"><a xlink:href="classAP__InertialSensor__L3G4200D.html#a5ddc32421474ee6f544abca47a91ae02" target="_top" xlink:title=" ">
<polygon fill="white" stroke="black" points="1096.35,-585 1096.35,-617 1239.65,-617 1239.65,-585 1096.35,-585"/>
<text text-anchor="start" x="1104.35" y="-603" font-family="Helvetica,sans-Serif" font-size="10.00">AP_InertialSensor_L3G4200</text>
<text text-anchor="middle" x="1168" y="-591" font-family="Helvetica,sans-Serif" font-size="10.00">D::start</text>
</a>
</g>
</g>
<!-- Node858&#45;&gt;Node859 -->
<g id="edge3" class="edge"><title>Node858&#45;&gt;Node859</title>
<path fill="none" stroke="midnightblue" d="M1285.65,-601C1270.43,-601 1254.63,-601 1239.76,-601"/>
<polygon fill="midnightblue" stroke="midnightblue" points="1286.08,-604.5 1296.08,-601 1286.08,-597.5 1286.08,-604.5"/>
</g>
<!-- Node861 -->
<g id="node6" class="node"><title>Node861</title>
<g id="a_node6"><a xlink:href="classAP__InertialSensor__Invensensev2.html#ab84dd20ba16c9dfa083abd36f9cdca03" target="_top" xlink:title=" ">
<polygon fill="white" stroke="black" points="1086.06,-505 1086.06,-537 1249.94,-537 1249.94,-505 1086.06,-505"/>
<text text-anchor="start" x="1094.06" y="-523" font-family="Helvetica,sans-Serif" font-size="10.00">AP_InertialSensor_Invensensev2</text>
<text text-anchor="middle" x="1168" y="-511" font-family="Helvetica,sans-Serif" font-size="10.00">::_read_fifo</text>
</a>
</g>
</g>
<!-- Node860&#45;&gt;Node861 -->
<g id="edge5" class="edge"><title>Node860&#45;&gt;Node861</title>
<path fill="none" stroke="midnightblue" d="M1275.82,-536.646C1267.2,-535.383 1258.5,-534.108 1249.98,-532.861"/>
<polygon fill="midnightblue" stroke="midnightblue" points="1275.49,-540.135 1285.89,-538.121 1276.51,-533.209 1275.49,-540.135"/>
</g>
<!-- Node862 -->
<g id="node7" class="node"><title>Node862</title>
<g id="a_node7"><a xlink:href="classAP__InertialSensor__Invensensev2.html#a3086048ea1829e14d7dd5e9f42d646a8" target="_top" xlink:title=" ">
<polygon fill="white" stroke="black" points="886.064,-505 886.064,-537 1049.94,-537 1049.94,-505 886.064,-505"/>
<text text-anchor="start" x="894.064" y="-523" font-family="Helvetica,sans-Serif" font-size="10.00">AP_InertialSensor_Invensensev2</text>
<text text-anchor="middle" x="968" y="-511" font-family="Helvetica,sans-Serif" font-size="10.00">::_poll_data</text>
</a>
</g>
</g>
<!-- Node861&#45;&gt;Node862 -->
<g id="edge6" class="edge"><title>Node861&#45;&gt;Node862</title>
<path fill="none" stroke="midnightblue" d="M1075.82,-521C1067.2,-521 1058.5,-521 1049.98,-521"/>
<polygon fill="midnightblue" stroke="midnightblue" points="1075.89,-524.5 1085.89,-521 1075.89,-517.5 1075.89,-524.5"/>
</g>
<!-- Node863 -->
<g id="node8" class="node"><title>Node863</title>
<g id="a_node8"><a xlink:href="classAP__InertialSensor__Invensensev2.html#aabef6fa96d268997a2921d8e0563d34c" target="_top" xlink:title=" ">
<polygon fill="white" stroke="black" points="686.064,-505 686.064,-537 849.936,-537 849.936,-505 686.064,-505"/>
<text text-anchor="start" x="694.064" y="-523" font-family="Helvetica,sans-Serif" font-size="10.00">AP_InertialSensor_Invensensev2</text>
<text text-anchor="middle" x="768" y="-511" font-family="Helvetica,sans-Serif" font-size="10.00">::start</text>
</a>
</g>
</g>
<!-- Node862&#45;&gt;Node863 -->
<g id="edge7" class="edge"><title>Node862&#45;&gt;Node863</title>
<path fill="none" stroke="midnightblue" d="M875.824,-521C867.201,-521 858.498,-521 849.979,-521"/>
<polygon fill="midnightblue" stroke="midnightblue" points="875.895,-524.5 885.895,-521 875.894,-517.5 875.895,-524.5"/>
</g>
<!-- Node865 -->
<g id="node10" class="node"><title>Node865</title>
<g id="a_node10"><a xlink:href="classAP__InertialSensor__Invensense.html#a352da0427395f10fd6a9da9ec3a498ec" target="_top" xlink:title=" ">
<polygon fill="white" stroke="black" points="1091.35,-391 1091.35,-423 1244.65,-423 1244.65,-391 1091.35,-391"/>
<text text-anchor="start" x="1099.35" y="-409" font-family="Helvetica,sans-Serif" font-size="10.00">AP_InertialSensor_Invensense</text>
<text text-anchor="middle" x="1168" y="-397" font-family="Helvetica,sans-Serif" font-size="10.00">::_read_fifo</text>
</a>
</g>
</g>
<!-- Node864&#45;&gt;Node865 -->
<g id="edge9" class="edge"><title>Node864&#45;&gt;Node865</title>
<path fill="none" stroke="midnightblue" d="M1281.17,-423.429C1269.02,-421.649 1256.6,-419.83 1244.66,-418.082"/>
<polygon fill="midnightblue" stroke="midnightblue" points="1280.9,-426.926 1291.3,-424.912 1281.91,-420 1280.9,-426.926"/>
</g>
<!-- Node866 -->
<g id="node11" class="node"><title>Node866</title>
<g id="a_node11"><a xlink:href="classAP__InertialSensor__Invensense.html#a645c1fd527303dde9031b31544bbce6b" target="_top" xlink:title=" ">
<polygon fill="white" stroke="black" points="891.345,-391 891.345,-423 1044.65,-423 1044.65,-391 891.345,-391"/>
<text text-anchor="start" x="899.345" y="-409" font-family="Helvetica,sans-Serif" font-size="10.00">AP_InertialSensor_Invensense</text>
<text text-anchor="middle" x="968" y="-397" font-family="Helvetica,sans-Serif" font-size="10.00">::_poll_data</text>
</a>
</g>
</g>
<!-- Node865&#45;&gt;Node866 -->
<g id="edge10" class="edge"><title>Node865&#45;&gt;Node866</title>
<path fill="none" stroke="midnightblue" d="M1081.17,-407C1069.02,-407 1056.6,-407 1044.66,-407"/>
<polygon fill="midnightblue" stroke="midnightblue" points="1081.3,-410.5 1091.3,-407 1081.3,-403.5 1081.3,-410.5"/>
</g>
<!-- Node867 -->
<g id="node12" class="node"><title>Node867</title>
<g id="a_node12"><a xlink:href="classAP__InertialSensor__Invensense.html#ad54c13370e4efffcfa2c0eece9b53239" target="_top" xlink:title=" ">
<polygon fill="white" stroke="black" points="691.345,-391 691.345,-423 844.655,-423 844.655,-391 691.345,-391"/>
<text text-anchor="start" x="699.345" y="-409" font-family="Helvetica,sans-Serif" font-size="10.00">AP_InertialSensor_Invensense</text>
<text text-anchor="middle" x="768" y="-397" font-family="Helvetica,sans-Serif" font-size="10.00">::start</text>
</a>
</g>
</g>
<!-- Node866&#45;&gt;Node867 -->
<g id="edge11" class="edge"><title>Node866&#45;&gt;Node867</title>
<path fill="none" stroke="midnightblue" d="M881.171,-407C869.02,-407 856.6,-407 844.661,-407"/>
<polygon fill="midnightblue" stroke="midnightblue" points="881.297,-410.5 891.297,-407 881.297,-403.5 881.297,-410.5"/>
</g>
<!-- Node868&#45;&gt;Node861 -->
<g id="edge13" class="edge"><title>Node868&#45;&gt;Node861</title>
<path fill="none" stroke="midnightblue" d="M1275.82,-505.894C1267.2,-507.113 1258.5,-508.344 1249.98,-509.548"/>
<polygon fill="midnightblue" stroke="midnightblue" points="1276.48,-509.335 1285.89,-504.469 1275.5,-502.404 1276.48,-509.335"/>
</g>
<!-- Node869&#45;&gt;Node865 -->
<g id="edge15" class="edge"><title>Node869&#45;&gt;Node865</title>
<path fill="none" stroke="midnightblue" d="M1281.17,-391.137C1269.02,-392.856 1256.6,-394.612 1244.66,-396.3"/>
<polygon fill="midnightblue" stroke="midnightblue" points="1281.89,-394.571 1291.3,-389.705 1280.91,-387.64 1281.89,-394.571"/>
</g>
<!-- Node871 -->
<g id="node16" class="node"><title>Node871</title>
<g id="a_node16"><a xlink:href="classAP__InertialSensor__LSM9DS1.html#ad8dbb3016484df97f0a6bea9c459a59d" target="_top" xlink:title=" ">
<polygon fill="white" stroke="black" points="1094.13,-306 1094.13,-338 1241.87,-338 1241.87,-306 1094.13,-306"/>
<text text-anchor="start" x="1102.13" y="-324" font-family="Helvetica,sans-Serif" font-size="10.00">AP_InertialSensor_LSM9DS1</text>
<text text-anchor="middle" x="1168" y="-312" font-family="Helvetica,sans-Serif" font-size="10.00">::_poll_data</text>
</a>
</g>
</g>
<!-- Node870&#45;&gt;Node871 -->
<g id="edge17" class="edge"><title>Node870&#45;&gt;Node871</title>
<path fill="none" stroke="midnightblue" d="M1284.06,-322C1270.11,-322 1255.73,-322 1242.06,-322"/>
<polygon fill="midnightblue" stroke="midnightblue" points="1284.12,-325.5 1294.12,-322 1284.12,-318.5 1284.12,-325.5"/>
</g>
<!-- Node872 -->
<g id="node17" class="node"><title>Node872</title>
<g id="a_node17"><a xlink:href="classAP__InertialSensor__LSM9DS1.html#a2adca5a3291b333dc9f4938a1093224c" target="_top" xlink:title=" ">
<polygon fill="white" stroke="black" points="894.131,-306 894.131,-338 1041.87,-338 1041.87,-306 894.131,-306"/>
<text text-anchor="start" x="902.131" y="-324" font-family="Helvetica,sans-Serif" font-size="10.00">AP_InertialSensor_LSM9DS1</text>
<text text-anchor="middle" x="968" y="-312" font-family="Helvetica,sans-Serif" font-size="10.00">::start</text>
</a>
</g>
</g>
<!-- Node871&#45;&gt;Node872 -->
<g id="edge18" class="edge"><title>Node871&#45;&gt;Node872</title>
<path fill="none" stroke="midnightblue" d="M1084.06,-322C1070.11,-322 1055.73,-322 1042.06,-322"/>
<polygon fill="midnightblue" stroke="midnightblue" points="1084.12,-325.5 1094.12,-322 1084.12,-318.5 1084.12,-325.5"/>
</g>
<!-- Node874 -->
<g id="node19" class="node"><title>Node874</title>
<g id="a_node19"><a xlink:href="classAP__InertialSensor__LSM9DS0.html#a517db16a43fdfa7fa31615d07b225474" target="_top" xlink:title=" ">
<polygon fill="white" stroke="black" points="1094.13,-255 1094.13,-287 1241.87,-287 1241.87,-255 1094.13,-255"/>
<text text-anchor="start" x="1102.13" y="-273" font-family="Helvetica,sans-Serif" font-size="10.00">AP_InertialSensor_LSM9DS0</text>
<text text-anchor="middle" x="1168" y="-261" font-family="Helvetica,sans-Serif" font-size="10.00">::_poll_data</text>
</a>
</g>
</g>
<!-- Node873&#45;&gt;Node874 -->
<g id="edge20" class="edge"><title>Node873&#45;&gt;Node874</title>
<path fill="none" stroke="midnightblue" d="M1284.06,-271C1270.11,-271 1255.73,-271 1242.06,-271"/>
<polygon fill="midnightblue" stroke="midnightblue" points="1284.12,-274.5 1294.12,-271 1284.12,-267.5 1284.12,-274.5"/>
</g>
<!-- Node875 -->
<g id="node20" class="node"><title>Node875</title>
<g id="a_node20"><a xlink:href="classAP__InertialSensor__LSM9DS0.html#a1fa1189f7920f61d52d526f779be3d8f" target="_top" xlink:title=" ">
<polygon fill="white" stroke="black" points="894.131,-255 894.131,-287 1041.87,-287 1041.87,-255 894.131,-255"/>
<text text-anchor="start" x="902.131" y="-273" font-family="Helvetica,sans-Serif" font-size="10.00">AP_InertialSensor_LSM9DS0</text>
<text text-anchor="middle" x="968" y="-261" font-family="Helvetica,sans-Serif" font-size="10.00">::start</text>
</a>
</g>
</g>
<!-- Node874&#45;&gt;Node875 -->
<g id="edge21" class="edge"><title>Node874&#45;&gt;Node875</title>
<path fill="none" stroke="midnightblue" d="M1084.06,-271C1070.11,-271 1055.73,-271 1042.06,-271"/>
<polygon fill="midnightblue" stroke="midnightblue" points="1084.12,-274.5 1094.12,-271 1084.12,-267.5 1084.12,-274.5"/>
</g>
<!-- Node877 -->
<g id="node22" class="node"><title>Node877</title>
<g id="a_node22"><a xlink:href="classAP__InertialSensor__BMI160.html#a62d02f0977b50ee599a116e9f85d4ebc" target="_top" xlink:title=" ">
<polygon fill="white" stroke="black" points="1099.69,-204 1099.69,-236 1236.31,-236 1236.31,-204 1099.69,-204"/>
<text text-anchor="start" x="1107.69" y="-222" font-family="Helvetica,sans-Serif" font-size="10.00">AP_InertialSensor_BMI160</text>
<text text-anchor="middle" x="1168" y="-210" font-family="Helvetica,sans-Serif" font-size="10.00">::_poll_data</text>
</a>
</g>
</g>
<!-- Node876&#45;&gt;Node877 -->
<g id="edge23" class="edge"><title>Node876&#45;&gt;Node877</title>
<path fill="none" stroke="midnightblue" d="M1289.29,-220C1271.89,-220 1253.57,-220 1236.62,-220"/>
<polygon fill="midnightblue" stroke="midnightblue" points="1289.41,-223.5 1299.41,-220 1289.41,-216.5 1289.41,-223.5"/>
</g>
<!-- Node878 -->
<g id="node23" class="node"><title>Node878</title>
<g id="a_node23"><a xlink:href="classAP__InertialSensor__BMI160.html#a786f5fe4d157ea0a2313c702402b58c5" target="_top" xlink:title=" ">
<polygon fill="white" stroke="black" points="899.688,-204 899.688,-236 1036.31,-236 1036.31,-204 899.688,-204"/>
<text text-anchor="start" x="907.688" y="-222" font-family="Helvetica,sans-Serif" font-size="10.00">AP_InertialSensor_BMI160</text>
<text text-anchor="middle" x="968" y="-210" font-family="Helvetica,sans-Serif" font-size="10.00">::start</text>
</a>
</g>
</g>
<!-- Node877&#45;&gt;Node878 -->
<g id="edge24" class="edge"><title>Node877&#45;&gt;Node878</title>
<path fill="none" stroke="midnightblue" d="M1089.29,-220C1071.89,-220 1053.57,-220 1036.62,-220"/>
<polygon fill="midnightblue" stroke="midnightblue" points="1089.41,-223.5 1099.41,-220 1089.41,-216.5 1089.41,-223.5"/>
</g>
<!-- Node880 -->
<g id="node25" class="node"><title>Node880</title>
<g id="a_node25"><a xlink:href="classAP__InertialSensor__SITL.html#acb53ee7c91782608c30ff3e1c5af13e6" target="_top" xlink:title=" ">
<polygon fill="white" stroke="black" points="1106.36,-153 1106.36,-185 1229.64,-185 1229.64,-153 1106.36,-153"/>
<text text-anchor="start" x="1114.36" y="-171" font-family="Helvetica,sans-Serif" font-size="10.00">AP_InertialSensor_SITL</text>
<text text-anchor="middle" x="1168" y="-159" font-family="Helvetica,sans-Serif" font-size="10.00">::timer_update</text>
</a>
</g>
</g>
<!-- Node879&#45;&gt;Node880 -->
<g id="edge26" class="edge"><title>Node879&#45;&gt;Node880</title>
<path fill="none" stroke="midnightblue" d="M1296.13,-169C1274.49,-169 1250.9,-169 1229.98,-169"/>
<polygon fill="midnightblue" stroke="midnightblue" points="1296.25,-172.5 1306.25,-169 1296.25,-165.5 1296.25,-172.5"/>
</g>
<!-- Node881 -->
<g id="node26" class="node"><title>Node881</title>
<g id="a_node26"><a xlink:href="classAP__InertialSensor__SITL.html#ac44870551356848abea08bc23b2a3015" target="_top" xlink:title=" ">
<polygon fill="white" stroke="black" points="906.36,-153 906.36,-185 1029.64,-185 1029.64,-153 906.36,-153"/>
<text text-anchor="start" x="914.36" y="-171" font-family="Helvetica,sans-Serif" font-size="10.00">AP_InertialSensor_SITL</text>
<text text-anchor="middle" x="968" y="-159" font-family="Helvetica,sans-Serif" font-size="10.00">::init_sensor</text>
</a>
</g>
</g>
<!-- Node880&#45;&gt;Node881 -->
<g id="edge27" class="edge"><title>Node880&#45;&gt;Node881</title>
<path fill="none" stroke="midnightblue" d="M1096.13,-169C1074.49,-169 1050.9,-169 1029.98,-169"/>
<polygon fill="midnightblue" stroke="midnightblue" points="1096.25,-172.5 1106.25,-169 1096.25,-165.5 1096.25,-172.5"/>
</g>
<!-- Node882 -->
<g id="node27" class="node"><title>Node882</title>
<g id="a_node27"><a xlink:href="classAP__InertialSensor__SITL.html#abc6d58b49a9c2dc04f884f46d948e8ed" target="_top" xlink:title=" ">
<polygon fill="white" stroke="black" points="706.36,-153 706.36,-185 829.64,-185 829.64,-153 706.36,-153"/>
<text text-anchor="start" x="714.36" y="-171" font-family="Helvetica,sans-Serif" font-size="10.00">AP_InertialSensor_SITL</text>
<text text-anchor="middle" x="768" y="-159" font-family="Helvetica,sans-Serif" font-size="10.00">::detect</text>
</a>
</g>
</g>
<!-- Node881&#45;&gt;Node882 -->
<g id="edge28" class="edge"><title>Node881&#45;&gt;Node882</title>
<path fill="none" stroke="midnightblue" d="M896.133,-169C874.494,-169 850.901,-169 829.978,-169"/>
<polygon fill="midnightblue" stroke="midnightblue" points="896.248,-172.5 906.248,-169 896.248,-165.5 896.248,-172.5"/>
</g>
<!-- Node883 -->
<g id="node28" class="node"><title>Node883</title>
<g id="a_node28"><a xlink:href="classAP__InertialSensor.html#a8967734e82a4f472c6d8ddd8db656804" target="_top" xlink:title=" ">
<polygon fill="white" stroke="black" points="547.921,-153 547.921,-185 650.079,-185 650.079,-153 547.921,-153"/>
<text text-anchor="start" x="555.921" y="-171" font-family="Helvetica,sans-Serif" font-size="10.00">AP_InertialSensor::</text>
<text text-anchor="middle" x="599" y="-159" font-family="Helvetica,sans-Serif" font-size="10.00">detect_backends</text>
</a>
</g>
</g>
<!-- Node882&#45;&gt;Node883 -->
<g id="edge29" class="edge"><title>Node882&#45;&gt;Node883</title>
<path fill="none" stroke="midnightblue" d="M696.202,-169C680.767,-169 664.738,-169 650.294,-169"/>
<polygon fill="midnightblue" stroke="midnightblue" points="696.237,-172.5 706.237,-169 696.237,-165.5 696.237,-172.5"/>
</g>
<!-- Node884 -->
<g id="node29" class="node"><title>Node884</title>
<g id="a_node29"><a xlink:href="classAP__InertialSensor.html#a9949b7e301b0d7a5f3e59385d2e8d97a" target="_top" xlink:title=" ">
<polygon fill="white" stroke="black" points="398.921,-204 398.921,-236 501.079,-236 501.079,-204 398.921,-204"/>
<text text-anchor="start" x="406.921" y="-222" font-family="Helvetica,sans-Serif" font-size="10.00">AP_InertialSensor::</text>
<text text-anchor="middle" x="450" y="-210" font-family="Helvetica,sans-Serif" font-size="10.00">_start_backends</text>
</a>
</g>
</g>
<!-- Node883&#45;&gt;Node884 -->
<g id="edge30" class="edge"><title>Node883&#45;&gt;Node884</title>
<path fill="none" stroke="midnightblue" d="M541.95,-188.446C527.174,-193.572 511.401,-199.045 497.209,-203.968"/>
<polygon fill="midnightblue" stroke="midnightblue" points="543.188,-191.721 551.488,-185.137 540.893,-185.108 543.188,-191.721"/>
</g>
<!-- Node889 -->
<g id="node34" class="node"><title>Node889</title>
<g id="a_node34"><a xlink:href="classAP__InertialSensor.html#ad649def5689aecaebca16cf910d77fd8" target="_top" xlink:title=" ">
<polygon fill="white" stroke="black" points="398.921,-153 398.921,-185 501.079,-185 501.079,-153 398.921,-153"/>
<text text-anchor="start" x="406.921" y="-171" font-family="Helvetica,sans-Serif" font-size="10.00">AP_InertialSensor::</text>
<text text-anchor="middle" x="450" y="-159" font-family="Helvetica,sans-Serif" font-size="10.00">get_auxiliary_bus</text>
</a>
</g>
</g>
<!-- Node883&#45;&gt;Node889 -->
<g id="edge35" class="edge"><title>Node883&#45;&gt;Node889</title>
<path fill="none" stroke="midnightblue" d="M537.82,-169C525.739,-169 513.161,-169 501.451,-169"/>
<polygon fill="midnightblue" stroke="midnightblue" points="537.822,-172.5 547.822,-169 537.822,-165.5 537.822,-172.5"/>
</g>
<!-- Node890 -->
<g id="node35" class="node"><title>Node890</title>
<g id="a_node35"><a xlink:href="classAP__Compass__AK8963.html#a0e8c9e0c82de409e0225fc81ed4ed6db" target="_top" xlink:title=" ">
<polygon fill="white" stroke="black" points="388.079,-102 388.079,-134 511.921,-134 511.921,-102 388.079,-102"/>
<text text-anchor="start" x="396.079" y="-120" font-family="Helvetica,sans-Serif" font-size="10.00">AP_Compass_AK8963::</text>
<text text-anchor="middle" x="450" y="-108" font-family="Helvetica,sans-Serif" font-size="10.00">probe_mpu9250</text>
</a>
</g>
</g>
<!-- Node883&#45;&gt;Node890 -->
<g id="edge36" class="edge"><title>Node883&#45;&gt;Node890</title>
<path fill="none" stroke="midnightblue" d="M541.95,-149.554C527.174,-144.428 511.401,-138.955 497.209,-134.032"/>
<polygon fill="midnightblue" stroke="midnightblue" points="540.893,-152.892 551.488,-152.863 543.188,-146.279 540.893,-152.892"/>
</g>
<!-- Node885 -->
<g id="node30" class="node"><title>Node885</title>
<g id="a_node30"><a xlink:href="classAP__InertialSensor.html#a741065b13832b5e4c90bbae17519c0ad" target="_top" xlink:title=" ">
<polygon fill="white" stroke="black" points="221.53,-207 221.53,-227 336.47,-227 336.47,-207 221.53,-207"/>
<text text-anchor="middle" x="279" y="-213" font-family="Helvetica,sans-Serif" font-size="10.00">AP_InertialSensor::init</text>
</a>
</g>
</g>
<!-- Node884&#45;&gt;Node885 -->
<g id="edge31" class="edge"><title>Node884&#45;&gt;Node885</title>
<path fill="none" stroke="midnightblue" d="M388.434,-218.925C371.53,-218.625 353.233,-218.3 336.569,-218.004"/>
<polygon fill="midnightblue" stroke="midnightblue" points="388.691,-222.43 398.752,-219.108 388.816,-215.431 388.691,-222.43"/>
</g>
<!-- Node886 -->
<g id="node31" class="node"><title>Node886</title>
<g id="a_node31"><a xlink:href="AHRS__Test_8cpp.html#a4fc01d736fe50cf5b977f755b675f11d" target="_top" xlink:title=" ">
<polygon fill="white" stroke="black" points="-0.231445,-146 -0.231445,-166 40.2314,-166 40.2314,-146 -0.231445,-146"/>
<text text-anchor="middle" x="20" y="-152" font-family="Helvetica,sans-Serif" font-size="10.00">setup</text>
</a>
</g>
</g>
<!-- Node885&#45;&gt;Node886 -->
<g id="edge32" class="edge"><title>Node885&#45;&gt;Node886</title>
<path fill="none" stroke="midnightblue" d="M225.888,-204.631C168.573,-191.027 79.4298,-169.869 40.404,-160.606"/>
<polygon fill="midnightblue" stroke="midnightblue" points="225.311,-208.091 235.849,-206.995 226.928,-201.281 225.311,-208.091"/>
</g>
<!-- Node887 -->
<g id="node32" class="node"><title>Node887</title>
<g id="a_node32"><a xlink:href="classSchedTest.html#ae9afb73f76391e34d47286a516fe5292" target="_top" xlink:title=" ">
<polygon fill="white" stroke="black" points="76.6431,-207 76.6431,-227 169.357,-227 169.357,-207 76.6431,-207"/>
<text text-anchor="middle" x="123" y="-213" font-family="Helvetica,sans-Serif" font-size="10.00">SchedTest::setup</text>
</a>
</g>
</g>
<!-- Node885&#45;&gt;Node887 -->
<g id="edge33" class="edge"><title>Node885&#45;&gt;Node887</title>
<path fill="none" stroke="midnightblue" d="M211.02,-217C197.04,-217 182.611,-217 169.621,-217"/>
<polygon fill="midnightblue" stroke="midnightblue" points="211.094,-220.5 221.094,-217 211.094,-213.5 211.094,-220.5"/>
</g>
<!-- Node888 -->
<g id="node33" class="node"><title>Node888</title>
<g id="a_node33"><a xlink:href="Scheduler__test_8cpp.html#a7dfd9b79bc5a37d7df40207afbc5431f" target="_top" xlink:title=" ">
<polygon fill="white" stroke="black" points="-0.231445,-207 -0.231445,-227 40.2314,-227 40.2314,-207 -0.231445,-207"/>
<text text-anchor="middle" x="20" y="-213" font-family="Helvetica,sans-Serif" font-size="10.00">setup</text>
</a>
</g>
</g>
<!-- Node887&#45;&gt;Node888 -->
<g id="edge34" class="edge"><title>Node887&#45;&gt;Node888</title>
<path fill="none" stroke="midnightblue" d="M66.3961,-217C57.0922,-217 48.0218,-217 40.4654,-217"/>
<polygon fill="midnightblue" stroke="midnightblue" points="66.5229,-220.5 76.5229,-217 66.5228,-213.5 66.5229,-220.5"/>
</g>
<!-- Node891 -->
<g id="node36" class="node"><title>Node891</title>
<g id="a_node36"><a xlink:href="classCompass.html#a1c48170d8c8966b22fb150b1634443ec" target="_top" xlink:title=" ">
<polygon fill="white" stroke="black" points="206.518,-120 206.518,-140 351.482,-140 351.482,-120 206.518,-120"/>
<text text-anchor="middle" x="279" y="-126" font-family="Helvetica,sans-Serif" font-size="10.00">Compass::_detect_backends</text>
</a>
</g>
</g>
<!-- Node890&#45;&gt;Node891 -->
<g id="edge37" class="edge"><title>Node890&#45;&gt;Node891</title>
<path fill="none" stroke="midnightblue" d="M377.88,-123.05C369.175,-123.668 360.276,-124.3 351.564,-124.919"/>
<polygon fill="midnightblue" stroke="midnightblue" points="378.26,-126.532 387.987,-122.332 377.764,-119.549 378.26,-126.532"/>
</g>
<!-- Node892 -->
<g id="node37" class="node"><title>Node892</title>
<g id="a_node37"><a xlink:href="classCompass.html#a79db6bfd3fe309c6258d783f126326c6" target="_top" xlink:title=" ">
<polygon fill="white" stroke="black" points="84.7119,-123 84.7119,-143 161.288,-143 161.288,-123 84.7119,-123"/>
<text text-anchor="middle" x="123" y="-129" font-family="Helvetica,sans-Serif" font-size="10.00">Compass::init</text>
</a>
</g>
</g>
<!-- Node891&#45;&gt;Node892 -->
<g id="edge38" class="edge"><title>Node891&#45;&gt;Node892</title>
<path fill="none" stroke="midnightblue" d="M196.188,-131.594C184.032,-131.831 172.037,-132.064 161.42,-132.271"/>
<polygon fill="midnightblue" stroke="midnightblue" points="196.48,-135.089 206.41,-131.395 196.344,-128.09 196.48,-135.089"/>
</g>
<!-- Node892&#45;&gt;Node886 -->
<g id="edge39" class="edge"><title>Node892&#45;&gt;Node886</title>
<path fill="none" stroke="midnightblue" d="M74.6155,-143.791C62.4954,-146.551 50.1351,-149.365 40.3413,-151.596"/>
<polygon fill="midnightblue" stroke="midnightblue" points="75.7051,-147.132 84.6783,-141.499 74.1507,-140.307 75.7051,-147.132"/>
</g>
<!-- Node894 -->
<g id="node39" class="node"><title>Node894</title>
<g id="a_node39"><a xlink:href="classAP__InertialSensor__RST.html#a38430e9e92c819483999835ae880c04a" target="_top" xlink:title=" ">
<polygon fill="white" stroke="black" points="1106.92,-102 1106.92,-134 1229.08,-134 1229.08,-102 1106.92,-102"/>
<text text-anchor="start" x="1114.92" y="-120" font-family="Helvetica,sans-Serif" font-size="10.00">AP_InertialSensor_RST</text>
<text text-anchor="middle" x="1168" y="-108" font-family="Helvetica,sans-Serif" font-size="10.00">::start</text>
</a>
</g>
</g>
<!-- Node893&#45;&gt;Node894 -->
<g id="edge41" class="edge"><title>Node893&#45;&gt;Node894</title>
<path fill="none" stroke="midnightblue" d="M1296.51,-118C1274.53,-118 1250.49,-118 1229.27,-118"/>
<polygon fill="midnightblue" stroke="midnightblue" points="1296.79,-121.5 1306.79,-118 1296.79,-114.5 1296.79,-121.5"/>
</g>
<!-- Node896 -->
<g id="node41" class="node"><title>Node896</title>
<g id="a_node41"><a xlink:href="classAP__InertialSensor__BMI055.html#a21d17eb17effa4f110bfce7ed5edfbb4" target="_top" xlink:title=" ">
<polygon fill="white" stroke="black" points="1099.69,-51 1099.69,-83 1236.31,-83 1236.31,-51 1099.69,-51"/>
<text text-anchor="start" x="1107.69" y="-69" font-family="Helvetica,sans-Serif" font-size="10.00">AP_InertialSensor_BMI055</text>
<text text-anchor="middle" x="1168" y="-57" font-family="Helvetica,sans-Serif" font-size="10.00">::start</text>
</a>
</g>
</g>
<!-- Node895&#45;&gt;Node896 -->
<g id="edge43" class="edge"><title>Node895&#45;&gt;Node896</title>
<path fill="none" stroke="midnightblue" d="M1289.29,-67C1271.89,-67 1253.57,-67 1236.62,-67"/>
<polygon fill="midnightblue" stroke="midnightblue" points="1289.41,-70.5001 1299.41,-67 1289.41,-63.5001 1289.41,-70.5001"/>
</g>
<!-- Node898 -->
<g id="node43" class="node"><title>Node898</title>
<g id="a_node43"><a xlink:href="classAP__InertialSensor__BMI088.html#a0710f2f2daabadacdff9b1dbe46d1541" target="_top" xlink:title=" ">
<polygon fill="white" stroke="black" points="1099.69,-0 1099.69,-32 1236.31,-32 1236.31,-0 1099.69,-0"/>
<text text-anchor="start" x="1107.69" y="-18" font-family="Helvetica,sans-Serif" font-size="10.00">AP_InertialSensor_BMI088</text>
<text text-anchor="middle" x="1168" y="-6" font-family="Helvetica,sans-Serif" font-size="10.00">::start</text>
</a>
</g>
</g>
<!-- Node897&#45;&gt;Node898 -->
<g id="edge45" class="edge"><title>Node897&#45;&gt;Node898</title>
<path fill="none" stroke="midnightblue" d="M1289.29,-16C1271.89,-16 1253.57,-16 1236.62,-16"/>
<polygon fill="midnightblue" stroke="midnightblue" points="1289.41,-19.5001 1299.41,-16 1289.41,-12.5001 1289.41,-19.5001"/>
</g>
</g>
</svg>
