<?xml version="1.0" encoding="UTF-8" standalone="no"?>
<!DOCTYPE svg PUBLIC "-//W3C//DTD SVG 1.1//EN"
 "http://www.w3.org/Graphics/SVG/1.1/DTD/svg11.dtd">
<!-- Generated by graphviz version 2.30.1 (20130221.2233)
 -->
<!-- Title: AP_RangeFinder_Backend::set_status Pages: 1 -->
<svg width="1248pt" height="907pt"
 viewBox="0.00 0.00 1248.00 907.00" xmlns="http://www.w3.org/2000/svg" xmlns:xlink="http://www.w3.org/1999/xlink">
<g id="graph0" class="graph" transform="scale(1 1) rotate(0) translate(4 903)">
<title>AP_RangeFinder_Backend::set_status</title>
<polygon fill="white" stroke="white" points="-4,5 -4,-903 1245,-903 1245,5 -4,5"/>
<!-- Node218 -->
<g id="node1" class="node"><title>Node218</title>
<g id="a_node1"><a xlink:title=" ">
<polygon fill="#bfbfbf" stroke="black" points="1102.4,-478 1102.4,-510 1239.6,-510 1239.6,-478 1102.4,-478"/>
<text text-anchor="start" x="1110.4" y="-496" font-family="Helvetica,sans-Serif" font-size="10.00">AP_RangeFinder_Backend</text>
<text text-anchor="middle" x="1171" y="-484" font-family="Helvetica,sans-Serif" font-size="10.00">::set_status</text>
</a>
</g>
</g>
<!-- Node219 -->
<g id="node2" class="node"><title>Node219</title>
<g id="a_node2"><a xlink:href="classAP__RangeFinder__analog.html#a589dd759f93a9b6c9e505cd441bcda3a" target="_top" xlink:title=" ">
<polygon fill="white" stroke="black" points="930.069,-860 930.069,-892 1063.93,-892 1063.93,-860 930.069,-860"/>
<text text-anchor="start" x="938.069" y="-878" font-family="Helvetica,sans-Serif" font-size="10.00">AP_RangeFinder_analog</text>
<text text-anchor="middle" x="997" y="-866" font-family="Helvetica,sans-Serif" font-size="10.00">::AP_RangeFinder_analog</text>
</a>
</g>
</g>
<!-- Node218&#45;&gt;Node219 -->
<g id="edge1" class="edge"><title>Node218&#45;&gt;Node219</title>
<path fill="none" stroke="midnightblue" d="M1169.35,-520.551C1166.41,-584.259 1150.57,-747.711 1066,-845 1060.81,-850.973 1054.23,-855.86 1047.22,-859.839"/>
<polygon fill="midnightblue" stroke="midnightblue" points="1172.86,-520.318 1169.75,-510.19 1165.87,-520.047 1172.86,-520.318"/>
</g>
<!-- Node220 -->
<g id="node3" class="node"><title>Node220</title>
<g id="a_node3"><a xlink:href="classAP__RangeFinder__Wasp.html#a2f0c2c1b3a4c137676d1a2ef7c7ba864" target="_top" xlink:title=" ">
<polygon fill="white" stroke="black" points="935.265,-770 935.265,-802 1058.74,-802 1058.74,-770 935.265,-770"/>
<text text-anchor="start" x="943.265" y="-788" font-family="Helvetica,sans-Serif" font-size="10.00">AP_RangeFinder_Wasp</text>
<text text-anchor="middle" x="997" y="-776" font-family="Helvetica,sans-Serif" font-size="10.00">::get_reading</text>
</a>
</g>
</g>
<!-- Node218&#45;&gt;Node220 -->
<g id="edge2" class="edge"><title>Node218&#45;&gt;Node220</title>
<path fill="none" stroke="midnightblue" d="M1166.23,-519.936C1157.51,-571.152 1131.49,-686.252 1066,-755 1060.27,-761.012 1053.16,-765.956 1045.71,-769.99"/>
<polygon fill="midnightblue" stroke="midnightblue" points="1169.69,-520.447 1167.83,-510.017 1162.78,-519.33 1169.69,-520.447"/>
</g>
<!-- Node222 -->
<g id="node5" class="node"><title>Node222</title>
<g id="a_node5"><a xlink:href="classAP__RangeFinder__LightWareI2C.html#af397f083c33ab36aab840d89831b0e7d" target="_top" xlink:title=" ">
<polygon fill="white" stroke="black" points="736.257,-816 736.257,-848 879.743,-848 879.743,-816 736.257,-816"/>
<text text-anchor="start" x="744.257" y="-834" font-family="Helvetica,sans-Serif" font-size="10.00">AP_RangeFinder_LightWare</text>
<text text-anchor="middle" x="808" y="-822" font-family="Helvetica,sans-Serif" font-size="10.00">I2C::timer</text>
</a>
</g>
</g>
<!-- Node218&#45;&gt;Node222 -->
<g id="edge4" class="edge"><title>Node218&#45;&gt;Node222</title>
<path fill="none" stroke="midnightblue" d="M1164.97,-519.883C1154.67,-566.009 1126.82,-662.585 1066,-716 1017.63,-758.481 980.85,-723.243 928,-760 906.687,-774.823 913.351,-791.231 892,-806 886.536,-809.78 880.498,-813.028 874.245,-815.817"/>
<polygon fill="midnightblue" stroke="midnightblue" points="1168.4,-520.577 1167.07,-510.067 1161.56,-519.116 1168.4,-520.577"/>
</g>
<!-- Node228 -->
<g id="node11" class="node"><title>Node228</title>
<g id="a_node11"><a xlink:href="classAP__RangeFinder__PulsedLightLRF.html#a14a616968340128e69452cb742254f50" target="_top" xlink:title=" ">
<polygon fill="white" stroke="black" points="732.732,-765 732.732,-797 883.268,-797 883.268,-765 732.732,-765"/>
<text text-anchor="start" x="740.732" y="-783" font-family="Helvetica,sans-Serif" font-size="10.00">AP_RangeFinder_PulsedLight</text>
<text text-anchor="middle" x="808" y="-771" font-family="Helvetica,sans-Serif" font-size="10.00">LRF::timer</text>
</a>
</g>
</g>
<!-- Node218&#45;&gt;Node228 -->
<g id="edge10" class="edge"><title>Node218&#45;&gt;Node228</title>
<path fill="none" stroke="midnightblue" d="M1161.78,-519.664C1148.01,-558.711 1116.73,-633.029 1066,-676 1016.11,-718.265 985.146,-695.221 928,-727 910.285,-736.851 909.958,-745.598 892,-755 884.91,-758.712 877.198,-762.001 869.426,-764.884"/>
<polygon fill="midnightblue" stroke="midnightblue" points="1165.13,-520.683 1165.05,-510.088 1158.5,-518.42 1165.13,-520.683"/>
</g>
<!-- Node231 -->
<g id="node14" class="node"><title>Node231</title>
<g id="a_node14"><a xlink:href="classAP__RangeFinder__VL53L0X.html#a0f3ee0503255a807fc1d3ce2b3f8b961" target="_top" xlink:title=" ">
<polygon fill="white" stroke="black" points="738.289,-51 738.289,-83 877.711,-83 877.711,-51 738.289,-51"/>
<text text-anchor="start" x="746.289" y="-69" font-family="Helvetica,sans-Serif" font-size="10.00">AP_RangeFinder_VL53L0X</text>
<text text-anchor="middle" x="808" y="-57" font-family="Helvetica,sans-Serif" font-size="10.00">::update</text>
</a>
</g>
</g>
<!-- Node218&#45;&gt;Node231 -->
<g id="edge14" class="edge"><title>Node218&#45;&gt;Node231</title>
<path fill="none" stroke="midnightblue" d="M1166.58,-467.725C1155.82,-389.259 1120.14,-159.048 1066,-110 1015.46,-64.2154 935.322,-57.442 877.973,-59.6115"/>
<polygon fill="midnightblue" stroke="midnightblue" points="1163.13,-468.313 1167.93,-477.755 1170.06,-467.378 1163.13,-468.313"/>
</g>
<!-- Node232 -->
<g id="node15" class="node"><title>Node232</title>
<g id="a_node15"><a xlink:href="classAP__RangeFinder__VL53L1X.html#a3492b12b92bba636d33dc66ce3e21714" target="_top" xlink:title=" ">
<polygon fill="white" stroke="black" points="738.289,-0 738.289,-32 877.711,-32 877.711,-0 738.289,-0"/>
<text text-anchor="start" x="746.289" y="-18" font-family="Helvetica,sans-Serif" font-size="10.00">AP_RangeFinder_VL53L1X</text>
<text text-anchor="middle" x="808" y="-6" font-family="Helvetica,sans-Serif" font-size="10.00">::update</text>
</a>
</g>
</g>
<!-- Node218&#45;&gt;Node232 -->
<g id="edge15" class="edge"><title>Node218&#45;&gt;Node232</title>
<path fill="none" stroke="midnightblue" d="M1167.5,-467.555C1158.85,-381.821 1127.28,-113.826 1066,-57 1015.97,-10.6111 935.548,-4.68204 877.99,-7.62231"/>
<polygon fill="midnightblue" stroke="midnightblue" points="1164.02,-467.917 1168.49,-477.524 1170.99,-467.228 1164.02,-467.917"/>
</g>
<!-- Node233 -->
<g id="node16" class="node"><title>Node233</title>
<g id="a_node16"><a xlink:href="classAP__RangeFinder__TeraRangerI2C.html#a2935048e9846e44666685ff4737ee0ad" target="_top" xlink:title=" ">
<polygon fill="white" stroke="black" points="732.737,-153 732.737,-185 883.263,-185 883.263,-153 732.737,-153"/>
<text text-anchor="start" x="740.737" y="-171" font-family="Helvetica,sans-Serif" font-size="10.00">AP_RangeFinder_TeraRanger</text>
<text text-anchor="middle" x="808" y="-159" font-family="Helvetica,sans-Serif" font-size="10.00">I2C::update</text>
</a>
</g>
</g>
<!-- Node218&#45;&gt;Node233 -->
<g id="edge16" class="edge"><title>Node218&#45;&gt;Node233</title>
<path fill="none" stroke="midnightblue" d="M1168.34,-467.812C1163.33,-412.435 1143.51,-283.208 1066,-218 1015.51,-175.527 939.584,-165.477 883.335,-164.73"/>
<polygon fill="midnightblue" stroke="midnightblue" points="1164.85,-468.178 1169.15,-477.861 1171.83,-467.611 1164.85,-468.178"/>
</g>
<!-- Node234 -->
<g id="node17" class="node"><title>Node234</title>
<g id="a_node17"><a xlink:href="classAP__RangeFinder__MaxsonarI2CXL.html#add97adfd2bfd8afd24fccb06f345c95c" target="_top" xlink:title=" ">
<polygon fill="white" stroke="black" points="732.739,-357 732.739,-389 883.261,-389 883.261,-357 732.739,-357"/>
<text text-anchor="start" x="740.739" y="-375" font-family="Helvetica,sans-Serif" font-size="10.00">AP_RangeFinder_MaxsonarI2</text>
<text text-anchor="middle" x="808" y="-363" font-family="Helvetica,sans-Serif" font-size="10.00">CXL::update</text>
</a>
</g>
</g>
<!-- Node218&#45;&gt;Node234 -->
<g id="edge17" class="edge"><title>Node218&#45;&gt;Node234</title>
<path fill="none" stroke="midnightblue" d="M1150.94,-469.953C1131.96,-447.926 1100.73,-416.469 1066,-401 1008.29,-375.295 936.356,-369.391 883.277,-369.286"/>
<polygon fill="midnightblue" stroke="midnightblue" points="1148.48,-472.471 1157.59,-477.881 1153.84,-467.971 1148.48,-472.471"/>
</g>
<!-- Node221 -->
<g id="node4" class="node"><title>Node221</title>
<g id="a_node4"><a xlink:href="classAP__RangeFinder__Wasp.html#ab891922bce1237af842c58a48524795f" target="_top" xlink:title=" ">
<polygon fill="white" stroke="black" points="746.265,-867 746.265,-899 869.735,-899 869.735,-867 746.265,-867"/>
<text text-anchor="start" x="754.265" y="-885" font-family="Helvetica,sans-Serif" font-size="10.00">AP_RangeFinder_Wasp</text>
<text text-anchor="middle" x="808" y="-873" font-family="Helvetica,sans-Serif" font-size="10.00">::update</text>
</a>
</g>
</g>
<!-- Node218&#45;&gt;Node221 -->
<g id="edge18" class="edge"><title>Node218&#45;&gt;Node221</title>
<path fill="none" stroke="midnightblue" d="M1169.31,-520.471C1166.25,-581.005 1150.1,-730.507 1066,-811 1062.34,-814.504 943.587,-846.863 868.806,-866.989"/>
<polygon fill="midnightblue" stroke="midnightblue" points="1172.81,-520.379 1169.74,-510.24 1165.82,-520.084 1172.81,-520.379"/>
</g>
<!-- Node235 -->
<g id="node18" class="node"><title>Node235</title>
<g id="a_node18"><a xlink:href="classAP__RangeFinder__MAVLink.html#a6b505b5eb9da9bf51688162c1b93f572" target="_top" xlink:title=" ">
<polygon fill="white" stroke="black" points="739.224,-459 739.224,-491 876.776,-491 876.776,-459 739.224,-459"/>
<text text-anchor="start" x="747.224" y="-477" font-family="Helvetica,sans-Serif" font-size="10.00">AP_RangeFinder_MAVLink</text>
<text text-anchor="middle" x="808" y="-465" font-family="Helvetica,sans-Serif" font-size="10.00">::update</text>
</a>
</g>
</g>
<!-- Node218&#45;&gt;Node235 -->
<g id="edge19" class="edge"><title>Node218&#45;&gt;Node235</title>
<path fill="none" stroke="midnightblue" d="M1092.04,-489.897C1027.96,-486.524 938.07,-481.793 876.903,-478.574"/>
<polygon fill="midnightblue" stroke="midnightblue" points="1091.93,-493.396 1102.1,-490.426 1092.3,-486.405 1091.93,-493.396"/>
</g>
<!-- Node236 -->
<g id="node19" class="node"><title>Node236</title>
<g id="a_node19"><a xlink:href="classAP__RangeFinder__MaxsonarSerialLV.html#a8a037de4d0ac91684a5692327d18907d" target="_top" xlink:title=" ">
<polygon fill="white" stroke="black" points="724.126,-306 724.126,-338 891.874,-338 891.874,-306 724.126,-306"/>
<text text-anchor="start" x="732.126" y="-324" font-family="Helvetica,sans-Serif" font-size="10.00">AP_RangeFinder_MaxsonarSerial</text>
<text text-anchor="middle" x="808" y="-312" font-family="Helvetica,sans-Serif" font-size="10.00">LV::update</text>
</a>
</g>
</g>
<!-- Node218&#45;&gt;Node236 -->
<g id="edge20" class="edge"><title>Node218&#45;&gt;Node236</title>
<path fill="none" stroke="midnightblue" d="M1156.73,-468.723C1139.83,-439.228 1107.74,-391.398 1066,-367 1013.31,-336.197 944.879,-325.353 891.882,-321.992"/>
<polygon fill="midnightblue" stroke="midnightblue" points="1153.75,-470.569 1161.68,-477.601 1159.87,-467.162 1153.75,-470.569"/>
</g>
<!-- Node237 -->
<g id="node20" class="node"><title>Node237</title>
<g id="a_node20"><a xlink:href="classAP__RangeFinder__uLanding.html#ac02f9ab56ee60a9e7f329d04ae7b3b3f" target="_top" xlink:title=" ">
<polygon fill="white" stroke="black" points="738.286,-102 738.286,-134 877.714,-134 877.714,-102 738.286,-102"/>
<text text-anchor="start" x="746.286" y="-120" font-family="Helvetica,sans-Serif" font-size="10.00">AP_RangeFinder_uLanding</text>
<text text-anchor="middle" x="808" y="-108" font-family="Helvetica,sans-Serif" font-size="10.00">::update</text>
</a>
</g>
</g>
<!-- Node218&#45;&gt;Node237 -->
<g id="edge21" class="edge"><title>Node218&#45;&gt;Node237</title>
<path fill="none" stroke="midnightblue" d="M1170.25,-467.612C1169.29,-404.566 1157.49,-244.455 1066,-164 1014.77,-118.952 934.954,-110.972 877.867,-112.046"/>
<polygon fill="midnightblue" stroke="midnightblue" points="1166.75,-467.904 1170.31,-477.881 1173.75,-467.857 1166.75,-467.904"/>
</g>
<!-- Node238 -->
<g id="node21" class="node"><title>Node238</title>
<g id="a_node21"><a xlink:href="classAP__RangeFinder__LightWareSerial.html#af31447d88c97c57e3cbffa97777f6031" target="_top" xlink:title=" ">
<polygon fill="white" stroke="black" points="736.257,-510 736.257,-542 879.743,-542 879.743,-510 736.257,-510"/>
<text text-anchor="start" x="744.257" y="-528" font-family="Helvetica,sans-Serif" font-size="10.00">AP_RangeFinder_LightWare</text>
<text text-anchor="middle" x="808" y="-516" font-family="Helvetica,sans-Serif" font-size="10.00">Serial::update</text>
</a>
</g>
</g>
<!-- Node218&#45;&gt;Node238 -->
<g id="edge22" class="edge"><title>Node218&#45;&gt;Node238</title>
<path fill="none" stroke="midnightblue" d="M1091.82,-500.93C1028.82,-506.515 940.991,-514.3 879.99,-519.707"/>
<polygon fill="midnightblue" stroke="midnightblue" points="1092.45,-504.388 1102.1,-500.019 1091.83,-497.416 1092.45,-504.388"/>
</g>
<!-- Node239 -->
<g id="node22" class="node"><title>Node239</title>
<g id="a_node22"><a xlink:href="classAP__RangeFinder__BLPing.html#a22894378d15766d0f95eafaf36217ebf" target="_top" xlink:title=" ">
<polygon fill="white" stroke="black" points="742.739,-612 742.739,-644 873.261,-644 873.261,-612 742.739,-612"/>
<text text-anchor="start" x="750.739" y="-630" font-family="Helvetica,sans-Serif" font-size="10.00">AP_RangeFinder_BLPing</text>
<text text-anchor="middle" x="808" y="-618" font-family="Helvetica,sans-Serif" font-size="10.00">::update</text>
</a>
</g>
</g>
<!-- Node218&#45;&gt;Node239 -->
<g id="edge23" class="edge"><title>Node218&#45;&gt;Node239</title>
<path fill="none" stroke="midnightblue" d="M1136.52,-515.642C1116.61,-527.824 1090.54,-542.625 1066,-553 1002.43,-579.878 926.13,-600.81 873.263,-613.65"/>
<polygon fill="midnightblue" stroke="midnightblue" points="1138.55,-518.501 1145.2,-510.254 1134.86,-512.553 1138.55,-518.501"/>
</g>
<!-- Node240 -->
<g id="node23" class="node"><title>Node240</title>
<g id="a_node23"><a xlink:href="classAP__RangeFinder__Benewake.html#a7ce9a2a9adae0514fd65382f2b9af3bd" target="_top" xlink:title=" ">
<polygon fill="white" stroke="black" points="735.513,-714 735.513,-746 880.487,-746 880.487,-714 735.513,-714"/>
<text text-anchor="start" x="743.513" y="-732" font-family="Helvetica,sans-Serif" font-size="10.00">AP_RangeFinder_Benewake</text>
<text text-anchor="middle" x="808" y="-720" font-family="Helvetica,sans-Serif" font-size="10.00">::update</text>
</a>
</g>
</g>
<!-- Node218&#45;&gt;Node240 -->
<g id="edge24" class="edge"><title>Node218&#45;&gt;Node240</title>
<path fill="none" stroke="midnightblue" d="M1157.22,-519.196C1140.26,-550.344 1107.56,-603.131 1066,-635 1013.73,-675.075 989.068,-664.333 928,-689 911.928,-695.492 908.287,-698.07 892,-704 882.635,-707.41 872.582,-710.789 862.819,-713.928"/>
<polygon fill="midnightblue" stroke="midnightblue" points="1160.36,-520.743 1161.97,-510.271 1154.18,-517.455 1160.36,-520.743"/>
</g>
<!-- Node241 -->
<g id="node24" class="node"><title>Node241</title>
<g id="a_node24"><a xlink:href="classAP__RangeFinder__PWM.html#a341d9722b19e669466d6ddcbcd67a455" target="_top" xlink:title=" ">
<polygon fill="white" stroke="black" points="746.643,-204 746.643,-236 869.357,-236 869.357,-204 746.643,-204"/>
<text text-anchor="start" x="754.643" y="-222" font-family="Helvetica,sans-Serif" font-size="10.00">AP_RangeFinder_PWM</text>
<text text-anchor="middle" x="808" y="-210" font-family="Helvetica,sans-Serif" font-size="10.00">::update</text>
</a>
</g>
</g>
<!-- Node218&#45;&gt;Node241 -->
<g id="edge25" class="edge"><title>Node218&#45;&gt;Node241</title>
<path fill="none" stroke="midnightblue" d="M1165.6,-467.789C1156.25,-420.726 1129.79,-322.144 1066,-272 1009.81,-227.833 925.88,-218.282 869.368,-217.5"/>
<polygon fill="midnightblue" stroke="midnightblue" points="1162.2,-468.621 1167.48,-477.802 1169.07,-467.327 1162.2,-468.621"/>
</g>
<!-- Node242 -->
<g id="node25" class="node"><title>Node242</title>
<g id="a_node25"><a xlink:href="classAP__RangeFinder__NMEA.html#a5798b3f49aa13acf42c4d0789d5822b6" target="_top" xlink:title=" ">
<polygon fill="white" stroke="black" points="744.417,-255 744.417,-287 871.583,-287 871.583,-255 744.417,-255"/>
<text text-anchor="start" x="752.417" y="-273" font-family="Helvetica,sans-Serif" font-size="10.00">AP_RangeFinder_NMEA</text>
<text text-anchor="middle" x="808" y="-261" font-family="Helvetica,sans-Serif" font-size="10.00">::update</text>
</a>
</g>
</g>
<!-- Node218&#45;&gt;Node242 -->
<g id="edge26" class="edge"><title>Node218&#45;&gt;Node242</title>
<path fill="none" stroke="midnightblue" d="M1161.87,-467.978C1148.44,-429.572 1117.84,-358.345 1066,-322 1008.73,-281.853 927.553,-271.533 871.839,-269.695"/>
<polygon fill="midnightblue" stroke="midnightblue" points="1158.69,-469.523 1165.2,-477.884 1165.33,-467.29 1158.69,-469.523"/>
</g>
<!-- Node243 -->
<g id="node26" class="node"><title>Node243</title>
<g id="a_node26"><a xlink:href="classAP__RangeFinder__Benewake__TFMiniPlus.html#a534f63fdb920866515033b477226bdf4" target="_top" xlink:title=" ">
<polygon fill="white" stroke="black" points="735.513,-663 735.513,-695 880.487,-695 880.487,-663 735.513,-663"/>
<text text-anchor="start" x="743.513" y="-681" font-family="Helvetica,sans-Serif" font-size="10.00">AP_RangeFinder_Benewake</text>
<text text-anchor="middle" x="808" y="-669" font-family="Helvetica,sans-Serif" font-size="10.00">_TFMiniPlus::update</text>
</a>
</g>
</g>
<!-- Node218&#45;&gt;Node243 -->
<g id="edge27" class="edge"><title>Node218&#45;&gt;Node243</title>
<path fill="none" stroke="midnightblue" d="M1149.8,-517.736C1130.27,-539.4 1098.88,-571.003 1066,-591 1008.08,-626.229 934.171,-649.642 880.494,-663.4"/>
<polygon fill="midnightblue" stroke="midnightblue" points="1152.43,-520.05 1156.44,-510.244 1147.19,-515.407 1152.43,-520.05"/>
</g>
<!-- Node244 -->
<g id="node27" class="node"><title>Node244</title>
<g id="a_node27"><a xlink:href="classAP__RangeFinder__LeddarOne.html#a2976db8d937d25731d676449e7d73d91" target="_top" xlink:title=" ">
<polygon fill="white" stroke="black" points="733.843,-561 733.843,-593 882.157,-593 882.157,-561 733.843,-561"/>
<text text-anchor="start" x="741.843" y="-579" font-family="Helvetica,sans-Serif" font-size="10.00">AP_RangeFinder_LeddarOne</text>
<text text-anchor="middle" x="808" y="-567" font-family="Helvetica,sans-Serif" font-size="10.00">::update</text>
</a>
</g>
</g>
<!-- Node218&#45;&gt;Node244 -->
<g id="edge28" class="edge"><title>Node218&#45;&gt;Node244</title>
<path fill="none" stroke="midnightblue" d="M1107.53,-512.869C1093.9,-516.75 1079.51,-520.665 1066,-524 1004.41,-539.209 933.785,-553.554 882.174,-563.475"/>
<polygon fill="midnightblue" stroke="midnightblue" points="1108.66,-516.186 1117.31,-510.058 1106.73,-509.459 1108.66,-516.186"/>
</g>
<!-- Node245 -->
<g id="node28" class="node"><title>Node245</title>
<g id="a_node28"><a xlink:href="classAP__RangeFinder__Backend.html#a9e858f638e4c2d1138aa3f56d217a394" target="_top" xlink:title=" ">
<polygon fill="white" stroke="black" points="928.404,-411 928.404,-443 1065.6,-443 1065.6,-411 928.404,-411"/>
<text text-anchor="start" x="936.404" y="-429" font-family="Helvetica,sans-Serif" font-size="10.00">AP_RangeFinder_Backend</text>
<text text-anchor="middle" x="997" y="-417" font-family="Helvetica,sans-Serif" font-size="10.00">::update_status</text>
</a>
</g>
</g>
<!-- Node218&#45;&gt;Node245 -->
<g id="edge29" class="edge"><title>Node218&#45;&gt;Node245</title>
<path fill="none" stroke="midnightblue" d="M1119.29,-474.246C1093.76,-464.301 1063.21,-452.402 1039.16,-443.033"/>
<polygon fill="midnightblue" stroke="midnightblue" points="1118.21,-477.583 1128.8,-477.952 1120.75,-471.061 1118.21,-477.583"/>
</g>
<!-- Node220&#45;&gt;Node221 -->
<g id="edge3" class="edge"><title>Node220&#45;&gt;Node221</title>
<path fill="none" stroke="midnightblue" d="M944.42,-806.736C938.681,-809.845 933.081,-813.273 928,-817 908.714,-831.146 912.126,-844.078 892,-857 885.266,-861.324 877.762,-864.972 870.097,-868.038"/>
<polygon fill="midnightblue" stroke="midnightblue" points="946.174,-809.771 953.5,-802.116 943,-803.532 946.174,-809.771"/>
</g>
<!-- Node223 -->
<g id="node6" class="node"><title>Node223</title>
<g id="a_node6"><a xlink:href="classAP__RangeFinder__LightWareI2C.html#a4ecab260116f4b01a5e0853b3830736a" target="_top" xlink:title=" ">
<polygon fill="white" stroke="black" points="540.257,-816 540.257,-848 683.743,-848 683.743,-816 540.257,-816"/>
<text text-anchor="start" x="548.257" y="-834" font-family="Helvetica,sans-Serif" font-size="10.00">AP_RangeFinder_LightWare</text>
<text text-anchor="middle" x="612" y="-822" font-family="Helvetica,sans-Serif" font-size="10.00">I2C::init</text>
</a>
</g>
</g>
<!-- Node222&#45;&gt;Node223 -->
<g id="edge5" class="edge"><title>Node222&#45;&gt;Node223</title>
<path fill="none" stroke="midnightblue" d="M726.066,-832C712.098,-832 697.674,-832 683.995,-832"/>
<polygon fill="midnightblue" stroke="midnightblue" points="726.138,-835.5 736.138,-832 726.138,-828.5 726.138,-835.5"/>
</g>
<!-- Node224 -->
<g id="node7" class="node"><title>Node224</title>
<g id="a_node7"><a xlink:href="classAP__RangeFinder__LightWareI2C.html#ac030c8c3031fdcaa07b9bdc4339eebcf" target="_top" xlink:title=" ">
<polygon fill="white" stroke="black" points="352.257,-816 352.257,-848 495.743,-848 495.743,-816 352.257,-816"/>
<text text-anchor="start" x="360.257" y="-834" font-family="Helvetica,sans-Serif" font-size="10.00">AP_RangeFinder_LightWare</text>
<text text-anchor="middle" x="424" y="-822" font-family="Helvetica,sans-Serif" font-size="10.00">I2C::detect</text>
</a>
</g>
</g>
<!-- Node223&#45;&gt;Node224 -->
<g id="edge6" class="edge"><title>Node223&#45;&gt;Node224</title>
<path fill="none" stroke="midnightblue" d="M529.867,-832C518.575,-832 507.046,-832 495.96,-832"/>
<polygon fill="midnightblue" stroke="midnightblue" points="530.151,-835.5 540.151,-832 530.151,-828.5 530.151,-835.5"/>
</g>
<!-- Node225 -->
<g id="node8" class="node"><title>Node225</title>
<g id="a_node8"><a xlink:href="classRangeFinder.html#a2d16a636e444ce916e524d1e2623d1d3" target="_top" xlink:title=" ">
<polygon fill="white" stroke="black" points="204.695,-790 204.695,-822 311.305,-822 311.305,-790 204.695,-790"/>
<text text-anchor="start" x="212.695" y="-808" font-family="Helvetica,sans-Serif" font-size="10.00">RangeFinder::detect</text>
<text text-anchor="middle" x="258" y="-796" font-family="Helvetica,sans-Serif" font-size="10.00">_instance</text>
</a>
</g>
</g>
<!-- Node224&#45;&gt;Node225 -->
<g id="edge7" class="edge"><title>Node224&#45;&gt;Node225</title>
<path fill="none" stroke="midnightblue" d="M341.84,-819.133C331.629,-817.514 321.402,-815.893 311.79,-814.369"/>
<polygon fill="midnightblue" stroke="midnightblue" points="341.596,-822.638 352.021,-820.747 342.692,-815.725 341.596,-822.638"/>
</g>
<!-- Node226 -->
<g id="node9" class="node"><title>Node226</title>
<g id="a_node9"><a xlink:href="classRangeFinder.html#ad3e3b3a548b8da70aedd97c4be3a5b6d" target="_top" xlink:title=" ">
<polygon fill="white" stroke="black" points="75.9238,-796 75.9238,-816 168.076,-816 168.076,-796 75.9238,-796"/>
<text text-anchor="middle" x="122" y="-802" font-family="Helvetica,sans-Serif" font-size="10.00">RangeFinder::init</text>
</a>
</g>
</g>
<!-- Node225&#45;&gt;Node226 -->
<g id="edge8" class="edge"><title>Node225&#45;&gt;Node226</title>
<path fill="none" stroke="midnightblue" d="M194.287,-806C185.583,-806 176.783,-806 168.476,-806"/>
<polygon fill="midnightblue" stroke="midnightblue" points="194.424,-809.5 204.424,-806 194.424,-802.5 194.424,-809.5"/>
</g>
<!-- Node227 -->
<g id="node10" class="node"><title>Node227</title>
<g id="a_node10"><a xlink:href="RFIND__test_8cpp.html#a4fc01d736fe50cf5b977f755b675f11d" target="_top" xlink:title=" ">
<polygon fill="white" stroke="black" points="-0.231445,-796 -0.231445,-816 40.2314,-816 40.2314,-796 -0.231445,-796"/>
<text text-anchor="middle" x="20" y="-802" font-family="Helvetica,sans-Serif" font-size="10.00">setup</text>
</a>
</g>
</g>
<!-- Node226&#45;&gt;Node227 -->
<g id="edge9" class="edge"><title>Node226&#45;&gt;Node227</title>
<path fill="none" stroke="midnightblue" d="M65.4836,-806C56.4862,-806 47.73,-806 40.3996,-806"/>
<polygon fill="midnightblue" stroke="midnightblue" points="65.6814,-809.5 75.6814,-806 65.6814,-802.5 65.6814,-809.5"/>
</g>
<!-- Node229 -->
<g id="node12" class="node"><title>Node229</title>
<g id="a_node12"><a xlink:href="classAP__RangeFinder__PulsedLightLRF.html#a1fe58514ce7282108e5aea8800c2451d" target="_top" xlink:title=" ">
<polygon fill="white" stroke="black" points="536.732,-765 536.732,-797 687.268,-797 687.268,-765 536.732,-765"/>
<text text-anchor="start" x="544.732" y="-783" font-family="Helvetica,sans-Serif" font-size="10.00">AP_RangeFinder_PulsedLight</text>
<text text-anchor="middle" x="612" y="-771" font-family="Helvetica,sans-Serif" font-size="10.00">LRF::init</text>
</a>
</g>
</g>
<!-- Node228&#45;&gt;Node229 -->
<g id="edge11" class="edge"><title>Node228&#45;&gt;Node229</title>
<path fill="none" stroke="midnightblue" d="M722.431,-781C710.826,-781 698.98,-781 687.572,-781"/>
<polygon fill="midnightblue" stroke="midnightblue" points="722.549,-784.5 732.549,-781 722.549,-777.5 722.549,-784.5"/>
</g>
<!-- Node230 -->
<g id="node13" class="node"><title>Node230</title>
<g id="a_node13"><a xlink:href="classAP__RangeFinder__PulsedLightLRF.html#a2aeacfda0df6a03af187c5cf1d45ffe6" target="_top" xlink:title=" ">
<polygon fill="white" stroke="black" points="348.732,-765 348.732,-797 499.268,-797 499.268,-765 348.732,-765"/>
<text text-anchor="start" x="356.732" y="-783" font-family="Helvetica,sans-Serif" font-size="10.00">AP_RangeFinder_PulsedLight</text>
<text text-anchor="middle" x="424" y="-771" font-family="Helvetica,sans-Serif" font-size="10.00">LRF::detect</text>
</a>
</g>
</g>
<!-- Node229&#45;&gt;Node230 -->
<g id="edge12" class="edge"><title>Node229&#45;&gt;Node230</title>
<path fill="none" stroke="midnightblue" d="M526.56,-781C517.533,-781 508.399,-781 499.5,-781"/>
<polygon fill="midnightblue" stroke="midnightblue" points="526.686,-784.5 536.686,-781 526.686,-777.5 526.686,-784.5"/>
</g>
<!-- Node230&#45;&gt;Node225 -->
<g id="edge13" class="edge"><title>Node230&#45;&gt;Node225</title>
<path fill="none" stroke="midnightblue" d="M338.653,-793.858C329.409,-795.267 320.205,-796.67 311.511,-797.995"/>
<polygon fill="midnightblue" stroke="midnightblue" points="339.319,-797.297 348.677,-792.33 338.264,-790.377 339.319,-797.297"/>
</g>
<!-- Node246 -->
<g id="node29" class="node"><title>Node246</title>
<g id="a_node29"><a xlink:href="classAP__RangeFinder__analog.html#abfc8bd429dabb04f5fc400865a6e4d3a" target="_top" xlink:title=" ">
<polygon fill="white" stroke="black" points="743.848,-408 743.848,-440 872.152,-440 872.152,-408 743.848,-408"/>
<text text-anchor="start" x="751.848" y="-426" font-family="Helvetica,sans-Serif" font-size="10.00">AP_RangeFinder_analog</text>
<text text-anchor="middle" x="808" y="-414" font-family="Helvetica,sans-Serif" font-size="10.00">::update</text>
</a>
</g>
</g>
<!-- Node245&#45;&gt;Node246 -->
<g id="edge30" class="edge"><title>Node245&#45;&gt;Node246</title>
<path fill="none" stroke="midnightblue" d="M917.806,-425.746C902.598,-425.502 886.836,-425.249 872.187,-425.014"/>
<polygon fill="midnightblue" stroke="midnightblue" points="918.169,-429.252 928.224,-425.913 918.282,-422.253 918.169,-429.252"/>
</g>
<!-- Node245&#45;&gt;Node240 -->
<g id="edge31" class="edge"><title>Node245&#45;&gt;Node240</title>
<path fill="none" stroke="midnightblue" d="M989.401,-452.874C973.182,-514.622 929.923,-668.129 892,-704 887.941,-707.839 883.322,-711.112 878.388,-713.902"/>
<polygon fill="midnightblue" stroke="midnightblue" points="992.809,-453.678 991.939,-443.119 986.034,-451.916 992.809,-453.678"/>
</g>
<!-- Node245&#45;&gt;Node243 -->
<g id="edge32" class="edge"><title>Node245&#45;&gt;Node243</title>
<path fill="none" stroke="midnightblue" d="M991.215,-453.03C981.244,-499.888 953.823,-598.609 892,-653 887.692,-656.79 882.834,-660.028 877.684,-662.794"/>
<polygon fill="midnightblue" stroke="midnightblue" points="994.677,-453.566 993.235,-443.069 987.817,-452.174 994.677,-453.566"/>
</g>
<!-- Node245&#45;&gt;Node239 -->
<g id="edge33" class="edge"><title>Node245&#45;&gt;Node239</title>
<path fill="none" stroke="midnightblue" d="M987.368,-453.053C973.384,-491.282 942.173,-562.326 892,-602 886.433,-606.402 880.113,-610.064 873.503,-613.11"/>
<polygon fill="midnightblue" stroke="midnightblue" points="990.82,-453.789 990.856,-443.194 984.221,-451.454 990.82,-453.789"/>
</g>
<!-- Node245&#45;&gt;Node244 -->
<g id="edge34" class="edge"><title>Node245&#45;&gt;Node244</title>
<path fill="none" stroke="midnightblue" d="M981.219,-452.045C963.442,-480.069 931.061,-524.946 892,-551 886.221,-554.854 879.84,-558.163 873.258,-560.998"/>
<polygon fill="midnightblue" stroke="midnightblue" points="984.384,-453.583 986.677,-443.239 978.434,-449.895 984.384,-453.583"/>
</g>
<!-- Node245&#45;&gt;Node222 -->
<g id="edge35" class="edge"><title>Node245&#45;&gt;Node222</title>
<path fill="none" stroke="midnightblue" d="M990.303,-453.343C972.44,-534.983 917.221,-779.861 892,-806 888.33,-809.803 884.113,-813.053 879.565,-815.828"/>
<polygon fill="midnightblue" stroke="midnightblue" points="993.767,-453.884 992.477,-443.368 986.928,-452.394 993.767,-453.884"/>
</g>
<!-- Node245&#45;&gt;Node238 -->
<g id="edge36" class="edge"><title>Node245&#45;&gt;Node238</title>
<path fill="none" stroke="midnightblue" d="M969.002,-449.466C948.822,-465.356 920.001,-486.204 892,-500 884.55,-503.671 876.47,-506.964 868.375,-509.873"/>
<polygon fill="midnightblue" stroke="midnightblue" points="971.2,-452.19 976.826,-443.213 966.829,-446.722 971.2,-452.19"/>
</g>
<!-- Node245&#45;&gt;Node235 -->
<g id="edge37" class="edge"><title>Node245&#45;&gt;Node235</title>
<path fill="none" stroke="midnightblue" d="M923.494,-445.611C906.321,-450.019 888.152,-454.683 871.469,-458.965"/>
<polygon fill="midnightblue" stroke="midnightblue" points="924.656,-448.926 933.472,-443.05 922.916,-442.146 924.656,-448.926"/>
</g>
<!-- Node245&#45;&gt;Node234 -->
<g id="edge38" class="edge"><title>Node245&#45;&gt;Node234</title>
<path fill="none" stroke="midnightblue" d="M930.685,-408.139C909.164,-401.924 885.445,-395.075 864.709,-389.087"/>
<polygon fill="midnightblue" stroke="midnightblue" points="929.822,-411.533 940.4,-410.944 931.764,-404.807 929.822,-411.533"/>
</g>
<!-- Node245&#45;&gt;Node236 -->
<g id="edge39" class="edge"><title>Node245&#45;&gt;Node236</title>
<path fill="none" stroke="midnightblue" d="M971.511,-403.991C951.477,-386.249 921.7,-362.241 892,-347 885.573,-343.702 878.639,-340.762 871.612,-338.161"/>
<polygon fill="midnightblue" stroke="midnightblue" points="969.177,-406.6 978.95,-410.691 973.861,-401.398 969.177,-406.6"/>
</g>
<!-- Node245&#45;&gt;Node242 -->
<g id="edge40" class="edge"><title>Node245&#45;&gt;Node242</title>
<path fill="none" stroke="midnightblue" d="M982.396,-401.778C965.17,-372.186 932.763,-323.659 892,-296 885.773,-291.775 878.813,-288.247 871.643,-285.304"/>
<polygon fill="midnightblue" stroke="midnightblue" points="979.465,-403.703 987.447,-410.67 985.551,-400.246 979.465,-403.703"/>
</g>
<!-- Node245&#45;&gt;Node228 -->
<g id="edge41" class="edge"><title>Node245&#45;&gt;Node228</title>
<path fill="none" stroke="midnightblue" d="M989.198,-453.15C969.801,-526.943 914.182,-732.895 892,-755 888.149,-758.837 883.741,-762.109 879.006,-764.899"/>
<polygon fill="midnightblue" stroke="midnightblue" points="992.641,-453.819 991.789,-443.259 985.869,-452.046 992.641,-453.819"/>
</g>
<!-- Node245&#45;&gt;Node241 -->
<g id="edge42" class="edge"><title>Node245&#45;&gt;Node241</title>
<path fill="none" stroke="midnightblue" d="M988.195,-401.245C974.91,-361.762 944.152,-286.497 892,-245 885.405,-239.753 877.724,-235.605 869.747,-232.326"/>
<polygon fill="midnightblue" stroke="midnightblue" points="984.921,-402.495 991.341,-410.923 991.578,-400.331 984.921,-402.495"/>
</g>
<!-- Node245&#45;&gt;Node233 -->
<g id="edge43" class="edge"><title>Node245&#45;&gt;Node233</title>
<path fill="none" stroke="midnightblue" d="M991.65,-400.766C982.287,-352.641 955.682,-250.054 892,-194 888.159,-190.619 883.875,-187.696 879.332,-185.167"/>
<polygon fill="midnightblue" stroke="midnightblue" points="988.228,-401.51 993.487,-410.707 995.111,-400.238 988.228,-401.51"/>
</g>
<!-- Node245&#45;&gt;Node237 -->
<g id="edge44" class="edge"><title>Node245&#45;&gt;Node237</title>
<path fill="none" stroke="midnightblue" d="M994.035,-400.699C988.444,-344.966 967.56,-214.266 892,-143 887.84,-139.076 883.086,-135.766 878.006,-132.975"/>
<polygon fill="midnightblue" stroke="midnightblue" points="990.563,-401.167 994.96,-410.806 997.534,-400.528 990.563,-401.167"/>
</g>
<!-- Node245&#45;&gt;Node231 -->
<g id="edge45" class="edge"><title>Node245&#45;&gt;Node231</title>
<path fill="none" stroke="midnightblue" d="M995.741,-400.46C993.653,-337.669 979.502,-178.766 892,-92 887.832,-87.8674 883.008,-84.4138 877.824,-81.5281"/>
<polygon fill="midnightblue" stroke="midnightblue" points="992.248,-400.786 996,-410.695 999.246,-400.609 992.248,-400.786"/>
</g>
<!-- Node245&#45;&gt;Node232 -->
<g id="edge46" class="edge"><title>Node245&#45;&gt;Node232</title>
<path fill="none" stroke="midnightblue" d="M992.308,-400.893C980.78,-322.882 943.142,-93.6668 892,-41 887.911,-36.7893 883.142,-33.2814 877.994,-30.3598"/>
<polygon fill="midnightblue" stroke="midnightblue" points="988.855,-401.472 993.76,-410.863 995.782,-400.463 988.855,-401.472"/>
</g>
</g>
</svg>
