<?xml version="1.0" encoding="UTF-8" standalone="no"?>
<!DOCTYPE svg PUBLIC "-//W3C//DTD SVG 1.1//EN"
 "http://www.w3.org/Graphics/SVG/1.1/DTD/svg11.dtd">
<!-- Generated by graphviz version 2.30.1 (20130221.2233)
 -->
<!-- Title: AP_Logger::Write_RPM Pages: 1 -->
<svg width="420pt" height="106pt"
 viewBox="0.00 0.00 420.00 106.00" xmlns="http://www.w3.org/2000/svg" xmlns:xlink="http://www.w3.org/1999/xlink">
<g id="graph0" class="graph" transform="scale(1 1) rotate(0) translate(4 102)">
<title>AP_Logger::Write_RPM</title>
<polygon fill="white" stroke="white" points="-4,5 -4,-102 417,-102 417,5 -4,5"/>
<!-- Node5056 -->
<g id="node1" class="node"><title>Node5056</title>
<g id="a_node1"><a xlink:title=" ">
<polygon fill="#bfbfbf" stroke="black" points="0.733398,-39 0.733398,-59 123.267,-59 123.267,-39 0.733398,-39"/>
<text text-anchor="middle" x="62" y="-45" font-family="Helvetica,sans-Serif" font-size="10.00">AP_Logger::Write_RPM</text>
</a>
</g>
</g>
<!-- Node5057 -->
<g id="node2" class="node"><title>Node5057</title>
<g id="a_node2"><a xlink:href="namespaceAP__HAL.html#a7aa0ce7625c9680e30ff4a99940907a5" target="_top" xlink:title=" ">
<polygon fill="white" stroke="black" points="169.761,-78 169.761,-98 270.239,-98 270.239,-78 169.761,-78"/>
<text text-anchor="middle" x="220" y="-84" font-family="Helvetica,sans-Serif" font-size="10.00">AP_HAL::micros64</text>
</a>
</g>
</g>
<!-- Node5056&#45;&gt;Node5057 -->
<g id="edge1" class="edge"><title>Node5056&#45;&gt;Node5057</title>
<path fill="none" stroke="midnightblue" d="M103.174,-59.0435C123.281,-64.0702 147.813,-70.2032 169.115,-75.5287"/>
<polygon fill="midnightblue" stroke="midnightblue" points="168.412,-78.9606 178.962,-77.9906 170.11,-72.1696 168.412,-78.9606"/>
</g>
<!-- Node5059 -->
<g id="node4" class="node"><title>Node5059</title>
<g id="a_node4"><a xlink:href="classAP__RPM.html#a6222178dcb331b70cbf292cbba8fd8eb" target="_top" xlink:title=" ">
<polygon fill="white" stroke="black" points="170.318,-39 170.318,-59 269.682,-59 269.682,-39 170.318,-39"/>
<text text-anchor="middle" x="220" y="-45" font-family="Helvetica,sans-Serif" font-size="10.00">AP_RPM::get_rpm</text>
</a>
</g>
</g>
<!-- Node5056&#45;&gt;Node5059 -->
<g id="edge3" class="edge"><title>Node5056&#45;&gt;Node5059</title>
<path fill="none" stroke="midnightblue" d="M123.314,-49C135.25,-49 147.77,-49 159.673,-49"/>
<polygon fill="midnightblue" stroke="midnightblue" points="159.945,-52.5001 169.945,-49 159.945,-45.5001 159.945,-52.5001"/>
</g>
<!-- Node5061 -->
<g id="node6" class="node"><title>Node5061</title>
<g id="a_node6"><a xlink:href="classAP__Logger.html#ada8172473eb14aabbf121c20ef6ad76b" target="_top" xlink:title=" ">
<polygon fill="white" stroke="black" points="160.398,-0 160.398,-20 279.602,-20 279.602,-0 160.398,-0"/>
<text text-anchor="middle" x="220" y="-6" font-family="Helvetica,sans-Serif" font-size="10.00">AP_Logger::WriteBlock</text>
</a>
</g>
</g>
<!-- Node5056&#45;&gt;Node5061 -->
<g id="edge5" class="edge"><title>Node5056&#45;&gt;Node5061</title>
<path fill="none" stroke="midnightblue" d="M103.174,-38.9565C123.281,-33.9298 147.813,-27.7968 169.115,-22.4713"/>
<polygon fill="midnightblue" stroke="midnightblue" points="170.11,-25.8304 178.962,-20.0094 168.412,-19.0394 170.11,-25.8304"/>
</g>
<!-- Node5058 -->
<g id="node3" class="node"><title>Node5058</title>
<g id="a_node3"><a xlink:href="hrt_8c.html#a152c3348a8e83f2dfe35b44cc2e30362" target="_top" xlink:title=" ">
<polygon fill="white" stroke="black" points="327.101,-78 327.101,-98 400.899,-98 400.899,-78 327.101,-78"/>
<text text-anchor="middle" x="364" y="-84" font-family="Helvetica,sans-Serif" font-size="10.00">hrt_micros64</text>
</a>
</g>
</g>
<!-- Node5057&#45;&gt;Node5058 -->
<g id="edge2" class="edge"><title>Node5057&#45;&gt;Node5058</title>
<path fill="none" stroke="midnightblue" d="M270.266,-88C285.366,-88 301.917,-88 316.804,-88"/>
<polygon fill="midnightblue" stroke="midnightblue" points="316.806,-91.5001 326.806,-88 316.806,-84.5001 316.806,-91.5001"/>
</g>
<!-- Node5060 -->
<g id="node5" class="node"><title>Node5060</title>
<g id="a_node5"><a xlink:href="classAP__RPM.html#a9c5715bbd3d39c3b66960e411644457d" target="_top" xlink:title=" ">
<polygon fill="white" stroke="black" points="316.537,-39 316.537,-59 411.463,-59 411.463,-39 316.537,-39"/>
<text text-anchor="middle" x="364" y="-45" font-family="Helvetica,sans-Serif" font-size="10.00">AP_RPM::healthy</text>
</a>
</g>
</g>
<!-- Node5059&#45;&gt;Node5060 -->
<g id="edge4" class="edge"><title>Node5059&#45;&gt;Node5060</title>
<path fill="none" stroke="midnightblue" d="M269.868,-49C281.534,-49 294.085,-49 306.077,-49"/>
<polygon fill="midnightblue" stroke="midnightblue" points="306.436,-52.5001 316.436,-49 306.436,-45.5001 306.436,-52.5001"/>
</g>
</g>
</svg>
