<?xml version="1.0" encoding="UTF-8" standalone="no"?>
<!DOCTYPE svg PUBLIC "-//W3C//DTD SVG 1.1//EN"
 "http://www.w3.org/Graphics/SVG/1.1/DTD/svg11.dtd">
<!-- Generated by graphviz version 2.30.1 (20130221.2233)
 -->
<!-- Title: AP_RCProtocol::process_pulse_list Pages: 1 -->
<svg width="636pt" height="283pt"
 viewBox="0.00 0.00 636.00 283.00" xmlns="http://www.w3.org/2000/svg" xmlns:xlink="http://www.w3.org/1999/xlink">
<g id="graph0" class="graph" transform="scale(1 1) rotate(0) translate(4 279)">
<title>AP_RCProtocol::process_pulse_list</title>
<polygon fill="white" stroke="white" points="-4,5 -4,-279 633,-279 633,5 -4,5"/>
<!-- Node88 -->
<g id="node1" class="node"><title>Node88</title>
<g id="a_node1"><a xlink:title=" ">
<polygon fill="#bfbfbf" stroke="black" points="0.699707,-127 0.699707,-159 127.3,-159 127.3,-127 0.699707,-127"/>
<text text-anchor="start" x="8.69971" y="-145" font-family="Helvetica,sans-Serif" font-size="10.00">AP_RCProtocol::process</text>
<text text-anchor="middle" x="64" y="-133" font-family="Helvetica,sans-Serif" font-size="10.00">_pulse_list</text>
</a>
</g>
</g>
<!-- Node89 -->
<g id="node2" class="node"><title>Node89</title>
<g id="a_node2"><a xlink:href="classAP__RCProtocol.html#a3eeef44afd19163f56db5e59674559c8" target="_top" xlink:title=" ">
<polygon fill="white" stroke="black" points="164.7,-127 164.7,-159 291.3,-159 291.3,-127 164.7,-127"/>
<text text-anchor="start" x="172.7" y="-145" font-family="Helvetica,sans-Serif" font-size="10.00">AP_RCProtocol::process</text>
<text text-anchor="middle" x="228" y="-133" font-family="Helvetica,sans-Serif" font-size="10.00">_pulse</text>
</a>
</g>
</g>
<!-- Node88&#45;&gt;Node89 -->
<g id="edge1" class="edge"><title>Node88&#45;&gt;Node89</title>
<path fill="none" stroke="midnightblue" d="M127.633,-143C136.431,-143 145.534,-143 154.497,-143"/>
<polygon fill="midnightblue" stroke="midnightblue" points="154.533,-146.5 164.533,-143 154.533,-139.5 154.533,-146.5"/>
</g>
<!-- Node90 -->
<g id="node3" class="node"><title>Node90</title>
<g id="a_node3"><a xlink:href="namespaceAP__HAL.html#a77dffbb18891996280308e21316ec186" target="_top" xlink:title=" ">
<polygon fill="white" stroke="black" points="352.936,-255 352.936,-275 435.064,-275 435.064,-255 352.936,-255"/>
<text text-anchor="middle" x="394" y="-261" font-family="Helvetica,sans-Serif" font-size="10.00">AP_HAL::millis</text>
</a>
</g>
</g>
<!-- Node89&#45;&gt;Node90 -->
<g id="edge2" class="edge"><title>Node89&#45;&gt;Node90</title>
<path fill="none" stroke="midnightblue" d="M240.538,-159.249C257.309,-181.709 290.538,-222.062 328,-245 332.72,-247.89 337.891,-250.392 343.189,-252.552"/>
<polygon fill="midnightblue" stroke="midnightblue" points="342.2,-255.917 352.794,-256.079 344.613,-249.346 342.2,-255.917"/>
</g>
<!-- Node92 -->
<g id="node5" class="node"><title>Node92</title>
<g id="a_node5"><a xlink:href="classAP__RCProtocol__Backend.html#a7c3dddd81b5de9bd6b28f0d6bb062917" target="_top" xlink:title=" ">
<polygon fill="white" stroke="black" points="328.747,-204 328.747,-236 459.253,-236 459.253,-204 328.747,-204"/>
<text text-anchor="start" x="336.747" y="-222" font-family="Helvetica,sans-Serif" font-size="10.00">AP_RCProtocol_Backend</text>
<text text-anchor="middle" x="394" y="-210" font-family="Helvetica,sans-Serif" font-size="10.00">::process_pulse</text>
</a>
</g>
</g>
<!-- Node89&#45;&gt;Node92 -->
<g id="edge4" class="edge"><title>Node89&#45;&gt;Node92</title>
<path fill="none" stroke="midnightblue" d="M258.529,-159.148C278.022,-169.574 304.254,-183.164 328,-194 332.399,-196.007 337,-198.018 341.634,-199.984"/>
<polygon fill="midnightblue" stroke="midnightblue" points="340.563,-203.329 351.14,-203.938 343.252,-196.866 340.563,-203.329"/>
</g>
<!-- Node93 -->
<g id="node6" class="node"><title>Node93</title>
<g id="a_node6"><a xlink:href="classAP__RCProtocol.html#ada38813f2671cced243422684aa4a22d" target="_top" xlink:title=" ">
<polygon fill="white" stroke="black" points="339.035,-153 339.035,-185 448.965,-185 448.965,-153 339.035,-153"/>
<text text-anchor="start" x="347.035" y="-171" font-family="Helvetica,sans-Serif" font-size="10.00">AP_RCProtocol::new</text>
<text text-anchor="middle" x="394" y="-159" font-family="Helvetica,sans-Serif" font-size="10.00">_input</text>
</a>
</g>
</g>
<!-- Node89&#45;&gt;Node93 -->
<g id="edge5" class="edge"><title>Node89&#45;&gt;Node93</title>
<path fill="none" stroke="midnightblue" d="M291.469,-152.904C303.704,-154.843 316.554,-156.88 328.842,-158.829"/>
<polygon fill="midnightblue" stroke="midnightblue" points="328.582,-162.331 339.007,-160.44 329.678,-155.417 328.582,-162.331"/>
</g>
<!-- Node95 -->
<g id="node8" class="node"><title>Node95</title>
<g id="a_node8"><a xlink:href="classAP__RCProtocol__Backend.html#a3a26daa52afbbe107c03957a35b3f996" target="_top" xlink:title=" ">
<polygon fill="white" stroke="black" points="328.747,-102 328.747,-134 459.253,-134 459.253,-102 328.747,-102"/>
<text text-anchor="start" x="336.747" y="-120" font-family="Helvetica,sans-Serif" font-size="10.00">AP_RCProtocol_Backend</text>
<text text-anchor="middle" x="394" y="-108" font-family="Helvetica,sans-Serif" font-size="10.00">::get_rc_frame_count</text>
</a>
</g>
</g>
<!-- Node89&#45;&gt;Node95 -->
<g id="edge7" class="edge"><title>Node89&#45;&gt;Node95</title>
<path fill="none" stroke="midnightblue" d="M291.469,-133.477C300.282,-132.134 309.415,-130.742 318.427,-129.368"/>
<polygon fill="midnightblue" stroke="midnightblue" points="319.168,-132.795 328.527,-127.828 318.113,-125.875 319.168,-132.795"/>
</g>
<!-- Node96 -->
<g id="node9" class="node"><title>Node96</title>
<g id="a_node9"><a xlink:href="classAP__RCProtocol__Backend.html#a38bc819bb3340e16cd87c2a7d1707a40" target="_top" xlink:title=" ">
<polygon fill="white" stroke="black" points="328.747,-51 328.747,-83 459.253,-83 459.253,-51 328.747,-51"/>
<text text-anchor="start" x="336.747" y="-69" font-family="Helvetica,sans-Serif" font-size="10.00">AP_RCProtocol_Backend</text>
<text text-anchor="middle" x="394" y="-57" font-family="Helvetica,sans-Serif" font-size="10.00">::get_rc_input_count</text>
</a>
</g>
</g>
<!-- Node89&#45;&gt;Node96 -->
<g id="edge8" class="edge"><title>Node89&#45;&gt;Node96</title>
<path fill="none" stroke="midnightblue" d="M259,-126.991C278.461,-116.819 304.484,-103.617 328,-93 332.407,-91.0104 337.013,-89.0113 341.652,-87.0538"/>
<polygon fill="midnightblue" stroke="midnightblue" points="343.266,-90.1736 351.162,-83.1102 340.584,-83.7074 343.266,-90.1736"/>
</g>
<!-- Node97 -->
<g id="node10" class="node"><title>Node97</title>
<g id="a_node10"><a xlink:href="classAP__RCProtocol.html#afc47d0f1005d6a582baa25c6fd24cf9b" target="_top" xlink:title=" ">
<polygon fill="white" stroke="black" points="330.143,-0 330.143,-32 457.857,-32 457.857,-0 330.143,-0"/>
<text text-anchor="start" x="338.143" y="-18" font-family="Helvetica,sans-Serif" font-size="10.00">AP_RCProtocol::requires</text>
<text text-anchor="middle" x="394" y="-6" font-family="Helvetica,sans-Serif" font-size="10.00">_3_frames</text>
</a>
</g>
</g>
<!-- Node89&#45;&gt;Node97 -->
<g id="edge9" class="edge"><title>Node89&#45;&gt;Node97</title>
<path fill="none" stroke="midnightblue" d="M241.134,-126.968C258.355,-105.16 291.838,-66.1053 328,-42 330.868,-40.0882 333.898,-38.2809 337.02,-36.5784"/>
<polygon fill="midnightblue" stroke="midnightblue" points="338.64,-39.6811 345.998,-32.0582 335.493,-33.4287 338.64,-39.6811"/>
</g>
<!-- Node91 -->
<g id="node4" class="node"><title>Node91</title>
<g id="a_node4"><a xlink:href="hrt_8c.html#a1295f128f60d29874243b5733c4db025" target="_top" xlink:title=" ">
<polygon fill="white" stroke="black" points="528.714,-255 528.714,-275 595.286,-275 595.286,-255 528.714,-255"/>
<text text-anchor="middle" x="562" y="-261" font-family="Helvetica,sans-Serif" font-size="10.00">hrt_millis32</text>
</a>
</g>
</g>
<!-- Node90&#45;&gt;Node91 -->
<g id="edge3" class="edge"><title>Node90&#45;&gt;Node91</title>
<path fill="none" stroke="midnightblue" d="M435.184,-265C460.4,-265 492.876,-265 518.517,-265"/>
<polygon fill="midnightblue" stroke="midnightblue" points="518.689,-268.5 528.689,-265 518.689,-261.5 518.689,-268.5"/>
</g>
<!-- Node94 -->
<g id="node7" class="node"><title>Node94</title>
<g id="a_node7"><a xlink:href="classAP__RCProtocol__Backend.html#a764bb2706f649a3d114f2f8a2360d40f" target="_top" xlink:title=" ">
<polygon fill="white" stroke="black" points="496.747,-153 496.747,-185 627.253,-185 627.253,-153 496.747,-153"/>
<text text-anchor="start" x="504.747" y="-171" font-family="Helvetica,sans-Serif" font-size="10.00">AP_RCProtocol_Backend</text>
<text text-anchor="middle" x="562" y="-159" font-family="Helvetica,sans-Serif" font-size="10.00">::update</text>
</a>
</g>
</g>
<!-- Node93&#45;&gt;Node94 -->
<g id="edge6" class="edge"><title>Node93&#45;&gt;Node94</title>
<path fill="none" stroke="midnightblue" d="M449.355,-169C461.292,-169 474.131,-169 486.701,-169"/>
<polygon fill="midnightblue" stroke="midnightblue" points="486.701,-172.5 496.701,-169 486.701,-165.5 486.701,-172.5"/>
</g>
</g>
</svg>
