<?xml version="1.0" encoding="UTF-8" standalone="no"?>
<!DOCTYPE svg PUBLIC "-//W3C//DTD SVG 1.1//EN"
 "http://www.w3.org/Graphics/SVG/1.1/DTD/svg11.dtd">
<!-- Generated by graphviz version 2.30.1 (20130221.2233)
 -->
<!-- Title: AP_Motors::rc_write_angle Pages: 1 -->
<svg width="286pt" height="91pt"
 viewBox="0.00 0.00 286.00 91.00" xmlns="http://www.w3.org/2000/svg" xmlns:xlink="http://www.w3.org/1999/xlink">
<g id="graph0" class="graph" transform="scale(1 1) rotate(0) translate(4 87)">
<title>AP_Motors::rc_write_angle</title>
<polygon fill="white" stroke="white" points="-4,5 -4,-87 283,-87 283,5 -4,5"/>
<!-- Node305 -->
<g id="node1" class="node"><title>Node305</title>
<g id="a_node1"><a xlink:title=" ">
<polygon fill="#bfbfbf" stroke="black" points="-0.012207,-25 -0.012207,-57 106.012,-57 106.012,-25 -0.012207,-25"/>
<text text-anchor="start" x="7.98779" y="-43" font-family="Helvetica,sans-Serif" font-size="10.00">AP_Motors::rc_write</text>
<text text-anchor="middle" x="53" y="-31" font-family="Helvetica,sans-Serif" font-size="10.00">_angle</text>
</a>
</g>
</g>
<!-- Node306 -->
<g id="node2" class="node"><title>Node306</title>
<g id="a_node2"><a xlink:href="classSRV__Channels.html#acab9e1aba9fcbde6e598169af5b3181f" target="_top" xlink:title=" ">
<polygon fill="white" stroke="black" points="142.61,-51 142.61,-83 277.39,-83 277.39,-51 142.61,-51"/>
<text text-anchor="start" x="150.61" y="-69" font-family="Helvetica,sans-Serif" font-size="10.00">SRV_Channels::get_motor</text>
<text text-anchor="middle" x="210" y="-57" font-family="Helvetica,sans-Serif" font-size="10.00">_function</text>
</a>
</g>
</g>
<!-- Node305&#45;&gt;Node306 -->
<g id="edge1" class="edge"><title>Node305&#45;&gt;Node306</title>
<path fill="none" stroke="midnightblue" d="M106.044,-49.73C114.543,-51.1555 123.501,-52.6582 132.442,-54.158"/>
<polygon fill="midnightblue" stroke="midnightblue" points="132.063,-57.6433 142.505,-55.8459 133.221,-50.7398 132.063,-57.6433"/>
</g>
<!-- Node307 -->
<g id="node3" class="node"><title>Node307</title>
<g id="a_node3"><a xlink:href="classSRV__Channels.html#a61d6f8b037aa79f789a11e872f50e220" target="_top" xlink:title=" ">
<polygon fill="white" stroke="black" points="141.771,-0 141.771,-32 278.229,-32 278.229,-0 141.771,-0"/>
<text text-anchor="start" x="149.771" y="-18" font-family="Helvetica,sans-Serif" font-size="10.00">SRV_Channels::set_output</text>
<text text-anchor="middle" x="210" y="-6" font-family="Helvetica,sans-Serif" font-size="10.00">_scaled</text>
</a>
</g>
</g>
<!-- Node305&#45;&gt;Node307 -->
<g id="edge2" class="edge"><title>Node305&#45;&gt;Node307</title>
<path fill="none" stroke="midnightblue" d="M106.044,-32.6058C114.262,-31.2804 122.909,-29.8857 131.555,-28.4911"/>
<polygon fill="midnightblue" stroke="midnightblue" points="132.364,-31.906 141.679,-26.8583 131.249,-24.9953 132.364,-31.906"/>
</g>
</g>
</svg>
