<?xml version="1.0" encoding="UTF-8" standalone="no"?>
<!DOCTYPE svg PUBLIC "-//W3C//DTD SVG 1.1//EN"
 "http://www.w3.org/Graphics/SVG/1.1/DTD/svg11.dtd">
<!-- Generated by graphviz version 2.30.1 (20130221.2233)
 -->
<!-- Title: AP_ADSB::init Pages: 1 -->
<!--zoomable 218 -->
<svg id="main" version="1.1" xmlns="http://www.w3.org/2000/svg" xmlns:xlink="http://www.w3.org/1999/xlink" xml:space="preserve" onload="init(evt)">
<style type="text/css"><![CDATA[
.edge:hover path { stroke: red; }
.edge:hover polygon { stroke: red; fill: red; }
]]></style>
<script type="text/javascript"><![CDATA[
var edges = document.getElementsByTagName('g');
if (edges && edges.length) {
  for (var i=0;i<edges.length;i++) {
    if (edges[i].id.substr(0,4)=='edge') {
      edges[i].setAttribute('class','edge');
    }
  }
}
]]></script>
        <defs>
                <circle id="rim" cx="0" cy="0" r="7"/>
                <circle id="rim2" cx="0" cy="0" r="3.5"/>
                <g id="zoomPlus">
                        <use xlink:href="#rim" fill="#404040">
                                <set attributeName="fill" to="#808080" begin="zoomplus.mouseover" end="zoomplus.mouseout"/>
                        </use>
                        <path d="M-4,0h8M0,-4v8" fill="none" stroke="white" stroke-width="1.5" pointer-events="none"/>
                </g>
                <g id="zoomMin">
                        <use xlink:href="#rim" fill="#404040">
                                <set attributeName="fill" to="#808080" begin="zoomminus.mouseover" end="zoomminus.mouseout"/>
                        </use>
                        <path d="M-4,0h8" fill="none" stroke="white" stroke-width="1.5" pointer-events="none"/>
                </g>
                <g id="dirArrow">
                        <path fill="none" stroke="white" stroke-width="1.5" d="M0,-3.0v7 M-2.5,-0.5L0,-3.0L2.5,-0.5"/>
                </g>
               <g id="resetDef">
                       <use xlink:href="#rim2" fill="#404040">
                               <set attributeName="fill" to="#808080" begin="reset.mouseover" end="reset.mouseout"/>
                       </use>
               </g>
        </defs>

<script type="text/javascript">
var viewWidth = 856;
var viewHeight = 218;
var sectionId = 'dynsection-22';
</script>
<script xlink:href="svgpan.js"/>
<svg id="graph" class="graph">
<g id="viewport">
<title>AP_ADSB::init</title>
<polygon fill="white" stroke="white" points="-4,5 -4,-214 853,-214 853,5 -4,5"/>
<!-- Node197 -->
<g id="node1" class="node"><title>Node197</title>
<g id="a_node1"><a xlink:title=" ">
<polygon fill="#bfbfbf" stroke="black" points="-0.236328,-100 -0.236328,-120 80.2363,-120 80.2363,-100 -0.236328,-100"/>
<text text-anchor="middle" x="40" y="-106" font-family="Helvetica,sans-Serif" font-size="10.00">AP_ADSB::init</text>
</a>
</g>
</g>
<!-- Node198 -->
<g id="node2" class="node"><title>Node198</title>
<g id="a_node2"><a xlink:href="AP__Math_8h.html#a68558c4f79a8582543daefde13c64abc" target="_top" xlink:title=" ">
<polygon fill="white" stroke="black" points="134.089,-145 134.089,-165 217.911,-165 217.911,-145 134.089,-145"/>
<text text-anchor="middle" x="176" y="-151" font-family="Helvetica,sans-Serif" font-size="10.00">constrain_int16</text>
</a>
</g>
</g>
<!-- Node197&#45;&gt;Node198 -->
<g id="edge1" class="edge"><title>Node197&#45;&gt;Node198</title>
<path fill="none" stroke="midnightblue" d="M71.0722,-120.099C90.0375,-126.468 114.744,-134.765 135.309,-141.671"/>
<polygon fill="midnightblue" stroke="midnightblue" points="134.434,-145.069 145.028,-144.935 136.663,-138.433 134.434,-145.069"/>
</g>
<!-- Node205 -->
<g id="node9" class="node"><title>Node205</title>
<g id="a_node9"><a xlink:href="classAP__HAL_1_1BetterStream.html#a8534aa004599bb81ad60f3e762791032" target="_top" xlink:title=" ">
<polygon fill="white" stroke="black" points="116.589,-94 116.589,-126 235.411,-126 235.411,-94 116.589,-94"/>
<text text-anchor="start" x="124.589" y="-112" font-family="Helvetica,sans-Serif" font-size="10.00">AP_HAL::BetterStream</text>
<text text-anchor="middle" x="176" y="-100" font-family="Helvetica,sans-Serif" font-size="10.00">::printf</text>
</a>
</g>
</g>
<!-- Node197&#45;&gt;Node205 -->
<g id="edge8" class="edge"><title>Node197&#45;&gt;Node205</title>
<path fill="none" stroke="midnightblue" d="M80.4797,-110C88.669,-110 97.5222,-110 106.413,-110"/>
<polygon fill="midnightblue" stroke="midnightblue" points="106.433,-113.5 116.433,-110 106.433,-106.5 106.433,-113.5"/>
</g>
<!-- Node213 -->
<g id="node17" class="node"><title>Node213</title>
<g id="a_node17"><a xlink:href="classAP__ADSB.html#a7de4de7744351d284010855bf56e6134" target="_top" xlink:title=" ">
<polygon fill="white" stroke="black" points="116.03,-55 116.03,-75 235.97,-75 235.97,-55 116.03,-55"/>
<text text-anchor="middle" x="176" y="-61" font-family="Helvetica,sans-Serif" font-size="10.00">AP_ADSB::set_callsign</text>
</a>
</g>
</g>
<!-- Node197&#45;&gt;Node213 -->
<g id="edge18" class="edge"><title>Node197&#45;&gt;Node213</title>
<path fill="none" stroke="midnightblue" d="M71.0722,-99.9011C90.0375,-93.5322 114.744,-85.2353 135.309,-78.3292"/>
<polygon fill="midnightblue" stroke="midnightblue" points="136.663,-81.5666 145.028,-75.0652 134.434,-74.9308 136.663,-81.5666"/>
</g>
<!-- Node199 -->
<g id="node3" class="node"><title>Node199</title>
<g id="a_node3"><a xlink:href="AP__Math_8h.html#a20e8f8671c282c69c1954652b6d61585" target="_top" xlink:title=" ">
<polygon fill="white" stroke="black" points="288.978,-145 288.978,-165 375.022,-165 375.022,-145 288.978,-145"/>
<text text-anchor="middle" x="332" y="-151" font-family="Helvetica,sans-Serif" font-size="10.00">constrain_value</text>
</a>
</g>
</g>
<!-- Node198&#45;&gt;Node199 -->
<g id="edge2" class="edge"><title>Node198&#45;&gt;Node199</title>
<path fill="none" stroke="midnightblue" d="M218.269,-155C236.857,-155 259.015,-155 278.747,-155"/>
<polygon fill="midnightblue" stroke="midnightblue" points="278.812,-158.5 288.812,-155 278.812,-151.5 278.812,-158.5"/>
</g>
<!-- Node200 -->
<g id="node4" class="node"><title>Node200</title>
<g id="a_node4"><a xlink:href="namespaceAP.html#afceb236ff617aaaa2b08afacd72532b0" target="_top" xlink:title=" ">
<polygon fill="white" stroke="black" points="442.596,-184 442.596,-204 531.404,-204 531.404,-184 442.596,-184"/>
<text text-anchor="middle" x="487" y="-190" font-family="Helvetica,sans-Serif" font-size="10.00">AP::internalerror</text>
</a>
</g>
</g>
<!-- Node199&#45;&gt;Node200 -->
<g id="edge3" class="edge"><title>Node199&#45;&gt;Node200</title>
<path fill="none" stroke="midnightblue" d="M372.401,-165.043C392.032,-170.047 415.964,-176.148 436.79,-181.456"/>
<polygon fill="midnightblue" stroke="midnightblue" points="436.178,-184.912 446.732,-183.991 437.907,-178.129 436.178,-184.912"/>
</g>
<!-- Node201 -->
<g id="node5" class="node"><title>Node201</title>
<g id="a_node5"><a xlink:href="classAP__InternalError.html#ab34174ba770b976b39a18c2b23e854f2" target="_top" xlink:title=" ">
<polygon fill="white" stroke="black" points="428.426,-145 428.426,-165 545.574,-165 545.574,-145 428.426,-145"/>
<text text-anchor="middle" x="487" y="-151" font-family="Helvetica,sans-Serif" font-size="10.00">AP_InternalError::error</text>
</a>
</g>
</g>
<!-- Node199&#45;&gt;Node201 -->
<g id="edge4" class="edge"><title>Node199&#45;&gt;Node201</title>
<path fill="none" stroke="midnightblue" d="M375.213,-155C388.508,-155 403.546,-155 418.157,-155"/>
<polygon fill="midnightblue" stroke="midnightblue" points="418.177,-158.5 428.177,-155 418.177,-151.5 418.177,-158.5"/>
</g>
<!-- Node202 -->
<g id="node6" class="node"><title>Node202</title>
<g id="a_node6"><a xlink:href="namespaceAP__HAL.html#a71832f03d849a0c088f04fc98d3c8143" target="_top" xlink:title=" ">
<polygon fill="white" stroke="black" points="600.091,-168 600.091,-188 683.909,-188 683.909,-168 600.091,-168"/>
<text text-anchor="middle" x="642" y="-174" font-family="Helvetica,sans-Serif" font-size="10.00">AP_HAL::panic</text>
</a>
</g>
</g>
<!-- Node201&#45;&gt;Node202 -->
<g id="edge5" class="edge"><title>Node201&#45;&gt;Node202</title>
<path fill="none" stroke="midnightblue" d="M545.843,-163.695C560.279,-165.865 575.659,-168.178 589.751,-170.296"/>
<polygon fill="midnightblue" stroke="midnightblue" points="589.344,-173.774 599.753,-171.8 590.385,-166.852 589.344,-173.774"/>
</g>
<!-- Node203 -->
<g id="node7" class="node"><title>Node203</title>
<g id="a_node7"><a xlink:href="stdio_8h.html#aae132cc6af1eb6cf43bf011d8d63e854" target="_top" xlink:title=" ">
<polygon fill="white" stroke="black" points="771.384,-190 771.384,-210 814.616,-210 814.616,-190 771.384,-190"/>
<text text-anchor="middle" x="793" y="-196" font-family="Helvetica,sans-Serif" font-size="10.00">vprintf</text>
</a>
</g>
</g>
<!-- Node202&#45;&gt;Node203 -->
<g id="edge6" class="edge"><title>Node202&#45;&gt;Node203</title>
<path fill="none" stroke="midnightblue" d="M684.109,-184.07C708.5,-187.671 738.911,-192.161 761.224,-195.456"/>
<polygon fill="midnightblue" stroke="midnightblue" points="760.756,-198.925 771.16,-196.923 761.778,-192 760.756,-198.925"/>
</g>
<!-- Node204 -->
<g id="node8" class="node"><title>Node204</title>
<g id="a_node8"><a xlink:href="classAP__HAL_1_1Scheduler.html#a78c4f1b1f192ac1c99544b6cc8f099b0" target="_top" xlink:title=" ">
<polygon fill="white" stroke="black" points="737.751,-139 737.751,-171 848.249,-171 848.249,-139 737.751,-139"/>
<text text-anchor="start" x="745.751" y="-157" font-family="Helvetica,sans-Serif" font-size="10.00">AP_HAL::Scheduler::</text>
<text text-anchor="middle" x="793" y="-145" font-family="Helvetica,sans-Serif" font-size="10.00">delay_microseconds</text>
</a>
</g>
</g>
<!-- Node202&#45;&gt;Node204 -->
<g id="edge7" class="edge"><title>Node202&#45;&gt;Node204</title>
<path fill="none" stroke="midnightblue" d="M684.109,-171.654C697.547,-169.58 712.812,-167.224 727.543,-164.95"/>
<polygon fill="midnightblue" stroke="midnightblue" points="728.279,-168.378 737.628,-163.393 727.211,-161.46 728.279,-168.378"/>
</g>
<!-- Node206 -->
<g id="node10" class="node"><title>Node206</title>
<g id="a_node10"><a xlink:href="classAP__HAL_1_1BetterStream.html#aa730be451d385d7ba03ee9677e6d91a2" target="_top" xlink:title=" ">
<polygon fill="white" stroke="black" points="272.589,-94 272.589,-126 391.411,-126 391.411,-94 272.589,-94"/>
<text text-anchor="start" x="280.589" y="-112" font-family="Helvetica,sans-Serif" font-size="10.00">AP_HAL::BetterStream</text>
<text text-anchor="middle" x="332" y="-100" font-family="Helvetica,sans-Serif" font-size="10.00">::vprintf</text>
</a>
</g>
</g>
<!-- Node205&#45;&gt;Node206 -->
<g id="edge9" class="edge"><title>Node205&#45;&gt;Node206</title>
<path fill="none" stroke="midnightblue" d="M235.66,-110C244.43,-110 253.536,-110 262.488,-110"/>
<polygon fill="midnightblue" stroke="midnightblue" points="262.503,-113.5 272.503,-110 262.503,-106.5 262.503,-113.5"/>
</g>
<!-- Node207 -->
<g id="node11" class="node"><title>Node207</title>
<g id="a_node11"><a xlink:href="print__vprintf_8cpp.html#a98e0d5bb436a207f576379beaa786040" target="_top" xlink:title=" ">
<polygon fill="white" stroke="black" points="452.877,-78 452.877,-98 521.123,-98 521.123,-78 452.877,-78"/>
<text text-anchor="middle" x="487" y="-84" font-family="Helvetica,sans-Serif" font-size="10.00">print_vprintf</text>
</a>
</g>
</g>
<!-- Node206&#45;&gt;Node207 -->
<g id="edge10" class="edge"><title>Node206&#45;&gt;Node207</title>
<path fill="none" stroke="midnightblue" d="M391.716,-101.557C408.584,-99.1318 426.672,-96.5308 442.449,-94.2622"/>
<polygon fill="midnightblue" stroke="midnightblue" points="443.047,-97.7123 452.447,-92.8246 442.051,-90.7836 443.047,-97.7123"/>
</g>
<!-- Node208 -->
<g id="node12" class="node"><title>Node208</title>
<g id="a_node12"><a xlink:href="classAP__HAL_1_1BetterStream.html#a915cc01273d4b418c2fb2989fb31a508" target="_top" xlink:title=" ">
<polygon fill="white" stroke="black" points="582.589,-117 582.589,-149 701.411,-149 701.411,-117 582.589,-117"/>
<text text-anchor="start" x="590.589" y="-135" font-family="Helvetica,sans-Serif" font-size="10.00">AP_HAL::BetterStream</text>
<text text-anchor="middle" x="642" y="-123" font-family="Helvetica,sans-Serif" font-size="10.00">::write</text>
</a>
</g>
</g>
<!-- Node207&#45;&gt;Node208 -->
<g id="edge11" class="edge"><title>Node207&#45;&gt;Node208</title>
<path fill="none" stroke="midnightblue" d="M521.199,-97.7643C537.514,-102.563 557.747,-108.514 576.912,-114.151"/>
<polygon fill="midnightblue" stroke="midnightblue" points="575.93,-117.51 586.511,-116.974 577.905,-110.794 575.93,-117.51"/>
</g>
<!-- Node209 -->
<g id="node13" class="node"><title>Node209</title>
<g id="a_node13"><a xlink:href="ftoa__engine_8cpp.html#a1c28234da8f20b43c85890d4bb452947" target="_top" xlink:title=" ">
<polygon fill="white" stroke="black" points="607.865,-78 607.865,-98 676.135,-98 676.135,-78 607.865,-78"/>
<text text-anchor="middle" x="642" y="-84" font-family="Helvetica,sans-Serif" font-size="10.00">ftoa_engine</text>
</a>
</g>
</g>
<!-- Node207&#45;&gt;Node209 -->
<g id="edge12" class="edge"><title>Node207&#45;&gt;Node209</title>
<path fill="none" stroke="midnightblue" d="M521.199,-88C543.577,-88 573.327,-88 597.581,-88"/>
<polygon fill="midnightblue" stroke="midnightblue" points="597.602,-91.5001 607.602,-88 597.602,-84.5001 597.602,-91.5001"/>
</g>
<!-- Node211 -->
<g id="node15" class="node"><title>Node211</title>
<g id="a_node15"><a xlink:href="utoa__invert_8cpp.html#a34926f552460b47c414ec4d83b32815c" target="_top" xlink:title=" ">
<polygon fill="white" stroke="black" points="607.04,-39 607.04,-59 676.96,-59 676.96,-39 607.04,-39"/>
<text text-anchor="middle" x="642" y="-45" font-family="Helvetica,sans-Serif" font-size="10.00">ulltoa_invert</text>
</a>
</g>
</g>
<!-- Node207&#45;&gt;Node211 -->
<g id="edge14" class="edge"><title>Node207&#45;&gt;Node211</title>
<path fill="none" stroke="midnightblue" d="M521.199,-79.5376C543.346,-73.8921 572.714,-66.4062 596.829,-60.2592"/>
<polygon fill="midnightblue" stroke="midnightblue" points="597.981,-63.5776 606.807,-57.7159 596.252,-56.7945 597.981,-63.5776"/>
</g>
<!-- Node212 -->
<g id="node16" class="node"><title>Node212</title>
<g id="a_node16"><a xlink:href="utoa__invert_8cpp.html#a5d99bba8e697c1e11da489d88fca8559" target="_top" xlink:title=" ">
<polygon fill="white" stroke="black" points="608.15,-0 608.15,-20 675.85,-20 675.85,-0 608.15,-0"/>
<text text-anchor="middle" x="642" y="-6" font-family="Helvetica,sans-Serif" font-size="10.00">ultoa_invert</text>
</a>
</g>
</g>
<!-- Node207&#45;&gt;Node212 -->
<g id="edge16" class="edge"><title>Node207&#45;&gt;Node212</title>
<path fill="none" stroke="midnightblue" d="M501.708,-77.8553C519.48,-65.0728 551.786,-43.078 582,-29 587.121,-26.6139 592.623,-24.4075 598.134,-22.4072"/>
<polygon fill="midnightblue" stroke="midnightblue" points="599.657,-25.5855 607.984,-19.0354 597.39,-18.9628 599.657,-25.5855"/>
</g>
<!-- Node210 -->
<g id="node14" class="node"><title>Node210</title>
<g id="a_node14"><a xlink:href="lstrlib_8c.html#a9605f4d16ae762782f8be8b54aef0a22" target="_top" xlink:title=" ">
<polygon fill="white" stroke="black" points="775.828,-39 775.828,-59 810.172,-59 810.172,-39 775.828,-39"/>
<text text-anchor="middle" x="793" y="-45" font-family="Helvetica,sans-Serif" font-size="10.00">digit</text>
</a>
</g>
</g>
<!-- Node209&#45;&gt;Node210 -->
<g id="edge13" class="edge"><title>Node209&#45;&gt;Node210</title>
<path fill="none" stroke="midnightblue" d="M676.439,-79.2476C703.466,-72.1734 740.978,-62.3546 765.844,-55.8461"/>
<polygon fill="midnightblue" stroke="midnightblue" points="766.872,-59.1952 775.659,-53.2771 765.099,-52.4234 766.872,-59.1952"/>
</g>
<!-- Node211&#45;&gt;Node210 -->
<g id="edge15" class="edge"><title>Node211&#45;&gt;Node210</title>
<path fill="none" stroke="midnightblue" d="M677.184,-49C703.977,-49 740.727,-49 765.364,-49"/>
<polygon fill="midnightblue" stroke="midnightblue" points="765.435,-52.5001 775.435,-49 765.435,-45.5001 765.435,-52.5001"/>
</g>
<!-- Node212&#45;&gt;Node210 -->
<g id="edge17" class="edge"><title>Node212&#45;&gt;Node210</title>
<path fill="none" stroke="midnightblue" d="M676.068,-18.6554C703.075,-25.7242 740.732,-35.5809 765.713,-42.1195"/>
<polygon fill="midnightblue" stroke="midnightblue" points="765.014,-45.5544 775.575,-44.7007 766.787,-38.7826 765.014,-45.5544"/>
</g>
<!-- Node214 -->
<g id="node18" class="node"><title>Node214</title>
<g id="a_node18"><a xlink:href="stdio_8h.html#a37c1e8ce8a2b411fa666dc33972a2cec" target="_top" xlink:title=" ">
<polygon fill="white" stroke="black" points="307.604,-55 307.604,-75 356.396,-75 356.396,-55 307.604,-55"/>
<text text-anchor="middle" x="332" y="-61" font-family="Helvetica,sans-Serif" font-size="10.00">snprintf</text>
</a>
</g>
</g>
<!-- Node213&#45;&gt;Node214 -->
<g id="edge19" class="edge"><title>Node213&#45;&gt;Node214</title>
<path fill="none" stroke="midnightblue" d="M236.1,-65C256.849,-65 279.434,-65 297.364,-65"/>
<polygon fill="midnightblue" stroke="midnightblue" points="297.6,-68.5001 307.6,-65 297.6,-61.5001 297.6,-68.5001"/>
</g>
</g>
</svg>
        <g id="navigator" transform="translate(0 0)" fill="#404254">
                <rect fill="#f2f5e9" fill-opacity="0.5" stroke="#606060" stroke-width=".5" x="0" y="0" width="60" height="60"/>
                <use id="zoomplus" xlink:href="#zoomPlus" x="17" y="9" onmousedown="handleZoom(evt,'in')"/>
                <use id="zoomminus" xlink:href="#zoomMin" x="42" y="9" onmousedown="handleZoom(evt,'out')"/>
                <use id="reset" xlink:href="#resetDef" x="30" y="36" onmousedown="handleReset()"/>
                <g id="arrowUp" xlink:href="#dirArrow" transform="translate(30 24)" onmousedown="handlePan(0,-1)">
                  <use xlink:href="#rim" fill="#404040">
                        <set attributeName="fill" to="#808080" begin="arrowUp.mouseover" end="arrowUp.mouseout"/>
                  </use>
                  <path fill="none" stroke="white" stroke-width="1.5" d="M0,-3.0v7 M-2.5,-0.5L0,-3.0L2.5,-0.5"/>
                </g>
                <g id="arrowRight" xlink:href="#dirArrow" transform="rotate(90) translate(36 -43)" onmousedown="handlePan(1,0)">
                  <use xlink:href="#rim" fill="#404040">
                        <set attributeName="fill" to="#808080" begin="arrowRight.mouseover" end="arrowRight.mouseout"/>
                  </use>
                  <path fill="none" stroke="white" stroke-width="1.5" d="M0,-3.0v7 M-2.5,-0.5L0,-3.0L2.5,-0.5"/>
                </g>
                <g id="arrowDown" xlink:href="#dirArrow" transform="rotate(180) translate(-30 -48)" onmousedown="handlePan(0,1)">
                  <use xlink:href="#rim" fill="#404040">
                        <set attributeName="fill" to="#808080" begin="arrowDown.mouseover" end="arrowDown.mouseout"/>
                  </use>
                  <path fill="none" stroke="white" stroke-width="1.5" d="M0,-3.0v7 M-2.5,-0.5L0,-3.0L2.5,-0.5"/>
                </g>
                <g id="arrowLeft" xlink:href="#dirArrow" transform="rotate(270) translate(-36 17)" onmousedown="handlePan(-1,0)">
                  <use xlink:href="#rim" fill="#404040">
                        <set attributeName="fill" to="#808080" begin="arrowLeft.mouseover" end="arrowLeft.mouseout"/>
                  </use>
                  <path fill="none" stroke="white" stroke-width="1.5" d="M0,-3.0v7 M-2.5,-0.5L0,-3.0L2.5,-0.5"/>
                </g>
        </g>
        <svg viewBox="0 0 15 15" width="100%" height="30px" preserveAspectRatio="xMaxYMin meet">
         <g id="arrow_out" transform="scale(0.3 0.3)">
          <a xlink:href="classAP__ADSB_afcd0982d6c1f245d47e5ffeee6ecb6fb_cgraph_org.svg" target="_base">
           <rect id="button" ry="5" rx="5" y="6" x="6" height="38" width="38"
                fill="#f2f5e9" fill-opacity="0.5" stroke="#606060" stroke-width="1.0"/>
           <path id="arrow"
             d="M 11.500037,31.436501 C 11.940474,20.09759 22.043105,11.32322 32.158766,21.979434 L 37.068811,17.246167 C 37.068811,17.246167 37.088388,32 37.088388,32 L 22.160133,31.978069 C 22.160133,31.978069 26.997745,27.140456 26.997745,27.140456 C 18.528582,18.264221 13.291696,25.230495 11.500037,31.436501 z"
             style="fill:#404040;"/>
          </a>
         </g>
        </svg>
</svg>
