<?xml version="1.0" encoding="UTF-8" standalone="no"?>
<!DOCTYPE svg PUBLIC "-//W3C//DTD SVG 1.1//EN"
 "http://www.w3.org/Graphics/SVG/1.1/DTD/svg11.dtd">
<!-- Generated by graphviz version 2.30.1 (20130221.2233)
 -->
<!-- Title: AP_Airspeed::get_differential_pressure Pages: 1 -->
<!--zoomable 130 -->
<svg id="main" version="1.1" xmlns="http://www.w3.org/2000/svg" xmlns:xlink="http://www.w3.org/1999/xlink" xml:space="preserve" onload="init(evt)">
<style type="text/css"><![CDATA[
.edge:hover path { stroke: red; }
.edge:hover polygon { stroke: red; fill: red; }
]]></style>
<script type="text/javascript"><![CDATA[
var edges = document.getElementsByTagName('g');
if (edges && edges.length) {
  for (var i=0;i<edges.length;i++) {
    if (edges[i].id.substr(0,4)=='edge') {
      edges[i].setAttribute('class','edge');
    }
  }
}
]]></script>
        <defs>
                <circle id="rim" cx="0" cy="0" r="7"/>
                <circle id="rim2" cx="0" cy="0" r="3.5"/>
                <g id="zoomPlus">
                        <use xlink:href="#rim" fill="#404040">
                                <set attributeName="fill" to="#808080" begin="zoomplus.mouseover" end="zoomplus.mouseout"/>
                        </use>
                        <path d="M-4,0h8M0,-4v8" fill="none" stroke="white" stroke-width="1.5" pointer-events="none"/>
                </g>
                <g id="zoomMin">
                        <use xlink:href="#rim" fill="#404040">
                                <set attributeName="fill" to="#808080" begin="zoomminus.mouseover" end="zoomminus.mouseout"/>
                        </use>
                        <path d="M-4,0h8" fill="none" stroke="white" stroke-width="1.5" pointer-events="none"/>
                </g>
                <g id="dirArrow">
                        <path fill="none" stroke="white" stroke-width="1.5" d="M0,-3.0v7 M-2.5,-0.5L0,-3.0L2.5,-0.5"/>
                </g>
               <g id="resetDef">
                       <use xlink:href="#rim2" fill="#404040">
                               <set attributeName="fill" to="#808080" begin="reset.mouseover" end="reset.mouseout"/>
                       </use>
               </g>
        </defs>

<script type="text/javascript">
var viewWidth = 870;
var viewHeight = 130;
var sectionId = 'dynsection-21';
</script>
<script xlink:href="svgpan.js"/>
<svg id="graph" class="graph">
<g id="viewport">
<title>AP_Airspeed::get_differential_pressure</title>
<polygon fill="white" stroke="white" points="-4,5 -4,-126 867,-126 867,5 -4,5"/>
<!-- Node451 -->
<g id="node1" class="node"><title>Node451</title>
<g id="a_node1"><a xlink:title=" ">
<polygon fill="#bfbfbf" stroke="black" points="716.325,-51 716.325,-83 861.675,-83 861.675,-51 716.325,-51"/>
<text text-anchor="start" x="724.325" y="-69" font-family="Helvetica,sans-Serif" font-size="10.00">AP_Airspeed::get_differential</text>
<text text-anchor="middle" x="789" y="-57" font-family="Helvetica,sans-Serif" font-size="10.00">_pressure</text>
</a>
</g>
</g>
<!-- Node451&#45;&gt;Node451 -->
<g id="edge1" class="edge"><title>Node451&#45;&gt;Node451</title>
<path fill="none" stroke="midnightblue" d="M821.03,-93.1902C816.789,-97.7938 806.112,-101 789,-101 760.918,-101 750.168,-92.3658 756.75,-83.0908"/>
<polygon fill="midnightblue" stroke="midnightblue" points="824.531,-93.165 821.25,-83.0908 817.532,-93.0118 824.531,-93.165"/>
</g>
<!-- Node452 -->
<g id="node2" class="node"><title>Node452</title>
<g id="a_node2"><a xlink:href="classAP__Airspeed.html#ac4301d128dccde68d647bc3c191d6461" target="_top" xlink:title=" ">
<polygon fill="white" stroke="black" points="356.18,-102 356.18,-122 497.82,-122 497.82,-102 356.18,-102"/>
<text text-anchor="middle" x="427" y="-108" font-family="Helvetica,sans-Serif" font-size="10.00">AP_Airspeed::Log_Airspeed</text>
</a>
</g>
</g>
<!-- Node451&#45;&gt;Node452 -->
<g id="edge2" class="edge"><title>Node451&#45;&gt;Node452</title>
<path fill="none" stroke="midnightblue" d="M715.86,-85.2557C703.939,-87.8235 691.665,-90.1972 680,-92 618.845,-101.452 548.609,-106.559 497.848,-109.24"/>
<polygon fill="midnightblue" stroke="midnightblue" points="716.764,-88.6405 725.771,-83.0615 715.251,-81.806 716.764,-88.6405"/>
</g>
<!-- Node455 -->
<g id="node5" class="node"><title>Node455</title>
<g id="a_node5"><a xlink:href="classAP__Airspeed.html#a7398c15d4d5cb2762b7abb71659f7e37" target="_top" xlink:title=" ">
<polygon fill="white" stroke="black" points="534.234,-51 534.234,-83 679.766,-83 679.766,-51 534.234,-51"/>
<text text-anchor="start" x="542.234" y="-69" font-family="Helvetica,sans-Serif" font-size="10.00">AP_Airspeed::send_airspeed</text>
<text text-anchor="middle" x="607" y="-57" font-family="Helvetica,sans-Serif" font-size="10.00">_calibration</text>
</a>
</g>
</g>
<!-- Node451&#45;&gt;Node455 -->
<g id="edge5" class="edge"><title>Node451&#45;&gt;Node455</title>
<path fill="none" stroke="midnightblue" d="M705.918,-67C697.202,-67 688.387,-67 679.803,-67"/>
<polygon fill="midnightblue" stroke="midnightblue" points="706.083,-70.5001 716.083,-67 706.083,-63.5001 706.083,-70.5001"/>
</g>
<!-- Node458 -->
<g id="node8" class="node"><title>Node458</title>
<g id="a_node8"><a xlink:href="classAP__Airspeed.html#aff2f7adfe0276998bb1fad214d192cda" target="_top" xlink:title=" ">
<polygon fill="white" stroke="black" points="551.744,-0 551.744,-32 662.256,-32 662.256,-0 551.744,-0"/>
<text text-anchor="start" x="559.744" y="-18" font-family="Helvetica,sans-Serif" font-size="10.00">AP_Airspeed::update</text>
<text text-anchor="middle" x="607" y="-6" font-family="Helvetica,sans-Serif" font-size="10.00">_calibration</text>
</a>
</g>
</g>
<!-- Node451&#45;&gt;Node458 -->
<g id="edge9" class="edge"><title>Node451&#45;&gt;Node458</title>
<path fill="none" stroke="midnightblue" d="M721.363,-48.1195C701.956,-42.6209 680.992,-36.6812 662.433,-31.4228"/>
<polygon fill="midnightblue" stroke="midnightblue" points="720.471,-51.5046 731.047,-50.8633 722.38,-44.7697 720.471,-51.5046"/>
</g>
<!-- Node453 -->
<g id="node3" class="node"><title>Node453</title>
<g id="a_node3"><a xlink:href="classAP__Airspeed.html#acbfd9b9539ea2e60f1e6f69509cae1e4" target="_top" xlink:title=" ">
<polygon fill="white" stroke="black" points="72.7441,-80 72.7441,-100 183.256,-100 183.256,-80 72.7441,-80"/>
<text text-anchor="middle" x="128" y="-86" font-family="Helvetica,sans-Serif" font-size="10.00">AP_Airspeed::update</text>
</a>
</g>
</g>
<!-- Node452&#45;&gt;Node453 -->
<g id="edge3" class="edge"><title>Node452&#45;&gt;Node453</title>
<path fill="none" stroke="midnightblue" d="M345.913,-106.068C294.54,-102.262 229.188,-97.4213 183.708,-94.0524"/>
<polygon fill="midnightblue" stroke="midnightblue" points="345.76,-109.566 355.991,-106.814 346.277,-102.585 345.76,-109.566"/>
</g>
<!-- Node454 -->
<g id="node4" class="node"><title>Node454</title>
<g id="a_node4"><a xlink:href="Airspeed_8cpp.html#afe461d27b9c48d5921c00d521181f12f" target="_top" xlink:title=" ">
<polygon fill="white" stroke="black" points="0.546875,-80 0.546875,-100 35.4531,-100 35.4531,-80 0.546875,-80"/>
<text text-anchor="middle" x="18" y="-86" font-family="Helvetica,sans-Serif" font-size="10.00">loop</text>
</a>
</g>
</g>
<!-- Node453&#45;&gt;Node454 -->
<g id="edge4" class="edge"><title>Node453&#45;&gt;Node454</title>
<path fill="none" stroke="midnightblue" d="M62.6553,-90C52.7362,-90 43.3009,-90 35.7565,-90"/>
<polygon fill="midnightblue" stroke="midnightblue" points="62.6836,-93.5001 72.6836,-90 62.6836,-86.5001 62.6836,-93.5001"/>
</g>
<!-- Node456 -->
<g id="node6" class="node"><title>Node456</title>
<g id="a_node6"><a xlink:href="classAP__Airspeed.html#ac6be10dda7f4ce96b0e9fd6d30ea9c85" target="_top" xlink:title=" ">
<polygon fill="white" stroke="black" points="371.744,-51 371.744,-83 482.256,-83 482.256,-51 371.744,-51"/>
<text text-anchor="start" x="379.744" y="-69" font-family="Helvetica,sans-Serif" font-size="10.00">AP_Airspeed::update</text>
<text text-anchor="middle" x="427" y="-57" font-family="Helvetica,sans-Serif" font-size="10.00">_calibration</text>
</a>
</g>
</g>
<!-- Node455&#45;&gt;Node456 -->
<g id="edge6" class="edge"><title>Node455&#45;&gt;Node456</title>
<path fill="none" stroke="midnightblue" d="M523.912,-67C509.817,-67 495.49,-67 482.355,-67"/>
<polygon fill="midnightblue" stroke="midnightblue" points="524.114,-70.5001 534.114,-67 524.114,-63.5001 524.114,-70.5001"/>
</g>
<!-- Node457 -->
<g id="node7" class="node"><title>Node457</title>
<g id="a_node7"><a xlink:href="classAP__Airspeed.html#acccc2efc4ab9b5dbcf4932fb422cbae7" target="_top" xlink:title=" ">
<polygon fill="white" stroke="black" points="220.03,-60 220.03,-80 319.97,-80 319.97,-60 220.03,-60"/>
<text text-anchor="middle" x="270" y="-66" font-family="Helvetica,sans-Serif" font-size="10.00">AP_Airspeed::read</text>
</a>
</g>
</g>
<!-- Node456&#45;&gt;Node457 -->
<g id="edge7" class="edge"><title>Node456&#45;&gt;Node457</title>
<path fill="none" stroke="midnightblue" d="M360.991,-68.2582C347.267,-68.5239 333.005,-68.7999 319.99,-69.0518"/>
<polygon fill="midnightblue" stroke="midnightblue" points="361.422,-71.7506 371.353,-68.0577 361.287,-64.7519 361.422,-71.7506"/>
</g>
<!-- Node457&#45;&gt;Node453 -->
<g id="edge8" class="edge"><title>Node457&#45;&gt;Node453</title>
<path fill="none" stroke="midnightblue" d="M209.644,-78.4794C201.014,-79.7123 192.163,-80.9767 183.632,-82.1954"/>
<polygon fill="midnightblue" stroke="midnightblue" points="210.237,-81.9304 219.641,-77.0513 209.247,-75.0007 210.237,-81.9304"/>
</g>
</g>
</svg>
        <g id="navigator" transform="translate(0 0)" fill="#404254">
                <rect fill="#f2f5e9" fill-opacity="0.5" stroke="#606060" stroke-width=".5" x="0" y="0" width="60" height="60"/>
                <use id="zoomplus" xlink:href="#zoomPlus" x="17" y="9" onmousedown="handleZoom(evt,'in')"/>
                <use id="zoomminus" xlink:href="#zoomMin" x="42" y="9" onmousedown="handleZoom(evt,'out')"/>
                <use id="reset" xlink:href="#resetDef" x="30" y="36" onmousedown="handleReset()"/>
                <g id="arrowUp" xlink:href="#dirArrow" transform="translate(30 24)" onmousedown="handlePan(0,-1)">
                  <use xlink:href="#rim" fill="#404040">
                        <set attributeName="fill" to="#808080" begin="arrowUp.mouseover" end="arrowUp.mouseout"/>
                  </use>
                  <path fill="none" stroke="white" stroke-width="1.5" d="M0,-3.0v7 M-2.5,-0.5L0,-3.0L2.5,-0.5"/>
                </g>
                <g id="arrowRight" xlink:href="#dirArrow" transform="rotate(90) translate(36 -43)" onmousedown="handlePan(1,0)">
                  <use xlink:href="#rim" fill="#404040">
                        <set attributeName="fill" to="#808080" begin="arrowRight.mouseover" end="arrowRight.mouseout"/>
                  </use>
                  <path fill="none" stroke="white" stroke-width="1.5" d="M0,-3.0v7 M-2.5,-0.5L0,-3.0L2.5,-0.5"/>
                </g>
                <g id="arrowDown" xlink:href="#dirArrow" transform="rotate(180) translate(-30 -48)" onmousedown="handlePan(0,1)">
                  <use xlink:href="#rim" fill="#404040">
                        <set attributeName="fill" to="#808080" begin="arrowDown.mouseover" end="arrowDown.mouseout"/>
                  </use>
                  <path fill="none" stroke="white" stroke-width="1.5" d="M0,-3.0v7 M-2.5,-0.5L0,-3.0L2.5,-0.5"/>
                </g>
                <g id="arrowLeft" xlink:href="#dirArrow" transform="rotate(270) translate(-36 17)" onmousedown="handlePan(-1,0)">
                  <use xlink:href="#rim" fill="#404040">
                        <set attributeName="fill" to="#808080" begin="arrowLeft.mouseover" end="arrowLeft.mouseout"/>
                  </use>
                  <path fill="none" stroke="white" stroke-width="1.5" d="M0,-3.0v7 M-2.5,-0.5L0,-3.0L2.5,-0.5"/>
                </g>
        </g>
        <svg viewBox="0 0 15 15" width="100%" height="30px" preserveAspectRatio="xMaxYMin meet">
         <g id="arrow_out" transform="scale(0.3 0.3)">
          <a xlink:href="classAP__Airspeed_a0786aed3054f8798262803767d7d4ced_icgraph_org.svg" target="_base">
           <rect id="button" ry="5" rx="5" y="6" x="6" height="38" width="38"
                fill="#f2f5e9" fill-opacity="0.5" stroke="#606060" stroke-width="1.0"/>
           <path id="arrow"
             d="M 11.500037,31.436501 C 11.940474,20.09759 22.043105,11.32322 32.158766,21.979434 L 37.068811,17.246167 C 37.068811,17.246167 37.088388,32 37.088388,32 L 22.160133,31.978069 C 22.160133,31.978069 26.997745,27.140456 26.997745,27.140456 C 18.528582,18.264221 13.291696,25.230495 11.500037,31.436501 z"
             style="fill:#404040;"/>
          </a>
         </g>
        </svg>
</svg>
