<?xml version="1.0" encoding="UTF-8" standalone="no"?>
<!DOCTYPE svg PUBLIC "-//W3C//DTD SVG 1.1//EN"
 "http://www.w3.org/Graphics/SVG/1.1/DTD/svg11.dtd">
<!-- Generated by graphviz version 2.30.1 (20130221.2233)
 -->
<!-- Title: AP_InertialSensor_Invensensev2::_register_read Pages: 1 -->
<!--zoomable 91 -->
<svg id="main" version="1.1" xmlns="http://www.w3.org/2000/svg" xmlns:xlink="http://www.w3.org/1999/xlink" xml:space="preserve" onload="init(evt)">
<style type="text/css"><![CDATA[
.edge:hover path { stroke: red; }
.edge:hover polygon { stroke: red; fill: red; }
]]></style>
<script type="text/javascript"><![CDATA[
var edges = document.getElementsByTagName('g');
if (edges && edges.length) {
  for (var i=0;i<edges.length;i++) {
    if (edges[i].id.substr(0,4)=='edge') {
      edges[i].setAttribute('class','edge');
    }
  }
}
]]></script>
        <defs>
                <circle id="rim" cx="0" cy="0" r="7"/>
                <circle id="rim2" cx="0" cy="0" r="3.5"/>
                <g id="zoomPlus">
                        <use xlink:href="#rim" fill="#404040">
                                <set attributeName="fill" to="#808080" begin="zoomplus.mouseover" end="zoomplus.mouseout"/>
                        </use>
                        <path d="M-4,0h8M0,-4v8" fill="none" stroke="white" stroke-width="1.5" pointer-events="none"/>
                </g>
                <g id="zoomMin">
                        <use xlink:href="#rim" fill="#404040">
                                <set attributeName="fill" to="#808080" begin="zoomminus.mouseover" end="zoomminus.mouseout"/>
                        </use>
                        <path d="M-4,0h8" fill="none" stroke="white" stroke-width="1.5" pointer-events="none"/>
                </g>
                <g id="dirArrow">
                        <path fill="none" stroke="white" stroke-width="1.5" d="M0,-3.0v7 M-2.5,-0.5L0,-3.0L2.5,-0.5"/>
                </g>
               <g id="resetDef">
                       <use xlink:href="#rim2" fill="#404040">
                               <set attributeName="fill" to="#808080" begin="reset.mouseover" end="reset.mouseout"/>
                       </use>
               </g>
        </defs>

<script type="text/javascript">
var viewWidth = 766;
var viewHeight = 91;
var sectionId = 'dynsection-28';
</script>
<script xlink:href="svgpan.js"/>
<svg id="graph" class="graph">
<g id="viewport">
<title>AP_InertialSensor_Invensensev2::_register_read</title>
<polygon fill="white" stroke="white" points="-4,5 -4,-87 763,-87 763,5 -4,5"/>
<!-- Node490 -->
<g id="node1" class="node"><title>Node490</title>
<g id="a_node1"><a xlink:title=" ">
<polygon fill="#bfbfbf" stroke="black" points="0.0644531,-26 0.0644531,-58 163.936,-58 163.936,-26 0.0644531,-26"/>
<text text-anchor="start" x="8.06445" y="-44" font-family="Helvetica,sans-Serif" font-size="10.00">AP_InertialSensor_Invensensev2</text>
<text text-anchor="middle" x="82" y="-32" font-family="Helvetica,sans-Serif" font-size="10.00">::_register_read</text>
</a>
</g>
</g>
<!-- Node491 -->
<g id="node2" class="node"><title>Node491</title>
<g id="a_node2"><a xlink:href="classAP__InertialSensor__Invensensev2.html#a1ef1d66f1c662f548bcb7c4fb6f40638" target="_top" xlink:title=" ">
<polygon fill="white" stroke="black" points="200.064,-49 200.064,-81 363.936,-81 363.936,-49 200.064,-49"/>
<text text-anchor="start" x="208.064" y="-67" font-family="Helvetica,sans-Serif" font-size="10.00">AP_InertialSensor_Invensensev2</text>
<text text-anchor="middle" x="282" y="-55" font-family="Helvetica,sans-Serif" font-size="10.00">::_select_bank</text>
</a>
</g>
</g>
<!-- Node490&#45;&gt;Node491 -->
<g id="edge1" class="edge"><title>Node490&#45;&gt;Node491</title>
<path fill="none" stroke="midnightblue" d="M164.105,-51.4213C172.626,-52.4111 181.329,-53.4221 189.952,-54.4237"/>
<polygon fill="midnightblue" stroke="midnightblue" points="189.684,-57.916 200.021,-55.5933 190.491,-50.9627 189.684,-57.916"/>
</g>
<!-- Node496 -->
<g id="node7" class="node"><title>Node496</title>
<g id="a_node7"><a xlink:href="classAP__HAL_1_1Device.html#a66215f964cfb5c7421effdb88a749550" target="_top" xlink:title=" ">
<polygon fill="white" stroke="black" points="400.976,-0 400.976,-32 517.024,-32 517.024,-0 400.976,-0"/>
<text text-anchor="start" x="408.976" y="-18" font-family="Helvetica,sans-Serif" font-size="10.00">AP_HAL::Device::read</text>
<text text-anchor="middle" x="459" y="-6" font-family="Helvetica,sans-Serif" font-size="10.00">_registers</text>
</a>
</g>
</g>
<!-- Node490&#45;&gt;Node496 -->
<g id="edge6" class="edge"><title>Node490&#45;&gt;Node496</title>
<path fill="none" stroke="midnightblue" d="M164.369,-36.3584C232.013,-31.6685 327.134,-25.0734 390.583,-20.6742"/>
<polygon fill="midnightblue" stroke="midnightblue" points="391.141,-24.144 400.875,-19.9607 390.657,-17.1608 391.141,-24.144"/>
</g>
<!-- Node492 -->
<g id="node3" class="node"><title>Node492</title>
<g id="a_node3"><a xlink:href="classAP__HAL_1_1Device.html#a450d2427d58c09d75c8268f8b808c37b" target="_top" xlink:title=" ">
<polygon fill="white" stroke="black" points="400.426,-51 400.426,-83 517.574,-83 517.574,-51 400.426,-51"/>
<text text-anchor="start" x="408.426" y="-69" font-family="Helvetica,sans-Serif" font-size="10.00">AP_HAL::Device::write</text>
<text text-anchor="middle" x="459" y="-57" font-family="Helvetica,sans-Serif" font-size="10.00">_register</text>
</a>
</g>
</g>
<!-- Node491&#45;&gt;Node492 -->
<g id="edge2" class="edge"><title>Node491&#45;&gt;Node492</title>
<path fill="none" stroke="midnightblue" d="M364.096,-65.9268C372.805,-66.0263 381.598,-66.1268 390.129,-66.2243"/>
<polygon fill="midnightblue" stroke="midnightblue" points="390.341,-69.7269 400.381,-66.3415 390.421,-62.7273 390.341,-69.7269"/>
</g>
<!-- Node493 -->
<g id="node4" class="node"><title>Node493</title>
<g id="a_node4"><a xlink:href="classAP__HAL_1_1Device.html#a44b62acec2c1c5d8bf8b9c07f5fe7192" target="_top" xlink:title=" ">
<polygon fill="white" stroke="black" points="564.313,-51 564.313,-83 673.687,-83 673.687,-51 564.313,-51"/>
<text text-anchor="start" x="572.313" y="-69" font-family="Helvetica,sans-Serif" font-size="10.00">AP_HAL::Device::set</text>
<text text-anchor="middle" x="619" y="-57" font-family="Helvetica,sans-Serif" font-size="10.00">_checked_register</text>
</a>
</g>
</g>
<!-- Node492&#45;&gt;Node493 -->
<g id="edge3" class="edge"><title>Node492&#45;&gt;Node493</title>
<path fill="none" stroke="midnightblue" d="M517.936,-67C529.653,-67 542.036,-67 553.948,-67"/>
<polygon fill="midnightblue" stroke="midnightblue" points="554.267,-70.5001 564.267,-67 554.267,-63.5001 554.267,-70.5001"/>
</g>
<!-- Node495 -->
<g id="node6" class="node"><title>Node495</title>
<g id="a_node6"><a xlink:href="classAP__HAL_1_1Device.html#a2af24b5f93b678af718b65a606e538b0" target="_top" xlink:title=" ">
<polygon fill="white" stroke="black" points="554.032,-9 554.032,-29 683.968,-29 683.968,-9 554.032,-9"/>
<text text-anchor="middle" x="619" y="-15" font-family="Helvetica,sans-Serif" font-size="10.00">AP_HAL::Device::transfer</text>
</a>
</g>
</g>
<!-- Node492&#45;&gt;Node495 -->
<g id="edge5" class="edge"><title>Node492&#45;&gt;Node495</title>
<path fill="none" stroke="midnightblue" d="M513.051,-50.8832C533.206,-44.7603 555.895,-37.8674 575.007,-32.0611"/>
<polygon fill="midnightblue" stroke="midnightblue" points="576.092,-35.3895 584.643,-29.1337 574.058,-28.6917 576.092,-35.3895"/>
</g>
<!-- Node494 -->
<g id="node5" class="node"><title>Node494</title>
<g id="a_node5"><a xlink:href="stdio_8h.html#a55f3d956bb2ba20b5059e9e25484a47f" target="_top" xlink:title=" ">
<polygon fill="white" stroke="black" points="719.884,-57 719.884,-77 758.116,-77 758.116,-57 719.884,-57"/>
<text text-anchor="middle" x="739" y="-63" font-family="Helvetica,sans-Serif" font-size="10.00">printf</text>
</a>
</g>
</g>
<!-- Node493&#45;&gt;Node494 -->
<g id="edge4" class="edge"><title>Node493&#45;&gt;Node494</title>
<path fill="none" stroke="midnightblue" d="M673.82,-67C686.22,-67 698.928,-67 709.729,-67"/>
<polygon fill="midnightblue" stroke="midnightblue" points="709.813,-70.5001 719.813,-67 709.813,-63.5001 709.813,-70.5001"/>
</g>
<!-- Node496&#45;&gt;Node495 -->
<g id="edge7" class="edge"><title>Node496&#45;&gt;Node495</title>
<path fill="none" stroke="midnightblue" d="M517.042,-17.0831C525.712,-17.2477 534.765,-17.4196 543.737,-17.5899"/>
<polygon fill="midnightblue" stroke="midnightblue" points="543.742,-21.0906 553.807,-17.7811 543.875,-14.0918 543.742,-21.0906"/>
</g>
</g>
</svg>
        <g id="navigator" transform="translate(0 0)" fill="#404254">
                <rect fill="#f2f5e9" fill-opacity="0.5" stroke="#606060" stroke-width=".5" x="0" y="0" width="60" height="60"/>
                <use id="zoomplus" xlink:href="#zoomPlus" x="17" y="9" onmousedown="handleZoom(evt,'in')"/>
                <use id="zoomminus" xlink:href="#zoomMin" x="42" y="9" onmousedown="handleZoom(evt,'out')"/>
                <use id="reset" xlink:href="#resetDef" x="30" y="36" onmousedown="handleReset()"/>
                <g id="arrowUp" xlink:href="#dirArrow" transform="translate(30 24)" onmousedown="handlePan(0,-1)">
                  <use xlink:href="#rim" fill="#404040">
                        <set attributeName="fill" to="#808080" begin="arrowUp.mouseover" end="arrowUp.mouseout"/>
                  </use>
                  <path fill="none" stroke="white" stroke-width="1.5" d="M0,-3.0v7 M-2.5,-0.5L0,-3.0L2.5,-0.5"/>
                </g>
                <g id="arrowRight" xlink:href="#dirArrow" transform="rotate(90) translate(36 -43)" onmousedown="handlePan(1,0)">
                  <use xlink:href="#rim" fill="#404040">
                        <set attributeName="fill" to="#808080" begin="arrowRight.mouseover" end="arrowRight.mouseout"/>
                  </use>
                  <path fill="none" stroke="white" stroke-width="1.5" d="M0,-3.0v7 M-2.5,-0.5L0,-3.0L2.5,-0.5"/>
                </g>
                <g id="arrowDown" xlink:href="#dirArrow" transform="rotate(180) translate(-30 -48)" onmousedown="handlePan(0,1)">
                  <use xlink:href="#rim" fill="#404040">
                        <set attributeName="fill" to="#808080" begin="arrowDown.mouseover" end="arrowDown.mouseout"/>
                  </use>
                  <path fill="none" stroke="white" stroke-width="1.5" d="M0,-3.0v7 M-2.5,-0.5L0,-3.0L2.5,-0.5"/>
                </g>
                <g id="arrowLeft" xlink:href="#dirArrow" transform="rotate(270) translate(-36 17)" onmousedown="handlePan(-1,0)">
                  <use xlink:href="#rim" fill="#404040">
                        <set attributeName="fill" to="#808080" begin="arrowLeft.mouseover" end="arrowLeft.mouseout"/>
                  </use>
                  <path fill="none" stroke="white" stroke-width="1.5" d="M0,-3.0v7 M-2.5,-0.5L0,-3.0L2.5,-0.5"/>
                </g>
        </g>
        <svg viewBox="0 0 15 15" width="100%" height="30px" preserveAspectRatio="xMaxYMin meet">
         <g id="arrow_out" transform="scale(0.3 0.3)">
          <a xlink:href="classAP__InertialSensor__Invensensev2_a349b0564d9ae9c649c2b2cf5841b56cc_cgraph_org.svg" target="_base">
           <rect id="button" ry="5" rx="5" y="6" x="6" height="38" width="38"
                fill="#f2f5e9" fill-opacity="0.5" stroke="#606060" stroke-width="1.0"/>
           <path id="arrow"
             d="M 11.500037,31.436501 C 11.940474,20.09759 22.043105,11.32322 32.158766,21.979434 L 37.068811,17.246167 C 37.068811,17.246167 37.088388,32 37.088388,32 L 22.160133,31.978069 C 22.160133,31.978069 26.997745,27.140456 26.997745,27.140456 C 18.528582,18.264221 13.291696,25.230495 11.500037,31.436501 z"
             style="fill:#404040;"/>
          </a>
         </g>
        </svg>
</svg>
