<?xml version="1.0" encoding="UTF-8" standalone="no"?>
<!DOCTYPE svg PUBLIC "-//W3C//DTD SVG 1.1//EN"
 "http://www.w3.org/Graphics/SVG/1.1/DTD/svg11.dtd">
<!-- Generated by graphviz version 2.30.1 (20130221.2233)
 -->
<!-- Title: AP_Logger_Block::PrepForArming Pages: 1 -->
<!--zoomable 269 -->
<svg id="main" version="1.1" xmlns="http://www.w3.org/2000/svg" xmlns:xlink="http://www.w3.org/1999/xlink" xml:space="preserve" onload="init(evt)">
<style type="text/css"><![CDATA[
.edge:hover path { stroke: red; }
.edge:hover polygon { stroke: red; fill: red; }
]]></style>
<script type="text/javascript"><![CDATA[
var edges = document.getElementsByTagName('g');
if (edges && edges.length) {
  for (var i=0;i<edges.length;i++) {
    if (edges[i].id.substr(0,4)=='edge') {
      edges[i].setAttribute('class','edge');
    }
  }
}
]]></script>
        <defs>
                <circle id="rim" cx="0" cy="0" r="7"/>
                <circle id="rim2" cx="0" cy="0" r="3.5"/>
                <g id="zoomPlus">
                        <use xlink:href="#rim" fill="#404040">
                                <set attributeName="fill" to="#808080" begin="zoomplus.mouseover" end="zoomplus.mouseout"/>
                        </use>
                        <path d="M-4,0h8M0,-4v8" fill="none" stroke="white" stroke-width="1.5" pointer-events="none"/>
                </g>
                <g id="zoomMin">
                        <use xlink:href="#rim" fill="#404040">
                                <set attributeName="fill" to="#808080" begin="zoomminus.mouseover" end="zoomminus.mouseout"/>
                        </use>
                        <path d="M-4,0h8" fill="none" stroke="white" stroke-width="1.5" pointer-events="none"/>
                </g>
                <g id="dirArrow">
                        <path fill="none" stroke="white" stroke-width="1.5" d="M0,-3.0v7 M-2.5,-0.5L0,-3.0L2.5,-0.5"/>
                </g>
               <g id="resetDef">
                       <use xlink:href="#rim2" fill="#404040">
                               <set attributeName="fill" to="#808080" begin="reset.mouseover" end="reset.mouseout"/>
                       </use>
               </g>
        </defs>

<script type="text/javascript">
var viewWidth = 1034;
var viewHeight = 269;
var sectionId = 'dynsection-39';
</script>
<script xlink:href="svgpan.js"/>
<svg id="graph" class="graph">
<g id="viewport">
<title>AP_Logger_Block::PrepForArming</title>
<polygon fill="white" stroke="white" points="-4,5 -4,-264.862 1031,-264.862 1031,5 -4,5"/>
<!-- Node365 -->
<g id="node1" class="node"><title>Node365</title>
<g id="a_node1"><a xlink:title=" ">
<polygon fill="#bfbfbf" stroke="black" points="0.133301,-129 0.133301,-161 137.867,-161 137.867,-129 0.133301,-129"/>
<text text-anchor="start" x="8.1333" y="-147" font-family="Helvetica,sans-Serif" font-size="10.00">AP_Logger_Block::PrepFor</text>
<text text-anchor="middle" x="69" y="-135" font-family="Helvetica,sans-Serif" font-size="10.00">Arming</text>
</a>
</g>
</g>
<!-- Node366 -->
<g id="node2" class="node"><title>Node366</title>
<g id="a_node2"><a xlink:href="classAP__Logger__Block.html#a6583db1f983fe62b5f6546430d4a382f" target="_top" xlink:title=" ">
<polygon fill="white" stroke="black" points="174.069,-155 174.069,-187 307.931,-187 307.931,-155 174.069,-155"/>
<text text-anchor="start" x="182.069" y="-173" font-family="Helvetica,sans-Serif" font-size="10.00">AP_Logger_Block::logging</text>
<text text-anchor="middle" x="241" y="-161" font-family="Helvetica,sans-Serif" font-size="10.00">_started</text>
</a>
</g>
</g>
<!-- Node365&#45;&gt;Node366 -->
<g id="edge1" class="edge"><title>Node365&#45;&gt;Node366</title>
<path fill="none" stroke="midnightblue" d="M138.166,-155.425C146.664,-156.725 155.397,-158.061 164.004,-159.377"/>
<polygon fill="midnightblue" stroke="midnightblue" points="163.616,-162.858 174.03,-160.911 164.674,-155.939 163.616,-162.858"/>
</g>
<!-- Node367 -->
<g id="node3" class="node"><title>Node367</title>
<g id="a_node3"><a xlink:href="classAP__Logger__Block.html#a01a17579dad6ad65768fc92ea52f56cf" target="_top" xlink:title=" ">
<polygon fill="white" stroke="black" points="180.471,-104 180.471,-136 301.529,-136 301.529,-104 180.471,-104"/>
<text text-anchor="start" x="188.471" y="-122" font-family="Helvetica,sans-Serif" font-size="10.00">AP_Logger_Block::start</text>
<text text-anchor="middle" x="241" y="-110" font-family="Helvetica,sans-Serif" font-size="10.00">_new_log</text>
</a>
</g>
</g>
<!-- Node365&#45;&gt;Node367 -->
<g id="edge2" class="edge"><title>Node365&#45;&gt;Node367</title>
<path fill="none" stroke="midnightblue" d="M138.166,-134.976C148.736,-133.421 159.668,-131.813 170.273,-130.254"/>
<polygon fill="midnightblue" stroke="midnightblue" points="170.932,-133.695 180.316,-128.777 169.914,-126.769 170.932,-133.695"/>
</g>
<!-- Node368 -->
<g id="node4" class="node"><title>Node368</title>
<g id="a_node4"><a xlink:href="classAP__Logger__Block.html#ac22ef210d1cf299a14dcc6f64a12dea1" target="_top" xlink:title=" ">
<polygon fill="white" stroke="black" points="526.133,-129 526.133,-161 643.867,-161 643.867,-129 526.133,-129"/>
<text text-anchor="start" x="534.133" y="-147" font-family="Helvetica,sans-Serif" font-size="10.00">AP_Logger_Block::find</text>
<text text-anchor="middle" x="585" y="-135" font-family="Helvetica,sans-Serif" font-size="10.00">_last_page</text>
</a>
</g>
</g>
<!-- Node367&#45;&gt;Node368 -->
<g id="edge3" class="edge"><title>Node367&#45;&gt;Node368</title>
<path fill="none" stroke="midnightblue" d="M301.572,-124.355C361.305,-128.721 453.169,-135.436 515.79,-140.014"/>
<polygon fill="midnightblue" stroke="midnightblue" points="515.738,-143.519 525.966,-140.758 516.248,-136.538 515.738,-143.519"/>
</g>
<!-- Node369 -->
<g id="node5" class="node"><title>Node369</title>
<g id="a_node5"><a xlink:href="classAP__Logger__Block.html#a5681c01f59f022256a30dc96c9d013fc" target="_top" xlink:title=" ">
<polygon fill="white" stroke="black" points="680.683,-218 680.683,-238 827.317,-238 827.317,-218 680.683,-218"/>
<text text-anchor="middle" x="754" y="-224" font-family="Helvetica,sans-Serif" font-size="10.00">AP_Logger_Block::StartRead</text>
</a>
</g>
</g>
<!-- Node367&#45;&gt;Node369 -->
<g id="edge8" class="edge"><title>Node367&#45;&gt;Node369</title>
<path fill="none" stroke="midnightblue" d="M293.491,-136.005C298.711,-138.846 303.673,-142.155 308,-146 333.269,-168.455 315.523,-194.785 344,-213 456.939,-285.24 625.574,-259.142 706.455,-240.42"/>
<polygon fill="midnightblue" stroke="midnightblue" points="707.423,-243.788 716.34,-238.067 705.802,-236.978 707.423,-243.788"/>
</g>
<!-- Node373 -->
<g id="node9" class="node"><title>Node373</title>
<g id="a_node9"><a xlink:href="classAP__Logger__Block.html#a1663b6b102f3c1147febee6cf56d00f6" target="_top" xlink:title=" ">
<polygon fill="white" stroke="black" points="358.133,-172 358.133,-204 475.867,-204 475.867,-172 358.133,-172"/>
<text text-anchor="start" x="366.133" y="-190" font-family="Helvetica,sans-Serif" font-size="10.00">AP_Logger_Block::find</text>
<text text-anchor="middle" x="417" y="-178" font-family="Helvetica,sans-Serif" font-size="10.00">_last_log</text>
</a>
</g>
</g>
<!-- Node367&#45;&gt;Node373 -->
<g id="edge9" class="edge"><title>Node367&#45;&gt;Node373</title>
<path fill="none" stroke="midnightblue" d="M283.236,-136.115C307.849,-145.734 339.295,-158.023 365.404,-168.227"/>
<polygon fill="midnightblue" stroke="midnightblue" points="364.171,-171.503 374.759,-171.883 366.719,-164.983 364.171,-171.503"/>
</g>
<!-- Node372 -->
<g id="node8" class="node"><title>Node372</title>
<g id="a_node8"><a xlink:href="classAP__Logger__Block.html#a59f502ccbe6f844802ece4cba4682cc3" target="_top" xlink:title=" ">
<polygon fill="white" stroke="black" points="687.079,-129 687.079,-161 820.921,-161 820.921,-129 687.079,-129"/>
<text text-anchor="start" x="695.079" y="-147" font-family="Helvetica,sans-Serif" font-size="10.00">AP_Logger_Block::GetFile</text>
<text text-anchor="middle" x="754" y="-135" font-family="Helvetica,sans-Serif" font-size="10.00">Number</text>
</a>
</g>
</g>
<!-- Node367&#45;&gt;Node372 -->
<g id="edge13" class="edge"><title>Node367&#45;&gt;Node372</title>
<path fill="none" stroke="midnightblue" d="M301.832,-115.815C380.575,-111.263 523.16,-106.32 644,-120 657.144,-121.488 671.012,-123.955 684.288,-126.774"/>
<polygon fill="midnightblue" stroke="midnightblue" points="683.784,-130.247 694.304,-128.988 685.295,-123.412 683.784,-130.247"/>
</g>
<!-- Node374 -->
<g id="node10" class="node"><title>Node374</title>
<g id="a_node10"><a xlink:href="classAP__Logger__Block.html#a711abea9dc2cd5239b5419d852f68f42" target="_top" xlink:title=" ">
<polygon fill="white" stroke="black" points="350.633,-39 350.633,-71 483.367,-71 483.367,-39 350.633,-39"/>
<text text-anchor="start" x="358.633" y="-57" font-family="Helvetica,sans-Serif" font-size="10.00">AP_Logger_Block::SetFile</text>
<text text-anchor="middle" x="417" y="-45" font-family="Helvetica,sans-Serif" font-size="10.00">Number</text>
</a>
</g>
</g>
<!-- Node367&#45;&gt;Node374 -->
<g id="edge14" class="edge"><title>Node367&#45;&gt;Node374</title>
<path fill="none" stroke="midnightblue" d="M285.011,-103.933C308.748,-95.0653 338.414,-83.9832 363.509,-74.6089"/>
<polygon fill="midnightblue" stroke="midnightblue" points="364.738,-77.8861 372.881,-71.1079 362.288,-71.3287 364.738,-77.8861"/>
</g>
<!-- Node375 -->
<g id="node11" class="node"><title>Node375</title>
<g id="a_node11"><a xlink:href="classAP__Logger__Block.html#a4d55604bd1d0b39ba714e867f7dc7aa2" target="_top" xlink:title=" ">
<polygon fill="white" stroke="black" points="344.059,-0 344.059,-20 489.941,-20 489.941,-0 344.059,-0"/>
<text text-anchor="middle" x="417" y="-6" font-family="Helvetica,sans-Serif" font-size="10.00">AP_Logger_Block::StartWrite</text>
</a>
</g>
</g>
<!-- Node367&#45;&gt;Node375 -->
<g id="edge15" class="edge"><title>Node367&#45;&gt;Node375</title>
<path fill="none" stroke="midnightblue" d="M255.496,-103.989C273.578,-83.5647 307.629,-48.5512 344,-29 347.779,-26.9686 351.788,-25.1445 355.905,-23.5082"/>
<polygon fill="midnightblue" stroke="midnightblue" points="357.41,-26.6869 365.646,-20.0217 355.051,-20.0964 357.41,-26.6869"/>
</g>
<!-- Node368&#45;&gt;Node369 -->
<g id="edge4" class="edge"><title>Node368&#45;&gt;Node369</title>
<path fill="none" stroke="midnightblue" d="M618.199,-161.003C648.646,-176.136 693.951,-198.652 723.485,-213.331"/>
<polygon fill="midnightblue" stroke="midnightblue" points="721.968,-216.485 732.481,-217.802 725.083,-210.217 721.968,-216.485"/>
</g>
<!-- Node368&#45;&gt;Node372 -->
<g id="edge7" class="edge"><title>Node368&#45;&gt;Node372</title>
<path fill="none" stroke="midnightblue" d="M643.94,-145C654.542,-145 665.754,-145 676.793,-145"/>
<polygon fill="midnightblue" stroke="midnightblue" points="676.861,-148.5 686.861,-145 676.861,-141.5 676.861,-148.5"/>
</g>
<!-- Node370 -->
<g id="node6" class="node"><title>Node370</title>
<g id="a_node6"><a xlink:href="classAP__Logger__Block.html#a999f1938fad3669361c93d4bee15ea73" target="_top" xlink:title=" ">
<polygon fill="white" stroke="black" points="863.985,-238 863.985,-258 1026.02,-258 1026.02,-238 863.985,-238"/>
<text text-anchor="middle" x="945" y="-244" font-family="Helvetica,sans-Serif" font-size="10.00">AP_Logger_Block::PageToBuffer</text>
</a>
</g>
</g>
<!-- Node369&#45;&gt;Node370 -->
<g id="edge5" class="edge"><title>Node369&#45;&gt;Node370</title>
<path fill="none" stroke="midnightblue" d="M827.532,-235.675C836.061,-236.578 844.844,-237.507 853.58,-238.432"/>
<polygon fill="midnightblue" stroke="midnightblue" points="853.483,-241.941 863.796,-239.513 854.219,-234.98 853.483,-241.941"/>
</g>
<!-- Node371 -->
<g id="node7" class="node"><title>Node371</title>
<g id="a_node7"><a xlink:href="classAP__Logger__Block.html#ab82c08236dab6da0edc2dddac6e657e3" target="_top" xlink:title=" ">
<polygon fill="white" stroke="black" points="870.015,-199 870.015,-219 1019.98,-219 1019.98,-199 870.015,-199"/>
<text text-anchor="middle" x="945" y="-205" font-family="Helvetica,sans-Serif" font-size="10.00">AP_Logger_Block::BlockRead</text>
</a>
</g>
</g>
<!-- Node369&#45;&gt;Node371 -->
<g id="edge6" class="edge"><title>Node369&#45;&gt;Node371</title>
<path fill="none" stroke="midnightblue" d="M827.532,-220.708C838.024,-219.654 848.898,-218.56 859.598,-217.485"/>
<polygon fill="midnightblue" stroke="midnightblue" points="860.186,-220.944 869.785,-216.461 859.485,-213.979 860.186,-220.944"/>
</g>
<!-- Node373&#45;&gt;Node368 -->
<g id="edge10" class="edge"><title>Node373&#45;&gt;Node368</title>
<path fill="none" stroke="midnightblue" d="M476.059,-172.961C488.948,-169.622 502.722,-166.054 515.969,-162.622"/>
<polygon fill="midnightblue" stroke="midnightblue" points="517.171,-165.927 525.974,-160.031 515.416,-159.15 517.171,-165.927"/>
</g>
<!-- Node373&#45;&gt;Node369 -->
<g id="edge11" class="edge"><title>Node373&#45;&gt;Node369</title>
<path fill="none" stroke="midnightblue" d="M475.95,-197.04C492.131,-199.44 509.735,-201.936 526,-204 573.77,-210.061 627.333,-215.775 670.427,-220.107"/>
<polygon fill="midnightblue" stroke="midnightblue" points="670.283,-223.61 680.581,-221.121 670.979,-216.644 670.283,-223.61"/>
</g>
<!-- Node373&#45;&gt;Node372 -->
<g id="edge12" class="edge"><title>Node373&#45;&gt;Node372</title>
<path fill="none" stroke="midnightblue" d="M476.332,-185.696C522.129,-183.323 587.395,-178.698 644,-170 655.769,-168.192 668.154,-165.815 680.186,-163.246"/>
<polygon fill="midnightblue" stroke="midnightblue" points="681.17,-166.613 690.188,-161.051 679.67,-159.776 681.17,-166.613"/>
</g>
</g>
</svg>
        <g id="navigator" transform="translate(0 0)" fill="#404254">
                <rect fill="#f2f5e9" fill-opacity="0.5" stroke="#606060" stroke-width=".5" x="0" y="0" width="60" height="60"/>
                <use id="zoomplus" xlink:href="#zoomPlus" x="17" y="9" onmousedown="handleZoom(evt,'in')"/>
                <use id="zoomminus" xlink:href="#zoomMin" x="42" y="9" onmousedown="handleZoom(evt,'out')"/>
                <use id="reset" xlink:href="#resetDef" x="30" y="36" onmousedown="handleReset()"/>
                <g id="arrowUp" xlink:href="#dirArrow" transform="translate(30 24)" onmousedown="handlePan(0,-1)">
                  <use xlink:href="#rim" fill="#404040">
                        <set attributeName="fill" to="#808080" begin="arrowUp.mouseover" end="arrowUp.mouseout"/>
                  </use>
                  <path fill="none" stroke="white" stroke-width="1.5" d="M0,-3.0v7 M-2.5,-0.5L0,-3.0L2.5,-0.5"/>
                </g>
                <g id="arrowRight" xlink:href="#dirArrow" transform="rotate(90) translate(36 -43)" onmousedown="handlePan(1,0)">
                  <use xlink:href="#rim" fill="#404040">
                        <set attributeName="fill" to="#808080" begin="arrowRight.mouseover" end="arrowRight.mouseout"/>
                  </use>
                  <path fill="none" stroke="white" stroke-width="1.5" d="M0,-3.0v7 M-2.5,-0.5L0,-3.0L2.5,-0.5"/>
                </g>
                <g id="arrowDown" xlink:href="#dirArrow" transform="rotate(180) translate(-30 -48)" onmousedown="handlePan(0,1)">
                  <use xlink:href="#rim" fill="#404040">
                        <set attributeName="fill" to="#808080" begin="arrowDown.mouseover" end="arrowDown.mouseout"/>
                  </use>
                  <path fill="none" stroke="white" stroke-width="1.5" d="M0,-3.0v7 M-2.5,-0.5L0,-3.0L2.5,-0.5"/>
                </g>
                <g id="arrowLeft" xlink:href="#dirArrow" transform="rotate(270) translate(-36 17)" onmousedown="handlePan(-1,0)">
                  <use xlink:href="#rim" fill="#404040">
                        <set attributeName="fill" to="#808080" begin="arrowLeft.mouseover" end="arrowLeft.mouseout"/>
                  </use>
                  <path fill="none" stroke="white" stroke-width="1.5" d="M0,-3.0v7 M-2.5,-0.5L0,-3.0L2.5,-0.5"/>
                </g>
        </g>
        <svg viewBox="0 0 15 15" width="100%" height="30px" preserveAspectRatio="xMaxYMin meet">
         <g id="arrow_out" transform="scale(0.3 0.3)">
          <a xlink:href="classAP__Logger__Block_a5837fecc6e845b208a1ee22206f0c572_cgraph_org.svg" target="_base">
           <rect id="button" ry="5" rx="5" y="6" x="6" height="38" width="38"
                fill="#f2f5e9" fill-opacity="0.5" stroke="#606060" stroke-width="1.0"/>
           <path id="arrow"
             d="M 11.500037,31.436501 C 11.940474,20.09759 22.043105,11.32322 32.158766,21.979434 L 37.068811,17.246167 C 37.068811,17.246167 37.088388,32 37.088388,32 L 22.160133,31.978069 C 22.160133,31.978069 26.997745,27.140456 26.997745,27.140456 C 18.528582,18.264221 13.291696,25.230495 11.500037,31.436501 z"
             style="fill:#404040;"/>
          </a>
         </g>
        </svg>
</svg>
