<?xml version="1.0" encoding="UTF-8" standalone="no"?>
<!DOCTYPE svg PUBLIC "-//W3C//DTD SVG 1.1//EN"
 "http://www.w3.org/Graphics/SVG/1.1/DTD/svg11.dtd">
<!-- Generated by graphviz version 2.30.1 (20130221.2233)
 -->
<!-- Title: AnalogIn_ADS1115::AnalogIn_ADS1115 Pages: 1 -->
<svg width="306pt" height="40pt"
 viewBox="0.00 0.00 306.00 40.00" xmlns="http://www.w3.org/2000/svg" xmlns:xlink="http://www.w3.org/1999/xlink">
<g id="graph0" class="graph" transform="scale(1 1) rotate(0) translate(4 36)">
<title>AnalogIn_ADS1115::AnalogIn_ADS1115</title>
<polygon fill="white" stroke="white" points="-4,5 -4,-36 303,-36 303,5 -4,5"/>
<!-- Node0 -->
<g id="node1" class="node"><title>Node0</title>
<g id="a_node1"><a xlink:title=" ">
<polygon fill="#bfbfbf" stroke="black" points="0.466797,-0 0.466797,-32 139.533,-32 139.533,-0 0.466797,-0"/>
<text text-anchor="start" x="8.4668" y="-18" font-family="Helvetica,sans-Serif" font-size="10.00">AnalogIn_ADS1115::Analog</text>
<text text-anchor="middle" x="70" y="-6" font-family="Helvetica,sans-Serif" font-size="10.00">In_ADS1115</text>
</a>
</g>
</g>
<!-- Node1 -->
<g id="node2" class="node"><title>Node1</title>
<g id="a_node2"><a xlink:href="classAP__ADC__ADS1115.html#af1577f80b179d160715c5a80839c1b76" target="_top" xlink:title=" ">
<polygon fill="white" stroke="black" points="175.816,-0 175.816,-32 298.184,-32 298.184,-0 175.816,-0"/>
<text text-anchor="start" x="183.816" y="-18" font-family="Helvetica,sans-Serif" font-size="10.00">AP_ADC_ADS1115::get</text>
<text text-anchor="middle" x="237" y="-6" font-family="Helvetica,sans-Serif" font-size="10.00">_channels_number</text>
</a>
</g>
</g>
<!-- Node0&#45;&gt;Node1 -->
<g id="edge1" class="edge"><title>Node0&#45;&gt;Node1</title>
<path fill="none" stroke="midnightblue" d="M139.541,-16C148.133,-16 156.932,-16 165.552,-16"/>
<polygon fill="midnightblue" stroke="midnightblue" points="165.566,-19.5001 175.566,-16 165.565,-12.5001 165.566,-19.5001"/>
</g>
</g>
</svg>
