<?xml version="1.0" encoding="UTF-8" standalone="no"?>
<!DOCTYPE svg PUBLIC "-//W3C//DTD SVG 1.1//EN"
 "http://www.w3.org/Graphics/SVG/1.1/DTD/svg11.dtd">
<!-- Generated by graphviz version 2.30.1 (20130221.2233)
 -->
<!-- Title: NavEKF3_core::setup_core Pages: 1 -->
<!--zoomable 820 -->
<svg id="main" version="1.1" xmlns="http://www.w3.org/2000/svg" xmlns:xlink="http://www.w3.org/1999/xlink" xml:space="preserve" onload="init(evt)">
<style type="text/css"><![CDATA[
.edge:hover path { stroke: red; }
.edge:hover polygon { stroke: red; fill: red; }
]]></style>
<script type="text/javascript"><![CDATA[
var edges = document.getElementsByTagName('g');
if (edges && edges.length) {
  for (var i=0;i<edges.length;i++) {
    if (edges[i].id.substr(0,4)=='edge') {
      edges[i].setAttribute('class','edge');
    }
  }
}
]]></script>
        <defs>
                <circle id="rim" cx="0" cy="0" r="7"/>
                <circle id="rim2" cx="0" cy="0" r="3.5"/>
                <g id="zoomPlus">
                        <use xlink:href="#rim" fill="#404040">
                                <set attributeName="fill" to="#808080" begin="zoomplus.mouseover" end="zoomplus.mouseout"/>
                        </use>
                        <path d="M-4,0h8M0,-4v8" fill="none" stroke="white" stroke-width="1.5" pointer-events="none"/>
                </g>
                <g id="zoomMin">
                        <use xlink:href="#rim" fill="#404040">
                                <set attributeName="fill" to="#808080" begin="zoomminus.mouseover" end="zoomminus.mouseout"/>
                        </use>
                        <path d="M-4,0h8" fill="none" stroke="white" stroke-width="1.5" pointer-events="none"/>
                </g>
                <g id="dirArrow">
                        <path fill="none" stroke="white" stroke-width="1.5" d="M0,-3.0v7 M-2.5,-0.5L0,-3.0L2.5,-0.5"/>
                </g>
               <g id="resetDef">
                       <use xlink:href="#rim2" fill="#404040">
                               <set attributeName="fill" to="#808080" begin="reset.mouseover" end="reset.mouseout"/>
                       </use>
               </g>
        </defs>

<script type="text/javascript">
var viewWidth = 1080;
var viewHeight = 820;
var sectionId = 'dynsection-204';
</script>
<script xlink:href="svgpan.js"/>
<svg id="graph" class="graph">
<g id="viewport">
<title>NavEKF3_core::setup_core</title>
<polygon fill="white" stroke="white" points="-4,5 -4,-816 1077,-816 1077,5 -4,5"/>
<!-- Node3810 -->
<g id="node1" class="node"><title>Node3810</title>
<g id="a_node1"><a xlink:title=" ">
<polygon fill="#bfbfbf" stroke="black" points="0.579102,-232 0.579102,-252 139.421,-252 139.421,-232 0.579102,-232"/>
<text text-anchor="middle" x="70" y="-238" font-family="Helvetica,sans-Serif" font-size="10.00">NavEKF3_core::setup_core</text>
</a>
</g>
</g>
<!-- Node3811 -->
<g id="node2" class="node"><title>Node3811</title>
<g id="a_node2"><a xlink:href="namespaceAP.html#ac571aa5a2ef71b7f4b4b2bfa09143fb9" target="_top" xlink:title=" ">
<polygon fill="white" stroke="black" points="223.16,-422 223.16,-442 270.84,-442 270.84,-422 223.16,-422"/>
<text text-anchor="middle" x="247" y="-428" font-family="Helvetica,sans-Serif" font-size="10.00">AP::ins</text>
</a>
</g>
</g>
<!-- Node3810&#45;&gt;Node3811 -->
<g id="edge1" class="edge"><title>Node3810&#45;&gt;Node3811</title>
<path fill="none" stroke="midnightblue" d="M76.1997,-252.056C89.7895,-277.61 128.617,-346.115 176,-390 187.547,-400.694 202.247,-410.013 215.193,-417.138"/>
<polygon fill="midnightblue" stroke="midnightblue" points="213.764,-420.342 224.239,-421.927 217.039,-414.155 213.764,-420.342"/>
</g>
<!-- Node3822 -->
<g id="node13" class="node"><title>Node3822</title>
<g id="a_node13"><a xlink:href="classAP__InertialSensor.html#a9c15eb46fd51722e79e1714b726c08e6" target="_top" xlink:title=" ">
<polygon fill="white" stroke="black" points="195.921,-349 195.921,-381 298.079,-381 298.079,-349 195.921,-349"/>
<text text-anchor="start" x="203.921" y="-367" font-family="Helvetica,sans-Serif" font-size="10.00">AP_InertialSensor::</text>
<text text-anchor="middle" x="247" y="-355" font-family="Helvetica,sans-Serif" font-size="10.00">get_sample_rate</text>
</a>
</g>
</g>
<!-- Node3810&#45;&gt;Node3822 -->
<g id="edge12" class="edge"><title>Node3810&#45;&gt;Node3822</title>
<path fill="none" stroke="midnightblue" d="M79.5316,-252.178C96.2318,-271.531 135.185,-313.935 176,-339 179.383,-341.078 182.959,-343.03 186.632,-344.858"/>
<polygon fill="midnightblue" stroke="midnightblue" points="185.365,-348.128 195.911,-349.144 188.301,-341.773 185.365,-348.128"/>
</g>
<!-- Node3823 -->
<g id="node14" class="node"><title>Node3823</title>
<g id="a_node14"><a xlink:href="AP__Math_8h.html#a5abc8871f1e7781a55afe9bf299f0a39" target="_top" xlink:title=" ">
<polygon fill="white" stroke="black" points="228.165,-310 228.165,-330 265.835,-330 265.835,-310 228.165,-310"/>
<text text-anchor="middle" x="247" y="-316" font-family="Helvetica,sans-Serif" font-size="10.00">MAX</text>
</a>
</g>
</g>
<!-- Node3810&#45;&gt;Node3823 -->
<g id="edge13" class="edge"><title>Node3810&#45;&gt;Node3823</title>
<path fill="none" stroke="midnightblue" d="M86.4531,-252.002C106.454,-264.599 142.698,-286.253 176,-300 189.551,-305.594 205.193,-310.224 218.249,-313.616"/>
<polygon fill="midnightblue" stroke="midnightblue" points="217.526,-317.043 228.076,-316.066 219.219,-310.251 217.526,-317.043"/>
</g>
<!-- Node3824 -->
<g id="node15" class="node"><title>Node3824</title>
<g id="a_node15"><a xlink:href="namespaceAP.html#ae6eeec356455220f913e47e323057cd5" target="_top" xlink:title=" ">
<polygon fill="white" stroke="black" points="221.49,-271 221.49,-291 272.51,-291 272.51,-271 221.49,-271"/>
<text text-anchor="middle" x="247" y="-277" font-family="Helvetica,sans-Serif" font-size="10.00">AP::gps</text>
</a>
</g>
</g>
<!-- Node3810&#45;&gt;Node3824 -->
<g id="edge14" class="edge"><title>Node3810&#45;&gt;Node3824</title>
<path fill="none" stroke="midnightblue" d="M116.067,-252.043C145.701,-258.648 183.902,-267.161 211.199,-273.244"/>
<polygon fill="midnightblue" stroke="midnightblue" points="210.565,-276.689 221.087,-275.448 212.087,-269.856 210.565,-276.689"/>
</g>
<!-- Node3826 -->
<g id="node17" class="node"><title>Node3826</title>
<g id="a_node17"><a xlink:href="namespaceAP__HAL.html#a77dffbb18891996280308e21316ec186" target="_top" xlink:title=" ">
<polygon fill="white" stroke="black" points="864.936,-110 864.936,-130 947.064,-130 947.064,-110 864.936,-110"/>
<text text-anchor="middle" x="906" y="-116" font-family="Helvetica,sans-Serif" font-size="10.00">AP_HAL::millis</text>
</a>
</g>
</g>
<!-- Node3810&#45;&gt;Node3826 -->
<g id="edge16" class="edge"><title>Node3810&#45;&gt;Node3826</title>
<path fill="none" stroke="midnightblue" d="M84.5305,-231.788C129.059,-199.228 276.077,-100 414,-100 414,-100 414,-100 572,-100 672.468,-100 789.68,-109.183 854.813,-115.104"/>
<polygon fill="midnightblue" stroke="midnightblue" points="854.53,-118.593 864.808,-116.025 855.172,-111.622 854.53,-118.593"/>
</g>
<!-- Node3828 -->
<g id="node19" class="node"><title>Node3828</title>
<g id="a_node19"><a xlink:href="GCS_8h.html#a1d3cc361b864ddf64a44c12ab3bd044e" target="_top" xlink:title=" ">
<polygon fill="white" stroke="black" points="231.219,-193 231.219,-213 262.781,-213 262.781,-193 231.219,-193"/>
<text text-anchor="middle" x="247" y="-199" font-family="Helvetica,sans-Serif" font-size="10.00">gcs</text>
</a>
</g>
</g>
<!-- Node3810&#45;&gt;Node3828 -->
<g id="edge18" class="edge"><title>Node3810&#45;&gt;Node3828</title>
<path fill="none" stroke="midnightblue" d="M116.067,-231.957C149.504,-224.505 193.849,-214.622 221.129,-208.543"/>
<polygon fill="midnightblue" stroke="midnightblue" points="222.026,-211.929 231.025,-206.337 220.503,-205.096 222.026,-211.929"/>
</g>
<!-- Node3830 -->
<g id="node21" class="node"><title>Node3830</title>
<g id="a_node21"><a xlink:href="classGCS.html#a9866f3484283db744409e40719cef765" target="_top" xlink:title=" ">
<polygon fill="white" stroke="black" points="203.705,-232 203.705,-252 290.295,-252 290.295,-232 203.705,-232"/>
<text text-anchor="middle" x="247" y="-238" font-family="Helvetica,sans-Serif" font-size="10.00">GCS::send_text</text>
</a>
</g>
</g>
<!-- Node3810&#45;&gt;Node3830 -->
<g id="edge20" class="edge"><title>Node3810&#45;&gt;Node3830</title>
<path fill="none" stroke="midnightblue" d="M139.662,-242C157.504,-242 176.444,-242 193.318,-242"/>
<polygon fill="midnightblue" stroke="midnightblue" points="193.53,-245.5 203.53,-242 193.53,-238.5 193.53,-245.5"/>
</g>
<!-- Node3850 -->
<g id="node41" class="node"><title>Node3850</title>
<g id="a_node41"><a xlink:href="AP__Math_8h.html#a321a91de43cfb2e95d40cde314d0a80f" target="_top" xlink:title=" ">
<polygon fill="white" stroke="black" points="229.835,-51 229.835,-71 264.165,-71 264.165,-51 229.835,-51"/>
<text text-anchor="middle" x="247" y="-57" font-family="Helvetica,sans-Serif" font-size="10.00">MIN</text>
</a>
</g>
</g>
<!-- Node3810&#45;&gt;Node3850 -->
<g id="edge45" class="edge"><title>Node3810&#45;&gt;Node3850</title>
<path fill="none" stroke="midnightblue" d="M75.0352,-231.999C86.5778,-204.611 122.384,-127.671 176,-86 188.666,-76.1556 205.537,-69.9769 219.543,-66.2251"/>
<polygon fill="midnightblue" stroke="midnightblue" points="220.675,-69.5527 229.577,-63.8087 219.036,-62.7473 220.675,-69.5527"/>
</g>
<!-- Node3851 -->
<g id="node42" class="node"><title>Node3851</title>
<g id="a_node42"><a xlink:href="classAP__AHRS.html#a47ea335b3b317f0c5e54320f59d5ca8a" target="_top" xlink:title=" ">
<polygon fill="white" stroke="black" points="175.912,-0 175.912,-32 318.088,-32 318.088,-0 175.912,-0"/>
<text text-anchor="start" x="183.912" y="-18" font-family="Helvetica,sans-Serif" font-size="10.00">AP_AHRS::airspeed_sensor</text>
<text text-anchor="middle" x="247" y="-6" font-family="Helvetica,sans-Serif" font-size="10.00">_enabled</text>
</a>
</g>
</g>
<!-- Node3810&#45;&gt;Node3851 -->
<g id="edge46" class="edge"><title>Node3810&#45;&gt;Node3851</title>
<path fill="none" stroke="midnightblue" d="M73.5382,-231.552C82.0614,-198.643 112.745,-96.0559 176,-41 177.338,-39.8351 178.735,-38.7231 180.18,-37.6619"/>
<polygon fill="midnightblue" stroke="midnightblue" points="182.341,-40.4356 188.909,-32.1219 178.59,-34.5255 182.341,-40.4356"/>
</g>
<!-- Node3812 -->
<g id="node3" class="node"><title>Node3812</title>
<g id="a_node3"><a xlink:href="classAP__InertialSensor.html#a2cf12201d711e4712a62ad10893be06f" target="_top" xlink:title=" ">
<polygon fill="white" stroke="black" points="363.921,-459 363.921,-491 466.079,-491 466.079,-459 363.921,-459"/>
<text text-anchor="start" x="371.921" y="-477" font-family="Helvetica,sans-Serif" font-size="10.00">AP_InertialSensor::</text>
<text text-anchor="middle" x="415" y="-465" font-family="Helvetica,sans-Serif" font-size="10.00">get_singleton</text>
</a>
</g>
</g>
<!-- Node3811&#45;&gt;Node3812 -->
<g id="edge2" class="edge"><title>Node3811&#45;&gt;Node3812</title>
<path fill="none" stroke="midnightblue" d="M271.082,-437.979C292.439,-443.511 325.129,-451.979 353.857,-459.421"/>
<polygon fill="midnightblue" stroke="midnightblue" points="353.27,-462.884 363.829,-462.004 355.026,-456.108 353.27,-462.884"/>
</g>
<!-- Node3813 -->
<g id="node4" class="node"><title>Node3813</title>
<g id="a_node4"><a xlink:href="classAP__InertialSensor.html#affc63e7edc9be1b0e128b8da3b8a24a5" target="_top" xlink:title=" ">
<polygon fill="white" stroke="black" points="519.921,-684 519.921,-716 622.079,-716 622.079,-684 519.921,-684"/>
<text text-anchor="start" x="527.921" y="-702" font-family="Helvetica,sans-Serif" font-size="10.00">AP_InertialSensor::</text>
<text text-anchor="middle" x="571" y="-690" font-family="Helvetica,sans-Serif" font-size="10.00">AP_InertialSensor</text>
</a>
</g>
</g>
<!-- Node3812&#45;&gt;Node3813 -->
<g id="edge3" class="edge"><title>Node3812&#45;&gt;Node3813</title>
<path fill="none" stroke="midnightblue" d="M427.075,-491.181C453.714,-530.101 521.5,-629.14 553.191,-675.442"/>
<polygon fill="midnightblue" stroke="midnightblue" points="550.489,-677.69 559.025,-683.965 556.265,-673.736 550.489,-677.69"/>
</g>
<!-- Node3814 -->
<g id="node5" class="node"><title>Node3814</title>
<g id="a_node5"><a xlink:href="namespaceAP__HAL.html#a71832f03d849a0c088f04fc98d3c8143" target="_top" xlink:title=" ">
<polygon fill="white" stroke="black" points="695.091,-690 695.091,-710 778.909,-710 778.909,-690 695.091,-690"/>
<text text-anchor="middle" x="737" y="-696" font-family="Helvetica,sans-Serif" font-size="10.00">AP_HAL::panic</text>
</a>
</g>
</g>
<!-- Node3813&#45;&gt;Node3814 -->
<g id="edge4" class="edge"><title>Node3813&#45;&gt;Node3814</title>
<path fill="none" stroke="midnightblue" d="M622.097,-700C641.99,-700 664.851,-700 684.848,-700"/>
<polygon fill="midnightblue" stroke="midnightblue" points="685.013,-703.5 695.013,-700 685.012,-696.5 685.013,-703.5"/>
</g>
<!-- Node3817 -->
<g id="node8" class="node"><title>Node3817</title>
<g id="a_node8"><a xlink:href="classAP__Param.html#a5f6dcfce1c0a79cf5bd81283e22f3201" target="_top" xlink:title=" ">
<polygon fill="white" stroke="black" points="673.69,-639 673.69,-671 800.31,-671 800.31,-639 673.69,-639"/>
<text text-anchor="start" x="681.69" y="-657" font-family="Helvetica,sans-Serif" font-size="10.00">AP_Param::setup_object</text>
<text text-anchor="middle" x="737" y="-645" font-family="Helvetica,sans-Serif" font-size="10.00">_defaults</text>
</a>
</g>
</g>
<!-- Node3813&#45;&gt;Node3817 -->
<g id="edge7" class="edge"><title>Node3813&#45;&gt;Node3817</title>
<path fill="none" stroke="midnightblue" d="M622.097,-686.254C636.469,-682.31 652.391,-677.942 667.662,-673.751"/>
<polygon fill="midnightblue" stroke="midnightblue" points="668.863,-677.051 677.581,-671.03 667.011,-670.301 668.863,-677.051"/>
</g>
<!-- Node3820 -->
<g id="node11" class="node"><title>Node3820</title>
<g id="a_node11"><a xlink:href="classLowPassFilter.html#a1cc5016de137b01080fa0a6fa7fe53cd" target="_top" xlink:title=" ">
<polygon fill="white" stroke="black" points="688.153,-780 688.153,-812 785.847,-812 785.847,-780 688.153,-780"/>
<text text-anchor="start" x="696.153" y="-798" font-family="Helvetica,sans-Serif" font-size="10.00">LowPassFilter::set</text>
<text text-anchor="middle" x="737" y="-786" font-family="Helvetica,sans-Serif" font-size="10.00">_cutoff_frequency</text>
</a>
</g>
</g>
<!-- Node3813&#45;&gt;Node3820 -->
<g id="edge10" class="edge"><title>Node3813&#45;&gt;Node3820</title>
<path fill="none" stroke="midnightblue" d="M590.361,-716.171C608.568,-731.581 637.754,-754.647 666,-770 670.017,-772.183 674.255,-774.258 678.578,-776.214"/>
<polygon fill="midnightblue" stroke="midnightblue" points="677.553,-779.582 688.123,-780.299 680.307,-773.146 677.553,-779.582"/>
</g>
<!-- Node3821 -->
<g id="node12" class="node"><title>Node3821</title>
<g id="a_node12"><a xlink:href="classAP__AccelCal.html#a6ecd2cc4987ebcec35f59a538a131ace" target="_top" xlink:title=" ">
<polygon fill="white" stroke="black" points="680.37,-729 680.37,-761 793.63,-761 793.63,-729 680.37,-729"/>
<text text-anchor="start" x="688.37" y="-747" font-family="Helvetica,sans-Serif" font-size="10.00">AP_AccelCal::register</text>
<text text-anchor="middle" x="737" y="-735" font-family="Helvetica,sans-Serif" font-size="10.00">_client</text>
</a>
</g>
</g>
<!-- Node3813&#45;&gt;Node3821 -->
<g id="edge11" class="edge"><title>Node3813&#45;&gt;Node3821</title>
<path fill="none" stroke="midnightblue" d="M622.097,-713.746C637.308,-717.92 654.255,-722.57 670.329,-726.981"/>
<polygon fill="midnightblue" stroke="midnightblue" points="669.632,-730.419 680.202,-729.689 671.484,-723.668 669.632,-730.419"/>
</g>
<!-- Node3815 -->
<g id="node6" class="node"><title>Node3815</title>
<g id="a_node6"><a xlink:href="stdio_8h.html#aae132cc6af1eb6cf43bf011d8d63e854" target="_top" xlink:title=" ">
<polygon fill="white" stroke="black" points="884.384,-735 884.384,-755 927.616,-755 927.616,-735 884.384,-735"/>
<text text-anchor="middle" x="906" y="-741" font-family="Helvetica,sans-Serif" font-size="10.00">vprintf</text>
</a>
</g>
</g>
<!-- Node3814&#45;&gt;Node3815 -->
<g id="edge5" class="edge"><title>Node3814&#45;&gt;Node3815</title>
<path fill="none" stroke="midnightblue" d="M775.478,-710.099C805.153,-718.095 846.105,-729.13 873.963,-736.637"/>
<polygon fill="midnightblue" stroke="midnightblue" points="873.381,-740.105 883.947,-739.327 875.202,-733.346 873.381,-740.105"/>
</g>
<!-- Node3816 -->
<g id="node7" class="node"><title>Node3816</title>
<g id="a_node7"><a xlink:href="classAP__HAL_1_1Scheduler.html#a78c4f1b1f192ac1c99544b6cc8f099b0" target="_top" xlink:title=" ">
<polygon fill="white" stroke="black" points="850.751,-684 850.751,-716 961.249,-716 961.249,-684 850.751,-684"/>
<text text-anchor="start" x="858.751" y="-702" font-family="Helvetica,sans-Serif" font-size="10.00">AP_HAL::Scheduler::</text>
<text text-anchor="middle" x="906" y="-690" font-family="Helvetica,sans-Serif" font-size="10.00">delay_microseconds</text>
</a>
</g>
</g>
<!-- Node3814&#45;&gt;Node3816 -->
<g id="edge6" class="edge"><title>Node3814&#45;&gt;Node3816</title>
<path fill="none" stroke="midnightblue" d="M779.281,-700C797.707,-700 819.856,-700 840.394,-700"/>
<polygon fill="midnightblue" stroke="midnightblue" points="840.641,-703.5 850.641,-700 840.641,-696.5 840.641,-703.5"/>
</g>
<!-- Node3818 -->
<g id="node9" class="node"><title>Node3818</title>
<g id="a_node9"><a xlink:href="classAP__Param.html#acd4b14f793c37f162e298761d2155ca6" target="_top" xlink:title=" ">
<polygon fill="white" stroke="black" points="849.641,-645 849.641,-665 962.359,-665 962.359,-645 849.641,-645"/>
<text text-anchor="middle" x="906" y="-651" font-family="Helvetica,sans-Serif" font-size="10.00">AP_Param::set_value</text>
</a>
</g>
</g>
<!-- Node3817&#45;&gt;Node3818 -->
<g id="edge8" class="edge"><title>Node3817&#45;&gt;Node3818</title>
<path fill="none" stroke="midnightblue" d="M800.66,-655C813.294,-655 826.608,-655 839.342,-655"/>
<polygon fill="midnightblue" stroke="midnightblue" points="839.405,-658.5 849.405,-655 839.405,-651.5 839.405,-658.5"/>
</g>
<!-- Node3819 -->
<g id="node10" class="node"><title>Node3819</title>
<g id="a_node10"><a xlink:href="classAP__Param.html#a7535a9b529dae326dcebb6be33dbbe9a" target="_top" xlink:title=" ">
<polygon fill="white" stroke="black" points="846.301,-594 846.301,-626 965.699,-626 965.699,-594 846.301,-594"/>
<text text-anchor="start" x="854.301" y="-612" font-family="Helvetica,sans-Serif" font-size="10.00">AP_Param::get_default</text>
<text text-anchor="middle" x="906" y="-600" font-family="Helvetica,sans-Serif" font-size="10.00">_value</text>
</a>
</g>
</g>
<!-- Node3817&#45;&gt;Node3819 -->
<g id="edge9" class="edge"><title>Node3817&#45;&gt;Node3819</title>
<path fill="none" stroke="midnightblue" d="M797.819,-638.881C810.349,-635.505 823.654,-631.92 836.472,-628.466"/>
<polygon fill="midnightblue" stroke="midnightblue" points="837.414,-631.837 846.159,-625.855 835.592,-625.078 837.414,-631.837"/>
</g>
<!-- Node3825 -->
<g id="node16" class="node"><title>Node3825</title>
<g id="a_node16"><a xlink:href="classAP__GPS.html#a08d0437767d62a318e59b40cf323a31a" target="_top" xlink:title=" ">
<polygon fill="white" stroke="black" points="354.466,-378 354.466,-398 475.534,-398 475.534,-378 354.466,-378"/>
<text text-anchor="middle" x="415" y="-384" font-family="Helvetica,sans-Serif" font-size="10.00">AP_GPS::get_singleton</text>
</a>
</g>
</g>
<!-- Node3824&#45;&gt;Node3825 -->
<g id="edge15" class="edge"><title>Node3824&#45;&gt;Node3825</title>
<path fill="none" stroke="midnightblue" d="M272.554,-282.798C287.088,-284.965 305.116,-289.698 318,-300 344.709,-321.355 327.908,-345.896 354,-368 356.239,-369.896 358.663,-371.615 361.211,-373.171"/>
<polygon fill="midnightblue" stroke="midnightblue" points="359.768,-376.366 370.256,-377.867 362.993,-370.153 359.768,-376.366"/>
</g>
<!-- Node3827 -->
<g id="node18" class="node"><title>Node3827</title>
<g id="a_node18"><a xlink:href="hrt_8c.html#a1295f128f60d29874243b5733c4db025" target="_top" xlink:title=" ">
<polygon fill="white" stroke="black" points="1004.71,-110 1004.71,-130 1071.29,-130 1071.29,-110 1004.71,-110"/>
<text text-anchor="middle" x="1038" y="-116" font-family="Helvetica,sans-Serif" font-size="10.00">hrt_millis32</text>
</a>
</g>
</g>
<!-- Node3826&#45;&gt;Node3827 -->
<g id="edge17" class="edge"><title>Node3826&#45;&gt;Node3827</title>
<path fill="none" stroke="midnightblue" d="M947.065,-120C962.098,-120 979.228,-120 994.476,-120"/>
<polygon fill="midnightblue" stroke="midnightblue" points="994.682,-123.5 1004.68,-120 994.682,-116.5 994.682,-123.5"/>
</g>
<!-- Node3829 -->
<g id="node20" class="node"><title>Node3829</title>
<g id="a_node20"><a xlink:href="classGCS.html#a684e9575c690f04ad04e105d6e8fde49" target="_top" xlink:title=" ">
<polygon fill="white" stroke="black" points="363.641,-193 363.641,-213 466.359,-213 466.359,-193 363.641,-193"/>
<text text-anchor="middle" x="415" y="-199" font-family="Helvetica,sans-Serif" font-size="10.00">GCS::get_singleton</text>
</a>
</g>
</g>
<!-- Node3828&#45;&gt;Node3829 -->
<g id="edge19" class="edge"><title>Node3828&#45;&gt;Node3829</title>
<path fill="none" stroke="midnightblue" d="M263.024,-203C283.333,-203 320.746,-203 353.246,-203"/>
<polygon fill="midnightblue" stroke="midnightblue" points="353.598,-206.5 363.598,-203 353.598,-199.5 353.598,-206.5"/>
</g>
<!-- Node3831 -->
<g id="node22" class="node"><title>Node3831</title>
<g id="a_node22"><a xlink:href="classGCS.html#a96bea5f4a8234593db645ec80adb36f4" target="_top" xlink:title=" ">
<polygon fill="white" stroke="black" points="369.205,-339 369.205,-359 460.795,-359 460.795,-339 369.205,-339"/>
<text text-anchor="middle" x="415" y="-345" font-family="Helvetica,sans-Serif" font-size="10.00">GCS::send_textv</text>
</a>
</g>
</g>
<!-- Node3830&#45;&gt;Node3831 -->
<g id="edge21" class="edge"><title>Node3830&#45;&gt;Node3831</title>
<path fill="none" stroke="midnightblue" d="M290.354,-250.015C299.79,-252.739 309.507,-256.322 318,-261 351.097,-279.231 381.895,-311.163 399.289,-331.138"/>
<polygon fill="midnightblue" stroke="midnightblue" points="396.744,-333.546 405.891,-338.891 402.073,-329.008 396.744,-333.546"/>
</g>
<!-- Node3832 -->
<g id="node23" class="node"><title>Node3832</title>
<g id="a_node23"><a xlink:href="classAP__HAL_1_1Util.html#ac57ef0a9815cd597ad5cab5d6c31c6c8" target="_top" xlink:title=" ">
<polygon fill="white" stroke="black" points="512.148,-477 512.148,-497 629.852,-497 629.852,-477 512.148,-477"/>
<text text-anchor="middle" x="571" y="-483" font-family="Helvetica,sans-Serif" font-size="10.00">AP_HAL::Util::vsnprintf</text>
</a>
</g>
</g>
<!-- Node3831&#45;&gt;Node3832 -->
<g id="edge22" class="edge"><title>Node3831&#45;&gt;Node3832</title>
<path fill="none" stroke="midnightblue" d="M460.919,-358.455C466.403,-360.932 471.611,-364.057 476,-368 505.609,-394.599 486.106,-419.772 512,-450 519.419,-458.661 529.373,-466.009 538.938,-471.818"/>
<polygon fill="midnightblue" stroke="midnightblue" points="537.471,-475.01 547.894,-476.908 540.93,-468.924 537.471,-475.01"/>
</g>
<!-- Node3840 -->
<g id="node31" class="node"><title>Node3840</title>
<g id="a_node31"><a xlink:href="classGCS.html#a313e604179053ea42415b1c9289f13cd" target="_top" xlink:title=" ">
<polygon fill="white" stroke="black" points="514.365,-297 514.365,-317 627.635,-317 627.635,-297 514.365,-297"/>
<text text-anchor="middle" x="571" y="-303" font-family="Helvetica,sans-Serif" font-size="10.00">GCS::send_statustext</text>
</a>
</g>
</g>
<!-- Node3831&#45;&gt;Node3840 -->
<g id="edge32" class="edge"><title>Node3831&#45;&gt;Node3840</title>
<path fill="none" stroke="midnightblue" d="M452.887,-338.94C474.048,-333.169 500.817,-325.868 523.419,-319.704"/>
<polygon fill="midnightblue" stroke="midnightblue" points="524.421,-323.059 533.148,-317.051 522.579,-316.305 524.421,-323.059"/>
</g>
<!-- Node3847 -->
<g id="node38" class="node"><title>Node3847</title>
<g id="a_node38"><a xlink:href="structGCS__MAVLINK.html#acad5b4ab40c7b7486392f07193ce4190" target="_top" xlink:title=" ">
<polygon fill="white" stroke="black" points="677.962,-426 677.962,-458 796.038,-458 796.038,-426 677.962,-426"/>
<text text-anchor="start" x="685.962" y="-444" font-family="Helvetica,sans-Serif" font-size="10.00">GCS_MAVLINK::active</text>
<text text-anchor="middle" x="737" y="-432" font-family="Helvetica,sans-Serif" font-size="10.00">_channel_mask</text>
</a>
</g>
</g>
<!-- Node3831&#45;&gt;Node3847 -->
<g id="edge43" class="edge"><title>Node3831&#45;&gt;Node3847</title>
<path fill="none" stroke="midnightblue" d="M450.179,-359.098C458.679,-361.808 467.725,-364.862 476,-368 492.372,-374.208 495.469,-378.23 512,-384 563.305,-401.906 622.932,-417.083 667.763,-427.415"/>
<polygon fill="midnightblue" stroke="midnightblue" points="667.143,-430.864 677.671,-429.676 668.7,-424.039 667.143,-430.864"/>
</g>
<!-- Node3848 -->
<g id="node39" class="node"><title>Node3848</title>
<g id="a_node39"><a xlink:href="structGCS__MAVLINK.html#af948c4a65f98679941885e2c7cc12ac5" target="_top" xlink:title=" ">
<polygon fill="white" stroke="black" points="669.071,-375 669.071,-407 804.929,-407 804.929,-375 669.071,-375"/>
<text text-anchor="start" x="677.071" y="-393" font-family="Helvetica,sans-Serif" font-size="10.00">GCS_MAVLINK::streaming</text>
<text text-anchor="middle" x="737" y="-381" font-family="Helvetica,sans-Serif" font-size="10.00">_channel_mask</text>
</a>
</g>
</g>
<!-- Node3831&#45;&gt;Node3848 -->
<g id="edge44" class="edge"><title>Node3831&#45;&gt;Node3848</title>
<path fill="none" stroke="midnightblue" d="M460.832,-354.884C512.076,-361.61 596.848,-372.736 658.782,-380.865"/>
<polygon fill="midnightblue" stroke="midnightblue" points="658.533,-384.362 668.903,-382.194 659.444,-377.422 658.533,-384.362"/>
</g>
<!-- Node3833 -->
<g id="node24" class="node"><title>Node3833</title>
<g id="a_node24"><a xlink:href="print__vprintf_8cpp.html#a98e0d5bb436a207f576379beaa786040" target="_top" xlink:title=" ">
<polygon fill="white" stroke="black" points="702.877,-516 702.877,-536 771.123,-536 771.123,-516 702.877,-516"/>
<text text-anchor="middle" x="737" y="-522" font-family="Helvetica,sans-Serif" font-size="10.00">print_vprintf</text>
</a>
</g>
</g>
<!-- Node3832&#45;&gt;Node3833 -->
<g id="edge23" class="edge"><title>Node3832&#45;&gt;Node3833</title>
<path fill="none" stroke="midnightblue" d="M614.234,-497.043C638.317,-502.77 668.437,-509.933 692.695,-515.702"/>
<polygon fill="midnightblue" stroke="midnightblue" points="692.159,-519.172 702.698,-518.081 693.779,-512.362 692.159,-519.172"/>
</g>
<!-- Node3839 -->
<g id="node30" class="node"><title>Node3839</title>
<g id="a_node30"><a xlink:href="classBufferPrinter.html#a4eb1dfae7fe1012905c34af6683401b2" target="_top" xlink:title=" ">
<polygon fill="white" stroke="black" points="687.687,-477 687.687,-497 786.313,-497 786.313,-477 687.687,-477"/>
<text text-anchor="middle" x="737" y="-483" font-family="Helvetica,sans-Serif" font-size="10.00">BufferPrinter::write</text>
</a>
</g>
</g>
<!-- Node3832&#45;&gt;Node3839 -->
<g id="edge31" class="edge"><title>Node3832&#45;&gt;Node3839</title>
<path fill="none" stroke="midnightblue" d="M630.282,-487C645.542,-487 662.001,-487 677.284,-487"/>
<polygon fill="midnightblue" stroke="midnightblue" points="677.647,-490.5 687.647,-487 677.647,-483.5 677.647,-490.5"/>
</g>
<!-- Node3834 -->
<g id="node25" class="node"><title>Node3834</title>
<g id="a_node25"><a xlink:href="classAP__HAL_1_1BetterStream.html#a915cc01273d4b418c2fb2989fb31a508" target="_top" xlink:title=" ">
<polygon fill="white" stroke="black" points="846.589,-426 846.589,-458 965.411,-458 965.411,-426 846.589,-426"/>
<text text-anchor="start" x="854.589" y="-444" font-family="Helvetica,sans-Serif" font-size="10.00">AP_HAL::BetterStream</text>
<text text-anchor="middle" x="906" y="-432" font-family="Helvetica,sans-Serif" font-size="10.00">::write</text>
</a>
</g>
</g>
<!-- Node3833&#45;&gt;Node3834 -->
<g id="edge24" class="edge"><title>Node3833&#45;&gt;Node3834</title>
<path fill="none" stroke="midnightblue" d="M771.197,-520.344C783.365,-517.309 796.87,-512.753 808,-506 827.89,-493.932 824.9,-481.283 844,-468 846.646,-466.16 849.444,-464.411 852.327,-462.755"/>
<polygon fill="midnightblue" stroke="midnightblue" points="853.972,-465.845 861.171,-458.072 850.696,-459.659 853.972,-465.845"/>
</g>
<!-- Node3835 -->
<g id="node26" class="node"><title>Node3835</title>
<g id="a_node26"><a xlink:href="ftoa__engine_8cpp.html#a1c28234da8f20b43c85890d4bb452947" target="_top" xlink:title=" ">
<polygon fill="white" stroke="black" points="871.865,-477 871.865,-497 940.135,-497 940.135,-477 871.865,-477"/>
<text text-anchor="middle" x="906" y="-483" font-family="Helvetica,sans-Serif" font-size="10.00">ftoa_engine</text>
</a>
</g>
</g>
<!-- Node3833&#45;&gt;Node3835 -->
<g id="edge25" class="edge"><title>Node3833&#45;&gt;Node3835</title>
<path fill="none" stroke="midnightblue" d="M771.394,-518.202C797.335,-512.143 833.514,-503.694 861.683,-497.116"/>
<polygon fill="midnightblue" stroke="midnightblue" points="862.722,-500.467 871.664,-494.785 861.13,-493.651 862.722,-500.467"/>
</g>
<!-- Node3837 -->
<g id="node28" class="node"><title>Node3837</title>
<g id="a_node28"><a xlink:href="utoa__invert_8cpp.html#a34926f552460b47c414ec4d83b32815c" target="_top" xlink:title=" ">
<polygon fill="white" stroke="black" points="871.04,-555 871.04,-575 940.96,-575 940.96,-555 871.04,-555"/>
<text text-anchor="middle" x="906" y="-561" font-family="Helvetica,sans-Serif" font-size="10.00">ulltoa_invert</text>
</a>
</g>
</g>
<!-- Node3833&#45;&gt;Node3837 -->
<g id="edge27" class="edge"><title>Node3833&#45;&gt;Node3837</title>
<path fill="none" stroke="midnightblue" d="M771.394,-533.798C797.08,-539.797 832.806,-548.14 860.852,-554.69"/>
<polygon fill="midnightblue" stroke="midnightblue" points="860.27,-558.148 870.804,-557.014 861.862,-551.332 860.27,-558.148"/>
</g>
<!-- Node3838 -->
<g id="node29" class="node"><title>Node3838</title>
<g id="a_node29"><a xlink:href="utoa__invert_8cpp.html#a5d99bba8e697c1e11da489d88fca8559" target="_top" xlink:title=" ">
<polygon fill="white" stroke="black" points="872.15,-516 872.15,-536 939.85,-536 939.85,-516 872.15,-516"/>
<text text-anchor="middle" x="906" y="-522" font-family="Helvetica,sans-Serif" font-size="10.00">ultoa_invert</text>
</a>
</g>
</g>
<!-- Node3833&#45;&gt;Node3838 -->
<g id="edge29" class="edge"><title>Node3833&#45;&gt;Node3838</title>
<path fill="none" stroke="midnightblue" d="M771.394,-526C797.305,-526 833.432,-526 861.587,-526"/>
<polygon fill="midnightblue" stroke="midnightblue" points="861.949,-529.5 871.949,-526 861.949,-522.5 861.949,-529.5"/>
</g>
<!-- Node3836 -->
<g id="node27" class="node"><title>Node3836</title>
<g id="a_node27"><a xlink:href="lstrlib_8c.html#a9605f4d16ae762782f8be8b54aef0a22" target="_top" xlink:title=" ">
<polygon fill="white" stroke="black" points="1020.83,-516 1020.83,-536 1055.17,-536 1055.17,-516 1020.83,-516"/>
<text text-anchor="middle" x="1038" y="-522" font-family="Helvetica,sans-Serif" font-size="10.00">digit</text>
</a>
</g>
</g>
<!-- Node3835&#45;&gt;Node3836 -->
<g id="edge26" class="edge"><title>Node3835&#45;&gt;Node3836</title>
<path fill="none" stroke="midnightblue" d="M940.141,-496.942C962.049,-503.515 990.373,-512.012 1010.73,-518.118"/>
<polygon fill="midnightblue" stroke="midnightblue" points="1009.98,-521.548 1020.57,-521.07 1011.99,-514.844 1009.98,-521.548"/>
</g>
<!-- Node3837&#45;&gt;Node3836 -->
<g id="edge28" class="edge"><title>Node3837&#45;&gt;Node3836</title>
<path fill="none" stroke="midnightblue" d="M940.478,-554.957C962.388,-548.384 990.602,-539.919 1010.86,-533.842"/>
<polygon fill="midnightblue" stroke="midnightblue" points="1012.08,-537.13 1020.65,-530.904 1010.07,-530.425 1012.08,-537.13"/>
</g>
<!-- Node3838&#45;&gt;Node3836 -->
<g id="edge30" class="edge"><title>Node3838&#45;&gt;Node3836</title>
<path fill="none" stroke="midnightblue" d="M940.141,-526C961.949,-526 990.113,-526 1010.44,-526"/>
<polygon fill="midnightblue" stroke="midnightblue" points="1010.57,-529.5 1020.57,-526 1010.57,-522.5 1010.57,-529.5"/>
</g>
<!-- Node3841 -->
<g id="node32" class="node"><title>Node3841</title>
<g id="a_node32"><a xlink:href="classAP__Logger.html#a7dfeda4dc3df2edc8531110c9d7252dc" target="_top" xlink:title=" ">
<polygon fill="white" stroke="black" points="671.456,-258 671.456,-278 802.544,-278 802.544,-258 671.456,-258"/>
<text text-anchor="middle" x="737" y="-264" font-family="Helvetica,sans-Serif" font-size="10.00">AP_Logger::get_singleton</text>
</a>
</g>
</g>
<!-- Node3840&#45;&gt;Node3841 -->
<g id="edge33" class="edge"><title>Node3840&#45;&gt;Node3841</title>
<path fill="none" stroke="midnightblue" d="M614.234,-296.957C635.564,-291.884 661.629,-285.686 684.164,-280.327"/>
<polygon fill="midnightblue" stroke="midnightblue" points="684.99,-283.728 693.909,-278.009 683.371,-276.918 684.99,-283.728"/>
</g>
<!-- Node3842 -->
<g id="node33" class="node"><title>Node3842</title>
<g id="a_node33"><a xlink:href="classAP__Logger.html#ab72f6a6fdb1a23d793e37725f68b98c2" target="_top" xlink:title=" ">
<polygon fill="white" stroke="black" points="666.556,-219 666.556,-239 807.444,-239 807.444,-219 666.556,-219"/>
<text text-anchor="middle" x="737" y="-225" font-family="Helvetica,sans-Serif" font-size="10.00">AP_Logger::Write_Message</text>
</a>
</g>
</g>
<!-- Node3840&#45;&gt;Node3842 -->
<g id="edge34" class="edge"><title>Node3840&#45;&gt;Node3842</title>
<path fill="none" stroke="midnightblue" d="M585.302,-296.857C602.901,-283.872 635.29,-261.449 666,-248 670.974,-245.822 676.259,-243.838 681.609,-242.045"/>
<polygon fill="midnightblue" stroke="midnightblue" points="682.758,-245.353 691.255,-239.024 680.666,-238.673 682.758,-245.353"/>
</g>
<!-- Node3843 -->
<g id="node34" class="node"><title>Node3843</title>
<g id="a_node34"><a xlink:href="classAP__Frsky__Telem.html#aef21b9f33af863589feda48a23877380" target="_top" xlink:title=" ">
<polygon fill="white" stroke="black" points="674.53,-168 674.53,-200 799.47,-200 799.47,-168 674.53,-168"/>
<text text-anchor="start" x="682.53" y="-186" font-family="Helvetica,sans-Serif" font-size="10.00">AP_Frsky_Telem::queue</text>
<text text-anchor="middle" x="737" y="-174" font-family="Helvetica,sans-Serif" font-size="10.00">_message</text>
</a>
</g>
</g>
<!-- Node3840&#45;&gt;Node3843 -->
<g id="edge35" class="edge"><title>Node3840&#45;&gt;Node3843</title>
<path fill="none" stroke="midnightblue" d="M579.115,-296.914C593.422,-277.32 627.609,-233.859 666,-209 668.437,-207.422 670.987,-205.928 673.61,-204.516"/>
<polygon fill="midnightblue" stroke="midnightblue" points="675.323,-207.574 682.757,-200.025 672.238,-201.29 675.323,-207.574"/>
</g>
<!-- Node3845 -->
<g id="node36" class="node"><title>Node3845</title>
<g id="a_node36"><a xlink:href="classAP__Notify.html#a0264facb8d3b5c35a7cff0171acdabd0" target="_top" xlink:title=" ">
<polygon fill="white" stroke="black" points="674.244,-336 674.244,-356 799.756,-356 799.756,-336 674.244,-336"/>
<text text-anchor="middle" x="737" y="-342" font-family="Helvetica,sans-Serif" font-size="10.00">AP_Notify::get_singleton</text>
</a>
</g>
</g>
<!-- Node3840&#45;&gt;Node3845 -->
<g id="edge37" class="edge"><title>Node3840&#45;&gt;Node3845</title>
<path fill="none" stroke="midnightblue" d="M614.234,-317.043C635.564,-322.116 661.629,-328.314 684.164,-333.673"/>
<polygon fill="midnightblue" stroke="midnightblue" points="683.371,-337.082 693.909,-335.991 684.99,-330.272 683.371,-337.082"/>
</g>
<!-- Node3846 -->
<g id="node37" class="node"><title>Node3846</title>
<g id="a_node37"><a xlink:href="classAP__Notify.html#a0f38b9b4be211e200675dd048c81f500" target="_top" xlink:title=" ">
<polygon fill="white" stroke="black" points="682.308,-129 682.308,-149 791.692,-149 791.692,-129 682.308,-129"/>
<text text-anchor="middle" x="737" y="-135" font-family="Helvetica,sans-Serif" font-size="10.00">AP_Notify::send_text</text>
</a>
</g>
</g>
<!-- Node3840&#45;&gt;Node3846 -->
<g id="edge38" class="edge"><title>Node3840&#45;&gt;Node3846</title>
<path fill="none" stroke="midnightblue" d="M575.417,-296.849C585.05,-269.826 615.086,-195.633 666,-158 668.203,-156.372 670.536,-154.884 672.962,-153.523"/>
<polygon fill="midnightblue" stroke="midnightblue" points="674.594,-156.622 682.087,-149.131 671.558,-150.314 674.594,-156.622"/>
</g>
<!-- Node3840&#45;&gt;Node3847 -->
<g id="edge40" class="edge"><title>Node3840&#45;&gt;Node3847</title>
<path fill="none" stroke="midnightblue" d="M578.236,-317.223C591.703,-338.502 625.578,-387.904 666,-416 668.715,-417.887 671.583,-419.656 674.547,-421.311"/>
<polygon fill="midnightblue" stroke="midnightblue" points="673.171,-424.538 683.672,-425.944 676.34,-418.296 673.171,-424.538"/>
</g>
<!-- Node3840&#45;&gt;Node3848 -->
<g id="edge41" class="edge"><title>Node3840&#45;&gt;Node3848</title>
<path fill="none" stroke="midnightblue" d="M586.462,-317.178C604.492,-329.567 636.534,-350.612 666,-365 670.288,-367.094 674.791,-369.123 679.357,-371.064"/>
<polygon fill="midnightblue" stroke="midnightblue" points="678.191,-374.368 688.772,-374.912 680.84,-367.888 678.191,-374.368"/>
</g>
<!-- Node3849 -->
<g id="node40" class="node"><title>Node3849</title>
<g id="a_node40"><a xlink:href="classGCS.html#a824e538eff6cbf7c9074840600fbf6ff" target="_top" xlink:title=" ">
<polygon fill="white" stroke="black" points="675.37,-297 675.37,-317 798.63,-317 798.63,-297 675.37,-297"/>
<text text-anchor="middle" x="737" y="-303" font-family="Helvetica,sans-Serif" font-size="10.00">GCS::service_statustext</text>
</a>
</g>
</g>
<!-- Node3840&#45;&gt;Node3849 -->
<g id="edge42" class="edge"><title>Node3840&#45;&gt;Node3849</title>
<path fill="none" stroke="midnightblue" d="M627.981,-307C639.87,-307 652.573,-307 664.938,-307"/>
<polygon fill="midnightblue" stroke="midnightblue" points="665.22,-310.5 675.22,-307 665.22,-303.5 665.22,-310.5"/>
</g>
<!-- Node3844 -->
<g id="node35" class="node"><title>Node3844</title>
<g id="a_node35"><a xlink:href="classObjectArray.html#aec1630ad862991767b30ae80a71a26ea" target="_top" xlink:title=" ">
<polygon fill="white" stroke="black" points="844.086,-174 844.086,-194 967.914,-194 967.914,-174 844.086,-174"/>
<text text-anchor="middle" x="906" y="-180" font-family="Helvetica,sans-Serif" font-size="10.00">ObjectArray::push_force</text>
</a>
</g>
</g>
<!-- Node3843&#45;&gt;Node3844 -->
<g id="edge36" class="edge"><title>Node3843&#45;&gt;Node3844</title>
<path fill="none" stroke="midnightblue" d="M799.71,-184C810.736,-184 822.308,-184 833.579,-184"/>
<polygon fill="midnightblue" stroke="midnightblue" points="833.822,-187.5 843.822,-184 833.822,-180.5 833.822,-187.5"/>
</g>
<!-- Node3846&#45;&gt;Node3826 -->
<g id="edge39" class="edge"><title>Node3846&#45;&gt;Node3826</title>
<path fill="none" stroke="midnightblue" d="M791.759,-132.884C811.977,-130.583 834.871,-127.979 854.757,-125.716"/>
<polygon fill="midnightblue" stroke="midnightblue" points="855.311,-129.176 864.852,-124.568 854.52,-122.221 855.311,-129.176"/>
</g>
<!-- Node3852 -->
<g id="node43" class="node"><title>Node3852</title>
<g id="a_node43"><a xlink:href="classAP__Airspeed.html#a1f93ae84c30efc1375765b835004e7a9" target="_top" xlink:title=" ">
<polygon fill="white" stroke="black" points="358.914,-6 358.914,-26 471.086,-26 471.086,-6 358.914,-6"/>
<text text-anchor="middle" x="415" y="-12" font-family="Helvetica,sans-Serif" font-size="10.00">AP_Airspeed::healthy</text>
</a>
</g>
</g>
<!-- Node3851&#45;&gt;Node3852 -->
<g id="edge47" class="edge"><title>Node3851&#45;&gt;Node3852</title>
<path fill="none" stroke="midnightblue" d="M318.399,-16C328.433,-16 338.719,-16 348.652,-16"/>
<polygon fill="midnightblue" stroke="midnightblue" points="348.849,-19.5001 358.849,-16 348.849,-12.5001 348.849,-19.5001"/>
</g>
<!-- Node3853 -->
<g id="node44" class="node"><title>Node3853</title>
<g id="a_node44"><a xlink:href="classAP__Airspeed.html#a86b49520d90ba23d15fb79614605e522" target="_top" xlink:title=" ">
<polygon fill="white" stroke="black" points="513.242,-6 513.242,-26 628.758,-26 628.758,-6 513.242,-6"/>
<text text-anchor="middle" x="571" y="-12" font-family="Helvetica,sans-Serif" font-size="10.00">AP_Airspeed::enabled</text>
</a>
</g>
</g>
<!-- Node3852&#45;&gt;Node3853 -->
<g id="edge48" class="edge"><title>Node3852&#45;&gt;Node3853</title>
<path fill="none" stroke="midnightblue" d="M471.163,-16C481.496,-16 492.402,-16 503.047,-16"/>
<polygon fill="midnightblue" stroke="midnightblue" points="503.147,-19.5001 513.147,-16 503.147,-12.5001 503.147,-19.5001"/>
</g>
<!-- Node3853&#45;&gt;Node3853 -->
<g id="edge49" class="edge"><title>Node3853&#45;&gt;Node3853</title>
<path fill="none" stroke="midnightblue" d="M546.577,-26.0477C535.437,-34.7715 543.578,-44 571,-44 588.567,-44 598.221,-40.2126 599.963,-35.1968"/>
<polygon fill="midnightblue" stroke="midnightblue" points="603.003,-33.4497 595.423,-26.0477 596.732,-36.5612 603.003,-33.4497"/>
</g>
</g>
</svg>
        <g id="navigator" transform="translate(0 0)" fill="#404254">
                <rect fill="#f2f5e9" fill-opacity="0.5" stroke="#606060" stroke-width=".5" x="0" y="0" width="60" height="60"/>
                <use id="zoomplus" xlink:href="#zoomPlus" x="17" y="9" onmousedown="handleZoom(evt,'in')"/>
                <use id="zoomminus" xlink:href="#zoomMin" x="42" y="9" onmousedown="handleZoom(evt,'out')"/>
                <use id="reset" xlink:href="#resetDef" x="30" y="36" onmousedown="handleReset()"/>
                <g id="arrowUp" xlink:href="#dirArrow" transform="translate(30 24)" onmousedown="handlePan(0,-1)">
                  <use xlink:href="#rim" fill="#404040">
                        <set attributeName="fill" to="#808080" begin="arrowUp.mouseover" end="arrowUp.mouseout"/>
                  </use>
                  <path fill="none" stroke="white" stroke-width="1.5" d="M0,-3.0v7 M-2.5,-0.5L0,-3.0L2.5,-0.5"/>
                </g>
                <g id="arrowRight" xlink:href="#dirArrow" transform="rotate(90) translate(36 -43)" onmousedown="handlePan(1,0)">
                  <use xlink:href="#rim" fill="#404040">
                        <set attributeName="fill" to="#808080" begin="arrowRight.mouseover" end="arrowRight.mouseout"/>
                  </use>
                  <path fill="none" stroke="white" stroke-width="1.5" d="M0,-3.0v7 M-2.5,-0.5L0,-3.0L2.5,-0.5"/>
                </g>
                <g id="arrowDown" xlink:href="#dirArrow" transform="rotate(180) translate(-30 -48)" onmousedown="handlePan(0,1)">
                  <use xlink:href="#rim" fill="#404040">
                        <set attributeName="fill" to="#808080" begin="arrowDown.mouseover" end="arrowDown.mouseout"/>
                  </use>
                  <path fill="none" stroke="white" stroke-width="1.5" d="M0,-3.0v7 M-2.5,-0.5L0,-3.0L2.5,-0.5"/>
                </g>
                <g id="arrowLeft" xlink:href="#dirArrow" transform="rotate(270) translate(-36 17)" onmousedown="handlePan(-1,0)">
                  <use xlink:href="#rim" fill="#404040">
                        <set attributeName="fill" to="#808080" begin="arrowLeft.mouseover" end="arrowLeft.mouseout"/>
                  </use>
                  <path fill="none" stroke="white" stroke-width="1.5" d="M0,-3.0v7 M-2.5,-0.5L0,-3.0L2.5,-0.5"/>
                </g>
        </g>
        <svg viewBox="0 0 15 15" width="100%" height="30px" preserveAspectRatio="xMaxYMin meet">
         <g id="arrow_out" transform="scale(0.3 0.3)">
          <a xlink:href="classNavEKF3__core_a0b8f47e59f846a862b145edfaa9b7e99_cgraph_org.svg" target="_base">
           <rect id="button" ry="5" rx="5" y="6" x="6" height="38" width="38"
                fill="#f2f5e9" fill-opacity="0.5" stroke="#606060" stroke-width="1.0"/>
           <path id="arrow"
             d="M 11.500037,31.436501 C 11.940474,20.09759 22.043105,11.32322 32.158766,21.979434 L 37.068811,17.246167 C 37.068811,17.246167 37.088388,32 37.088388,32 L 22.160133,31.978069 C 22.160133,31.978069 26.997745,27.140456 26.997745,27.140456 C 18.528582,18.264221 13.291696,25.230495 11.500037,31.436501 z"
             style="fill:#404040;"/>
          </a>
         </g>
        </svg>
</svg>
