<?xml version="1.0" encoding="UTF-8" standalone="no"?>
<!DOCTYPE svg PUBLIC "-//W3C//DTD SVG 1.1//EN"
 "http://www.w3.org/Graphics/SVG/1.1/DTD/svg11.dtd">
<!-- Generated by graphviz version 2.30.1 (20130221.2233)
 -->
<!-- Title: AP_HAL::OwnPtr::get Pages: 1 -->
<svg width="812pt" height="210pt"
 viewBox="0.00 0.00 812.00 210.00" xmlns="http://www.w3.org/2000/svg" xmlns:xlink="http://www.w3.org/1999/xlink">
<g id="graph0" class="graph" transform="scale(1 1) rotate(0) translate(4 206)">
<title>AP_HAL::OwnPtr::get</title>
<polygon fill="white" stroke="white" points="-4,5 -4,-206 809,-206 809,5 -4,5"/>
<!-- Node17 -->
<g id="node1" class="node"><title>Node17</title>
<g id="a_node1"><a xlink:title=" ">
<polygon fill="#bfbfbf" stroke="black" points="690.646,-92 690.646,-112 803.354,-112 803.354,-92 690.646,-92"/>
<text text-anchor="middle" x="747" y="-98" font-family="Helvetica,sans-Serif" font-size="10.00">AP_HAL::OwnPtr::get</text>
</a>
</g>
</g>
<!-- Node18 -->
<g id="node2" class="node"><title>Node18</title>
<g id="a_node2"><a xlink:href="classLinux_1_1UARTDriver.html#a9e0f62386e505ff552ae03611b0ee341" target="_top" xlink:title=" ">
<polygon fill="white" stroke="black" points="546.635,-170 546.635,-202 651.365,-202 651.365,-170 546.635,-170"/>
<text text-anchor="start" x="554.635" y="-188" font-family="Helvetica,sans-Serif" font-size="10.00">Linux::UARTDriver::</text>
<text text-anchor="middle" x="599" y="-176" font-family="Helvetica,sans-Serif" font-size="10.00">begin</text>
</a>
</g>
</g>
<!-- Node17&#45;&gt;Node18 -->
<g id="edge1" class="edge"><title>Node17&#45;&gt;Node18</title>
<path fill="none" stroke="midnightblue" d="M722.458,-117.885C704.132,-129.992 677.882,-146.779 654,-160 647.901,-163.377 641.295,-166.767 634.866,-169.932"/>
<polygon fill="midnightblue" stroke="midnightblue" points="724.632,-120.642 731.018,-112.188 720.754,-114.814 724.632,-120.642"/>
</g>
<!-- Node19 -->
<g id="node3" class="node"><title>Node19</title>
<g id="a_node3"><a xlink:href="namespaceAP__HAL.html#a423589eedc096647d0ec9415386f1749" target="_top" xlink:title=" ">
<polygon fill="white" stroke="black" points="546.112,-131 546.112,-151 651.888,-151 651.888,-131 546.112,-131"/>
<text text-anchor="middle" x="599" y="-137" font-family="Helvetica,sans-Serif" font-size="10.00">AP_HAL::operator!=</text>
</a>
</g>
</g>
<!-- Node17&#45;&gt;Node19 -->
<g id="edge2" class="edge"><title>Node17&#45;&gt;Node19</title>
<path fill="none" stroke="midnightblue" d="M698.635,-114.652C678.812,-119.947 656.1,-126.014 637.471,-130.991"/>
<polygon fill="midnightblue" stroke="midnightblue" points="699.643,-118.006 708.401,-112.043 697.837,-111.243 699.643,-118.006"/>
</g>
<!-- Node20 -->
<g id="node4" class="node"><title>Node20</title>
<g id="a_node4"><a xlink:href="namespaceAP__HAL.html#ae9c23217c103e993785687452cfc86c7" target="_top" xlink:title=" ">
<polygon fill="white" stroke="black" points="544.582,-92 544.582,-112 653.418,-112 653.418,-92 544.582,-92"/>
<text text-anchor="middle" x="599" y="-98" font-family="Helvetica,sans-Serif" font-size="10.00">AP_HAL::operator==</text>
</a>
</g>
</g>
<!-- Node17&#45;&gt;Node20 -->
<g id="edge3" class="edge"><title>Node17&#45;&gt;Node20</title>
<path fill="none" stroke="midnightblue" d="M680.349,-102C671.376,-102 662.254,-102 653.531,-102"/>
<polygon fill="midnightblue" stroke="midnightblue" points="680.387,-105.5 690.387,-102 680.387,-98.5001 680.387,-105.5"/>
</g>
<!-- Node21 -->
<g id="node5" class="node"><title>Node21</title>
<g id="a_node5"><a xlink:href="sdcard_8h.html#a147e40b0cb08c475b78f95e075c864c0" target="_top" xlink:title=" ">
<polygon fill="white" stroke="black" points="566.82,-53 566.82,-73 631.18,-73 631.18,-53 566.82,-53"/>
<text text-anchor="middle" x="599" y="-59" font-family="Helvetica,sans-Serif" font-size="10.00">sdcard_init</text>
</a>
</g>
</g>
<!-- Node17&#45;&gt;Node21 -->
<g id="edge4" class="edge"><title>Node17&#45;&gt;Node21</title>
<path fill="none" stroke="midnightblue" d="M698.591,-89.3359C676.622,-83.4676 651.114,-76.6537 631.548,-71.4271"/>
<polygon fill="midnightblue" stroke="midnightblue" points="697.837,-92.7572 708.401,-91.9565 699.643,-85.9943 697.837,-92.7572"/>
</g>
<!-- Node29 -->
<g id="node13" class="node"><title>Node29</title>
<g id="a_node13"><a xlink:href="test__own__ptr_8cpp.html#a469546dc847cc744d280021bed986fe2" target="_top" xlink:title=" ">
<polygon fill="white" stroke="black" points="578.222,-14 578.222,-34 619.778,-34 619.778,-14 578.222,-14"/>
<text text-anchor="middle" x="599" y="-20" font-family="Helvetica,sans-Serif" font-size="10.00">TEST</text>
</a>
</g>
</g>
<!-- Node17&#45;&gt;Node29 -->
<g id="edge13" class="edge"><title>Node17&#45;&gt;Node29</title>
<path fill="none" stroke="midnightblue" d="M724.413,-86.1118C706.284,-73.2786 679.349,-55.3789 654,-43 643.105,-37.6794 630.33,-33.1149 619.942,-29.7942"/>
<polygon fill="midnightblue" stroke="midnightblue" points="722.395,-88.9715 732.56,-91.9582 726.476,-83.2843 722.395,-88.9715"/>
</g>
<!-- Node22 -->
<g id="node6" class="node"><title>Node22</title>
<g id="a_node6"><a xlink:href="sdcard_8h.html#a371c77bda8c1d5311661e439c44a123c" target="_top" xlink:title=" ">
<polygon fill="white" stroke="black" points="436.212,-53 436.212,-73 507.788,-73 507.788,-53 436.212,-53"/>
<text text-anchor="middle" x="472" y="-59" font-family="Helvetica,sans-Serif" font-size="10.00">sdcard_retry</text>
</a>
</g>
</g>
<!-- Node21&#45;&gt;Node22 -->
<g id="edge5" class="edge"><title>Node21&#45;&gt;Node22</title>
<path fill="none" stroke="midnightblue" d="M556.349,-63C540.75,-63 523.194,-63 508.232,-63"/>
<polygon fill="midnightblue" stroke="midnightblue" points="556.78,-66.5001 566.78,-63 556.78,-59.5001 556.78,-66.5001"/>
</g>
<!-- Node23 -->
<g id="node7" class="node"><title>Node23</title>
<g id="a_node7"><a xlink:href="classChibiOS_1_1Scheduler.html#a647c96ea634818117072ecd1cc6b73b3" target="_top" xlink:title=" ">
<polygon fill="white" stroke="black" points="296.089,-98 296.089,-130 399.911,-130 399.911,-98 296.089,-98"/>
<text text-anchor="start" x="304.089" y="-116" font-family="Helvetica,sans-Serif" font-size="10.00">ChibiOS::Scheduler</text>
<text text-anchor="middle" x="348" y="-104" font-family="Helvetica,sans-Serif" font-size="10.00">::_io_thread</text>
</a>
</g>
</g>
<!-- Node22&#45;&gt;Node23 -->
<g id="edge6" class="edge"><title>Node22&#45;&gt;Node23</title>
<path fill="none" stroke="midnightblue" d="M437.67,-76.9331C422.142,-83.4241 403.58,-91.184 387.46,-97.9223"/>
<polygon fill="midnightblue" stroke="midnightblue" points="439.02,-80.1621 446.897,-73.076 436.32,-73.7037 439.02,-80.1621"/>
</g>
<!-- Node25 -->
<g id="node9" class="node"><title>Node25</title>
<g id="a_node9"><a xlink:href="classChibiOS_1_1Storage.html#a20e5423b235396a62e2fa32d84d38339" target="_top" xlink:title=" ">
<polygon fill="white" stroke="black" points="298.313,-47 298.313,-79 397.687,-79 397.687,-47 298.313,-47"/>
<text text-anchor="start" x="306.313" y="-65" font-family="Helvetica,sans-Serif" font-size="10.00">ChibiOS::Storage::</text>
<text text-anchor="middle" x="348" y="-53" font-family="Helvetica,sans-Serif" font-size="10.00">_save_backup</text>
</a>
</g>
</g>
<!-- Node22&#45;&gt;Node25 -->
<g id="edge8" class="edge"><title>Node22&#45;&gt;Node25</title>
<path fill="none" stroke="midnightblue" d="M426.023,-63C416.916,-63 407.296,-63 398.056,-63"/>
<polygon fill="midnightblue" stroke="midnightblue" points="426.04,-66.5001 436.04,-63 426.04,-59.5001 426.04,-66.5001"/>
</g>
<!-- Node26 -->
<g id="node10" class="node"><title>Node26</title>
<g id="a_node10"><a xlink:href="classChibiOS_1_1Storage.html#adf6fc2369946746d00bb2a7f86410258" target="_top" xlink:title=" ">
<polygon fill="white" stroke="black" points="158.313,-25 158.313,-57 257.687,-57 257.687,-25 158.313,-25"/>
<text text-anchor="start" x="166.313" y="-43" font-family="Helvetica,sans-Serif" font-size="10.00">ChibiOS::Storage::</text>
<text text-anchor="middle" x="208" y="-31" font-family="Helvetica,sans-Serif" font-size="10.00">_storage_open</text>
</a>
</g>
</g>
<!-- Node22&#45;&gt;Node26 -->
<g id="edge12" class="edge"><title>Node22&#45;&gt;Node26</title>
<path fill="none" stroke="midnightblue" d="M440.181,-49.0383C427.939,-44.2082 413.564,-39.4055 400,-37 352.32,-28.5444 296.901,-31.0345 258.079,-34.7356"/>
<polygon fill="midnightblue" stroke="midnightblue" points="438.905,-52.2981 449.484,-52.8726 441.572,-45.8262 438.905,-52.2981"/>
</g>
<!-- Node24 -->
<g id="node8" class="node"><title>Node24</title>
<g id="a_node8"><a xlink:href="classChibiOS_1_1Scheduler.html#a241ba4fe05070acba40af09beb5d65fc" target="_top" xlink:title=" ">
<polygon fill="white" stroke="black" points="156.089,-98 156.089,-130 259.911,-130 259.911,-98 156.089,-98"/>
<text text-anchor="start" x="164.089" y="-116" font-family="Helvetica,sans-Serif" font-size="10.00">ChibiOS::Scheduler</text>
<text text-anchor="middle" x="208" y="-104" font-family="Helvetica,sans-Serif" font-size="10.00">::init</text>
</a>
</g>
</g>
<!-- Node23&#45;&gt;Node24 -->
<g id="edge7" class="edge"><title>Node23&#45;&gt;Node24</title>
<path fill="none" stroke="midnightblue" d="M285.736,-114C277.222,-114 268.55,-114 260.245,-114"/>
<polygon fill="midnightblue" stroke="midnightblue" points="286.006,-117.5 296.006,-114 286.006,-110.5 286.006,-117.5"/>
</g>
<!-- Node25&#45;&gt;Node26 -->
<g id="edge9" class="edge"><title>Node25&#45;&gt;Node26</title>
<path fill="none" stroke="midnightblue" d="M288.035,-53.5997C277.982,-51.9972 267.639,-50.3483 257.884,-48.7931"/>
<polygon fill="midnightblue" stroke="midnightblue" points="287.531,-57.0636 297.958,-55.1817 288.634,-50.1509 287.531,-57.0636"/>
</g>
<!-- Node27 -->
<g id="node11" class="node"><title>Node27</title>
<g id="a_node11"><a xlink:href="classChibiOS_1_1Storage.html#ae76140ed51f4776b809d05006f84e515" target="_top" xlink:title=" ">
<polygon fill="white" stroke="black" points="0.305664,-51 0.305664,-83 119.694,-83 119.694,-51 0.305664,-51"/>
<text text-anchor="start" x="8.30566" y="-69" font-family="Helvetica,sans-Serif" font-size="10.00">ChibiOS::Storage::read</text>
<text text-anchor="middle" x="60" y="-57" font-family="Helvetica,sans-Serif" font-size="10.00">_block</text>
</a>
</g>
</g>
<!-- Node26&#45;&gt;Node27 -->
<g id="edge10" class="edge"><title>Node26&#45;&gt;Node27</title>
<path fill="none" stroke="midnightblue" d="M148.023,-51.5027C138.707,-53.1618 129.074,-54.8772 119.763,-56.5354"/>
<polygon fill="midnightblue" stroke="midnightblue" points="148.747,-54.9291 157.978,-49.73 147.519,-48.0375 148.747,-54.9291"/>
</g>
<!-- Node28 -->
<g id="node12" class="node"><title>Node28</title>
<g id="a_node12"><a xlink:href="classChibiOS_1_1Storage.html#ac03700f2503573f43d8377fd2dd2c56f" target="_top" xlink:title=" ">
<polygon fill="white" stroke="black" points="-0.243652,-0 -0.243652,-32 120.244,-32 120.244,-0 -0.243652,-0"/>
<text text-anchor="start" x="7.75635" y="-18" font-family="Helvetica,sans-Serif" font-size="10.00">ChibiOS::Storage::write</text>
<text text-anchor="middle" x="60" y="-6" font-family="Helvetica,sans-Serif" font-size="10.00">_block</text>
</a>
</g>
</g>
<!-- Node26&#45;&gt;Node28 -->
<g id="edge11" class="edge"><title>Node26&#45;&gt;Node28</title>
<path fill="none" stroke="midnightblue" d="M147.867,-30.8744C138.77,-29.3169 129.376,-27.7082 120.277,-26.1502"/>
<polygon fill="midnightblue" stroke="midnightblue" points="147.531,-34.3678 157.978,-32.6058 148.712,-27.4682 147.531,-34.3678"/>
</g>
</g>
</svg>
