<?xml version="1.0" encoding="UTF-8" standalone="no"?>
<!DOCTYPE svg PUBLIC "-//W3C//DTD SVG 1.1//EN"
 "http://www.w3.org/Graphics/SVG/1.1/DTD/svg11.dtd">
<!-- Generated by graphviz version 2.30.1 (20130221.2233)
 -->
<!-- Title: AR_WPNav::is_active Pages: 1 -->
<svg width="450pt" height="113pt"
 viewBox="0.00 0.00 450.00 113.00" xmlns="http://www.w3.org/2000/svg" xmlns:xlink="http://www.w3.org/1999/xlink">
<g id="graph0" class="graph" transform="scale(1 1) rotate(0) translate(4 109)">
<title>AR_WPNav::is_active</title>
<polygon fill="white" stroke="white" points="-4,5 -4,-109 447,-109 447,5 -4,5"/>
<!-- Node80 -->
<g id="node1" class="node"><title>Node80</title>
<g id="a_node1"><a xlink:title=" ">
<polygon fill="#bfbfbf" stroke="black" points="328.096,-22 328.096,-42 441.904,-42 441.904,-22 328.096,-22"/>
<text text-anchor="middle" x="385" y="-28" font-family="Helvetica,sans-Serif" font-size="10.00">AR_WPNav::is_active</text>
</a>
</g>
</g>
<!-- Node81 -->
<g id="node2" class="node"><title>Node81</title>
<g id="a_node2"><a xlink:href="classAR__WPNav.html#aa656a4df9dbdc03fdd3b16df66f6d157" target="_top" xlink:title=" ">
<polygon fill="white" stroke="black" points="164.7,-39 164.7,-71 291.3,-71 291.3,-39 164.7,-39"/>
<text text-anchor="start" x="172.7" y="-57" font-family="Helvetica,sans-Serif" font-size="10.00">AR_WPNav::set_desired</text>
<text text-anchor="middle" x="228" y="-45" font-family="Helvetica,sans-Serif" font-size="10.00">_location</text>
</a>
</g>
</g>
<!-- Node80&#45;&gt;Node81 -->
<g id="edge1" class="edge"><title>Node80&#45;&gt;Node81</title>
<path fill="none" stroke="midnightblue" d="M317.871,-41.8126C309.107,-43.1132 300.144,-44.4432 291.444,-45.7341"/>
<polygon fill="midnightblue" stroke="midnightblue" points="318.664,-45.2335 328.041,-40.3035 317.636,-38.3093 318.664,-45.2335"/>
</g>
<!-- Node84 -->
<g id="node5" class="node"><title>Node84</title>
<g id="a_node5"><a xlink:href="classAR__WPNav.html#a537e00d4cacfe212829be555575c66f4" target="_top" xlink:title=" ">
<polygon fill="white" stroke="black" points="175.256,-0 175.256,-20 280.744,-20 280.744,-0 175.256,-0"/>
<text text-anchor="middle" x="228" y="-6" font-family="Helvetica,sans-Serif" font-size="10.00">AR_WPNav::update</text>
</a>
</g>
</g>
<!-- Node80&#45;&gt;Node84 -->
<g id="edge4" class="edge"><title>Node80&#45;&gt;Node84</title>
<path fill="none" stroke="midnightblue" d="M318.134,-22.6513C305.638,-20.8777 292.73,-19.0455 280.747,-17.3448"/>
<polygon fill="midnightblue" stroke="midnightblue" points="317.649,-26.1174 328.041,-24.0575 318.633,-19.1869 317.649,-26.1174"/>
</g>
<!-- Node82 -->
<g id="node3" class="node"><title>Node82</title>
<g id="a_node3"><a xlink:href="classAR__WPNav.html#aa9261cd7e0f4266ede3a4556de4a529c" target="_top" xlink:title=" ">
<polygon fill="white" stroke="black" points="0.699707,-61 0.699707,-105 127.3,-105 127.3,-61 0.699707,-61"/>
<text text-anchor="start" x="8.69971" y="-91" font-family="Helvetica,sans-Serif" font-size="10.00">AR_WPNav::set_desired</text>
<text text-anchor="start" x="8.69971" y="-79" font-family="Helvetica,sans-Serif" font-size="10.00">_location_to_stopping</text>
<text text-anchor="middle" x="64" y="-67" font-family="Helvetica,sans-Serif" font-size="10.00">_location</text>
</a>
</g>
</g>
<!-- Node81&#45;&gt;Node82 -->
<g id="edge2" class="edge"><title>Node81&#45;&gt;Node82</title>
<path fill="none" stroke="midnightblue" d="M154.327,-67.5607C145.363,-69.1101 136.261,-70.6833 127.467,-72.2033"/>
<polygon fill="midnightblue" stroke="midnightblue" points="155.109,-70.9776 164.367,-65.8255 153.917,-64.0799 155.109,-70.9776"/>
</g>
<!-- Node83 -->
<g id="node4" class="node"><title>Node83</title>
<g id="a_node4"><a xlink:href="classAR__WPNav.html#a71b38f461277f49dfe5cec1dfab4ea1c" target="_top" xlink:title=" ">
<polygon fill="white" stroke="black" points="0.699707,-10 0.699707,-42 127.3,-42 127.3,-10 0.699707,-10"/>
<text text-anchor="start" x="8.69971" y="-28" font-family="Helvetica,sans-Serif" font-size="10.00">AR_WPNav::set_desired</text>
<text text-anchor="middle" x="64" y="-16" font-family="Helvetica,sans-Serif" font-size="10.00">_location_NED</text>
</a>
</g>
</g>
<!-- Node81&#45;&gt;Node83 -->
<g id="edge3" class="edge"><title>Node81&#45;&gt;Node83</title>
<path fill="none" stroke="midnightblue" d="M154.327,-41.9907C145.363,-40.386 136.261,-38.7566 127.467,-37.1823"/>
<polygon fill="midnightblue" stroke="midnightblue" points="153.906,-45.4709 164.367,-43.7878 155.14,-38.5804 153.906,-45.4709"/>
</g>
</g>
</svg>
