<?xml version="1.0" encoding="UTF-8" standalone="no"?>
<!DOCTYPE svg PUBLIC "-//W3C//DTD SVG 1.1//EN"
 "http://www.w3.org/Graphics/SVG/1.1/DTD/svg11.dtd">
<!-- Generated by graphviz version 2.30.1 (20130221.2233)
 -->
<!-- Title: AP_WindVane_Backend::speed_update_frontend Pages: 1 -->
<svg width="512pt" height="263pt"
 viewBox="0.00 0.00 512.00 263.00" xmlns="http://www.w3.org/2000/svg" xmlns:xlink="http://www.w3.org/1999/xlink">
<g id="graph0" class="graph" transform="scale(1 1) rotate(0) translate(4 259)">
<title>AP_WindVane_Backend::speed_update_frontend</title>
<polygon fill="white" stroke="white" points="-4,5 -4,-259 509,-259 509,5 -4,5"/>
<!-- Node51 -->
<g id="node1" class="node"><title>Node51</title>
<g id="a_node1"><a xlink:title=" ">
<polygon fill="#bfbfbf" stroke="black" points="376.397,-102 376.397,-134 503.603,-134 503.603,-102 376.397,-102"/>
<text text-anchor="start" x="384.397" y="-120" font-family="Helvetica,sans-Serif" font-size="10.00">AP_WindVane_Backend</text>
<text text-anchor="middle" x="440" y="-108" font-family="Helvetica,sans-Serif" font-size="10.00">::speed_update_frontend</text>
</a>
</g>
</g>
<!-- Node52 -->
<g id="node2" class="node"><title>Node52</title>
<g id="a_node2"><a xlink:href="classAP__WindVane__NMEA.html#ab0a91316dde5c29fd29e6d60f49e9692" target="_top" xlink:title=" ">
<polygon fill="white" stroke="black" points="188.551,-204 188.551,-224 339.449,-224 339.449,-204 188.551,-204"/>
<text text-anchor="middle" x="264" y="-210" font-family="Helvetica,sans-Serif" font-size="10.00">AP_WindVane_NMEA::update</text>
</a>
</g>
</g>
<!-- Node51&#45;&gt;Node52 -->
<g id="edge1" class="edge"><title>Node51&#45;&gt;Node52</title>
<path fill="none" stroke="midnightblue" d="M414.608,-141.172C395.623,-158.045 367.894,-180.261 340,-194 331.9,-197.989 322.903,-201.261 314.033,-203.916"/>
<polygon fill="midnightblue" stroke="midnightblue" points="417.123,-143.616 422.184,-134.308 412.423,-138.428 417.123,-143.616"/>
</g>
<!-- Node55 -->
<g id="node5" class="node"><title>Node55</title>
<g id="a_node5"><a xlink:href="classAP__WindVane__SITL.html#a25d665b4f7ee1c3103fb70250d8f443c" target="_top" xlink:title=" ">
<polygon fill="white" stroke="black" points="192.438,-153 192.438,-185 335.562,-185 335.562,-153 192.438,-153"/>
<text text-anchor="start" x="200.438" y="-171" font-family="Helvetica,sans-Serif" font-size="10.00">AP_WindVane_SITL::update</text>
<text text-anchor="middle" x="264" y="-159" font-family="Helvetica,sans-Serif" font-size="10.00">_speed</text>
</a>
</g>
</g>
<!-- Node51&#45;&gt;Node55 -->
<g id="edge4" class="edge"><title>Node51&#45;&gt;Node55</title>
<path fill="none" stroke="midnightblue" d="M374.151,-137.008C356.234,-142.259 336.975,-147.904 319.697,-152.968"/>
<polygon fill="midnightblue" stroke="midnightblue" points="375.333,-140.308 383.945,-134.137 373.365,-133.591 375.333,-140.308"/>
</g>
<!-- Node56 -->
<g id="node6" class="node"><title>Node56</title>
<g id="a_node6"><a xlink:href="classAP__WindVane__RPM.html#a00346378e3f646fcce72f15149e89bf7" target="_top" xlink:title=" ">
<polygon fill="white" stroke="black" points="191.886,-102 191.886,-134 336.114,-134 336.114,-102 191.886,-102"/>
<text text-anchor="start" x="199.886" y="-120" font-family="Helvetica,sans-Serif" font-size="10.00">AP_WindVane_RPM::update</text>
<text text-anchor="middle" x="264" y="-108" font-family="Helvetica,sans-Serif" font-size="10.00">_speed</text>
</a>
</g>
</g>
<!-- Node51&#45;&gt;Node56 -->
<g id="edge5" class="edge"><title>Node51&#45;&gt;Node56</title>
<path fill="none" stroke="midnightblue" d="M366.036,-118C356.193,-118 346.104,-118 336.29,-118"/>
<polygon fill="midnightblue" stroke="midnightblue" points="366.182,-121.5 376.182,-118 366.182,-114.5 366.182,-121.5"/>
</g>
<!-- Node57 -->
<g id="node7" class="node"><title>Node57</title>
<g id="a_node7"><a xlink:href="classAP__WindVane__Airspeed.html#a99b638c9e5265f5256f738b6cc01ec6a" target="_top" xlink:title=" ">
<polygon fill="white" stroke="black" points="201.334,-51 201.334,-83 326.666,-83 326.666,-51 201.334,-51"/>
<text text-anchor="start" x="209.334" y="-69" font-family="Helvetica,sans-Serif" font-size="10.00">AP_WindVane_Airspeed</text>
<text text-anchor="middle" x="264" y="-57" font-family="Helvetica,sans-Serif" font-size="10.00">::update_speed</text>
</a>
</g>
</g>
<!-- Node51&#45;&gt;Node57 -->
<g id="edge6" class="edge"><title>Node51&#45;&gt;Node57</title>
<path fill="none" stroke="midnightblue" d="M374.151,-98.9925C356.234,-93.741 336.975,-88.096 319.697,-83.0317"/>
<polygon fill="midnightblue" stroke="midnightblue" points="373.365,-102.409 383.945,-101.863 375.333,-95.6918 373.365,-102.409"/>
</g>
<!-- Node58 -->
<g id="node8" class="node"><title>Node58</title>
<g id="a_node8"><a xlink:href="classAP__WindVane__ModernDevice.html#a6efd9433a2fd4a067187af19b9ed125b" target="_top" xlink:title=" ">
<polygon fill="white" stroke="black" points="188.832,-0 188.832,-32 339.168,-32 339.168,-0 188.832,-0"/>
<text text-anchor="start" x="196.832" y="-18" font-family="Helvetica,sans-Serif" font-size="10.00">AP_WindVane_ModernDevice</text>
<text text-anchor="middle" x="264" y="-6" font-family="Helvetica,sans-Serif" font-size="10.00">::update_speed</text>
</a>
</g>
</g>
<!-- Node51&#45;&gt;Node58 -->
<g id="edge7" class="edge"><title>Node51&#45;&gt;Node58</title>
<path fill="none" stroke="midnightblue" d="M413.955,-95.1097C394.827,-78.5739 367.206,-56.6589 340,-42 333.206,-38.3394 325.796,-35.0361 318.363,-32.1091"/>
<polygon fill="midnightblue" stroke="midnightblue" points="411.784,-97.8611 421.607,-101.83 416.403,-92.6016 411.784,-97.8611"/>
</g>
<!-- Node53 -->
<g id="node3" class="node"><title>Node53</title>
<g id="a_node3"><a xlink:href="classAP__WindVane__NMEA.html#afd6920d88500e2a0e770bcbf075b9467" target="_top" xlink:title=" ">
<polygon fill="white" stroke="black" points="0.55127,-223 0.55127,-255 151.449,-255 151.449,-223 0.55127,-223"/>
<text text-anchor="start" x="8.55127" y="-241" font-family="Helvetica,sans-Serif" font-size="10.00">AP_WindVane_NMEA::update</text>
<text text-anchor="middle" x="76" y="-229" font-family="Helvetica,sans-Serif" font-size="10.00">_direction</text>
</a>
</g>
</g>
<!-- Node52&#45;&gt;Node53 -->
<g id="edge2" class="edge"><title>Node52&#45;&gt;Node53</title>
<path fill="none" stroke="midnightblue" d="M178.39,-225.372C169.452,-226.574 160.41,-227.789 151.598,-228.973"/>
<polygon fill="midnightblue" stroke="midnightblue" points="178.974,-228.825 188.418,-224.024 178.041,-221.888 178.974,-228.825"/>
</g>
<!-- Node54 -->
<g id="node4" class="node"><title>Node54</title>
<g id="a_node4"><a xlink:href="classAP__WindVane__NMEA.html#a0a1150a67a8fe5ead1bd16452b75f8d2" target="_top" xlink:title=" ">
<polygon fill="white" stroke="black" points="0.55127,-172 0.55127,-204 151.449,-204 151.449,-172 0.55127,-172"/>
<text text-anchor="start" x="8.55127" y="-190" font-family="Helvetica,sans-Serif" font-size="10.00">AP_WindVane_NMEA::update</text>
<text text-anchor="middle" x="76" y="-178" font-family="Helvetica,sans-Serif" font-size="10.00">_speed</text>
</a>
</g>
</g>
<!-- Node52&#45;&gt;Node54 -->
<g id="edge3" class="edge"><title>Node52&#45;&gt;Node54</title>
<path fill="none" stroke="midnightblue" d="M181.203,-202.566C171.385,-201.194 161.399,-199.798 151.69,-198.441"/>
<polygon fill="midnightblue" stroke="midnightblue" points="180.965,-206.067 191.354,-203.985 181.934,-199.134 180.965,-206.067"/>
</g>
</g>
</svg>
