<?xml version="1.0" encoding="UTF-8" standalone="no"?>
<!DOCTYPE svg PUBLIC "-//W3C//DTD SVG 1.1//EN"
 "http://www.w3.org/Graphics/SVG/1.1/DTD/svg11.dtd">
<!-- Generated by graphviz version 2.30.1 (20130221.2233)
 -->
<!-- Title: AP_HAL::GPIO::channel Pages: 1 -->
<!--zoomable 700 -->
<svg id="main" version="1.1" xmlns="http://www.w3.org/2000/svg" xmlns:xlink="http://www.w3.org/1999/xlink" xml:space="preserve" onload="init(evt)">
<style type="text/css"><![CDATA[
.edge:hover path { stroke: red; }
.edge:hover polygon { stroke: red; fill: red; }
]]></style>
<script type="text/javascript"><![CDATA[
var edges = document.getElementsByTagName('g');
if (edges && edges.length) {
  for (var i=0;i<edges.length;i++) {
    if (edges[i].id.substr(0,4)=='edge') {
      edges[i].setAttribute('class','edge');
    }
  }
}
]]></script>
        <defs>
                <circle id="rim" cx="0" cy="0" r="7"/>
                <circle id="rim2" cx="0" cy="0" r="3.5"/>
                <g id="zoomPlus">
                        <use xlink:href="#rim" fill="#404040">
                                <set attributeName="fill" to="#808080" begin="zoomplus.mouseover" end="zoomplus.mouseout"/>
                        </use>
                        <path d="M-4,0h8M0,-4v8" fill="none" stroke="white" stroke-width="1.5" pointer-events="none"/>
                </g>
                <g id="zoomMin">
                        <use xlink:href="#rim" fill="#404040">
                                <set attributeName="fill" to="#808080" begin="zoomminus.mouseover" end="zoomminus.mouseout"/>
                        </use>
                        <path d="M-4,0h8" fill="none" stroke="white" stroke-width="1.5" pointer-events="none"/>
                </g>
                <g id="dirArrow">
                        <path fill="none" stroke="white" stroke-width="1.5" d="M0,-3.0v7 M-2.5,-0.5L0,-3.0L2.5,-0.5"/>
                </g>
               <g id="resetDef">
                       <use xlink:href="#rim2" fill="#404040">
                               <set attributeName="fill" to="#808080" begin="reset.mouseover" end="reset.mouseout"/>
                       </use>
               </g>
        </defs>

<script type="text/javascript">
var viewWidth = 1246;
var viewHeight = 700;
var sectionId = 'dynsection-2';
</script>
<script xlink:href="svgpan.js"/>
<svg id="graph" class="graph">
<g id="viewport">
<title>AP_HAL::GPIO::channel</title>
<polygon fill="white" stroke="white" points="-4,5 -4,-696 1243,-696 1243,5 -4,5"/>
<!-- Node86 -->
<g id="node1" class="node"><title>Node86</title>
<g id="a_node1"><a xlink:title=" ">
<polygon fill="#bfbfbf" stroke="black" points="1112.25,-355 1112.25,-375 1237.75,-375 1237.75,-355 1112.25,-355"/>
<text text-anchor="middle" x="1175" y="-361" font-family="Helvetica,sans-Serif" font-size="10.00">AP_HAL::GPIO::channel</text>
</a>
</g>
</g>
<!-- Node87 -->
<g id="node2" class="node"><title>Node87</title>
<g id="a_node2"><a xlink:href="classAP__InertialSensor__BMI160.html#ae7727eb583f2b0d7403b6e4dd40197e0" target="_top" xlink:title=" ">
<polygon fill="white" stroke="black" points="925.688,-660 925.688,-692 1062.31,-692 1062.31,-660 925.688,-660"/>
<text text-anchor="start" x="933.688" y="-678" font-family="Helvetica,sans-Serif" font-size="10.00">AP_InertialSensor_BMI160</text>
<text text-anchor="middle" x="994" y="-666" font-family="Helvetica,sans-Serif" font-size="10.00">::_configure_int1_pin</text>
</a>
</g>
</g>
<!-- Node86&#45;&gt;Node87 -->
<g id="edge1" class="edge"><title>Node86&#45;&gt;Node87</title>
<path fill="none" stroke="midnightblue" d="M1173,-385.493C1169.37,-437.342 1152.62,-574.941 1076,-650 1071.99,-653.927 1067.39,-657.262 1062.45,-660.093"/>
<polygon fill="midnightblue" stroke="midnightblue" points="1176.51,-385.457 1173.62,-375.264 1169.53,-385.034 1176.51,-385.457"/>
</g>
<!-- Node89 -->
<g id="node4" class="node"><title>Node89</title>
<g id="a_node4"><a xlink:href="classAP__Baro__BMP085.html#a6af0febe3d222fc0092346475e516c68" target="_top" xlink:title=" ">
<polygon fill="white" stroke="black" points="932.079,-621 932.079,-641 1055.92,-641 1055.92,-621 932.079,-621"/>
<text text-anchor="middle" x="994" y="-627" font-family="Helvetica,sans-Serif" font-size="10.00">AP_Baro_BMP085::_init</text>
</a>
</g>
</g>
<!-- Node86&#45;&gt;Node89 -->
<g id="edge3" class="edge"><title>Node86&#45;&gt;Node89</title>
<path fill="none" stroke="midnightblue" d="M1172.09,-385.175C1166.52,-432.262 1145.96,-550.028 1076,-611 1070.21,-616.044 1063.35,-619.857 1056.1,-622.732"/>
<polygon fill="midnightblue" stroke="midnightblue" points="1175.59,-385.358 1173.18,-375.041 1168.63,-384.609 1175.59,-385.358"/>
</g>
<!-- Node94 -->
<g id="node9" class="node"><title>Node94</title>
<g id="a_node9"><a xlink:href="classAP__InertialSensor__Invensensev2.html#af6e9fd6c4ef8583c2efeec2d1c324e12" target="_top" xlink:title=" ">
<polygon fill="white" stroke="black" points="912.064,-570 912.064,-602 1075.94,-602 1075.94,-570 912.064,-570"/>
<text text-anchor="start" x="920.064" y="-588" font-family="Helvetica,sans-Serif" font-size="10.00">AP_InertialSensor_Invensensev2</text>
<text text-anchor="middle" x="994" y="-576" font-family="Helvetica,sans-Serif" font-size="10.00">::_init</text>
</a>
</g>
</g>
<!-- Node86&#45;&gt;Node94 -->
<g id="edge9" class="edge"><title>Node86&#45;&gt;Node94</title>
<path fill="none" stroke="midnightblue" d="M1169.47,-384.94C1159.53,-424.239 1132.05,-512.036 1076,-560 1071.51,-563.841 1066.45,-567.117 1061.1,-569.91"/>
<polygon fill="midnightblue" stroke="midnightblue" points="1172.88,-385.758 1171.82,-375.215 1166.07,-384.113 1172.88,-385.758"/>
</g>
<!-- Node106 -->
<g id="node21" class="node"><title>Node106</title>
<g id="a_node21"><a xlink:href="classAP__InertialSensor__Invensense.html#aa1f73d88f390dc33a024e74d418fcdbb" target="_top" xlink:title=" ">
<polygon fill="white" stroke="black" points="917.345,-519 917.345,-551 1070.65,-551 1070.65,-519 917.345,-519"/>
<text text-anchor="start" x="925.345" y="-537" font-family="Helvetica,sans-Serif" font-size="10.00">AP_InertialSensor_Invensense</text>
<text text-anchor="middle" x="994" y="-525" font-family="Helvetica,sans-Serif" font-size="10.00">::_init</text>
</a>
</g>
</g>
<!-- Node86&#45;&gt;Node106 -->
<g id="edge22" class="edge"><title>Node86&#45;&gt;Node106</title>
<path fill="none" stroke="midnightblue" d="M1165.92,-384.317C1152.06,-415.168 1120.83,-475.49 1076,-509 1070.91,-512.802 1065.25,-516.061 1059.35,-518.851"/>
<polygon fill="midnightblue" stroke="midnightblue" points="1169.17,-385.631 1169.96,-375.065 1162.75,-382.835 1169.17,-385.631"/>
</g>
<!-- Node108 -->
<g id="node23" class="node"><title>Node108</title>
<g id="a_node23"><a xlink:href="classAP__InertialSensor__LSM9DS1.html#a5074cb707fdcd87bef71570e3ae28dea" target="_top" xlink:title=" ">
<polygon fill="white" stroke="black" points="920.131,-468 920.131,-500 1067.87,-500 1067.87,-468 920.131,-468"/>
<text text-anchor="start" x="928.131" y="-486" font-family="Helvetica,sans-Serif" font-size="10.00">AP_InertialSensor_LSM9DS1</text>
<text text-anchor="middle" x="994" y="-474" font-family="Helvetica,sans-Serif" font-size="10.00">::_init_sensor</text>
</a>
</g>
</g>
<!-- Node86&#45;&gt;Node108 -->
<g id="edge25" class="edge"><title>Node86&#45;&gt;Node108</title>
<path fill="none" stroke="midnightblue" d="M1159.48,-383.013C1141.79,-403.836 1110.05,-437.823 1076,-458 1069.65,-461.764 1062.69,-465.05 1055.6,-467.901"/>
<polygon fill="midnightblue" stroke="midnightblue" points="1162.25,-385.153 1165.95,-375.227 1156.87,-380.677 1162.25,-385.153"/>
</g>
<!-- Node110 -->
<g id="node25" class="node"><title>Node110</title>
<g id="a_node25"><a xlink:href="classAP__InertialSensor__LSM9DS0.html#a62227996a40da07a9733ace45b6b0c71" target="_top" xlink:title=" ">
<polygon fill="white" stroke="black" points="920.131,-417 920.131,-449 1067.87,-449 1067.87,-417 920.131,-417"/>
<text text-anchor="start" x="928.131" y="-435" font-family="Helvetica,sans-Serif" font-size="10.00">AP_InertialSensor_LSM9DS0</text>
<text text-anchor="middle" x="994" y="-423" font-family="Helvetica,sans-Serif" font-size="10.00">::_init_sensor</text>
</a>
</g>
</g>
<!-- Node86&#45;&gt;Node110 -->
<g id="edge28" class="edge"><title>Node86&#45;&gt;Node110</title>
<path fill="none" stroke="midnightblue" d="M1138.2,-378.599C1109.07,-389.668 1067.88,-405.313 1037.15,-416.986"/>
<polygon fill="midnightblue" stroke="midnightblue" points="1139.48,-381.857 1147.59,-375.034 1137,-375.313 1139.48,-381.857"/>
</g>
<!-- Node112 -->
<g id="node27" class="node"><title>Node112</title>
<g id="a_node27"><a xlink:href="classLinux_1_1CameraSensor__Mt9v117.html#a670cb690c11f5b6cbd61db4b40e07574" target="_top" xlink:title=" ">
<polygon fill="white" stroke="black" points="934.672,-327 934.672,-359 1053.33,-359 1053.33,-327 934.672,-327"/>
<text text-anchor="start" x="942.672" y="-345" font-family="Helvetica,sans-Serif" font-size="10.00">Linux::CameraSensor</text>
<text text-anchor="middle" x="994" y="-333" font-family="Helvetica,sans-Serif" font-size="10.00">_Mt9v117::_init_sensor</text>
</a>
</g>
</g>
<!-- Node86&#45;&gt;Node112 -->
<g id="edge31" class="edge"><title>Node86&#45;&gt;Node112</title>
<path fill="none" stroke="midnightblue" d="M1102.21,-356.176C1086.05,-354.19 1069.08,-352.105 1053.54,-350.195"/>
<polygon fill="midnightblue" stroke="midnightblue" points="1101.8,-359.652 1112.15,-357.398 1102.65,-352.704 1101.8,-359.652"/>
</g>
<!-- Node114 -->
<g id="node29" class="node"><title>Node114</title>
<g id="a_node29"><a xlink:href="classDiscreteRGBLed.html#a496120d486b4af0b90e30fc6b79832ad" target="_top" xlink:title=" ">
<polygon fill="white" stroke="black" points="930.143,-288 930.143,-308 1057.86,-308 1057.86,-288 930.143,-288"/>
<text text-anchor="middle" x="994" y="-294" font-family="Helvetica,sans-Serif" font-size="10.00">DiscreteRGBLed::hw_init</text>
</a>
</g>
</g>
<!-- Node86&#45;&gt;Node114 -->
<g id="edge33" class="edge"><title>Node86&#45;&gt;Node114</title>
<path fill="none" stroke="midnightblue" d="M1147.64,-350.067C1128.31,-339.619 1101.15,-325.978 1076,-317 1066.34,-313.552 1055.81,-310.555 1045.63,-308.024"/>
<polygon fill="midnightblue" stroke="midnightblue" points="1146.01,-353.165 1156.46,-354.906 1149.38,-347.028 1146.01,-353.165"/>
</g>
<!-- Node115 -->
<g id="node30" class="node"><title>Node115</title>
<g id="a_node30"><a xlink:href="classLinux_1_1RCOutput__PCA9685.html#a3dd80dc4c212369c788655a337afa18e" target="_top" xlink:title=" ">
<polygon fill="white" stroke="black" points="924.853,-237 924.853,-269 1063.15,-269 1063.15,-237 924.853,-237"/>
<text text-anchor="start" x="932.853" y="-255" font-family="Helvetica,sans-Serif" font-size="10.00">Linux::RCOutput_PCA9685</text>
<text text-anchor="middle" x="994" y="-243" font-family="Helvetica,sans-Serif" font-size="10.00">::init</text>
</a>
</g>
</g>
<!-- Node86&#45;&gt;Node115 -->
<g id="edge34" class="edge"><title>Node86&#45;&gt;Node115</title>
<path fill="none" stroke="midnightblue" d="M1158.46,-347.259C1140.44,-327.7 1108.96,-296.553 1076,-278 1070.1,-274.679 1063.71,-271.745 1057.18,-269.165"/>
<polygon fill="midnightblue" stroke="midnightblue" points="1156.03,-349.786 1165.33,-354.862 1161.22,-345.094 1156.03,-349.786"/>
</g>
<!-- Node116 -->
<g id="node31" class="node"><title>Node116</title>
<g id="a_node31"><a xlink:href="classAP__Compass__LSM303D.html#a8a56627c6487fbc701c4865f48e3edf4" target="_top" xlink:title=" ">
<polygon fill="white" stroke="black" points="730.417,-366 730.417,-398 857.583,-398 857.583,-366 730.417,-366"/>
<text text-anchor="start" x="738.417" y="-384" font-family="Helvetica,sans-Serif" font-size="10.00">AP_Compass_LSM303D</text>
<text text-anchor="middle" x="794" y="-372" font-family="Helvetica,sans-Serif" font-size="10.00">::init</text>
</a>
</g>
</g>
<!-- Node86&#45;&gt;Node116 -->
<g id="edge35" class="edge"><title>Node86&#45;&gt;Node116</title>
<path fill="none" stroke="midnightblue" d="M1101.7,-368.243C1031.16,-371.407 924.938,-376.172 857.825,-379.182"/>
<polygon fill="midnightblue" stroke="midnightblue" points="1102.01,-371.733 1111.84,-367.788 1101.69,-364.74 1102.01,-371.733"/>
</g>
<!-- Node118 -->
<g id="node33" class="node"><title>Node118</title>
<g id="a_node33"><a xlink:href="classLinux_1_1RCInput__RPI.html#ac34587203d7c12cc5108df789b9479ce" target="_top" xlink:title=" ">
<polygon fill="white" stroke="black" points="941.811,-186 941.811,-218 1046.19,-218 1046.19,-186 941.811,-186"/>
<text text-anchor="start" x="949.811" y="-204" font-family="Helvetica,sans-Serif" font-size="10.00">Linux::RCInput_RPI</text>
<text text-anchor="middle" x="994" y="-192" font-family="Helvetica,sans-Serif" font-size="10.00">::init</text>
</a>
</g>
</g>
<!-- Node86&#45;&gt;Node118 -->
<g id="edge38" class="edge"><title>Node86&#45;&gt;Node118</title>
<path fill="none" stroke="midnightblue" d="M1165.36,-345.611C1151.05,-315.731 1119.66,-258.587 1076,-227 1067.18,-220.616 1056.69,-215.834 1046.23,-212.261"/>
<polygon fill="midnightblue" stroke="midnightblue" points="1162.31,-347.358 1169.69,-354.956 1168.66,-344.411 1162.31,-347.358"/>
</g>
<!-- Node119 -->
<g id="node34" class="node"><title>Node119</title>
<g id="a_node34"><a xlink:href="classLinux_1_1SPIDevice.html#acbdde2e0e470c7eb2794a6efe727b1db" target="_top" xlink:title=" ">
<polygon fill="white" stroke="black" points="921.806,-147 921.806,-167 1066.19,-167 1066.19,-147 921.806,-147"/>
<text text-anchor="middle" x="994" y="-153" font-family="Helvetica,sans-Serif" font-size="10.00">Linux::SPIDevice::SPIDevice</text>
</a>
</g>
</g>
<!-- Node86&#45;&gt;Node119 -->
<g id="edge39" class="edge"><title>Node86&#45;&gt;Node119</title>
<path fill="none" stroke="midnightblue" d="M1169.48,-344.78C1159.65,-305.752 1132.54,-220.013 1076,-176 1071.44,-172.451 1066.33,-169.547 1060.95,-167.174"/>
<polygon fill="midnightblue" stroke="midnightblue" points="1166.16,-345.975 1171.89,-354.887 1172.97,-344.347 1166.16,-345.975"/>
</g>
<!-- Node120 -->
<g id="node35" class="node"><title>Node120</title>
<g id="a_node35"><a xlink:href="GPIOTest_8cpp.html#aaaf9a61ce8f7b81f01a998d6690fa243" target="_top" xlink:title=" ">
<polygon fill="white" stroke="black" points="952.084,-108 952.084,-128 1035.92,-128 1035.92,-108 952.084,-108"/>
<text text-anchor="middle" x="994" y="-114" font-family="Helvetica,sans-Serif" font-size="10.00">test_gpio_input</text>
</a>
</g>
</g>
<!-- Node86&#45;&gt;Node120 -->
<g id="edge40" class="edge"><title>Node86&#45;&gt;Node120</title>
<path fill="none" stroke="midnightblue" d="M1171.42,-344.736C1164.62,-299.971 1141.91,-192.251 1076,-137 1064.93,-127.721 1050.15,-122.792 1036.25,-120.231"/>
<polygon fill="midnightblue" stroke="midnightblue" points="1168,-345.505 1172.86,-354.919 1174.93,-344.529 1168,-345.505"/>
</g>
<!-- Node123 -->
<g id="node38" class="node"><title>Node123</title>
<g id="a_node38"><a xlink:href="GPIOTest_8cpp.html#a865a1031a902ba4cdd4b1b9031939cd8" target="_top" xlink:title=" ">
<polygon fill="white" stroke="black" points="949.025,-57 949.025,-77 1038.98,-77 1038.98,-57 949.025,-57"/>
<text text-anchor="middle" x="994" y="-63" font-family="Helvetica,sans-Serif" font-size="10.00">test_gpio_output</text>
</a>
</g>
</g>
<!-- Node86&#45;&gt;Node123 -->
<g id="edge43" class="edge"><title>Node86&#45;&gt;Node123</title>
<path fill="none" stroke="midnightblue" d="M1172.21,-344.734C1166.81,-295.698 1146.46,-169.437 1076,-98 1066.06,-87.9232 1052.5,-81.067 1039.32,-76.4248"/>
<polygon fill="midnightblue" stroke="midnightblue" points="1168.75,-345.37 1173.23,-354.971 1175.72,-344.671 1168.75,-345.37"/>
</g>
<!-- Node88 -->
<g id="node3" class="node"><title>Node88</title>
<g id="a_node3"><a xlink:href="classAP__InertialSensor__BMI160.html#a786f5fe4d157ea0a2313c702402b58c5" target="_top" xlink:title=" ">
<polygon fill="white" stroke="black" points="725.688,-660 725.688,-692 862.312,-692 862.312,-660 725.688,-660"/>
<text text-anchor="start" x="733.688" y="-678" font-family="Helvetica,sans-Serif" font-size="10.00">AP_InertialSensor_BMI160</text>
<text text-anchor="middle" x="794" y="-666" font-family="Helvetica,sans-Serif" font-size="10.00">::start</text>
</a>
</g>
</g>
<!-- Node87&#45;&gt;Node88 -->
<g id="edge2" class="edge"><title>Node87&#45;&gt;Node88</title>
<path fill="none" stroke="midnightblue" d="M915.292,-676C897.892,-676 879.57,-676 862.618,-676"/>
<polygon fill="midnightblue" stroke="midnightblue" points="915.413,-679.5 925.413,-676 915.413,-672.5 915.413,-679.5"/>
</g>
<!-- Node90 -->
<g id="node5" class="node"><title>Node90</title>
<g id="a_node5"><a xlink:href="classAP__Baro__BMP085.html#a69c38a5c48eee9438899195eb66cbaaf" target="_top" xlink:title=" ">
<polygon fill="white" stroke="black" points="728.463,-621 728.463,-641 859.537,-641 859.537,-621 728.463,-621"/>
<text text-anchor="middle" x="794" y="-627" font-family="Helvetica,sans-Serif" font-size="10.00">AP_Baro_BMP085::probe</text>
</a>
</g>
</g>
<!-- Node89&#45;&gt;Node90 -->
<g id="edge4" class="edge"><title>Node89&#45;&gt;Node90</title>
<path fill="none" stroke="midnightblue" d="M921.843,-631C901.523,-631 879.499,-631 859.595,-631"/>
<polygon fill="midnightblue" stroke="midnightblue" points="921.978,-634.5 931.978,-631 921.978,-627.5 921.978,-634.5"/>
</g>
<!-- Node91 -->
<g id="node6" class="node"><title>Node91</title>
<g id="a_node6"><a xlink:href="classAP__Baro.html#a4bfd06fe28cf3a7bc6df55bc159c8dff" target="_top" xlink:title=" ">
<polygon fill="white" stroke="black" points="556.468,-592 556.468,-624 667.532,-624 667.532,-592 556.468,-592"/>
<text text-anchor="start" x="564.468" y="-610" font-family="Helvetica,sans-Serif" font-size="10.00">AP_Baro::_probe_i2c</text>
<text text-anchor="middle" x="612" y="-598" font-family="Helvetica,sans-Serif" font-size="10.00">_barometers</text>
</a>
</g>
</g>
<!-- Node90&#45;&gt;Node91 -->
<g id="edge5" class="edge"><title>Node90&#45;&gt;Node91</title>
<path fill="none" stroke="midnightblue" d="M717.896,-621.403C701.05,-619.251 683.488,-617.007 667.66,-614.984"/>
<polygon fill="midnightblue" stroke="midnightblue" points="717.907,-624.933 728.27,-622.729 718.794,-617.99 717.907,-624.933"/>
</g>
<!-- Node92 -->
<g id="node7" class="node"><title>Node92</title>
<g id="a_node7"><a xlink:href="classAP__Baro.html#a942db790233528bfbb4d9a07c3454360" target="_top" xlink:title=" ">
<polygon fill="white" stroke="black" points="412.818,-620 412.818,-640 487.182,-640 487.182,-620 412.818,-620"/>
<text text-anchor="middle" x="450" y="-626" font-family="Helvetica,sans-Serif" font-size="10.00">AP_Baro::init</text>
</a>
</g>
</g>
<!-- Node90&#45;&gt;Node92 -->
<g id="edge8" class="edge"><title>Node90&#45;&gt;Node92</title>
<path fill="none" stroke="midnightblue" d="M718.159,-632.527C669.643,-633.29 605.078,-633.882 548,-633 527.953,-632.69 505.584,-632.02 487.383,-631.392"/>
<polygon fill="midnightblue" stroke="midnightblue" points="718.318,-636.025 728.259,-632.362 718.204,-629.025 718.318,-636.025"/>
</g>
<!-- Node91&#45;&gt;Node92 -->
<g id="edge6" class="edge"><title>Node91&#45;&gt;Node92</title>
<path fill="none" stroke="midnightblue" d="M546.326,-616.893C526.203,-619.66 504.736,-622.611 487.278,-625.012"/>
<polygon fill="midnightblue" stroke="midnightblue" points="546.955,-620.339 556.385,-615.51 546.001,-613.405 546.955,-620.339"/>
</g>
<!-- Node93 -->
<g id="node8" class="node"><title>Node93</title>
<g id="a_node8"><a xlink:href="BARO__generic_8cpp.html#a4fc01d736fe50cf5b977f755b675f11d" target="_top" xlink:title=" ">
<polygon fill="white" stroke="black" points="258.769,-620 258.769,-640 299.231,-640 299.231,-620 258.769,-620"/>
<text text-anchor="middle" x="279" y="-626" font-family="Helvetica,sans-Serif" font-size="10.00">setup</text>
</a>
</g>
</g>
<!-- Node92&#45;&gt;Node93 -->
<g id="edge7" class="edge"><title>Node92&#45;&gt;Node93</title>
<path fill="none" stroke="midnightblue" d="M402.582,-630C368.655,-630 324.373,-630 299.38,-630"/>
<polygon fill="midnightblue" stroke="midnightblue" points="402.745,-633.5 412.745,-630 402.745,-626.5 402.745,-633.5"/>
</g>
<!-- Node95 -->
<g id="node10" class="node"><title>Node95</title>
<g id="a_node10"><a xlink:href="classAP__InertialSensor__Invensensev2.html#ad53b8716bfefc867bfb3d453312708d1" target="_top" xlink:title=" ">
<polygon fill="white" stroke="black" points="712.064,-570 712.064,-602 875.936,-602 875.936,-570 712.064,-570"/>
<text text-anchor="start" x="720.064" y="-588" font-family="Helvetica,sans-Serif" font-size="10.00">AP_InertialSensor_Invensensev2</text>
<text text-anchor="middle" x="794" y="-576" font-family="Helvetica,sans-Serif" font-size="10.00">::probe</text>
</a>
</g>
</g>
<!-- Node94&#45;&gt;Node95 -->
<g id="edge10" class="edge"><title>Node94&#45;&gt;Node95</title>
<path fill="none" stroke="midnightblue" d="M901.824,-586C893.201,-586 884.498,-586 875.979,-586"/>
<polygon fill="midnightblue" stroke="midnightblue" points="901.895,-589.5 911.895,-586 901.894,-582.5 901.895,-589.5"/>
</g>
<!-- Node96 -->
<g id="node11" class="node"><title>Node96</title>
<g id="a_node11"><a xlink:href="classAP__InertialSensor.html#a8967734e82a4f472c6d8ddd8db656804" target="_top" xlink:title=" ">
<polygon fill="white" stroke="black" points="560.921,-468 560.921,-500 663.079,-500 663.079,-468 560.921,-468"/>
<text text-anchor="start" x="568.921" y="-486" font-family="Helvetica,sans-Serif" font-size="10.00">AP_InertialSensor::</text>
<text text-anchor="middle" x="612" y="-474" font-family="Helvetica,sans-Serif" font-size="10.00">detect_backends</text>
</a>
</g>
</g>
<!-- Node95&#45;&gt;Node96 -->
<g id="edge11" class="edge"><title>Node95&#45;&gt;Node96</title>
<path fill="none" stroke="midnightblue" d="M725.122,-566.167C720.609,-564.253 716.194,-562.198 712,-560 680.524,-543.507 648.747,-516.955 629.972,-500.001"/>
<polygon fill="midnightblue" stroke="midnightblue" points="723.901,-569.448 734.487,-569.897 726.492,-562.945 723.901,-569.448"/>
</g>
<!-- Node97 -->
<g id="node12" class="node"><title>Node97</title>
<g id="a_node12"><a xlink:href="classAP__InertialSensor.html#a9949b7e301b0d7a5f3e59385d2e8d97a" target="_top" xlink:title=" ">
<polygon fill="white" stroke="black" points="398.921,-518 398.921,-550 501.079,-550 501.079,-518 398.921,-518"/>
<text text-anchor="start" x="406.921" y="-536" font-family="Helvetica,sans-Serif" font-size="10.00">AP_InertialSensor::</text>
<text text-anchor="middle" x="450" y="-524" font-family="Helvetica,sans-Serif" font-size="10.00">_start_backends</text>
</a>
</g>
</g>
<!-- Node96&#45;&gt;Node97 -->
<g id="edge12" class="edge"><title>Node96&#45;&gt;Node97</title>
<path fill="none" stroke="midnightblue" d="M550.827,-502.804C534.502,-507.906 517,-513.375 501.283,-518.287"/>
<polygon fill="midnightblue" stroke="midnightblue" points="552.313,-506.007 560.814,-499.683 550.225,-499.325 552.313,-506.007"/>
</g>
<!-- Node102 -->
<g id="node17" class="node"><title>Node102</title>
<g id="a_node17"><a xlink:href="classAP__InertialSensor.html#ad649def5689aecaebca16cf910d77fd8" target="_top" xlink:title=" ">
<polygon fill="white" stroke="black" points="398.921,-416 398.921,-448 501.079,-448 501.079,-416 398.921,-416"/>
<text text-anchor="start" x="406.921" y="-434" font-family="Helvetica,sans-Serif" font-size="10.00">AP_InertialSensor::</text>
<text text-anchor="middle" x="450" y="-422" font-family="Helvetica,sans-Serif" font-size="10.00">get_auxiliary_bus</text>
</a>
</g>
</g>
<!-- Node96&#45;&gt;Node102 -->
<g id="edge17" class="edge"><title>Node96&#45;&gt;Node102</title>
<path fill="none" stroke="midnightblue" d="M551.903,-464.793C534.975,-459.292 516.705,-453.354 500.423,-448.063"/>
<polygon fill="midnightblue" stroke="midnightblue" points="551.097,-468.212 561.689,-467.974 553.261,-461.554 551.097,-468.212"/>
</g>
<!-- Node103 -->
<g id="node18" class="node"><title>Node103</title>
<g id="a_node18"><a xlink:href="classAP__Compass__AK8963.html#a0e8c9e0c82de409e0225fc81ed4ed6db" target="_top" xlink:title=" ">
<polygon fill="white" stroke="black" points="388.079,-467 388.079,-499 511.921,-499 511.921,-467 388.079,-467"/>
<text text-anchor="start" x="396.079" y="-485" font-family="Helvetica,sans-Serif" font-size="10.00">AP_Compass_AK8963::</text>
<text text-anchor="middle" x="450" y="-473" font-family="Helvetica,sans-Serif" font-size="10.00">probe_mpu9250</text>
</a>
</g>
</g>
<!-- Node96&#45;&gt;Node103 -->
<g id="edge18" class="edge"><title>Node96&#45;&gt;Node103</title>
<path fill="none" stroke="midnightblue" d="M550.807,-483.624C538.107,-483.544 524.695,-483.461 511.966,-483.381"/>
<polygon fill="midnightblue" stroke="midnightblue" points="550.792,-487.124 560.814,-483.686 550.836,-480.124 550.792,-487.124"/>
</g>
<!-- Node98 -->
<g id="node13" class="node"><title>Node98</title>
<g id="a_node13"><a xlink:href="classAP__InertialSensor.html#a741065b13832b5e4c90bbae17519c0ad" target="_top" xlink:title=" ">
<polygon fill="white" stroke="black" points="221.53,-524 221.53,-544 336.47,-544 336.47,-524 221.53,-524"/>
<text text-anchor="middle" x="279" y="-530" font-family="Helvetica,sans-Serif" font-size="10.00">AP_InertialSensor::init</text>
</a>
</g>
</g>
<!-- Node97&#45;&gt;Node98 -->
<g id="edge13" class="edge"><title>Node97&#45;&gt;Node98</title>
<path fill="none" stroke="midnightblue" d="M388.434,-534C371.53,-534 353.233,-534 336.569,-534"/>
<polygon fill="midnightblue" stroke="midnightblue" points="388.752,-537.5 398.752,-534 388.752,-530.5 388.752,-537.5"/>
</g>
<!-- Node99 -->
<g id="node14" class="node"><title>Node99</title>
<g id="a_node14"><a xlink:href="AHRS__Test_8cpp.html#a4fc01d736fe50cf5b977f755b675f11d" target="_top" xlink:title=" ">
<polygon fill="white" stroke="black" points="-0.231445,-480 -0.231445,-500 40.2314,-500 40.2314,-480 -0.231445,-480"/>
<text text-anchor="middle" x="20" y="-486" font-family="Helvetica,sans-Serif" font-size="10.00">setup</text>
</a>
</g>
</g>
<!-- Node98&#45;&gt;Node99 -->
<g id="edge14" class="edge"><title>Node98&#45;&gt;Node99</title>
<path fill="none" stroke="midnightblue" d="M211.28,-522.577C154.401,-512.839 76.3296,-499.473 40.46,-493.332"/>
<polygon fill="midnightblue" stroke="midnightblue" points="210.835,-526.052 221.282,-524.29 212.016,-519.152 210.835,-526.052"/>
</g>
<!-- Node100 -->
<g id="node15" class="node"><title>Node100</title>
<g id="a_node15"><a xlink:href="classSchedTest.html#ae9afb73f76391e34d47286a516fe5292" target="_top" xlink:title=" ">
<polygon fill="white" stroke="black" points="76.6431,-538 76.6431,-558 169.357,-558 169.357,-538 76.6431,-538"/>
<text text-anchor="middle" x="123" y="-544" font-family="Helvetica,sans-Serif" font-size="10.00">SchedTest::setup</text>
</a>
</g>
</g>
<!-- Node98&#45;&gt;Node100 -->
<g id="edge15" class="edge"><title>Node98&#45;&gt;Node100</title>
<path fill="none" stroke="midnightblue" d="M211.02,-540.089C197.04,-541.36 182.611,-542.672 169.621,-543.853"/>
<polygon fill="midnightblue" stroke="midnightblue" points="211.452,-543.564 221.094,-539.173 210.818,-536.593 211.452,-543.564"/>
</g>
<!-- Node101 -->
<g id="node16" class="node"><title>Node101</title>
<g id="a_node16"><a xlink:href="Scheduler__test_8cpp.html#a7dfd9b79bc5a37d7df40207afbc5431f" target="_top" xlink:title=" ">
<polygon fill="white" stroke="black" points="-0.231445,-538 -0.231445,-558 40.2314,-558 40.2314,-538 -0.231445,-538"/>
<text text-anchor="middle" x="20" y="-544" font-family="Helvetica,sans-Serif" font-size="10.00">setup</text>
</a>
</g>
</g>
<!-- Node100&#45;&gt;Node101 -->
<g id="edge16" class="edge"><title>Node100&#45;&gt;Node101</title>
<path fill="none" stroke="midnightblue" d="M66.3961,-548C57.0922,-548 48.0218,-548 40.4654,-548"/>
<polygon fill="midnightblue" stroke="midnightblue" points="66.5229,-551.5 76.5229,-548 66.5228,-544.5 66.5229,-551.5"/>
</g>
<!-- Node104 -->
<g id="node19" class="node"><title>Node104</title>
<g id="a_node19"><a xlink:href="classCompass.html#a1c48170d8c8966b22fb150b1634443ec" target="_top" xlink:title=" ">
<polygon fill="white" stroke="black" points="206.518,-460 206.518,-480 351.482,-480 351.482,-460 206.518,-460"/>
<text text-anchor="middle" x="279" y="-466" font-family="Helvetica,sans-Serif" font-size="10.00">Compass::_detect_backends</text>
</a>
</g>
</g>
<!-- Node103&#45;&gt;Node104 -->
<g id="edge19" class="edge"><title>Node103&#45;&gt;Node104</title>
<path fill="none" stroke="midnightblue" d="M377.88,-477.529C369.175,-476.86 360.276,-476.175 351.564,-475.505"/>
<polygon fill="midnightblue" stroke="midnightblue" points="377.748,-481.029 387.987,-478.307 378.285,-474.05 377.748,-481.029"/>
</g>
<!-- Node105 -->
<g id="node20" class="node"><title>Node105</title>
<g id="a_node20"><a xlink:href="classCompass.html#a79db6bfd3fe309c6258d783f126326c6" target="_top" xlink:title=" ">
<polygon fill="white" stroke="black" points="84.7119,-460 84.7119,-480 161.288,-480 161.288,-460 84.7119,-460"/>
<text text-anchor="middle" x="123" y="-466" font-family="Helvetica,sans-Serif" font-size="10.00">Compass::init</text>
</a>
</g>
</g>
<!-- Node104&#45;&gt;Node105 -->
<g id="edge20" class="edge"><title>Node104&#45;&gt;Node105</title>
<path fill="none" stroke="midnightblue" d="M196.188,-470C184.032,-470 172.037,-470 161.42,-470"/>
<polygon fill="midnightblue" stroke="midnightblue" points="196.41,-473.5 206.41,-470 196.41,-466.5 196.41,-473.5"/>
</g>
<!-- Node105&#45;&gt;Node99 -->
<g id="edge21" class="edge"><title>Node105&#45;&gt;Node99</title>
<path fill="none" stroke="midnightblue" d="M74.6155,-479.383C62.4954,-481.783 50.1351,-484.231 40.3413,-486.17"/>
<polygon fill="midnightblue" stroke="midnightblue" points="75.5487,-482.766 84.6783,-477.39 74.1889,-475.9 75.5487,-482.766"/>
</g>
<!-- Node107 -->
<g id="node22" class="node"><title>Node107</title>
<g id="a_node22"><a xlink:href="classAP__InertialSensor__Invensense.html#a8097ce7e76464929d323cfc339ed4ac4" target="_top" xlink:title=" ">
<polygon fill="white" stroke="black" points="717.345,-519 717.345,-551 870.655,-551 870.655,-519 717.345,-519"/>
<text text-anchor="start" x="725.345" y="-537" font-family="Helvetica,sans-Serif" font-size="10.00">AP_InertialSensor_Invensense</text>
<text text-anchor="middle" x="794" y="-525" font-family="Helvetica,sans-Serif" font-size="10.00">::probe</text>
</a>
</g>
</g>
<!-- Node106&#45;&gt;Node107 -->
<g id="edge23" class="edge"><title>Node106&#45;&gt;Node107</title>
<path fill="none" stroke="midnightblue" d="M907.171,-535C895.02,-535 882.6,-535 870.661,-535"/>
<polygon fill="midnightblue" stroke="midnightblue" points="907.297,-538.5 917.297,-535 907.297,-531.5 907.297,-538.5"/>
</g>
<!-- Node107&#45;&gt;Node96 -->
<g id="edge24" class="edge"><title>Node107&#45;&gt;Node96</title>
<path fill="none" stroke="midnightblue" d="M726.283,-516.097C705.407,-510.182 682.737,-503.759 663.2,-498.223"/>
<polygon fill="midnightblue" stroke="midnightblue" points="725.471,-519.505 736.047,-518.863 727.38,-512.77 725.471,-519.505"/>
</g>
<!-- Node109 -->
<g id="node24" class="node"><title>Node109</title>
<g id="a_node24"><a xlink:href="classAP__InertialSensor__LSM9DS1.html#a3386e4a8a70178a7fe93f8f7c537d50b" target="_top" xlink:title=" ">
<polygon fill="white" stroke="black" points="720.131,-468 720.131,-500 867.869,-500 867.869,-468 720.131,-468"/>
<text text-anchor="start" x="728.131" y="-486" font-family="Helvetica,sans-Serif" font-size="10.00">AP_InertialSensor_LSM9DS1</text>
<text text-anchor="middle" x="794" y="-474" font-family="Helvetica,sans-Serif" font-size="10.00">::probe</text>
</a>
</g>
</g>
<!-- Node108&#45;&gt;Node109 -->
<g id="edge26" class="edge"><title>Node108&#45;&gt;Node109</title>
<path fill="none" stroke="midnightblue" d="M910.056,-484C896.112,-484 881.732,-484 868.061,-484"/>
<polygon fill="midnightblue" stroke="midnightblue" points="910.116,-487.5 920.116,-484 910.116,-480.5 910.116,-487.5"/>
</g>
<!-- Node109&#45;&gt;Node96 -->
<g id="edge27" class="edge"><title>Node109&#45;&gt;Node96</title>
<path fill="none" stroke="midnightblue" d="M709.668,-484C693.782,-484 677.617,-484 663.168,-484"/>
<polygon fill="midnightblue" stroke="midnightblue" points="710.047,-487.5 720.047,-484 710.047,-480.5 710.047,-487.5"/>
</g>
<!-- Node111 -->
<g id="node26" class="node"><title>Node111</title>
<g id="a_node26"><a xlink:href="classAP__InertialSensor__LSM9DS0.html#a47ae2f91f700f8d46b7f6de80ac77eab" target="_top" xlink:title=" ">
<polygon fill="white" stroke="black" points="720.131,-417 720.131,-449 867.869,-449 867.869,-417 720.131,-417"/>
<text text-anchor="start" x="728.131" y="-435" font-family="Helvetica,sans-Serif" font-size="10.00">AP_InertialSensor_LSM9DS0</text>
<text text-anchor="middle" x="794" y="-423" font-family="Helvetica,sans-Serif" font-size="10.00">::probe</text>
</a>
</g>
</g>
<!-- Node110&#45;&gt;Node111 -->
<g id="edge29" class="edge"><title>Node110&#45;&gt;Node111</title>
<path fill="none" stroke="midnightblue" d="M910.056,-433C896.112,-433 881.732,-433 868.061,-433"/>
<polygon fill="midnightblue" stroke="midnightblue" points="910.116,-436.5 920.116,-433 910.116,-429.5 910.116,-436.5"/>
</g>
<!-- Node111&#45;&gt;Node96 -->
<g id="edge30" class="edge"><title>Node111&#45;&gt;Node96</title>
<path fill="none" stroke="midnightblue" d="M726.283,-451.903C705.407,-457.818 682.737,-464.241 663.2,-469.777"/>
<polygon fill="midnightblue" stroke="midnightblue" points="727.38,-455.23 736.047,-449.137 725.471,-448.495 727.38,-455.23"/>
</g>
<!-- Node113 -->
<g id="node28" class="node"><title>Node113</title>
<g id="a_node28"><a xlink:href="classLinux_1_1CameraSensor__Mt9v117.html#a4ca64405fd0ece45d76b844a14eb2f5f" target="_top" xlink:title=" ">
<polygon fill="white" stroke="black" points="728.007,-303 728.007,-347 859.993,-347 859.993,-303 728.007,-303"/>
<text text-anchor="start" x="736.007" y="-333" font-family="Helvetica,sans-Serif" font-size="10.00">Linux::CameraSensor</text>
<text text-anchor="start" x="736.007" y="-321" font-family="Helvetica,sans-Serif" font-size="10.00">_Mt9v117::CameraSensor</text>
<text text-anchor="middle" x="794" y="-309" font-family="Helvetica,sans-Serif" font-size="10.00">_Mt9v117</text>
</a>
</g>
</g>
<!-- Node112&#45;&gt;Node113 -->
<g id="edge32" class="edge"><title>Node112&#45;&gt;Node113</title>
<path fill="none" stroke="midnightblue" d="M924.6,-336.782C903.732,-334.885 880.852,-332.805 860.201,-330.927"/>
<polygon fill="midnightblue" stroke="midnightblue" points="924.389,-340.277 934.664,-337.697 925.022,-333.306 924.389,-340.277"/>
</g>
<!-- Node117 -->
<g id="node32" class="node"><title>Node117</title>
<g id="a_node32"><a xlink:href="classAP__Compass__LSM303D.html#a1633f14eb14b05dd82600ce9cc7827ec" target="_top" xlink:title=" ">
<polygon fill="white" stroke="black" points="548.417,-367 548.417,-399 675.583,-399 675.583,-367 548.417,-367"/>
<text text-anchor="start" x="556.417" y="-385" font-family="Helvetica,sans-Serif" font-size="10.00">AP_Compass_LSM303D</text>
<text text-anchor="middle" x="612" y="-373" font-family="Helvetica,sans-Serif" font-size="10.00">::probe</text>
</a>
</g>
</g>
<!-- Node116&#45;&gt;Node117 -->
<g id="edge36" class="edge"><title>Node116&#45;&gt;Node117</title>
<path fill="none" stroke="midnightblue" d="M720.224,-382.404C705.497,-382.486 690.13,-382.571 675.783,-382.651"/>
<polygon fill="midnightblue" stroke="midnightblue" points="720.317,-385.904 730.297,-382.348 720.278,-378.904 720.317,-385.904"/>
</g>
<!-- Node117&#45;&gt;Node104 -->
<g id="edge37" class="edge"><title>Node117&#45;&gt;Node104</title>
<path fill="none" stroke="midnightblue" d="M537.856,-382.671C493.509,-384.385 436.346,-390.04 388,-406 350.54,-418.367 312.062,-445.239 292.732,-459.924"/>
<polygon fill="midnightblue" stroke="midnightblue" points="538.096,-386.165 547.976,-382.339 537.867,-379.169 538.096,-386.165"/>
</g>
<!-- Node121 -->
<g id="node36" class="node"><title>Node121</title>
<g id="a_node36"><a xlink:href="classMenuCommands.html#ab97bad97421a00be4e3cbeac2025ad26" target="_top" xlink:title=" ">
<polygon fill="white" stroke="black" points="735.697,-153 735.697,-185 852.303,-185 852.303,-153 735.697,-153"/>
<text text-anchor="start" x="743.697" y="-171" font-family="Helvetica,sans-Serif" font-size="10.00">MenuCommands::gpio</text>
<text text-anchor="middle" x="794" y="-159" font-family="Helvetica,sans-Serif" font-size="10.00">_input</text>
</a>
</g>
</g>
<!-- Node120&#45;&gt;Node121 -->
<g id="edge41" class="edge"><title>Node120&#45;&gt;Node121</title>
<path fill="none" stroke="midnightblue" d="M941.944,-129.676C931.997,-132.036 921.66,-134.547 912,-137 892.406,-141.976 871.054,-147.72 852.018,-152.956"/>
<polygon fill="midnightblue" stroke="midnightblue" points="942.79,-133.073 951.722,-127.375 941.186,-126.259 942.79,-133.073"/>
</g>
<!-- Node122 -->
<g id="node37" class="node"><title>Node122</title>
<g id="a_node37"><a xlink:href="classMenuCommands.html#af2f117fe69798ce05ef750b9ab49ef41" target="_top" xlink:title=" ">
<polygon fill="white" stroke="black" points="735.697,-102 735.697,-134 852.303,-134 852.303,-102 735.697,-102"/>
<text text-anchor="start" x="743.697" y="-120" font-family="Helvetica,sans-Serif" font-size="10.00">MenuCommands::gpio</text>
<text text-anchor="middle" x="794" y="-108" font-family="Helvetica,sans-Serif" font-size="10.00">_input_channel</text>
</a>
</g>
</g>
<!-- Node120&#45;&gt;Node122 -->
<g id="edge42" class="edge"><title>Node120&#45;&gt;Node122</title>
<path fill="none" stroke="midnightblue" d="M941.833,-118C914.489,-118 880.737,-118 852.49,-118"/>
<polygon fill="midnightblue" stroke="midnightblue" points="941.974,-121.5 951.974,-118 941.974,-114.5 941.974,-121.5"/>
</g>
<!-- Node124 -->
<g id="node39" class="node"><title>Node124</title>
<g id="a_node39"><a xlink:href="classMenuCommands.html#afa6d3a1a995a54eb412c25988fbe0fba" target="_top" xlink:title=" ">
<polygon fill="white" stroke="black" points="735.697,-51 735.697,-83 852.303,-83 852.303,-51 735.697,-51"/>
<text text-anchor="start" x="743.697" y="-69" font-family="Helvetica,sans-Serif" font-size="10.00">MenuCommands::gpio</text>
<text text-anchor="middle" x="794" y="-57" font-family="Helvetica,sans-Serif" font-size="10.00">_output</text>
</a>
</g>
</g>
<!-- Node123&#45;&gt;Node124 -->
<g id="edge44" class="edge"><title>Node123&#45;&gt;Node124</title>
<path fill="none" stroke="midnightblue" d="M938.25,-67C911.569,-67 879.49,-67 852.458,-67"/>
<polygon fill="midnightblue" stroke="midnightblue" points="938.565,-70.5001 948.565,-67 938.565,-63.5001 938.565,-70.5001"/>
</g>
<!-- Node125 -->
<g id="node40" class="node"><title>Node125</title>
<g id="a_node40"><a xlink:href="classMenuCommands.html#a1d7748272d4fc032e7a1a0d6dd85c8f2" target="_top" xlink:title=" ">
<polygon fill="white" stroke="black" points="735.697,-0 735.697,-32 852.303,-32 852.303,-0 735.697,-0"/>
<text text-anchor="start" x="743.697" y="-18" font-family="Helvetica,sans-Serif" font-size="10.00">MenuCommands::gpio</text>
<text text-anchor="middle" x="794" y="-6" font-family="Helvetica,sans-Serif" font-size="10.00">_output_channel</text>
</a>
</g>
</g>
<!-- Node123&#45;&gt;Node125 -->
<g id="edge45" class="edge"><title>Node123&#45;&gt;Node125</title>
<path fill="none" stroke="midnightblue" d="M944.008,-54.381C916.273,-47.237 881.436,-38.2638 852.421,-30.7904"/>
<polygon fill="midnightblue" stroke="midnightblue" points="943.325,-57.819 953.882,-56.924 945.071,-51.0403 943.325,-57.819"/>
</g>
</g>
</svg>
        <g id="navigator" transform="translate(0 0)" fill="#404254">
                <rect fill="#f2f5e9" fill-opacity="0.5" stroke="#606060" stroke-width=".5" x="0" y="0" width="60" height="60"/>
                <use id="zoomplus" xlink:href="#zoomPlus" x="17" y="9" onmousedown="handleZoom(evt,'in')"/>
                <use id="zoomminus" xlink:href="#zoomMin" x="42" y="9" onmousedown="handleZoom(evt,'out')"/>
                <use id="reset" xlink:href="#resetDef" x="30" y="36" onmousedown="handleReset()"/>
                <g id="arrowUp" xlink:href="#dirArrow" transform="translate(30 24)" onmousedown="handlePan(0,-1)">
                  <use xlink:href="#rim" fill="#404040">
                        <set attributeName="fill" to="#808080" begin="arrowUp.mouseover" end="arrowUp.mouseout"/>
                  </use>
                  <path fill="none" stroke="white" stroke-width="1.5" d="M0,-3.0v7 M-2.5,-0.5L0,-3.0L2.5,-0.5"/>
                </g>
                <g id="arrowRight" xlink:href="#dirArrow" transform="rotate(90) translate(36 -43)" onmousedown="handlePan(1,0)">
                  <use xlink:href="#rim" fill="#404040">
                        <set attributeName="fill" to="#808080" begin="arrowRight.mouseover" end="arrowRight.mouseout"/>
                  </use>
                  <path fill="none" stroke="white" stroke-width="1.5" d="M0,-3.0v7 M-2.5,-0.5L0,-3.0L2.5,-0.5"/>
                </g>
                <g id="arrowDown" xlink:href="#dirArrow" transform="rotate(180) translate(-30 -48)" onmousedown="handlePan(0,1)">
                  <use xlink:href="#rim" fill="#404040">
                        <set attributeName="fill" to="#808080" begin="arrowDown.mouseover" end="arrowDown.mouseout"/>
                  </use>
                  <path fill="none" stroke="white" stroke-width="1.5" d="M0,-3.0v7 M-2.5,-0.5L0,-3.0L2.5,-0.5"/>
                </g>
                <g id="arrowLeft" xlink:href="#dirArrow" transform="rotate(270) translate(-36 17)" onmousedown="handlePan(-1,0)">
                  <use xlink:href="#rim" fill="#404040">
                        <set attributeName="fill" to="#808080" begin="arrowLeft.mouseover" end="arrowLeft.mouseout"/>
                  </use>
                  <path fill="none" stroke="white" stroke-width="1.5" d="M0,-3.0v7 M-2.5,-0.5L0,-3.0L2.5,-0.5"/>
                </g>
        </g>
        <svg viewBox="0 0 15 15" width="100%" height="30px" preserveAspectRatio="xMaxYMin meet">
         <g id="arrow_out" transform="scale(0.3 0.3)">
          <a xlink:href="classAP__HAL_1_1GPIO_a4e8955091af056240f447b68b76725bb_icgraph_org.svg" target="_base">
           <rect id="button" ry="5" rx="5" y="6" x="6" height="38" width="38"
                fill="#f2f5e9" fill-opacity="0.5" stroke="#606060" stroke-width="1.0"/>
           <path id="arrow"
             d="M 11.500037,31.436501 C 11.940474,20.09759 22.043105,11.32322 32.158766,21.979434 L 37.068811,17.246167 C 37.068811,17.246167 37.088388,32 37.088388,32 L 22.160133,31.978069 C 22.160133,31.978069 26.997745,27.140456 26.997745,27.140456 C 18.528582,18.264221 13.291696,25.230495 11.500037,31.436501 z"
             style="fill:#404040;"/>
          </a>
         </g>
        </svg>
</svg>
