<?xml version="1.0" encoding="UTF-8" standalone="no"?>
<!DOCTYPE svg PUBLIC "-//W3C//DTD SVG 1.1//EN"
 "http://www.w3.org/Graphics/SVG/1.1/DTD/svg11.dtd">
<!-- Generated by graphviz version 2.30.1 (20130221.2233)
 -->
<!-- Title: AP_Rally::set_rally_point_with_index Pages: 1 -->
<!--zoomable 140 -->
<svg id="main" version="1.1" xmlns="http://www.w3.org/2000/svg" xmlns:xlink="http://www.w3.org/1999/xlink" xml:space="preserve" onload="init(evt)">
<style type="text/css"><![CDATA[
.edge:hover path { stroke: red; }
.edge:hover polygon { stroke: red; fill: red; }
]]></style>
<script type="text/javascript"><![CDATA[
var edges = document.getElementsByTagName('g');
if (edges && edges.length) {
  for (var i=0;i<edges.length;i++) {
    if (edges[i].id.substr(0,4)=='edge') {
      edges[i].setAttribute('class','edge');
    }
  }
}
]]></script>
        <defs>
                <circle id="rim" cx="0" cy="0" r="7"/>
                <circle id="rim2" cx="0" cy="0" r="3.5"/>
                <g id="zoomPlus">
                        <use xlink:href="#rim" fill="#404040">
                                <set attributeName="fill" to="#808080" begin="zoomplus.mouseover" end="zoomplus.mouseout"/>
                        </use>
                        <path d="M-4,0h8M0,-4v8" fill="none" stroke="white" stroke-width="1.5" pointer-events="none"/>
                </g>
                <g id="zoomMin">
                        <use xlink:href="#rim" fill="#404040">
                                <set attributeName="fill" to="#808080" begin="zoomminus.mouseover" end="zoomminus.mouseout"/>
                        </use>
                        <path d="M-4,0h8" fill="none" stroke="white" stroke-width="1.5" pointer-events="none"/>
                </g>
                <g id="dirArrow">
                        <path fill="none" stroke="white" stroke-width="1.5" d="M0,-3.0v7 M-2.5,-0.5L0,-3.0L2.5,-0.5"/>
                </g>
               <g id="resetDef">
                       <use xlink:href="#rim2" fill="#404040">
                               <set attributeName="fill" to="#808080" begin="reset.mouseover" end="reset.mouseout"/>
                       </use>
               </g>
        </defs>

<script type="text/javascript">
var viewWidth = 590;
var viewHeight = 140;
var sectionId = 'dynsection-17';
</script>
<script xlink:href="svgpan.js"/>
<svg id="graph" class="graph">
<g id="viewport">
<title>AP_Rally::set_rally_point_with_index</title>
<polygon fill="white" stroke="white" points="-4,5 -4,-136 587,-136 587,5 -4,5"/>
<!-- Node223 -->
<g id="node1" class="node"><title>Node223</title>
<g id="a_node1"><a xlink:title=" ">
<polygon fill="#bfbfbf" stroke="black" points="482.04,-51 482.04,-83 581.96,-83 581.96,-51 482.04,-51"/>
<text text-anchor="start" x="490.04" y="-69" font-family="Helvetica,sans-Serif" font-size="10.00">AP_Rally::set_rally</text>
<text text-anchor="middle" x="532" y="-57" font-family="Helvetica,sans-Serif" font-size="10.00">_point_with_index</text>
</a>
</g>
</g>
<!-- Node224 -->
<g id="node2" class="node"><title>Node224</title>
<g id="a_node2"><a xlink:href="classAP__Rally.html#a4659da1b7d085328ace76c58135d4795" target="_top" xlink:title=" ">
<polygon fill="white" stroke="black" points="336.973,-103 336.973,-123 433.027,-123 433.027,-103 336.973,-103"/>
<text text-anchor="middle" x="385" y="-109" font-family="Helvetica,sans-Serif" font-size="10.00">AP_Rally::append</text>
</a>
</g>
</g>
<!-- Node223&#45;&gt;Node224 -->
<g id="edge1" class="edge"><title>Node223&#45;&gt;Node224</title>
<path fill="none" stroke="midnightblue" d="M472.3,-85.6221C453.651,-91.5384 433.737,-97.856 417.742,-102.93"/>
<polygon fill="midnightblue" stroke="midnightblue" points="473.436,-88.9336 481.91,-82.5735 471.319,-82.2613 473.436,-88.9336"/>
</g>
<!-- Node226 -->
<g id="node4" class="node"><title>Node226</title>
<g id="a_node4"><a xlink:href="structGCS__MAVLINK.html#ae507720fd8a0a7f67bc8100a5ae55c40" target="_top" xlink:title=" ">
<polygon fill="white" stroke="black" points="324.009,-51 324.009,-83 445.991,-83 445.991,-51 324.009,-51"/>
<text text-anchor="start" x="332.009" y="-69" font-family="Helvetica,sans-Serif" font-size="10.00">GCS_MAVLINK::handle</text>
<text text-anchor="middle" x="385" y="-57" font-family="Helvetica,sans-Serif" font-size="10.00">_rally_point</text>
</a>
</g>
</g>
<!-- Node223&#45;&gt;Node226 -->
<g id="edge3" class="edge"><title>Node223&#45;&gt;Node226</title>
<path fill="none" stroke="midnightblue" d="M471.747,-67C463.287,-67 454.578,-67 446.102,-67"/>
<polygon fill="midnightblue" stroke="midnightblue" points="471.91,-70.5001 481.91,-67 471.91,-63.5001 471.91,-70.5001"/>
</g>
<!-- Node229 -->
<g id="node7" class="node"><title>Node229</title>
<g id="a_node7"><a xlink:href="classMissionItemProtocol__Rally.html#abe4068697920da4db1b877e16e571c35" target="_top" xlink:title=" ">
<polygon fill="white" stroke="black" points="331.702,-0 331.702,-32 438.298,-32 438.298,-0 331.702,-0"/>
<text text-anchor="start" x="339.702" y="-18" font-family="Helvetica,sans-Serif" font-size="10.00">MissionItemProtocol</text>
<text text-anchor="middle" x="385" y="-6" font-family="Helvetica,sans-Serif" font-size="10.00">_Rally::replace_item</text>
</a>
</g>
</g>
<!-- Node223&#45;&gt;Node229 -->
<g id="edge6" class="edge"><title>Node223&#45;&gt;Node229</title>
<path fill="none" stroke="midnightblue" d="M475.296,-47.4074C460.842,-42.3237 445.446,-36.9085 431.58,-32.0317"/>
<polygon fill="midnightblue" stroke="midnightblue" points="474.526,-50.847 485.121,-50.8633 476.849,-44.2435 474.526,-50.847"/>
</g>
<!-- Node225 -->
<g id="node3" class="node"><title>Node225</title>
<g id="a_node3"><a xlink:href="classMissionItemProtocol__Rally.html#a037cd400cf6bdd35eb23d7e714b5d978" target="_top" xlink:title=" ">
<polygon fill="white" stroke="black" points="169.417,-100 169.417,-132 276.583,-132 276.583,-100 169.417,-100"/>
<text text-anchor="start" x="177.417" y="-118" font-family="Helvetica,sans-Serif" font-size="10.00">MissionItemProtocol</text>
<text text-anchor="middle" x="223" y="-106" font-family="Helvetica,sans-Serif" font-size="10.00">_Rally::append_item</text>
</a>
</g>
</g>
<!-- Node224&#45;&gt;Node225 -->
<g id="edge2" class="edge"><title>Node224&#45;&gt;Node225</title>
<path fill="none" stroke="midnightblue" d="M326.418,-114.08C310.187,-114.384 292.617,-114.713 276.688,-115.012"/>
<polygon fill="midnightblue" stroke="midnightblue" points="326.928,-117.571 336.86,-113.884 326.796,-110.572 326.928,-117.571"/>
</g>
<!-- Node227 -->
<g id="node5" class="node"><title>Node227</title>
<g id="a_node5"><a xlink:href="structGCS__MAVLINK.html#a0cddddd51bc5ea4c137c1927d2e34d97" target="_top" xlink:title=" ">
<polygon fill="white" stroke="black" points="158.03,-49 158.03,-81 287.97,-81 287.97,-49 158.03,-49"/>
<text text-anchor="start" x="166.03" y="-67" font-family="Helvetica,sans-Serif" font-size="10.00">GCS_MAVLINK::handle</text>
<text text-anchor="middle" x="223" y="-55" font-family="Helvetica,sans-Serif" font-size="10.00">_common_rally_message</text>
</a>
</g>
</g>
<!-- Node226&#45;&gt;Node227 -->
<g id="edge4" class="edge"><title>Node226&#45;&gt;Node227</title>
<path fill="none" stroke="midnightblue" d="M313.69,-66.1211C305.183,-66.0148 296.528,-65.9066 288.117,-65.8015"/>
<polygon fill="midnightblue" stroke="midnightblue" points="313.924,-69.6242 323.967,-66.2496 314.011,-62.6248 313.924,-69.6242"/>
</g>
<!-- Node228 -->
<g id="node6" class="node"><title>Node228</title>
<g id="a_node6"><a xlink:href="structGCS__MAVLINK.html#a13da94a2548ade6552a5250eb3251e89" target="_top" xlink:title=" ">
<polygon fill="white" stroke="black" points="0.00927734,-49 0.00927734,-81 121.991,-81 121.991,-49 0.00927734,-49"/>
<text text-anchor="start" x="8.00928" y="-67" font-family="Helvetica,sans-Serif" font-size="10.00">GCS_MAVLINK::handle</text>
<text text-anchor="middle" x="61" y="-55" font-family="Helvetica,sans-Serif" font-size="10.00">_common_message</text>
</a>
</g>
</g>
<!-- Node227&#45;&gt;Node228 -->
<g id="edge5" class="edge"><title>Node227&#45;&gt;Node228</title>
<path fill="none" stroke="midnightblue" d="M147.778,-65C139.147,-65 130.426,-65 122.019,-65"/>
<polygon fill="midnightblue" stroke="midnightblue" points="147.844,-68.5001 157.844,-65 147.844,-61.5001 147.844,-68.5001"/>
</g>
</g>
</svg>
        <g id="navigator" transform="translate(0 0)" fill="#404254">
                <rect fill="#f2f5e9" fill-opacity="0.5" stroke="#606060" stroke-width=".5" x="0" y="0" width="60" height="60"/>
                <use id="zoomplus" xlink:href="#zoomPlus" x="17" y="9" onmousedown="handleZoom(evt,'in')"/>
                <use id="zoomminus" xlink:href="#zoomMin" x="42" y="9" onmousedown="handleZoom(evt,'out')"/>
                <use id="reset" xlink:href="#resetDef" x="30" y="36" onmousedown="handleReset()"/>
                <g id="arrowUp" xlink:href="#dirArrow" transform="translate(30 24)" onmousedown="handlePan(0,-1)">
                  <use xlink:href="#rim" fill="#404040">
                        <set attributeName="fill" to="#808080" begin="arrowUp.mouseover" end="arrowUp.mouseout"/>
                  </use>
                  <path fill="none" stroke="white" stroke-width="1.5" d="M0,-3.0v7 M-2.5,-0.5L0,-3.0L2.5,-0.5"/>
                </g>
                <g id="arrowRight" xlink:href="#dirArrow" transform="rotate(90) translate(36 -43)" onmousedown="handlePan(1,0)">
                  <use xlink:href="#rim" fill="#404040">
                        <set attributeName="fill" to="#808080" begin="arrowRight.mouseover" end="arrowRight.mouseout"/>
                  </use>
                  <path fill="none" stroke="white" stroke-width="1.5" d="M0,-3.0v7 M-2.5,-0.5L0,-3.0L2.5,-0.5"/>
                </g>
                <g id="arrowDown" xlink:href="#dirArrow" transform="rotate(180) translate(-30 -48)" onmousedown="handlePan(0,1)">
                  <use xlink:href="#rim" fill="#404040">
                        <set attributeName="fill" to="#808080" begin="arrowDown.mouseover" end="arrowDown.mouseout"/>
                  </use>
                  <path fill="none" stroke="white" stroke-width="1.5" d="M0,-3.0v7 M-2.5,-0.5L0,-3.0L2.5,-0.5"/>
                </g>
                <g id="arrowLeft" xlink:href="#dirArrow" transform="rotate(270) translate(-36 17)" onmousedown="handlePan(-1,0)">
                  <use xlink:href="#rim" fill="#404040">
                        <set attributeName="fill" to="#808080" begin="arrowLeft.mouseover" end="arrowLeft.mouseout"/>
                  </use>
                  <path fill="none" stroke="white" stroke-width="1.5" d="M0,-3.0v7 M-2.5,-0.5L0,-3.0L2.5,-0.5"/>
                </g>
        </g>
        <svg viewBox="0 0 15 15" width="100%" height="30px" preserveAspectRatio="xMaxYMin meet">
         <g id="arrow_out" transform="scale(0.3 0.3)">
          <a xlink:href="classAP__Rally_a7d931e38aad349dec7ef42965f8d6a60_icgraph_org.svg" target="_base">
           <rect id="button" ry="5" rx="5" y="6" x="6" height="38" width="38"
                fill="#f2f5e9" fill-opacity="0.5" stroke="#606060" stroke-width="1.0"/>
           <path id="arrow"
             d="M 11.500037,31.436501 C 11.940474,20.09759 22.043105,11.32322 32.158766,21.979434 L 37.068811,17.246167 C 37.068811,17.246167 37.088388,32 37.088388,32 L 22.160133,31.978069 C 22.160133,31.978069 26.997745,27.140456 26.997745,27.140456 C 18.528582,18.264221 13.291696,25.230495 11.500037,31.436501 z"
             style="fill:#404040;"/>
          </a>
         </g>
        </svg>
</svg>
