<?xml version="1.0" encoding="UTF-8" standalone="no"?>
<!DOCTYPE svg PUBLIC "-//W3C//DTD SVG 1.1//EN"
 "http://www.w3.org/Graphics/SVG/1.1/DTD/svg11.dtd">
<!-- Generated by graphviz version 2.30.1 (20130221.2233)
 -->
<!-- Title: NavEKF3_core::readAirSpdData Pages: 1 -->
<!--zoomable 410 -->
<svg id="main" version="1.1" xmlns="http://www.w3.org/2000/svg" xmlns:xlink="http://www.w3.org/1999/xlink" xml:space="preserve" onload="init(evt)">
<style type="text/css"><![CDATA[
.edge:hover path { stroke: red; }
.edge:hover polygon { stroke: red; fill: red; }
]]></style>
<script type="text/javascript"><![CDATA[
var edges = document.getElementsByTagName('g');
if (edges && edges.length) {
  for (var i=0;i<edges.length;i++) {
    if (edges[i].id.substr(0,4)=='edge') {
      edges[i].setAttribute('class','edge');
    }
  }
}
]]></script>
        <defs>
                <circle id="rim" cx="0" cy="0" r="7"/>
                <circle id="rim2" cx="0" cy="0" r="3.5"/>
                <g id="zoomPlus">
                        <use xlink:href="#rim" fill="#404040">
                                <set attributeName="fill" to="#808080" begin="zoomplus.mouseover" end="zoomplus.mouseout"/>
                        </use>
                        <path d="M-4,0h8M0,-4v8" fill="none" stroke="white" stroke-width="1.5" pointer-events="none"/>
                </g>
                <g id="zoomMin">
                        <use xlink:href="#rim" fill="#404040">
                                <set attributeName="fill" to="#808080" begin="zoomminus.mouseover" end="zoomminus.mouseout"/>
                        </use>
                        <path d="M-4,0h8" fill="none" stroke="white" stroke-width="1.5" pointer-events="none"/>
                </g>
                <g id="dirArrow">
                        <path fill="none" stroke="white" stroke-width="1.5" d="M0,-3.0v7 M-2.5,-0.5L0,-3.0L2.5,-0.5"/>
                </g>
               <g id="resetDef">
                       <use xlink:href="#rim2" fill="#404040">
                               <set attributeName="fill" to="#808080" begin="reset.mouseover" end="reset.mouseout"/>
                       </use>
               </g>
        </defs>

<script type="text/javascript">
var viewWidth = 764;
var viewHeight = 410;
var sectionId = 'dynsection-141';
</script>
<script xlink:href="svgpan.js"/>
<svg id="graph" class="graph">
<g id="viewport">
<title>NavEKF3_core::readAirSpdData</title>
<polygon fill="white" stroke="white" points="-4,5 -4,-406 761,-406 761,5 -4,5"/>
<!-- Node2539 -->
<g id="node1" class="node"><title>Node2539</title>
<g id="a_node1"><a xlink:title=" ">
<polygon fill="#bfbfbf" stroke="black" points="0.741699,-298 0.741699,-318 161.258,-318 161.258,-298 0.741699,-298"/>
<text text-anchor="middle" x="81" y="-304" font-family="Helvetica,sans-Serif" font-size="10.00">NavEKF3_core::readAirSpdData</text>
</a>
</g>
</g>
<!-- Node2540 -->
<g id="node2" class="node"><title>Node2540</title>
<g id="a_node2"><a xlink:href="classAP__AHRS.html#a311a5206c7d4d640e5529d78dd614631" target="_top" xlink:title=" ">
<polygon fill="white" stroke="black" points="210.968,-382 210.968,-402 337.032,-402 337.032,-382 210.968,-382"/>
<text text-anchor="middle" x="274" y="-388" font-family="Helvetica,sans-Serif" font-size="10.00">AP_AHRS::get_airspeed</text>
</a>
</g>
</g>
<!-- Node2539&#45;&gt;Node2540 -->
<g id="edge1" class="edge"><title>Node2539&#45;&gt;Node2540</title>
<path fill="none" stroke="midnightblue" d="M97.5314,-318.183C119.235,-332.03 160.229,-356.809 198,-372 204.384,-374.568 211.205,-376.907 218.035,-379.006"/>
<polygon fill="midnightblue" stroke="midnightblue" points="217.419,-382.472 227.998,-381.909 219.377,-375.751 217.419,-382.472"/>
</g>
<!-- Node2541 -->
<g id="node3" class="node"><title>Node2541</title>
<g id="a_node3"><a xlink:href="classAP__Airspeed.html#a871b19d05ef2261d27e08c60f74ac9ce" target="_top" xlink:title=" ">
<polygon fill="white" stroke="black" points="198.737,-343 198.737,-363 349.263,-363 349.263,-343 198.737,-343"/>
<text text-anchor="middle" x="274" y="-349" font-family="Helvetica,sans-Serif" font-size="10.00">AP_Airspeed::last_update_ms</text>
</a>
</g>
</g>
<!-- Node2539&#45;&gt;Node2541 -->
<g id="edge2" class="edge"><title>Node2539&#45;&gt;Node2541</title>
<path fill="none" stroke="midnightblue" d="M124.864,-318.099C153.126,-324.757 190.331,-333.523 220.384,-340.604"/>
<polygon fill="midnightblue" stroke="midnightblue" points="219.743,-344.048 230.279,-342.935 221.348,-337.235 219.743,-344.048"/>
</g>
<!-- Node2542 -->
<g id="node4" class="node"><title>Node2542</title>
<g id="a_node4"><a xlink:href="classAP__Airspeed.html#af5df43c2989bfc8fb20a3099eef726e5" target="_top" xlink:title=" ">
<polygon fill="white" stroke="black" points="216.249,-292 216.249,-324 331.751,-324 331.751,-292 216.249,-292"/>
<text text-anchor="start" x="224.249" y="-310" font-family="Helvetica,sans-Serif" font-size="10.00">AP_Airspeed::get_raw</text>
<text text-anchor="middle" x="274" y="-298" font-family="Helvetica,sans-Serif" font-size="10.00">_airspeed</text>
</a>
</g>
</g>
<!-- Node2539&#45;&gt;Node2542 -->
<g id="edge3" class="edge"><title>Node2539&#45;&gt;Node2542</title>
<path fill="none" stroke="midnightblue" d="M161.342,-308C176.105,-308 191.399,-308 205.756,-308"/>
<polygon fill="midnightblue" stroke="midnightblue" points="206.024,-311.5 216.024,-308 206.024,-304.5 206.024,-311.5"/>
</g>
<!-- Node2543 -->
<g id="node5" class="node"><title>Node2543</title>
<g id="a_node5"><a xlink:href="namespaceAP.html#a99432cfdb696952c9b7146f155a815aa" target="_top" xlink:title=" ">
<polygon fill="white" stroke="black" points="246.825,-253 246.825,-273 301.175,-273 301.175,-253 246.825,-253"/>
<text text-anchor="middle" x="274" y="-259" font-family="Helvetica,sans-Serif" font-size="10.00">AP::ahrs</text>
</a>
</g>
</g>
<!-- Node2539&#45;&gt;Node2543 -->
<g id="edge4" class="edge"><title>Node2539&#45;&gt;Node2543</title>
<path fill="none" stroke="midnightblue" d="M124.864,-297.901C158.608,-289.951 205.101,-278.997 236.949,-271.494"/>
<polygon fill="midnightblue" stroke="midnightblue" points="237.809,-274.887 246.74,-269.187 236.204,-268.074 237.809,-274.887"/>
</g>
<!-- Node2545 -->
<g id="node7" class="node"><title>Node2545</title>
<g id="a_node7"><a xlink:href="classAP__AHRS.html#a64786b58a1607ee420ed4f0696c755b6" target="_top" xlink:title=" ">
<polygon fill="white" stroke="black" points="208.007,-214 208.007,-234 339.993,-234 339.993,-214 208.007,-214"/>
<text text-anchor="middle" x="274" y="-220" font-family="Helvetica,sans-Serif" font-size="10.00">AP_AHRS::get_EAS2TAS</text>
</a>
</g>
</g>
<!-- Node2539&#45;&gt;Node2545 -->
<g id="edge6" class="edge"><title>Node2539&#45;&gt;Node2545</title>
<path fill="none" stroke="midnightblue" d="M97.5314,-297.817C119.235,-283.97 160.229,-259.191 198,-244 204.384,-241.432 211.205,-239.093 218.035,-236.994"/>
<polygon fill="midnightblue" stroke="midnightblue" points="219.377,-240.249 227.998,-234.091 217.419,-233.528 219.377,-240.249"/>
</g>
<!-- Node2544 -->
<g id="node6" class="node"><title>Node2544</title>
<g id="a_node6"><a xlink:href="classAP__AHRS.html#a3db167e808ba6d312c3b746e558008e9" target="_top" xlink:title=" ">
<polygon fill="white" stroke="black" points="386.133,-253 386.133,-273 513.867,-273 513.867,-253 386.133,-253"/>
<text text-anchor="middle" x="450" y="-259" font-family="Helvetica,sans-Serif" font-size="10.00">AP_AHRS::get_singleton</text>
</a>
</g>
</g>
<!-- Node2543&#45;&gt;Node2544 -->
<g id="edge5" class="edge"><title>Node2543&#45;&gt;Node2544</title>
<path fill="none" stroke="midnightblue" d="M301.427,-263C321.237,-263 349.367,-263 375.762,-263"/>
<polygon fill="midnightblue" stroke="midnightblue" points="375.773,-266.5 385.773,-263 375.772,-259.5 375.773,-266.5"/>
</g>
<!-- Node2546 -->
<g id="node8" class="node"><title>Node2546</title>
<g id="a_node8"><a xlink:href="namespaceAP.html#a8aec57eb0b7a79044cbc1f0ca4b75bcf" target="_top" xlink:title=" ">
<polygon fill="white" stroke="black" points="422.544,-214 422.544,-234 477.456,-234 477.456,-214 422.544,-214"/>
<text text-anchor="middle" x="450" y="-220" font-family="Helvetica,sans-Serif" font-size="10.00">AP::baro</text>
</a>
</g>
</g>
<!-- Node2545&#45;&gt;Node2546 -->
<g id="edge7" class="edge"><title>Node2545&#45;&gt;Node2546</title>
<path fill="none" stroke="midnightblue" d="M340.286,-224C364.705,-224 391.561,-224 412.471,-224"/>
<polygon fill="midnightblue" stroke="midnightblue" points="412.52,-227.5 422.52,-224 412.52,-220.5 412.52,-227.5"/>
</g>
<!-- Node2548 -->
<g id="node10" class="node"><title>Node2548</title>
<g id="a_node10"><a xlink:href="classAP__Baro.html#a0115c37618652051c1f6efd072fcc74b" target="_top" xlink:title=" ">
<polygon fill="white" stroke="black" points="387.337,-124 387.337,-144 512.663,-144 512.663,-124 387.337,-124"/>
<text text-anchor="middle" x="450" y="-130" font-family="Helvetica,sans-Serif" font-size="10.00">AP_Baro::get_EAS2TAS</text>
</a>
</g>
</g>
<!-- Node2545&#45;&gt;Node2548 -->
<g id="edge9" class="edge"><title>Node2545&#45;&gt;Node2548</title>
<path fill="none" stroke="midnightblue" d="M294.622,-213.851C325.38,-197.941 385.089,-167.057 420.56,-148.711"/>
<polygon fill="midnightblue" stroke="midnightblue" points="422.176,-151.815 429.45,-144.112 418.96,-145.598 422.176,-151.815"/>
</g>
<!-- Node2547 -->
<g id="node9" class="node"><title>Node2547</title>
<g id="a_node9"><a xlink:href="classAP__Baro.html#a92b0efed71f214529da6c54d692f1d61" target="_top" xlink:title=" ">
<polygon fill="white" stroke="black" points="550.463,-243 550.463,-263 671.537,-263 671.537,-243 550.463,-243"/>
<text text-anchor="middle" x="611" y="-249" font-family="Helvetica,sans-Serif" font-size="10.00">AP_Baro::get_singleton</text>
</a>
</g>
</g>
<!-- Node2546&#45;&gt;Node2547 -->
<g id="edge8" class="edge"><title>Node2546&#45;&gt;Node2547</title>
<path fill="none" stroke="midnightblue" d="M477.613,-228.854C496.023,-232.212 521.359,-236.833 544.94,-241.134"/>
<polygon fill="midnightblue" stroke="midnightblue" points="544.448,-244.602 554.914,-242.953 545.704,-237.715 544.448,-244.602"/>
</g>
<!-- Node2549 -->
<g id="node11" class="node"><title>Node2549</title>
<g id="a_node11"><a xlink:href="classAP__Baro.html#a50ae73cce1699d88638e3dfab4ffd330" target="_top" xlink:title=" ">
<polygon fill="white" stroke="black" points="554.355,-186 554.355,-206 667.645,-206 667.645,-186 554.355,-186"/>
<text text-anchor="middle" x="611" y="-192" font-family="Helvetica,sans-Serif" font-size="10.00">AP_Baro::get_altitude</text>
</a>
</g>
</g>
<!-- Node2548&#45;&gt;Node2549 -->
<g id="edge10" class="edge"><title>Node2548&#45;&gt;Node2549</title>
<path fill="none" stroke="midnightblue" d="M476.9,-144.099C503.464,-154.458 544.973,-170.644 574.57,-182.184"/>
<polygon fill="midnightblue" stroke="midnightblue" points="573.523,-185.533 584.111,-185.905 576.066,-179.011 573.523,-185.533"/>
</g>
<!-- Node2550 -->
<g id="node12" class="node"><title>Node2550</title>
<g id="a_node12"><a xlink:href="AP__Math_8h.html#a2a12cce483e9b870da70d30406d82c60" target="_top" xlink:title=" ">
<polygon fill="white" stroke="black" points="707.882,-124 707.882,-144 756.118,-144 756.118,-124 707.882,-124"/>
<text text-anchor="middle" x="732" y="-130" font-family="Helvetica,sans-Serif" font-size="10.00">is_zero</text>
</a>
</g>
</g>
<!-- Node2548&#45;&gt;Node2550 -->
<g id="edge12" class="edge"><title>Node2548&#45;&gt;Node2550</title>
<path fill="none" stroke="midnightblue" d="M512.782,-136.161C525.109,-136.511 537.965,-136.818 550,-137 604.216,-137.821 617.795,-138.377 672,-137 680.29,-136.789 689.23,-136.412 697.581,-135.995"/>
<polygon fill="midnightblue" stroke="midnightblue" points="697.952,-139.481 707.752,-135.455 697.58,-132.491 697.952,-139.481"/>
</g>
<!-- Node2551 -->
<g id="node13" class="node"><title>Node2551</title>
<g id="a_node13"><a xlink:href="classAP__Baro.html#a932c39564d42db7594dc132eb6703919" target="_top" xlink:title=" ">
<polygon fill="white" stroke="black" points="554.909,-96 554.909,-128 667.091,-128 667.091,-96 554.909,-96"/>
<text text-anchor="start" x="562.909" y="-114" font-family="Helvetica,sans-Serif" font-size="10.00">AP_Baro::get_ground</text>
<text text-anchor="middle" x="611" y="-102" font-family="Helvetica,sans-Serif" font-size="10.00">_temperature</text>
</a>
</g>
</g>
<!-- Node2548&#45;&gt;Node2551 -->
<g id="edge13" class="edge"><title>Node2548&#45;&gt;Node2551</title>
<path fill="none" stroke="midnightblue" d="M512.929,-125.431C523.369,-123.987 534.235,-122.483 544.757,-121.027"/>
<polygon fill="midnightblue" stroke="midnightblue" points="545.288,-124.487 554.714,-119.65 544.328,-117.553 545.288,-124.487"/>
</g>
<!-- Node2552 -->
<g id="node14" class="node"><title>Node2552</title>
<g id="a_node14"><a xlink:href="classAP__Baro.html#a41b3c00624c78b883413b53fc5a81a32" target="_top" xlink:title=" ">
<polygon fill="white" stroke="black" points="551.025,-39 551.025,-59 670.975,-59 670.975,-39 551.025,-39"/>
<text text-anchor="middle" x="611" y="-45" font-family="Helvetica,sans-Serif" font-size="10.00">AP_Baro::get_pressure</text>
</a>
</g>
</g>
<!-- Node2548&#45;&gt;Node2552 -->
<g id="edge15" class="edge"><title>Node2548&#45;&gt;Node2552</title>
<path fill="none" stroke="midnightblue" d="M469.864,-123.916C497.715,-109.026 550.013,-81.0687 582.245,-63.8376"/>
<polygon fill="midnightblue" stroke="midnightblue" points="583.992,-66.8725 591.161,-59.0713 580.692,-60.6992 583.992,-66.8725"/>
</g>
<!-- Node2553 -->
<g id="node15" class="node"><title>Node2553</title>
<g id="a_node15"><a xlink:href="AP__Math_8h.html#a4e3ae698e8f99cec214348ad233e3c41" target="_top" xlink:title=" ">
<polygon fill="white" stroke="black" points="579.655,-0 579.655,-20 642.345,-20 642.345,-0 579.655,-0"/>
<text text-anchor="middle" x="611" y="-6" font-family="Helvetica,sans-Serif" font-size="10.00">is_positive</text>
</a>
</g>
</g>
<!-- Node2548&#45;&gt;Node2553 -->
<g id="edge17" class="edge"><title>Node2548&#45;&gt;Node2553</title>
<path fill="none" stroke="midnightblue" d="M457.912,-123.704C472.474,-102.791 508.414,-55.1153 550,-29 555.968,-25.252 562.738,-22.1865 569.526,-19.6976"/>
<polygon fill="midnightblue" stroke="midnightblue" points="570.989,-22.901 579.394,-16.4511 568.801,-16.2516 570.989,-22.901"/>
</g>
<!-- Node2549&#45;&gt;Node2549 -->
<g id="edge11" class="edge"><title>Node2549&#45;&gt;Node2549</title>
<path fill="none" stroke="midnightblue" d="M592.213,-206.048C583.644,-214.771 589.906,-224 611,-224 624.184,-224 631.574,-220.395 633.17,-215.562"/>
<polygon fill="midnightblue" stroke="midnightblue" points="636.435,-214.297 629.787,-206.048 629.84,-216.642 636.435,-214.297"/>
</g>
<!-- Node2551&#45;&gt;Node2550 -->
<g id="edge14" class="edge"><title>Node2551&#45;&gt;Node2550</title>
<path fill="none" stroke="midnightblue" d="M667.319,-122.227C677.639,-124.135 688.126,-126.074 697.533,-127.813"/>
<polygon fill="midnightblue" stroke="midnightblue" points="697.157,-131.303 707.627,-129.679 698.43,-124.419 697.157,-131.303"/>
</g>
<!-- Node2552&#45;&gt;Node2552 -->
<g id="edge16" class="edge"><title>Node2552&#45;&gt;Node2552</title>
<path fill="none" stroke="midnightblue" d="M592.213,-59.0477C583.644,-67.7715 589.906,-77 611,-77 624.184,-77 631.574,-73.3951 633.17,-68.5616"/>
<polygon fill="midnightblue" stroke="midnightblue" points="636.435,-67.2968 629.787,-59.0477 629.84,-69.6424 636.435,-67.2968"/>
</g>
</g>
</svg>
        <g id="navigator" transform="translate(0 0)" fill="#404254">
                <rect fill="#f2f5e9" fill-opacity="0.5" stroke="#606060" stroke-width=".5" x="0" y="0" width="60" height="60"/>
                <use id="zoomplus" xlink:href="#zoomPlus" x="17" y="9" onmousedown="handleZoom(evt,'in')"/>
                <use id="zoomminus" xlink:href="#zoomMin" x="42" y="9" onmousedown="handleZoom(evt,'out')"/>
                <use id="reset" xlink:href="#resetDef" x="30" y="36" onmousedown="handleReset()"/>
                <g id="arrowUp" xlink:href="#dirArrow" transform="translate(30 24)" onmousedown="handlePan(0,-1)">
                  <use xlink:href="#rim" fill="#404040">
                        <set attributeName="fill" to="#808080" begin="arrowUp.mouseover" end="arrowUp.mouseout"/>
                  </use>
                  <path fill="none" stroke="white" stroke-width="1.5" d="M0,-3.0v7 M-2.5,-0.5L0,-3.0L2.5,-0.5"/>
                </g>
                <g id="arrowRight" xlink:href="#dirArrow" transform="rotate(90) translate(36 -43)" onmousedown="handlePan(1,0)">
                  <use xlink:href="#rim" fill="#404040">
                        <set attributeName="fill" to="#808080" begin="arrowRight.mouseover" end="arrowRight.mouseout"/>
                  </use>
                  <path fill="none" stroke="white" stroke-width="1.5" d="M0,-3.0v7 M-2.5,-0.5L0,-3.0L2.5,-0.5"/>
                </g>
                <g id="arrowDown" xlink:href="#dirArrow" transform="rotate(180) translate(-30 -48)" onmousedown="handlePan(0,1)">
                  <use xlink:href="#rim" fill="#404040">
                        <set attributeName="fill" to="#808080" begin="arrowDown.mouseover" end="arrowDown.mouseout"/>
                  </use>
                  <path fill="none" stroke="white" stroke-width="1.5" d="M0,-3.0v7 M-2.5,-0.5L0,-3.0L2.5,-0.5"/>
                </g>
                <g id="arrowLeft" xlink:href="#dirArrow" transform="rotate(270) translate(-36 17)" onmousedown="handlePan(-1,0)">
                  <use xlink:href="#rim" fill="#404040">
                        <set attributeName="fill" to="#808080" begin="arrowLeft.mouseover" end="arrowLeft.mouseout"/>
                  </use>
                  <path fill="none" stroke="white" stroke-width="1.5" d="M0,-3.0v7 M-2.5,-0.5L0,-3.0L2.5,-0.5"/>
                </g>
        </g>
        <svg viewBox="0 0 15 15" width="100%" height="30px" preserveAspectRatio="xMaxYMin meet">
         <g id="arrow_out" transform="scale(0.3 0.3)">
          <a xlink:href="classNavEKF3__core_a99b7c56750cb0a41f9e3a9ce4130dd00_cgraph_org.svg" target="_base">
           <rect id="button" ry="5" rx="5" y="6" x="6" height="38" width="38"
                fill="#f2f5e9" fill-opacity="0.5" stroke="#606060" stroke-width="1.0"/>
           <path id="arrow"
             d="M 11.500037,31.436501 C 11.940474,20.09759 22.043105,11.32322 32.158766,21.979434 L 37.068811,17.246167 C 37.068811,17.246167 37.088388,32 37.088388,32 L 22.160133,31.978069 C 22.160133,31.978069 26.997745,27.140456 26.997745,27.140456 C 18.528582,18.264221 13.291696,25.230495 11.500037,31.436501 z"
             style="fill:#404040;"/>
          </a>
         </g>
        </svg>
</svg>
