<?xml version="1.0" encoding="UTF-8" standalone="no"?>
<!DOCTYPE svg PUBLIC "-//W3C//DTD SVG 1.1//EN"
 "http://www.w3.org/Graphics/SVG/1.1/DTD/svg11.dtd">
<!-- Generated by graphviz version 2.30.1 (20130221.2233)
 -->
<!-- Title: CompassCalibrator::param_t Pages: 1 -->
<svg width="114pt" height="136pt"
 viewBox="0.00 0.00 114.00 136.00" xmlns="http://www.w3.org/2000/svg" xmlns:xlink="http://www.w3.org/1999/xlink">
<g id="graph0" class="graph" transform="scale(1 1) rotate(0) translate(4 132)">
<title>CompassCalibrator::param_t</title>
<polygon fill="white" stroke="white" points="-4,5 -4,-132 111,-132 111,5 -4,5"/>
<!-- Node1 -->
<g id="node1" class="node"><title>Node1</title>
<g id="a_node1"><a xlink:title=" ">
<polygon fill="#bfbfbf" stroke="black" points="-0.571289,-1 -0.571289,-33 106.571,-33 106.571,-1 -0.571289,-1"/>
<text text-anchor="start" x="7.42871" y="-19" font-family="Helvetica,sans-Serif" font-size="10.00">CompassCalibrator::</text>
<text text-anchor="middle" x="53" y="-7" font-family="Helvetica,sans-Serif" font-size="10.00">param_t</text>
</a>
</g>
</g>
<!-- Node2 -->
<g id="node2" class="node"><title>Node2</title>
<g id="a_node2"><a xlink:href="classVector3.html" target="_top" xlink:title=" ">
<polygon fill="white" stroke="black" points="9.97314,-107 9.97314,-127 96.0269,-127 96.0269,-107 9.97314,-107"/>
<text text-anchor="middle" x="53" y="-113" font-family="Helvetica,sans-Serif" font-size="10.00">Vector3&lt; float &gt;</text>
</a>
</g>
</g>
<!-- Node2&#45;&gt;Node1 -->
<g id="edge1" class="edge"><title>Node2&#45;&gt;Node1</title>
<path fill="none" stroke="#9a32cd" stroke-dasharray="5,2" d="M53,-96.7051C53,-78.0353 53,-50.1249 53,-33.0442"/>
<polygon fill="#9a32cd" stroke="#9a32cd" points="49.5001,-96.956 53,-106.956 56.5001,-96.9561 49.5001,-96.956"/>
<text text-anchor="middle" x="69.3135" y="-78" font-family="Helvetica,sans-Serif" font-size="10.00"> offdiag</text>
<text text-anchor="middle" x="69.3135" y="-66" font-family="Helvetica,sans-Serif" font-size="10.00">offset</text>
<text text-anchor="middle" x="69.3135" y="-54" font-family="Helvetica,sans-Serif" font-size="10.00">diag</text>
</g>
</g>
</svg>
