<?xml version="1.0" encoding="UTF-8" standalone="no"?>
<!DOCTYPE svg PUBLIC "-//W3C//DTD SVG 1.1//EN"
 "http://www.w3.org/Graphics/SVG/1.1/DTD/svg11.dtd">
<!-- Generated by graphviz version 2.30.1 (20130221.2233)
 -->
<!-- Title: AP_Baro::update Pages: 1 -->
<svg width="312pt" height="67pt"
 viewBox="0.00 0.00 312.00 67.00" xmlns="http://www.w3.org/2000/svg" xmlns:xlink="http://www.w3.org/1999/xlink">
<g id="graph0" class="graph" transform="scale(1 1) rotate(0) translate(4 63)">
<title>AP_Baro::update</title>
<polygon fill="white" stroke="white" points="-4,5 -4,-63 309,-63 309,5 -4,5"/>
<!-- Node2132 -->
<g id="node1" class="node"><title>Node2132</title>
<g id="a_node1"><a xlink:title=" ">
<polygon fill="#bfbfbf" stroke="black" points="211.917,-19 211.917,-39 304.083,-39 304.083,-19 211.917,-19"/>
<text text-anchor="middle" x="258" y="-25" font-family="Helvetica,sans-Serif" font-size="10.00">AP_Baro::update</text>
</a>
</g>
</g>
<!-- Node2133 -->
<g id="node2" class="node"><title>Node2133</title>
<g id="a_node2"><a xlink:href="classAP__Baro.html#abd4110392c9cc5e59b143dd4cb2b5800" target="_top" xlink:title=" ">
<polygon fill="white" stroke="black" points="76.3105,-39 76.3105,-59 175.689,-59 175.689,-39 76.3105,-39"/>
<text text-anchor="middle" x="126" y="-45" font-family="Helvetica,sans-Serif" font-size="10.00">AP_Baro::calibrate</text>
</a>
</g>
</g>
<!-- Node2132&#45;&gt;Node2133 -->
<g id="edge1" class="edge"><title>Node2132&#45;&gt;Node2133</title>
<path fill="none" stroke="midnightblue" d="M201.937,-37.4713C193.327,-38.7959 184.478,-40.1572 176.016,-41.4591"/>
<polygon fill="midnightblue" stroke="midnightblue" points="202.546,-40.9189 211.897,-35.9389 201.481,-34.0003 202.546,-40.9189"/>
</g>
<!-- Node2135 -->
<g id="node4" class="node"><title>Node2135</title>
<g id="a_node4"><a xlink:href="BARO__generic_8cpp.html#afe461d27b9c48d5921c00d521181f12f" target="_top" xlink:title=" ">
<polygon fill="white" stroke="black" points="108.547,-0 108.547,-20 143.453,-20 143.453,-0 108.547,-0"/>
<text text-anchor="middle" x="126" y="-6" font-family="Helvetica,sans-Serif" font-size="10.00">loop</text>
</a>
</g>
</g>
<!-- Node2132&#45;&gt;Node2135 -->
<g id="edge3" class="edge"><title>Node2132&#45;&gt;Node2135</title>
<path fill="none" stroke="midnightblue" d="M201.745,-20.9242C180.756,-17.8567 158.381,-14.5864 143.641,-12.4322"/>
<polygon fill="midnightblue" stroke="midnightblue" points="201.496,-24.425 211.897,-22.408 202.508,-17.4986 201.496,-24.425"/>
</g>
<!-- Node2134 -->
<g id="node3" class="node"><title>Node2134</title>
<g id="a_node3"><a xlink:href="BARO__generic_8cpp.html#a4fc01d736fe50cf5b977f755b675f11d" target="_top" xlink:title=" ">
<polygon fill="white" stroke="black" points="-0.231445,-39 -0.231445,-59 40.2314,-59 40.2314,-39 -0.231445,-39"/>
<text text-anchor="middle" x="20" y="-45" font-family="Helvetica,sans-Serif" font-size="10.00">setup</text>
</a>
</g>
</g>
<!-- Node2133&#45;&gt;Node2134 -->
<g id="edge2" class="edge"><title>Node2133&#45;&gt;Node2134</title>
<path fill="none" stroke="midnightblue" d="M65.9747,-49C56.7508,-49 47.8272,-49 40.3939,-49"/>
<polygon fill="midnightblue" stroke="midnightblue" points="66.0454,-52.5001 76.0453,-49 66.0453,-45.5001 66.0454,-52.5001"/>
</g>
</g>
</svg>
