<?xml version="1.0" encoding="UTF-8" standalone="no"?>
<!DOCTYPE svg PUBLIC "-//W3C//DTD SVG 1.1//EN"
 "http://www.w3.org/Graphics/SVG/1.1/DTD/svg11.dtd">
<!-- Generated by graphviz version 2.30.1 (20130221.2233)
 -->
<!-- Title: AP_AHRS_View::airspeed_estimate_true Pages: 1 -->
<!--zoomable 466 -->
<svg id="main" version="1.1" xmlns="http://www.w3.org/2000/svg" xmlns:xlink="http://www.w3.org/1999/xlink" xml:space="preserve" onload="init(evt)">
<style type="text/css"><![CDATA[
.edge:hover path { stroke: red; }
.edge:hover polygon { stroke: red; fill: red; }
]]></style>
<script type="text/javascript"><![CDATA[
var edges = document.getElementsByTagName('g');
if (edges && edges.length) {
  for (var i=0;i<edges.length;i++) {
    if (edges[i].id.substr(0,4)=='edge') {
      edges[i].setAttribute('class','edge');
    }
  }
}
]]></script>
        <defs>
                <circle id="rim" cx="0" cy="0" r="7"/>
                <circle id="rim2" cx="0" cy="0" r="3.5"/>
                <g id="zoomPlus">
                        <use xlink:href="#rim" fill="#404040">
                                <set attributeName="fill" to="#808080" begin="zoomplus.mouseover" end="zoomplus.mouseout"/>
                        </use>
                        <path d="M-4,0h8M0,-4v8" fill="none" stroke="white" stroke-width="1.5" pointer-events="none"/>
                </g>
                <g id="zoomMin">
                        <use xlink:href="#rim" fill="#404040">
                                <set attributeName="fill" to="#808080" begin="zoomminus.mouseover" end="zoomminus.mouseout"/>
                        </use>
                        <path d="M-4,0h8" fill="none" stroke="white" stroke-width="1.5" pointer-events="none"/>
                </g>
                <g id="dirArrow">
                        <path fill="none" stroke="white" stroke-width="1.5" d="M0,-3.0v7 M-2.5,-0.5L0,-3.0L2.5,-0.5"/>
                </g>
               <g id="resetDef">
                       <use xlink:href="#rim2" fill="#404040">
                               <set attributeName="fill" to="#808080" begin="reset.mouseover" end="reset.mouseout"/>
                       </use>
               </g>
        </defs>

<script type="text/javascript">
var viewWidth = 1302;
var viewHeight = 466;
var sectionId = 'dynsection-3';
</script>
<script xlink:href="svgpan.js"/>
<svg id="graph" class="graph">
<g id="viewport">
<title>AP_AHRS_View::airspeed_estimate_true</title>
<polygon fill="white" stroke="white" points="-4,5 -4,-462 1299,-462 1299,5 -4,5"/>
<!-- Node51 -->
<g id="node1" class="node"><title>Node51</title>
<g id="a_node1"><a xlink:title=" ">
<polygon fill="#bfbfbf" stroke="black" points="0.169434,-204 0.169434,-236 133.831,-236 133.831,-204 0.169434,-204"/>
<text text-anchor="start" x="8.16943" y="-222" font-family="Helvetica,sans-Serif" font-size="10.00">AP_AHRS_View::airspeed</text>
<text text-anchor="middle" x="67" y="-210" font-family="Helvetica,sans-Serif" font-size="10.00">_estimate_true</text>
</a>
</g>
</g>
<!-- Node52 -->
<g id="node2" class="node"><title>Node52</title>
<g id="a_node2"><a xlink:href="classAP__AHRS.html#a29755586a9138e9562961044340b1f0a" target="_top" xlink:title=" ">
<polygon fill="white" stroke="black" points="170.626,-210 170.626,-230 343.374,-230 343.374,-210 170.626,-210"/>
<text text-anchor="middle" x="257" y="-216" font-family="Helvetica,sans-Serif" font-size="10.00">AP_AHRS::airspeed_estimate_true</text>
</a>
</g>
</g>
<!-- Node51&#45;&gt;Node52 -->
<g id="edge1" class="edge"><title>Node51&#45;&gt;Node52</title>
<path fill="none" stroke="midnightblue" d="M134.017,-220C142.55,-220 151.421,-220 160.313,-220"/>
<polygon fill="midnightblue" stroke="midnightblue" points="160.343,-223.5 170.343,-220 160.343,-216.5 160.343,-223.5"/>
</g>
<!-- Node53 -->
<g id="node3" class="node"><title>Node53</title>
<g id="a_node3"><a xlink:href="classAP__AHRS.html#aba88eab2ab7bb6f525934fb06d30e780" target="_top" xlink:title=" ">
<polygon fill="white" stroke="black" points="380.022,-239 380.022,-259 529.978,-259 529.978,-239 380.022,-239"/>
<text text-anchor="middle" x="455" y="-245" font-family="Helvetica,sans-Serif" font-size="10.00">AP_AHRS::airspeed_estimate</text>
</a>
</g>
</g>
<!-- Node52&#45;&gt;Node53 -->
<g id="edge2" class="edge"><title>Node52&#45;&gt;Node53</title>
<path fill="none" stroke="midnightblue" d="M325.727,-230.021C341.945,-232.42 359.391,-235.002 376.032,-237.464"/>
<polygon fill="midnightblue" stroke="midnightblue" points="375.866,-240.977 386.271,-238.979 376.891,-234.053 375.866,-240.977"/>
</g>
<!-- Node61 -->
<g id="node11" class="node"><title>Node61</title>
<g id="a_node11"><a xlink:href="classAP__AHRS.html#a64786b58a1607ee420ed4f0696c755b6" target="_top" xlink:title=" ">
<polygon fill="white" stroke="black" points="571.007,-161 571.007,-181 702.993,-181 702.993,-161 571.007,-161"/>
<text text-anchor="middle" x="637" y="-167" font-family="Helvetica,sans-Serif" font-size="10.00">AP_AHRS::get_EAS2TAS</text>
</a>
</g>
</g>
<!-- Node52&#45;&gt;Node61 -->
<g id="edge30" class="edge"><title>Node52&#45;&gt;Node61</title>
<path fill="none" stroke="midnightblue" d="M335.406,-209.966C401.322,-201.421 495.451,-189.219 560.744,-180.755"/>
<polygon fill="midnightblue" stroke="midnightblue" points="561.5,-184.187 570.967,-179.43 560.6,-177.245 561.5,-184.187"/>
</g>
<!-- Node54 -->
<g id="node4" class="node"><title>Node54</title>
<g id="a_node4"><a xlink:href="classAP__AHRS.html#a47ea335b3b317f0c5e54320f59d5ca8a" target="_top" xlink:title=" ">
<polygon fill="white" stroke="black" points="565.912,-317 565.912,-349 708.088,-349 708.088,-317 565.912,-317"/>
<text text-anchor="start" x="573.912" y="-335" font-family="Helvetica,sans-Serif" font-size="10.00">AP_AHRS::airspeed_sensor</text>
<text text-anchor="middle" x="637" y="-323" font-family="Helvetica,sans-Serif" font-size="10.00">_enabled</text>
</a>
</g>
</g>
<!-- Node53&#45;&gt;Node54 -->
<g id="edge3" class="edge"><title>Node53&#45;&gt;Node54</title>
<path fill="none" stroke="midnightblue" d="M473.557,-259.167C494.981,-271.359 532.494,-292.02 566,-307 570.688,-309.096 575.601,-311.166 580.557,-313.167"/>
<polygon fill="midnightblue" stroke="midnightblue" points="579.506,-316.515 590.093,-316.921 582.07,-310.001 579.506,-316.515"/>
</g>
<!-- Node57 -->
<g id="node7" class="node"><title>Node57</title>
<g id="a_node7"><a xlink:href="classAP__Airspeed.html#a02885c320f3cedbc08c02bc8894aba04" target="_top" xlink:title=" ">
<polygon fill="white" stroke="black" points="568.126,-278 568.126,-298 705.874,-298 705.874,-278 568.126,-278"/>
<text text-anchor="middle" x="637" y="-284" font-family="Helvetica,sans-Serif" font-size="10.00">AP_Airspeed::get_airspeed</text>
</a>
</g>
</g>
<!-- Node53&#45;&gt;Node57 -->
<g id="edge7" class="edge"><title>Node53&#45;&gt;Node57</title>
<path fill="none" stroke="midnightblue" d="M502.354,-259.043C525.975,-264.161 554.887,-270.426 579.771,-275.817"/>
<polygon fill="midnightblue" stroke="midnightblue" points="579.288,-279.294 589.803,-277.991 580.771,-272.452 579.288,-279.294"/>
</g>
<!-- Node58 -->
<g id="node8" class="node"><title>Node58</title>
<g id="a_node8"><a xlink:href="namespaceAP.html#ae6eeec356455220f913e47e323057cd5" target="_top" xlink:title=" ">
<polygon fill="white" stroke="black" points="611.49,-239 611.49,-259 662.51,-259 662.51,-239 611.49,-239"/>
<text text-anchor="middle" x="637" y="-245" font-family="Helvetica,sans-Serif" font-size="10.00">AP::gps</text>
</a>
</g>
</g>
<!-- Node53&#45;&gt;Node58 -->
<g id="edge8" class="edge"><title>Node53&#45;&gt;Node58</title>
<path fill="none" stroke="midnightblue" d="M529.992,-249C554.764,-249 581.207,-249 601.487,-249"/>
<polygon fill="midnightblue" stroke="midnightblue" points="601.489,-252.5 611.489,-249 601.489,-245.5 601.489,-252.5"/>
</g>
<!-- Node60 -->
<g id="node10" class="node"><title>Node60</title>
<g id="a_node10"><a xlink:href="classAP__GPS.html#ae7f097588dd863d4624f6fec1509e0e6" target="_top" xlink:title=" ">
<polygon fill="white" stroke="black" points="574.239,-200 574.239,-220 699.761,-220 699.761,-200 574.239,-200"/>
<text text-anchor="middle" x="637" y="-206" font-family="Helvetica,sans-Serif" font-size="10.00">AP_GPS::ground_speed</text>
</a>
</g>
</g>
<!-- Node53&#45;&gt;Node60 -->
<g id="edge10" class="edge"><title>Node53&#45;&gt;Node60</title>
<path fill="none" stroke="midnightblue" d="M502.354,-238.957C525.975,-233.839 554.887,-227.574 579.771,-222.183"/>
<polygon fill="midnightblue" stroke="midnightblue" points="580.771,-225.548 589.803,-220.009 579.288,-218.706 580.771,-225.548"/>
</g>
<!-- Node53&#45;&gt;Node61 -->
<g id="edge11" class="edge"><title>Node53&#45;&gt;Node61</title>
<path fill="none" stroke="midnightblue" d="M472.206,-238.787C493.177,-225.931 531.166,-203.86 566,-190 571.472,-187.823 577.28,-185.807 583.12,-183.966"/>
<polygon fill="midnightblue" stroke="midnightblue" points="584.345,-187.254 592.924,-181.036 582.34,-180.547 584.345,-187.254"/>
</g>
<!-- Node70 -->
<g id="node20" class="node"><title>Node70</title>
<g id="a_node20"><a xlink:href="AP__Math_8h.html#ad525609d9dba6ffa556a0fbf08a3f9b4" target="_top" xlink:title=" ">
<polygon fill="white" stroke="black" points="596.48,-369 596.48,-389 677.52,-389 677.52,-369 596.48,-369"/>
<text text-anchor="middle" x="637" y="-375" font-family="Helvetica,sans-Serif" font-size="10.00">constrain_float</text>
</a>
</g>
</g>
<!-- Node53&#45;&gt;Node70 -->
<g id="edge23" class="edge"><title>Node53&#45;&gt;Node70</title>
<path fill="none" stroke="midnightblue" d="M463.333,-259.062C479.461,-280.474 520.237,-330.808 566,-358 572.374,-361.788 579.486,-364.94 586.666,-367.55"/>
<polygon fill="midnightblue" stroke="midnightblue" points="585.844,-370.965 596.437,-370.782 588.042,-364.319 585.844,-370.965"/>
</g>
<!-- Node55 -->
<g id="node5" class="node"><title>Node55</title>
<g id="a_node5"><a xlink:href="classAP__Airspeed.html#a1f93ae84c30efc1375765b835004e7a9" target="_top" xlink:title=" ">
<polygon fill="white" stroke="black" points="750.914,-321 750.914,-341 863.086,-341 863.086,-321 750.914,-321"/>
<text text-anchor="middle" x="807" y="-327" font-family="Helvetica,sans-Serif" font-size="10.00">AP_Airspeed::healthy</text>
</a>
</g>
</g>
<!-- Node54&#45;&gt;Node55 -->
<g id="edge4" class="edge"><title>Node54&#45;&gt;Node55</title>
<path fill="none" stroke="midnightblue" d="M708.274,-332.163C719.04,-332.035 730.115,-331.903 740.766,-331.777"/>
<polygon fill="midnightblue" stroke="midnightblue" points="740.866,-335.276 750.823,-331.657 740.782,-328.276 740.866,-335.276"/>
</g>
<!-- Node56 -->
<g id="node6" class="node"><title>Node56</title>
<g id="a_node6"><a xlink:href="classAP__Airspeed.html#a86b49520d90ba23d15fb79614605e522" target="_top" xlink:title=" ">
<polygon fill="white" stroke="black" points="909.242,-318 909.242,-338 1024.76,-338 1024.76,-318 909.242,-318"/>
<text text-anchor="middle" x="967" y="-324" font-family="Helvetica,sans-Serif" font-size="10.00">AP_Airspeed::enabled</text>
</a>
</g>
</g>
<!-- Node55&#45;&gt;Node56 -->
<g id="edge5" class="edge"><title>Node55&#45;&gt;Node56</title>
<path fill="none" stroke="midnightblue" d="M863.261,-329.951C874.755,-329.733 886.988,-329.5 898.856,-329.275"/>
<polygon fill="midnightblue" stroke="midnightblue" points="899.232,-332.768 909.164,-329.079 899.099,-325.77 899.232,-332.768"/>
</g>
<!-- Node56&#45;&gt;Node56 -->
<g id="edge6" class="edge"><title>Node56&#45;&gt;Node56</title>
<path fill="none" stroke="midnightblue" d="M945.395,-338.048C935.541,-346.771 942.742,-356 967,-356 982.161,-356 990.66,-352.395 992.496,-347.562"/>
<polygon fill="midnightblue" stroke="midnightblue" points="995.63,-345.979 988.605,-338.048 989.151,-348.628 995.63,-345.979"/>
</g>
<!-- Node59 -->
<g id="node9" class="node"><title>Node59</title>
<g id="a_node9"><a xlink:href="classAP__GPS.html#a08d0437767d62a318e59b40cf323a31a" target="_top" xlink:title=" ">
<polygon fill="white" stroke="black" points="746.466,-239 746.466,-259 867.534,-259 867.534,-239 746.466,-239"/>
<text text-anchor="middle" x="807" y="-245" font-family="Helvetica,sans-Serif" font-size="10.00">AP_GPS::get_singleton</text>
</a>
</g>
</g>
<!-- Node58&#45;&gt;Node59 -->
<g id="edge9" class="edge"><title>Node58&#45;&gt;Node59</title>
<path fill="none" stroke="midnightblue" d="M662.789,-249C682.128,-249 709.985,-249 735.999,-249"/>
<polygon fill="midnightblue" stroke="midnightblue" points="736.237,-252.5 746.237,-249 736.237,-245.5 736.237,-252.5"/>
</g>
<!-- Node62 -->
<g id="node12" class="node"><title>Node62</title>
<g id="a_node12"><a xlink:href="namespaceAP.html#a8aec57eb0b7a79044cbc1f0ca4b75bcf" target="_top" xlink:title=" ">
<polygon fill="white" stroke="black" points="779.544,-181 779.544,-201 834.456,-201 834.456,-181 779.544,-181"/>
<text text-anchor="middle" x="807" y="-187" font-family="Helvetica,sans-Serif" font-size="10.00">AP::baro</text>
</a>
</g>
</g>
<!-- Node61&#45;&gt;Node62 -->
<g id="edge12" class="edge"><title>Node61&#45;&gt;Node62</title>
<path fill="none" stroke="midnightblue" d="M703.434,-178.79C725.822,-181.455 750.063,-184.341 769.354,-186.637"/>
<polygon fill="midnightblue" stroke="midnightblue" points="769.175,-190.141 779.519,-187.847 770.003,-183.19 769.175,-190.141"/>
</g>
<!-- Node64 -->
<g id="node14" class="node"><title>Node64</title>
<g id="a_node14"><a xlink:href="classAP__Baro.html#a0115c37618652051c1f6efd072fcc74b" target="_top" xlink:title=" ">
<polygon fill="white" stroke="black" points="744.337,-116 744.337,-136 869.663,-136 869.663,-116 744.337,-116"/>
<text text-anchor="middle" x="807" y="-122" font-family="Helvetica,sans-Serif" font-size="10.00">AP_Baro::get_EAS2TAS</text>
</a>
</g>
</g>
<!-- Node61&#45;&gt;Node64 -->
<g id="edge14" class="edge"><title>Node61&#45;&gt;Node64</title>
<path fill="none" stroke="midnightblue" d="M675.702,-160.901C700.236,-154.33 732.433,-145.705 758.683,-138.674"/>
<polygon fill="midnightblue" stroke="midnightblue" points="759.669,-142.033 768.423,-136.065 757.858,-135.272 759.669,-142.033"/>
</g>
<!-- Node63 -->
<g id="node13" class="node"><title>Node63</title>
<g id="a_node13"><a xlink:href="classAP__Baro.html#a92b0efed71f214529da6c54d692f1d61" target="_top" xlink:title=" ">
<polygon fill="white" stroke="black" points="906.463,-243 906.463,-263 1027.54,-263 1027.54,-243 906.463,-243"/>
<text text-anchor="middle" x="967" y="-249" font-family="Helvetica,sans-Serif" font-size="10.00">AP_Baro::get_singleton</text>
</a>
</g>
</g>
<!-- Node62&#45;&gt;Node63 -->
<g id="edge13" class="edge"><title>Node62&#45;&gt;Node63</title>
<path fill="none" stroke="midnightblue" d="M829.971,-201.038C849.693,-209.899 879.528,-222.935 906,-233 911.927,-235.253 918.233,-237.508 924.446,-239.648"/>
<polygon fill="midnightblue" stroke="midnightblue" points="923.47,-243.013 934.064,-242.902 925.713,-236.382 923.47,-243.013"/>
</g>
<!-- Node65 -->
<g id="node15" class="node"><title>Node65</title>
<g id="a_node15"><a xlink:href="classAP__Baro.html#a50ae73cce1699d88638e3dfab4ffd330" target="_top" xlink:title=" ">
<polygon fill="white" stroke="black" points="910.355,-90 910.355,-110 1023.65,-110 1023.65,-90 910.355,-90"/>
<text text-anchor="middle" x="967" y="-96" font-family="Helvetica,sans-Serif" font-size="10.00">AP_Baro::get_altitude</text>
</a>
</g>
</g>
<!-- Node64&#45;&gt;Node65 -->
<g id="edge15" class="edge"><title>Node64&#45;&gt;Node65</title>
<path fill="none" stroke="midnightblue" d="M869.087,-115.948C879.247,-114.276 889.824,-112.535 900.098,-110.845"/>
<polygon fill="midnightblue" stroke="midnightblue" points="900.944,-114.253 910.243,-109.175 899.807,-107.345 900.944,-114.253"/>
</g>
<!-- Node66 -->
<g id="node16" class="node"><title>Node66</title>
<g id="a_node16"><a xlink:href="AP__Math_8h.html#a2a12cce483e9b870da70d30406d82c60" target="_top" xlink:title=" ">
<polygon fill="white" stroke="black" points="1081.88,-28 1081.88,-48 1130.12,-48 1130.12,-28 1081.88,-28"/>
<text text-anchor="middle" x="1106" y="-34" font-family="Helvetica,sans-Serif" font-size="10.00">is_zero</text>
</a>
</g>
</g>
<!-- Node64&#45;&gt;Node66 -->
<g id="edge17" class="edge"><title>Node64&#45;&gt;Node66</title>
<path fill="none" stroke="midnightblue" d="M826.259,-115.863C845.555,-105.527 877.131,-89.677 906,-80 962.855,-60.942 1031.85,-48.6864 1071.86,-42.5949"/>
<polygon fill="midnightblue" stroke="midnightblue" points="1072.48,-46.0406 1081.86,-41.1091 1071.46,-39.1166 1072.48,-46.0406"/>
</g>
<!-- Node67 -->
<g id="node17" class="node"><title>Node67</title>
<g id="a_node17"><a xlink:href="classAP__Baro.html#a932c39564d42db7594dc132eb6703919" target="_top" xlink:title=" ">
<polygon fill="white" stroke="black" points="910.909,-0 910.909,-32 1023.09,-32 1023.09,-0 910.909,-0"/>
<text text-anchor="start" x="918.909" y="-18" font-family="Helvetica,sans-Serif" font-size="10.00">AP_Baro::get_ground</text>
<text text-anchor="middle" x="967" y="-6" font-family="Helvetica,sans-Serif" font-size="10.00">_temperature</text>
</a>
</g>
</g>
<!-- Node64&#45;&gt;Node67 -->
<g id="edge18" class="edge"><title>Node64&#45;&gt;Node67</title>
<path fill="none" stroke="midnightblue" d="M818.902,-115.979C836.425,-100.163 872.314,-68.9582 906,-47 911.35,-43.5125 917.14,-40.1057 922.94,-36.9031"/>
<polygon fill="midnightblue" stroke="midnightblue" points="924.834,-39.8593 932.001,-32.0563 921.532,-33.6868 924.834,-39.8593"/>
</g>
<!-- Node68 -->
<g id="node18" class="node"><title>Node68</title>
<g id="a_node18"><a xlink:href="classAP__Baro.html#a41b3c00624c78b883413b53fc5a81a32" target="_top" xlink:title=" ">
<polygon fill="white" stroke="black" points="907.025,-186 907.025,-206 1026.98,-206 1026.98,-186 907.025,-186"/>
<text text-anchor="middle" x="967" y="-192" font-family="Helvetica,sans-Serif" font-size="10.00">AP_Baro::get_pressure</text>
</a>
</g>
</g>
<!-- Node64&#45;&gt;Node68 -->
<g id="edge20" class="edge"><title>Node64&#45;&gt;Node68</title>
<path fill="none" stroke="midnightblue" d="M825.679,-136.041C845.015,-146.78 877.109,-163.895 906,-176 911.515,-178.311 917.398,-180.543 923.243,-182.626"/>
<polygon fill="midnightblue" stroke="midnightblue" points="922.379,-186.03 932.974,-185.978 924.659,-179.412 922.379,-186.03"/>
</g>
<!-- Node69 -->
<g id="node19" class="node"><title>Node69</title>
<g id="a_node19"><a xlink:href="AP__Math_8h.html#a4e3ae698e8f99cec214348ad233e3c41" target="_top" xlink:title=" ">
<polygon fill="white" stroke="black" points="935.655,-147 935.655,-167 998.345,-167 998.345,-147 935.655,-147"/>
<text text-anchor="middle" x="967" y="-153" font-family="Helvetica,sans-Serif" font-size="10.00">is_positive</text>
</a>
</g>
</g>
<!-- Node64&#45;&gt;Node69 -->
<g id="edge22" class="edge"><title>Node64&#45;&gt;Node69</title>
<path fill="none" stroke="midnightblue" d="M859.298,-136.065C880.63,-140.25 905.046,-145.041 925.135,-148.982"/>
<polygon fill="midnightblue" stroke="midnightblue" points="924.72,-152.467 935.206,-150.958 926.067,-145.598 924.72,-152.467"/>
</g>
<!-- Node65&#45;&gt;Node65 -->
<g id="edge16" class="edge"><title>Node65&#45;&gt;Node65</title>
<path fill="none" stroke="midnightblue" d="M945.395,-110.048C935.541,-118.771 942.742,-128 967,-128 982.161,-128 990.66,-124.395 992.496,-119.562"/>
<polygon fill="midnightblue" stroke="midnightblue" points="995.63,-117.979 988.605,-110.048 989.151,-120.628 995.63,-117.979"/>
</g>
<!-- Node67&#45;&gt;Node66 -->
<g id="edge19" class="edge"><title>Node67&#45;&gt;Node66</title>
<path fill="none" stroke="midnightblue" d="M1023.33,-24.8848C1039.7,-27.5142 1057.12,-30.3111 1071.64,-32.6437"/>
<polygon fill="midnightblue" stroke="midnightblue" points="1071.23,-36.1212 1081.65,-34.2511 1072.34,-29.2097 1071.23,-36.1212"/>
</g>
<!-- Node68&#45;&gt;Node68 -->
<g id="edge21" class="edge"><title>Node68&#45;&gt;Node68</title>
<path fill="none" stroke="midnightblue" d="M945.395,-206.048C935.541,-214.771 942.742,-224 967,-224 982.161,-224 990.66,-220.395 992.496,-215.562"/>
<polygon fill="midnightblue" stroke="midnightblue" points="995.63,-213.979 988.605,-206.048 989.151,-216.628 995.63,-213.979"/>
</g>
<!-- Node71 -->
<g id="node21" class="node"><title>Node71</title>
<g id="a_node21"><a xlink:href="AP__Math_8h.html#a20e8f8671c282c69c1954652b6d61585" target="_top" xlink:title=" ">
<polygon fill="white" stroke="black" points="763.978,-375 763.978,-395 850.022,-395 850.022,-375 763.978,-375"/>
<text text-anchor="middle" x="807" y="-381" font-family="Helvetica,sans-Serif" font-size="10.00">constrain_value</text>
</a>
</g>
</g>
<!-- Node70&#45;&gt;Node71 -->
<g id="edge24" class="edge"><title>Node70&#45;&gt;Node71</title>
<path fill="none" stroke="midnightblue" d="M677.814,-380.422C700.483,-381.232 729.153,-382.255 753.629,-383.13"/>
<polygon fill="midnightblue" stroke="midnightblue" points="753.713,-386.635 763.832,-383.494 753.963,-379.639 753.713,-386.635"/>
</g>
<!-- Node72 -->
<g id="node22" class="node"><title>Node72</title>
<g id="a_node22"><a xlink:href="namespaceAP.html#afceb236ff617aaaa2b08afacd72532b0" target="_top" xlink:title=" ">
<polygon fill="white" stroke="black" points="922.596,-375 922.596,-395 1011.4,-395 1011.4,-375 922.596,-375"/>
<text text-anchor="middle" x="967" y="-381" font-family="Helvetica,sans-Serif" font-size="10.00">AP::internalerror</text>
</a>
</g>
</g>
<!-- Node71&#45;&gt;Node72 -->
<g id="edge25" class="edge"><title>Node71&#45;&gt;Node72</title>
<path fill="none" stroke="midnightblue" d="M850.341,-385C869.421,-385 892.167,-385 912.419,-385"/>
<polygon fill="midnightblue" stroke="midnightblue" points="912.44,-388.5 922.44,-385 912.44,-381.5 912.44,-388.5"/>
</g>
<!-- Node73 -->
<g id="node23" class="node"><title>Node73</title>
<g id="a_node23"><a xlink:href="classAP__InternalError.html#ab34174ba770b976b39a18c2b23e854f2" target="_top" xlink:title=" ">
<polygon fill="white" stroke="black" points="908.426,-414 908.426,-434 1025.57,-434 1025.57,-414 908.426,-414"/>
<text text-anchor="middle" x="967" y="-420" font-family="Helvetica,sans-Serif" font-size="10.00">AP_InternalError::error</text>
</a>
</g>
</g>
<!-- Node71&#45;&gt;Node73 -->
<g id="edge26" class="edge"><title>Node71&#45;&gt;Node73</title>
<path fill="none" stroke="midnightblue" d="M848.689,-395.043C869.054,-400.07 893.9,-406.203 915.475,-411.529"/>
<polygon fill="midnightblue" stroke="midnightblue" points="914.902,-414.992 925.449,-413.991 916.579,-408.196 914.902,-414.992"/>
</g>
<!-- Node74 -->
<g id="node24" class="node"><title>Node74</title>
<g id="a_node24"><a xlink:href="namespaceAP__HAL.html#a71832f03d849a0c088f04fc98d3c8143" target="_top" xlink:title=" ">
<polygon fill="white" stroke="black" points="1064.09,-414 1064.09,-434 1147.91,-434 1147.91,-414 1064.09,-414"/>
<text text-anchor="middle" x="1106" y="-420" font-family="Helvetica,sans-Serif" font-size="10.00">AP_HAL::panic</text>
</a>
</g>
</g>
<!-- Node73&#45;&gt;Node74 -->
<g id="edge27" class="edge"><title>Node73&#45;&gt;Node74</title>
<path fill="none" stroke="midnightblue" d="M1025.7,-424C1035.05,-424 1044.68,-424 1053.86,-424"/>
<polygon fill="midnightblue" stroke="midnightblue" points="1054,-427.5 1064,-424 1054,-420.5 1054,-427.5"/>
</g>
<!-- Node75 -->
<g id="node25" class="node"><title>Node75</title>
<g id="a_node25"><a xlink:href="stdio_8h.html#aae132cc6af1eb6cf43bf011d8d63e854" target="_top" xlink:title=" ">
<polygon fill="white" stroke="black" points="1217.38,-437 1217.38,-457 1260.62,-457 1260.62,-437 1217.38,-437"/>
<text text-anchor="middle" x="1239" y="-443" font-family="Helvetica,sans-Serif" font-size="10.00">vprintf</text>
</a>
</g>
</g>
<!-- Node74&#45;&gt;Node75 -->
<g id="edge28" class="edge"><title>Node74&#45;&gt;Node75</title>
<path fill="none" stroke="midnightblue" d="M1148.09,-431.214C1167.1,-434.553 1189.32,-438.453 1206.91,-441.542"/>
<polygon fill="midnightblue" stroke="midnightblue" points="1206.74,-445.066 1217.2,-443.348 1207.95,-438.171 1206.74,-445.066"/>
</g>
<!-- Node76 -->
<g id="node26" class="node"><title>Node76</title>
<g id="a_node26"><a xlink:href="classAP__HAL_1_1Scheduler.html#a78c4f1b1f192ac1c99544b6cc8f099b0" target="_top" xlink:title=" ">
<polygon fill="white" stroke="black" points="1183.75,-386 1183.75,-418 1294.25,-418 1294.25,-386 1183.75,-386"/>
<text text-anchor="start" x="1191.75" y="-404" font-family="Helvetica,sans-Serif" font-size="10.00">AP_HAL::Scheduler::</text>
<text text-anchor="middle" x="1239" y="-392" font-family="Helvetica,sans-Serif" font-size="10.00">delay_microseconds</text>
</a>
</g>
</g>
<!-- Node74&#45;&gt;Node76 -->
<g id="edge29" class="edge"><title>Node74&#45;&gt;Node76</title>
<path fill="none" stroke="midnightblue" d="M1148.09,-417.099C1156.18,-415.741 1164.85,-414.285 1173.5,-412.833"/>
<polygon fill="midnightblue" stroke="midnightblue" points="1174.32,-416.244 1183.6,-411.136 1173.16,-409.341 1174.32,-416.244"/>
</g>
</g>
</svg>
        <g id="navigator" transform="translate(0 0)" fill="#404254">
                <rect fill="#f2f5e9" fill-opacity="0.5" stroke="#606060" stroke-width=".5" x="0" y="0" width="60" height="60"/>
                <use id="zoomplus" xlink:href="#zoomPlus" x="17" y="9" onmousedown="handleZoom(evt,'in')"/>
                <use id="zoomminus" xlink:href="#zoomMin" x="42" y="9" onmousedown="handleZoom(evt,'out')"/>
                <use id="reset" xlink:href="#resetDef" x="30" y="36" onmousedown="handleReset()"/>
                <g id="arrowUp" xlink:href="#dirArrow" transform="translate(30 24)" onmousedown="handlePan(0,-1)">
                  <use xlink:href="#rim" fill="#404040">
                        <set attributeName="fill" to="#808080" begin="arrowUp.mouseover" end="arrowUp.mouseout"/>
                  </use>
                  <path fill="none" stroke="white" stroke-width="1.5" d="M0,-3.0v7 M-2.5,-0.5L0,-3.0L2.5,-0.5"/>
                </g>
                <g id="arrowRight" xlink:href="#dirArrow" transform="rotate(90) translate(36 -43)" onmousedown="handlePan(1,0)">
                  <use xlink:href="#rim" fill="#404040">
                        <set attributeName="fill" to="#808080" begin="arrowRight.mouseover" end="arrowRight.mouseout"/>
                  </use>
                  <path fill="none" stroke="white" stroke-width="1.5" d="M0,-3.0v7 M-2.5,-0.5L0,-3.0L2.5,-0.5"/>
                </g>
                <g id="arrowDown" xlink:href="#dirArrow" transform="rotate(180) translate(-30 -48)" onmousedown="handlePan(0,1)">
                  <use xlink:href="#rim" fill="#404040">
                        <set attributeName="fill" to="#808080" begin="arrowDown.mouseover" end="arrowDown.mouseout"/>
                  </use>
                  <path fill="none" stroke="white" stroke-width="1.5" d="M0,-3.0v7 M-2.5,-0.5L0,-3.0L2.5,-0.5"/>
                </g>
                <g id="arrowLeft" xlink:href="#dirArrow" transform="rotate(270) translate(-36 17)" onmousedown="handlePan(-1,0)">
                  <use xlink:href="#rim" fill="#404040">
                        <set attributeName="fill" to="#808080" begin="arrowLeft.mouseover" end="arrowLeft.mouseout"/>
                  </use>
                  <path fill="none" stroke="white" stroke-width="1.5" d="M0,-3.0v7 M-2.5,-0.5L0,-3.0L2.5,-0.5"/>
                </g>
        </g>
        <svg viewBox="0 0 15 15" width="100%" height="30px" preserveAspectRatio="xMaxYMin meet">
         <g id="arrow_out" transform="scale(0.3 0.3)">
          <a xlink:href="classAP__AHRS__View_abe8f34b4298666d1650b25d4c3dd7c73_cgraph_org.svg" target="_base">
           <rect id="button" ry="5" rx="5" y="6" x="6" height="38" width="38"
                fill="#f2f5e9" fill-opacity="0.5" stroke="#606060" stroke-width="1.0"/>
           <path id="arrow"
             d="M 11.500037,31.436501 C 11.940474,20.09759 22.043105,11.32322 32.158766,21.979434 L 37.068811,17.246167 C 37.068811,17.246167 37.088388,32 37.088388,32 L 22.160133,31.978069 C 22.160133,31.978069 26.997745,27.140456 26.997745,27.140456 C 18.528582,18.264221 13.291696,25.230495 11.500037,31.436501 z"
             style="fill:#404040;"/>
          </a>
         </g>
        </svg>
</svg>
