<?xml version="1.0" encoding="UTF-8" standalone="no"?>
<!DOCTYPE svg PUBLIC "-//W3C//DTD SVG 1.1//EN"
 "http://www.w3.org/Graphics/SVG/1.1/DTD/svg11.dtd">
<!-- Generated by graphviz version 2.30.1 (20130221.2233)
 -->
<!-- Title: AC_PosControl::shift_alt_target Pages: 1 -->
<!--zoomable 79 -->
<svg id="main" version="1.1" xmlns="http://www.w3.org/2000/svg" xmlns:xlink="http://www.w3.org/1999/xlink" xml:space="preserve" onload="init(evt)">
<style type="text/css"><![CDATA[
.edge:hover path { stroke: red; }
.edge:hover polygon { stroke: red; fill: red; }
]]></style>
<script type="text/javascript"><![CDATA[
var edges = document.getElementsByTagName('g');
if (edges && edges.length) {
  for (var i=0;i<edges.length;i++) {
    if (edges[i].id.substr(0,4)=='edge') {
      edges[i].setAttribute('class','edge');
    }
  }
}
]]></script>
        <defs>
                <circle id="rim" cx="0" cy="0" r="7"/>
                <circle id="rim2" cx="0" cy="0" r="3.5"/>
                <g id="zoomPlus">
                        <use xlink:href="#rim" fill="#404040">
                                <set attributeName="fill" to="#808080" begin="zoomplus.mouseover" end="zoomplus.mouseout"/>
                        </use>
                        <path d="M-4,0h8M0,-4v8" fill="none" stroke="white" stroke-width="1.5" pointer-events="none"/>
                </g>
                <g id="zoomMin">
                        <use xlink:href="#rim" fill="#404040">
                                <set attributeName="fill" to="#808080" begin="zoomminus.mouseover" end="zoomminus.mouseout"/>
                        </use>
                        <path d="M-4,0h8" fill="none" stroke="white" stroke-width="1.5" pointer-events="none"/>
                </g>
                <g id="dirArrow">
                        <path fill="none" stroke="white" stroke-width="1.5" d="M0,-3.0v7 M-2.5,-0.5L0,-3.0L2.5,-0.5"/>
                </g>
               <g id="resetDef">
                       <use xlink:href="#rim2" fill="#404040">
                               <set attributeName="fill" to="#808080" begin="reset.mouseover" end="reset.mouseout"/>
                       </use>
               </g>
        </defs>

<script type="text/javascript">
var viewWidth = 588;
var viewHeight = 79;
var sectionId = 'dynsection-99';
</script>
<script xlink:href="svgpan.js"/>
<svg id="graph" class="graph">
<g id="viewport">
<title>AC_PosControl::shift_alt_target</title>
<polygon fill="white" stroke="white" points="-4,5 -4,-75 585,-75 585,5 -4,5"/>
<!-- Node740 -->
<g id="node1" class="node"><title>Node740</title>
<g id="a_node1"><a xlink:title="shift altitude target (positive means move altitude up)">
<polygon fill="#bfbfbf" stroke="black" points="470.591,-16 470.591,-48 579.409,-48 579.409,-16 470.591,-16"/>
<text text-anchor="start" x="478.591" y="-34" font-family="Helvetica,sans-Serif" font-size="10.00">AC_PosControl::shift</text>
<text text-anchor="middle" x="525" y="-22" font-family="Helvetica,sans-Serif" font-size="10.00">_alt_target</text>
</a>
</g>
</g>
<!-- Node741 -->
<g id="node2" class="node"><title>Node741</title>
<g id="a_node2"><a xlink:href="classAC__PosControl.html#a6e28625ae3a633cd363c467f71d089a3" target="_top" xlink:title="check for ekf position reset and adjust loiter or brake target position">
<polygon fill="white" stroke="black" points="316.7,-16 316.7,-48 433.3,-48 433.3,-16 316.7,-16"/>
<text text-anchor="start" x="324.7" y="-34" font-family="Helvetica,sans-Serif" font-size="10.00">AC_PosControl::check</text>
<text text-anchor="middle" x="375" y="-22" font-family="Helvetica,sans-Serif" font-size="10.00">_for_ekf_z_reset</text>
</a>
</g>
</g>
<!-- Node740&#45;&gt;Node741 -->
<g id="edge1" class="edge"><title>Node740&#45;&gt;Node741</title>
<path fill="none" stroke="midnightblue" d="M460.503,-32C451.482,-32 442.248,-32 433.353,-32"/>
<polygon fill="midnightblue" stroke="midnightblue" points="460.569,-35.5001 470.569,-32 460.569,-28.5001 460.569,-35.5001"/>
</g>
<!-- Node742 -->
<g id="node3" class="node"><title>Node742</title>
<g id="a_node3"><a xlink:href="classAC__PosControl.html#af9c555a3b07ea1420ea28e7333379941" target="_top" xlink:title="update_z_controller &#45; fly to altitude in cm above home">
<polygon fill="white" stroke="black" points="158.468,-16 158.468,-48 279.532,-48 279.532,-16 158.468,-16"/>
<text text-anchor="start" x="166.468" y="-34" font-family="Helvetica,sans-Serif" font-size="10.00">AC_PosControl::update</text>
<text text-anchor="middle" x="219" y="-22" font-family="Helvetica,sans-Serif" font-size="10.00">_z_controller</text>
</a>
</g>
</g>
<!-- Node741&#45;&gt;Node742 -->
<g id="edge2" class="edge"><title>Node741&#45;&gt;Node742</title>
<path fill="none" stroke="midnightblue" d="M306.637,-32C297.672,-32 288.531,-32 279.709,-32"/>
<polygon fill="midnightblue" stroke="midnightblue" points="306.656,-35.5001 316.656,-32 306.656,-28.5001 306.656,-35.5001"/>
</g>
<!-- Node743 -->
<g id="node4" class="node"><title>Node743</title>
<g id="a_node4"><a xlink:href="classAC__PosControl.html#a4acc8cd7285895654901011106aeab6d" target="_top" xlink:title=" ">
<polygon fill="white" stroke="black" points="0.468262,-39 0.468262,-71 121.532,-71 121.532,-39 0.468262,-39"/>
<text text-anchor="start" x="8.46826" y="-57" font-family="Helvetica,sans-Serif" font-size="10.00">AC_PosControl::update</text>
<text text-anchor="middle" x="61" y="-45" font-family="Helvetica,sans-Serif" font-size="10.00">_vel_controller_xyz</text>
</a>
</g>
</g>
<!-- Node742&#45;&gt;Node743 -->
<g id="edge3" class="edge"><title>Node742&#45;&gt;Node743</title>
<path fill="none" stroke="midnightblue" d="M148.225,-42.2873C139.375,-43.5922 130.381,-44.9182 121.707,-46.197"/>
<polygon fill="midnightblue" stroke="midnightblue" points="148.75,-45.7479 158.132,-40.8266 147.729,-38.8227 148.75,-45.7479"/>
</g>
<!-- Node744 -->
<g id="node5" class="node"><title>Node744</title>
<g id="a_node5"><a xlink:href="classAC__AutoTune.html#a1a880de557aca3dc882924b746bcf383" target="_top" xlink:title=" ">
<polygon fill="white" stroke="black" points="11.7695,-0 11.7695,-20 110.23,-20 110.23,-0 11.7695,-0"/>
<text text-anchor="middle" x="61" y="-6" font-family="Helvetica,sans-Serif" font-size="10.00">AC_AutoTune::run</text>
</a>
</g>
</g>
<!-- Node742&#45;&gt;Node744 -->
<g id="edge4" class="edge"><title>Node742&#45;&gt;Node744</title>
<path fill="none" stroke="midnightblue" d="M148.014,-22.1301C135.287,-20.3353 122.272,-18.4999 110.344,-16.8178"/>
<polygon fill="midnightblue" stroke="midnightblue" points="147.742,-25.6263 158.132,-23.5571 148.719,-18.6949 147.742,-25.6263"/>
</g>
</g>
</svg>
        <g id="navigator" transform="translate(0 0)" fill="#404254">
                <rect fill="#f2f5e9" fill-opacity="0.5" stroke="#606060" stroke-width=".5" x="0" y="0" width="60" height="60"/>
                <use id="zoomplus" xlink:href="#zoomPlus" x="17" y="9" onmousedown="handleZoom(evt,'in')"/>
                <use id="zoomminus" xlink:href="#zoomMin" x="42" y="9" onmousedown="handleZoom(evt,'out')"/>
                <use id="reset" xlink:href="#resetDef" x="30" y="36" onmousedown="handleReset()"/>
                <g id="arrowUp" xlink:href="#dirArrow" transform="translate(30 24)" onmousedown="handlePan(0,-1)">
                  <use xlink:href="#rim" fill="#404040">
                        <set attributeName="fill" to="#808080" begin="arrowUp.mouseover" end="arrowUp.mouseout"/>
                  </use>
                  <path fill="none" stroke="white" stroke-width="1.5" d="M0,-3.0v7 M-2.5,-0.5L0,-3.0L2.5,-0.5"/>
                </g>
                <g id="arrowRight" xlink:href="#dirArrow" transform="rotate(90) translate(36 -43)" onmousedown="handlePan(1,0)">
                  <use xlink:href="#rim" fill="#404040">
                        <set attributeName="fill" to="#808080" begin="arrowRight.mouseover" end="arrowRight.mouseout"/>
                  </use>
                  <path fill="none" stroke="white" stroke-width="1.5" d="M0,-3.0v7 M-2.5,-0.5L0,-3.0L2.5,-0.5"/>
                </g>
                <g id="arrowDown" xlink:href="#dirArrow" transform="rotate(180) translate(-30 -48)" onmousedown="handlePan(0,1)">
                  <use xlink:href="#rim" fill="#404040">
                        <set attributeName="fill" to="#808080" begin="arrowDown.mouseover" end="arrowDown.mouseout"/>
                  </use>
                  <path fill="none" stroke="white" stroke-width="1.5" d="M0,-3.0v7 M-2.5,-0.5L0,-3.0L2.5,-0.5"/>
                </g>
                <g id="arrowLeft" xlink:href="#dirArrow" transform="rotate(270) translate(-36 17)" onmousedown="handlePan(-1,0)">
                  <use xlink:href="#rim" fill="#404040">
                        <set attributeName="fill" to="#808080" begin="arrowLeft.mouseover" end="arrowLeft.mouseout"/>
                  </use>
                  <path fill="none" stroke="white" stroke-width="1.5" d="M0,-3.0v7 M-2.5,-0.5L0,-3.0L2.5,-0.5"/>
                </g>
        </g>
        <svg viewBox="0 0 15 15" width="100%" height="30px" preserveAspectRatio="xMaxYMin meet">
         <g id="arrow_out" transform="scale(0.3 0.3)">
          <a xlink:href="classAC__PosControl_add9f8e5a5f3e35c0e99ddc3af4d9090b_icgraph_org.svg" target="_base">
           <rect id="button" ry="5" rx="5" y="6" x="6" height="38" width="38"
                fill="#f2f5e9" fill-opacity="0.5" stroke="#606060" stroke-width="1.0"/>
           <path id="arrow"
             d="M 11.500037,31.436501 C 11.940474,20.09759 22.043105,11.32322 32.158766,21.979434 L 37.068811,17.246167 C 37.068811,17.246167 37.088388,32 37.088388,32 L 22.160133,31.978069 C 22.160133,31.978069 26.997745,27.140456 26.997745,27.140456 C 18.528582,18.264221 13.291696,25.230495 11.500037,31.436501 z"
             style="fill:#404040;"/>
          </a>
         </g>
        </svg>
</svg>
