<?xml version="1.0" encoding="UTF-8" standalone="no"?>
<!DOCTYPE svg PUBLIC "-//W3C//DTD SVG 1.1//EN"
 "http://www.w3.org/Graphics/SVG/1.1/DTD/svg11.dtd">
<!-- Generated by graphviz version 2.30.1 (20130221.2233)
 -->
<!-- Title: AP::PerfInfo::set_loop_rate Pages: 1 -->
<svg width="502pt" height="79pt"
 viewBox="0.00 0.00 502.00 79.00" xmlns="http://www.w3.org/2000/svg" xmlns:xlink="http://www.w3.org/1999/xlink">
<g id="graph0" class="graph" transform="scale(1 1) rotate(0) translate(4 75)">
<title>AP::PerfInfo::set_loop_rate</title>
<polygon fill="white" stroke="white" points="-4,5 -4,-75 499,-75 499,5 -4,5"/>
<!-- Node43 -->
<g id="node1" class="node"><title>Node43</title>
<g id="a_node1"><a xlink:title=" ">
<polygon fill="#bfbfbf" stroke="black" points="357.963,-28 357.963,-48 494.037,-48 494.037,-28 357.963,-28"/>
<text text-anchor="middle" x="426" y="-34" font-family="Helvetica,sans-Serif" font-size="10.00">AP::PerfInfo::set_loop_rate</text>
</a>
</g>
</g>
<!-- Node44 -->
<g id="node2" class="node"><title>Node44</title>
<g id="a_node2"><a xlink:href="classAP__Scheduler.html#a602e25048ddab792f4654d17d38e1dd0" target="_top" xlink:title=" ">
<polygon fill="white" stroke="black" points="214.865,-51 214.865,-71 313.135,-71 313.135,-51 214.865,-51"/>
<text text-anchor="middle" x="264" y="-57" font-family="Helvetica,sans-Serif" font-size="10.00">AP_Scheduler::init</text>
</a>
</g>
</g>
<!-- Node43&#45;&gt;Node44 -->
<g id="edge1" class="edge"><title>Node43&#45;&gt;Node44</title>
<path fill="none" stroke="midnightblue" d="M347.442,-49.149C335.824,-50.8191 324.137,-52.499 313.363,-54.0478"/>
<polygon fill="midnightblue" stroke="midnightblue" points="348.209,-52.5748 357.609,-47.6874 347.213,-45.646 348.209,-52.5748"/>
</g>
<!-- Node47 -->
<g id="node5" class="node"><title>Node47</title>
<g id="a_node5"><a xlink:href="classAP__Scheduler.html#a463067370e88bd3c15d98b6e61abde41" target="_top" xlink:title=" ">
<polygon fill="white" stroke="black" points="205.963,-0 205.963,-32 322.037,-32 322.037,-0 205.963,-0"/>
<text text-anchor="start" x="213.963" y="-18" font-family="Helvetica,sans-Serif" font-size="10.00">AP_Scheduler::update</text>
<text text-anchor="middle" x="264" y="-6" font-family="Helvetica,sans-Serif" font-size="10.00">_logging</text>
</a>
</g>
</g>
<!-- Node43&#45;&gt;Node47 -->
<g id="edge4" class="edge"><title>Node43&#45;&gt;Node47</title>
<path fill="none" stroke="midnightblue" d="M347.6,-27.3575C339.037,-26.1802 330.435,-24.9974 322.187,-23.8631"/>
<polygon fill="midnightblue" stroke="midnightblue" points="347.226,-30.8389 357.609,-28.7338 348.179,-23.9041 347.226,-30.8389"/>
</g>
<!-- Node45 -->
<g id="node3" class="node"><title>Node45</title>
<g id="a_node3"><a xlink:href="classSchedTest.html#ae9afb73f76391e34d47286a516fe5292" target="_top" xlink:title=" ">
<polygon fill="white" stroke="black" points="76.6431,-51 76.6431,-71 169.357,-71 169.357,-51 76.6431,-51"/>
<text text-anchor="middle" x="123" y="-57" font-family="Helvetica,sans-Serif" font-size="10.00">SchedTest::setup</text>
</a>
</g>
</g>
<!-- Node44&#45;&gt;Node45 -->
<g id="edge2" class="edge"><title>Node44&#45;&gt;Node45</title>
<path fill="none" stroke="midnightblue" d="M204.683,-61C193.034,-61 180.955,-61 169.801,-61"/>
<polygon fill="midnightblue" stroke="midnightblue" points="204.775,-64.5001 214.775,-61 204.775,-57.5001 204.775,-64.5001"/>
</g>
<!-- Node46 -->
<g id="node4" class="node"><title>Node46</title>
<g id="a_node4"><a xlink:href="Scheduler__test_8cpp.html#a7dfd9b79bc5a37d7df40207afbc5431f" target="_top" xlink:title=" ">
<polygon fill="white" stroke="black" points="-0.231445,-51 -0.231445,-71 40.2314,-71 40.2314,-51 -0.231445,-51"/>
<text text-anchor="middle" x="20" y="-57" font-family="Helvetica,sans-Serif" font-size="10.00">setup</text>
</a>
</g>
</g>
<!-- Node45&#45;&gt;Node46 -->
<g id="edge3" class="edge"><title>Node45&#45;&gt;Node46</title>
<path fill="none" stroke="midnightblue" d="M66.3961,-61C57.0922,-61 48.0218,-61 40.4654,-61"/>
<polygon fill="midnightblue" stroke="midnightblue" points="66.5229,-64.5001 76.5229,-61 66.5228,-57.5001 66.5229,-64.5001"/>
</g>
</g>
</svg>
