<?xml version="1.0" encoding="UTF-8" standalone="no"?>
<!DOCTYPE svg PUBLIC "-//W3C//DTD SVG 1.1//EN"
 "http://www.w3.org/Graphics/SVG/1.1/DTD/svg11.dtd">
<!-- Generated by graphviz version 2.30.1 (20130221.2233)
 -->
<!-- Title: AC_Avoid::limit_velocity Pages: 1 -->
<!--zoomable 270 -->
<svg id="main" version="1.1" xmlns="http://www.w3.org/2000/svg" xmlns:xlink="http://www.w3.org/1999/xlink" xml:space="preserve" onload="init(evt)">
<style type="text/css"><![CDATA[
.edge:hover path { stroke: red; }
.edge:hover polygon { stroke: red; fill: red; }
]]></style>
<script type="text/javascript"><![CDATA[
var edges = document.getElementsByTagName('g');
if (edges && edges.length) {
  for (var i=0;i<edges.length;i++) {
    if (edges[i].id.substr(0,4)=='edge') {
      edges[i].setAttribute('class','edge');
    }
  }
}
]]></script>
        <defs>
                <circle id="rim" cx="0" cy="0" r="7"/>
                <circle id="rim2" cx="0" cy="0" r="3.5"/>
                <g id="zoomPlus">
                        <use xlink:href="#rim" fill="#404040">
                                <set attributeName="fill" to="#808080" begin="zoomplus.mouseover" end="zoomplus.mouseout"/>
                        </use>
                        <path d="M-4,0h8M0,-4v8" fill="none" stroke="white" stroke-width="1.5" pointer-events="none"/>
                </g>
                <g id="zoomMin">
                        <use xlink:href="#rim" fill="#404040">
                                <set attributeName="fill" to="#808080" begin="zoomminus.mouseover" end="zoomminus.mouseout"/>
                        </use>
                        <path d="M-4,0h8" fill="none" stroke="white" stroke-width="1.5" pointer-events="none"/>
                </g>
                <g id="dirArrow">
                        <path fill="none" stroke="white" stroke-width="1.5" d="M0,-3.0v7 M-2.5,-0.5L0,-3.0L2.5,-0.5"/>
                </g>
               <g id="resetDef">
                       <use xlink:href="#rim2" fill="#404040">
                               <set attributeName="fill" to="#808080" begin="reset.mouseover" end="reset.mouseout"/>
                       </use>
               </g>
        </defs>

<script type="text/javascript">
var viewWidth = 1104;
var viewHeight = 270;
var sectionId = 'dynsection-26';
</script>
<script xlink:href="svgpan.js"/>
<svg id="graph" class="graph">
<g id="viewport">
<title>AC_Avoid::limit_velocity</title>
<polygon fill="white" stroke="white" points="-4,5 -4,-266 1101,-266 1101,5 -4,5"/>
<!-- Node529 -->
<g id="node1" class="node"><title>Node529</title>
<g id="a_node1"><a xlink:title=" ">
<polygon fill="#bfbfbf" stroke="black" points="0.73584,-125 0.73584,-145 123.264,-145 123.264,-125 0.73584,-125"/>
<text text-anchor="middle" x="62" y="-131" font-family="Helvetica,sans-Serif" font-size="10.00">AC_Avoid::limit_velocity</text>
</a>
</g>
</g>
<!-- Node530 -->
<g id="node2" class="node"><title>Node530</title>
<g id="a_node2"><a xlink:href="classAC__Avoid.html#acf9f0a41f55ca147540a9515aef67260" target="_top" xlink:title=" ">
<polygon fill="white" stroke="black" points="160.495,-125 160.495,-145 297.505,-145 297.505,-125 160.495,-125"/>
<text text-anchor="middle" x="229" y="-131" font-family="Helvetica,sans-Serif" font-size="10.00">AC_Avoid::get_max_speed</text>
</a>
</g>
</g>
<!-- Node529&#45;&gt;Node530 -->
<g id="edge1" class="edge"><title>Node529&#45;&gt;Node530</title>
<path fill="none" stroke="midnightblue" d="M123.503,-135C132.19,-135 141.229,-135 150.193,-135"/>
<polygon fill="midnightblue" stroke="midnightblue" points="150.26,-138.5 160.26,-135 150.259,-131.5 150.26,-138.5"/>
</g>
<!-- Node531 -->
<g id="node3" class="node"><title>Node531</title>
<g id="a_node3"><a xlink:href="AP__Math_8h.html#a2a12cce483e9b870da70d30406d82c60" target="_top" xlink:title=" ">
<polygon fill="white" stroke="black" points="488.882,-242 488.882,-262 537.118,-262 537.118,-242 488.882,-242"/>
<text text-anchor="middle" x="513" y="-248" font-family="Helvetica,sans-Serif" font-size="10.00">is_zero</text>
</a>
</g>
</g>
<!-- Node530&#45;&gt;Node531 -->
<g id="edge2" class="edge"><title>Node530&#45;&gt;Node531</title>
<path fill="none" stroke="midnightblue" d="M254.532,-145.178C305.328,-166.253 422.039,-214.676 479.218,-238.399"/>
<polygon fill="midnightblue" stroke="midnightblue" points="477.942,-241.659 488.52,-242.258 480.625,-235.193 477.942,-241.659"/>
</g>
<!-- Node532 -->
<g id="node4" class="node"><title>Node532</title>
<g id="a_node4"><a xlink:href="AP__Math_8cpp.html#ac89eb1832d8e4d67fcf1ac07e3c25184" target="_top" xlink:title=" ">
<polygon fill="white" stroke="black" points="484.434,-8 484.434,-28 541.566,-28 541.566,-8 484.434,-8"/>
<text text-anchor="middle" x="513" y="-14" font-family="Helvetica,sans-Serif" font-size="10.00">safe_sqrt</text>
</a>
</g>
</g>
<!-- Node530&#45;&gt;Node532 -->
<g id="edge3" class="edge"><title>Node530&#45;&gt;Node532</title>
<path fill="none" stroke="midnightblue" d="M254.532,-124.822C305.075,-103.852 420.877,-55.8064 478.359,-31.9576"/>
<polygon fill="midnightblue" stroke="midnightblue" points="479.83,-35.1365 487.725,-28.0715 477.147,-28.6709 479.83,-35.1365"/>
</g>
<!-- Node533 -->
<g id="node5" class="node"><title>Node533</title>
<g id="a_node5"><a xlink:href="classAC__AttitudeControl.html#afaae7a2946b83e87a9c6c4477db0e2af" target="_top" xlink:title=" ">
<polygon fill="white" stroke="black" points="334.2,-119 334.2,-151 435.8,-151 435.8,-119 334.2,-119"/>
<text text-anchor="start" x="342.2" y="-137" font-family="Helvetica,sans-Serif" font-size="10.00">AC_AttitudeControl</text>
<text text-anchor="middle" x="385" y="-125" font-family="Helvetica,sans-Serif" font-size="10.00">::sqrt_controller</text>
</a>
</g>
</g>
<!-- Node530&#45;&gt;Node533 -->
<g id="edge4" class="edge"><title>Node530&#45;&gt;Node533</title>
<path fill="none" stroke="midnightblue" d="M297.547,-135C306.376,-135 315.373,-135 324.065,-135"/>
<polygon fill="midnightblue" stroke="midnightblue" points="324.1,-138.5 334.1,-135 324.1,-131.5 324.1,-138.5"/>
</g>
<!-- Node534 -->
<g id="node6" class="node"><title>Node534</title>
<g id="a_node6"><a xlink:href="AP__Math_8h.html#a8b6f71a42818d74fd8bfe348108942fa" target="_top" xlink:title=" ">
<polygon fill="white" stroke="black" points="479.705,-203 479.705,-223 546.295,-223 546.295,-203 479.705,-203"/>
<text text-anchor="middle" x="513" y="-209" font-family="Helvetica,sans-Serif" font-size="10.00">is_negative</text>
</a>
</g>
</g>
<!-- Node533&#45;&gt;Node534 -->
<g id="edge5" class="edge"><title>Node533&#45;&gt;Node534</title>
<path fill="none" stroke="midnightblue" d="M408.12,-151.082C425.194,-163.207 449.606,-179.924 472,-193 475.042,-194.776 478.263,-196.551 481.503,-198.27"/>
<polygon fill="midnightblue" stroke="midnightblue" points="480.059,-201.463 490.553,-202.916 483.256,-195.235 480.059,-201.463"/>
</g>
<!-- Node533&#45;&gt;Node531 -->
<g id="edge6" class="edge"><title>Node533&#45;&gt;Node531</title>
<path fill="none" stroke="midnightblue" d="M397.256,-151.143C412.368,-171.916 440.933,-208.159 472,-232 474.446,-233.877 477.097,-235.654 479.829,-237.315"/>
<polygon fill="midnightblue" stroke="midnightblue" points="478.238,-240.435 488.683,-242.213 481.627,-234.31 478.238,-240.435"/>
</g>
<!-- Node535 -->
<g id="node7" class="node"><title>Node535</title>
<g id="a_node7"><a xlink:href="main_8c.html#a9d87237c8a191a7bb92fc78770e62592" target="_top" xlink:title=" ">
<polygon fill="white" stroke="black" points="494.443,-164 494.443,-184 531.557,-184 531.557,-164 494.443,-164"/>
<text text-anchor="middle" x="513" y="-170" font-family="Helvetica,sans-Serif" font-size="10.00">error</text>
</a>
</g>
</g>
<!-- Node533&#45;&gt;Node535 -->
<g id="edge7" class="edge"><title>Node533&#45;&gt;Node535</title>
<path fill="none" stroke="midnightblue" d="M436.161,-150.526C452.728,-155.654 470.532,-161.165 484.724,-165.557"/>
<polygon fill="midnightblue" stroke="midnightblue" points="483.762,-168.923 494.35,-168.537 485.832,-162.236 483.762,-168.923"/>
</g>
<!-- Node538 -->
<g id="node10" class="node"><title>Node538</title>
<g id="a_node10"><a xlink:href="AP__Math_8h.html#a4e3ae698e8f99cec214348ad233e3c41" target="_top" xlink:title=" ">
<polygon fill="white" stroke="black" points="481.655,-125 481.655,-145 544.345,-145 544.345,-125 481.655,-125"/>
<text text-anchor="middle" x="513" y="-131" font-family="Helvetica,sans-Serif" font-size="10.00">is_positive</text>
</a>
</g>
</g>
<!-- Node533&#45;&gt;Node538 -->
<g id="edge10" class="edge"><title>Node533&#45;&gt;Node538</title>
<path fill="none" stroke="midnightblue" d="M436.161,-135C447.81,-135 460.071,-135 471.258,-135"/>
<polygon fill="midnightblue" stroke="midnightblue" points="471.599,-138.5 481.599,-135 471.599,-131.5 471.599,-138.5"/>
</g>
<!-- Node533&#45;&gt;Node532 -->
<g id="edge11" class="edge"><title>Node533&#45;&gt;Node532</title>
<path fill="none" stroke="midnightblue" d="M396.888,-118.947C411.811,-97.9059 440.392,-60.8782 472,-37 473.794,-35.6445 475.701,-34.3507 477.67,-33.1222"/>
<polygon fill="midnightblue" stroke="midnightblue" points="479.529,-36.0932 486.557,-28.1655 476.119,-29.9798 479.529,-36.0932"/>
</g>
<!-- Node539 -->
<g id="node11" class="node"><title>Node539</title>
<g id="a_node11"><a xlink:href="AP__Math_8h.html#a0375e3d67fd3911cacee5c3e1408c0f2" target="_top" xlink:title=" ">
<polygon fill="white" stroke="black" points="498.5,-86 498.5,-106 527.5,-106 527.5,-86 498.5,-86"/>
<text text-anchor="middle" x="513" y="-92" font-family="Helvetica,sans-Serif" font-size="10.00">sq</text>
</a>
</g>
</g>
<!-- Node533&#45;&gt;Node539 -->
<g id="edge12" class="edge"><title>Node533&#45;&gt;Node539</title>
<path fill="none" stroke="midnightblue" d="M436.161,-119.474C454.274,-113.868 473.866,-107.803 488.599,-103.243"/>
<polygon fill="midnightblue" stroke="midnightblue" points="489.859,-106.517 498.377,-100.217 487.79,-99.8299 489.859,-106.517"/>
</g>
<!-- Node540 -->
<g id="node12" class="node"><title>Node540</title>
<g id="a_node12"><a xlink:href="AP__Math_8h.html#ad525609d9dba6ffa556a0fbf08a3f9b4" target="_top" xlink:title=" ">
<polygon fill="white" stroke="black" points="472.48,-47 472.48,-67 553.52,-67 553.52,-47 472.48,-47"/>
<text text-anchor="middle" x="513" y="-53" font-family="Helvetica,sans-Serif" font-size="10.00">constrain_float</text>
</a>
</g>
</g>
<!-- Node533&#45;&gt;Node540 -->
<g id="edge13" class="edge"><title>Node533&#45;&gt;Node540</title>
<path fill="none" stroke="midnightblue" d="M408.12,-118.918C425.194,-106.793 449.606,-90.0762 472,-77 475.042,-75.2236 478.263,-73.4486 481.503,-71.7303"/>
<polygon fill="midnightblue" stroke="midnightblue" points="483.256,-74.7647 490.553,-67.0838 480.059,-68.5374 483.256,-74.7647"/>
</g>
<!-- Node536 -->
<g id="node8" class="node"><title>Node536</title>
<g id="a_node8"><a xlink:href="malloc_8c.html#a7ac38fce3243a7dcf448301ee9ffd392" target="_top" xlink:title=" ">
<polygon fill="white" stroke="black" points="610.552,-164 610.552,-184 655.448,-184 655.448,-164 610.552,-164"/>
<text text-anchor="middle" x="633" y="-170" font-family="Helvetica,sans-Serif" font-size="10.00">malloc</text>
</a>
</g>
</g>
<!-- Node535&#45;&gt;Node536 -->
<g id="edge8" class="edge"><title>Node535&#45;&gt;Node536</title>
<path fill="none" stroke="midnightblue" d="M531.666,-174C549.678,-174 578.019,-174 599.992,-174"/>
<polygon fill="midnightblue" stroke="midnightblue" points="600.195,-177.5 610.195,-174 600.195,-170.5 600.195,-177.5"/>
</g>
<!-- Node537 -->
<g id="node9" class="node"><title>Node537</title>
<g id="a_node9"><a xlink:href="malloc_8c.html#aa5c105052a59261e63119d5203374a41" target="_top" xlink:title=" ">
<polygon fill="white" stroke="black" points="735.209,-164 735.209,-184 806.791,-184 806.791,-164 735.209,-164"/>
<text text-anchor="middle" x="771" y="-170" font-family="Helvetica,sans-Serif" font-size="10.00">malloc_flags</text>
</a>
</g>
</g>
<!-- Node536&#45;&gt;Node537 -->
<g id="edge9" class="edge"><title>Node536&#45;&gt;Node537</title>
<path fill="none" stroke="midnightblue" d="M655.55,-174C674.144,-174 701.615,-174 724.983,-174"/>
<polygon fill="midnightblue" stroke="midnightblue" points="725.045,-177.5 735.045,-174 725.045,-170.5 725.045,-177.5"/>
</g>
<!-- Node541 -->
<g id="node13" class="node"><title>Node541</title>
<g id="a_node13"><a xlink:href="AP__Math_8h.html#a20e8f8671c282c69c1954652b6d61585" target="_top" xlink:title=" ">
<polygon fill="white" stroke="black" points="589.978,-47 589.978,-67 676.022,-67 676.022,-47 589.978,-47"/>
<text text-anchor="middle" x="633" y="-53" font-family="Helvetica,sans-Serif" font-size="10.00">constrain_value</text>
</a>
</g>
</g>
<!-- Node540&#45;&gt;Node541 -->
<g id="edge14" class="edge"><title>Node540&#45;&gt;Node541</title>
<path fill="none" stroke="midnightblue" d="M553.621,-57C561.994,-57 570.953,-57 579.712,-57"/>
<polygon fill="midnightblue" stroke="midnightblue" points="579.856,-60.5001 589.856,-57 579.856,-53.5001 579.856,-60.5001"/>
</g>
<!-- Node542 -->
<g id="node14" class="node"><title>Node542</title>
<g id="a_node14"><a xlink:href="namespaceAP.html#afceb236ff617aaaa2b08afacd72532b0" target="_top" xlink:title=" ">
<polygon fill="white" stroke="black" points="726.596,-67 726.596,-87 815.404,-87 815.404,-67 726.596,-67"/>
<text text-anchor="middle" x="771" y="-73" font-family="Helvetica,sans-Serif" font-size="10.00">AP::internalerror</text>
</a>
</g>
</g>
<!-- Node541&#45;&gt;Node542 -->
<g id="edge15" class="edge"><title>Node541&#45;&gt;Node542</title>
<path fill="none" stroke="midnightblue" d="M676.286,-63.2185C688.962,-65.0826 703.035,-67.1523 716.342,-69.1091"/>
<polygon fill="midnightblue" stroke="midnightblue" points="715.929,-72.5859 726.331,-70.5782 716.947,-65.6604 715.929,-72.5859"/>
</g>
<!-- Node543 -->
<g id="node15" class="node"><title>Node543</title>
<g id="a_node15"><a xlink:href="classAP__InternalError.html#ab34174ba770b976b39a18c2b23e854f2" target="_top" xlink:title=" ">
<polygon fill="white" stroke="black" points="712.426,-28 712.426,-48 829.574,-48 829.574,-28 712.426,-28"/>
<text text-anchor="middle" x="771" y="-34" font-family="Helvetica,sans-Serif" font-size="10.00">AP_InternalError::error</text>
</a>
</g>
</g>
<!-- Node541&#45;&gt;Node543 -->
<g id="edge16" class="edge"><title>Node541&#45;&gt;Node543</title>
<path fill="none" stroke="midnightblue" d="M676.286,-51.0924C684.557,-49.9369 693.424,-48.6981 702.284,-47.4603"/>
<polygon fill="midnightblue" stroke="midnightblue" points="702.833,-50.9177 712.253,-46.0676 701.865,-43.985 702.833,-50.9177"/>
</g>
<!-- Node544 -->
<g id="node16" class="node"><title>Node544</title>
<g id="a_node16"><a xlink:href="namespaceAP__HAL.html#a71832f03d849a0c088f04fc98d3c8143" target="_top" xlink:title=" ">
<polygon fill="white" stroke="black" points="866.091,-28 866.091,-48 949.909,-48 949.909,-28 866.091,-28"/>
<text text-anchor="middle" x="908" y="-34" font-family="Helvetica,sans-Serif" font-size="10.00">AP_HAL::panic</text>
</a>
</g>
</g>
<!-- Node543&#45;&gt;Node544 -->
<g id="edge17" class="edge"><title>Node543&#45;&gt;Node544</title>
<path fill="none" stroke="midnightblue" d="M829.644,-38C838.305,-38 847.188,-38 855.705,-38"/>
<polygon fill="midnightblue" stroke="midnightblue" points="855.873,-41.5001 865.873,-38 855.872,-34.5001 855.873,-41.5001"/>
</g>
<!-- Node545 -->
<g id="node17" class="node"><title>Node545</title>
<g id="a_node17"><a xlink:href="stdio_8h.html#aae132cc6af1eb6cf43bf011d8d63e854" target="_top" xlink:title=" ">
<polygon fill="white" stroke="black" points="1019.38,-51 1019.38,-71 1062.62,-71 1062.62,-51 1019.38,-51"/>
<text text-anchor="middle" x="1041" y="-57" font-family="Helvetica,sans-Serif" font-size="10.00">vprintf</text>
</a>
</g>
</g>
<!-- Node544&#45;&gt;Node545 -->
<g id="edge18" class="edge"><title>Node544&#45;&gt;Node545</title>
<path fill="none" stroke="midnightblue" d="M950.09,-45.2142C969.104,-48.5526 991.321,-52.4533 1008.91,-55.542"/>
<polygon fill="midnightblue" stroke="midnightblue" points="1008.74,-59.0658 1019.2,-57.3478 1009.95,-52.1712 1008.74,-59.0658"/>
</g>
<!-- Node546 -->
<g id="node18" class="node"><title>Node546</title>
<g id="a_node18"><a xlink:href="classAP__HAL_1_1Scheduler.html#a78c4f1b1f192ac1c99544b6cc8f099b0" target="_top" xlink:title=" ">
<polygon fill="white" stroke="black" points="985.751,-0 985.751,-32 1096.25,-32 1096.25,-0 985.751,-0"/>
<text text-anchor="start" x="993.751" y="-18" font-family="Helvetica,sans-Serif" font-size="10.00">AP_HAL::Scheduler::</text>
<text text-anchor="middle" x="1041" y="-6" font-family="Helvetica,sans-Serif" font-size="10.00">delay_microseconds</text>
</a>
</g>
</g>
<!-- Node544&#45;&gt;Node546 -->
<g id="edge19" class="edge"><title>Node544&#45;&gt;Node546</title>
<path fill="none" stroke="midnightblue" d="M950.09,-31.0994C958.18,-29.7408 966.849,-28.2849 975.495,-26.8329"/>
<polygon fill="midnightblue" stroke="midnightblue" points="976.316,-30.2441 985.599,-25.1361 975.157,-23.3407 976.316,-30.2441"/>
</g>
</g>
</svg>
        <g id="navigator" transform="translate(0 0)" fill="#404254">
                <rect fill="#f2f5e9" fill-opacity="0.5" stroke="#606060" stroke-width=".5" x="0" y="0" width="60" height="60"/>
                <use id="zoomplus" xlink:href="#zoomPlus" x="17" y="9" onmousedown="handleZoom(evt,'in')"/>
                <use id="zoomminus" xlink:href="#zoomMin" x="42" y="9" onmousedown="handleZoom(evt,'out')"/>
                <use id="reset" xlink:href="#resetDef" x="30" y="36" onmousedown="handleReset()"/>
                <g id="arrowUp" xlink:href="#dirArrow" transform="translate(30 24)" onmousedown="handlePan(0,-1)">
                  <use xlink:href="#rim" fill="#404040">
                        <set attributeName="fill" to="#808080" begin="arrowUp.mouseover" end="arrowUp.mouseout"/>
                  </use>
                  <path fill="none" stroke="white" stroke-width="1.5" d="M0,-3.0v7 M-2.5,-0.5L0,-3.0L2.5,-0.5"/>
                </g>
                <g id="arrowRight" xlink:href="#dirArrow" transform="rotate(90) translate(36 -43)" onmousedown="handlePan(1,0)">
                  <use xlink:href="#rim" fill="#404040">
                        <set attributeName="fill" to="#808080" begin="arrowRight.mouseover" end="arrowRight.mouseout"/>
                  </use>
                  <path fill="none" stroke="white" stroke-width="1.5" d="M0,-3.0v7 M-2.5,-0.5L0,-3.0L2.5,-0.5"/>
                </g>
                <g id="arrowDown" xlink:href="#dirArrow" transform="rotate(180) translate(-30 -48)" onmousedown="handlePan(0,1)">
                  <use xlink:href="#rim" fill="#404040">
                        <set attributeName="fill" to="#808080" begin="arrowDown.mouseover" end="arrowDown.mouseout"/>
                  </use>
                  <path fill="none" stroke="white" stroke-width="1.5" d="M0,-3.0v7 M-2.5,-0.5L0,-3.0L2.5,-0.5"/>
                </g>
                <g id="arrowLeft" xlink:href="#dirArrow" transform="rotate(270) translate(-36 17)" onmousedown="handlePan(-1,0)">
                  <use xlink:href="#rim" fill="#404040">
                        <set attributeName="fill" to="#808080" begin="arrowLeft.mouseover" end="arrowLeft.mouseout"/>
                  </use>
                  <path fill="none" stroke="white" stroke-width="1.5" d="M0,-3.0v7 M-2.5,-0.5L0,-3.0L2.5,-0.5"/>
                </g>
        </g>
        <svg viewBox="0 0 15 15" width="100%" height="30px" preserveAspectRatio="xMaxYMin meet">
         <g id="arrow_out" transform="scale(0.3 0.3)">
          <a xlink:href="classAC__Avoid_ad7f9b0cc7973ca85714679ebba44603f_cgraph_org.svg" target="_base">
           <rect id="button" ry="5" rx="5" y="6" x="6" height="38" width="38"
                fill="#f2f5e9" fill-opacity="0.5" stroke="#606060" stroke-width="1.0"/>
           <path id="arrow"
             d="M 11.500037,31.436501 C 11.940474,20.09759 22.043105,11.32322 32.158766,21.979434 L 37.068811,17.246167 C 37.068811,17.246167 37.088388,32 37.088388,32 L 22.160133,31.978069 C 22.160133,31.978069 26.997745,27.140456 26.997745,27.140456 C 18.528582,18.264221 13.291696,25.230495 11.500037,31.436501 z"
             style="fill:#404040;"/>
          </a>
         </g>
        </svg>
</svg>
