<?xml version="1.0" encoding="UTF-8" standalone="no"?>
<!DOCTYPE svg PUBLIC "-//W3C//DTD SVG 1.1//EN"
 "http://www.w3.org/Graphics/SVG/1.1/DTD/svg11.dtd">
<!-- Generated by graphviz version 2.30.1 (20130221.2233)
 -->
<!-- Title: Linux::RCInput::add_st24_input Pages: 1 -->
<svg width="522pt" height="67pt"
 viewBox="0.00 0.00 522.00 67.00" xmlns="http://www.w3.org/2000/svg" xmlns:xlink="http://www.w3.org/1999/xlink">
<g id="graph0" class="graph" transform="scale(1 1) rotate(0) translate(4 63)">
<title>Linux::RCInput::add_st24_input</title>
<polygon fill="white" stroke="white" points="-4,5 -4,-63 519,-63 519,5 -4,5"/>
<!-- Node170 -->
<g id="node1" class="node"><title>Node170</title>
<g id="a_node1"><a xlink:title=" ">
<polygon fill="#bfbfbf" stroke="black" points="-0.194336,-13 -0.194336,-45 104.194,-45 104.194,-13 -0.194336,-13"/>
<text text-anchor="start" x="7.80566" y="-31" font-family="Helvetica,sans-Serif" font-size="10.00">Linux::RCInput::add</text>
<text text-anchor="middle" x="52" y="-19" font-family="Helvetica,sans-Serif" font-size="10.00">_st24_input</text>
</a>
</g>
</g>
<!-- Node171 -->
<g id="node2" class="node"><title>Node171</title>
<g id="a_node2"><a xlink:href="namespaceAP.html#a57749e493d2afa343a06ab7d7396f2af" target="_top" xlink:title=" ">
<polygon fill="white" stroke="black" points="276.776,-39 276.776,-59 327.224,-59 327.224,-39 276.776,-39"/>
<text text-anchor="middle" x="302" y="-45" font-family="Helvetica,sans-Serif" font-size="10.00">AP::rssi</text>
</a>
</g>
</g>
<!-- Node170&#45;&gt;Node171 -->
<g id="edge1" class="edge"><title>Node170&#45;&gt;Node171</title>
<path fill="none" stroke="midnightblue" d="M104.386,-33.144C152.91,-37.0572 224.34,-42.8177 266.421,-46.2113"/>
<polygon fill="midnightblue" stroke="midnightblue" points="266.206,-49.7053 276.455,-47.0206 266.769,-42.728 266.206,-49.7053"/>
</g>
<!-- Node173 -->
<g id="node4" class="node"><title>Node173</title>
<g id="a_node4"><a xlink:href="st24_8cpp.html#ad838aadec4448aab874ab4fd3cd7de14" target="_top" xlink:title=" ">
<polygon fill="white" stroke="black" points="140.365,-0 140.365,-20 213.635,-20 213.635,-0 140.365,-0"/>
<text text-anchor="middle" x="177" y="-6" font-family="Helvetica,sans-Serif" font-size="10.00">st24_decode</text>
</a>
</g>
</g>
<!-- Node170&#45;&gt;Node173 -->
<g id="edge3" class="edge"><title>Node170&#45;&gt;Node173</title>
<path fill="none" stroke="midnightblue" d="M104.45,-21.0524C112.968,-19.7366 121.75,-18.38 130.119,-17.0873"/>
<polygon fill="midnightblue" stroke="midnightblue" points="130.729,-20.5347 140.077,-15.5491 129.66,-13.6168 130.729,-20.5347"/>
</g>
<!-- Node172 -->
<g id="node3" class="node"><title>Node172</title>
<g id="a_node3"><a xlink:href="classAP__RSSI.html#af49550a8abfbedf8c398ef5010e9ff75" target="_top" xlink:title=" ">
<polygon fill="white" stroke="black" points="390.355,-39 390.355,-59 513.645,-59 513.645,-39 390.355,-39"/>
<text text-anchor="middle" x="452" y="-45" font-family="Helvetica,sans-Serif" font-size="10.00">AP_RSSI::get_singleton</text>
</a>
</g>
</g>
<!-- Node171&#45;&gt;Node172 -->
<g id="edge2" class="edge"><title>Node171&#45;&gt;Node172</title>
<path fill="none" stroke="midnightblue" d="M327.439,-49C341.915,-49 361.073,-49 379.972,-49"/>
<polygon fill="midnightblue" stroke="midnightblue" points="380.109,-52.5001 390.109,-49 380.109,-45.5001 380.109,-52.5001"/>
</g>
<!-- Node174 -->
<g id="node5" class="node"><title>Node174</title>
<g id="a_node5"><a xlink:href="st24_8cpp.html#a4fd0f2a241a228a888225e5be78b1eef" target="_top" xlink:title=" ">
<polygon fill="white" stroke="black" points="250.37,-0 250.37,-20 353.63,-20 353.63,-0 250.37,-0"/>
<text text-anchor="middle" x="302" y="-6" font-family="Helvetica,sans-Serif" font-size="10.00">st24_common_crc8</text>
</a>
</g>
</g>
<!-- Node173&#45;&gt;Node174 -->
<g id="edge4" class="edge"><title>Node173&#45;&gt;Node174</title>
<path fill="none" stroke="midnightblue" d="M213.907,-10C222.15,-10 231.14,-10 240.112,-10"/>
<polygon fill="midnightblue" stroke="midnightblue" points="240.194,-13.5001 250.194,-10 240.194,-6.5001 240.194,-13.5001"/>
</g>
<!-- Node173&#45;&gt;Node171 -->
<g id="edge5" class="edge"><title>Node173&#45;&gt;Node171</title>
<path fill="none" stroke="midnightblue" d="M209.676,-20.0435C227.131,-25.5782 248.817,-32.454 266.675,-38.1165"/>
<polygon fill="midnightblue" stroke="midnightblue" points="265.828,-41.5197 276.419,-41.2059 267.944,-34.8471 265.828,-41.5197"/>
</g>
</g>
</svg>
