<?xml version="1.0" encoding="UTF-8" standalone="no"?>
<!DOCTYPE svg PUBLIC "-//W3C//DTD SVG 1.1//EN"
 "http://www.w3.org/Graphics/SVG/1.1/DTD/svg11.dtd">
<!-- Generated by graphviz version 2.30.1 (20130221.2233)
 -->
<!-- Title: AP_OSD_Screen::draw_bat_volt Pages: 1 -->
<svg width="536pt" height="168pt"
 viewBox="0.00 0.00 536.00 168.00" xmlns="http://www.w3.org/2000/svg" xmlns:xlink="http://www.w3.org/1999/xlink">
<g id="graph0" class="graph" transform="scale(1 1) rotate(0) translate(4 164)">
<title>AP_OSD_Screen::draw_bat_volt</title>
<polygon fill="white" stroke="white" points="-4,5 -4,-164 533,-164 533,5 -4,5"/>
<!-- Node151 -->
<g id="node1" class="node"><title>Node151</title>
<g id="a_node1"><a xlink:title=" ">
<polygon fill="#bfbfbf" stroke="black" points="0.475586,-56 0.475586,-88 121.524,-88 121.524,-56 0.475586,-56"/>
<text text-anchor="start" x="8.47559" y="-74" font-family="Helvetica,sans-Serif" font-size="10.00">AP_OSD_Screen::draw</text>
<text text-anchor="middle" x="61" y="-62" font-family="Helvetica,sans-Serif" font-size="10.00">_bat_volt</text>
</a>
</g>
</g>
<!-- Node152 -->
<g id="node2" class="node"><title>Node152</title>
<g id="a_node2"><a xlink:href="namespaceAP.html#aac3bcb68bcccad29cc493b878aef055e" target="_top" xlink:title=" ">
<polygon fill="white" stroke="black" points="189.266,-131 189.266,-151 254.734,-151 254.734,-131 189.266,-131"/>
<text text-anchor="middle" x="222" y="-137" font-family="Helvetica,sans-Serif" font-size="10.00">AP::battery</text>
</a>
</g>
</g>
<!-- Node151&#45;&gt;Node152 -->
<g id="edge1" class="edge"><title>Node151&#45;&gt;Node152</title>
<path fill="none" stroke="midnightblue" d="M91.3319,-88.0263C110.086,-97.9306 135.103,-110.516 158,-120 164.81,-122.821 172.149,-125.543 179.326,-128.039"/>
<polygon fill="midnightblue" stroke="midnightblue" points="178.356,-131.405 188.95,-131.291 180.597,-124.774 178.356,-131.405"/>
</g>
<!-- Node154 -->
<g id="node4" class="node"><title>Node154</title>
<g id="a_node4"><a xlink:href="classAP__BattMonitor.html#afdc523c75aff5beed8f8e34a33c8736d" target="_top" xlink:title="capacity_remaining_pct &#45; returns the % battery capacity remaining (0 ~ 100)">
<polygon fill="white" stroke="black" points="157.862,-79 157.862,-111 286.138,-111 286.138,-79 157.862,-79"/>
<text text-anchor="start" x="165.862" y="-97" font-family="Helvetica,sans-Serif" font-size="10.00">AP_BattMonitor::capacity</text>
<text text-anchor="middle" x="222" y="-85" font-family="Helvetica,sans-Serif" font-size="10.00">_remaining_pct</text>
</a>
</g>
</g>
<!-- Node151&#45;&gt;Node154 -->
<g id="edge3" class="edge"><title>Node151&#45;&gt;Node154</title>
<path fill="none" stroke="midnightblue" d="M121.658,-80.6298C130.145,-81.8575 138.954,-83.1318 147.664,-84.3917"/>
<polygon fill="midnightblue" stroke="midnightblue" points="147.42,-87.8927 157.818,-85.8605 148.422,-80.9648 147.42,-87.8927"/>
</g>
<!-- Node158 -->
<g id="node8" class="node"><title>Node158</title>
<g id="a_node8"><a xlink:href="classAP__BattMonitor.html#a03394a700753687bbb87632743cc2bb3" target="_top" xlink:title="voltage &#45; returns battery voltage in millivolts">
<polygon fill="white" stroke="black" points="160.082,-40 160.082,-60 283.918,-60 283.918,-40 160.082,-40"/>
<text text-anchor="middle" x="222" y="-46" font-family="Helvetica,sans-Serif" font-size="10.00">AP_BattMonitor::voltage</text>
</a>
</g>
</g>
<!-- Node151&#45;&gt;Node158 -->
<g id="edge7" class="edge"><title>Node151&#45;&gt;Node158</title>
<path fill="none" stroke="midnightblue" d="M121.658,-63.7454C130.847,-62.474 140.414,-61.1502 149.824,-59.8483"/>
<polygon fill="midnightblue" stroke="midnightblue" points="150.522,-63.2852 159.947,-58.4475 149.562,-56.3512 150.522,-63.2852"/>
</g>
<!-- Node159 -->
<g id="node9" class="node"><title>Node159</title>
<g id="a_node9"><a xlink:href="classAP__OSD__Backend.html#a0874cc679cadd5bc77b95df77192ef99" target="_top" xlink:title=" ">
<polygon fill="white" stroke="black" points="158.141,-1 158.141,-21 285.859,-21 285.859,-1 158.141,-1"/>
<text text-anchor="middle" x="222" y="-7" font-family="Helvetica,sans-Serif" font-size="10.00">AP_OSD_Backend::write</text>
</a>
</g>
</g>
<!-- Node151&#45;&gt;Node159 -->
<g id="edge8" class="edge"><title>Node151&#45;&gt;Node159</title>
<path fill="none" stroke="midnightblue" d="M97.2323,-55.9898C115.244,-48.0517 137.612,-38.5698 158,-31 164.288,-28.6652 170.989,-26.3539 177.587,-24.1771"/>
<polygon fill="midnightblue" stroke="midnightblue" points="178.68,-27.5023 187.119,-21.097 176.528,-20.8414 178.68,-27.5023"/>
</g>
<!-- Node153 -->
<g id="node3" class="node"><title>Node153</title>
<g id="a_node3"><a xlink:href="classAP__BattMonitor.html#a5ff4b03b1d21913358b11c3f6261927c" target="_top" xlink:title=" ">
<polygon fill="white" stroke="black" points="335.254,-128 335.254,-160 440.746,-160 440.746,-128 335.254,-128"/>
<text text-anchor="start" x="343.254" y="-146" font-family="Helvetica,sans-Serif" font-size="10.00">AP_BattMonitor::get</text>
<text text-anchor="middle" x="388" y="-134" font-family="Helvetica,sans-Serif" font-size="10.00">_singleton</text>
</a>
</g>
</g>
<!-- Node152&#45;&gt;Node153 -->
<g id="edge2" class="edge"><title>Node152&#45;&gt;Node153</title>
<path fill="none" stroke="midnightblue" d="M255.01,-141.586C274.912,-141.95 301.167,-142.43 325.016,-142.866"/>
<polygon fill="midnightblue" stroke="midnightblue" points="325.001,-146.366 335.064,-143.05 325.129,-139.368 325.001,-146.366"/>
</g>
<!-- Node155 -->
<g id="node5" class="node"><title>Node155</title>
<g id="a_node5"><a xlink:href="classAP__BattMonitor__Backend.html#a4fa5aa96a1b3731cc0640cf3375c3085" target="_top" xlink:title="capacity_remaining_pct &#45; returns the % battery capacity remaining (0 ~ 100)">
<polygon fill="white" stroke="black" points="322.744,-77 322.744,-109 453.256,-109 453.256,-77 322.744,-77"/>
<text text-anchor="start" x="330.744" y="-95" font-family="Helvetica,sans-Serif" font-size="10.00">AP_BattMonitor_Backend</text>
<text text-anchor="middle" x="388" y="-83" font-family="Helvetica,sans-Serif" font-size="10.00">::capacity_remaining_pct</text>
</a>
</g>
</g>
<!-- Node154&#45;&gt;Node155 -->
<g id="edge4" class="edge"><title>Node154&#45;&gt;Node155</title>
<path fill="none" stroke="midnightblue" d="M286.407,-94.2267C294.958,-94.1225 303.795,-94.0147 312.517,-93.9083"/>
<polygon fill="midnightblue" stroke="midnightblue" points="312.723,-97.4062 322.679,-93.7844 312.637,-90.4067 312.723,-97.4062"/>
</g>
<!-- Node156 -->
<g id="node6" class="node"><title>Node156</title>
<g id="a_node6"><a xlink:href="AP__Math_8h.html#a321a91de43cfb2e95d40cde314d0a80f" target="_top" xlink:title=" ">
<polygon fill="white" stroke="black" points="491.835,-103 491.835,-123 526.165,-123 526.165,-103 491.835,-103"/>
<text text-anchor="middle" x="509" y="-109" font-family="Helvetica,sans-Serif" font-size="10.00">MIN</text>
</a>
</g>
</g>
<!-- Node155&#45;&gt;Node156 -->
<g id="edge5" class="edge"><title>Node155&#45;&gt;Node156</title>
<path fill="none" stroke="midnightblue" d="M453.376,-103.819C463.387,-105.502 473.214,-107.154 481.71,-108.582"/>
<polygon fill="midnightblue" stroke="midnightblue" points="481.234,-112.051 491.676,-110.256 482.394,-105.147 481.234,-112.051"/>
</g>
<!-- Node157 -->
<g id="node7" class="node"><title>Node157</title>
<g id="a_node7"><a xlink:href="AP__Math_8h.html#a5abc8871f1e7781a55afe9bf299f0a39" target="_top" xlink:title=" ">
<polygon fill="white" stroke="black" points="490.165,-64 490.165,-84 527.835,-84 527.835,-64 490.165,-64"/>
<text text-anchor="middle" x="509" y="-70" font-family="Helvetica,sans-Serif" font-size="10.00">MAX</text>
</a>
</g>
</g>
<!-- Node155&#45;&gt;Node157 -->
<g id="edge6" class="edge"><title>Node155&#45;&gt;Node157</title>
<path fill="none" stroke="midnightblue" d="M453.376,-82.7215C462.667,-81.238 471.798,-79.7801 479.856,-78.4936"/>
<polygon fill="midnightblue" stroke="midnightblue" points="480.429,-81.9465 489.752,-76.9135 479.326,-75.034 480.429,-81.9465"/>
</g>
</g>
</svg>
