<?xml version="1.0" encoding="UTF-8" standalone="no"?>
<!DOCTYPE svg PUBLIC "-//W3C//DTD SVG 1.1//EN"
 "http://www.w3.org/Graphics/SVG/1.1/DTD/svg11.dtd">
<!-- Generated by graphviz version 2.30.1 (20130221.2233)
 -->
<!-- Title: AC_PID_2D::get_i Pages: 1 -->
<svg width="586pt" height="196pt"
 viewBox="0.00 0.00 586.00 196.00" xmlns="http://www.w3.org/2000/svg" xmlns:xlink="http://www.w3.org/1999/xlink">
<g id="graph0" class="graph" transform="scale(1 1) rotate(0) translate(4 192)">
<title>AC_PID_2D::get_i</title>
<polygon fill="white" stroke="white" points="-4,5 -4,-192 583,-192 583,5 -4,5"/>
<!-- Node66 -->
<g id="node1" class="node"><title>Node66</title>
<g id="a_node1"><a xlink:title=" ">
<polygon fill="#bfbfbf" stroke="black" points="480.146,-78 480.146,-98 577.854,-98 577.854,-78 480.146,-78"/>
<text text-anchor="middle" x="529" y="-84" font-family="Helvetica,sans-Serif" font-size="10.00">AC_PID_2D::get_i</text>
</a>
</g>
</g>
<!-- Node67 -->
<g id="node2" class="node"><title>Node67</title>
<g id="a_node2"><a xlink:href="classAC__PID__2D.html#ae145835a21c62ae755203757a517f699" target="_top" xlink:title=" ">
<polygon fill="white" stroke="black" points="334.584,-101 334.584,-121 443.416,-121 443.416,-101 334.584,-101"/>
<text text-anchor="middle" x="389" y="-107" font-family="Helvetica,sans-Serif" font-size="10.00">AC_PID_2D::get_pid</text>
</a>
</g>
</g>
<!-- Node66&#45;&gt;Node67 -->
<g id="edge1" class="edge"><title>Node66&#45;&gt;Node67</title>
<path fill="none" stroke="midnightblue" d="M470.242,-97.6264C461.366,-99.1056 452.236,-100.627 443.459,-102.09"/>
<polygon fill="midnightblue" stroke="midnightblue" points="470.833,-101.076 480.122,-95.9797 469.682,-94.1714 470.833,-101.076"/>
</g>
<!-- Node68 -->
<g id="node3" class="node"><title>Node68</title>
<g id="a_node3"><a xlink:href="classAC__PosControl.html#a476d7e02005457c2772563e41f7b9bbb" target="_top" xlink:title=" ">
<polygon fill="white" stroke="black" points="336.535,-50 336.535,-82 441.465,-82 441.465,-50 336.535,-50"/>
<text text-anchor="start" x="344.535" y="-68" font-family="Helvetica,sans-Serif" font-size="10.00">AC_PosControl::run</text>
<text text-anchor="middle" x="389" y="-56" font-family="Helvetica,sans-Serif" font-size="10.00">_xy_controller</text>
</a>
</g>
</g>
<!-- Node66&#45;&gt;Node68 -->
<g id="edge2" class="edge"><title>Node66&#45;&gt;Node68</title>
<path fill="none" stroke="midnightblue" d="M470.016,-78.7561C460.568,-77.25 450.838,-75.6988 441.558,-74.2194"/>
<polygon fill="midnightblue" stroke="midnightblue" points="469.695,-82.2492 480.122,-80.3672 470.797,-75.3365 469.695,-82.2492"/>
</g>
<!-- Node69 -->
<g id="node4" class="node"><title>Node69</title>
<g id="a_node4"><a xlink:href="classAC__PosControl.html#ab71db0f35377ec2265517a91a0afa4a5" target="_top" xlink:title="update_xy_controller &#45; run the horizontal position controller &#45; should be called at 100hz or higher">
<polygon fill="white" stroke="black" points="176.468,-84 176.468,-116 297.532,-116 297.532,-84 176.468,-84"/>
<text text-anchor="start" x="184.468" y="-102" font-family="Helvetica,sans-Serif" font-size="10.00">AC_PosControl::update</text>
<text text-anchor="middle" x="237" y="-90" font-family="Helvetica,sans-Serif" font-size="10.00">_xy_controller</text>
</a>
</g>
</g>
<!-- Node68&#45;&gt;Node69 -->
<g id="edge3" class="edge"><title>Node68&#45;&gt;Node69</title>
<path fill="none" stroke="midnightblue" d="M326.58,-79.9219C317.046,-82.083 307.209,-84.3127 297.713,-86.465"/>
<polygon fill="midnightblue" stroke="midnightblue" points="327.4,-83.325 336.379,-77.7009 325.852,-76.4981 327.4,-83.325"/>
</g>
<!-- Node74 -->
<g id="node9" class="node"><title>Node74</title>
<g id="a_node9"><a xlink:href="classAC__PosControl.html#a81e8e5ca69be129b920416f9670fc5ae" target="_top" xlink:title=" ">
<polygon fill="white" stroke="black" points="176.468,-17 176.468,-49 297.532,-49 297.532,-17 176.468,-17"/>
<text text-anchor="start" x="184.468" y="-35" font-family="Helvetica,sans-Serif" font-size="10.00">AC_PosControl::update</text>
<text text-anchor="middle" x="237" y="-23" font-family="Helvetica,sans-Serif" font-size="10.00">_vel_controller_xy</text>
</a>
</g>
</g>
<!-- Node68&#45;&gt;Node74 -->
<g id="edge8" class="edge"><title>Node68&#45;&gt;Node74</title>
<path fill="none" stroke="midnightblue" d="M326.58,-52.4875C317.046,-50.39 307.209,-48.2259 297.713,-46.1369"/>
<polygon fill="midnightblue" stroke="midnightblue" points="325.86,-55.9128 336.379,-54.6433 327.364,-49.0763 325.86,-55.9128"/>
</g>
<!-- Node70 -->
<g id="node5" class="node"><title>Node70</title>
<g id="a_node5"><a xlink:href="classAC__Circle.html#ad28205982ae7bc5f1e72f5285696c99b" target="_top" xlink:title="update &#45; update circle controller">
<polygon fill="white" stroke="black" points="21.4238,-168 21.4238,-188 118.576,-188 118.576,-168 21.4238,-168"/>
<text text-anchor="middle" x="70" y="-174" font-family="Helvetica,sans-Serif" font-size="10.00">AC_Circle::update</text>
</a>
</g>
</g>
<!-- Node69&#45;&gt;Node70 -->
<g id="edge4" class="edge"><title>Node69&#45;&gt;Node70</title>
<path fill="none" stroke="midnightblue" d="M204.774,-121.729C186.526,-133.685 162.686,-148.064 140,-158 131.203,-161.853 121.456,-165.197 112.125,-167.991"/>
<polygon fill="midnightblue" stroke="midnightblue" points="206.868,-124.54 213.253,-116.085 202.99,-118.713 206.868,-124.54"/>
</g>
<!-- Node71 -->
<g id="node6" class="node"><title>Node71</title>
<g id="a_node6"><a xlink:href="classAC__Loiter.html#ad73abbc1c7fcefbb9d18bac3b1fe4444" target="_top" xlink:title="run the loiter controller">
<polygon fill="white" stroke="black" points="21.6948,-129 21.6948,-149 118.305,-149 118.305,-129 21.6948,-129"/>
<text text-anchor="middle" x="70" y="-135" font-family="Helvetica,sans-Serif" font-size="10.00">AC_Loiter::update</text>
</a>
</g>
</g>
<!-- Node69&#45;&gt;Node71 -->
<g id="edge5" class="edge"><title>Node69&#45;&gt;Node71</title>
<path fill="none" stroke="midnightblue" d="M166.519,-116.423C148.479,-120.687 129.587,-125.152 113.411,-128.976"/>
<polygon fill="midnightblue" stroke="midnightblue" points="167.504,-119.786 176.431,-114.08 165.894,-112.974 167.504,-119.786"/>
</g>
<!-- Node72 -->
<g id="node7" class="node"><title>Node72</title>
<g id="a_node7"><a xlink:href="classAC__WPNav.html#a7dc4785fbce8364d7eb3d8e2d0c1b987" target="_top" xlink:title="update_wpnav &#45; run the wp controller &#45; should be called at 100hz or higher">
<polygon fill="white" stroke="black" points="0.0224609,-90 0.0224609,-110 139.978,-110 139.978,-90 0.0224609,-90"/>
<text text-anchor="middle" x="70" y="-96" font-family="Helvetica,sans-Serif" font-size="10.00">AC_WPNav::update_wpnav</text>
</a>
</g>
</g>
<!-- Node69&#45;&gt;Node72 -->
<g id="edge6" class="edge"><title>Node69&#45;&gt;Node72</title>
<path fill="none" stroke="midnightblue" d="M166.324,-100C157.617,-100 148.715,-100 140.019,-100"/>
<polygon fill="midnightblue" stroke="midnightblue" points="166.431,-103.5 176.431,-100 166.431,-96.5001 166.431,-103.5"/>
</g>
<!-- Node73 -->
<g id="node8" class="node"><title>Node73</title>
<g id="a_node8"><a xlink:href="classAC__WPNav.html#acc138e7bc6435087ab308896358de6a3" target="_top" xlink:title="update_spline &#45; update spline controller">
<polygon fill="white" stroke="black" points="1.41162,-51 1.41162,-71 138.588,-71 138.588,-51 1.41162,-51"/>
<text text-anchor="middle" x="70" y="-57" font-family="Helvetica,sans-Serif" font-size="10.00">AC_WPNav::update_spline</text>
</a>
</g>
</g>
<!-- Node69&#45;&gt;Node73 -->
<g id="edge7" class="edge"><title>Node69&#45;&gt;Node73</title>
<path fill="none" stroke="midnightblue" d="M166.519,-83.5773C148.479,-79.3132 129.587,-74.8478 113.411,-71.0245"/>
<polygon fill="midnightblue" stroke="midnightblue" points="165.894,-87.0259 176.431,-85.9201 167.504,-80.2136 165.894,-87.0259"/>
</g>
<!-- Node75 -->
<g id="node10" class="node"><title>Node75</title>
<g id="a_node10"><a xlink:href="classAC__PosControl.html#a4acc8cd7285895654901011106aeab6d" target="_top" xlink:title=" ">
<polygon fill="white" stroke="black" points="9.46826,-0 9.46826,-32 130.532,-32 130.532,-0 9.46826,-0"/>
<text text-anchor="start" x="17.4683" y="-18" font-family="Helvetica,sans-Serif" font-size="10.00">AC_PosControl::update</text>
<text text-anchor="middle" x="70" y="-6" font-family="Helvetica,sans-Serif" font-size="10.00">_vel_controller_xyz</text>
</a>
</g>
</g>
<!-- Node74&#45;&gt;Node75 -->
<g id="edge9" class="edge"><title>Node74&#45;&gt;Node75</title>
<path fill="none" stroke="midnightblue" d="M166.189,-25.8073C154.401,-24.5929 142.26,-23.3419 130.758,-22.1569"/>
<polygon fill="midnightblue" stroke="midnightblue" points="166.125,-29.3192 176.431,-26.8626 166.843,-22.3561 166.125,-29.3192"/>
</g>
</g>
</svg>
