<?xml version="1.0" encoding="UTF-8" standalone="no"?>
<!DOCTYPE svg PUBLIC "-//W3C//DTD SVG 1.1//EN"
 "http://www.w3.org/Graphics/SVG/1.1/DTD/svg11.dtd">
<!-- Generated by graphviz version 2.30.1 (20130221.2233)
 -->
<!-- Title: AP_Mount_Backend::set_angle_targets Pages: 1 -->
<!--zoomable 110 -->
<svg id="main" version="1.1" xmlns="http://www.w3.org/2000/svg" xmlns:xlink="http://www.w3.org/1999/xlink" xml:space="preserve" onload="init(evt)">
<style type="text/css"><![CDATA[
.edge:hover path { stroke: red; }
.edge:hover polygon { stroke: red; fill: red; }
]]></style>
<script type="text/javascript"><![CDATA[
var edges = document.getElementsByTagName('g');
if (edges && edges.length) {
  for (var i=0;i<edges.length;i++) {
    if (edges[i].id.substr(0,4)=='edge') {
      edges[i].setAttribute('class','edge');
    }
  }
}
]]></script>
        <defs>
                <circle id="rim" cx="0" cy="0" r="7"/>
                <circle id="rim2" cx="0" cy="0" r="3.5"/>
                <g id="zoomPlus">
                        <use xlink:href="#rim" fill="#404040">
                                <set attributeName="fill" to="#808080" begin="zoomplus.mouseover" end="zoomplus.mouseout"/>
                        </use>
                        <path d="M-4,0h8M0,-4v8" fill="none" stroke="white" stroke-width="1.5" pointer-events="none"/>
                </g>
                <g id="zoomMin">
                        <use xlink:href="#rim" fill="#404040">
                                <set attributeName="fill" to="#808080" begin="zoomminus.mouseover" end="zoomminus.mouseout"/>
                        </use>
                        <path d="M-4,0h8" fill="none" stroke="white" stroke-width="1.5" pointer-events="none"/>
                </g>
                <g id="dirArrow">
                        <path fill="none" stroke="white" stroke-width="1.5" d="M0,-3.0v7 M-2.5,-0.5L0,-3.0L2.5,-0.5"/>
                </g>
               <g id="resetDef">
                       <use xlink:href="#rim2" fill="#404040">
                               <set attributeName="fill" to="#808080" begin="reset.mouseover" end="reset.mouseout"/>
                       </use>
               </g>
        </defs>

<script type="text/javascript">
var viewWidth = 1370;
var viewHeight = 110;
var sectionId = 'dynsection-23';
</script>
<script xlink:href="svgpan.js"/>
<svg id="graph" class="graph">
<g id="viewport">
<title>AP_Mount_Backend::set_angle_targets</title>
<polygon fill="white" stroke="white" points="-4,5 -4,-106 1367,-106 1367,5 -4,5"/>
<!-- Node161 -->
<g id="node1" class="node"><title>Node161</title>
<g id="a_node1"><a xlink:title=" ">
<polygon fill="#bfbfbf" stroke="black" points="1235.97,-22 1235.97,-54 1362.03,-54 1362.03,-22 1235.97,-22"/>
<text text-anchor="start" x="1243.97" y="-40" font-family="Helvetica,sans-Serif" font-size="10.00">AP_Mount_Backend::set</text>
<text text-anchor="middle" x="1299" y="-28" font-family="Helvetica,sans-Serif" font-size="10.00">_angle_targets</text>
</a>
</g>
</g>
<!-- Node162 -->
<g id="node2" class="node"><title>Node162</title>
<g id="a_node2"><a xlink:href="classAP__Mount__Backend.html#a2c05c2c449c8b03c1dc215ba30b4f98a" target="_top" xlink:title=" ">
<polygon fill="white" stroke="black" points="1056.63,-51 1056.63,-71 1199.37,-71 1199.37,-51 1056.63,-51"/>
<text text-anchor="middle" x="1128" y="-57" font-family="Helvetica,sans-Serif" font-size="10.00">AP_Mount_Backend::control</text>
</a>
</g>
</g>
<!-- Node161&#45;&gt;Node162 -->
<g id="edge1" class="edge"><title>Node161&#45;&gt;Node162</title>
<path fill="none" stroke="midnightblue" d="M1225.51,-47.8654C1216.87,-49.041 1208.06,-50.2399 1199.45,-51.4116"/>
<polygon fill="midnightblue" stroke="midnightblue" points="1226.11,-51.3156 1235.55,-46.499 1225.17,-44.3796 1226.11,-51.3156"/>
</g>
<!-- Node173 -->
<g id="node13" class="node"><title>Node173</title>
<g id="a_node13"><a xlink:href="classAP__Mount.html#a2f496d62bbfdf9ca0d0fea8e0225665c" target="_top" xlink:title=" ">
<polygon fill="white" stroke="black" points="1072.19,-0 1072.19,-32 1183.81,-32 1183.81,-0 1072.19,-0"/>
<text text-anchor="start" x="1080.19" y="-18" font-family="Helvetica,sans-Serif" font-size="10.00">AP_Mount::set_angle</text>
<text text-anchor="middle" x="1128" y="-6" font-family="Helvetica,sans-Serif" font-size="10.00">_targets</text>
</a>
</g>
</g>
<!-- Node161&#45;&gt;Node173 -->
<g id="edge13" class="edge"><title>Node161&#45;&gt;Node173</title>
<path fill="none" stroke="midnightblue" d="M1225.51,-28.5635C1211.58,-26.7506 1197.21,-24.8799 1183.95,-23.1537"/>
<polygon fill="midnightblue" stroke="midnightblue" points="1225.18,-32.0503 1235.55,-29.8705 1226.09,-25.1088 1225.18,-32.0503"/>
</g>
<!-- Node163 -->
<g id="node3" class="node"><title>Node163</title>
<g id="a_node3"><a xlink:href="classAP__Mount.html#ab9d1b2f3f0403b21b111002c16be5a2b" target="_top" xlink:title=" ">
<polygon fill="white" stroke="black" points="872.126,-68 872.126,-100 1019.87,-100 1019.87,-68 872.126,-68"/>
<text text-anchor="start" x="880.126" y="-86" font-family="Helvetica,sans-Serif" font-size="10.00">AP_Mount::handle_command</text>
<text text-anchor="middle" x="946" y="-74" font-family="Helvetica,sans-Serif" font-size="10.00">_do_mount_control</text>
</a>
</g>
</g>
<!-- Node162&#45;&gt;Node163 -->
<g id="edge2" class="edge"><title>Node162&#45;&gt;Node163</title>
<path fill="none" stroke="midnightblue" d="M1046.23,-71.321C1037.52,-72.4336 1028.7,-73.5611 1020.09,-74.6612"/>
<polygon fill="midnightblue" stroke="midnightblue" points="1046.9,-74.7635 1056.38,-70.0242 1046.01,-67.82 1046.9,-74.7635"/>
</g>
<!-- Node169 -->
<g id="node9" class="node"><title>Node169</title>
<g id="a_node9"><a xlink:href="classAP__Mount__Backend.html#abd17e21d4786ce35e6cefcab86253c2f" target="_top" xlink:title=" ">
<polygon fill="white" stroke="black" points="678.621,-19 678.621,-51 821.379,-51 821.379,-19 678.621,-19"/>
<text text-anchor="start" x="686.621" y="-37" font-family="Helvetica,sans-Serif" font-size="10.00">AP_Mount_Backend::handle</text>
<text text-anchor="middle" x="750" y="-25" font-family="Helvetica,sans-Serif" font-size="10.00">_mount_control</text>
</a>
</g>
</g>
<!-- Node162&#45;&gt;Node169 -->
<g id="edge8" class="edge"><title>Node162&#45;&gt;Node169</title>
<path fill="none" stroke="midnightblue" d="M1046.2,-55.4127C979.317,-50.7879 885.246,-44.283 821.406,-39.8685"/>
<polygon fill="midnightblue" stroke="midnightblue" points="1046.06,-58.9113 1056.28,-56.1096 1046.54,-51.928 1046.06,-58.9113"/>
</g>
<!-- Node164 -->
<g id="node4" class="node"><title>Node164</title>
<g id="a_node4"><a xlink:href="classAP__Mount.html#a9e00880d3945a9629aacaad5abf856b3" target="_top" xlink:title=" ">
<polygon fill="white" stroke="black" points="663.892,-75 663.892,-95 836.108,-95 836.108,-75 663.892,-75"/>
<text text-anchor="middle" x="750" y="-81" font-family="Helvetica,sans-Serif" font-size="10.00">AP_Mount::handle_command_long</text>
</a>
</g>
</g>
<!-- Node163&#45;&gt;Node164 -->
<g id="edge3" class="edge"><title>Node163&#45;&gt;Node164</title>
<path fill="none" stroke="midnightblue" d="M861.769,-84.429C853.365,-84.4723 844.82,-84.5164 836.393,-84.5598"/>
<polygon fill="midnightblue" stroke="midnightblue" points="861.952,-87.9282 871.933,-84.3766 861.915,-80.9283 861.952,-87.9282"/>
</g>
<!-- Node165 -->
<g id="node5" class="node"><title>Node165</title>
<g id="a_node5"><a xlink:href="structGCS__MAVLINK.html#af083ab3c20afaa7260b8461f1c1f6245" target="_top" xlink:title=" ">
<polygon fill="white" stroke="black" points="501.009,-70 501.009,-102 622.991,-102 622.991,-70 501.009,-70"/>
<text text-anchor="start" x="509.009" y="-88" font-family="Helvetica,sans-Serif" font-size="10.00">GCS_MAVLINK::handle</text>
<text text-anchor="middle" x="562" y="-76" font-family="Helvetica,sans-Serif" font-size="10.00">_command_mount</text>
</a>
</g>
</g>
<!-- Node164&#45;&gt;Node165 -->
<g id="edge4" class="edge"><title>Node164&#45;&gt;Node165</title>
<path fill="none" stroke="midnightblue" d="M653.356,-85.5142C643.087,-85.5694 632.86,-85.6244 623.178,-85.6765"/>
<polygon fill="midnightblue" stroke="midnightblue" points="653.64,-89.0128 663.621,-85.459 653.603,-82.0129 653.64,-89.0128"/>
</g>
<!-- Node166 -->
<g id="node6" class="node"><title>Node166</title>
<g id="a_node6"><a xlink:href="structGCS__MAVLINK.html#a29e2941413d50ab63cd70f5beadef19a" target="_top" xlink:title=" ">
<polygon fill="white" stroke="black" points="325.52,-70 325.52,-102 450.48,-102 450.48,-70 325.52,-70"/>
<text text-anchor="start" x="333.52" y="-88" font-family="Helvetica,sans-Serif" font-size="10.00">GCS_MAVLINK::handle</text>
<text text-anchor="middle" x="388" y="-76" font-family="Helvetica,sans-Serif" font-size="10.00">_command_long_packet</text>
</a>
</g>
</g>
<!-- Node165&#45;&gt;Node166 -->
<g id="edge5" class="edge"><title>Node165&#45;&gt;Node166</title>
<path fill="none" stroke="midnightblue" d="M490.779,-86C477.456,-86 463.61,-86 450.58,-86"/>
<polygon fill="midnightblue" stroke="midnightblue" points="490.843,-89.5001 500.843,-86 490.843,-82.5001 490.843,-89.5001"/>
</g>
<!-- Node167 -->
<g id="node7" class="node"><title>Node167</title>
<g id="a_node7"><a xlink:href="structGCS__MAVLINK.html#abc79cdd8393234b66f2e8217a527f8f9" target="_top" xlink:title=" ">
<polygon fill="white" stroke="black" points="158.009,-70 158.009,-102 279.991,-102 279.991,-70 158.009,-70"/>
<text text-anchor="start" x="166.009" y="-88" font-family="Helvetica,sans-Serif" font-size="10.00">GCS_MAVLINK::handle</text>
<text text-anchor="middle" x="219" y="-76" font-family="Helvetica,sans-Serif" font-size="10.00">_command_long</text>
</a>
</g>
</g>
<!-- Node166&#45;&gt;Node167 -->
<g id="edge6" class="edge"><title>Node166&#45;&gt;Node167</title>
<path fill="none" stroke="midnightblue" d="M315.122,-86C303.433,-86 291.435,-86 280.067,-86"/>
<polygon fill="midnightblue" stroke="midnightblue" points="315.29,-89.5001 325.29,-86 315.29,-82.5001 315.29,-89.5001"/>
</g>
<!-- Node168 -->
<g id="node8" class="node"><title>Node168</title>
<g id="a_node8"><a xlink:href="structGCS__MAVLINK.html#a13da94a2548ade6552a5250eb3251e89" target="_top" xlink:title=" ">
<polygon fill="white" stroke="black" points="0.00927734,-44 0.00927734,-76 121.991,-76 121.991,-44 0.00927734,-44"/>
<text text-anchor="start" x="8.00928" y="-62" font-family="Helvetica,sans-Serif" font-size="10.00">GCS_MAVLINK::handle</text>
<text text-anchor="middle" x="61" y="-50" font-family="Helvetica,sans-Serif" font-size="10.00">_common_message</text>
</a>
</g>
</g>
<!-- Node167&#45;&gt;Node168 -->
<g id="edge7" class="edge"><title>Node167&#45;&gt;Node168</title>
<path fill="none" stroke="midnightblue" d="M147.741,-74.2901C139.198,-72.8664 130.531,-71.4218 122.153,-70.0255"/>
<polygon fill="midnightblue" stroke="midnightblue" points="147.247,-77.756 157.686,-75.9477 148.398,-70.8513 147.247,-77.756"/>
</g>
<!-- Node170 -->
<g id="node10" class="node"><title>Node170</title>
<g id="a_node10"><a xlink:href="classAP__Mount.html#aa81a8b139a52a6907f6837a96097ae4a" target="_top" xlink:title="Control the mount (depends on the previously set mount configuration)">
<polygon fill="white" stroke="black" points="496.183,-19 496.183,-51 627.817,-51 627.817,-19 496.183,-19"/>
<text text-anchor="start" x="504.183" y="-37" font-family="Helvetica,sans-Serif" font-size="10.00">AP_Mount::handle_mount</text>
<text text-anchor="middle" x="562" y="-25" font-family="Helvetica,sans-Serif" font-size="10.00">_control</text>
</a>
</g>
</g>
<!-- Node169&#45;&gt;Node170 -->
<g id="edge9" class="edge"><title>Node169&#45;&gt;Node170</title>
<path fill="none" stroke="midnightblue" d="M668.228,-35C654.792,-35 641.009,-35 628.028,-35"/>
<polygon fill="midnightblue" stroke="midnightblue" points="668.416,-38.5001 678.416,-35 668.416,-31.5001 668.416,-38.5001"/>
</g>
<!-- Node171 -->
<g id="node11" class="node"><title>Node171</title>
<g id="a_node11"><a xlink:href="classAP__Mount.html#ad8e2f48359bbe22f2e513b1845139366" target="_top" xlink:title=" ">
<polygon fill="white" stroke="black" points="315.791,-25 315.791,-45 460.209,-45 460.209,-25 315.791,-25"/>
<text text-anchor="middle" x="388" y="-31" font-family="Helvetica,sans-Serif" font-size="10.00">AP_Mount::handle_message</text>
</a>
</g>
</g>
<!-- Node170&#45;&gt;Node171 -->
<g id="edge10" class="edge"><title>Node170&#45;&gt;Node171</title>
<path fill="none" stroke="midnightblue" d="M485.796,-35C477.376,-35 468.816,-35 460.445,-35"/>
<polygon fill="midnightblue" stroke="midnightblue" points="485.974,-38.5001 495.974,-35 485.974,-31.5001 485.974,-38.5001"/>
</g>
<!-- Node172 -->
<g id="node12" class="node"><title>Node172</title>
<g id="a_node12"><a xlink:href="structGCS__MAVLINK.html#a37e07887edf8f4f5c8ee0cd38ddc9a11" target="_top" xlink:title=" ">
<polygon fill="white" stroke="black" points="158.009,-19 158.009,-51 279.991,-51 279.991,-19 158.009,-19"/>
<text text-anchor="start" x="166.009" y="-37" font-family="Helvetica,sans-Serif" font-size="10.00">GCS_MAVLINK::handle</text>
<text text-anchor="middle" x="219" y="-25" font-family="Helvetica,sans-Serif" font-size="10.00">_mount_message</text>
</a>
</g>
</g>
<!-- Node171&#45;&gt;Node172 -->
<g id="edge11" class="edge"><title>Node171&#45;&gt;Node172</title>
<path fill="none" stroke="midnightblue" d="M305.611,-35C296.993,-35 288.345,-35 280.035,-35"/>
<polygon fill="midnightblue" stroke="midnightblue" points="305.693,-38.5001 315.693,-35 305.693,-31.5001 305.693,-38.5001"/>
</g>
<!-- Node172&#45;&gt;Node168 -->
<g id="edge12" class="edge"><title>Node172&#45;&gt;Node168</title>
<path fill="none" stroke="midnightblue" d="M147.741,-46.2595C139.198,-47.6285 130.531,-49.0175 122.153,-50.3601"/>
<polygon fill="midnightblue" stroke="midnightblue" points="148.366,-49.704 157.686,-44.6657 147.258,-42.7922 148.366,-49.704"/>
</g>
</g>
</svg>
        <g id="navigator" transform="translate(0 0)" fill="#404254">
                <rect fill="#f2f5e9" fill-opacity="0.5" stroke="#606060" stroke-width=".5" x="0" y="0" width="60" height="60"/>
                <use id="zoomplus" xlink:href="#zoomPlus" x="17" y="9" onmousedown="handleZoom(evt,'in')"/>
                <use id="zoomminus" xlink:href="#zoomMin" x="42" y="9" onmousedown="handleZoom(evt,'out')"/>
                <use id="reset" xlink:href="#resetDef" x="30" y="36" onmousedown="handleReset()"/>
                <g id="arrowUp" xlink:href="#dirArrow" transform="translate(30 24)" onmousedown="handlePan(0,-1)">
                  <use xlink:href="#rim" fill="#404040">
                        <set attributeName="fill" to="#808080" begin="arrowUp.mouseover" end="arrowUp.mouseout"/>
                  </use>
                  <path fill="none" stroke="white" stroke-width="1.5" d="M0,-3.0v7 M-2.5,-0.5L0,-3.0L2.5,-0.5"/>
                </g>
                <g id="arrowRight" xlink:href="#dirArrow" transform="rotate(90) translate(36 -43)" onmousedown="handlePan(1,0)">
                  <use xlink:href="#rim" fill="#404040">
                        <set attributeName="fill" to="#808080" begin="arrowRight.mouseover" end="arrowRight.mouseout"/>
                  </use>
                  <path fill="none" stroke="white" stroke-width="1.5" d="M0,-3.0v7 M-2.5,-0.5L0,-3.0L2.5,-0.5"/>
                </g>
                <g id="arrowDown" xlink:href="#dirArrow" transform="rotate(180) translate(-30 -48)" onmousedown="handlePan(0,1)">
                  <use xlink:href="#rim" fill="#404040">
                        <set attributeName="fill" to="#808080" begin="arrowDown.mouseover" end="arrowDown.mouseout"/>
                  </use>
                  <path fill="none" stroke="white" stroke-width="1.5" d="M0,-3.0v7 M-2.5,-0.5L0,-3.0L2.5,-0.5"/>
                </g>
                <g id="arrowLeft" xlink:href="#dirArrow" transform="rotate(270) translate(-36 17)" onmousedown="handlePan(-1,0)">
                  <use xlink:href="#rim" fill="#404040">
                        <set attributeName="fill" to="#808080" begin="arrowLeft.mouseover" end="arrowLeft.mouseout"/>
                  </use>
                  <path fill="none" stroke="white" stroke-width="1.5" d="M0,-3.0v7 M-2.5,-0.5L0,-3.0L2.5,-0.5"/>
                </g>
        </g>
        <svg viewBox="0 0 15 15" width="100%" height="30px" preserveAspectRatio="xMaxYMin meet">
         <g id="arrow_out" transform="scale(0.3 0.3)">
          <a xlink:href="classAP__Mount__Backend_aef242e856237c58d2cb6ae0cf0568017_icgraph_org.svg" target="_base">
           <rect id="button" ry="5" rx="5" y="6" x="6" height="38" width="38"
                fill="#f2f5e9" fill-opacity="0.5" stroke="#606060" stroke-width="1.0"/>
           <path id="arrow"
             d="M 11.500037,31.436501 C 11.940474,20.09759 22.043105,11.32322 32.158766,21.979434 L 37.068811,17.246167 C 37.068811,17.246167 37.088388,32 37.088388,32 L 22.160133,31.978069 C 22.160133,31.978069 26.997745,27.140456 26.997745,27.140456 C 18.528582,18.264221 13.291696,25.230495 11.500037,31.436501 z"
             style="fill:#404040;"/>
          </a>
         </g>
        </svg>
</svg>
