<?xml version="1.0" encoding="UTF-8" standalone="no"?>
<!DOCTYPE svg PUBLIC "-//W3C//DTD SVG 1.1//EN"
 "http://www.w3.org/Graphics/SVG/1.1/DTD/svg11.dtd">
<!-- Generated by graphviz version 2.30.1 (20130221.2233)
 -->
<!-- Title: AP_Relay::init Pages: 1 -->
<svg width="368pt" height="67pt"
 viewBox="0.00 0.00 368.00 67.00" xmlns="http://www.w3.org/2000/svg" xmlns:xlink="http://www.w3.org/1999/xlink">
<g id="graph0" class="graph" transform="scale(1 1) rotate(0) translate(4 63)">
<title>AP_Relay::init</title>
<polygon fill="white" stroke="white" points="-4,5 -4,-63 365,-63 365,5 -4,5"/>
<!-- Node105 -->
<g id="node1" class="node"><title>Node105</title>
<g id="a_node1"><a xlink:title=" ">
<polygon fill="#bfbfbf" stroke="black" points="0.596191,-19 0.596191,-39 79.4038,-39 79.4038,-19 0.596191,-19"/>
<text text-anchor="middle" x="40" y="-25" font-family="Helvetica,sans-Serif" font-size="10.00">AP_Relay::init</text>
</a>
</g>
</g>
<!-- Node106 -->
<g id="node2" class="node"><title>Node106</title>
<g id="a_node2"><a xlink:href="classAP__Relay.html#aff679a24b3c6b73f066e1e62c86e0fae" target="_top" xlink:title=" ">
<polygon fill="white" stroke="black" points="116.517,-39 116.517,-59 193.483,-59 193.483,-39 116.517,-39"/>
<text text-anchor="middle" x="155" y="-45" font-family="Helvetica,sans-Serif" font-size="10.00">AP_Relay::off</text>
</a>
</g>
</g>
<!-- Node105&#45;&gt;Node106 -->
<g id="edge1" class="edge"><title>Node105&#45;&gt;Node106</title>
<path fill="none" stroke="midnightblue" d="M79.5721,-35.8269C88.2125,-37.3562 97.4769,-38.9959 106.434,-40.5812"/>
<polygon fill="midnightblue" stroke="midnightblue" points="105.91,-44.0427 116.367,-42.3392 107.13,-37.1499 105.91,-44.0427"/>
</g>
<!-- Node109 -->
<g id="node5" class="node"><title>Node109</title>
<g id="a_node5"><a xlink:href="classAP__Relay.html#a8f00e5559174917b795ef84472822e53" target="_top" xlink:title=" ">
<polygon fill="white" stroke="black" points="116.426,-0 116.426,-20 193.574,-20 193.574,-0 116.426,-0"/>
<text text-anchor="middle" x="155" y="-6" font-family="Helvetica,sans-Serif" font-size="10.00">AP_Relay::on</text>
</a>
</g>
</g>
<!-- Node105&#45;&gt;Node109 -->
<g id="edge4" class="edge"><title>Node105&#45;&gt;Node109</title>
<path fill="none" stroke="midnightblue" d="M79.5721,-22.5144C88.2125,-21.0616 97.4769,-19.5039 106.434,-17.9978"/>
<polygon fill="midnightblue" stroke="midnightblue" points="107.085,-21.4375 116.367,-16.3278 105.925,-14.5344 107.085,-21.4375"/>
</g>
<!-- Node107 -->
<g id="node3" class="node"><title>Node107</title>
<g id="a_node3"><a xlink:href="classAP__HAL_1_1GPIO.html#a3dfc60214bd1aa4936d51ca72c045b95" target="_top" xlink:title=" ">
<polygon fill="white" stroke="black" points="230.584,-39 230.584,-59 359.416,-59 359.416,-39 230.584,-39"/>
<text text-anchor="middle" x="295" y="-45" font-family="Helvetica,sans-Serif" font-size="10.00">AP_HAL::GPIO::pinMode</text>
</a>
</g>
</g>
<!-- Node106&#45;&gt;Node107 -->
<g id="edge2" class="edge"><title>Node106&#45;&gt;Node107</title>
<path fill="none" stroke="midnightblue" d="M193.709,-49C201.943,-49 210.93,-49 220.034,-49"/>
<polygon fill="midnightblue" stroke="midnightblue" points="220.327,-52.5001 230.327,-49 220.327,-45.5001 220.327,-52.5001"/>
</g>
<!-- Node108 -->
<g id="node4" class="node"><title>Node108</title>
<g id="a_node4"><a xlink:href="classAP__HAL_1_1GPIO.html#a2b0664bdab1876e3b0bbcd9064eec88e" target="_top" xlink:title=" ">
<polygon fill="white" stroke="black" points="239.207,-0 239.207,-20 350.793,-20 350.793,-0 239.207,-0"/>
<text text-anchor="middle" x="295" y="-6" font-family="Helvetica,sans-Serif" font-size="10.00">AP_HAL::GPIO::write</text>
</a>
</g>
</g>
<!-- Node106&#45;&gt;Node108 -->
<g id="edge3" class="edge"><title>Node106&#45;&gt;Node108</title>
<path fill="none" stroke="midnightblue" d="M191.538,-38.9565C209.003,-34.0208 230.242,-28.0184 248.845,-22.7612"/>
<polygon fill="midnightblue" stroke="midnightblue" points="249.911,-26.0972 258.582,-20.0094 248.007,-19.361 249.911,-26.0972"/>
</g>
<!-- Node109&#45;&gt;Node107 -->
<g id="edge5" class="edge"><title>Node109&#45;&gt;Node107</title>
<path fill="none" stroke="midnightblue" d="M191.538,-20.0435C209.003,-24.9792 230.242,-30.9816 248.845,-36.2388"/>
<polygon fill="midnightblue" stroke="midnightblue" points="248.007,-39.639 258.582,-38.9906 249.911,-32.9028 248.007,-39.639"/>
</g>
<!-- Node109&#45;&gt;Node108 -->
<g id="edge6" class="edge"><title>Node109&#45;&gt;Node108</title>
<path fill="none" stroke="midnightblue" d="M193.709,-10C204.62,-10 216.855,-10 228.929,-10"/>
<polygon fill="midnightblue" stroke="midnightblue" points="229,-13.5001 239,-10 229,-6.5001 229,-13.5001"/>
</g>
</g>
</svg>
