<?xml version="1.0" encoding="UTF-8" standalone="no"?>
<!DOCTYPE svg PUBLIC "-//W3C//DTD SVG 1.1//EN"
 "http://www.w3.org/Graphics/SVG/1.1/DTD/svg11.dtd">
<!-- Generated by graphviz version 2.30.1 (20130221.2233)
 -->
<!-- Title: Compass::set_and_save_diagonals Pages: 1 -->
<svg width="1328pt" height="73pt"
 viewBox="0.00 0.00 1328.00 73.00" xmlns="http://www.w3.org/2000/svg" xmlns:xlink="http://www.w3.org/1999/xlink">
<g id="graph0" class="graph" transform="scale(1 1) rotate(0) translate(4 69)">
<title>Compass::set_and_save_diagonals</title>
<polygon fill="white" stroke="white" points="-4,5 -4,-69 1325,-69 1325,5 -4,5"/>
<!-- Node5409 -->
<g id="node1" class="node"><title>Node5409</title>
<g id="a_node1"><a xlink:title=" ">
<polygon fill="#bfbfbf" stroke="black" points="1193.97,-13 1193.97,-45 1320.03,-45 1320.03,-13 1193.97,-13"/>
<text text-anchor="start" x="1201.97" y="-31" font-family="Helvetica,sans-Serif" font-size="10.00">Compass::set_and_save</text>
<text text-anchor="middle" x="1257" y="-19" font-family="Helvetica,sans-Serif" font-size="10.00">_diagonals</text>
</a>
</g>
</g>
<!-- Node5410 -->
<g id="node2" class="node"><title>Node5410</title>
<g id="a_node2"><a xlink:href="classCompass.html#a659da6997da12f2a27ffd5eb45fedf8a" target="_top" xlink:title=" ">
<polygon fill="white" stroke="black" points="1008.02,-19 1008.02,-39 1157.98,-39 1157.98,-19 1008.02,-19"/>
<text text-anchor="middle" x="1083" y="-25" font-family="Helvetica,sans-Serif" font-size="10.00">Compass::_accept_calibration</text>
</a>
</g>
</g>
<!-- Node5409&#45;&gt;Node5410 -->
<g id="edge1" class="edge"><title>Node5409&#45;&gt;Node5410</title>
<path fill="none" stroke="midnightblue" d="M1183.67,-29C1175.19,-29 1166.52,-29 1158.02,-29"/>
<polygon fill="midnightblue" stroke="midnightblue" points="1183.9,-32.5001 1193.9,-29 1183.9,-25.5001 1183.9,-32.5001"/>
</g>
<!-- Node5411 -->
<g id="node3" class="node"><title>Node5411</title>
<g id="a_node3"><a xlink:href="classCompass.html#a063eabf244187b5d60bb4674f09bce8e" target="_top" xlink:title=" ">
<polygon fill="white" stroke="black" points="792.293,-39 792.293,-59 971.707,-59 971.707,-39 792.293,-39"/>
<text text-anchor="middle" x="882" y="-45" font-family="Helvetica,sans-Serif" font-size="10.00">Compass::_accept_calibration_mask</text>
</a>
</g>
</g>
<!-- Node5410&#45;&gt;Node5411 -->
<g id="edge2" class="edge"><title>Node5410&#45;&gt;Node5411</title>
<path fill="none" stroke="midnightblue" d="M997.913,-37.451C989.331,-38.3135 980.592,-39.1918 971.96,-40.0593"/>
<polygon fill="midnightblue" stroke="midnightblue" points="998.3,-40.9298 1007.9,-36.4473 997.6,-33.9649 998.3,-40.9298"/>
</g>
<!-- Node5417 -->
<g id="node9" class="node"><title>Node5417</title>
<g id="a_node9"><a xlink:href="classCompass.html#a203fae029cddac76ccf91f8617f90629" target="_top" xlink:title=" ">
<polygon fill="white" stroke="black" points="825.638,-0 825.638,-20 938.362,-20 938.362,-0 825.638,-0"/>
<text text-anchor="middle" x="882" y="-6" font-family="Helvetica,sans-Serif" font-size="10.00">Compass::cal_update</text>
</a>
</g>
</g>
<!-- Node5410&#45;&gt;Node5417 -->
<g id="edge8" class="edge"><title>Node5410&#45;&gt;Node5417</title>
<path fill="none" stroke="midnightblue" d="M997.828,-20.9635C977.782,-19.0495 956.885,-17.0544 938.499,-15.2989"/>
<polygon fill="midnightblue" stroke="midnightblue" points="997.612,-24.4587 1007.9,-21.9251 998.278,-17.4904 997.612,-24.4587"/>
</g>
<!-- Node5412 -->
<g id="node4" class="node"><title>Node5412</title>
<g id="a_node4"><a xlink:href="classCompass.html#ab4993a08b27d38ebb96276dc40c5f5fb" target="_top" xlink:title=" ">
<polygon fill="white" stroke="black" points="636.582,-33 636.582,-65 755.418,-65 755.418,-33 636.582,-33"/>
<text text-anchor="start" x="644.582" y="-51" font-family="Helvetica,sans-Serif" font-size="10.00">Compass::handle_mag</text>
<text text-anchor="middle" x="696" y="-39" font-family="Helvetica,sans-Serif" font-size="10.00">_cal_command</text>
</a>
</g>
</g>
<!-- Node5411&#45;&gt;Node5412 -->
<g id="edge3" class="edge"><title>Node5411&#45;&gt;Node5412</title>
<path fill="none" stroke="midnightblue" d="M781.982,-49C772.92,-49 763.949,-49 755.424,-49"/>
<polygon fill="midnightblue" stroke="midnightblue" points="782.234,-52.5001 792.234,-49 782.234,-45.5001 782.234,-52.5001"/>
</g>
<!-- Node5413 -->
<g id="node5" class="node"><title>Node5413</title>
<g id="a_node5"><a xlink:href="structGCS__MAVLINK.html#acc3f14c49157522bc5c00c3fe1c1b553" target="_top" xlink:title=" ">
<polygon fill="white" stroke="black" points="478.009,-33 478.009,-65 599.991,-65 599.991,-33 478.009,-33"/>
<text text-anchor="start" x="486.009" y="-51" font-family="Helvetica,sans-Serif" font-size="10.00">GCS_MAVLINK::handle</text>
<text text-anchor="middle" x="539" y="-39" font-family="Helvetica,sans-Serif" font-size="10.00">_command_mag_cal</text>
</a>
</g>
</g>
<!-- Node5412&#45;&gt;Node5413 -->
<g id="edge4" class="edge"><title>Node5412&#45;&gt;Node5413</title>
<path fill="none" stroke="midnightblue" d="M626.297,-49C617.609,-49 608.771,-49 600.229,-49"/>
<polygon fill="midnightblue" stroke="midnightblue" points="626.401,-52.5001 636.401,-49 626.401,-45.5001 626.401,-52.5001"/>
</g>
<!-- Node5414 -->
<g id="node6" class="node"><title>Node5414</title>
<g id="a_node6"><a xlink:href="structGCS__MAVLINK.html#a29e2941413d50ab63cd70f5beadef19a" target="_top" xlink:title=" ">
<polygon fill="white" stroke="black" points="316.52,-33 316.52,-65 441.48,-65 441.48,-33 316.52,-33"/>
<text text-anchor="start" x="324.52" y="-51" font-family="Helvetica,sans-Serif" font-size="10.00">GCS_MAVLINK::handle</text>
<text text-anchor="middle" x="379" y="-39" font-family="Helvetica,sans-Serif" font-size="10.00">_command_long_packet</text>
</a>
</g>
</g>
<!-- Node5413&#45;&gt;Node5414 -->
<g id="edge5" class="edge"><title>Node5413&#45;&gt;Node5414</title>
<path fill="none" stroke="midnightblue" d="M467.692,-49C458.99,-49 450.146,-49 441.589,-49"/>
<polygon fill="midnightblue" stroke="midnightblue" points="467.816,-52.5001 477.816,-49 467.816,-45.5001 467.816,-52.5001"/>
</g>
<!-- Node5415 -->
<g id="node7" class="node"><title>Node5415</title>
<g id="a_node7"><a xlink:href="structGCS__MAVLINK.html#abc79cdd8393234b66f2e8217a527f8f9" target="_top" xlink:title=" ">
<polygon fill="white" stroke="black" points="158.009,-33 158.009,-65 279.991,-65 279.991,-33 158.009,-33"/>
<text text-anchor="start" x="166.009" y="-51" font-family="Helvetica,sans-Serif" font-size="10.00">GCS_MAVLINK::handle</text>
<text text-anchor="middle" x="219" y="-39" font-family="Helvetica,sans-Serif" font-size="10.00">_command_long</text>
</a>
</g>
</g>
<!-- Node5414&#45;&gt;Node5415 -->
<g id="edge6" class="edge"><title>Node5414&#45;&gt;Node5415</title>
<path fill="none" stroke="midnightblue" d="M306.264,-49C297.509,-49 288.634,-49 280.075,-49"/>
<polygon fill="midnightblue" stroke="midnightblue" points="306.461,-52.5001 316.461,-49 306.461,-45.5001 306.461,-52.5001"/>
</g>
<!-- Node5416 -->
<g id="node8" class="node"><title>Node5416</title>
<g id="a_node8"><a xlink:href="structGCS__MAVLINK.html#a13da94a2548ade6552a5250eb3251e89" target="_top" xlink:title=" ">
<polygon fill="white" stroke="black" points="0.00927734,-33 0.00927734,-65 121.991,-65 121.991,-33 0.00927734,-33"/>
<text text-anchor="start" x="8.00928" y="-51" font-family="Helvetica,sans-Serif" font-size="10.00">GCS_MAVLINK::handle</text>
<text text-anchor="middle" x="61" y="-39" font-family="Helvetica,sans-Serif" font-size="10.00">_common_message</text>
</a>
</g>
</g>
<!-- Node5415&#45;&gt;Node5416 -->
<g id="edge7" class="edge"><title>Node5415&#45;&gt;Node5416</title>
<path fill="none" stroke="midnightblue" d="M147.462,-49C139.01,-49 130.44,-49 122.153,-49"/>
<polygon fill="midnightblue" stroke="midnightblue" points="147.686,-52.5001 157.686,-49 147.686,-45.5001 147.686,-52.5001"/>
</g>
</g>
</svg>
