<?xml version="1.0" encoding="UTF-8" standalone="no"?>
<!DOCTYPE svg PUBLIC "-//W3C//DTD SVG 1.1//EN"
 "http://www.w3.org/Graphics/SVG/1.1/DTD/svg11.dtd">
<!-- Generated by graphviz version 2.30.1 (20130221.2233)
 -->
<!-- Title: AP_OSD_Screen::draw_message Pages: 1 -->
<svg width="836pt" height="275pt"
 viewBox="0.00 0.00 836.00 275.00" xmlns="http://www.w3.org/2000/svg" xmlns:xlink="http://www.w3.org/1999/xlink">
<g id="graph0" class="graph" transform="scale(1 1) rotate(0) translate(4 271)">
<title>AP_OSD_Screen::draw_message</title>
<polygon fill="white" stroke="white" points="-4,5 -4,-271 833,-271 833,5 -4,5"/>
<!-- Node534 -->
<g id="node1" class="node"><title>Node534</title>
<g id="a_node1"><a xlink:title=" ">
<polygon fill="#bfbfbf" stroke="black" points="0.475586,-112 0.475586,-144 121.524,-144 121.524,-112 0.475586,-112"/>
<text text-anchor="start" x="8.47559" y="-130" font-family="Helvetica,sans-Serif" font-size="10.00">AP_OSD_Screen::draw</text>
<text text-anchor="middle" x="61" y="-118" font-family="Helvetica,sans-Serif" font-size="10.00">_message</text>
</a>
</g>
</g>
<!-- Node535 -->
<g id="node2" class="node"><title>Node535</title>
<g id="a_node2"><a xlink:href="classAP__Notify.html#a0264facb8d3b5c35a7cff0171acdabd0" target="_top" xlink:title=" ">
<polygon fill="white" stroke="black" points="159.244,-247 159.244,-267 284.756,-267 284.756,-247 159.244,-247"/>
<text text-anchor="middle" x="222" y="-253" font-family="Helvetica,sans-Serif" font-size="10.00">AP_Notify::get_singleton</text>
</a>
</g>
</g>
<!-- Node534&#45;&gt;Node535 -->
<g id="edge1" class="edge"><title>Node534&#45;&gt;Node535</title>
<path fill="none" stroke="midnightblue" d="M72.0483,-144.163C87.612,-167.899 119.774,-212.061 158,-237 161.364,-239.195 164.985,-241.163 168.732,-242.926"/>
<polygon fill="midnightblue" stroke="midnightblue" points="167.647,-246.266 178.224,-246.897 170.349,-239.809 167.647,-246.266"/>
</g>
<!-- Node536 -->
<g id="node3" class="node"><title>Node536</title>
<g id="a_node3"><a xlink:href="namespaceAP__HAL.html#a77dffbb18891996280308e21316ec186" target="_top" xlink:title=" ">
<polygon fill="white" stroke="black" points="180.936,-208 180.936,-228 263.064,-228 263.064,-208 180.936,-208"/>
<text text-anchor="middle" x="222" y="-214" font-family="Helvetica,sans-Serif" font-size="10.00">AP_HAL::millis</text>
</a>
</g>
</g>
<!-- Node534&#45;&gt;Node536 -->
<g id="edge2" class="edge"><title>Node534&#45;&gt;Node536</title>
<path fill="none" stroke="midnightblue" d="M80.301,-144.153C98.794,-159.77 128.74,-183.184 158,-198 162.679,-200.369 167.695,-202.53 172.779,-204.481"/>
<polygon fill="midnightblue" stroke="midnightblue" points="171.974,-207.91 182.569,-207.975 174.327,-201.317 171.974,-207.91"/>
</g>
<!-- Node538 -->
<g id="node5" class="node"><title>Node538</title>
<g id="a_node5"><a xlink:href="classAP__Notify.html#acd72602f855a63e2d8a816a25ca83ac9" target="_top" xlink:title=" ">
<polygon fill="white" stroke="black" points="171.2,-157 171.2,-189 272.8,-189 272.8,-157 171.2,-157"/>
<text text-anchor="start" x="179.2" y="-175" font-family="Helvetica,sans-Serif" font-size="10.00">AP_Notify::get_text</text>
<text text-anchor="middle" x="222" y="-163" font-family="Helvetica,sans-Serif" font-size="10.00">_updated_millis</text>
</a>
</g>
</g>
<!-- Node534&#45;&gt;Node538 -->
<g id="edge4" class="edge"><title>Node534&#45;&gt;Node538</title>
<path fill="none" stroke="midnightblue" d="M118.954,-144.119C132.649,-147.995 147.318,-152.147 161.141,-156.059"/>
<polygon fill="midnightblue" stroke="midnightblue" points="160.456,-159.502 171.031,-158.858 162.363,-152.767 160.456,-159.502"/>
</g>
<!-- Node539 -->
<g id="node6" class="node"><title>Node539</title>
<g id="a_node6"><a xlink:href="classAP__Notify.html#ab57b41db7c19bc8195b5e67fb10fed54" target="_top" xlink:title=" ">
<polygon fill="white" stroke="black" points="171.2,-118 171.2,-138 272.8,-138 272.8,-118 171.2,-118"/>
<text text-anchor="middle" x="222" y="-124" font-family="Helvetica,sans-Serif" font-size="10.00">AP_Notify::get_text</text>
</a>
</g>
</g>
<!-- Node534&#45;&gt;Node539 -->
<g id="edge5" class="edge"><title>Node534&#45;&gt;Node539</title>
<path fill="none" stroke="midnightblue" d="M121.658,-128C134.521,-128 148.125,-128 161.001,-128"/>
<polygon fill="midnightblue" stroke="midnightblue" points="161.144,-131.5 171.144,-128 161.144,-124.5 161.144,-131.5"/>
</g>
<!-- Node540 -->
<g id="node7" class="node"><title>Node540</title>
<g id="a_node7"><a xlink:href="AP__Math_8h.html#a68558c4f79a8582543daefde13c64abc" target="_top" xlink:title=" ">
<polygon fill="white" stroke="black" points="180.089,-79 180.089,-99 263.911,-99 263.911,-79 180.089,-79"/>
<text text-anchor="middle" x="222" y="-85" font-family="Helvetica,sans-Serif" font-size="10.00">constrain_int16</text>
</a>
</g>
</g>
<!-- Node534&#45;&gt;Node540 -->
<g id="edge6" class="edge"><title>Node534&#45;&gt;Node540</title>
<path fill="none" stroke="midnightblue" d="M121.658,-113.367C137.561,-109.466 154.595,-105.288 169.988,-101.512"/>
<polygon fill="midnightblue" stroke="midnightblue" points="170.959,-104.878 179.837,-99.0966 169.291,-98.0796 170.959,-104.878"/>
</g>
<!-- Node547 -->
<g id="node14" class="node"><title>Node547</title>
<g id="a_node14"><a xlink:href="AP__Math_8h.html#a321a91de43cfb2e95d40cde314d0a80f" target="_top" xlink:title=" ">
<polygon fill="white" stroke="black" points="204.835,-40 204.835,-60 239.165,-60 239.165,-40 204.835,-40"/>
<text text-anchor="middle" x="222" y="-46" font-family="Helvetica,sans-Serif" font-size="10.00">MIN</text>
</a>
</g>
</g>
<!-- Node534&#45;&gt;Node547 -->
<g id="edge13" class="edge"><title>Node534&#45;&gt;Node547</title>
<path fill="none" stroke="midnightblue" d="M85.2109,-111.835C104.144,-99.1844 131.927,-81.8138 158,-70 169.764,-64.6696 183.361,-60.1605 194.905,-56.7808"/>
<polygon fill="midnightblue" stroke="midnightblue" points="196.134,-60.0714 204.819,-54.0033 194.245,-53.331 196.134,-60.0714"/>
</g>
<!-- Node548 -->
<g id="node15" class="node"><title>Node548</title>
<g id="a_node15"><a xlink:href="classAP__OSD__Backend.html#a0874cc679cadd5bc77b95df77192ef99" target="_top" xlink:title=" ">
<polygon fill="white" stroke="black" points="158.141,-1 158.141,-21 285.859,-21 285.859,-1 158.141,-1"/>
<text text-anchor="middle" x="222" y="-7" font-family="Helvetica,sans-Serif" font-size="10.00">AP_OSD_Backend::write</text>
</a>
</g>
</g>
<!-- Node534&#45;&gt;Node548 -->
<g id="edge14" class="edge"><title>Node534&#45;&gt;Node548</title>
<path fill="none" stroke="midnightblue" d="M73.844,-111.877C90.3922,-90.4478 122.428,-52.7602 158,-31 161.792,-28.6805 165.878,-26.6051 170.084,-24.7529"/>
<polygon fill="midnightblue" stroke="midnightblue" points="171.411,-27.9919 179.412,-21.0468 168.826,-21.4866 171.411,-27.9919"/>
</g>
<!-- Node537 -->
<g id="node4" class="node"><title>Node537</title>
<g id="a_node4"><a xlink:href="hrt_8c.html#a1295f128f60d29874243b5733c4db025" target="_top" xlink:title=" ">
<polygon fill="white" stroke="black" points="331.714,-208 331.714,-228 398.286,-228 398.286,-208 331.714,-208"/>
<text text-anchor="middle" x="365" y="-214" font-family="Helvetica,sans-Serif" font-size="10.00">hrt_millis32</text>
</a>
</g>
</g>
<!-- Node536&#45;&gt;Node537 -->
<g id="edge3" class="edge"><title>Node536&#45;&gt;Node537</title>
<path fill="none" stroke="midnightblue" d="M263.405,-218C281.585,-218 303.051,-218 321.475,-218"/>
<polygon fill="midnightblue" stroke="midnightblue" points="321.639,-221.5 331.639,-218 321.639,-214.5 321.639,-221.5"/>
</g>
<!-- Node541 -->
<g id="node8" class="node"><title>Node541</title>
<g id="a_node8"><a xlink:href="AP__Math_8h.html#a20e8f8671c282c69c1954652b6d61585" target="_top" xlink:title=" ">
<polygon fill="white" stroke="black" points="321.978,-79 321.978,-99 408.022,-99 408.022,-79 321.978,-79"/>
<text text-anchor="middle" x="365" y="-85" font-family="Helvetica,sans-Serif" font-size="10.00">constrain_value</text>
</a>
</g>
</g>
<!-- Node540&#45;&gt;Node541 -->
<g id="edge7" class="edge"><title>Node540&#45;&gt;Node541</title>
<path fill="none" stroke="midnightblue" d="M264.162,-89C278.965,-89 295.868,-89 311.505,-89"/>
<polygon fill="midnightblue" stroke="midnightblue" points="311.562,-92.5001 321.562,-89 311.562,-85.5001 311.562,-92.5001"/>
</g>
<!-- Node542 -->
<g id="node9" class="node"><title>Node542</title>
<g id="a_node9"><a xlink:href="namespaceAP.html#afceb236ff617aaaa2b08afacd72532b0" target="_top" xlink:title=" ">
<polygon fill="white" stroke="black" points="458.596,-99 458.596,-119 547.404,-119 547.404,-99 458.596,-99"/>
<text text-anchor="middle" x="503" y="-105" font-family="Helvetica,sans-Serif" font-size="10.00">AP::internalerror</text>
</a>
</g>
</g>
<!-- Node541&#45;&gt;Node542 -->
<g id="edge8" class="edge"><title>Node541&#45;&gt;Node542</title>
<path fill="none" stroke="midnightblue" d="M408.286,-95.2185C420.962,-97.0826 435.035,-99.1523 448.342,-101.109"/>
<polygon fill="midnightblue" stroke="midnightblue" points="447.929,-104.586 458.331,-102.578 448.947,-97.6604 447.929,-104.586"/>
</g>
<!-- Node543 -->
<g id="node10" class="node"><title>Node543</title>
<g id="a_node10"><a xlink:href="classAP__InternalError.html#ab34174ba770b976b39a18c2b23e854f2" target="_top" xlink:title=" ">
<polygon fill="white" stroke="black" points="444.426,-60 444.426,-80 561.574,-80 561.574,-60 444.426,-60"/>
<text text-anchor="middle" x="503" y="-66" font-family="Helvetica,sans-Serif" font-size="10.00">AP_InternalError::error</text>
</a>
</g>
</g>
<!-- Node541&#45;&gt;Node543 -->
<g id="edge9" class="edge"><title>Node541&#45;&gt;Node543</title>
<path fill="none" stroke="midnightblue" d="M408.286,-83.0924C416.557,-81.9369 425.424,-80.6981 434.284,-79.4603"/>
<polygon fill="midnightblue" stroke="midnightblue" points="434.833,-82.9177 444.253,-78.0676 433.865,-75.985 434.833,-82.9177"/>
</g>
<!-- Node544 -->
<g id="node11" class="node"><title>Node544</title>
<g id="a_node11"><a xlink:href="namespaceAP__HAL.html#a71832f03d849a0c088f04fc98d3c8143" target="_top" xlink:title=" ">
<polygon fill="white" stroke="black" points="598.091,-60 598.091,-80 681.909,-80 681.909,-60 598.091,-60"/>
<text text-anchor="middle" x="640" y="-66" font-family="Helvetica,sans-Serif" font-size="10.00">AP_HAL::panic</text>
</a>
</g>
</g>
<!-- Node543&#45;&gt;Node544 -->
<g id="edge10" class="edge"><title>Node543&#45;&gt;Node544</title>
<path fill="none" stroke="midnightblue" d="M561.644,-70C570.305,-70 579.188,-70 587.705,-70"/>
<polygon fill="midnightblue" stroke="midnightblue" points="587.873,-73.5001 597.873,-70 587.872,-66.5001 587.873,-73.5001"/>
</g>
<!-- Node545 -->
<g id="node12" class="node"><title>Node545</title>
<g id="a_node12"><a xlink:href="stdio_8h.html#aae132cc6af1eb6cf43bf011d8d63e854" target="_top" xlink:title=" ">
<polygon fill="white" stroke="black" points="751.384,-83 751.384,-103 794.616,-103 794.616,-83 751.384,-83"/>
<text text-anchor="middle" x="773" y="-89" font-family="Helvetica,sans-Serif" font-size="10.00">vprintf</text>
</a>
</g>
</g>
<!-- Node544&#45;&gt;Node545 -->
<g id="edge11" class="edge"><title>Node544&#45;&gt;Node545</title>
<path fill="none" stroke="midnightblue" d="M682.09,-77.2142C701.104,-80.5526 723.321,-84.4533 740.913,-87.542"/>
<polygon fill="midnightblue" stroke="midnightblue" points="740.744,-91.0658 751.199,-89.3478 741.954,-84.1712 740.744,-91.0658"/>
</g>
<!-- Node546 -->
<g id="node13" class="node"><title>Node546</title>
<g id="a_node13"><a xlink:href="classAP__HAL_1_1Scheduler.html#a78c4f1b1f192ac1c99544b6cc8f099b0" target="_top" xlink:title=" ">
<polygon fill="white" stroke="black" points="717.751,-32 717.751,-64 828.249,-64 828.249,-32 717.751,-32"/>
<text text-anchor="start" x="725.751" y="-50" font-family="Helvetica,sans-Serif" font-size="10.00">AP_HAL::Scheduler::</text>
<text text-anchor="middle" x="773" y="-38" font-family="Helvetica,sans-Serif" font-size="10.00">delay_microseconds</text>
</a>
</g>
</g>
<!-- Node544&#45;&gt;Node546 -->
<g id="edge12" class="edge"><title>Node544&#45;&gt;Node546</title>
<path fill="none" stroke="midnightblue" d="M682.09,-63.0994C690.18,-61.7408 698.849,-60.2849 707.495,-58.8329"/>
<polygon fill="midnightblue" stroke="midnightblue" points="708.316,-62.2441 717.599,-57.1361 707.157,-55.3407 708.316,-62.2441"/>
</g>
</g>
</svg>
