<?xml version="1.0" encoding="UTF-8" standalone="no"?>
<!DOCTYPE svg PUBLIC "-//W3C//DTD SVG 1.1//EN"
 "http://www.w3.org/Graphics/SVG/1.1/DTD/svg11.dtd">
<!-- Generated by graphviz version 2.30.1 (20130221.2233)
 -->
<!-- Title: AP_Motors::rc_set_freq Pages: 1 -->
<svg width="556pt" height="402pt"
 viewBox="0.00 0.00 556.00 402.00" xmlns="http://www.w3.org/2000/svg" xmlns:xlink="http://www.w3.org/1999/xlink">
<g id="graph0" class="graph" transform="scale(1 1) rotate(0) translate(4 398)">
<title>AP_Motors::rc_set_freq</title>
<polygon fill="white" stroke="white" points="-4,5 -4,-398 553,-398 553,5 -4,5"/>
<!-- Node255 -->
<g id="node1" class="node"><title>Node255</title>
<g id="a_node1"><a xlink:title=" ">
<polygon fill="#bfbfbf" stroke="black" points="426.478,-159 426.478,-179 547.522,-179 547.522,-159 426.478,-159"/>
<text text-anchor="middle" x="487" y="-165" font-family="Helvetica,sans-Serif" font-size="10.00">AP_Motors::rc_set_freq</text>
</a>
</g>
</g>
<!-- Node256 -->
<g id="node2" class="node"><title>Node256</title>
<g id="a_node2"><a xlink:href="classAP__MotorsMatrix.html#a1249a38e99dc59f13e7305ba94319f76" target="_top" xlink:title=" ">
<polygon fill="white" stroke="black" points="256.209,-313 256.209,-345 367.791,-345 367.791,-313 256.209,-313"/>
<text text-anchor="start" x="264.209" y="-331" font-family="Helvetica,sans-Serif" font-size="10.00">AP_MotorsMatrix::set</text>
<text text-anchor="middle" x="312" y="-319" font-family="Helvetica,sans-Serif" font-size="10.00">_update_rate</text>
</a>
</g>
</g>
<!-- Node255&#45;&gt;Node256 -->
<g id="edge1" class="edge"><title>Node255&#45;&gt;Node256</title>
<path fill="none" stroke="midnightblue" d="M473.595,-187.558C456.735,-211.816 424.688,-254.662 390,-284 376.759,-295.199 360.366,-305.212 346.113,-312.933"/>
<polygon fill="midnightblue" stroke="midnightblue" points="476.529,-189.467 479.287,-179.237 470.752,-185.515 476.529,-189.467"/>
</g>
<!-- Node260 -->
<g id="node6" class="node"><title>Node260</title>
<g id="a_node6"><a xlink:href="classAP__MotorsTri.html#a8ed8dcfaa80acd0f3a2f1341bd5a5a8f" target="_top" xlink:title=" ">
<polygon fill="white" stroke="black" points="234.703,-255 234.703,-275 389.297,-275 389.297,-255 234.703,-255"/>
<text text-anchor="middle" x="312" y="-261" font-family="Helvetica,sans-Serif" font-size="10.00">AP_MotorsTri::set_update_rate</text>
</a>
</g>
</g>
<!-- Node255&#45;&gt;Node260 -->
<g id="edge6" class="edge"><title>Node255&#45;&gt;Node260</title>
<path fill="none" stroke="midnightblue" d="M468.616,-186.514C450.496,-203.806 420.529,-229.803 390,-245 381.963,-249.001 373.043,-252.259 364.207,-254.894"/>
<polygon fill="midnightblue" stroke="midnightblue" points="471.349,-188.737 476.067,-179.251 466.463,-183.725 471.349,-188.737"/>
</g>
<!-- Node262 -->
<g id="node8" class="node"><title>Node262</title>
<g id="a_node8"><a xlink:href="classAP__MotorsHeli__Quad.html#a13a5d8ff0ad2b869711c8bbac440067d" target="_top" xlink:title=" ">
<polygon fill="white" stroke="black" points="255.643,-204 255.643,-236 368.357,-236 368.357,-204 255.643,-204"/>
<text text-anchor="start" x="263.643" y="-222" font-family="Helvetica,sans-Serif" font-size="10.00">AP_MotorsHeli_Quad</text>
<text text-anchor="middle" x="312" y="-210" font-family="Helvetica,sans-Serif" font-size="10.00">::set_update_rate</text>
</a>
</g>
</g>
<!-- Node255&#45;&gt;Node262 -->
<g id="edge8" class="edge"><title>Node255&#45;&gt;Node262</title>
<path fill="none" stroke="midnightblue" d="M442.128,-181.933C419.459,-188.616 391.582,-196.834 367.538,-203.922"/>
<polygon fill="midnightblue" stroke="midnightblue" points="443.219,-185.261 451.821,-179.076 441.239,-178.547 443.219,-185.261"/>
</g>
<!-- Node263 -->
<g id="node9" class="node"><title>Node263</title>
<g id="a_node9"><a xlink:href="classAP__MotorsSingle.html#a369660804b9993572860955615b55ea7" target="_top" xlink:title=" ">
<polygon fill="white" stroke="black" points="255.921,-153 255.921,-185 368.079,-185 368.079,-153 255.921,-153"/>
<text text-anchor="start" x="263.921" y="-171" font-family="Helvetica,sans-Serif" font-size="10.00">AP_MotorsSingle::set</text>
<text text-anchor="middle" x="312" y="-159" font-family="Helvetica,sans-Serif" font-size="10.00">_update_rate</text>
</a>
</g>
</g>
<!-- Node255&#45;&gt;Node263 -->
<g id="edge9" class="edge"><title>Node255&#45;&gt;Node263</title>
<path fill="none" stroke="midnightblue" d="M416.134,-169C400.209,-169 383.501,-169 368.283,-169"/>
<polygon fill="midnightblue" stroke="midnightblue" points="416.463,-172.5 426.463,-169 416.463,-165.5 416.463,-172.5"/>
</g>
<!-- Node264 -->
<g id="node10" class="node"><title>Node264</title>
<g id="a_node10"><a xlink:href="classAP__MotorsCoax.html#a4c9604f1f24f8b65890ea29d392f6ba5" target="_top" xlink:title=" ">
<polygon fill="white" stroke="black" points="258.148,-102 258.148,-134 365.852,-134 365.852,-102 258.148,-102"/>
<text text-anchor="start" x="266.148" y="-120" font-family="Helvetica,sans-Serif" font-size="10.00">AP_MotorsCoax::set</text>
<text text-anchor="middle" x="312" y="-108" font-family="Helvetica,sans-Serif" font-size="10.00">_update_rate</text>
</a>
</g>
</g>
<!-- Node255&#45;&gt;Node264 -->
<g id="edge10" class="edge"><title>Node255&#45;&gt;Node264</title>
<path fill="none" stroke="midnightblue" d="M441.963,-156.018C418.897,-149.218 390.472,-140.839 366.185,-133.679"/>
<polygon fill="midnightblue" stroke="midnightblue" points="441.239,-159.453 451.821,-158.924 443.219,-152.739 441.239,-159.453"/>
</g>
<!-- Node265 -->
<g id="node11" class="node"><title>Node265</title>
<g id="a_node11"><a xlink:href="classAP__MotorsHeli__Single.html#a54ccb51f6ac963c50ba729ec458c356d" target="_top" xlink:title=" ">
<polygon fill="white" stroke="black" points="253.976,-51 253.976,-83 370.024,-83 370.024,-51 253.976,-51"/>
<text text-anchor="start" x="261.976" y="-69" font-family="Helvetica,sans-Serif" font-size="10.00">AP_MotorsHeli_Single</text>
<text text-anchor="middle" x="312" y="-57" font-family="Helvetica,sans-Serif" font-size="10.00">::set_update_rate</text>
</a>
</g>
</g>
<!-- Node255&#45;&gt;Node265 -->
<g id="edge11" class="edge"><title>Node255&#45;&gt;Node265</title>
<path fill="none" stroke="midnightblue" d="M468.083,-151.663C449.751,-134.724 419.805,-109.191 390,-93 383.181,-89.2956 375.738,-85.9828 368.254,-83.0644"/>
<polygon fill="midnightblue" stroke="midnightblue" points="465.964,-154.475 475.646,-158.777 470.76,-149.376 465.964,-154.475"/>
</g>
<!-- Node266 -->
<g id="node12" class="node"><title>Node266</title>
<g id="a_node12"><a xlink:href="classAP__MotorsHeli__Dual.html#aa02b6d52fbd392d8e50c6feb79fef768" target="_top" xlink:title=" ">
<polygon fill="white" stroke="black" points="257.591,-0 257.591,-32 366.409,-32 366.409,-0 257.591,-0"/>
<text text-anchor="start" x="265.591" y="-18" font-family="Helvetica,sans-Serif" font-size="10.00">AP_MotorsHeli_Dual</text>
<text text-anchor="middle" x="312" y="-6" font-family="Helvetica,sans-Serif" font-size="10.00">::set_update_rate</text>
</a>
</g>
</g>
<!-- Node255&#45;&gt;Node266 -->
<g id="edge12" class="edge"><title>Node255&#45;&gt;Node266</title>
<path fill="none" stroke="midnightblue" d="M476.373,-149.499C461.58,-121.492 430.655,-70.0617 390,-41 382.911,-35.9324 374.739,-31.8531 366.425,-28.5806"/>
<polygon fill="midnightblue" stroke="midnightblue" points="473.401,-151.374 481.081,-158.672 479.629,-148.178 473.401,-151.374"/>
</g>
<!-- Node257 -->
<g id="node3" class="node"><title>Node257</title>
<g id="a_node3"><a xlink:href="classAP__MotorsMatrix.html#a74999b8c2bdb8a6c9a139e4d4a742679" target="_top" xlink:title=" ">
<polygon fill="white" stroke="black" points="81.4878,-374 81.4878,-394 192.512,-394 192.512,-374 81.4878,-374"/>
<text text-anchor="middle" x="137" y="-380" font-family="Helvetica,sans-Serif" font-size="10.00">AP_MotorsMatrix::init</text>
</a>
</g>
</g>
<!-- Node256&#45;&gt;Node257 -->
<g id="edge2" class="edge"><title>Node256&#45;&gt;Node257</title>
<path fill="none" stroke="midnightblue" d="M250.623,-348.195C223.289,-356.885 192.115,-366.796 169.505,-373.984"/>
<polygon fill="midnightblue" stroke="midnightblue" points="252.027,-351.421 260.496,-345.056 249.906,-344.75 252.027,-351.421"/>
</g>
<!-- Node259 -->
<g id="node5" class="node"><title>Node259</title>
<g id="a_node5"><a xlink:href="classAP__MotorsMatrix.html#ad608ef0a8298cd204251d4374a2699c4" target="_top" xlink:title=" ">
<polygon fill="white" stroke="black" points="75.9116,-323 75.9116,-355 198.088,-355 198.088,-323 75.9116,-323"/>
<text text-anchor="start" x="83.9116" y="-341" font-family="Helvetica,sans-Serif" font-size="10.00">AP_MotorsMatrix::set</text>
<text text-anchor="middle" x="137" y="-329" font-family="Helvetica,sans-Serif" font-size="10.00">_frame_class_and_type</text>
</a>
</g>
</g>
<!-- Node256&#45;&gt;Node259 -->
<g id="edge4" class="edge"><title>Node256&#45;&gt;Node259</title>
<path fill="none" stroke="midnightblue" d="M245.738,-332.772C230.2,-333.671 213.687,-334.625 198.379,-335.51"/>
<polygon fill="midnightblue" stroke="midnightblue" points="246.005,-336.263 255.786,-332.192 245.601,-329.275 246.005,-336.263"/>
</g>
<!-- Node258 -->
<g id="node4" class="node"><title>Node258</title>
<g id="a_node4"><a xlink:href="AP__Motors__test_8cpp.html#a4fc01d736fe50cf5b977f755b675f11d" target="_top" xlink:title=" ">
<polygon fill="white" stroke="black" points="-0.231445,-329 -0.231445,-349 40.2314,-349 40.2314,-329 -0.231445,-329"/>
<text text-anchor="middle" x="20" y="-335" font-family="Helvetica,sans-Serif" font-size="10.00">setup</text>
</a>
</g>
</g>
<!-- Node256&#45;&gt;Node258 -->
<g id="edge5" class="edge"><title>Node256&#45;&gt;Node258</title>
<path fill="none" stroke="midnightblue" d="M245.889,-315.323C198.313,-307.623 132.512,-301.759 76,-314 62.6737,-316.887 48.6988,-323.288 38.1707,-328.891"/>
<polygon fill="midnightblue" stroke="midnightblue" points="245.311,-318.775 255.754,-316.988 246.476,-311.872 245.311,-318.775"/>
</g>
<!-- Node257&#45;&gt;Node258 -->
<g id="edge3" class="edge"><title>Node257&#45;&gt;Node258</title>
<path fill="none" stroke="midnightblue" d="M94.1899,-370.691C88.052,-368.556 81.8352,-366.291 76,-364 63.9915,-359.284 50.8257,-353.329 40.3868,-348.414"/>
<polygon fill="midnightblue" stroke="midnightblue" points="93.1097,-374.02 103.704,-373.925 95.3626,-367.392 93.1097,-374.02"/>
</g>
<!-- Node261 -->
<g id="node7" class="node"><title>Node261</title>
<g id="a_node7"><a xlink:href="classAP__MotorsTri.html#adacd9f3694be635672054ce1accf0f1c" target="_top" xlink:title=" ">
<polygon fill="white" stroke="black" points="89.4517,-245 89.4517,-265 184.548,-265 184.548,-245 89.4517,-245"/>
<text text-anchor="middle" x="137" y="-251" font-family="Helvetica,sans-Serif" font-size="10.00">AP_MotorsTri::init</text>
</a>
</g>
</g>
<!-- Node260&#45;&gt;Node261 -->
<g id="edge7" class="edge"><title>Node260&#45;&gt;Node261</title>
<path fill="none" stroke="midnightblue" d="M224.605,-260.006C210.827,-259.21 197.046,-258.413 184.66,-257.697"/>
<polygon fill="midnightblue" stroke="midnightblue" points="224.431,-263.502 234.616,-260.585 224.835,-256.513 224.431,-263.502"/>
</g>
</g>
</svg>
