<?xml version="1.0" encoding="UTF-8" standalone="no"?>
<!DOCTYPE svg PUBLIC "-//W3C//DTD SVG 1.1//EN"
 "http://www.w3.org/Graphics/SVG/1.1/DTD/svg11.dtd">
<!-- Generated by graphviz version 2.30.1 (20130221.2233)
 -->
<!-- Title: Linux::Thread::set_stack_size Pages: 1 -->
<svg width="272pt" height="142pt"
 viewBox="0.00 0.00 272.00 142.00" xmlns="http://www.w3.org/2000/svg" xmlns:xlink="http://www.w3.org/1999/xlink">
<g id="graph0" class="graph" transform="scale(1 1) rotate(0) translate(4 138)">
<title>Linux::Thread::set_stack_size</title>
<polygon fill="white" stroke="white" points="-4,5 -4,-138 269,-138 269,5 -4,5"/>
<!-- Node59 -->
<g id="node1" class="node"><title>Node59</title>
<g id="a_node1"><a xlink:title=" ">
<polygon fill="#bfbfbf" stroke="black" points="167.978,-51 167.978,-83 264.022,-83 264.022,-51 167.978,-51"/>
<text text-anchor="start" x="175.978" y="-69" font-family="Helvetica,sans-Serif" font-size="10.00">Linux::Thread::set</text>
<text text-anchor="middle" x="216" y="-57" font-family="Helvetica,sans-Serif" font-size="10.00">_stack_size</text>
</a>
</g>
</g>
<!-- Node60 -->
<g id="node2" class="node"><title>Node60</title>
<g id="a_node2"><a xlink:href="classLinux_1_1SPIDevice.html#a65121a0ffda2db4189b759d6914fe513" target="_top" xlink:title=" ">
<polygon fill="white" stroke="black" points="0.475586,-102 0.475586,-134 131.524,-134 131.524,-102 0.475586,-102"/>
<text text-anchor="start" x="8.47559" y="-120" font-family="Helvetica,sans-Serif" font-size="10.00">Linux::SPIDevice::register</text>
<text text-anchor="middle" x="66" y="-108" font-family="Helvetica,sans-Serif" font-size="10.00">_periodic_callback</text>
</a>
</g>
</g>
<!-- Node59&#45;&gt;Node60 -->
<g id="edge1" class="edge"><title>Node59&#45;&gt;Node60</title>
<path fill="none" stroke="midnightblue" d="M158.568,-86.446C143.693,-91.5721 127.812,-97.0446 113.523,-101.968"/>
<polygon fill="midnightblue" stroke="midnightblue" points="159.858,-89.7038 168.172,-83.1367 157.577,-83.0857 159.858,-89.7038"/>
</g>
<!-- Node61 -->
<g id="node3" class="node"><title>Node61</title>
<g id="a_node3"><a xlink:href="classLinux_1_1I2CDevice.html#a8d25b8e9f1c692835534aa65cdc74f9b" target="_top" xlink:title=" ">
<polygon fill="white" stroke="black" points="0.753906,-51 0.753906,-83 131.246,-83 131.246,-51 0.753906,-51"/>
<text text-anchor="start" x="8.75391" y="-69" font-family="Helvetica,sans-Serif" font-size="10.00">Linux::I2CDevice::register</text>
<text text-anchor="middle" x="66" y="-57" font-family="Helvetica,sans-Serif" font-size="10.00">_periodic_callback</text>
</a>
</g>
</g>
<!-- Node59&#45;&gt;Node61 -->
<g id="edge2" class="edge"><title>Node59&#45;&gt;Node61</title>
<path fill="none" stroke="midnightblue" d="M157.494,-67C148.92,-67 140.034,-67 131.331,-67"/>
<polygon fill="midnightblue" stroke="midnightblue" points="157.765,-70.5001 167.765,-67 157.765,-63.5001 157.765,-70.5001"/>
</g>
<!-- Node62 -->
<g id="node4" class="node"><title>Node62</title>
<g id="a_node4"><a xlink:href="classLinux_1_1Scheduler.html#a6ad618ceae22610a76773acbd10a601f" target="_top" xlink:title=" ">
<polygon fill="white" stroke="black" points="3.79834,-0 3.79834,-32 128.202,-32 128.202,-0 3.79834,-0"/>
<text text-anchor="start" x="11.7983" y="-18" font-family="Helvetica,sans-Serif" font-size="10.00">Linux::Scheduler::thread</text>
<text text-anchor="middle" x="66" y="-6" font-family="Helvetica,sans-Serif" font-size="10.00">_create</text>
</a>
</g>
</g>
<!-- Node59&#45;&gt;Node62 -->
<g id="edge3" class="edge"><title>Node59&#45;&gt;Node62</title>
<path fill="none" stroke="midnightblue" d="M158.568,-47.554C143.693,-42.4279 127.812,-36.9554 113.523,-32.0317"/>
<polygon fill="midnightblue" stroke="midnightblue" points="157.577,-50.9143 168.172,-50.8633 159.858,-44.2962 157.577,-50.9143"/>
</g>
</g>
</svg>
