<?xml version="1.0" encoding="UTF-8" standalone="no"?>
<!DOCTYPE svg PUBLIC "-//W3C//DTD SVG 1.1//EN"
 "http://www.w3.org/Graphics/SVG/1.1/DTD/svg11.dtd">
<!-- Generated by graphviz version 2.30.1 (20130221.2233)
 -->
<!-- Title: AC_PosControl::get_max_speed_xy Pages: 1 -->
<!--zoomable 310 -->
<svg id="main" version="1.1" xmlns="http://www.w3.org/2000/svg" xmlns:xlink="http://www.w3.org/1999/xlink" xml:space="preserve" onload="init(evt)">
<style type="text/css"><![CDATA[
.edge:hover path { stroke: red; }
.edge:hover polygon { stroke: red; fill: red; }
]]></style>
<script type="text/javascript"><![CDATA[
var edges = document.getElementsByTagName('g');
if (edges && edges.length) {
  for (var i=0;i<edges.length;i++) {
    if (edges[i].id.substr(0,4)=='edge') {
      edges[i].setAttribute('class','edge');
    }
  }
}
]]></script>
        <defs>
                <circle id="rim" cx="0" cy="0" r="7"/>
                <circle id="rim2" cx="0" cy="0" r="3.5"/>
                <g id="zoomPlus">
                        <use xlink:href="#rim" fill="#404040">
                                <set attributeName="fill" to="#808080" begin="zoomplus.mouseover" end="zoomplus.mouseout"/>
                        </use>
                        <path d="M-4,0h8M0,-4v8" fill="none" stroke="white" stroke-width="1.5" pointer-events="none"/>
                </g>
                <g id="zoomMin">
                        <use xlink:href="#rim" fill="#404040">
                                <set attributeName="fill" to="#808080" begin="zoomminus.mouseover" end="zoomminus.mouseout"/>
                        </use>
                        <path d="M-4,0h8" fill="none" stroke="white" stroke-width="1.5" pointer-events="none"/>
                </g>
                <g id="dirArrow">
                        <path fill="none" stroke="white" stroke-width="1.5" d="M0,-3.0v7 M-2.5,-0.5L0,-3.0L2.5,-0.5"/>
                </g>
               <g id="resetDef">
                       <use xlink:href="#rim2" fill="#404040">
                               <set attributeName="fill" to="#808080" begin="reset.mouseover" end="reset.mouseout"/>
                       </use>
               </g>
        </defs>

<script type="text/javascript">
var viewWidth = 658;
var viewHeight = 310;
var sectionId = 'dynsection-35';
</script>
<script xlink:href="svgpan.js"/>
<svg id="graph" class="graph">
<g id="viewport">
<title>AC_PosControl::get_max_speed_xy</title>
<polygon fill="white" stroke="white" points="-4,5 -4,-306 655,-306 655,5 -4,5"/>
<!-- Node238 -->
<g id="node1" class="node"><title>Node238</title>
<g id="a_node1"><a xlink:title=" ">
<polygon fill="#bfbfbf" stroke="black" points="545.811,-151 545.811,-183 650.189,-183 650.189,-151 545.811,-151"/>
<text text-anchor="start" x="553.811" y="-169" font-family="Helvetica,sans-Serif" font-size="10.00">AC_PosControl::get</text>
<text text-anchor="middle" x="598" y="-157" font-family="Helvetica,sans-Serif" font-size="10.00">_max_speed_xy</text>
</a>
</g>
</g>
<!-- Node239 -->
<g id="node2" class="node"><title>Node239</title>
<g id="a_node2"><a xlink:href="classAC__WPNav.html#aa1a3da70925cc9327222d2923807ec21" target="_top" xlink:title="advance_spline_target_along_track &#45; move target location along track from origin to destination">
<polygon fill="white" stroke="black" points="197.801,-270 197.801,-302 342.199,-302 342.199,-270 197.801,-270"/>
<text text-anchor="start" x="205.801" y="-288" font-family="Helvetica,sans-Serif" font-size="10.00">AC_WPNav::advance_spline</text>
<text text-anchor="middle" x="270" y="-276" font-family="Helvetica,sans-Serif" font-size="10.00">_target_along_track</text>
</a>
</g>
</g>
<!-- Node238&#45;&gt;Node239 -->
<g id="edge1" class="edge"><title>Node238&#45;&gt;Node239</title>
<path fill="none" stroke="midnightblue" d="M582.962,-191.861C568.153,-215.447 542.472,-249.642 510,-266 458.125,-292.133 391.817,-295.724 342.21,-293.58"/>
<polygon fill="midnightblue" stroke="midnightblue" points="586.084,-193.462 588.275,-183.096 580.098,-189.833 586.084,-193.462"/>
</g>
<!-- Node241 -->
<g id="node4" class="node"><title>Node241</title>
<g id="a_node4"><a xlink:href="classAC__WPNav.html#a603ec5c1a7654ccd9a227565cdbee275" target="_top" xlink:title="advance_wp_target_along_track &#45; move target location along track from origin to destination">
<polygon fill="white" stroke="black" points="378.473,-225 378.473,-257 509.527,-257 509.527,-225 378.473,-225"/>
<text text-anchor="start" x="386.473" y="-243" font-family="Helvetica,sans-Serif" font-size="10.00">AC_WPNav::advance_wp</text>
<text text-anchor="middle" x="444" y="-231" font-family="Helvetica,sans-Serif" font-size="10.00">_target_along_track</text>
</a>
</g>
</g>
<!-- Node238&#45;&gt;Node241 -->
<g id="edge3" class="edge"><title>Node238&#45;&gt;Node241</title>
<path fill="none" stroke="midnightblue" d="M561.264,-188.021C545.739,-196.81 527.203,-206.852 510,-215 502.75,-218.434 494.919,-221.825 487.286,-224.968"/>
<polygon fill="midnightblue" stroke="midnightblue" points="563.078,-191.016 570.023,-183.015 559.604,-184.938 563.078,-191.016"/>
</g>
<!-- Node243 -->
<g id="node6" class="node"><title>Node243</title>
<g id="a_node6"><a xlink:href="classAC__Circle.html#a158b85e4c80f553ccce4250565a3b23f" target="_top" xlink:title=" ">
<polygon fill="white" stroke="black" points="378.48,-90 378.48,-110 509.52,-110 509.52,-90 378.48,-90"/>
<text text-anchor="middle" x="444" y="-96" font-family="Helvetica,sans-Serif" font-size="10.00">AC_Circle::calc_velocities</text>
</a>
</g>
</g>
<!-- Node238&#45;&gt;Node243 -->
<g id="edge5" class="edge"><title>Node238&#45;&gt;Node243</title>
<path fill="none" stroke="midnightblue" d="M551.156,-146.792C523.651,-134.669 489.858,-119.773 467.895,-110.092"/>
<polygon fill="midnightblue" stroke="midnightblue" points="550.03,-150.121 560.592,-150.952 552.853,-143.716 550.03,-150.121"/>
</g>
<!-- Node246 -->
<g id="node9" class="node"><title>Node246</title>
<g id="a_node9"><a xlink:href="classAC__WPNav.html#a2036d6ad0d72ba04c425a0a68553209b" target="_top" xlink:title="calculate_wp_leash_length &#45; calculates track speed, acceleration and leash lengths for waypoint contr...">
<polygon fill="white" stroke="black" points="386.815,-174 386.815,-206 501.185,-206 501.185,-174 386.815,-174"/>
<text text-anchor="start" x="394.815" y="-192" font-family="Helvetica,sans-Serif" font-size="10.00">AC_WPNav::calculate</text>
<text text-anchor="middle" x="444" y="-180" font-family="Helvetica,sans-Serif" font-size="10.00">_wp_leash_length</text>
</a>
</g>
</g>
<!-- Node238&#45;&gt;Node246 -->
<g id="edge8" class="edge"><title>Node238&#45;&gt;Node246</title>
<path fill="none" stroke="midnightblue" d="M535.366,-176.326C524.123,-178.027 512.444,-179.795 501.363,-181.471"/>
<polygon fill="midnightblue" stroke="midnightblue" points="536.176,-179.744 545.54,-174.787 535.129,-172.822 536.176,-179.744"/>
</g>
<!-- Node250 -->
<g id="node13" class="node"><title>Node250</title>
<g id="a_node13"><a xlink:href="classAC__WPNav.html#a0e91b64e0b97a76cbe20478ac438ab1b" target="_top" xlink:title=" ">
<polygon fill="white" stroke="black" points="382.902,-20 382.902,-52 505.098,-52 505.098,-20 382.902,-20"/>
<text text-anchor="start" x="390.902" y="-38" font-family="Helvetica,sans-Serif" font-size="10.00">AC_WPNav::set_spline</text>
<text text-anchor="middle" x="444" y="-26" font-family="Helvetica,sans-Serif" font-size="10.00">_origin_and_destination</text>
</a>
</g>
</g>
<!-- Node238&#45;&gt;Node250 -->
<g id="edge14" class="edge"><title>Node238&#45;&gt;Node250</title>
<path fill="none" stroke="midnightblue" d="M575.217,-142.842C558.265,-124.648 533.711,-99.5785 510,-80 497.811,-69.9351 483.322,-59.9574 471.121,-52.0543"/>
<polygon fill="midnightblue" stroke="midnightblue" points="573.087,-145.696 582.44,-150.673 578.233,-140.95 573.087,-145.696"/>
</g>
<!-- Node247 -->
<g id="node10" class="node"><title>Node247</title>
<g id="a_node10"><a xlink:href="classAC__WPNav.html#aa218844a5ba6f88bf67ae4a8f188f962" target="_top" xlink:title=" ">
<polygon fill="white" stroke="black" points="201.697,-129 201.697,-161 338.303,-161 338.303,-129 201.697,-129"/>
<text text-anchor="start" x="209.697" y="-147" font-family="Helvetica,sans-Serif" font-size="10.00">AC_WPNav::set_wp_origin</text>
<text text-anchor="middle" x="270" y="-135" font-family="Helvetica,sans-Serif" font-size="10.00">_and_destination</text>
</a>
</g>
</g>
<!-- Node238&#45;&gt;Node247 -->
<g id="edge16" class="edge"><title>Node238&#45;&gt;Node247</title>
<path fill="none" stroke="midnightblue" d="M535.534,-162.852C479.336,-159.06 396.38,-153.461 338.393,-149.548"/>
<polygon fill="midnightblue" stroke="midnightblue" points="535.491,-166.357 545.704,-163.538 535.962,-159.373 535.491,-166.357"/>
</g>
<!-- Node240 -->
<g id="node3" class="node"><title>Node240</title>
<g id="a_node3"><a xlink:href="classAC__WPNav.html#acc138e7bc6435087ab308896358de6a3" target="_top" xlink:title="update_spline &#45; update spline controller">
<polygon fill="white" stroke="black" points="12.4116,-276 12.4116,-296 149.588,-296 149.588,-276 12.4116,-276"/>
<text text-anchor="middle" x="81" y="-282" font-family="Helvetica,sans-Serif" font-size="10.00">AC_WPNav::update_spline</text>
</a>
</g>
</g>
<!-- Node239&#45;&gt;Node240 -->
<g id="edge2" class="edge"><title>Node239&#45;&gt;Node240</title>
<path fill="none" stroke="midnightblue" d="M187.675,-286C174.983,-286 161.986,-286 149.642,-286"/>
<polygon fill="midnightblue" stroke="midnightblue" points="187.77,-289.5 197.77,-286 187.77,-282.5 187.77,-289.5"/>
</g>
<!-- Node242 -->
<g id="node5" class="node"><title>Node242</title>
<g id="a_node5"><a xlink:href="classAC__WPNav.html#a7dc4785fbce8364d7eb3d8e2d0c1b987" target="_top" xlink:title="update_wpnav &#45; run the wp controller &#45; should be called at 100hz or higher">
<polygon fill="white" stroke="black" points="11.0225,-208 11.0225,-228 150.978,-228 150.978,-208 11.0225,-208"/>
<text text-anchor="middle" x="81" y="-214" font-family="Helvetica,sans-Serif" font-size="10.00">AC_WPNav::update_wpnav</text>
</a>
</g>
</g>
<!-- Node241&#45;&gt;Node242 -->
<g id="edge4" class="edge"><title>Node241&#45;&gt;Node242</title>
<path fill="none" stroke="midnightblue" d="M368.461,-236.251C304.636,-232.185 213.447,-226.375 151.209,-222.409"/>
<polygon fill="midnightblue" stroke="midnightblue" points="368.258,-239.745 378.46,-236.888 368.703,-232.759 368.258,-239.745"/>
</g>
<!-- Node244 -->
<g id="node7" class="node"><title>Node244</title>
<g id="a_node7"><a xlink:href="classAC__Circle.html#aeecf8efd6d546820ee831e749935df8b" target="_top" xlink:title=" ">
<polygon fill="white" stroke="black" points="230.325,-51 230.325,-71 309.675,-71 309.675,-51 230.325,-51"/>
<text text-anchor="middle" x="270" y="-57" font-family="Helvetica,sans-Serif" font-size="10.00">AC_Circle::init</text>
</a>
</g>
</g>
<!-- Node243&#45;&gt;Node244 -->
<g id="edge6" class="edge"><title>Node243&#45;&gt;Node244</title>
<path fill="none" stroke="midnightblue" d="M388.765,-87.7025C363.157,-81.896 333.177,-75.0983 309.875,-69.8147"/>
<polygon fill="midnightblue" stroke="midnightblue" points="388.179,-91.1585 398.706,-89.9565 389.727,-84.3318 388.179,-91.1585"/>
</g>
<!-- Node245 -->
<g id="node8" class="node"><title>Node245</title>
<g id="a_node8"><a xlink:href="classAC__Circle.html#a7a8197f509233c0c0cf7a7a4de3999df" target="_top" xlink:title="set_circle_rate &#45; set circle rate in degrees per second">
<polygon fill="white" stroke="black" points="218.65,-90 218.65,-110 321.35,-110 321.35,-90 218.65,-90"/>
<text text-anchor="middle" x="270" y="-96" font-family="Helvetica,sans-Serif" font-size="10.00">AC_Circle::set_rate</text>
</a>
</g>
</g>
<!-- Node243&#45;&gt;Node245 -->
<g id="edge7" class="edge"><title>Node243&#45;&gt;Node245</title>
<path fill="none" stroke="midnightblue" d="M368.17,-100C352.358,-100 336.034,-100 321.384,-100"/>
<polygon fill="midnightblue" stroke="midnightblue" points="368.464,-103.5 378.464,-100 368.464,-96.5001 368.464,-103.5"/>
</g>
<!-- Node246&#45;&gt;Node247 -->
<g id="edge9" class="edge"><title>Node246&#45;&gt;Node247</title>
<path fill="none" stroke="midnightblue" d="M376.698,-172.653C362.06,-168.824 346.618,-164.784 332.193,-161.01"/>
<polygon fill="midnightblue" stroke="midnightblue" points="376.12,-176.12 386.681,-175.265 377.892,-169.348 376.12,-176.12"/>
</g>
<!-- Node249 -->
<g id="node12" class="node"><title>Node249</title>
<g id="a_node12"><a xlink:href="classAC__WPNav.html#a508f2bfaf76856a1a6e137cb697fe315" target="_top" xlink:title=" ">
<polygon fill="white" stroke="black" points="210.315,-180 210.315,-212 329.685,-212 329.685,-180 210.315,-180"/>
<text text-anchor="start" x="218.315" y="-198" font-family="Helvetica,sans-Serif" font-size="10.00">AC_WPNav::check_wp</text>
<text text-anchor="middle" x="270" y="-186" font-family="Helvetica,sans-Serif" font-size="10.00">_leash_length</text>
</a>
</g>
</g>
<!-- Node246&#45;&gt;Node249 -->
<g id="edge11" class="edge"><title>Node246&#45;&gt;Node249</title>
<path fill="none" stroke="midnightblue" d="M376.684,-192.313C361.24,-192.852 344.902,-193.422 329.809,-193.949"/>
<polygon fill="midnightblue" stroke="midnightblue" points="376.809,-195.811 386.681,-191.965 376.565,-188.815 376.809,-195.811"/>
</g>
<!-- Node246&#45;&gt;Node239 -->
<g id="edge13" class="edge"><title>Node246&#45;&gt;Node239</title>
<path fill="none" stroke="midnightblue" d="M388.101,-210.117C384.646,-211.689 381.253,-213.321 378,-215 346.699,-231.157 313.277,-254.415 292.275,-269.855"/>
<polygon fill="midnightblue" stroke="midnightblue" points="389.558,-213.3 397.334,-206.103 386.767,-206.88 389.558,-213.3"/>
</g>
<!-- Node248 -->
<g id="node11" class="node"><title>Node248</title>
<g id="a_node11"><a xlink:href="classAC__WPNav.html#a38519fcac3a24cf64ec7c37e90fc3e13" target="_top" xlink:title=" ">
<polygon fill="white" stroke="black" points="0.741699,-135 0.741699,-155 161.258,-155 161.258,-135 0.741699,-135"/>
<text text-anchor="middle" x="81" y="-141" font-family="Helvetica,sans-Serif" font-size="10.00">AC_WPNav::set_wp_destination</text>
</a>
</g>
</g>
<!-- Node247&#45;&gt;Node248 -->
<g id="edge10" class="edge"><title>Node247&#45;&gt;Node248</title>
<path fill="none" stroke="midnightblue" d="M191.33,-145C181.479,-145 171.387,-145 161.508,-145"/>
<polygon fill="midnightblue" stroke="midnightblue" points="191.489,-148.5 201.489,-145 191.489,-141.5 191.489,-148.5"/>
</g>
<!-- Node249&#45;&gt;Node242 -->
<g id="edge12" class="edge"><title>Node249&#45;&gt;Node242</title>
<path fill="none" stroke="midnightblue" d="M199.802,-204.141C183.894,-206.012 166.978,-208.003 151.076,-209.873"/>
<polygon fill="midnightblue" stroke="midnightblue" points="200.566,-207.575 210.089,-202.931 199.748,-200.623 200.566,-207.575"/>
</g>
<!-- Node251 -->
<g id="node14" class="node"><title>Node251</title>
<g id="a_node14"><a xlink:href="classAC__WPNav.html#a8caabd95cf51512456cd8d81f38dbff9" target="_top" xlink:title=" ">
<polygon fill="white" stroke="black" points="210.035,-0 210.035,-32 329.965,-32 329.965,-0 210.035,-0"/>
<text text-anchor="start" x="218.035" y="-18" font-family="Helvetica,sans-Serif" font-size="10.00">AC_WPNav::set_spline</text>
<text text-anchor="middle" x="270" y="-6" font-family="Helvetica,sans-Serif" font-size="10.00">_destination</text>
</a>
</g>
</g>
<!-- Node250&#45;&gt;Node251 -->
<g id="edge15" class="edge"><title>Node250&#45;&gt;Node251</title>
<path fill="none" stroke="midnightblue" d="M372.704,-27.8261C358.608,-26.187 343.929,-24.4802 330.253,-22.8899"/>
<polygon fill="midnightblue" stroke="midnightblue" points="372.505,-31.3265 382.843,-29.005 373.314,-24.3733 372.505,-31.3265"/>
</g>
</g>
</svg>
        <g id="navigator" transform="translate(0 0)" fill="#404254">
                <rect fill="#f2f5e9" fill-opacity="0.5" stroke="#606060" stroke-width=".5" x="0" y="0" width="60" height="60"/>
                <use id="zoomplus" xlink:href="#zoomPlus" x="17" y="9" onmousedown="handleZoom(evt,'in')"/>
                <use id="zoomminus" xlink:href="#zoomMin" x="42" y="9" onmousedown="handleZoom(evt,'out')"/>
                <use id="reset" xlink:href="#resetDef" x="30" y="36" onmousedown="handleReset()"/>
                <g id="arrowUp" xlink:href="#dirArrow" transform="translate(30 24)" onmousedown="handlePan(0,-1)">
                  <use xlink:href="#rim" fill="#404040">
                        <set attributeName="fill" to="#808080" begin="arrowUp.mouseover" end="arrowUp.mouseout"/>
                  </use>
                  <path fill="none" stroke="white" stroke-width="1.5" d="M0,-3.0v7 M-2.5,-0.5L0,-3.0L2.5,-0.5"/>
                </g>
                <g id="arrowRight" xlink:href="#dirArrow" transform="rotate(90) translate(36 -43)" onmousedown="handlePan(1,0)">
                  <use xlink:href="#rim" fill="#404040">
                        <set attributeName="fill" to="#808080" begin="arrowRight.mouseover" end="arrowRight.mouseout"/>
                  </use>
                  <path fill="none" stroke="white" stroke-width="1.5" d="M0,-3.0v7 M-2.5,-0.5L0,-3.0L2.5,-0.5"/>
                </g>
                <g id="arrowDown" xlink:href="#dirArrow" transform="rotate(180) translate(-30 -48)" onmousedown="handlePan(0,1)">
                  <use xlink:href="#rim" fill="#404040">
                        <set attributeName="fill" to="#808080" begin="arrowDown.mouseover" end="arrowDown.mouseout"/>
                  </use>
                  <path fill="none" stroke="white" stroke-width="1.5" d="M0,-3.0v7 M-2.5,-0.5L0,-3.0L2.5,-0.5"/>
                </g>
                <g id="arrowLeft" xlink:href="#dirArrow" transform="rotate(270) translate(-36 17)" onmousedown="handlePan(-1,0)">
                  <use xlink:href="#rim" fill="#404040">
                        <set attributeName="fill" to="#808080" begin="arrowLeft.mouseover" end="arrowLeft.mouseout"/>
                  </use>
                  <path fill="none" stroke="white" stroke-width="1.5" d="M0,-3.0v7 M-2.5,-0.5L0,-3.0L2.5,-0.5"/>
                </g>
        </g>
        <svg viewBox="0 0 15 15" width="100%" height="30px" preserveAspectRatio="xMaxYMin meet">
         <g id="arrow_out" transform="scale(0.3 0.3)">
          <a xlink:href="classAC__PosControl_a28b7014e97398ba553beb4b1fbf03134_icgraph_org.svg" target="_base">
           <rect id="button" ry="5" rx="5" y="6" x="6" height="38" width="38"
                fill="#f2f5e9" fill-opacity="0.5" stroke="#606060" stroke-width="1.0"/>
           <path id="arrow"
             d="M 11.500037,31.436501 C 11.940474,20.09759 22.043105,11.32322 32.158766,21.979434 L 37.068811,17.246167 C 37.068811,17.246167 37.088388,32 37.088388,32 L 22.160133,31.978069 C 22.160133,31.978069 26.997745,27.140456 26.997745,27.140456 C 18.528582,18.264221 13.291696,25.230495 11.500037,31.436501 z"
             style="fill:#404040;"/>
          </a>
         </g>
        </svg>
</svg>
