<?xml version="1.0" encoding="UTF-8" standalone="no"?>
<!DOCTYPE svg PUBLIC "-//W3C//DTD SVG 1.1//EN"
 "http://www.w3.org/Graphics/SVG/1.1/DTD/svg11.dtd">
<!-- Generated by graphviz version 2.30.1 (20130221.2233)
 -->
<!-- Title: AP_InertialSensor::get_auxiliary_bus Pages: 1 -->
<svg width="272pt" height="115pt"
 viewBox="0.00 0.00 272.00 115.00" xmlns="http://www.w3.org/2000/svg" xmlns:xlink="http://www.w3.org/1999/xlink">
<g id="graph0" class="graph" transform="scale(1 1) rotate(0) translate(4 111)">
<title>AP_InertialSensor::get_auxiliary_bus</title>
<polygon fill="white" stroke="white" points="-4,5 -4,-111 269,-111 269,5 -4,5"/>
<!-- Node2322 -->
<g id="node1" class="node"><title>Node2322</title>
<g id="a_node1"><a xlink:title=" ">
<polygon fill="#bfbfbf" stroke="black" points="161.921,-37 161.921,-69 264.079,-69 264.079,-37 161.921,-37"/>
<text text-anchor="start" x="169.921" y="-55" font-family="Helvetica,sans-Serif" font-size="10.00">AP_InertialSensor::</text>
<text text-anchor="middle" x="213" y="-43" font-family="Helvetica,sans-Serif" font-size="10.00">get_auxiliary_bus</text>
</a>
</g>
</g>
<!-- Node2323 -->
<g id="node2" class="node"><title>Node2323</title>
<g id="a_node2"><a xlink:href="classAP__AK09916__BusDriver__Auxiliary.html#aa68baaa5a4cc497f74d548daca9acaad" target="_top" xlink:title=" ">
<polygon fill="white" stroke="black" points="0.246582,-63 0.246582,-107 125.753,-107 125.753,-63 0.246582,-63"/>
<text text-anchor="start" x="8.24658" y="-93" font-family="Helvetica,sans-Serif" font-size="10.00">AP_AK09916_BusDriver</text>
<text text-anchor="start" x="8.24658" y="-81" font-family="Helvetica,sans-Serif" font-size="10.00">_Auxiliary::AP_AK09916</text>
<text text-anchor="middle" x="63" y="-69" font-family="Helvetica,sans-Serif" font-size="10.00">_BusDriver_Auxiliary</text>
</a>
</g>
</g>
<!-- Node2322&#45;&gt;Node2323 -->
<g id="edge1" class="edge"><title>Node2322&#45;&gt;Node2323</title>
<path fill="none" stroke="midnightblue" d="M151.952,-65.9835C143.355,-67.8421 134.498,-69.7571 125.868,-71.6232"/>
<polygon fill="midnightblue" stroke="midnightblue" points="152.859,-69.3681 161.894,-63.8337 151.38,-62.5262 152.859,-69.3681"/>
</g>
<!-- Node2324 -->
<g id="node3" class="node"><title>Node2324</title>
<g id="a_node3"><a xlink:href="classAP__AK8963__BusDriver__Auxiliary.html#ae2a9c85ebb96b5f2a230918d7bb1e494" target="_top" xlink:title=" ">
<polygon fill="white" stroke="black" points="3.02734,-0 3.02734,-44 122.973,-44 122.973,-0 3.02734,-0"/>
<text text-anchor="start" x="11.0273" y="-30" font-family="Helvetica,sans-Serif" font-size="10.00">AP_AK8963_BusDriver</text>
<text text-anchor="start" x="11.0273" y="-18" font-family="Helvetica,sans-Serif" font-size="10.00">_Auxiliary::AP_AK8963</text>
<text text-anchor="middle" x="63" y="-6" font-family="Helvetica,sans-Serif" font-size="10.00">_BusDriver_Auxiliary</text>
</a>
</g>
</g>
<!-- Node2322&#45;&gt;Node2324 -->
<g id="edge2" class="edge"><title>Node2322&#45;&gt;Node2324</title>
<path fill="none" stroke="midnightblue" d="M152.055,-40.444C142.473,-38.437 132.565,-36.3616 123.005,-34.3592"/>
<polygon fill="midnightblue" stroke="midnightblue" points="151.389,-43.8803 161.894,-42.5048 152.824,-37.029 151.389,-43.8803"/>
</g>
<!-- Node2322&#45;&gt;Node2322 -->
<g id="edge3" class="edge"><title>Node2322&#45;&gt;Node2322</title>
<path fill="none" stroke="midnightblue" d="M239.398,-79.1902C235.903,-83.7938 227.104,-87 213,-87 189.855,-87 180.995,-78.3658 186.42,-69.0908"/>
<polygon fill="midnightblue" stroke="midnightblue" points="242.899,-79.1523 239.58,-69.0908 235.9,-79.026 242.899,-79.1523"/>
</g>
</g>
</svg>
