<?xml version="1.0" encoding="UTF-8" standalone="no"?>
<!DOCTYPE svg PUBLIC "-//W3C//DTD SVG 1.1//EN"
 "http://www.w3.org/Graphics/SVG/1.1/DTD/svg11.dtd">
<!-- Generated by graphviz version 2.30.1 (20130221.2233)
 -->
<!-- Title: Matrix3::normalize Pages: 1 -->
<!--zoomable 518 -->
<svg id="main" version="1.1" xmlns="http://www.w3.org/2000/svg" xmlns:xlink="http://www.w3.org/1999/xlink" xml:space="preserve" onload="init(evt)">
<style type="text/css"><![CDATA[
.edge:hover path { stroke: red; }
.edge:hover polygon { stroke: red; fill: red; }
]]></style>
<script type="text/javascript"><![CDATA[
var edges = document.getElementsByTagName('g');
if (edges && edges.length) {
  for (var i=0;i<edges.length;i++) {
    if (edges[i].id.substr(0,4)=='edge') {
      edges[i].setAttribute('class','edge');
    }
  }
}
]]></script>
        <defs>
                <circle id="rim" cx="0" cy="0" r="7"/>
                <circle id="rim2" cx="0" cy="0" r="3.5"/>
                <g id="zoomPlus">
                        <use xlink:href="#rim" fill="#404040">
                                <set attributeName="fill" to="#808080" begin="zoomplus.mouseover" end="zoomplus.mouseout"/>
                        </use>
                        <path d="M-4,0h8M0,-4v8" fill="none" stroke="white" stroke-width="1.5" pointer-events="none"/>
                </g>
                <g id="zoomMin">
                        <use xlink:href="#rim" fill="#404040">
                                <set attributeName="fill" to="#808080" begin="zoomminus.mouseover" end="zoomminus.mouseout"/>
                        </use>
                        <path d="M-4,0h8" fill="none" stroke="white" stroke-width="1.5" pointer-events="none"/>
                </g>
                <g id="dirArrow">
                        <path fill="none" stroke="white" stroke-width="1.5" d="M0,-3.0v7 M-2.5,-0.5L0,-3.0L2.5,-0.5"/>
                </g>
               <g id="resetDef">
                       <use xlink:href="#rim2" fill="#404040">
                               <set attributeName="fill" to="#808080" begin="reset.mouseover" end="reset.mouseout"/>
                       </use>
               </g>
        </defs>

<script type="text/javascript">
var viewWidth = 1036;
var viewHeight = 518;
var sectionId = 'dynsection-13';
</script>
<script xlink:href="svgpan.js"/>
<svg id="graph" class="graph">
<g id="viewport">
<title>Matrix3::normalize</title>
<polygon fill="white" stroke="white" points="-4,5 -4,-514 1033,-514 1033,5 -4,5"/>
<!-- Node268 -->
<g id="node1" class="node"><title>Node268</title>
<g id="a_node1"><a xlink:title=" ">
<polygon fill="#bfbfbf" stroke="black" points="930.155,-252 930.155,-272 1027.84,-272 1027.84,-252 930.155,-252"/>
<text text-anchor="middle" x="979" y="-258" font-family="Helvetica,sans-Serif" font-size="10.00">Matrix3::normalize</text>
</a>
</g>
</g>
<!-- Node269 -->
<g id="node2" class="node"><title>Node269</title>
<g id="a_node2"><a xlink:href="classSITL_1_1Aircraft.html#a7f41161633fd46bbcd75fdb532051d73" target="_top" xlink:title=" ">
<polygon fill="white" stroke="black" points="764.311,-400 764.311,-432 893.689,-432 893.689,-400 764.311,-400"/>
<text text-anchor="start" x="772.311" y="-418" font-family="Helvetica,sans-Serif" font-size="10.00">SITL::Aircraft::extrapolate</text>
<text text-anchor="middle" x="829" y="-406" font-family="Helvetica,sans-Serif" font-size="10.00">_sensors</text>
</a>
</g>
</g>
<!-- Node268&#45;&gt;Node269 -->
<g id="edge1" class="edge"><title>Node268&#45;&gt;Node269</title>
<path fill="none" stroke="midnightblue" d="M963.637,-279.952C947.413,-299.896 919.889,-332.748 894,-359 879.687,-373.514 862.364,-388.818 849.352,-399.909"/>
<polygon fill="midnightblue" stroke="midnightblue" points="966.493,-281.986 970.055,-272.008 961.048,-277.587 966.493,-281.986"/>
</g>
<!-- Node276 -->
<g id="node9" class="node"><title>Node276</title>
<g id="a_node9"><a xlink:href="classSITL_1_1Gimbal.html#a54f32945de787791f9c234ec0976ee6d" target="_top" xlink:title=" ">
<polygon fill="white" stroke="black" points="773.754,-330 773.754,-350 884.246,-350 884.246,-330 773.754,-330"/>
<text text-anchor="middle" x="829" y="-336" font-family="Helvetica,sans-Serif" font-size="10.00">SITL::Gimbal::update</text>
</a>
</g>
</g>
<!-- Node268&#45;&gt;Node276 -->
<g id="edge8" class="edge"><title>Node268&#45;&gt;Node276</title>
<path fill="none" stroke="midnightblue" d="M957.673,-278.651C941.298,-291.399 917.253,-308.664 894,-320 886.047,-323.877 877.176,-327.214 868.632,-329.991"/>
<polygon fill="midnightblue" stroke="midnightblue" points="960.27,-281.059 965.927,-272.1 955.918,-275.576 960.27,-281.059"/>
</g>
<!-- Node282 -->
<g id="node15" class="node"><title>Node282</title>
<g id="a_node15"><a xlink:href="classSITL_1_1BalanceBot.html#a067a6f3a416edcfedc3bcd5d6349eb88" target="_top" xlink:title=" ">
<polygon fill="white" stroke="black" points="764.018,-291 764.018,-311 893.982,-311 893.982,-291 764.018,-291"/>
<text text-anchor="middle" x="829" y="-297" font-family="Helvetica,sans-Serif" font-size="10.00">SITL::BalanceBot::update</text>
</a>
</g>
</g>
<!-- Node268&#45;&gt;Node282 -->
<g id="edge14" class="edge"><title>Node268&#45;&gt;Node282</title>
<path fill="none" stroke="midnightblue" d="M929.986,-274.652C909.892,-279.947 886.869,-286.014 867.985,-290.991"/>
<polygon fill="midnightblue" stroke="midnightblue" points="931.108,-277.976 939.886,-272.043 929.325,-271.207 931.108,-277.976"/>
</g>
<!-- Node283 -->
<g id="node16" class="node"><title>Node283</title>
<g id="a_node16"><a xlink:href="classSITL_1_1Tracker.html#aa92c414a9bbdfff9a34501a54cc11a25" target="_top" xlink:title=" ">
<polygon fill="white" stroke="black" points="772.829,-252 772.829,-272 885.171,-272 885.171,-252 772.829,-252"/>
<text text-anchor="middle" x="829" y="-258" font-family="Helvetica,sans-Serif" font-size="10.00">SITL::Tracker::update</text>
</a>
</g>
</g>
<!-- Node268&#45;&gt;Node283 -->
<g id="edge15" class="edge"><title>Node268&#45;&gt;Node283</title>
<path fill="none" stroke="midnightblue" d="M919.709,-262C908.365,-262 896.506,-262 885.263,-262"/>
<polygon fill="midnightblue" stroke="midnightblue" points="919.949,-265.5 929.949,-262 919.949,-258.5 919.949,-265.5"/>
</g>
<!-- Node284 -->
<g id="node17" class="node"><title>Node284</title>
<g id="a_node17"><a xlink:href="classSITL_1_1SimRover.html#aee0311ff7a61d71cc2ecd4a148636440" target="_top" xlink:title=" ">
<polygon fill="white" stroke="black" points="767.643,-213 767.643,-233 890.357,-233 890.357,-213 767.643,-213"/>
<text text-anchor="middle" x="829" y="-219" font-family="Helvetica,sans-Serif" font-size="10.00">SITL::SimRover::update</text>
</a>
</g>
</g>
<!-- Node268&#45;&gt;Node284 -->
<g id="edge16" class="edge"><title>Node268&#45;&gt;Node284</title>
<path fill="none" stroke="midnightblue" d="M929.986,-249.348C909.892,-244.053 886.869,-237.986 867.985,-233.009"/>
<polygon fill="midnightblue" stroke="midnightblue" points="929.325,-252.793 939.886,-251.957 931.108,-246.024 929.325,-252.793"/>
</g>
<!-- Node285 -->
<g id="node18" class="node"><title>Node285</title>
<g id="a_node18"><a xlink:href="classSITL_1_1Sailboat.html#aa759ede693f627efa2de92d533961072" target="_top" xlink:title=" ">
<polygon fill="white" stroke="black" points="771.522,-174 771.522,-194 886.478,-194 886.478,-174 771.522,-174"/>
<text text-anchor="middle" x="829" y="-180" font-family="Helvetica,sans-Serif" font-size="10.00">SITL::Sailboat::update</text>
</a>
</g>
</g>
<!-- Node268&#45;&gt;Node285 -->
<g id="edge17" class="edge"><title>Node268&#45;&gt;Node285</title>
<path fill="none" stroke="midnightblue" d="M958.498,-245.535C942.166,-232.45 917.772,-214.496 894,-203 886.8,-199.518 878.832,-196.533 871.033,-194.03"/>
<polygon fill="midnightblue" stroke="midnightblue" points="956.3,-248.258 966.258,-251.873 960.728,-242.836 956.3,-248.258"/>
</g>
<!-- Node286 -->
<g id="node19" class="node"><title>Node286</title>
<g id="a_node19"><a xlink:href="classSITL_1_1Aircraft.html#a53c408b7b32bd7624881437630b7b03d" target="_top" xlink:title=" ">
<polygon fill="white" stroke="black" points="773.756,-123 773.756,-155 884.244,-155 884.244,-123 773.756,-123"/>
<text text-anchor="start" x="781.756" y="-141" font-family="Helvetica,sans-Serif" font-size="10.00">SITL::Aircraft::update</text>
<text text-anchor="middle" x="829" y="-129" font-family="Helvetica,sans-Serif" font-size="10.00">_dynamics</text>
</a>
</g>
</g>
<!-- Node268&#45;&gt;Node286 -->
<g id="edge18" class="edge"><title>Node268&#45;&gt;Node286</title>
<path fill="none" stroke="midnightblue" d="M966.187,-243.33C951.595,-221.605 924.88,-185.919 894,-164 889.331,-160.686 884.163,-157.735 878.847,-155.129"/>
<polygon fill="midnightblue" stroke="midnightblue" points="963.437,-245.519 971.843,-251.968 969.293,-241.684 963.437,-245.519"/>
</g>
<!-- Node270 -->
<g id="node3" class="node"><title>Node270</title>
<g id="a_node3"><a xlink:href="classSITL_1_1FlightAxis.html#a1b7209da1f1098805bda30d19481b5d6" target="_top" xlink:title=" ">
<polygon fill="white" stroke="black" points="597.919,-490 597.919,-510 720.081,-510 720.081,-490 597.919,-490"/>
<text text-anchor="middle" x="659" y="-496" font-family="Helvetica,sans-Serif" font-size="10.00">SITL::FlightAxis::update</text>
</a>
</g>
</g>
<!-- Node269&#45;&gt;Node270 -->
<g id="edge2" class="edge"><title>Node269&#45;&gt;Node270</title>
<path fill="none" stroke="midnightblue" d="M798.441,-438.084C779.176,-451.661 753.048,-468.583 728,-480 719.49,-483.879 710.04,-487.217 700.957,-489.995"/>
<polygon fill="midnightblue" stroke="midnightblue" points="800.687,-440.781 806.781,-432.114 796.612,-435.089 800.687,-440.781"/>
</g>
<!-- Node271 -->
<g id="node4" class="node"><title>Node271</title>
<g id="a_node4"><a xlink:href="classSITL_1_1Morse.html#a381539ed75b618b9bbb385b6b25404a2" target="_top" xlink:title=" ">
<polygon fill="white" stroke="black" points="605.7,-451 605.7,-471 712.3,-471 712.3,-451 605.7,-451"/>
<text text-anchor="middle" x="659" y="-457" font-family="Helvetica,sans-Serif" font-size="10.00">SITL::Morse::update</text>
</a>
</g>
</g>
<!-- Node269&#45;&gt;Node271 -->
<g id="edge3" class="edge"><title>Node269&#45;&gt;Node271</title>
<path fill="none" stroke="midnightblue" d="M758.116,-434.719C737.457,-440.253 715.625,-446.1 697.814,-450.871"/>
<polygon fill="midnightblue" stroke="midnightblue" points="759.069,-438.087 767.823,-432.119 757.258,-431.326 759.069,-438.087"/>
</g>
<!-- Node272 -->
<g id="node5" class="node"><title>Node272</title>
<g id="a_node5"><a xlink:href="classSITL_1_1SilentWings.html#af788d867cf1f31f8ab5e2b56481b03f4" target="_top" xlink:title=" ">
<polygon fill="white" stroke="black" points="608.485,-400 608.485,-432 709.515,-432 709.515,-400 608.485,-400"/>
<text text-anchor="start" x="616.485" y="-418" font-family="Helvetica,sans-Serif" font-size="10.00">SITL::SilentWings::</text>
<text text-anchor="middle" x="659" y="-406" font-family="Helvetica,sans-Serif" font-size="10.00">interim_update</text>
</a>
</g>
</g>
<!-- Node269&#45;&gt;Node272 -->
<g id="edge4" class="edge"><title>Node269&#45;&gt;Node272</title>
<path fill="none" stroke="midnightblue" d="M753.775,-416C738.864,-416 723.537,-416 709.708,-416"/>
<polygon fill="midnightblue" stroke="midnightblue" points="754.007,-419.5 764.007,-416 754.007,-412.5 754.007,-419.5"/>
</g>
<!-- Node274 -->
<g id="node7" class="node"><title>Node274</title>
<g id="a_node7"><a xlink:href="classSITL_1_1XPlane.html#ab30e1d12c7ebc3699a29f3442804a68b" target="_top" xlink:title=" ">
<polygon fill="white" stroke="black" points="590.131,-361 590.131,-381 727.869,-381 727.869,-361 590.131,-361"/>
<text text-anchor="middle" x="659" y="-367" font-family="Helvetica,sans-Serif" font-size="10.00">SITL::XPlane::receive_data</text>
</a>
</g>
</g>
<!-- Node269&#45;&gt;Node274 -->
<g id="edge6" class="edge"><title>Node269&#45;&gt;Node274</title>
<path fill="none" stroke="midnightblue" d="M758.116,-397.281C737.457,-391.747 715.625,-385.9 697.814,-381.129"/>
<polygon fill="midnightblue" stroke="midnightblue" points="757.258,-400.674 767.823,-399.881 759.069,-393.913 757.258,-400.674"/>
</g>
<!-- Node273 -->
<g id="node6" class="node"><title>Node273</title>
<g id="a_node6"><a xlink:href="classSITL_1_1SilentWings.html#af84ce567ecebd0155e2ebdaa38173ffd" target="_top" xlink:title=" ">
<polygon fill="white" stroke="black" points="447.485,-400 447.485,-432 548.515,-432 548.515,-400 447.485,-400"/>
<text text-anchor="start" x="455.485" y="-418" font-family="Helvetica,sans-Serif" font-size="10.00">SITL::SilentWings::</text>
<text text-anchor="middle" x="498" y="-406" font-family="Helvetica,sans-Serif" font-size="10.00">update</text>
</a>
</g>
</g>
<!-- Node272&#45;&gt;Node273 -->
<g id="edge5" class="edge"><title>Node272&#45;&gt;Node273</title>
<path fill="none" stroke="midnightblue" d="M597.693,-416C581.521,-416 564.221,-416 548.695,-416"/>
<polygon fill="midnightblue" stroke="midnightblue" points="598.128,-419.5 608.128,-416 598.128,-412.5 598.128,-419.5"/>
</g>
<!-- Node275 -->
<g id="node8" class="node"><title>Node275</title>
<g id="a_node8"><a xlink:href="classSITL_1_1XPlane.html#aa13273aaac6270460b9de08d86113e99" target="_top" xlink:title=" ">
<polygon fill="white" stroke="black" points="442.468,-361 442.468,-381 553.532,-381 553.532,-361 442.468,-361"/>
<text text-anchor="middle" x="498" y="-367" font-family="Helvetica,sans-Serif" font-size="10.00">SITL::XPlane::update</text>
</a>
</g>
</g>
<!-- Node274&#45;&gt;Node275 -->
<g id="edge7" class="edge"><title>Node274&#45;&gt;Node275</title>
<path fill="none" stroke="midnightblue" d="M580.079,-371C571.165,-371 562.224,-371 553.705,-371"/>
<polygon fill="midnightblue" stroke="midnightblue" points="580.109,-374.5 590.108,-371 580.108,-367.5 580.109,-374.5"/>
</g>
<!-- Node277 -->
<g id="node10" class="node"><title>Node277</title>
<g id="a_node10"><a xlink:href="classHALSITL_1_1SITL__State.html#a141fe78b0702ab2f2ac4cafc221fdb97" target="_top" xlink:title=" ">
<polygon fill="white" stroke="black" points="602.921,-310 602.921,-342 715.079,-342 715.079,-310 602.921,-310"/>
<text text-anchor="start" x="610.921" y="-328" font-family="Helvetica,sans-Serif" font-size="10.00">HALSITL::SITL_State</text>
<text text-anchor="middle" x="659" y="-316" font-family="Helvetica,sans-Serif" font-size="10.00">::_fdm_input_local</text>
</a>
</g>
</g>
<!-- Node276&#45;&gt;Node277 -->
<g id="edge9" class="edge"><title>Node276&#45;&gt;Node277</title>
<path fill="none" stroke="midnightblue" d="M763.194,-334.599C747.328,-333.277 730.498,-331.875 715.134,-330.594"/>
<polygon fill="midnightblue" stroke="midnightblue" points="763.199,-338.112 773.455,-335.455 763.78,-331.136 763.199,-338.112"/>
</g>
<!-- Node278 -->
<g id="node11" class="node"><title>Node278</title>
<g id="a_node11"><a xlink:href="classHALSITL_1_1SITL__State.html#ae31c93a26ca780bb508dded2498e2e93" target="_top" xlink:title=" ">
<polygon fill="white" stroke="black" points="441.921,-310 441.921,-342 554.079,-342 554.079,-310 441.921,-310"/>
<text text-anchor="start" x="449.921" y="-328" font-family="Helvetica,sans-Serif" font-size="10.00">HALSITL::SITL_State</text>
<text text-anchor="middle" x="498" y="-316" font-family="Helvetica,sans-Serif" font-size="10.00">::_fdm_input_step</text>
</a>
</g>
</g>
<!-- Node277&#45;&gt;Node278 -->
<g id="edge10" class="edge"><title>Node277&#45;&gt;Node278</title>
<path fill="none" stroke="midnightblue" d="M592.742,-326C579.988,-326 566.729,-326 554.336,-326"/>
<polygon fill="midnightblue" stroke="midnightblue" points="592.836,-329.5 602.836,-326 592.836,-322.5 592.836,-329.5"/>
</g>
<!-- Node279 -->
<g id="node12" class="node"><title>Node279</title>
<g id="a_node12"><a xlink:href="classHALSITL_1_1SITL__State.html#a3eeaf330efded46259bbf64fc53e6b9f" target="_top" xlink:title=" ">
<polygon fill="white" stroke="black" points="293.921,-310 293.921,-342 406.079,-342 406.079,-310 293.921,-310"/>
<text text-anchor="start" x="301.921" y="-328" font-family="Helvetica,sans-Serif" font-size="10.00">HALSITL::SITL_State</text>
<text text-anchor="middle" x="350" y="-316" font-family="Helvetica,sans-Serif" font-size="10.00">::wait_clock</text>
</a>
</g>
</g>
<!-- Node278&#45;&gt;Node279 -->
<g id="edge11" class="edge"><title>Node278&#45;&gt;Node279</title>
<path fill="none" stroke="midnightblue" d="M431.59,-326C423.135,-326 414.543,-326 406.274,-326"/>
<polygon fill="midnightblue" stroke="midnightblue" points="431.804,-329.5 441.804,-326 431.804,-322.5 431.804,-329.5"/>
</g>
<!-- Node280 -->
<g id="node13" class="node"><title>Node280</title>
<g id="a_node13"><a xlink:href="classHALSITL_1_1Scheduler.html#a332cd2e17889c12f84b469eaf9f24fc8" target="_top" xlink:title=" ">
<polygon fill="white" stroke="black" points="144.643,-310 144.643,-342 257.357,-342 257.357,-310 144.643,-310"/>
<text text-anchor="start" x="152.643" y="-328" font-family="Helvetica,sans-Serif" font-size="10.00">HALSITL::Scheduler</text>
<text text-anchor="middle" x="201" y="-316" font-family="Helvetica,sans-Serif" font-size="10.00">::delay_microseconds</text>
</a>
</g>
</g>
<!-- Node279&#45;&gt;Node280 -->
<g id="edge12" class="edge"><title>Node279&#45;&gt;Node280</title>
<path fill="none" stroke="midnightblue" d="M283.676,-326C274.927,-326 266.022,-326 257.465,-326"/>
<polygon fill="midnightblue" stroke="midnightblue" points="283.844,-329.5 293.844,-326 283.844,-322.5 283.844,-329.5"/>
</g>
<!-- Node281 -->
<g id="node14" class="node"><title>Node281</title>
<g id="a_node14"><a xlink:href="classHALSITL_1_1Scheduler.html#a8b298eda68e2de4c5c082f02dda3abd9" target="_top" xlink:title=" ">
<polygon fill="white" stroke="black" points="0.421387,-310 0.421387,-342 107.579,-342 107.579,-310 0.421387,-310"/>
<text text-anchor="start" x="8.42139" y="-328" font-family="Helvetica,sans-Serif" font-size="10.00">HALSITL::Scheduler</text>
<text text-anchor="middle" x="54" y="-316" font-family="Helvetica,sans-Serif" font-size="10.00">::delay</text>
</a>
</g>
</g>
<!-- Node280&#45;&gt;Node281 -->
<g id="edge13" class="edge"><title>Node280&#45;&gt;Node281</title>
<path fill="none" stroke="midnightblue" d="M134.123,-326C125.33,-326 116.406,-326 107.874,-326"/>
<polygon fill="midnightblue" stroke="midnightblue" points="134.354,-329.5 144.354,-326 134.354,-322.5 134.354,-329.5"/>
</g>
<!-- Node287 -->
<g id="node20" class="node"><title>Node287</title>
<g id="a_node20"><a xlink:href="classSITL_1_1Balloon.html#a9bf961c92a5a7fa4a2a47116e74232c9" target="_top" xlink:title=" ">
<polygon fill="white" stroke="black" points="602.912,-258 602.912,-278 715.088,-278 715.088,-258 602.912,-258"/>
<text text-anchor="middle" x="659" y="-264" font-family="Helvetica,sans-Serif" font-size="10.00">SITL::Balloon::update</text>
</a>
</g>
</g>
<!-- Node286&#45;&gt;Node287 -->
<g id="edge19" class="edge"><title>Node286&#45;&gt;Node287</title>
<path fill="none" stroke="midnightblue" d="M767.438,-160.941C766.247,-161.918 765.098,-162.937 764,-164 734.816,-192.25 758.376,-221.035 728,-248 723.399,-252.085 718.001,-255.337 712.293,-257.925"/>
<polygon fill="midnightblue" stroke="midnightblue" points="769.635,-163.675 775.835,-155.084 765.63,-157.934 769.635,-163.675"/>
</g>
<!-- Node288 -->
<g id="node21" class="node"><title>Node288</title>
<g id="a_node21"><a xlink:href="classSITL_1_1Helicopter.html#a5861ca3716cbd0be3cbfb3d7113ee511" target="_top" xlink:title=" ">
<polygon fill="white" stroke="black" points="597.082,-219 597.082,-239 720.918,-239 720.918,-219 597.082,-219"/>
<text text-anchor="middle" x="659" y="-225" font-family="Helvetica,sans-Serif" font-size="10.00">SITL::Helicopter::update</text>
</a>
</g>
</g>
<!-- Node286&#45;&gt;Node288 -->
<g id="edge20" class="edge"><title>Node286&#45;&gt;Node288</title>
<path fill="none" stroke="midnightblue" d="M769.729,-160.136C767.752,-161.363 765.835,-162.65 764,-164 743.368,-179.177 749.267,-194.728 728,-209 721.971,-213.046 715.11,-216.289 708.119,-218.885"/>
<polygon fill="midnightblue" stroke="midnightblue" points="771.674,-163.059 778.71,-155.139 768.27,-156.943 771.674,-163.059"/>
</g>
<!-- Node289 -->
<g id="node22" class="node"><title>Node289</title>
<g id="a_node22"><a xlink:href="classSITL_1_1MultiCopter.html#a3420ce467f86d484407193d3f6e5447c" target="_top" xlink:title=" ">
<polygon fill="white" stroke="black" points="609.32,-168 609.32,-200 708.68,-200 708.68,-168 609.32,-168"/>
<text text-anchor="start" x="617.32" y="-186" font-family="Helvetica,sans-Serif" font-size="10.00">SITL::MultiCopter::</text>
<text text-anchor="middle" x="659" y="-174" font-family="Helvetica,sans-Serif" font-size="10.00">update</text>
</a>
</g>
</g>
<!-- Node286&#45;&gt;Node289 -->
<g id="edge21" class="edge"><title>Node286&#45;&gt;Node289</title>
<path fill="none" stroke="midnightblue" d="M763.783,-156.201C745.567,-161.08 726.035,-166.312 708.884,-170.906"/>
<polygon fill="midnightblue" stroke="midnightblue" points="764.701,-159.578 773.455,-153.61 762.89,-152.817 764.701,-159.578"/>
</g>
<!-- Node290 -->
<g id="node23" class="node"><title>Node290</title>
<g id="a_node23"><a xlink:href="classSITL_1_1Plane.html#a68de2c1dd6684fe9e83bc087d702a439" target="_top" xlink:title=" ">
<polygon fill="white" stroke="black" points="606.803,-129 606.803,-149 711.197,-149 711.197,-129 606.803,-129"/>
<text text-anchor="middle" x="659" y="-135" font-family="Helvetica,sans-Serif" font-size="10.00">SITL::Plane::update</text>
</a>
</g>
</g>
<!-- Node286&#45;&gt;Node290 -->
<g id="edge22" class="edge"><title>Node286&#45;&gt;Node290</title>
<path fill="none" stroke="midnightblue" d="M762.982,-139C745.889,-139 727.689,-139 711.418,-139"/>
<polygon fill="midnightblue" stroke="midnightblue" points="763.455,-142.5 773.455,-139 763.455,-135.5 763.455,-142.5"/>
</g>
<!-- Node291 -->
<g id="node24" class="node"><title>Node291</title>
<g id="a_node24"><a xlink:href="classSITL_1_1QuadPlane.html#af9068f0de1894f5afc49481c869e3b6c" target="_top" xlink:title=" ">
<polygon fill="white" stroke="black" points="594.572,-90 594.572,-110 723.428,-110 723.428,-90 594.572,-90"/>
<text text-anchor="middle" x="659" y="-96" font-family="Helvetica,sans-Serif" font-size="10.00">SITL::QuadPlane::update</text>
</a>
</g>
</g>
<!-- Node286&#45;&gt;Node291 -->
<g id="edge23" class="edge"><title>Node286&#45;&gt;Node291</title>
<path fill="none" stroke="midnightblue" d="M763.661,-124.064C743.399,-119.361 721.521,-114.282 703.109,-110.007"/>
<polygon fill="midnightblue" stroke="midnightblue" points="762.923,-127.486 773.455,-126.338 764.506,-120.667 762.923,-127.486"/>
</g>
<!-- Node292 -->
<g id="node25" class="node"><title>Node292</title>
<g id="a_node25"><a xlink:href="classSITL_1_1SingleCopter.html#af9dfd509cd00dfbb5d9aaafc5938b327" target="_top" xlink:title=" ">
<polygon fill="white" stroke="black" points="608.756,-39 608.756,-71 709.244,-71 709.244,-39 608.756,-39"/>
<text text-anchor="start" x="616.756" y="-57" font-family="Helvetica,sans-Serif" font-size="10.00">SITL::SingleCopter</text>
<text text-anchor="middle" x="659" y="-45" font-family="Helvetica,sans-Serif" font-size="10.00">::update</text>
</a>
</g>
</g>
<!-- Node286&#45;&gt;Node292 -->
<g id="edge24" class="edge"><title>Node286&#45;&gt;Node292</title>
<path fill="none" stroke="midnightblue" d="M794.992,-117.48C775.886,-105.55 751.115,-90.9575 728,-80 721.408,-76.875 714.312,-73.8828 707.28,-71.1235"/>
<polygon fill="midnightblue" stroke="midnightblue" points="793.289,-120.545 803.613,-122.923 797.026,-114.625 793.289,-120.545"/>
</g>
<!-- Node293 -->
<g id="node26" class="node"><title>Node293</title>
<g id="a_node26"><a xlink:href="classSITL_1_1Submarine.html#a831df237e7890146463c338be1b23106" target="_top" xlink:title=" ">
<polygon fill="white" stroke="black" points="595.412,-0 595.412,-20 722.588,-20 722.588,-0 595.412,-0"/>
<text text-anchor="middle" x="659" y="-6" font-family="Helvetica,sans-Serif" font-size="10.00">SITL::Submarine::update</text>
</a>
</g>
</g>
<!-- Node286&#45;&gt;Node293 -->
<g id="edge25" class="edge"><title>Node286&#45;&gt;Node293</title>
<path fill="none" stroke="midnightblue" d="M812.109,-114.651C794.482,-89.55 763.762,-51.06 728,-29 722.158,-25.3962 715.618,-22.4599 708.964,-20.0714"/>
<polygon fill="midnightblue" stroke="midnightblue" points="809.241,-116.657 817.785,-122.922 815.013,-112.696 809.241,-116.657"/>
</g>
</g>
</svg>
        <g id="navigator" transform="translate(0 0)" fill="#404254">
                <rect fill="#f2f5e9" fill-opacity="0.5" stroke="#606060" stroke-width=".5" x="0" y="0" width="60" height="60"/>
                <use id="zoomplus" xlink:href="#zoomPlus" x="17" y="9" onmousedown="handleZoom(evt,'in')"/>
                <use id="zoomminus" xlink:href="#zoomMin" x="42" y="9" onmousedown="handleZoom(evt,'out')"/>
                <use id="reset" xlink:href="#resetDef" x="30" y="36" onmousedown="handleReset()"/>
                <g id="arrowUp" xlink:href="#dirArrow" transform="translate(30 24)" onmousedown="handlePan(0,-1)">
                  <use xlink:href="#rim" fill="#404040">
                        <set attributeName="fill" to="#808080" begin="arrowUp.mouseover" end="arrowUp.mouseout"/>
                  </use>
                  <path fill="none" stroke="white" stroke-width="1.5" d="M0,-3.0v7 M-2.5,-0.5L0,-3.0L2.5,-0.5"/>
                </g>
                <g id="arrowRight" xlink:href="#dirArrow" transform="rotate(90) translate(36 -43)" onmousedown="handlePan(1,0)">
                  <use xlink:href="#rim" fill="#404040">
                        <set attributeName="fill" to="#808080" begin="arrowRight.mouseover" end="arrowRight.mouseout"/>
                  </use>
                  <path fill="none" stroke="white" stroke-width="1.5" d="M0,-3.0v7 M-2.5,-0.5L0,-3.0L2.5,-0.5"/>
                </g>
                <g id="arrowDown" xlink:href="#dirArrow" transform="rotate(180) translate(-30 -48)" onmousedown="handlePan(0,1)">
                  <use xlink:href="#rim" fill="#404040">
                        <set attributeName="fill" to="#808080" begin="arrowDown.mouseover" end="arrowDown.mouseout"/>
                  </use>
                  <path fill="none" stroke="white" stroke-width="1.5" d="M0,-3.0v7 M-2.5,-0.5L0,-3.0L2.5,-0.5"/>
                </g>
                <g id="arrowLeft" xlink:href="#dirArrow" transform="rotate(270) translate(-36 17)" onmousedown="handlePan(-1,0)">
                  <use xlink:href="#rim" fill="#404040">
                        <set attributeName="fill" to="#808080" begin="arrowLeft.mouseover" end="arrowLeft.mouseout"/>
                  </use>
                  <path fill="none" stroke="white" stroke-width="1.5" d="M0,-3.0v7 M-2.5,-0.5L0,-3.0L2.5,-0.5"/>
                </g>
        </g>
        <svg viewBox="0 0 15 15" width="100%" height="30px" preserveAspectRatio="xMaxYMin meet">
         <g id="arrow_out" transform="scale(0.3 0.3)">
          <a xlink:href="classMatrix3_a79b6de6d1beda5938087dec7fa225702_icgraph_org.svg" target="_base">
           <rect id="button" ry="5" rx="5" y="6" x="6" height="38" width="38"
                fill="#f2f5e9" fill-opacity="0.5" stroke="#606060" stroke-width="1.0"/>
           <path id="arrow"
             d="M 11.500037,31.436501 C 11.940474,20.09759 22.043105,11.32322 32.158766,21.979434 L 37.068811,17.246167 C 37.068811,17.246167 37.088388,32 37.088388,32 L 22.160133,31.978069 C 22.160133,31.978069 26.997745,27.140456 26.997745,27.140456 C 18.528582,18.264221 13.291696,25.230495 11.500037,31.436501 z"
             style="fill:#404040;"/>
          </a>
         </g>
        </svg>
</svg>
