<?xml version="1.0" encoding="UTF-8" standalone="no"?>
<!DOCTYPE svg PUBLIC "-//W3C//DTD SVG 1.1//EN"
 "http://www.w3.org/Graphics/SVG/1.1/DTD/svg11.dtd">
<!-- Generated by graphviz version 2.30.1 (20130221.2233)
 -->
<!-- Title: AP_Gripper::grab Pages: 1 -->
<!--zoomable 701 -->
<svg id="main" version="1.1" xmlns="http://www.w3.org/2000/svg" xmlns:xlink="http://www.w3.org/1999/xlink" xml:space="preserve" onload="init(evt)">
<style type="text/css"><![CDATA[
.edge:hover path { stroke: red; }
.edge:hover polygon { stroke: red; fill: red; }
]]></style>
<script type="text/javascript"><![CDATA[
var edges = document.getElementsByTagName('g');
if (edges && edges.length) {
  for (var i=0;i<edges.length;i++) {
    if (edges[i].id.substr(0,4)=='edge') {
      edges[i].setAttribute('class','edge');
    }
  }
}
]]></script>
        <defs>
                <circle id="rim" cx="0" cy="0" r="7"/>
                <circle id="rim2" cx="0" cy="0" r="3.5"/>
                <g id="zoomPlus">
                        <use xlink:href="#rim" fill="#404040">
                                <set attributeName="fill" to="#808080" begin="zoomplus.mouseover" end="zoomplus.mouseout"/>
                        </use>
                        <path d="M-4,0h8M0,-4v8" fill="none" stroke="white" stroke-width="1.5" pointer-events="none"/>
                </g>
                <g id="zoomMin">
                        <use xlink:href="#rim" fill="#404040">
                                <set attributeName="fill" to="#808080" begin="zoomminus.mouseover" end="zoomminus.mouseout"/>
                        </use>
                        <path d="M-4,0h8" fill="none" stroke="white" stroke-width="1.5" pointer-events="none"/>
                </g>
                <g id="dirArrow">
                        <path fill="none" stroke="white" stroke-width="1.5" d="M0,-3.0v7 M-2.5,-0.5L0,-3.0L2.5,-0.5"/>
                </g>
               <g id="resetDef">
                       <use xlink:href="#rim2" fill="#404040">
                               <set attributeName="fill" to="#808080" begin="reset.mouseover" end="reset.mouseout"/>
                       </use>
               </g>
        </defs>

<script type="text/javascript">
var viewWidth = 1354;
var viewHeight = 701;
var sectionId = 'dynsection-4';
</script>
<script xlink:href="svgpan.js"/>
<svg id="graph" class="graph">
<g id="viewport">
<title>AP_Gripper::grab</title>
<polygon fill="white" stroke="white" points="-4,5 -4,-696.62 1351,-696.62 1351,5 -4,5"/>
<!-- Node56 -->
<g id="node1" class="node"><title>Node56</title>
<g id="a_node1"><a xlink:title=" ">
<polygon fill="#bfbfbf" stroke="black" points="1252.09,-453.62 1252.09,-473.62 1345.91,-473.62 1345.91,-453.62 1252.09,-453.62"/>
<text text-anchor="middle" x="1299" y="-459.62" font-family="Helvetica,sans-Serif" font-size="10.00">AP_Gripper::grab</text>
</a>
</g>
</g>
<!-- Node57 -->
<g id="node2" class="node"><title>Node57</title>
<g id="a_node2"><a xlink:href="classRC__Channel.html#a2303306c9ff3e77a137e98a305261d28" target="_top" xlink:title=" ">
<polygon fill="white" stroke="black" points="1088.19,-515.62 1088.19,-547.62 1199.81,-547.62 1199.81,-515.62 1088.19,-515.62"/>
<text text-anchor="start" x="1096.19" y="-533.62" font-family="Helvetica,sans-Serif" font-size="10.00">RC_Channel::do_aux</text>
<text text-anchor="middle" x="1144" y="-521.62" font-family="Helvetica,sans-Serif" font-size="10.00">_function_gripper</text>
</a>
</g>
</g>
<!-- Node56&#45;&gt;Node57 -->
<g id="edge1" class="edge"><title>Node56&#45;&gt;Node57</title>
<path fill="none" stroke="midnightblue" d="M1266.09,-477.801C1241.28,-488.831 1206.84,-504.136 1181.03,-515.606"/>
<polygon fill="midnightblue" stroke="midnightblue" points="1267.71,-480.914 1275.42,-473.654 1264.86,-474.517 1267.71,-480.914"/>
</g>
<!-- Node66 -->
<g id="node11" class="node"><title>Node66</title>
<g id="a_node11"><a xlink:href="structGCS__MAVLINK.html#a69c4fd4a93baf6a354289b08253ca974" target="_top" xlink:title=" ">
<polygon fill="white" stroke="black" points="1083.01,-336.62 1083.01,-368.62 1204.99,-368.62 1204.99,-336.62 1083.01,-336.62"/>
<text text-anchor="start" x="1091.01" y="-354.62" font-family="Helvetica,sans-Serif" font-size="10.00">GCS_MAVLINK::handle</text>
<text text-anchor="middle" x="1144" y="-342.62" font-family="Helvetica,sans-Serif" font-size="10.00">_command_do_gripper</text>
</a>
</g>
</g>
<!-- Node56&#45;&gt;Node66 -->
<g id="edge10" class="edge"><title>Node56&#45;&gt;Node66</title>
<path fill="none" stroke="midnightblue" d="M1275.89,-447.583C1246.9,-426.547 1196.31,-389.842 1167.24,-368.757"/>
<polygon fill="midnightblue" stroke="midnightblue" points="1274,-450.535 1284.15,-453.574 1278.11,-444.869 1274,-450.535"/>
</g>
<!-- Node70 -->
<g id="node15" class="node"><title>Node70</title>
<g id="a_node15"><a xlink:href="classAP__Mission.html#afe6a4cc1cb45cc2d3e5abd51bf64dd5f" target="_top" xlink:title=" ">
<polygon fill="white" stroke="black" points="1072.36,-447.62 1072.36,-479.62 1215.64,-479.62 1215.64,-447.62 1072.36,-447.62"/>
<text text-anchor="start" x="1080.36" y="-465.62" font-family="Helvetica,sans-Serif" font-size="10.00">AP_Mission::start_command</text>
<text text-anchor="middle" x="1144" y="-453.62" font-family="Helvetica,sans-Serif" font-size="10.00">_do_gripper</text>
</a>
</g>
</g>
<!-- Node56&#45;&gt;Node70 -->
<g id="edge14" class="edge"><title>Node56&#45;&gt;Node70</title>
<path fill="none" stroke="midnightblue" d="M1241.61,-463.62C1233.18,-463.62 1224.41,-463.62 1215.73,-463.62"/>
<polygon fill="midnightblue" stroke="midnightblue" points="1241.68,-467.121 1251.68,-463.62 1241.68,-460.121 1241.68,-467.121"/>
</g>
<!-- Node58 -->
<g id="node3" class="node"><title>Node58</title>
<g id="a_node3"><a xlink:href="classRC__Channel.html#a070b1061842188951985a20f5d1a886f" target="_top" xlink:title=" ">
<polygon fill="white" stroke="black" points="908.19,-550.62 908.19,-582.62 1019.81,-582.62 1019.81,-550.62 908.19,-550.62"/>
<text text-anchor="start" x="916.19" y="-568.62" font-family="Helvetica,sans-Serif" font-size="10.00">RC_Channel::do_aux</text>
<text text-anchor="middle" x="964" y="-556.62" font-family="Helvetica,sans-Serif" font-size="10.00">_function</text>
</a>
</g>
</g>
<!-- Node57&#45;&gt;Node58 -->
<g id="edge2" class="edge"><title>Node57&#45;&gt;Node58</title>
<path fill="none" stroke="midnightblue" d="M1078.31,-544.341C1059.18,-548.101 1038.44,-552.181 1019.98,-555.809"/>
<polygon fill="midnightblue" stroke="midnightblue" points="1079,-547.771 1088.14,-542.407 1077.65,-540.902 1079,-547.771"/>
</g>
<!-- Node59 -->
<g id="node4" class="node"><title>Node59</title>
<g id="a_node4"><a xlink:href="classRC__Channel.html#a1bc648b7400d7068721d275275f7927e" target="_top" xlink:title=" ">
<polygon fill="white" stroke="black" points="738.36,-550.62 738.36,-582.62 851.64,-582.62 851.64,-550.62 738.36,-550.62"/>
<text text-anchor="start" x="746.36" y="-568.62" font-family="Helvetica,sans-Serif" font-size="10.00">RC_Channel::init_aux</text>
<text text-anchor="middle" x="795" y="-556.62" font-family="Helvetica,sans-Serif" font-size="10.00">_function</text>
</a>
</g>
</g>
<!-- Node58&#45;&gt;Node59 -->
<g id="edge3" class="edge"><title>Node58&#45;&gt;Node59</title>
<path fill="none" stroke="midnightblue" d="M897.516,-566.62C882.352,-566.62 866.355,-566.62 851.658,-566.62"/>
<polygon fill="midnightblue" stroke="midnightblue" points="897.855,-570.121 907.855,-566.62 897.855,-563.121 897.855,-570.121"/>
</g>
<!-- Node64 -->
<g id="node9" class="node"><title>Node64</title>
<g id="a_node9"><a xlink:href="classRC__Channel.html#aac5143b957916aec428b6bc79f29456d" target="_top" xlink:title=" ">
<polygon fill="white" stroke="black" points="734.744,-601.62 734.744,-621.62 855.256,-621.62 855.256,-601.62 734.744,-601.62"/>
<text text-anchor="middle" x="795" y="-607.62" font-family="Helvetica,sans-Serif" font-size="10.00">RC_Channel::read_aux</text>
</a>
</g>
</g>
<!-- Node58&#45;&gt;Node64 -->
<g id="edge8" class="edge"><title>Node58&#45;&gt;Node64</title>
<path fill="none" stroke="midnightblue" d="M897.916,-584.158C875.96,-590.074 852.216,-596.472 833.175,-601.603"/>
<polygon fill="midnightblue" stroke="midnightblue" points="899.11,-587.461 907.855,-581.48 897.289,-580.702 899.11,-587.461"/>
</g>
<!-- Node60 -->
<g id="node5" class="node"><title>Node60</title>
<g id="a_node5"><a xlink:href="classRC__Channel.html#a2e0ed24b88e1d47d9056bc8b6e28650f" target="_top" xlink:title=" ">
<polygon fill="white" stroke="black" points="566.36,-559.62 566.36,-579.62 679.64,-579.62 679.64,-559.62 566.36,-559.62"/>
<text text-anchor="middle" x="623" y="-565.62" font-family="Helvetica,sans-Serif" font-size="10.00">RC_Channel::init_aux</text>
</a>
</g>
</g>
<!-- Node59&#45;&gt;Node60 -->
<g id="edge4" class="edge"><title>Node59&#45;&gt;Node60</title>
<path fill="none" stroke="midnightblue" d="M728.023,-567.785C712.086,-568.066 695.208,-568.364 679.789,-568.636"/>
<polygon fill="midnightblue" stroke="midnightblue" points="728.399,-571.279 738.336,-567.603 728.275,-564.28 728.399,-571.279"/>
</g>
<!-- Node61 -->
<g id="node6" class="node"><title>Node61</title>
<g id="a_node6"><a xlink:href="classRC__Channels.html#a668ee11266919ed21cc542df61043cca" target="_top" xlink:title=" ">
<polygon fill="white" stroke="black" points="370.077,-672.62 370.077,-692.62 503.923,-692.62 503.923,-672.62 370.077,-672.62"/>
<text text-anchor="middle" x="437" y="-678.62" font-family="Helvetica,sans-Serif" font-size="10.00">RC_Channels::init_aux_all</text>
</a>
</g>
</g>
<!-- Node60&#45;&gt;Node61 -->
<g id="edge5" class="edge"><title>Node60&#45;&gt;Node61</title>
<path fill="none" stroke="midnightblue" d="M561.29,-583.908C556.529,-586.366 552.018,-589.246 548,-592.62 521.21,-615.12 539.206,-640.626 512,-662.62 506.929,-666.72 501.088,-669.983 494.958,-672.58"/>
<polygon fill="midnightblue" stroke="midnightblue" points="563.003,-586.975 570.689,-579.682 560.133,-580.591 563.003,-586.975"/>
</g>
<!-- Node62 -->
<g id="node7" class="node"><title>Node62</title>
<g id="a_node7"><a xlink:href="classRC__Channels.html#a41ac050f115225f84b06b97fb79ee56f" target="_top" xlink:title=" ">
<polygon fill="white" stroke="black" points="193.702,-672.62 193.702,-692.62 290.298,-692.62 290.298,-672.62 193.702,-672.62"/>
<text text-anchor="middle" x="242" y="-678.62" font-family="Helvetica,sans-Serif" font-size="10.00">RC_Channels::init</text>
</a>
</g>
</g>
<!-- Node61&#45;&gt;Node62 -->
<g id="edge6" class="edge"><title>Node61&#45;&gt;Node62</title>
<path fill="none" stroke="midnightblue" d="M359.619,-682.62C336.289,-682.62 311.316,-682.62 290.49,-682.62"/>
<polygon fill="midnightblue" stroke="midnightblue" points="359.85,-686.121 369.85,-682.62 359.85,-679.121 359.85,-686.121"/>
</g>
<!-- Node63 -->
<g id="node8" class="node"><title>Node63</title>
<g id="a_node8"><a xlink:href="AC__PID__test_8cpp.html#a4fc01d736fe50cf5b977f755b675f11d" target="_top" xlink:title=" ">
<polygon fill="white" stroke="black" points="40.7686,-672.62 40.7686,-692.62 81.2314,-692.62 81.2314,-672.62 40.7686,-672.62"/>
<text text-anchor="middle" x="61" y="-678.62" font-family="Helvetica,sans-Serif" font-size="10.00">setup</text>
</a>
</g>
</g>
<!-- Node62&#45;&gt;Node63 -->
<g id="edge7" class="edge"><title>Node62&#45;&gt;Node63</title>
<path fill="none" stroke="midnightblue" d="M183.349,-682.62C148.242,-682.62 105.615,-682.62 81.3648,-682.62"/>
<polygon fill="midnightblue" stroke="midnightblue" points="183.501,-686.121 193.501,-682.62 183.501,-679.121 183.501,-686.121"/>
</g>
<!-- Node65 -->
<g id="node10" class="node"><title>Node65</title>
<g id="a_node10"><a xlink:href="classRC__Channels.html#afce42af83fb4e3a19d56c330a99c59b5" target="_top" xlink:title=" ">
<polygon fill="white" stroke="black" points="552.461,-601.62 552.461,-621.62 693.539,-621.62 693.539,-601.62 552.461,-601.62"/>
<text text-anchor="middle" x="623" y="-607.62" font-family="Helvetica,sans-Serif" font-size="10.00">RC_Channels::read_aux_all</text>
</a>
</g>
</g>
<!-- Node64&#45;&gt;Node65 -->
<g id="edge9" class="edge"><title>Node64&#45;&gt;Node65</title>
<path fill="none" stroke="midnightblue" d="M724.485,-611.62C714.302,-611.62 703.813,-611.62 693.628,-611.62"/>
<polygon fill="midnightblue" stroke="midnightblue" points="724.542,-615.121 734.542,-611.62 724.542,-608.121 724.542,-615.121"/>
</g>
<!-- Node67 -->
<g id="node12" class="node"><title>Node67</title>
<g id="a_node12"><a xlink:href="structGCS__MAVLINK.html#a29e2941413d50ab63cd70f5beadef19a" target="_top" xlink:title=" ">
<polygon fill="white" stroke="black" points="901.52,-216.62 901.52,-248.62 1026.48,-248.62 1026.48,-216.62 901.52,-216.62"/>
<text text-anchor="start" x="909.52" y="-234.62" font-family="Helvetica,sans-Serif" font-size="10.00">GCS_MAVLINK::handle</text>
<text text-anchor="middle" x="964" y="-222.62" font-family="Helvetica,sans-Serif" font-size="10.00">_command_long_packet</text>
</a>
</g>
</g>
<!-- Node66&#45;&gt;Node67 -->
<g id="edge11" class="edge"><title>Node66&#45;&gt;Node67</title>
<path fill="none" stroke="midnightblue" d="M1110.52,-330.727C1075.41,-307.054 1020.27,-269.879 988.909,-248.739"/>
<polygon fill="midnightblue" stroke="midnightblue" points="1108.75,-333.749 1118.99,-336.437 1112.66,-327.945 1108.75,-333.749"/>
</g>
<!-- Node68 -->
<g id="node13" class="node"><title>Node68</title>
<g id="a_node13"><a xlink:href="structGCS__MAVLINK.html#abc79cdd8393234b66f2e8217a527f8f9" target="_top" xlink:title=" ">
<polygon fill="white" stroke="black" points="734.009,-173.62 734.009,-205.62 855.991,-205.62 855.991,-173.62 734.009,-173.62"/>
<text text-anchor="start" x="742.009" y="-191.62" font-family="Helvetica,sans-Serif" font-size="10.00">GCS_MAVLINK::handle</text>
<text text-anchor="middle" x="795" y="-179.62" font-family="Helvetica,sans-Serif" font-size="10.00">_command_long</text>
</a>
</g>
</g>
<!-- Node67&#45;&gt;Node68 -->
<g id="edge12" class="edge"><title>Node67&#45;&gt;Node68</title>
<path fill="none" stroke="midnightblue" d="M891.476,-214.204C879.676,-211.166 867.55,-208.043 856.067,-205.087"/>
<polygon fill="midnightblue" stroke="midnightblue" points="890.733,-217.627 901.29,-216.731 892.478,-210.848 890.733,-217.627"/>
</g>
<!-- Node69 -->
<g id="node14" class="node"><title>Node69</title>
<g id="a_node14"><a xlink:href="structGCS__MAVLINK.html#a13da94a2548ade6552a5250eb3251e89" target="_top" xlink:title=" ">
<polygon fill="white" stroke="black" points="0.00927734,-10.6204 0.00927734,-42.6204 121.991,-42.6204 121.991,-10.6204 0.00927734,-10.6204"/>
<text text-anchor="start" x="8.00928" y="-28.6204" font-family="Helvetica,sans-Serif" font-size="10.00">GCS_MAVLINK::handle</text>
<text text-anchor="middle" x="61" y="-16.6204" font-family="Helvetica,sans-Serif" font-size="10.00">_common_message</text>
</a>
</g>
</g>
<!-- Node68&#45;&gt;Node69 -->
<g id="edge13" class="edge"><title>Node68&#45;&gt;Node69</title>
<path fill="none" stroke="midnightblue" d="M767.228,-166.927C719.635,-128.246 615.539,-50.9786 512,-22.6204 376.742,14.4252 209.923,-2.44646 122.301,-15.838"/>
<polygon fill="midnightblue" stroke="midnightblue" points="765.229,-169.814 775.177,-173.458 769.673,-164.406 765.229,-169.814"/>
</g>
<!-- Node71 -->
<g id="node16" class="node"><title>Node71</title>
<g id="a_node16"><a xlink:href="classAP__Mission.html#ada561014011ab536f17afb3d0cdafd97" target="_top" xlink:title=" ">
<polygon fill="white" stroke="black" points="892.365,-453.62 892.365,-473.62 1035.64,-473.62 1035.64,-453.62 892.365,-453.62"/>
<text text-anchor="middle" x="964" y="-459.62" font-family="Helvetica,sans-Serif" font-size="10.00">AP_Mission::start_command</text>
</a>
</g>
</g>
<!-- Node70&#45;&gt;Node71 -->
<g id="edge15" class="edge"><title>Node70&#45;&gt;Node71</title>
<path fill="none" stroke="midnightblue" d="M1061.99,-463.62C1053.29,-463.62 1044.48,-463.62 1035.91,-463.62"/>
<polygon fill="midnightblue" stroke="midnightblue" points="1062.14,-467.121 1072.14,-463.62 1062.14,-460.121 1062.14,-467.121"/>
</g>
<!-- Node72 -->
<g id="node17" class="node"><title>Node72</title>
<g id="a_node17"><a xlink:href="classAP__Mission.html#a6eb87aa5daecd91506e400cfcea56bf3" target="_top" xlink:title="advance_current_nav_cmd &#45; moves current nav command forward">
<polygon fill="white" stroke="black" points="738.919,-429.62 738.919,-461.62 851.081,-461.62 851.081,-429.62 738.919,-429.62"/>
<text text-anchor="start" x="746.919" y="-447.62" font-family="Helvetica,sans-Serif" font-size="10.00">AP_Mission::advance</text>
<text text-anchor="middle" x="795" y="-435.62" font-family="Helvetica,sans-Serif" font-size="10.00">_current_nav_cmd</text>
</a>
</g>
</g>
<!-- Node71&#45;&gt;Node72 -->
<g id="edge16" class="edge"><title>Node71&#45;&gt;Node72</title>
<path fill="none" stroke="midnightblue" d="M882.17,-454.908C871.692,-453.779 861.158,-452.643 851.228,-451.573"/>
<polygon fill="midnightblue" stroke="midnightblue" points="881.859,-458.395 892.177,-455.987 882.61,-451.435 881.859,-458.395"/>
</g>
<!-- Node92 -->
<g id="node37" class="node"><title>Node92</title>
<g id="a_node37"><a xlink:href="classAP__Mission.html#af0264d3532a927fa13f5e25ac2137d32" target="_top" xlink:title=" ">
<polygon fill="white" stroke="black" points="738.919,-499.62 738.919,-531.62 851.081,-531.62 851.081,-499.62 738.919,-499.62"/>
<text text-anchor="start" x="746.919" y="-517.62" font-family="Helvetica,sans-Serif" font-size="10.00">AP_Mission::advance</text>
<text text-anchor="middle" x="795" y="-505.62" font-family="Helvetica,sans-Serif" font-size="10.00">_current_do_cmd</text>
</a>
</g>
</g>
<!-- Node71&#45;&gt;Node92 -->
<g id="edge51" class="edge"><title>Node71&#45;&gt;Node92</title>
<path fill="none" stroke="midnightblue" d="M920.958,-476.711C898.654,-483.656 871.061,-492.248 847.482,-499.59"/>
<polygon fill="midnightblue" stroke="midnightblue" points="922.293,-479.961 930.801,-473.647 920.212,-473.278 922.293,-479.961"/>
</g>
<!-- Node73 -->
<g id="node18" class="node"><title>Node73</title>
<g id="a_node18"><a xlink:href="classAP__Mission.html#a3b4234e58e34ed5c83d8c6b9ce2718c9" target="_top" xlink:title=" ">
<polygon fill="white" stroke="black" points="576.099,-425.62 576.099,-445.62 669.901,-445.62 669.901,-425.62 576.099,-425.62"/>
<text text-anchor="middle" x="623" y="-431.62" font-family="Helvetica,sans-Serif" font-size="10.00">AP_Mission::start</text>
</a>
</g>
</g>
<!-- Node72&#45;&gt;Node73 -->
<g id="edge17" class="edge"><title>Node72&#45;&gt;Node73</title>
<path fill="none" stroke="midnightblue" d="M728.737,-441.781C709.181,-440.631 688.15,-439.394 670.102,-438.332"/>
<polygon fill="midnightblue" stroke="midnightblue" points="728.618,-445.28 738.806,-442.374 729.029,-438.292 728.618,-445.28"/>
</g>
<!-- Node86 -->
<g id="node31" class="node"><title>Node86</title>
<g id="a_node31"><a xlink:href="classAP__Mission.html#ad27b4531fa652b277bd9300b60ca4493" target="_top" xlink:title=" ">
<polygon fill="white" stroke="black" points="570.53,-511.62 570.53,-531.62 675.47,-531.62 675.47,-511.62 570.53,-511.62"/>
<text text-anchor="middle" x="623" y="-517.62" font-family="Helvetica,sans-Serif" font-size="10.00">AP_Mission::update</text>
</a>
</g>
</g>
<!-- Node72&#45;&gt;Node86 -->
<g id="edge33" class="edge"><title>Node72&#45;&gt;Node86</title>
<path fill="none" stroke="midnightblue" d="M748.507,-465.959C715.532,-480.7 672.355,-500.003 646.476,-511.572"/>
<polygon fill="midnightblue" stroke="midnightblue" points="750.247,-469.015 757.947,-461.738 747.39,-462.624 750.247,-469.015"/>
</g>
<!-- Node87 -->
<g id="node32" class="node"><title>Node87</title>
<g id="a_node32"><a xlink:href="classAP__Mission.html#ac79a188f81816b3ddfe045b6a0feb6d1" target="_top" xlink:title=" ">
<polygon fill="white" stroke="black" points="548.584,-217.62 548.584,-237.62 697.416,-237.62 697.416,-217.62 548.584,-217.62"/>
<text text-anchor="middle" x="623" y="-223.62" font-family="Helvetica,sans-Serif" font-size="10.00">AP_Mission::set_current_cmd</text>
</a>
</g>
</g>
<!-- Node72&#45;&gt;Node87 -->
<g id="edge39" class="edge"><title>Node72&#45;&gt;Node87</title>
<path fill="none" stroke="midnightblue" d="M775.121,-421.411C738.117,-373.959 657.433,-270.493 631.908,-237.761"/>
<polygon fill="midnightblue" stroke="midnightblue" points="772.59,-423.857 781.499,-429.59 778.11,-419.552 772.59,-423.857"/>
</g>
<!-- Node74 -->
<g id="node19" class="node"><title>Node74</title>
<g id="a_node19"><a xlink:href="classAP__Mission.html#af7b8e9db68a2a858e2ecca8d57c2722e" target="_top" xlink:title=" ">
<polygon fill="white" stroke="black" points="383.15,-262.62 383.15,-282.62 490.85,-282.62 490.85,-262.62 383.15,-262.62"/>
<text text-anchor="middle" x="437" y="-268.62" font-family="Helvetica,sans-Serif" font-size="10.00">AP_Mission::resume</text>
</a>
</g>
</g>
<!-- Node73&#45;&gt;Node74 -->
<g id="edge18" class="edge"><title>Node73&#45;&gt;Node74</title>
<path fill="none" stroke="midnightblue" d="M603.667,-418.618C581.965,-398.571 544.646,-364.343 512,-335.62 490.465,-316.674 464.899,-295.109 450.152,-282.758"/>
<polygon fill="midnightblue" stroke="midnightblue" points="601.46,-421.345 611.177,-425.566 606.213,-416.206 601.46,-421.345"/>
</g>
<!-- Node76 -->
<g id="node21" class="node"><title>Node76</title>
<g id="a_node21"><a xlink:href="classAP__Mission.html#a90117c1ac074049b9f4247cebdf370a5" target="_top" xlink:title="start_or_resume &#45; if MIS_AUTORESTART=0 this will call resume(), otherwise it will call start()">
<polygon fill="white" stroke="black" points="187.872,-270.62 187.872,-302.62 296.128,-302.62 296.128,-270.62 187.872,-270.62"/>
<text text-anchor="start" x="195.872" y="-288.62" font-family="Helvetica,sans-Serif" font-size="10.00">AP_Mission::start_or</text>
<text text-anchor="middle" x="242" y="-276.62" font-family="Helvetica,sans-Serif" font-size="10.00">_resume</text>
</a>
</g>
</g>
<!-- Node73&#45;&gt;Node76 -->
<g id="edge25" class="edge"><title>Node73&#45;&gt;Node76</title>
<path fill="none" stroke="midnightblue" d="M597.035,-420.315C575.152,-407.314 542.208,-388.729 512,-375.62 439.235,-344.044 351.411,-316.935 296.368,-301.194"/>
<polygon fill="midnightblue" stroke="midnightblue" points="595.32,-423.368 605.696,-425.513 598.923,-417.366 595.32,-423.368"/>
</g>
<!-- Node81 -->
<g id="node26" class="node"><title>Node81</title>
<g id="a_node26"><a xlink:href="classMissionTest.html#a2161685b1b75329ff76bc4243518212d" target="_top" xlink:title=" ">
<polygon fill="white" stroke="black" points="362.308,-633.62 362.308,-653.62 511.692,-653.62 511.692,-633.62 362.308,-633.62"/>
<text text-anchor="middle" x="437" y="-639.62" font-family="Helvetica,sans-Serif" font-size="10.00">MissionTest::run_mission_test</text>
</a>
</g>
</g>
<!-- Node73&#45;&gt;Node81 -->
<g id="edge26" class="edge"><title>Node73&#45;&gt;Node81</title>
<path fill="none" stroke="midnightblue" d="M601.746,-452.298C586.362,-465.351 565.022,-484.303 548,-502.62 536.851,-514.617 469.354,-602.625 445.968,-633.194"/>
<polygon fill="midnightblue" stroke="midnightblue" points="604.205,-454.804 609.615,-445.695 599.705,-449.442 604.205,-454.804"/>
</g>
<!-- Node79 -->
<g id="node24" class="node"><title>Node79</title>
<g id="a_node24"><a xlink:href="classMissionTest.html#af8b75f25f2b1c7fdd51ab19c4ee42ec8" target="_top" xlink:title=" ">
<polygon fill="white" stroke="black" points="167.584,-415.62 167.584,-435.62 316.416,-435.62 316.416,-415.62 167.584,-415.62"/>
<text text-anchor="middle" x="242" y="-421.62" font-family="Helvetica,sans-Serif" font-size="10.00">MissionTest::run_resume_test</text>
</a>
</g>
</g>
<!-- Node73&#45;&gt;Node79 -->
<g id="edge29" class="edge"><title>Node73&#45;&gt;Node79</title>
<path fill="none" stroke="midnightblue" d="M565.678,-434.134C499.529,-432.389 389.597,-429.488 316.715,-427.565"/>
<polygon fill="midnightblue" stroke="midnightblue" points="565.817,-437.639 575.906,-434.404 566.002,-430.642 565.817,-437.639"/>
</g>
<!-- Node84 -->
<g id="node29" class="node"><title>Node84</title>
<g id="a_node29"><a xlink:href="classMissionTest.html#a16309b0065fe78128c95f5f8cc5f210e" target="_top" xlink:title=" ">
<polygon fill="white" stroke="black" points="383.426,-454.62 383.426,-486.62 490.574,-486.62 490.574,-454.62 383.426,-454.62"/>
<text text-anchor="start" x="391.426" y="-472.62" font-family="Helvetica,sans-Serif" font-size="10.00">MissionTest::run_set</text>
<text text-anchor="middle" x="437" y="-460.62" font-family="Helvetica,sans-Serif" font-size="10.00">_current_cmd_test</text>
</a>
</g>
</g>
<!-- Node73&#45;&gt;Node84 -->
<g id="edge30" class="edge"><title>Node73&#45;&gt;Node84</title>
<path fill="none" stroke="midnightblue" d="M566.061,-446.261C542.161,-450.807 514.405,-456.087 490.855,-460.566"/>
<polygon fill="midnightblue" stroke="midnightblue" points="566.874,-449.669 576.044,-444.362 565.566,-442.793 566.874,-449.669"/>
</g>
<!-- Node80 -->
<g id="node25" class="node"><title>Node80</title>
<g id="a_node25"><a xlink:href="classMissionTest.html#aa5175c099befd271fcc279deb7e28b06" target="_top" xlink:title=" ">
<polygon fill="white" stroke="black" points="157.843,-336.62 157.843,-368.62 326.157,-368.62 326.157,-336.62 157.843,-336.62"/>
<text text-anchor="start" x="165.843" y="-354.62" font-family="Helvetica,sans-Serif" font-size="10.00">MissionTest::run_set</text>
<text text-anchor="middle" x="242" y="-342.62" font-family="Helvetica,sans-Serif" font-size="10.00">_current_cmd_while_stopped_test</text>
</a>
</g>
</g>
<!-- Node73&#45;&gt;Node80 -->
<g id="edge31" class="edge"><title>Node73&#45;&gt;Node80</title>
<path fill="none" stroke="midnightblue" d="M566.449,-423.455C500.223,-408.952 389.334,-384.667 316.173,-368.645"/>
<polygon fill="midnightblue" stroke="midnightblue" points="565.766,-426.888 576.284,-425.609 567.264,-420.05 565.766,-426.888"/>
</g>
<!-- Node85 -->
<g id="node30" class="node"><title>Node85</title>
<g id="a_node30"><a xlink:href="classMissionTest.html#a4b79b27fab75a4a63dc41e09a16a5442" target="_top" xlink:title=" ">
<polygon fill="white" stroke="black" points="373.697,-505.62 373.697,-537.62 500.303,-537.62 500.303,-505.62 373.697,-505.62"/>
<text text-anchor="start" x="381.697" y="-523.62" font-family="Helvetica,sans-Serif" font-size="10.00">MissionTest::run_replace</text>
<text text-anchor="middle" x="437" y="-511.62" font-family="Helvetica,sans-Serif" font-size="10.00">_cmd_test</text>
</a>
</g>
</g>
<!-- Node73&#45;&gt;Node85 -->
<g id="edge32" class="edge"><title>Node73&#45;&gt;Node85</title>
<path fill="none" stroke="midnightblue" d="M596.974,-450.787C575.053,-463.701 542.086,-482.235 512,-495.62 504.162,-499.108 495.7,-502.453 487.396,-505.515"/>
<polygon fill="midnightblue" stroke="midnightblue" points="598.845,-453.746 605.652,-445.628 595.268,-447.729 598.845,-453.746"/>
</g>
<!-- Node75 -->
<g id="node20" class="node"><title>Node75</title>
<g id="a_node20"><a xlink:href="classAP__Landing.html#a23d5d937afe630bfa1d3eeea5d767e4b" target="_top" xlink:title=" ">
<polygon fill="white" stroke="black" points="192.03,-93.6204 192.03,-125.62 291.97,-125.62 291.97,-93.6204 192.03,-93.6204"/>
<text text-anchor="start" x="200.03" y="-111.62" font-family="Helvetica,sans-Serif" font-size="10.00">AP_Landing::verify</text>
<text text-anchor="middle" x="242" y="-99.6204" font-family="Helvetica,sans-Serif" font-size="10.00">_abort_landing</text>
</a>
</g>
</g>
<!-- Node74&#45;&gt;Node75 -->
<g id="edge19" class="edge"><title>Node74&#45;&gt;Node75</title>
<path fill="none" stroke="midnightblue" d="M373.851,-260.943C369.558,-258.639 365.539,-255.892 362,-252.62 327.007,-220.27 357.508,-187.373 326,-151.62 316.283,-140.595 302.987,-132.101 289.884,-125.731"/>
<polygon fill="midnightblue" stroke="midnightblue" points="372.425,-264.14 382.978,-265.078 375.314,-257.764 372.425,-264.14"/>
</g>
<!-- Node74&#45;&gt;Node76 -->
<g id="edge20" class="edge"><title>Node74&#45;&gt;Node76</title>
<path fill="none" stroke="midnightblue" d="M372.963,-277.193C348.152,-278.993 319.972,-281.037 296.21,-282.761"/>
<polygon fill="midnightblue" stroke="midnightblue" points="373.286,-280.679 383.007,-276.465 372.78,-273.697 373.286,-280.679"/>
</g>
<!-- Node77 -->
<g id="node22" class="node"><title>Node77</title>
<g id="a_node22"><a xlink:href="classAP__Mission.html#a05baa29469cdd5a9606903a7c6b3f3c1" target="_top" xlink:title=" ">
<polygon fill="white" stroke="black" points="187.035,-217.62 187.035,-249.62 296.965,-249.62 296.965,-217.62 187.035,-217.62"/>
<text text-anchor="start" x="195.035" y="-235.62" font-family="Helvetica,sans-Serif" font-size="10.00">AP_Mission::jump_to</text>
<text text-anchor="middle" x="242" y="-223.62" font-family="Helvetica,sans-Serif" font-size="10.00">_landing_sequence</text>
</a>
</g>
</g>
<!-- Node74&#45;&gt;Node77 -->
<g id="edge21" class="edge"><title>Node74&#45;&gt;Node77</title>
<path fill="none" stroke="midnightblue" d="M376.466,-260.59C351.199,-255.485 321.949,-249.574 297.283,-244.59"/>
<polygon fill="midnightblue" stroke="midnightblue" points="375.803,-264.027 386.298,-262.577 377.189,-257.166 375.803,-264.027"/>
</g>
<!-- Node78 -->
<g id="node23" class="node"><title>Node78</title>
<g id="a_node23"><a xlink:href="classAP__Mission.html#aa571ee24714d3c6a39e48fd0ede5734a" target="_top" xlink:title=" ">
<polygon fill="white" stroke="black" points="176.451,-161.62 176.451,-193.62 307.549,-193.62 307.549,-161.62 176.451,-161.62"/>
<text text-anchor="start" x="184.451" y="-179.62" font-family="Helvetica,sans-Serif" font-size="10.00">AP_Mission::jump_to</text>
<text text-anchor="middle" x="242" y="-167.62" font-family="Helvetica,sans-Serif" font-size="10.00">_abort_landing_sequence</text>
</a>
</g>
</g>
<!-- Node74&#45;&gt;Node78 -->
<g id="edge22" class="edge"><title>Node74&#45;&gt;Node78</title>
<path fill="none" stroke="midnightblue" d="M373.385,-258.851C369.405,-257.025 365.569,-254.959 362,-252.62 340.576,-238.584 346.824,-222.532 326,-207.62 318.276,-202.09 309.426,-197.478 300.447,-193.665"/>
<polygon fill="midnightblue" stroke="midnightblue" points="372.292,-262.184 382.874,-262.69 374.917,-255.695 372.292,-262.184"/>
</g>
<!-- Node74&#45;&gt;Node79 -->
<g id="edge23" class="edge"><title>Node74&#45;&gt;Node79</title>
<path fill="none" stroke="midnightblue" d="M419.987,-290.31C399.511,-312.338 362.34,-350.381 326,-377.62 306.021,-392.596 280.959,-406.502 263.63,-415.45"/>
<polygon fill="midnightblue" stroke="midnightblue" points="422.786,-292.437 426.981,-282.708 417.634,-287.698 422.786,-292.437"/>
</g>
<!-- Node74&#45;&gt;Node80 -->
<g id="edge24" class="edge"><title>Node74&#45;&gt;Node80</title>
<path fill="none" stroke="midnightblue" d="M393.874,-285.982C383.382,-289.548 372.214,-293.548 362,-297.62 332.085,-309.547 298.884,-325.092 275.169,-336.613"/>
<polygon fill="midnightblue" stroke="midnightblue" points="395.298,-289.196 403.674,-282.708 393.08,-282.557 395.298,-289.196"/>
</g>
<!-- Node82 -->
<g id="node27" class="node"><title>Node82</title>
<g id="a_node27"><a xlink:href="classMissionTest.html#ab2537e6e678a9468a69cd09f0296aeca" target="_top" xlink:title=" ">
<polygon fill="white" stroke="black" points="195.65,-633.62 195.65,-653.62 288.35,-653.62 288.35,-633.62 195.65,-633.62"/>
<text text-anchor="middle" x="242" y="-639.62" font-family="Helvetica,sans-Serif" font-size="10.00">MissionTest::loop</text>
</a>
</g>
</g>
<!-- Node81&#45;&gt;Node82 -->
<g id="edge27" class="edge"><title>Node81&#45;&gt;Node82</title>
<path fill="none" stroke="midnightblue" d="M351.938,-643.62C330.147,-643.62 307.495,-643.62 288.528,-643.62"/>
<polygon fill="midnightblue" stroke="midnightblue" points="352.209,-647.121 362.209,-643.62 352.209,-640.121 352.209,-647.121"/>
</g>
<!-- Node83 -->
<g id="node28" class="node"><title>Node83</title>
<g id="a_node28"><a xlink:href="AP__Mission__test_8cpp.html#a0b33edabd7f1c4e4a0bf32c67269be2f" target="_top" xlink:title=" ">
<polygon fill="white" stroke="black" points="43.5469,-633.62 43.5469,-653.62 78.4531,-653.62 78.4531,-633.62 43.5469,-633.62"/>
<text text-anchor="middle" x="61" y="-639.62" font-family="Helvetica,sans-Serif" font-size="10.00">loop</text>
</a>
</g>
</g>
<!-- Node82&#45;&gt;Node83 -->
<g id="edge28" class="edge"><title>Node82&#45;&gt;Node83</title>
<path fill="none" stroke="midnightblue" d="M185.253,-643.62C148.465,-643.62 102.763,-643.62 78.6691,-643.62"/>
<polygon fill="midnightblue" stroke="midnightblue" points="185.368,-647.121 195.368,-643.62 185.368,-640.121 185.368,-647.121"/>
</g>
<!-- Node86&#45;&gt;Node81 -->
<g id="edge34" class="edge"><title>Node86&#45;&gt;Node81</title>
<path fill="none" stroke="midnightblue" d="M572.047,-535.536C563.393,-539.461 554.955,-544.413 548,-550.62 522.488,-573.392 538.048,-596.464 512,-618.62 504.356,-625.122 494.948,-629.954 485.435,-633.538"/>
<polygon fill="midnightblue" stroke="midnightblue" points="573.543,-538.706 581.463,-531.669 570.883,-532.231 573.543,-538.706"/>
</g>
<!-- Node86&#45;&gt;Node79 -->
<g id="edge35" class="edge"><title>Node86&#45;&gt;Node79</title>
<path fill="none" stroke="midnightblue" d="M579.973,-535.395C569.225,-539.636 557.911,-544.758 548,-550.62 530.074,-561.223 531.583,-573.53 512,-580.62 449.315,-603.315 421.795,-610.099 362,-580.62 298.099,-549.118 258.959,-464.998 246.956,-435.784"/>
<polygon fill="midnightblue" stroke="midnightblue" points="581.507,-538.557 589.628,-531.751 579.036,-532.007 581.507,-538.557"/>
</g>
<!-- Node86&#45;&gt;Node84 -->
<g id="edge36" class="edge"><title>Node86&#45;&gt;Node84</title>
<path fill="none" stroke="midnightblue" d="M575.713,-508.791C549.838,-501.619 517.495,-492.654 490.656,-485.215"/>
<polygon fill="midnightblue" stroke="midnightblue" points="575.076,-512.246 585.648,-511.544 576.946,-505.501 575.076,-512.246"/>
</g>
<!-- Node86&#45;&gt;Node80 -->
<g id="edge37" class="edge"><title>Node86&#45;&gt;Node80</title>
<path fill="none" stroke="midnightblue" d="M573.558,-533.974C507.561,-549.536 393.935,-571.426 362,-546.62 310.922,-506.945 363.908,-458.024 326,-405.62 314.476,-389.69 296.557,-377.377 280.313,-368.646"/>
<polygon fill="midnightblue" stroke="midnightblue" points="574.417,-537.367 583.327,-531.634 572.787,-530.559 574.417,-537.367"/>
</g>
<!-- Node86&#45;&gt;Node85 -->
<g id="edge38" class="edge"><title>Node86&#45;&gt;Node85</title>
<path fill="none" stroke="midnightblue" d="M560.11,-521.62C540.895,-521.62 519.711,-521.62 500.458,-521.62"/>
<polygon fill="midnightblue" stroke="midnightblue" points="560.256,-525.121 570.256,-521.62 560.256,-518.121 560.256,-525.121"/>
</g>
<!-- Node88 -->
<g id="node33" class="node"><title>Node88</title>
<g id="a_node33"><a xlink:href="classAP__AdvancedFailsafe.html#a017a878d56457eea9bd9a59c07b92190" target="_top" xlink:title=" ">
<polygon fill="white" stroke="black" points="379.803,-211.62 379.803,-243.62 494.197,-243.62 494.197,-211.62 379.803,-211.62"/>
<text text-anchor="start" x="387.803" y="-229.62" font-family="Helvetica,sans-Serif" font-size="10.00">AP_AdvancedFailsafe</text>
<text text-anchor="middle" x="437" y="-217.62" font-family="Helvetica,sans-Serif" font-size="10.00">::check</text>
</a>
</g>
</g>
<!-- Node87&#45;&gt;Node88 -->
<g id="edge40" class="edge"><title>Node87&#45;&gt;Node88</title>
<path fill="none" stroke="midnightblue" d="M538.265,-227.62C523.408,-227.62 508.262,-227.62 494.392,-227.62"/>
<polygon fill="midnightblue" stroke="midnightblue" points="538.485,-231.121 548.485,-227.62 538.485,-224.121 538.485,-231.121"/>
</g>
<!-- Node89 -->
<g id="node34" class="node"><title>Node89</title>
<g id="a_node34"><a xlink:href="classAP__Landing.html#a4cb652398231c274e6061aa6b211366b" target="_top" xlink:title=" ">
<polygon fill="white" stroke="black" points="384.806,-83.6204 384.806,-115.62 489.194,-115.62 489.194,-83.6204 384.806,-83.6204"/>
<text text-anchor="start" x="392.806" y="-101.62" font-family="Helvetica,sans-Serif" font-size="10.00">AP_Landing::restart</text>
<text text-anchor="middle" x="437" y="-89.6204" font-family="Helvetica,sans-Serif" font-size="10.00">_landing_sequence</text>
</a>
</g>
</g>
<!-- Node87&#45;&gt;Node89 -->
<g id="edge41" class="edge"><title>Node87&#45;&gt;Node89</title>
<path fill="none" stroke="midnightblue" d="M605.607,-210.008C585.26,-188.939 548.734,-153.635 512,-130.62 503.029,-125 492.863,-119.985 483.001,-115.71"/>
<polygon fill="midnightblue" stroke="midnightblue" points="603.149,-212.503 612.58,-217.331 608.219,-207.675 603.149,-212.503"/>
</g>
<!-- Node87&#45;&gt;Node74 -->
<g id="edge43" class="edge"><title>Node87&#45;&gt;Node74</title>
<path fill="none" stroke="midnightblue" d="M570.788,-240.145C541.879,-247.215 506.234,-255.933 479.155,-262.555"/>
<polygon fill="midnightblue" stroke="midnightblue" points="571.825,-243.495 580.707,-237.719 570.162,-236.695 571.825,-243.495"/>
</g>
<!-- Node87&#45;&gt;Node77 -->
<g id="edge44" class="edge"><title>Node87&#45;&gt;Node77</title>
<path fill="none" stroke="midnightblue" d="M578.856,-214.974C558.733,-209.71 534.344,-204.225 512,-201.62 445.782,-193.901 428.092,-192.889 362,-201.62 338.245,-204.759 312.499,-211.276 291.05,-217.615"/>
<polygon fill="midnightblue" stroke="midnightblue" points="578.094,-218.394 588.66,-217.608 579.911,-211.633 578.094,-218.394"/>
</g>
<!-- Node87&#45;&gt;Node78 -->
<g id="edge45" class="edge"><title>Node87&#45;&gt;Node78</title>
<path fill="none" stroke="midnightblue" d="M587.971,-213.897C566.542,-205.908 538.092,-196.48 512,-191.62 443.039,-178.776 362.538,-176.177 307.696,-176.227"/>
<polygon fill="midnightblue" stroke="midnightblue" points="586.996,-217.271 597.586,-217.561 589.488,-210.73 586.996,-217.271"/>
</g>
<!-- Node87&#45;&gt;Node84 -->
<g id="edge46" class="edge"><title>Node87&#45;&gt;Node84</title>
<path fill="none" stroke="midnightblue" d="M608.164,-245.893C573.473,-291.708 483.212,-410.911 450.267,-454.42"/>
<polygon fill="midnightblue" stroke="midnightblue" points="611.082,-247.838 614.328,-237.752 605.501,-243.612 611.082,-247.838"/>
</g>
<!-- Node87&#45;&gt;Node80 -->
<g id="edge47" class="edge"><title>Node87&#45;&gt;Node80</title>
<path fill="none" stroke="midnightblue" d="M599.337,-243.579C577.795,-258.06 544.021,-279.017 512,-291.62 451.844,-315.297 380.327,-330.966 326.161,-340.488"/>
<polygon fill="midnightblue" stroke="midnightblue" points="601.496,-246.343 607.779,-237.813 597.548,-240.563 601.496,-246.343"/>
</g>
<!-- Node90 -->
<g id="node35" class="node"><title>Node90</title>
<g id="a_node35"><a xlink:href="structGCS__MAVLINK.html#ad4e76e7f27bc999e806416e24aa10f26" target="_top" xlink:title=" ">
<polygon fill="white" stroke="black" points="376.009,-32.6204 376.009,-64.6204 497.991,-64.6204 497.991,-32.6204 376.009,-32.6204"/>
<text text-anchor="start" x="384.009" y="-50.6204" font-family="Helvetica,sans-Serif" font-size="10.00">GCS_MAVLINK::handle</text>
<text text-anchor="middle" x="437" y="-38.6204" font-family="Helvetica,sans-Serif" font-size="10.00">_mission_set_current</text>
</a>
</g>
</g>
<!-- Node87&#45;&gt;Node90 -->
<g id="edge48" class="edge"><title>Node87&#45;&gt;Node90</title>
<path fill="none" stroke="midnightblue" d="M613.035,-207.953C597.214,-175.373 561.292,-110.181 512,-73.6204 507.426,-70.2275 502.36,-67.275 497.088,-64.7096"/>
<polygon fill="midnightblue" stroke="midnightblue" points="610.019,-209.762 617.457,-217.307 616.347,-206.771 610.019,-209.762"/>
</g>
<!-- Node89&#45;&gt;Node75 -->
<g id="edge42" class="edge"><title>Node89&#45;&gt;Node75</title>
<path fill="none" stroke="midnightblue" d="M374.787,-102.792C348.111,-104.174 317.262,-105.773 292.12,-107.075"/>
<polygon fill="midnightblue" stroke="midnightblue" points="374.981,-106.287 384.786,-102.274 374.619,-99.2962 374.981,-106.287"/>
</g>
<!-- Node91 -->
<g id="node36" class="node"><title>Node91</title>
<g id="a_node36"><a xlink:href="structGCS__MAVLINK.html#a00013e2a14c47d88af2638763d82e7d3" target="_top" xlink:title=" ">
<polygon fill="white" stroke="black" points="169.249,-32.6204 169.249,-64.6204 314.751,-64.6204 314.751,-32.6204 169.249,-32.6204"/>
<text text-anchor="start" x="177.249" y="-50.6204" font-family="Helvetica,sans-Serif" font-size="10.00">GCS_MAVLINK::handle</text>
<text text-anchor="middle" x="242" y="-38.6204" font-family="Helvetica,sans-Serif" font-size="10.00">_common_mission_message</text>
</a>
</g>
</g>
<!-- Node90&#45;&gt;Node91 -->
<g id="edge49" class="edge"><title>Node90&#45;&gt;Node91</title>
<path fill="none" stroke="midnightblue" d="M365.822,-48.6204C349.225,-48.6204 331.503,-48.6204 314.834,-48.6204"/>
<polygon fill="midnightblue" stroke="midnightblue" points="365.992,-52.1205 375.992,-48.6204 365.992,-45.1205 365.992,-52.1205"/>
</g>
<!-- Node91&#45;&gt;Node69 -->
<g id="edge50" class="edge"><title>Node91&#45;&gt;Node69</title>
<path fill="none" stroke="midnightblue" d="M159.234,-38.571C146.698,-37.0302 133.957,-35.4644 122.007,-33.9956"/>
<polygon fill="midnightblue" stroke="midnightblue" points="158.873,-42.0529 169.225,-39.799 159.727,-35.1051 158.873,-42.0529"/>
</g>
<!-- Node92&#45;&gt;Node86 -->
<g id="edge52" class="edge"><title>Node92&#45;&gt;Node86</title>
<path fill="none" stroke="midnightblue" d="M728.648,-517.927C711.123,-518.545 692.42,-519.206 675.744,-519.794"/>
<polygon fill="midnightblue" stroke="midnightblue" points="728.936,-521.419 738.806,-517.568 728.689,-514.423 728.936,-521.419"/>
</g>
</g>
</svg>
        <g id="navigator" transform="translate(0 0)" fill="#404254">
                <rect fill="#f2f5e9" fill-opacity="0.5" stroke="#606060" stroke-width=".5" x="0" y="0" width="60" height="60"/>
                <use id="zoomplus" xlink:href="#zoomPlus" x="17" y="9" onmousedown="handleZoom(evt,'in')"/>
                <use id="zoomminus" xlink:href="#zoomMin" x="42" y="9" onmousedown="handleZoom(evt,'out')"/>
                <use id="reset" xlink:href="#resetDef" x="30" y="36" onmousedown="handleReset()"/>
                <g id="arrowUp" xlink:href="#dirArrow" transform="translate(30 24)" onmousedown="handlePan(0,-1)">
                  <use xlink:href="#rim" fill="#404040">
                        <set attributeName="fill" to="#808080" begin="arrowUp.mouseover" end="arrowUp.mouseout"/>
                  </use>
                  <path fill="none" stroke="white" stroke-width="1.5" d="M0,-3.0v7 M-2.5,-0.5L0,-3.0L2.5,-0.5"/>
                </g>
                <g id="arrowRight" xlink:href="#dirArrow" transform="rotate(90) translate(36 -43)" onmousedown="handlePan(1,0)">
                  <use xlink:href="#rim" fill="#404040">
                        <set attributeName="fill" to="#808080" begin="arrowRight.mouseover" end="arrowRight.mouseout"/>
                  </use>
                  <path fill="none" stroke="white" stroke-width="1.5" d="M0,-3.0v7 M-2.5,-0.5L0,-3.0L2.5,-0.5"/>
                </g>
                <g id="arrowDown" xlink:href="#dirArrow" transform="rotate(180) translate(-30 -48)" onmousedown="handlePan(0,1)">
                  <use xlink:href="#rim" fill="#404040">
                        <set attributeName="fill" to="#808080" begin="arrowDown.mouseover" end="arrowDown.mouseout"/>
                  </use>
                  <path fill="none" stroke="white" stroke-width="1.5" d="M0,-3.0v7 M-2.5,-0.5L0,-3.0L2.5,-0.5"/>
                </g>
                <g id="arrowLeft" xlink:href="#dirArrow" transform="rotate(270) translate(-36 17)" onmousedown="handlePan(-1,0)">
                  <use xlink:href="#rim" fill="#404040">
                        <set attributeName="fill" to="#808080" begin="arrowLeft.mouseover" end="arrowLeft.mouseout"/>
                  </use>
                  <path fill="none" stroke="white" stroke-width="1.5" d="M0,-3.0v7 M-2.5,-0.5L0,-3.0L2.5,-0.5"/>
                </g>
        </g>
        <svg viewBox="0 0 15 15" width="100%" height="30px" preserveAspectRatio="xMaxYMin meet">
         <g id="arrow_out" transform="scale(0.3 0.3)">
          <a xlink:href="classAP__Gripper_a0ab7a524f9fc267b0a68eb3076702936_icgraph_org.svg" target="_base">
           <rect id="button" ry="5" rx="5" y="6" x="6" height="38" width="38"
                fill="#f2f5e9" fill-opacity="0.5" stroke="#606060" stroke-width="1.0"/>
           <path id="arrow"
             d="M 11.500037,31.436501 C 11.940474,20.09759 22.043105,11.32322 32.158766,21.979434 L 37.068811,17.246167 C 37.068811,17.246167 37.088388,32 37.088388,32 L 22.160133,31.978069 C 22.160133,31.978069 26.997745,27.140456 26.997745,27.140456 C 18.528582,18.264221 13.291696,25.230495 11.500037,31.436501 z"
             style="fill:#404040;"/>
          </a>
         </g>
        </svg>
</svg>
