<?xml version="1.0" encoding="UTF-8" standalone="no"?>
<!DOCTYPE svg PUBLIC "-//W3C//DTD SVG 1.1//EN"
 "http://www.w3.org/Graphics/SVG/1.1/DTD/svg11.dtd">
<!-- Generated by graphviz version 2.30.1 (20130221.2233)
 -->
<!-- Title: ChibiOS::Scheduler::system_initialized Pages: 1 -->
<svg width="378pt" height="79pt"
 viewBox="0.00 0.00 378.00 79.00" xmlns="http://www.w3.org/2000/svg" xmlns:xlink="http://www.w3.org/1999/xlink">
<g id="graph0" class="graph" transform="scale(1 1) rotate(0) translate(4 75)">
<title>ChibiOS::Scheduler::system_initialized</title>
<polygon fill="white" stroke="white" points="-4,5 -4,-75 375,-75 375,5 -4,5"/>
<!-- Node295 -->
<g id="node1" class="node"><title>Node295</title>
<g id="a_node1"><a xlink:title=" ">
<polygon fill="#bfbfbf" stroke="black" points="0.0888672,-22 0.0888672,-54 103.911,-54 103.911,-22 0.0888672,-22"/>
<text text-anchor="start" x="8.08887" y="-40" font-family="Helvetica,sans-Serif" font-size="10.00">ChibiOS::Scheduler</text>
<text text-anchor="middle" x="52" y="-28" font-family="Helvetica,sans-Serif" font-size="10.00">::system_initialized</text>
</a>
</g>
</g>
<!-- Node296 -->
<g id="node2" class="node"><title>Node296</title>
<g id="a_node2"><a xlink:href="namespaceAP__HAL.html#a71832f03d849a0c088f04fc98d3c8143" target="_top" xlink:title=" ">
<polygon fill="white" stroke="black" points="140.091,-28 140.091,-48 223.909,-48 223.909,-28 140.091,-28"/>
<text text-anchor="middle" x="182" y="-34" font-family="Helvetica,sans-Serif" font-size="10.00">AP_HAL::panic</text>
</a>
</g>
</g>
<!-- Node295&#45;&gt;Node296 -->
<g id="edge1" class="edge"><title>Node295&#45;&gt;Node296</title>
<path fill="none" stroke="midnightblue" d="M103.957,-38C112.482,-38 121.329,-38 129.859,-38"/>
<polygon fill="midnightblue" stroke="midnightblue" points="130.063,-41.5001 140.063,-38 130.063,-34.5001 130.063,-41.5001"/>
</g>
<!-- Node297 -->
<g id="node3" class="node"><title>Node297</title>
<g id="a_node3"><a xlink:href="stdio_8h.html#aae132cc6af1eb6cf43bf011d8d63e854" target="_top" xlink:title=" ">
<polygon fill="white" stroke="black" points="293.384,-51 293.384,-71 336.616,-71 336.616,-51 293.384,-51"/>
<text text-anchor="middle" x="315" y="-57" font-family="Helvetica,sans-Serif" font-size="10.00">vprintf</text>
</a>
</g>
</g>
<!-- Node296&#45;&gt;Node297 -->
<g id="edge2" class="edge"><title>Node296&#45;&gt;Node297</title>
<path fill="none" stroke="midnightblue" d="M224.09,-45.2142C243.104,-48.5526 265.321,-52.4533 282.913,-55.542"/>
<polygon fill="midnightblue" stroke="midnightblue" points="282.744,-59.0658 293.199,-57.3478 283.954,-52.1712 282.744,-59.0658"/>
</g>
<!-- Node298 -->
<g id="node4" class="node"><title>Node298</title>
<g id="a_node4"><a xlink:href="classAP__HAL_1_1Scheduler.html#a78c4f1b1f192ac1c99544b6cc8f099b0" target="_top" xlink:title=" ">
<polygon fill="white" stroke="black" points="259.751,-0 259.751,-32 370.249,-32 370.249,-0 259.751,-0"/>
<text text-anchor="start" x="267.751" y="-18" font-family="Helvetica,sans-Serif" font-size="10.00">AP_HAL::Scheduler::</text>
<text text-anchor="middle" x="315" y="-6" font-family="Helvetica,sans-Serif" font-size="10.00">delay_microseconds</text>
</a>
</g>
</g>
<!-- Node296&#45;&gt;Node298 -->
<g id="edge3" class="edge"><title>Node296&#45;&gt;Node298</title>
<path fill="none" stroke="midnightblue" d="M224.09,-31.0994C232.18,-29.7408 240.849,-28.2849 249.495,-26.8329"/>
<polygon fill="midnightblue" stroke="midnightblue" points="250.316,-30.2441 259.599,-25.1361 249.157,-23.3407 250.316,-30.2441"/>
</g>
</g>
</svg>
