<?xml version="1.0" encoding="UTF-8" standalone="no"?>
<!DOCTYPE svg PUBLIC "-//W3C//DTD SVG 1.1//EN"
 "http://www.w3.org/Graphics/SVG/1.1/DTD/svg11.dtd">
<!-- Generated by graphviz version 2.30.1 (20130221.2233)
 -->
<!-- Title: Linux::RCOutput_PRU::push Pages: 1 -->
<svg width="280pt" height="40pt"
 viewBox="0.00 0.00 280.00 40.00" xmlns="http://www.w3.org/2000/svg" xmlns:xlink="http://www.w3.org/1999/xlink">
<g id="graph0" class="graph" transform="scale(1 1) rotate(0) translate(4 36)">
<title>Linux::RCOutput_PRU::push</title>
<polygon fill="white" stroke="white" points="-4,5 -4,-36 277,-36 277,5 -4,5"/>
<!-- Node30 -->
<g id="node1" class="node"><title>Node30</title>
<g id="a_node1"><a xlink:title=" ">
<polygon fill="#bfbfbf" stroke="black" points="0.699707,-0 0.699707,-32 117.3,-32 117.3,-0 0.699707,-0"/>
<text text-anchor="start" x="8.69971" y="-18" font-family="Helvetica,sans-Serif" font-size="10.00">Linux::RCOutput_PRU</text>
<text text-anchor="middle" x="59" y="-6" font-family="Helvetica,sans-Serif" font-size="10.00">::push</text>
</a>
</g>
</g>
<!-- Node31 -->
<g id="node2" class="node"><title>Node31</title>
<g id="a_node2"><a xlink:href="classLinux_1_1RCOutput__PRU.html#ab561af2c6eca7ea81bd9b699c6bd9ce8" target="_top" xlink:title=" ">
<polygon fill="white" stroke="black" points="154.7,-0 154.7,-32 271.3,-32 271.3,-0 154.7,-0"/>
<text text-anchor="start" x="162.7" y="-18" font-family="Helvetica,sans-Serif" font-size="10.00">Linux::RCOutput_PRU</text>
<text text-anchor="middle" x="213" y="-6" font-family="Helvetica,sans-Serif" font-size="10.00">::write</text>
</a>
</g>
</g>
<!-- Node30&#45;&gt;Node31 -->
<g id="edge1" class="edge"><title>Node30&#45;&gt;Node31</title>
<path fill="none" stroke="midnightblue" d="M117.465,-16C126.26,-16 135.409,-16 144.399,-16"/>
<polygon fill="midnightblue" stroke="midnightblue" points="144.454,-19.5001 154.454,-16 144.454,-12.5001 144.454,-19.5001"/>
</g>
</g>
</svg>
