<?xml version="1.0" encoding="UTF-8" standalone="no"?>
<!DOCTYPE svg PUBLIC "-//W3C//DTD SVG 1.1//EN"
 "http://www.w3.org/Graphics/SVG/1.1/DTD/svg11.dtd">
<!-- Generated by graphviz version 2.30.1 (20130221.2233)
 -->
<!-- Title: AP_Landing::type_slope_is_flaring Pages: 1 -->
<svg width="638pt" height="139pt"
 viewBox="0.00 0.00 638.00 138.92" xmlns="http://www.w3.org/2000/svg" xmlns:xlink="http://www.w3.org/1999/xlink">
<g id="graph0" class="graph" transform="scale(1 1) rotate(0) translate(4 134.92)">
<title>AP_Landing::type_slope_is_flaring</title>
<polygon fill="white" stroke="white" points="-4,5 -4,-134.92 635,-134.92 635,5 -4,5"/>
<!-- Node1131 -->
<g id="node1" class="node"><title>Node1131</title>
<g id="a_node1"><a xlink:title=" ">
<polygon fill="#bfbfbf" stroke="black" points="505.791,-36.9197 505.791,-68.9197 630.209,-68.9197 630.209,-36.9197 505.791,-36.9197"/>
<text text-anchor="start" x="513.791" y="-54.9197" font-family="Helvetica,sans-Serif" font-size="10.00">AP_Landing::type_slope</text>
<text text-anchor="middle" x="568" y="-42.9197" font-family="Helvetica,sans-Serif" font-size="10.00">_is_flaring</text>
</a>
</g>
</g>
<!-- Node1132 -->
<g id="node2" class="node"><title>Node1132</title>
<g id="a_node2"><a xlink:href="classAP__Landing.html#a5ff74bf65eb1a4083cc783af22276828" target="_top" xlink:title=" ">
<polygon fill="white" stroke="black" points="353.966,-42.9197 353.966,-62.9197 470.034,-62.9197 470.034,-42.9197 353.966,-42.9197"/>
<text text-anchor="middle" x="412" y="-48.9197" font-family="Helvetica,sans-Serif" font-size="10.00">AP_Landing::is_flaring</text>
</a>
</g>
</g>
<!-- Node1131&#45;&gt;Node1132 -->
<g id="edge1" class="edge"><title>Node1131&#45;&gt;Node1132</title>
<path fill="none" stroke="midnightblue" d="M495.69,-52.9197C487.109,-52.9197 478.435,-52.9197 470.094,-52.9197"/>
<polygon fill="midnightblue" stroke="midnightblue" points="495.693,-56.4198 505.693,-52.9197 495.693,-49.4198 495.693,-56.4198"/>
</g>
<!-- Node1133 -->
<g id="node3" class="node"><title>Node1133</title>
<g id="a_node3"><a xlink:href="classAP__TECS.html#a7318e1b5998b99f4febe0d53040c5744" target="_top" xlink:title=" ">
<polygon fill="white" stroke="black" points="159.843,-110.92 159.843,-130.92 318.157,-130.92 318.157,-110.92 159.843,-110.92"/>
<text text-anchor="middle" x="239" y="-116.92" font-family="Helvetica,sans-Serif" font-size="10.00">AP_TECS::_detect_underspeed</text>
</a>
</g>
</g>
<!-- Node1132&#45;&gt;Node1133 -->
<g id="edge2" class="edge"><title>Node1132&#45;&gt;Node1133</title>
<path fill="none" stroke="midnightblue" d="M385.528,-68.0567C367.232,-78.4291 341.715,-91.8921 318,-100.92 307.94,-104.749 296.875,-108.085 286.32,-110.876"/>
<polygon fill="midnightblue" stroke="midnightblue" points="387.47,-70.9774 394.39,-62.9542 383.977,-64.9111 387.47,-70.9774"/>
</g>
<!-- Node1135 -->
<g id="node5" class="node"><title>Node1135</title>
<g id="a_node5"><a xlink:href="classAP__TECS.html#a91aeb22f68e2957bfad6285ec41182cf" target="_top" xlink:title=" ">
<polygon fill="white" stroke="black" points="170.958,-59.9197 170.958,-91.9197 307.042,-91.9197 307.042,-59.9197 170.958,-59.9197"/>
<text text-anchor="start" x="178.958" y="-77.9197" font-family="Helvetica,sans-Serif" font-size="10.00">AP_TECS::_update_height</text>
<text text-anchor="middle" x="239" y="-65.9197" font-family="Helvetica,sans-Serif" font-size="10.00">_demand</text>
</a>
</g>
</g>
<!-- Node1132&#45;&gt;Node1135 -->
<g id="edge4" class="edge"><title>Node1132&#45;&gt;Node1135</title>
<path fill="none" stroke="midnightblue" d="M343.322,-62.0225C331.478,-63.6156 319.157,-65.2729 307.322,-66.8647"/>
<polygon fill="midnightblue" stroke="midnightblue" points="344.14,-65.4442 353.584,-60.6423 343.206,-58.5067 344.14,-65.4442"/>
</g>
<!-- Node1136 -->
<g id="node6" class="node"><title>Node1136</title>
<g id="a_node6"><a xlink:href="classAP__TECS.html#a7854ecaf0d95d9da406568583f6e287f" target="_top" xlink:title=" ">
<polygon fill="white" stroke="black" points="174.02,-20.9197 174.02,-40.9197 303.98,-40.9197 303.98,-20.9197 174.02,-20.9197"/>
<text text-anchor="middle" x="239" y="-26.9197" font-family="Helvetica,sans-Serif" font-size="10.00">AP_TECS::_update_pitch</text>
</a>
</g>
</g>
<!-- Node1132&#45;&gt;Node1136 -->
<g id="edge6" class="edge"><title>Node1132&#45;&gt;Node1136</title>
<path fill="none" stroke="midnightblue" d="M343.344,-44.2153C330.392,-42.549 316.869,-40.8092 304.035,-39.1581"/>
<polygon fill="midnightblue" stroke="midnightblue" points="343.219,-47.7281 353.584,-45.5328 344.112,-40.7853 343.219,-47.7281"/>
</g>
<!-- Node1134 -->
<g id="node4" class="node"><title>Node1134</title>
<g id="a_node4"><a xlink:href="classAP__TECS.html#aa8bb2218960edb71526d380f752b411e" target="_top" xlink:title=" ">
<polygon fill="white" stroke="black" points="-0.199219,-36.9197 -0.199219,-68.9197 124.199,-68.9197 124.199,-36.9197 -0.199219,-36.9197"/>
<text text-anchor="start" x="7.80078" y="-54.9197" font-family="Helvetica,sans-Serif" font-size="10.00">AP_TECS::update_pitch</text>
<text text-anchor="middle" x="62" y="-42.9197" font-family="Helvetica,sans-Serif" font-size="10.00">_throttle</text>
</a>
</g>
</g>
<!-- Node1132&#45;&gt;Node1134 -->
<g id="edge8" class="edge"><title>Node1132&#45;&gt;Node1134</title>
<path fill="none" stroke="midnightblue" d="M385.821,-38.0075C367.662,-28.1532 342.187,-16.128 318,-10.9197 249.351,3.86284 228.762,3.32777 160,-10.9197 135.921,-15.9089 110.473,-27.1824 91.6864,-36.7945"/>
<polygon fill="midnightblue" stroke="midnightblue" points="384.168,-41.093 394.605,-42.9152 387.582,-34.9821 384.168,-41.093"/>
</g>
<!-- Node1133&#45;&gt;Node1134 -->
<g id="edge3" class="edge"><title>Node1133&#45;&gt;Node1134</title>
<path fill="none" stroke="midnightblue" d="M182.266,-108.147C174.706,-105.974 167.108,-103.557 160,-100.92 136.218,-92.0967 110.544,-79.2308 91.5867,-69.0396"/>
<polygon fill="midnightblue" stroke="midnightblue" points="181.568,-111.585 192.138,-110.859 183.423,-104.835 181.568,-111.585"/>
</g>
<!-- Node1135&#45;&gt;Node1134 -->
<g id="edge5" class="edge"><title>Node1135&#45;&gt;Node1134</title>
<path fill="none" stroke="midnightblue" d="M160.678,-65.7574C148.479,-64.1541 136.013,-62.5157 124.245,-60.969"/>
<polygon fill="midnightblue" stroke="midnightblue" points="160.47,-69.2601 170.841,-67.0931 161.382,-62.3197 160.47,-69.2601"/>
</g>
<!-- Node1136&#45;&gt;Node1134 -->
<g id="edge7" class="edge"><title>Node1136&#45;&gt;Node1134</title>
<path fill="none" stroke="midnightblue" d="M163.841,-40.2426C150.645,-41.9015 137.035,-43.6124 124.249,-45.2198"/>
<polygon fill="midnightblue" stroke="midnightblue" points="164.345,-43.7068 173.83,-38.9867 163.472,-36.7615 164.345,-43.7068"/>
</g>
</g>
</svg>
