<?xml version="1.0" encoding="UTF-8" standalone="no"?>
<!DOCTYPE svg PUBLIC "-//W3C//DTD SVG 1.1//EN"
 "http://www.w3.org/Graphics/SVG/1.1/DTD/svg11.dtd">
<!-- Generated by graphviz version 2.30.1 (20130221.2233)
 -->
<!-- Title: AP_Logger::unit_name Pages: 1 -->
<!--zoomable 79 -->
<svg id="main" version="1.1" xmlns="http://www.w3.org/2000/svg" xmlns:xlink="http://www.w3.org/1999/xlink" xml:space="preserve" onload="init(evt)">
<style type="text/css"><![CDATA[
.edge:hover path { stroke: red; }
.edge:hover polygon { stroke: red; fill: red; }
]]></style>
<script type="text/javascript"><![CDATA[
var edges = document.getElementsByTagName('g');
if (edges && edges.length) {
  for (var i=0;i<edges.length;i++) {
    if (edges[i].id.substr(0,4)=='edge') {
      edges[i].setAttribute('class','edge');
    }
  }
}
]]></script>
        <defs>
                <circle id="rim" cx="0" cy="0" r="7"/>
                <circle id="rim2" cx="0" cy="0" r="3.5"/>
                <g id="zoomPlus">
                        <use xlink:href="#rim" fill="#404040">
                                <set attributeName="fill" to="#808080" begin="zoomplus.mouseover" end="zoomplus.mouseout"/>
                        </use>
                        <path d="M-4,0h8M0,-4v8" fill="none" stroke="white" stroke-width="1.5" pointer-events="none"/>
                </g>
                <g id="zoomMin">
                        <use xlink:href="#rim" fill="#404040">
                                <set attributeName="fill" to="#808080" begin="zoomminus.mouseover" end="zoomminus.mouseout"/>
                        </use>
                        <path d="M-4,0h8" fill="none" stroke="white" stroke-width="1.5" pointer-events="none"/>
                </g>
                <g id="dirArrow">
                        <path fill="none" stroke="white" stroke-width="1.5" d="M0,-3.0v7 M-2.5,-0.5L0,-3.0L2.5,-0.5"/>
                </g>
               <g id="resetDef">
                       <use xlink:href="#rim2" fill="#404040">
                               <set attributeName="fill" to="#808080" begin="reset.mouseover" end="reset.mouseout"/>
                       </use>
               </g>
        </defs>

<script type="text/javascript">
var viewWidth = 848;
var viewHeight = 79;
var sectionId = 'dynsection-81';
</script>
<script xlink:href="svgpan.js"/>
<svg id="graph" class="graph">
<g id="viewport">
<title>AP_Logger::unit_name</title>
<polygon fill="white" stroke="white" points="-4,5 -4,-75 845,-75 845,5 -4,5"/>
<!-- Node3075 -->
<g id="node1" class="node"><title>Node3075</title>
<g id="a_node1"><a xlink:title="return a unit name given its ID">
<polygon fill="#bfbfbf" stroke="black" points="721.853,-28 721.853,-48 840.147,-48 840.147,-28 721.853,-28"/>
<text text-anchor="middle" x="781" y="-34" font-family="Helvetica,sans-Serif" font-size="10.00">AP_Logger::unit_name</text>
</a>
</g>
</g>
<!-- Node3076 -->
<g id="node2" class="node"><title>Node3076</title>
<g id="a_node2"><a xlink:href="classAP__Logger.html#a7b6a7e80bc9acd50a4f91fbb154481cf" target="_top" xlink:title="pretty&#45;print field information from a log structure">
<polygon fill="white" stroke="black" points="544.463,-22 544.463,-54 685.537,-54 685.537,-22 544.463,-22"/>
<text text-anchor="start" x="552.463" y="-40" font-family="Helvetica,sans-Serif" font-size="10.00">AP_Logger::dump_structure</text>
<text text-anchor="middle" x="615" y="-28" font-family="Helvetica,sans-Serif" font-size="10.00">_field</text>
</a>
</g>
</g>
<!-- Node3075&#45;&gt;Node3076 -->
<g id="edge1" class="edge"><title>Node3075&#45;&gt;Node3076</title>
<path fill="none" stroke="midnightblue" d="M711.709,-38C703.081,-38 694.245,-38 685.597,-38"/>
<polygon fill="midnightblue" stroke="midnightblue" points="711.718,-41.5001 721.718,-38 711.718,-34.5001 711.718,-41.5001"/>
</g>
<!-- Node3077 -->
<g id="node3" class="node"><title>Node3077</title>
<g id="a_node3"><a xlink:href="classAP__Logger.html#a65e51e576603dc1967ffd557251e6b1e" target="_top" xlink:title=" ">
<polygon fill="white" stroke="black" points="361.963,-28 361.963,-48 508.037,-48 508.037,-28 361.963,-28"/>
<text text-anchor="middle" x="435" y="-34" font-family="Helvetica,sans-Serif" font-size="10.00">AP_Logger::dump_structures</text>
</a>
</g>
</g>
<!-- Node3076&#45;&gt;Node3077 -->
<g id="edge2" class="edge"><title>Node3076&#45;&gt;Node3077</title>
<path fill="none" stroke="midnightblue" d="M534.283,-38C525.588,-38 516.773,-38 508.176,-38"/>
<polygon fill="midnightblue" stroke="midnightblue" points="534.416,-41.5001 544.416,-38 534.416,-34.5001 534.416,-41.5001"/>
</g>
<!-- Node3078 -->
<g id="node4" class="node"><title>Node3078</title>
<g id="a_node4"><a xlink:href="classAP__Logger.html#aa19c7f5df95f61941519af6ea79abba4" target="_top" xlink:title=" ">
<polygon fill="white" stroke="black" points="240.532,-28 240.532,-48 325.468,-48 325.468,-28 240.532,-28"/>
<text text-anchor="middle" x="283" y="-34" font-family="Helvetica,sans-Serif" font-size="10.00">AP_Logger::Init</text>
</a>
</g>
</g>
<!-- Node3077&#45;&gt;Node3078 -->
<g id="edge3" class="edge"><title>Node3077&#45;&gt;Node3078</title>
<path fill="none" stroke="midnightblue" d="M351.563,-38C342.671,-38 333.919,-38 325.815,-38"/>
<polygon fill="midnightblue" stroke="midnightblue" points="351.636,-41.5001 361.636,-38 351.636,-34.5001 351.636,-41.5001"/>
</g>
<!-- Node3079 -->
<g id="node5" class="node"><title>Node3079</title>
<g id="a_node5"><a xlink:href="classAP__LoggerTest.html#aca46d87fae28f0ebe3257896fdbd5c40" target="_top" xlink:title=" ">
<polygon fill="white" stroke="black" points="82.8008,-51 82.8008,-71 197.199,-71 197.199,-51 82.8008,-51"/>
<text text-anchor="middle" x="140" y="-57" font-family="Helvetica,sans-Serif" font-size="10.00">AP_LoggerTest::setup</text>
</a>
</g>
</g>
<!-- Node3078&#45;&gt;Node3079 -->
<g id="edge4" class="edge"><title>Node3078&#45;&gt;Node3079</title>
<path fill="none" stroke="midnightblue" d="M230.395,-46.4178C219.661,-48.1688 208.295,-50.0228 197.398,-51.8003"/>
<polygon fill="midnightblue" stroke="midnightblue" points="231.152,-49.8407 240.458,-44.7764 230.025,-42.932 231.152,-49.8407"/>
</g>
<!-- Node3081 -->
<g id="node7" class="node"><title>Node3081</title>
<g id="a_node7"><a xlink:href="classAP__LoggerTest__AllTypes.html#a93e926d0e63034d3d7cb05658a1cf0b9" target="_top" xlink:title=" ">
<polygon fill="white" stroke="black" points="76.1309,-0 76.1309,-32 203.869,-32 203.869,-0 76.1309,-0"/>
<text text-anchor="start" x="84.1309" y="-18" font-family="Helvetica,sans-Serif" font-size="10.00">AP_LoggerTest_AllTypes</text>
<text text-anchor="middle" x="140" y="-6" font-family="Helvetica,sans-Serif" font-size="10.00">::setup</text>
</a>
</g>
</g>
<!-- Node3078&#45;&gt;Node3081 -->
<g id="edge6" class="edge"><title>Node3078&#45;&gt;Node3081</title>
<path fill="none" stroke="midnightblue" d="M230.535,-29.97C221.892,-28.6214 212.836,-27.2084 203.942,-25.8207"/>
<polygon fill="midnightblue" stroke="midnightblue" points="230.038,-33.4347 240.458,-31.5183 231.117,-26.5184 230.038,-33.4347"/>
</g>
<!-- Node3080 -->
<g id="node6" class="node"><title>Node3080</title>
<g id="a_node6"><a xlink:href="AP__Logger__test_8cpp.html#a7dfd9b79bc5a37d7df40207afbc5431f" target="_top" xlink:title=" ">
<polygon fill="white" stroke="black" points="-0.231445,-51 -0.231445,-71 40.2314,-71 40.2314,-51 -0.231445,-51"/>
<text text-anchor="middle" x="20" y="-57" font-family="Helvetica,sans-Serif" font-size="10.00">setup</text>
</a>
</g>
</g>
<!-- Node3079&#45;&gt;Node3080 -->
<g id="edge5" class="edge"><title>Node3079&#45;&gt;Node3080</title>
<path fill="none" stroke="midnightblue" d="M72.4454,-61C60.7669,-61 49.4898,-61 40.4853,-61"/>
<polygon fill="midnightblue" stroke="midnightblue" points="72.7648,-64.5001 82.7647,-61 72.7647,-57.5001 72.7648,-64.5001"/>
</g>
</g>
</svg>
        <g id="navigator" transform="translate(0 0)" fill="#404254">
                <rect fill="#f2f5e9" fill-opacity="0.5" stroke="#606060" stroke-width=".5" x="0" y="0" width="60" height="60"/>
                <use id="zoomplus" xlink:href="#zoomPlus" x="17" y="9" onmousedown="handleZoom(evt,'in')"/>
                <use id="zoomminus" xlink:href="#zoomMin" x="42" y="9" onmousedown="handleZoom(evt,'out')"/>
                <use id="reset" xlink:href="#resetDef" x="30" y="36" onmousedown="handleReset()"/>
                <g id="arrowUp" xlink:href="#dirArrow" transform="translate(30 24)" onmousedown="handlePan(0,-1)">
                  <use xlink:href="#rim" fill="#404040">
                        <set attributeName="fill" to="#808080" begin="arrowUp.mouseover" end="arrowUp.mouseout"/>
                  </use>
                  <path fill="none" stroke="white" stroke-width="1.5" d="M0,-3.0v7 M-2.5,-0.5L0,-3.0L2.5,-0.5"/>
                </g>
                <g id="arrowRight" xlink:href="#dirArrow" transform="rotate(90) translate(36 -43)" onmousedown="handlePan(1,0)">
                  <use xlink:href="#rim" fill="#404040">
                        <set attributeName="fill" to="#808080" begin="arrowRight.mouseover" end="arrowRight.mouseout"/>
                  </use>
                  <path fill="none" stroke="white" stroke-width="1.5" d="M0,-3.0v7 M-2.5,-0.5L0,-3.0L2.5,-0.5"/>
                </g>
                <g id="arrowDown" xlink:href="#dirArrow" transform="rotate(180) translate(-30 -48)" onmousedown="handlePan(0,1)">
                  <use xlink:href="#rim" fill="#404040">
                        <set attributeName="fill" to="#808080" begin="arrowDown.mouseover" end="arrowDown.mouseout"/>
                  </use>
                  <path fill="none" stroke="white" stroke-width="1.5" d="M0,-3.0v7 M-2.5,-0.5L0,-3.0L2.5,-0.5"/>
                </g>
                <g id="arrowLeft" xlink:href="#dirArrow" transform="rotate(270) translate(-36 17)" onmousedown="handlePan(-1,0)">
                  <use xlink:href="#rim" fill="#404040">
                        <set attributeName="fill" to="#808080" begin="arrowLeft.mouseover" end="arrowLeft.mouseout"/>
                  </use>
                  <path fill="none" stroke="white" stroke-width="1.5" d="M0,-3.0v7 M-2.5,-0.5L0,-3.0L2.5,-0.5"/>
                </g>
        </g>
        <svg viewBox="0 0 15 15" width="100%" height="30px" preserveAspectRatio="xMaxYMin meet">
         <g id="arrow_out" transform="scale(0.3 0.3)">
          <a xlink:href="classAP__Logger_ab3a123347394dd2d54622ec119f6bca8_icgraph_org.svg" target="_base">
           <rect id="button" ry="5" rx="5" y="6" x="6" height="38" width="38"
                fill="#f2f5e9" fill-opacity="0.5" stroke="#606060" stroke-width="1.0"/>
           <path id="arrow"
             d="M 11.500037,31.436501 C 11.940474,20.09759 22.043105,11.32322 32.158766,21.979434 L 37.068811,17.246167 C 37.068811,17.246167 37.088388,32 37.088388,32 L 22.160133,31.978069 C 22.160133,31.978069 26.997745,27.140456 26.997745,27.140456 C 18.528582,18.264221 13.291696,25.230495 11.500037,31.436501 z"
             style="fill:#404040;"/>
          </a>
         </g>
        </svg>
</svg>
