<?xml version="1.0" encoding="UTF-8" standalone="no"?>
<!DOCTYPE svg PUBLIC "-//W3C//DTD SVG 1.1//EN"
 "http://www.w3.org/Graphics/SVG/1.1/DTD/svg11.dtd">
<!-- Generated by graphviz version 2.30.1 (20130221.2233)
 -->
<!-- Title: AP_GPS_ERB::_parse_gps Pages: 1 -->
<svg width="484pt" height="118pt"
 viewBox="0.00 0.00 484.00 118.00" xmlns="http://www.w3.org/2000/svg" xmlns:xlink="http://www.w3.org/1999/xlink">
<g id="graph0" class="graph" transform="scale(1 1) rotate(0) translate(4 114)">
<title>AP_GPS_ERB::_parse_gps</title>
<polygon fill="white" stroke="white" points="-4,5 -4,-114 481,-114 481,5 -4,5"/>
<!-- Node12 -->
<g id="node1" class="node"><title>Node12</title>
<g id="a_node1"><a xlink:title=" ">
<polygon fill="#bfbfbf" stroke="black" points="0.0200195,-39 0.0200195,-59 139.98,-59 139.98,-39 0.0200195,-39"/>
<text text-anchor="middle" x="70" y="-45" font-family="Helvetica,sans-Serif" font-size="10.00">AP_GPS_ERB::_parse_gps</text>
</a>
</g>
</g>
<!-- Node13 -->
<g id="node2" class="node"><title>Node13</title>
<g id="a_node2"><a xlink:href="classAP__GPS__Backend.html#a96c6ef3ac3944b0bce17924537cd19c8" target="_top" xlink:title=" ">
<polygon fill="white" stroke="black" points="176.303,-78 176.303,-110 295.697,-110 295.697,-78 176.303,-78"/>
<text text-anchor="start" x="184.303" y="-96" font-family="Helvetica,sans-Serif" font-size="10.00">AP_GPS_Backend::set</text>
<text text-anchor="middle" x="236" y="-84" font-family="Helvetica,sans-Serif" font-size="10.00">_uart_timestamp</text>
</a>
</g>
</g>
<!-- Node12&#45;&gt;Node13 -->
<g id="edge1" class="edge"><title>Node12&#45;&gt;Node13</title>
<path fill="none" stroke="midnightblue" d="M107.805,-59.0989C125.173,-63.8645 146.474,-69.7094 166.643,-75.2435"/>
<polygon fill="midnightblue" stroke="midnightblue" points="165.861,-78.6583 176.431,-77.9292 167.713,-71.9078 165.861,-78.6583"/>
</g>
<!-- Node15 -->
<g id="node4" class="node"><title>Node15</title>
<g id="a_node4"><a xlink:href="namespaceAP__HAL.html#a77dffbb18891996280308e21316ec186" target="_top" xlink:title=" ">
<polygon fill="white" stroke="black" points="194.936,-39 194.936,-59 277.064,-59 277.064,-39 194.936,-39"/>
<text text-anchor="middle" x="236" y="-45" font-family="Helvetica,sans-Serif" font-size="10.00">AP_HAL::millis</text>
</a>
</g>
</g>
<!-- Node12&#45;&gt;Node15 -->
<g id="edge3" class="edge"><title>Node12&#45;&gt;Node15</title>
<path fill="none" stroke="midnightblue" d="M140.075,-49C154.864,-49 170.228,-49 184.178,-49"/>
<polygon fill="midnightblue" stroke="midnightblue" points="184.536,-52.5001 194.536,-49 184.536,-45.5001 184.536,-52.5001"/>
</g>
<!-- Node17 -->
<g id="node6" class="node"><title>Node17</title>
<g id="a_node6"><a xlink:href="AP__Math_8cpp.html#aac44349f9b159f31fc43fe924d52f7fc" target="_top" xlink:title=" ">
<polygon fill="white" stroke="black" points="206.04,-0 206.04,-20 265.96,-20 265.96,-0 206.04,-0"/>
<text text-anchor="middle" x="236" y="-6" font-family="Helvetica,sans-Serif" font-size="10.00">wrap_360</text>
</a>
</g>
</g>
<!-- Node12&#45;&gt;Node17 -->
<g id="edge5" class="edge"><title>Node12&#45;&gt;Node17</title>
<path fill="none" stroke="midnightblue" d="M113.234,-38.9565C138.759,-32.8867 171.066,-25.2038 195.987,-19.2774"/>
<polygon fill="midnightblue" stroke="midnightblue" points="196.912,-22.6553 205.831,-16.9366 195.292,-15.8452 196.912,-22.6553"/>
</g>
<!-- Node14 -->
<g id="node3" class="node"><title>Node14</title>
<g id="a_node3"><a xlink:href="classAP__HAL_1_1UARTDriver.html#a050efe232fa3e0106e5576ccc2538bd3" target="_top" xlink:title=" ">
<polygon fill="white" stroke="black" points="332.357,-78 332.357,-110 475.643,-110 475.643,-78 332.357,-78"/>
<text text-anchor="start" x="340.357" y="-96" font-family="Helvetica,sans-Serif" font-size="10.00">AP_HAL::UARTDriver</text>
<text text-anchor="middle" x="404" y="-84" font-family="Helvetica,sans-Serif" font-size="10.00">::receive_time_constraint_us</text>
</a>
</g>
</g>
<!-- Node13&#45;&gt;Node14 -->
<g id="edge2" class="edge"><title>Node13&#45;&gt;Node14</title>
<path fill="none" stroke="midnightblue" d="M295.993,-94C304.432,-94 313.234,-94 322.006,-94"/>
<polygon fill="midnightblue" stroke="midnightblue" points="322.266,-97.5001 332.266,-94 322.266,-90.5001 322.266,-97.5001"/>
</g>
<!-- Node16 -->
<g id="node5" class="node"><title>Node16</title>
<g id="a_node5"><a xlink:href="hrt_8c.html#a1295f128f60d29874243b5733c4db025" target="_top" xlink:title=" ">
<polygon fill="white" stroke="black" points="370.714,-39 370.714,-59 437.286,-59 437.286,-39 370.714,-39"/>
<text text-anchor="middle" x="404" y="-45" font-family="Helvetica,sans-Serif" font-size="10.00">hrt_millis32</text>
</a>
</g>
</g>
<!-- Node15&#45;&gt;Node16 -->
<g id="edge4" class="edge"><title>Node15&#45;&gt;Node16</title>
<path fill="none" stroke="midnightblue" d="M277.184,-49C302.4,-49 334.876,-49 360.517,-49"/>
<polygon fill="midnightblue" stroke="midnightblue" points="360.689,-52.5001 370.689,-49 360.689,-45.5001 360.689,-52.5001"/>
</g>
</g>
</svg>
