<?xml version="1.0" encoding="UTF-8" standalone="no"?>
<!DOCTYPE svg PUBLIC "-//W3C//DTD SVG 1.1//EN"
 "http://www.w3.org/Graphics/SVG/1.1/DTD/svg11.dtd">
<!-- Generated by graphviz version 2.30.1 (20130221.2233)
 -->
<!-- Title: CompassCalibrator::accept_sample Pages: 1 -->
<svg width="408pt" height="64pt"
 viewBox="0.00 0.00 408.00 64.00" xmlns="http://www.w3.org/2000/svg" xmlns:xlink="http://www.w3.org/1999/xlink">
<g id="graph0" class="graph" transform="scale(1 1) rotate(0) translate(4 60)">
<title>CompassCalibrator::accept_sample</title>
<polygon fill="white" stroke="white" points="-4,5 -4,-60 405,-60 405,5 -4,5"/>
<!-- Node94 -->
<g id="node1" class="node"><title>Node94</title>
<g id="a_node1"><a xlink:title=" ">
<polygon fill="#bfbfbf" stroke="black" points="0.428711,-1 0.428711,-33 107.571,-33 107.571,-1 0.428711,-1"/>
<text text-anchor="start" x="8.42871" y="-19" font-family="Helvetica,sans-Serif" font-size="10.00">CompassCalibrator::</text>
<text text-anchor="middle" x="54" y="-7" font-family="Helvetica,sans-Serif" font-size="10.00">accept_sample</text>
</a>
</g>
</g>
<!-- Node95 -->
<g id="node2" class="node"><title>Node95</title>
<g id="a_node2"><a xlink:href="classCompassCalibrator.html#a9a22a17905205cc721ba8b36a203057c" target="_top" xlink:title=" ">
<polygon fill="white" stroke="black" points="144.429,-24 144.429,-56 251.571,-56 251.571,-24 144.429,-24"/>
<text text-anchor="start" x="152.429" y="-42" font-family="Helvetica,sans-Serif" font-size="10.00">CompassCalibrator::</text>
<text text-anchor="middle" x="198" y="-30" font-family="Helvetica,sans-Serif" font-size="10.00">accept_sample</text>
</a>
</g>
</g>
<!-- Node94&#45;&gt;Node95 -->
<g id="edge1" class="edge"><title>Node94&#45;&gt;Node95</title>
<path fill="none" stroke="midnightblue" d="M107.876,-25.5644C116.377,-26.9413 125.25,-28.3785 133.961,-29.7894"/>
<polygon fill="midnightblue" stroke="midnightblue" points="133.649,-33.2845 144.08,-31.4285 134.769,-26.3746 133.649,-33.2845"/>
</g>
<!-- Node96 -->
<g id="node3" class="node"><title>Node96</title>
<g id="a_node3"><a xlink:href="classCompassCalibrator_1_1CompassSample.html#ac58b5be8d7e666d4e3e223c23a17b127" target="_top" xlink:title=" ">
<polygon fill="white" stroke="black" points="288.2,-1 288.2,-33 399.8,-33 399.8,-1 288.2,-1"/>
<text text-anchor="start" x="296.2" y="-19" font-family="Helvetica,sans-Serif" font-size="10.00">CompassCalibrator::</text>
<text text-anchor="middle" x="344" y="-7" font-family="Helvetica,sans-Serif" font-size="10.00">CompassSample::get</text>
</a>
</g>
</g>
<!-- Node94&#45;&gt;Node96 -->
<g id="edge3" class="edge"><title>Node94&#45;&gt;Node96</title>
<path fill="none" stroke="midnightblue" d="M107.705,-15.6199C119.639,-15.3618 132.255,-15.132 144,-15 191.997,-14.4608 204.003,-14.4726 252,-15 260.404,-15.0923 269.245,-15.2326 277.977,-15.397"/>
<polygon fill="midnightblue" stroke="midnightblue" points="278.078,-18.8996 288.145,-15.5995 278.217,-11.901 278.078,-18.8996"/>
</g>
<!-- Node95&#45;&gt;Node96 -->
<g id="edge2" class="edge"><title>Node95&#45;&gt;Node96</title>
<path fill="none" stroke="midnightblue" d="M251.803,-31.5662C260.226,-30.2209 269.027,-28.8151 277.698,-27.4302"/>
<polygon fill="midnightblue" stroke="midnightblue" points="278.463,-30.8524 287.786,-25.8189 277.359,-23.94 278.463,-30.8524"/>
</g>
</g>
</svg>
