<?xml version="1.0" encoding="UTF-8" standalone="no"?>
<!DOCTYPE svg PUBLIC "-//W3C//DTD SVG 1.1//EN"
 "http://www.w3.org/Graphics/SVG/1.1/DTD/svg11.dtd">
<!-- Generated by graphviz version 2.30.1 (20130221.2233)
 -->
<!-- Title: AP_Compass_LSM303D::_register_write Pages: 1 -->
<svg width="1328pt" height="181pt"
 viewBox="0.00 0.00 1328.00 181.00" xmlns="http://www.w3.org/2000/svg" xmlns:xlink="http://www.w3.org/1999/xlink">
<g id="graph0" class="graph" transform="scale(1 1) rotate(0) translate(4 177)">
<title>AP_Compass_LSM303D::_register_write</title>
<polygon fill="white" stroke="white" points="-4,5 -4,-177 1325,-177 1325,5 -4,5"/>
<!-- Node173 -->
<g id="node1" class="node"><title>Node173</title>
<g id="a_node1"><a xlink:title=" ">
<polygon fill="#bfbfbf" stroke="black" points="1192.42,-96 1192.42,-128 1319.58,-128 1319.58,-96 1192.42,-96"/>
<text text-anchor="start" x="1200.42" y="-114" font-family="Helvetica,sans-Serif" font-size="10.00">AP_Compass_LSM303D</text>
<text text-anchor="middle" x="1256" y="-102" font-family="Helvetica,sans-Serif" font-size="10.00">::_register_write</text>
</a>
</g>
</g>
<!-- Node174 -->
<g id="node2" class="node"><title>Node174</title>
<g id="a_node2"><a xlink:href="classAP__Compass__LSM303D.html#a1635b5f5fa18ced78dd1cd49b8aaa88c" target="_top" xlink:title=" ">
<polygon fill="white" stroke="black" points="1028.42,-141 1028.42,-173 1155.58,-173 1155.58,-141 1028.42,-141"/>
<text text-anchor="start" x="1036.42" y="-159" font-family="Helvetica,sans-Serif" font-size="10.00">AP_Compass_LSM303D</text>
<text text-anchor="middle" x="1092" y="-147" font-family="Helvetica,sans-Serif" font-size="10.00">::_disable_i2c</text>
</a>
</g>
</g>
<!-- Node173&#45;&gt;Node174 -->
<g id="edge1" class="edge"><title>Node173&#45;&gt;Node174</title>
<path fill="none" stroke="midnightblue" d="M1187.3,-130.805C1175.11,-134.192 1162.5,-137.695 1150.62,-140.994"/>
<polygon fill="midnightblue" stroke="midnightblue" points="1188.27,-134.168 1196.97,-128.119 1186.4,-127.423 1188.27,-134.168"/>
</g>
<!-- Node175 -->
<g id="node3" class="node"><title>Node175</title>
<g id="a_node3"><a xlink:href="classAP__Compass__LSM303D.html#ae6ae752e293784469ac821115832be7a" target="_top" xlink:title=" ">
<polygon fill="white" stroke="black" points="700.417,-73 700.417,-105 827.583,-105 827.583,-73 700.417,-73"/>
<text text-anchor="start" x="708.417" y="-91" font-family="Helvetica,sans-Serif" font-size="10.00">AP_Compass_LSM303D</text>
<text text-anchor="middle" x="764" y="-79" font-family="Helvetica,sans-Serif" font-size="10.00">::_hardware_init</text>
</a>
</g>
</g>
<!-- Node173&#45;&gt;Node175 -->
<g id="edge8" class="edge"><title>Node173&#45;&gt;Node175</title>
<path fill="none" stroke="midnightblue" d="M1181.72,-108.561C1085.58,-104.048 918.456,-96.2031 827.814,-91.9484"/>
<polygon fill="midnightblue" stroke="midnightblue" points="1181.79,-112.067 1191.94,-109.04 1182.12,-105.075 1181.79,-112.067"/>
</g>
<!-- Node181 -->
<g id="node9" class="node"><title>Node181</title>
<g id="a_node9"><a xlink:href="classAP__Compass__LSM303D.html#afcc5fea0baa9464a78289370c59248a8" target="_top" xlink:title=" ">
<polygon fill="white" stroke="black" points="1028.42,-51 1028.42,-83 1155.58,-83 1155.58,-51 1028.42,-51"/>
<text text-anchor="start" x="1036.42" y="-69" font-family="Helvetica,sans-Serif" font-size="10.00">AP_Compass_LSM303D</text>
<text text-anchor="middle" x="1092" y="-57" font-family="Helvetica,sans-Serif" font-size="10.00">::_register_modify</text>
</a>
</g>
</g>
<!-- Node173&#45;&gt;Node181 -->
<g id="edge9" class="edge"><title>Node173&#45;&gt;Node181</title>
<path fill="none" stroke="midnightblue" d="M1187.3,-93.1951C1175.11,-89.8075 1162.5,-86.3051 1150.62,-83.0064"/>
<polygon fill="midnightblue" stroke="midnightblue" points="1186.4,-96.5769 1196.97,-95.8811 1188.27,-89.8322 1186.4,-96.5769"/>
</g>
<!-- Node174&#45;&gt;Node175 -->
<g id="edge2" class="edge"><title>Node174&#45;&gt;Node175</title>
<path fill="none" stroke="midnightblue" d="M1017.91,-151.175C973.03,-146.576 914.634,-138.751 864,-126 843.004,-120.713 820.33,-112.439 801.985,-105.054"/>
<polygon fill="midnightblue" stroke="midnightblue" points="1017.85,-154.685 1028.14,-152.191 1018.54,-147.72 1017.85,-154.685"/>
</g>
<!-- Node176 -->
<g id="node4" class="node"><title>Node176</title>
<g id="a_node4"><a xlink:href="classAP__Compass__LSM303D.html#a8a56627c6487fbc701c4865f48e3edf4" target="_top" xlink:title=" ">
<polygon fill="white" stroke="black" points="536.417,-73 536.417,-105 663.583,-105 663.583,-73 536.417,-73"/>
<text text-anchor="start" x="544.417" y="-91" font-family="Helvetica,sans-Serif" font-size="10.00">AP_Compass_LSM303D</text>
<text text-anchor="middle" x="600" y="-79" font-family="Helvetica,sans-Serif" font-size="10.00">::init</text>
</a>
</g>
</g>
<!-- Node175&#45;&gt;Node176 -->
<g id="edge3" class="edge"><title>Node175&#45;&gt;Node176</title>
<path fill="none" stroke="midnightblue" d="M690.115,-89C681.31,-89 672.376,-89 663.734,-89"/>
<polygon fill="midnightblue" stroke="midnightblue" points="690.367,-92.5001 700.367,-89 690.367,-85.5001 690.367,-92.5001"/>
</g>
<!-- Node177 -->
<g id="node5" class="node"><title>Node177</title>
<g id="a_node5"><a xlink:href="classAP__Compass__LSM303D.html#a1633f14eb14b05dd82600ce9cc7827ec" target="_top" xlink:title=" ">
<polygon fill="white" stroke="black" points="372.417,-73 372.417,-105 499.583,-105 499.583,-73 372.417,-73"/>
<text text-anchor="start" x="380.417" y="-91" font-family="Helvetica,sans-Serif" font-size="10.00">AP_Compass_LSM303D</text>
<text text-anchor="middle" x="436" y="-79" font-family="Helvetica,sans-Serif" font-size="10.00">::probe</text>
</a>
</g>
</g>
<!-- Node176&#45;&gt;Node177 -->
<g id="edge4" class="edge"><title>Node176&#45;&gt;Node177</title>
<path fill="none" stroke="midnightblue" d="M526.115,-89C517.31,-89 508.376,-89 499.734,-89"/>
<polygon fill="midnightblue" stroke="midnightblue" points="526.367,-92.5001 536.367,-89 526.367,-85.5001 526.367,-92.5001"/>
</g>
<!-- Node178 -->
<g id="node6" class="node"><title>Node178</title>
<g id="a_node6"><a xlink:href="classCompass.html#a1c48170d8c8966b22fb150b1634443ec" target="_top" xlink:title=" ">
<polygon fill="white" stroke="black" points="190.518,-79 190.518,-99 335.482,-99 335.482,-79 190.518,-79"/>
<text text-anchor="middle" x="263" y="-85" font-family="Helvetica,sans-Serif" font-size="10.00">Compass::_detect_backends</text>
</a>
</g>
</g>
<!-- Node177&#45;&gt;Node178 -->
<g id="edge5" class="edge"><title>Node177&#45;&gt;Node178</title>
<path fill="none" stroke="midnightblue" d="M362.115,-89C353.352,-89 344.408,-89 335.662,-89"/>
<polygon fill="midnightblue" stroke="midnightblue" points="362.297,-92.5001 372.297,-89 362.297,-85.5001 362.297,-92.5001"/>
</g>
<!-- Node179 -->
<g id="node7" class="node"><title>Node179</title>
<g id="a_node7"><a xlink:href="classCompass.html#a79db6bfd3fe309c6258d783f126326c6" target="_top" xlink:title=" ">
<polygon fill="white" stroke="black" points="76.7119,-79 76.7119,-99 153.288,-99 153.288,-79 76.7119,-79"/>
<text text-anchor="middle" x="115" y="-85" font-family="Helvetica,sans-Serif" font-size="10.00">Compass::init</text>
</a>
</g>
</g>
<!-- Node178&#45;&gt;Node179 -->
<g id="edge6" class="edge"><title>Node178&#45;&gt;Node179</title>
<path fill="none" stroke="midnightblue" d="M180.187,-89C170.925,-89 161.856,-89 153.587,-89"/>
<polygon fill="midnightblue" stroke="midnightblue" points="180.283,-92.5001 190.283,-89 180.283,-85.5001 180.283,-92.5001"/>
</g>
<!-- Node180 -->
<g id="node8" class="node"><title>Node180</title>
<g id="a_node8"><a xlink:href="AHRS__Test_8cpp.html#a4fc01d736fe50cf5b977f755b675f11d" target="_top" xlink:title=" ">
<polygon fill="white" stroke="black" points="-0.231445,-79 -0.231445,-99 40.2314,-99 40.2314,-79 -0.231445,-79"/>
<text text-anchor="middle" x="20" y="-85" font-family="Helvetica,sans-Serif" font-size="10.00">setup</text>
</a>
</g>
</g>
<!-- Node179&#45;&gt;Node180 -->
<g id="edge7" class="edge"><title>Node179&#45;&gt;Node180</title>
<path fill="none" stroke="midnightblue" d="M66.6796,-89C57.3877,-89 48.1395,-89 40.4198,-89"/>
<polygon fill="midnightblue" stroke="midnightblue" points="66.7092,-92.5001 76.7092,-89 66.7092,-85.5001 66.7092,-92.5001"/>
</g>
<!-- Node182 -->
<g id="node10" class="node"><title>Node182</title>
<g id="a_node10"><a xlink:href="classAP__Compass__LSM303D.html#a76ec7361952f1ba74e237bb5225ad245" target="_top" xlink:title=" ">
<polygon fill="white" stroke="black" points="864.417,-51 864.417,-83 991.583,-83 991.583,-51 864.417,-51"/>
<text text-anchor="start" x="872.417" y="-69" font-family="Helvetica,sans-Serif" font-size="10.00">AP_Compass_LSM303D</text>
<text text-anchor="middle" x="928" y="-57" font-family="Helvetica,sans-Serif" font-size="10.00">::_mag_set_range</text>
</a>
</g>
</g>
<!-- Node181&#45;&gt;Node182 -->
<g id="edge10" class="edge"><title>Node181&#45;&gt;Node182</title>
<path fill="none" stroke="midnightblue" d="M1018.11,-67C1009.31,-67 1000.38,-67 991.734,-67"/>
<polygon fill="midnightblue" stroke="midnightblue" points="1018.37,-70.5001 1028.37,-67 1018.37,-63.5001 1018.37,-70.5001"/>
</g>
<!-- Node183 -->
<g id="node11" class="node"><title>Node183</title>
<g id="a_node11"><a xlink:href="classAP__Compass__LSM303D.html#a522c65ec81abba75b1450ffcb1e8fa6e" target="_top" xlink:title=" ">
<polygon fill="white" stroke="black" points="864.417,-0 864.417,-32 991.583,-32 991.583,-0 864.417,-0"/>
<text text-anchor="start" x="872.417" y="-18" font-family="Helvetica,sans-Serif" font-size="10.00">AP_Compass_LSM303D</text>
<text text-anchor="middle" x="928" y="-6" font-family="Helvetica,sans-Serif" font-size="10.00">::_mag_set_samplerate</text>
</a>
</g>
</g>
<!-- Node181&#45;&gt;Node183 -->
<g id="edge12" class="edge"><title>Node181&#45;&gt;Node183</title>
<path fill="none" stroke="midnightblue" d="M1030.16,-47.8465C1013.61,-42.6366 995.862,-37.0492 979.924,-32.0317"/>
<polygon fill="midnightblue" stroke="midnightblue" points="1029.15,-51.1988 1039.74,-50.8633 1031.25,-44.5219 1029.15,-51.1988"/>
</g>
<!-- Node182&#45;&gt;Node175 -->
<g id="edge11" class="edge"><title>Node182&#45;&gt;Node175</title>
<path fill="none" stroke="midnightblue" d="M854.402,-76.859C845.504,-78.0674 836.469,-79.2943 827.734,-80.4806"/>
<polygon fill="midnightblue" stroke="midnightblue" points="854.929,-80.3197 864.367,-75.5058 853.987,-73.3834 854.929,-80.3197"/>
</g>
<!-- Node183&#45;&gt;Node175 -->
<g id="edge13" class="edge"><title>Node183&#45;&gt;Node175</title>
<path fill="none" stroke="midnightblue" d="M875.787,-35.9547C871.784,-37.6264 867.817,-39.3202 864,-41 841.272,-51.003 816.098,-63.2246 796.823,-72.8321"/>
<polygon fill="midnightblue" stroke="midnightblue" points="877.219,-39.15 885.138,-32.111 874.558,-32.6756 877.219,-39.15"/>
</g>
</g>
</svg>
