<?xml version="1.0" encoding="UTF-8" standalone="no"?>
<!DOCTYPE svg PUBLIC "-//W3C//DTD SVG 1.1//EN"
 "http://www.w3.org/Graphics/SVG/1.1/DTD/svg11.dtd">
<!-- Generated by graphviz version 2.30.1 (20130221.2233)
 -->
<!-- Title: AP_GPS_Backend::_detection_message Pages: 1 -->
<!--zoomable 159 -->
<svg id="main" version="1.1" xmlns="http://www.w3.org/2000/svg" xmlns:xlink="http://www.w3.org/1999/xlink" xml:space="preserve" onload="init(evt)">
<style type="text/css"><![CDATA[
.edge:hover path { stroke: red; }
.edge:hover polygon { stroke: red; fill: red; }
]]></style>
<script type="text/javascript"><![CDATA[
var edges = document.getElementsByTagName('g');
if (edges && edges.length) {
  for (var i=0;i<edges.length;i++) {
    if (edges[i].id.substr(0,4)=='edge') {
      edges[i].setAttribute('class','edge');
    }
  }
}
]]></script>
        <defs>
                <circle id="rim" cx="0" cy="0" r="7"/>
                <circle id="rim2" cx="0" cy="0" r="3.5"/>
                <g id="zoomPlus">
                        <use xlink:href="#rim" fill="#404040">
                                <set attributeName="fill" to="#808080" begin="zoomplus.mouseover" end="zoomplus.mouseout"/>
                        </use>
                        <path d="M-4,0h8M0,-4v8" fill="none" stroke="white" stroke-width="1.5" pointer-events="none"/>
                </g>
                <g id="zoomMin">
                        <use xlink:href="#rim" fill="#404040">
                                <set attributeName="fill" to="#808080" begin="zoomminus.mouseover" end="zoomminus.mouseout"/>
                        </use>
                        <path d="M-4,0h8" fill="none" stroke="white" stroke-width="1.5" pointer-events="none"/>
                </g>
                <g id="dirArrow">
                        <path fill="none" stroke="white" stroke-width="1.5" d="M0,-3.0v7 M-2.5,-0.5L0,-3.0L2.5,-0.5"/>
                </g>
               <g id="resetDef">
                       <use xlink:href="#rim2" fill="#404040">
                               <set attributeName="fill" to="#808080" begin="reset.mouseover" end="reset.mouseout"/>
                       </use>
               </g>
        </defs>

<script type="text/javascript">
var viewWidth = 844;
var viewHeight = 159;
var sectionId = 'dynsection-2';
</script>
<script xlink:href="svgpan.js"/>
<svg id="graph" class="graph">
<g id="viewport">
<title>AP_GPS_Backend::_detection_message</title>
<polygon fill="white" stroke="white" points="-4,5 -4,-155 841,-155 841,5 -4,5"/>
<!-- Node4 -->
<g id="node1" class="node"><title>Node4</title>
<g id="a_node1"><a xlink:title=" ">
<polygon fill="#bfbfbf" stroke="black" points="-0.100586,-14 -0.100586,-46 152.101,-46 152.101,-14 -0.100586,-14"/>
<text text-anchor="start" x="7.89941" y="-32" font-family="Helvetica,sans-Serif" font-size="10.00">AP_GPS_Backend::_detection</text>
<text text-anchor="middle" x="76" y="-20" font-family="Helvetica,sans-Serif" font-size="10.00">_message</text>
</a>
</g>
</g>
<!-- Node5 -->
<g id="node2" class="node"><title>Node5</title>
<g id="a_node2"><a xlink:href="classAP__HAL_1_1Util.html#adead79890b223f40eaf092fda231c2f2" target="_top" xlink:title=" ">
<polygon fill="white" stroke="black" points="197.648,-40 197.648,-60 310.352,-60 310.352,-40 197.648,-40"/>
<text text-anchor="middle" x="254" y="-46" font-family="Helvetica,sans-Serif" font-size="10.00">AP_HAL::Util::snprintf</text>
</a>
</g>
</g>
<!-- Node4&#45;&gt;Node5 -->
<g id="edge1" class="edge"><title>Node4&#45;&gt;Node5</title>
<path fill="none" stroke="midnightblue" d="M152.15,-38.5398C163.929,-39.8783 176.022,-41.2525 187.56,-42.5636"/>
<polygon fill="midnightblue" stroke="midnightblue" points="187.203,-46.0455 197.534,-43.6971 187.993,-39.0903 187.203,-46.0455"/>
</g>
<!-- Node14 -->
<g id="node11" class="node"><title>Node14</title>
<g id="a_node11"><a xlink:href="classAP__GPS__Backend.html#ae0bb190b2b441f456544d0adc128052d" target="_top" xlink:title=" ">
<polygon fill="white" stroke="black" points="188.466,-1 188.466,-21 319.534,-21 319.534,-1 188.466,-1"/>
<text text-anchor="middle" x="254" y="-7" font-family="Helvetica,sans-Serif" font-size="10.00">AP_GPS_Backend::name</text>
</a>
</g>
</g>
<!-- Node4&#45;&gt;Node14 -->
<g id="edge12" class="edge"><title>Node4&#45;&gt;Node14</title>
<path fill="none" stroke="midnightblue" d="M152.15,-21.8872C160.813,-20.952 169.646,-19.9985 178.302,-19.064"/>
<polygon fill="midnightblue" stroke="midnightblue" points="178.797,-22.531 188.363,-17.9778 178.045,-15.5715 178.797,-22.531"/>
</g>
<!-- Node6 -->
<g id="node3" class="node"><title>Node6</title>
<g id="a_node3"><a xlink:href="classAP__HAL_1_1Util.html#ac57ef0a9815cd597ad5cab5d6c31c6c8" target="_top" xlink:title=" ">
<polygon fill="white" stroke="black" points="356.148,-40 356.148,-60 473.852,-60 473.852,-40 356.148,-40"/>
<text text-anchor="middle" x="415" y="-46" font-family="Helvetica,sans-Serif" font-size="10.00">AP_HAL::Util::vsnprintf</text>
</a>
</g>
</g>
<!-- Node5&#45;&gt;Node6 -->
<g id="edge2" class="edge"><title>Node5&#45;&gt;Node6</title>
<path fill="none" stroke="midnightblue" d="M310.61,-50C321.97,-50 334.046,-50 345.787,-50"/>
<polygon fill="midnightblue" stroke="midnightblue" points="345.993,-53.5001 355.993,-50 345.993,-46.5001 345.993,-53.5001"/>
</g>
<!-- Node7 -->
<g id="node4" class="node"><title>Node7</title>
<g id="a_node4"><a xlink:href="print__vprintf_8cpp.html#a98e0d5bb436a207f576379beaa786040" target="_top" xlink:title=" ">
<polygon fill="white" stroke="black" points="525.877,-60 525.877,-80 594.123,-80 594.123,-60 525.877,-60"/>
<text text-anchor="middle" x="560" y="-66" font-family="Helvetica,sans-Serif" font-size="10.00">print_vprintf</text>
</a>
</g>
</g>
<!-- Node6&#45;&gt;Node7 -->
<g id="edge3" class="edge"><title>Node6&#45;&gt;Node7</title>
<path fill="none" stroke="midnightblue" d="M474.164,-58.1348C487.953,-60.0633 502.428,-62.0878 515.439,-63.9075"/>
<polygon fill="midnightblue" stroke="midnightblue" points="515.13,-67.3983 525.518,-65.3172 516.099,-60.4657 515.13,-67.3983"/>
</g>
<!-- Node13 -->
<g id="node10" class="node"><title>Node13</title>
<g id="a_node10"><a xlink:href="classBufferPrinter.html#a4eb1dfae7fe1012905c34af6683401b2" target="_top" xlink:title=" ">
<polygon fill="white" stroke="black" points="510.687,-21 510.687,-41 609.313,-41 609.313,-21 510.687,-21"/>
<text text-anchor="middle" x="560" y="-27" font-family="Helvetica,sans-Serif" font-size="10.00">BufferPrinter::write</text>
</a>
</g>
</g>
<!-- Node6&#45;&gt;Node13 -->
<g id="edge11" class="edge"><title>Node6&#45;&gt;Node13</title>
<path fill="none" stroke="midnightblue" d="M474.164,-42.272C482.834,-41.12 491.775,-39.932 500.453,-38.779"/>
<polygon fill="midnightblue" stroke="midnightblue" points="501.035,-42.2325 510.487,-37.4458 500.113,-35.2935 501.035,-42.2325"/>
</g>
<!-- Node8 -->
<g id="node5" class="node"><title>Node8</title>
<g id="a_node5"><a xlink:href="classAP__HAL_1_1BetterStream.html#a915cc01273d4b418c2fb2989fb31a508" target="_top" xlink:title=" ">
<polygon fill="white" stroke="black" points="646.589,-119 646.589,-151 765.411,-151 765.411,-119 646.589,-119"/>
<text text-anchor="start" x="654.589" y="-137" font-family="Helvetica,sans-Serif" font-size="10.00">AP_HAL::BetterStream</text>
<text text-anchor="middle" x="706" y="-125" font-family="Helvetica,sans-Serif" font-size="10.00">::write</text>
</a>
</g>
</g>
<!-- Node7&#45;&gt;Node8 -->
<g id="edge4" class="edge"><title>Node7&#45;&gt;Node8</title>
<path fill="none" stroke="midnightblue" d="M582.62,-80.0286C599.774,-87.9597 624.381,-99.2774 646,-109 650.304,-110.935 654.79,-112.938 659.282,-114.934"/>
<polygon fill="midnightblue" stroke="midnightblue" points="657.892,-118.147 668.453,-118.997 660.728,-111.747 657.892,-118.147"/>
</g>
<!-- Node9 -->
<g id="node6" class="node"><title>Node9</title>
<g id="a_node6"><a xlink:href="ftoa__engine_8cpp.html#a1c28234da8f20b43c85890d4bb452947" target="_top" xlink:title=" ">
<polygon fill="white" stroke="black" points="671.865,-80 671.865,-100 740.135,-100 740.135,-80 671.865,-80"/>
<text text-anchor="middle" x="706" y="-86" font-family="Helvetica,sans-Serif" font-size="10.00">ftoa_engine</text>
</a>
</g>
</g>
<!-- Node7&#45;&gt;Node9 -->
<g id="edge5" class="edge"><title>Node7&#45;&gt;Node9</title>
<path fill="none" stroke="midnightblue" d="M594.398,-74.6387C614.481,-77.428 640.253,-81.0074 661.866,-84.0092"/>
<polygon fill="midnightblue" stroke="midnightblue" points="661.396,-87.4774 671.783,-85.3865 662.359,-80.544 661.396,-87.4774"/>
</g>
<!-- Node11 -->
<g id="node8" class="node"><title>Node11</title>
<g id="a_node8"><a xlink:href="utoa__invert_8cpp.html#a34926f552460b47c414ec4d83b32815c" target="_top" xlink:title=" ">
<polygon fill="white" stroke="black" points="671.04,-41 671.04,-61 740.96,-61 740.96,-41 671.04,-41"/>
<text text-anchor="middle" x="706" y="-47" font-family="Helvetica,sans-Serif" font-size="10.00">ulltoa_invert</text>
</a>
</g>
</g>
<!-- Node7&#45;&gt;Node11 -->
<g id="edge7" class="edge"><title>Node7&#45;&gt;Node11</title>
<path fill="none" stroke="midnightblue" d="M594.398,-65.5933C614.176,-62.9837 639.472,-59.6461 660.878,-56.8216"/>
<polygon fill="midnightblue" stroke="midnightblue" points="661.577,-60.2598 671.034,-55.4817 660.662,-53.3199 661.577,-60.2598"/>
</g>
<!-- Node12 -->
<g id="node9" class="node"><title>Node12</title>
<g id="a_node9"><a xlink:href="utoa__invert_8cpp.html#a5d99bba8e697c1e11da489d88fca8559" target="_top" xlink:title=" ">
<polygon fill="white" stroke="black" points="672.15,-2 672.15,-22 739.85,-22 739.85,-2 672.15,-2"/>
<text text-anchor="middle" x="706" y="-8" font-family="Helvetica,sans-Serif" font-size="10.00">ultoa_invert</text>
</a>
</g>
</g>
<!-- Node7&#45;&gt;Node12 -->
<g id="edge9" class="edge"><title>Node7&#45;&gt;Node12</title>
<path fill="none" stroke="midnightblue" d="M586.589,-59.9843C594.176,-56.8996 602.468,-53.4141 610,-50 626.293,-42.6146 629.491,-38.8876 646,-32 651.499,-29.7057 657.364,-27.4727 663.183,-25.3807"/>
<polygon fill="midnightblue" stroke="midnightblue" points="664.568,-28.6045 672.858,-22.0074 662.263,-21.9947 664.568,-28.6045"/>
</g>
<!-- Node10 -->
<g id="node7" class="node"><title>Node10</title>
<g id="a_node7"><a xlink:href="lstrlib_8c.html#a9605f4d16ae762782f8be8b54aef0a22" target="_top" xlink:title=" ">
<polygon fill="white" stroke="black" points="801.828,-41 801.828,-61 836.172,-61 836.172,-41 801.828,-41"/>
<text text-anchor="middle" x="819" y="-47" font-family="Helvetica,sans-Serif" font-size="10.00">digit</text>
</a>
</g>
</g>
<!-- Node9&#45;&gt;Node10 -->
<g id="edge6" class="edge"><title>Node9&#45;&gt;Node10</title>
<path fill="none" stroke="midnightblue" d="M737.062,-79.9615C746.355,-76.8174 756.615,-73.3049 766,-70 774.508,-67.0042 783.766,-63.6515 792.081,-60.6063"/>
<polygon fill="midnightblue" stroke="midnightblue" points="793.465,-63.8264 801.641,-57.0888 791.048,-57.2569 793.465,-63.8264"/>
</g>
<!-- Node11&#45;&gt;Node10 -->
<g id="edge8" class="edge"><title>Node11&#45;&gt;Node10</title>
<path fill="none" stroke="midnightblue" d="M741.209,-51C757.407,-51 776.457,-51 791.53,-51"/>
<polygon fill="midnightblue" stroke="midnightblue" points="791.705,-54.5001 801.705,-51 791.705,-47.5001 791.705,-54.5001"/>
</g>
<!-- Node12&#45;&gt;Node10 -->
<g id="edge10" class="edge"><title>Node12&#45;&gt;Node10</title>
<path fill="none" stroke="midnightblue" d="M737.062,-22.0385C746.355,-25.1826 756.615,-28.6951 766,-32 774.508,-34.9958 783.766,-38.3485 792.081,-41.3937"/>
<polygon fill="midnightblue" stroke="midnightblue" points="791.048,-44.7431 801.641,-44.9112 793.465,-38.1736 791.048,-44.7431"/>
</g>
</g>
</svg>
        <g id="navigator" transform="translate(0 0)" fill="#404254">
                <rect fill="#f2f5e9" fill-opacity="0.5" stroke="#606060" stroke-width=".5" x="0" y="0" width="60" height="60"/>
                <use id="zoomplus" xlink:href="#zoomPlus" x="17" y="9" onmousedown="handleZoom(evt,'in')"/>
                <use id="zoomminus" xlink:href="#zoomMin" x="42" y="9" onmousedown="handleZoom(evt,'out')"/>
                <use id="reset" xlink:href="#resetDef" x="30" y="36" onmousedown="handleReset()"/>
                <g id="arrowUp" xlink:href="#dirArrow" transform="translate(30 24)" onmousedown="handlePan(0,-1)">
                  <use xlink:href="#rim" fill="#404040">
                        <set attributeName="fill" to="#808080" begin="arrowUp.mouseover" end="arrowUp.mouseout"/>
                  </use>
                  <path fill="none" stroke="white" stroke-width="1.5" d="M0,-3.0v7 M-2.5,-0.5L0,-3.0L2.5,-0.5"/>
                </g>
                <g id="arrowRight" xlink:href="#dirArrow" transform="rotate(90) translate(36 -43)" onmousedown="handlePan(1,0)">
                  <use xlink:href="#rim" fill="#404040">
                        <set attributeName="fill" to="#808080" begin="arrowRight.mouseover" end="arrowRight.mouseout"/>
                  </use>
                  <path fill="none" stroke="white" stroke-width="1.5" d="M0,-3.0v7 M-2.5,-0.5L0,-3.0L2.5,-0.5"/>
                </g>
                <g id="arrowDown" xlink:href="#dirArrow" transform="rotate(180) translate(-30 -48)" onmousedown="handlePan(0,1)">
                  <use xlink:href="#rim" fill="#404040">
                        <set attributeName="fill" to="#808080" begin="arrowDown.mouseover" end="arrowDown.mouseout"/>
                  </use>
                  <path fill="none" stroke="white" stroke-width="1.5" d="M0,-3.0v7 M-2.5,-0.5L0,-3.0L2.5,-0.5"/>
                </g>
                <g id="arrowLeft" xlink:href="#dirArrow" transform="rotate(270) translate(-36 17)" onmousedown="handlePan(-1,0)">
                  <use xlink:href="#rim" fill="#404040">
                        <set attributeName="fill" to="#808080" begin="arrowLeft.mouseover" end="arrowLeft.mouseout"/>
                  </use>
                  <path fill="none" stroke="white" stroke-width="1.5" d="M0,-3.0v7 M-2.5,-0.5L0,-3.0L2.5,-0.5"/>
                </g>
        </g>
        <svg viewBox="0 0 15 15" width="100%" height="30px" preserveAspectRatio="xMaxYMin meet">
         <g id="arrow_out" transform="scale(0.3 0.3)">
          <a xlink:href="classAP__GPS__Backend_a79551556313a6283c1a04498274f7a36_cgraph_org.svg" target="_base">
           <rect id="button" ry="5" rx="5" y="6" x="6" height="38" width="38"
                fill="#f2f5e9" fill-opacity="0.5" stroke="#606060" stroke-width="1.0"/>
           <path id="arrow"
             d="M 11.500037,31.436501 C 11.940474,20.09759 22.043105,11.32322 32.158766,21.979434 L 37.068811,17.246167 C 37.068811,17.246167 37.088388,32 37.088388,32 L 22.160133,31.978069 C 22.160133,31.978069 26.997745,27.140456 26.997745,27.140456 C 18.528582,18.264221 13.291696,25.230495 11.500037,31.436501 z"
             style="fill:#404040;"/>
          </a>
         </g>
        </svg>
</svg>
