<?xml version="1.0" encoding="UTF-8" standalone="no"?>
<!DOCTYPE svg PUBLIC "-//W3C//DTD SVG 1.1//EN"
 "http://www.w3.org/Graphics/SVG/1.1/DTD/svg11.dtd">
<!-- Generated by graphviz version 2.30.1 (20130221.2233)
 -->
<!-- Title: AnalogIn_Navio2::init Pages: 1 -->
<svg width="932pt" height="157pt"
 viewBox="0.00 0.00 932.00 157.00" xmlns="http://www.w3.org/2000/svg" xmlns:xlink="http://www.w3.org/1999/xlink">
<g id="graph0" class="graph" transform="scale(1 1) rotate(0) translate(4 153)">
<title>AnalogIn_Navio2::init</title>
<polygon fill="white" stroke="white" points="-4,5 -4,-153 929,-153 929,5 -4,5"/>
<!-- Node16 -->
<g id="node1" class="node"><title>Node16</title>
<g id="a_node1"><a xlink:title=" ">
<polygon fill="#bfbfbf" stroke="black" points="0.746582,-58 0.746582,-78 111.253,-78 111.253,-58 0.746582,-58"/>
<text text-anchor="middle" x="56" y="-64" font-family="Helvetica,sans-Serif" font-size="10.00">AnalogIn_Navio2::init</text>
</a>
</g>
</g>
<!-- Node17 -->
<g id="node2" class="node"><title>Node17</title>
<g id="a_node2"><a xlink:href="classAnalogIn__Navio2.html#aa0f5a6564e60df2848b666e82d5feec6" target="_top" xlink:title=" ">
<polygon fill="white" stroke="black" points="148.624,-58 148.624,-78 281.376,-78 281.376,-58 148.624,-58"/>
<text text-anchor="middle" x="215" y="-64" font-family="Helvetica,sans-Serif" font-size="10.00">AnalogIn_Navio2::channel</text>
</a>
</g>
</g>
<!-- Node16&#45;&gt;Node17 -->
<g id="edge1" class="edge"><title>Node16&#45;&gt;Node17</title>
<path fill="none" stroke="midnightblue" d="M111.47,-68C120.157,-68 129.279,-68 138.35,-68"/>
<polygon fill="midnightblue" stroke="midnightblue" points="138.543,-71.5001 148.543,-68 138.543,-64.5001 138.543,-71.5001"/>
</g>
<!-- Node18 -->
<g id="node3" class="node"><title>Node18</title>
<g id="a_node3"><a xlink:href="classAP__HAL_1_1BetterStream.html#a8534aa004599bb81ad60f3e762791032" target="_top" xlink:title=" ">
<polygon fill="white" stroke="black" points="318.589,-52 318.589,-84 437.411,-84 437.411,-52 318.589,-52"/>
<text text-anchor="start" x="326.589" y="-70" font-family="Helvetica,sans-Serif" font-size="10.00">AP_HAL::BetterStream</text>
<text text-anchor="middle" x="378" y="-58" font-family="Helvetica,sans-Serif" font-size="10.00">::printf</text>
</a>
</g>
</g>
<!-- Node17&#45;&gt;Node18 -->
<g id="edge2" class="edge"><title>Node17&#45;&gt;Node18</title>
<path fill="none" stroke="midnightblue" d="M281.485,-68C290.404,-68 299.577,-68 308.547,-68"/>
<polygon fill="midnightblue" stroke="midnightblue" points="308.562,-71.5001 318.562,-68 308.562,-64.5001 308.562,-71.5001"/>
</g>
<!-- Node19 -->
<g id="node4" class="node"><title>Node19</title>
<g id="a_node4"><a xlink:href="classAP__HAL_1_1BetterStream.html#aa730be451d385d7ba03ee9677e6d91a2" target="_top" xlink:title=" ">
<polygon fill="white" stroke="black" points="474.589,-52 474.589,-84 593.411,-84 593.411,-52 474.589,-52"/>
<text text-anchor="start" x="482.589" y="-70" font-family="Helvetica,sans-Serif" font-size="10.00">AP_HAL::BetterStream</text>
<text text-anchor="middle" x="534" y="-58" font-family="Helvetica,sans-Serif" font-size="10.00">::vprintf</text>
</a>
</g>
</g>
<!-- Node18&#45;&gt;Node19 -->
<g id="edge3" class="edge"><title>Node18&#45;&gt;Node19</title>
<path fill="none" stroke="midnightblue" d="M437.66,-68C446.43,-68 455.536,-68 464.488,-68"/>
<polygon fill="midnightblue" stroke="midnightblue" points="464.503,-71.5001 474.503,-68 464.503,-64.5001 464.503,-71.5001"/>
</g>
<!-- Node20 -->
<g id="node5" class="node"><title>Node20</title>
<g id="a_node5"><a xlink:href="print__vprintf_8cpp.html#a98e0d5bb436a207f576379beaa786040" target="_top" xlink:title=" ">
<polygon fill="white" stroke="black" points="629.877,-58 629.877,-78 698.123,-78 698.123,-58 629.877,-58"/>
<text text-anchor="middle" x="664" y="-64" font-family="Helvetica,sans-Serif" font-size="10.00">print_vprintf</text>
</a>
</g>
</g>
<!-- Node19&#45;&gt;Node20 -->
<g id="edge4" class="edge"><title>Node19&#45;&gt;Node20</title>
<path fill="none" stroke="midnightblue" d="M593.755,-68C602.443,-68 611.26,-68 619.561,-68"/>
<polygon fill="midnightblue" stroke="midnightblue" points="619.751,-71.5001 629.751,-68 619.751,-64.5001 619.751,-71.5001"/>
</g>
<!-- Node21 -->
<g id="node6" class="node"><title>Node21</title>
<g id="a_node6"><a xlink:href="classAP__HAL_1_1BetterStream.html#a915cc01273d4b418c2fb2989fb31a508" target="_top" xlink:title=" ">
<polygon fill="white" stroke="black" points="734.589,-117 734.589,-149 853.411,-149 853.411,-117 734.589,-117"/>
<text text-anchor="start" x="742.589" y="-135" font-family="Helvetica,sans-Serif" font-size="10.00">AP_HAL::BetterStream</text>
<text text-anchor="middle" x="794" y="-123" font-family="Helvetica,sans-Serif" font-size="10.00">::write</text>
</a>
</g>
</g>
<!-- Node20&#45;&gt;Node21 -->
<g id="edge5" class="edge"><title>Node20&#45;&gt;Node21</title>
<path fill="none" stroke="midnightblue" d="M681.76,-78.0932C695.578,-86.2634 715.795,-97.8721 734,-107 737.771,-108.891 741.711,-110.788 745.687,-112.65"/>
<polygon fill="midnightblue" stroke="midnightblue" points="744.422,-115.92 754.971,-116.907 747.34,-109.557 744.422,-115.92"/>
</g>
<!-- Node22 -->
<g id="node7" class="node"><title>Node22</title>
<g id="a_node7"><a xlink:href="ftoa__engine_8cpp.html#a1c28234da8f20b43c85890d4bb452947" target="_top" xlink:title=" ">
<polygon fill="white" stroke="black" points="759.865,-78 759.865,-98 828.135,-98 828.135,-78 759.865,-78"/>
<text text-anchor="middle" x="794" y="-84" font-family="Helvetica,sans-Serif" font-size="10.00">ftoa_engine</text>
</a>
</g>
</g>
<!-- Node20&#45;&gt;Node22 -->
<g id="edge6" class="edge"><title>Node20&#45;&gt;Node22</title>
<path fill="none" stroke="midnightblue" d="M698.296,-73.2026C713.877,-75.6371 732.64,-78.5688 749.341,-81.1782"/>
<polygon fill="midnightblue" stroke="midnightblue" points="749.005,-84.6682 759.426,-82.754 750.086,-77.7521 749.005,-84.6682"/>
</g>
<!-- Node24 -->
<g id="node9" class="node"><title>Node24</title>
<g id="a_node9"><a xlink:href="utoa__invert_8cpp.html#a34926f552460b47c414ec4d83b32815c" target="_top" xlink:title=" ">
<polygon fill="white" stroke="black" points="759.04,-39 759.04,-59 828.96,-59 828.96,-39 759.04,-39"/>
<text text-anchor="middle" x="794" y="-45" font-family="Helvetica,sans-Serif" font-size="10.00">ulltoa_invert</text>
</a>
</g>
</g>
<!-- Node20&#45;&gt;Node24 -->
<g id="edge8" class="edge"><title>Node20&#45;&gt;Node24</title>
<path fill="none" stroke="midnightblue" d="M698.296,-63.0576C713.755,-60.763 732.345,-58.0035 748.946,-55.5393"/>
<polygon fill="midnightblue" stroke="midnightblue" points="749.602,-58.9804 758.979,-54.0499 748.574,-52.0562 749.602,-58.9804"/>
</g>
<!-- Node25 -->
<g id="node10" class="node"><title>Node25</title>
<g id="a_node10"><a xlink:href="utoa__invert_8cpp.html#a5d99bba8e697c1e11da489d88fca8559" target="_top" xlink:title=" ">
<polygon fill="white" stroke="black" points="760.15,-0 760.15,-20 827.85,-20 827.85,-0 760.15,-0"/>
<text text-anchor="middle" x="794" y="-6" font-family="Helvetica,sans-Serif" font-size="10.00">ultoa_invert</text>
</a>
</g>
</g>
<!-- Node20&#45;&gt;Node25 -->
<g id="edge10" class="edge"><title>Node20&#45;&gt;Node25</title>
<path fill="none" stroke="midnightblue" d="M681.314,-57.9407C695.039,-49.7425 715.354,-38.2178 734,-30 739.326,-27.6528 745.02,-25.4086 750.691,-23.3279"/>
<polygon fill="midnightblue" stroke="midnightblue" points="751.881,-26.6196 760.147,-19.9913 749.552,-20.0185 751.881,-26.6196"/>
</g>
<!-- Node23 -->
<g id="node8" class="node"><title>Node23</title>
<g id="a_node8"><a xlink:href="lstrlib_8c.html#a9605f4d16ae762782f8be8b54aef0a22" target="_top" xlink:title=" ">
<polygon fill="white" stroke="black" points="889.828,-39 889.828,-59 924.172,-59 924.172,-39 889.828,-39"/>
<text text-anchor="middle" x="907" y="-45" font-family="Helvetica,sans-Serif" font-size="10.00">digit</text>
</a>
</g>
</g>
<!-- Node22&#45;&gt;Node23 -->
<g id="edge7" class="edge"><title>Node22&#45;&gt;Node23</title>
<path fill="none" stroke="midnightblue" d="M825.062,-77.9615C834.355,-74.8174 844.615,-71.3049 854,-68 862.508,-65.0042 871.766,-61.6515 880.081,-58.6063"/>
<polygon fill="midnightblue" stroke="midnightblue" points="881.465,-61.8264 889.641,-55.0888 879.048,-55.2569 881.465,-61.8264"/>
</g>
<!-- Node24&#45;&gt;Node23 -->
<g id="edge9" class="edge"><title>Node24&#45;&gt;Node23</title>
<path fill="none" stroke="midnightblue" d="M829.209,-49C845.407,-49 864.457,-49 879.53,-49"/>
<polygon fill="midnightblue" stroke="midnightblue" points="879.705,-52.5001 889.705,-49 879.705,-45.5001 879.705,-52.5001"/>
</g>
<!-- Node25&#45;&gt;Node23 -->
<g id="edge11" class="edge"><title>Node25&#45;&gt;Node23</title>
<path fill="none" stroke="midnightblue" d="M825.062,-20.0385C834.355,-23.1826 844.615,-26.6951 854,-30 862.508,-32.9958 871.766,-36.3485 880.081,-39.3937"/>
<polygon fill="midnightblue" stroke="midnightblue" points="879.048,-42.7431 889.641,-42.9112 881.465,-36.1736 879.048,-42.7431"/>
</g>
</g>
</svg>
