<?xml version="1.0" encoding="UTF-8" standalone="no"?>
<!DOCTYPE svg PUBLIC "-//W3C//DTD SVG 1.1//EN"
 "http://www.w3.org/Graphics/SVG/1.1/DTD/svg11.dtd">
<!-- Generated by graphviz version 2.30.1 (20130221.2233)
 -->
<!-- Title: NavEKF2::getAccelZBias Pages: 1 -->
<!--zoomable 122 -->
<svg id="main" version="1.1" xmlns="http://www.w3.org/2000/svg" xmlns:xlink="http://www.w3.org/1999/xlink" xml:space="preserve" onload="init(evt)">
<style type="text/css"><![CDATA[
.edge:hover path { stroke: red; }
.edge:hover polygon { stroke: red; fill: red; }
]]></style>
<script type="text/javascript"><![CDATA[
var edges = document.getElementsByTagName('g');
if (edges && edges.length) {
  for (var i=0;i<edges.length;i++) {
    if (edges[i].id.substr(0,4)=='edge') {
      edges[i].setAttribute('class','edge');
    }
  }
}
]]></script>
        <defs>
                <circle id="rim" cx="0" cy="0" r="7"/>
                <circle id="rim2" cx="0" cy="0" r="3.5"/>
                <g id="zoomPlus">
                        <use xlink:href="#rim" fill="#404040">
                                <set attributeName="fill" to="#808080" begin="zoomplus.mouseover" end="zoomplus.mouseout"/>
                        </use>
                        <path d="M-4,0h8M0,-4v8" fill="none" stroke="white" stroke-width="1.5" pointer-events="none"/>
                </g>
                <g id="zoomMin">
                        <use xlink:href="#rim" fill="#404040">
                                <set attributeName="fill" to="#808080" begin="zoomminus.mouseover" end="zoomminus.mouseout"/>
                        </use>
                        <path d="M-4,0h8" fill="none" stroke="white" stroke-width="1.5" pointer-events="none"/>
                </g>
                <g id="dirArrow">
                        <path fill="none" stroke="white" stroke-width="1.5" d="M0,-3.0v7 M-2.5,-0.5L0,-3.0L2.5,-0.5"/>
                </g>
               <g id="resetDef">
                       <use xlink:href="#rim2" fill="#404040">
                               <set attributeName="fill" to="#808080" begin="reset.mouseover" end="reset.mouseout"/>
                       </use>
               </g>
        </defs>

<script type="text/javascript">
var viewWidth = 686;
var viewHeight = 122;
var sectionId = 'dynsection-11';
</script>
<script xlink:href="svgpan.js"/>
<svg id="graph" class="graph">
<g id="viewport">
<title>NavEKF2::getAccelZBias</title>
<polygon fill="white" stroke="white" points="-4,5 -4,-118 683,-118 683,5 -4,5"/>
<!-- Node198 -->
<g id="node1" class="node"><title>Node198</title>
<g id="a_node1"><a xlink:title=" ">
<polygon fill="#bfbfbf" stroke="black" points="549.867,-43 549.867,-63 678.133,-63 678.133,-43 549.867,-43"/>
<text text-anchor="middle" x="614" y="-49" font-family="Helvetica,sans-Serif" font-size="10.00">NavEKF2::getAccelZBias</text>
</a>
</g>
</g>
<!-- Node199 -->
<g id="node2" class="node"><title>Node199</title>
<g id="a_node2"><a xlink:href="classAP__AHRS__NavEKF.html#a21c35d20e8bb65fbad2c091838aff277" target="_top" xlink:title=" ">
<polygon fill="white" stroke="black" points="343.579,-82 343.579,-114 512.421,-114 512.421,-82 343.579,-82"/>
<text text-anchor="start" x="351.579" y="-100" font-family="Helvetica,sans-Serif" font-size="10.00">AP_AHRS_NavEKF::getCorrected</text>
<text text-anchor="middle" x="428" y="-88" font-family="Helvetica,sans-Serif" font-size="10.00">DeltaVelocityNED</text>
</a>
</g>
</g>
<!-- Node198&#45;&gt;Node199 -->
<g id="edge1" class="edge"><title>Node198&#45;&gt;Node199</title>
<path fill="none" stroke="midnightblue" d="M561.811,-65.519C541.033,-70.6006 516.772,-76.5341 494.712,-81.9292"/>
<polygon fill="midnightblue" stroke="midnightblue" points="562.825,-68.8744 571.707,-63.0989 561.162,-62.0748 562.825,-68.8744"/>
</g>
<!-- Node200 -->
<g id="node3" class="node"><title>Node200</title>
<g id="a_node3"><a xlink:href="classNavEKF2.html#a2e17c7a8905faca59fb404ff698f4193" target="_top" xlink:title=" ">
<polygon fill="white" stroke="black" points="357.563,-43 357.563,-63 498.437,-63 498.437,-43 357.563,-43"/>
<text text-anchor="middle" x="428" y="-49" font-family="Helvetica,sans-Serif" font-size="10.00">NavEKF2::Log_Write_NKF2</text>
</a>
</g>
</g>
<!-- Node198&#45;&gt;Node200 -->
<g id="edge2" class="edge"><title>Node198&#45;&gt;Node200</title>
<path fill="none" stroke="midnightblue" d="M539.521,-53C526.073,-53 512.074,-53 498.739,-53"/>
<polygon fill="midnightblue" stroke="midnightblue" points="539.678,-56.5001 549.678,-53 539.678,-49.5001 539.678,-56.5001"/>
</g>
<!-- Node203 -->
<g id="node6" class="node"><title>Node203</title>
<g id="a_node6"><a xlink:href="classAP__AHRS__NavEKF.html#a0187c6d3d4348b002a204c05d3e94b07" target="_top" xlink:title=" ">
<polygon fill="white" stroke="black" points="341.904,-3 341.904,-23 514.096,-23 514.096,-3 341.904,-3"/>
<text text-anchor="middle" x="428" y="-9" font-family="Helvetica,sans-Serif" font-size="10.00">AP_AHRS_NavEKF::update_EKF2</text>
</a>
</g>
</g>
<!-- Node198&#45;&gt;Node203 -->
<g id="edge5" class="edge"><title>Node198&#45;&gt;Node203</title>
<path fill="none" stroke="midnightblue" d="M556.786,-40.7795C530.617,-35.0905 499.871,-28.4068 475.097,-23.0211"/>
<polygon fill="midnightblue" stroke="midnightblue" points="556.054,-44.2021 566.569,-42.9063 557.541,-37.3618 556.054,-44.2021"/>
</g>
<!-- Node201 -->
<g id="node4" class="node"><title>Node201</title>
<g id="a_node4"><a xlink:href="classNavEKF2.html#ae038ac654f847b58d6cd0fbc75d2fdd9" target="_top" xlink:title=" ">
<polygon fill="white" stroke="black" points="180.125,-44 180.125,-64 289.875,-64 289.875,-44 180.125,-44"/>
<text text-anchor="middle" x="235" y="-50" font-family="Helvetica,sans-Serif" font-size="10.00">NavEKF2::Log_Write</text>
</a>
</g>
</g>
<!-- Node200&#45;&gt;Node201 -->
<g id="edge3" class="edge"><title>Node200&#45;&gt;Node201</title>
<path fill="none" stroke="midnightblue" d="M347.242,-53.4176C328.017,-53.5182 307.917,-53.6235 290.174,-53.7164"/>
<polygon fill="midnightblue" stroke="midnightblue" points="347.523,-56.9163 357.504,-53.3639 347.486,-49.9164 347.523,-56.9163"/>
</g>
<!-- Node202 -->
<g id="node5" class="node"><title>Node202</title>
<g id="a_node5"><a xlink:href="classAP__AHRS__NavEKF.html#a1c5d4cbc750d19efec25a619c34be78a" target="_top" xlink:title=" ">
<polygon fill="white" stroke="black" points="0.140625,-39 0.140625,-71 127.859,-71 127.859,-39 0.140625,-39"/>
<text text-anchor="start" x="8.14062" y="-57" font-family="Helvetica,sans-Serif" font-size="10.00">AP_AHRS_NavEKF::Log</text>
<text text-anchor="middle" x="64" y="-45" font-family="Helvetica,sans-Serif" font-size="10.00">_Write</text>
</a>
</g>
</g>
<!-- Node201&#45;&gt;Node202 -->
<g id="edge4" class="edge"><title>Node201&#45;&gt;Node202</title>
<path fill="none" stroke="midnightblue" d="M169.799,-54.3799C156.153,-54.4606 141.756,-54.5458 128.15,-54.6263"/>
<polygon fill="midnightblue" stroke="midnightblue" points="170.084,-57.8784 180.063,-54.3192 170.042,-50.8785 170.084,-57.8784"/>
</g>
<!-- Node204 -->
<g id="node7" class="node"><title>Node204</title>
<g id="a_node7"><a xlink:href="classAP__AHRS__NavEKF.html#ac8111979c5dc37a55b2c50818534ea52" target="_top" xlink:title=" ">
<polygon fill="white" stroke="black" points="164.19,-3 164.19,-23 305.81,-23 305.81,-3 164.19,-3"/>
<text text-anchor="middle" x="235" y="-9" font-family="Helvetica,sans-Serif" font-size="10.00">AP_AHRS_NavEKF::update</text>
</a>
</g>
</g>
<!-- Node203&#45;&gt;Node204 -->
<g id="edge6" class="edge"><title>Node203&#45;&gt;Node204</title>
<path fill="none" stroke="midnightblue" d="M331.643,-13C322.946,-13 314.247,-13 305.835,-13"/>
<polygon fill="midnightblue" stroke="midnightblue" points="331.834,-16.5001 341.834,-13 331.834,-9.5001 331.834,-16.5001"/>
</g>
<!-- Node205 -->
<g id="node8" class="node"><title>Node205</title>
<g id="a_node8"><a xlink:href="AHRS__Test_8cpp.html#afe461d27b9c48d5921c00d521181f12f" target="_top" xlink:title=" ">
<polygon fill="white" stroke="black" points="46.5469,-0 46.5469,-20 81.4531,-20 81.4531,-0 46.5469,-0"/>
<text text-anchor="middle" x="64" y="-6" font-family="Helvetica,sans-Serif" font-size="10.00">loop</text>
</a>
</g>
</g>
<!-- Node204&#45;&gt;Node205 -->
<g id="edge7" class="edge"><title>Node204&#45;&gt;Node205</title>
<path fill="none" stroke="midnightblue" d="M153.789,-11.5761C126.492,-11.0916 98.5976,-10.5964 81.5375,-10.2936"/>
<polygon fill="midnightblue" stroke="midnightblue" points="153.736,-15.0757 163.797,-11.7538 153.861,-8.07676 153.736,-15.0757"/>
</g>
</g>
</svg>
        <g id="navigator" transform="translate(0 0)" fill="#404254">
                <rect fill="#f2f5e9" fill-opacity="0.5" stroke="#606060" stroke-width=".5" x="0" y="0" width="60" height="60"/>
                <use id="zoomplus" xlink:href="#zoomPlus" x="17" y="9" onmousedown="handleZoom(evt,'in')"/>
                <use id="zoomminus" xlink:href="#zoomMin" x="42" y="9" onmousedown="handleZoom(evt,'out')"/>
                <use id="reset" xlink:href="#resetDef" x="30" y="36" onmousedown="handleReset()"/>
                <g id="arrowUp" xlink:href="#dirArrow" transform="translate(30 24)" onmousedown="handlePan(0,-1)">
                  <use xlink:href="#rim" fill="#404040">
                        <set attributeName="fill" to="#808080" begin="arrowUp.mouseover" end="arrowUp.mouseout"/>
                  </use>
                  <path fill="none" stroke="white" stroke-width="1.5" d="M0,-3.0v7 M-2.5,-0.5L0,-3.0L2.5,-0.5"/>
                </g>
                <g id="arrowRight" xlink:href="#dirArrow" transform="rotate(90) translate(36 -43)" onmousedown="handlePan(1,0)">
                  <use xlink:href="#rim" fill="#404040">
                        <set attributeName="fill" to="#808080" begin="arrowRight.mouseover" end="arrowRight.mouseout"/>
                  </use>
                  <path fill="none" stroke="white" stroke-width="1.5" d="M0,-3.0v7 M-2.5,-0.5L0,-3.0L2.5,-0.5"/>
                </g>
                <g id="arrowDown" xlink:href="#dirArrow" transform="rotate(180) translate(-30 -48)" onmousedown="handlePan(0,1)">
                  <use xlink:href="#rim" fill="#404040">
                        <set attributeName="fill" to="#808080" begin="arrowDown.mouseover" end="arrowDown.mouseout"/>
                  </use>
                  <path fill="none" stroke="white" stroke-width="1.5" d="M0,-3.0v7 M-2.5,-0.5L0,-3.0L2.5,-0.5"/>
                </g>
                <g id="arrowLeft" xlink:href="#dirArrow" transform="rotate(270) translate(-36 17)" onmousedown="handlePan(-1,0)">
                  <use xlink:href="#rim" fill="#404040">
                        <set attributeName="fill" to="#808080" begin="arrowLeft.mouseover" end="arrowLeft.mouseout"/>
                  </use>
                  <path fill="none" stroke="white" stroke-width="1.5" d="M0,-3.0v7 M-2.5,-0.5L0,-3.0L2.5,-0.5"/>
                </g>
        </g>
        <svg viewBox="0 0 15 15" width="100%" height="30px" preserveAspectRatio="xMaxYMin meet">
         <g id="arrow_out" transform="scale(0.3 0.3)">
          <a xlink:href="classNavEKF2_a7457499f89be261be7c044356a47a891_icgraph_org.svg" target="_base">
           <rect id="button" ry="5" rx="5" y="6" x="6" height="38" width="38"
                fill="#f2f5e9" fill-opacity="0.5" stroke="#606060" stroke-width="1.0"/>
           <path id="arrow"
             d="M 11.500037,31.436501 C 11.940474,20.09759 22.043105,11.32322 32.158766,21.979434 L 37.068811,17.246167 C 37.068811,17.246167 37.088388,32 37.088388,32 L 22.160133,31.978069 C 22.160133,31.978069 26.997745,27.140456 26.997745,27.140456 C 18.528582,18.264221 13.291696,25.230495 11.500037,31.436501 z"
             style="fill:#404040;"/>
          </a>
         </g>
        </svg>
</svg>
