<?xml version="1.0" encoding="UTF-8" standalone="no"?>
<!DOCTYPE svg PUBLIC "-//W3C//DTD SVG 1.1//EN"
 "http://www.w3.org/Graphics/SVG/1.1/DTD/svg11.dtd">
<!-- Generated by graphviz version 2.30.1 (20130221.2233)
 -->
<!-- Title: AP_WindVane_Backend::direction_update_frontend Pages: 1 -->
<!--zoomable 212 -->
<svg id="main" version="1.1" xmlns="http://www.w3.org/2000/svg" xmlns:xlink="http://www.w3.org/1999/xlink" xml:space="preserve" onload="init(evt)">
<style type="text/css"><![CDATA[
.edge:hover path { stroke: red; }
.edge:hover polygon { stroke: red; fill: red; }
]]></style>
<script type="text/javascript"><![CDATA[
var edges = document.getElementsByTagName('g');
if (edges && edges.length) {
  for (var i=0;i<edges.length;i++) {
    if (edges[i].id.substr(0,4)=='edge') {
      edges[i].setAttribute('class','edge');
    }
  }
}
]]></script>
        <defs>
                <circle id="rim" cx="0" cy="0" r="7"/>
                <circle id="rim2" cx="0" cy="0" r="3.5"/>
                <g id="zoomPlus">
                        <use xlink:href="#rim" fill="#404040">
                                <set attributeName="fill" to="#808080" begin="zoomplus.mouseover" end="zoomplus.mouseout"/>
                        </use>
                        <path d="M-4,0h8M0,-4v8" fill="none" stroke="white" stroke-width="1.5" pointer-events="none"/>
                </g>
                <g id="zoomMin">
                        <use xlink:href="#rim" fill="#404040">
                                <set attributeName="fill" to="#808080" begin="zoomminus.mouseover" end="zoomminus.mouseout"/>
                        </use>
                        <path d="M-4,0h8" fill="none" stroke="white" stroke-width="1.5" pointer-events="none"/>
                </g>
                <g id="dirArrow">
                        <path fill="none" stroke="white" stroke-width="1.5" d="M0,-3.0v7 M-2.5,-0.5L0,-3.0L2.5,-0.5"/>
                </g>
               <g id="resetDef">
                       <use xlink:href="#rim2" fill="#404040">
                               <set attributeName="fill" to="#808080" begin="reset.mouseover" end="reset.mouseout"/>
                       </use>
               </g>
        </defs>

<script type="text/javascript">
var viewWidth = 522;
var viewHeight = 212;
var sectionId = 'dynsection-5';
</script>
<script xlink:href="svgpan.js"/>
<svg id="graph" class="graph">
<g id="viewport">
<title>AP_WindVane_Backend::direction_update_frontend</title>
<polygon fill="white" stroke="white" points="-4,5 -4,-208 519,-208 519,5 -4,5"/>
<!-- Node37 -->
<g id="node1" class="node"><title>Node37</title>
<g id="a_node1"><a xlink:title=" ">
<polygon fill="#bfbfbf" stroke="black" points="376.121,-76 376.121,-108 513.879,-108 513.879,-76 376.121,-76"/>
<text text-anchor="start" x="384.121" y="-94" font-family="Helvetica,sans-Serif" font-size="10.00">AP_WindVane_Backend</text>
<text text-anchor="middle" x="445" y="-82" font-family="Helvetica,sans-Serif" font-size="10.00">::direction_update_frontend</text>
</a>
</g>
</g>
<!-- Node38 -->
<g id="node2" class="node"><title>Node38</title>
<g id="a_node2"><a xlink:href="classAP__WindVane__NMEA.html#ab0a91316dde5c29fd29e6d60f49e9692" target="_top" xlink:title=" ">
<polygon fill="white" stroke="black" points="188.551,-153 188.551,-173 339.449,-173 339.449,-153 188.551,-153"/>
<text text-anchor="middle" x="264" y="-159" font-family="Helvetica,sans-Serif" font-size="10.00">AP_WindVane_NMEA::update</text>
</a>
</g>
</g>
<!-- Node37&#45;&gt;Node38 -->
<g id="edge1" class="edge"><title>Node37&#45;&gt;Node38</title>
<path fill="none" stroke="midnightblue" d="M406,-112.861C386.642,-122.91 362.496,-134.577 340,-143 329.904,-146.78 318.794,-150.151 308.289,-152.999"/>
<polygon fill="midnightblue" stroke="midnightblue" points="407.87,-115.832 415.09,-108.079 404.611,-109.637 407.87,-115.832"/>
</g>
<!-- Node41 -->
<g id="node5" class="node"><title>Node41</title>
<g id="a_node5"><a xlink:href="classAP__WindVane__SITL.html#a23020ebb4ad057b4e3d5426f7fd1e904" target="_top" xlink:title=" ">
<polygon fill="white" stroke="black" points="192.438,-102 192.438,-134 335.562,-134 335.562,-102 192.438,-102"/>
<text text-anchor="start" x="200.438" y="-120" font-family="Helvetica,sans-Serif" font-size="10.00">AP_WindVane_SITL::update</text>
<text text-anchor="middle" x="264" y="-108" font-family="Helvetica,sans-Serif" font-size="10.00">_direction</text>
</a>
</g>
</g>
<!-- Node37&#45;&gt;Node41 -->
<g id="edge4" class="edge"><title>Node37&#45;&gt;Node41</title>
<path fill="none" stroke="midnightblue" d="M366.102,-103.315C356.047,-104.775 345.792,-106.265 335.859,-107.708"/>
<polygon fill="midnightblue" stroke="midnightblue" points="366.68,-106.768 376.073,-101.867 365.673,-99.8404 366.68,-106.768"/>
</g>
<!-- Node42 -->
<g id="node6" class="node"><title>Node42</title>
<g id="a_node6"><a xlink:href="classAP__WindVane__Home.html#a5e5cbcf1d08f88efde33bf9fa0492a50" target="_top" xlink:title=" ">
<polygon fill="white" stroke="black" points="189.66,-51 189.66,-83 338.34,-83 338.34,-51 189.66,-51"/>
<text text-anchor="start" x="197.66" y="-69" font-family="Helvetica,sans-Serif" font-size="10.00">AP_WindVane_Home::update</text>
<text text-anchor="middle" x="264" y="-57" font-family="Helvetica,sans-Serif" font-size="10.00">_direction</text>
</a>
</g>
</g>
<!-- Node37&#45;&gt;Node42 -->
<g id="edge5" class="edge"><title>Node37&#45;&gt;Node42</title>
<path fill="none" stroke="midnightblue" d="M365.904,-81.0927C356.819,-79.8239 347.575,-78.5329 338.555,-77.273"/>
<polygon fill="midnightblue" stroke="midnightblue" points="365.685,-84.596 376.073,-82.5129 366.653,-77.6633 365.685,-84.596"/>
</g>
<!-- Node43 -->
<g id="node7" class="node"><title>Node43</title>
<g id="a_node7"><a xlink:href="classAP__WindVane__Analog.html#abf5c904e8b216c4da12243a9476eeb82" target="_top" xlink:title=" ">
<polygon fill="white" stroke="black" points="205.5,-0 205.5,-32 322.5,-32 322.5,-0 205.5,-0"/>
<text text-anchor="start" x="213.5" y="-18" font-family="Helvetica,sans-Serif" font-size="10.00">AP_WindVane_Analog</text>
<text text-anchor="middle" x="264" y="-6" font-family="Helvetica,sans-Serif" font-size="10.00">::update_direction</text>
</a>
</g>
</g>
<!-- Node37&#45;&gt;Node43 -->
<g id="edge6" class="edge"><title>Node37&#45;&gt;Node43</title>
<path fill="none" stroke="midnightblue" d="M403.994,-71.4435C384.86,-61.9544 361.489,-50.8563 340,-42 331.718,-38.5867 322.807,-35.2306 314.119,-32.1226"/>
<polygon fill="midnightblue" stroke="midnightblue" points="402.511,-74.6147 413.02,-75.9556 405.641,-68.3535 402.511,-74.6147"/>
</g>
<!-- Node39 -->
<g id="node3" class="node"><title>Node39</title>
<g id="a_node3"><a xlink:href="classAP__WindVane__NMEA.html#afd6920d88500e2a0e770bcbf075b9467" target="_top" xlink:title=" ">
<polygon fill="white" stroke="black" points="0.55127,-172 0.55127,-204 151.449,-204 151.449,-172 0.55127,-172"/>
<text text-anchor="start" x="8.55127" y="-190" font-family="Helvetica,sans-Serif" font-size="10.00">AP_WindVane_NMEA::update</text>
<text text-anchor="middle" x="76" y="-178" font-family="Helvetica,sans-Serif" font-size="10.00">_direction</text>
</a>
</g>
</g>
<!-- Node38&#45;&gt;Node39 -->
<g id="edge2" class="edge"><title>Node38&#45;&gt;Node39</title>
<path fill="none" stroke="midnightblue" d="M178.39,-174.372C169.452,-175.574 160.41,-176.789 151.598,-177.973"/>
<polygon fill="midnightblue" stroke="midnightblue" points="178.974,-177.825 188.418,-173.024 178.041,-170.888 178.974,-177.825"/>
</g>
<!-- Node40 -->
<g id="node4" class="node"><title>Node40</title>
<g id="a_node4"><a xlink:href="classAP__WindVane__NMEA.html#a0a1150a67a8fe5ead1bd16452b75f8d2" target="_top" xlink:title=" ">
<polygon fill="white" stroke="black" points="0.55127,-121 0.55127,-153 151.449,-153 151.449,-121 0.55127,-121"/>
<text text-anchor="start" x="8.55127" y="-139" font-family="Helvetica,sans-Serif" font-size="10.00">AP_WindVane_NMEA::update</text>
<text text-anchor="middle" x="76" y="-127" font-family="Helvetica,sans-Serif" font-size="10.00">_speed</text>
</a>
</g>
</g>
<!-- Node38&#45;&gt;Node40 -->
<g id="edge3" class="edge"><title>Node38&#45;&gt;Node40</title>
<path fill="none" stroke="midnightblue" d="M181.203,-151.566C171.385,-150.194 161.399,-148.798 151.69,-147.441"/>
<polygon fill="midnightblue" stroke="midnightblue" points="180.965,-155.067 191.354,-152.985 181.934,-148.134 180.965,-155.067"/>
</g>
</g>
</svg>
        <g id="navigator" transform="translate(0 0)" fill="#404254">
                <rect fill="#f2f5e9" fill-opacity="0.5" stroke="#606060" stroke-width=".5" x="0" y="0" width="60" height="60"/>
                <use id="zoomplus" xlink:href="#zoomPlus" x="17" y="9" onmousedown="handleZoom(evt,'in')"/>
                <use id="zoomminus" xlink:href="#zoomMin" x="42" y="9" onmousedown="handleZoom(evt,'out')"/>
                <use id="reset" xlink:href="#resetDef" x="30" y="36" onmousedown="handleReset()"/>
                <g id="arrowUp" xlink:href="#dirArrow" transform="translate(30 24)" onmousedown="handlePan(0,-1)">
                  <use xlink:href="#rim" fill="#404040">
                        <set attributeName="fill" to="#808080" begin="arrowUp.mouseover" end="arrowUp.mouseout"/>
                  </use>
                  <path fill="none" stroke="white" stroke-width="1.5" d="M0,-3.0v7 M-2.5,-0.5L0,-3.0L2.5,-0.5"/>
                </g>
                <g id="arrowRight" xlink:href="#dirArrow" transform="rotate(90) translate(36 -43)" onmousedown="handlePan(1,0)">
                  <use xlink:href="#rim" fill="#404040">
                        <set attributeName="fill" to="#808080" begin="arrowRight.mouseover" end="arrowRight.mouseout"/>
                  </use>
                  <path fill="none" stroke="white" stroke-width="1.5" d="M0,-3.0v7 M-2.5,-0.5L0,-3.0L2.5,-0.5"/>
                </g>
                <g id="arrowDown" xlink:href="#dirArrow" transform="rotate(180) translate(-30 -48)" onmousedown="handlePan(0,1)">
                  <use xlink:href="#rim" fill="#404040">
                        <set attributeName="fill" to="#808080" begin="arrowDown.mouseover" end="arrowDown.mouseout"/>
                  </use>
                  <path fill="none" stroke="white" stroke-width="1.5" d="M0,-3.0v7 M-2.5,-0.5L0,-3.0L2.5,-0.5"/>
                </g>
                <g id="arrowLeft" xlink:href="#dirArrow" transform="rotate(270) translate(-36 17)" onmousedown="handlePan(-1,0)">
                  <use xlink:href="#rim" fill="#404040">
                        <set attributeName="fill" to="#808080" begin="arrowLeft.mouseover" end="arrowLeft.mouseout"/>
                  </use>
                  <path fill="none" stroke="white" stroke-width="1.5" d="M0,-3.0v7 M-2.5,-0.5L0,-3.0L2.5,-0.5"/>
                </g>
        </g>
        <svg viewBox="0 0 15 15" width="100%" height="30px" preserveAspectRatio="xMaxYMin meet">
         <g id="arrow_out" transform="scale(0.3 0.3)">
          <a xlink:href="classAP__WindVane__Backend_aac7b73c8d9f55a93eea4292ea2005171_icgraph_org.svg" target="_base">
           <rect id="button" ry="5" rx="5" y="6" x="6" height="38" width="38"
                fill="#f2f5e9" fill-opacity="0.5" stroke="#606060" stroke-width="1.0"/>
           <path id="arrow"
             d="M 11.500037,31.436501 C 11.940474,20.09759 22.043105,11.32322 32.158766,21.979434 L 37.068811,17.246167 C 37.068811,17.246167 37.088388,32 37.088388,32 L 22.160133,31.978069 C 22.160133,31.978069 26.997745,27.140456 26.997745,27.140456 C 18.528582,18.264221 13.291696,25.230495 11.500037,31.436501 z"
             style="fill:#404040;"/>
          </a>
         </g>
        </svg>
</svg>
