<?xml version="1.0" encoding="UTF-8" standalone="no"?>
<!DOCTYPE svg PUBLIC "-//W3C//DTD SVG 1.1//EN"
 "http://www.w3.org/Graphics/SVG/1.1/DTD/svg11.dtd">
<!-- Generated by graphviz version 2.30.1 (20130221.2233)
 -->
<!-- Title: SITL::Gripper_EPM::should_report Pages: 1 -->
<!--zoomable 118 -->
<svg id="main" version="1.1" xmlns="http://www.w3.org/2000/svg" xmlns:xlink="http://www.w3.org/1999/xlink" xml:space="preserve" onload="init(evt)">
<style type="text/css"><![CDATA[
.edge:hover path { stroke: red; }
.edge:hover polygon { stroke: red; fill: red; }
]]></style>
<script type="text/javascript"><![CDATA[
var edges = document.getElementsByTagName('g');
if (edges && edges.length) {
  for (var i=0;i<edges.length;i++) {
    if (edges[i].id.substr(0,4)=='edge') {
      edges[i].setAttribute('class','edge');
    }
  }
}
]]></script>
        <defs>
                <circle id="rim" cx="0" cy="0" r="7"/>
                <circle id="rim2" cx="0" cy="0" r="3.5"/>
                <g id="zoomPlus">
                        <use xlink:href="#rim" fill="#404040">
                                <set attributeName="fill" to="#808080" begin="zoomplus.mouseover" end="zoomplus.mouseout"/>
                        </use>
                        <path d="M-4,0h8M0,-4v8" fill="none" stroke="white" stroke-width="1.5" pointer-events="none"/>
                </g>
                <g id="zoomMin">
                        <use xlink:href="#rim" fill="#404040">
                                <set attributeName="fill" to="#808080" begin="zoomminus.mouseover" end="zoomminus.mouseout"/>
                        </use>
                        <path d="M-4,0h8" fill="none" stroke="white" stroke-width="1.5" pointer-events="none"/>
                </g>
                <g id="dirArrow">
                        <path fill="none" stroke="white" stroke-width="1.5" d="M0,-3.0v7 M-2.5,-0.5L0,-3.0L2.5,-0.5"/>
                </g>
               <g id="resetDef">
                       <use xlink:href="#rim2" fill="#404040">
                               <set attributeName="fill" to="#808080" begin="reset.mouseover" end="reset.mouseout"/>
                       </use>
               </g>
        </defs>

<script type="text/javascript">
var viewWidth = 720;
var viewHeight = 118;
var sectionId = 'dynsection-5';
</script>
<script xlink:href="svgpan.js"/>
<svg id="graph" class="graph">
<g id="viewport">
<title>SITL::Gripper_EPM::should_report</title>
<polygon fill="white" stroke="white" points="-4,5 -4,-114 717,-114 717,5 -4,5"/>
<!-- Node20 -->
<g id="node1" class="node"><title>Node20</title>
<g id="a_node1"><a xlink:title=" ">
<polygon fill="#bfbfbf" stroke="black" points="602.596,-39 602.596,-71 711.404,-71 711.404,-39 602.596,-39"/>
<text text-anchor="start" x="610.596" y="-57" font-family="Helvetica,sans-Serif" font-size="10.00">SITL::Gripper_EPM::</text>
<text text-anchor="middle" x="657" y="-45" font-family="Helvetica,sans-Serif" font-size="10.00">should_report</text>
</a>
</g>
</g>
<!-- Node21 -->
<g id="node2" class="node"><title>Node21</title>
<g id="a_node2"><a xlink:href="classSITL_1_1Gripper__EPM.html#add063cd557ed861f4c210bde569effdf" target="_top" xlink:title=" ">
<polygon fill="white" stroke="black" points="452.077,-39 452.077,-71 565.923,-71 565.923,-39 452.077,-39"/>
<text text-anchor="start" x="460.077" y="-57" font-family="Helvetica,sans-Serif" font-size="10.00">SITL::Gripper_EPM::</text>
<text text-anchor="middle" x="509" y="-45" font-family="Helvetica,sans-Serif" font-size="10.00">update_from_demand</text>
</a>
</g>
</g>
<!-- Node20&#45;&gt;Node21 -->
<g id="edge1" class="edge"><title>Node20&#45;&gt;Node21</title>
<path fill="none" stroke="midnightblue" d="M592.293,-55C583.532,-55 574.589,-55 565.981,-55"/>
<polygon fill="midnightblue" stroke="midnightblue" points="592.464,-58.5001 602.464,-55 592.464,-51.5001 592.464,-58.5001"/>
</g>
<!-- Node22 -->
<g id="node3" class="node"><title>Node22</title>
<g id="a_node3"><a xlink:href="classSITL_1_1Gripper__EPM.html#a7389f98daa5ea3b618b82c0e8f92bbe3" target="_top" xlink:title=" ">
<polygon fill="white" stroke="black" points="306.596,-39 306.596,-71 415.404,-71 415.404,-39 306.596,-39"/>
<text text-anchor="start" x="314.596" y="-57" font-family="Helvetica,sans-Serif" font-size="10.00">SITL::Gripper_EPM::</text>
<text text-anchor="middle" x="361" y="-45" font-family="Helvetica,sans-Serif" font-size="10.00">update</text>
</a>
</g>
</g>
<!-- Node21&#45;&gt;Node22 -->
<g id="edge2" class="edge"><title>Node21&#45;&gt;Node22</title>
<path fill="none" stroke="midnightblue" d="M441.807,-55C433.073,-55 424.208,-55 415.717,-55"/>
<polygon fill="midnightblue" stroke="midnightblue" points="441.97,-58.5001 451.97,-55 441.97,-51.5001 441.97,-58.5001"/>
</g>
<!-- Node23 -->
<g id="node4" class="node"><title>Node23</title>
<g id="a_node4"><a xlink:href="classSITL_1_1Aircraft.html#ad2aa9945ff600ad08823ae67524e078e" target="_top" xlink:title=" ">
<polygon fill="white" stroke="black" points="159.756,-39 159.756,-71 270.244,-71 270.244,-39 159.756,-39"/>
<text text-anchor="start" x="167.756" y="-57" font-family="Helvetica,sans-Serif" font-size="10.00">SITL::Aircraft::update</text>
<text text-anchor="middle" x="215" y="-45" font-family="Helvetica,sans-Serif" font-size="10.00">_external_payload</text>
</a>
</g>
</g>
<!-- Node22&#45;&gt;Node23 -->
<g id="edge3" class="edge"><title>Node22&#45;&gt;Node23</title>
<path fill="none" stroke="midnightblue" d="M296.115,-55C287.611,-55 278.954,-55 270.626,-55"/>
<polygon fill="midnightblue" stroke="midnightblue" points="296.38,-58.5001 306.38,-55 296.38,-51.5001 296.38,-58.5001"/>
</g>
<!-- Node24 -->
<g id="node5" class="node"><title>Node24</title>
<g id="a_node5"><a xlink:href="classSITL_1_1SimRover.html#aee0311ff7a61d71cc2ecd4a148636440" target="_top" xlink:title=" ">
<polygon fill="white" stroke="black" points="0.643066,-90 0.643066,-110 123.357,-110 123.357,-90 0.643066,-90"/>
<text text-anchor="middle" x="62" y="-96" font-family="Helvetica,sans-Serif" font-size="10.00">SITL::SimRover::update</text>
</a>
</g>
</g>
<!-- Node23&#45;&gt;Node24 -->
<g id="edge4" class="edge"><title>Node23&#45;&gt;Node24</title>
<path fill="none" stroke="midnightblue" d="M150.178,-74.0197C131.91,-79.4639 112.707,-85.1867 96.9873,-89.8713"/>
<polygon fill="midnightblue" stroke="midnightblue" points="151.328,-77.3292 159.912,-71.1189 149.329,-70.6208 151.328,-77.3292"/>
</g>
<!-- Node25 -->
<g id="node6" class="node"><title>Node25</title>
<g id="a_node6"><a xlink:href="classSITL_1_1MultiCopter.html#a3420ce467f86d484407193d3f6e5447c" target="_top" xlink:title=" ">
<polygon fill="white" stroke="black" points="12.3203,-39 12.3203,-71 111.68,-71 111.68,-39 12.3203,-39"/>
<text text-anchor="start" x="20.3203" y="-57" font-family="Helvetica,sans-Serif" font-size="10.00">SITL::MultiCopter::</text>
<text text-anchor="middle" x="62" y="-45" font-family="Helvetica,sans-Serif" font-size="10.00">update</text>
</a>
</g>
</g>
<!-- Node23&#45;&gt;Node25 -->
<g id="edge5" class="edge"><title>Node23&#45;&gt;Node25</title>
<path fill="none" stroke="midnightblue" d="M149.131,-55C136.656,-55 123.787,-55 111.921,-55"/>
<polygon fill="midnightblue" stroke="midnightblue" points="149.486,-58.5001 159.486,-55 149.486,-51.5001 149.486,-58.5001"/>
</g>
<!-- Node26 -->
<g id="node7" class="node"><title>Node26</title>
<g id="a_node7"><a xlink:href="classSITL_1_1Plane.html#a68de2c1dd6684fe9e83bc087d702a439" target="_top" xlink:title=" ">
<polygon fill="white" stroke="black" points="9.80322,-0 9.80322,-20 114.197,-20 114.197,-0 9.80322,-0"/>
<text text-anchor="middle" x="62" y="-6" font-family="Helvetica,sans-Serif" font-size="10.00">SITL::Plane::update</text>
</a>
</g>
</g>
<!-- Node23&#45;&gt;Node26 -->
<g id="edge6" class="edge"><title>Node23&#45;&gt;Node26</title>
<path fill="none" stroke="midnightblue" d="M150.178,-35.9803C131.91,-30.5361 112.707,-24.8133 96.9873,-20.1287"/>
<polygon fill="midnightblue" stroke="midnightblue" points="149.329,-39.3792 159.912,-38.8811 151.328,-32.6708 149.329,-39.3792"/>
</g>
</g>
</svg>
        <g id="navigator" transform="translate(0 0)" fill="#404254">
                <rect fill="#f2f5e9" fill-opacity="0.5" stroke="#606060" stroke-width=".5" x="0" y="0" width="60" height="60"/>
                <use id="zoomplus" xlink:href="#zoomPlus" x="17" y="9" onmousedown="handleZoom(evt,'in')"/>
                <use id="zoomminus" xlink:href="#zoomMin" x="42" y="9" onmousedown="handleZoom(evt,'out')"/>
                <use id="reset" xlink:href="#resetDef" x="30" y="36" onmousedown="handleReset()"/>
                <g id="arrowUp" xlink:href="#dirArrow" transform="translate(30 24)" onmousedown="handlePan(0,-1)">
                  <use xlink:href="#rim" fill="#404040">
                        <set attributeName="fill" to="#808080" begin="arrowUp.mouseover" end="arrowUp.mouseout"/>
                  </use>
                  <path fill="none" stroke="white" stroke-width="1.5" d="M0,-3.0v7 M-2.5,-0.5L0,-3.0L2.5,-0.5"/>
                </g>
                <g id="arrowRight" xlink:href="#dirArrow" transform="rotate(90) translate(36 -43)" onmousedown="handlePan(1,0)">
                  <use xlink:href="#rim" fill="#404040">
                        <set attributeName="fill" to="#808080" begin="arrowRight.mouseover" end="arrowRight.mouseout"/>
                  </use>
                  <path fill="none" stroke="white" stroke-width="1.5" d="M0,-3.0v7 M-2.5,-0.5L0,-3.0L2.5,-0.5"/>
                </g>
                <g id="arrowDown" xlink:href="#dirArrow" transform="rotate(180) translate(-30 -48)" onmousedown="handlePan(0,1)">
                  <use xlink:href="#rim" fill="#404040">
                        <set attributeName="fill" to="#808080" begin="arrowDown.mouseover" end="arrowDown.mouseout"/>
                  </use>
                  <path fill="none" stroke="white" stroke-width="1.5" d="M0,-3.0v7 M-2.5,-0.5L0,-3.0L2.5,-0.5"/>
                </g>
                <g id="arrowLeft" xlink:href="#dirArrow" transform="rotate(270) translate(-36 17)" onmousedown="handlePan(-1,0)">
                  <use xlink:href="#rim" fill="#404040">
                        <set attributeName="fill" to="#808080" begin="arrowLeft.mouseover" end="arrowLeft.mouseout"/>
                  </use>
                  <path fill="none" stroke="white" stroke-width="1.5" d="M0,-3.0v7 M-2.5,-0.5L0,-3.0L2.5,-0.5"/>
                </g>
        </g>
        <svg viewBox="0 0 15 15" width="100%" height="30px" preserveAspectRatio="xMaxYMin meet">
         <g id="arrow_out" transform="scale(0.3 0.3)">
          <a xlink:href="classSITL_1_1Gripper__EPM_a29316fdb9ab6b1136910f89b2ada94e8_icgraph_org.svg" target="_base">
           <rect id="button" ry="5" rx="5" y="6" x="6" height="38" width="38"
                fill="#f2f5e9" fill-opacity="0.5" stroke="#606060" stroke-width="1.0"/>
           <path id="arrow"
             d="M 11.500037,31.436501 C 11.940474,20.09759 22.043105,11.32322 32.158766,21.979434 L 37.068811,17.246167 C 37.068811,17.246167 37.088388,32 37.088388,32 L 22.160133,31.978069 C 22.160133,31.978069 26.997745,27.140456 26.997745,27.140456 C 18.528582,18.264221 13.291696,25.230495 11.500037,31.436501 z"
             style="fill:#404040;"/>
          </a>
         </g>
        </svg>
</svg>
