<?xml version="1.0" encoding="UTF-8" standalone="no"?>
<!DOCTYPE svg PUBLIC "-//W3C//DTD SVG 1.1//EN"
 "http://www.w3.org/Graphics/SVG/1.1/DTD/svg11.dtd">
<!-- Generated by graphviz version 2.30.1 (20130221.2233)
 -->
<!-- Title: RC_Channel::update Pages: 1 -->
<svg width="1170pt" height="259pt"
 viewBox="0.00 0.00 1170.00 259.00" xmlns="http://www.w3.org/2000/svg" xmlns:xlink="http://www.w3.org/1999/xlink">
<g id="graph0" class="graph" transform="scale(1 1) rotate(0) translate(4 255)">
<title>RC_Channel::update</title>
<polygon fill="white" stroke="white" points="-4,5 -4,-255 1167,-255 1167,5 -4,5"/>
<!-- Node8345 -->
<g id="node1" class="node"><title>Node8345</title>
<g id="a_node1"><a xlink:title=" ">
<polygon fill="#bfbfbf" stroke="black" points="0.300781,-102 0.300781,-122 109.699,-122 109.699,-102 0.300781,-102"/>
<text text-anchor="middle" x="55" y="-108" font-family="Helvetica,sans-Serif" font-size="10.00">RC_Channel::update</text>
</a>
</g>
</g>
<!-- Node8346 -->
<g id="node2" class="node"><title>Node8346</title>
<g id="a_node2"><a xlink:href="classRC__Channel.html#af70bb81d28a7c891649384227f7922a3" target="_top" xlink:title=" ">
<polygon fill="white" stroke="black" points="146.688,-141 146.688,-161 283.312,-161 283.312,-141 146.688,-141"/>
<text text-anchor="middle" x="215" y="-147" font-family="Helvetica,sans-Serif" font-size="10.00">RC_Channel::has_override</text>
</a>
</g>
</g>
<!-- Node8345&#45;&gt;Node8346 -->
<g id="edge1" class="edge"><title>Node8345&#45;&gt;Node8346</title>
<path fill="none" stroke="midnightblue" d="M96.6889,-122.043C117.054,-127.07 141.9,-133.203 163.475,-138.529"/>
<polygon fill="midnightblue" stroke="midnightblue" points="162.902,-141.992 173.449,-140.991 164.579,-135.196 162.902,-141.992"/>
</g>
<!-- Node8347 -->
<g id="node3" class="node"><title>Node8347</title>
<g id="a_node3"><a xlink:href="RC__Channel_8h.html#acb66f35c4fe350096704f48e4c651948" target="_top" xlink:title=" ">
<polygon fill="white" stroke="black" points="365.5,-231 365.5,-251 394.5,-251 394.5,-231 365.5,-231"/>
<text text-anchor="middle" x="380" y="-237" font-family="Helvetica,sans-Serif" font-size="10.00">rc</text>
</a>
</g>
</g>
<!-- Node8345&#45;&gt;Node8347 -->
<g id="edge8" class="edge"><title>Node8345&#45;&gt;Node8347</title>
<path fill="none" stroke="midnightblue" d="M69.0467,-122.072C85.9805,-134.742 116.825,-156.474 146,-170 219.056,-203.87 312.347,-226.637 355.348,-236.078"/>
<polygon fill="midnightblue" stroke="midnightblue" points="354.875,-239.556 365.388,-238.239 356.348,-232.713 354.875,-239.556"/>
</g>
<!-- Node8353 -->
<g id="node9" class="node"><title>Node8353</title>
<g id="a_node9"><a xlink:href="classAP__HAL_1_1RCInput.html#a078fd7e6d2e6a899009ec674a8e03498" target="_top" xlink:title=" ">
<polygon fill="white" stroke="black" points="153.917,-102 153.917,-122 276.083,-122 276.083,-102 153.917,-102"/>
<text text-anchor="middle" x="215" y="-108" font-family="Helvetica,sans-Serif" font-size="10.00">AP_HAL::RCInput::read</text>
</a>
</g>
</g>
<!-- Node8345&#45;&gt;Node8353 -->
<g id="edge9" class="edge"><title>Node8345&#45;&gt;Node8353</title>
<path fill="none" stroke="midnightblue" d="M109.933,-112C120.747,-112 132.26,-112 143.539,-112"/>
<polygon fill="midnightblue" stroke="midnightblue" points="143.804,-115.5 153.804,-112 143.804,-108.5 143.804,-115.5"/>
</g>
<!-- Node8354 -->
<g id="node10" class="node"><title>Node8354</title>
<g id="a_node10"><a xlink:href="classRC__Channel.html#a710ec00169e71f90318ebf0640fb86f4" target="_top" xlink:title=" ">
<polygon fill="white" stroke="black" points="158.086,-51 158.086,-83 271.914,-83 271.914,-51 158.086,-51"/>
<text text-anchor="start" x="166.086" y="-69" font-family="Helvetica,sans-Serif" font-size="10.00">RC_Channel::pwm_to</text>
<text text-anchor="middle" x="215" y="-57" font-family="Helvetica,sans-Serif" font-size="10.00">_range</text>
</a>
</g>
</g>
<!-- Node8345&#45;&gt;Node8354 -->
<g id="edge10" class="edge"><title>Node8345&#45;&gt;Node8354</title>
<path fill="none" stroke="midnightblue" d="M91.4583,-101.901C108.193,-97.135 128.717,-91.2893 148.15,-85.7547"/>
<polygon fill="midnightblue" stroke="midnightblue" points="149.224,-89.0882 157.882,-82.9829 147.306,-82.356 149.224,-89.0882"/>
</g>
<!-- Node8363 -->
<g id="node19" class="node"><title>Node8363</title>
<g id="a_node19"><a xlink:href="classRC__Channel.html#a087c1f776cc2c0e2a540dd9742d96a49" target="_top" xlink:title=" ">
<polygon fill="white" stroke="black" points="158.086,-0 158.086,-32 271.914,-32 271.914,-0 158.086,-0"/>
<text text-anchor="start" x="166.086" y="-18" font-family="Helvetica,sans-Serif" font-size="10.00">RC_Channel::pwm_to</text>
<text text-anchor="middle" x="215" y="-6" font-family="Helvetica,sans-Serif" font-size="10.00">_angle</text>
</a>
</g>
</g>
<!-- Node8345&#45;&gt;Node8363 -->
<g id="edge19" class="edge"><title>Node8345&#45;&gt;Node8363</title>
<path fill="none" stroke="midnightblue" d="M66.5535,-101.818C82.59,-86.7984 114.564,-58.589 146,-41 149,-39.3216 152.134,-37.7166 155.34,-36.1886"/>
<polygon fill="midnightblue" stroke="midnightblue" points="156.81,-39.365 164.511,-32.0887 153.954,-32.9744 156.81,-39.365"/>
</g>
<!-- Node8346&#45;&gt;Node8347 -->
<g id="edge2" class="edge"><title>Node8346&#45;&gt;Node8347</title>
<path fill="none" stroke="midnightblue" d="M228.458,-161.004C247.324,-175.768 284.695,-203.524 320,-221 331.312,-226.599 344.572,-231.25 355.653,-234.653"/>
<polygon fill="midnightblue" stroke="midnightblue" points="354.894,-238.078 365.474,-237.524 356.858,-231.359 354.894,-238.078"/>
</g>
<!-- Node8349 -->
<g id="node5" class="node"><title>Node8349</title>
<g id="a_node5"><a xlink:href="classRC__Channels.html#ad061d265dc67222805e126f980ff4879" target="_top" xlink:title=" ">
<polygon fill="white" stroke="black" points="320.03,-180 320.03,-212 439.97,-212 439.97,-180 320.03,-180"/>
<text text-anchor="start" x="328.03" y="-198" font-family="Helvetica,sans-Serif" font-size="10.00">RC_Channels::override</text>
<text text-anchor="middle" x="380" y="-186" font-family="Helvetica,sans-Serif" font-size="10.00">_timeout_ms</text>
</a>
</g>
</g>
<!-- Node8346&#45;&gt;Node8349 -->
<g id="edge4" class="edge"><title>Node8346&#45;&gt;Node8349</title>
<path fill="none" stroke="midnightblue" d="M252.58,-161.099C269.842,-165.864 291.014,-171.709 311.06,-177.244"/>
<polygon fill="midnightblue" stroke="midnightblue" points="310.217,-180.642 320.788,-179.929 312.08,-173.894 310.217,-180.642"/>
</g>
<!-- Node8350 -->
<g id="node6" class="node"><title>Node8350</title>
<g id="a_node6"><a xlink:href="AP__Math_8h.html#a4e3ae698e8f99cec214348ad233e3c41" target="_top" xlink:title=" ">
<polygon fill="white" stroke="black" points="348.655,-141 348.655,-161 411.345,-161 411.345,-141 348.655,-141"/>
<text text-anchor="middle" x="380" y="-147" font-family="Helvetica,sans-Serif" font-size="10.00">is_positive</text>
</a>
</g>
</g>
<!-- Node8346&#45;&gt;Node8350 -->
<g id="edge5" class="edge"><title>Node8346&#45;&gt;Node8350</title>
<path fill="none" stroke="midnightblue" d="M283.711,-151C302.223,-151 321.712,-151 338.208,-151"/>
<polygon fill="midnightblue" stroke="midnightblue" points="338.575,-154.5 348.575,-151 338.575,-147.5 338.575,-154.5"/>
</g>
<!-- Node8351 -->
<g id="node7" class="node"><title>Node8351</title>
<g id="a_node7"><a xlink:href="namespaceAP__HAL.html#a77dffbb18891996280308e21316ec186" target="_top" xlink:title=" ">
<polygon fill="white" stroke="black" points="338.936,-102 338.936,-122 421.064,-122 421.064,-102 338.936,-102"/>
<text text-anchor="middle" x="380" y="-108" font-family="Helvetica,sans-Serif" font-size="10.00">AP_HAL::millis</text>
</a>
</g>
</g>
<!-- Node8346&#45;&gt;Node8351 -->
<g id="edge6" class="edge"><title>Node8346&#45;&gt;Node8351</title>
<path fill="none" stroke="midnightblue" d="M257.977,-140.957C279.669,-135.766 306.29,-129.397 329.037,-123.954"/>
<polygon fill="midnightblue" stroke="midnightblue" points="329.941,-127.337 338.852,-121.606 328.312,-120.529 329.941,-127.337"/>
</g>
<!-- Node8348 -->
<g id="node4" class="node"><title>Node8348</title>
<g id="a_node4"><a xlink:href="classRC__Channels.html#aff83e1bebc777f76d2c19fc601c40c4f" target="_top" xlink:title=" ">
<polygon fill="white" stroke="black" points="476.348,-231 476.348,-251 619.652,-251 619.652,-231 476.348,-231"/>
<text text-anchor="middle" x="548" y="-237" font-family="Helvetica,sans-Serif" font-size="10.00">RC_Channels::get_singleton</text>
</a>
</g>
</g>
<!-- Node8347&#45;&gt;Node8348 -->
<g id="edge3" class="edge"><title>Node8347&#45;&gt;Node8348</title>
<path fill="none" stroke="midnightblue" d="M394.584,-241C410.584,-241 438.493,-241 466.093,-241"/>
<polygon fill="midnightblue" stroke="midnightblue" points="466.225,-244.5 476.225,-241 466.225,-237.5 466.225,-244.5"/>
</g>
<!-- Node8352 -->
<g id="node8" class="node"><title>Node8352</title>
<g id="a_node8"><a xlink:href="hrt_8c.html#a1295f128f60d29874243b5733c4db025" target="_top" xlink:title=" ">
<polygon fill="white" stroke="black" points="514.714,-102 514.714,-122 581.286,-122 581.286,-102 514.714,-102"/>
<text text-anchor="middle" x="548" y="-108" font-family="Helvetica,sans-Serif" font-size="10.00">hrt_millis32</text>
</a>
</g>
</g>
<!-- Node8351&#45;&gt;Node8352 -->
<g id="edge7" class="edge"><title>Node8351&#45;&gt;Node8352</title>
<path fill="none" stroke="midnightblue" d="M421.184,-112C446.4,-112 478.876,-112 504.517,-112"/>
<polygon fill="midnightblue" stroke="midnightblue" points="504.689,-115.5 514.689,-112 504.689,-108.5 504.689,-115.5"/>
</g>
<!-- Node8355 -->
<g id="node11" class="node"><title>Node8355</title>
<g id="a_node11"><a xlink:href="classRC__Channel.html#a4722e4a0f1e7bf5ac496bf5213a3a6bd" target="_top" xlink:title=" ">
<polygon fill="white" stroke="black" points="323.086,-51 323.086,-83 436.914,-83 436.914,-51 323.086,-51"/>
<text text-anchor="start" x="331.086" y="-69" font-family="Helvetica,sans-Serif" font-size="10.00">RC_Channel::pwm_to</text>
<text text-anchor="middle" x="380" y="-57" font-family="Helvetica,sans-Serif" font-size="10.00">_range_dz</text>
</a>
</g>
</g>
<!-- Node8354&#45;&gt;Node8355 -->
<g id="edge11" class="edge"><title>Node8354&#45;&gt;Node8355</title>
<path fill="none" stroke="midnightblue" d="M272.095,-67C285.231,-67 299.345,-67 312.873,-67"/>
<polygon fill="midnightblue" stroke="midnightblue" points="313.078,-70.5001 323.077,-67 313.077,-63.5001 313.078,-70.5001"/>
</g>
<!-- Node8356 -->
<g id="node12" class="node"><title>Node8356</title>
<g id="a_node12"><a xlink:href="AP__Math_8h.html#a68558c4f79a8582543daefde13c64abc" target="_top" xlink:title=" ">
<polygon fill="white" stroke="black" points="506.089,-57 506.089,-77 589.911,-77 589.911,-57 506.089,-57"/>
<text text-anchor="middle" x="548" y="-63" font-family="Helvetica,sans-Serif" font-size="10.00">constrain_int16</text>
</a>
</g>
</g>
<!-- Node8355&#45;&gt;Node8356 -->
<g id="edge12" class="edge"><title>Node8355&#45;&gt;Node8356</title>
<path fill="none" stroke="midnightblue" d="M437.2,-67C456.247,-67 477.403,-67 496.02,-67"/>
<polygon fill="midnightblue" stroke="midnightblue" points="496.073,-70.5001 506.073,-67 496.073,-63.5001 496.073,-70.5001"/>
</g>
<!-- Node8357 -->
<g id="node13" class="node"><title>Node8357</title>
<g id="a_node13"><a xlink:href="AP__Math_8h.html#a20e8f8671c282c69c1954652b6d61585" target="_top" xlink:title=" ">
<polygon fill="white" stroke="black" points="655.978,-57 655.978,-77 742.022,-77 742.022,-57 655.978,-57"/>
<text text-anchor="middle" x="699" y="-63" font-family="Helvetica,sans-Serif" font-size="10.00">constrain_value</text>
</a>
</g>
</g>
<!-- Node8356&#45;&gt;Node8357 -->
<g id="edge13" class="edge"><title>Node8356&#45;&gt;Node8357</title>
<path fill="none" stroke="midnightblue" d="M590.109,-67C607.255,-67 627.375,-67 645.566,-67"/>
<polygon fill="midnightblue" stroke="midnightblue" points="645.728,-70.5001 655.728,-67 645.728,-63.5001 645.728,-70.5001"/>
</g>
<!-- Node8358 -->
<g id="node14" class="node"><title>Node8358</title>
<g id="a_node14"><a xlink:href="namespaceAP.html#afceb236ff617aaaa2b08afacd72532b0" target="_top" xlink:title=" ">
<polygon fill="white" stroke="black" points="792.596,-77 792.596,-97 881.404,-97 881.404,-77 792.596,-77"/>
<text text-anchor="middle" x="837" y="-83" font-family="Helvetica,sans-Serif" font-size="10.00">AP::internalerror</text>
</a>
</g>
</g>
<!-- Node8357&#45;&gt;Node8358 -->
<g id="edge14" class="edge"><title>Node8357&#45;&gt;Node8358</title>
<path fill="none" stroke="midnightblue" d="M742.286,-73.2185C754.962,-75.0826 769.035,-77.1523 782.342,-79.1091"/>
<polygon fill="midnightblue" stroke="midnightblue" points="781.929,-82.5859 792.331,-80.5782 782.947,-75.6604 781.929,-82.5859"/>
</g>
<!-- Node8359 -->
<g id="node15" class="node"><title>Node8359</title>
<g id="a_node15"><a xlink:href="classAP__InternalError.html#ab34174ba770b976b39a18c2b23e854f2" target="_top" xlink:title=" ">
<polygon fill="white" stroke="black" points="778.426,-38 778.426,-58 895.574,-58 895.574,-38 778.426,-38"/>
<text text-anchor="middle" x="837" y="-44" font-family="Helvetica,sans-Serif" font-size="10.00">AP_InternalError::error</text>
</a>
</g>
</g>
<!-- Node8357&#45;&gt;Node8359 -->
<g id="edge15" class="edge"><title>Node8357&#45;&gt;Node8359</title>
<path fill="none" stroke="midnightblue" d="M742.286,-61.0924C750.557,-59.9369 759.424,-58.6981 768.284,-57.4603"/>
<polygon fill="midnightblue" stroke="midnightblue" points="768.833,-60.9177 778.253,-56.0676 767.865,-53.985 768.833,-60.9177"/>
</g>
<!-- Node8360 -->
<g id="node16" class="node"><title>Node8360</title>
<g id="a_node16"><a xlink:href="namespaceAP__HAL.html#a71832f03d849a0c088f04fc98d3c8143" target="_top" xlink:title=" ">
<polygon fill="white" stroke="black" points="932.091,-38 932.091,-58 1015.91,-58 1015.91,-38 932.091,-38"/>
<text text-anchor="middle" x="974" y="-44" font-family="Helvetica,sans-Serif" font-size="10.00">AP_HAL::panic</text>
</a>
</g>
</g>
<!-- Node8359&#45;&gt;Node8360 -->
<g id="edge16" class="edge"><title>Node8359&#45;&gt;Node8360</title>
<path fill="none" stroke="midnightblue" d="M895.644,-48C904.305,-48 913.188,-48 921.705,-48"/>
<polygon fill="midnightblue" stroke="midnightblue" points="921.873,-51.5001 931.873,-48 921.872,-44.5001 921.873,-51.5001"/>
</g>
<!-- Node8361 -->
<g id="node17" class="node"><title>Node8361</title>
<g id="a_node17"><a xlink:href="stdio_8h.html#aae132cc6af1eb6cf43bf011d8d63e854" target="_top" xlink:title=" ">
<polygon fill="white" stroke="black" points="1085.38,-61 1085.38,-81 1128.62,-81 1128.62,-61 1085.38,-61"/>
<text text-anchor="middle" x="1107" y="-67" font-family="Helvetica,sans-Serif" font-size="10.00">vprintf</text>
</a>
</g>
</g>
<!-- Node8360&#45;&gt;Node8361 -->
<g id="edge17" class="edge"><title>Node8360&#45;&gt;Node8361</title>
<path fill="none" stroke="midnightblue" d="M1016.09,-55.2142C1035.1,-58.5526 1057.32,-62.4533 1074.91,-65.542"/>
<polygon fill="midnightblue" stroke="midnightblue" points="1074.74,-69.0658 1085.2,-67.3478 1075.95,-62.1712 1074.74,-69.0658"/>
</g>
<!-- Node8362 -->
<g id="node18" class="node"><title>Node8362</title>
<g id="a_node18"><a xlink:href="classAP__HAL_1_1Scheduler.html#a78c4f1b1f192ac1c99544b6cc8f099b0" target="_top" xlink:title=" ">
<polygon fill="white" stroke="black" points="1051.75,-10 1051.75,-42 1162.25,-42 1162.25,-10 1051.75,-10"/>
<text text-anchor="start" x="1059.75" y="-28" font-family="Helvetica,sans-Serif" font-size="10.00">AP_HAL::Scheduler::</text>
<text text-anchor="middle" x="1107" y="-16" font-family="Helvetica,sans-Serif" font-size="10.00">delay_microseconds</text>
</a>
</g>
</g>
<!-- Node8360&#45;&gt;Node8362 -->
<g id="edge18" class="edge"><title>Node8360&#45;&gt;Node8362</title>
<path fill="none" stroke="midnightblue" d="M1016.09,-41.0994C1024.18,-39.7408 1032.85,-38.2849 1041.5,-36.8329"/>
<polygon fill="midnightblue" stroke="midnightblue" points="1042.32,-40.2441 1051.6,-35.1361 1041.16,-33.3407 1042.32,-40.2441"/>
</g>
<!-- Node8364 -->
<g id="node20" class="node"><title>Node8364</title>
<g id="a_node20"><a xlink:href="classRC__Channel.html#a6cd7026f64767a30bfcd71e53e5c5092" target="_top" xlink:title=" ">
<polygon fill="white" stroke="black" points="323.086,-0 323.086,-32 436.914,-32 436.914,-0 323.086,-0"/>
<text text-anchor="start" x="331.086" y="-18" font-family="Helvetica,sans-Serif" font-size="10.00">RC_Channel::pwm_to</text>
<text text-anchor="middle" x="380" y="-6" font-family="Helvetica,sans-Serif" font-size="10.00">_angle_dz</text>
</a>
</g>
</g>
<!-- Node8363&#45;&gt;Node8364 -->
<g id="edge20" class="edge"><title>Node8363&#45;&gt;Node8364</title>
<path fill="none" stroke="midnightblue" d="M272.095,-16C285.231,-16 299.345,-16 312.873,-16"/>
<polygon fill="midnightblue" stroke="midnightblue" points="313.078,-19.5001 323.077,-16 313.077,-12.5001 313.078,-19.5001"/>
</g>
<!-- Node8365 -->
<g id="node21" class="node"><title>Node8365</title>
<g id="a_node21"><a xlink:href="classRC__Channel.html#ace0ba2aadcc29da753f9511c5546ed48" target="_top" xlink:title=" ">
<polygon fill="white" stroke="black" points="491.086,-0 491.086,-32 604.914,-32 604.914,-0 491.086,-0"/>
<text text-anchor="start" x="499.086" y="-18" font-family="Helvetica,sans-Serif" font-size="10.00">RC_Channel::pwm_to</text>
<text text-anchor="middle" x="548" y="-6" font-family="Helvetica,sans-Serif" font-size="10.00">_angle_dz_trim</text>
</a>
</g>
</g>
<!-- Node8364&#45;&gt;Node8365 -->
<g id="edge21" class="edge"><title>Node8364&#45;&gt;Node8365</title>
<path fill="none" stroke="midnightblue" d="M437.2,-16C451.127,-16 466.181,-16 480.546,-16"/>
<polygon fill="midnightblue" stroke="midnightblue" points="480.858,-19.5001 490.858,-16 480.858,-12.5001 480.858,-19.5001"/>
</g>
</g>
</svg>
