<?xml version="1.0" encoding="UTF-8" standalone="no"?>
<!DOCTYPE svg PUBLIC "-//W3C//DTD SVG 1.1//EN"
 "http://www.w3.org/Graphics/SVG/1.1/DTD/svg11.dtd">
<!-- Generated by graphviz version 2.30.1 (20130221.2233)
 -->
<!-- Title: AP_RangeFinder_VL53L0X Pages: 1 -->
<!--zoomable 188 -->
<svg id="main" version="1.1" xmlns="http://www.w3.org/2000/svg" xmlns:xlink="http://www.w3.org/1999/xlink" xml:space="preserve" onload="init(evt)">
<style type="text/css"><![CDATA[
.edge:hover path { stroke: red; }
.edge:hover polygon { stroke: red; fill: red; }
]]></style>
<script type="text/javascript"><![CDATA[
var edges = document.getElementsByTagName('g');
if (edges && edges.length) {
  for (var i=0;i<edges.length;i++) {
    if (edges[i].id.substr(0,4)=='edge') {
      edges[i].setAttribute('class','edge');
    }
  }
}
]]></script>
        <defs>
                <circle id="rim" cx="0" cy="0" r="7"/>
                <circle id="rim2" cx="0" cy="0" r="3.5"/>
                <g id="zoomPlus">
                        <use xlink:href="#rim" fill="#404040">
                                <set attributeName="fill" to="#808080" begin="zoomplus.mouseover" end="zoomplus.mouseout"/>
                        </use>
                        <path d="M-4,0h8M0,-4v8" fill="none" stroke="white" stroke-width="1.5" pointer-events="none"/>
                </g>
                <g id="zoomMin">
                        <use xlink:href="#rim" fill="#404040">
                                <set attributeName="fill" to="#808080" begin="zoomminus.mouseover" end="zoomminus.mouseout"/>
                        </use>
                        <path d="M-4,0h8" fill="none" stroke="white" stroke-width="1.5" pointer-events="none"/>
                </g>
                <g id="dirArrow">
                        <path fill="none" stroke="white" stroke-width="1.5" d="M0,-3.0v7 M-2.5,-0.5L0,-3.0L2.5,-0.5"/>
                </g>
               <g id="resetDef">
                       <use xlink:href="#rim2" fill="#404040">
                               <set attributeName="fill" to="#808080" begin="reset.mouseover" end="reset.mouseout"/>
                       </use>
               </g>
        </defs>

<script type="text/javascript">
var viewWidth = 1232;
var viewHeight = 188;
var sectionId = 'dynsection-1';
</script>
<script xlink:href="svgpan.js"/>
<svg id="graph" class="graph">
<g id="viewport">
<title>AP_RangeFinder_VL53L0X</title>
<polygon fill="white" stroke="white" points="-4,5 -4,-184 1229,-184 1229,5 -4,5"/>
<!-- Node2 -->
<g id="node1" class="node"><title>Node2</title>
<g id="a_node1"><a xlink:title=" ">
<polygon fill="#bfbfbf" stroke="black" points="1084.29,-57 1084.29,-77 1223.71,-77 1223.71,-57 1084.29,-57"/>
<text text-anchor="middle" x="1154" y="-63" font-family="Helvetica,sans-Serif" font-size="10.00">AP_RangeFinder_VL53L0X</text>
</a>
</g>
</g>
<!-- Node3 -->
<g id="node2" class="node"><title>Node3</title>
<g id="a_node2"><a xlink:href="classAP__RangeFinder__Backend.html" target="_top" xlink:title=" ">
<polygon fill="white" stroke="black" points="853.404,-102 853.404,-122 990.596,-122 990.596,-102 853.404,-102"/>
<text text-anchor="middle" x="922" y="-108" font-family="Helvetica,sans-Serif" font-size="10.00">AP_RangeFinder_Backend</text>
</a>
</g>
</g>
<!-- Node3&#45;&gt;Node2 -->
<g id="edge1" class="edge"><title>Node3&#45;&gt;Node2</title>
<path fill="none" stroke="midnightblue" d="M984.409,-99.9852C1021.09,-92.8093 1067.13,-83.8009 1101.83,-77.0122"/>
<polygon fill="midnightblue" stroke="midnightblue" points="983.472,-96.6021 974.33,-101.957 984.816,-103.472 983.472,-96.6021"/>
</g>
<!-- Node4 -->
<g id="node3" class="node"><title>Node4</title>
<g id="a_node3"><a xlink:href="structRangeFinder_1_1RangeFinder__State.html" target="_top" xlink:title=" ">
<polygon fill="white" stroke="black" points="642.409,-138 642.409,-170 779.591,-170 779.591,-138 642.409,-138"/>
<text text-anchor="start" x="650.409" y="-156" font-family="Helvetica,sans-Serif" font-size="10.00">RangeFinder::RangeFinder</text>
<text text-anchor="middle" x="711" y="-144" font-family="Helvetica,sans-Serif" font-size="10.00">_State</text>
</a>
</g>
</g>
<!-- Node4&#45;&gt;Node3 -->
<g id="edge2" class="edge"><title>Node4&#45;&gt;Node3</title>
<path fill="none" stroke="#9a32cd" stroke-dasharray="5,2" d="M789.742,-138.377C816.933,-132.913 846.715,-126.928 871.028,-122.042"/>
<polygon fill="#9a32cd" stroke="#9a32cd" points="788.971,-134.962 779.856,-140.364 790.35,-141.825 788.971,-134.962"/>
<text text-anchor="middle" x="816" y="-137" font-family="Helvetica,sans-Serif" font-size="10.00"> state</text>
</g>
<!-- Node5 -->
<g id="node4" class="node"><title>Node5</title>
<g id="a_node4"><a xlink:href="structAP__Param_1_1GroupInfo.html" target="_top" xlink:title=" ">
<polygon fill="white" stroke="black" points="453.808,-118 453.808,-138 568.192,-138 568.192,-118 453.808,-118"/>
<text text-anchor="middle" x="511" y="-124" font-family="Helvetica,sans-Serif" font-size="10.00">AP_Param::GroupInfo</text>
</a>
</g>
</g>
<!-- Node5&#45;&gt;Node4 -->
<g id="edge3" class="edge"><title>Node5&#45;&gt;Node4</title>
<path fill="none" stroke="#9a32cd" stroke-dasharray="5,2" d="M578.162,-136.688C598.826,-139.401 621.643,-142.398 642.405,-145.124"/>
<polygon fill="#9a32cd" stroke="#9a32cd" points="578.58,-133.213 568.209,-135.381 577.668,-140.153 578.58,-133.213"/>
<text text-anchor="middle" x="605" y="-144" font-family="Helvetica,sans-Serif" font-size="10.00"> var_info</text>
</g>
<!-- Node5&#45;&gt;Node5 -->
<g id="edge4" class="edge"><title>Node5&#45;&gt;Node5</title>
<path fill="none" stroke="#9a32cd" stroke-dasharray="5,2" d="M493.736,-147.922C495.176,-152.573 500.931,-156 511,-156 527.523,-156 532.429,-146.771 525.716,-138.048"/>
<polygon fill="#9a32cd" stroke="#9a32cd" points="497.174,-148.605 496.284,-138.048 490.396,-146.856 497.174,-148.605"/>
<text text-anchor="middle" x="511" y="-170" font-family="Helvetica,sans-Serif" font-size="10.00"> group_info_ptr</text>
<text text-anchor="middle" x="511" y="-158" font-family="Helvetica,sans-Serif" font-size="10.00">group_info</text>
</g>
<!-- Node6 -->
<g id="node5" class="node"><title>Node6</title>
<g id="a_node5"><a xlink:href="classAP__RangeFinder__Params.html" target="_top" xlink:title=" ">
<polygon fill="white" stroke="black" points="644.636,-99 644.636,-119 777.364,-119 777.364,-99 644.636,-99"/>
<text text-anchor="middle" x="711" y="-105" font-family="Helvetica,sans-Serif" font-size="10.00">AP_RangeFinder_Params</text>
</a>
</g>
</g>
<!-- Node5&#45;&gt;Node6 -->
<g id="edge6" class="edge"><title>Node5&#45;&gt;Node6</title>
<path fill="none" stroke="#9a32cd" stroke-dasharray="5,2" d="M578.429,-117.856C580.983,-117.551 583.514,-117.265 586,-117 604.985,-114.98 625.662,-113.401 644.594,-112.199"/>
<polygon fill="#9a32cd" stroke="#9a32cd" points="577.985,-114.384 568.502,-119.107 578.861,-121.329 577.985,-114.384"/>
<text text-anchor="middle" x="605" y="-119" font-family="Helvetica,sans-Serif" font-size="10.00"> var_info</text>
</g>
<!-- Node6&#45;&gt;Node3 -->
<g id="edge5" class="edge"><title>Node6&#45;&gt;Node3</title>
<path fill="none" stroke="#9a32cd" stroke-dasharray="5,2" d="M787.589,-110.085C809.02,-110.393 832.211,-110.726 853.154,-111.026"/>
<polygon fill="#9a32cd" stroke="#9a32cd" points="787.605,-106.585 777.555,-109.941 787.504,-113.584 787.605,-106.585"/>
<text text-anchor="middle" x="816" y="-112" font-family="Helvetica,sans-Serif" font-size="10.00"> params</text>
</g>
<!-- Node7 -->
<g id="node6" class="node"><title>Node7</title>
<g id="a_node6"><a xlink:href="classAP__HAL_1_1OwnPtr.html" target="_top" xlink:title=" ">
<polygon fill="white" stroke="black" points="864.669,-51 864.669,-83 979.331,-83 979.331,-51 864.669,-51"/>
<text text-anchor="start" x="872.669" y="-69" font-family="Helvetica,sans-Serif" font-size="10.00">AP_HAL::OwnPtr&lt; AP</text>
<text text-anchor="middle" x="922" y="-57" font-family="Helvetica,sans-Serif" font-size="10.00">_HAL::I2CDevice &gt;</text>
</a>
</g>
</g>
<!-- Node7&#45;&gt;Node2 -->
<g id="edge7" class="edge"><title>Node7&#45;&gt;Node2</title>
<path fill="none" stroke="#9a32cd" stroke-dasharray="5,2" d="M989.783,-67C1019.35,-67 1054.1,-67 1083.92,-67"/>
<polygon fill="#9a32cd" stroke="#9a32cd" points="989.559,-63.5001 979.559,-67 989.559,-70.5001 989.559,-63.5001"/>
<text text-anchor="middle" x="1038" y="-69" font-family="Helvetica,sans-Serif" font-size="10.00"> dev</text>
</g>
<!-- Node8 -->
<g id="node7" class="node"><title>Node8</title>
<g id="a_node7"><a xlink:href="classAP__HAL_1_1I2CDevice.html" target="_top" xlink:title=" ">
<polygon fill="white" stroke="black" points="657.98,-57 657.98,-77 764.02,-77 764.02,-57 657.98,-57"/>
<text text-anchor="middle" x="711" y="-63" font-family="Helvetica,sans-Serif" font-size="10.00">AP_HAL::I2CDevice</text>
</a>
</g>
</g>
<!-- Node8&#45;&gt;Node7 -->
<g id="edge8" class="edge"><title>Node8&#45;&gt;Node7</title>
<path fill="none" stroke="#9a32cd" stroke-dasharray="5,2" d="M774.465,-67C802.995,-67 836.542,-67 864.334,-67"/>
<polygon fill="#9a32cd" stroke="#9a32cd" points="774.2,-63.5001 764.2,-67 774.2,-70.5001 774.2,-63.5001"/>
<text text-anchor="middle" x="816" y="-69" font-family="Helvetica,sans-Serif" font-size="10.00"> _ptr</text>
</g>
<!-- Node9 -->
<g id="node8" class="node"><title>Node9</title>
<g id="a_node8"><a xlink:href="classAP__HAL_1_1Device.html" target="_top" xlink:title=" ">
<polygon fill="white" stroke="black" points="465.761,-57 465.761,-77 556.239,-77 556.239,-57 465.761,-57"/>
<text text-anchor="middle" x="511" y="-63" font-family="Helvetica,sans-Serif" font-size="10.00">AP_HAL::Device</text>
</a>
</g>
</g>
<!-- Node9&#45;&gt;Node8 -->
<g id="edge9" class="edge"><title>Node9&#45;&gt;Node8</title>
<path fill="none" stroke="midnightblue" d="M566.6,-67C595.008,-67 629.569,-67 657.643,-67"/>
<polygon fill="midnightblue" stroke="midnightblue" points="566.435,-63.5001 556.435,-67 566.435,-70.5001 566.435,-63.5001"/>
</g>
<!-- Node10 -->
<g id="node9" class="node"><title>Node10</title>
<g id="a_node9"><a xlink:href="structAP__HAL_1_1Device_1_1checkreg.html" target="_top" xlink:title=" ">
<polygon fill="white" stroke="black" points="242.695,-75 242.695,-95 379.305,-95 379.305,-75 242.695,-75"/>
<text text-anchor="middle" x="311" y="-81" font-family="Helvetica,sans-Serif" font-size="10.00">AP_HAL::Device::checkreg</text>
</a>
</g>
</g>
<!-- Node10&#45;&gt;Node9 -->
<g id="edge10" class="edge"><title>Node10&#45;&gt;Node9</title>
<path fill="none" stroke="#9a32cd" stroke-dasharray="5,2" d="M389.465,-77.9578C415.281,-75.6108 443.15,-73.0773 465.581,-71.0381"/>
<polygon fill="#9a32cd" stroke="#9a32cd" points="388.952,-74.4898 379.31,-78.8809 389.586,-81.4611 388.952,-74.4898"/>
<text text-anchor="middle" x="417" y="-79" font-family="Helvetica,sans-Serif" font-size="10.00"> regs</text>
</g>
<!-- Node11 -->
<g id="node10" class="node"><title>Node11</title>
<g id="a_node10"><a xlink:href="unionAP__HAL_1_1Device_1_1DeviceId.html" target="_top" xlink:title=" ">
<polygon fill="white" stroke="black" points="243.53,-36 243.53,-56 378.47,-56 378.47,-36 243.53,-36"/>
<text text-anchor="middle" x="311" y="-42" font-family="Helvetica,sans-Serif" font-size="10.00">AP_HAL::Device::DeviceId</text>
</a>
</g>
</g>
<!-- Node11&#45;&gt;Node9 -->
<g id="edge11" class="edge"><title>Node11&#45;&gt;Node9</title>
<path fill="none" stroke="#9a32cd" stroke-dasharray="5,2" d="M388.813,-52.261C404.441,-53.6903 420.76,-55.2952 436,-57 445.534,-58.0665 455.739,-59.352 465.431,-60.6408"/>
<polygon fill="#9a32cd" stroke="#9a32cd" points="388.935,-48.7579 378.662,-51.3478 388.308,-55.7297 388.935,-48.7579"/>
<text text-anchor="middle" x="417" y="-59" font-family="Helvetica,sans-Serif" font-size="10.00"> _bus_id</text>
</g>
<!-- Node12 -->
<g id="node11" class="node"><title>Node12</title>
<g id="a_node11"><a xlink:href="structAP__HAL_1_1Device_1_1DeviceStructure.html" target="_top" xlink:title=" ">
<polygon fill="white" stroke="black" points="0.414062,-36 0.414062,-56 167.586,-56 167.586,-36 0.414062,-36"/>
<text text-anchor="middle" x="84" y="-42" font-family="Helvetica,sans-Serif" font-size="10.00">AP_HAL::Device::DeviceStructure</text>
</a>
</g>
</g>
<!-- Node12&#45;&gt;Node11 -->
<g id="edge12" class="edge"><title>Node12&#45;&gt;Node11</title>
<path fill="none" stroke="#9a32cd" stroke-dasharray="5,2" d="M177.856,-46C199.88,-46 222.94,-46 243.518,-46"/>
<polygon fill="#9a32cd" stroke="#9a32cd" points="177.823,-42.5001 167.823,-46 177.823,-49.5001 177.823,-42.5001"/>
<text text-anchor="middle" x="205" y="-48" font-family="Helvetica,sans-Serif" font-size="10.00"> devid_s</text>
</g>
<!-- Node13 -->
<g id="node12" class="node"><title>Node13</title>
<g id="a_node12"><a xlink:href="structAP__RangeFinder__VL53L0X_1_1RegData.html" target="_top" xlink:title=" ">
<polygon fill="white" stroke="black" points="852.289,-0 852.289,-32 991.711,-32 991.711,-0 852.289,-0"/>
<text text-anchor="start" x="860.289" y="-18" font-family="Helvetica,sans-Serif" font-size="10.00">AP_RangeFinder_VL53L0X</text>
<text text-anchor="middle" x="922" y="-6" font-family="Helvetica,sans-Serif" font-size="10.00">::RegData</text>
</a>
</g>
</g>
<!-- Node13&#45;&gt;Node2 -->
<g id="edge13" class="edge"><title>Node13&#45;&gt;Node2</title>
<path fill="none" stroke="#9a32cd" stroke-dasharray="5,2" d="M1001.82,-33.4778C1037.14,-41.309 1077.52,-50.264 1107.66,-56.9474"/>
<polygon fill="#9a32cd" stroke="#9a32cd" points="1002.53,-30.0496 992.008,-31.3017 1001.01,-36.8836 1002.53,-30.0496"/>
<text text-anchor="middle" x="1038" y="-49" font-family="Helvetica,sans-Serif" font-size="10.00"> tuning_data</text>
</g>
</g>
</svg>
        <g id="navigator" transform="translate(0 0)" fill="#404254">
                <rect fill="#f2f5e9" fill-opacity="0.5" stroke="#606060" stroke-width=".5" x="0" y="0" width="60" height="60"/>
                <use id="zoomplus" xlink:href="#zoomPlus" x="17" y="9" onmousedown="handleZoom(evt,'in')"/>
                <use id="zoomminus" xlink:href="#zoomMin" x="42" y="9" onmousedown="handleZoom(evt,'out')"/>
                <use id="reset" xlink:href="#resetDef" x="30" y="36" onmousedown="handleReset()"/>
                <g id="arrowUp" xlink:href="#dirArrow" transform="translate(30 24)" onmousedown="handlePan(0,-1)">
                  <use xlink:href="#rim" fill="#404040">
                        <set attributeName="fill" to="#808080" begin="arrowUp.mouseover" end="arrowUp.mouseout"/>
                  </use>
                  <path fill="none" stroke="white" stroke-width="1.5" d="M0,-3.0v7 M-2.5,-0.5L0,-3.0L2.5,-0.5"/>
                </g>
                <g id="arrowRight" xlink:href="#dirArrow" transform="rotate(90) translate(36 -43)" onmousedown="handlePan(1,0)">
                  <use xlink:href="#rim" fill="#404040">
                        <set attributeName="fill" to="#808080" begin="arrowRight.mouseover" end="arrowRight.mouseout"/>
                  </use>
                  <path fill="none" stroke="white" stroke-width="1.5" d="M0,-3.0v7 M-2.5,-0.5L0,-3.0L2.5,-0.5"/>
                </g>
                <g id="arrowDown" xlink:href="#dirArrow" transform="rotate(180) translate(-30 -48)" onmousedown="handlePan(0,1)">
                  <use xlink:href="#rim" fill="#404040">
                        <set attributeName="fill" to="#808080" begin="arrowDown.mouseover" end="arrowDown.mouseout"/>
                  </use>
                  <path fill="none" stroke="white" stroke-width="1.5" d="M0,-3.0v7 M-2.5,-0.5L0,-3.0L2.5,-0.5"/>
                </g>
                <g id="arrowLeft" xlink:href="#dirArrow" transform="rotate(270) translate(-36 17)" onmousedown="handlePan(-1,0)">
                  <use xlink:href="#rim" fill="#404040">
                        <set attributeName="fill" to="#808080" begin="arrowLeft.mouseover" end="arrowLeft.mouseout"/>
                  </use>
                  <path fill="none" stroke="white" stroke-width="1.5" d="M0,-3.0v7 M-2.5,-0.5L0,-3.0L2.5,-0.5"/>
                </g>
        </g>
        <svg viewBox="0 0 15 15" width="100%" height="30px" preserveAspectRatio="xMaxYMin meet">
         <g id="arrow_out" transform="scale(0.3 0.3)">
          <a xlink:href="classAP__RangeFinder__VL53L0X__coll__graph_org.svg" target="_base">
           <rect id="button" ry="5" rx="5" y="6" x="6" height="38" width="38"
                fill="#f2f5e9" fill-opacity="0.5" stroke="#606060" stroke-width="1.0"/>
           <path id="arrow"
             d="M 11.500037,31.436501 C 11.940474,20.09759 22.043105,11.32322 32.158766,21.979434 L 37.068811,17.246167 C 37.068811,17.246167 37.088388,32 37.088388,32 L 22.160133,31.978069 C 22.160133,31.978069 26.997745,27.140456 26.997745,27.140456 C 18.528582,18.264221 13.291696,25.230495 11.500037,31.436501 z"
             style="fill:#404040;"/>
          </a>
         </g>
        </svg>
</svg>
