<?xml version="1.0" encoding="UTF-8" standalone="no"?>
<!DOCTYPE svg PUBLIC "-//W3C//DTD SVG 1.1//EN"
 "http://www.w3.org/Graphics/SVG/1.1/DTD/svg11.dtd">
<!-- Generated by graphviz version 2.30.1 (20130221.2233)
 -->
<!-- Title: AP_Frsky_Telem::send_uint16 Pages: 1 -->
<svg width="478pt" height="79pt"
 viewBox="0.00 0.00 478.00 79.00" xmlns="http://www.w3.org/2000/svg" xmlns:xlink="http://www.w3.org/1999/xlink">
<g id="graph0" class="graph" transform="scale(1 1) rotate(0) translate(4 75)">
<title>AP_Frsky_Telem::send_uint16</title>
<polygon fill="white" stroke="white" points="-4,5 -4,-75 475,-75 475,5 -4,5"/>
<!-- Node1164 -->
<g id="node1" class="node"><title>Node1164</title>
<g id="a_node1"><a xlink:title=" ">
<polygon fill="#bfbfbf" stroke="black" points="0.591309,-19 0.591309,-51 119.409,-51 119.409,-19 0.591309,-19"/>
<text text-anchor="start" x="8.59131" y="-37" font-family="Helvetica,sans-Serif" font-size="10.00">AP_Frsky_Telem::send</text>
<text text-anchor="middle" x="60" y="-25" font-family="Helvetica,sans-Serif" font-size="10.00">_uint16</text>
</a>
</g>
</g>
<!-- Node1165 -->
<g id="node2" class="node"><title>Node1165</title>
<g id="a_node2"><a xlink:href="classAP__HAL_1_1BetterStream.html#a915cc01273d4b418c2fb2989fb31a508" target="_top" xlink:title=" ">
<polygon fill="white" stroke="black" points="343.589,-39 343.589,-71 462.411,-71 462.411,-39 343.589,-39"/>
<text text-anchor="start" x="351.589" y="-57" font-family="Helvetica,sans-Serif" font-size="10.00">AP_HAL::BetterStream</text>
<text text-anchor="middle" x="403" y="-45" font-family="Helvetica,sans-Serif" font-size="10.00">::write</text>
</a>
</g>
</g>
<!-- Node1164&#45;&gt;Node1165 -->
<g id="edge1" class="edge"><title>Node1164&#45;&gt;Node1165</title>
<path fill="none" stroke="midnightblue" d="M119.62,-38.4381C178.966,-41.9188 270.688,-47.2984 333.385,-50.9757"/>
<polygon fill="midnightblue" stroke="midnightblue" points="333.388,-54.4817 343.575,-51.5733 333.797,-47.4937 333.388,-54.4817"/>
</g>
<!-- Node1166 -->
<g id="node3" class="node"><title>Node1166</title>
<g id="a_node3"><a xlink:href="classAP__Frsky__Telem.html#ae275bd26952ce5ba1eda5650cc7bdcd1" target="_top" xlink:title=" ">
<polygon fill="white" stroke="black" points="156.36,-6 156.36,-26 299.64,-26 299.64,-6 156.36,-6"/>
<text text-anchor="middle" x="228" y="-12" font-family="Helvetica,sans-Serif" font-size="10.00">AP_Frsky_Telem::send_byte</text>
</a>
</g>
</g>
<!-- Node1164&#45;&gt;Node1166 -->
<g id="edge2" class="edge"><title>Node1164&#45;&gt;Node1166</title>
<path fill="none" stroke="midnightblue" d="M119.525,-28.3013C128.139,-27.3155 137.138,-26.2854 146.105,-25.2591"/>
<polygon fill="midnightblue" stroke="midnightblue" points="146.655,-28.7191 156.192,-24.1045 145.859,-21.7645 146.655,-28.7191"/>
</g>
<!-- Node1166&#45;&gt;Node1165 -->
<g id="edge3" class="edge"><title>Node1166&#45;&gt;Node1165</title>
<path fill="none" stroke="midnightblue" d="M273.552,-26.0435C291.877,-30.1747 313.518,-35.0531 333.76,-39.6164"/>
<polygon fill="midnightblue" stroke="midnightblue" points="333.039,-43.0416 343.564,-41.8265 334.578,-36.213 333.039,-43.0416"/>
</g>
<!-- Node1167 -->
<g id="node4" class="node"><title>Node1167</title>
<g id="a_node4"><a xlink:href="classAP__Frsky__Telem.html#a276d82db4184b09f3c21934ed9a715b6" target="_top" xlink:title=" ">
<polygon fill="white" stroke="black" points="336.096,-0 336.096,-20 469.904,-20 469.904,-0 336.096,-0"/>
<text text-anchor="middle" x="403" y="-6" font-family="Helvetica,sans-Serif" font-size="10.00">AP_Frsky_Telem::calc_crc</text>
</a>
</g>
</g>
<!-- Node1166&#45;&gt;Node1167 -->
<g id="edge4" class="edge"><title>Node1166&#45;&gt;Node1167</title>
<path fill="none" stroke="midnightblue" d="M299.865,-13.5423C308.45,-13.2445 317.247,-12.9394 325.903,-12.6392"/>
<polygon fill="midnightblue" stroke="midnightblue" points="326.106,-16.1343 335.979,-12.2897 325.864,-9.13855 326.106,-16.1343"/>
</g>
</g>
</svg>
