<?xml version="1.0" encoding="UTF-8" standalone="no"?>
<!DOCTYPE svg PUBLIC "-//W3C//DTD SVG 1.1//EN"
 "http://www.w3.org/Graphics/SVG/1.1/DTD/svg11.dtd">
<!-- Generated by graphviz version 2.30.1 (20130221.2233)
 -->
<!-- Title: RC_Channels::read_mode_switch Pages: 1 -->
<svg width="586pt" height="214pt"
 viewBox="0.00 0.00 586.00 214.00" xmlns="http://www.w3.org/2000/svg" xmlns:xlink="http://www.w3.org/1999/xlink">
<g id="graph0" class="graph" transform="scale(1 1) rotate(0) translate(4 210)">
<title>RC_Channels::read_mode_switch</title>
<polygon fill="white" stroke="white" points="-4,5 -4,-210 583,-210 583,5 -4,5"/>
<!-- Node5253 -->
<g id="node1" class="node"><title>Node5253</title>
<g id="a_node1"><a xlink:title=" ">
<polygon fill="#bfbfbf" stroke="black" points="-0.20166,-123 -0.20166,-155 134.202,-155 134.202,-123 -0.20166,-123"/>
<text text-anchor="start" x="7.79834" y="-141" font-family="Helvetica,sans-Serif" font-size="10.00">RC_Channels::read_mode</text>
<text text-anchor="middle" x="67" y="-129" font-family="Helvetica,sans-Serif" font-size="10.00">_switch</text>
</a>
</g>
</g>
<!-- Node5254 -->
<g id="node2" class="node"><title>Node5254</title>
<g id="a_node2"><a xlink:href="classRC__Channels.html#a047d7a7a6a80b5fd22fc2068ff66958f" target="_top" xlink:title=" ">
<polygon fill="white" stroke="black" points="171.968,-174 171.968,-206 298.032,-206 298.032,-174 171.968,-174"/>
<text text-anchor="start" x="179.968" y="-192" font-family="Helvetica,sans-Serif" font-size="10.00">RC_Channels::has_valid</text>
<text text-anchor="middle" x="235" y="-180" font-family="Helvetica,sans-Serif" font-size="10.00">_input</text>
</a>
</g>
</g>
<!-- Node5253&#45;&gt;Node5254 -->
<g id="edge1" class="edge"><title>Node5253&#45;&gt;Node5254</title>
<path fill="none" stroke="midnightblue" d="M120.523,-155.137C136.88,-160.162 155.071,-165.751 172.012,-170.955"/>
<polygon fill="midnightblue" stroke="midnightblue" points="171.231,-174.377 181.818,-173.968 173.287,-167.686 171.231,-174.377"/>
</g>
<!-- Node5255 -->
<g id="node3" class="node"><title>Node5255</title>
<g id="a_node3"><a xlink:href="classRC__Channels.html#a76fe4b6aec19e1e5a3c122d8c95402dd" target="_top" xlink:title=" ">
<polygon fill="white" stroke="black" points="182.532,-123 182.532,-155 287.468,-155 287.468,-123 182.532,-123"/>
<text text-anchor="start" x="190.532" y="-141" font-family="Helvetica,sans-Serif" font-size="10.00">RC_Channels::flight</text>
<text text-anchor="middle" x="235" y="-129" font-family="Helvetica,sans-Serif" font-size="10.00">_mode_channel</text>
</a>
</g>
</g>
<!-- Node5253&#45;&gt;Node5255 -->
<g id="edge2" class="edge"><title>Node5253&#45;&gt;Node5255</title>
<path fill="none" stroke="midnightblue" d="M134.562,-139C147.035,-139 160.024,-139 172.34,-139"/>
<polygon fill="midnightblue" stroke="midnightblue" points="172.502,-142.5 182.502,-139 172.502,-135.5 172.502,-142.5"/>
</g>
<!-- Node5258 -->
<g id="node6" class="node"><title>Node5258</title>
<g id="a_node6"><a xlink:href="classRC__Channel.html#aedb22300da87f02e47a695d89de430df" target="_top" xlink:title=" ">
<polygon fill="white" stroke="black" points="170.298,-58 170.298,-90 299.702,-90 299.702,-58 170.298,-58"/>
<text text-anchor="start" x="178.298" y="-76" font-family="Helvetica,sans-Serif" font-size="10.00">RC_Channel::read_mode</text>
<text text-anchor="middle" x="235" y="-64" font-family="Helvetica,sans-Serif" font-size="10.00">_switch</text>
</a>
</g>
</g>
<!-- Node5253&#45;&gt;Node5258 -->
<g id="edge5" class="edge"><title>Node5253&#45;&gt;Node5258</title>
<path fill="none" stroke="midnightblue" d="M109.034,-122.933C131.48,-114.143 159.483,-103.178 183.288,-93.8571"/>
<polygon fill="midnightblue" stroke="midnightblue" points="184.828,-97.0131 192.863,-90.1079 182.275,-90.495 184.828,-97.0131"/>
</g>
<!-- Node5256 -->
<g id="node4" class="node"><title>Node5256</title>
<g id="a_node4"><a xlink:href="classRC__Channels.html#a18d4c6ee4f5152d474271275996c02ed" target="_top" xlink:title=" ">
<polygon fill="white" stroke="black" points="341.683,-168 341.683,-200 468.317,-200 468.317,-168 341.683,-168"/>
<text text-anchor="start" x="349.683" y="-186" font-family="Helvetica,sans-Serif" font-size="10.00">RC_Channels::flight</text>
<text text-anchor="middle" x="405" y="-174" font-family="Helvetica,sans-Serif" font-size="10.00">_mode_channel_number</text>
</a>
</g>
</g>
<!-- Node5255&#45;&gt;Node5256 -->
<g id="edge3" class="edge"><title>Node5255&#45;&gt;Node5256</title>
<path fill="none" stroke="midnightblue" d="M287.776,-152.869C302.407,-156.788 318.576,-161.119 334.085,-165.273"/>
<polygon fill="midnightblue" stroke="midnightblue" points="333.594,-168.764 344.159,-167.971 335.405,-162.003 333.594,-168.764"/>
</g>
<!-- Node5257 -->
<g id="node5" class="node"><title>Node5257</title>
<g id="a_node5"><a xlink:href="classRC__Channels.html#a305bdcb535ed4055e86125c65bc6ba0c" target="_top" xlink:title=" ">
<polygon fill="white" stroke="black" points="345.579,-129 345.579,-149 464.421,-149 464.421,-129 345.579,-129"/>
<text text-anchor="middle" x="405" y="-135" font-family="Helvetica,sans-Serif" font-size="10.00">RC_Channels::channel</text>
</a>
</g>
</g>
<!-- Node5255&#45;&gt;Node5257 -->
<g id="edge4" class="edge"><title>Node5255&#45;&gt;Node5257</title>
<path fill="none" stroke="midnightblue" d="M287.776,-139C302.724,-139 319.276,-139 335.09,-139"/>
<polygon fill="midnightblue" stroke="midnightblue" points="335.351,-142.5 345.351,-139 335.351,-135.5 335.351,-142.5"/>
</g>
<!-- Node5259 -->
<g id="node7" class="node"><title>Node5259</title>
<g id="a_node7"><a xlink:href="classRC__Channel.html#a35dd43d363695269b38277306426f883" target="_top" xlink:title=" ">
<polygon fill="white" stroke="black" points="338.072,-90 338.072,-110 471.928,-110 471.928,-90 338.072,-90"/>
<text text-anchor="middle" x="405" y="-96" font-family="Helvetica,sans-Serif" font-size="10.00">RC_Channel::get_radio_in</text>
</a>
</g>
</g>
<!-- Node5258&#45;&gt;Node5259 -->
<g id="edge6" class="edge"><title>Node5258&#45;&gt;Node5259</title>
<path fill="none" stroke="midnightblue" d="M299.993,-83.9037C309.559,-85.3841 319.493,-86.9215 329.258,-88.4327"/>
<polygon fill="midnightblue" stroke="midnightblue" points="328.932,-91.924 339.35,-89.9946 330.003,-85.0063 328.932,-91.924"/>
</g>
<!-- Node5260 -->
<g id="node8" class="node"><title>Node5260</title>
<g id="a_node8"><a xlink:href="namespaceAP__HAL.html#a77dffbb18891996280308e21316ec186" target="_top" xlink:title=" ">
<polygon fill="white" stroke="black" points="363.936,-51 363.936,-71 446.064,-71 446.064,-51 363.936,-51"/>
<text text-anchor="middle" x="405" y="-57" font-family="Helvetica,sans-Serif" font-size="10.00">AP_HAL::millis</text>
</a>
</g>
</g>
<!-- Node5258&#45;&gt;Node5260 -->
<g id="edge7" class="edge"><title>Node5258&#45;&gt;Node5260</title>
<path fill="none" stroke="midnightblue" d="M299.993,-69.0482C317.655,-67.6815 336.569,-66.2178 353.361,-64.9185"/>
<polygon fill="midnightblue" stroke="midnightblue" points="353.811,-68.3942 363.511,-64.1331 353.271,-61.4151 353.811,-68.3942"/>
</g>
<!-- Node5262 -->
<g id="node10" class="node"><title>Node5262</title>
<g id="a_node10"><a xlink:href="classRC__Channel.html#a79cfb7c441f58d5355d21f6737236e6d" target="_top" xlink:title=" ">
<polygon fill="white" stroke="black" points="336.414,-0 336.414,-32 473.586,-32 473.586,-0 336.414,-0"/>
<text text-anchor="start" x="344.414" y="-18" font-family="Helvetica,sans-Serif" font-size="10.00">RC_Channel::mode_switch</text>
<text text-anchor="middle" x="405" y="-6" font-family="Helvetica,sans-Serif" font-size="10.00">_changed</text>
</a>
</g>
</g>
<!-- Node5258&#45;&gt;Node5262 -->
<g id="edge9" class="edge"><title>Node5258&#45;&gt;Node5262</title>
<path fill="none" stroke="midnightblue" d="M282.351,-57.9977C302.649,-50.9901 326.645,-42.7058 347.938,-35.3546"/>
<polygon fill="midnightblue" stroke="midnightblue" points="349.198,-38.6225 357.508,-32.0507 346.914,-32.0057 349.198,-38.6225"/>
</g>
<!-- Node5261 -->
<g id="node9" class="node"><title>Node5261</title>
<g id="a_node9"><a xlink:href="hrt_8c.html#a1295f128f60d29874243b5733c4db025" target="_top" xlink:title=" ">
<polygon fill="white" stroke="black" points="510.714,-51 510.714,-71 577.286,-71 577.286,-51 510.714,-51"/>
<text text-anchor="middle" x="544" y="-57" font-family="Helvetica,sans-Serif" font-size="10.00">hrt_millis32</text>
</a>
</g>
</g>
<!-- Node5260&#45;&gt;Node5261 -->
<g id="edge8" class="edge"><title>Node5260&#45;&gt;Node5261</title>
<path fill="none" stroke="midnightblue" d="M446.364,-61C463.227,-61 482.845,-61 499.981,-61"/>
<polygon fill="midnightblue" stroke="midnightblue" points="500.283,-64.5001 510.283,-61 500.283,-57.5001 500.283,-64.5001"/>
</g>
</g>
</svg>
