<?xml version="1.0" encoding="UTF-8" standalone="no"?>
<!DOCTYPE svg PUBLIC "-//W3C//DTD SVG 1.1//EN"
 "http://www.w3.org/Graphics/SVG/1.1/DTD/svg11.dtd">
<!-- Generated by graphviz version 2.30.1 (20130221.2233)
 -->
<!-- Title: AP_IOMCU_FW::fill_failsafe_pwm Pages: 1 -->
<!--zoomable 244 -->
<svg id="main" version="1.1" xmlns="http://www.w3.org/2000/svg" xmlns:xlink="http://www.w3.org/1999/xlink" xml:space="preserve" onload="init(evt)">
<style type="text/css"><![CDATA[
.edge:hover path { stroke: red; }
.edge:hover polygon { stroke: red; fill: red; }
]]></style>
<script type="text/javascript"><![CDATA[
var edges = document.getElementsByTagName('g');
if (edges && edges.length) {
  for (var i=0;i<edges.length;i++) {
    if (edges[i].id.substr(0,4)=='edge') {
      edges[i].setAttribute('class','edge');
    }
  }
}
]]></script>
        <defs>
                <circle id="rim" cx="0" cy="0" r="7"/>
                <circle id="rim2" cx="0" cy="0" r="3.5"/>
                <g id="zoomPlus">
                        <use xlink:href="#rim" fill="#404040">
                                <set attributeName="fill" to="#808080" begin="zoomplus.mouseover" end="zoomplus.mouseout"/>
                        </use>
                        <path d="M-4,0h8M0,-4v8" fill="none" stroke="white" stroke-width="1.5" pointer-events="none"/>
                </g>
                <g id="zoomMin">
                        <use xlink:href="#rim" fill="#404040">
                                <set attributeName="fill" to="#808080" begin="zoomminus.mouseover" end="zoomminus.mouseout"/>
                        </use>
                        <path d="M-4,0h8" fill="none" stroke="white" stroke-width="1.5" pointer-events="none"/>
                </g>
                <g id="dirArrow">
                        <path fill="none" stroke="white" stroke-width="1.5" d="M0,-3.0v7 M-2.5,-0.5L0,-3.0L2.5,-0.5"/>
                </g>
               <g id="resetDef">
                       <use xlink:href="#rim2" fill="#404040">
                               <set attributeName="fill" to="#808080" begin="reset.mouseover" end="reset.mouseout"/>
                       </use>
               </g>
        </defs>

<script type="text/javascript">
var viewWidth = 1196;
var viewHeight = 244;
var sectionId = 'dynsection-5';
</script>
<script xlink:href="svgpan.js"/>
<svg id="graph" class="graph">
<g id="viewport">
<title>AP_IOMCU_FW::fill_failsafe_pwm</title>
<polygon fill="white" stroke="white" points="-4,5 -4,-240 1193,-240 1193,5 -4,5"/>
<!-- Node11 -->
<g id="node1" class="node"><title>Node11</title>
<g id="a_node1"><a xlink:title=" ">
<polygon fill="#bfbfbf" stroke="black" points="-0.0424805,-108 -0.0424805,-128 168.042,-128 168.042,-108 -0.0424805,-108"/>
<text text-anchor="middle" x="84" y="-114" font-family="Helvetica,sans-Serif" font-size="10.00">AP_IOMCU_FW::fill_failsafe_pwm</text>
</a>
</g>
</g>
<!-- Node12 -->
<g id="node2" class="node"><title>Node12</title>
<g id="a_node2"><a xlink:href="classAP__IOMCU__FW.html#a720612853deb29c9265ff8445dfcd3a9" target="_top" xlink:title=" ">
<polygon fill="white" stroke="black" points="204.411,-108 204.411,-128 343.589,-128 343.589,-108 204.411,-108"/>
<text text-anchor="middle" x="274" y="-114" font-family="Helvetica,sans-Serif" font-size="10.00">AP_IOMCU_FW::run_mixer</text>
</a>
</g>
</g>
<!-- Node11&#45;&gt;Node12 -->
<g id="edge1" class="edge"><title>Node11&#45;&gt;Node12</title>
<path fill="none" stroke="midnightblue" d="M168.281,-118C176.799,-118 185.437,-118 193.909,-118"/>
<polygon fill="midnightblue" stroke="midnightblue" points="194.141,-121.5 204.141,-118 194.141,-114.5 194.141,-121.5"/>
</g>
<!-- Node13 -->
<g id="node3" class="node"><title>Node13</title>
<g id="a_node3"><a xlink:href="classAP__IOMCU__FW.html#a96d80658cd4a37035ddaac7e422a9e4b" target="_top" xlink:title=" ">
<polygon fill="white" stroke="black" points="384.241,-204 384.241,-236 521.759,-236 521.759,-204 384.241,-204"/>
<text text-anchor="start" x="392.241" y="-222" font-family="Helvetica,sans-Serif" font-size="10.00">AP_IOMCU_FW::mix_input</text>
<text text-anchor="middle" x="453" y="-210" font-family="Helvetica,sans-Serif" font-size="10.00">_range</text>
</a>
</g>
</g>
<!-- Node12&#45;&gt;Node13 -->
<g id="edge2" class="edge"><title>Node12&#45;&gt;Node13</title>
<path fill="none" stroke="midnightblue" d="M286.559,-128.059C305.169,-143.848 343.399,-174.64 380,-194 383.939,-196.084 388.082,-198.067 392.307,-199.942"/>
<polygon fill="midnightblue" stroke="midnightblue" points="391.066,-203.217 401.641,-203.867 393.779,-196.764 391.066,-203.217"/>
</g>
<!-- Node14 -->
<g id="node4" class="node"><title>Node14</title>
<g id="a_node4"><a xlink:href="classAP__IOMCU__FW.html#ac7bb27b0df629b409796cc5622ec890c" target="_top" xlink:title=" ">
<polygon fill="white" stroke="black" points="384.241,-153 384.241,-185 521.759,-185 521.759,-153 384.241,-153"/>
<text text-anchor="start" x="392.241" y="-171" font-family="Helvetica,sans-Serif" font-size="10.00">AP_IOMCU_FW::mix_input</text>
<text text-anchor="middle" x="453" y="-159" font-family="Helvetica,sans-Serif" font-size="10.00">_angle</text>
</a>
</g>
</g>
<!-- Node12&#45;&gt;Node14 -->
<g id="edge3" class="edge"><title>Node12&#45;&gt;Node14</title>
<path fill="none" stroke="midnightblue" d="M309.97,-128.076C331.767,-134.357 360.505,-142.637 386.425,-150.106"/>
<polygon fill="midnightblue" stroke="midnightblue" points="385.623,-153.517 396.201,-152.922 387.561,-146.79 385.623,-153.517"/>
</g>
<!-- Node15 -->
<g id="node5" class="node"><title>Node15</title>
<g id="a_node5"><a xlink:href="classAP__IOMCU__FW.html#a89a2cccacd793d0fea4394805f92f289" target="_top" xlink:title=" ">
<polygon fill="white" stroke="black" points="381.182,-102 381.182,-134 524.818,-134 524.818,-102 381.182,-102"/>
<text text-anchor="start" x="389.182" y="-120" font-family="Helvetica,sans-Serif" font-size="10.00">AP_IOMCU_FW::mix_output</text>
<text text-anchor="middle" x="453" y="-108" font-family="Helvetica,sans-Serif" font-size="10.00">_angle</text>
</a>
</g>
</g>
<!-- Node12&#45;&gt;Node15 -->
<g id="edge4" class="edge"><title>Node12&#45;&gt;Node15</title>
<path fill="none" stroke="midnightblue" d="M343.686,-118C352.582,-118 361.76,-118 370.834,-118"/>
<polygon fill="midnightblue" stroke="midnightblue" points="371.014,-121.5 381.014,-118 371.014,-114.5 371.014,-121.5"/>
</g>
<!-- Node23 -->
<g id="node13" class="node"><title>Node23</title>
<g id="a_node13"><a xlink:href="classAP__IOMCU__FW.html#adf7026ea65bac5b38ea21e975f324890" target="_top" xlink:title=" ">
<polygon fill="white" stroke="black" points="381.182,-51 381.182,-83 524.818,-83 524.818,-51 381.182,-51"/>
<text text-anchor="start" x="389.182" y="-69" font-family="Helvetica,sans-Serif" font-size="10.00">AP_IOMCU_FW::mix_output</text>
<text text-anchor="middle" x="453" y="-57" font-family="Helvetica,sans-Serif" font-size="10.00">_range</text>
</a>
</g>
</g>
<!-- Node12&#45;&gt;Node23 -->
<g id="edge12" class="edge"><title>Node12&#45;&gt;Node23</title>
<path fill="none" stroke="midnightblue" d="M309.97,-107.924C331.767,-101.643 360.505,-93.3629 386.425,-85.8944"/>
<polygon fill="midnightblue" stroke="midnightblue" points="387.561,-89.2096 396.201,-83.0777 385.623,-82.4833 387.561,-89.2096"/>
</g>
<!-- Node24 -->
<g id="node14" class="node"><title>Node24</title>
<g id="a_node14"><a xlink:href="classAP__IOMCU__FW.html#a0e503cf32ba61128d16242a2b80571f0" target="_top" xlink:title=" ">
<polygon fill="white" stroke="black" points="380.349,-0 380.349,-32 525.651,-32 525.651,-0 380.349,-0"/>
<text text-anchor="start" x="388.349" y="-18" font-family="Helvetica,sans-Serif" font-size="10.00">AP_IOMCU_FW::mix_elevon</text>
<text text-anchor="middle" x="453" y="-6" font-family="Helvetica,sans-Serif" font-size="10.00">_vtail</text>
</a>
</g>
</g>
<!-- Node12&#45;&gt;Node24 -->
<g id="edge14" class="edge"><title>Node12&#45;&gt;Node24</title>
<path fill="none" stroke="midnightblue" d="M286.559,-107.941C305.169,-92.1517 343.399,-61.3599 380,-42 383.939,-39.9164 388.082,-37.9325 392.307,-36.0581"/>
<polygon fill="midnightblue" stroke="midnightblue" points="393.779,-39.2357 401.641,-32.133 391.066,-32.783 393.779,-39.2357"/>
</g>
<!-- Node16 -->
<g id="node6" class="node"><title>Node16</title>
<g id="a_node6"><a xlink:href="AP__Math_8h.html#a68558c4f79a8582543daefde13c64abc" target="_top" xlink:title=" ">
<polygon fill="white" stroke="black" points="562.089,-82 562.089,-102 645.911,-102 645.911,-82 562.089,-82"/>
<text text-anchor="middle" x="604" y="-88" font-family="Helvetica,sans-Serif" font-size="10.00">constrain_int16</text>
</a>
</g>
</g>
<!-- Node15&#45;&gt;Node16 -->
<g id="edge5" class="edge"><title>Node15&#45;&gt;Node16</title>
<path fill="none" stroke="midnightblue" d="M525.009,-105.609C534.06,-104.03 543.179,-102.439 551.832,-100.929"/>
<polygon fill="midnightblue" stroke="midnightblue" points="552.493,-104.366 561.742,-99.1993 551.29,-97.4705 552.493,-104.366"/>
</g>
<!-- Node17 -->
<g id="node7" class="node"><title>Node17</title>
<g id="a_node7"><a xlink:href="AP__Math_8h.html#a20e8f8671c282c69c1954652b6d61585" target="_top" xlink:title=" ">
<polygon fill="white" stroke="black" points="681.978,-82 681.978,-102 768.022,-102 768.022,-82 681.978,-82"/>
<text text-anchor="middle" x="725" y="-88" font-family="Helvetica,sans-Serif" font-size="10.00">constrain_value</text>
</a>
</g>
</g>
<!-- Node16&#45;&gt;Node17 -->
<g id="edge6" class="edge"><title>Node16&#45;&gt;Node17</title>
<path fill="none" stroke="midnightblue" d="M645.953,-92C654.265,-92 663.112,-92 671.753,-92"/>
<polygon fill="midnightblue" stroke="midnightblue" points="671.757,-95.5001 681.757,-92 671.757,-88.5001 671.757,-95.5001"/>
</g>
<!-- Node18 -->
<g id="node8" class="node"><title>Node18</title>
<g id="a_node8"><a xlink:href="namespaceAP.html#afceb236ff617aaaa2b08afacd72532b0" target="_top" xlink:title=" ">
<polygon fill="white" stroke="black" points="818.596,-102 818.596,-122 907.404,-122 907.404,-102 818.596,-102"/>
<text text-anchor="middle" x="863" y="-108" font-family="Helvetica,sans-Serif" font-size="10.00">AP::internalerror</text>
</a>
</g>
</g>
<!-- Node17&#45;&gt;Node18 -->
<g id="edge7" class="edge"><title>Node17&#45;&gt;Node18</title>
<path fill="none" stroke="midnightblue" d="M768.286,-98.2185C780.962,-100.083 795.035,-102.152 808.342,-104.109"/>
<polygon fill="midnightblue" stroke="midnightblue" points="807.929,-107.586 818.331,-105.578 808.947,-100.66 807.929,-107.586"/>
</g>
<!-- Node19 -->
<g id="node9" class="node"><title>Node19</title>
<g id="a_node9"><a xlink:href="classAP__InternalError.html#ab34174ba770b976b39a18c2b23e854f2" target="_top" xlink:title=" ">
<polygon fill="white" stroke="black" points="804.426,-63 804.426,-83 921.574,-83 921.574,-63 804.426,-63"/>
<text text-anchor="middle" x="863" y="-69" font-family="Helvetica,sans-Serif" font-size="10.00">AP_InternalError::error</text>
</a>
</g>
</g>
<!-- Node17&#45;&gt;Node19 -->
<g id="edge8" class="edge"><title>Node17&#45;&gt;Node19</title>
<path fill="none" stroke="midnightblue" d="M768.286,-86.0924C776.557,-84.9369 785.424,-83.6981 794.284,-82.4603"/>
<polygon fill="midnightblue" stroke="midnightblue" points="794.833,-85.9177 804.253,-81.0676 793.865,-78.985 794.833,-85.9177"/>
</g>
<!-- Node20 -->
<g id="node10" class="node"><title>Node20</title>
<g id="a_node10"><a xlink:href="namespaceAP__HAL.html#a71832f03d849a0c088f04fc98d3c8143" target="_top" xlink:title=" ">
<polygon fill="white" stroke="black" points="958.091,-63 958.091,-83 1041.91,-83 1041.91,-63 958.091,-63"/>
<text text-anchor="middle" x="1000" y="-69" font-family="Helvetica,sans-Serif" font-size="10.00">AP_HAL::panic</text>
</a>
</g>
</g>
<!-- Node19&#45;&gt;Node20 -->
<g id="edge9" class="edge"><title>Node19&#45;&gt;Node20</title>
<path fill="none" stroke="midnightblue" d="M921.644,-73C930.305,-73 939.188,-73 947.705,-73"/>
<polygon fill="midnightblue" stroke="midnightblue" points="947.873,-76.5001 957.873,-73 947.872,-69.5001 947.873,-76.5001"/>
</g>
<!-- Node21 -->
<g id="node11" class="node"><title>Node21</title>
<g id="a_node11"><a xlink:href="stdio_8h.html#aae132cc6af1eb6cf43bf011d8d63e854" target="_top" xlink:title=" ">
<polygon fill="white" stroke="black" points="1111.38,-86 1111.38,-106 1154.62,-106 1154.62,-86 1111.38,-86"/>
<text text-anchor="middle" x="1133" y="-92" font-family="Helvetica,sans-Serif" font-size="10.00">vprintf</text>
</a>
</g>
</g>
<!-- Node20&#45;&gt;Node21 -->
<g id="edge10" class="edge"><title>Node20&#45;&gt;Node21</title>
<path fill="none" stroke="midnightblue" d="M1042.09,-80.2142C1061.1,-83.5526 1083.32,-87.4533 1100.91,-90.542"/>
<polygon fill="midnightblue" stroke="midnightblue" points="1100.74,-94.0658 1111.2,-92.3478 1101.95,-87.1712 1100.74,-94.0658"/>
</g>
<!-- Node22 -->
<g id="node12" class="node"><title>Node22</title>
<g id="a_node12"><a xlink:href="classAP__HAL_1_1Scheduler.html#a78c4f1b1f192ac1c99544b6cc8f099b0" target="_top" xlink:title=" ">
<polygon fill="white" stroke="black" points="1077.75,-35 1077.75,-67 1188.25,-67 1188.25,-35 1077.75,-35"/>
<text text-anchor="start" x="1085.75" y="-53" font-family="Helvetica,sans-Serif" font-size="10.00">AP_HAL::Scheduler::</text>
<text text-anchor="middle" x="1133" y="-41" font-family="Helvetica,sans-Serif" font-size="10.00">delay_microseconds</text>
</a>
</g>
</g>
<!-- Node20&#45;&gt;Node22 -->
<g id="edge11" class="edge"><title>Node20&#45;&gt;Node22</title>
<path fill="none" stroke="midnightblue" d="M1042.09,-66.0994C1050.18,-64.7408 1058.85,-63.2849 1067.5,-61.8329"/>
<polygon fill="midnightblue" stroke="midnightblue" points="1068.32,-65.2441 1077.6,-60.1361 1067.16,-58.3407 1068.32,-65.2441"/>
</g>
<!-- Node23&#45;&gt;Node16 -->
<g id="edge13" class="edge"><title>Node23&#45;&gt;Node16</title>
<path fill="none" stroke="midnightblue" d="M525.009,-78.9143C534.06,-80.4328 543.179,-81.963 551.832,-83.4147"/>
<polygon fill="midnightblue" stroke="midnightblue" points="551.301,-86.8745 561.742,-85.0776 552.46,-79.971 551.301,-86.8745"/>
</g>
</g>
</svg>
        <g id="navigator" transform="translate(0 0)" fill="#404254">
                <rect fill="#f2f5e9" fill-opacity="0.5" stroke="#606060" stroke-width=".5" x="0" y="0" width="60" height="60"/>
                <use id="zoomplus" xlink:href="#zoomPlus" x="17" y="9" onmousedown="handleZoom(evt,'in')"/>
                <use id="zoomminus" xlink:href="#zoomMin" x="42" y="9" onmousedown="handleZoom(evt,'out')"/>
                <use id="reset" xlink:href="#resetDef" x="30" y="36" onmousedown="handleReset()"/>
                <g id="arrowUp" xlink:href="#dirArrow" transform="translate(30 24)" onmousedown="handlePan(0,-1)">
                  <use xlink:href="#rim" fill="#404040">
                        <set attributeName="fill" to="#808080" begin="arrowUp.mouseover" end="arrowUp.mouseout"/>
                  </use>
                  <path fill="none" stroke="white" stroke-width="1.5" d="M0,-3.0v7 M-2.5,-0.5L0,-3.0L2.5,-0.5"/>
                </g>
                <g id="arrowRight" xlink:href="#dirArrow" transform="rotate(90) translate(36 -43)" onmousedown="handlePan(1,0)">
                  <use xlink:href="#rim" fill="#404040">
                        <set attributeName="fill" to="#808080" begin="arrowRight.mouseover" end="arrowRight.mouseout"/>
                  </use>
                  <path fill="none" stroke="white" stroke-width="1.5" d="M0,-3.0v7 M-2.5,-0.5L0,-3.0L2.5,-0.5"/>
                </g>
                <g id="arrowDown" xlink:href="#dirArrow" transform="rotate(180) translate(-30 -48)" onmousedown="handlePan(0,1)">
                  <use xlink:href="#rim" fill="#404040">
                        <set attributeName="fill" to="#808080" begin="arrowDown.mouseover" end="arrowDown.mouseout"/>
                  </use>
                  <path fill="none" stroke="white" stroke-width="1.5" d="M0,-3.0v7 M-2.5,-0.5L0,-3.0L2.5,-0.5"/>
                </g>
                <g id="arrowLeft" xlink:href="#dirArrow" transform="rotate(270) translate(-36 17)" onmousedown="handlePan(-1,0)">
                  <use xlink:href="#rim" fill="#404040">
                        <set attributeName="fill" to="#808080" begin="arrowLeft.mouseover" end="arrowLeft.mouseout"/>
                  </use>
                  <path fill="none" stroke="white" stroke-width="1.5" d="M0,-3.0v7 M-2.5,-0.5L0,-3.0L2.5,-0.5"/>
                </g>
        </g>
        <svg viewBox="0 0 15 15" width="100%" height="30px" preserveAspectRatio="xMaxYMin meet">
         <g id="arrow_out" transform="scale(0.3 0.3)">
          <a xlink:href="classAP__IOMCU__FW_a528efc78233e1a0114c0636d1858cf7d_cgraph_org.svg" target="_base">
           <rect id="button" ry="5" rx="5" y="6" x="6" height="38" width="38"
                fill="#f2f5e9" fill-opacity="0.5" stroke="#606060" stroke-width="1.0"/>
           <path id="arrow"
             d="M 11.500037,31.436501 C 11.940474,20.09759 22.043105,11.32322 32.158766,21.979434 L 37.068811,17.246167 C 37.068811,17.246167 37.088388,32 37.088388,32 L 22.160133,31.978069 C 22.160133,31.978069 26.997745,27.140456 26.997745,27.140456 C 18.528582,18.264221 13.291696,25.230495 11.500037,31.436501 z"
             style="fill:#404040;"/>
          </a>
         </g>
        </svg>
</svg>
