<?xml version="1.0" encoding="UTF-8" standalone="no"?>
<!DOCTYPE svg PUBLIC "-//W3C//DTD SVG 1.1//EN"
 "http://www.w3.org/Graphics/SVG/1.1/DTD/svg11.dtd">
<!-- Generated by graphviz version 2.30.1 (20130221.2233)
 -->
<!-- Title: AP_MotorsHeli_Quad::calculate_roll_pitch_collective_factors Pages: 1 -->
<svg width="272pt" height="52pt"
 viewBox="0.00 0.00 272.00 52.00" xmlns="http://www.w3.org/2000/svg" xmlns:xlink="http://www.w3.org/1999/xlink">
<g id="graph0" class="graph" transform="scale(1 1) rotate(0) translate(4 48)">
<title>AP_MotorsHeli_Quad::calculate_roll_pitch_collective_factors</title>
<polygon fill="white" stroke="white" points="-4,5 -4,-48 269,-48 269,5 -4,5"/>
<!-- Node35 -->
<g id="node1" class="node"><title>Node35</title>
<g id="a_node1"><a xlink:title=" ">
<polygon fill="#bfbfbf" stroke="black" points="150.643,-0 150.643,-44 263.357,-44 263.357,-0 150.643,-0"/>
<text text-anchor="start" x="158.643" y="-30" font-family="Helvetica,sans-Serif" font-size="10.00">AP_MotorsHeli_Quad</text>
<text text-anchor="start" x="158.643" y="-18" font-family="Helvetica,sans-Serif" font-size="10.00">::calculate_roll_pitch</text>
<text text-anchor="middle" x="207" y="-6" font-family="Helvetica,sans-Serif" font-size="10.00">_collective_factors</text>
</a>
</g>
</g>
<!-- Node36 -->
<g id="node2" class="node"><title>Node36</title>
<g id="a_node2"><a xlink:href="classAP__MotorsHeli__Quad.html#a6256dc5e385efb3e9b9cc83e9d6f9235" target="_top" xlink:title=" ">
<polygon fill="white" stroke="black" points="0.643066,-6 0.643066,-38 113.357,-38 113.357,-6 0.643066,-6"/>
<text text-anchor="start" x="8.64307" y="-24" font-family="Helvetica,sans-Serif" font-size="10.00">AP_MotorsHeli_Quad</text>
<text text-anchor="middle" x="57" y="-12" font-family="Helvetica,sans-Serif" font-size="10.00">::calculate_scalars</text>
</a>
</g>
</g>
<!-- Node35&#45;&gt;Node36 -->
<g id="edge1" class="edge"><title>Node35&#45;&gt;Node36</title>
<path fill="none" stroke="midnightblue" d="M140.232,-22C131.424,-22 122.458,-22 113.842,-22"/>
<polygon fill="midnightblue" stroke="midnightblue" points="140.469,-25.5001 150.469,-22 140.469,-18.5001 140.469,-25.5001"/>
</g>
</g>
</svg>
