<?xml version="1.0" encoding="UTF-8" standalone="no"?>
<!DOCTYPE svg PUBLIC "-//W3C//DTD SVG 1.1//EN"
 "http://www.w3.org/Graphics/SVG/1.1/DTD/svg11.dtd">
<!-- Generated by graphviz version 2.30.1 (20130221.2233)
 -->
<!-- Title: AP_OADijkstra::create_polygon_fence_visgraph Pages: 1 -->
<svg width="500pt" height="235pt"
 viewBox="0.00 0.00 500.00 235.00" xmlns="http://www.w3.org/2000/svg" xmlns:xlink="http://www.w3.org/1999/xlink">
<g id="graph0" class="graph" transform="scale(1 1) rotate(0) translate(4 231)">
<title>AP_OADijkstra::create_polygon_fence_visgraph</title>
<polygon fill="white" stroke="white" points="-4,5 -4,-231 497,-231 497,5 -4,5"/>
<!-- Node41 -->
<g id="node1" class="node"><title>Node41</title>
<g id="a_node1"><a xlink:title=" ">
<polygon fill="#bfbfbf" stroke="black" points="0.0126953,-94 0.0126953,-126 129.987,-126 129.987,-94 0.0126953,-94"/>
<text text-anchor="start" x="8.0127" y="-112" font-family="Helvetica,sans-Serif" font-size="10.00">AP_OADijkstra::create</text>
<text text-anchor="middle" x="65" y="-100" font-family="Helvetica,sans-Serif" font-size="10.00">_polygon_fence_visgraph</text>
</a>
</g>
</g>
<!-- Node42 -->
<g id="node2" class="node"><title>Node42</title>
<g id="a_node2"><a xlink:href="namespaceAP.html#ad7eb5eb7d80cfbcb69839b497bff7a46" target="_top" xlink:title=" ">
<polygon fill="white" stroke="black" points="205.32,-207 205.32,-227 264.68,-227 264.68,-207 205.32,-207"/>
<text text-anchor="middle" x="235" y="-213" font-family="Helvetica,sans-Serif" font-size="10.00">AP::fence</text>
</a>
</g>
</g>
<!-- Node41&#45;&gt;Node42 -->
<g id="edge1" class="edge"><title>Node41&#45;&gt;Node42</title>
<path fill="none" stroke="midnightblue" d="M82.0545,-126.092C100.815,-144.161 133.454,-173.384 166,-192 175.171,-197.246 185.645,-201.741 195.58,-205.413"/>
<polygon fill="midnightblue" stroke="midnightblue" points="194.671,-208.803 205.266,-208.808 196.986,-202.197 194.671,-208.803"/>
</g>
<!-- Node43 -->
<g id="node3" class="node"><title>Node43</title>
<g id="a_node3"><a xlink:href="classAC__Fence.html#a564e4d513a44df29b5bc6b0424aeedf8" target="_top" xlink:title=" ">
<polygon fill="white" stroke="black" points="351.853,-187 351.853,-207 480.147,-207 480.147,-187 351.853,-187"/>
<text text-anchor="middle" x="416" y="-193" font-family="Helvetica,sans-Serif" font-size="10.00">AC_Fence::get_singleton</text>
</a>
</g>
</g>
<!-- Node41&#45;&gt;Node43 -->
<g id="edge3" class="edge"><title>Node41&#45;&gt;Node43</title>
<path fill="none" stroke="midnightblue" d="M93.9774,-126.164C113.547,-136.778 140.623,-150.11 166,-158 223.56,-175.896 291.276,-185.825 341.549,-191.179"/>
<polygon fill="midnightblue" stroke="midnightblue" points="341.377,-194.68 351.682,-192.222 342.093,-187.717 341.377,-194.68"/>
</g>
<!-- Node44 -->
<g id="node4" class="node"><title>Node44</title>
<g id="a_node4"><a xlink:href="classAC__Fence.html#a0eefb89a0f2fb36d4786e20386d42d26" target="_top" xlink:title="returns pointer to array of polygon points and num_points is filled in with the total number">
<polygon fill="white" stroke="black" points="170.018,-117 170.018,-149 299.982,-149 299.982,-117 170.018,-117"/>
<text text-anchor="start" x="178.018" y="-135" font-family="Helvetica,sans-Serif" font-size="10.00">AC_Fence::get_boundary</text>
<text text-anchor="middle" x="235" y="-123" font-family="Helvetica,sans-Serif" font-size="10.00">_points</text>
</a>
</g>
</g>
<!-- Node41&#45;&gt;Node44 -->
<g id="edge4" class="edge"><title>Node41&#45;&gt;Node44</title>
<path fill="none" stroke="midnightblue" d="M129.993,-118.761C139.799,-120.103 149.991,-121.499 159.992,-122.868"/>
<polygon fill="midnightblue" stroke="midnightblue" points="159.525,-126.337 169.907,-124.225 160.474,-119.401 159.525,-126.337"/>
</g>
<!-- Node45 -->
<g id="node5" class="node"><title>Node45</title>
<g id="a_node5"><a xlink:href="classAP__OAVisGraph.html#af315b76ec3b7025eb8f72110237bc46a" target="_top" xlink:title=" ">
<polygon fill="white" stroke="black" points="176.324,-78 176.324,-98 293.676,-98 293.676,-78 176.324,-78"/>
<text text-anchor="middle" x="235" y="-84" font-family="Helvetica,sans-Serif" font-size="10.00">AP_OAVisGraph::clear</text>
</a>
</g>
</g>
<!-- Node41&#45;&gt;Node45 -->
<g id="edge5" class="edge"><title>Node41&#45;&gt;Node45</title>
<path fill="none" stroke="midnightblue" d="M129.993,-101.62C141.874,-100.064 154.321,-98.4341 166.308,-96.8644"/>
<polygon fill="midnightblue" stroke="midnightblue" points="166.786,-100.332 176.246,-95.563 165.877,-93.3911 166.786,-100.332"/>
</g>
<!-- Node46 -->
<g id="node6" class="node"><title>Node46</title>
<g id="a_node6"><a xlink:href="polygon_8cpp.html#ab65fdc43607ecbfabdc130167ee40c91" target="_top" xlink:title=" ">
<polygon fill="white" stroke="black" points="184.754,-39 184.754,-59 285.246,-59 285.246,-39 184.754,-39"/>
<text text-anchor="middle" x="235" y="-45" font-family="Helvetica,sans-Serif" font-size="10.00">Polygon_intersects</text>
</a>
</g>
</g>
<!-- Node41&#45;&gt;Node46 -->
<g id="edge6" class="edge"><title>Node41&#45;&gt;Node46</title>
<path fill="none" stroke="midnightblue" d="M101.217,-93.9369C120.187,-85.6089 144.127,-75.6157 166,-68 172.077,-65.884 178.522,-63.8368 184.928,-61.9192"/>
<polygon fill="midnightblue" stroke="midnightblue" points="186.277,-65.1721 194.903,-59.0212 184.324,-58.45 186.277,-65.1721"/>
</g>
<!-- Node50 -->
<g id="node10" class="node"><title>Node50</title>
<g id="a_node10"><a xlink:href="classAP__OAVisGraph.html#a13c828c999c5c831f53fdc162c7771bb" target="_top" xlink:title=" ">
<polygon fill="white" stroke="black" points="166.592,-0 166.592,-20 303.408,-20 303.408,-0 166.592,-0"/>
<text text-anchor="middle" x="235" y="-6" font-family="Helvetica,sans-Serif" font-size="10.00">AP_OAVisGraph::add_item</text>
</a>
</g>
</g>
<!-- Node41&#45;&gt;Node50 -->
<g id="edge10" class="edge"><title>Node41&#45;&gt;Node50</title>
<path fill="none" stroke="midnightblue" d="M81.5028,-93.9709C100.005,-75.7229 132.649,-46.2205 166,-29 169.967,-26.9517 174.181,-25.1017 178.493,-23.4349"/>
<polygon fill="midnightblue" stroke="midnightblue" points="179.761,-26.6992 188.028,-20.0731 177.433,-20.0975 179.761,-26.6992"/>
</g>
<!-- Node42&#45;&gt;Node43 -->
<g id="edge2" class="edge"><title>Node42&#45;&gt;Node43</title>
<path fill="none" stroke="midnightblue" d="M264.759,-213.787C285.528,-211.466 314.559,-208.222 341.571,-205.204"/>
<polygon fill="midnightblue" stroke="midnightblue" points="342.253,-208.65 351.803,-204.061 341.476,-201.693 342.253,-208.65"/>
</g>
<!-- Node47 -->
<g id="node7" class="node"><title>Node47</title>
<g id="a_node7"><a xlink:href="polygon_8cpp.html#a296ad0a1a7b2ee7ce09a49163781d7d7" target="_top" xlink:title=" ">
<polygon fill="white" stroke="black" points="366.862,-78 366.862,-98 465.138,-98 465.138,-78 366.862,-78"/>
<text text-anchor="middle" x="416" y="-84" font-family="Helvetica,sans-Serif" font-size="10.00">Polygon_complete</text>
</a>
</g>
</g>
<!-- Node46&#45;&gt;Node47 -->
<g id="edge7" class="edge"><title>Node46&#45;&gt;Node47</title>
<path fill="none" stroke="midnightblue" d="M282.097,-59.0435C305.586,-64.1612 334.338,-70.4256 359.083,-75.8171"/>
<polygon fill="midnightblue" stroke="midnightblue" points="358.543,-79.2814 369.059,-77.9906 360.034,-72.4419 358.543,-79.2814"/>
</g>
<!-- Node48 -->
<g id="node8" class="node"><title>Node48</title>
<g id="a_node8"><a xlink:href="structVector2.html#afac523fc75e0c0fd0e9ba378d73336ad" target="_top" xlink:title=" ">
<polygon fill="white" stroke="black" points="340.737,-39 340.737,-59 491.263,-59 491.263,-39 340.737,-39"/>
<text text-anchor="middle" x="416" y="-45" font-family="Helvetica,sans-Serif" font-size="10.00">Vector2::segment_intersection</text>
</a>
</g>
</g>
<!-- Node46&#45;&gt;Node48 -->
<g id="edge8" class="edge"><title>Node46&#45;&gt;Node48</title>
<path fill="none" stroke="midnightblue" d="M285.386,-49C299.393,-49 315.052,-49 330.511,-49"/>
<polygon fill="midnightblue" stroke="midnightblue" points="330.622,-52.5001 340.622,-49 330.622,-45.5001 330.622,-52.5001"/>
</g>
<!-- Node49 -->
<g id="node9" class="node"><title>Node49</title>
<g id="a_node9"><a xlink:href="AP__Math_8h.html#a0375e3d67fd3911cacee5c3e1408c0f2" target="_top" xlink:title=" ">
<polygon fill="white" stroke="black" points="401.5,-0 401.5,-20 430.5,-20 430.5,-0 401.5,-0"/>
<text text-anchor="middle" x="416" y="-6" font-family="Helvetica,sans-Serif" font-size="10.00">sq</text>
</a>
</g>
</g>
<!-- Node46&#45;&gt;Node49 -->
<g id="edge9" class="edge"><title>Node46&#45;&gt;Node49</title>
<path fill="none" stroke="midnightblue" d="M282.097,-38.9565C317.03,-31.3454 363.603,-21.1983 391.327,-15.1578"/>
<polygon fill="midnightblue" stroke="midnightblue" points="392.274,-18.5336 401.3,-12.9849 390.784,-11.6941 392.274,-18.5336"/>
</g>
</g>
</svg>
