<?xml version="1.0" encoding="UTF-8" standalone="no"?>
<!DOCTYPE svg PUBLIC "-//W3C//DTD SVG 1.1//EN"
 "http://www.w3.org/Graphics/SVG/1.1/DTD/svg11.dtd">
<!-- Generated by graphviz version 2.30.1 (20130221.2233)
 -->
<!-- Title: AP_AccelCal::clear Pages: 1 -->
<!--zoomable 106 -->
<svg id="main" version="1.1" xmlns="http://www.w3.org/2000/svg" xmlns:xlink="http://www.w3.org/1999/xlink" xml:space="preserve" onload="init(evt)">
<style type="text/css"><![CDATA[
.edge:hover path { stroke: red; }
.edge:hover polygon { stroke: red; fill: red; }
]]></style>
<script type="text/javascript"><![CDATA[
var edges = document.getElementsByTagName('g');
if (edges && edges.length) {
  for (var i=0;i<edges.length;i++) {
    if (edges[i].id.substr(0,4)=='edge') {
      edges[i].setAttribute('class','edge');
    }
  }
}
]]></script>
        <defs>
                <circle id="rim" cx="0" cy="0" r="7"/>
                <circle id="rim2" cx="0" cy="0" r="3.5"/>
                <g id="zoomPlus">
                        <use xlink:href="#rim" fill="#404040">
                                <set attributeName="fill" to="#808080" begin="zoomplus.mouseover" end="zoomplus.mouseout"/>
                        </use>
                        <path d="M-4,0h8M0,-4v8" fill="none" stroke="white" stroke-width="1.5" pointer-events="none"/>
                </g>
                <g id="zoomMin">
                        <use xlink:href="#rim" fill="#404040">
                                <set attributeName="fill" to="#808080" begin="zoomminus.mouseover" end="zoomminus.mouseout"/>
                        </use>
                        <path d="M-4,0h8" fill="none" stroke="white" stroke-width="1.5" pointer-events="none"/>
                </g>
                <g id="dirArrow">
                        <path fill="none" stroke="white" stroke-width="1.5" d="M0,-3.0v7 M-2.5,-0.5L0,-3.0L2.5,-0.5"/>
                </g>
               <g id="resetDef">
                       <use xlink:href="#rim2" fill="#404040">
                               <set attributeName="fill" to="#808080" begin="reset.mouseover" end="reset.mouseout"/>
                       </use>
               </g>
        </defs>

<script type="text/javascript">
var viewWidth = 548;
var viewHeight = 106;
var sectionId = 'dynsection-7';
</script>
<script xlink:href="svgpan.js"/>
<svg id="graph" class="graph">
<g id="viewport">
<title>AP_AccelCal::clear</title>
<polygon fill="white" stroke="white" points="-4,5 -4,-102 545,-102 545,5 -4,5"/>
<!-- Node101 -->
<g id="node1" class="node"><title>Node101</title>
<g id="a_node1"><a xlink:title=" ">
<polygon fill="#bfbfbf" stroke="black" points="438.205,-39 438.205,-59 539.795,-59 539.795,-39 438.205,-39"/>
<text text-anchor="middle" x="489" y="-45" font-family="Helvetica,sans-Serif" font-size="10.00">AP_AccelCal::clear</text>
</a>
</g>
</g>
<!-- Node102 -->
<g id="node2" class="node"><title>Node102</title>
<g id="a_node2"><a xlink:href="classAP__AccelCal.html#a43c12755c810581bbbf236bb7fd1c2d0" target="_top" xlink:title=" ">
<polygon fill="white" stroke="black" points="139.589,-78 139.589,-98 248.411,-98 248.411,-78 139.589,-78"/>
<text text-anchor="middle" x="194" y="-84" font-family="Helvetica,sans-Serif" font-size="10.00">AP_AccelCal::cancel</text>
</a>
</g>
</g>
<!-- Node101&#45;&gt;Node102 -->
<g id="edge1" class="edge"><title>Node101&#45;&gt;Node102</title>
<path fill="none" stroke="midnightblue" d="M437.522,-61.2216C425.905,-63.736 413.564,-66.1708 402,-68 350.291,-76.1793 290.75,-81.5093 248.838,-84.5937"/>
<polygon fill="midnightblue" stroke="midnightblue" points="438.504,-64.5889 447.507,-59.0047 436.987,-57.7553 438.504,-64.5889"/>
</g>
<!-- Node104 -->
<g id="node4" class="node"><title>Node104</title>
<g id="a_node4"><a xlink:href="classAP__AccelCal.html#a9094298479f444bac854a5720b157cd8" target="_top" xlink:title=" ">
<polygon fill="white" stroke="black" points="297.65,-39 297.65,-59 390.35,-59 390.35,-39 297.65,-39"/>
<text text-anchor="middle" x="344" y="-45" font-family="Helvetica,sans-Serif" font-size="10.00">AP_AccelCal::fail</text>
</a>
</g>
</g>
<!-- Node101&#45;&gt;Node104 -->
<g id="edge3" class="edge"><title>Node101&#45;&gt;Node104</title>
<path fill="none" stroke="midnightblue" d="M427.66,-49C415.196,-49 402.268,-49 390.443,-49"/>
<polygon fill="midnightblue" stroke="midnightblue" points="427.986,-52.5001 437.986,-49 427.986,-45.5001 427.986,-52.5001"/>
</g>
<!-- Node106 -->
<g id="node6" class="node"><title>Node106</title>
<g id="a_node6"><a xlink:href="classAP__AccelCal.html#a2e758cdfaac8016ef037b8f002daec61" target="_top" xlink:title=" ">
<polygon fill="white" stroke="black" points="285.98,-0 285.98,-20 402.02,-20 402.02,-0 285.98,-0"/>
<text text-anchor="middle" x="344" y="-6" font-family="Helvetica,sans-Serif" font-size="10.00">AP_AccelCal::success</text>
</a>
</g>
</g>
<!-- Node101&#45;&gt;Node106 -->
<g id="edge6" class="edge"><title>Node101&#45;&gt;Node106</title>
<path fill="none" stroke="midnightblue" d="M441.342,-36.2752C421.99,-30.9972 399.864,-24.963 381.701,-20.0094"/>
<polygon fill="midnightblue" stroke="midnightblue" points="440.605,-39.702 451.174,-38.9565 442.447,-32.9486 440.605,-39.702"/>
</g>
<!-- Node103 -->
<g id="node3" class="node"><title>Node103</title>
<g id="a_node3"><a xlink:href="classAP__InertialSensor.html#a9ca5d711a97f4c33fe6a7c31b1329761" target="_top" xlink:title=" ">
<polygon fill="white" stroke="black" points="-0.0786133,-52 -0.0786133,-84 102.079,-84 102.079,-52 -0.0786133,-52"/>
<text text-anchor="start" x="7.92139" y="-70" font-family="Helvetica,sans-Serif" font-size="10.00">AP_InertialSensor::</text>
<text text-anchor="middle" x="51" y="-58" font-family="Helvetica,sans-Serif" font-size="10.00">acal_update</text>
</a>
</g>
</g>
<!-- Node102&#45;&gt;Node103 -->
<g id="edge2" class="edge"><title>Node102&#45;&gt;Node103</title>
<path fill="none" stroke="midnightblue" d="M129.206,-78.9512C120.189,-77.6723 111.025,-76.3723 102.31,-75.1362"/>
<polygon fill="midnightblue" stroke="midnightblue" points="128.899,-82.4427 139.292,-80.3818 129.882,-75.512 128.899,-82.4427"/>
</g>
<!-- Node105 -->
<g id="node5" class="node"><title>Node105</title>
<g id="a_node5"><a xlink:href="classAP__AccelCal.html#a5a2c8a471866eff24b340cc9680f9868" target="_top" xlink:title=" ">
<polygon fill="white" stroke="black" points="138.749,-39 138.749,-59 249.251,-59 249.251,-39 138.749,-39"/>
<text text-anchor="middle" x="194" y="-45" font-family="Helvetica,sans-Serif" font-size="10.00">AP_AccelCal::update</text>
</a>
</g>
</g>
<!-- Node104&#45;&gt;Node105 -->
<g id="edge4" class="edge"><title>Node104&#45;&gt;Node105</title>
<path fill="none" stroke="midnightblue" d="M287.173,-49C274.771,-49 261.642,-49 249.301,-49"/>
<polygon fill="midnightblue" stroke="midnightblue" points="287.388,-52.5001 297.387,-49 287.387,-45.5001 287.388,-52.5001"/>
</g>
<!-- Node105&#45;&gt;Node103 -->
<g id="edge5" class="edge"><title>Node105&#45;&gt;Node103</title>
<path fill="none" stroke="midnightblue" d="M128.296,-57.719C119.541,-58.8988 110.666,-60.0947 102.215,-61.2334"/>
<polygon fill="midnightblue" stroke="midnightblue" points="129.043,-61.1501 138.486,-56.3459 128.108,-54.2128 129.043,-61.1501"/>
</g>
<!-- Node106&#45;&gt;Node105 -->
<g id="edge7" class="edge"><title>Node106&#45;&gt;Node105</title>
<path fill="none" stroke="midnightblue" d="M294.986,-22.6523C274.892,-27.9474 251.869,-34.0143 232.985,-38.9906"/>
<polygon fill="midnightblue" stroke="midnightblue" points="296.108,-25.9762 304.886,-20.0435 294.325,-19.2072 296.108,-25.9762"/>
</g>
</g>
</svg>
        <g id="navigator" transform="translate(0 0)" fill="#404254">
                <rect fill="#f2f5e9" fill-opacity="0.5" stroke="#606060" stroke-width=".5" x="0" y="0" width="60" height="60"/>
                <use id="zoomplus" xlink:href="#zoomPlus" x="17" y="9" onmousedown="handleZoom(evt,'in')"/>
                <use id="zoomminus" xlink:href="#zoomMin" x="42" y="9" onmousedown="handleZoom(evt,'out')"/>
                <use id="reset" xlink:href="#resetDef" x="30" y="36" onmousedown="handleReset()"/>
                <g id="arrowUp" xlink:href="#dirArrow" transform="translate(30 24)" onmousedown="handlePan(0,-1)">
                  <use xlink:href="#rim" fill="#404040">
                        <set attributeName="fill" to="#808080" begin="arrowUp.mouseover" end="arrowUp.mouseout"/>
                  </use>
                  <path fill="none" stroke="white" stroke-width="1.5" d="M0,-3.0v7 M-2.5,-0.5L0,-3.0L2.5,-0.5"/>
                </g>
                <g id="arrowRight" xlink:href="#dirArrow" transform="rotate(90) translate(36 -43)" onmousedown="handlePan(1,0)">
                  <use xlink:href="#rim" fill="#404040">
                        <set attributeName="fill" to="#808080" begin="arrowRight.mouseover" end="arrowRight.mouseout"/>
                  </use>
                  <path fill="none" stroke="white" stroke-width="1.5" d="M0,-3.0v7 M-2.5,-0.5L0,-3.0L2.5,-0.5"/>
                </g>
                <g id="arrowDown" xlink:href="#dirArrow" transform="rotate(180) translate(-30 -48)" onmousedown="handlePan(0,1)">
                  <use xlink:href="#rim" fill="#404040">
                        <set attributeName="fill" to="#808080" begin="arrowDown.mouseover" end="arrowDown.mouseout"/>
                  </use>
                  <path fill="none" stroke="white" stroke-width="1.5" d="M0,-3.0v7 M-2.5,-0.5L0,-3.0L2.5,-0.5"/>
                </g>
                <g id="arrowLeft" xlink:href="#dirArrow" transform="rotate(270) translate(-36 17)" onmousedown="handlePan(-1,0)">
                  <use xlink:href="#rim" fill="#404040">
                        <set attributeName="fill" to="#808080" begin="arrowLeft.mouseover" end="arrowLeft.mouseout"/>
                  </use>
                  <path fill="none" stroke="white" stroke-width="1.5" d="M0,-3.0v7 M-2.5,-0.5L0,-3.0L2.5,-0.5"/>
                </g>
        </g>
        <svg viewBox="0 0 15 15" width="100%" height="30px" preserveAspectRatio="xMaxYMin meet">
         <g id="arrow_out" transform="scale(0.3 0.3)">
          <a xlink:href="classAP__AccelCal_a498b650a7993bd7fcac50fdbf75cbb34_icgraph_org.svg" target="_base">
           <rect id="button" ry="5" rx="5" y="6" x="6" height="38" width="38"
                fill="#f2f5e9" fill-opacity="0.5" stroke="#606060" stroke-width="1.0"/>
           <path id="arrow"
             d="M 11.500037,31.436501 C 11.940474,20.09759 22.043105,11.32322 32.158766,21.979434 L 37.068811,17.246167 C 37.068811,17.246167 37.088388,32 37.088388,32 L 22.160133,31.978069 C 22.160133,31.978069 26.997745,27.140456 26.997745,27.140456 C 18.528582,18.264221 13.291696,25.230495 11.500037,31.436501 z"
             style="fill:#404040;"/>
          </a>
         </g>
        </svg>
</svg>
