<?xml version="1.0" encoding="UTF-8" standalone="no"?>
<!DOCTYPE svg PUBLIC "-//W3C//DTD SVG 1.1//EN"
 "http://www.w3.org/Graphics/SVG/1.1/DTD/svg11.dtd">
<!-- Generated by graphviz version 2.30.1 (20130221.2233)
 -->
<!-- Title: AP_InertialSensor_BMI088::accel_init Pages: 1 -->
<svg width="1078pt" height="337pt"
 viewBox="0.00 0.00 1078.00 337.00" xmlns="http://www.w3.org/2000/svg" xmlns:xlink="http://www.w3.org/1999/xlink">
<g id="graph0" class="graph" transform="scale(1 1) rotate(0) translate(4 333)">
<title>AP_InertialSensor_BMI088::accel_init</title>
<polygon fill="white" stroke="white" points="-4,5 -4,-333 1075,-333 1075,5 -4,5"/>
<!-- Node13 -->
<g id="node1" class="node"><title>Node13</title>
<g id="a_node1"><a xlink:title=" ">
<polygon fill="#bfbfbf" stroke="black" points="0.6875,-195 0.6875,-227 137.312,-227 137.312,-195 0.6875,-195"/>
<text text-anchor="start" x="8.6875" y="-213" font-family="Helvetica,sans-Serif" font-size="10.00">AP_InertialSensor_BMI088</text>
<text text-anchor="middle" x="69" y="-201" font-family="Helvetica,sans-Serif" font-size="10.00">::accel_init</text>
</a>
</g>
</g>
<!-- Node14 -->
<g id="node2" class="node"><title>Node14</title>
<g id="a_node2"><a xlink:href="classAP__HAL_1_1Device.html#a9cfca3d6c720115b4c77b21b64a2b8af" target="_top" xlink:title=" ">
<polygon fill="white" stroke="black" points="188.032,-272 188.032,-304 297.968,-304 297.968,-272 188.032,-272"/>
<text text-anchor="start" x="196.032" y="-290" font-family="Helvetica,sans-Serif" font-size="10.00">AP_HAL::Device::get</text>
<text text-anchor="middle" x="243" y="-278" font-family="Helvetica,sans-Serif" font-size="10.00">_semaphore</text>
</a>
</g>
</g>
<!-- Node13&#45;&gt;Node14 -->
<g id="edge1" class="edge"><title>Node13&#45;&gt;Node14</title>
<path fill="none" stroke="midnightblue" d="M106.057,-227.142C132.431,-238.949 168.395,-255.049 196.707,-267.724"/>
<polygon fill="midnightblue" stroke="midnightblue" points="195.433,-270.988 205.991,-271.88 198.294,-264.599 195.433,-270.988"/>
</g>
<!-- Node15 -->
<g id="node3" class="node"><title>Node15</title>
<g id="a_node3"><a xlink:href="classAP__InertialSensor__BMI088.html#af05d44469d6a5a0614a319d54bbdd75c" target="_top" xlink:title=" ">
<polygon fill="white" stroke="black" points="522.688,-215 522.688,-247 659.312,-247 659.312,-215 522.688,-215"/>
<text text-anchor="start" x="530.688" y="-233" font-family="Helvetica,sans-Serif" font-size="10.00">AP_InertialSensor_BMI088</text>
<text text-anchor="middle" x="591" y="-221" font-family="Helvetica,sans-Serif" font-size="10.00">::read_accel_registers</text>
</a>
</g>
</g>
<!-- Node13&#45;&gt;Node15 -->
<g id="edge2" class="edge"><title>Node13&#45;&gt;Node15</title>
<path fill="none" stroke="midnightblue" d="M137.448,-213.594C233.889,-217.303 410.744,-224.106 512.464,-228.018"/>
<polygon fill="midnightblue" stroke="midnightblue" points="512.545,-231.523 522.672,-228.41 512.814,-224.529 512.545,-231.523"/>
</g>
<!-- Node19 -->
<g id="node7" class="node"><title>Node19</title>
<g id="a_node7"><a xlink:href="classAP__InertialSensor__BMI088.html#a5300f7360a7e29a942426b4c3ebcfdca" target="_top" xlink:title=" ">
<polygon fill="white" stroke="black" points="174.688,-163 174.688,-195 311.312,-195 311.312,-163 174.688,-163"/>
<text text-anchor="start" x="182.688" y="-181" font-family="Helvetica,sans-Serif" font-size="10.00">AP_InertialSensor_BMI088</text>
<text text-anchor="middle" x="243" y="-169" font-family="Helvetica,sans-Serif" font-size="10.00">::setup_accel_config</text>
</a>
</g>
</g>
<!-- Node13&#45;&gt;Node19 -->
<g id="edge7" class="edge"><title>Node13&#45;&gt;Node19</title>
<path fill="none" stroke="midnightblue" d="M137.485,-198.445C146.306,-196.803 155.4,-195.112 164.371,-193.443"/>
<polygon fill="midnightblue" stroke="midnightblue" points="165.236,-196.842 174.427,-191.572 163.956,-189.96 165.236,-196.842"/>
</g>
<!-- Node24 -->
<g id="node12" class="node"><title>Node24</title>
<g id="a_node12"><a xlink:href="classAP__HAL_1_1BetterStream.html#a8534aa004599bb81ad60f3e762791032" target="_top" xlink:title=" ">
<polygon fill="white" stroke="black" points="357.589,-93 357.589,-125 476.411,-125 476.411,-93 357.589,-93"/>
<text text-anchor="start" x="365.589" y="-111" font-family="Helvetica,sans-Serif" font-size="10.00">AP_HAL::BetterStream</text>
<text text-anchor="middle" x="417" y="-99" font-family="Helvetica,sans-Serif" font-size="10.00">::printf</text>
</a>
</g>
</g>
<!-- Node13&#45;&gt;Node24 -->
<g id="edge25" class="edge"><title>Node13&#45;&gt;Node24</title>
<path fill="none" stroke="midnightblue" d="M93.7118,-194.787C114.121,-181.581 144.809,-163.467 174,-153 230.479,-132.748 297.86,-121.472 347.163,-115.42"/>
<polygon fill="midnightblue" stroke="midnightblue" points="347.88,-118.86 357.399,-114.207 347.056,-111.908 347.88,-118.86"/>
</g>
<!-- Node16 -->
<g id="node4" class="node"><title>Node16</title>
<g id="a_node4"><a xlink:href="classAP__HAL_1_1Device.html#a1a5cc08a6d02761ffb62e2a46aab11e3" target="_top" xlink:title=" ">
<polygon fill="white" stroke="black" points="696.69,-309 696.69,-329 833.31,-329 833.31,-309 696.69,-309"/>
<text text-anchor="middle" x="765" y="-315" font-family="Helvetica,sans-Serif" font-size="10.00">AP_HAL::Device::bus_type</text>
</a>
</g>
</g>
<!-- Node15&#45;&gt;Node16 -->
<g id="edge3" class="edge"><title>Node15&#45;&gt;Node16</title>
<path fill="none" stroke="midnightblue" d="M612.835,-247.273C633.101,-262.443 665.251,-284.802 696,-299 701.368,-301.478 707.116,-303.731 712.913,-305.755"/>
<polygon fill="midnightblue" stroke="midnightblue" points="712.063,-309.16 722.656,-308.946 714.242,-302.508 712.063,-309.16"/>
</g>
<!-- Node17 -->
<g id="node5" class="node"><title>Node17</title>
<g id="a_node5"><a xlink:href="classAP__HAL_1_1Device.html#a66215f964cfb5c7421effdb88a749550" target="_top" xlink:title=" ">
<polygon fill="white" stroke="black" points="706.976,-258 706.976,-290 823.024,-290 823.024,-258 706.976,-258"/>
<text text-anchor="start" x="714.976" y="-276" font-family="Helvetica,sans-Serif" font-size="10.00">AP_HAL::Device::read</text>
<text text-anchor="middle" x="765" y="-264" font-family="Helvetica,sans-Serif" font-size="10.00">_registers</text>
</a>
</g>
</g>
<!-- Node15&#45;&gt;Node17 -->
<g id="edge4" class="edge"><title>Node15&#45;&gt;Node17</title>
<path fill="none" stroke="midnightblue" d="M656.046,-247.012C669.29,-250.322 683.277,-253.819 696.635,-257.159"/>
<polygon fill="midnightblue" stroke="midnightblue" points="696.154,-260.646 706.704,-259.676 697.852,-253.855 696.154,-260.646"/>
</g>
<!-- Node18 -->
<g id="node6" class="node"><title>Node18</title>
<g id="a_node6"><a xlink:href="classAP__HAL_1_1Device.html#a2af24b5f93b678af718b65a606e538b0" target="_top" xlink:title=" ">
<polygon fill="white" stroke="black" points="870.032,-219 870.032,-239 999.968,-239 999.968,-219 870.032,-219"/>
<text text-anchor="middle" x="935" y="-225" font-family="Helvetica,sans-Serif" font-size="10.00">AP_HAL::Device::transfer</text>
</a>
</g>
</g>
<!-- Node15&#45;&gt;Node18 -->
<g id="edge6" class="edge"><title>Node15&#45;&gt;Node18</title>
<path fill="none" stroke="midnightblue" d="M659.568,-230.605C717.259,-230.267 800.108,-229.783 859.663,-229.435"/>
<polygon fill="midnightblue" stroke="midnightblue" points="859.776,-232.934 869.756,-229.376 859.735,-225.934 859.776,-232.934"/>
</g>
<!-- Node17&#45;&gt;Node18 -->
<g id="edge5" class="edge"><title>Node17&#45;&gt;Node18</title>
<path fill="none" stroke="midnightblue" d="M823.346,-258.639C844.001,-253.107 867.054,-246.932 886.749,-241.656"/>
<polygon fill="midnightblue" stroke="midnightblue" points="887.663,-245.035 896.417,-239.067 885.852,-238.274 887.663,-245.035"/>
</g>
<!-- Node19&#45;&gt;Node15 -->
<g id="edge8" class="edge"><title>Node19&#45;&gt;Node15</title>
<path fill="none" stroke="midnightblue" d="M311.534,-189.15C369.166,-197.811 452.049,-210.267 512.398,-219.337"/>
<polygon fill="midnightblue" stroke="midnightblue" points="512.228,-222.851 522.637,-220.876 513.268,-215.929 512.228,-222.851"/>
</g>
<!-- Node20 -->
<g id="node8" class="node"><title>Node20</title>
<g id="a_node8"><a xlink:href="classAP__InertialSensor__BMI088.html#a651a215297c58a2aaff8f9b3860d0170" target="_top" xlink:title=" ">
<polygon fill="white" stroke="black" points="348.688,-144 348.688,-176 485.312,-176 485.312,-144 348.688,-144"/>
<text text-anchor="start" x="356.688" y="-162" font-family="Helvetica,sans-Serif" font-size="10.00">AP_InertialSensor_BMI088</text>
<text text-anchor="middle" x="417" y="-150" font-family="Helvetica,sans-Serif" font-size="10.00">::write_accel_register</text>
</a>
</g>
</g>
<!-- Node19&#45;&gt;Node20 -->
<g id="edge9" class="edge"><title>Node19&#45;&gt;Node20</title>
<path fill="none" stroke="midnightblue" d="M311.485,-171.545C320.306,-170.571 329.4,-169.566 338.371,-168.575"/>
<polygon fill="midnightblue" stroke="midnightblue" points="338.872,-172.041 348.427,-167.464 338.103,-165.084 338.872,-172.041"/>
</g>
<!-- Node19&#45;&gt;Node24 -->
<g id="edge15" class="edge"><title>Node19&#45;&gt;Node24</title>
<path fill="none" stroke="midnightblue" d="M279.89,-162.881C299.835,-154.072 325.166,-143.129 348,-134 352.438,-132.226 357.057,-130.427 361.705,-128.651"/>
<polygon fill="midnightblue" stroke="midnightblue" points="363.12,-131.858 371.239,-125.051 360.647,-125.309 363.12,-131.858"/>
</g>
<!-- Node21 -->
<g id="node9" class="node"><title>Node21</title>
<g id="a_node9"><a xlink:href="classAP__HAL_1_1Device.html#a450d2427d58c09d75c8268f8b808c37b" target="_top" xlink:title=" ">
<polygon fill="white" stroke="black" points="532.426,-144 532.426,-176 649.574,-176 649.574,-144 532.426,-144"/>
<text text-anchor="start" x="540.426" y="-162" font-family="Helvetica,sans-Serif" font-size="10.00">AP_HAL::Device::write</text>
<text text-anchor="middle" x="591" y="-150" font-family="Helvetica,sans-Serif" font-size="10.00">_register</text>
</a>
</g>
</g>
<!-- Node20&#45;&gt;Node21 -->
<g id="edge10" class="edge"><title>Node20&#45;&gt;Node21</title>
<path fill="none" stroke="midnightblue" d="M485.485,-160C497.423,-160 509.861,-160 521.818,-160"/>
<polygon fill="midnightblue" stroke="midnightblue" points="522.177,-163.5 532.177,-160 522.177,-156.5 522.177,-163.5"/>
</g>
<!-- Node20&#45;&gt;Node15 -->
<g id="edge14" class="edge"><title>Node20&#45;&gt;Node15</title>
<path fill="none" stroke="midnightblue" d="M457.029,-176.111C482.1,-186.46 514.851,-199.979 541.577,-211.011"/>
<polygon fill="midnightblue" stroke="midnightblue" points="540.546,-214.372 551.125,-214.953 543.217,-207.902 540.546,-214.372"/>
</g>
<!-- Node22 -->
<g id="node10" class="node"><title>Node22</title>
<g id="a_node10"><a xlink:href="classAP__HAL_1_1Device.html#a44b62acec2c1c5d8bf8b9c07f5fe7192" target="_top" xlink:title=" ">
<polygon fill="white" stroke="black" points="710.313,-130 710.313,-162 819.687,-162 819.687,-130 710.313,-130"/>
<text text-anchor="start" x="718.313" y="-148" font-family="Helvetica,sans-Serif" font-size="10.00">AP_HAL::Device::set</text>
<text text-anchor="middle" x="765" y="-136" font-family="Helvetica,sans-Serif" font-size="10.00">_checked_register</text>
</a>
</g>
</g>
<!-- Node21&#45;&gt;Node22 -->
<g id="edge11" class="edge"><title>Node21&#45;&gt;Node22</title>
<path fill="none" stroke="midnightblue" d="M649.752,-155.299C665.916,-153.984 683.577,-152.546 700.076,-151.203"/>
<polygon fill="midnightblue" stroke="midnightblue" points="700.492,-154.681 710.175,-150.381 699.924,-147.704 700.492,-154.681"/>
</g>
<!-- Node21&#45;&gt;Node18 -->
<g id="edge13" class="edge"><title>Node21&#45;&gt;Node18</title>
<path fill="none" stroke="midnightblue" d="M649.629,-171.627C712.06,-184.223 811.187,-204.222 874.384,-216.972"/>
<polygon fill="midnightblue" stroke="midnightblue" points="873.712,-220.407 884.207,-218.954 875.097,-213.545 873.712,-220.407"/>
</g>
<!-- Node23 -->
<g id="node11" class="node"><title>Node23</title>
<g id="a_node11"><a xlink:href="stdio_8h.html#a55f3d956bb2ba20b5059e9e25484a47f" target="_top" xlink:title=" ">
<polygon fill="white" stroke="black" points="915.884,-168 915.884,-188 954.116,-188 954.116,-168 915.884,-168"/>
<text text-anchor="middle" x="935" y="-174" font-family="Helvetica,sans-Serif" font-size="10.00">printf</text>
</a>
</g>
</g>
<!-- Node22&#45;&gt;Node23 -->
<g id="edge12" class="edge"><title>Node22&#45;&gt;Node23</title>
<path fill="none" stroke="midnightblue" d="M820.081,-156.301C848.529,-161.72 882.244,-168.142 905.578,-172.586"/>
<polygon fill="midnightblue" stroke="midnightblue" points="905.034,-176.046 915.513,-174.479 906.344,-169.169 905.034,-176.046"/>
</g>
<!-- Node25 -->
<g id="node13" class="node"><title>Node25</title>
<g id="a_node13"><a xlink:href="classAP__HAL_1_1BetterStream.html#aa730be451d385d7ba03ee9677e6d91a2" target="_top" xlink:title=" ">
<polygon fill="white" stroke="black" points="531.589,-79 531.589,-111 650.411,-111 650.411,-79 531.589,-79"/>
<text text-anchor="start" x="539.589" y="-97" font-family="Helvetica,sans-Serif" font-size="10.00">AP_HAL::BetterStream</text>
<text text-anchor="middle" x="591" y="-85" font-family="Helvetica,sans-Serif" font-size="10.00">::vprintf</text>
</a>
</g>
</g>
<!-- Node24&#45;&gt;Node25 -->
<g id="edge16" class="edge"><title>Node24&#45;&gt;Node25</title>
<path fill="none" stroke="midnightblue" d="M476.712,-104.221C491.103,-103.05 506.631,-101.786 521.439,-100.581"/>
<polygon fill="midnightblue" stroke="midnightblue" points="521.87,-104.057 531.553,-99.7573 521.302,-97.0802 521.87,-104.057"/>
</g>
<!-- Node26 -->
<g id="node14" class="node"><title>Node26</title>
<g id="a_node14"><a xlink:href="print__vprintf_8cpp.html#a98e0d5bb436a207f576379beaa786040" target="_top" xlink:title=" ">
<polygon fill="white" stroke="black" points="730.877,-78 730.877,-98 799.123,-98 799.123,-78 730.877,-78"/>
<text text-anchor="middle" x="765" y="-84" font-family="Helvetica,sans-Serif" font-size="10.00">print_vprintf</text>
</a>
</g>
</g>
<!-- Node25&#45;&gt;Node26 -->
<g id="edge17" class="edge"><title>Node25&#45;&gt;Node26</title>
<path fill="none" stroke="midnightblue" d="M650.712,-92.6106C673.627,-91.678 699.426,-90.628 720.61,-89.7659"/>
<polygon fill="midnightblue" stroke="midnightblue" points="720.756,-93.2629 730.606,-89.3591 720.472,-86.2687 720.756,-93.2629"/>
</g>
<!-- Node27 -->
<g id="node15" class="node"><title>Node27</title>
<g id="a_node15"><a xlink:href="classAP__HAL_1_1BetterStream.html#a915cc01273d4b418c2fb2989fb31a508" target="_top" xlink:title=" ">
<polygon fill="white" stroke="black" points="875.589,-117 875.589,-149 994.411,-149 994.411,-117 875.589,-117"/>
<text text-anchor="start" x="883.589" y="-135" font-family="Helvetica,sans-Serif" font-size="10.00">AP_HAL::BetterStream</text>
<text text-anchor="middle" x="935" y="-123" font-family="Helvetica,sans-Serif" font-size="10.00">::write</text>
</a>
</g>
</g>
<!-- Node26&#45;&gt;Node27 -->
<g id="edge18" class="edge"><title>Node26&#45;&gt;Node27</title>
<path fill="none" stroke="midnightblue" d="M799.191,-96.8906C818.185,-101.978 842.73,-108.553 865.661,-114.695"/>
<polygon fill="midnightblue" stroke="midnightblue" points="864.804,-118.089 875.369,-117.295 866.615,-111.327 864.804,-118.089"/>
</g>
<!-- Node28 -->
<g id="node16" class="node"><title>Node28</title>
<g id="a_node16"><a xlink:href="ftoa__engine_8cpp.html#a1c28234da8f20b43c85890d4bb452947" target="_top" xlink:title=" ">
<polygon fill="white" stroke="black" points="900.865,-78 900.865,-98 969.135,-98 969.135,-78 900.865,-78"/>
<text text-anchor="middle" x="935" y="-84" font-family="Helvetica,sans-Serif" font-size="10.00">ftoa_engine</text>
</a>
</g>
</g>
<!-- Node26&#45;&gt;Node28 -->
<g id="edge19" class="edge"><title>Node26&#45;&gt;Node28</title>
<path fill="none" stroke="midnightblue" d="M799.191,-88C825.338,-88 862.004,-88 890.497,-88"/>
<polygon fill="midnightblue" stroke="midnightblue" points="890.59,-91.5001 900.59,-88 890.59,-84.5001 890.59,-91.5001"/>
</g>
<!-- Node30 -->
<g id="node18" class="node"><title>Node30</title>
<g id="a_node18"><a xlink:href="utoa__invert_8cpp.html#a34926f552460b47c414ec4d83b32815c" target="_top" xlink:title=" ">
<polygon fill="white" stroke="black" points="900.04,-39 900.04,-59 969.96,-59 969.96,-39 900.04,-39"/>
<text text-anchor="middle" x="935" y="-45" font-family="Helvetica,sans-Serif" font-size="10.00">ulltoa_invert</text>
</a>
</g>
</g>
<!-- Node26&#45;&gt;Node30 -->
<g id="edge21" class="edge"><title>Node26&#45;&gt;Node30</title>
<path fill="none" stroke="midnightblue" d="M799.191,-80.2949C825.167,-74.2648 861.526,-65.8243 889.939,-59.2284"/>
<polygon fill="midnightblue" stroke="midnightblue" points="891.064,-62.5604 900.014,-56.8897 889.481,-55.7417 891.064,-62.5604"/>
</g>
<!-- Node31 -->
<g id="node19" class="node"><title>Node31</title>
<g id="a_node19"><a xlink:href="utoa__invert_8cpp.html#a5d99bba8e697c1e11da489d88fca8559" target="_top" xlink:title=" ">
<polygon fill="white" stroke="black" points="901.15,-0 901.15,-20 968.85,-20 968.85,-0 901.15,-0"/>
<text text-anchor="middle" x="935" y="-6" font-family="Helvetica,sans-Serif" font-size="10.00">ultoa_invert</text>
</a>
</g>
</g>
<!-- Node26&#45;&gt;Node31 -->
<g id="edge23" class="edge"><title>Node26&#45;&gt;Node31</title>
<path fill="none" stroke="midnightblue" d="M781.287,-77.85C801.077,-65.0621 836.955,-43.0614 870,-29 876.746,-26.1296 884.065,-23.5178 891.262,-21.2119"/>
<polygon fill="midnightblue" stroke="midnightblue" points="892.392,-24.5266 900.936,-18.2617 890.35,-17.831 892.392,-24.5266"/>
</g>
<!-- Node29 -->
<g id="node17" class="node"><title>Node29</title>
<g id="a_node17"><a xlink:href="lstrlib_8c.html#a9605f4d16ae762782f8be8b54aef0a22" target="_top" xlink:title=" ">
<polygon fill="white" stroke="black" points="1035.83,-39 1035.83,-59 1070.17,-59 1070.17,-39 1035.83,-39"/>
<text text-anchor="middle" x="1053" y="-45" font-family="Helvetica,sans-Serif" font-size="10.00">digit</text>
</a>
</g>
</g>
<!-- Node28&#45;&gt;Node29 -->
<g id="edge20" class="edge"><title>Node28&#45;&gt;Node29</title>
<path fill="none" stroke="midnightblue" d="M969.314,-77.9176C979.221,-74.831 990.077,-71.3612 1000,-68 1008.54,-65.1062 1017.81,-61.7808 1026.12,-58.7291"/>
<polygon fill="midnightblue" stroke="midnightblue" points="1027.52,-61.946 1035.68,-55.1899 1025.08,-55.3819 1027.52,-61.946"/>
</g>
<!-- Node30&#45;&gt;Node29 -->
<g id="edge22" class="edge"><title>Node30&#45;&gt;Node29</title>
<path fill="none" stroke="midnightblue" d="M970.176,-49C987.939,-49 1009.31,-49 1025.75,-49"/>
<polygon fill="midnightblue" stroke="midnightblue" points="1025.76,-52.5001 1035.76,-49 1025.76,-45.5001 1025.76,-52.5001"/>
</g>
<!-- Node31&#45;&gt;Node29 -->
<g id="edge24" class="edge"><title>Node31&#45;&gt;Node29</title>
<path fill="none" stroke="midnightblue" d="M969.044,-19.2713C979.041,-22.2207 990.015,-25.6034 1000,-29 1008.59,-31.9231 1017.87,-35.3907 1026.18,-38.6108"/>
<polygon fill="midnightblue" stroke="midnightblue" points="1025.14,-41.9608 1035.73,-42.3626 1027.7,-35.4462 1025.14,-41.9608"/>
</g>
</g>
</svg>
