<?xml version="1.0" encoding="UTF-8" standalone="no"?>
<!DOCTYPE svg PUBLIC "-//W3C//DTD SVG 1.1//EN"
 "http://www.w3.org/Graphics/SVG/1.1/DTD/svg11.dtd">
<!-- Generated by graphviz version 2.30.1 (20130221.2233)
 -->
<!-- Title: RC_Channels::reset_mode_switch Pages: 1 -->
<svg width="726pt" height="178pt"
 viewBox="0.00 0.00 726.00 178.00" xmlns="http://www.w3.org/2000/svg" xmlns:xlink="http://www.w3.org/1999/xlink">
<g id="graph0" class="graph" transform="scale(1 1) rotate(0) translate(4 174)">
<title>RC_Channels::reset_mode_switch</title>
<polygon fill="white" stroke="white" points="-4,5 -4,-174 723,-174 723,5 -4,5"/>
<!-- Node5271 -->
<g id="node1" class="node"><title>Node5271</title>
<g id="a_node1"><a xlink:title=" ">
<polygon fill="#bfbfbf" stroke="black" points="-0.0219727,-70 -0.0219727,-102 106.022,-102 106.022,-70 -0.0219727,-70"/>
<text text-anchor="start" x="7.97803" y="-88" font-family="Helvetica,sans-Serif" font-size="10.00">RC_Channels::reset</text>
<text text-anchor="middle" x="53" y="-76" font-family="Helvetica,sans-Serif" font-size="10.00">_mode_switch</text>
</a>
</g>
</g>
<!-- Node5272 -->
<g id="node2" class="node"><title>Node5272</title>
<g id="a_node2"><a xlink:href="classRC__Channels.html#a76fe4b6aec19e1e5a3c122d8c95402dd" target="_top" xlink:title=" ">
<polygon fill="white" stroke="black" points="155.532,-96 155.532,-128 260.468,-128 260.468,-96 155.532,-96"/>
<text text-anchor="start" x="163.532" y="-114" font-family="Helvetica,sans-Serif" font-size="10.00">RC_Channels::flight</text>
<text text-anchor="middle" x="208" y="-102" font-family="Helvetica,sans-Serif" font-size="10.00">_mode_channel</text>
</a>
</g>
</g>
<!-- Node5271&#45;&gt;Node5272 -->
<g id="edge1" class="edge"><title>Node5271&#45;&gt;Node5272</title>
<path fill="none" stroke="midnightblue" d="M106.226,-94.875C118.795,-97.0108 132.338,-99.3124 145.294,-101.514"/>
<polygon fill="midnightblue" stroke="midnightblue" points="145.083,-105.028 155.528,-103.253 146.255,-98.1271 145.083,-105.028"/>
</g>
<!-- Node5275 -->
<g id="node5" class="node"><title>Node5275</title>
<g id="a_node5"><a xlink:href="classRC__Channel.html#a714307b3d47f419f8e1f7e4e0ed042ea" target="_top" xlink:title=" ">
<polygon fill="white" stroke="black" points="142.19,-45 142.19,-77 273.81,-77 273.81,-45 142.19,-45"/>
<text text-anchor="start" x="150.19" y="-63" font-family="Helvetica,sans-Serif" font-size="10.00">RC_Channel::reset_mode</text>
<text text-anchor="middle" x="208" y="-51" font-family="Helvetica,sans-Serif" font-size="10.00">_switch</text>
</a>
</g>
</g>
<!-- Node5271&#45;&gt;Node5275 -->
<g id="edge4" class="edge"><title>Node5271&#45;&gt;Node5275</title>
<path fill="none" stroke="midnightblue" d="M106.226,-77.4663C114.501,-76.1142 123.2,-74.6929 131.874,-73.2755"/>
<polygon fill="midnightblue" stroke="midnightblue" points="132.715,-76.6846 142.02,-71.6177 131.586,-69.7762 132.715,-76.6846"/>
</g>
<!-- Node5273 -->
<g id="node3" class="node"><title>Node5273</title>
<g id="a_node3"><a xlink:href="classRC__Channels.html#a18d4c6ee4f5152d474271275996c02ed" target="_top" xlink:title=" ">
<polygon fill="white" stroke="black" points="311.683,-138 311.683,-170 438.317,-170 438.317,-138 311.683,-138"/>
<text text-anchor="start" x="319.683" y="-156" font-family="Helvetica,sans-Serif" font-size="10.00">RC_Channels::flight</text>
<text text-anchor="middle" x="375" y="-144" font-family="Helvetica,sans-Serif" font-size="10.00">_mode_channel_number</text>
</a>
</g>
</g>
<!-- Node5272&#45;&gt;Node5273 -->
<g id="edge2" class="edge"><title>Node5272&#45;&gt;Node5273</title>
<path fill="none" stroke="midnightblue" d="M260.754,-125.174C273.683,-128.465 287.787,-132.055 301.516,-135.549"/>
<polygon fill="midnightblue" stroke="midnightblue" points="300.87,-138.997 311.424,-138.072 302.596,-132.213 300.87,-138.997"/>
</g>
<!-- Node5274 -->
<g id="node4" class="node"><title>Node5274</title>
<g id="a_node4"><a xlink:href="classRC__Channels.html#a305bdcb535ed4055e86125c65bc6ba0c" target="_top" xlink:title=" ">
<polygon fill="white" stroke="black" points="315.579,-99 315.579,-119 434.421,-119 434.421,-99 315.579,-99"/>
<text text-anchor="middle" x="375" y="-105" font-family="Helvetica,sans-Serif" font-size="10.00">RC_Channels::channel</text>
</a>
</g>
</g>
<!-- Node5272&#45;&gt;Node5274 -->
<g id="edge3" class="edge"><title>Node5272&#45;&gt;Node5274</title>
<path fill="none" stroke="midnightblue" d="M260.754,-111.059C274.884,-110.802 290.417,-110.52 305.329,-110.249"/>
<polygon fill="midnightblue" stroke="midnightblue" points="305.595,-113.744 315.53,-110.063 305.468,-106.746 305.595,-113.744"/>
</g>
<!-- Node5276 -->
<g id="node6" class="node"><title>Node5276</title>
<g id="a_node6"><a xlink:href="classRC__Channel.html#aedb22300da87f02e47a695d89de430df" target="_top" xlink:title=" ">
<polygon fill="white" stroke="black" points="310.298,-45 310.298,-77 439.702,-77 439.702,-45 310.298,-45"/>
<text text-anchor="start" x="318.298" y="-63" font-family="Helvetica,sans-Serif" font-size="10.00">RC_Channel::read_mode</text>
<text text-anchor="middle" x="375" y="-51" font-family="Helvetica,sans-Serif" font-size="10.00">_switch</text>
</a>
</g>
</g>
<!-- Node5275&#45;&gt;Node5276 -->
<g id="edge5" class="edge"><title>Node5275&#45;&gt;Node5276</title>
<path fill="none" stroke="midnightblue" d="M274.212,-61C282.694,-61 291.431,-61 300.042,-61"/>
<polygon fill="midnightblue" stroke="midnightblue" points="300.07,-64.5001 310.07,-61 300.07,-57.5001 300.07,-64.5001"/>
</g>
<!-- Node5277 -->
<g id="node7" class="node"><title>Node5277</title>
<g id="a_node7"><a xlink:href="classRC__Channel.html#a35dd43d363695269b38277306426f883" target="_top" xlink:title=" ">
<polygon fill="white" stroke="black" points="478.072,-90 478.072,-110 611.928,-110 611.928,-90 478.072,-90"/>
<text text-anchor="middle" x="545" y="-96" font-family="Helvetica,sans-Serif" font-size="10.00">RC_Channel::get_radio_in</text>
</a>
</g>
</g>
<!-- Node5276&#45;&gt;Node5277 -->
<g id="edge6" class="edge"><title>Node5276&#45;&gt;Node5277</title>
<path fill="none" stroke="midnightblue" d="M439.993,-75.8555C456.81,-79.7594 474.763,-83.9271 490.937,-87.6819"/>
<polygon fill="midnightblue" stroke="midnightblue" points="490.22,-91.1083 500.752,-89.9603 491.803,-84.2896 490.22,-91.1083"/>
</g>
<!-- Node5278 -->
<g id="node8" class="node"><title>Node5278</title>
<g id="a_node8"><a xlink:href="namespaceAP__HAL.html#a77dffbb18891996280308e21316ec186" target="_top" xlink:title=" ">
<polygon fill="white" stroke="black" points="503.936,-51 503.936,-71 586.064,-71 586.064,-51 503.936,-51"/>
<text text-anchor="middle" x="545" y="-57" font-family="Helvetica,sans-Serif" font-size="10.00">AP_HAL::millis</text>
</a>
</g>
</g>
<!-- Node5276&#45;&gt;Node5278 -->
<g id="edge7" class="edge"><title>Node5276&#45;&gt;Node5278</title>
<path fill="none" stroke="midnightblue" d="M439.993,-61C457.655,-61 476.569,-61 493.361,-61"/>
<polygon fill="midnightblue" stroke="midnightblue" points="493.511,-64.5001 503.511,-61 493.511,-57.5001 493.511,-64.5001"/>
</g>
<!-- Node5280 -->
<g id="node10" class="node"><title>Node5280</title>
<g id="a_node10"><a xlink:href="classRC__Channel.html#a79cfb7c441f58d5355d21f6737236e6d" target="_top" xlink:title=" ">
<polygon fill="white" stroke="black" points="476.414,-0 476.414,-32 613.586,-32 613.586,-0 476.414,-0"/>
<text text-anchor="start" x="484.414" y="-18" font-family="Helvetica,sans-Serif" font-size="10.00">RC_Channel::mode_switch</text>
<text text-anchor="middle" x="545" y="-6" font-family="Helvetica,sans-Serif" font-size="10.00">_changed</text>
</a>
</g>
</g>
<!-- Node5276&#45;&gt;Node5280 -->
<g id="edge9" class="edge"><title>Node5276&#45;&gt;Node5280</title>
<path fill="none" stroke="midnightblue" d="M436.177,-44.8811C448.51,-41.5777 461.589,-38.0744 474.226,-34.6895"/>
<polygon fill="midnightblue" stroke="midnightblue" points="475.489,-37.9746 484.243,-32.0064 473.678,-31.213 475.489,-37.9746"/>
</g>
<!-- Node5279 -->
<g id="node9" class="node"><title>Node5279</title>
<g id="a_node9"><a xlink:href="hrt_8c.html#a1295f128f60d29874243b5733c4db025" target="_top" xlink:title=" ">
<polygon fill="white" stroke="black" points="650.714,-51 650.714,-71 717.286,-71 717.286,-51 650.714,-51"/>
<text text-anchor="middle" x="684" y="-57" font-family="Helvetica,sans-Serif" font-size="10.00">hrt_millis32</text>
</a>
</g>
</g>
<!-- Node5278&#45;&gt;Node5279 -->
<g id="edge8" class="edge"><title>Node5278&#45;&gt;Node5279</title>
<path fill="none" stroke="midnightblue" d="M586.364,-61C603.227,-61 622.845,-61 639.981,-61"/>
<polygon fill="midnightblue" stroke="midnightblue" points="640.283,-64.5001 650.283,-61 640.283,-57.5001 640.283,-64.5001"/>
</g>
</g>
</svg>
