<?xml version="1.0" encoding="UTF-8" standalone="no"?>
<!DOCTYPE svg PUBLIC "-//W3C//DTD SVG 1.1//EN"
 "http://www.w3.org/Graphics/SVG/1.1/DTD/svg11.dtd">
<!-- Generated by graphviz version 2.30.1 (20130221.2233)
 -->
<!-- Title: AP_RangeFinder_VL53L1X::setupManualCalibration Pages: 1 -->
<svg width="1200pt" height="40pt"
 viewBox="0.00 0.00 1200.00 40.00" xmlns="http://www.w3.org/2000/svg" xmlns:xlink="http://www.w3.org/1999/xlink">
<g id="graph0" class="graph" transform="scale(1 1) rotate(0) translate(4 36)">
<title>AP_RangeFinder_VL53L1X::setupManualCalibration</title>
<polygon fill="white" stroke="white" points="-4,5 -4,-36 1197,-36 1197,5 -4,5"/>
<!-- Node250 -->
<g id="node1" class="node"><title>Node250</title>
<g id="a_node1"><a xlink:title=" ">
<polygon fill="#bfbfbf" stroke="black" points="1052.29,-0 1052.29,-32 1191.71,-32 1191.71,-0 1052.29,-0"/>
<text text-anchor="start" x="1060.29" y="-18" font-family="Helvetica,sans-Serif" font-size="10.00">AP_RangeFinder_VL53L1X</text>
<text text-anchor="middle" x="1122" y="-6" font-family="Helvetica,sans-Serif" font-size="10.00">::setupManualCalibration</text>
</a>
</g>
</g>
<!-- Node251 -->
<g id="node2" class="node"><title>Node251</title>
<g id="a_node2"><a xlink:href="classAP__RangeFinder__VL53L1X.html#a51e41323966d652ad9969755fbb8b2ce" target="_top" xlink:title=" ">
<polygon fill="white" stroke="black" points="876.289,-0 876.289,-32 1015.71,-32 1015.71,-0 876.289,-0"/>
<text text-anchor="start" x="884.289" y="-18" font-family="Helvetica,sans-Serif" font-size="10.00">AP_RangeFinder_VL53L1X</text>
<text text-anchor="middle" x="946" y="-6" font-family="Helvetica,sans-Serif" font-size="10.00">::get_reading</text>
</a>
</g>
</g>
<!-- Node250&#45;&gt;Node251 -->
<g id="edge1" class="edge"><title>Node250&#45;&gt;Node251</title>
<path fill="none" stroke="midnightblue" d="M1042.04,-16C1033.3,-16 1024.44,-16 1015.84,-16"/>
<polygon fill="midnightblue" stroke="midnightblue" points="1042.23,-19.5001 1052.23,-16 1042.23,-12.5001 1042.23,-19.5001"/>
</g>
<!-- Node252 -->
<g id="node3" class="node"><title>Node252</title>
<g id="a_node3"><a xlink:href="classAP__RangeFinder__VL53L1X.html#afb93972292f9f948c590312038a46eed" target="_top" xlink:title=" ">
<polygon fill="white" stroke="black" points="700.289,-0 700.289,-32 839.711,-32 839.711,-0 700.289,-0"/>
<text text-anchor="start" x="708.289" y="-18" font-family="Helvetica,sans-Serif" font-size="10.00">AP_RangeFinder_VL53L1X</text>
<text text-anchor="middle" x="770" y="-6" font-family="Helvetica,sans-Serif" font-size="10.00">::timer</text>
</a>
</g>
</g>
<!-- Node251&#45;&gt;Node252 -->
<g id="edge2" class="edge"><title>Node251&#45;&gt;Node252</title>
<path fill="none" stroke="midnightblue" d="M866.039,-16C857.296,-16 848.444,-16 839.84,-16"/>
<polygon fill="midnightblue" stroke="midnightblue" points="866.231,-19.5001 876.231,-16 866.231,-12.5001 866.231,-19.5001"/>
</g>
<!-- Node253 -->
<g id="node4" class="node"><title>Node253</title>
<g id="a_node4"><a xlink:href="classAP__RangeFinder__VL53L1X.html#aa3a2666e05e882690b533dd99c975024" target="_top" xlink:title=" ">
<polygon fill="white" stroke="black" points="524.289,-0 524.289,-32 663.711,-32 663.711,-0 524.289,-0"/>
<text text-anchor="start" x="532.289" y="-18" font-family="Helvetica,sans-Serif" font-size="10.00">AP_RangeFinder_VL53L1X</text>
<text text-anchor="middle" x="594" y="-6" font-family="Helvetica,sans-Serif" font-size="10.00">::init</text>
</a>
</g>
</g>
<!-- Node252&#45;&gt;Node253 -->
<g id="edge3" class="edge"><title>Node252&#45;&gt;Node253</title>
<path fill="none" stroke="midnightblue" d="M690.039,-16C681.296,-16 672.444,-16 663.84,-16"/>
<polygon fill="midnightblue" stroke="midnightblue" points="690.231,-19.5001 700.231,-16 690.231,-12.5001 690.231,-19.5001"/>
</g>
<!-- Node254 -->
<g id="node5" class="node"><title>Node254</title>
<g id="a_node5"><a xlink:href="classAP__RangeFinder__VL53L1X.html#a5b63daf9926d05b8249e0a4b87e3b1b3" target="_top" xlink:title=" ">
<polygon fill="white" stroke="black" points="348.289,-0 348.289,-32 487.711,-32 487.711,-0 348.289,-0"/>
<text text-anchor="start" x="356.289" y="-18" font-family="Helvetica,sans-Serif" font-size="10.00">AP_RangeFinder_VL53L1X</text>
<text text-anchor="middle" x="418" y="-6" font-family="Helvetica,sans-Serif" font-size="10.00">::detect</text>
</a>
</g>
</g>
<!-- Node253&#45;&gt;Node254 -->
<g id="edge4" class="edge"><title>Node253&#45;&gt;Node254</title>
<path fill="none" stroke="midnightblue" d="M514.039,-16C505.296,-16 496.444,-16 487.84,-16"/>
<polygon fill="midnightblue" stroke="midnightblue" points="514.231,-19.5001 524.231,-16 514.231,-12.5001 514.231,-19.5001"/>
</g>
<!-- Node255 -->
<g id="node6" class="node"><title>Node255</title>
<g id="a_node6"><a xlink:href="classRangeFinder.html#a2d16a636e444ce916e524d1e2623d1d3" target="_top" xlink:title=" ">
<polygon fill="white" stroke="black" points="204.695,-0 204.695,-32 311.305,-32 311.305,-0 204.695,-0"/>
<text text-anchor="start" x="212.695" y="-18" font-family="Helvetica,sans-Serif" font-size="10.00">RangeFinder::detect</text>
<text text-anchor="middle" x="258" y="-6" font-family="Helvetica,sans-Serif" font-size="10.00">_instance</text>
</a>
</g>
</g>
<!-- Node254&#45;&gt;Node255 -->
<g id="edge5" class="edge"><title>Node254&#45;&gt;Node255</title>
<path fill="none" stroke="midnightblue" d="M338.012,-16C329.004,-16 319.995,-16 311.454,-16"/>
<polygon fill="midnightblue" stroke="midnightblue" points="338.159,-19.5001 348.159,-16 338.158,-12.5001 338.159,-19.5001"/>
</g>
<!-- Node256 -->
<g id="node7" class="node"><title>Node256</title>
<g id="a_node7"><a xlink:href="classRangeFinder.html#ad3e3b3a548b8da70aedd97c4be3a5b6d" target="_top" xlink:title=" ">
<polygon fill="white" stroke="black" points="75.9238,-6 75.9238,-26 168.076,-26 168.076,-6 75.9238,-6"/>
<text text-anchor="middle" x="122" y="-12" font-family="Helvetica,sans-Serif" font-size="10.00">RangeFinder::init</text>
</a>
</g>
</g>
<!-- Node255&#45;&gt;Node256 -->
<g id="edge6" class="edge"><title>Node255&#45;&gt;Node256</title>
<path fill="none" stroke="midnightblue" d="M194.287,-16C185.583,-16 176.783,-16 168.476,-16"/>
<polygon fill="midnightblue" stroke="midnightblue" points="194.424,-19.5001 204.424,-16 194.424,-12.5001 194.424,-19.5001"/>
</g>
<!-- Node257 -->
<g id="node8" class="node"><title>Node257</title>
<g id="a_node8"><a xlink:href="RFIND__test_8cpp.html#a4fc01d736fe50cf5b977f755b675f11d" target="_top" xlink:title=" ">
<polygon fill="white" stroke="black" points="-0.231445,-6 -0.231445,-26 40.2314,-26 40.2314,-6 -0.231445,-6"/>
<text text-anchor="middle" x="20" y="-12" font-family="Helvetica,sans-Serif" font-size="10.00">setup</text>
</a>
</g>
</g>
<!-- Node256&#45;&gt;Node257 -->
<g id="edge7" class="edge"><title>Node256&#45;&gt;Node257</title>
<path fill="none" stroke="midnightblue" d="M65.4836,-16C56.4862,-16 47.73,-16 40.3996,-16"/>
<polygon fill="midnightblue" stroke="midnightblue" points="65.6814,-19.5001 75.6814,-16 65.6814,-12.5001 65.6814,-19.5001"/>
</g>
</g>
</svg>
