<?xml version="1.0" encoding="UTF-8" standalone="no"?>
<!DOCTYPE svg PUBLIC "-//W3C//DTD SVG 1.1//EN"
 "http://www.w3.org/Graphics/SVG/1.1/DTD/svg11.dtd">
<!-- Generated by graphviz version 2.30.1 (20130221.2233)
 -->
<!-- Title: AP_Follow::get_target_heading_deg Pages: 1 -->
<svg width="448pt" height="79pt"
 viewBox="0.00 0.00 448.00 79.00" xmlns="http://www.w3.org/2000/svg" xmlns:xlink="http://www.w3.org/1999/xlink">
<g id="graph0" class="graph" transform="scale(1 1) rotate(0) translate(4 75)">
<title>AP_Follow::get_target_heading_deg</title>
<polygon fill="white" stroke="white" points="-4,5 -4,-75 445,-75 445,5 -4,5"/>
<!-- Node54 -->
<g id="node1" class="node"><title>Node54</title>
<g id="a_node1"><a xlink:title=" ">
<polygon fill="#bfbfbf" stroke="black" points="325.806,-22 325.806,-54 440.194,-54 440.194,-22 325.806,-22"/>
<text text-anchor="start" x="333.806" y="-40" font-family="Helvetica,sans-Serif" font-size="10.00">AP_Follow::get_target</text>
<text text-anchor="middle" x="383" y="-28" font-family="Helvetica,sans-Serif" font-size="10.00">_heading_deg</text>
</a>
</g>
</g>
<!-- Node55 -->
<g id="node2" class="node"><title>Node55</title>
<g id="a_node2"><a xlink:href="classAP__Follow.html#aa1a6f09c92bfa0b839acb8825c67c5a9" target="_top" xlink:title=" ">
<polygon fill="white" stroke="black" points="149.827,-51 149.827,-71 290.173,-71 290.173,-51 149.827,-51"/>
<text text-anchor="middle" x="220" y="-57" font-family="Helvetica,sans-Serif" font-size="10.00">AP_Follow::get_offsets_ned</text>
</a>
</g>
</g>
<!-- Node54&#45;&gt;Node55 -->
<g id="edge1" class="edge"><title>Node54&#45;&gt;Node55</title>
<path fill="none" stroke="midnightblue" d="M315.627,-47.4818C307.272,-48.6754 298.707,-49.899 290.308,-51.0989"/>
<polygon fill="midnightblue" stroke="midnightblue" points="316.286,-50.9234 325.69,-46.0443 315.296,-43.9938 316.286,-50.9234"/>
</g>
<!-- Node57 -->
<g id="node4" class="node"><title>Node57</title>
<g id="a_node4"><a xlink:href="classAP__Follow.html#ad94d85336b964a9880dfc6bd8a5582ae" target="_top" xlink:title=" ">
<polygon fill="white" stroke="black" points="161.509,-0 161.509,-32 278.491,-32 278.491,-0 161.509,-0"/>
<text text-anchor="start" x="169.509" y="-18" font-family="Helvetica,sans-Serif" font-size="10.00">AP_Follow::init_offsets</text>
<text text-anchor="middle" x="220" y="-6" font-family="Helvetica,sans-Serif" font-size="10.00">_if_required</text>
</a>
</g>
</g>
<!-- Node54&#45;&gt;Node57 -->
<g id="edge3" class="edge"><title>Node54&#45;&gt;Node57</title>
<path fill="none" stroke="midnightblue" d="M315.536,-28.9179C303.291,-27.2447 290.599,-25.5105 278.642,-23.8765"/>
<polygon fill="midnightblue" stroke="midnightblue" points="315.308,-32.4193 325.69,-30.3055 316.256,-25.4837 315.308,-32.4193"/>
</g>
<!-- Node56 -->
<g id="node3" class="node"><title>Node56</title>
<g id="a_node3"><a xlink:href="classAP__Follow.html#a3762f949d44701e241d34f2865f37444" target="_top" xlink:title=" ">
<polygon fill="white" stroke="black" points="-0.194336,-22 -0.194336,-54 114.194,-54 114.194,-22 -0.194336,-22"/>
<text text-anchor="start" x="7.80566" y="-40" font-family="Helvetica,sans-Serif" font-size="10.00">AP_Follow::get_target</text>
<text text-anchor="middle" x="57" y="-28" font-family="Helvetica,sans-Serif" font-size="10.00">_dist_and_vel_ned</text>
</a>
</g>
</g>
<!-- Node55&#45;&gt;Node56 -->
<g id="edge2" class="edge"><title>Node55&#45;&gt;Node56</title>
<path fill="none" stroke="midnightblue" d="M139.809,-49.6869C131.281,-48.4687 122.734,-47.2477 114.55,-46.0786"/>
<polygon fill="midnightblue" stroke="midnightblue" points="139.393,-53.163 149.787,-51.1124 140.383,-46.2333 139.393,-53.163"/>
</g>
<!-- Node57&#45;&gt;Node56 -->
<g id="edge4" class="edge"><title>Node57&#45;&gt;Node56</title>
<path fill="none" stroke="midnightblue" d="M151.178,-25.2676C138.949,-26.9387 126.32,-28.6644 114.458,-30.2853"/>
<polygon fill="midnightblue" stroke="midnightblue" points="151.896,-28.7021 161.33,-23.8804 150.948,-21.7666 151.896,-28.7021"/>
</g>
</g>
</svg>
