<?xml version="1.0" encoding="UTF-8" standalone="no"?>
<!DOCTYPE svg PUBLIC "-//W3C//DTD SVG 1.1//EN"
 "http://www.w3.org/Graphics/SVG/1.1/DTD/svg11.dtd">
<!-- Generated by graphviz version 2.30.1 (20130221.2233)
 -->
<!-- Title: Linux::GPIO_Sysfs::_pinMode Pages: 1 -->
<svg width="910pt" height="518pt"
 viewBox="0.00 0.00 910.00 517.98" xmlns="http://www.w3.org/2000/svg" xmlns:xlink="http://www.w3.org/1999/xlink">
<g id="graph0" class="graph" transform="scale(1 1) rotate(0) translate(4 513.982)">
<title>Linux::GPIO_Sysfs::_pinMode</title>
<polygon fill="white" stroke="white" points="-4,5 -4,-513.982 907,-513.982 907,5 -4,5"/>
<!-- Node57 -->
<g id="node1" class="node"><title>Node57</title>
<g id="a_node1"><a xlink:title=" ">
<polygon fill="#bfbfbf" stroke="black" points="-0.0170898,-287 -0.0170898,-319 106.017,-319 106.017,-287 -0.0170898,-287"/>
<text text-anchor="start" x="7.98291" y="-305" font-family="Helvetica,sans-Serif" font-size="10.00">Linux::GPIO_Sysfs::</text>
<text text-anchor="middle" x="53" y="-293" font-family="Helvetica,sans-Serif" font-size="10.00">_pinMode</text>
</a>
</g>
</g>
<!-- Node58 -->
<g id="node2" class="node"><title>Node58</title>
<g id="a_node2"><a xlink:href="stdio_8h.html#a37c1e8ce8a2b411fa666dc33972a2cec" target="_top" xlink:title=" ">
<polygon fill="white" stroke="black" points="177.604,-352 177.604,-372 226.396,-372 226.396,-352 177.604,-352"/>
<text text-anchor="middle" x="202" y="-358" font-family="Helvetica,sans-Serif" font-size="10.00">snprintf</text>
</a>
</g>
</g>
<!-- Node57&#45;&gt;Node58 -->
<g id="edge1" class="edge"><title>Node57&#45;&gt;Node58</title>
<path fill="none" stroke="midnightblue" d="M88.3868,-319.103C104.52,-326.435 124.097,-335.015 142,-342 150.328,-345.249 159.429,-348.485 167.936,-351.378"/>
<polygon fill="midnightblue" stroke="midnightblue" points="166.973,-354.746 177.567,-354.596 169.191,-348.107 166.973,-354.746"/>
</g>
<!-- Node59 -->
<g id="node3" class="node"><title>Node59</title>
<g id="a_node3"><a xlink:href="classLinux_1_1Util.html#addd6070e02a90ee0a7063f0c3db4fecc" target="_top" xlink:title=" ">
<polygon fill="white" stroke="black" points="159.269,-313 159.269,-333 244.731,-333 244.731,-313 159.269,-313"/>
<text text-anchor="middle" x="202" y="-319" font-family="Helvetica,sans-Serif" font-size="10.00">Linux::Util::from</text>
</a>
</g>
</g>
<!-- Node57&#45;&gt;Node59 -->
<g id="edge2" class="edge"><title>Node57&#45;&gt;Node59</title>
<path fill="none" stroke="midnightblue" d="M106.241,-310.108C120.05,-311.986 134.956,-314.014 148.765,-315.893"/>
<polygon fill="midnightblue" stroke="midnightblue" points="148.695,-319.416 159.075,-317.296 149.639,-312.48 148.695,-319.416"/>
</g>
<!-- Node60 -->
<g id="node4" class="node"><title>Node60</title>
<g id="a_node4"><a xlink:href="classLinux_1_1Util.html#af217ed63397b599a1b94ff6d0675ff9c" target="_top" xlink:title=" ">
<polygon fill="white" stroke="black" points="149.54,-274 149.54,-294 254.46,-294 254.46,-274 149.54,-274"/>
<text text-anchor="middle" x="202" y="-280" font-family="Helvetica,sans-Serif" font-size="10.00">Linux::Util::write_file</text>
</a>
</g>
</g>
<!-- Node57&#45;&gt;Node60 -->
<g id="edge3" class="edge"><title>Node57&#45;&gt;Node60</title>
<path fill="none" stroke="midnightblue" d="M106.241,-296.248C116.982,-294.86 128.385,-293.386 139.421,-291.959"/>
<polygon fill="midnightblue" stroke="midnightblue" points="139.953,-295.42 149.422,-290.667 139.056,-288.477 139.953,-295.42"/>
</g>
<!-- Node76 -->
<g id="node20" class="node"><title>Node76</title>
<g id="a_node20"><a xlink:href="classAP__HAL_1_1BetterStream.html#a8534aa004599bb81ad60f3e762791032" target="_top" xlink:title=" ">
<polygon fill="white" stroke="black" points="142.589,-168 142.589,-200 261.411,-200 261.411,-168 142.589,-168"/>
<text text-anchor="start" x="150.589" y="-186" font-family="Helvetica,sans-Serif" font-size="10.00">AP_HAL::BetterStream</text>
<text text-anchor="middle" x="202" y="-174" font-family="Helvetica,sans-Serif" font-size="10.00">::printf</text>
</a>
</g>
</g>
<!-- Node57&#45;&gt;Node76 -->
<g id="edge35" class="edge"><title>Node57&#45;&gt;Node76</title>
<path fill="none" stroke="midnightblue" d="M73.8251,-286.951C99.3604,-266.28 143.901,-230.223 172.915,-206.736"/>
<polygon fill="midnightblue" stroke="midnightblue" points="175.449,-209.187 181.02,-200.175 171.045,-203.746 175.449,-209.187"/>
</g>
<!-- Node61 -->
<g id="node5" class="node"><title>Node61</title>
<g id="a_node5"><a xlink:href="posix_8c.html#adcb60598073f6f9cbb0091ef6768fa5c" target="_top" xlink:title="POSIX Open a file with integer mode flags.">
<polygon fill="white" stroke="black" points="338.877,-274 338.877,-294 377.123,-294 377.123,-274 338.877,-274"/>
<text text-anchor="middle" x="358" y="-280" font-family="Helvetica,sans-Serif" font-size="10.00">open</text>
</a>
</g>
</g>
<!-- Node60&#45;&gt;Node61 -->
<g id="edge4" class="edge"><title>Node60&#45;&gt;Node61</title>
<path fill="none" stroke="midnightblue" d="M254.708,-284C279.412,-284 308.023,-284 328.694,-284"/>
<polygon fill="midnightblue" stroke="midnightblue" points="328.718,-287.5 338.718,-284 328.718,-280.5 328.718,-287.5"/>
</g>
<!-- Node75 -->
<g id="node19" class="node"><title>Node75</title>
<g id="a_node19"><a xlink:href="posix_8c.html#a8877deace0c63591fee0cc9c94d249d3" target="_top" xlink:title="POSIX Close a file with fileno handel.">
<polygon fill="white" stroke="black" points="338.328,-371 338.328,-391 377.672,-391 377.672,-371 338.328,-371"/>
<text text-anchor="middle" x="358" y="-377" font-family="Helvetica,sans-Serif" font-size="10.00">close</text>
</a>
</g>
</g>
<!-- Node60&#45;&gt;Node75 -->
<g id="edge29" class="edge"><title>Node60&#45;&gt;Node75</title>
<path fill="none" stroke="midnightblue" d="M241.33,-294.02C248.403,-296.511 255.576,-299.495 262,-303 292.215,-319.487 322.069,-346.163 340.021,-363.643"/>
<polygon fill="midnightblue" stroke="midnightblue" points="337.828,-366.398 347.391,-370.958 342.759,-361.429 337.828,-366.398"/>
</g>
<!-- Node62 -->
<g id="node6" class="node"><title>Node62</title>
<g id="a_node6"><a xlink:href="posix_8c.html#af86fa14728c9bad5418a6d29cad9f9ff" target="_top" xlink:title="Convert POSIX stream pointer to POSIX fileno (index of __iob[])">
<polygon fill="white" stroke="black" points="751.047,-410 751.047,-430 790.953,-430 790.953,-410 751.047,-410"/>
<text text-anchor="middle" x="771" y="-416" font-family="Helvetica,sans-Serif" font-size="10.00">fileno</text>
</a>
</g>
</g>
<!-- Node61&#45;&gt;Node62 -->
<g id="edge5" class="edge"><title>Node61&#45;&gt;Node62</title>
<path fill="none" stroke="midnightblue" d="M377.23,-275.848C433.185,-252.185 605.146,-189.727 712,-264 756.551,-294.967 766.951,-364.435 769.33,-399.264"/>
<polygon fill="midnightblue" stroke="midnightblue" points="765.855,-399.836 769.867,-409.641 772.846,-399.474 765.855,-399.836"/>
</g>
<!-- Node63 -->
<g id="node7" class="node"><title>Node63</title>
<g id="a_node7"><a xlink:href="posix_8c.html#aeb68afd2fdf966f8d89cc7aaa9aa7c23" target="_top" xlink:title="Convert FafFs error result to POSIX errno. NOT POSIX.">
<polygon fill="white" stroke="black" points="613.148,-187 613.148,-207 690.852,-207 690.852,-187 613.148,-187"/>
<text text-anchor="middle" x="652" y="-193" font-family="Helvetica,sans-Serif" font-size="10.00">fatfs_to_errno</text>
</a>
</g>
</g>
<!-- Node61&#45;&gt;Node63 -->
<g id="edge6" class="edge"><title>Node61&#45;&gt;Node63</title>
<path fill="none" stroke="midnightblue" d="M364.502,-273.759C380.436,-244.54 427.184,-161.979 454,-148 512.197,-117.663 589.967,-157.389 628.04,-181.3"/>
<polygon fill="midnightblue" stroke="midnightblue" points="626.531,-184.493 636.828,-186.986 630.334,-178.615 626.531,-184.493"/>
</g>
<!-- Node64 -->
<g id="node8" class="node"><title>Node64</title>
<g id="a_node8"><a xlink:href="posix_8c.html#a96d98c05b05d85e1ae97953f04f5b386" target="_top" xlink:title="Allocate a POSIX FILE descriptor. NOT POSIX.">
<polygon fill="white" stroke="black" points="453.921,-313 453.921,-333 556.079,-333 556.079,-313 453.921,-313"/>
<text text-anchor="middle" x="505" y="-319" font-family="Helvetica,sans-Serif" font-size="10.00">new_file_descriptor</text>
</a>
</g>
</g>
<!-- Node61&#45;&gt;Node64 -->
<g id="edge7" class="edge"><title>Node61&#45;&gt;Node64</title>
<path fill="none" stroke="midnightblue" d="M377.364,-288.939C397.251,-294.288 429.762,-303.032 456.863,-310.322"/>
<polygon fill="midnightblue" stroke="midnightblue" points="456.003,-313.715 466.569,-312.932 457.821,-306.955 456.003,-313.715"/>
</g>
<!-- Node70 -->
<g id="node14" class="node"><title>Node70</title>
<g id="a_node14"><a xlink:href="posix_8c.html#ae0821388c321f66b16fbca4a625022de" target="_top" xlink:title="Convert POSIX fileno to POSIX FILE stream pointer. NOT POSIX.">
<polygon fill="white" stroke="black" points="607.035,-469 607.035,-489 696.965,-489 696.965,-469 607.035,-469"/>
<text text-anchor="middle" x="652" y="-475" font-family="Helvetica,sans-Serif" font-size="10.00">fileno_to_stream</text>
</a>
</g>
</g>
<!-- Node61&#45;&gt;Node70 -->
<g id="edge14" class="edge"><title>Node61&#45;&gt;Node70</title>
<path fill="none" stroke="midnightblue" d="M367.374,-294.202C379.149,-308.706 401.053,-336.273 418,-361 435.366,-386.338 429.676,-401.24 454,-420 465.943,-429.211 547.955,-451.969 602.329,-466.376"/>
<polygon fill="midnightblue" stroke="midnightblue" points="601.575,-469.797 612.137,-468.964 603.361,-463.029 601.575,-469.797"/>
</g>
<!-- Node71 -->
<g id="node15" class="node"><title>Node71</title>
<g id="a_node15"><a xlink:href="posix_8c.html#a9d5502ebc4eba38ea5ef6ca4ba71bc02" target="_top" xlink:title="Free POSIX fileno FILE descriptor. NOT POSIX.">
<polygon fill="white" stroke="black" points="454.478,-352 454.478,-372 555.522,-372 555.522,-352 454.478,-352"/>
<text text-anchor="middle" x="505" y="-358" font-family="Helvetica,sans-Serif" font-size="10.00">free_file_descriptor</text>
</a>
</g>
</g>
<!-- Node61&#45;&gt;Node71 -->
<g id="edge16" class="edge"><title>Node61&#45;&gt;Node71</title>
<path fill="none" stroke="midnightblue" d="M373.693,-294.042C391.993,-306.295 424.454,-327.203 454,-342 458.108,-344.057 462.481,-346.062 466.866,-347.958"/>
<polygon fill="midnightblue" stroke="midnightblue" points="465.81,-351.309 476.387,-351.914 468.496,-344.845 465.81,-351.309"/>
</g>
<!-- Node72 -->
<g id="node16" class="node"><title>Node72</title>
<g id="a_node16"><a xlink:href="posix_8c.html#a1eeda4d85cf3cae5cf1ee8c1e196a686" target="_top" xlink:title="Convert POSIX fileno to FatFS handle NOT POSIX.">
<polygon fill="white" stroke="black" points="465.867,-391 465.867,-411 544.133,-411 544.133,-391 465.867,-391"/>
<text text-anchor="middle" x="505" y="-397" font-family="Helvetica,sans-Serif" font-size="10.00">fileno_to_fatfs</text>
</a>
</g>
</g>
<!-- Node61&#45;&gt;Node72 -->
<g id="edge21" class="edge"><title>Node61&#45;&gt;Node72</title>
<path fill="none" stroke="midnightblue" d="M366.552,-294.146C381.376,-313.444 416.152,-355.759 454,-381 457.099,-383.067 460.445,-384.975 463.885,-386.723"/>
<polygon fill="midnightblue" stroke="midnightblue" points="462.562,-389.967 473.109,-390.978 465.495,-383.611 462.562,-389.967"/>
</g>
<!-- Node73 -->
<g id="node17" class="node"><title>Node73</title>
<g id="a_node17"><a xlink:href="posix_8c.html#a90d998e82aa4f903a1570c0c48aeae59" target="_top" xlink:title="Private FatFs function called by fputc() to put a byte from file stream NOT POSIX open() assigns stre...">
<polygon fill="white" stroke="black" points="475.32,-197 475.32,-217 534.68,-217 534.68,-197 475.32,-197"/>
<text text-anchor="middle" x="505" y="-203" font-family="Helvetica,sans-Serif" font-size="10.00">fatfs_putc</text>
</a>
</g>
</g>
<!-- Node61&#45;&gt;Node73 -->
<g id="edge25" class="edge"><title>Node61&#45;&gt;Node73</title>
<path fill="none" stroke="midnightblue" d="M377.104,-273.829C396.139,-263.197 427.014,-246.126 454,-232 460.47,-228.613 467.457,-225.057 474.097,-221.724"/>
<polygon fill="midnightblue" stroke="midnightblue" points="476.091,-224.641 483.478,-217.047 472.967,-218.377 476.091,-224.641"/>
</g>
<!-- Node74 -->
<g id="node18" class="node"><title>Node74</title>
<g id="a_node18"><a xlink:href="posix_8c.html#a479c82c9a415915568fb1e799bc545c9" target="_top" xlink:title="Formt SD card.">
<polygon fill="white" stroke="black" points="475.32,-158 475.32,-178 534.68,-178 534.68,-158 475.32,-158"/>
<text text-anchor="middle" x="505" y="-164" font-family="Helvetica,sans-Serif" font-size="10.00">fatfs_getc</text>
</a>
</g>
</g>
<!-- Node61&#45;&gt;Node74 -->
<g id="edge27" class="edge"><title>Node61&#45;&gt;Node74</title>
<path fill="none" stroke="midnightblue" d="M366.512,-273.794C381.269,-254.393 415.934,-211.911 454,-187 457.628,-184.626 461.595,-182.486 465.658,-180.573"/>
<polygon fill="midnightblue" stroke="midnightblue" points="467.36,-183.653 475.195,-176.521 464.623,-177.21 467.36,-183.653"/>
</g>
<!-- Node65 -->
<g id="node9" class="node"><title>Node65</title>
<g id="a_node9"><a xlink:href="posix_8c.html#aeac589354c9d47c7d9c7c49ba4b0d266" target="_top" xlink:title="Test POSIX fileno if it is a Serial Console/TTY.">
<polygon fill="white" stroke="black" points="632.33,-391 632.33,-411 671.67,-411 671.67,-391 632.33,-391"/>
<text text-anchor="middle" x="652" y="-397" font-family="Helvetica,sans-Serif" font-size="10.00">isatty</text>
</a>
</g>
</g>
<!-- Node64&#45;&gt;Node65 -->
<g id="edge8" class="edge"><title>Node64&#45;&gt;Node65</title>
<path fill="none" stroke="midnightblue" d="M535.224,-333.023C542.146,-335.692 549.425,-338.747 556,-342 581.722,-354.726 609.412,-372.426 628.222,-385.113"/>
<polygon fill="midnightblue" stroke="midnightblue" points="626.462,-388.15 636.695,-390.895 630.408,-382.367 626.462,-388.15"/>
</g>
<!-- Node66 -->
<g id="node10" class="node"><title>Node66</title>
<g id="a_node10"><a xlink:href="malloc_8c.html#a62b7798461bd461da64c5f9d35feddf7" target="_top" xlink:title=" ">
<polygon fill="white" stroke="black" points="631.217,-274 631.217,-294 672.783,-294 672.783,-274 631.217,-274"/>
<text text-anchor="middle" x="652" y="-280" font-family="Helvetica,sans-Serif" font-size="10.00">calloc</text>
</a>
</g>
</g>
<!-- Node64&#45;&gt;Node66 -->
<g id="edge10" class="edge"><title>Node64&#45;&gt;Node66</title>
<path fill="none" stroke="midnightblue" d="M543.341,-312.957C567.645,-306.42 598.905,-298.012 621.472,-291.942"/>
<polygon fill="midnightblue" stroke="midnightblue" points="622.425,-295.31 631.173,-289.333 620.607,-288.55 622.425,-295.31"/>
</g>
<!-- Node69 -->
<g id="node13" class="node"><title>Node69</title>
<g id="a_node13"><a xlink:href="malloc_8c.html#afbedc913aa4651b3c3b4b3aecd9b4711" target="_top" xlink:title=" ">
<polygon fill="white" stroke="black" points="635.384,-313 635.384,-333 668.616,-333 668.616,-313 635.384,-313"/>
<text text-anchor="middle" x="652" y="-319" font-family="Helvetica,sans-Serif" font-size="10.00">free</text>
</a>
</g>
</g>
<!-- Node64&#45;&gt;Node69 -->
<g id="edge13" class="edge"><title>Node64&#45;&gt;Node69</title>
<path fill="none" stroke="midnightblue" d="M556.307,-323C579.526,-323 606.106,-323 625.183,-323"/>
<polygon fill="midnightblue" stroke="midnightblue" points="625.203,-326.5 635.203,-323 625.203,-319.5 625.203,-326.5"/>
</g>
<!-- Node65&#45;&gt;Node62 -->
<g id="edge9" class="edge"><title>Node65&#45;&gt;Node62</title>
<path fill="none" stroke="midnightblue" d="M671.798,-404.053C690.45,-407.082 719.298,-411.766 740.909,-415.276"/>
<polygon fill="midnightblue" stroke="midnightblue" points="740.428,-418.744 750.86,-416.892 741.55,-411.834 740.428,-418.744"/>
</g>
<!-- Node67 -->
<g id="node11" class="node"><title>Node67</title>
<g id="a_node11"><a xlink:href="malloc_8c.html#a7ac38fce3243a7dcf448301ee9ffd392" target="_top" xlink:title=" ">
<polygon fill="white" stroke="black" points="748.552,-274 748.552,-294 793.448,-294 793.448,-274 748.552,-274"/>
<text text-anchor="middle" x="771" y="-280" font-family="Helvetica,sans-Serif" font-size="10.00">malloc</text>
</a>
</g>
</g>
<!-- Node66&#45;&gt;Node67 -->
<g id="edge11" class="edge"><title>Node66&#45;&gt;Node67</title>
<path fill="none" stroke="midnightblue" d="M672.847,-284C690.807,-284 717.563,-284 738.451,-284"/>
<polygon fill="midnightblue" stroke="midnightblue" points="738.466,-287.5 748.466,-284 738.466,-280.5 738.466,-287.5"/>
</g>
<!-- Node68 -->
<g id="node12" class="node"><title>Node68</title>
<g id="a_node12"><a xlink:href="malloc_8c.html#aa5c105052a59261e63119d5203374a41" target="_top" xlink:title=" ">
<polygon fill="white" stroke="black" points="830.209,-274 830.209,-294 901.791,-294 901.791,-274 830.209,-274"/>
<text text-anchor="middle" x="866" y="-280" font-family="Helvetica,sans-Serif" font-size="10.00">malloc_flags</text>
</a>
</g>
</g>
<!-- Node67&#45;&gt;Node68 -->
<g id="edge12" class="edge"><title>Node67&#45;&gt;Node68</title>
<path fill="none" stroke="midnightblue" d="M793.57,-284C801.445,-284 810.675,-284 819.835,-284"/>
<polygon fill="midnightblue" stroke="midnightblue" points="820.073,-287.5 830.073,-284 820.073,-280.5 820.073,-287.5"/>
</g>
<!-- Node70&#45;&gt;Node62 -->
<g id="edge15" class="edge"><title>Node70&#45;&gt;Node62</title>
<path fill="none" stroke="midnightblue" d="M678.885,-468.882C689.311,-464.587 701.363,-459.343 712,-454 723.18,-448.384 735.166,-441.51 745.323,-435.417"/>
<polygon fill="midnightblue" stroke="midnightblue" points="747.338,-438.287 754.061,-430.098 743.699,-432.308 747.338,-438.287"/>
</g>
<!-- Node71&#45;&gt;Node65 -->
<g id="edge17" class="edge"><title>Node71&#45;&gt;Node65</title>
<path fill="none" stroke="midnightblue" d="M543.341,-372.043C567.936,-378.659 599.654,-387.19 622.279,-393.275"/>
<polygon fill="midnightblue" stroke="midnightblue" points="621.41,-396.666 631.976,-395.883 623.229,-389.906 621.41,-396.666"/>
</g>
<!-- Node71&#45;&gt;Node62 -->
<g id="edge18" class="edge"><title>Node71&#45;&gt;Node62</title>
<path fill="none" stroke="midnightblue" d="M555.752,-359.788C598.418,-359.471 660.908,-362.813 712,-381 726.072,-386.009 740.021,-395.218 750.712,-403.43"/>
<polygon fill="midnightblue" stroke="midnightblue" points="748.538,-406.173 758.527,-409.702 752.919,-400.713 748.538,-406.173"/>
</g>
<!-- Node71&#45;&gt;Node70 -->
<g id="edge19" class="edge"><title>Node71&#45;&gt;Node70</title>
<path fill="none" stroke="midnightblue" d="M539.089,-372.081C544.963,-374.555 550.845,-377.516 556,-381 575.545,-394.207 575.657,-402.99 592,-420 605.536,-434.089 621.186,-449.709 632.965,-461.336"/>
<polygon fill="midnightblue" stroke="midnightblue" points="630.846,-464.161 640.428,-468.68 635.756,-459.171 630.846,-464.161"/>
</g>
<!-- Node71&#45;&gt;Node69 -->
<g id="edge20" class="edge"><title>Node71&#45;&gt;Node69</title>
<path fill="none" stroke="midnightblue" d="M543.341,-351.957C568.984,-345.059 602.371,-336.08 625.121,-329.961"/>
<polygon fill="midnightblue" stroke="midnightblue" points="626.309,-333.265 635.057,-327.288 624.491,-326.506 626.309,-333.265"/>
</g>
<!-- Node72&#45;&gt;Node65 -->
<g id="edge22" class="edge"><title>Node72&#45;&gt;Node65</title>
<path fill="none" stroke="midnightblue" d="M544.477,-401C568.847,-401 599.851,-401 622.118,-401"/>
<polygon fill="midnightblue" stroke="midnightblue" points="622.279,-404.5 632.279,-401 622.279,-397.5 622.279,-404.5"/>
</g>
<!-- Node72&#45;&gt;Node62 -->
<g id="edge23" class="edge"><title>Node72&#45;&gt;Node62</title>
<path fill="none" stroke="midnightblue" d="M542.958,-411.013C558.043,-414.614 575.736,-418.225 592,-420 644.201,-425.698 705.526,-423.832 740.865,-421.933"/>
<polygon fill="midnightblue" stroke="midnightblue" points="741.177,-425.42 750.959,-421.35 740.774,-418.432 741.177,-425.42"/>
</g>
<!-- Node72&#45;&gt;Node70 -->
<g id="edge24" class="edge"><title>Node72&#45;&gt;Node70</title>
<path fill="none" stroke="midnightblue" d="M527.35,-411.132C536.377,-415.663 546.89,-421.269 556,-427 572.929,-437.649 574.665,-444.025 592,-454 598.915,-457.979 606.587,-461.691 614.047,-464.973"/>
<polygon fill="midnightblue" stroke="midnightblue" points="612.739,-468.219 623.313,-468.888 615.464,-461.771 612.739,-468.219"/>
</g>
<!-- Node73&#45;&gt;Node63 -->
<g id="edge26" class="edge"><title>Node73&#45;&gt;Node63</title>
<path fill="none" stroke="midnightblue" d="M534.994,-205C554.417,-203.661 580.45,-201.866 602.933,-200.315"/>
<polygon fill="midnightblue" stroke="midnightblue" points="603.241,-203.802 612.976,-199.622 602.759,-196.819 603.241,-203.802"/>
</g>
<!-- Node74&#45;&gt;Node63 -->
<g id="edge28" class="edge"><title>Node74&#45;&gt;Node63</title>
<path fill="none" stroke="midnightblue" d="M534.994,-173.799C554.417,-177.683 580.45,-182.89 602.933,-187.387"/>
<polygon fill="midnightblue" stroke="midnightblue" points="602.484,-190.866 612.976,-189.395 603.857,-184.002 602.484,-190.866"/>
</g>
<!-- Node75&#45;&gt;Node70 -->
<g id="edge30" class="edge"><title>Node75&#45;&gt;Node70</title>
<path fill="none" stroke="midnightblue" d="M368.362,-391.245C384.194,-407.821 418.057,-440.162 454,-455 499.557,-473.806 555.712,-479.089 596.396,-480.09"/>
<polygon fill="midnightblue" stroke="midnightblue" points="596.595,-483.593 606.652,-480.26 596.711,-476.594 596.595,-483.593"/>
</g>
<!-- Node75&#45;&gt;Node62 -->
<g id="edge31" class="edge"><title>Node75&#45;&gt;Node62</title>
<path fill="none" stroke="midnightblue" d="M365.342,-391.296C378.779,-412.098 412.329,-458.944 454,-480 509.206,-507.894 530.277,-493.992 592,-498 645.221,-501.456 664.346,-521.949 712,-498 736.284,-485.796 752.969,-458.075 762.005,-439.193"/>
<polygon fill="midnightblue" stroke="midnightblue" points="765.225,-440.565 766.135,-430.009 758.841,-437.693 765.225,-440.565"/>
</g>
<!-- Node75&#45;&gt;Node72 -->
<g id="edge32" class="edge"><title>Node75&#45;&gt;Node72</title>
<path fill="none" stroke="midnightblue" d="M377.956,-383.615C397.628,-386.328 429.184,-390.68 455.799,-394.352"/>
<polygon fill="midnightblue" stroke="midnightblue" points="455.338,-397.821 465.722,-395.72 456.294,-390.887 455.338,-397.821"/>
</g>
<!-- Node75&#45;&gt;Node71 -->
<g id="edge33" class="edge"><title>Node75&#45;&gt;Node71</title>
<path fill="none" stroke="midnightblue" d="M377.956,-378.516C394.883,-376.298 420.608,-372.927 444.413,-369.808"/>
<polygon fill="midnightblue" stroke="midnightblue" points="445.006,-373.26 454.467,-368.491 444.097,-366.32 445.006,-373.26"/>
</g>
<!-- Node75&#45;&gt;Node63 -->
<g id="edge34" class="edge"><title>Node75&#45;&gt;Node63</title>
<path fill="none" stroke="midnightblue" d="M369.856,-370.894C386.955,-355.259 421.562,-324.745 454,-303 509.732,-265.641 579.957,-230.432 619.735,-211.484"/>
<polygon fill="midnightblue" stroke="midnightblue" points="621.384,-214.576 628.928,-207.137 618.392,-208.248 621.384,-214.576"/>
</g>
<!-- Node77 -->
<g id="node21" class="node"><title>Node77</title>
<g id="a_node21"><a xlink:href="classAP__HAL_1_1BetterStream.html#aa730be451d385d7ba03ee9677e6d91a2" target="_top" xlink:title=" ">
<polygon fill="white" stroke="black" points="298.589,-140 298.589,-172 417.411,-172 417.411,-140 298.589,-140"/>
<text text-anchor="start" x="306.589" y="-158" font-family="Helvetica,sans-Serif" font-size="10.00">AP_HAL::BetterStream</text>
<text text-anchor="middle" x="358" y="-146" font-family="Helvetica,sans-Serif" font-size="10.00">::vprintf</text>
</a>
</g>
</g>
<!-- Node76&#45;&gt;Node77 -->
<g id="edge36" class="edge"><title>Node76&#45;&gt;Node77</title>
<path fill="none" stroke="midnightblue" d="M261.66,-173.335C270.43,-171.74 279.536,-170.084 288.488,-168.457"/>
<polygon fill="midnightblue" stroke="midnightblue" points="289.29,-171.868 298.503,-166.636 288.038,-164.981 289.29,-171.868"/>
</g>
<!-- Node78 -->
<g id="node22" class="node"><title>Node78</title>
<g id="a_node22"><a xlink:href="print__vprintf_8cpp.html#a98e0d5bb436a207f576379beaa786040" target="_top" xlink:title=" ">
<polygon fill="white" stroke="black" points="470.877,-80 470.877,-100 539.123,-100 539.123,-80 470.877,-80"/>
<text text-anchor="middle" x="505" y="-86" font-family="Helvetica,sans-Serif" font-size="10.00">print_vprintf</text>
</a>
</g>
</g>
<!-- Node77&#45;&gt;Node78 -->
<g id="edge37" class="edge"><title>Node77&#45;&gt;Node78</title>
<path fill="none" stroke="midnightblue" d="M394.471,-139.855C418.387,-128.969 449.651,-114.738 472.653,-104.268"/>
<polygon fill="midnightblue" stroke="midnightblue" points="474.308,-107.361 481.959,-100.032 471.408,-100.99 474.308,-107.361"/>
</g>
<!-- Node79 -->
<g id="node23" class="node"><title>Node79</title>
<g id="a_node23"><a xlink:href="classAP__HAL_1_1BetterStream.html#a915cc01273d4b418c2fb2989fb31a508" target="_top" xlink:title=" ">
<polygon fill="white" stroke="black" points="592.589,-0 592.589,-32 711.411,-32 711.411,-0 592.589,-0"/>
<text text-anchor="start" x="600.589" y="-18" font-family="Helvetica,sans-Serif" font-size="10.00">AP_HAL::BetterStream</text>
<text text-anchor="middle" x="652" y="-6" font-family="Helvetica,sans-Serif" font-size="10.00">::write</text>
</a>
</g>
</g>
<!-- Node78&#45;&gt;Node79 -->
<g id="edge38" class="edge"><title>Node78&#45;&gt;Node79</title>
<path fill="none" stroke="midnightblue" d="M522.494,-79.8322C539.58,-69.4844 567.202,-53.2661 592,-41 595.284,-39.3754 598.7,-37.7551 602.16,-36.1647"/>
<polygon fill="midnightblue" stroke="midnightblue" points="603.663,-39.3265 611.357,-32.0428 600.8,-32.9387 603.663,-39.3265"/>
</g>
<!-- Node80 -->
<g id="node24" class="node"><title>Node80</title>
<g id="a_node24"><a xlink:href="ftoa__engine_8cpp.html#a1c28234da8f20b43c85890d4bb452947" target="_top" xlink:title=" ">
<polygon fill="white" stroke="black" points="617.865,-129 617.865,-149 686.135,-149 686.135,-129 617.865,-129"/>
<text text-anchor="middle" x="652" y="-135" font-family="Helvetica,sans-Serif" font-size="10.00">ftoa_engine</text>
</a>
</g>
</g>
<!-- Node78&#45;&gt;Node80 -->
<g id="edge39" class="edge"><title>Node78&#45;&gt;Node80</title>
<path fill="none" stroke="midnightblue" d="M535.693,-100.034C557.685,-107.466 587.864,-117.665 611.832,-125.764"/>
<polygon fill="midnightblue" stroke="midnightblue" points="610.753,-129.094 621.347,-128.979 612.994,-122.462 610.753,-129.094"/>
</g>
<!-- Node82 -->
<g id="node26" class="node"><title>Node82</title>
<g id="a_node26"><a xlink:href="utoa__invert_8cpp.html#a34926f552460b47c414ec4d83b32815c" target="_top" xlink:title=" ">
<polygon fill="white" stroke="black" points="617.04,-90 617.04,-110 686.96,-110 686.96,-90 617.04,-90"/>
<text text-anchor="middle" x="652" y="-96" font-family="Helvetica,sans-Serif" font-size="10.00">ulltoa_invert</text>
</a>
</g>
</g>
<!-- Node78&#45;&gt;Node82 -->
<g id="edge41" class="edge"><title>Node78&#45;&gt;Node82</title>
<path fill="none" stroke="midnightblue" d="M539.266,-92.2942C559.332,-93.6781 585.136,-95.4577 606.89,-96.9579"/>
<polygon fill="midnightblue" stroke="midnightblue" points="606.665,-100.451 616.882,-97.6471 607.147,-93.4672 606.665,-100.451"/>
</g>
<!-- Node83 -->
<g id="node27" class="node"><title>Node83</title>
<g id="a_node27"><a xlink:href="utoa__invert_8cpp.html#a5d99bba8e697c1e11da489d88fca8559" target="_top" xlink:title=" ">
<polygon fill="white" stroke="black" points="618.15,-51 618.15,-71 685.85,-71 685.85,-51 618.15,-51"/>
<text text-anchor="middle" x="652" y="-57" font-family="Helvetica,sans-Serif" font-size="10.00">ultoa_invert</text>
</a>
</g>
</g>
<!-- Node78&#45;&gt;Node83 -->
<g id="edge43" class="edge"><title>Node78&#45;&gt;Node83</title>
<path fill="none" stroke="midnightblue" d="M539.266,-83.3468C559.621,-79.2759 585.88,-74.024 607.827,-69.6347"/>
<polygon fill="midnightblue" stroke="midnightblue" points="608.769,-73.0155 617.889,-67.6222 607.397,-66.1514 608.769,-73.0155"/>
</g>
<!-- Node81 -->
<g id="node25" class="node"><title>Node81</title>
<g id="a_node25"><a xlink:href="lstrlib_8c.html#a9605f4d16ae762782f8be8b54aef0a22" target="_top" xlink:title=" ">
<polygon fill="white" stroke="black" points="753.828,-90 753.828,-110 788.172,-110 788.172,-90 753.828,-90"/>
<text text-anchor="middle" x="771" y="-96" font-family="Helvetica,sans-Serif" font-size="10.00">digit</text>
</a>
</g>
</g>
<!-- Node80&#45;&gt;Node81 -->
<g id="edge40" class="edge"><title>Node80&#45;&gt;Node81</title>
<path fill="none" stroke="midnightblue" d="M683.13,-128.957C702.009,-122.664 726.089,-114.637 744.106,-108.631"/>
<polygon fill="midnightblue" stroke="midnightblue" points="745.294,-111.925 753.674,-105.442 743.08,-105.284 745.294,-111.925"/>
</g>
<!-- Node82&#45;&gt;Node81 -->
<g id="edge42" class="edge"><title>Node82&#45;&gt;Node81</title>
<path fill="none" stroke="midnightblue" d="M687.156,-100C705.083,-100 726.722,-100 743.388,-100"/>
<polygon fill="midnightblue" stroke="midnightblue" points="743.533,-103.5 753.533,-100 743.533,-96.5001 743.533,-103.5"/>
</g>
<!-- Node83&#45;&gt;Node81 -->
<g id="edge44" class="edge"><title>Node83&#45;&gt;Node81</title>
<path fill="none" stroke="midnightblue" d="M684.577,-71.037C693.459,-73.8961 703.118,-77.039 712,-80 722.499,-83.5004 734.031,-87.4541 744.026,-90.9165"/>
<polygon fill="midnightblue" stroke="midnightblue" points="743.185,-94.3294 753.78,-94.3072 745.484,-87.7175 743.185,-94.3294"/>
</g>
</g>
</svg>
