<?xml version="1.0" encoding="UTF-8" standalone="no"?>
<!DOCTYPE svg PUBLIC "-//W3C//DTD SVG 1.1//EN"
 "http://www.w3.org/Graphics/SVG/1.1/DTD/svg11.dtd">
<!-- Generated by graphviz version 2.30.1 (20130221.2233)
 -->
<!-- Title: AP_OpticalFlow_PX4Flow::detect Pages: 1 -->
<svg width="342pt" height="40pt"
 viewBox="0.00 0.00 342.00 40.00" xmlns="http://www.w3.org/2000/svg" xmlns:xlink="http://www.w3.org/1999/xlink">
<g id="graph0" class="graph" transform="scale(1 1) rotate(0) translate(4 36)">
<title>AP_OpticalFlow_PX4Flow::detect</title>
<polygon fill="white" stroke="white" points="-4,5 -4,-36 339,-36 339,5 -4,5"/>
<!-- Node74 -->
<g id="node1" class="node"><title>Node74</title>
<g id="a_node1"><a xlink:title=" ">
<polygon fill="#bfbfbf" stroke="black" points="200.643,-0 200.643,-32 333.357,-32 333.357,-0 200.643,-0"/>
<text text-anchor="start" x="208.643" y="-18" font-family="Helvetica,sans-Serif" font-size="10.00">AP_OpticalFlow_PX4Flow</text>
<text text-anchor="middle" x="267" y="-6" font-family="Helvetica,sans-Serif" font-size="10.00">::detect</text>
</a>
</g>
</g>
<!-- Node75 -->
<g id="node2" class="node"><title>Node75</title>
<g id="a_node2"><a xlink:href="classOpticalFlow.html#aa4a49fae8d6a591644b494f84a02717f" target="_top" xlink:title=" ">
<polygon fill="white" stroke="black" points="76.7119,-6 76.7119,-26 163.288,-26 163.288,-6 76.7119,-6"/>
<text text-anchor="middle" x="120" y="-12" font-family="Helvetica,sans-Serif" font-size="10.00">OpticalFlow::init</text>
</a>
</g>
</g>
<!-- Node74&#45;&gt;Node75 -->
<g id="edge1" class="edge"><title>Node74&#45;&gt;Node75</title>
<path fill="none" stroke="midnightblue" d="M190.054,-16C180.991,-16 171.999,-16 163.647,-16"/>
<polygon fill="midnightblue" stroke="midnightblue" points="190.288,-19.5001 200.288,-16 190.288,-12.5001 190.288,-19.5001"/>
</g>
<!-- Node76 -->
<g id="node3" class="node"><title>Node76</title>
<g id="a_node3"><a xlink:href="AP__OpticalFlow__test_8cpp.html#a4fc01d736fe50cf5b977f755b675f11d" target="_top" xlink:title=" ">
<polygon fill="white" stroke="black" points="-0.231445,-6 -0.231445,-26 40.2314,-26 40.2314,-6 -0.231445,-6"/>
<text text-anchor="middle" x="20" y="-12" font-family="Helvetica,sans-Serif" font-size="10.00">setup</text>
</a>
</g>
</g>
<!-- Node75&#45;&gt;Node76 -->
<g id="edge2" class="edge"><title>Node75&#45;&gt;Node76</title>
<path fill="none" stroke="midnightblue" d="M66.4662,-16C57.1431,-16 47.9914,-16 40.3708,-16"/>
<polygon fill="midnightblue" stroke="midnightblue" points="66.5858,-19.5001 76.5857,-16 66.5857,-12.5001 66.5858,-19.5001"/>
</g>
</g>
</svg>
