<?xml version="1.0" encoding="UTF-8" standalone="no"?>
<!DOCTYPE svg PUBLIC "-//W3C//DTD SVG 1.1//EN"
 "http://www.w3.org/Graphics/SVG/1.1/DTD/svg11.dtd">
<!-- Generated by graphviz version 2.30.1 (20130221.2233)
 -->
<!-- Title: Linux::RCOutput_Bebop::play_note Pages: 1 -->
<svg width="440pt" height="40pt"
 viewBox="0.00 0.00 440.00 40.00" xmlns="http://www.w3.org/2000/svg" xmlns:xlink="http://www.w3.org/1999/xlink">
<g id="graph0" class="graph" transform="scale(1 1) rotate(0) translate(4 36)">
<title>Linux::RCOutput_Bebop::play_note</title>
<polygon fill="white" stroke="white" points="-4,5 -4,-36 437,-36 437,5 -4,5"/>
<!-- Node282 -->
<g id="node1" class="node"><title>Node282</title>
<g id="a_node1"><a xlink:title=" ">
<polygon fill="#bfbfbf" stroke="black" points="307.798,-0 307.798,-32 432.202,-32 432.202,-0 307.798,-0"/>
<text text-anchor="start" x="315.798" y="-18" font-family="Helvetica,sans-Serif" font-size="10.00">Linux::RCOutput_Bebop</text>
<text text-anchor="middle" x="370" y="-6" font-family="Helvetica,sans-Serif" font-size="10.00">::play_note</text>
</a>
</g>
</g>
<!-- Node283 -->
<g id="node2" class="node"><title>Node283</title>
<g id="a_node2"><a xlink:href="classLinux_1_1ToneAlarm__Disco.html#aa430d349547c2397ddecda34617d9b69" target="_top" xlink:title=" ">
<polygon fill="white" stroke="black" points="148.086,-0 148.086,-32 271.914,-32 271.914,-0 148.086,-0"/>
<text text-anchor="start" x="156.086" y="-18" font-family="Helvetica,sans-Serif" font-size="10.00">Linux::ToneAlarm_Disco</text>
<text text-anchor="middle" x="210" y="-6" font-family="Helvetica,sans-Serif" font-size="10.00">::set_buzzer_tone</text>
</a>
</g>
</g>
<!-- Node282&#45;&gt;Node283 -->
<g id="edge1" class="edge"><title>Node282&#45;&gt;Node283</title>
<path fill="none" stroke="midnightblue" d="M297.285,-16C288.876,-16 280.357,-16 272.112,-16"/>
<polygon fill="midnightblue" stroke="midnightblue" points="297.461,-19.5001 307.461,-16 297.461,-12.5001 297.461,-19.5001"/>
</g>
<!-- Node284 -->
<g id="node3" class="node"><title>Node284</title>
<g id="a_node3"><a xlink:href="classLinux_1_1Util.html#acb42995b3b2bc973c55f82960e6bdb1c" target="_top" xlink:title=" ">
<polygon fill="white" stroke="black" points="0.480469,-0 0.480469,-32 111.52,-32 111.52,-0 0.480469,-0"/>
<text text-anchor="start" x="8.48047" y="-18" font-family="Helvetica,sans-Serif" font-size="10.00">Linux::Util::toneAlarm</text>
<text text-anchor="middle" x="56" y="-6" font-family="Helvetica,sans-Serif" font-size="10.00">_set_buzzer_tone</text>
</a>
</g>
</g>
<!-- Node283&#45;&gt;Node284 -->
<g id="edge2" class="edge"><title>Node283&#45;&gt;Node284</title>
<path fill="none" stroke="midnightblue" d="M137.781,-16C128.974,-16 120.08,-16 111.577,-16"/>
<polygon fill="midnightblue" stroke="midnightblue" points="138.052,-19.5001 148.052,-16 138.052,-12.5001 138.052,-19.5001"/>
</g>
</g>
</svg>
