<?xml version="1.0" encoding="UTF-8" standalone="no"?>
<!DOCTYPE svg PUBLIC "-//W3C//DTD SVG 1.1//EN"
 "http://www.w3.org/Graphics/SVG/1.1/DTD/svg11.dtd">
<!-- Generated by graphviz version 2.30.1 (20130221.2233)
 -->
<!-- Title: AP_InertialSensor_LSM9DS0::_register_read_xm Pages: 1 -->
<!--zoomable 182 -->
<svg id="main" version="1.1" xmlns="http://www.w3.org/2000/svg" xmlns:xlink="http://www.w3.org/1999/xlink" xml:space="preserve" onload="init(evt)">
<style type="text/css"><![CDATA[
.edge:hover path { stroke: red; }
.edge:hover polygon { stroke: red; fill: red; }
]]></style>
<script type="text/javascript"><![CDATA[
var edges = document.getElementsByTagName('g');
if (edges && edges.length) {
  for (var i=0;i<edges.length;i++) {
    if (edges[i].id.substr(0,4)=='edge') {
      edges[i].setAttribute('class','edge');
    }
  }
}
]]></script>
        <defs>
                <circle id="rim" cx="0" cy="0" r="7"/>
                <circle id="rim2" cx="0" cy="0" r="3.5"/>
                <g id="zoomPlus">
                        <use xlink:href="#rim" fill="#404040">
                                <set attributeName="fill" to="#808080" begin="zoomplus.mouseover" end="zoomplus.mouseout"/>
                        </use>
                        <path d="M-4,0h8M0,-4v8" fill="none" stroke="white" stroke-width="1.5" pointer-events="none"/>
                </g>
                <g id="zoomMin">
                        <use xlink:href="#rim" fill="#404040">
                                <set attributeName="fill" to="#808080" begin="zoomminus.mouseover" end="zoomminus.mouseout"/>
                        </use>
                        <path d="M-4,0h8" fill="none" stroke="white" stroke-width="1.5" pointer-events="none"/>
                </g>
                <g id="dirArrow">
                        <path fill="none" stroke="white" stroke-width="1.5" d="M0,-3.0v7 M-2.5,-0.5L0,-3.0L2.5,-0.5"/>
                </g>
               <g id="resetDef">
                       <use xlink:href="#rim2" fill="#404040">
                               <set attributeName="fill" to="#808080" begin="reset.mouseover" end="reset.mouseout"/>
                       </use>
               </g>
        </defs>

<script type="text/javascript">
var viewWidth = 1762;
var viewHeight = 182;
var sectionId = 'dynsection-28';
</script>
<script xlink:href="svgpan.js"/>
<svg id="graph" class="graph">
<g id="viewport">
<title>AP_InertialSensor_LSM9DS0::_register_read_xm</title>
<polygon fill="white" stroke="white" points="-4,5 -4,-178 1759,-178 1759,5 -4,5"/>
<!-- Node463 -->
<g id="node1" class="node"><title>Node463</title>
<g id="a_node1"><a xlink:title=" ">
<polygon fill="#bfbfbf" stroke="black" points="1606.13,-51 1606.13,-83 1753.87,-83 1753.87,-51 1606.13,-51"/>
<text text-anchor="start" x="1614.13" y="-69" font-family="Helvetica,sans-Serif" font-size="10.00">AP_InertialSensor_LSM9DS0</text>
<text text-anchor="middle" x="1680" y="-57" font-family="Helvetica,sans-Serif" font-size="10.00">::_register_read_xm</text>
</a>
</g>
</g>
<!-- Node464 -->
<g id="node2" class="node"><title>Node464</title>
<g id="a_node2"><a xlink:href="classAP__InertialSensor__LSM9DS0.html#aec37c46f246a7d601507f1d533e4f7b5" target="_top" xlink:title=" ">
<polygon fill="white" stroke="black" points="1422.13,-102 1422.13,-134 1569.87,-134 1569.87,-102 1422.13,-102"/>
<text text-anchor="start" x="1430.13" y="-120" font-family="Helvetica,sans-Serif" font-size="10.00">AP_InertialSensor_LSM9DS0</text>
<text text-anchor="middle" x="1496" y="-108" font-family="Helvetica,sans-Serif" font-size="10.00">::_accel_data_ready</text>
</a>
</g>
</g>
<!-- Node463&#45;&gt;Node464 -->
<g id="edge1" class="edge"><title>Node463&#45;&gt;Node464</title>
<path fill="none" stroke="midnightblue" d="M1611.69,-85.8617C1592.8,-91.1544 1572.45,-96.8571 1554.21,-101.968"/>
<polygon fill="midnightblue" stroke="midnightblue" points="1612.73,-89.2052 1621.41,-83.1367 1610.84,-82.4649 1612.73,-89.2052"/>
</g>
<!-- Node480 -->
<g id="node18" class="node"><title>Node480</title>
<g id="a_node18"><a xlink:href="classAP__InertialSensor__LSM9DS0.html#a187f65cbf8ce4549baf7c52349ac721f" target="_top" xlink:title=" ">
<polygon fill="white" stroke="black" points="1422.13,-51 1422.13,-83 1569.87,-83 1569.87,-51 1422.13,-51"/>
<text text-anchor="start" x="1430.13" y="-69" font-family="Helvetica,sans-Serif" font-size="10.00">AP_InertialSensor_LSM9DS0</text>
<text text-anchor="middle" x="1496" y="-57" font-family="Helvetica,sans-Serif" font-size="10.00">::_accel_disable_i2c</text>
</a>
</g>
</g>
<!-- Node463&#45;&gt;Node480 -->
<g id="edge18" class="edge"><title>Node463&#45;&gt;Node480</title>
<path fill="none" stroke="midnightblue" d="M1595.93,-67C1587.27,-67 1578.52,-67 1569.99,-67"/>
<polygon fill="midnightblue" stroke="midnightblue" points="1596.02,-70.5001 1606.02,-67 1596.02,-63.5001 1596.02,-70.5001"/>
</g>
<!-- Node465 -->
<g id="node3" class="node"><title>Node465</title>
<g id="a_node3"><a xlink:href="classAP__InertialSensor__LSM9DS0.html#acb102d8d40344dc71c8332ddbb45cb73" target="_top" xlink:title=" ">
<polygon fill="white" stroke="black" points="1054.13,-51 1054.13,-83 1201.87,-83 1201.87,-51 1054.13,-51"/>
<text text-anchor="start" x="1062.13" y="-69" font-family="Helvetica,sans-Serif" font-size="10.00">AP_InertialSensor_LSM9DS0</text>
<text text-anchor="middle" x="1128" y="-57" font-family="Helvetica,sans-Serif" font-size="10.00">::_hardware_init</text>
</a>
</g>
</g>
<!-- Node463&#45;&gt;Node465 -->
<g id="edge21" class="edge"><title>Node463&#45;&gt;Node465</title>
<path fill="none" stroke="midnightblue" d="M1612.82,-48.6041C1598.79,-45.4412 1583.99,-42.6458 1570,-41 1423.45,-23.7639 1384.55,-23.7639 1238,-41 1220.61,-43.0453 1201.98,-46.8659 1185.12,-50.9609"/>
<polygon fill="midnightblue" stroke="midnightblue" points="1612.34,-52.0869 1622.88,-50.9609 1613.94,-45.2715 1612.34,-52.0869"/>
</g>
<!-- Node464&#45;&gt;Node465 -->
<g id="edge2" class="edge"><title>Node464&#45;&gt;Node465</title>
<path fill="none" stroke="midnightblue" d="M1411.91,-112.235C1361.41,-108.077 1295.75,-101.506 1238,-92 1223.25,-89.5719 1207.51,-86.3427 1192.71,-83.0141"/>
<polygon fill="midnightblue" stroke="midnightblue" points="1411.87,-115.743 1422.12,-113.06 1412.44,-108.766 1411.87,-115.743"/>
</g>
<!-- Node478 -->
<g id="node16" class="node"><title>Node478</title>
<g id="a_node16"><a xlink:href="classAP__InertialSensor__LSM9DS0.html#a517db16a43fdfa7fa31615d07b225474" target="_top" xlink:title=" ">
<polygon fill="white" stroke="black" points="1238.13,-141 1238.13,-173 1385.87,-173 1385.87,-141 1238.13,-141"/>
<text text-anchor="start" x="1246.13" y="-159" font-family="Helvetica,sans-Serif" font-size="10.00">AP_InertialSensor_LSM9DS0</text>
<text text-anchor="middle" x="1312" y="-147" font-family="Helvetica,sans-Serif" font-size="10.00">::_poll_data</text>
</a>
</g>
</g>
<!-- Node464&#45;&gt;Node478 -->
<g id="edge16" class="edge"><title>Node464&#45;&gt;Node478</title>
<path fill="none" stroke="midnightblue" d="M1412.21,-135.741C1403.46,-137.615 1394.62,-139.511 1385.99,-141.358"/>
<polygon fill="midnightblue" stroke="midnightblue" points="1412.98,-139.156 1422.02,-133.638 1411.51,-132.311 1412.98,-139.156"/>
</g>
<!-- Node466 -->
<g id="node4" class="node"><title>Node466</title>
<g id="a_node4"><a xlink:href="classAP__InertialSensor__LSM9DS0.html#a62227996a40da07a9733ace45b6b0c71" target="_top" xlink:title=" ">
<polygon fill="white" stroke="black" points="870.131,-51 870.131,-83 1017.87,-83 1017.87,-51 870.131,-51"/>
<text text-anchor="start" x="878.131" y="-69" font-family="Helvetica,sans-Serif" font-size="10.00">AP_InertialSensor_LSM9DS0</text>
<text text-anchor="middle" x="944" y="-57" font-family="Helvetica,sans-Serif" font-size="10.00">::_init_sensor</text>
</a>
</g>
</g>
<!-- Node465&#45;&gt;Node466 -->
<g id="edge3" class="edge"><title>Node465&#45;&gt;Node466</title>
<path fill="none" stroke="midnightblue" d="M1043.93,-67C1035.27,-67 1026.52,-67 1017.99,-67"/>
<polygon fill="midnightblue" stroke="midnightblue" points="1044.02,-70.5001 1054.02,-67 1044.02,-63.5001 1044.02,-70.5001"/>
</g>
<!-- Node467 -->
<g id="node5" class="node"><title>Node467</title>
<g id="a_node5"><a xlink:href="classAP__InertialSensor__LSM9DS0.html#a47ae2f91f700f8d46b7f6de80ac77eab" target="_top" xlink:title=" ">
<polygon fill="white" stroke="black" points="686.131,-51 686.131,-83 833.869,-83 833.869,-51 686.131,-51"/>
<text text-anchor="start" x="694.131" y="-69" font-family="Helvetica,sans-Serif" font-size="10.00">AP_InertialSensor_LSM9DS0</text>
<text text-anchor="middle" x="760" y="-57" font-family="Helvetica,sans-Serif" font-size="10.00">::probe</text>
</a>
</g>
</g>
<!-- Node466&#45;&gt;Node467 -->
<g id="edge4" class="edge"><title>Node466&#45;&gt;Node467</title>
<path fill="none" stroke="midnightblue" d="M859.927,-67C851.274,-67 842.524,-67 833.994,-67"/>
<polygon fill="midnightblue" stroke="midnightblue" points="860.022,-70.5001 870.022,-67 860.022,-63.5001 860.022,-70.5001"/>
</g>
<!-- Node468 -->
<g id="node6" class="node"><title>Node468</title>
<g id="a_node6"><a xlink:href="classAP__InertialSensor.html#a8967734e82a4f472c6d8ddd8db656804" target="_top" xlink:title=" ">
<polygon fill="white" stroke="black" points="547.921,-51 547.921,-83 650.079,-83 650.079,-51 547.921,-51"/>
<text text-anchor="start" x="555.921" y="-69" font-family="Helvetica,sans-Serif" font-size="10.00">AP_InertialSensor::</text>
<text text-anchor="middle" x="599" y="-57" font-family="Helvetica,sans-Serif" font-size="10.00">detect_backends</text>
</a>
</g>
</g>
<!-- Node467&#45;&gt;Node468 -->
<g id="edge5" class="edge"><title>Node467&#45;&gt;Node468</title>
<path fill="none" stroke="midnightblue" d="M675.798,-67C667.096,-67 658.453,-67 650.288,-67"/>
<polygon fill="midnightblue" stroke="midnightblue" points="676.015,-70.5001 686.015,-67 676.015,-63.5001 676.015,-70.5001"/>
</g>
<!-- Node469 -->
<g id="node7" class="node"><title>Node469</title>
<g id="a_node7"><a xlink:href="classAP__InertialSensor.html#a9949b7e301b0d7a5f3e59385d2e8d97a" target="_top" xlink:title=" ">
<polygon fill="white" stroke="black" points="398.921,-102 398.921,-134 501.079,-134 501.079,-102 398.921,-102"/>
<text text-anchor="start" x="406.921" y="-120" font-family="Helvetica,sans-Serif" font-size="10.00">AP_InertialSensor::</text>
<text text-anchor="middle" x="450" y="-108" font-family="Helvetica,sans-Serif" font-size="10.00">_start_backends</text>
</a>
</g>
</g>
<!-- Node468&#45;&gt;Node469 -->
<g id="edge6" class="edge"><title>Node468&#45;&gt;Node469</title>
<path fill="none" stroke="midnightblue" d="M541.95,-86.446C527.174,-91.5721 511.401,-97.0446 497.209,-101.968"/>
<polygon fill="midnightblue" stroke="midnightblue" points="543.188,-89.7212 551.488,-83.1367 540.893,-83.1079 543.188,-89.7212"/>
</g>
<!-- Node474 -->
<g id="node12" class="node"><title>Node474</title>
<g id="a_node12"><a xlink:href="classAP__InertialSensor.html#ad649def5689aecaebca16cf910d77fd8" target="_top" xlink:title=" ">
<polygon fill="white" stroke="black" points="398.921,-51 398.921,-83 501.079,-83 501.079,-51 398.921,-51"/>
<text text-anchor="start" x="406.921" y="-69" font-family="Helvetica,sans-Serif" font-size="10.00">AP_InertialSensor::</text>
<text text-anchor="middle" x="450" y="-57" font-family="Helvetica,sans-Serif" font-size="10.00">get_auxiliary_bus</text>
</a>
</g>
</g>
<!-- Node468&#45;&gt;Node474 -->
<g id="edge11" class="edge"><title>Node468&#45;&gt;Node474</title>
<path fill="none" stroke="midnightblue" d="M537.82,-67C525.739,-67 513.161,-67 501.451,-67"/>
<polygon fill="midnightblue" stroke="midnightblue" points="537.822,-70.5001 547.822,-67 537.822,-63.5001 537.822,-70.5001"/>
</g>
<!-- Node475 -->
<g id="node13" class="node"><title>Node475</title>
<g id="a_node13"><a xlink:href="classAP__Compass__AK8963.html#a0e8c9e0c82de409e0225fc81ed4ed6db" target="_top" xlink:title=" ">
<polygon fill="white" stroke="black" points="388.079,-0 388.079,-32 511.921,-32 511.921,-0 388.079,-0"/>
<text text-anchor="start" x="396.079" y="-18" font-family="Helvetica,sans-Serif" font-size="10.00">AP_Compass_AK8963::</text>
<text text-anchor="middle" x="450" y="-6" font-family="Helvetica,sans-Serif" font-size="10.00">probe_mpu9250</text>
</a>
</g>
</g>
<!-- Node468&#45;&gt;Node475 -->
<g id="edge12" class="edge"><title>Node468&#45;&gt;Node475</title>
<path fill="none" stroke="midnightblue" d="M541.95,-47.554C527.174,-42.4279 511.401,-36.9554 497.209,-32.0317"/>
<polygon fill="midnightblue" stroke="midnightblue" points="540.893,-50.8921 551.488,-50.8633 543.188,-44.2788 540.893,-50.8921"/>
</g>
<!-- Node470 -->
<g id="node8" class="node"><title>Node470</title>
<g id="a_node8"><a xlink:href="classAP__InertialSensor.html#a741065b13832b5e4c90bbae17519c0ad" target="_top" xlink:title=" ">
<polygon fill="white" stroke="black" points="221.53,-105 221.53,-125 336.47,-125 336.47,-105 221.53,-105"/>
<text text-anchor="middle" x="279" y="-111" font-family="Helvetica,sans-Serif" font-size="10.00">AP_InertialSensor::init</text>
</a>
</g>
</g>
<!-- Node469&#45;&gt;Node470 -->
<g id="edge7" class="edge"><title>Node469&#45;&gt;Node470</title>
<path fill="none" stroke="midnightblue" d="M388.434,-116.925C371.53,-116.625 353.233,-116.3 336.569,-116.004"/>
<polygon fill="midnightblue" stroke="midnightblue" points="388.691,-120.43 398.752,-117.108 388.816,-113.431 388.691,-120.43"/>
</g>
<!-- Node471 -->
<g id="node9" class="node"><title>Node471</title>
<g id="a_node9"><a xlink:href="AHRS__Test_8cpp.html#a4fc01d736fe50cf5b977f755b675f11d" target="_top" xlink:title=" ">
<polygon fill="white" stroke="black" points="-0.231445,-44 -0.231445,-64 40.2314,-64 40.2314,-44 -0.231445,-44"/>
<text text-anchor="middle" x="20" y="-50" font-family="Helvetica,sans-Serif" font-size="10.00">setup</text>
</a>
</g>
</g>
<!-- Node470&#45;&gt;Node471 -->
<g id="edge8" class="edge"><title>Node470&#45;&gt;Node471</title>
<path fill="none" stroke="midnightblue" d="M225.888,-102.631C168.573,-89.027 79.4298,-67.8685 40.404,-58.6056"/>
<polygon fill="midnightblue" stroke="midnightblue" points="225.311,-106.091 235.849,-104.995 226.928,-99.2806 225.311,-106.091"/>
</g>
<!-- Node472 -->
<g id="node10" class="node"><title>Node472</title>
<g id="a_node10"><a xlink:href="classSchedTest.html#ae9afb73f76391e34d47286a516fe5292" target="_top" xlink:title=" ">
<polygon fill="white" stroke="black" points="76.6431,-105 76.6431,-125 169.357,-125 169.357,-105 76.6431,-105"/>
<text text-anchor="middle" x="123" y="-111" font-family="Helvetica,sans-Serif" font-size="10.00">SchedTest::setup</text>
</a>
</g>
</g>
<!-- Node470&#45;&gt;Node472 -->
<g id="edge9" class="edge"><title>Node470&#45;&gt;Node472</title>
<path fill="none" stroke="midnightblue" d="M211.02,-115C197.04,-115 182.611,-115 169.621,-115"/>
<polygon fill="midnightblue" stroke="midnightblue" points="211.094,-118.5 221.094,-115 211.094,-111.5 211.094,-118.5"/>
</g>
<!-- Node473 -->
<g id="node11" class="node"><title>Node473</title>
<g id="a_node11"><a xlink:href="Scheduler__test_8cpp.html#a7dfd9b79bc5a37d7df40207afbc5431f" target="_top" xlink:title=" ">
<polygon fill="white" stroke="black" points="-0.231445,-105 -0.231445,-125 40.2314,-125 40.2314,-105 -0.231445,-105"/>
<text text-anchor="middle" x="20" y="-111" font-family="Helvetica,sans-Serif" font-size="10.00">setup</text>
</a>
</g>
</g>
<!-- Node472&#45;&gt;Node473 -->
<g id="edge10" class="edge"><title>Node472&#45;&gt;Node473</title>
<path fill="none" stroke="midnightblue" d="M66.3961,-115C57.0922,-115 48.0218,-115 40.4654,-115"/>
<polygon fill="midnightblue" stroke="midnightblue" points="66.5229,-118.5 76.5229,-115 66.5228,-111.5 66.5229,-118.5"/>
</g>
<!-- Node476 -->
<g id="node14" class="node"><title>Node476</title>
<g id="a_node14"><a xlink:href="classCompass.html#a1c48170d8c8966b22fb150b1634443ec" target="_top" xlink:title=" ">
<polygon fill="white" stroke="black" points="206.518,-18 206.518,-38 351.482,-38 351.482,-18 206.518,-18"/>
<text text-anchor="middle" x="279" y="-24" font-family="Helvetica,sans-Serif" font-size="10.00">Compass::_detect_backends</text>
</a>
</g>
</g>
<!-- Node475&#45;&gt;Node476 -->
<g id="edge13" class="edge"><title>Node475&#45;&gt;Node476</title>
<path fill="none" stroke="midnightblue" d="M377.88,-21.0499C369.175,-21.668 360.276,-22.3 351.564,-22.9185"/>
<polygon fill="midnightblue" stroke="midnightblue" points="378.26,-24.5319 387.987,-20.3323 377.764,-17.5494 378.26,-24.5319"/>
</g>
<!-- Node477 -->
<g id="node15" class="node"><title>Node477</title>
<g id="a_node15"><a xlink:href="classCompass.html#a79db6bfd3fe309c6258d783f126326c6" target="_top" xlink:title=" ">
<polygon fill="white" stroke="black" points="84.7119,-21 84.7119,-41 161.288,-41 161.288,-21 84.7119,-21"/>
<text text-anchor="middle" x="123" y="-27" font-family="Helvetica,sans-Serif" font-size="10.00">Compass::init</text>
</a>
</g>
</g>
<!-- Node476&#45;&gt;Node477 -->
<g id="edge14" class="edge"><title>Node476&#45;&gt;Node477</title>
<path fill="none" stroke="midnightblue" d="M196.188,-29.5937C184.032,-29.8305 172.037,-30.0642 161.42,-30.271"/>
<polygon fill="midnightblue" stroke="midnightblue" points="196.48,-33.0888 206.41,-29.3946 196.344,-26.0901 196.48,-33.0888"/>
</g>
<!-- Node477&#45;&gt;Node471 -->
<g id="edge15" class="edge"><title>Node477&#45;&gt;Node471</title>
<path fill="none" stroke="midnightblue" d="M74.6155,-41.7905C62.4954,-44.5506 50.1351,-47.3653 40.3413,-49.5956"/>
<polygon fill="midnightblue" stroke="midnightblue" points="75.7051,-45.1321 84.6783,-39.499 74.1507,-38.3068 75.7051,-45.1321"/>
</g>
<!-- Node479 -->
<g id="node17" class="node"><title>Node479</title>
<g id="a_node17"><a xlink:href="classAP__InertialSensor__LSM9DS0.html#a1fa1189f7920f61d52d526f779be3d8f" target="_top" xlink:title=" ">
<polygon fill="white" stroke="black" points="1054.13,-141 1054.13,-173 1201.87,-173 1201.87,-141 1054.13,-141"/>
<text text-anchor="start" x="1062.13" y="-159" font-family="Helvetica,sans-Serif" font-size="10.00">AP_InertialSensor_LSM9DS0</text>
<text text-anchor="middle" x="1128" y="-147" font-family="Helvetica,sans-Serif" font-size="10.00">::start</text>
</a>
</g>
</g>
<!-- Node478&#45;&gt;Node479 -->
<g id="edge17" class="edge"><title>Node478&#45;&gt;Node479</title>
<path fill="none" stroke="midnightblue" d="M1227.93,-157C1219.27,-157 1210.52,-157 1201.99,-157"/>
<polygon fill="midnightblue" stroke="midnightblue" points="1228.02,-160.5 1238.02,-157 1228.02,-153.5 1228.02,-160.5"/>
</g>
<!-- Node481 -->
<g id="node19" class="node"><title>Node481</title>
<g id="a_node19"><a xlink:href="classAP__InertialSensor__LSM9DS0.html#aaf475e872a0f8700eeaae195ea69f097" target="_top" xlink:title=" ">
<polygon fill="white" stroke="black" points="1238.13,-51 1238.13,-83 1385.87,-83 1385.87,-51 1238.13,-51"/>
<text text-anchor="start" x="1246.13" y="-69" font-family="Helvetica,sans-Serif" font-size="10.00">AP_InertialSensor_LSM9DS0</text>
<text text-anchor="middle" x="1312" y="-57" font-family="Helvetica,sans-Serif" font-size="10.00">::_accel_init</text>
</a>
</g>
</g>
<!-- Node480&#45;&gt;Node481 -->
<g id="edge19" class="edge"><title>Node480&#45;&gt;Node481</title>
<path fill="none" stroke="midnightblue" d="M1411.93,-67C1403.27,-67 1394.52,-67 1385.99,-67"/>
<polygon fill="midnightblue" stroke="midnightblue" points="1412.02,-70.5001 1422.02,-67 1412.02,-63.5001 1412.02,-70.5001"/>
</g>
<!-- Node481&#45;&gt;Node465 -->
<g id="edge20" class="edge"><title>Node481&#45;&gt;Node465</title>
<path fill="none" stroke="midnightblue" d="M1227.93,-67C1219.27,-67 1210.52,-67 1201.99,-67"/>
<polygon fill="midnightblue" stroke="midnightblue" points="1228.02,-70.5001 1238.02,-67 1228.02,-63.5001 1228.02,-70.5001"/>
</g>
</g>
</svg>
        <g id="navigator" transform="translate(0 0)" fill="#404254">
                <rect fill="#f2f5e9" fill-opacity="0.5" stroke="#606060" stroke-width=".5" x="0" y="0" width="60" height="60"/>
                <use id="zoomplus" xlink:href="#zoomPlus" x="17" y="9" onmousedown="handleZoom(evt,'in')"/>
                <use id="zoomminus" xlink:href="#zoomMin" x="42" y="9" onmousedown="handleZoom(evt,'out')"/>
                <use id="reset" xlink:href="#resetDef" x="30" y="36" onmousedown="handleReset()"/>
                <g id="arrowUp" xlink:href="#dirArrow" transform="translate(30 24)" onmousedown="handlePan(0,-1)">
                  <use xlink:href="#rim" fill="#404040">
                        <set attributeName="fill" to="#808080" begin="arrowUp.mouseover" end="arrowUp.mouseout"/>
                  </use>
                  <path fill="none" stroke="white" stroke-width="1.5" d="M0,-3.0v7 M-2.5,-0.5L0,-3.0L2.5,-0.5"/>
                </g>
                <g id="arrowRight" xlink:href="#dirArrow" transform="rotate(90) translate(36 -43)" onmousedown="handlePan(1,0)">
                  <use xlink:href="#rim" fill="#404040">
                        <set attributeName="fill" to="#808080" begin="arrowRight.mouseover" end="arrowRight.mouseout"/>
                  </use>
                  <path fill="none" stroke="white" stroke-width="1.5" d="M0,-3.0v7 M-2.5,-0.5L0,-3.0L2.5,-0.5"/>
                </g>
                <g id="arrowDown" xlink:href="#dirArrow" transform="rotate(180) translate(-30 -48)" onmousedown="handlePan(0,1)">
                  <use xlink:href="#rim" fill="#404040">
                        <set attributeName="fill" to="#808080" begin="arrowDown.mouseover" end="arrowDown.mouseout"/>
                  </use>
                  <path fill="none" stroke="white" stroke-width="1.5" d="M0,-3.0v7 M-2.5,-0.5L0,-3.0L2.5,-0.5"/>
                </g>
                <g id="arrowLeft" xlink:href="#dirArrow" transform="rotate(270) translate(-36 17)" onmousedown="handlePan(-1,0)">
                  <use xlink:href="#rim" fill="#404040">
                        <set attributeName="fill" to="#808080" begin="arrowLeft.mouseover" end="arrowLeft.mouseout"/>
                  </use>
                  <path fill="none" stroke="white" stroke-width="1.5" d="M0,-3.0v7 M-2.5,-0.5L0,-3.0L2.5,-0.5"/>
                </g>
        </g>
        <svg viewBox="0 0 15 15" width="100%" height="30px" preserveAspectRatio="xMaxYMin meet">
         <g id="arrow_out" transform="scale(0.3 0.3)">
          <a xlink:href="classAP__InertialSensor__LSM9DS0_ab9f65816db245bc851eee9ef4548295e_icgraph_org.svg" target="_base">
           <rect id="button" ry="5" rx="5" y="6" x="6" height="38" width="38"
                fill="#f2f5e9" fill-opacity="0.5" stroke="#606060" stroke-width="1.0"/>
           <path id="arrow"
             d="M 11.500037,31.436501 C 11.940474,20.09759 22.043105,11.32322 32.158766,21.979434 L 37.068811,17.246167 C 37.068811,17.246167 37.088388,32 37.088388,32 L 22.160133,31.978069 C 22.160133,31.978069 26.997745,27.140456 26.997745,27.140456 C 18.528582,18.264221 13.291696,25.230495 11.500037,31.436501 z"
             style="fill:#404040;"/>
          </a>
         </g>
        </svg>
</svg>
