<?xml version="1.0" encoding="UTF-8" standalone="no"?>
<!DOCTYPE svg PUBLIC "-//W3C//DTD SVG 1.1//EN"
 "http://www.w3.org/Graphics/SVG/1.1/DTD/svg11.dtd">
<!-- Generated by graphviz version 2.30.1 (20130221.2233)
 -->
<!-- Title: AP_Compass_HMC5843 Pages: 1 -->
<!--zoomable 682 -->
<svg id="main" version="1.1" xmlns="http://www.w3.org/2000/svg" xmlns:xlink="http://www.w3.org/1999/xlink" xml:space="preserve" onload="init(evt)">
<style type="text/css"><![CDATA[
.edge:hover path { stroke: red; }
.edge:hover polygon { stroke: red; fill: red; }
]]></style>
<script type="text/javascript"><![CDATA[
var edges = document.getElementsByTagName('g');
if (edges && edges.length) {
  for (var i=0;i<edges.length;i++) {
    if (edges[i].id.substr(0,4)=='edge') {
      edges[i].setAttribute('class','edge');
    }
  }
}
]]></script>
        <defs>
                <circle id="rim" cx="0" cy="0" r="7"/>
                <circle id="rim2" cx="0" cy="0" r="3.5"/>
                <g id="zoomPlus">
                        <use xlink:href="#rim" fill="#404040">
                                <set attributeName="fill" to="#808080" begin="zoomplus.mouseover" end="zoomplus.mouseout"/>
                        </use>
                        <path d="M-4,0h8M0,-4v8" fill="none" stroke="white" stroke-width="1.5" pointer-events="none"/>
                </g>
                <g id="zoomMin">
                        <use xlink:href="#rim" fill="#404040">
                                <set attributeName="fill" to="#808080" begin="zoomminus.mouseover" end="zoomminus.mouseout"/>
                        </use>
                        <path d="M-4,0h8" fill="none" stroke="white" stroke-width="1.5" pointer-events="none"/>
                </g>
                <g id="dirArrow">
                        <path fill="none" stroke="white" stroke-width="1.5" d="M0,-3.0v7 M-2.5,-0.5L0,-3.0L2.5,-0.5"/>
                </g>
               <g id="resetDef">
                       <use xlink:href="#rim2" fill="#404040">
                               <set attributeName="fill" to="#808080" begin="reset.mouseover" end="reset.mouseout"/>
                       </use>
               </g>
        </defs>

<script type="text/javascript">
var viewWidth = 1054;
var viewHeight = 682;
var sectionId = 'dynsection-1';
</script>
<script xlink:href="svgpan.js"/>
<svg id="graph" class="graph">
<g id="viewport">
<title>AP_Compass_HMC5843</title>
<polygon fill="white" stroke="white" points="-4,5 -4,-678 1051,-678 1051,5 -4,5"/>
<!-- Node2 -->
<g id="node1" class="node"><title>Node2</title>
<g id="a_node1"><a xlink:title=" ">
<polygon fill="#bfbfbf" stroke="black" points="722.141,-512 722.141,-532 849.859,-532 849.859,-512 722.141,-512"/>
<text text-anchor="middle" x="786" y="-518" font-family="Helvetica,sans-Serif" font-size="10.00">AP_Compass_HMC5843</text>
</a>
</g>
</g>
<!-- Node3 -->
<g id="node2" class="node"><title>Node3</title>
<g id="a_node2"><a xlink:href="classAP__Compass__Backend.html" target="_top" xlink:title=" ">
<polygon fill="white" stroke="black" points="438.192,-312 438.192,-332 559.808,-332 559.808,-312 438.192,-312"/>
<text text-anchor="middle" x="499" y="-318" font-family="Helvetica,sans-Serif" font-size="10.00">AP_Compass_Backend</text>
</a>
</g>
</g>
<!-- Node3&#45;&gt;Node2 -->
<g id="edge1" class="edge"><title>Node3&#45;&gt;Node2</title>
<path fill="none" stroke="midnightblue" d="M523.69,-337.614C561.976,-362.965 639.661,-414.894 704,-461 728.326,-478.432 756.063,-499.612 771.954,-511.875"/>
<polygon fill="midnightblue" stroke="midnightblue" points="525.541,-334.642 515.269,-332.046 521.68,-340.481 525.541,-334.642"/>
</g>
<!-- Node4 -->
<g id="node3" class="node"><title>Node4</title>
<g id="a_node3"><a xlink:href="classCompass.html" target="_top" xlink:title=" ">
<polygon fill="white" stroke="black" points="756.882,-256 756.882,-276 815.118,-276 815.118,-256 756.882,-256"/>
<text text-anchor="middle" x="786" y="-262" font-family="Helvetica,sans-Serif" font-size="10.00">Compass</text>
</a>
</g>
</g>
<!-- Node3&#45;&gt;Node4 -->
<g id="edge23" class="edge"><title>Node3&#45;&gt;Node4</title>
<path fill="none" stroke="#9a32cd" stroke-dasharray="5,2" d="M570.301,-326.512C610.251,-327.121 660.772,-324.558 704,-312 729.935,-304.466 756.503,-287.186 771.841,-276.082"/>
<polygon fill="#9a32cd" stroke="#9a32cd" points="570.195,-323.009 560.12,-326.286 570.039,-330.008 570.195,-323.009"/>
<text text-anchor="middle" x="643" y="-329" font-family="Helvetica,sans-Serif" font-size="10.00"> _backends</text>
</g>
<!-- Node4&#45;&gt;Node3 -->
<g id="edge2" class="edge"><title>Node4&#45;&gt;Node3</title>
<path fill="none" stroke="#9a32cd" stroke-dasharray="5,2" d="M746.497,-271.322C705.51,-277.249 638.857,-287.641 582,-300 566.3,-303.412 549.104,-307.907 534.532,-311.944"/>
<polygon fill="#9a32cd" stroke="#9a32cd" points="747.19,-274.758 756.594,-269.877 746.199,-267.829 747.19,-274.758"/>
<text text-anchor="middle" x="643" y="-302" font-family="Helvetica,sans-Serif" font-size="10.00"> _compass</text>
</g>
<!-- Node5 -->
<g id="node4" class="node"><title>Node5</title>
<g id="a_node4"><a xlink:href="classCompassLearn.html" target="_top" xlink:title=" ">
<polygon fill="white" stroke="black" points="951.094,-397 951.094,-417 1034.91,-417 1034.91,-397 951.094,-397"/>
<text text-anchor="middle" x="993" y="-403" font-family="Helvetica,sans-Serif" font-size="10.00">CompassLearn</text>
</a>
</g>
</g>
<!-- Node4&#45;&gt;Node5 -->
<g id="edge9" class="edge"><title>Node4&#45;&gt;Node5</title>
<path fill="none" stroke="#9a32cd" stroke-dasharray="5,2" d="M810.066,-281.865C852.592,-311.115 942.216,-372.758 977.39,-396.952"/>
<polygon fill="#9a32cd" stroke="#9a32cd" points="811.966,-278.924 801.743,-276.14 807.999,-284.691 811.966,-278.924"/>
<text text-anchor="middle" x="895" y="-360" font-family="Helvetica,sans-Serif" font-size="10.00"> compass</text>
</g>
<!-- Node11 -->
<g id="node10" class="node"><title>Node11</title>
<g id="a_node10"><a xlink:href="classCompass__PerMotor.html" target="_top" xlink:title=" ">
<polygon fill="white" stroke="black" points="940.54,-140 940.54,-160 1045.46,-160 1045.46,-140 940.54,-140"/>
<text text-anchor="middle" x="993" y="-146" font-family="Helvetica,sans-Serif" font-size="10.00">Compass_PerMotor</text>
</a>
</g>
</g>
<!-- Node4&#45;&gt;Node11 -->
<g id="edge17" class="edge"><title>Node4&#45;&gt;Node11</title>
<path fill="none" stroke="#9a32cd" stroke-dasharray="5,2" d="M825.018,-256.775C853.168,-248.888 891.724,-235.806 922,-217 947.436,-201.2 971.342,-174.98 983.549,-160.469"/>
<polygon fill="#9a32cd" stroke="#9a32cd" points="823.89,-253.454 815.152,-259.446 825.719,-260.211 823.89,-253.454"/>
<text text-anchor="middle" x="895" y="-245" font-family="Helvetica,sans-Serif" font-size="10.00"> compass</text>
</g>
<!-- Node4&#45;&gt;Node4 -->
<g id="edge27" class="edge"><title>Node4&#45;&gt;Node4</title>
<path fill="none" stroke="#9a32cd" stroke-dasharray="5,2" d="M766.164,-285.922C767.82,-290.573 774.431,-294 786,-294 804.984,-294 810.62,-284.771 802.908,-276.048"/>
<polygon fill="#9a32cd" stroke="#9a32cd" points="769.605,-286.63 769.092,-276.048 762.894,-284.64 769.605,-286.63"/>
<text text-anchor="middle" x="786" y="-296" font-family="Helvetica,sans-Serif" font-size="10.00"> _singleton</text>
</g>
<!-- Node5&#45;&gt;Node4 -->
<g id="edge3" class="edge"><title>Node5&#45;&gt;Node4</title>
<path fill="none" stroke="#9a32cd" stroke-dasharray="5,2" d="M983.307,-387.528C972.238,-364.916 951.01,-328.039 922,-307 889.877,-283.704 844.349,-273.473 815.245,-269.101"/>
<polygon fill="#9a32cd" stroke="#9a32cd" points="980.246,-389.245 987.669,-396.805 986.581,-386.266 980.246,-389.245"/>
<text text-anchor="middle" x="895" y="-309" font-family="Helvetica,sans-Serif" font-size="10.00"> learn</text>
</g>
<!-- Node6 -->
<g id="node5" class="node"><title>Node6</title>
<g id="a_node5"><a xlink:href="classMatrix3.html" target="_top" xlink:title=" ">
<polygon fill="white" stroke="black" points="330.54,-464 330.54,-484 415.46,-484 415.46,-464 330.54,-464"/>
<text text-anchor="middle" x="373" y="-470" font-family="Helvetica,sans-Serif" font-size="10.00">Matrix3&lt; float &gt;</text>
</a>
</g>
</g>
<!-- Node6&#45;&gt;Node5 -->
<g id="edge4" class="edge"><title>Node6&#45;&gt;Node5</title>
<path fill="none" stroke="#9a32cd" stroke-dasharray="5,2" d="M425.902,-470.282C464.113,-467.452 517.319,-463.319 564,-459 723.324,-444.258 763.83,-445.16 922,-421 931.434,-419.559 941.525,-417.718 951.025,-415.849"/>
<polygon fill="#9a32cd" stroke="#9a32cd" points="425.256,-466.82 415.54,-471.044 425.77,-473.801 425.256,-466.82"/>
<text text-anchor="middle" x="643" y="-460" font-family="Helvetica,sans-Serif" font-size="10.00"> mat</text>
</g>
<!-- Node7 -->
<g id="node6" class="node"><title>Node7</title>
<g id="a_node6"><a xlink:href="classVector3.html" target="_top" xlink:title=" ">
<polygon fill="white" stroke="black" points="10.9731,-374 10.9731,-394 97.0269,-394 97.0269,-374 10.9731,-374"/>
<text text-anchor="middle" x="54" y="-380" font-family="Helvetica,sans-Serif" font-size="10.00">Vector3&lt; float &gt;</text>
</a>
</g>
</g>
<!-- Node7&#45;&gt;Node6 -->
<g id="edge5" class="edge"><title>Node7&#45;&gt;Node6</title>
<path fill="none" stroke="#9a32cd" stroke-dasharray="5,2" d="M80.3083,-399.308C93.535,-406.755 110.219,-415.305 126,-421 195.45,-446.061 280.413,-461.131 330.14,-468.48"/>
<polygon fill="#9a32cd" stroke="#9a32cd" points="81.761,-396.106 71.3506,-394.137 78.2614,-402.168 81.761,-396.106"/>
<text text-anchor="middle" x="155" y="-465" font-family="Helvetica,sans-Serif" font-size="10.00"> a</text>
<text text-anchor="middle" x="155" y="-453" font-family="Helvetica,sans-Serif" font-size="10.00">b</text>
<text text-anchor="middle" x="155" y="-441" font-family="Helvetica,sans-Serif" font-size="10.00">c</text>
</g>
<!-- Node7&#45;&gt;Node5 -->
<g id="edge6" class="edge"><title>Node7&#45;&gt;Node5</title>
<path fill="none" stroke="#9a32cd" stroke-dasharray="5,2" d="M107.094,-393.258C147.562,-399.648 205.164,-407 256,-407 256,-407 256,-407 787,-407 843.766,-407 909.375,-407 950.772,-407"/>
<polygon fill="#9a32cd" stroke="#9a32cd" points="107.62,-389.797 97.1895,-391.659 106.504,-396.708 107.62,-389.797"/>
<text text-anchor="middle" x="499" y="-445" font-family="Helvetica,sans-Serif" font-size="10.00"> last_field</text>
<text text-anchor="middle" x="499" y="-433" font-family="Helvetica,sans-Serif" font-size="10.00">best_offsets</text>
<text text-anchor="middle" x="499" y="-421" font-family="Helvetica,sans-Serif" font-size="10.00">mag_ef</text>
<text text-anchor="middle" x="499" y="-409" font-family="Helvetica,sans-Serif" font-size="10.00">predicted_offsets</text>
</g>
<!-- Node8 -->
<g id="node7" class="node"><title>Node8</title>
<g id="a_node7"><a xlink:href="structCompassLearn_1_1sample.html" target="_top" xlink:title=" ">
<polygon fill="white" stroke="black" points="582.197,-587 582.197,-607 703.803,-607 703.803,-587 582.197,-587"/>
<text text-anchor="middle" x="643" y="-593" font-family="Helvetica,sans-Serif" font-size="10.00">CompassLearn::sample</text>
</a>
</g>
</g>
<!-- Node7&#45;&gt;Node8 -->
<g id="edge8" class="edge"><title>Node7&#45;&gt;Node8</title>
<path fill="none" stroke="#9a32cd" stroke-dasharray="5,2" d="M55.6618,-404.336C58.1929,-444.668 70.1533,-534.388 126,-575 275.748,-683.898 519.656,-631.428 608.381,-607.065"/>
<polygon fill="#9a32cd" stroke="#9a32cd" points="59.1476,-403.957 55.162,-394.141 52.156,-404.3 59.1476,-403.957"/>
<text text-anchor="middle" x="257" y="-664" font-family="Helvetica,sans-Serif" font-size="10.00"> offsets</text>
<text text-anchor="middle" x="257" y="-652" font-family="Helvetica,sans-Serif" font-size="10.00">attitude</text>
<text text-anchor="middle" x="257" y="-640" font-family="Helvetica,sans-Serif" font-size="10.00">field</text>
</g>
<!-- Node7&#45;&gt;Node4 -->
<g id="edge13" class="edge"><title>Node7&#45;&gt;Node4</title>
<path fill="none" stroke="#9a32cd" stroke-dasharray="5,2" d="M107.052,-381.186C258.706,-372.925 690.361,-348.954 704,-343 737.608,-328.329 765.742,-293.351 778.166,-276.047"/>
<polygon fill="#9a32cd" stroke="#9a32cd" points="106.846,-377.692 97.0506,-381.73 107.226,-384.681 106.846,-377.692"/>
<text text-anchor="middle" x="373" y="-383" font-family="Helvetica,sans-Serif" font-size="10.00"> field</text>
<text text-anchor="middle" x="373" y="-371" font-family="Helvetica,sans-Serif" font-size="10.00">Bearth</text>
</g>
<!-- Node7&#45;&gt;Node11 -->
<g id="edge16" class="edge"><title>Node7&#45;&gt;Node11</title>
<path fill="none" stroke="#9a32cd" stroke-dasharray="5,2" d="M61.5371,-364.119C75.388,-322.527 107.9,-227.806 126,-199 170.83,-127.654 171.738,-61 256,-61 256,-61 256,-61 787,-61 865.375,-61 947.702,-116.413 978.946,-139.791"/>
<polygon fill="#9a32cd" stroke="#9a32cd" points="58.1875,-363.1 58.3661,-373.694 64.8325,-365.301 58.1875,-363.1"/>
<text text-anchor="middle" x="499" y="-75" font-family="Helvetica,sans-Serif" font-size="10.00"> field_sum</text>
<text text-anchor="middle" x="499" y="-63" font-family="Helvetica,sans-Serif" font-size="10.00">base_field</text>
</g>
<!-- Node13 -->
<g id="node12" class="node"><title>Node13</title>
<g id="a_node12"><a xlink:href="classCompassCalibrator_1_1param__t.html" target="_top" xlink:title=" ">
<polygon fill="white" stroke="black" points="203.429,-219 203.429,-251 310.571,-251 310.571,-219 203.429,-219"/>
<text text-anchor="start" x="211.429" y="-237" font-family="Helvetica,sans-Serif" font-size="10.00">CompassCalibrator::</text>
<text text-anchor="middle" x="257" y="-225" font-family="Helvetica,sans-Serif" font-size="10.00">param_t</text>
</a>
</g>
</g>
<!-- Node7&#45;&gt;Node13 -->
<g id="edge20" class="edge"><title>Node7&#45;&gt;Node13</title>
<path fill="none" stroke="#9a32cd" stroke-dasharray="5,2" d="M59.4473,-364.128C67.2844,-334.161 86.5975,-278.041 126,-251 148.312,-235.688 177.971,-231.154 203.325,-230.687"/>
<polygon fill="#9a32cd" stroke="#9a32cd" points="56.0375,-363.338 57.0633,-373.883 62.8374,-364.999 56.0375,-363.338"/>
<text text-anchor="middle" x="155" y="-277" font-family="Helvetica,sans-Serif" font-size="10.00"> offdiag</text>
<text text-anchor="middle" x="155" y="-265" font-family="Helvetica,sans-Serif" font-size="10.00">offset</text>
<text text-anchor="middle" x="155" y="-253" font-family="Helvetica,sans-Serif" font-size="10.00">diag</text>
</g>
<!-- Node16 -->
<g id="node15" class="node"><title>Node16</title>
<g id="a_node15"><a xlink:href="structCompass_1_1mag__state.html" target="_top" xlink:title=" ">
<polygon fill="white" stroke="black" points="201.756,-271 201.756,-291 312.244,-291 312.244,-271 201.756,-271"/>
<text text-anchor="middle" x="257" y="-277" font-family="Helvetica,sans-Serif" font-size="10.00">Compass::mag_state</text>
</a>
</g>
</g>
<!-- Node7&#45;&gt;Node16 -->
<g id="edge25" class="edge"><title>Node7&#45;&gt;Node16</title>
<path fill="none" stroke="#9a32cd" stroke-dasharray="5,2" d="M68.0146,-365.513C80.8369,-348.712 101.956,-324.545 126,-311 149.006,-298.039 177.302,-290.673 201.614,-286.488"/>
<polygon fill="#9a32cd" stroke="#9a32cd" points="64.8941,-363.847 61.7789,-373.974 70.5291,-368 64.8941,-363.847"/>
<text text-anchor="middle" x="155" y="-337" font-family="Helvetica,sans-Serif" font-size="10.00"> accum</text>
<text text-anchor="middle" x="155" y="-325" font-family="Helvetica,sans-Serif" font-size="10.00">motor_offset</text>
<text text-anchor="middle" x="155" y="-313" font-family="Helvetica,sans-Serif" font-size="10.00">field</text>
</g>
<!-- Node7&#45;&gt;Node2 -->
<g id="edge29" class="edge"><title>Node7&#45;&gt;Node2</title>
<path fill="none" stroke="#9a32cd" stroke-dasharray="5,2" d="M63.9893,-403.314C75.2621,-425.28 96.7215,-460.488 126,-479 292.177,-584.069 367.404,-543.106 564,-541 626.233,-540.333 642.128,-544.722 704,-538 716.255,-536.668 729.418,-534.426 741.495,-532.035"/>
<polygon fill="#9a32cd" stroke="#9a32cd" points="67.0905,-401.689 59.5353,-394.261 60.8095,-404.779 67.0905,-401.689"/>
<text text-anchor="middle" x="373" y="-553" font-family="Helvetica,sans-Serif" font-size="10.00"> _scaling</text>
</g>
<!-- Node8&#45;&gt;Node5 -->
<g id="edge7" class="edge"><title>Node8&#45;&gt;Node5</title>
<path fill="none" stroke="#9a32cd" stroke-dasharray="5,2" d="M713.826,-586.961C775.083,-574.943 863.303,-549.44 922,-497 949.9,-472.075 974.758,-434.898 985.859,-417.145"/>
<polygon fill="#9a32cd" stroke="#9a32cd" points="713.032,-583.549 703.856,-588.845 714.332,-590.427 713.032,-583.549"/>
<text text-anchor="middle" x="786" y="-587" font-family="Helvetica,sans-Serif" font-size="10.00"> new_sample</text>
</g>
<!-- Node9 -->
<g id="node8" class="node"><title>Node9</title>
<g id="a_node8"><a xlink:href="classMatrix3.html" target="_top" xlink:title=" ">
<polygon fill="white" stroke="black" points="463.112,-185 463.112,-205 534.888,-205 534.888,-185 463.112,-185"/>
<text text-anchor="middle" x="499" y="-191" font-family="Helvetica,sans-Serif" font-size="10.00">Matrix3&lt; T &gt;</text>
</a>
</g>
</g>
<!-- Node9&#45;&gt;Node4 -->
<g id="edge10" class="edge"><title>Node9&#45;&gt;Node4</title>
<path fill="none" stroke="#9a32cd" stroke-dasharray="5,2" d="M545.159,-193.925C587.333,-194.241 651.484,-198.141 704,-216 730.598,-225.045 757.59,-244.126 772.723,-255.925"/>
<polygon fill="#9a32cd" stroke="#9a32cd" points="544.934,-190.425 534.93,-193.915 544.927,-197.425 544.934,-190.425"/>
<text text-anchor="middle" x="643" y="-218" font-family="Helvetica,sans-Serif" font-size="10.00"> _custom_rotation</text>
</g>
<!-- Node10 -->
<g id="node9" class="node"><title>Node10</title>
<g id="a_node9"><a xlink:href="structAP__Param_1_1GroupInfo.html" target="_top" xlink:title=" ">
<polygon fill="white" stroke="black" points="441.808,-104 441.808,-124 556.192,-124 556.192,-104 441.808,-104"/>
<text text-anchor="middle" x="499" y="-110" font-family="Helvetica,sans-Serif" font-size="10.00">AP_Param::GroupInfo</text>
</a>
</g>
</g>
<!-- Node10&#45;&gt;Node4 -->
<g id="edge11" class="edge"><title>Node10&#45;&gt;Node4</title>
<path fill="none" stroke="#9a32cd" stroke-dasharray="5,2" d="M548.728,-126.746C600.365,-140.78 677.975,-163.534 704,-180 736.932,-200.836 765.599,-238.116 778.191,-255.954"/>
<polygon fill="#9a32cd" stroke="#9a32cd" points="549.337,-123.285 538.77,-124.06 547.514,-130.044 549.337,-123.285"/>
<text text-anchor="middle" x="643" y="-182" font-family="Helvetica,sans-Serif" font-size="10.00"> var_info</text>
</g>
<!-- Node10&#45;&gt;Node10 -->
<g id="edge12" class="edge"><title>Node10&#45;&gt;Node10</title>
<path fill="none" stroke="#9a32cd" stroke-dasharray="5,2" d="M475.721,-133.562C477.398,-138.395 485.157,-142 499,-142 521.148,-142 527.724,-132.771 518.726,-124.048"/>
<polygon fill="#9a32cd" stroke="#9a32cd" points="479.055,-134.64 479.274,-124.048 472.497,-132.191 479.055,-134.64"/>
<text text-anchor="middle" x="499" y="-156" font-family="Helvetica,sans-Serif" font-size="10.00"> group_info_ptr</text>
<text text-anchor="middle" x="499" y="-144" font-family="Helvetica,sans-Serif" font-size="10.00">group_info</text>
</g>
<!-- Node10&#45;&gt;Node11 -->
<g id="edge15" class="edge"><title>Node10&#45;&gt;Node11</title>
<path fill="none" stroke="#9a32cd" stroke-dasharray="5,2" d="M566.649,-118.877C665.917,-126.14 850.526,-139.648 940.303,-146.217"/>
<polygon fill="#9a32cd" stroke="#9a32cd" points="566.667,-115.369 556.439,-118.13 566.157,-122.35 566.667,-115.369"/>
<text text-anchor="middle" x="786" y="-142" font-family="Helvetica,sans-Serif" font-size="10.00"> var_info</text>
</g>
<!-- Node11&#45;&gt;Node4 -->
<g id="edge14" class="edge"><title>Node11&#45;&gt;Node4</title>
<path fill="none" stroke="#9a32cd" stroke-dasharray="5,2" d="M954.954,-163.847C929.723,-173.893 895.959,-188.563 868,-205 841.746,-220.435 813.985,-242.866 798.743,-255.789"/>
<polygon fill="#9a32cd" stroke="#9a32cd" points="956.485,-167.006 964.517,-160.097 953.929,-160.489 956.485,-167.006"/>
<text text-anchor="middle" x="895" y="-207" font-family="Helvetica,sans-Serif" font-size="10.00"> _per_motor</text>
</g>
<!-- Node12 -->
<g id="node11" class="node"><title>Node12</title>
<g id="a_node11"><a xlink:href="classCompassCalibrator.html" target="_top" xlink:title=" ">
<polygon fill="white" stroke="black" points="448.207,-224 448.207,-244 549.793,-244 549.793,-224 448.207,-224"/>
<text text-anchor="middle" x="499" y="-230" font-family="Helvetica,sans-Serif" font-size="10.00">CompassCalibrator</text>
</a>
</g>
</g>
<!-- Node12&#45;&gt;Node4 -->
<g id="edge18" class="edge"><title>Node12&#45;&gt;Node4</title>
<path fill="none" stroke="#9a32cd" stroke-dasharray="5,2" d="M559.926,-231.366C600.809,-230.641 656.032,-231.766 704,-240 723.214,-243.298 744.149,-250.108 759.922,-255.931"/>
<polygon fill="#9a32cd" stroke="#9a32cd" points="559.774,-227.869 549.854,-231.587 559.928,-234.867 559.774,-227.869"/>
<text text-anchor="middle" x="643" y="-242" font-family="Helvetica,sans-Serif" font-size="10.00"> _calibrator</text>
</g>
<!-- Node13&#45;&gt;Node12 -->
<g id="edge19" class="edge"><title>Node13&#45;&gt;Node12</title>
<path fill="none" stroke="#9a32cd" stroke-dasharray="5,2" d="M320.761,-234.738C360.415,-234.573 410.959,-234.363 447.916,-234.209"/>
<polygon fill="#9a32cd" stroke="#9a32cd" points="320.654,-231.239 310.669,-234.781 320.684,-238.239 320.654,-231.239"/>
<text text-anchor="middle" x="373" y="-237" font-family="Helvetica,sans-Serif" font-size="10.00"> _params</text>
</g>
<!-- Node14 -->
<g id="node13" class="node"><title>Node14</title>
<g id="a_node13"><a xlink:href="classCompassCalibrator_1_1CompassSample.html" target="_top" xlink:title=" ">
<polygon fill="white" stroke="black" points="203.429,-0 203.429,-32 310.571,-32 310.571,-0 203.429,-0"/>
<text text-anchor="start" x="211.429" y="-18" font-family="Helvetica,sans-Serif" font-size="10.00">CompassCalibrator::</text>
<text text-anchor="middle" x="257" y="-6" font-family="Helvetica,sans-Serif" font-size="10.00">CompassSample</text>
</a>
</g>
</g>
<!-- Node14&#45;&gt;Node12 -->
<g id="edge21" class="edge"><title>Node14&#45;&gt;Node12</title>
<path fill="none" stroke="#9a32cd" stroke-dasharray="5,2" d="M273.403,-40.7414C300.675,-82.5409 361.475,-167.153 434,-214 440.258,-218.042 447.387,-221.314 454.561,-223.947"/>
<polygon fill="#9a32cd" stroke="#9a32cd" points="276.303,-38.7806 267.949,-32.2636 270.416,-42.5674 276.303,-38.7806"/>
<text text-anchor="middle" x="373" y="-200" font-family="Helvetica,sans-Serif" font-size="10.00"> _sample_buffer</text>
</g>
<!-- Node15 -->
<g id="node14" class="node"><title>Node15</title>
<g id="a_node14"><a xlink:href="classCompassCalibrator_1_1AttitudeSample.html" target="_top" xlink:title=" ">
<polygon fill="white" stroke="black" points="0.428711,-0 0.428711,-32 107.571,-32 107.571,-0 0.428711,-0"/>
<text text-anchor="start" x="8.42871" y="-18" font-family="Helvetica,sans-Serif" font-size="10.00">CompassCalibrator::</text>
<text text-anchor="middle" x="54" y="-6" font-family="Helvetica,sans-Serif" font-size="10.00">AttitudeSample</text>
</a>
</g>
</g>
<!-- Node15&#45;&gt;Node14 -->
<g id="edge22" class="edge"><title>Node15&#45;&gt;Node14</title>
<path fill="none" stroke="#9a32cd" stroke-dasharray="5,2" d="M118.064,-16C145.423,-16 177.1,-16 203.194,-16"/>
<polygon fill="#9a32cd" stroke="#9a32cd" points="117.81,-12.5001 107.81,-16 117.81,-19.5001 117.81,-12.5001"/>
<text text-anchor="middle" x="155" y="-18" font-family="Helvetica,sans-Serif" font-size="10.00"> att</text>
</g>
<!-- Node16&#45;&gt;Node4 -->
<g id="edge24" class="edge"><title>Node16&#45;&gt;Node4</title>
<path fill="none" stroke="#9a32cd" stroke-dasharray="5,2" d="M322.515,-279.164C437.846,-275.881 674.94,-269.133 756.614,-266.808"/>
<polygon fill="#9a32cd" stroke="#9a32cd" points="322.31,-275.668 312.413,-279.451 322.509,-282.665 322.31,-275.668"/>
<text text-anchor="middle" x="499" y="-278" font-family="Helvetica,sans-Serif" font-size="10.00"> _state</text>
</g>
<!-- Node17 -->
<g id="node16" class="node"><title>Node17</title>
<g id="a_node16"><a xlink:href="classVector3.html" target="_top" xlink:title=" ">
<polygon fill="white" stroke="black" points="5.41162,-206 5.41162,-226 102.588,-226 102.588,-206 5.41162,-206"/>
<text text-anchor="middle" x="54" y="-212" font-family="Helvetica,sans-Serif" font-size="10.00">Vector3&lt; int16_t &gt;</text>
</a>
</g>
</g>
<!-- Node17&#45;&gt;Node16 -->
<g id="edge26" class="edge"><title>Node17&#45;&gt;Node16</title>
<path fill="none" stroke="#9a32cd" stroke-dasharray="5,2" d="M102.734,-204.367C128.83,-200.785 160.523,-201.245 184,-217 201.203,-228.545 187.164,-245.539 202,-260 206.682,-264.564 212.468,-268.164 218.495,-270.996"/>
<polygon fill="#9a32cd" stroke="#9a32cd" points="101.989,-200.942 92.6695,-205.981 103.098,-207.853 101.989,-200.942"/>
<text text-anchor="middle" x="155" y="-219" font-family="Helvetica,sans-Serif" font-size="10.00"> mag_history</text>
</g>
<!-- Node18 -->
<g id="node17" class="node"><title>Node18</title>
<g id="a_node17"><a xlink:href="classAP__HMC5843__BusDriver.html" target="_top" xlink:title=" ">
<polygon fill="white" stroke="black" points="434.311,-512 434.311,-532 563.689,-532 563.689,-512 434.311,-512"/>
<text text-anchor="middle" x="499" y="-518" font-family="Helvetica,sans-Serif" font-size="10.00">AP_HMC5843_BusDriver</text>
</a>
</g>
</g>
<!-- Node18&#45;&gt;Node2 -->
<g id="edge28" class="edge"><title>Node18&#45;&gt;Node2</title>
<path fill="none" stroke="#9a32cd" stroke-dasharray="5,2" d="M574.13,-522C619.943,-522 678.111,-522 721.745,-522"/>
<polygon fill="#9a32cd" stroke="#9a32cd" points="573.96,-518.5 563.96,-522 573.96,-525.5 573.96,-518.5"/>
<text text-anchor="middle" x="643" y="-524" font-family="Helvetica,sans-Serif" font-size="10.00"> _bus</text>
</g>
</g>
</svg>
        <g id="navigator" transform="translate(0 0)" fill="#404254">
                <rect fill="#f2f5e9" fill-opacity="0.5" stroke="#606060" stroke-width=".5" x="0" y="0" width="60" height="60"/>
                <use id="zoomplus" xlink:href="#zoomPlus" x="17" y="9" onmousedown="handleZoom(evt,'in')"/>
                <use id="zoomminus" xlink:href="#zoomMin" x="42" y="9" onmousedown="handleZoom(evt,'out')"/>
                <use id="reset" xlink:href="#resetDef" x="30" y="36" onmousedown="handleReset()"/>
                <g id="arrowUp" xlink:href="#dirArrow" transform="translate(30 24)" onmousedown="handlePan(0,-1)">
                  <use xlink:href="#rim" fill="#404040">
                        <set attributeName="fill" to="#808080" begin="arrowUp.mouseover" end="arrowUp.mouseout"/>
                  </use>
                  <path fill="none" stroke="white" stroke-width="1.5" d="M0,-3.0v7 M-2.5,-0.5L0,-3.0L2.5,-0.5"/>
                </g>
                <g id="arrowRight" xlink:href="#dirArrow" transform="rotate(90) translate(36 -43)" onmousedown="handlePan(1,0)">
                  <use xlink:href="#rim" fill="#404040">
                        <set attributeName="fill" to="#808080" begin="arrowRight.mouseover" end="arrowRight.mouseout"/>
                  </use>
                  <path fill="none" stroke="white" stroke-width="1.5" d="M0,-3.0v7 M-2.5,-0.5L0,-3.0L2.5,-0.5"/>
                </g>
                <g id="arrowDown" xlink:href="#dirArrow" transform="rotate(180) translate(-30 -48)" onmousedown="handlePan(0,1)">
                  <use xlink:href="#rim" fill="#404040">
                        <set attributeName="fill" to="#808080" begin="arrowDown.mouseover" end="arrowDown.mouseout"/>
                  </use>
                  <path fill="none" stroke="white" stroke-width="1.5" d="M0,-3.0v7 M-2.5,-0.5L0,-3.0L2.5,-0.5"/>
                </g>
                <g id="arrowLeft" xlink:href="#dirArrow" transform="rotate(270) translate(-36 17)" onmousedown="handlePan(-1,0)">
                  <use xlink:href="#rim" fill="#404040">
                        <set attributeName="fill" to="#808080" begin="arrowLeft.mouseover" end="arrowLeft.mouseout"/>
                  </use>
                  <path fill="none" stroke="white" stroke-width="1.5" d="M0,-3.0v7 M-2.5,-0.5L0,-3.0L2.5,-0.5"/>
                </g>
        </g>
        <svg viewBox="0 0 15 15" width="100%" height="30px" preserveAspectRatio="xMaxYMin meet">
         <g id="arrow_out" transform="scale(0.3 0.3)">
          <a xlink:href="classAP__Compass__HMC5843__coll__graph_org.svg" target="_base">
           <rect id="button" ry="5" rx="5" y="6" x="6" height="38" width="38"
                fill="#f2f5e9" fill-opacity="0.5" stroke="#606060" stroke-width="1.0"/>
           <path id="arrow"
             d="M 11.500037,31.436501 C 11.940474,20.09759 22.043105,11.32322 32.158766,21.979434 L 37.068811,17.246167 C 37.068811,17.246167 37.088388,32 37.088388,32 L 22.160133,31.978069 C 22.160133,31.978069 26.997745,27.140456 26.997745,27.140456 C 18.528582,18.264221 13.291696,25.230495 11.500037,31.436501 z"
             style="fill:#404040;"/>
          </a>
         </g>
        </svg>
</svg>
