<?xml version="1.0" encoding="UTF-8" standalone="no"?>
<!DOCTYPE svg PUBLIC "-//W3C//DTD SVG 1.1//EN"
 "http://www.w3.org/Graphics/SVG/1.1/DTD/svg11.dtd">
<!-- Generated by graphviz version 2.30.1 (20130221.2233)
 -->
<!-- Title: AP_HAL::RCOutput::cork Pages: 1 -->
<svg width="1108pt" height="85pt"
 viewBox="0.00 0.00 1108.00 85.00" xmlns="http://www.w3.org/2000/svg" xmlns:xlink="http://www.w3.org/1999/xlink">
<g id="graph0" class="graph" transform="scale(1 1) rotate(0) translate(4 81)">
<title>AP_HAL::RCOutput::cork</title>
<polygon fill="white" stroke="white" points="-4,5 -4,-81 1105,-81 1105,5 -4,5"/>
<!-- Node1 -->
<g id="node1" class="node"><title>Node1</title>
<g id="a_node1"><a xlink:title=" ">
<polygon fill="#bfbfbf" stroke="black" points="970.589,-28 970.589,-48 1099.41,-48 1099.41,-28 970.589,-28"/>
<text text-anchor="middle" x="1035" y="-34" font-family="Helvetica,sans-Serif" font-size="10.00">AP_HAL::RCOutput::cork</text>
</a>
</g>
</g>
<!-- Node2 -->
<g id="node2" class="node"><title>Node2</title>
<g id="a_node2"><a xlink:href="classSRV__Channels.html#a6bdc435846b87498670af6018e094f64" target="_top" xlink:title=" ">
<polygon fill="white" stroke="black" points="811.677,-51 811.677,-71 920.323,-71 920.323,-51 811.677,-51"/>
<text text-anchor="middle" x="866" y="-57" font-family="Helvetica,sans-Serif" font-size="10.00">SRV_Channels::cork</text>
</a>
</g>
</g>
<!-- Node1&#45;&gt;Node2 -->
<g id="edge1" class="edge"><title>Node1&#45;&gt;Node2</title>
<path fill="none" stroke="midnightblue" d="M960.221,-48.1612C946.808,-50.0084 933.057,-51.9024 920.375,-53.6489"/>
<polygon fill="midnightblue" stroke="midnightblue" points="960.959,-51.5926 970.388,-46.7609 960.004,-44.6581 960.959,-51.5926"/>
</g>
<!-- Node8 -->
<g id="node8" class="node"><title>Node8</title>
<g id="a_node8"><a xlink:href="classAP__IOMCU__FW.html#a474694d94410652f5e014731cca92734" target="_top" xlink:title=" ">
<polygon fill="white" stroke="black" points="798.352,-0 798.352,-32 933.648,-32 933.648,-0 798.352,-0"/>
<text text-anchor="start" x="806.352" y="-18" font-family="Helvetica,sans-Serif" font-size="10.00">AP_IOMCU_FW::pwm_out</text>
<text text-anchor="middle" x="866" y="-6" font-family="Helvetica,sans-Serif" font-size="10.00">_update</text>
</a>
</g>
</g>
<!-- Node1&#45;&gt;Node8 -->
<g id="edge7" class="edge"><title>Node1&#45;&gt;Node8</title>
<path fill="none" stroke="midnightblue" d="M960.45,-28.3108C951.571,-27.1411 942.54,-25.9514 933.766,-24.7955"/>
<polygon fill="midnightblue" stroke="midnightblue" points="960.017,-31.7838 970.388,-29.62 960.931,-24.8438 960.017,-31.7838"/>
</g>
<!-- Node3 -->
<g id="node3" class="node"><title>Node3</title>
<g id="a_node3"><a xlink:href="structGCS__MAVLINK.html#a090c17fc4c5a599232b8a624e8d64d47" target="_top" xlink:title=" ">
<polygon fill="white" stroke="black" points="636.352,-45 636.352,-77 761.648,-77 761.648,-45 636.352,-45"/>
<text text-anchor="start" x="644.352" y="-63" font-family="Helvetica,sans-Serif" font-size="10.00">GCS_MAVLINK::zero_rc</text>
<text text-anchor="middle" x="699" y="-51" font-family="Helvetica,sans-Serif" font-size="10.00">_outputs</text>
</a>
</g>
</g>
<!-- Node2&#45;&gt;Node3 -->
<g id="edge2" class="edge"><title>Node2&#45;&gt;Node3</title>
<path fill="none" stroke="midnightblue" d="M801.235,-61C788.318,-61 774.754,-61 761.902,-61"/>
<polygon fill="midnightblue" stroke="midnightblue" points="801.429,-64.5001 811.429,-61 801.429,-57.5001 801.429,-64.5001"/>
</g>
<!-- Node4 -->
<g id="node4" class="node"><title>Node4</title>
<g id="a_node4"><a xlink:href="structGCS__MAVLINK.html#a2c41f461a8bc8bddbb7ed30ce2a1f135" target="_top" xlink:title=" ">
<polygon fill="white" stroke="black" points="478.009,-45 478.009,-77 599.991,-77 599.991,-45 478.009,-45"/>
<text text-anchor="start" x="486.009" y="-63" font-family="Helvetica,sans-Serif" font-size="10.00">GCS_MAVLINK::handle</text>
<text text-anchor="middle" x="539" y="-51" font-family="Helvetica,sans-Serif" font-size="10.00">_preflight_reboot</text>
</a>
</g>
</g>
<!-- Node3&#45;&gt;Node4 -->
<g id="edge3" class="edge"><title>Node3&#45;&gt;Node4</title>
<path fill="none" stroke="midnightblue" d="M625.912,-61C617.247,-61 608.47,-61 600.003,-61"/>
<polygon fill="midnightblue" stroke="midnightblue" points="626.008,-64.5001 636.008,-61 626.008,-57.5001 626.008,-64.5001"/>
</g>
<!-- Node5 -->
<g id="node5" class="node"><title>Node5</title>
<g id="a_node5"><a xlink:href="structGCS__MAVLINK.html#a29e2941413d50ab63cd70f5beadef19a" target="_top" xlink:title=" ">
<polygon fill="white" stroke="black" points="316.52,-45 316.52,-77 441.48,-77 441.48,-45 316.52,-45"/>
<text text-anchor="start" x="324.52" y="-63" font-family="Helvetica,sans-Serif" font-size="10.00">GCS_MAVLINK::handle</text>
<text text-anchor="middle" x="379" y="-51" font-family="Helvetica,sans-Serif" font-size="10.00">_command_long_packet</text>
</a>
</g>
</g>
<!-- Node4&#45;&gt;Node5 -->
<g id="edge4" class="edge"><title>Node4&#45;&gt;Node5</title>
<path fill="none" stroke="midnightblue" d="M467.692,-61C458.99,-61 450.146,-61 441.589,-61"/>
<polygon fill="midnightblue" stroke="midnightblue" points="467.816,-64.5001 477.816,-61 467.816,-57.5001 467.816,-64.5001"/>
</g>
<!-- Node6 -->
<g id="node6" class="node"><title>Node6</title>
<g id="a_node6"><a xlink:href="structGCS__MAVLINK.html#abc79cdd8393234b66f2e8217a527f8f9" target="_top" xlink:title=" ">
<polygon fill="white" stroke="black" points="158.009,-45 158.009,-77 279.991,-77 279.991,-45 158.009,-45"/>
<text text-anchor="start" x="166.009" y="-63" font-family="Helvetica,sans-Serif" font-size="10.00">GCS_MAVLINK::handle</text>
<text text-anchor="middle" x="219" y="-51" font-family="Helvetica,sans-Serif" font-size="10.00">_command_long</text>
</a>
</g>
</g>
<!-- Node5&#45;&gt;Node6 -->
<g id="edge5" class="edge"><title>Node5&#45;&gt;Node6</title>
<path fill="none" stroke="midnightblue" d="M306.264,-61C297.509,-61 288.634,-61 280.075,-61"/>
<polygon fill="midnightblue" stroke="midnightblue" points="306.461,-64.5001 316.461,-61 306.461,-57.5001 306.461,-64.5001"/>
</g>
<!-- Node7 -->
<g id="node7" class="node"><title>Node7</title>
<g id="a_node7"><a xlink:href="structGCS__MAVLINK.html#a13da94a2548ade6552a5250eb3251e89" target="_top" xlink:title=" ">
<polygon fill="white" stroke="black" points="0.00927734,-45 0.00927734,-77 121.991,-77 121.991,-45 0.00927734,-45"/>
<text text-anchor="start" x="8.00928" y="-63" font-family="Helvetica,sans-Serif" font-size="10.00">GCS_MAVLINK::handle</text>
<text text-anchor="middle" x="61" y="-51" font-family="Helvetica,sans-Serif" font-size="10.00">_common_message</text>
</a>
</g>
</g>
<!-- Node6&#45;&gt;Node7 -->
<g id="edge6" class="edge"><title>Node6&#45;&gt;Node7</title>
<path fill="none" stroke="midnightblue" d="M147.462,-61C139.01,-61 130.44,-61 122.153,-61"/>
<polygon fill="midnightblue" stroke="midnightblue" points="147.686,-64.5001 157.686,-61 147.686,-57.5001 147.686,-64.5001"/>
</g>
<!-- Node9 -->
<g id="node9" class="node"><title>Node9</title>
<g id="a_node9"><a xlink:href="classAP__IOMCU__FW.html#aa6e97452785d6ade70465f15a87978f4" target="_top" xlink:title=" ">
<polygon fill="white" stroke="black" points="636.347,-6 636.347,-26 761.653,-26 761.653,-6 636.347,-6"/>
<text text-anchor="middle" x="699" y="-12" font-family="Helvetica,sans-Serif" font-size="10.00">AP_IOMCU_FW::update</text>
</a>
</g>
</g>
<!-- Node8&#45;&gt;Node9 -->
<g id="edge8" class="edge"><title>Node8&#45;&gt;Node9</title>
<path fill="none" stroke="midnightblue" d="M787.718,-16C779.004,-16 770.212,-16 761.733,-16"/>
<polygon fill="midnightblue" stroke="midnightblue" points="787.888,-19.5001 797.888,-16 787.888,-12.5001 787.888,-19.5001"/>
</g>
<!-- Node10 -->
<g id="node10" class="node"><title>Node10</title>
<g id="a_node10"><a xlink:href="iofirmware_8cpp.html#afe461d27b9c48d5921c00d521181f12f" target="_top" xlink:title=" ">
<polygon fill="white" stroke="black" points="521.547,-6 521.547,-26 556.453,-26 556.453,-6 521.547,-6"/>
<text text-anchor="middle" x="539" y="-12" font-family="Helvetica,sans-Serif" font-size="10.00">loop</text>
</a>
</g>
</g>
<!-- Node9&#45;&gt;Node10 -->
<g id="edge9" class="edge"><title>Node9&#45;&gt;Node10</title>
<path fill="none" stroke="midnightblue" d="M625.813,-16C600.019,-16 573.249,-16 556.612,-16"/>
<polygon fill="midnightblue" stroke="midnightblue" points="626.008,-19.5001 636.008,-16 626.008,-12.5001 626.008,-19.5001"/>
</g>
</g>
</svg>
