<?xml version="1.0" encoding="UTF-8" standalone="no"?>
<!DOCTYPE svg PUBLIC "-//W3C//DTD SVG 1.1//EN"
 "http://www.w3.org/Graphics/SVG/1.1/DTD/svg11.dtd">
<!-- Generated by graphviz version 2.30.1 (20130221.2233)
 -->
<!-- Title: AP_GPS_UBLOX::AP_GPS_UBLOX Pages: 1 -->
<!--zoomable 247 -->
<svg id="main" version="1.1" xmlns="http://www.w3.org/2000/svg" xmlns:xlink="http://www.w3.org/1999/xlink" xml:space="preserve" onload="init(evt)">
<style type="text/css"><![CDATA[
.edge:hover path { stroke: red; }
.edge:hover polygon { stroke: red; fill: red; }
]]></style>
<script type="text/javascript"><![CDATA[
var edges = document.getElementsByTagName('g');
if (edges && edges.length) {
  for (var i=0;i<edges.length;i++) {
    if (edges[i].id.substr(0,4)=='edge') {
      edges[i].setAttribute('class','edge');
    }
  }
}
]]></script>
        <defs>
                <circle id="rim" cx="0" cy="0" r="7"/>
                <circle id="rim2" cx="0" cy="0" r="3.5"/>
                <g id="zoomPlus">
                        <use xlink:href="#rim" fill="#404040">
                                <set attributeName="fill" to="#808080" begin="zoomplus.mouseover" end="zoomplus.mouseout"/>
                        </use>
                        <path d="M-4,0h8M0,-4v8" fill="none" stroke="white" stroke-width="1.5" pointer-events="none"/>
                </g>
                <g id="zoomMin">
                        <use xlink:href="#rim" fill="#404040">
                                <set attributeName="fill" to="#808080" begin="zoomminus.mouseover" end="zoomminus.mouseout"/>
                        </use>
                        <path d="M-4,0h8" fill="none" stroke="white" stroke-width="1.5" pointer-events="none"/>
                </g>
                <g id="dirArrow">
                        <path fill="none" stroke="white" stroke-width="1.5" d="M0,-3.0v7 M-2.5,-0.5L0,-3.0L2.5,-0.5"/>
                </g>
               <g id="resetDef">
                       <use xlink:href="#rim2" fill="#404040">
                               <set attributeName="fill" to="#808080" begin="reset.mouseover" end="reset.mouseout"/>
                       </use>
               </g>
        </defs>

<script type="text/javascript">
var viewWidth = 1040;
var viewHeight = 247;
var sectionId = 'dynsection-2';
</script>
<script xlink:href="svgpan.js"/>
<svg id="graph" class="graph">
<g id="viewport">
<title>AP_GPS_UBLOX::AP_GPS_UBLOX</title>
<polygon fill="white" stroke="white" points="-4,5 -4,-243.137 1037,-243.137 1037,5 -4,5"/>
<!-- Node0 -->
<g id="node1" class="node"><title>Node0</title>
<g id="a_node1"><a xlink:title=" ">
<polygon fill="#bfbfbf" stroke="black" points="0.470703,-116.303 0.470703,-148.303 141.529,-148.303 141.529,-116.303 0.470703,-116.303"/>
<text text-anchor="start" x="8.4707" y="-134.303" font-family="Helvetica,sans-Serif" font-size="10.00">AP_GPS_UBLOX::AP_GPS</text>
<text text-anchor="middle" x="71" y="-122.303" font-family="Helvetica,sans-Serif" font-size="10.00">_UBLOX</text>
</a>
</g>
</g>
<!-- Node1 -->
<g id="node2" class="node"><title>Node1</title>
<g id="a_node2"><a xlink:href="classAP__GPS.html#a90b25b2edbb127b22e597a56f2a01e42" target="_top" xlink:title=" ">
<polygon fill="white" stroke="black" points="181.631,-145.303 181.631,-165.303 314.369,-165.303 314.369,-145.303 181.631,-145.303"/>
<text text-anchor="middle" x="248" y="-151.303" font-family="Helvetica,sans-Serif" font-size="10.00">AP_GPS::send_blob_start</text>
</a>
</g>
</g>
<!-- Node0&#45;&gt;Node1 -->
<g id="edge1" class="edge"><title>Node0&#45;&gt;Node1</title>
<path fill="none" stroke="midnightblue" d="M141.667,-141.46C151.43,-142.743 161.502,-144.066 171.368,-145.363"/>
<polygon fill="midnightblue" stroke="midnightblue" points="171.184,-148.869 181.555,-146.702 172.096,-141.929 171.184,-148.869"/>
</g>
<!-- Node2 -->
<g id="node3" class="node"><title>Node2</title>
<g id="a_node3"><a xlink:href="classAP__GPS__UBLOX.html#af664a91503c354001a990f310dfbc634" target="_top" xlink:title=" ">
<polygon fill="white" stroke="black" points="178.022,-94.3034 178.022,-126.303 317.978,-126.303 317.978,-94.3034 178.022,-94.3034"/>
<text text-anchor="start" x="186.022" y="-112.303" font-family="Helvetica,sans-Serif" font-size="10.00">AP_GPS_UBLOX::_request</text>
<text text-anchor="middle" x="248" y="-100.303" font-family="Helvetica,sans-Serif" font-size="10.00">_next_config</text>
</a>
</g>
</g>
<!-- Node0&#45;&gt;Node2 -->
<g id="edge2" class="edge"><title>Node0&#45;&gt;Node2</title>
<path fill="none" stroke="midnightblue" d="M141.667,-123.545C150.231,-122.469 159.033,-121.362 167.725,-120.269"/>
<polygon fill="midnightblue" stroke="midnightblue" points="168.373,-123.716 177.858,-118.996 167.499,-116.77 168.373,-123.716"/>
</g>
<!-- Node3 -->
<g id="node4" class="node"><title>Node3</title>
<g id="a_node4"><a xlink:href="classAP__HAL_1_1BetterStream.html#ab0193c7791fd95eb2bfbfd6597bdf6d8" target="_top" xlink:title=" ">
<polygon fill="white" stroke="black" points="903.589,-162.303 903.589,-194.303 1022.41,-194.303 1022.41,-162.303 903.589,-162.303"/>
<text text-anchor="start" x="911.589" y="-180.303" font-family="Helvetica,sans-Serif" font-size="10.00">AP_HAL::BetterStream</text>
<text text-anchor="middle" x="963" y="-168.303" font-family="Helvetica,sans-Serif" font-size="10.00">::txspace</text>
</a>
</g>
</g>
<!-- Node2&#45;&gt;Node3 -->
<g id="edge3" class="edge"><title>Node2&#45;&gt;Node3</title>
<path fill="none" stroke="midnightblue" d="M303.317,-126.477C308.5,-129.039 313.495,-131.967 318,-135.303 339.43,-151.174 330.497,-170.706 354,-183.303 532.545,-279.002 785.07,-228.413 900.326,-197.083"/>
<polygon fill="midnightblue" stroke="midnightblue" points="901.341,-200.433 910.048,-194.396 899.477,-193.686 901.341,-200.433"/>
</g>
<!-- Node4 -->
<g id="node5" class="node"><title>Node4</title>
<g id="a_node5"><a xlink:href="classAP__GPS__UBLOX.html#a225cfc86bda85491de00a09c034e77e5" target="_top" xlink:title=" ">
<polygon fill="white" stroke="black" points="354.022,-117.303 354.022,-149.303 493.978,-149.303 493.978,-117.303 354.022,-117.303"/>
<text text-anchor="start" x="362.022" y="-135.303" font-family="Helvetica,sans-Serif" font-size="10.00">AP_GPS_UBLOX::_request</text>
<text text-anchor="middle" x="424" y="-123.303" font-family="Helvetica,sans-Serif" font-size="10.00">_message_rate</text>
</a>
</g>
</g>
<!-- Node2&#45;&gt;Node4 -->
<g id="edge4" class="edge"><title>Node2&#45;&gt;Node4</title>
<path fill="none" stroke="midnightblue" d="M318.019,-119.427C326.476,-120.544 335.169,-121.694 343.761,-122.829"/>
<polygon fill="midnightblue" stroke="midnightblue" points="343.407,-126.313 353.779,-124.154 344.324,-119.373 343.407,-126.313"/>
</g>
<!-- Node5 -->
<g id="node6" class="node"><title>Node5</title>
<g id="a_node6"><a xlink:href="classAP__GPS__UBLOX.html#acb03687d74891749c3f63246ae324cf5" target="_top" xlink:title=" ">
<polygon fill="white" stroke="black" points="530.626,-164.303 530.626,-184.303 693.374,-184.303 693.374,-164.303 530.626,-164.303"/>
<text text-anchor="middle" x="612" y="-170.303" font-family="Helvetica,sans-Serif" font-size="10.00">AP_GPS_UBLOX::_request_port</text>
</a>
</g>
</g>
<!-- Node2&#45;&gt;Node5 -->
<g id="edge12" class="edge"><title>Node2&#45;&gt;Node5</title>
<path fill="none" stroke="midnightblue" d="M297.453,-126.315C304.452,-129.071 311.486,-132.092 318,-135.303 335.029,-143.7 335.95,-152.415 354,-158.303 407.379,-175.718 470.241,-179.896 520.433,-179.634"/>
<polygon fill="midnightblue" stroke="midnightblue" points="520.659,-183.131 530.619,-179.519 520.581,-176.132 520.659,-183.131"/>
</g>
<!-- Node6 -->
<g id="node7" class="node"><title>Node6</title>
<g id="a_node7"><a xlink:href="classAP__GPS__UBLOX.html#a70796ce79531f8601c16cf9a1b6b442b" target="_top" xlink:title=" ">
<polygon fill="white" stroke="black" points="729.857,-111.303 729.857,-143.303 858.143,-143.303 858.143,-111.303 729.857,-111.303"/>
<text text-anchor="start" x="737.857" y="-129.303" font-family="Helvetica,sans-Serif" font-size="10.00">AP_GPS_UBLOX::_send</text>
<text text-anchor="middle" x="794" y="-117.303" font-family="Helvetica,sans-Serif" font-size="10.00">_message</text>
</a>
</g>
</g>
<!-- Node2&#45;&gt;Node6 -->
<g id="edge13" class="edge"><title>Node2&#45;&gt;Node6</title>
<path fill="none" stroke="midnightblue" d="M318.182,-108.046C330.126,-107.737 342.421,-107.469 354,-107.303 416.216,-106.415 431.812,-105.226 494,-107.303 571.048,-109.877 659.076,-116.172 719.561,-121.018"/>
<polygon fill="midnightblue" stroke="midnightblue" points="719.525,-124.527 729.774,-121.844 720.089,-117.549 719.525,-124.527"/>
</g>
<!-- Node9 -->
<g id="node10" class="node"><title>Node9</title>
<g id="a_node10"><a xlink:href="classAP__HAL_1_1Util.html#a287a2b82fa30b92c8d52aad61d4d27b7" target="_top" xlink:title=" ">
<polygon fill="white" stroke="black" points="366.254,-27.3034 366.254,-59.3034 481.746,-59.3034 481.746,-27.3034 366.254,-27.3034"/>
<text text-anchor="start" x="374.254" y="-45.3034" font-family="Helvetica,sans-Serif" font-size="10.00">AP_HAL::Util::get_soft</text>
<text text-anchor="middle" x="424" y="-33.3034" font-family="Helvetica,sans-Serif" font-size="10.00">_armed</text>
</a>
</g>
</g>
<!-- Node2&#45;&gt;Node9 -->
<g id="edge14" class="edge"><title>Node2&#45;&gt;Node9</title>
<path fill="none" stroke="midnightblue" d="M290.677,-94.2552C315.015,-84.8836 345.919,-72.984 371.739,-63.0418"/>
<polygon fill="midnightblue" stroke="midnightblue" points="373.287,-66.1962 381.362,-59.3366 370.772,-59.6638 373.287,-66.1962"/>
</g>
<!-- Node10 -->
<g id="node11" class="node"><title>Node10</title>
<g id="a_node11"><a xlink:href="classAP__GPS__UBLOX.html#ae1da492ab0f9b2b2871799848f2120f8" target="_top" xlink:title=" ">
<polygon fill="white" stroke="black" points="542.022,-5.30337 542.022,-37.3034 681.978,-37.3034 681.978,-5.30337 542.022,-5.30337"/>
<text text-anchor="start" x="550.022" y="-23.3034" font-family="Helvetica,sans-Serif" font-size="10.00">AP_GPS_UBLOX::_request</text>
<text text-anchor="middle" x="612" y="-11.3034" font-family="Helvetica,sans-Serif" font-size="10.00">_version</text>
</a>
</g>
</g>
<!-- Node2&#45;&gt;Node10 -->
<g id="edge15" class="edge"><title>Node2&#45;&gt;Node10</title>
<path fill="none" stroke="midnightblue" d="M261.015,-93.9437C278.539,-71.6301 313.47,-32.6715 354,-17.3034 410.622,4.16657 479.43,1.75051 531.595,-5.26103"/>
<polygon fill="midnightblue" stroke="midnightblue" points="531.402,-8.76905 541.797,-6.7189 532.393,-1.83944 531.402,-8.76905"/>
</g>
<!-- Node4&#45;&gt;Node5 -->
<g id="edge5" class="edge"><title>Node4&#45;&gt;Node5</title>
<path fill="none" stroke="midnightblue" d="M493.995,-148.512C514.332,-152.995 536.314,-157.84 555.674,-162.108"/>
<polygon fill="midnightblue" stroke="midnightblue" points="555.017,-165.547 565.536,-164.282 556.524,-158.711 555.017,-165.547"/>
</g>
<!-- Node4&#45;&gt;Node6 -->
<g id="edge11" class="edge"><title>Node4&#45;&gt;Node6</title>
<path fill="none" stroke="midnightblue" d="M494.218,-132.175C558.448,-131.128 653.748,-129.574 719.358,-128.504"/>
<polygon fill="midnightblue" stroke="midnightblue" points="719.682,-131.999 729.624,-128.337 719.568,-125 719.682,-131.999"/>
</g>
<!-- Node5&#45;&gt;Node3 -->
<g id="edge6" class="edge"><title>Node5&#45;&gt;Node3</title>
<path fill="none" stroke="midnightblue" d="M693.506,-175.226C753.99,-175.919 835.949,-176.859 893.348,-177.517"/>
<polygon fill="midnightblue" stroke="midnightblue" points="893.372,-181.017 903.412,-177.632 893.453,-174.017 893.372,-181.017"/>
</g>
<!-- Node5&#45;&gt;Node6 -->
<g id="edge7" class="edge"><title>Node5&#45;&gt;Node6</title>
<path fill="none" stroke="midnightblue" d="M651.615,-164.221C672.043,-158.887 697.782,-152.166 721.683,-145.925"/>
<polygon fill="midnightblue" stroke="midnightblue" points="722.647,-149.291 731.439,-143.378 720.879,-142.518 722.647,-149.291"/>
</g>
<!-- Node6&#45;&gt;Node3 -->
<g id="edge8" class="edge"><title>Node6&#45;&gt;Node3</title>
<path fill="none" stroke="midnightblue" d="M847.84,-143.44C864.295,-148.465 882.596,-154.054 899.638,-159.259"/>
<polygon fill="midnightblue" stroke="midnightblue" points="898.918,-162.698 909.504,-162.272 900.962,-156.003 898.918,-162.698"/>
</g>
<!-- Node7 -->
<g id="node8" class="node"><title>Node7</title>
<g id="a_node8"><a xlink:href="classAP__GPS__UBLOX.html#aa9e7578f241ffd59f632d9b5104bed75" target="_top" xlink:title=" ">
<polygon fill="white" stroke="black" points="894.407,-111.303 894.407,-143.303 1031.59,-143.303 1031.59,-111.303 894.407,-111.303"/>
<text text-anchor="start" x="902.407" y="-129.303" font-family="Helvetica,sans-Serif" font-size="10.00">AP_GPS_UBLOX::_update</text>
<text text-anchor="middle" x="963" y="-117.303" font-family="Helvetica,sans-Serif" font-size="10.00">_checksum</text>
</a>
</g>
</g>
<!-- Node6&#45;&gt;Node7 -->
<g id="edge9" class="edge"><title>Node6&#45;&gt;Node7</title>
<path fill="none" stroke="midnightblue" d="M858.612,-127.303C867.026,-127.303 875.726,-127.303 884.343,-127.303"/>
<polygon fill="midnightblue" stroke="midnightblue" points="884.397,-130.803 894.397,-127.303 884.397,-123.803 884.397,-130.803"/>
</g>
<!-- Node8 -->
<g id="node9" class="node"><title>Node8</title>
<g id="a_node9"><a xlink:href="classAP__HAL_1_1BetterStream.html#a915cc01273d4b418c2fb2989fb31a508" target="_top" xlink:title=" ">
<polygon fill="white" stroke="black" points="903.589,-60.3034 903.589,-92.3034 1022.41,-92.3034 1022.41,-60.3034 903.589,-60.3034"/>
<text text-anchor="start" x="911.589" y="-78.3034" font-family="Helvetica,sans-Serif" font-size="10.00">AP_HAL::BetterStream</text>
<text text-anchor="middle" x="963" y="-66.3034" font-family="Helvetica,sans-Serif" font-size="10.00">::write</text>
</a>
</g>
</g>
<!-- Node6&#45;&gt;Node8 -->
<g id="edge10" class="edge"><title>Node6&#45;&gt;Node8</title>
<path fill="none" stroke="midnightblue" d="M847.84,-111.167C864.295,-106.141 882.596,-100.553 899.638,-95.348"/>
<polygon fill="midnightblue" stroke="midnightblue" points="900.962,-98.6033 909.504,-92.3351 898.918,-91.9085 900.962,-98.6033"/>
</g>
<!-- Node10&#45;&gt;Node6 -->
<g id="edge16" class="edge"><title>Node10&#45;&gt;Node6</title>
<path fill="none" stroke="midnightblue" d="M640.338,-37.4025C671.485,-55.7446 722.51,-85.7923 756.904,-106.047"/>
<polygon fill="midnightblue" stroke="midnightblue" points="755.307,-109.168 765.7,-111.227 758.859,-103.136 755.307,-109.168"/>
</g>
</g>
</svg>
        <g id="navigator" transform="translate(0 0)" fill="#404254">
                <rect fill="#f2f5e9" fill-opacity="0.5" stroke="#606060" stroke-width=".5" x="0" y="0" width="60" height="60"/>
                <use id="zoomplus" xlink:href="#zoomPlus" x="17" y="9" onmousedown="handleZoom(evt,'in')"/>
                <use id="zoomminus" xlink:href="#zoomMin" x="42" y="9" onmousedown="handleZoom(evt,'out')"/>
                <use id="reset" xlink:href="#resetDef" x="30" y="36" onmousedown="handleReset()"/>
                <g id="arrowUp" xlink:href="#dirArrow" transform="translate(30 24)" onmousedown="handlePan(0,-1)">
                  <use xlink:href="#rim" fill="#404040">
                        <set attributeName="fill" to="#808080" begin="arrowUp.mouseover" end="arrowUp.mouseout"/>
                  </use>
                  <path fill="none" stroke="white" stroke-width="1.5" d="M0,-3.0v7 M-2.5,-0.5L0,-3.0L2.5,-0.5"/>
                </g>
                <g id="arrowRight" xlink:href="#dirArrow" transform="rotate(90) translate(36 -43)" onmousedown="handlePan(1,0)">
                  <use xlink:href="#rim" fill="#404040">
                        <set attributeName="fill" to="#808080" begin="arrowRight.mouseover" end="arrowRight.mouseout"/>
                  </use>
                  <path fill="none" stroke="white" stroke-width="1.5" d="M0,-3.0v7 M-2.5,-0.5L0,-3.0L2.5,-0.5"/>
                </g>
                <g id="arrowDown" xlink:href="#dirArrow" transform="rotate(180) translate(-30 -48)" onmousedown="handlePan(0,1)">
                  <use xlink:href="#rim" fill="#404040">
                        <set attributeName="fill" to="#808080" begin="arrowDown.mouseover" end="arrowDown.mouseout"/>
                  </use>
                  <path fill="none" stroke="white" stroke-width="1.5" d="M0,-3.0v7 M-2.5,-0.5L0,-3.0L2.5,-0.5"/>
                </g>
                <g id="arrowLeft" xlink:href="#dirArrow" transform="rotate(270) translate(-36 17)" onmousedown="handlePan(-1,0)">
                  <use xlink:href="#rim" fill="#404040">
                        <set attributeName="fill" to="#808080" begin="arrowLeft.mouseover" end="arrowLeft.mouseout"/>
                  </use>
                  <path fill="none" stroke="white" stroke-width="1.5" d="M0,-3.0v7 M-2.5,-0.5L0,-3.0L2.5,-0.5"/>
                </g>
        </g>
        <svg viewBox="0 0 15 15" width="100%" height="30px" preserveAspectRatio="xMaxYMin meet">
         <g id="arrow_out" transform="scale(0.3 0.3)">
          <a xlink:href="classAP__GPS__UBLOX_a0544590f35bd965c5ac93f8d98a340df_cgraph_org.svg" target="_base">
           <rect id="button" ry="5" rx="5" y="6" x="6" height="38" width="38"
                fill="#f2f5e9" fill-opacity="0.5" stroke="#606060" stroke-width="1.0"/>
           <path id="arrow"
             d="M 11.500037,31.436501 C 11.940474,20.09759 22.043105,11.32322 32.158766,21.979434 L 37.068811,17.246167 C 37.068811,17.246167 37.088388,32 37.088388,32 L 22.160133,31.978069 C 22.160133,31.978069 26.997745,27.140456 26.997745,27.140456 C 18.528582,18.264221 13.291696,25.230495 11.500037,31.436501 z"
             style="fill:#404040;"/>
          </a>
         </g>
        </svg>
</svg>
