<?xml version="1.0" encoding="UTF-8" standalone="no"?>
<!DOCTYPE svg PUBLIC "-//W3C//DTD SVG 1.1//EN"
 "http://www.w3.org/Graphics/SVG/1.1/DTD/svg11.dtd">
<!-- Generated by graphviz version 2.30.1 (20130221.2233)
 -->
<!-- Title: AP_Compass_IST8308 Pages: 1 -->
<svg width="1312pt" height="616pt"
 viewBox="0.00 0.00 1312.00 616.00" xmlns="http://www.w3.org/2000/svg" xmlns:xlink="http://www.w3.org/1999/xlink">
<g id="graph0" class="graph" transform="scale(1 1) rotate(0) translate(4 612)">
<title>AP_Compass_IST8308</title>
<polygon fill="white" stroke="white" points="-4,5 -4,-612 1309,-612 1309,5 -4,5"/>
<!-- Node2 -->
<g id="node1" class="node"><title>Node2</title>
<g id="a_node1"><a xlink:title=" ">
<polygon fill="#bfbfbf" stroke="black" points="986.749,-229 986.749,-249 1107.25,-249 1107.25,-229 986.749,-229"/>
<text text-anchor="middle" x="1047" y="-235" font-family="Helvetica,sans-Serif" font-size="10.00">AP_Compass_IST8308</text>
</a>
</g>
</g>
<!-- Node3 -->
<g id="node2" class="node"><title>Node3</title>
<g id="a_node2"><a xlink:href="classAP__Compass__Backend.html" target="_top" xlink:title=" ">
<polygon fill="white" stroke="black" points="706.192,-283 706.192,-303 827.808,-303 827.808,-283 706.192,-283"/>
<text text-anchor="middle" x="767" y="-289" font-family="Helvetica,sans-Serif" font-size="10.00">AP_Compass_Backend</text>
</a>
</g>
</g>
<!-- Node3&#45;&gt;Node2 -->
<g id="edge1" class="edge"><title>Node3&#45;&gt;Node2</title>
<path fill="none" stroke="midnightblue" d="M798.953,-279.063C813.045,-273.251 830.097,-266.947 846,-263 892.5,-251.458 946.509,-245.396 986.672,-242.254"/>
<polygon fill="midnightblue" stroke="midnightblue" points="797.563,-275.85 789.72,-282.973 800.293,-282.296 797.563,-275.85"/>
</g>
<!-- Node4 -->
<g id="node3" class="node"><title>Node4</title>
<g id="a_node3"><a xlink:href="classCompass.html" target="_top" xlink:title=" ">
<polygon fill="white" stroke="black" points="1017.88,-337 1017.88,-357 1076.12,-357 1076.12,-337 1017.88,-337"/>
<text text-anchor="middle" x="1047" y="-343" font-family="Helvetica,sans-Serif" font-size="10.00">Compass</text>
</a>
</g>
</g>
<!-- Node3&#45;&gt;Node4 -->
<g id="edge23" class="edge"><title>Node3&#45;&gt;Node4</title>
<path fill="none" stroke="#9a32cd" stroke-dasharray="5,2" d="M838.142,-299.646C876.77,-304.098 925.386,-311.003 968,-321 985.51,-325.108 1004.68,-331.47 1019.63,-336.873"/>
<polygon fill="#9a32cd" stroke="#9a32cd" points="838.365,-296.149 828.036,-298.511 837.583,-303.105 838.365,-296.149"/>
<text text-anchor="middle" x="907" y="-323" font-family="Helvetica,sans-Serif" font-size="10.00"> _backends</text>
</g>
<!-- Node4&#45;&gt;Node3 -->
<g id="edge2" class="edge"><title>Node4&#45;&gt;Node3</title>
<path fill="none" stroke="#9a32cd" stroke-dasharray="5,2" d="M1030.04,-329.156C1015.53,-314.389 992.684,-294.506 968,-286 915.772,-268.003 851.269,-275.062 809.887,-282.995"/>
<polygon fill="#9a32cd" stroke="#9a32cd" points="1027.78,-331.865 1037.19,-336.729 1032.87,-327.057 1027.78,-331.865"/>
<text text-anchor="middle" x="907" y="-288" font-family="Helvetica,sans-Serif" font-size="10.00"> _compass</text>
</g>
<!-- Node5 -->
<g id="node4" class="node"><title>Node5</title>
<g id="a_node4"><a xlink:href="classCompassLearn.html" target="_top" xlink:title=" ">
<polygon fill="white" stroke="black" points="1209.09,-190 1209.09,-210 1292.91,-210 1292.91,-190 1209.09,-190"/>
<text text-anchor="middle" x="1251" y="-196" font-family="Helvetica,sans-Serif" font-size="10.00">CompassLearn</text>
</a>
</g>
</g>
<!-- Node4&#45;&gt;Node5 -->
<g id="edge9" class="edge"><title>Node4&#45;&gt;Node5</title>
<path fill="none" stroke="#9a32cd" stroke-dasharray="5,2" d="M1086.19,-338.458C1114.24,-330.789 1152.14,-317.385 1180,-296 1211.58,-271.758 1235.33,-229.504 1245.11,-210.176"/>
<polygon fill="#9a32cd" stroke="#9a32cd" points="1085.14,-335.116 1076.35,-341.028 1086.91,-341.89 1085.14,-335.116"/>
<text text-anchor="middle" x="1153" y="-326" font-family="Helvetica,sans-Serif" font-size="10.00"> compass</text>
</g>
<!-- Node11 -->
<g id="node10" class="node"><title>Node11</title>
<g id="a_node10"><a xlink:href="classCompass__PerMotor.html" target="_top" xlink:title=" ">
<polygon fill="white" stroke="black" points="1198.54,-445 1198.54,-465 1303.46,-465 1303.46,-445 1198.54,-445"/>
<text text-anchor="middle" x="1251" y="-451" font-family="Helvetica,sans-Serif" font-size="10.00">Compass_PerMotor</text>
</a>
</g>
</g>
<!-- Node4&#45;&gt;Node11 -->
<g id="edge17" class="edge"><title>Node4&#45;&gt;Node11</title>
<path fill="none" stroke="#9a32cd" stroke-dasharray="5,2" d="M1065.73,-364.612C1080.73,-378.723 1103.35,-398.21 1126,-411 1152.85,-426.163 1185.87,-437.57 1211.08,-444.966"/>
<polygon fill="#9a32cd" stroke="#9a32cd" points="1067.86,-361.808 1058.23,-357.403 1063.01,-366.855 1067.86,-361.808"/>
<text text-anchor="middle" x="1153" y="-436" font-family="Helvetica,sans-Serif" font-size="10.00"> compass</text>
</g>
<!-- Node4&#45;&gt;Node4 -->
<g id="edge27" class="edge"><title>Node4&#45;&gt;Node4</title>
<path fill="none" stroke="#9a32cd" stroke-dasharray="5,2" d="M1027.53,-366.922C1029.16,-371.573 1035.65,-375 1047,-375 1065.63,-375 1071.16,-365.771 1063.59,-357.048"/>
<polygon fill="#9a32cd" stroke="#9a32cd" points="1030.97,-367.627 1030.41,-357.048 1024.25,-365.671 1030.97,-367.627"/>
<text text-anchor="middle" x="1047" y="-377" font-family="Helvetica,sans-Serif" font-size="10.00"> _singleton</text>
</g>
<!-- Node5&#45;&gt;Node4 -->
<g id="edge3" class="edge"><title>Node5&#45;&gt;Node4</title>
<path fill="none" stroke="#9a32cd" stroke-dasharray="5,2" d="M1225.44,-215.763C1200.12,-232.218 1159.69,-259.055 1126,-284 1101.94,-301.818 1075,-324.132 1059.91,-336.858"/>
<polygon fill="#9a32cd" stroke="#9a32cd" points="1227.55,-218.565 1234.05,-210.193 1223.75,-212.688 1227.55,-218.565"/>
<text text-anchor="middle" x="1153" y="-286" font-family="Helvetica,sans-Serif" font-size="10.00"> learn</text>
</g>
<!-- Node6 -->
<g id="node5" class="node"><title>Node6</title>
<g id="a_node5"><a xlink:href="classMatrix3.html" target="_top" xlink:title=" ">
<polygon fill="white" stroke="black" points="602.54,-196 602.54,-216 687.46,-216 687.46,-196 602.54,-196"/>
<text text-anchor="middle" x="645" y="-202" font-family="Helvetica,sans-Serif" font-size="10.00">Matrix3&lt; float &gt;</text>
</a>
</g>
</g>
<!-- Node6&#45;&gt;Node5 -->
<g id="edge4" class="edge"><title>Node6&#45;&gt;Node5</title>
<path fill="none" stroke="#9a32cd" stroke-dasharray="5,2" d="M697.717,-205.486C815.587,-204.315 1102.19,-201.468 1208.99,-200.407"/>
<polygon fill="#9a32cd" stroke="#9a32cd" points="697.48,-201.988 687.515,-205.588 697.55,-208.988 697.48,-201.988"/>
<text text-anchor="middle" x="907" y="-206" font-family="Helvetica,sans-Serif" font-size="10.00"> mat</text>
</g>
<!-- Node7 -->
<g id="node6" class="node"><title>Node7</title>
<g id="a_node6"><a xlink:href="classVector3.html" target="_top" xlink:title=" ">
<polygon fill="white" stroke="black" points="267.973,-255 267.973,-275 354.027,-275 354.027,-255 267.973,-255"/>
<text text-anchor="middle" x="311" y="-261" font-family="Helvetica,sans-Serif" font-size="10.00">Vector3&lt; float &gt;</text>
</a>
</g>
</g>
<!-- Node7&#45;&gt;Node6 -->
<g id="edge5" class="edge"><title>Node7&#45;&gt;Node6</title>
<path fill="none" stroke="#9a32cd" stroke-dasharray="5,2" d="M333.87,-249.01C350.539,-237.797 374.547,-223.665 398,-217 467.497,-197.25 552.445,-198.783 602.156,-202.105"/>
<polygon fill="#9a32cd" stroke="#9a32cd" points="331.638,-246.299 325.416,-254.874 335.628,-252.051 331.638,-246.299"/>
<text text-anchor="middle" x="427" y="-243" font-family="Helvetica,sans-Serif" font-size="10.00"> a</text>
<text text-anchor="middle" x="427" y="-231" font-family="Helvetica,sans-Serif" font-size="10.00">b</text>
<text text-anchor="middle" x="427" y="-219" font-family="Helvetica,sans-Serif" font-size="10.00">c</text>
</g>
<!-- Node7&#45;&gt;Node5 -->
<g id="edge6" class="edge"><title>Node7&#45;&gt;Node5</title>
<path fill="none" stroke="#9a32cd" stroke-dasharray="5,2" d="M330.053,-247.739C346.44,-233.12 371.961,-212.856 398,-202 525.937,-148.661 567.821,-163.923 706,-153 894.058,-138.134 1118.46,-174.781 1209.07,-191.836"/>
<polygon fill="#9a32cd" stroke="#9a32cd" points="327.368,-245.453 322.362,-254.79 332.098,-250.613 327.368,-245.453"/>
<text text-anchor="middle" x="767" y="-191" font-family="Helvetica,sans-Serif" font-size="10.00"> last_field</text>
<text text-anchor="middle" x="767" y="-179" font-family="Helvetica,sans-Serif" font-size="10.00">best_offsets</text>
<text text-anchor="middle" x="767" y="-167" font-family="Helvetica,sans-Serif" font-size="10.00">mag_ef</text>
<text text-anchor="middle" x="767" y="-155" font-family="Helvetica,sans-Serif" font-size="10.00">predicted_offsets</text>
</g>
<!-- Node8 -->
<g id="node7" class="node"><title>Node8</title>
<g id="a_node7"><a xlink:href="structCompassLearn_1_1sample.html" target="_top" xlink:title=" ">
<polygon fill="white" stroke="black" points="846.197,-76 846.197,-96 967.803,-96 967.803,-76 846.197,-76"/>
<text text-anchor="middle" x="907" y="-82" font-family="Helvetica,sans-Serif" font-size="10.00">CompassLearn::sample</text>
</a>
</g>
</g>
<!-- Node7&#45;&gt;Node8 -->
<g id="edge8" class="edge"><title>Node7&#45;&gt;Node8</title>
<path fill="none" stroke="#9a32cd" stroke-dasharray="5,2" d="M321.647,-245.944C335.638,-219.752 363.679,-172.316 398,-141 426.669,-114.841 436.61,-108.401 474,-98 602.666,-62.2068 761.26,-70.387 845.959,-78.6946"/>
<polygon fill="#9a32cd" stroke="#9a32cd" points="318.515,-244.381 316.989,-254.865 324.72,-247.621 318.515,-244.381"/>
<text text-anchor="middle" x="529" y="-124" font-family="Helvetica,sans-Serif" font-size="10.00"> offsets</text>
<text text-anchor="middle" x="529" y="-112" font-family="Helvetica,sans-Serif" font-size="10.00">attitude</text>
<text text-anchor="middle" x="529" y="-100" font-family="Helvetica,sans-Serif" font-size="10.00">field</text>
</g>
<!-- Node7&#45;&gt;Node4 -->
<g id="edge13" class="edge"><title>Node7&#45;&gt;Node4</title>
<path fill="none" stroke="#9a32cd" stroke-dasharray="5,2" d="M341.081,-279.498C357.402,-286.947 378.374,-295.404 398,-300 592.392,-345.519 646.863,-318.696 846,-333 907.277,-337.402 979.128,-342.389 1017.84,-345.062"/>
<polygon fill="#9a32cd" stroke="#9a32cd" points="342.113,-276.116 331.574,-275.033 339.138,-282.452 342.113,-276.116"/>
<text text-anchor="middle" x="645" y="-343" font-family="Helvetica,sans-Serif" font-size="10.00"> field</text>
<text text-anchor="middle" x="645" y="-331" font-family="Helvetica,sans-Serif" font-size="10.00">Bearth</text>
</g>
<!-- Node7&#45;&gt;Node11 -->
<g id="edge16" class="edge"><title>Node7&#45;&gt;Node11</title>
<path fill="none" stroke="#9a32cd" stroke-dasharray="5,2" d="M316.74,-284.753C333.417,-348.86 395.665,-547 528,-547 528,-547 528,-547 1048,-547 1126.23,-547 1207.41,-489.15 1237.67,-465.197"/>
<polygon fill="#9a32cd" stroke="#9a32cd" points="320.13,-283.882 314.298,-275.037 313.341,-285.588 320.13,-283.882"/>
<text text-anchor="middle" x="767" y="-561" font-family="Helvetica,sans-Serif" font-size="10.00"> field_sum</text>
<text text-anchor="middle" x="767" y="-549" font-family="Helvetica,sans-Serif" font-size="10.00">base_field</text>
</g>
<!-- Node13 -->
<g id="node12" class="node"><title>Node13</title>
<g id="a_node12"><a xlink:href="classCompassCalibrator_1_1param__t.html" target="_top" xlink:title=" ">
<polygon fill="white" stroke="black" points="475.429,-386 475.429,-418 582.571,-418 582.571,-386 475.429,-386"/>
<text text-anchor="start" x="483.429" y="-404" font-family="Helvetica,sans-Serif" font-size="10.00">CompassCalibrator::</text>
<text text-anchor="middle" x="529" y="-392" font-family="Helvetica,sans-Serif" font-size="10.00">param_t</text>
</a>
</g>
</g>
<!-- Node7&#45;&gt;Node13 -->
<g id="edge20" class="edge"><title>Node7&#45;&gt;Node13</title>
<path fill="none" stroke="#9a32cd" stroke-dasharray="5,2" d="M325.164,-283.15C340.581,-303.24 367.874,-335.369 398,-355 421.425,-370.264 450.452,-381.369 475.131,-388.939"/>
<polygon fill="#9a32cd" stroke="#9a32cd" points="327.928,-281.002 319.129,-275.102 322.328,-285.202 327.928,-281.002"/>
<text text-anchor="middle" x="427" y="-409" font-family="Helvetica,sans-Serif" font-size="10.00"> offdiag</text>
<text text-anchor="middle" x="427" y="-397" font-family="Helvetica,sans-Serif" font-size="10.00">offset</text>
<text text-anchor="middle" x="427" y="-385" font-family="Helvetica,sans-Serif" font-size="10.00">diag</text>
</g>
<!-- Node16 -->
<g id="node15" class="node"><title>Node16</title>
<g id="a_node15"><a xlink:href="structCompass_1_1mag__state.html" target="_top" xlink:title=" ">
<polygon fill="white" stroke="black" points="473.756,-242 473.756,-262 584.244,-262 584.244,-242 473.756,-242"/>
<text text-anchor="middle" x="529" y="-248" font-family="Helvetica,sans-Serif" font-size="10.00">Compass::mag_state</text>
</a>
</g>
</g>
<!-- Node7&#45;&gt;Node16 -->
<g id="edge25" class="edge"><title>Node7&#45;&gt;Node16</title>
<path fill="none" stroke="#9a32cd" stroke-dasharray="5,2" d="M364.541,-261.838C397.62,-259.847 440.225,-257.283 473.644,-255.271"/>
<polygon fill="#9a32cd" stroke="#9a32cd" points="363.931,-258.368 354.16,-262.463 364.352,-265.355 363.931,-258.368"/>
<text text-anchor="middle" x="427" y="-286" font-family="Helvetica,sans-Serif" font-size="10.00"> accum</text>
<text text-anchor="middle" x="427" y="-274" font-family="Helvetica,sans-Serif" font-size="10.00">motor_offset</text>
<text text-anchor="middle" x="427" y="-262" font-family="Helvetica,sans-Serif" font-size="10.00">field</text>
</g>
<!-- Node8&#45;&gt;Node5 -->
<g id="edge7" class="edge"><title>Node8&#45;&gt;Node5</title>
<path fill="none" stroke="#9a32cd" stroke-dasharray="5,2" d="M978.039,-78.9147C1035.95,-76.3734 1118.37,-80.6664 1180,-116 1211.45,-134.035 1234.94,-171.917 1244.84,-189.992"/>
<polygon fill="#9a32cd" stroke="#9a32cd" points="977.689,-75.4281 967.884,-79.4411 978.051,-82.4187 977.689,-75.4281"/>
<text text-anchor="middle" x="1047" y="-91" font-family="Helvetica,sans-Serif" font-size="10.00"> new_sample</text>
</g>
<!-- Node9 -->
<g id="node8" class="node"><title>Node9</title>
<g id="a_node8"><a xlink:href="classMatrix3.html" target="_top" xlink:title=" ">
<polygon fill="white" stroke="black" points="731.112,-370 731.112,-390 802.888,-390 802.888,-370 731.112,-370"/>
<text text-anchor="middle" x="767" y="-376" font-family="Helvetica,sans-Serif" font-size="10.00">Matrix3&lt; T &gt;</text>
</a>
</g>
</g>
<!-- Node9&#45;&gt;Node4 -->
<g id="edge10" class="edge"><title>Node9&#45;&gt;Node4</title>
<path fill="none" stroke="#9a32cd" stroke-dasharray="5,2" d="M813.19,-375.427C853.756,-371.227 914.913,-364.662 968,-358 984.554,-355.923 1003.05,-353.327 1017.87,-351.179"/>
<polygon fill="#9a32cd" stroke="#9a32cd" points="812.671,-371.962 803.083,-376.469 813.389,-378.925 812.671,-371.962"/>
<text text-anchor="middle" x="907" y="-374" font-family="Helvetica,sans-Serif" font-size="10.00"> _custom_rotation</text>
</g>
<!-- Node10 -->
<g id="node9" class="node"><title>Node10</title>
<g id="a_node9"><a xlink:href="structAP__Param_1_1GroupInfo.html" target="_top" xlink:title=" ">
<polygon fill="white" stroke="black" points="709.808,-448 709.808,-468 824.192,-468 824.192,-448 709.808,-448"/>
<text text-anchor="middle" x="767" y="-454" font-family="Helvetica,sans-Serif" font-size="10.00">AP_Param::GroupInfo</text>
</a>
</g>
</g>
<!-- Node10&#45;&gt;Node4 -->
<g id="edge11" class="edge"><title>Node10&#45;&gt;Node4</title>
<path fill="none" stroke="#9a32cd" stroke-dasharray="5,2" d="M834.381,-450.194C887.899,-443.544 956.148,-434.119 968,-428 1000.79,-411.074 1027.68,-374.99 1039.51,-357.262"/>
<polygon fill="#9a32cd" stroke="#9a32cd" points="833.733,-446.747 824.236,-451.444 834.589,-453.695 833.733,-446.747"/>
<text text-anchor="middle" x="907" y="-450" font-family="Helvetica,sans-Serif" font-size="10.00"> var_info</text>
</g>
<!-- Node10&#45;&gt;Node10 -->
<g id="edge12" class="edge"><title>Node10&#45;&gt;Node10</title>
<path fill="none" stroke="#9a32cd" stroke-dasharray="5,2" d="M744.46,-477.562C746.083,-482.395 753.597,-486 767,-486 788.445,-486 794.812,-476.771 786.1,-468.048"/>
<polygon fill="#9a32cd" stroke="#9a32cd" points="747.792,-478.642 747.9,-468.048 741.209,-476.262 747.792,-478.642"/>
<text text-anchor="middle" x="767" y="-500" font-family="Helvetica,sans-Serif" font-size="10.00"> group_info_ptr</text>
<text text-anchor="middle" x="767" y="-488" font-family="Helvetica,sans-Serif" font-size="10.00">group_info</text>
</g>
<!-- Node10&#45;&gt;Node11 -->
<g id="edge15" class="edge"><title>Node10&#45;&gt;Node11</title>
<path fill="none" stroke="#9a32cd" stroke-dasharray="5,2" d="M834.526,-462.551C838.407,-462.728 842.253,-462.88 846,-463 972.561,-467.052 1121.49,-461.413 1198.33,-457.734"/>
<polygon fill="#9a32cd" stroke="#9a32cd" points="834.38,-459.04 824.217,-462.035 834.03,-466.031 834.38,-459.04"/>
<text text-anchor="middle" x="1047" y="-466" font-family="Helvetica,sans-Serif" font-size="10.00"> var_info</text>
</g>
<!-- Node11&#45;&gt;Node4 -->
<g id="edge14" class="edge"><title>Node11&#45;&gt;Node4</title>
<path fill="none" stroke="#9a32cd" stroke-dasharray="5,2" d="M1231.75,-437.853C1218.24,-425.821 1198.96,-409.982 1180,-399 1146.22,-379.433 1103.67,-364.162 1076.16,-355.368"/>
<polygon fill="#9a32cd" stroke="#9a32cd" points="1229.61,-440.638 1239.36,-444.776 1234.32,-435.459 1229.61,-440.638"/>
<text text-anchor="middle" x="1153" y="-401" font-family="Helvetica,sans-Serif" font-size="10.00"> _per_motor</text>
</g>
<!-- Node12 -->
<g id="node11" class="node"><title>Node12</title>
<g id="a_node11"><a xlink:href="classCompassCalibrator.html" target="_top" xlink:title=" ">
<polygon fill="white" stroke="black" points="716.207,-409 716.207,-429 817.793,-429 817.793,-409 716.207,-409"/>
<text text-anchor="middle" x="767" y="-415" font-family="Helvetica,sans-Serif" font-size="10.00">CompassCalibrator</text>
</a>
</g>
</g>
<!-- Node12&#45;&gt;Node4 -->
<g id="edge18" class="edge"><title>Node12&#45;&gt;Node4</title>
<path fill="none" stroke="#9a32cd" stroke-dasharray="5,2" d="M827.929,-414.905C868.305,-410.896 922.323,-403.079 968,-388 990.953,-380.423 1015.29,-366.581 1030.55,-357.094"/>
<polygon fill="#9a32cd" stroke="#9a32cd" points="827.598,-411.421 817.971,-415.845 828.255,-418.39 827.598,-411.421"/>
<text text-anchor="middle" x="907" y="-414" font-family="Helvetica,sans-Serif" font-size="10.00"> _calibrator</text>
</g>
<!-- Node13&#45;&gt;Node12 -->
<g id="edge19" class="edge"><title>Node13&#45;&gt;Node12</title>
<path fill="none" stroke="#9a32cd" stroke-dasharray="5,2" d="M592.741,-406.519C631.277,-409.295 679.971,-412.803 715.916,-415.392"/>
<polygon fill="#9a32cd" stroke="#9a32cd" points="592.895,-403.022 582.669,-405.794 592.392,-410.003 592.895,-403.022"/>
<text text-anchor="middle" x="645" y="-415" font-family="Helvetica,sans-Serif" font-size="10.00"> _params</text>
</g>
<!-- Node14 -->
<g id="node13" class="node"><title>Node14</title>
<g id="a_node13"><a xlink:href="classCompassCalibrator_1_1CompassSample.html" target="_top" xlink:title=" ">
<polygon fill="white" stroke="black" points="475.429,-576 475.429,-608 582.571,-608 582.571,-576 475.429,-576"/>
<text text-anchor="start" x="483.429" y="-594" font-family="Helvetica,sans-Serif" font-size="10.00">CompassCalibrator::</text>
<text text-anchor="middle" x="529" y="-582" font-family="Helvetica,sans-Serif" font-size="10.00">CompassSample</text>
</a>
</g>
</g>
<!-- Node14&#45;&gt;Node12 -->
<g id="edge21" class="edge"><title>Node14&#45;&gt;Node12</title>
<path fill="none" stroke="#9a32cd" stroke-dasharray="5,2" d="M551.276,-568.372C582.311,-535.196 643.174,-474.862 706,-439 712.866,-435.081 720.616,-431.784 728.209,-429.07"/>
<polygon fill="#9a32cd" stroke="#9a32cd" points="548.624,-566.084 544.401,-575.8 553.762,-570.838 548.624,-566.084"/>
<text text-anchor="middle" x="645" y="-517" font-family="Helvetica,sans-Serif" font-size="10.00"> _sample_buffer</text>
</g>
<!-- Node15 -->
<g id="node14" class="node"><title>Node15</title>
<g id="a_node14"><a xlink:href="classCompassCalibrator_1_1AttitudeSample.html" target="_top" xlink:title=" ">
<polygon fill="white" stroke="black" points="257.429,-576 257.429,-608 364.571,-608 364.571,-576 257.429,-576"/>
<text text-anchor="start" x="265.429" y="-594" font-family="Helvetica,sans-Serif" font-size="10.00">CompassCalibrator::</text>
<text text-anchor="middle" x="311" y="-582" font-family="Helvetica,sans-Serif" font-size="10.00">AttitudeSample</text>
</a>
</g>
</g>
<!-- Node15&#45;&gt;Node14 -->
<g id="edge22" class="edge"><title>Node15&#45;&gt;Node14</title>
<path fill="none" stroke="#9a32cd" stroke-dasharray="5,2" d="M374.943,-592C406.807,-592 445.046,-592 475.332,-592"/>
<polygon fill="#9a32cd" stroke="#9a32cd" points="374.84,-588.5 364.84,-592 374.84,-595.5 374.84,-588.5"/>
<text text-anchor="middle" x="427" y="-594" font-family="Helvetica,sans-Serif" font-size="10.00"> att</text>
</g>
<!-- Node16&#45;&gt;Node4 -->
<g id="edge24" class="edge"><title>Node16&#45;&gt;Node4</title>
<path fill="none" stroke="#9a32cd" stroke-dasharray="5,2" d="M594.378,-240.537C682.886,-227.862 845.139,-215.859 968,-271 1000.43,-285.554 1027.29,-319.719 1039.28,-336.842"/>
<polygon fill="#9a32cd" stroke="#9a32cd" points="593.86,-237.076 584.48,-242.002 594.885,-244 593.86,-237.076"/>
<text text-anchor="middle" x="767" y="-237" font-family="Helvetica,sans-Serif" font-size="10.00"> _state</text>
</g>
<!-- Node17 -->
<g id="node16" class="node"><title>Node17</title>
<g id="a_node16"><a xlink:href="classVector3.html" target="_top" xlink:title=" ">
<polygon fill="white" stroke="black" points="262.412,-111 262.412,-131 359.588,-131 359.588,-111 262.412,-111"/>
<text text-anchor="middle" x="311" y="-117" font-family="Helvetica,sans-Serif" font-size="10.00">Vector3&lt; int16_t &gt;</text>
</a>
</g>
</g>
<!-- Node17&#45;&gt;Node16 -->
<g id="edge26" class="edge"><title>Node17&#45;&gt;Node16</title>
<path fill="none" stroke="#9a32cd" stroke-dasharray="5,2" d="M367.807,-133.76C395.823,-141.847 429.372,-154.203 456,-172 485.051,-191.417 510.078,-225.154 521.459,-241.929"/>
<polygon fill="#9a32cd" stroke="#9a32cd" points="368.721,-130.382 358.149,-131.076 366.847,-137.126 368.721,-130.382"/>
<text text-anchor="middle" x="427" y="-174" font-family="Helvetica,sans-Serif" font-size="10.00"> mag_history</text>
</g>
<!-- Node18 -->
<g id="node17" class="node"><title>Node18</title>
<g id="a_node17"><a xlink:href="classAP__HAL_1_1OwnPtr.html" target="_top" xlink:title=" ">
<polygon fill="white" stroke="black" points="709.669,-23 709.669,-55 824.331,-55 824.331,-23 709.669,-23"/>
<text text-anchor="start" x="717.669" y="-41" font-family="Helvetica,sans-Serif" font-size="10.00">AP_HAL::OwnPtr&lt; AP</text>
<text text-anchor="middle" x="767" y="-29" font-family="Helvetica,sans-Serif" font-size="10.00">_HAL::Device &gt;</text>
</a>
</g>
</g>
<!-- Node18&#45;&gt;Node2 -->
<g id="edge28" class="edge"><title>Node18&#45;&gt;Node2</title>
<path fill="none" stroke="#9a32cd" stroke-dasharray="5,2" d="M834.631,-26.7539C876.962,-22.8179 930.624,-25.3986 968,-54 987.089,-68.6077 977.081,-82.6789 986,-105 1004.73,-151.866 1030.38,-206.396 1041.04,-228.699"/>
<polygon fill="#9a32cd" stroke="#9a32cd" points="834.255,-23.2741 824.683,-27.8162 834.998,-30.2346 834.255,-23.2741"/>
<text text-anchor="middle" x="907" y="-56" font-family="Helvetica,sans-Serif" font-size="10.00"> _dev</text>
</g>
<!-- Node19 -->
<g id="node18" class="node"><title>Node19</title>
<g id="a_node18"><a xlink:href="classAP__HAL_1_1Device.html" target="_top" xlink:title=" ">
<polygon fill="white" stroke="black" points="483.761,-27 483.761,-47 574.239,-47 574.239,-27 483.761,-27"/>
<text text-anchor="middle" x="529" y="-33" font-family="Helvetica,sans-Serif" font-size="10.00">AP_HAL::Device</text>
</a>
</g>
</g>
<!-- Node19&#45;&gt;Node18 -->
<g id="edge29" class="edge"><title>Node19&#45;&gt;Node18</title>
<path fill="none" stroke="#9a32cd" stroke-dasharray="5,2" d="M584.595,-37.4627C621.981,-37.7795 671.447,-38.1987 709.28,-38.5193"/>
<polygon fill="#9a32cd" stroke="#9a32cd" points="584.419,-33.9612 574.39,-37.3762 584.36,-40.9609 584.419,-33.9612"/>
<text text-anchor="middle" x="645" y="-41" font-family="Helvetica,sans-Serif" font-size="10.00"> _ptr</text>
</g>
<!-- Node20 -->
<g id="node19" class="node"><title>Node20</title>
<g id="a_node19"><a xlink:href="structAP__HAL_1_1Device_1_1checkreg.html" target="_top" xlink:title=" ">
<polygon fill="white" stroke="black" points="242.695,-0 242.695,-20 379.305,-20 379.305,-0 242.695,-0"/>
<text text-anchor="middle" x="311" y="-6" font-family="Helvetica,sans-Serif" font-size="10.00">AP_HAL::Device::checkreg</text>
</a>
</g>
</g>
<!-- Node20&#45;&gt;Node19 -->
<g id="edge30" class="edge"><title>Node20&#45;&gt;Node19</title>
<path fill="none" stroke="#9a32cd" stroke-dasharray="5,2" d="M389.548,-18.0269C411.088,-20.4168 434.472,-23.1607 456,-26 464.901,-27.1739 474.403,-28.5428 483.488,-29.9082"/>
<polygon fill="#9a32cd" stroke="#9a32cd" points="389.79,-14.5325 379.467,-16.9191 389.025,-21.4906 389.79,-14.5325"/>
<text text-anchor="middle" x="427" y="-28" font-family="Helvetica,sans-Serif" font-size="10.00"> regs</text>
</g>
<!-- Node21 -->
<g id="node20" class="node"><title>Node21</title>
<g id="a_node20"><a xlink:href="unionAP__HAL_1_1Device_1_1DeviceId.html" target="_top" xlink:title=" ">
<polygon fill="white" stroke="black" points="243.53,-39 243.53,-59 378.47,-59 378.47,-39 243.53,-39"/>
<text text-anchor="middle" x="311" y="-45" font-family="Helvetica,sans-Serif" font-size="10.00">AP_HAL::Device::DeviceId</text>
</a>
</g>
</g>
<!-- Node21&#45;&gt;Node19 -->
<g id="edge31" class="edge"><title>Node21&#45;&gt;Node19</title>
<path fill="none" stroke="#9a32cd" stroke-dasharray="5,2" d="M388.726,-44.7374C420.485,-42.9731 456.192,-40.9893 483.499,-39.4723"/>
<polygon fill="#9a32cd" stroke="#9a32cd" points="388.36,-41.2523 378.57,-45.3017 388.748,-48.2415 388.36,-41.2523"/>
<text text-anchor="middle" x="427" y="-47" font-family="Helvetica,sans-Serif" font-size="10.00"> _bus_id</text>
</g>
<!-- Node22 -->
<g id="node21" class="node"><title>Node22</title>
<g id="a_node21"><a xlink:href="structAP__HAL_1_1Device_1_1DeviceStructure.html" target="_top" xlink:title=" ">
<polygon fill="white" stroke="black" points="0.414062,-39 0.414062,-59 167.586,-59 167.586,-39 0.414062,-39"/>
<text text-anchor="middle" x="84" y="-45" font-family="Helvetica,sans-Serif" font-size="10.00">AP_HAL::Device::DeviceStructure</text>
</a>
</g>
</g>
<!-- Node22&#45;&gt;Node21 -->
<g id="edge32" class="edge"><title>Node22&#45;&gt;Node21</title>
<path fill="none" stroke="#9a32cd" stroke-dasharray="5,2" d="M177.856,-49C199.88,-49 222.94,-49 243.518,-49"/>
<polygon fill="#9a32cd" stroke="#9a32cd" points="177.823,-45.5001 167.823,-49 177.823,-52.5001 177.823,-45.5001"/>
<text text-anchor="middle" x="205" y="-51" font-family="Helvetica,sans-Serif" font-size="10.00"> devid_s</text>
</g>
</g>
</svg>
