<?xml version="1.0" encoding="UTF-8" standalone="no"?>
<!DOCTYPE svg PUBLIC "-//W3C//DTD SVG 1.1//EN"
 "http://www.w3.org/Graphics/SVG/1.1/DTD/svg11.dtd">
<!-- Generated by graphviz version 2.30.1 (20130221.2233)
 -->
<!-- Title: AP_Logger::dump_structures Pages: 1 -->
<svg width="510pt" height="67pt"
 viewBox="0.00 0.00 510.00 67.00" xmlns="http://www.w3.org/2000/svg" xmlns:xlink="http://www.w3.org/1999/xlink">
<g id="graph0" class="graph" transform="scale(1 1) rotate(0) translate(4 63)">
<title>AP_Logger::dump_structures</title>
<polygon fill="white" stroke="white" points="-4,5 -4,-63 507,-63 507,5 -4,5"/>
<!-- Node134 -->
<g id="node1" class="node"><title>Node134</title>
<g id="a_node1"><a xlink:title=" ">
<polygon fill="#bfbfbf" stroke="black" points="-0.0366211,-19 -0.0366211,-39 146.037,-39 146.037,-19 -0.0366211,-19"/>
<text text-anchor="middle" x="73" y="-25" font-family="Helvetica,sans-Serif" font-size="10.00">AP_Logger::dump_structures</text>
</a>
</g>
</g>
<!-- Node135 -->
<g id="node2" class="node"><title>Node135</title>
<g id="a_node2"><a xlink:href="classAP__Logger.html#a7b6a7e80bc9acd50a4f91fbb154481cf" target="_top" xlink:title="pretty&#45;print field information from a log structure">
<polygon fill="white" stroke="black" points="182.463,-13 182.463,-45 323.537,-45 323.537,-13 182.463,-13"/>
<text text-anchor="start" x="190.463" y="-31" font-family="Helvetica,sans-Serif" font-size="10.00">AP_Logger::dump_structure</text>
<text text-anchor="middle" x="253" y="-19" font-family="Helvetica,sans-Serif" font-size="10.00">_field</text>
</a>
</g>
</g>
<!-- Node134&#45;&gt;Node135 -->
<g id="edge1" class="edge"><title>Node134&#45;&gt;Node135</title>
<path fill="none" stroke="midnightblue" d="M146.143,-29C154.732,-29 163.538,-29 172.226,-29"/>
<polygon fill="midnightblue" stroke="midnightblue" points="172.35,-32.5001 182.35,-29 172.35,-25.5001 172.35,-32.5001"/>
</g>
<!-- Node136 -->
<g id="node3" class="node"><title>Node136</title>
<g id="a_node3"><a xlink:href="classAP__Logger.html#ab3a123347394dd2d54622ec119f6bca8" target="_top" xlink:title="return a unit name given its ID">
<polygon fill="white" stroke="black" points="371.853,-39 371.853,-59 490.147,-59 490.147,-39 371.853,-39"/>
<text text-anchor="middle" x="431" y="-45" font-family="Helvetica,sans-Serif" font-size="10.00">AP_Logger::unit_name</text>
</a>
</g>
</g>
<!-- Node135&#45;&gt;Node136 -->
<g id="edge2" class="edge"><title>Node135&#45;&gt;Node136</title>
<path fill="none" stroke="midnightblue" d="M323.56,-36.9045C336.021,-38.3205 348.998,-39.7952 361.431,-41.2081"/>
<polygon fill="midnightblue" stroke="midnightblue" points="361.392,-44.726 371.723,-42.3776 362.182,-37.7708 361.392,-44.726"/>
</g>
<!-- Node137 -->
<g id="node4" class="node"><title>Node137</title>
<g id="a_node4"><a xlink:href="classAP__Logger.html#a49bee3ce5428c02ade04bf9051ed6b3d" target="_top" xlink:title="return a multiplier value given its ID">
<polygon fill="white" stroke="black" points="359.909,-0 359.909,-20 502.091,-20 502.091,-0 359.909,-0"/>
<text text-anchor="middle" x="431" y="-6" font-family="Helvetica,sans-Serif" font-size="10.00">AP_Logger::multiplier_name</text>
</a>
</g>
</g>
<!-- Node135&#45;&gt;Node137 -->
<g id="edge3" class="edge"><title>Node135&#45;&gt;Node137</title>
<path fill="none" stroke="midnightblue" d="M323.56,-21.4907C332.123,-20.5662 340.931,-19.6154 349.638,-18.6755"/>
<polygon fill="midnightblue" stroke="midnightblue" points="350.226,-22.1324 359.792,-17.5793 349.474,-15.1729 350.226,-22.1324"/>
</g>
</g>
</svg>
