<?xml version="1.0" encoding="UTF-8" standalone="no"?>
<!DOCTYPE svg PUBLIC "-//W3C//DTD SVG 1.1//EN"
 "http://www.w3.org/Graphics/SVG/1.1/DTD/svg11.dtd">
<!-- Generated by graphviz version 2.30.1 (20130221.2233)
 -->
<!-- Title: AP_Mount_Alexmos::get_boardinfo Pages: 1 -->
<svg width="460pt" height="91pt"
 viewBox="0.00 0.00 460.00 91.00" xmlns="http://www.w3.org/2000/svg" xmlns:xlink="http://www.w3.org/1999/xlink">
<g id="graph0" class="graph" transform="scale(1 1) rotate(0) translate(4 87)">
<title>AP_Mount_Alexmos::get_boardinfo</title>
<polygon fill="white" stroke="white" points="-4,5 -4,-87 457,-87 457,5 -4,5"/>
<!-- Node14 -->
<g id="node1" class="node"><title>Node14</title>
<g id="a_node1"><a xlink:title=" ">
<polygon fill="#bfbfbf" stroke="black" points="-0.0292969,-25 -0.0292969,-57 126.029,-57 126.029,-25 -0.0292969,-25"/>
<text text-anchor="start" x="7.9707" y="-43" font-family="Helvetica,sans-Serif" font-size="10.00">AP_Mount_Alexmos::get</text>
<text text-anchor="middle" x="63" y="-31" font-family="Helvetica,sans-Serif" font-size="10.00">_boardinfo</text>
</a>
</g>
</g>
<!-- Node15 -->
<g id="node2" class="node"><title>Node15</title>
<g id="a_node2"><a xlink:href="classAP__Mount__Alexmos.html#aad80a69937fd3356ed8f2e338bde3605" target="_top" xlink:title=" ">
<polygon fill="white" stroke="black" points="162.079,-25 162.079,-57 295.921,-57 295.921,-25 162.079,-25"/>
<text text-anchor="start" x="170.079" y="-43" font-family="Helvetica,sans-Serif" font-size="10.00">AP_Mount_Alexmos::send</text>
<text text-anchor="middle" x="229" y="-31" font-family="Helvetica,sans-Serif" font-size="10.00">_command</text>
</a>
</g>
</g>
<!-- Node14&#45;&gt;Node15 -->
<g id="edge1" class="edge"><title>Node14&#45;&gt;Node15</title>
<path fill="none" stroke="midnightblue" d="M126.469,-41C134.707,-41 143.223,-41 151.659,-41"/>
<polygon fill="midnightblue" stroke="midnightblue" points="151.886,-44.5001 161.886,-41 151.886,-37.5001 151.886,-44.5001"/>
</g>
<!-- Node16 -->
<g id="node3" class="node"><title>Node16</title>
<g id="a_node3"><a xlink:href="classAP__HAL_1_1BetterStream.html#ab0193c7791fd95eb2bfbfd6597bdf6d8" target="_top" xlink:title=" ">
<polygon fill="white" stroke="black" points="332.589,-51 332.589,-83 451.411,-83 451.411,-51 332.589,-51"/>
<text text-anchor="start" x="340.589" y="-69" font-family="Helvetica,sans-Serif" font-size="10.00">AP_HAL::BetterStream</text>
<text text-anchor="middle" x="392" y="-57" font-family="Helvetica,sans-Serif" font-size="10.00">::txspace</text>
</a>
</g>
</g>
<!-- Node15&#45;&gt;Node16 -->
<g id="edge2" class="edge"><title>Node15&#45;&gt;Node16</title>
<path fill="none" stroke="midnightblue" d="M295.949,-51.6502C304.625,-53.0513 313.534,-54.49 322.256,-55.8984"/>
<polygon fill="midnightblue" stroke="midnightblue" points="321.951,-59.3946 332.382,-57.5337 323.067,-52.4841 321.951,-59.3946"/>
</g>
<!-- Node17 -->
<g id="node4" class="node"><title>Node17</title>
<g id="a_node4"><a xlink:href="classAP__HAL_1_1BetterStream.html#a915cc01273d4b418c2fb2989fb31a508" target="_top" xlink:title=" ">
<polygon fill="white" stroke="black" points="332.589,-0 332.589,-32 451.411,-32 451.411,-0 332.589,-0"/>
<text text-anchor="start" x="340.589" y="-18" font-family="Helvetica,sans-Serif" font-size="10.00">AP_HAL::BetterStream</text>
<text text-anchor="middle" x="392" y="-6" font-family="Helvetica,sans-Serif" font-size="10.00">::write</text>
</a>
</g>
</g>
<!-- Node15&#45;&gt;Node17 -->
<g id="edge3" class="edge"><title>Node15&#45;&gt;Node17</title>
<path fill="none" stroke="midnightblue" d="M295.949,-30.7594C304.625,-29.4122 313.534,-28.0288 322.256,-26.6746"/>
<polygon fill="midnightblue" stroke="midnightblue" points="323.037,-30.0953 332.382,-25.1022 321.963,-23.1782 323.037,-30.0953"/>
</g>
</g>
</svg>
