<?xml version="1.0" encoding="UTF-8" standalone="no"?>
<!DOCTYPE svg PUBLIC "-//W3C//DTD SVG 1.1//EN"
 "http://www.w3.org/Graphics/SVG/1.1/DTD/svg11.dtd">
<!-- Generated by graphviz version 2.30.1 (20130221.2233)
 -->
<!-- Title: NavEKF3_core::FuseAirspeed Pages: 1 -->
<svg width="1280pt" height="788pt"
 viewBox="0.00 0.00 1280.00 788.00" xmlns="http://www.w3.org/2000/svg" xmlns:xlink="http://www.w3.org/1999/xlink">
<g id="graph0" class="graph" transform="scale(1 1) rotate(0) translate(4 784)">
<title>NavEKF3_core::FuseAirspeed</title>
<polygon fill="white" stroke="white" points="-4,5 -4,-784 1277,-784 1277,5 -4,5"/>
<!-- Node859 -->
<g id="node1" class="node"><title>Node859</title>
<g id="a_node1"><a xlink:title=" ">
<polygon fill="#bfbfbf" stroke="black" points="0.468262,-266 0.468262,-286 151.532,-286 151.532,-266 0.468262,-266"/>
<text text-anchor="middle" x="76" y="-272" font-family="Helvetica,sans-Serif" font-size="10.00">NavEKF3_core::FuseAirspeed</text>
</a>
</g>
</g>
<!-- Node860 -->
<g id="node2" class="node"><title>Node860</title>
<g id="a_node2"><a xlink:href="classAP__HAL_1_1Util.html#a8ee016bee7e471240be5a2c648015a1d" target="_top" xlink:title=" ">
<polygon fill="white" stroke="black" points="219.429,-557 219.429,-589 316.571,-589 316.571,-557 219.429,-557"/>
<text text-anchor="start" x="227.429" y="-575" font-family="Helvetica,sans-Serif" font-size="10.00">AP_HAL::Util::perf</text>
<text text-anchor="middle" x="268" y="-563" font-family="Helvetica,sans-Serif" font-size="10.00">_begin</text>
</a>
</g>
</g>
<!-- Node859&#45;&gt;Node860 -->
<g id="edge1" class="edge"><title>Node859&#45;&gt;Node860</title>
<path fill="none" stroke="midnightblue" d="M78.1125,-286.047C83.0057,-325.416 106.158,-470.757 188,-547 194.227,-552.801 201.774,-557.309 209.703,-560.811"/>
<polygon fill="midnightblue" stroke="midnightblue" points="208.542,-564.115 219.13,-564.479 211.08,-557.592 208.542,-564.115"/>
</g>
<!-- Node861 -->
<g id="node3" class="node"><title>Node861</title>
<g id="a_node3"><a xlink:href="classAP__AHRS.html#a64786b58a1607ee420ed4f0696c755b6" target="_top" xlink:title=" ">
<polygon fill="white" stroke="black" points="202.007,-518 202.007,-538 333.993,-538 333.993,-518 202.007,-518"/>
<text text-anchor="middle" x="268" y="-524" font-family="Helvetica,sans-Serif" font-size="10.00">AP_AHRS::get_EAS2TAS</text>
</a>
</g>
</g>
<!-- Node859&#45;&gt;Node861 -->
<g id="edge2" class="edge"><title>Node859&#45;&gt;Node861</title>
<path fill="none" stroke="midnightblue" d="M81.0666,-286.138C93.5661,-316.438 133.877,-407.987 188,-469 203.336,-486.288 224.466,-501.75 241.015,-512.504"/>
<polygon fill="midnightblue" stroke="midnightblue" points="239.349,-515.591 249.672,-517.976 243.089,-509.674 239.349,-515.591"/>
</g>
<!-- Node870 -->
<g id="node12" class="node"><title>Node870</title>
<g id="a_node12"><a xlink:href="AP__Math_8h.html#a0375e3d67fd3911cacee5c3e1408c0f2" target="_top" xlink:title=" ">
<polygon fill="white" stroke="black" points="648.5,-362 648.5,-382 677.5,-382 677.5,-362 648.5,-362"/>
<text text-anchor="middle" x="663" y="-368" font-family="Helvetica,sans-Serif" font-size="10.00">sq</text>
</a>
</g>
</g>
<!-- Node859&#45;&gt;Node870 -->
<g id="edge14" class="edge"><title>Node859&#45;&gt;Node870</title>
<path fill="none" stroke="midnightblue" d="M92.9947,-286.123C114.086,-299.121 152.668,-321.7 188,-336 342.924,-398.7 393.577,-406.368 560,-391 587.188,-388.489 617.94,-382.291 638.503,-377.652"/>
<polygon fill="midnightblue" stroke="midnightblue" points="639.301,-381.06 648.255,-375.396 637.723,-374.24 639.301,-381.06"/>
</g>
<!-- Node871 -->
<g id="node13" class="node"><title>Node871</title>
<g id="a_node13"><a xlink:href="AP__Math_8h.html#ad525609d9dba6ffa556a0fbf08a3f9b4" target="_top" xlink:title=" ">
<polygon fill="white" stroke="black" points="622.48,-124 622.48,-144 703.52,-144 703.52,-124 622.48,-124"/>
<text text-anchor="middle" x="663" y="-130" font-family="Helvetica,sans-Serif" font-size="10.00">constrain_float</text>
</a>
</g>
</g>
<!-- Node859&#45;&gt;Node871 -->
<g id="edge15" class="edge"><title>Node859&#45;&gt;Node871</title>
<path fill="none" stroke="midnightblue" d="M85.6743,-265.935C103.048,-246.437 144.218,-203.462 188,-181 328.134,-109.105 522.116,-118.172 612.258,-127.527"/>
<polygon fill="midnightblue" stroke="midnightblue" points="612.147,-131.036 622.467,-128.635 612.903,-124.077 612.147,-131.036"/>
</g>
<!-- Node878 -->
<g id="node20" class="node"><title>Node878</title>
<g id="a_node20"><a xlink:href="AP__Math_8h.html#a45fe9f81332c93a04d1fdbcf0bc89c29" target="_top" xlink:title=" ">
<polygon fill="white" stroke="black" points="452.608,-362 452.608,-382 491.392,-382 491.392,-362 452.608,-362"/>
<text text-anchor="middle" x="472" y="-368" font-family="Helvetica,sans-Serif" font-size="10.00">norm</text>
</a>
</g>
</g>
<!-- Node859&#45;&gt;Node878 -->
<g id="edge22" class="edge"><title>Node859&#45;&gt;Node878</title>
<path fill="none" stroke="midnightblue" d="M118.05,-286.002C198.123,-305.512 373.348,-348.207 442.305,-365.008"/>
<polygon fill="midnightblue" stroke="midnightblue" points="441.884,-368.508 452.428,-367.475 443.541,-361.707 441.884,-368.508"/>
</g>
<!-- Node879 -->
<g id="node21" class="node"><title>Node879</title>
<g id="a_node21"><a xlink:href="classNavEKF3__core.html#a4f27a74890ed2b37858a754a05c8fc5b" target="_top" xlink:title=" ">
<polygon fill="white" stroke="black" points="191.357,-266 191.357,-286 344.643,-286 344.643,-266 191.357,-266"/>
<text text-anchor="middle" x="268" y="-272" font-family="Helvetica,sans-Serif" font-size="10.00">NavEKF3_core::CovarianceInit</text>
</a>
</g>
</g>
<!-- Node859&#45;&gt;Node879 -->
<g id="edge24" class="edge"><title>Node859&#45;&gt;Node879</title>
<path fill="none" stroke="midnightblue" d="M151.548,-276C161.193,-276 171.133,-276 180.945,-276"/>
<polygon fill="midnightblue" stroke="midnightblue" points="181.106,-279.5 191.106,-276 181.106,-272.5 181.106,-279.5"/>
</g>
<!-- Node885 -->
<g id="node27" class="node"><title>Node885</title>
<g id="a_node27"><a xlink:href="AP__Math_8h.html#a5abc8871f1e7781a55afe9bf299f0a39" target="_top" xlink:title=" ">
<polygon fill="white" stroke="black" points="249.165,-78 249.165,-98 286.835,-98 286.835,-78 249.165,-78"/>
<text text-anchor="middle" x="268" y="-84" font-family="Helvetica,sans-Serif" font-size="10.00">MAX</text>
</a>
</g>
</g>
<!-- Node859&#45;&gt;Node885 -->
<g id="edge31" class="edge"><title>Node859&#45;&gt;Node885</title>
<path fill="none" stroke="midnightblue" d="M81.0456,-265.854C92.9374,-237.328 130.594,-155.716 188,-113 202.958,-101.869 223.02,-95.6012 239.183,-92.1249"/>
<polygon fill="midnightblue" stroke="midnightblue" points="239.984,-95.5354 249.149,-90.2207 238.67,-88.6598 239.984,-95.5354"/>
</g>
<!-- Node886 -->
<g id="node28" class="node"><title>Node886</title>
<g id="a_node28"><a xlink:href="classQuaternion.html#a48e6bafb249c895ed25f29dc9170e11e" target="_top" xlink:title=" ">
<polygon fill="white" stroke="black" points="210.808,-440 210.808,-460 325.192,-460 325.192,-440 210.808,-440"/>
<text text-anchor="middle" x="268" y="-446" font-family="Helvetica,sans-Serif" font-size="10.00">Quaternion::normalize</text>
</a>
</g>
</g>
<!-- Node859&#45;&gt;Node886 -->
<g id="edge32" class="edge"><title>Node859&#45;&gt;Node886</title>
<path fill="none" stroke="midnightblue" d="M81.6638,-286.032C94.5996,-312.759 133.598,-386.284 188,-425 194.428,-429.575 201.728,-433.336 209.23,-436.424"/>
<polygon fill="midnightblue" stroke="midnightblue" points="208.199,-439.775 218.792,-439.984 210.642,-433.215 208.199,-439.775"/>
</g>
<!-- Node888 -->
<g id="node30" class="node"><title>Node888</title>
<g id="a_node30"><a xlink:href="classNavEKF3__core.html#a2556bcc515c1a4f63c5dbd57ae97f648" target="_top" xlink:title=" ">
<polygon fill="white" stroke="black" points="188.037,-39 188.037,-59 347.963,-59 347.963,-39 188.037,-39"/>
<text text-anchor="middle" x="268" y="-45" font-family="Helvetica,sans-Serif" font-size="10.00">NavEKF3_core::ForceSymmetry</text>
</a>
</g>
</g>
<!-- Node859&#45;&gt;Node888 -->
<g id="edge36" class="edge"><title>Node859&#45;&gt;Node888</title>
<path fill="none" stroke="midnightblue" d="M79.2728,-265.846C87.4098,-231.955 118.387,-121.838 188,-68 190.05,-66.4142 192.213,-64.9582 194.462,-63.6215"/>
<polygon fill="midnightblue" stroke="midnightblue" points="196.171,-66.6796 203.506,-59.0351 193.005,-60.4365 196.171,-66.6796"/>
</g>
<!-- Node889 -->
<g id="node31" class="node"><title>Node889</title>
<g id="a_node31"><a xlink:href="classNavEKF3__core.html#ad090381daa81e51181ea6254e01af75b" target="_top" xlink:title=" ">
<polygon fill="white" stroke="black" points="384.054,-143 384.054,-163 559.946,-163 559.946,-143 384.054,-143"/>
<text text-anchor="middle" x="472" y="-149" font-family="Helvetica,sans-Serif" font-size="10.00">NavEKF3_core::ConstrainVariances</text>
</a>
</g>
</g>
<!-- Node859&#45;&gt;Node889 -->
<g id="edge37" class="edge"><title>Node859&#45;&gt;Node889</title>
<path fill="none" stroke="midnightblue" d="M103.381,-265.947C156.114,-246.102 278.537,-201.281 384,-172 392.55,-169.626 401.64,-167.361 410.598,-165.277"/>
<polygon fill="midnightblue" stroke="midnightblue" points="411.641,-168.629 420.619,-163.003 410.092,-161.802 411.641,-168.629"/>
</g>
<!-- Node890 -->
<g id="node32" class="node"><title>Node890</title>
<g id="a_node32"><a xlink:href="classAP__HAL_1_1Util.html#a831bf144a4d14d413bd1c98b96dc35cb" target="_top" xlink:title=" ">
<polygon fill="white" stroke="black" points="208.306,-0 208.306,-20 327.694,-20 327.694,-0 208.306,-0"/>
<text text-anchor="middle" x="268" y="-6" font-family="Helvetica,sans-Serif" font-size="10.00">AP_HAL::Util::perf_end</text>
</a>
</g>
</g>
<!-- Node859&#45;&gt;Node890 -->
<g id="edge42" class="edge"><title>Node859&#45;&gt;Node890</title>
<path fill="none" stroke="midnightblue" d="M78.3571,-265.873C83.9701,-228.145 108.921,-94.5643 188,-29 191.299,-26.2652 194.927,-23.9119 198.759,-21.888"/>
<polygon fill="midnightblue" stroke="midnightblue" points="200.322,-25.0232 208.016,-17.7391 197.459,-18.6355 200.322,-25.0232"/>
</g>
<!-- Node862 -->
<g id="node4" class="node"><title>Node862</title>
<g id="a_node4"><a xlink:href="namespaceAP.html#a8aec57eb0b7a79044cbc1f0ca4b75bcf" target="_top" xlink:title=" ">
<polygon fill="white" stroke="black" points="444.544,-706 444.544,-726 499.456,-726 499.456,-706 444.544,-706"/>
<text text-anchor="middle" x="472" y="-712" font-family="Helvetica,sans-Serif" font-size="10.00">AP::baro</text>
</a>
</g>
</g>
<!-- Node861&#45;&gt;Node862 -->
<g id="edge3" class="edge"><title>Node861&#45;&gt;Node862</title>
<path fill="none" stroke="midnightblue" d="M330.483,-538.076C336.758,-540.672 342.746,-543.925 348,-548 374.402,-568.478 365.057,-586.475 384,-614 405.803,-645.681 435.705,-678.958 454.168,-698.573"/>
<polygon fill="midnightblue" stroke="midnightblue" points="451.67,-701.026 461.097,-705.863 456.744,-696.203 451.67,-701.026"/>
</g>
<!-- Node864 -->
<g id="node6" class="node"><title>Node864</title>
<g id="a_node6"><a xlink:href="classAP__Baro.html#a0115c37618652051c1f6efd072fcc74b" target="_top" xlink:title=" ">
<polygon fill="white" stroke="black" points="409.337,-585 409.337,-605 534.663,-605 534.663,-585 409.337,-585"/>
<text text-anchor="middle" x="472" y="-591" font-family="Helvetica,sans-Serif" font-size="10.00">AP_Baro::get_EAS2TAS</text>
</a>
</g>
</g>
<!-- Node861&#45;&gt;Node864 -->
<g id="edge5" class="edge"><title>Node861&#45;&gt;Node864</title>
<path fill="none" stroke="midnightblue" d="M312.721,-538.098C324.269,-541.029 336.669,-544.415 348,-548 378.841,-557.759 413.167,-571.09 437.704,-581.062"/>
<polygon fill="midnightblue" stroke="midnightblue" points="436.673,-584.421 447.253,-584.974 439.326,-577.944 436.673,-584.421"/>
</g>
<!-- Node863 -->
<g id="node5" class="node"><title>Node863</title>
<g id="a_node5"><a xlink:href="classAP__Baro.html#a92b0efed71f214529da6c54d692f1d61" target="_top" xlink:title=" ">
<polygon fill="white" stroke="black" points="602.463,-760 602.463,-780 723.537,-780 723.537,-760 602.463,-760"/>
<text text-anchor="middle" x="663" y="-766" font-family="Helvetica,sans-Serif" font-size="10.00">AP_Baro::get_singleton</text>
</a>
</g>
</g>
<!-- Node862&#45;&gt;Node863 -->
<g id="edge4" class="edge"><title>Node862&#45;&gt;Node863</title>
<path fill="none" stroke="midnightblue" d="M499.678,-723.622C530.092,-732.312 580.316,-746.662 616.855,-757.101"/>
<polygon fill="midnightblue" stroke="midnightblue" points="616.193,-760.552 626.77,-759.934 618.116,-753.822 616.193,-760.552"/>
</g>
<!-- Node865 -->
<g id="node7" class="node"><title>Node865</title>
<g id="a_node7"><a xlink:href="classAP__Baro.html#a50ae73cce1699d88638e3dfab4ffd330" target="_top" xlink:title=" ">
<polygon fill="white" stroke="black" points="606.355,-613 606.355,-633 719.645,-633 719.645,-613 606.355,-613"/>
<text text-anchor="middle" x="663" y="-619" font-family="Helvetica,sans-Serif" font-size="10.00">AP_Baro::get_altitude</text>
</a>
</g>
</g>
<!-- Node864&#45;&gt;Node865 -->
<g id="edge6" class="edge"><title>Node864&#45;&gt;Node865</title>
<path fill="none" stroke="midnightblue" d="M534.886,-604.168C554.502,-607.074 576.256,-610.297 596.141,-613.243"/>
<polygon fill="midnightblue" stroke="midnightblue" points="595.636,-616.706 606.041,-614.71 596.662,-609.782 595.636,-616.706"/>
</g>
<!-- Node866 -->
<g id="node8" class="node"><title>Node866</title>
<g id="a_node8"><a xlink:href="AP__Math_8h.html#a2a12cce483e9b870da70d30406d82c60" target="_top" xlink:title=" ">
<polygon fill="white" stroke="black" points="784.882,-517 784.882,-537 833.118,-537 833.118,-517 784.882,-517"/>
<text text-anchor="middle" x="809" y="-523" font-family="Helvetica,sans-Serif" font-size="10.00">is_zero</text>
</a>
</g>
</g>
<!-- Node864&#45;&gt;Node866 -->
<g id="edge8" class="edge"><title>Node864&#45;&gt;Node866</title>
<path fill="none" stroke="midnightblue" d="M493.757,-584.835C517.76,-573.574 558.754,-555.841 596,-547 657.877,-532.312 732.323,-528.333 774.505,-527.303"/>
<polygon fill="midnightblue" stroke="midnightblue" points="774.831,-530.797 784.758,-527.096 774.689,-523.799 774.831,-530.797"/>
</g>
<!-- Node867 -->
<g id="node9" class="node"><title>Node867</title>
<g id="a_node9"><a xlink:href="classAP__Baro.html#a932c39564d42db7594dc132eb6703919" target="_top" xlink:title=" ">
<polygon fill="white" stroke="black" points="606.909,-709 606.909,-741 719.091,-741 719.091,-709 606.909,-709"/>
<text text-anchor="start" x="614.909" y="-727" font-family="Helvetica,sans-Serif" font-size="10.00">AP_Baro::get_ground</text>
<text text-anchor="middle" x="663" y="-715" font-family="Helvetica,sans-Serif" font-size="10.00">_temperature</text>
</a>
</g>
</g>
<!-- Node864&#45;&gt;Node867 -->
<g id="edge9" class="edge"><title>Node864&#45;&gt;Node867</title>
<path fill="none" stroke="midnightblue" d="M482.649,-605.136C502.325,-625.328 549.189,-671.03 596,-699 599.353,-701.004 602.889,-702.91 606.51,-704.712"/>
<polygon fill="midnightblue" stroke="midnightblue" points="605.091,-707.912 615.632,-708.974 608.054,-701.57 605.091,-707.912"/>
</g>
<!-- Node868 -->
<g id="node10" class="node"><title>Node868</title>
<g id="a_node10"><a xlink:href="classAP__Baro.html#a41b3c00624c78b883413b53fc5a81a32" target="_top" xlink:title=" ">
<polygon fill="white" stroke="black" points="603.025,-556 603.025,-576 722.975,-576 722.975,-556 603.025,-556"/>
<text text-anchor="middle" x="663" y="-562" font-family="Helvetica,sans-Serif" font-size="10.00">AP_Baro::get_pressure</text>
</a>
</g>
</g>
<!-- Node864&#45;&gt;Node868 -->
<g id="edge11" class="edge"><title>Node864&#45;&gt;Node868</title>
<path fill="none" stroke="midnightblue" d="M534.886,-585.504C553.411,-582.662 573.842,-579.527 592.805,-576.617"/>
<polygon fill="midnightblue" stroke="midnightblue" points="593.514,-580.049 602.867,-575.073 592.452,-573.13 593.514,-580.049"/>
</g>
<!-- Node869 -->
<g id="node11" class="node"><title>Node869</title>
<g id="a_node11"><a xlink:href="AP__Math_8h.html#a4e3ae698e8f99cec214348ad233e3c41" target="_top" xlink:title=" ">
<polygon fill="white" stroke="black" points="631.655,-670 631.655,-690 694.345,-690 694.345,-670 631.655,-670"/>
<text text-anchor="middle" x="663" y="-676" font-family="Helvetica,sans-Serif" font-size="10.00">is_positive</text>
</a>
</g>
</g>
<!-- Node864&#45;&gt;Node869 -->
<g id="edge13" class="edge"><title>Node864&#45;&gt;Node869</title>
<path fill="none" stroke="midnightblue" d="M489.615,-605.104C512.799,-618.891 556.463,-643.739 596,-660 604.118,-663.339 612.999,-666.405 621.54,-669.082"/>
<polygon fill="midnightblue" stroke="midnightblue" points="620.761,-672.502 631.345,-672.038 622.781,-665.8 620.761,-672.502"/>
</g>
<!-- Node865&#45;&gt;Node865 -->
<g id="edge7" class="edge"><title>Node865&#45;&gt;Node865</title>
<path fill="none" stroke="midnightblue" d="M640.143,-633.048C629.717,-641.771 637.336,-651 663,-651 679.441,-651 688.476,-647.213 690.106,-642.197"/>
<polygon fill="midnightblue" stroke="midnightblue" points="693.244,-640.643 685.857,-633.048 686.895,-643.592 693.244,-640.643"/>
</g>
<!-- Node867&#45;&gt;Node866 -->
<g id="edge10" class="edge"><title>Node867&#45;&gt;Node866</title>
<path fill="none" stroke="midnightblue" d="M716.414,-708.91C721.34,-706.098 725.984,-702.819 730,-699 775.028,-656.19 796.133,-582.517 804.059,-547.127"/>
<polygon fill="midnightblue" stroke="midnightblue" points="807.541,-547.577 806.183,-537.069 800.692,-546.13 807.541,-547.577"/>
</g>
<!-- Node868&#45;&gt;Node868 -->
<g id="edge12" class="edge"><title>Node868&#45;&gt;Node868</title>
<path fill="none" stroke="midnightblue" d="M640.143,-576.048C629.717,-584.771 637.336,-594 663,-594 679.441,-594 688.476,-590.213 690.106,-585.197"/>
<polygon fill="midnightblue" stroke="midnightblue" points="693.244,-583.643 685.857,-576.048 686.895,-586.592 693.244,-583.643"/>
</g>
<!-- Node872 -->
<g id="node14" class="node"><title>Node872</title>
<g id="a_node14"><a xlink:href="AP__Math_8h.html#a20e8f8671c282c69c1954652b6d61585" target="_top" xlink:title=" ">
<polygon fill="white" stroke="black" points="765.978,-124 765.978,-144 852.022,-144 852.022,-124 765.978,-124"/>
<text text-anchor="middle" x="809" y="-130" font-family="Helvetica,sans-Serif" font-size="10.00">constrain_value</text>
</a>
</g>
</g>
<!-- Node871&#45;&gt;Node872 -->
<g id="edge16" class="edge"><title>Node871&#45;&gt;Node872</title>
<path fill="none" stroke="midnightblue" d="M703.73,-134C719.724,-134 738.397,-134 755.486,-134"/>
<polygon fill="midnightblue" stroke="midnightblue" points="755.883,-137.5 765.883,-134 755.883,-130.5 755.883,-137.5"/>
</g>
<!-- Node873 -->
<g id="node15" class="node"><title>Node873</title>
<g id="a_node15"><a xlink:href="namespaceAP.html#afceb236ff617aaaa2b08afacd72532b0" target="_top" xlink:title=" ">
<polygon fill="white" stroke="black" points="902.596,-144 902.596,-164 991.404,-164 991.404,-144 902.596,-144"/>
<text text-anchor="middle" x="947" y="-150" font-family="Helvetica,sans-Serif" font-size="10.00">AP::internalerror</text>
</a>
</g>
</g>
<!-- Node872&#45;&gt;Node873 -->
<g id="edge17" class="edge"><title>Node872&#45;&gt;Node873</title>
<path fill="none" stroke="midnightblue" d="M852.286,-140.218C864.962,-142.083 879.035,-144.152 892.342,-146.109"/>
<polygon fill="midnightblue" stroke="midnightblue" points="891.929,-149.586 902.331,-147.578 892.947,-142.66 891.929,-149.586"/>
</g>
<!-- Node874 -->
<g id="node16" class="node"><title>Node874</title>
<g id="a_node16"><a xlink:href="classAP__InternalError.html#ab34174ba770b976b39a18c2b23e854f2" target="_top" xlink:title=" ">
<polygon fill="white" stroke="black" points="888.426,-105 888.426,-125 1005.57,-125 1005.57,-105 888.426,-105"/>
<text text-anchor="middle" x="947" y="-111" font-family="Helvetica,sans-Serif" font-size="10.00">AP_InternalError::error</text>
</a>
</g>
</g>
<!-- Node872&#45;&gt;Node874 -->
<g id="edge18" class="edge"><title>Node872&#45;&gt;Node874</title>
<path fill="none" stroke="midnightblue" d="M852.286,-128.092C860.557,-126.937 869.424,-125.698 878.284,-124.46"/>
<polygon fill="midnightblue" stroke="midnightblue" points="878.833,-127.918 888.253,-123.068 877.865,-120.985 878.833,-127.918"/>
</g>
<!-- Node875 -->
<g id="node17" class="node"><title>Node875</title>
<g id="a_node17"><a xlink:href="namespaceAP__HAL.html#a71832f03d849a0c088f04fc98d3c8143" target="_top" xlink:title=" ">
<polygon fill="white" stroke="black" points="1042.09,-105 1042.09,-125 1125.91,-125 1125.91,-105 1042.09,-105"/>
<text text-anchor="middle" x="1084" y="-111" font-family="Helvetica,sans-Serif" font-size="10.00">AP_HAL::panic</text>
</a>
</g>
</g>
<!-- Node874&#45;&gt;Node875 -->
<g id="edge19" class="edge"><title>Node874&#45;&gt;Node875</title>
<path fill="none" stroke="midnightblue" d="M1005.64,-115C1014.31,-115 1023.19,-115 1031.7,-115"/>
<polygon fill="midnightblue" stroke="midnightblue" points="1031.87,-118.5 1041.87,-115 1031.87,-111.5 1031.87,-118.5"/>
</g>
<!-- Node876 -->
<g id="node18" class="node"><title>Node876</title>
<g id="a_node18"><a xlink:href="stdio_8h.html#aae132cc6af1eb6cf43bf011d8d63e854" target="_top" xlink:title=" ">
<polygon fill="white" stroke="black" points="1195.38,-128 1195.38,-148 1238.62,-148 1238.62,-128 1195.38,-128"/>
<text text-anchor="middle" x="1217" y="-134" font-family="Helvetica,sans-Serif" font-size="10.00">vprintf</text>
</a>
</g>
</g>
<!-- Node875&#45;&gt;Node876 -->
<g id="edge20" class="edge"><title>Node875&#45;&gt;Node876</title>
<path fill="none" stroke="midnightblue" d="M1126.09,-122.214C1145.1,-125.553 1167.32,-129.453 1184.91,-132.542"/>
<polygon fill="midnightblue" stroke="midnightblue" points="1184.74,-136.066 1195.2,-134.348 1185.95,-129.171 1184.74,-136.066"/>
</g>
<!-- Node877 -->
<g id="node19" class="node"><title>Node877</title>
<g id="a_node19"><a xlink:href="classAP__HAL_1_1Scheduler.html#a78c4f1b1f192ac1c99544b6cc8f099b0" target="_top" xlink:title=" ">
<polygon fill="white" stroke="black" points="1161.75,-77 1161.75,-109 1272.25,-109 1272.25,-77 1161.75,-77"/>
<text text-anchor="start" x="1169.75" y="-95" font-family="Helvetica,sans-Serif" font-size="10.00">AP_HAL::Scheduler::</text>
<text text-anchor="middle" x="1217" y="-83" font-family="Helvetica,sans-Serif" font-size="10.00">delay_microseconds</text>
</a>
</g>
</g>
<!-- Node875&#45;&gt;Node877 -->
<g id="edge21" class="edge"><title>Node875&#45;&gt;Node877</title>
<path fill="none" stroke="midnightblue" d="M1126.09,-108.099C1134.18,-106.741 1142.85,-105.285 1151.5,-103.833"/>
<polygon fill="midnightblue" stroke="midnightblue" points="1152.32,-107.244 1161.6,-102.136 1151.16,-100.341 1152.32,-107.244"/>
</g>
<!-- Node878&#45;&gt;Node870 -->
<g id="edge23" class="edge"><title>Node878&#45;&gt;Node870</title>
<path fill="none" stroke="midnightblue" d="M491.466,-372C525.959,-372 600.124,-372 638.27,-372"/>
<polygon fill="midnightblue" stroke="midnightblue" points="638.441,-375.5 648.441,-372 638.441,-368.5 638.441,-375.5"/>
</g>
<!-- Node879&#45;&gt;Node870 -->
<g id="edge25" class="edge"><title>Node879&#45;&gt;Node870</title>
<path fill="none" stroke="midnightblue" d="M303.341,-286.012C317.255,-290.178 333.445,-295.165 348,-300 364.144,-305.363 367.641,-308.334 384,-313 432.363,-326.794 579.993,-356.033 638.121,-367.371"/>
<polygon fill="midnightblue" stroke="midnightblue" points="637.71,-370.857 648.194,-369.332 639.047,-363.986 637.71,-370.857"/>
</g>
<!-- Node880 -->
<g id="node22" class="node"><title>Node880</title>
<g id="a_node22"><a xlink:href="classNavEKF3__core.html#a9bb44692c2b0233ac003e232803c38fe" target="_top" xlink:title=" ">
<polygon fill="white" stroke="black" points="409.532,-221 409.532,-253 534.468,-253 534.468,-221 409.532,-221"/>
<text text-anchor="start" x="417.532" y="-239" font-family="Helvetica,sans-Serif" font-size="10.00">NavEKF3_core::initialise</text>
<text text-anchor="middle" x="472" y="-227" font-family="Helvetica,sans-Serif" font-size="10.00">QuatCovariances</text>
</a>
</g>
</g>
<!-- Node879&#45;&gt;Node880 -->
<g id="edge26" class="edge"><title>Node879&#45;&gt;Node880</title>
<path fill="none" stroke="midnightblue" d="M321.02,-265.957C344.859,-261.354 373.501,-255.824 399.338,-250.836"/>
<polygon fill="midnightblue" stroke="midnightblue" points="400.306,-254.214 409.461,-248.881 398.979,-247.34 400.306,-254.214"/>
</g>
<!-- Node883 -->
<g id="node25" class="node"><title>Node883</title>
<g id="a_node25"><a xlink:href="AP__Math_8h.html#a37d7c62a8231d9d22826261297b99da4" target="_top" xlink:title=" ">
<polygon fill="white" stroke="black" points="447.601,-182 447.601,-202 496.399,-202 496.399,-182 447.601,-182"/>
<text text-anchor="middle" x="472" y="-188" font-family="Helvetica,sans-Serif" font-size="10.00">radians</text>
</a>
</g>
</g>
<!-- Node879&#45;&gt;Node883 -->
<g id="edge29" class="edge"><title>Node879&#45;&gt;Node883</title>
<path fill="none" stroke="midnightblue" d="M283.545,-265.87C304.705,-251.588 345.649,-225.643 384,-211 401.061,-204.486 420.901,-199.938 437.322,-196.929"/>
<polygon fill="midnightblue" stroke="midnightblue" points="438.295,-200.313 447.556,-195.168 437.108,-193.414 438.295,-200.313"/>
</g>
<!-- Node884 -->
<g id="node26" class="node"><title>Node884</title>
<g id="a_node26"><a xlink:href="classNavEKF3__core.html#a96917982439240a9fedada4c97345044" target="_top" xlink:title=" ">
<polygon fill="white" stroke="black" points="404.811,-272 404.811,-304 539.189,-304 539.189,-272 404.811,-272"/>
<text text-anchor="start" x="412.811" y="-290" font-family="Helvetica,sans-Serif" font-size="10.00">NavEKF3_core::InitialGyro</text>
<text text-anchor="middle" x="472" y="-278" font-family="Helvetica,sans-Serif" font-size="10.00">BiasUncertainty</text>
</a>
</g>
</g>
<!-- Node879&#45;&gt;Node884 -->
<g id="edge30" class="edge"><title>Node879&#45;&gt;Node884</title>
<path fill="none" stroke="midnightblue" d="M344.792,-280.502C361.109,-281.472 378.363,-282.497 394.699,-283.467"/>
<polygon fill="midnightblue" stroke="midnightblue" points="394.545,-286.964 404.735,-284.063 394.96,-279.977 394.545,-286.964"/>
</g>
<!-- Node881 -->
<g id="node23" class="node"><title>Node881</title>
<g id="a_node23"><a xlink:href="classNavEKF3__core.html#a60c1c2314069524260554d324819058a" target="_top" xlink:title=" ">
<polygon fill="white" stroke="black" points="596.089,-174 596.089,-194 729.911,-194 729.911,-174 596.089,-174"/>
<text text-anchor="middle" x="663" y="-180" font-family="Helvetica,sans-Serif" font-size="10.00">NavEKF3_core::zeroRows</text>
</a>
</g>
</g>
<!-- Node880&#45;&gt;Node881 -->
<g id="edge27" class="edge"><title>Node880&#45;&gt;Node881</title>
<path fill="none" stroke="midnightblue" d="M530.219,-220.954C557.747,-213.235 590.301,-204.106 616.166,-196.853"/>
<polygon fill="midnightblue" stroke="midnightblue" points="617.401,-200.142 626.085,-194.071 615.511,-193.402 617.401,-200.142"/>
</g>
<!-- Node882 -->
<g id="node24" class="node"><title>Node882</title>
<g id="a_node24"><a xlink:href="classNavEKF3__core.html#a668056e5b2efae63163fc41aa7b7b1fd" target="_top" xlink:title=" ">
<polygon fill="white" stroke="black" points="598.589,-216 598.589,-236 727.411,-236 727.411,-216 598.589,-216"/>
<text text-anchor="middle" x="663" y="-222" font-family="Helvetica,sans-Serif" font-size="10.00">NavEKF3_core::zeroCols</text>
</a>
</g>
</g>
<!-- Node880&#45;&gt;Node882 -->
<g id="edge28" class="edge"><title>Node880&#45;&gt;Node882</title>
<path fill="none" stroke="midnightblue" d="M534.624,-233.413C551.734,-232.418 570.485,-231.326 588.214,-230.294"/>
<polygon fill="midnightblue" stroke="midnightblue" points="588.735,-233.77 598.514,-229.695 588.328,-226.782 588.735,-233.77"/>
</g>
<!-- Node887 -->
<g id="node29" class="node"><title>Node887</title>
<g id="a_node29"><a xlink:href="classQuaternion.html#a8f414875fdf99c0da07cbbc721787cd2" target="_top" xlink:title=" ">
<polygon fill="white" stroke="black" points="422.86,-440 422.86,-460 521.14,-460 521.14,-440 422.86,-440"/>
<text text-anchor="middle" x="472" y="-446" font-family="Helvetica,sans-Serif" font-size="10.00">Quaternion::length</text>
</a>
</g>
</g>
<!-- Node886&#45;&gt;Node887 -->
<g id="edge33" class="edge"><title>Node886&#45;&gt;Node887</title>
<path fill="none" stroke="midnightblue" d="M325.268,-450C352.389,-450 384.902,-450 412.331,-450"/>
<polygon fill="midnightblue" stroke="midnightblue" points="412.572,-453.5 422.572,-450 412.572,-446.5 412.572,-453.5"/>
</g>
<!-- Node886&#45;&gt;Node866 -->
<g id="edge35" class="edge"><title>Node886&#45;&gt;Node866</title>
<path fill="none" stroke="midnightblue" d="M325.396,-459.638C344.036,-462.738 364.891,-466.115 384,-469 528.995,-490.891 702.439,-513.502 774.282,-522.711"/>
<polygon fill="midnightblue" stroke="midnightblue" points="774.162,-526.224 784.525,-524.022 775.05,-519.281 774.162,-526.224"/>
</g>
<!-- Node887&#45;&gt;Node870 -->
<g id="edge34" class="edge"><title>Node887&#45;&gt;Node870</title>
<path fill="none" stroke="midnightblue" d="M514.284,-439.95C528.935,-435.91 545.403,-430.822 560,-425 588.324,-413.703 619.175,-397.01 639.445,-385.387"/>
<polygon fill="midnightblue" stroke="midnightblue" points="641.337,-388.336 648.228,-380.288 637.822,-382.282 641.337,-388.336"/>
</g>
<!-- Node889&#45;&gt;Node871 -->
<g id="edge38" class="edge"><title>Node889&#45;&gt;Node871</title>
<path fill="none" stroke="midnightblue" d="M560.032,-144.251C577.834,-142.461 595.991,-140.636 611.957,-139.031"/>
<polygon fill="midnightblue" stroke="midnightblue" points="612.506,-142.493 622.106,-138.011 611.806,-135.528 612.506,-142.493"/>
</g>
<!-- Node889&#45;&gt;Node870 -->
<g id="edge39" class="edge"><title>Node889&#45;&gt;Node870</title>
<path fill="none" stroke="midnightblue" d="M545.181,-163.186C550.474,-165.573 555.495,-168.476 560,-172 588.493,-194.289 579.658,-212.726 596,-245 615.435,-283.383 638.772,-327.941 651.842,-352.763"/>
<polygon fill="midnightblue" stroke="midnightblue" points="648.863,-354.617 656.623,-361.831 655.055,-351.353 648.863,-354.617"/>
</g>
<!-- Node889&#45;&gt;Node882 -->
<g id="edge40" class="edge"><title>Node889&#45;&gt;Node882</title>
<path fill="none" stroke="midnightblue" d="M536.987,-163.127C544.947,-165.494 552.807,-168.41 560,-172 578.892,-181.43 577.709,-192.452 596,-203 602.074,-206.503 608.768,-209.596 615.493,-212.286"/>
<polygon fill="midnightblue" stroke="midnightblue" points="614.707,-215.728 625.3,-215.94 617.151,-209.169 614.707,-215.728"/>
</g>
<!-- Node889&#45;&gt;Node881 -->
<g id="edge41" class="edge"><title>Node889&#45;&gt;Node881</title>
<path fill="none" stroke="midnightblue" d="M534.102,-163.022C552.203,-165.991 572.18,-169.268 590.858,-172.331"/>
<polygon fill="midnightblue" stroke="midnightblue" points="590.35,-175.795 600.785,-173.959 591.483,-168.887 590.35,-175.795"/>
</g>
</g>
</svg>
