<?xml version="1.0" encoding="UTF-8" standalone="no"?>
<!DOCTYPE svg PUBLIC "-//W3C//DTD SVG 1.1//EN"
 "http://www.w3.org/Graphics/SVG/1.1/DTD/svg11.dtd">
<!-- Generated by graphviz version 2.30.1 (20130221.2233)
 -->
<!-- Title: AP_InertialSensor_Invensense::_check_whoami Pages: 1 -->
<svg width="670pt" height="40pt"
 viewBox="0.00 0.00 670.00 40.00" xmlns="http://www.w3.org/2000/svg" xmlns:xlink="http://www.w3.org/1999/xlink">
<g id="graph0" class="graph" transform="scale(1 1) rotate(0) translate(4 36)">
<title>AP_InertialSensor_Invensense::_check_whoami</title>
<polygon fill="white" stroke="white" points="-4,5 -4,-36 667,-36 667,5 -4,5"/>
<!-- Node168 -->
<g id="node1" class="node"><title>Node168</title>
<g id="a_node1"><a xlink:title=" ">
<polygon fill="#bfbfbf" stroke="black" points="0.345215,-0 0.345215,-32 153.655,-32 153.655,-0 0.345215,-0"/>
<text text-anchor="start" x="8.34521" y="-18" font-family="Helvetica,sans-Serif" font-size="10.00">AP_InertialSensor_Invensense</text>
<text text-anchor="middle" x="77" y="-6" font-family="Helvetica,sans-Serif" font-size="10.00">::_check_whoami</text>
</a>
</g>
</g>
<!-- Node169 -->
<g id="node2" class="node"><title>Node169</title>
<g id="a_node2"><a xlink:href="classAP__InertialSensor__Invensense.html#ab3565db6e0296bc0515f6d02f80ffade" target="_top" xlink:title=" ">
<polygon fill="white" stroke="black" points="190.345,-0 190.345,-32 343.655,-32 343.655,-0 190.345,-0"/>
<text text-anchor="start" x="198.345" y="-18" font-family="Helvetica,sans-Serif" font-size="10.00">AP_InertialSensor_Invensense</text>
<text text-anchor="middle" x="267" y="-6" font-family="Helvetica,sans-Serif" font-size="10.00">::_register_read</text>
</a>
</g>
</g>
<!-- Node168&#45;&gt;Node169 -->
<g id="edge1" class="edge"><title>Node168&#45;&gt;Node169</title>
<path fill="none" stroke="midnightblue" d="M153.925,-16C162.495,-16 171.273,-16 179.96,-16"/>
<polygon fill="midnightblue" stroke="midnightblue" points="180.097,-19.5001 190.097,-16 180.097,-12.5001 180.097,-19.5001"/>
</g>
<!-- Node170 -->
<g id="node3" class="node"><title>Node170</title>
<g id="a_node3"><a xlink:href="classAP__HAL_1_1Device.html#a66215f964cfb5c7421effdb88a749550" target="_top" xlink:title=" ">
<polygon fill="white" stroke="black" points="379.976,-0 379.976,-32 496.024,-32 496.024,-0 379.976,-0"/>
<text text-anchor="start" x="387.976" y="-18" font-family="Helvetica,sans-Serif" font-size="10.00">AP_HAL::Device::read</text>
<text text-anchor="middle" x="438" y="-6" font-family="Helvetica,sans-Serif" font-size="10.00">_registers</text>
</a>
</g>
</g>
<!-- Node169&#45;&gt;Node170 -->
<g id="edge2" class="edge"><title>Node169&#45;&gt;Node170</title>
<path fill="none" stroke="midnightblue" d="M344.095,-16C352.629,-16 361.277,-16 369.689,-16"/>
<polygon fill="midnightblue" stroke="midnightblue" points="369.807,-19.5001 379.807,-16 369.807,-12.5001 369.807,-19.5001"/>
</g>
<!-- Node171 -->
<g id="node4" class="node"><title>Node171</title>
<g id="a_node4"><a xlink:href="classAP__HAL_1_1Device.html#a2af24b5f93b678af718b65a606e538b0" target="_top" xlink:title=" ">
<polygon fill="white" stroke="black" points="532.032,-6 532.032,-26 661.968,-26 661.968,-6 532.032,-6"/>
<text text-anchor="middle" x="597" y="-12" font-family="Helvetica,sans-Serif" font-size="10.00">AP_HAL::Device::transfer</text>
</a>
</g>
</g>
<!-- Node170&#45;&gt;Node171 -->
<g id="edge3" class="edge"><title>Node170&#45;&gt;Node171</title>
<path fill="none" stroke="midnightblue" d="M496.125,-16C504.506,-16 513.239,-16 521.901,-16"/>
<polygon fill="midnightblue" stroke="midnightblue" points="522.01,-19.5001 532.01,-16 522.01,-12.5001 522.01,-19.5001"/>
</g>
</g>
</svg>
