<?xml version="1.0" encoding="UTF-8" standalone="no"?>
<!DOCTYPE svg PUBLIC "-//W3C//DTD SVG 1.1//EN"
 "http://www.w3.org/Graphics/SVG/1.1/DTD/svg11.dtd">
<!-- Generated by graphviz version 2.30.1 (20130221.2233)
 -->
<!-- Title: LowPassFilter::reset Pages: 1 -->
<!--zoomable 577 -->
<svg id="main" version="1.1" xmlns="http://www.w3.org/2000/svg" xmlns:xlink="http://www.w3.org/1999/xlink" xml:space="preserve" onload="init(evt)">
<style type="text/css"><![CDATA[
.edge:hover path { stroke: red; }
.edge:hover polygon { stroke: red; fill: red; }
]]></style>
<script type="text/javascript"><![CDATA[
var edges = document.getElementsByTagName('g');
if (edges && edges.length) {
  for (var i=0;i<edges.length;i++) {
    if (edges[i].id.substr(0,4)=='edge') {
      edges[i].setAttribute('class','edge');
    }
  }
}
]]></script>
        <defs>
                <circle id="rim" cx="0" cy="0" r="7"/>
                <circle id="rim2" cx="0" cy="0" r="3.5"/>
                <g id="zoomPlus">
                        <use xlink:href="#rim" fill="#404040">
                                <set attributeName="fill" to="#808080" begin="zoomplus.mouseover" end="zoomplus.mouseout"/>
                        </use>
                        <path d="M-4,0h8M0,-4v8" fill="none" stroke="white" stroke-width="1.5" pointer-events="none"/>
                </g>
                <g id="zoomMin">
                        <use xlink:href="#rim" fill="#404040">
                                <set attributeName="fill" to="#808080" begin="zoomminus.mouseover" end="zoomminus.mouseout"/>
                        </use>
                        <path d="M-4,0h8" fill="none" stroke="white" stroke-width="1.5" pointer-events="none"/>
                </g>
                <g id="dirArrow">
                        <path fill="none" stroke="white" stroke-width="1.5" d="M0,-3.0v7 M-2.5,-0.5L0,-3.0L2.5,-0.5"/>
                </g>
               <g id="resetDef">
                       <use xlink:href="#rim2" fill="#404040">
                               <set attributeName="fill" to="#808080" begin="reset.mouseover" end="reset.mouseout"/>
                       </use>
               </g>
        </defs>

<script type="text/javascript">
var viewWidth = 786;
var viewHeight = 577;
var sectionId = 'dynsection-2';
</script>
<script xlink:href="svgpan.js"/>
<svg id="graph" class="graph">
<g id="viewport">
<title>LowPassFilter::reset</title>
<polygon fill="white" stroke="white" points="-4,5 -4,-573 783,-573 783,5 -4,5"/>
<!-- Node157 -->
<g id="node1" class="node"><title>Node157</title>
<g id="a_node1"><a xlink:title=" ">
<polygon fill="#bfbfbf" stroke="black" points="670.707,-298 670.707,-318 777.293,-318 777.293,-298 670.707,-298"/>
<text text-anchor="middle" x="724" y="-304" font-family="Helvetica,sans-Serif" font-size="10.00">LowPassFilter::reset</text>
</a>
</g>
</g>
<!-- Node158 -->
<g id="node2" class="node"><title>Node158</title>
<g id="a_node2"><a xlink:href="classAP__Motors.html#a71b1fd56db98d56895e4f5e8aa1c8118" target="_top" xlink:title=" ">
<polygon fill="white" stroke="black" points="513.759,-549 513.759,-569 634.241,-569 634.241,-549 513.759,-549"/>
<text text-anchor="middle" x="574" y="-555" font-family="Helvetica,sans-Serif" font-size="10.00">AP_Motors::AP_Motors</text>
</a>
</g>
</g>
<!-- Node157&#45;&gt;Node158 -->
<g id="edge1" class="edge"><title>Node157&#45;&gt;Node158</title>
<path fill="none" stroke="midnightblue" d="M720.879,-328.648C715.197,-373.36 695.609,-479.863 634,-539 629.709,-543.119 624.538,-546.392 619.064,-548.991"/>
<polygon fill="midnightblue" stroke="midnightblue" points="724.387,-328.786 722.066,-318.448 717.434,-327.977 724.387,-328.786"/>
</g>
<!-- Node159 -->
<g id="node3" class="node"><title>Node159</title>
<g id="a_node3"><a xlink:href="classAP__MotorsMulticopter.html#ad6ae4415caff2b7ca6487da458267872" target="_top" xlink:title=" ">
<polygon fill="white" stroke="black" points="514.037,-498 514.037,-530 633.963,-530 633.963,-498 514.037,-498"/>
<text text-anchor="start" x="522.037" y="-516" font-family="Helvetica,sans-Serif" font-size="10.00">AP_MotorsMulticopter</text>
<text text-anchor="middle" x="574" y="-504" font-family="Helvetica,sans-Serif" font-size="10.00">::AP_MotorsMulticopter</text>
</a>
</g>
</g>
<!-- Node157&#45;&gt;Node159 -->
<g id="edge2" class="edge"><title>Node157&#45;&gt;Node159</title>
<path fill="none" stroke="midnightblue" d="M717.271,-328.036C706.311,-363.296 679.346,-437.047 634,-483 628.23,-488.848 621.122,-493.836 613.862,-497.992"/>
<polygon fill="midnightblue" stroke="midnightblue" points="720.64,-328.987 720.162,-318.403 713.935,-326.975 720.64,-328.987"/>
</g>
<!-- Node160 -->
<g id="node4" class="node"><title>Node160</title>
<g id="a_node4"><a xlink:href="classAC__AutoTune.html#a7553749cc2b73850fcf4b14a61e384bb" target="_top" xlink:title=" ">
<polygon fill="white" stroke="black" points="359.989,-444 359.989,-476 474.011,-476 474.011,-444 359.989,-444"/>
<text text-anchor="start" x="367.989" y="-462" font-family="Helvetica,sans-Serif" font-size="10.00">AC_AutoTune::control</text>
<text text-anchor="middle" x="417" y="-450" font-family="Helvetica,sans-Serif" font-size="10.00">_attitude</text>
</a>
</g>
</g>
<!-- Node157&#45;&gt;Node160 -->
<g id="edge3" class="edge"><title>Node157&#45;&gt;Node160</title>
<path fill="none" stroke="midnightblue" d="M717.096,-327.775C706.392,-359.715 680.469,-421.816 634,-449 585.709,-477.25 520.459,-476.342 474.351,-470.647"/>
<polygon fill="midnightblue" stroke="midnightblue" points="720.448,-328.785 720.151,-318.194 713.779,-326.659 720.448,-328.785"/>
</g>
<!-- Node162 -->
<g id="node6" class="node"><title>Node162</title>
<g id="a_node6"><a xlink:href="examples_2LowPassFilter_2LowPassFilter_8cpp.html#afe461d27b9c48d5921c00d521181f12f" target="_top" xlink:title=" ">
<polygon fill="white" stroke="black" points="556.547,-420 556.547,-440 591.453,-440 591.453,-420 556.547,-420"/>
<text text-anchor="middle" x="574" y="-426" font-family="Helvetica,sans-Serif" font-size="10.00">loop</text>
</a>
</g>
</g>
<!-- Node157&#45;&gt;Node162 -->
<g id="edge5" class="edge"><title>Node157&#45;&gt;Node162</title>
<path fill="none" stroke="midnightblue" d="M711.227,-326.717C696.013,-349.468 667.467,-387.587 634,-410 621.059,-418.666 604.009,-423.911 591.567,-426.842"/>
<polygon fill="midnightblue" stroke="midnightblue" points="714.205,-328.559 716.734,-318.271 708.341,-324.736 714.205,-328.559"/>
</g>
<!-- Node163 -->
<g id="node7" class="node"><title>Node163</title>
<g id="a_node7"><a xlink:href="classAP__MotorsHeli.html#a82bbdd9f88cb6a1e2ab13fafddafe639" target="_top" xlink:title=" ">
<polygon fill="white" stroke="black" points="515.976,-267 515.976,-299 632.024,-299 632.024,-267 515.976,-267"/>
<text text-anchor="start" x="523.976" y="-285" font-family="Helvetica,sans-Serif" font-size="10.00">AP_MotorsHeli::output</text>
<text text-anchor="middle" x="574" y="-273" font-family="Helvetica,sans-Serif" font-size="10.00">_disarmed</text>
</a>
</g>
</g>
<!-- Node157&#45;&gt;Node163 -->
<g id="edge6" class="edge"><title>Node157&#45;&gt;Node163</title>
<path fill="none" stroke="midnightblue" d="M660.383,-297.423C651.031,-295.843 641.431,-294.221 632.199,-292.662"/>
<polygon fill="midnightblue" stroke="midnightblue" points="659.961,-300.901 670.404,-299.116 661.127,-293.999 659.961,-300.901"/>
</g>
<!-- Node165 -->
<g id="node9" class="node"><title>Node165</title>
<g id="a_node9"><a xlink:href="classAC__PosControl.html#a476d7e02005457c2772563e41f7b9bbb" target="_top" xlink:title=" ">
<polygon fill="white" stroke="black" points="521.535,-318 521.535,-350 626.465,-350 626.465,-318 521.535,-318"/>
<text text-anchor="start" x="529.535" y="-336" font-family="Helvetica,sans-Serif" font-size="10.00">AC_PosControl::run</text>
<text text-anchor="middle" x="574" y="-324" font-family="Helvetica,sans-Serif" font-size="10.00">_xy_controller</text>
</a>
</g>
</g>
<!-- Node157&#45;&gt;Node165 -->
<g id="edge8" class="edge"><title>Node157&#45;&gt;Node165</title>
<path fill="none" stroke="midnightblue" d="M660.315,-319.012C649.19,-320.967 637.715,-322.982 626.929,-324.877"/>
<polygon fill="midnightblue" stroke="midnightblue" points="661.16,-322.417 670.404,-317.24 659.949,-315.523 661.16,-322.417"/>
</g>
<!-- Node173 -->
<g id="node17" class="node"><title>Node173</title>
<g id="a_node17"><a xlink:href="classAC__PosControl.html#a625788a4c99f7dda2425b7578fe514fb" target="_top" xlink:title=" ">
<polygon fill="white" stroke="black" points="521.535,-369 521.535,-401 626.465,-401 626.465,-369 521.535,-369"/>
<text text-anchor="start" x="529.535" y="-387" font-family="Helvetica,sans-Serif" font-size="10.00">AC_PosControl::run</text>
<text text-anchor="middle" x="574" y="-375" font-family="Helvetica,sans-Serif" font-size="10.00">_z_controller</text>
</a>
</g>
</g>
<!-- Node157&#45;&gt;Node173 -->
<g id="edge16" class="edge"><title>Node157&#45;&gt;Node173</title>
<path fill="none" stroke="midnightblue" d="M697.507,-323.563C679.921,-334.06 655.862,-347.958 634,-359 627.306,-362.381 620.074,-365.773 613.045,-368.939"/>
<polygon fill="midnightblue" stroke="midnightblue" points="699.79,-326.274 706.555,-318.12 696.182,-320.275 699.79,-326.274"/>
</g>
<!-- Node175 -->
<g id="node19" class="node"><title>Node175</title>
<g id="a_node19"><a xlink:href="classAP__MotorsHeli__Dual.html#a8028c4bb98547c9f76d6817596dc8ce0" target="_top" xlink:title=" ">
<polygon fill="white" stroke="black" points="519.591,-216 519.591,-248 628.409,-248 628.409,-216 519.591,-216"/>
<text text-anchor="start" x="527.591" y="-234" font-family="Helvetica,sans-Serif" font-size="10.00">AP_MotorsHeli_Dual</text>
<text text-anchor="middle" x="574" y="-222" font-family="Helvetica,sans-Serif" font-size="10.00">::servo_test</text>
</a>
</g>
</g>
<!-- Node157&#45;&gt;Node175 -->
<g id="edge20" class="edge"><title>Node157&#45;&gt;Node175</title>
<path fill="none" stroke="midnightblue" d="M697.557,-292.337C679.993,-281.795 655.94,-267.886 634,-257 627.821,-253.934 621.175,-250.887 614.65,-248.03"/>
<polygon fill="midnightblue" stroke="midnightblue" points="696.225,-295.622 706.592,-297.806 699.85,-289.634 696.225,-295.622"/>
</g>
<!-- Node176 -->
<g id="node20" class="node"><title>Node176</title>
<g id="a_node20"><a xlink:href="classAP__MotorsHeli__Single.html#afd0b9f02e2d915fb0a57097d0697386e" target="_top" xlink:title=" ">
<polygon fill="white" stroke="black" points="515.976,-165 515.976,-197 632.024,-197 632.024,-165 515.976,-165"/>
<text text-anchor="start" x="523.976" y="-183" font-family="Helvetica,sans-Serif" font-size="10.00">AP_MotorsHeli_Single</text>
<text text-anchor="middle" x="574" y="-171" font-family="Helvetica,sans-Serif" font-size="10.00">::servo_test</text>
</a>
</g>
</g>
<!-- Node157&#45;&gt;Node176 -->
<g id="edge21" class="edge"><title>Node157&#45;&gt;Node176</title>
<path fill="none" stroke="midnightblue" d="M710.948,-289.683C695.45,-267.34 666.616,-229.635 634,-206 629.406,-202.671 624.301,-199.676 619.07,-197.014"/>
<polygon fill="midnightblue" stroke="midnightblue" points="708.058,-291.657 716.569,-297.966 713.85,-287.726 708.058,-291.657"/>
</g>
<!-- Node177 -->
<g id="node21" class="node"><title>Node177</title>
<g id="a_node21"><a xlink:href="classAP__MotorsMulticopter.html#af907aef170efec7b52312b8440986f95" target="_top" xlink:title=" ">
<polygon fill="white" stroke="black" points="515.141,-51 515.141,-95 632.859,-95 632.859,-51 515.141,-51"/>
<text text-anchor="start" x="523.141" y="-81" font-family="Helvetica,sans-Serif" font-size="10.00">AP_MotorsMulticopter</text>
<text text-anchor="start" x="523.141" y="-69" font-family="Helvetica,sans-Serif" font-size="10.00">::update_lift_max_from</text>
<text text-anchor="middle" x="574" y="-57" font-family="Helvetica,sans-Serif" font-size="10.00">_batt_voltage</text>
</a>
</g>
</g>
<!-- Node157&#45;&gt;Node177 -->
<g id="edge22" class="edge"><title>Node157&#45;&gt;Node177</title>
<path fill="none" stroke="midnightblue" d="M718.948,-287.984C710.017,-248.378 685.236,-159.087 634,-104 631.005,-100.78 627.6,-97.8336 623.971,-95.1495"/>
<polygon fill="midnightblue" stroke="midnightblue" points="715.528,-288.729 721.055,-297.768 722.371,-287.255 715.528,-288.729"/>
</g>
<!-- Node184 -->
<g id="node28" class="node"><title>Node184</title>
<g id="a_node28"><a xlink:href="classAP__MotorsMulticopter.html#af61b42846811c6656d4695afd8896b1e" target="_top" xlink:title=" ">
<polygon fill="white" stroke="black" points="516.815,-0 516.815,-32 631.185,-32 631.185,-0 516.815,-0"/>
<text text-anchor="start" x="524.815" y="-18" font-family="Helvetica,sans-Serif" font-size="10.00">AP_MotorsMulticopter</text>
<text text-anchor="middle" x="574" y="-6" font-family="Helvetica,sans-Serif" font-size="10.00">::update_throttle_filter</text>
</a>
</g>
</g>
<!-- Node157&#45;&gt;Node184 -->
<g id="edge29" class="edge"><title>Node157&#45;&gt;Node184</title>
<path fill="none" stroke="midnightblue" d="M721.776,-287.591C717.793,-238.742 701.227,-113.763 634,-41 630.829,-37.5682 627.111,-34.5895 623.11,-32.0077"/>
<polygon fill="midnightblue" stroke="midnightblue" points="718.302,-288.082 722.511,-297.805 725.284,-287.58 718.302,-288.082"/>
</g>
<!-- Node185 -->
<g id="node29" class="node"><title>Node185</title>
<g id="a_node29"><a xlink:href="classAP__MotorsHeli.html#a5b5a08b2aac5950f3a63119e5105b308" target="_top" xlink:title=" ">
<polygon fill="white" stroke="black" points="514.584,-114 514.584,-146 633.416,-146 633.416,-114 514.584,-114"/>
<text text-anchor="start" x="522.584" y="-132" font-family="Helvetica,sans-Serif" font-size="10.00">AP_MotorsHeli::update</text>
<text text-anchor="middle" x="574" y="-120" font-family="Helvetica,sans-Serif" font-size="10.00">_throttle_filter</text>
</a>
</g>
</g>
<!-- Node157&#45;&gt;Node185 -->
<g id="edge31" class="edge"><title>Node157&#45;&gt;Node185</title>
<path fill="none" stroke="midnightblue" d="M716.29,-288.402C704.426,-256.418 676.876,-192.785 634,-155 630.161,-151.617 625.796,-148.642 621.219,-146.038"/>
<polygon fill="midnightblue" stroke="midnightblue" points="713.044,-289.718 719.712,-297.952 719.634,-287.358 713.044,-289.718"/>
</g>
<!-- Node161 -->
<g id="node5" class="node"><title>Node161</title>
<g id="a_node5"><a xlink:href="classAC__AutoTune.html#a1a880de557aca3dc882924b746bcf383" target="_top" xlink:title=" ">
<polygon fill="white" stroke="black" points="200.77,-434 200.77,-454 299.23,-454 299.23,-434 200.77,-434"/>
<text text-anchor="middle" x="250" y="-440" font-family="Helvetica,sans-Serif" font-size="10.00">AC_AutoTune::run</text>
</a>
</g>
</g>
<!-- Node160&#45;&gt;Node161 -->
<g id="edge4" class="edge"><title>Node160&#45;&gt;Node161</title>
<path fill="none" stroke="midnightblue" d="M349.4,-453.542C332.663,-451.919 315.018,-450.208 299.365,-448.69"/>
<polygon fill="midnightblue" stroke="midnightblue" points="349.387,-457.057 359.678,-454.538 350.062,-450.09 349.387,-457.057"/>
</g>
<!-- Node164 -->
<g id="node8" class="node"><title>Node164</title>
<g id="a_node8"><a xlink:href="classAP__MotorsHeli.html#ab9f72dd9a10890cdd5b284c339b5a043" target="_top" xlink:title=" ">
<polygon fill="white" stroke="black" points="358.976,-178 358.976,-198 475.024,-198 475.024,-178 358.976,-178"/>
<text text-anchor="middle" x="417" y="-184" font-family="Helvetica,sans-Serif" font-size="10.00">AP_MotorsHeli::output</text>
</a>
</g>
</g>
<!-- Node163&#45;&gt;Node164 -->
<g id="edge7" class="edge"><title>Node163&#45;&gt;Node164</title>
<path fill="none" stroke="midnightblue" d="M524.135,-262.43C520.663,-260.676 517.253,-258.859 514,-257 482.101,-238.772 447.876,-212.3 430.173,-198.025"/>
<polygon fill="midnightblue" stroke="midnightblue" points="522.875,-265.709 533.401,-266.915 525.924,-259.408 522.875,-265.709"/>
</g>
<!-- Node166 -->
<g id="node10" class="node"><title>Node166</title>
<g id="a_node10"><a xlink:href="classAC__PosControl.html#a81e8e5ca69be129b920416f9670fc5ae" target="_top" xlink:title=" ">
<polygon fill="white" stroke="black" points="356.468,-326 356.468,-358 477.532,-358 477.532,-326 356.468,-326"/>
<text text-anchor="start" x="364.468" y="-344" font-family="Helvetica,sans-Serif" font-size="10.00">AC_PosControl::update</text>
<text text-anchor="middle" x="417" y="-332" font-family="Helvetica,sans-Serif" font-size="10.00">_vel_controller_xy</text>
</a>
</g>
</g>
<!-- Node165&#45;&gt;Node166 -->
<g id="edge9" class="edge"><title>Node165&#45;&gt;Node166</title>
<path fill="none" stroke="midnightblue" d="M511.359,-337.181C500.272,-337.754 488.732,-338.349 477.7,-338.919"/>
<polygon fill="midnightblue" stroke="midnightblue" points="511.581,-340.675 521.387,-336.664 511.22,-333.684 511.581,-340.675"/>
</g>
<!-- Node168 -->
<g id="node12" class="node"><title>Node168</title>
<g id="a_node12"><a xlink:href="classAC__PosControl.html#ab71db0f35377ec2265517a91a0afa4a5" target="_top" xlink:title="update_xy_controller &#45; run the horizontal position controller &#45; should be called at 100hz or higher">
<polygon fill="white" stroke="black" points="356.468,-275 356.468,-307 477.532,-307 477.532,-275 356.468,-275"/>
<text text-anchor="start" x="364.468" y="-293" font-family="Helvetica,sans-Serif" font-size="10.00">AC_PosControl::update</text>
<text text-anchor="middle" x="417" y="-281" font-family="Helvetica,sans-Serif" font-size="10.00">_xy_controller</text>
</a>
</g>
</g>
<!-- Node165&#45;&gt;Node168 -->
<g id="edge11" class="edge"><title>Node165&#45;&gt;Node168</title>
<path fill="none" stroke="midnightblue" d="M511.62,-316.972C499.815,-313.697 487.489,-310.278 475.802,-307.035"/>
<polygon fill="midnightblue" stroke="midnightblue" points="510.816,-320.381 521.387,-319.682 512.687,-313.636 510.816,-320.381"/>
</g>
<!-- Node167 -->
<g id="node11" class="node"><title>Node167</title>
<g id="a_node11"><a xlink:href="classAC__PosControl.html#a4acc8cd7285895654901011106aeab6d" target="_top" xlink:title=" ">
<polygon fill="white" stroke="black" points="189.468,-368 189.468,-400 310.532,-400 310.532,-368 189.468,-368"/>
<text text-anchor="start" x="197.468" y="-386" font-family="Helvetica,sans-Serif" font-size="10.00">AC_PosControl::update</text>
<text text-anchor="middle" x="250" y="-374" font-family="Helvetica,sans-Serif" font-size="10.00">_vel_controller_xyz</text>
</a>
</g>
</g>
<!-- Node166&#45;&gt;Node167 -->
<g id="edge10" class="edge"><title>Node166&#45;&gt;Node167</title>
<path fill="none" stroke="midnightblue" d="M346.546,-359.679C334.647,-362.708 322.376,-365.832 310.758,-368.789"/>
<polygon fill="midnightblue" stroke="midnightblue" points="347.604,-363.022 356.431,-357.163 345.877,-356.238 347.604,-363.022"/>
</g>
<!-- Node169 -->
<g id="node13" class="node"><title>Node169</title>
<g id="a_node13"><a xlink:href="classAC__Circle.html#ad28205982ae7bc5f1e72f5285696c99b" target="_top" xlink:title="update &#45; update circle controller">
<polygon fill="white" stroke="black" points="201.424,-208 201.424,-228 298.576,-228 298.576,-208 201.424,-208"/>
<text text-anchor="middle" x="250" y="-214" font-family="Helvetica,sans-Serif" font-size="10.00">AC_Circle::update</text>
</a>
</g>
</g>
<!-- Node168&#45;&gt;Node169 -->
<g id="edge12" class="edge"><title>Node168&#45;&gt;Node169</title>
<path fill="none" stroke="midnightblue" d="M382.259,-269.343C364.302,-258.515 341.533,-245.865 320,-237 311.728,-233.594 302.65,-230.601 293.876,-228.058"/>
<polygon fill="midnightblue" stroke="midnightblue" points="380.824,-272.568 391.179,-274.809 384.482,-266.6 380.824,-272.568"/>
</g>
<!-- Node170 -->
<g id="node14" class="node"><title>Node170</title>
<g id="a_node14"><a xlink:href="classAC__Loiter.html#ad73abbc1c7fcefbb9d18bac3b1fe4444" target="_top" xlink:title="run the loiter controller">
<polygon fill="white" stroke="black" points="201.695,-325 201.695,-345 298.305,-345 298.305,-325 201.695,-325"/>
<text text-anchor="middle" x="250" y="-331" font-family="Helvetica,sans-Serif" font-size="10.00">AC_Loiter::update</text>
</a>
</g>
</g>
<!-- Node168&#45;&gt;Node170 -->
<g id="edge13" class="edge"><title>Node168&#45;&gt;Node170</title>
<path fill="none" stroke="midnightblue" d="M346.533,-309.525C326.786,-314.791 306.017,-320.329 288.906,-324.892"/>
<polygon fill="midnightblue" stroke="midnightblue" points="347.671,-312.844 356.431,-306.885 345.867,-306.08 347.671,-312.844"/>
</g>
<!-- Node171 -->
<g id="node15" class="node"><title>Node171</title>
<g id="a_node15"><a xlink:href="classAC__WPNav.html#acc138e7bc6435087ab308896358de6a3" target="_top" xlink:title="update_spline &#45; update spline controller">
<polygon fill="white" stroke="black" points="181.412,-286 181.412,-306 318.588,-306 318.588,-286 181.412,-286"/>
<text text-anchor="middle" x="250" y="-292" font-family="Helvetica,sans-Serif" font-size="10.00">AC_WPNav::update_spline</text>
</a>
</g>
</g>
<!-- Node168&#45;&gt;Node171 -->
<g id="edge14" class="edge"><title>Node168&#45;&gt;Node171</title>
<path fill="none" stroke="midnightblue" d="M346.22,-293.115C337.073,-293.392 327.713,-293.675 318.603,-293.951"/>
<polygon fill="midnightblue" stroke="midnightblue" points="346.542,-296.606 356.431,-292.805 346.33,-289.61 346.542,-296.606"/>
</g>
<!-- Node172 -->
<g id="node16" class="node"><title>Node172</title>
<g id="a_node16"><a xlink:href="classAC__WPNav.html#a7dc4785fbce8364d7eb3d8e2d0c1b987" target="_top" xlink:title="update_wpnav &#45; run the wp controller &#45; should be called at 100hz or higher">
<polygon fill="white" stroke="black" points="180.022,-247 180.022,-267 319.978,-267 319.978,-247 180.022,-247"/>
<text text-anchor="middle" x="250" y="-253" font-family="Helvetica,sans-Serif" font-size="10.00">AC_WPNav::update_wpnav</text>
</a>
</g>
</g>
<!-- Node168&#45;&gt;Node172 -->
<g id="edge15" class="edge"><title>Node168&#45;&gt;Node172</title>
<path fill="none" stroke="midnightblue" d="M346.24,-276.625C330.556,-273.393 314.242,-270.032 299.641,-267.023"/>
<polygon fill="midnightblue" stroke="midnightblue" points="345.931,-280.135 356.431,-278.725 347.343,-273.279 345.931,-280.135"/>
</g>
<!-- Node174 -->
<g id="node18" class="node"><title>Node174</title>
<g id="a_node18"><a xlink:href="classAC__PosControl.html#af9c555a3b07ea1420ea28e7333379941" target="_top" xlink:title="update_z_controller &#45; fly to altitude in cm above home">
<polygon fill="white" stroke="black" points="356.468,-377 356.468,-409 477.532,-409 477.532,-377 356.468,-377"/>
<text text-anchor="start" x="364.468" y="-395" font-family="Helvetica,sans-Serif" font-size="10.00">AC_PosControl::update</text>
<text text-anchor="middle" x="417" y="-383" font-family="Helvetica,sans-Serif" font-size="10.00">_z_controller</text>
</a>
</g>
</g>
<!-- Node173&#45;&gt;Node174 -->
<g id="edge17" class="edge"><title>Node173&#45;&gt;Node174</title>
<path fill="none" stroke="midnightblue" d="M511.359,-388.181C500.272,-388.754 488.732,-389.349 477.7,-389.919"/>
<polygon fill="midnightblue" stroke="midnightblue" points="511.581,-391.675 521.387,-387.664 511.22,-384.684 511.581,-391.675"/>
</g>
<!-- Node174&#45;&gt;Node161 -->
<g id="edge18" class="edge"><title>Node174&#45;&gt;Node161</title>
<path fill="none" stroke="midnightblue" d="M354.072,-412.141C330.158,-419.533 303.781,-427.686 283.697,-433.894"/>
<polygon fill="midnightblue" stroke="midnightblue" points="355.273,-415.434 363.793,-409.137 353.205,-408.746 355.273,-415.434"/>
</g>
<!-- Node174&#45;&gt;Node167 -->
<g id="edge19" class="edge"><title>Node174&#45;&gt;Node167</title>
<path fill="none" stroke="midnightblue" d="M346.189,-389.192C334.401,-388.549 322.26,-387.887 310.758,-387.26"/>
<polygon fill="midnightblue" stroke="midnightblue" points="346.255,-392.701 356.431,-389.751 346.637,-385.711 346.255,-392.701"/>
</g>
<!-- Node178 -->
<g id="node22" class="node"><title>Node178</title>
<g id="a_node22"><a xlink:href="classAP__MotorsMulticopter.html#ae711bfb73844f124fb762c39cd01e060" target="_top" xlink:title=" ">
<polygon fill="white" stroke="black" points="359.815,-29 359.815,-61 474.185,-61 474.185,-29 359.815,-29"/>
<text text-anchor="start" x="367.815" y="-47" font-family="Helvetica,sans-Serif" font-size="10.00">AP_MotorsMulticopter</text>
<text text-anchor="middle" x="417" y="-35" font-family="Helvetica,sans-Serif" font-size="10.00">::output</text>
</a>
</g>
</g>
<!-- Node177&#45;&gt;Node178 -->
<g id="edge23" class="edge"><title>Node177&#45;&gt;Node178</title>
<path fill="none" stroke="midnightblue" d="M504.797,-60.6794C494.653,-58.8469 484.293,-56.9755 474.426,-55.1931"/>
<polygon fill="midnightblue" stroke="midnightblue" points="504.38,-64.1607 514.843,-62.4942 505.624,-57.2722 504.38,-64.1607"/>
</g>
<!-- Node179 -->
<g id="node23" class="node"><title>Node179</title>
<g id="a_node23"><a xlink:href="classAP__MotorsMulticopter.html#a5c1f9a311308cd7a28bb800b5ef071de" target="_top" xlink:title=" ">
<polygon fill="white" stroke="black" points="192.815,-52 192.815,-84 307.185,-84 307.185,-52 192.815,-52"/>
<text text-anchor="start" x="200.815" y="-70" font-family="Helvetica,sans-Serif" font-size="10.00">AP_MotorsMulticopter</text>
<text text-anchor="middle" x="250" y="-58" font-family="Helvetica,sans-Serif" font-size="10.00">::output_min</text>
</a>
</g>
</g>
<!-- Node178&#45;&gt;Node179 -->
<g id="edge24" class="edge"><title>Node178&#45;&gt;Node179</title>
<path fill="none" stroke="midnightblue" d="M349.614,-54.2538C335.603,-56.2068 320.947,-58.2498 307.348,-60.1454"/>
<polygon fill="midnightblue" stroke="midnightblue" points="350.257,-57.6981 359.678,-52.851 349.29,-50.7652 350.257,-57.6981"/>
</g>
<!-- Node181 -->
<g id="node25" class="node"><title>Node181</title>
<g id="a_node25"><a xlink:href="AP__Motors__test_8cpp.html#a1f08b35b02317dc83a8acfc5e1861364" target="_top" xlink:title=" ">
<polygon fill="white" stroke="black" points="208.646,-13 208.646,-33 291.354,-33 291.354,-13 208.646,-13"/>
<text text-anchor="middle" x="250" y="-19" font-family="Helvetica,sans-Serif" font-size="10.00">update_motors</text>
</a>
</g>
</g>
<!-- Node178&#45;&gt;Node181 -->
<g id="edge26" class="edge"><title>Node178&#45;&gt;Node181</title>
<path fill="none" stroke="midnightblue" d="M349.535,-36.138C329.872,-33.5162 308.944,-30.7258 291.456,-28.3941"/>
<polygon fill="midnightblue" stroke="midnightblue" points="349.303,-39.638 359.678,-37.4904 350.228,-32.6994 349.303,-39.638"/>
</g>
<!-- Node180 -->
<g id="node24" class="node"><title>Node180</title>
<g id="a_node24"><a xlink:href="AP__Motors__test_8cpp.html#a4fc01d736fe50cf5b977f755b675f11d" target="_top" xlink:title=" ">
<polygon fill="white" stroke="black" points="87.7686,-58 87.7686,-78 128.231,-78 128.231,-58 87.7686,-58"/>
<text text-anchor="middle" x="108" y="-64" font-family="Helvetica,sans-Serif" font-size="10.00">setup</text>
</a>
</g>
</g>
<!-- Node179&#45;&gt;Node180 -->
<g id="edge25" class="edge"><title>Node179&#45;&gt;Node180</title>
<path fill="none" stroke="midnightblue" d="M182.225,-68C162.528,-68 142.491,-68 128.368,-68"/>
<polygon fill="midnightblue" stroke="midnightblue" points="182.46,-71.5001 192.46,-68 182.46,-64.5001 182.46,-71.5001"/>
</g>
<!-- Node182 -->
<g id="node26" class="node"><title>Node182</title>
<g id="a_node26"><a xlink:href="AP__Motors__test_8cpp.html#a7f47bb79f883994514efee9d8de3ec0c" target="_top" xlink:title=" ">
<polygon fill="white" stroke="black" points="72.4878,-13 72.4878,-33 143.512,-33 143.512,-13 72.4878,-13"/>
<text text-anchor="middle" x="108" y="-19" font-family="Helvetica,sans-Serif" font-size="10.00">stability_test</text>
</a>
</g>
</g>
<!-- Node181&#45;&gt;Node182 -->
<g id="edge27" class="edge"><title>Node181&#45;&gt;Node182</title>
<path fill="none" stroke="midnightblue" d="M198.37,-23C180.227,-23 160.2,-23 143.711,-23"/>
<polygon fill="midnightblue" stroke="midnightblue" points="198.506,-26.5001 208.506,-23 198.506,-19.5001 198.506,-26.5001"/>
</g>
<!-- Node183 -->
<g id="node27" class="node"><title>Node183</title>
<g id="a_node27"><a xlink:href="AP__Motors__test_8cpp.html#afe461d27b9c48d5921c00d521181f12f" target="_top" xlink:title=" ">
<polygon fill="white" stroke="black" points="0.546875,-13 0.546875,-33 35.4531,-33 35.4531,-13 0.546875,-13"/>
<text text-anchor="middle" x="18" y="-19" font-family="Helvetica,sans-Serif" font-size="10.00">loop</text>
</a>
</g>
</g>
<!-- Node182&#45;&gt;Node183 -->
<g id="edge28" class="edge"><title>Node182&#45;&gt;Node183</title>
<path fill="none" stroke="midnightblue" d="M62.1931,-23C52.6599,-23 43.1772,-23 35.536,-23"/>
<polygon fill="midnightblue" stroke="midnightblue" points="62.4727,-26.5001 72.4726,-23 62.4726,-19.5001 62.4727,-26.5001"/>
</g>
<!-- Node184&#45;&gt;Node178 -->
<g id="edge30" class="edge"><title>Node184&#45;&gt;Node178</title>
<path fill="none" stroke="midnightblue" d="M506.462,-28.4491C495.765,-30.4505 484.783,-32.5051 474.355,-34.4562"/>
<polygon fill="midnightblue" stroke="midnightblue" points="507.417,-31.8311 516.603,-26.5517 506.13,-24.9505 507.417,-31.8311"/>
</g>
<!-- Node185&#45;&gt;Node164 -->
<g id="edge32" class="edge"><title>Node185&#45;&gt;Node164</title>
<path fill="none" stroke="midnightblue" d="M520.726,-149.561C495.328,-159.064 465.872,-170.086 445.032,-177.885"/>
<polygon fill="midnightblue" stroke="midnightblue" points="522.096,-152.785 530.235,-146.002 519.643,-146.229 522.096,-152.785"/>
</g>
</g>
</svg>
        <g id="navigator" transform="translate(0 0)" fill="#404254">
                <rect fill="#f2f5e9" fill-opacity="0.5" stroke="#606060" stroke-width=".5" x="0" y="0" width="60" height="60"/>
                <use id="zoomplus" xlink:href="#zoomPlus" x="17" y="9" onmousedown="handleZoom(evt,'in')"/>
                <use id="zoomminus" xlink:href="#zoomMin" x="42" y="9" onmousedown="handleZoom(evt,'out')"/>
                <use id="reset" xlink:href="#resetDef" x="30" y="36" onmousedown="handleReset()"/>
                <g id="arrowUp" xlink:href="#dirArrow" transform="translate(30 24)" onmousedown="handlePan(0,-1)">
                  <use xlink:href="#rim" fill="#404040">
                        <set attributeName="fill" to="#808080" begin="arrowUp.mouseover" end="arrowUp.mouseout"/>
                  </use>
                  <path fill="none" stroke="white" stroke-width="1.5" d="M0,-3.0v7 M-2.5,-0.5L0,-3.0L2.5,-0.5"/>
                </g>
                <g id="arrowRight" xlink:href="#dirArrow" transform="rotate(90) translate(36 -43)" onmousedown="handlePan(1,0)">
                  <use xlink:href="#rim" fill="#404040">
                        <set attributeName="fill" to="#808080" begin="arrowRight.mouseover" end="arrowRight.mouseout"/>
                  </use>
                  <path fill="none" stroke="white" stroke-width="1.5" d="M0,-3.0v7 M-2.5,-0.5L0,-3.0L2.5,-0.5"/>
                </g>
                <g id="arrowDown" xlink:href="#dirArrow" transform="rotate(180) translate(-30 -48)" onmousedown="handlePan(0,1)">
                  <use xlink:href="#rim" fill="#404040">
                        <set attributeName="fill" to="#808080" begin="arrowDown.mouseover" end="arrowDown.mouseout"/>
                  </use>
                  <path fill="none" stroke="white" stroke-width="1.5" d="M0,-3.0v7 M-2.5,-0.5L0,-3.0L2.5,-0.5"/>
                </g>
                <g id="arrowLeft" xlink:href="#dirArrow" transform="rotate(270) translate(-36 17)" onmousedown="handlePan(-1,0)">
                  <use xlink:href="#rim" fill="#404040">
                        <set attributeName="fill" to="#808080" begin="arrowLeft.mouseover" end="arrowLeft.mouseout"/>
                  </use>
                  <path fill="none" stroke="white" stroke-width="1.5" d="M0,-3.0v7 M-2.5,-0.5L0,-3.0L2.5,-0.5"/>
                </g>
        </g>
        <svg viewBox="0 0 15 15" width="100%" height="30px" preserveAspectRatio="xMaxYMin meet">
         <g id="arrow_out" transform="scale(0.3 0.3)">
          <a xlink:href="classLowPassFilter_adad51ea3b156f167fff0fb586a912cb5_icgraph_org.svg" target="_base">
           <rect id="button" ry="5" rx="5" y="6" x="6" height="38" width="38"
                fill="#f2f5e9" fill-opacity="0.5" stroke="#606060" stroke-width="1.0"/>
           <path id="arrow"
             d="M 11.500037,31.436501 C 11.940474,20.09759 22.043105,11.32322 32.158766,21.979434 L 37.068811,17.246167 C 37.068811,17.246167 37.088388,32 37.088388,32 L 22.160133,31.978069 C 22.160133,31.978069 26.997745,27.140456 26.997745,27.140456 C 18.528582,18.264221 13.291696,25.230495 11.500037,31.436501 z"
             style="fill:#404040;"/>
          </a>
         </g>
        </svg>
</svg>
