<?xml version="1.0" encoding="UTF-8" standalone="no"?>
<!DOCTYPE svg PUBLIC "-//W3C//DTD SVG 1.1//EN"
 "http://www.w3.org/Graphics/SVG/1.1/DTD/svg11.dtd">
<!-- Generated by graphviz version 2.30.1 (20130221.2233)
 -->
<!-- Title: SITL::QuadPlane::QuadPlane Pages: 1 -->
<svg width="316pt" height="106pt"
 viewBox="0.00 0.00 316.00 106.00" xmlns="http://www.w3.org/2000/svg" xmlns:xlink="http://www.w3.org/1999/xlink">
<g id="graph0" class="graph" transform="scale(1 1) rotate(0) translate(4 102)">
<title>SITL::QuadPlane::QuadPlane</title>
<polygon fill="white" stroke="white" points="-4,5 -4,-102 313,-102 313,5 -4,5"/>
<!-- Node0 -->
<g id="node1" class="node"><title>Node0</title>
<g id="a_node1"><a xlink:title=" ">
<polygon fill="#bfbfbf" stroke="black" points="-0.154785,-39 -0.154785,-59 148.155,-59 148.155,-39 -0.154785,-39"/>
<text text-anchor="middle" x="74" y="-45" font-family="Helvetica,sans-Serif" font-size="10.00">SITL::QuadPlane::QuadPlane</text>
</a>
</g>
</g>
<!-- Node1 -->
<g id="node2" class="node"><title>Node1</title>
<g id="a_node2"><a xlink:href="classSITL_1_1Frame.html#ad45481981db45618022bffc4817d09eb" target="_top" xlink:title=" ">
<polygon fill="white" stroke="black" points="183.815,-78 183.815,-98 308.185,-98 308.185,-78 183.815,-78"/>
<text text-anchor="middle" x="246" y="-84" font-family="Helvetica,sans-Serif" font-size="10.00">SITL::Frame::find_frame</text>
</a>
</g>
</g>
<!-- Node0&#45;&gt;Node1 -->
<g id="edge1" class="edge"><title>Node0&#45;&gt;Node1</title>
<path fill="none" stroke="midnightblue" d="M118.779,-59.0435C140.988,-64.1385 168.151,-70.3699 191.581,-75.7451"/>
<polygon fill="midnightblue" stroke="midnightblue" points="190.84,-79.1658 201.369,-77.9906 192.405,-72.3431 190.84,-79.1658"/>
</g>
<!-- Node2 -->
<g id="node3" class="node"><title>Node2</title>
<g id="a_node3"><a xlink:href="stdio_8h.html#a55f3d956bb2ba20b5059e9e25484a47f" target="_top" xlink:title=" ">
<polygon fill="white" stroke="black" points="226.884,-39 226.884,-59 265.116,-59 265.116,-39 226.884,-39"/>
<text text-anchor="middle" x="246" y="-45" font-family="Helvetica,sans-Serif" font-size="10.00">printf</text>
</a>
</g>
</g>
<!-- Node0&#45;&gt;Node2 -->
<g id="edge2" class="edge"><title>Node0&#45;&gt;Node2</title>
<path fill="none" stroke="midnightblue" d="M148.576,-49C172.58,-49 197.822,-49 216.456,-49"/>
<polygon fill="midnightblue" stroke="midnightblue" points="216.605,-52.5001 226.605,-49 216.605,-45.5001 216.605,-52.5001"/>
</g>
<!-- Node3 -->
<g id="node4" class="node"><title>Node3</title>
<g id="a_node4"><a xlink:href="classSITL_1_1Frame.html#ae4f2670ddee41221a8c3819e2c459e79" target="_top" xlink:title=" ">
<polygon fill="white" stroke="black" points="201.047,-0 201.047,-20 290.953,-20 290.953,-0 201.047,-0"/>
<text text-anchor="middle" x="246" y="-6" font-family="Helvetica,sans-Serif" font-size="10.00">SITL::Frame::init</text>
</a>
</g>
</g>
<!-- Node0&#45;&gt;Node3 -->
<g id="edge3" class="edge"><title>Node0&#45;&gt;Node3</title>
<path fill="none" stroke="midnightblue" d="M118.779,-38.9565C140.988,-33.8615 168.151,-27.6301 191.581,-22.2549"/>
<polygon fill="midnightblue" stroke="midnightblue" points="192.405,-25.6569 201.369,-20.0094 190.84,-18.8342 192.405,-25.6569"/>
</g>
</g>
</svg>
