<?xml version="1.0" encoding="UTF-8" standalone="no"?>
<!DOCTYPE svg PUBLIC "-//W3C//DTD SVG 1.1//EN"
 "http://www.w3.org/Graphics/SVG/1.1/DTD/svg11.dtd">
<!-- Generated by graphviz version 2.30.1 (20130221.2233)
 -->
<!-- Title: AP_Compass_AK8963::_calibrate Pages: 1 -->
<svg width="288pt" height="91pt"
 viewBox="0.00 0.00 288.00 91.00" xmlns="http://www.w3.org/2000/svg" xmlns:xlink="http://www.w3.org/1999/xlink">
<g id="graph0" class="graph" transform="scale(1 1) rotate(0) translate(4 87)">
<title>AP_Compass_AK8963::_calibrate</title>
<polygon fill="white" stroke="white" points="-4,5 -4,-87 285,-87 285,5 -4,5"/>
<!-- Node10 -->
<g id="node1" class="node"><title>Node10</title>
<g id="a_node1"><a xlink:title=" ">
<polygon fill="#bfbfbf" stroke="black" points="0.0791016,-25 0.0791016,-57 123.921,-57 123.921,-25 0.0791016,-25"/>
<text text-anchor="start" x="8.0791" y="-43" font-family="Helvetica,sans-Serif" font-size="10.00">AP_Compass_AK8963::</text>
<text text-anchor="middle" x="62" y="-31" font-family="Helvetica,sans-Serif" font-size="10.00">_calibrate</text>
</a>
</g>
</g>
<!-- Node11 -->
<g id="node2" class="node"><title>Node11</title>
<g id="a_node2"><a xlink:href="classAP__AK8963__BusDriver.html#aeba83e5e29f283a5f6dad5ac74ccbc0c" target="_top" xlink:title=" ">
<polygon fill="white" stroke="black" points="160.027,-51 160.027,-83 279.973,-83 279.973,-51 160.027,-51"/>
<text text-anchor="start" x="168.027" y="-69" font-family="Helvetica,sans-Serif" font-size="10.00">AP_AK8963_BusDriver</text>
<text text-anchor="middle" x="220" y="-57" font-family="Helvetica,sans-Serif" font-size="10.00">::register_write</text>
</a>
</g>
</g>
<!-- Node10&#45;&gt;Node11 -->
<g id="edge1" class="edge"><title>Node10&#45;&gt;Node11</title>
<path fill="none" stroke="midnightblue" d="M124.208,-51.2013C132.674,-52.6124 141.418,-54.0697 150.014,-55.5023"/>
<polygon fill="midnightblue" stroke="midnightblue" points="149.572,-58.9768 160.011,-57.1685 150.722,-52.072 149.572,-58.9768"/>
</g>
<!-- Node12 -->
<g id="node3" class="node"><title>Node12</title>
<g id="a_node3"><a xlink:href="classAP__AK8963__BusDriver.html#a35810a867ead2cb1b6e2740ef77093f3" target="_top" xlink:title=" ">
<polygon fill="white" stroke="black" points="160.027,-0 160.027,-32 279.973,-32 279.973,-0 160.027,-0"/>
<text text-anchor="start" x="168.027" y="-18" font-family="Helvetica,sans-Serif" font-size="10.00">AP_AK8963_BusDriver</text>
<text text-anchor="middle" x="220" y="-6" font-family="Helvetica,sans-Serif" font-size="10.00">::block_read</text>
</a>
</g>
</g>
<!-- Node10&#45;&gt;Node12 -->
<g id="edge2" class="edge"><title>Node10&#45;&gt;Node12</title>
<path fill="none" stroke="midnightblue" d="M124.208,-31.1911C132.674,-29.8343 141.418,-28.433 150.014,-27.0555"/>
<polygon fill="midnightblue" stroke="midnightblue" points="150.691,-30.4917 160.011,-25.4534 149.583,-23.5799 150.691,-30.4917"/>
</g>
</g>
</svg>
