<?xml version="1.0" encoding="UTF-8" standalone="no"?>
<!DOCTYPE svg PUBLIC "-//W3C//DTD SVG 1.1//EN"
 "http://www.w3.org/Graphics/SVG/1.1/DTD/svg11.dtd">
<!-- Generated by graphviz version 2.30.1 (20130221.2233)
 -->
<!-- Title: NavEKF2_core::getGyroScaleErrorPercentage Pages: 1 -->
<svg width="830pt" height="40pt"
 viewBox="0.00 0.00 830.00 40.00" xmlns="http://www.w3.org/2000/svg" xmlns:xlink="http://www.w3.org/1999/xlink">
<g id="graph0" class="graph" transform="scale(1 1) rotate(0) translate(4 36)">
<title>NavEKF2_core::getGyroScaleErrorPercentage</title>
<polygon fill="white" stroke="white" points="-4,5 -4,-36 827,-36 827,5 -4,5"/>
<!-- Node1568 -->
<g id="node1" class="node"><title>Node1568</title>
<g id="a_node1"><a xlink:title=" ">
<polygon fill="#bfbfbf" stroke="black" points="672.025,-0 672.025,-32 821.975,-32 821.975,-0 672.025,-0"/>
<text text-anchor="start" x="680.025" y="-18" font-family="Helvetica,sans-Serif" font-size="10.00">NavEKF2_core::getGyroScale</text>
<text text-anchor="middle" x="747" y="-6" font-family="Helvetica,sans-Serif" font-size="10.00">ErrorPercentage</text>
</a>
</g>
</g>
<!-- Node1569 -->
<g id="node2" class="node"><title>Node1569</title>
<g id="a_node2"><a xlink:href="classNavEKF2.html#acdb3187fd817855ddf0c81c25406f781" target="_top" xlink:title=" ">
<polygon fill="white" stroke="black" points="488.421,-0 488.421,-32 635.579,-32 635.579,-0 488.421,-0"/>
<text text-anchor="start" x="496.421" y="-18" font-family="Helvetica,sans-Serif" font-size="10.00">NavEKF2::getGyroScaleError</text>
<text text-anchor="middle" x="562" y="-6" font-family="Helvetica,sans-Serif" font-size="10.00">Percentage</text>
</a>
</g>
</g>
<!-- Node1568&#45;&gt;Node1569 -->
<g id="edge1" class="edge"><title>Node1568&#45;&gt;Node1569</title>
<path fill="none" stroke="midnightblue" d="M661.722,-16C653.061,-16 644.313,-16 635.791,-16"/>
<polygon fill="midnightblue" stroke="midnightblue" points="661.831,-19.5001 671.831,-16 661.831,-12.5001 661.831,-19.5001"/>
</g>
<!-- Node1570 -->
<g id="node3" class="node"><title>Node1570</title>
<g id="a_node3"><a xlink:href="classNavEKF2.html#a2e17c7a8905faca59fb404ff698f4193" target="_top" xlink:title=" ">
<polygon fill="white" stroke="black" points="310.563,-6 310.563,-26 451.437,-26 451.437,-6 310.563,-6"/>
<text text-anchor="middle" x="381" y="-12" font-family="Helvetica,sans-Serif" font-size="10.00">NavEKF2::Log_Write_NKF2</text>
</a>
</g>
</g>
<!-- Node1569&#45;&gt;Node1570 -->
<g id="edge2" class="edge"><title>Node1569&#45;&gt;Node1570</title>
<path fill="none" stroke="midnightblue" d="M478.193,-16C469.285,-16 460.289,-16 451.558,-16"/>
<polygon fill="midnightblue" stroke="midnightblue" points="478.194,-19.5001 488.194,-16 478.194,-12.5001 478.194,-19.5001"/>
</g>
<!-- Node1571 -->
<g id="node4" class="node"><title>Node1571</title>
<g id="a_node4"><a xlink:href="classNavEKF2.html#ae038ac654f847b58d6cd0fbc75d2fdd9" target="_top" xlink:title=" ">
<polygon fill="white" stroke="black" points="164.125,-6 164.125,-26 273.875,-26 273.875,-6 164.125,-6"/>
<text text-anchor="middle" x="219" y="-12" font-family="Helvetica,sans-Serif" font-size="10.00">NavEKF2::Log_Write</text>
</a>
</g>
</g>
<!-- Node1570&#45;&gt;Node1571 -->
<g id="edge3" class="edge"><title>Node1570&#45;&gt;Node1571</title>
<path fill="none" stroke="midnightblue" d="M300.005,-16C291.224,-16 282.443,-16 274.085,-16"/>
<polygon fill="midnightblue" stroke="midnightblue" points="300.287,-19.5001 310.287,-16 300.287,-12.5001 300.287,-19.5001"/>
</g>
<!-- Node1572 -->
<g id="node5" class="node"><title>Node1572</title>
<g id="a_node5"><a xlink:href="classAP__AHRS__NavEKF.html#a1c5d4cbc750d19efec25a619c34be78a" target="_top" xlink:title=" ">
<polygon fill="white" stroke="black" points="0.140625,-0 0.140625,-32 127.859,-32 127.859,-0 0.140625,-0"/>
<text text-anchor="start" x="8.14062" y="-18" font-family="Helvetica,sans-Serif" font-size="10.00">AP_AHRS_NavEKF::Log</text>
<text text-anchor="middle" x="64" y="-6" font-family="Helvetica,sans-Serif" font-size="10.00">_Write</text>
</a>
</g>
</g>
<!-- Node1571&#45;&gt;Node1572 -->
<g id="edge4" class="edge"><title>Node1571&#45;&gt;Node1572</title>
<path fill="none" stroke="midnightblue" d="M154.029,-16C145.377,-16 136.505,-16 127.873,-16"/>
<polygon fill="midnightblue" stroke="midnightblue" points="154.058,-19.5001 164.058,-16 154.058,-12.5001 154.058,-19.5001"/>
</g>
</g>
</svg>
