<?xml version="1.0" encoding="UTF-8" standalone="no"?>
<!DOCTYPE svg PUBLIC "-//W3C//DTD SVG 1.1//EN"
 "http://www.w3.org/Graphics/SVG/1.1/DTD/svg11.dtd">
<!-- Generated by graphviz version 2.30.1 (20130221.2233)
 -->
<!-- Title: NavEKF3::getLastPosNorthEastReset Pages: 1 -->
<svg width="324pt" height="79pt"
 viewBox="0.00 0.00 324.00 79.00" xmlns="http://www.w3.org/2000/svg" xmlns:xlink="http://www.w3.org/1999/xlink">
<g id="graph0" class="graph" transform="scale(1 1) rotate(0) translate(4 75)">
<title>NavEKF3::getLastPosNorthEastReset</title>
<polygon fill="white" stroke="white" points="-4,5 -4,-75 321,-75 321,5 -4,5"/>
<!-- Node560 -->
<g id="node1" class="node"><title>Node560</title>
<g id="a_node1"><a xlink:title=" ">
<polygon fill="#bfbfbf" stroke="black" points="0.581543,-22 0.581543,-54 139.418,-54 139.418,-22 0.581543,-22"/>
<text text-anchor="start" x="8.58154" y="-40" font-family="Helvetica,sans-Serif" font-size="10.00">NavEKF3::getLastPosNorth</text>
<text text-anchor="middle" x="70" y="-28" font-family="Helvetica,sans-Serif" font-size="10.00">EastReset</text>
</a>
</g>
</g>
<!-- Node561 -->
<g id="node2" class="node"><title>Node561</title>
<g id="a_node2"><a xlink:href="structVector2.html#a6b537328ae913e3e7267b539e7a4af92" target="_top" xlink:title=" ">
<polygon fill="white" stroke="black" points="208.537,-51 208.537,-71 283.463,-71 283.463,-51 208.537,-51"/>
<text text-anchor="middle" x="246" y="-57" font-family="Helvetica,sans-Serif" font-size="10.00">Vector2::zero</text>
</a>
</g>
</g>
<!-- Node560&#45;&gt;Node561 -->
<g id="edge1" class="edge"><title>Node560&#45;&gt;Node561</title>
<path fill="none" stroke="midnightblue" d="M139.769,-47.0902C159.395,-49.6844 180.316,-52.4499 198.292,-54.826"/>
<polygon fill="midnightblue" stroke="midnightblue" points="197.853,-58.2983 208.225,-56.139 198.77,-51.3586 197.853,-58.2983"/>
</g>
<!-- Node562 -->
<g id="node3" class="node"><title>Node562</title>
<g id="a_node3"><a xlink:href="classNavEKF3__core.html#ada44d13b68ddfd4b28337d5e52921ce7" target="_top" xlink:title=" ">
<polygon fill="white" stroke="black" points="176.301,-0 176.301,-32 315.699,-32 315.699,-0 176.301,-0"/>
<text text-anchor="start" x="184.301" y="-18" font-family="Helvetica,sans-Serif" font-size="10.00">NavEKF3_core::getLastPos</text>
<text text-anchor="middle" x="246" y="-6" font-family="Helvetica,sans-Serif" font-size="10.00">NorthEastReset</text>
</a>
</g>
</g>
<!-- Node560&#45;&gt;Node562 -->
<g id="edge2" class="edge"><title>Node560&#45;&gt;Node562</title>
<path fill="none" stroke="midnightblue" d="M139.769,-29.305C148.372,-28.2173 157.224,-27.0981 165.967,-25.9926"/>
<polygon fill="midnightblue" stroke="midnightblue" points="166.678,-29.4307 176.16,-24.7039 165.8,-22.486 166.678,-29.4307"/>
</g>
</g>
</svg>
