<?xml version="1.0" encoding="UTF-8" standalone="no"?>
<!DOCTYPE svg PUBLIC "-//W3C//DTD SVG 1.1//EN"
 "http://www.w3.org/Graphics/SVG/1.1/DTD/svg11.dtd">
<!-- Generated by graphviz version 2.30.1 (20130221.2233)
 -->
<!-- Title: AP_Notify::AP_Notify Pages: 1 -->
<svg width="438pt" height="169pt"
 viewBox="0.00 0.00 438.00 169.00" xmlns="http://www.w3.org/2000/svg" xmlns:xlink="http://www.w3.org/1999/xlink">
<g id="graph0" class="graph" transform="scale(1 1) rotate(0) translate(4 165)">
<title>AP_Notify::AP_Notify</title>
<polygon fill="white" stroke="white" points="-4,5 -4,-165 435,-165 435,5 -4,5"/>
<!-- Node0 -->
<g id="node1" class="node"><title>Node0</title>
<g id="a_node1"><a xlink:title=" ">
<polygon fill="#bfbfbf" stroke="black" points="-0.241211,-73 -0.241211,-93 110.241,-93 110.241,-73 -0.241211,-73"/>
<text text-anchor="middle" x="55" y="-79" font-family="Helvetica,sans-Serif" font-size="10.00">AP_Notify::AP_Notify</text>
</a>
</g>
</g>
<!-- Node1 -->
<g id="node2" class="node"><title>Node1</title>
<g id="a_node2"><a xlink:href="classAP__Param.html#a5f6dcfce1c0a79cf5bd81283e22f3201" target="_top" xlink:title=" ">
<polygon fill="white" stroke="black" points="146.69,-90 146.69,-122 273.31,-122 273.31,-90 146.69,-90"/>
<text text-anchor="start" x="154.69" y="-108" font-family="Helvetica,sans-Serif" font-size="10.00">AP_Param::setup_object</text>
<text text-anchor="middle" x="210" y="-96" font-family="Helvetica,sans-Serif" font-size="10.00">_defaults</text>
</a>
</g>
</g>
<!-- Node0&#45;&gt;Node1 -->
<g id="edge1" class="edge"><title>Node0&#45;&gt;Node1</title>
<path fill="none" stroke="midnightblue" d="M110.373,-91.1737C118.86,-92.4496 127.745,-93.7852 136.558,-95.11"/>
<polygon fill="midnightblue" stroke="midnightblue" points="136.043,-98.5718 146.452,-96.5973 137.083,-91.6496 136.043,-98.5718"/>
</g>
<!-- Node4 -->
<g id="node5" class="node"><title>Node4</title>
<g id="a_node5"><a xlink:href="namespaceAP__HAL.html#a71832f03d849a0c088f04fc98d3c8143" target="_top" xlink:title=" ">
<polygon fill="white" stroke="black" points="168.091,-51 168.091,-71 251.909,-71 251.909,-51 168.091,-51"/>
<text text-anchor="middle" x="210" y="-57" font-family="Helvetica,sans-Serif" font-size="10.00">AP_HAL::panic</text>
</a>
</g>
</g>
<!-- Node0&#45;&gt;Node4 -->
<g id="edge4" class="edge"><title>Node0&#45;&gt;Node4</title>
<path fill="none" stroke="midnightblue" d="M110.373,-75.1817C125.726,-72.974 142.38,-70.5793 157.556,-68.3972"/>
<polygon fill="midnightblue" stroke="midnightblue" points="158.391,-71.8132 167.791,-66.9254 157.395,-64.8844 158.391,-71.8132"/>
</g>
<!-- Node2 -->
<g id="node3" class="node"><title>Node2</title>
<g id="a_node3"><a xlink:href="classAP__Param.html#acd4b14f793c37f162e298761d2155ca6" target="_top" xlink:title=" ">
<polygon fill="white" stroke="black" points="313.641,-141 313.641,-161 426.359,-161 426.359,-141 313.641,-141"/>
<text text-anchor="middle" x="370" y="-147" font-family="Helvetica,sans-Serif" font-size="10.00">AP_Param::set_value</text>
</a>
</g>
</g>
<!-- Node1&#45;&gt;Node2 -->
<g id="edge2" class="edge"><title>Node1&#45;&gt;Node2</title>
<path fill="none" stroke="midnightblue" d="M267.595,-122.119C285.952,-127.347 306.069,-133.077 323.51,-138.044"/>
<polygon fill="midnightblue" stroke="midnightblue" points="322.861,-141.498 333.437,-140.871 324.778,-134.766 322.861,-141.498"/>
</g>
<!-- Node3 -->
<g id="node4" class="node"><title>Node3</title>
<g id="a_node4"><a xlink:href="classAP__Param.html#a7535a9b529dae326dcebb6be33dbbe9a" target="_top" xlink:title=" ">
<polygon fill="white" stroke="black" points="310.301,-90 310.301,-122 429.699,-122 429.699,-90 310.301,-90"/>
<text text-anchor="start" x="318.301" y="-108" font-family="Helvetica,sans-Serif" font-size="10.00">AP_Param::get_default</text>
<text text-anchor="middle" x="370" y="-96" font-family="Helvetica,sans-Serif" font-size="10.00">_value</text>
</a>
</g>
</g>
<!-- Node1&#45;&gt;Node3 -->
<g id="edge3" class="edge"><title>Node1&#45;&gt;Node3</title>
<path fill="none" stroke="midnightblue" d="M273.446,-106C282.125,-106 291.084,-106 299.877,-106"/>
<polygon fill="midnightblue" stroke="midnightblue" points="300.096,-109.5 310.096,-106 300.096,-102.5 300.096,-109.5"/>
</g>
<!-- Node5 -->
<g id="node6" class="node"><title>Node5</title>
<g id="a_node6"><a xlink:href="stdio_8h.html#aae132cc6af1eb6cf43bf011d8d63e854" target="_top" xlink:title=" ">
<polygon fill="white" stroke="black" points="348.384,-51 348.384,-71 391.616,-71 391.616,-51 348.384,-51"/>
<text text-anchor="middle" x="370" y="-57" font-family="Helvetica,sans-Serif" font-size="10.00">vprintf</text>
</a>
</g>
</g>
<!-- Node4&#45;&gt;Node5 -->
<g id="edge5" class="edge"><title>Node4&#45;&gt;Node5</title>
<path fill="none" stroke="midnightblue" d="M252.1,-61C279.021,-61 313.638,-61 338.197,-61"/>
<polygon fill="midnightblue" stroke="midnightblue" points="338.381,-64.5001 348.381,-61 338.381,-57.5001 338.381,-64.5001"/>
</g>
<!-- Node6 -->
<g id="node7" class="node"><title>Node6</title>
<g id="a_node7"><a xlink:href="classAP__HAL_1_1Scheduler.html#a78c4f1b1f192ac1c99544b6cc8f099b0" target="_top" xlink:title=" ">
<polygon fill="white" stroke="black" points="314.751,-0 314.751,-32 425.249,-32 425.249,-0 314.751,-0"/>
<text text-anchor="start" x="322.751" y="-18" font-family="Helvetica,sans-Serif" font-size="10.00">AP_HAL::Scheduler::</text>
<text text-anchor="middle" x="370" y="-6" font-family="Helvetica,sans-Serif" font-size="10.00">delay_microseconds</text>
</a>
</g>
</g>
<!-- Node4&#45;&gt;Node6 -->
<g id="edge6" class="edge"><title>Node4&#45;&gt;Node6</title>
<path fill="none" stroke="midnightblue" d="M246.458,-50.9011C263.738,-45.9797 285.06,-39.907 305.047,-34.2145"/>
<polygon fill="midnightblue" stroke="midnightblue" points="306.069,-37.5626 314.728,-31.4572 304.152,-30.8303 306.069,-37.5626"/>
</g>
</g>
</svg>
