<?xml version="1.0" encoding="UTF-8" standalone="no"?>
<!DOCTYPE svg PUBLIC "-//W3C//DTD SVG 1.1//EN"
 "http://www.w3.org/Graphics/SVG/1.1/DTD/svg11.dtd">
<!-- Generated by graphviz version 2.30.1 (20130221.2233)
 -->
<!-- Title: rad_diff Pages: 1 -->
<svg width="518pt" height="145pt"
 viewBox="0.00 0.00 518.00 145.00" xmlns="http://www.w3.org/2000/svg" xmlns:xlink="http://www.w3.org/1999/xlink">
<g id="graph0" class="graph" transform="scale(1 1) rotate(0) translate(4 141)">
<title>rad_diff</title>
<polygon fill="white" stroke="white" points="-4,5 -4,-141 515,-141 515,5 -4,5"/>
<!-- Node23 -->
<g id="node1" class="node"><title>Node23</title>
<g id="a_node1"><a xlink:title=" ">
<polygon fill="#bfbfbf" stroke="black" points="460.411,-39 460.411,-59 509.589,-59 509.589,-39 460.411,-39"/>
<text text-anchor="middle" x="485" y="-45" font-family="Helvetica,sans-Serif" font-size="10.00">rad_diff</text>
</a>
</g>
</g>
<!-- Node24 -->
<g id="node2" class="node"><title>Node24</title>
<g id="a_node2"><a xlink:href="eulers_8cpp.html#a6bfa6320a080694c8cdf18de74004189" target="_top" xlink:title=" ">
<polygon fill="white" stroke="black" points="351.931,-39 351.931,-59 424.069,-59 424.069,-39 351.931,-39"/>
<text text-anchor="middle" x="388" y="-45" font-family="Helvetica,sans-Serif" font-size="10.00">check_result</text>
</a>
</g>
</g>
<!-- Node23&#45;&gt;Node24 -->
<g id="edge1" class="edge"><title>Node23&#45;&gt;Node24</title>
<path fill="none" stroke="midnightblue" d="M449.839,-49C441.472,-49 432.505,-49 424.096,-49"/>
<polygon fill="midnightblue" stroke="midnightblue" points="450.028,-52.5001 460.027,-49 450.027,-45.5001 450.028,-52.5001"/>
</g>
<!-- Node25 -->
<g id="node3" class="node"><title>Node25</title>
<g id="a_node3"><a xlink:href="eulers_8cpp.html#ada3aa00f3fc83688f3bb0c2c847b7e50" target="_top" xlink:title=" ">
<polygon fill="white" stroke="black" points="229.98,-78 229.98,-98 316.02,-98 316.02,-78 229.98,-78"/>
<text text-anchor="middle" x="273" y="-84" font-family="Helvetica,sans-Serif" font-size="10.00">test_conversion</text>
</a>
</g>
</g>
<!-- Node24&#45;&gt;Node25 -->
<g id="edge2" class="edge"><title>Node24&#45;&gt;Node25</title>
<path fill="none" stroke="midnightblue" d="M348.438,-62.3089C333.559,-67.4442 316.828,-73.2188 303.002,-77.9906"/>
<polygon fill="midnightblue" stroke="midnightblue" points="349.589,-65.6145 357.9,-59.0435 347.305,-58.9975 349.589,-65.6145"/>
</g>
<!-- Node28 -->
<g id="node6" class="node"><title>Node28</title>
<g id="a_node6"><a xlink:href="eulers_8cpp.html#ab0e4b7cf8126ff5efa48d6f91eaad6ea" target="_top" xlink:title=" ">
<polygon fill="white" stroke="black" points="243.042,-39 243.042,-59 302.958,-59 302.958,-39 243.042,-39"/>
<text text-anchor="middle" x="273" y="-45" font-family="Helvetica,sans-Serif" font-size="10.00">test_euler</text>
</a>
</g>
</g>
<!-- Node24&#45;&gt;Node28 -->
<g id="edge6" class="edge"><title>Node24&#45;&gt;Node28</title>
<path fill="none" stroke="midnightblue" d="M341.656,-49C328.636,-49 314.793,-49 303.043,-49"/>
<polygon fill="midnightblue" stroke="midnightblue" points="341.866,-52.5001 351.866,-49 341.865,-45.5001 341.866,-52.5001"/>
</g>
<!-- Node30 -->
<g id="node8" class="node"><title>Node30</title>
<g id="a_node8"><a xlink:href="eulers_8cpp.html#a288b88e3267221134f72a170d9895cef" target="_top" xlink:title=" ">
<polygon fill="white" stroke="black" points="230.53,-0 230.53,-20 315.47,-20 315.47,-0 230.53,-0"/>
<text text-anchor="middle" x="273" y="-6" font-family="Helvetica,sans-Serif" font-size="10.00">test_quaternion</text>
</a>
</g>
</g>
<!-- Node24&#45;&gt;Node30 -->
<g id="edge9" class="edge"><title>Node24&#45;&gt;Node30</title>
<path fill="none" stroke="midnightblue" d="M348.438,-35.6911C333.559,-30.5558 316.828,-24.7812 303.002,-20.0094"/>
<polygon fill="midnightblue" stroke="midnightblue" points="347.305,-39.0025 357.9,-38.9565 349.589,-32.3855 347.305,-39.0025"/>
</g>
<!-- Node26 -->
<g id="node4" class="node"><title>Node26</title>
<g id="a_node4"><a xlink:href="eulers_8cpp.html#ac5851b63c32809e725e1fadbec137224" target="_top" xlink:title=" ">
<polygon fill="white" stroke="black" points="89.4805,-117 89.4805,-137 180.52,-137 180.52,-117 89.4805,-117"/>
<text text-anchor="middle" x="135" y="-123" font-family="Helvetica,sans-Serif" font-size="10.00">test_conversions</text>
</a>
</g>
</g>
<!-- Node25&#45;&gt;Node26 -->
<g id="edge3" class="edge"><title>Node25&#45;&gt;Node26</title>
<path fill="none" stroke="midnightblue" d="M227.119,-100.87C208.835,-106.113 188.02,-112.082 170.905,-116.991"/>
<polygon fill="midnightblue" stroke="midnightblue" points="228.329,-104.164 236.977,-98.0435 226.399,-97.4357 228.329,-104.164"/>
</g>
<!-- Node27 -->
<g id="node5" class="node"><title>Node27</title>
<g id="a_node5"><a xlink:href="eulers_8cpp.html#a4fc01d736fe50cf5b977f755b675f11d" target="_top" xlink:title=" ">
<polygon fill="white" stroke="black" points="-0.231445,-58 -0.231445,-78 40.2314,-78 40.2314,-58 -0.231445,-58"/>
<text text-anchor="middle" x="20" y="-64" font-family="Helvetica,sans-Serif" font-size="10.00">setup</text>
</a>
</g>
</g>
<!-- Node25&#45;&gt;Node27 -->
<g id="edge5" class="edge"><title>Node25&#45;&gt;Node27</title>
<path fill="none" stroke="midnightblue" d="M219.647,-83.8285C163.836,-79.3814 78.3761,-72.5718 40.3753,-69.5438"/>
<polygon fill="midnightblue" stroke="midnightblue" points="219.459,-87.3244 229.705,-84.6299 220.015,-80.3466 219.459,-87.3244"/>
</g>
<!-- Node26&#45;&gt;Node27 -->
<g id="edge4" class="edge"><title>Node26&#45;&gt;Node27</title>
<path fill="none" stroke="midnightblue" d="M99.283,-113.022C91.5196,-109.625 83.3973,-105.854 76,-102 62.0622,-94.7381 46.9199,-85.2504 36.0589,-78.1433"/>
<polygon fill="midnightblue" stroke="midnightblue" points="97.9307,-116.251 108.502,-116.961 100.681,-109.813 97.9307,-116.251"/>
</g>
<!-- Node29 -->
<g id="node7" class="node"><title>Node29</title>
<g id="a_node7"><a xlink:href="eulers_8cpp.html#aceb2646dd2a8910fd27813e20e13c6a4" target="_top" xlink:title=" ">
<polygon fill="white" stroke="black" points="86.1504,-39 86.1504,-59 183.85,-59 183.85,-39 86.1504,-39"/>
<text text-anchor="middle" x="135" y="-45" font-family="Helvetica,sans-Serif" font-size="10.00">test_matrix_eulers</text>
</a>
</g>
</g>
<!-- Node28&#45;&gt;Node29 -->
<g id="edge7" class="edge"><title>Node28&#45;&gt;Node29</title>
<path fill="none" stroke="midnightblue" d="M232.691,-49C217.439,-49 199.829,-49 183.85,-49"/>
<polygon fill="midnightblue" stroke="midnightblue" points="232.825,-52.5001 242.825,-49 232.825,-45.5001 232.825,-52.5001"/>
</g>
<!-- Node29&#45;&gt;Node27 -->
<g id="edge8" class="edge"><title>Node29&#45;&gt;Node27</title>
<path fill="none" stroke="midnightblue" d="M76.1815,-58.7217C63.2044,-60.9037 50.3201,-63.0701 40.269,-64.7601"/>
<polygon fill="midnightblue" stroke="midnightblue" points="76.7966,-62.1675 86.0778,-57.0577 75.6359,-55.2644 76.7966,-62.1675"/>
</g>
<!-- Node31 -->
<g id="node9" class="node"><title>Node31</title>
<g id="a_node9"><a xlink:href="eulers_8cpp.html#a1e4ca41feae51e8f6dc923cde8d1ad39" target="_top" xlink:title=" ">
<polygon fill="white" stroke="black" points="76.1309,-0 76.1309,-20 193.869,-20 193.869,-0 76.1309,-0"/>
<text text-anchor="middle" x="135" y="-6" font-family="Helvetica,sans-Serif" font-size="10.00">test_quaternion_eulers</text>
</a>
</g>
</g>
<!-- Node30&#45;&gt;Node31 -->
<g id="edge10" class="edge"><title>Node30&#45;&gt;Node31</title>
<path fill="none" stroke="midnightblue" d="M220.31,-10C211.813,-10 202.956,-10 194.311,-10"/>
<polygon fill="midnightblue" stroke="midnightblue" points="220.457,-13.5001 230.457,-10 220.457,-6.5001 220.457,-13.5001"/>
</g>
<!-- Node31&#45;&gt;Node27 -->
<g id="edge11" class="edge"><title>Node31&#45;&gt;Node27</title>
<path fill="none" stroke="midnightblue" d="M88.0429,-23.6192C83.904,-25.2738 79.8325,-27.0692 76,-29 60.1102,-37.0053 43.6999,-49.2534 32.9889,-57.8837"/>
<polygon fill="midnightblue" stroke="midnightblue" points="89.5865,-26.7796 97.7422,-20.0168 87.1493,-20.2176 89.5865,-26.7796"/>
</g>
</g>
</svg>
