<?xml version="1.0" encoding="UTF-8" standalone="no"?>
<!DOCTYPE svg PUBLIC "-//W3C//DTD SVG 1.1//EN"
 "http://www.w3.org/Graphics/SVG/1.1/DTD/svg11.dtd">
<!-- Generated by graphviz version 2.30.1 (20130221.2233)
 -->
<!-- Title: test_quaternion_eulers Pages: 1 -->
<!--zoomable 376 -->
<svg id="main" version="1.1" xmlns="http://www.w3.org/2000/svg" xmlns:xlink="http://www.w3.org/1999/xlink" xml:space="preserve" onload="init(evt)">
<style type="text/css"><![CDATA[
.edge:hover path { stroke: red; }
.edge:hover polygon { stroke: red; fill: red; }
]]></style>
<script type="text/javascript"><![CDATA[
var edges = document.getElementsByTagName('g');
if (edges && edges.length) {
  for (var i=0;i<edges.length;i++) {
    if (edges[i].id.substr(0,4)=='edge') {
      edges[i].setAttribute('class','edge');
    }
  }
}
]]></script>
        <defs>
                <circle id="rim" cx="0" cy="0" r="7"/>
                <circle id="rim2" cx="0" cy="0" r="3.5"/>
                <g id="zoomPlus">
                        <use xlink:href="#rim" fill="#404040">
                                <set attributeName="fill" to="#808080" begin="zoomplus.mouseover" end="zoomplus.mouseout"/>
                        </use>
                        <path d="M-4,0h8M0,-4v8" fill="none" stroke="white" stroke-width="1.5" pointer-events="none"/>
                </g>
                <g id="zoomMin">
                        <use xlink:href="#rim" fill="#404040">
                                <set attributeName="fill" to="#808080" begin="zoomminus.mouseover" end="zoomminus.mouseout"/>
                        </use>
                        <path d="M-4,0h8" fill="none" stroke="white" stroke-width="1.5" pointer-events="none"/>
                </g>
                <g id="dirArrow">
                        <path fill="none" stroke="white" stroke-width="1.5" d="M0,-3.0v7 M-2.5,-0.5L0,-3.0L2.5,-0.5"/>
                </g>
               <g id="resetDef">
                       <use xlink:href="#rim2" fill="#404040">
                               <set attributeName="fill" to="#808080" begin="reset.mouseover" end="reset.mouseout"/>
                       </use>
               </g>
        </defs>

<script type="text/javascript">
var viewWidth = 1072;
var viewHeight = 376;
var sectionId = 'dynsection-21';
</script>
<script xlink:href="svgpan.js"/>
<svg id="graph" class="graph">
<g id="viewport">
<title>test_quaternion_eulers</title>
<polygon fill="white" stroke="white" points="-4,5 -4,-372 1069,-372 1069,5 -4,5"/>
<!-- Node217 -->
<g id="node1" class="node"><title>Node217</title>
<g id="a_node1"><a xlink:title=" ">
<polygon fill="#bfbfbf" stroke="black" points="0.130859,-232 0.130859,-252 117.869,-252 117.869,-232 0.130859,-232"/>
<text text-anchor="middle" x="59" y="-238" font-family="Helvetica,sans-Serif" font-size="10.00">test_quaternion_eulers</text>
</a>
</g>
</g>
<!-- Node218 -->
<g id="node2" class="node"><title>Node218</title>
<g id="a_node2"><a xlink:href="classAP__HAL_1_1BetterStream.html#a8534aa004599bb81ad60f3e762791032" target="_top" xlink:title=" ">
<polygon fill="white" stroke="black" points="450.589,-271 450.589,-303 569.411,-303 569.411,-271 450.589,-271"/>
<text text-anchor="start" x="458.589" y="-289" font-family="Helvetica,sans-Serif" font-size="10.00">AP_HAL::BetterStream</text>
<text text-anchor="middle" x="510" y="-277" font-family="Helvetica,sans-Serif" font-size="10.00">::printf</text>
</a>
</g>
</g>
<!-- Node217&#45;&gt;Node218 -->
<g id="edge1" class="edge"><title>Node217&#45;&gt;Node218</title>
<path fill="none" stroke="midnightblue" d="M96.7121,-252.057C139.402,-263.187 212.177,-280.422 276,-287 330.991,-292.667 393.672,-292.284 440.159,-290.695"/>
<polygon fill="midnightblue" stroke="midnightblue" points="440.555,-294.182 450.419,-290.315 440.296,-287.187 440.555,-294.182"/>
</g>
<!-- Node226 -->
<g id="node10" class="node"><title>Node226</title>
<g id="a_node10"><a xlink:href="eulers_8cpp.html#a288b88e3267221134f72a170d9895cef" target="_top" xlink:title=" ">
<polygon fill="white" stroke="black" points="154.53,-148 154.53,-168 239.47,-168 239.47,-148 154.53,-148"/>
<text text-anchor="middle" x="197" y="-154" font-family="Helvetica,sans-Serif" font-size="10.00">test_quaternion</text>
</a>
</g>
</g>
<!-- Node217&#45;&gt;Node226 -->
<g id="edge11" class="edge"><title>Node217&#45;&gt;Node226</title>
<path fill="none" stroke="midnightblue" d="M76.4048,-231.868C99.8898,-217.362 143.293,-190.554 170.851,-173.533"/>
<polygon fill="midnightblue" stroke="midnightblue" points="172.868,-176.401 179.537,-168.168 169.19,-170.445 172.868,-176.401"/>
</g>
<!-- Node219 -->
<g id="node3" class="node"><title>Node219</title>
<g id="a_node3"><a xlink:href="classAP__HAL_1_1BetterStream.html#aa730be451d385d7ba03ee9677e6d91a2" target="_top" xlink:title=" ">
<polygon fill="white" stroke="black" points="614.589,-271 614.589,-303 733.411,-303 733.411,-271 614.589,-271"/>
<text text-anchor="start" x="622.589" y="-289" font-family="Helvetica,sans-Serif" font-size="10.00">AP_HAL::BetterStream</text>
<text text-anchor="middle" x="674" y="-277" font-family="Helvetica,sans-Serif" font-size="10.00">::vprintf</text>
</a>
</g>
</g>
<!-- Node218&#45;&gt;Node219 -->
<g id="edge2" class="edge"><title>Node218&#45;&gt;Node219</title>
<path fill="none" stroke="midnightblue" d="M569.486,-287C580.771,-287 592.69,-287 604.267,-287"/>
<polygon fill="midnightblue" stroke="midnightblue" points="604.328,-290.5 614.328,-287 604.328,-283.5 604.328,-290.5"/>
</g>
<!-- Node220 -->
<g id="node4" class="node"><title>Node220</title>
<g id="a_node4"><a xlink:href="print__vprintf_8cpp.html#a98e0d5bb436a207f576379beaa786040" target="_top" xlink:title=" ">
<polygon fill="white" stroke="black" points="769.877,-277 769.877,-297 838.123,-297 838.123,-277 769.877,-277"/>
<text text-anchor="middle" x="804" y="-283" font-family="Helvetica,sans-Serif" font-size="10.00">print_vprintf</text>
</a>
</g>
</g>
<!-- Node219&#45;&gt;Node220 -->
<g id="edge3" class="edge"><title>Node219&#45;&gt;Node220</title>
<path fill="none" stroke="midnightblue" d="M733.755,-287C742.443,-287 751.26,-287 759.561,-287"/>
<polygon fill="midnightblue" stroke="midnightblue" points="759.751,-290.5 769.751,-287 759.751,-283.5 759.751,-290.5"/>
</g>
<!-- Node221 -->
<g id="node5" class="node"><title>Node221</title>
<g id="a_node5"><a xlink:href="classAP__HAL_1_1BetterStream.html#a915cc01273d4b418c2fb2989fb31a508" target="_top" xlink:title=" ">
<polygon fill="white" stroke="black" points="874.589,-336 874.589,-368 993.411,-368 993.411,-336 874.589,-336"/>
<text text-anchor="start" x="882.589" y="-354" font-family="Helvetica,sans-Serif" font-size="10.00">AP_HAL::BetterStream</text>
<text text-anchor="middle" x="934" y="-342" font-family="Helvetica,sans-Serif" font-size="10.00">::write</text>
</a>
</g>
</g>
<!-- Node220&#45;&gt;Node221 -->
<g id="edge4" class="edge"><title>Node220&#45;&gt;Node221</title>
<path fill="none" stroke="midnightblue" d="M821.76,-297.093C835.578,-305.263 855.795,-316.872 874,-326 877.771,-327.891 881.711,-329.788 885.687,-331.65"/>
<polygon fill="midnightblue" stroke="midnightblue" points="884.422,-334.92 894.971,-335.907 887.34,-328.557 884.422,-334.92"/>
</g>
<!-- Node222 -->
<g id="node6" class="node"><title>Node222</title>
<g id="a_node6"><a xlink:href="ftoa__engine_8cpp.html#a1c28234da8f20b43c85890d4bb452947" target="_top" xlink:title=" ">
<polygon fill="white" stroke="black" points="899.865,-258 899.865,-278 968.135,-278 968.135,-258 899.865,-258"/>
<text text-anchor="middle" x="934" y="-264" font-family="Helvetica,sans-Serif" font-size="10.00">ftoa_engine</text>
</a>
</g>
</g>
<!-- Node220&#45;&gt;Node222 -->
<g id="edge5" class="edge"><title>Node220&#45;&gt;Node222</title>
<path fill="none" stroke="midnightblue" d="M838.296,-282.058C853.877,-279.745 872.64,-276.96 889.341,-274.481"/>
<polygon fill="midnightblue" stroke="midnightblue" points="890.048,-277.914 899.426,-272.984 889.02,-270.99 890.048,-277.914"/>
</g>
<!-- Node224 -->
<g id="node8" class="node"><title>Node224</title>
<g id="a_node8"><a xlink:href="utoa__invert_8cpp.html#a34926f552460b47c414ec4d83b32815c" target="_top" xlink:title=" ">
<polygon fill="white" stroke="black" points="899.04,-219 899.04,-239 968.96,-239 968.96,-219 899.04,-219"/>
<text text-anchor="middle" x="934" y="-225" font-family="Helvetica,sans-Serif" font-size="10.00">ulltoa_invert</text>
</a>
</g>
</g>
<!-- Node220&#45;&gt;Node224 -->
<g id="edge7" class="edge"><title>Node220&#45;&gt;Node224</title>
<path fill="none" stroke="midnightblue" d="M821.314,-276.941C835.039,-268.742 855.354,-257.218 874,-249 879.134,-246.737 884.61,-244.57 890.079,-242.553"/>
<polygon fill="midnightblue" stroke="midnightblue" points="891.581,-245.734 899.838,-239.096 889.244,-239.136 891.581,-245.734"/>
</g>
<!-- Node225 -->
<g id="node9" class="node"><title>Node225</title>
<g id="a_node9"><a xlink:href="utoa__invert_8cpp.html#a5d99bba8e697c1e11da489d88fca8559" target="_top" xlink:title=" ">
<polygon fill="white" stroke="black" points="900.15,-297 900.15,-317 967.85,-317 967.85,-297 900.15,-297"/>
<text text-anchor="middle" x="934" y="-303" font-family="Helvetica,sans-Serif" font-size="10.00">ultoa_invert</text>
</a>
</g>
</g>
<!-- Node220&#45;&gt;Node225 -->
<g id="edge9" class="edge"><title>Node220&#45;&gt;Node225</title>
<path fill="none" stroke="midnightblue" d="M838.296,-292.203C854,-294.656 872.936,-297.615 889.735,-300.24"/>
<polygon fill="midnightblue" stroke="midnightblue" points="889.45,-303.738 899.87,-301.823 890.531,-296.822 889.45,-303.738"/>
</g>
<!-- Node223 -->
<g id="node7" class="node"><title>Node223</title>
<g id="a_node7"><a xlink:href="lstrlib_8c.html#a9605f4d16ae762782f8be8b54aef0a22" target="_top" xlink:title=" ">
<polygon fill="white" stroke="black" points="1029.83,-258 1029.83,-278 1064.17,-278 1064.17,-258 1029.83,-258"/>
<text text-anchor="middle" x="1047" y="-264" font-family="Helvetica,sans-Serif" font-size="10.00">digit</text>
</a>
</g>
</g>
<!-- Node222&#45;&gt;Node223 -->
<g id="edge6" class="edge"><title>Node222&#45;&gt;Node223</title>
<path fill="none" stroke="midnightblue" d="M968.304,-268C984.645,-268 1004.06,-268 1019.39,-268"/>
<polygon fill="midnightblue" stroke="midnightblue" points="1019.74,-271.5 1029.74,-268 1019.74,-264.5 1019.74,-271.5"/>
</g>
<!-- Node224&#45;&gt;Node223 -->
<g id="edge8" class="edge"><title>Node224&#45;&gt;Node223</title>
<path fill="none" stroke="midnightblue" d="M965.062,-239.039C974.355,-242.183 984.615,-245.695 994,-249 1002.51,-251.996 1011.77,-255.348 1020.08,-258.394"/>
<polygon fill="midnightblue" stroke="midnightblue" points="1019.05,-261.743 1029.64,-261.911 1021.46,-255.174 1019.05,-261.743"/>
</g>
<!-- Node225&#45;&gt;Node223 -->
<g id="edge10" class="edge"><title>Node225&#45;&gt;Node223</title>
<path fill="none" stroke="midnightblue" d="M965.062,-296.961C974.355,-293.817 984.615,-290.305 994,-287 1002.51,-284.004 1011.77,-280.652 1020.08,-277.606"/>
<polygon fill="midnightblue" stroke="midnightblue" points="1021.46,-280.826 1029.64,-274.089 1019.05,-274.257 1021.46,-280.826"/>
</g>
<!-- Node227 -->
<g id="node11" class="node"><title>Node227</title>
<g id="a_node11"><a xlink:href="classQuaternion.html#aff2d2d3d1c5937523df8357deae4eeab" target="_top" xlink:title=" ">
<polygon fill="white" stroke="black" points="281.584,-207 281.584,-227 400.416,-227 400.416,-207 281.584,-207"/>
<text text-anchor="middle" x="341" y="-213" font-family="Helvetica,sans-Serif" font-size="10.00">Quaternion::from_euler</text>
</a>
</g>
</g>
<!-- Node226&#45;&gt;Node227 -->
<g id="edge12" class="edge"><title>Node226&#45;&gt;Node227</title>
<path fill="none" stroke="midnightblue" d="M216.211,-168.154C231.779,-176.578 254.938,-188.508 276,-197 281.952,-199.4 288.308,-201.693 294.618,-203.815"/>
<polygon fill="midnightblue" stroke="midnightblue" points="293.84,-207.242 304.432,-206.999 296,-200.584 293.84,-207.242"/>
</g>
<!-- Node228 -->
<g id="node12" class="node"><title>Node228</title>
<g id="a_node12"><a xlink:href="classQuaternion.html#a16eda13811dc1ec519adf9b5c1b1eb7c" target="_top" xlink:title=" ">
<polygon fill="white" stroke="black" points="287.414,-129 287.414,-149 394.586,-149 394.586,-129 287.414,-129"/>
<text text-anchor="middle" x="341" y="-135" font-family="Helvetica,sans-Serif" font-size="10.00">Quaternion::to_euler</text>
</a>
</g>
</g>
<!-- Node226&#45;&gt;Node228 -->
<g id="edge13" class="edge"><title>Node226&#45;&gt;Node228</title>
<path fill="none" stroke="midnightblue" d="M239.837,-152.402C251.585,-150.83 264.623,-149.086 277.303,-147.389"/>
<polygon fill="midnightblue" stroke="midnightblue" points="277.917,-150.838 287.364,-146.043 276.988,-143.9 277.917,-150.838"/>
</g>
<!-- Node233 -->
<g id="node17" class="node"><title>Node233</title>
<g id="a_node17"><a xlink:href="eulers_8cpp.html#a6bfa6320a080694c8cdf18de74004189" target="_top" xlink:title=" ">
<polygon fill="white" stroke="black" points="304.931,-168 304.931,-188 377.069,-188 377.069,-168 304.931,-168"/>
<text text-anchor="middle" x="341" y="-174" font-family="Helvetica,sans-Serif" font-size="10.00">check_result</text>
</a>
</g>
</g>
<!-- Node226&#45;&gt;Node233 -->
<g id="edge18" class="edge"><title>Node226&#45;&gt;Node233</title>
<path fill="none" stroke="midnightblue" d="M239.837,-163.892C257.07,-166.32 277.079,-169.138 294.661,-171.614"/>
<polygon fill="midnightblue" stroke="midnightblue" points="294.303,-175.098 304.694,-173.027 295.28,-168.167 294.303,-175.098"/>
</g>
<!-- Node235 -->
<g id="node19" class="node"><title>Node235</title>
<g id="a_node19"><a xlink:href="classMatrix3.html#a62587bd216436f09f06b9e1330f84bc0" target="_top" xlink:title=" ">
<polygon fill="white" stroke="black" points="289.931,-90 289.931,-110 392.069,-110 392.069,-90 289.931,-90"/>
<text text-anchor="middle" x="341" y="-96" font-family="Helvetica,sans-Serif" font-size="10.00">Matrix3::from_euler</text>
</a>
</g>
</g>
<!-- Node226&#45;&gt;Node235 -->
<g id="edge21" class="edge"><title>Node226&#45;&gt;Node235</title>
<path fill="none" stroke="midnightblue" d="M215.87,-147.937C231.42,-139.457 254.737,-127.397 276,-119 281.188,-116.951 286.687,-115.001 292.197,-113.185"/>
<polygon fill="midnightblue" stroke="midnightblue" points="293.581,-116.419 302.062,-110.069 291.472,-109.744 293.581,-116.419"/>
</g>
<!-- Node236 -->
<g id="node20" class="node"><title>Node236</title>
<g id="a_node20"><a xlink:href="classMatrix3.html#a3a809878d75c408fb8173b052016b529" target="_top" xlink:title=" ">
<polygon fill="white" stroke="black" points="295.761,-51 295.761,-71 386.239,-71 386.239,-51 295.761,-51"/>
<text text-anchor="middle" x="341" y="-57" font-family="Helvetica,sans-Serif" font-size="10.00">Matrix3::to_euler</text>
</a>
</g>
</g>
<!-- Node226&#45;&gt;Node236 -->
<g id="edge22" class="edge"><title>Node226&#45;&gt;Node236</title>
<path fill="none" stroke="midnightblue" d="M205.441,-147.781C218.086,-131.141 245.393,-98.2218 276,-80 279.227,-78.0786 282.663,-76.3392 286.203,-74.7665"/>
<polygon fill="midnightblue" stroke="midnightblue" points="287.739,-77.9226 295.744,-70.9823 285.158,-71.4157 287.739,-77.9226"/>
</g>
<!-- Node237 -->
<g id="node21" class="node"><title>Node237</title>
<g id="a_node21"><a xlink:href="classQuaternion.html#a5ee01ee833114be6181887d0dcfb33b1" target="_top" xlink:title=" ">
<polygon fill="white" stroke="black" points="276.025,-0 276.025,-32 405.975,-32 405.975,-0 276.025,-0"/>
<text text-anchor="start" x="284.025" y="-18" font-family="Helvetica,sans-Serif" font-size="10.00">Quaternion::from_rotation</text>
<text text-anchor="middle" x="341" y="-6" font-family="Helvetica,sans-Serif" font-size="10.00">_matrix</text>
</a>
</g>
</g>
<!-- Node226&#45;&gt;Node237 -->
<g id="edge23" class="edge"><title>Node226&#45;&gt;Node237</title>
<path fill="none" stroke="midnightblue" d="M202.25,-147.712C212.013,-125.261 238.151,-71.4565 276,-41 277.568,-39.738 279.208,-38.5338 280.903,-37.3852"/>
<polygon fill="midnightblue" stroke="midnightblue" points="282.969,-40.2277 289.76,-32.0957 279.38,-34.2177 282.969,-40.2277"/>
</g>
<!-- Node238 -->
<g id="node22" class="node"><title>Node238</title>
<g id="a_node22"><a xlink:href="classQuaternion.html#a765626a23ca350f7f92b3169d68f9973" target="_top" xlink:title=" ">
<polygon fill="white" stroke="black" points="288.806,-246 288.806,-278 393.194,-278 393.194,-246 288.806,-246"/>
<text text-anchor="start" x="296.806" y="-264" font-family="Helvetica,sans-Serif" font-size="10.00">Quaternion::rotation</text>
<text text-anchor="middle" x="341" y="-252" font-family="Helvetica,sans-Serif" font-size="10.00">_matrix</text>
</a>
</g>
</g>
<!-- Node226&#45;&gt;Node238 -->
<g id="edge24" class="edge"><title>Node226&#45;&gt;Node238</title>
<path fill="none" stroke="midnightblue" d="M205.858,-168.152C218.889,-184.404 246.475,-216.417 276,-236 278.886,-237.914 281.935,-239.727 285.074,-241.438"/>
<polygon fill="midnightblue" stroke="midnightblue" points="283.591,-244.61 294.096,-245.985 286.742,-238.359 283.591,-244.61"/>
</g>
<!-- Node229 -->
<g id="node13" class="node"><title>Node229</title>
<g id="a_node13"><a xlink:href="classQuaternion.html#ad5eb201474aade27db5131c2c07d2088" target="_top" xlink:title=" ">
<polygon fill="white" stroke="black" points="444.185,-64 444.185,-84 575.815,-84 575.815,-64 444.185,-64"/>
<text text-anchor="middle" x="510" y="-70" font-family="Helvetica,sans-Serif" font-size="10.00">Quaternion::get_euler_roll</text>
</a>
</g>
</g>
<!-- Node228&#45;&gt;Node229 -->
<g id="edge14" class="edge"><title>Node228&#45;&gt;Node229</title>
<path fill="none" stroke="midnightblue" d="M381.369,-128.895C389.7,-126.155 398.297,-122.857 406,-119 423.648,-110.164 424.236,-101.601 442,-93 446.329,-90.904 450.931,-89.0006 455.615,-87.2805"/>
<polygon fill="midnightblue" stroke="midnightblue" points="456.939,-90.5276 465.288,-84.0045 454.694,-83.8975 456.939,-90.5276"/>
</g>
<!-- Node230 -->
<g id="node14" class="node"><title>Node230</title>
<g id="a_node14"><a xlink:href="classQuaternion.html#a436fa63d58deadc491409c02b3e67fb1" target="_top" xlink:title=" ">
<polygon fill="white" stroke="black" points="453.633,-142 453.633,-174 566.367,-174 566.367,-142 453.633,-142"/>
<text text-anchor="start" x="461.633" y="-160" font-family="Helvetica,sans-Serif" font-size="10.00">Quaternion::get_euler</text>
<text text-anchor="middle" x="510" y="-148" font-family="Helvetica,sans-Serif" font-size="10.00">_pitch</text>
</a>
</g>
</g>
<!-- Node228&#45;&gt;Node230 -->
<g id="edge15" class="edge"><title>Node228&#45;&gt;Node230</title>
<path fill="none" stroke="midnightblue" d="M394.84,-145.012C410.204,-146.76 427.176,-148.691 443.231,-150.517"/>
<polygon fill="midnightblue" stroke="midnightblue" points="443.292,-154.047 453.623,-151.7 444.083,-147.092 443.292,-154.047"/>
</g>
<!-- Node232 -->
<g id="node16" class="node"><title>Node232</title>
<g id="a_node16"><a xlink:href="classQuaternion.html#a34f2a4db4c8ddf33540cb307fa929b72" target="_top" xlink:title=" ">
<polygon fill="white" stroke="black" points="441.961,-103 441.961,-123 578.039,-123 578.039,-103 441.961,-103"/>
<text text-anchor="middle" x="510" y="-109" font-family="Helvetica,sans-Serif" font-size="10.00">Quaternion::get_euler_yaw</text>
</a>
</g>
</g>
<!-- Node228&#45;&gt;Node232 -->
<g id="edge17" class="edge"><title>Node228&#45;&gt;Node232</title>
<path fill="none" stroke="midnightblue" d="M394.84,-130.773C407.404,-128.817 421.044,-126.694 434.379,-124.618"/>
<polygon fill="midnightblue" stroke="midnightblue" points="435.151,-128.04 444.493,-123.043 434.074,-121.123 435.151,-128.04"/>
</g>
<!-- Node231 -->
<g id="node15" class="node"><title>Node231</title>
<g id="a_node15"><a xlink:href="AP__Math_8cpp.html#a3370ada2588e54722319d65e00d8545c" target="_top" xlink:title=" ">
<polygon fill="white" stroke="black" points="644.596,-148 644.596,-168 703.404,-168 703.404,-148 644.596,-148"/>
<text text-anchor="middle" x="674" y="-154" font-family="Helvetica,sans-Serif" font-size="10.00">safe_asin</text>
</a>
</g>
</g>
<!-- Node230&#45;&gt;Node231 -->
<g id="edge16" class="edge"><title>Node230&#45;&gt;Node231</title>
<path fill="none" stroke="midnightblue" d="M566.751,-158C589.042,-158 614.167,-158 634.386,-158"/>
<polygon fill="midnightblue" stroke="midnightblue" points="634.472,-161.5 644.472,-158 634.472,-154.5 634.472,-161.5"/>
</g>
<!-- Node233&#45;&gt;Node218 -->
<g id="edge19" class="edge"><title>Node233&#45;&gt;Node218</title>
<path fill="none" stroke="midnightblue" d="M377.279,-186.202C386.924,-189.189 397.15,-193.076 406,-198 437.358,-215.448 467.753,-243.509 487.296,-263.455"/>
<polygon fill="midnightblue" stroke="midnightblue" points="485.027,-266.144 494.482,-270.925 490.072,-261.292 485.027,-266.144"/>
</g>
<!-- Node234 -->
<g id="node18" class="node"><title>Node234</title>
<g id="a_node18"><a xlink:href="eulers_8cpp.html#aa94c06a1eb86dc7dd817303e608203b6" target="_top" xlink:title=" ">
<polygon fill="white" stroke="black" points="485.411,-193 485.411,-213 534.589,-213 534.589,-193 485.411,-193"/>
<text text-anchor="middle" x="510" y="-199" font-family="Helvetica,sans-Serif" font-size="10.00">rad_diff</text>
</a>
</g>
</g>
<!-- Node233&#45;&gt;Node234 -->
<g id="edge20" class="edge"><title>Node233&#45;&gt;Node234</title>
<path fill="none" stroke="midnightblue" d="M377.416,-183.302C406.112,-187.598 446.301,-193.614 474.695,-197.864"/>
<polygon fill="midnightblue" stroke="midnightblue" points="474.543,-201.381 484.951,-199.4 475.579,-194.458 474.543,-201.381"/>
</g>
</g>
</svg>
        <g id="navigator" transform="translate(0 0)" fill="#404254">
                <rect fill="#f2f5e9" fill-opacity="0.5" stroke="#606060" stroke-width=".5" x="0" y="0" width="60" height="60"/>
                <use id="zoomplus" xlink:href="#zoomPlus" x="17" y="9" onmousedown="handleZoom(evt,'in')"/>
                <use id="zoomminus" xlink:href="#zoomMin" x="42" y="9" onmousedown="handleZoom(evt,'out')"/>
                <use id="reset" xlink:href="#resetDef" x="30" y="36" onmousedown="handleReset()"/>
                <g id="arrowUp" xlink:href="#dirArrow" transform="translate(30 24)" onmousedown="handlePan(0,-1)">
                  <use xlink:href="#rim" fill="#404040">
                        <set attributeName="fill" to="#808080" begin="arrowUp.mouseover" end="arrowUp.mouseout"/>
                  </use>
                  <path fill="none" stroke="white" stroke-width="1.5" d="M0,-3.0v7 M-2.5,-0.5L0,-3.0L2.5,-0.5"/>
                </g>
                <g id="arrowRight" xlink:href="#dirArrow" transform="rotate(90) translate(36 -43)" onmousedown="handlePan(1,0)">
                  <use xlink:href="#rim" fill="#404040">
                        <set attributeName="fill" to="#808080" begin="arrowRight.mouseover" end="arrowRight.mouseout"/>
                  </use>
                  <path fill="none" stroke="white" stroke-width="1.5" d="M0,-3.0v7 M-2.5,-0.5L0,-3.0L2.5,-0.5"/>
                </g>
                <g id="arrowDown" xlink:href="#dirArrow" transform="rotate(180) translate(-30 -48)" onmousedown="handlePan(0,1)">
                  <use xlink:href="#rim" fill="#404040">
                        <set attributeName="fill" to="#808080" begin="arrowDown.mouseover" end="arrowDown.mouseout"/>
                  </use>
                  <path fill="none" stroke="white" stroke-width="1.5" d="M0,-3.0v7 M-2.5,-0.5L0,-3.0L2.5,-0.5"/>
                </g>
                <g id="arrowLeft" xlink:href="#dirArrow" transform="rotate(270) translate(-36 17)" onmousedown="handlePan(-1,0)">
                  <use xlink:href="#rim" fill="#404040">
                        <set attributeName="fill" to="#808080" begin="arrowLeft.mouseover" end="arrowLeft.mouseout"/>
                  </use>
                  <path fill="none" stroke="white" stroke-width="1.5" d="M0,-3.0v7 M-2.5,-0.5L0,-3.0L2.5,-0.5"/>
                </g>
        </g>
        <svg viewBox="0 0 15 15" width="100%" height="30px" preserveAspectRatio="xMaxYMin meet">
         <g id="arrow_out" transform="scale(0.3 0.3)">
          <a xlink:href="eulers_8cpp_a1e4ca41feae51e8f6dc923cde8d1ad39_cgraph_org.svg" target="_base">
           <rect id="button" ry="5" rx="5" y="6" x="6" height="38" width="38"
                fill="#f2f5e9" fill-opacity="0.5" stroke="#606060" stroke-width="1.0"/>
           <path id="arrow"
             d="M 11.500037,31.436501 C 11.940474,20.09759 22.043105,11.32322 32.158766,21.979434 L 37.068811,17.246167 C 37.068811,17.246167 37.088388,32 37.088388,32 L 22.160133,31.978069 C 22.160133,31.978069 26.997745,27.140456 26.997745,27.140456 C 18.528582,18.264221 13.291696,25.230495 11.500037,31.436501 z"
             style="fill:#404040;"/>
          </a>
         </g>
        </svg>
</svg>
