<?xml version="1.0" encoding="UTF-8" standalone="no"?>
<!DOCTYPE svg PUBLIC "-//W3C//DTD SVG 1.1//EN"
 "http://www.w3.org/Graphics/SVG/1.1/DTD/svg11.dtd">
<!-- Generated by graphviz version 2.30.1 (20130221.2233)
 -->
<!-- Title: setup Pages: 1 -->
<!--zoomable 532 -->
<svg id="main" version="1.1" xmlns="http://www.w3.org/2000/svg" xmlns:xlink="http://www.w3.org/1999/xlink" xml:space="preserve" onload="init(evt)">
<style type="text/css"><![CDATA[
.edge:hover path { stroke: red; }
.edge:hover polygon { stroke: red; fill: red; }
]]></style>
<script type="text/javascript"><![CDATA[
var edges = document.getElementsByTagName('g');
if (edges && edges.length) {
  for (var i=0;i<edges.length;i++) {
    if (edges[i].id.substr(0,4)=='edge') {
      edges[i].setAttribute('class','edge');
    }
  }
}
]]></script>
        <defs>
                <circle id="rim" cx="0" cy="0" r="7"/>
                <circle id="rim2" cx="0" cy="0" r="3.5"/>
                <g id="zoomPlus">
                        <use xlink:href="#rim" fill="#404040">
                                <set attributeName="fill" to="#808080" begin="zoomplus.mouseover" end="zoomplus.mouseout"/>
                        </use>
                        <path d="M-4,0h8M0,-4v8" fill="none" stroke="white" stroke-width="1.5" pointer-events="none"/>
                </g>
                <g id="zoomMin">
                        <use xlink:href="#rim" fill="#404040">
                                <set attributeName="fill" to="#808080" begin="zoomminus.mouseover" end="zoomminus.mouseout"/>
                        </use>
                        <path d="M-4,0h8" fill="none" stroke="white" stroke-width="1.5" pointer-events="none"/>
                </g>
                <g id="dirArrow">
                        <path fill="none" stroke="white" stroke-width="1.5" d="M0,-3.0v7 M-2.5,-0.5L0,-3.0L2.5,-0.5"/>
                </g>
               <g id="resetDef">
                       <use xlink:href="#rim2" fill="#404040">
                               <set attributeName="fill" to="#808080" begin="reset.mouseover" end="reset.mouseout"/>
                       </use>
               </g>
        </defs>

<script type="text/javascript">
var viewWidth = 1244;
var viewHeight = 532;
var sectionId = 'dynsection-4';
</script>
<script xlink:href="svgpan.js"/>
<svg id="graph" class="graph">
<g id="viewport">
<title>setup</title>
<polygon fill="white" stroke="white" points="-4,5 -4,-527.913 1241,-527.913 1241,5 -4,5"/>
<!-- Node30 -->
<g id="node1" class="node"><title>Node30</title>
<g id="a_node1"><a xlink:title=" ">
<polygon fill="#bfbfbf" stroke="black" points="-0.231445,-361 -0.231445,-381 40.2314,-381 40.2314,-361 -0.231445,-361"/>
<text text-anchor="middle" x="20" y="-367" font-family="Helvetica,sans-Serif" font-size="10.00">setup</text>
</a>
</g>
</g>
<!-- Node31 -->
<g id="node2" class="node"><title>Node31</title>
<g id="a_node2"><a xlink:href="classAP__HAL_1_1BetterStream.html#a8534aa004599bb81ad60f3e762791032" target="_top" xlink:title=" ">
<polygon fill="white" stroke="black" points="567.589,-354 567.589,-386 686.411,-386 686.411,-354 567.589,-354"/>
<text text-anchor="start" x="575.589" y="-372" font-family="Helvetica,sans-Serif" font-size="10.00">AP_HAL::BetterStream</text>
<text text-anchor="middle" x="627" y="-360" font-family="Helvetica,sans-Serif" font-size="10.00">::printf</text>
</a>
</g>
</g>
<!-- Node30&#45;&gt;Node31 -->
<g id="edge1" class="edge"><title>Node30&#45;&gt;Node31</title>
<path fill="none" stroke="midnightblue" d="M34.5993,-381.032C94.0736,-423.597 336.341,-583.326 516,-500 562.425,-478.468 596.359,-426.621 613.469,-395.297"/>
<polygon fill="midnightblue" stroke="midnightblue" points="616.651,-396.767 618.234,-386.292 610.464,-393.494 616.651,-396.767"/>
</g>
<!-- Node39 -->
<g id="node10" class="node"><title>Node39</title>
<g id="a_node10"><a xlink:href="classAP__BoardConfig.html#a53de1d2c0a124ff0d6e3455126237bb5" target="_top" xlink:title=" ">
<polygon fill="white" stroke="black" points="76.584,-193 76.584,-213 185.416,-213 185.416,-193 76.584,-193"/>
<text text-anchor="middle" x="131" y="-199" font-family="Helvetica,sans-Serif" font-size="10.00">AP_BoardConfig::init</text>
</a>
</g>
</g>
<!-- Node30&#45;&gt;Node39 -->
<g id="edge11" class="edge"><title>Node30&#45;&gt;Node39</title>
<path fill="none" stroke="midnightblue" d="M27.492,-360.994C45.2463,-333.63 94.8157,-257.229 117.894,-221.659"/>
<polygon fill="midnightblue" stroke="midnightblue" points="120.897,-223.46 123.404,-213.166 115.025,-219.65 120.897,-223.46"/>
</g>
<!-- Node32 -->
<g id="node3" class="node"><title>Node32</title>
<g id="a_node3"><a xlink:href="classAP__HAL_1_1BetterStream.html#aa730be451d385d7ba03ee9677e6d91a2" target="_top" xlink:title=" ">
<polygon fill="white" stroke="black" points="740.589,-354 740.589,-386 859.411,-386 859.411,-354 740.589,-354"/>
<text text-anchor="start" x="748.589" y="-372" font-family="Helvetica,sans-Serif" font-size="10.00">AP_HAL::BetterStream</text>
<text text-anchor="middle" x="800" y="-360" font-family="Helvetica,sans-Serif" font-size="10.00">::vprintf</text>
</a>
</g>
</g>
<!-- Node31&#45;&gt;Node32 -->
<g id="edge2" class="edge"><title>Node31&#45;&gt;Node32</title>
<path fill="none" stroke="midnightblue" d="M686.848,-370C700.764,-370 715.726,-370 730.045,-370"/>
<polygon fill="midnightblue" stroke="midnightblue" points="730.333,-373.5 740.333,-370 730.333,-366.5 730.333,-373.5"/>
</g>
<!-- Node33 -->
<g id="node4" class="node"><title>Node33</title>
<g id="a_node4"><a xlink:href="print__vprintf_8cpp.html#a98e0d5bb436a207f576379beaa786040" target="_top" xlink:title=" ">
<polygon fill="white" stroke="black" points="918.877,-360 918.877,-380 987.123,-380 987.123,-360 918.877,-360"/>
<text text-anchor="middle" x="953" y="-366" font-family="Helvetica,sans-Serif" font-size="10.00">print_vprintf</text>
</a>
</g>
</g>
<!-- Node32&#45;&gt;Node33 -->
<g id="edge3" class="edge"><title>Node32&#45;&gt;Node33</title>
<path fill="none" stroke="midnightblue" d="M859.813,-370C876.095,-370 893.468,-370 908.691,-370"/>
<polygon fill="midnightblue" stroke="midnightblue" points="908.848,-373.5 918.848,-370 908.848,-366.5 908.848,-373.5"/>
</g>
<!-- Node34 -->
<g id="node5" class="node"><title>Node34</title>
<g id="a_node5"><a xlink:href="classAP__HAL_1_1BetterStream.html#a915cc01273d4b418c2fb2989fb31a508" target="_top" xlink:title=" ">
<polygon fill="white" stroke="black" points="1045.59,-331 1045.59,-363 1164.41,-363 1164.41,-331 1045.59,-331"/>
<text text-anchor="start" x="1053.59" y="-349" font-family="Helvetica,sans-Serif" font-size="10.00">AP_HAL::BetterStream</text>
<text text-anchor="middle" x="1105" y="-337" font-family="Helvetica,sans-Serif" font-size="10.00">::write</text>
</a>
</g>
</g>
<!-- Node33&#45;&gt;Node34 -->
<g id="edge4" class="edge"><title>Node33&#45;&gt;Node34</title>
<path fill="none" stroke="midnightblue" d="M987.29,-364.896C1001.44,-362.726 1018.5,-360.11 1035.15,-357.557"/>
<polygon fill="midnightblue" stroke="midnightblue" points="1036.08,-360.955 1045.44,-355.98 1035.02,-354.036 1036.08,-360.955"/>
</g>
<!-- Node35 -->
<g id="node6" class="node"><title>Node35</title>
<g id="a_node6"><a xlink:href="ftoa__engine_8cpp.html#a1c28234da8f20b43c85890d4bb452947" target="_top" xlink:title=" ">
<polygon fill="white" stroke="black" points="1070.86,-292 1070.86,-312 1139.14,-312 1139.14,-292 1070.86,-292"/>
<text text-anchor="middle" x="1105" y="-298" font-family="Helvetica,sans-Serif" font-size="10.00">ftoa_engine</text>
</a>
</g>
</g>
<!-- Node33&#45;&gt;Node35 -->
<g id="edge5" class="edge"><title>Node33&#45;&gt;Node35</title>
<path fill="none" stroke="midnightblue" d="M970.831,-359.919C988.603,-349.539 1017.64,-333.326 1044,-322 1049.43,-319.667 1055.23,-317.431 1061,-315.355"/>
<polygon fill="midnightblue" stroke="midnightblue" points="1062.31,-318.603 1070.62,-312.022 1060.02,-311.989 1062.31,-318.603"/>
</g>
<!-- Node37 -->
<g id="node8" class="node"><title>Node37</title>
<g id="a_node8"><a xlink:href="utoa__invert_8cpp.html#a34926f552460b47c414ec4d83b32815c" target="_top" xlink:title=" ">
<polygon fill="white" stroke="black" points="1070.04,-421 1070.04,-441 1139.96,-441 1139.96,-421 1070.04,-421"/>
<text text-anchor="middle" x="1105" y="-427" font-family="Helvetica,sans-Serif" font-size="10.00">ulltoa_invert</text>
</a>
</g>
</g>
<!-- Node33&#45;&gt;Node37 -->
<g id="edge7" class="edge"><title>Node33&#45;&gt;Node37</title>
<path fill="none" stroke="midnightblue" d="M974.466,-380.074C992.537,-388.787 1019.71,-401.45 1044,-411 1049.83,-413.294 1056.05,-415.559 1062.19,-417.695"/>
<polygon fill="midnightblue" stroke="midnightblue" points="1061.11,-421.024 1071.7,-420.93 1063.36,-414.397 1061.11,-421.024"/>
</g>
<!-- Node38 -->
<g id="node9" class="node"><title>Node38</title>
<g id="a_node9"><a xlink:href="utoa__invert_8cpp.html#a5d99bba8e697c1e11da489d88fca8559" target="_top" xlink:title=" ">
<polygon fill="white" stroke="black" points="1071.15,-382 1071.15,-402 1138.85,-402 1138.85,-382 1071.15,-382"/>
<text text-anchor="middle" x="1105" y="-388" font-family="Helvetica,sans-Serif" font-size="10.00">ultoa_invert</text>
</a>
</g>
</g>
<!-- Node33&#45;&gt;Node38 -->
<g id="edge9" class="edge"><title>Node33&#45;&gt;Node38</title>
<path fill="none" stroke="midnightblue" d="M987.29,-374.883C1009.02,-378.069 1037.6,-382.261 1061.03,-385.698"/>
<polygon fill="midnightblue" stroke="midnightblue" points="1060.66,-389.181 1071.06,-387.169 1061.68,-382.255 1060.66,-389.181"/>
</g>
<!-- Node36 -->
<g id="node7" class="node"><title>Node36</title>
<g id="a_node7"><a xlink:href="lstrlib_8c.html#a9605f4d16ae762782f8be8b54aef0a22" target="_top" xlink:title=" ">
<polygon fill="white" stroke="black" points="1201.83,-382 1201.83,-402 1236.17,-402 1236.17,-382 1201.83,-382"/>
<text text-anchor="middle" x="1219" y="-388" font-family="Helvetica,sans-Serif" font-size="10.00">digit</text>
</a>
</g>
</g>
<!-- Node35&#45;&gt;Node36 -->
<g id="edge6" class="edge"><title>Node35&#45;&gt;Node36</title>
<path fill="none" stroke="midnightblue" d="M1139.18,-309.111C1148.42,-312.104 1158.09,-316.268 1166,-322 1184.48,-335.384 1199.22,-357.272 1208.23,-373.011"/>
<polygon fill="midnightblue" stroke="midnightblue" points="1205.21,-374.786 1213.07,-381.886 1211.35,-371.431 1205.21,-374.786"/>
</g>
<!-- Node37&#45;&gt;Node36 -->
<g id="edge8" class="edge"><title>Node37&#45;&gt;Node36</title>
<path fill="none" stroke="midnightblue" d="M1136.58,-420.994C1146.03,-417.851 1156.46,-414.331 1166,-411 1174.52,-408.026 1183.78,-404.679 1192.09,-401.632"/>
<polygon fill="midnightblue" stroke="midnightblue" points="1193.48,-404.852 1201.65,-398.11 1191.06,-398.283 1193.48,-404.852"/>
</g>
<!-- Node38&#45;&gt;Node36 -->
<g id="edge10" class="edge"><title>Node38&#45;&gt;Node36</title>
<path fill="none" stroke="midnightblue" d="M1139,-392C1155.77,-392 1175.89,-392 1191.62,-392"/>
<polygon fill="midnightblue" stroke="midnightblue" points="1191.71,-395.5 1201.71,-392 1191.71,-388.5 1191.71,-395.5"/>
</g>
<!-- Node40 -->
<g id="node11" class="node"><title>Node40</title>
<g id="a_node11"><a xlink:href="classAP__BoardConfig.html#a4b78183f6670d9b7f24e6be8d6c6047e" target="_top" xlink:title=" ">
<polygon fill="white" stroke="black" points="226.188,-326 226.188,-358 347.812,-358 347.812,-326 226.188,-326"/>
<text text-anchor="start" x="234.188" y="-344" font-family="Helvetica,sans-Serif" font-size="10.00">AP_BoardConfig::board</text>
<text text-anchor="middle" x="287" y="-332" font-family="Helvetica,sans-Serif" font-size="10.00">_setup</text>
</a>
</g>
</g>
<!-- Node39&#45;&gt;Node40 -->
<g id="edge12" class="edge"><title>Node39&#45;&gt;Node40</title>
<path fill="none" stroke="midnightblue" d="M141.316,-213.156C157.222,-230.3 190.918,-265.771 222,-293 232.465,-302.168 244.455,-311.605 255.206,-319.72"/>
<polygon fill="midnightblue" stroke="midnightblue" points="253.402,-322.741 263.51,-325.914 257.587,-317.13 253.402,-322.741"/>
</g>
<!-- Node49 -->
<g id="node20" class="node"><title>Node49</title>
<g id="a_node20"><a xlink:href="classAP__HAL_1_1Util.html#a60712a86ddb47478acbde2cdce796373" target="_top" xlink:title=" ">
<polygon fill="white" stroke="black" points="229.537,-252 229.537,-284 344.463,-284 344.463,-252 229.537,-252"/>
<text text-anchor="start" x="237.537" y="-270" font-family="Helvetica,sans-Serif" font-size="10.00">AP_HAL::Util::set_imu</text>
<text text-anchor="middle" x="287" y="-258" font-family="Helvetica,sans-Serif" font-size="10.00">_target_temp</text>
</a>
</g>
</g>
<!-- Node39&#45;&gt;Node49 -->
<g id="edge22" class="edge"><title>Node39&#45;&gt;Node49</title>
<path fill="none" stroke="midnightblue" d="M154.872,-213.084C173.026,-221.046 199.075,-232.378 222,-242 226.717,-243.98 231.639,-246.022 236.567,-248.05"/>
<polygon fill="midnightblue" stroke="midnightblue" points="235.417,-251.362 245.998,-251.914 238.071,-244.884 235.417,-251.362"/>
</g>
<!-- Node50 -->
<g id="node21" class="node"><title>Node50</title>
<g id="a_node21"><a xlink:href="namespaceAP.html#ac357c38b6638140c5510e6ba566b998b" target="_top" xlink:title=" ">
<polygon fill="white" stroke="black" points="263.998,-213 263.998,-233 310.002,-233 310.002,-213 263.998,-213"/>
<text text-anchor="middle" x="287" y="-219" font-family="Helvetica,sans-Serif" font-size="10.00">AP::rtc</text>
</a>
</g>
</g>
<!-- Node39&#45;&gt;Node50 -->
<g id="edge23" class="edge"><title>Node39&#45;&gt;Node50</title>
<path fill="none" stroke="midnightblue" d="M185.43,-209.939C208.257,-212.904 234.144,-216.265 253.937,-218.836"/>
<polygon fill="midnightblue" stroke="midnightblue" points="253.597,-222.321 263.965,-220.138 254.499,-215.379 253.597,-222.321"/>
</g>
<!-- Node52 -->
<g id="node23" class="node"><title>Node52</title>
<g id="a_node23"><a xlink:href="classAP__RTC.html#abb961ded9907a2dbaa1b20de2b3b5ce0" target="_top" xlink:title=" ">
<polygon fill="white" stroke="black" points="227.12,-174 227.12,-194 346.88,-194 346.88,-174 227.12,-174"/>
<text text-anchor="middle" x="287" y="-180" font-family="Helvetica,sans-Serif" font-size="10.00">AP_RTC::set_utc_usec</text>
</a>
</g>
</g>
<!-- Node39&#45;&gt;Node52 -->
<g id="edge25" class="edge"><title>Node39&#45;&gt;Node52</title>
<path fill="none" stroke="midnightblue" d="M185.43,-196.408C195.568,-195.157 206.31,-193.832 216.853,-192.531"/>
<polygon fill="midnightblue" stroke="midnightblue" points="217.378,-195.993 226.874,-191.295 216.521,-189.046 217.378,-195.993"/>
</g>
<!-- Node67 -->
<g id="node38" class="node"><title>Node67</title>
<g id="a_node38"><a xlink:href="classAP__HAL_1_1Util.html#a3d95020fce1bbc531e79cecce0e78b61" target="_top" xlink:title=" ">
<polygon fill="white" stroke="black" points="222.586,-135 222.586,-155 351.414,-155 351.414,-135 222.586,-135"/>
<text text-anchor="middle" x="287" y="-141" font-family="Helvetica,sans-Serif" font-size="10.00">AP_HAL::Util::get_hw_rtc</text>
</a>
</g>
</g>
<!-- Node39&#45;&gt;Node67 -->
<g id="edge41" class="edge"><title>Node39&#45;&gt;Node67</title>
<path fill="none" stroke="midnightblue" d="M153.165,-192.967C171.221,-184.618 197.994,-172.729 222,-164 227.583,-161.97 233.495,-159.992 239.381,-158.125"/>
<polygon fill="midnightblue" stroke="midnightblue" points="240.674,-161.389 249.2,-155.1 238.613,-154.699 240.674,-161.389"/>
</g>
<!-- Node68 -->
<g id="node39" class="node"><title>Node68</title>
<g id="a_node39"><a xlink:href="AP__Math_8h.html#a68558c4f79a8582543daefde13c64abc" target="_top" xlink:title=" ">
<polygon fill="white" stroke="black" points="245.089,-96 245.089,-116 328.911,-116 328.911,-96 245.089,-96"/>
<text text-anchor="middle" x="287" y="-102" font-family="Helvetica,sans-Serif" font-size="10.00">constrain_int16</text>
</a>
</g>
</g>
<!-- Node39&#45;&gt;Node68 -->
<g id="edge42" class="edge"><title>Node39&#45;&gt;Node68</title>
<path fill="none" stroke="midnightblue" d="M140.943,-192.839C156.046,-176.284 188.274,-143.483 222,-125 226.224,-122.685 230.764,-120.621 235.405,-118.787"/>
<polygon fill="midnightblue" stroke="midnightblue" points="236.777,-122.013 245.006,-115.34 234.412,-115.425 236.777,-122.013"/>
</g>
<!-- Node75 -->
<g id="node46" class="node"><title>Node75</title>
<g id="a_node46"><a xlink:href="classAP__HAL_1_1Util.html#a41bf8399787bd295275fca501d7e235a" target="_top" xlink:title=" ">
<polygon fill="white" stroke="black" points="233.983,-57 233.983,-77 340.017,-77 340.017,-57 233.983,-57"/>
<text text-anchor="middle" x="287" y="-63" font-family="Helvetica,sans-Serif" font-size="10.00">AP_HAL::Util::fs_init</text>
</a>
</g>
</g>
<!-- Node39&#45;&gt;Node75 -->
<g id="edge49" class="edge"><title>Node39&#45;&gt;Node75</title>
<path fill="none" stroke="midnightblue" d="M136.971,-192.819C148.585,-170.107 179.752,-115.018 222,-86 224.545,-84.2518 227.254,-82.6617 230.064,-81.2158"/>
<polygon fill="midnightblue" stroke="midnightblue" points="231.617,-84.3552 239.311,-77.0711 228.754,-77.9675 231.617,-84.3552"/>
</g>
<!-- Node76 -->
<g id="node47" class="node"><title>Node76</title>
<g id="a_node47"><a xlink:href="classAP__HAL_1_1Scheduler.html#ab3175e2e6223ccfe82f957e41cc12b26" target="_top" xlink:title=" ">
<polygon fill="white" stroke="black" points="231.751,-6 231.751,-38 342.249,-38 342.249,-6 231.751,-6"/>
<text text-anchor="start" x="239.751" y="-24" font-family="Helvetica,sans-Serif" font-size="10.00">AP_HAL::Scheduler::</text>
<text text-anchor="middle" x="287" y="-12" font-family="Helvetica,sans-Serif" font-size="10.00">delay</text>
</a>
</g>
</g>
<!-- Node39&#45;&gt;Node76 -->
<g id="edge50" class="edge"><title>Node39&#45;&gt;Node76</title>
<path fill="none" stroke="midnightblue" d="M135.235,-192.679C144.365,-165.146 172.914,-89.1869 222,-47 223.337,-45.8507 224.733,-44.7508 226.177,-43.6984"/>
<polygon fill="midnightblue" stroke="midnightblue" points="228.316,-46.4866 234.889,-38.1774 224.569,-40.5739 228.316,-46.4866"/>
</g>
<!-- Node77 -->
<g id="node48" class="node"><title>Node77</title>
<g id="a_node48"><a xlink:href="stdio_8h.html#a55f3d956bb2ba20b5059e9e25484a47f" target="_top" xlink:title=" ">
<polygon fill="white" stroke="black" points="267.884,-377 267.884,-397 306.116,-397 306.116,-377 267.884,-377"/>
<text text-anchor="middle" x="287" y="-383" font-family="Helvetica,sans-Serif" font-size="10.00">printf</text>
</a>
</g>
</g>
<!-- Node39&#45;&gt;Node77 -->
<g id="edge51" class="edge"><title>Node39&#45;&gt;Node77</title>
<path fill="none" stroke="midnightblue" d="M134.675,-213.207C142.726,-241.905 169.472,-324.008 222,-367 232.103,-375.269 245.637,-380.131 257.656,-382.984"/>
<polygon fill="midnightblue" stroke="midnightblue" points="257.21,-386.465 267.705,-385.01 258.594,-379.603 257.21,-386.465"/>
</g>
<!-- Node41 -->
<g id="node12" class="node"><title>Node41</title>
<g id="a_node12"><a xlink:href="classAP__HAL_1_1GPIO.html#a95cf96f0f3c4c8fed15bb98329aa30fd" target="_top" xlink:title=" ">
<polygon fill="white" stroke="black" points="400.372,-471 400.372,-491 503.628,-491 503.628,-471 400.372,-471"/>
<text text-anchor="middle" x="452" y="-477" font-family="Helvetica,sans-Serif" font-size="10.00">AP_HAL::GPIO::init</text>
</a>
</g>
</g>
<!-- Node40&#45;&gt;Node41 -->
<g id="edge13" class="edge"><title>Node40&#45;&gt;Node41</title>
<path fill="none" stroke="midnightblue" d="M339.05,-358.031C343.784,-360.854 348.216,-364.152 352,-368 383.08,-399.599 355.704,-430.645 388,-461 389.902,-462.788 391.964,-464.416 394.142,-465.899"/>
<polygon fill="midnightblue" stroke="midnightblue" points="392.598,-469.047 403.025,-470.926 396.046,-462.955 392.598,-469.047"/>
</g>
<!-- Node42 -->
<g id="node13" class="node"><title>Node42</title>
<g id="a_node13"><a xlink:href="classAP__HAL_1_1RCInput.html#a0eea79c26e71b819edc74bffe6c82631" target="_top" xlink:title=" ">
<polygon fill="white" stroke="black" points="394.532,-432 394.532,-452 509.468,-452 509.468,-432 394.532,-432"/>
<text text-anchor="middle" x="452" y="-438" font-family="Helvetica,sans-Serif" font-size="10.00">AP_HAL::RCInput::init</text>
</a>
</g>
</g>
<!-- Node40&#45;&gt;Node42 -->
<g id="edge14" class="edge"><title>Node40&#45;&gt;Node42</title>
<path fill="none" stroke="midnightblue" d="M336.604,-358.048C342.081,-360.907 347.354,-364.209 352,-368 374.35,-386.234 364.952,-404.657 388,-422 390.789,-424.099 393.806,-425.982 396.955,-427.67"/>
<polygon fill="midnightblue" stroke="midnightblue" points="395.564,-430.883 406.107,-431.929 398.518,-424.537 395.564,-430.883"/>
</g>
<!-- Node43 -->
<g id="node14" class="node"><title>Node43</title>
<g id="a_node14"><a xlink:href="classAP__HAL_1_1RCOutput.html#a4e77bfeee3a2494cc4407a91d03e1067" target="_top" xlink:title=" ">
<polygon fill="white" stroke="black" points="390.643,-393 390.643,-413 513.357,-413 513.357,-393 390.643,-393"/>
<text text-anchor="middle" x="452" y="-399" font-family="Helvetica,sans-Serif" font-size="10.00">AP_HAL::RCOutput::init</text>
</a>
</g>
</g>
<!-- Node40&#45;&gt;Node43 -->
<g id="edge15" class="edge"><title>Node40&#45;&gt;Node43</title>
<path fill="none" stroke="midnightblue" d="M327.625,-358.034C335.696,-361.317 344.125,-364.76 352,-368 368.03,-374.595 371.724,-377.039 388,-383 394.371,-385.333 401.16,-387.656 407.833,-389.848"/>
<polygon fill="midnightblue" stroke="midnightblue" points="406.875,-393.216 417.466,-392.952 409.022,-386.554 406.875,-393.216"/>
</g>
<!-- Node44 -->
<g id="node15" class="node"><title>Node44</title>
<g id="a_node15"><a xlink:href="classAP__HAL_1_1GPIO.html#a2b0664bdab1876e3b0bbcd9064eec88e" target="_top" xlink:title=" ">
<polygon fill="white" stroke="black" points="396.207,-354 396.207,-374 507.793,-374 507.793,-354 396.207,-354"/>
<text text-anchor="middle" x="452" y="-360" font-family="Helvetica,sans-Serif" font-size="10.00">AP_HAL::GPIO::write</text>
</a>
</g>
</g>
<!-- Node40&#45;&gt;Node44 -->
<g id="edge16" class="edge"><title>Node40&#45;&gt;Node44</title>
<path fill="none" stroke="midnightblue" d="M348.232,-350.129C360.489,-351.784 373.436,-353.531 385.855,-355.207"/>
<polygon fill="midnightblue" stroke="midnightblue" points="385.758,-358.726 396.136,-356.595 386.694,-351.789 385.758,-358.726"/>
</g>
<!-- Node45 -->
<g id="node16" class="node"><title>Node45</title>
<g id="a_node16"><a xlink:href="classAP__BoardConfig.html#a36f2224397f35413962ed68179f9f00c" target="_top" xlink:title=" ">
<polygon fill="white" stroke="black" points="391.188,-252 391.188,-284 512.812,-284 512.812,-252 391.188,-252"/>
<text text-anchor="start" x="399.188" y="-270" font-family="Helvetica,sans-Serif" font-size="10.00">AP_BoardConfig::board</text>
<text text-anchor="middle" x="452" y="-258" font-family="Helvetica,sans-Serif" font-size="10.00">_setup_uart</text>
</a>
</g>
</g>
<!-- Node40&#45;&gt;Node45 -->
<g id="edge17" class="edge"><title>Node40&#45;&gt;Node45</title>
<path fill="none" stroke="midnightblue" d="M320.212,-325.972C339.705,-316.415 365.136,-304.196 388,-294 392.427,-292.026 397.051,-290.017 401.695,-288.037"/>
<polygon fill="midnightblue" stroke="midnightblue" points="403.345,-291.14 411.199,-284.029 400.625,-284.69 403.345,-291.14"/>
</g>
<!-- Node47 -->
<g id="node18" class="node"><title>Node47</title>
<g id="a_node18"><a xlink:href="classAP__BoardConfig.html#a9c037887e6ab8e55a96d4979a44cd3be" target="_top" xlink:title=" ">
<polygon fill="white" stroke="black" points="391.188,-303 391.188,-335 512.812,-335 512.812,-303 391.188,-303"/>
<text text-anchor="start" x="399.188" y="-321" font-family="Helvetica,sans-Serif" font-size="10.00">AP_BoardConfig::board</text>
<text text-anchor="middle" x="452" y="-309" font-family="Helvetica,sans-Serif" font-size="10.00">_setup_sbus</text>
</a>
</g>
</g>
<!-- Node40&#45;&gt;Node47 -->
<g id="edge19" class="edge"><title>Node40&#45;&gt;Node47</title>
<path fill="none" stroke="midnightblue" d="M348.232,-333.501C358.925,-331.992 370.143,-330.409 381.077,-328.866"/>
<polygon fill="midnightblue" stroke="midnightblue" points="381.603,-332.327 391.015,-327.464 380.625,-325.396 381.603,-332.327"/>
</g>
<!-- Node46 -->
<g id="node17" class="node"><title>Node46</title>
<g id="a_node17"><a xlink:href="classAP__HAL_1_1UARTDriver.html#ae831a0d75f4760267d444c522e1271a1" target="_top" xlink:title=" ">
<polygon fill="white" stroke="black" points="570.189,-252 570.189,-284 683.811,-284 683.811,-252 570.189,-252"/>
<text text-anchor="start" x="578.189" y="-270" font-family="Helvetica,sans-Serif" font-size="10.00">AP_HAL::UARTDriver</text>
<text text-anchor="middle" x="627" y="-258" font-family="Helvetica,sans-Serif" font-size="10.00">::set_flow_control</text>
</a>
</g>
</g>
<!-- Node45&#45;&gt;Node46 -->
<g id="edge18" class="edge"><title>Node45&#45;&gt;Node46</title>
<path fill="none" stroke="midnightblue" d="M513.021,-268C528.232,-268 544.651,-268 560.134,-268"/>
<polygon fill="midnightblue" stroke="midnightblue" points="560.151,-271.5 570.151,-268 560.151,-264.5 560.151,-271.5"/>
</g>
<!-- Node48 -->
<g id="node19" class="node"><title>Node48</title>
<g id="a_node19"><a xlink:href="classAP__HAL_1_1RCOutput.html#a6af6293d5164e5cb94f92da1965c2f88" target="_top" xlink:title=" ">
<polygon fill="white" stroke="black" points="557.02,-303 557.02,-335 696.98,-335 696.98,-303 557.02,-303"/>
<text text-anchor="start" x="565.02" y="-321" font-family="Helvetica,sans-Serif" font-size="10.00">AP_HAL::RCOutput::enable</text>
<text text-anchor="middle" x="627" y="-309" font-family="Helvetica,sans-Serif" font-size="10.00">_px4io_sbus_out</text>
</a>
</g>
</g>
<!-- Node47&#45;&gt;Node48 -->
<g id="edge20" class="edge"><title>Node47&#45;&gt;Node48</title>
<path fill="none" stroke="midnightblue" d="M513.021,-319C523.856,-319 535.303,-319 546.588,-319"/>
<polygon fill="midnightblue" stroke="midnightblue" points="546.885,-322.5 556.885,-319 546.885,-315.5 546.885,-322.5"/>
</g>
<!-- Node47&#45;&gt;Node31 -->
<g id="edge21" class="edge"><title>Node47&#45;&gt;Node31</title>
<path fill="none" stroke="midnightblue" d="M507.738,-335.137C524.944,-340.209 544.097,-345.855 561.892,-351.101"/>
<polygon fill="midnightblue" stroke="midnightblue" points="561.036,-354.498 571.618,-353.968 563.016,-347.783 561.036,-354.498"/>
</g>
<!-- Node51 -->
<g id="node22" class="node"><title>Node51</title>
<g id="a_node22"><a xlink:href="classAP__RTC.html#a3980ad7dc2c01f3b6e8870ee6f870793" target="_top" xlink:title=" ">
<polygon fill="white" stroke="black" points="391.837,-213 391.837,-233 512.163,-233 512.163,-213 391.837,-213"/>
<text text-anchor="middle" x="452" y="-219" font-family="Helvetica,sans-Serif" font-size="10.00">AP_RTC::get_singleton</text>
</a>
</g>
</g>
<!-- Node50&#45;&gt;Node51 -->
<g id="edge24" class="edge"><title>Node50&#45;&gt;Node51</title>
<path fill="none" stroke="midnightblue" d="M310.323,-223C328.796,-223 356.071,-223 381.699,-223"/>
<polygon fill="midnightblue" stroke="midnightblue" points="381.793,-226.5 391.793,-223 381.793,-219.5 381.793,-226.5"/>
</g>
<!-- Node53 -->
<g id="node24" class="node"><title>Node53</title>
<g id="a_node24"><a xlink:href="namespaceAP__HAL.html#a7aa0ce7625c9680e30ff4a99940907a5" target="_top" xlink:title=" ">
<polygon fill="white" stroke="black" points="401.761,-174 401.761,-194 502.239,-194 502.239,-174 401.761,-174"/>
<text text-anchor="middle" x="452" y="-180" font-family="Helvetica,sans-Serif" font-size="10.00">AP_HAL::micros64</text>
</a>
</g>
</g>
<!-- Node52&#45;&gt;Node53 -->
<g id="edge26" class="edge"><title>Node52&#45;&gt;Node53</title>
<path fill="none" stroke="midnightblue" d="M347.308,-184C361.664,-184 377.016,-184 391.386,-184"/>
<polygon fill="midnightblue" stroke="midnightblue" points="391.649,-187.5 401.649,-184 391.649,-180.5 391.649,-187.5"/>
</g>
<!-- Node55 -->
<g id="node26" class="node"><title>Node55</title>
<g id="a_node26"><a xlink:href="classAP__HAL_1_1Util.html#a777181040eed0da3d0eb8de34848d396" target="_top" xlink:title=" ">
<polygon fill="white" stroke="black" points="387.867,-135 387.867,-155 516.133,-155 516.133,-135 387.867,-135"/>
<text text-anchor="middle" x="452" y="-141" font-family="Helvetica,sans-Serif" font-size="10.00">AP_HAL::Util::set_hw_rtc</text>
</a>
</g>
</g>
<!-- Node52&#45;&gt;Node55 -->
<g id="edge28" class="edge"><title>Node52&#45;&gt;Node55</title>
<path fill="none" stroke="midnightblue" d="M329.977,-173.957C351.081,-168.907 376.851,-162.741 399.178,-157.399"/>
<polygon fill="midnightblue" stroke="midnightblue" points="400.255,-160.74 409.166,-155.009 398.626,-153.933 400.255,-160.74"/>
</g>
<!-- Node56 -->
<g id="node27" class="node"><title>Node56</title>
<g id="a_node27"><a xlink:href="structGCS__MAVLINK.html#a04ba96c329a2b4e55e63d50a46851df6" target="_top" xlink:title=" ">
<polygon fill="white" stroke="black" points="390.731,-84 390.731,-116 513.269,-116 513.269,-84 390.731,-84"/>
<text text-anchor="start" x="398.731" y="-102" font-family="Helvetica,sans-Serif" font-size="10.00">GCS_MAVLINK::update</text>
<text text-anchor="middle" x="452" y="-90" font-family="Helvetica,sans-Serif" font-size="10.00">_signing_timestamp</text>
</a>
</g>
</g>
<!-- Node52&#45;&gt;Node56 -->
<g id="edge29" class="edge"><title>Node52&#45;&gt;Node56</title>
<path fill="none" stroke="midnightblue" d="M331.039,-173.97C338.333,-171.326 345.606,-168.046 352,-164 371.934,-151.387 368.552,-138.35 388,-125 390.122,-123.543 392.342,-122.153 394.626,-120.828"/>
<polygon fill="midnightblue" stroke="midnightblue" points="396.483,-123.806 403.694,-116.043 393.216,-117.615 396.483,-123.806"/>
</g>
<!-- Node54 -->
<g id="node25" class="node"><title>Node54</title>
<g id="a_node25"><a xlink:href="hrt_8c.html#a152c3348a8e83f2dfe35b44cc2e30362" target="_top" xlink:title=" ">
<polygon fill="white" stroke="black" points="590.101,-174 590.101,-194 663.899,-194 663.899,-174 590.101,-174"/>
<text text-anchor="middle" x="627" y="-180" font-family="Helvetica,sans-Serif" font-size="10.00">hrt_micros64</text>
</a>
</g>
</g>
<!-- Node53&#45;&gt;Node54 -->
<g id="edge27" class="edge"><title>Node53&#45;&gt;Node54</title>
<path fill="none" stroke="midnightblue" d="M502.575,-184C526.841,-184 555.88,-184 579.693,-184"/>
<polygon fill="midnightblue" stroke="midnightblue" points="579.889,-187.5 589.889,-184 579.889,-180.5 579.889,-187.5"/>
</g>
<!-- Node57 -->
<g id="node28" class="node"><title>Node57</title>
<g id="a_node28"><a xlink:href="structGCS__MAVLINK.html#a557b471724d4f126458757e0c4f54e78" target="_top" xlink:title=" ">
<polygon fill="white" stroke="black" points="551.837,-104 551.837,-136 702.163,-136 702.163,-104 551.837,-104"/>
<text text-anchor="start" x="559.837" y="-122" font-family="Helvetica,sans-Serif" font-size="10.00">GCS_MAVLINK::save_signing</text>
<text text-anchor="middle" x="627" y="-110" font-family="Helvetica,sans-Serif" font-size="10.00">_timestamp</text>
</a>
</g>
</g>
<!-- Node56&#45;&gt;Node57 -->
<g id="edge30" class="edge"><title>Node56&#45;&gt;Node57</title>
<path fill="none" stroke="midnightblue" d="M513.507,-106.995C522.691,-108.057 532.307,-109.168 541.883,-110.275"/>
<polygon fill="midnightblue" stroke="midnightblue" points="541.493,-113.754 551.829,-111.425 542.297,-106.8 541.493,-113.754"/>
</g>
<!-- Node58 -->
<g id="node29" class="node"><title>Node58</title>
<g id="a_node29"><a xlink:href="namespaceAP__HAL.html#a77dffbb18891996280308e21316ec186" target="_top" xlink:title=" ">
<polygon fill="white" stroke="black" points="758.936,-90 758.936,-110 841.064,-110 841.064,-90 758.936,-90"/>
<text text-anchor="middle" x="800" y="-96" font-family="Helvetica,sans-Serif" font-size="10.00">AP_HAL::millis</text>
</a>
</g>
</g>
<!-- Node57&#45;&gt;Node58 -->
<g id="edge31" class="edge"><title>Node57&#45;&gt;Node58</title>
<path fill="none" stroke="midnightblue" d="M702.506,-111.286C718.004,-109.473 733.993,-107.603 748.389,-105.919"/>
<polygon fill="midnightblue" stroke="midnightblue" points="749.034,-109.368 758.56,-104.73 748.221,-102.415 749.034,-109.368"/>
</g>
<!-- Node60 -->
<g id="node31" class="node"><title>Node60</title>
<g id="a_node31"><a xlink:href="structGCS__MAVLINK.html#acaf8e34bd827814a1b8ccf8907fcfb36" target="_top" xlink:title=" ">
<polygon fill="white" stroke="black" points="738.179,-180 738.179,-212 861.821,-212 861.821,-180 738.179,-180"/>
<text text-anchor="start" x="746.179" y="-198" font-family="Helvetica,sans-Serif" font-size="10.00">GCS_MAVLINK::signing</text>
<text text-anchor="middle" x="800" y="-186" font-family="Helvetica,sans-Serif" font-size="10.00">_key_load</text>
</a>
</g>
</g>
<!-- Node57&#45;&gt;Node60 -->
<g id="edge33" class="edge"><title>Node57&#45;&gt;Node60</title>
<path fill="none" stroke="midnightblue" d="M663.078,-136.2C684.635,-146.093 712.85,-158.926 738,-170 742.379,-171.928 746.944,-173.916 751.519,-175.892"/>
<polygon fill="midnightblue" stroke="midnightblue" points="750.299,-179.177 760.868,-179.912 753.064,-172.746 750.299,-179.177"/>
</g>
<!-- Node64 -->
<g id="node35" class="node"><title>Node64</title>
<g id="a_node35"><a xlink:href="structGCS__MAVLINK.html#af5cc5372dac2a9433762f913e6b077de" target="_top" xlink:title=" ">
<polygon fill="white" stroke="black" points="738.179,-129 738.179,-161 861.821,-161 861.821,-129 738.179,-129"/>
<text text-anchor="start" x="746.179" y="-147" font-family="Helvetica,sans-Serif" font-size="10.00">GCS_MAVLINK::signing</text>
<text text-anchor="middle" x="800" y="-135" font-family="Helvetica,sans-Serif" font-size="10.00">_key_save</text>
</a>
</g>
</g>
<!-- Node57&#45;&gt;Node64 -->
<g id="edge37" class="edge"><title>Node57&#45;&gt;Node64</title>
<path fill="none" stroke="midnightblue" d="M702.506,-130.893C710.952,-132.127 719.543,-133.384 727.944,-134.612"/>
<polygon fill="midnightblue" stroke="midnightblue" points="727.671,-138.109 738.072,-136.092 728.684,-131.183 727.671,-138.109"/>
</g>
<!-- Node59 -->
<g id="node30" class="node"><title>Node59</title>
<g id="a_node30"><a xlink:href="hrt_8c.html#a1295f128f60d29874243b5733c4db025" target="_top" xlink:title=" ">
<polygon fill="white" stroke="black" points="919.714,-90 919.714,-110 986.286,-110 986.286,-90 919.714,-90"/>
<text text-anchor="middle" x="953" y="-96" font-family="Helvetica,sans-Serif" font-size="10.00">hrt_millis32</text>
</a>
</g>
</g>
<!-- Node58&#45;&gt;Node59 -->
<g id="edge32" class="edge"><title>Node58&#45;&gt;Node59</title>
<path fill="none" stroke="midnightblue" d="M841.069,-100C862.093,-100 887.857,-100 909.262,-100"/>
<polygon fill="midnightblue" stroke="midnightblue" points="909.381,-103.5 919.381,-100 909.38,-96.5001 909.381,-103.5"/>
</g>
<!-- Node61 -->
<g id="node32" class="node"><title>Node61</title>
<g id="a_node32"><a xlink:href="classStorageAccess.html#aa810ebbc83bfc0986aa6c13f76d08eaf" target="_top" xlink:title=" ">
<polygon fill="white" stroke="black" points="899.702,-180 899.702,-200 1006.3,-200 1006.3,-180 899.702,-180"/>
<text text-anchor="middle" x="953" y="-186" font-family="Helvetica,sans-Serif" font-size="10.00">StorageAccess::size</text>
</a>
</g>
</g>
<!-- Node60&#45;&gt;Node61 -->
<g id="edge34" class="edge"><title>Node60&#45;&gt;Node61</title>
<path fill="none" stroke="midnightblue" d="M861.982,-193.577C871.022,-193.218 880.35,-192.847 889.421,-192.487"/>
<polygon fill="midnightblue" stroke="midnightblue" points="889.672,-195.979 899.525,-192.085 889.394,-188.985 889.672,-195.979"/>
</g>
<!-- Node62 -->
<g id="node33" class="node"><title>Node62</title>
<g id="a_node33"><a xlink:href="classStorageAccess.html#abb169f592c849f2158a48615c8dee90a" target="_top" xlink:title=" ">
<polygon fill="white" stroke="black" points="898.586,-219 898.586,-251 1007.41,-251 1007.41,-219 898.586,-219"/>
<text text-anchor="start" x="906.586" y="-237" font-family="Helvetica,sans-Serif" font-size="10.00">StorageAccess::read</text>
<text text-anchor="middle" x="953" y="-225" font-family="Helvetica,sans-Serif" font-size="10.00">_block</text>
</a>
</g>
</g>
<!-- Node60&#45;&gt;Node62 -->
<g id="edge35" class="edge"><title>Node60&#45;&gt;Node62</title>
<path fill="none" stroke="midnightblue" d="M861.982,-211.75C870.784,-214.024 879.859,-216.368 888.705,-218.652"/>
<polygon fill="midnightblue" stroke="midnightblue" points="888.01,-222.087 898.567,-221.199 889.76,-215.31 888.01,-222.087"/>
</g>
<!-- Node63 -->
<g id="node34" class="node"><title>Node63</title>
<g id="a_node34"><a xlink:href="classAP__HAL_1_1Storage.html#a1c3b1e80b0bec7d4bacd3ecbefb3b3f3" target="_top" xlink:title=" ">
<polygon fill="white" stroke="black" points="1044.75,-219 1044.75,-251 1165.25,-251 1165.25,-219 1044.75,-219"/>
<text text-anchor="start" x="1052.75" y="-237" font-family="Helvetica,sans-Serif" font-size="10.00">AP_HAL::Storage::read</text>
<text text-anchor="middle" x="1105" y="-225" font-family="Helvetica,sans-Serif" font-size="10.00">_block</text>
</a>
</g>
</g>
<!-- Node62&#45;&gt;Node63 -->
<g id="edge36" class="edge"><title>Node62&#45;&gt;Node63</title>
<path fill="none" stroke="midnightblue" d="M1007.73,-235C1016.4,-235 1025.49,-235 1034.47,-235"/>
<polygon fill="midnightblue" stroke="midnightblue" points="1034.54,-238.5 1044.54,-235 1034.54,-231.5 1034.54,-238.5"/>
</g>
<!-- Node64&#45;&gt;Node61 -->
<g id="edge38" class="edge"><title>Node64&#45;&gt;Node61</title>
<path fill="none" stroke="midnightblue" d="M855.088,-161.119C872.468,-166.298 891.498,-171.97 908.058,-176.905"/>
<polygon fill="midnightblue" stroke="midnightblue" points="907.43,-180.369 918.013,-179.871 909.429,-173.661 907.43,-180.369"/>
</g>
<!-- Node65 -->
<g id="node36" class="node"><title>Node65</title>
<g id="a_node36"><a xlink:href="classStorageAccess.html#a926243785eeb37f394e3abb352715186" target="_top" xlink:title=" ">
<polygon fill="white" stroke="black" points="898.037,-129 898.037,-161 1007.96,-161 1007.96,-129 898.037,-129"/>
<text text-anchor="start" x="906.037" y="-147" font-family="Helvetica,sans-Serif" font-size="10.00">StorageAccess::write</text>
<text text-anchor="middle" x="953" y="-135" font-family="Helvetica,sans-Serif" font-size="10.00">_block</text>
</a>
</g>
</g>
<!-- Node64&#45;&gt;Node65 -->
<g id="edge39" class="edge"><title>Node64&#45;&gt;Node65</title>
<path fill="none" stroke="midnightblue" d="M861.982,-145C870.362,-145 878.989,-145 887.431,-145"/>
<polygon fill="midnightblue" stroke="midnightblue" points="887.606,-148.5 897.606,-145 887.606,-141.5 887.606,-148.5"/>
</g>
<!-- Node66 -->
<g id="node37" class="node"><title>Node66</title>
<g id="a_node37"><a xlink:href="classAP__HAL_1_1Storage.html#a9de79ab93ea4374bd3d1583e28620d2e" target="_top" xlink:title=" ">
<polygon fill="white" stroke="black" points="1044.2,-129 1044.2,-161 1165.8,-161 1165.8,-129 1044.2,-129"/>
<text text-anchor="start" x="1052.2" y="-147" font-family="Helvetica,sans-Serif" font-size="10.00">AP_HAL::Storage::write</text>
<text text-anchor="middle" x="1105" y="-135" font-family="Helvetica,sans-Serif" font-size="10.00">_block</text>
</a>
</g>
</g>
<!-- Node65&#45;&gt;Node66 -->
<g id="edge40" class="edge"><title>Node65&#45;&gt;Node66</title>
<path fill="none" stroke="midnightblue" d="M1008.15,-145C1016.54,-145 1025.3,-145 1033.97,-145"/>
<polygon fill="midnightblue" stroke="midnightblue" points="1034.08,-148.5 1044.08,-145 1034.08,-141.5 1034.08,-148.5"/>
</g>
<!-- Node69 -->
<g id="node40" class="node"><title>Node69</title>
<g id="a_node40"><a xlink:href="AP__Math_8h.html#a20e8f8671c282c69c1954652b6d61585" target="_top" xlink:title=" ">
<polygon fill="white" stroke="black" points="408.978,-45 408.978,-65 495.022,-65 495.022,-45 408.978,-45"/>
<text text-anchor="middle" x="452" y="-51" font-family="Helvetica,sans-Serif" font-size="10.00">constrain_value</text>
</a>
</g>
</g>
<!-- Node68&#45;&gt;Node69 -->
<g id="edge43" class="edge"><title>Node68&#45;&gt;Node69</title>
<path fill="none" stroke="midnightblue" d="M320.596,-95.944C330.676,-92.7992 341.808,-89.2907 352,-86 368.05,-80.8178 371.925,-79.1021 388,-74 394.145,-72.0495 400.643,-70.0356 407.039,-68.081"/>
<polygon fill="midnightblue" stroke="midnightblue" points="408.388,-71.3293 416.941,-65.076 406.355,-64.6309 408.388,-71.3293"/>
</g>
<!-- Node70 -->
<g id="node41" class="node"><title>Node70</title>
<g id="a_node41"><a xlink:href="namespaceAP.html#afceb236ff617aaaa2b08afacd72532b0" target="_top" xlink:title=" ">
<polygon fill="white" stroke="black" points="582.596,-6 582.596,-26 671.404,-26 671.404,-6 582.596,-6"/>
<text text-anchor="middle" x="627" y="-12" font-family="Helvetica,sans-Serif" font-size="10.00">AP::internalerror</text>
</a>
</g>
</g>
<!-- Node69&#45;&gt;Node70 -->
<g id="edge44" class="edge"><title>Node69&#45;&gt;Node70</title>
<path fill="none" stroke="midnightblue" d="M495.321,-45.4595C518.531,-40.2271 547.543,-33.6869 572.331,-28.0988"/>
<polygon fill="midnightblue" stroke="midnightblue" points="573.324,-31.4628 582.31,-25.8492 571.785,-24.6341 573.324,-31.4628"/>
</g>
<!-- Node71 -->
<g id="node42" class="node"><title>Node71</title>
<g id="a_node42"><a xlink:href="classAP__InternalError.html#ab34174ba770b976b39a18c2b23e854f2" target="_top" xlink:title=" ">
<polygon fill="white" stroke="black" points="568.426,-45 568.426,-65 685.574,-65 685.574,-45 568.426,-45"/>
<text text-anchor="middle" x="627" y="-51" font-family="Helvetica,sans-Serif" font-size="10.00">AP_InternalError::error</text>
</a>
</g>
</g>
<!-- Node69&#45;&gt;Node71 -->
<g id="edge45" class="edge"><title>Node69&#45;&gt;Node71</title>
<path fill="none" stroke="midnightblue" d="M495.321,-55C514.147,-55 536.79,-55 557.9,-55"/>
<polygon fill="midnightblue" stroke="midnightblue" points="558.116,-58.5001 568.116,-55 558.116,-51.5001 558.116,-58.5001"/>
</g>
<!-- Node72 -->
<g id="node43" class="node"><title>Node72</title>
<g id="a_node43"><a xlink:href="namespaceAP__HAL.html#a71832f03d849a0c088f04fc98d3c8143" target="_top" xlink:title=" ">
<polygon fill="white" stroke="black" points="758.091,-45 758.091,-65 841.909,-65 841.909,-45 758.091,-45"/>
<text text-anchor="middle" x="800" y="-51" font-family="Helvetica,sans-Serif" font-size="10.00">AP_HAL::panic</text>
</a>
</g>
</g>
<!-- Node71&#45;&gt;Node72 -->
<g id="edge46" class="edge"><title>Node71&#45;&gt;Node72</title>
<path fill="none" stroke="midnightblue" d="M685.893,-55C705.933,-55 728.239,-55 747.711,-55"/>
<polygon fill="midnightblue" stroke="midnightblue" points="747.905,-58.5001 757.905,-55 747.905,-51.5001 747.905,-58.5001"/>
</g>
<!-- Node73 -->
<g id="node44" class="node"><title>Node73</title>
<g id="a_node44"><a xlink:href="stdio_8h.html#aae132cc6af1eb6cf43bf011d8d63e854" target="_top" xlink:title=" ">
<polygon fill="white" stroke="black" points="931.384,-0 931.384,-20 974.616,-20 974.616,-0 931.384,-0"/>
<text text-anchor="middle" x="953" y="-6" font-family="Helvetica,sans-Serif" font-size="10.00">vprintf</text>
</a>
</g>
</g>
<!-- Node72&#45;&gt;Node73 -->
<g id="edge47" class="edge"><title>Node72&#45;&gt;Node73</title>
<path fill="none" stroke="midnightblue" d="M834.887,-44.9011C860.871,-37.1576 896.418,-26.5641 921.514,-19.0853"/>
<polygon fill="midnightblue" stroke="midnightblue" points="922.655,-22.3973 931.239,-16.187 920.656,-15.6888 922.655,-22.3973"/>
</g>
<!-- Node74 -->
<g id="node45" class="node"><title>Node74</title>
<g id="a_node45"><a xlink:href="classAP__HAL_1_1Scheduler.html#a78c4f1b1f192ac1c99544b6cc8f099b0" target="_top" xlink:title=" ">
<polygon fill="white" stroke="black" points="897.751,-39 897.751,-71 1008.25,-71 1008.25,-39 897.751,-39"/>
<text text-anchor="start" x="905.751" y="-57" font-family="Helvetica,sans-Serif" font-size="10.00">AP_HAL::Scheduler::</text>
<text text-anchor="middle" x="953" y="-45" font-family="Helvetica,sans-Serif" font-size="10.00">delay_microseconds</text>
</a>
</g>
</g>
<!-- Node72&#45;&gt;Node74 -->
<g id="edge48" class="edge"><title>Node72&#45;&gt;Node74</title>
<path fill="none" stroke="midnightblue" d="M842.261,-55C856.096,-55 871.877,-55 887.075,-55"/>
<polygon fill="midnightblue" stroke="midnightblue" points="887.472,-58.5001 897.472,-55 887.472,-51.5001 887.472,-58.5001"/>
</g>
</g>
</svg>
        <g id="navigator" transform="translate(0 0)" fill="#404254">
                <rect fill="#f2f5e9" fill-opacity="0.5" stroke="#606060" stroke-width=".5" x="0" y="0" width="60" height="60"/>
                <use id="zoomplus" xlink:href="#zoomPlus" x="17" y="9" onmousedown="handleZoom(evt,'in')"/>
                <use id="zoomminus" xlink:href="#zoomMin" x="42" y="9" onmousedown="handleZoom(evt,'out')"/>
                <use id="reset" xlink:href="#resetDef" x="30" y="36" onmousedown="handleReset()"/>
                <g id="arrowUp" xlink:href="#dirArrow" transform="translate(30 24)" onmousedown="handlePan(0,-1)">
                  <use xlink:href="#rim" fill="#404040">
                        <set attributeName="fill" to="#808080" begin="arrowUp.mouseover" end="arrowUp.mouseout"/>
                  </use>
                  <path fill="none" stroke="white" stroke-width="1.5" d="M0,-3.0v7 M-2.5,-0.5L0,-3.0L2.5,-0.5"/>
                </g>
                <g id="arrowRight" xlink:href="#dirArrow" transform="rotate(90) translate(36 -43)" onmousedown="handlePan(1,0)">
                  <use xlink:href="#rim" fill="#404040">
                        <set attributeName="fill" to="#808080" begin="arrowRight.mouseover" end="arrowRight.mouseout"/>
                  </use>
                  <path fill="none" stroke="white" stroke-width="1.5" d="M0,-3.0v7 M-2.5,-0.5L0,-3.0L2.5,-0.5"/>
                </g>
                <g id="arrowDown" xlink:href="#dirArrow" transform="rotate(180) translate(-30 -48)" onmousedown="handlePan(0,1)">
                  <use xlink:href="#rim" fill="#404040">
                        <set attributeName="fill" to="#808080" begin="arrowDown.mouseover" end="arrowDown.mouseout"/>
                  </use>
                  <path fill="none" stroke="white" stroke-width="1.5" d="M0,-3.0v7 M-2.5,-0.5L0,-3.0L2.5,-0.5"/>
                </g>
                <g id="arrowLeft" xlink:href="#dirArrow" transform="rotate(270) translate(-36 17)" onmousedown="handlePan(-1,0)">
                  <use xlink:href="#rim" fill="#404040">
                        <set attributeName="fill" to="#808080" begin="arrowLeft.mouseover" end="arrowLeft.mouseout"/>
                  </use>
                  <path fill="none" stroke="white" stroke-width="1.5" d="M0,-3.0v7 M-2.5,-0.5L0,-3.0L2.5,-0.5"/>
                </g>
        </g>
        <svg viewBox="0 0 15 15" width="100%" height="30px" preserveAspectRatio="xMaxYMin meet">
         <g id="arrow_out" transform="scale(0.3 0.3)">
          <a xlink:href="examples_2RCInput_2RCInput_8cpp_a4fc01d736fe50cf5b977f755b675f11d_cgraph_org.svg" target="_base">
           <rect id="button" ry="5" rx="5" y="6" x="6" height="38" width="38"
                fill="#f2f5e9" fill-opacity="0.5" stroke="#606060" stroke-width="1.0"/>
           <path id="arrow"
             d="M 11.500037,31.436501 C 11.940474,20.09759 22.043105,11.32322 32.158766,21.979434 L 37.068811,17.246167 C 37.068811,17.246167 37.088388,32 37.088388,32 L 22.160133,31.978069 C 22.160133,31.978069 26.997745,27.140456 26.997745,27.140456 C 18.528582,18.264221 13.291696,25.230495 11.500037,31.436501 z"
             style="fill:#404040;"/>
          </a>
         </g>
        </svg>
</svg>
