<?xml version="1.0" encoding="UTF-8" standalone="no"?>
<!DOCTYPE svg PUBLIC "-//W3C//DTD SVG 1.1//EN"
 "http://www.w3.org/Graphics/SVG/1.1/DTD/svg11.dtd">
<!-- Generated by graphviz version 2.30.1 (20130221.2233)
 -->
<!-- Title: libraries/AP_Notify/ExternalLED.h Pages: 1 -->
<svg width="222pt" height="112pt"
 viewBox="0.00 0.00 222.00 112.00" xmlns="http://www.w3.org/2000/svg" xmlns:xlink="http://www.w3.org/1999/xlink">
<g id="graph0" class="graph" transform="scale(1 1) rotate(0) translate(4 108)">
<title>libraries/AP_Notify/ExternalLED.h</title>
<polygon fill="white" stroke="white" points="-4,5 -4,-108 219,-108 219,5 -4,5"/>
<!-- Node44 -->
<g id="node1" class="node"><title>Node44</title>
<g id="a_node1"><a xlink:title=" ">
<polygon fill="#bfbfbf" stroke="black" points="57.8745,-71 57.8745,-103 156.125,-103 156.125,-71 57.8745,-71"/>
<text text-anchor="start" x="65.8745" y="-89" font-family="Helvetica,sans-Serif" font-size="10.00">libraries/AP_Notify</text>
<text text-anchor="middle" x="107" y="-77" font-family="Helvetica,sans-Serif" font-size="10.00">/ExternalLED.h</text>
</a>
</g>
</g>
<!-- Node45 -->
<g id="node2" class="node"><title>Node45</title>
<g id="a_node2"><a xlink:href="AP__Notify_8cpp.html" target="_top" xlink:title=" ">
<polygon fill="white" stroke="black" points="-0.125488,-1 -0.125488,-33 98.1255,-33 98.1255,-1 -0.125488,-1"/>
<text text-anchor="start" x="7.87451" y="-19" font-family="Helvetica,sans-Serif" font-size="10.00">libraries/AP_Notify</text>
<text text-anchor="middle" x="49" y="-7" font-family="Helvetica,sans-Serif" font-size="10.00">/AP_Notify.cpp</text>
</a>
</g>
</g>
<!-- Node44&#45;&gt;Node45 -->
<g id="edge1" class="edge"><title>Node44&#45;&gt;Node45</title>
<path fill="none" stroke="midnightblue" d="M87.3954,-63.0153C78.9613,-53.127 69.3384,-41.845 61.8361,-33.0492"/>
<polygon fill="midnightblue" stroke="midnightblue" points="84.9755,-65.5716 94.1279,-70.9086 90.3013,-61.0289 84.9755,-65.5716"/>
</g>
<!-- Node46 -->
<g id="node3" class="node"><title>Node46</title>
<g id="a_node3"><a xlink:href="ExternalLED_8cpp.html" target="_top" xlink:title=" ">
<polygon fill="white" stroke="black" points="115.875,-1 115.875,-33 214.125,-33 214.125,-1 115.875,-1"/>
<text text-anchor="start" x="123.875" y="-19" font-family="Helvetica,sans-Serif" font-size="10.00">libraries/AP_Notify</text>
<text text-anchor="middle" x="165" y="-7" font-family="Helvetica,sans-Serif" font-size="10.00">/ExternalLED.cpp</text>
</a>
</g>
</g>
<!-- Node44&#45;&gt;Node46 -->
<g id="edge2" class="edge"><title>Node44&#45;&gt;Node46</title>
<path fill="none" stroke="midnightblue" d="M126.605,-63.0153C135.039,-53.127 144.662,-41.845 152.164,-33.0492"/>
<polygon fill="midnightblue" stroke="midnightblue" points="123.699,-61.0289 119.872,-70.9086 129.025,-65.5716 123.699,-61.0289"/>
</g>
</g>
</svg>
