<?xml version="1.0" encoding="UTF-8" standalone="no"?>
<!DOCTYPE svg PUBLIC "-//W3C//DTD SVG 1.1//EN"
 "http://www.w3.org/Graphics/SVG/1.1/DTD/svg11.dtd">
<!-- Generated by graphviz version 2.30.1 (20130221.2233)
 -->
<!-- Title: libraries/AP_HAL/HAL.cpp Pages: 1 -->
<svg width="1067pt" height="378pt"
 viewBox="0.00 0.00 1067.00 378.00" xmlns="http://www.w3.org/2000/svg" xmlns:xlink="http://www.w3.org/1999/xlink">
<g id="graph0" class="graph" transform="scale(1 1) rotate(0) translate(4 374)">
<title>libraries/AP_HAL/HAL.cpp</title>
<polygon fill="white" stroke="white" points="-4,5 -4,-374 1064,-374 1064,5 -4,5"/>
<!-- Node0 -->
<g id="node1" class="node"><title>Node0</title>
<g id="a_node1"><a xlink:title=" ">
<polygon fill="#bfbfbf" stroke="black" points="377.362,-349 377.362,-369 510.638,-369 510.638,-349 377.362,-349"/>
<text text-anchor="middle" x="444" y="-355" font-family="Helvetica,sans-Serif" font-size="10.00">libraries/AP_HAL/HAL.cpp</text>
</a>
</g>
</g>
<!-- Node1 -->
<g id="node2" class="node"><title>Node1</title>
<g id="a_node2"><a xlink:title=" ">
<polygon fill="white" stroke="#bfbfbf" points="385.214,-291 385.214,-311 436.786,-311 436.786,-291 385.214,-291"/>
<text text-anchor="middle" x="411" y="-297" font-family="Helvetica,sans-Serif" font-size="10.00">assert.h</text>
</a>
</g>
</g>
<!-- Node0&#45;&gt;Node1 -->
<g id="edge1" class="edge"><title>Node0&#45;&gt;Node1</title>
<path fill="none" stroke="midnightblue" d="M438.551,-348.753C433.937,-340.924 427.191,-329.476 421.529,-319.868"/>
<polygon fill="midnightblue" stroke="midnightblue" points="424.44,-317.914 416.348,-311.075 418.409,-321.468 424.44,-317.914"/>
</g>
<!-- Node2 -->
<g id="node3" class="node"><title>Node2</title>
<g id="a_node3"><a xlink:href="HAL_8h.html" target="_top" xlink:title=" ">
<polygon fill="white" stroke="black" points="455.104,-291 455.104,-311 498.896,-311 498.896,-291 455.104,-291"/>
<text text-anchor="middle" x="477" y="-297" font-family="Helvetica,sans-Serif" font-size="10.00">HAL.h</text>
</a>
</g>
</g>
<!-- Node0&#45;&gt;Node2 -->
<g id="edge2" class="edge"><title>Node0&#45;&gt;Node2</title>
<path fill="none" stroke="midnightblue" d="M449.449,-348.753C454.063,-340.924 460.809,-329.476 466.471,-319.868"/>
<polygon fill="midnightblue" stroke="midnightblue" points="469.591,-321.468 471.652,-311.075 463.56,-317.914 469.591,-321.468"/>
</g>
<!-- Node3 -->
<g id="node4" class="node"><title>Node3</title>
<g id="a_node4"><a xlink:href="AP__HAL__Namespace_8h.html" target="_top" xlink:title=" ">
<polygon fill="white" stroke="black" points="317.192,-117 317.192,-137 438.808,-137 438.808,-117 317.192,-117"/>
<text text-anchor="middle" x="378" y="-123" font-family="Helvetica,sans-Serif" font-size="10.00">AP_HAL_Namespace.h</text>
</a>
</g>
</g>
<!-- Node2&#45;&gt;Node3 -->
<g id="edge3" class="edge"><title>Node2&#45;&gt;Node3</title>
<path fill="none" stroke="midnightblue" d="M455.072,-292.938C422.535,-282.242 364.676,-262.305 359,-254 336.629,-221.269 354.891,-172.617 367.859,-146.374"/>
<polygon fill="midnightblue" stroke="midnightblue" points="371.122,-147.684 372.636,-137.198 364.913,-144.452 371.122,-147.684"/>
</g>
<!-- Node7 -->
<g id="node8" class="node"><title>Node7</title>
<g id="a_node8"><a xlink:href="AnalogIn_8h.html" target="_top" xlink:title=" ">
<polygon fill="white" stroke="black" points="210.091,-175 210.091,-195 273.909,-195 273.909,-175 210.091,-175"/>
<text text-anchor="middle" x="242" y="-181" font-family="Helvetica,sans-Serif" font-size="10.00">AnalogIn.h</text>
</a>
</g>
</g>
<!-- Node2&#45;&gt;Node7 -->
<g id="edge7" class="edge"><title>Node2&#45;&gt;Node7</title>
<path fill="none" stroke="midnightblue" d="M454.974,-293.088C451.634,-292.048 448.227,-290.992 445,-290 392.185,-273.759 374.828,-279.866 326,-254 300.021,-240.238 274.375,-217.848 258.387,-202.548"/>
<polygon fill="midnightblue" stroke="midnightblue" points="260.552,-199.769 250.956,-195.276 255.656,-204.772 260.552,-199.769"/>
</g>
<!-- Node9 -->
<g id="node10" class="node"><title>Node9</title>
<g id="a_node10"><a xlink:href="GPIO_8h.html" target="_top" xlink:title=" ">
<polygon fill="white" stroke="black" points="522.328,-175 522.328,-195 571.672,-195 571.672,-175 522.328,-175"/>
<text text-anchor="middle" x="547" y="-181" font-family="Helvetica,sans-Serif" font-size="10.00">GPIO.h</text>
</a>
</g>
</g>
<!-- Node2&#45;&gt;Node9 -->
<g id="edge10" class="edge"><title>Node2&#45;&gt;Node9</title>
<path fill="none" stroke="midnightblue" d="M481.88,-290.593C488.853,-277.314 502.24,-252.412 515,-232 520.984,-222.428 528.117,-212.083 534.129,-203.633"/>
<polygon fill="midnightblue" stroke="midnightblue" points="537.102,-205.493 540.104,-195.332 531.421,-201.403 537.102,-205.493"/>
</g>
<!-- Node11 -->
<g id="node12" class="node"><title>Node11</title>
<g id="a_node12"><a xlink:href="RCInput_8h.html" target="_top" xlink:title=" ">
<polygon fill="white" stroke="black" points="368.488,-233 368.488,-253 429.512,-253 429.512,-233 368.488,-233"/>
<text text-anchor="middle" x="399" y="-239" font-family="Helvetica,sans-Serif" font-size="10.00">RCInput.h</text>
</a>
</g>
</g>
<!-- Node2&#45;&gt;Node11 -->
<g id="edge13" class="edge"><title>Node2&#45;&gt;Node11</title>
<path fill="none" stroke="midnightblue" d="M464.12,-290.753C452.08,-282.109 433.894,-269.052 419.797,-258.931"/>
<polygon fill="midnightblue" stroke="midnightblue" points="421.805,-256.064 411.64,-253.075 417.722,-261.75 421.805,-256.064"/>
</g>
<!-- Node12 -->
<g id="node13" class="node"><title>Node12</title>
<g id="a_node13"><a xlink:href="RCOutput_8h.html" target="_top" xlink:title=" ">
<polygon fill="white" stroke="black" points="627.599,-175 627.599,-195 696.401,-195 696.401,-175 627.599,-175"/>
<text text-anchor="middle" x="662" y="-181" font-family="Helvetica,sans-Serif" font-size="10.00">RCOutput.h</text>
</a>
</g>
</g>
<!-- Node2&#45;&gt;Node12 -->
<g id="edge15" class="edge"><title>Node2&#45;&gt;Node12</title>
<path fill="none" stroke="midnightblue" d="M499.07,-296.433C527.042,-291.054 575.734,-278.747 610,-254 628.185,-240.867 643.003,-219.581 652.103,-204.323"/>
<polygon fill="midnightblue" stroke="midnightblue" points="655.327,-205.733 657.235,-195.312 649.244,-202.269 655.327,-205.733"/>
</g>
<!-- Node13 -->
<g id="node14" class="node"><title>Node13</title>
<g id="a_node14"><a xlink:href="SPIDevice_8h.html" target="_top" xlink:title=" ">
<polygon fill="white" stroke="black" points="129.488,-233 129.488,-253 200.512,-253 200.512,-233 129.488,-233"/>
<text text-anchor="middle" x="165" y="-239" font-family="Helvetica,sans-Serif" font-size="10.00">SPIDevice.h</text>
</a>
</g>
</g>
<!-- Node2&#45;&gt;Node13 -->
<g id="edge18" class="edge"><title>Node2&#45;&gt;Node13</title>
<path fill="none" stroke="midnightblue" d="M455.078,-292.705C451.724,-291.718 448.285,-290.779 445,-290 363.494,-270.67 266.731,-256.724 210.938,-249.538"/>
<polygon fill="midnightblue" stroke="midnightblue" points="211.038,-246.023 200.676,-248.233 210.155,-252.967 211.038,-246.023"/>
</g>
<!-- Node17 -->
<g id="node18" class="node"><title>Node17</title>
<g id="a_node18"><a xlink:href="Storage_8h.html" target="_top" xlink:title=" ">
<polygon fill="white" stroke="black" points="406.318,-175 406.318,-195 465.682,-195 465.682,-175 406.318,-175"/>
<text text-anchor="middle" x="436" y="-181" font-family="Helvetica,sans-Serif" font-size="10.00">Storage.h</text>
</a>
</g>
</g>
<!-- Node2&#45;&gt;Node17 -->
<g id="edge27" class="edge"><title>Node2&#45;&gt;Node17</title>
<path fill="none" stroke="midnightblue" d="M473.645,-290.671C466.914,-271.957 451.651,-229.517 442.765,-204.809"/>
<polygon fill="midnightblue" stroke="midnightblue" points="445.965,-203.365 439.287,-195.139 439.378,-205.734 445.965,-203.365"/>
</g>
<!-- Node18 -->
<g id="node19" class="node"><title>Node18</title>
<g id="a_node19"><a xlink:href="UARTDriver_8h.html" target="_top" xlink:title=" ">
<polygon fill="white" stroke="black" points="524.248,-233 524.248,-253 601.752,-253 601.752,-233 524.248,-233"/>
<text text-anchor="middle" x="563" y="-239" font-family="Helvetica,sans-Serif" font-size="10.00">UARTDriver.h</text>
</a>
</g>
</g>
<!-- Node2&#45;&gt;Node18 -->
<g id="edge30" class="edge"><title>Node2&#45;&gt;Node18</title>
<path fill="none" stroke="midnightblue" d="M491.201,-290.753C504.601,-282.027 524.907,-268.805 540.508,-258.646"/>
<polygon fill="midnightblue" stroke="midnightblue" points="542.593,-261.465 549.063,-253.075 538.773,-255.599 542.593,-261.465"/>
</g>
<!-- Node23 -->
<g id="node24" class="node"><title>Node23</title>
<g id="a_node24"><a xlink:href="system_8h.html" target="_top" xlink:title=" ">
<polygon fill="white" stroke="black" points="840.995,-175 840.995,-195 897.005,-195 897.005,-175 840.995,-175"/>
<text text-anchor="middle" x="869" y="-181" font-family="Helvetica,sans-Serif" font-size="10.00">system.h</text>
</a>
</g>
</g>
<!-- Node2&#45;&gt;Node23 -->
<g id="edge39" class="edge"><title>Node2&#45;&gt;Node23</title>
<path fill="none" stroke="midnightblue" d="M498.981,-294.471C529.741,-286.538 587.222,-270.996 635,-254 658.643,-245.589 663.194,-239.937 687,-232 747.04,-211.984 765.962,-212.557 830.821,-196.238"/>
<polygon fill="midnightblue" stroke="midnightblue" points="831.913,-199.572 840.734,-193.704 830.179,-192.79 831.913,-199.572"/>
</g>
<!-- Node26 -->
<g id="node27" class="node"><title>Node26</title>
<g id="a_node27"><a xlink:href="AP__HAL_2OpticalFlow_8h.html" target="_top" xlink:title=" ">
<polygon fill="white" stroke="black" points="695.985,-233 695.985,-253 772.015,-253 772.015,-233 695.985,-233"/>
<text text-anchor="middle" x="734" y="-239" font-family="Helvetica,sans-Serif" font-size="10.00">OpticalFlow.h</text>
</a>
</g>
</g>
<!-- Node2&#45;&gt;Node26 -->
<g id="edge44" class="edge"><title>Node2&#45;&gt;Node26</title>
<path fill="none" stroke="midnightblue" d="M498.912,-295.225C540.05,-286.261 629.731,-266.72 685.666,-254.532"/>
<polygon fill="midnightblue" stroke="midnightblue" points="686.672,-257.895 695.698,-252.346 685.182,-251.055 686.672,-257.895"/>
</g>
<!-- Node4 -->
<g id="node5" class="node"><title>Node4</title>
<g id="a_node5"><a xlink:title=" ">
<polygon fill="white" stroke="#bfbfbf" points="353.604,-59 353.604,-79 402.396,-79 402.396,-59 353.604,-59"/>
<text text-anchor="middle" x="378" y="-65" font-family="Helvetica,sans-Serif" font-size="10.00">string.h</text>
</a>
</g>
</g>
<!-- Node3&#45;&gt;Node4 -->
<g id="edge4" class="edge"><title>Node3&#45;&gt;Node4</title>
<path fill="none" stroke="midnightblue" d="M378,-116.753C378,-109.25 378,-98.4238 378,-89.0781"/>
<polygon fill="midnightblue" stroke="midnightblue" points="381.5,-89.0752 378,-79.0752 374.5,-89.0752 381.5,-89.0752"/>
</g>
<!-- Node5 -->
<g id="node6" class="node"><title>Node5</title>
<g id="a_node6"><a xlink:href="functor_8h.html" target="_top" xlink:title=" ">
<polygon fill="white" stroke="black" points="191.037,-59 191.037,-79 270.963,-79 270.963,-59 191.037,-59"/>
<text text-anchor="middle" x="231" y="-65" font-family="Helvetica,sans-Serif" font-size="10.00">utility/functor.h</text>
</a>
</g>
</g>
<!-- Node3&#45;&gt;Node5 -->
<g id="edge5" class="edge"><title>Node3&#45;&gt;Node5</title>
<path fill="none" stroke="midnightblue" d="M354.055,-116.878C329.709,-107.603 291.786,-93.1564 264.473,-82.7515"/>
<polygon fill="midnightblue" stroke="midnightblue" points="265.526,-79.4074 254.935,-79.1181 263.034,-85.9488 265.526,-79.4074"/>
</g>
<!-- Node6 -->
<g id="node7" class="node"><title>Node6</title>
<g id="a_node7"><a xlink:title=" ">
<polygon fill="white" stroke="#bfbfbf" points="199.934,-1 199.934,-21 262.066,-21 262.066,-1 199.934,-1"/>
<text text-anchor="middle" x="231" y="-7" font-family="Helvetica,sans-Serif" font-size="10.00">type_traits</text>
</a>
</g>
</g>
<!-- Node5&#45;&gt;Node6 -->
<g id="edge6" class="edge"><title>Node5&#45;&gt;Node6</title>
<path fill="none" stroke="midnightblue" d="M231,-58.7527C231,-51.2504 231,-40.4238 231,-31.0781"/>
<polygon fill="midnightblue" stroke="midnightblue" points="234.5,-31.0752 231,-21.0752 227.5,-31.0752 234.5,-31.0752"/>
</g>
<!-- Node8 -->
<g id="node9" class="node"><title>Node8</title>
<g id="a_node9"><a xlink:title=" ">
<polygon fill="white" stroke="#bfbfbf" points="192.599,-117 192.599,-137 251.401,-137 251.401,-117 192.599,-117"/>
<text text-anchor="middle" x="222" y="-123" font-family="Helvetica,sans-Serif" font-size="10.00">inttypes.h</text>
</a>
</g>
</g>
<!-- Node7&#45;&gt;Node8 -->
<g id="edge8" class="edge"><title>Node7&#45;&gt;Node8</title>
<path fill="none" stroke="midnightblue" d="M238.697,-174.753C235.989,-167.169 232.067,-156.188 228.705,-146.774"/>
<polygon fill="midnightblue" stroke="midnightblue" points="231.901,-145.315 225.241,-137.075 225.308,-147.67 231.901,-145.315"/>
</g>
<!-- Node7&#45;&gt;Node3 -->
<g id="edge9" class="edge"><title>Node7&#45;&gt;Node3</title>
<path fill="none" stroke="midnightblue" d="M264.153,-174.878C286.48,-165.685 321.148,-151.409 346.365,-141.026"/>
<polygon fill="midnightblue" stroke="midnightblue" points="347.942,-144.162 355.856,-137.118 345.277,-137.689 347.942,-144.162"/>
</g>
<!-- Node10 -->
<g id="node11" class="node"><title>Node10</title>
<g id="a_node11"><a xlink:title=" ">
<polygon fill="white" stroke="#bfbfbf" points="594.879,-59 594.879,-79 643.121,-79 643.121,-59 594.879,-59"/>
<text text-anchor="middle" x="619" y="-65" font-family="Helvetica,sans-Serif" font-size="10.00">stdint.h</text>
</a>
</g>
</g>
<!-- Node9&#45;&gt;Node10 -->
<g id="edge11" class="edge"><title>Node9&#45;&gt;Node10</title>
<path fill="none" stroke="midnightblue" d="M552.006,-174.583C559.16,-161.291 572.897,-136.375 586,-116 592.169,-106.408 599.525,-96.0613 605.725,-87.6144"/>
<polygon fill="midnightblue" stroke="midnightblue" points="608.733,-89.4342 611.887,-79.3199 603.114,-85.2594 608.733,-89.4342"/>
</g>
<!-- Node9&#45;&gt;Node3 -->
<g id="edge12" class="edge"><title>Node9&#45;&gt;Node3</title>
<path fill="none" stroke="midnightblue" d="M522.063,-175.737C493.772,-166.362 447.357,-150.982 414.879,-140.22"/>
<polygon fill="midnightblue" stroke="midnightblue" points="415.875,-136.863 405.282,-137.04 413.673,-143.508 415.875,-136.863"/>
</g>
<!-- Node11&#45;&gt;Node3 -->
<g id="edge14" class="edge"><title>Node11&#45;&gt;Node3</title>
<path fill="none" stroke="midnightblue" d="M397.281,-232.671C393.85,-214.041 386.086,-171.898 381.526,-147.143"/>
<polygon fill="midnightblue" stroke="midnightblue" points="384.937,-146.34 379.684,-137.139 378.053,-147.608 384.937,-146.34"/>
</g>
<!-- Node12&#45;&gt;Node3 -->
<g id="edge16" class="edge"><title>Node12&#45;&gt;Node3</title>
<path fill="none" stroke="midnightblue" d="M627.46,-177.189C579.349,-167.703 491.604,-150.401 434.053,-139.053"/>
<polygon fill="midnightblue" stroke="midnightblue" points="434.517,-135.577 424.029,-137.076 433.162,-142.445 434.517,-135.577"/>
</g>
<!-- Node12&#45;&gt;Node10 -->
<g id="edge17" class="edge"><title>Node12&#45;&gt;Node10</title>
<path fill="none" stroke="midnightblue" d="M658.481,-174.671C651.422,-155.957 635.414,-113.517 626.095,-88.8093"/>
<polygon fill="midnightblue" stroke="midnightblue" points="629.251,-87.2607 622.447,-79.1394 622.702,-89.7312 629.251,-87.2607"/>
</g>
<!-- Node13&#45;&gt;Node8 -->
<g id="edge19" class="edge"><title>Node13&#45;&gt;Node8</title>
<path fill="none" stroke="midnightblue" d="M154.011,-232.98C139.266,-219.746 116.315,-194.426 129,-174 140.788,-155.019 162.987,-143.632 182.74,-136.936"/>
<polygon fill="midnightblue" stroke="midnightblue" points="183.958,-140.224 192.481,-133.93 181.893,-133.535 183.958,-140.224"/>
</g>
<!-- Node13&#45;&gt;Node3 -->
<g id="edge20" class="edge"><title>Node13&#45;&gt;Node3</title>
<path fill="none" stroke="midnightblue" d="M193.752,-232.877C217.979,-224.683 253.198,-211.565 282,-196 310.386,-180.66 340.297,-158.357 359.04,-143.526"/>
<polygon fill="midnightblue" stroke="midnightblue" points="361.443,-146.086 367.055,-137.1 357.064,-140.625 361.443,-146.086"/>
</g>
<!-- Node14 -->
<g id="node15" class="node"><title>Node14</title>
<g id="a_node15"><a xlink:href="Device_8h.html" target="_top" xlink:title=" ">
<polygon fill="white" stroke="black" points="137.547,-175 137.547,-195 192.453,-195 192.453,-175 137.547,-175"/>
<text text-anchor="middle" x="165" y="-181" font-family="Helvetica,sans-Serif" font-size="10.00">Device.h</text>
</a>
</g>
</g>
<!-- Node13&#45;&gt;Node14 -->
<g id="edge21" class="edge"><title>Node13&#45;&gt;Node14</title>
<path fill="none" stroke="midnightblue" d="M165,-232.753C165,-225.25 165,-214.424 165,-205.078"/>
<polygon fill="midnightblue" stroke="midnightblue" points="168.5,-205.075 165,-195.075 161.5,-205.075 168.5,-205.075"/>
</g>
<!-- Node15 -->
<g id="node16" class="node"><title>Node15</title>
<g id="a_node16"><a xlink:href="OwnPtr_8h.html" target="_top" xlink:title=" ">
<polygon fill="white" stroke="black" points="-0.347168,-175 -0.347168,-195 82.3472,-195 82.3472,-175 -0.347168,-175"/>
<text text-anchor="middle" x="41" y="-181" font-family="Helvetica,sans-Serif" font-size="10.00">utility/OwnPtr.h</text>
</a>
</g>
</g>
<!-- Node13&#45;&gt;Node15 -->
<g id="edge25" class="edge"><title>Node13&#45;&gt;Node15</title>
<path fill="none" stroke="midnightblue" d="M144.801,-232.878C124.625,-223.766 93.3938,-209.662 70.4563,-199.303"/>
<polygon fill="midnightblue" stroke="midnightblue" points="71.7444,-196.044 61.1901,-195.118 68.8632,-202.424 71.7444,-196.044"/>
</g>
<!-- Node14&#45;&gt;Node8 -->
<g id="edge22" class="edge"><title>Node14&#45;&gt;Node8</title>
<path fill="none" stroke="midnightblue" d="M174.412,-174.753C182.879,-166.435 195.504,-154.031 205.623,-144.089"/>
<polygon fill="midnightblue" stroke="midnightblue" points="208.082,-146.58 212.763,-137.075 203.176,-141.587 208.082,-146.58"/>
</g>
<!-- Node14&#45;&gt;Node3 -->
<g id="edge23" class="edge"><title>Node14&#45;&gt;Node3</title>
<path fill="none" stroke="midnightblue" d="M192.504,-176.309C195.371,-175.523 198.244,-174.741 201,-174 245.511,-162.035 296.458,-148.848 332.228,-139.672"/>
<polygon fill="midnightblue" stroke="midnightblue" points="333.538,-142.95 342.357,-137.077 331.801,-136.169 333.538,-142.95"/>
</g>
<!-- Node14&#45;&gt;Node5 -->
<g id="edge24" class="edge"><title>Node14&#45;&gt;Node5</title>
<path fill="none" stroke="midnightblue" d="M166.059,-174.6C167.935,-160.893 172.764,-134.989 184,-116 190.835,-104.448 201.305,-93.8052 210.629,-85.6725"/>
<polygon fill="midnightblue" stroke="midnightblue" points="212.951,-88.2937 218.408,-79.2121 208.479,-82.9086 212.951,-88.2937"/>
</g>
<!-- Node16 -->
<g id="node17" class="node"><title>Node16</title>
<g id="a_node17"><a xlink:title=" ">
<polygon fill="white" stroke="#bfbfbf" points="16.8794,-117 16.8794,-137 65.1206,-137 65.1206,-117 16.8794,-117"/>
<text text-anchor="middle" x="41" y="-123" font-family="Helvetica,sans-Serif" font-size="10.00">cstddef</text>
</a>
</g>
</g>
<!-- Node15&#45;&gt;Node16 -->
<g id="edge26" class="edge"><title>Node15&#45;&gt;Node16</title>
<path fill="none" stroke="midnightblue" d="M41,-174.753C41,-167.25 41,-156.424 41,-147.078"/>
<polygon fill="midnightblue" stroke="midnightblue" points="44.5001,-147.075 41,-137.075 37.5001,-147.075 44.5001,-147.075"/>
</g>
<!-- Node17&#45;&gt;Node10 -->
<g id="edge28" class="edge"><title>Node17&#45;&gt;Node10</title>
<path fill="none" stroke="midnightblue" d="M450.666,-174.864C482.333,-155.137 557.329,-108.418 595.622,-84.5635"/>
<polygon fill="midnightblue" stroke="midnightblue" points="597.881,-87.2799 604.518,-79.0217 594.179,-81.3384 597.881,-87.2799"/>
</g>
<!-- Node17&#45;&gt;Node3 -->
<g id="edge29" class="edge"><title>Node17&#45;&gt;Node3</title>
<path fill="none" stroke="midnightblue" d="M426.422,-174.753C417.808,-166.435 404.961,-154.031 394.664,-144.089"/>
<polygon fill="midnightblue" stroke="midnightblue" points="397.024,-141.503 387.399,-137.075 392.162,-146.539 397.024,-141.503"/>
</g>
<!-- Node18&#45;&gt;Node10 -->
<g id="edge31" class="edge"><title>Node18&#45;&gt;Node10</title>
<path fill="none" stroke="midnightblue" d="M566.533,-232.888C570.077,-223.644 575.623,-208.9 580,-196 592.76,-158.39 606.131,-113.908 613.429,-89.1277"/>
<polygon fill="midnightblue" stroke="midnightblue" points="616.877,-89.8048 616.33,-79.2241 610.16,-87.8367 616.877,-89.8048"/>
</g>
<!-- Node18&#45;&gt;Node3 -->
<g id="edge32" class="edge"><title>Node18&#45;&gt;Node3</title>
<path fill="none" stroke="midnightblue" d="M552.554,-232.873C536.43,-219.057 504.178,-192.487 474,-174 453.238,-161.281 428.422,-149.471 409.222,-141.002"/>
<polygon fill="midnightblue" stroke="midnightblue" points="410.585,-137.778 400.018,-137.008 407.798,-144.2 410.585,-137.778"/>
</g>
<!-- Node19 -->
<g id="node20" class="node"><title>Node19</title>
<g id="a_node20"><a xlink:href="BetterStream_8h.html" target="_top" xlink:title=" ">
<polygon fill="white" stroke="black" points="714.594,-175 714.594,-195 823.406,-195 823.406,-175 714.594,-175"/>
<text text-anchor="middle" x="769" y="-181" font-family="Helvetica,sans-Serif" font-size="10.00">utility/BetterStream.h</text>
</a>
</g>
</g>
<!-- Node18&#45;&gt;Node19 -->
<g id="edge33" class="edge"><title>Node18&#45;&gt;Node19</title>
<path fill="none" stroke="midnightblue" d="M596.556,-232.878C631.825,-223.29 687.428,-208.175 725.918,-197.712"/>
<polygon fill="midnightblue" stroke="midnightblue" points="727.068,-201.026 735.8,-195.025 725.232,-194.271 727.068,-201.026"/>
</g>
<!-- Node20 -->
<g id="node21" class="node"><title>Node20</title>
<g id="a_node21"><a xlink:title=" ">
<polygon fill="white" stroke="#bfbfbf" points="665.934,-117 665.934,-137 718.066,-137 718.066,-117 665.934,-117"/>
<text text-anchor="middle" x="692" y="-123" font-family="Helvetica,sans-Serif" font-size="10.00">stdarg.h</text>
</a>
</g>
</g>
<!-- Node19&#45;&gt;Node20 -->
<g id="edge34" class="edge"><title>Node19&#45;&gt;Node20</title>
<path fill="none" stroke="midnightblue" d="M756.285,-174.753C744.512,-166.19 726.784,-153.298 712.926,-143.219"/>
<polygon fill="midnightblue" stroke="midnightblue" points="714.624,-140.126 704.478,-137.075 710.507,-145.788 714.624,-140.126"/>
</g>
<!-- Node21 -->
<g id="node22" class="node"><title>Node21</title>
<g id="a_node22"><a xlink:href="AP__Common_8h.html" target="_top" xlink:title="Common definitions and utility routines for the ArduPilot libraries.">
<polygon fill="white" stroke="black" points="773.973,-117 773.973,-137 920.027,-137 920.027,-117 773.973,-117"/>
<text text-anchor="middle" x="847" y="-123" font-family="Helvetica,sans-Serif" font-size="10.00">AP_Common/AP_Common.h</text>
</a>
</g>
</g>
<!-- Node19&#45;&gt;Node21 -->
<g id="edge35" class="edge"><title>Node19&#45;&gt;Node21</title>
<path fill="none" stroke="midnightblue" d="M781.88,-174.753C793.92,-166.109 812.106,-153.052 826.203,-142.931"/>
<polygon fill="midnightblue" stroke="midnightblue" points="828.278,-145.75 834.36,-137.075 824.195,-140.064 828.278,-145.75"/>
</g>
<!-- Node19&#45;&gt;Node3 -->
<g id="edge38" class="edge"><title>Node19&#45;&gt;Node3</title>
<path fill="none" stroke="midnightblue" d="M714.541,-175.433C711.314,-174.943 708.115,-174.462 705,-174 616.809,-160.908 515.092,-146.746 448.828,-137.646"/>
<polygon fill="midnightblue" stroke="midnightblue" points="449.293,-134.178 438.91,-136.286 448.342,-141.113 449.293,-134.178"/>
</g>
<!-- Node21&#45;&gt;Node10 -->
<g id="edge36" class="edge"><title>Node21&#45;&gt;Node10</title>
<path fill="none" stroke="midnightblue" d="M810.114,-116.94C766.685,-106.274 695.146,-88.7026 653.007,-78.3525"/>
<polygon fill="midnightblue" stroke="midnightblue" points="653.761,-74.9339 643.215,-75.9475 652.091,-81.7318 653.761,-74.9339"/>
</g>
<!-- Node22 -->
<g id="node23" class="node"><title>Node22</title>
<g id="a_node23"><a xlink:title=" ">
<polygon fill="white" stroke="#bfbfbf" points="823.158,-59 823.158,-79 870.842,-79 870.842,-59 823.158,-59"/>
<text text-anchor="middle" x="847" y="-65" font-family="Helvetica,sans-Serif" font-size="10.00">stdlib.h</text>
</a>
</g>
</g>
<!-- Node21&#45;&gt;Node22 -->
<g id="edge37" class="edge"><title>Node21&#45;&gt;Node22</title>
<path fill="none" stroke="midnightblue" d="M847,-116.753C847,-109.25 847,-98.4238 847,-89.0781"/>
<polygon fill="midnightblue" stroke="midnightblue" points="850.5,-89.0752 847,-79.0752 843.5,-89.0752 850.5,-89.0752"/>
</g>
<!-- Node23&#45;&gt;Node10 -->
<g id="edge40" class="edge"><title>Node23&#45;&gt;Node10</title>
<path fill="none" stroke="midnightblue" d="M846.764,-174.988C825.483,-166.172 792.627,-152.055 765,-138 747.606,-129.151 744.454,-124.729 727,-116 702.341,-103.668 673.585,-91.5242 651.948,-82.8131"/>
<polygon fill="midnightblue" stroke="midnightblue" points="653.132,-79.5176 642.547,-79.064 650.539,-86.0196 653.132,-79.5176"/>
</g>
<!-- Node23&#45;&gt;Node21 -->
<g id="edge41" class="edge"><title>Node23&#45;&gt;Node21</title>
<path fill="none" stroke="midnightblue" d="M865.367,-174.753C862.356,-167.087 857.981,-155.952 854.256,-146.471"/>
<polygon fill="midnightblue" stroke="midnightblue" points="857.479,-145.103 850.565,-137.075 850.964,-147.663 857.479,-145.103"/>
</g>
<!-- Node24 -->
<g id="node25" class="node"><title>Node24</title>
<g id="a_node25"><a xlink:href="AP__HAL__Macros_8h.html" target="_top" xlink:title=" ">
<polygon fill="white" stroke="black" points="938.48,-117 938.48,-137 1039.52,-137 1039.52,-117 938.48,-117"/>
<text text-anchor="middle" x="989" y="-123" font-family="Helvetica,sans-Serif" font-size="10.00">AP_HAL_Macros.h</text>
</a>
</g>
</g>
<!-- Node23&#45;&gt;Node24 -->
<g id="edge42" class="edge"><title>Node23&#45;&gt;Node24</title>
<path fill="none" stroke="midnightblue" d="M888.547,-174.878C907.985,-165.807 938.027,-151.788 960.196,-141.442"/>
<polygon fill="midnightblue" stroke="midnightblue" points="961.879,-144.519 969.461,-137.118 958.919,-138.175 961.879,-144.519"/>
</g>
<!-- Node25 -->
<g id="node26" class="node"><title>Node25</title>
<g id="a_node26"><a xlink:href="AP__HAL__Boards_8h.html" target="_top" xlink:title=" ">
<polygon fill="white" stroke="black" points="918.463,-59 918.463,-79 1059.54,-79 1059.54,-59 918.463,-59"/>
<text text-anchor="middle" x="989" y="-65" font-family="Helvetica,sans-Serif" font-size="10.00">AP_HAL/AP_HAL_Boards.h</text>
</a>
</g>
</g>
<!-- Node24&#45;&gt;Node25 -->
<g id="edge43" class="edge"><title>Node24&#45;&gt;Node25</title>
<path fill="none" stroke="midnightblue" d="M989,-116.753C989,-109.25 989,-98.4238 989,-89.0781"/>
<polygon fill="midnightblue" stroke="midnightblue" points="992.5,-89.0752 989,-79.0752 985.5,-89.0752 992.5,-89.0752"/>
</g>
</g>
</svg>
