<?xml version="1.0" encoding="UTF-8" standalone="no"?>
<!DOCTYPE svg PUBLIC "-//W3C//DTD SVG 1.1//EN"
 "http://www.w3.org/Graphics/SVG/1.1/DTD/svg11.dtd">
<!-- Generated by graphviz version 2.30.1 (20130221.2233)
 -->
<!-- Title: Graphical Class Hierarchy Pages: 1 -->
<svg width="296pt" height="91pt"
 viewBox="0.00 0.00 296.00 91.00" xmlns="http://www.w3.org/2000/svg" xmlns:xlink="http://www.w3.org/1999/xlink">
<g id="graph0" class="graph" transform="scale(1 1) rotate(0) translate(4 87)">
<title>Graphical Class Hierarchy</title>
<polygon fill="white" stroke="white" points="-4,5 -4,-87 293,-87 293,5 -4,5"/>
<!-- Node0 -->
<g id="node1" class="node"><title>Node0</title>
<g id="a_node1"><a xlink:href="classAP__AK09916__BusDriver.html" target="_top" xlink:title=" ">
<polygon fill="white" stroke="black" points="0.246582,-31 0.246582,-51 125.753,-51 125.753,-31 0.246582,-31"/>
<text text-anchor="middle" x="63" y="-37" font-family="Helvetica,sans-Serif" font-size="10.00">AP_AK09916_BusDriver</text>
</a>
</g>
</g>
<!-- Node1 -->
<g id="node2" class="node"><title>Node1</title>
<g id="a_node2"><a xlink:href="classAP__AK09916__BusDriver__Auxiliary.html" target="_top" xlink:title=" ">
<polygon fill="white" stroke="black" points="162.247,-51 162.247,-83 287.753,-83 287.753,-51 162.247,-51"/>
<text text-anchor="start" x="170.247" y="-69" font-family="Helvetica,sans-Serif" font-size="10.00">AP_AK09916_BusDriver</text>
<text text-anchor="middle" x="225" y="-57" font-family="Helvetica,sans-Serif" font-size="10.00">_Auxiliary</text>
</a>
</g>
</g>
<!-- Node0&#45;&gt;Node1 -->
<g id="edge1" class="edge"><title>Node0&#45;&gt;Node1</title>
<path fill="none" stroke="midnightblue" d="M135.985,-52.6976C144.682,-54.1108 153.506,-55.5447 162.041,-56.9316"/>
<polygon fill="midnightblue" stroke="midnightblue" points="136.292,-49.2016 125.86,-51.0523 135.169,-56.111 136.292,-49.2016"/>
</g>
<!-- Node2 -->
<g id="node3" class="node"><title>Node2</title>
<g id="a_node3"><a xlink:href="classAP__AK09916__BusDriver__HALDevice.html" target="_top" xlink:title=" ">
<polygon fill="white" stroke="black" points="162.247,-0 162.247,-32 287.753,-32 287.753,-0 162.247,-0"/>
<text text-anchor="start" x="170.247" y="-18" font-family="Helvetica,sans-Serif" font-size="10.00">AP_AK09916_BusDriver</text>
<text text-anchor="middle" x="225" y="-6" font-family="Helvetica,sans-Serif" font-size="10.00">_HALDevice</text>
</a>
</g>
</g>
<!-- Node0&#45;&gt;Node2 -->
<g id="edge2" class="edge"><title>Node0&#45;&gt;Node2</title>
<path fill="none" stroke="midnightblue" d="M135.985,-29.7523C144.682,-28.3935 153.506,-27.0147 162.041,-25.6812"/>
<polygon fill="midnightblue" stroke="midnightblue" points="135.2,-26.3325 125.86,-31.3343 136.281,-33.2485 135.2,-26.3325"/>
</g>
</g>
</svg>
