<?xml version="1.0" encoding="UTF-8" standalone="no"?>
<!DOCTYPE svg PUBLIC "-//W3C//DTD SVG 1.1//EN"
 "http://www.w3.org/Graphics/SVG/1.1/DTD/svg11.dtd">
<!-- Generated by graphviz version 2.30.1 (20130221.2233)
 -->
<!-- Title: Graphical Class Hierarchy Pages: 1 -->
<svg width="228pt" height="67pt"
 viewBox="0.00 0.00 228.00 67.00" xmlns="http://www.w3.org/2000/svg" xmlns:xlink="http://www.w3.org/1999/xlink">
<g id="graph0" class="graph" transform="scale(1 1) rotate(0) translate(4 63)">
<title>Graphical Class Hierarchy</title>
<polygon fill="white" stroke="white" points="-4,5 -4,-63 225,-63 225,5 -4,5"/>
<!-- Node886 -->
<g id="node1" class="node"><title>Node886</title>
<g id="a_node1"><a xlink:title=" ">
<polygon fill="white" stroke="#bfbfbf" points="0.709473,-39 0.709473,-59 77.2905,-59 77.2905,-39 0.709473,-39"/>
<text text-anchor="middle" x="39" y="-45" font-family="Helvetica,sans-Serif" font-size="10.00">CANManager</text>
</a>
</g>
</g>
<!-- Node0 -->
<g id="node2" class="node"><title>Node0</title>
<g id="a_node2"><a xlink:href="classLinux_1_1CANManager.html" target="_top" xlink:title=" ">
<polygon fill="white" stroke="black" points="113.978,-19 113.978,-39 220.022,-39 220.022,-19 113.978,-19"/>
<text text-anchor="middle" x="167" y="-25" font-family="Helvetica,sans-Serif" font-size="10.00">Linux::CANManager</text>
</a>
</g>
</g>
<!-- Node886&#45;&gt;Node0 -->
<g id="edge1" class="edge"><title>Node886&#45;&gt;Node0</title>
<path fill="none" stroke="midnightblue" d="M87.5634,-41.4503C96.0423,-40.1044 104.919,-38.6954 113.525,-37.3293"/>
<polygon fill="midnightblue" stroke="midnightblue" points="86.7907,-38.029 77.463,-43.0535 87.8881,-44.9425 86.7907,-38.029"/>
</g>
<!-- Node687 -->
<g id="node3" class="node"><title>Node687</title>
<g id="a_node3"><a xlink:title=" ">
<polygon fill="white" stroke="#bfbfbf" points="7.10596,-0 7.10596,-20 70.894,-20 70.894,-0 7.10596,-0"/>
<text text-anchor="middle" x="39" y="-6" font-family="Helvetica,sans-Serif" font-size="10.00">ICanDriver</text>
</a>
</g>
</g>
<!-- Node687&#45;&gt;Node0 -->
<g id="edge2" class="edge"><title>Node687&#45;&gt;Node0</title>
<path fill="none" stroke="midnightblue" d="M81.1645,-16.2073C91.5323,-17.7708 102.801,-19.4699 113.637,-21.1039"/>
<polygon fill="midnightblue" stroke="midnightblue" points="81.5562,-12.7269 71.1461,-14.6966 80.5124,-19.6487 81.5562,-12.7269"/>
</g>
</g>
</svg>
