<?xml version="1.0" encoding="UTF-8" standalone="no"?>
<!DOCTYPE svg PUBLIC "-//W3C//DTD SVG 1.1//EN"
 "http://www.w3.org/Graphics/SVG/1.1/DTD/svg11.dtd">
<!-- Generated by graphviz version 2.30.1 (20130221.2233)
 -->
<!-- Title: Graphical Class Hierarchy Pages: 1 -->
<svg width="272pt" height="118pt"
 viewBox="0.00 0.00 272.00 118.00" xmlns="http://www.w3.org/2000/svg" xmlns:xlink="http://www.w3.org/1999/xlink">
<g id="graph0" class="graph" transform="scale(1 1) rotate(0) translate(4 114)">
<title>Graphical Class Hierarchy</title>
<polygon fill="white" stroke="white" points="-4,5 -4,-114 269,-114 269,5 -4,5"/>
<!-- Node0 -->
<g id="node1" class="node"><title>Node0</title>
<g id="a_node1"><a xlink:href="classAC__AttitudeControl.html" target="_top" xlink:title=" ">
<polygon fill="white" stroke="black" points="0.199707,-45 0.199707,-65 101.8,-65 101.8,-45 0.199707,-45"/>
<text text-anchor="middle" x="51" y="-51" font-family="Helvetica,sans-Serif" font-size="10.00">AC_AttitudeControl</text>
</a>
</g>
</g>
<!-- Node1 -->
<g id="node2" class="node"><title>Node1</title>
<g id="a_node2"><a xlink:href="classAC__AttitudeControl__Heli.html" target="_top" xlink:title=" ">
<polygon fill="white" stroke="black" points="138.806,-90 138.806,-110 263.194,-110 263.194,-90 138.806,-90"/>
<text text-anchor="middle" x="201" y="-96" font-family="Helvetica,sans-Serif" font-size="10.00">AC_AttitudeControl_Heli</text>
</a>
</g>
</g>
<!-- Node0&#45;&gt;Node1 -->
<g id="edge1" class="edge"><title>Node0&#45;&gt;Node1</title>
<path fill="none" stroke="midnightblue" d="M95.0313,-68.0838C117.943,-75.0502 145.687,-83.4859 166.897,-89.9348"/>
<polygon fill="midnightblue" stroke="midnightblue" points="95.7998,-64.6594 85.2141,-65.0989 93.7634,-71.3566 95.7998,-64.6594"/>
</g>
<!-- Node2 -->
<g id="node3" class="node"><title>Node2</title>
<g id="a_node3"><a xlink:href="classAC__AttitudeControl__Multi.html" target="_top" xlink:title=" ">
<polygon fill="white" stroke="black" points="150.2,-39 150.2,-71 251.8,-71 251.8,-39 150.2,-39"/>
<text text-anchor="start" x="158.2" y="-57" font-family="Helvetica,sans-Serif" font-size="10.00">AC_AttitudeControl</text>
<text text-anchor="middle" x="201" y="-45" font-family="Helvetica,sans-Serif" font-size="10.00">_Multi</text>
</a>
</g>
</g>
<!-- Node0&#45;&gt;Node2 -->
<g id="edge2" class="edge"><title>Node0&#45;&gt;Node2</title>
<path fill="none" stroke="midnightblue" d="M112.479,-55C125.018,-55 138.093,-55 150.197,-55"/>
<polygon fill="midnightblue" stroke="midnightblue" points="112.106,-51.5001 102.106,-55 112.106,-58.5001 112.106,-51.5001"/>
</g>
<!-- Node3 -->
<g id="node4" class="node"><title>Node3</title>
<g id="a_node4"><a xlink:href="classAC__AttitudeControl__Sub.html" target="_top" xlink:title=" ">
<polygon fill="white" stroke="black" points="138.522,-0 138.522,-20 263.478,-20 263.478,-0 138.522,-0"/>
<text text-anchor="middle" x="201" y="-6" font-family="Helvetica,sans-Serif" font-size="10.00">AC_AttitudeControl_Sub</text>
</a>
</g>
</g>
<!-- Node0&#45;&gt;Node3 -->
<g id="edge3" class="edge"><title>Node0&#45;&gt;Node3</title>
<path fill="none" stroke="midnightblue" d="M95.0313,-41.9162C117.943,-34.9498 145.687,-26.5141 166.897,-20.0652"/>
<polygon fill="midnightblue" stroke="midnightblue" points="93.7634,-38.6434 85.2141,-44.9011 95.7998,-45.3406 93.7634,-38.6434"/>
</g>
</g>
</svg>
