<?xml version="1.0" encoding="UTF-8" standalone="no"?>
<!DOCTYPE svg PUBLIC "-//W3C//DTD SVG 1.1//EN"
 "http://www.w3.org/Graphics/SVG/1.1/DTD/svg11.dtd">
<!-- Generated by graphviz version 2.30.1 (20130221.2233)
 -->
<!-- Title: db_getuservalue Pages: 1 -->
<svg width="328pt" height="106pt"
 viewBox="0.00 0.00 328.00 106.00" xmlns="http://www.w3.org/2000/svg" xmlns:xlink="http://www.w3.org/1999/xlink">
<g id="graph0" class="graph" transform="scale(1 1) rotate(0) translate(4 102)">
<title>db_getuservalue</title>
<polygon fill="white" stroke="white" points="-4,5 -4,-102 325,-102 325,5 -4,5"/>
<!-- Node1656 -->
<g id="node1" class="node"><title>Node1656</title>
<g id="a_node1"><a xlink:title=" ">
<polygon fill="#bfbfbf" stroke="black" points="0.0273438,-39 0.0273438,-59 89.9727,-59 89.9727,-39 0.0273438,-39"/>
<text text-anchor="middle" x="45" y="-45" font-family="Helvetica,sans-Serif" font-size="10.00">db_getuservalue</text>
</a>
</g>
</g>
<!-- Node1657 -->
<g id="node2" class="node"><title>Node1657</title>
<g id="a_node2"><a xlink:href="lapi_8c.html#a652b273947f0656686f998d8e90cd3ea" target="_top" xlink:title=" ">
<polygon fill="white" stroke="black" points="145.096,-78 145.096,-98 198.904,-98 198.904,-78 145.096,-78"/>
<text text-anchor="middle" x="172" y="-84" font-family="Helvetica,sans-Serif" font-size="10.00">lua_type</text>
</a>
</g>
</g>
<!-- Node1656&#45;&gt;Node1657 -->
<g id="edge1" class="edge"><title>Node1656&#45;&gt;Node1657</title>
<path fill="none" stroke="midnightblue" d="M78.1906,-59.0435C95.6465,-64.4897 117.264,-71.2345 135.243,-76.8439"/>
<polygon fill="midnightblue" stroke="midnightblue" points="134.219,-80.1907 144.808,-79.828 136.304,-73.5084 134.219,-80.1907"/>
</g>
<!-- Node1659 -->
<g id="node4" class="node"><title>Node1659</title>
<g id="a_node4"><a xlink:href="lapi_8c.html#a1b4cd0d80f51e5545a97ca6c28c03c50" target="_top" xlink:title=" ">
<polygon fill="white" stroke="black" points="138.702,-39 138.702,-59 205.298,-59 205.298,-39 138.702,-39"/>
<text text-anchor="middle" x="172" y="-45" font-family="Helvetica,sans-Serif" font-size="10.00">lua_pushnil</text>
</a>
</g>
</g>
<!-- Node1656&#45;&gt;Node1659 -->
<g id="edge3" class="edge"><title>Node1656&#45;&gt;Node1659</title>
<path fill="none" stroke="midnightblue" d="M90.0703,-49C102.481,-49 115.956,-49 128.286,-49"/>
<polygon fill="midnightblue" stroke="midnightblue" points="128.325,-52.5001 138.325,-49 128.325,-45.5001 128.325,-52.5001"/>
</g>
<!-- Node1660 -->
<g id="node5" class="node"><title>Node1660</title>
<g id="a_node5"><a xlink:href="lapi_8c.html#a3d6e1ea268544ab50d844f4b44a463d6" target="_top" xlink:title=" ">
<polygon fill="white" stroke="black" points="125.917,-0 125.917,-20 218.083,-20 218.083,-0 125.917,-0"/>
<text text-anchor="middle" x="172" y="-6" font-family="Helvetica,sans-Serif" font-size="10.00">lua_getuservalue</text>
</a>
</g>
</g>
<!-- Node1656&#45;&gt;Node1660 -->
<g id="edge4" class="edge"><title>Node1656&#45;&gt;Node1660</title>
<path fill="none" stroke="midnightblue" d="M78.1906,-38.9565C93.6459,-34.1345 112.364,-28.2945 128.93,-23.1258"/>
<polygon fill="midnightblue" stroke="midnightblue" points="130.415,-26.3291 138.918,-20.0094 128.33,-19.6467 130.415,-26.3291"/>
</g>
<!-- Node1658 -->
<g id="node3" class="node"><title>Node1658</title>
<g id="a_node3"><a xlink:href="lapi_8c.html#ae54b9bb381b32c86235a084984e40215" target="_top" xlink:title=" ">
<polygon fill="white" stroke="black" points="254.259,-39 254.259,-59 319.741,-59 319.741,-39 254.259,-39"/>
<text text-anchor="middle" x="287" y="-45" font-family="Helvetica,sans-Serif" font-size="10.00">index2addr</text>
</a>
</g>
</g>
<!-- Node1657&#45;&gt;Node1658 -->
<g id="edge2" class="edge"><title>Node1657&#45;&gt;Node1658</title>
<path fill="none" stroke="midnightblue" d="M198.924,-79.0526C213.278,-74.0988 231.398,-67.8448 247.388,-62.3263"/>
<polygon fill="midnightblue" stroke="midnightblue" points="248.705,-65.5745 257.015,-59.0035 246.421,-58.9576 248.705,-65.5745"/>
</g>
<!-- Node1660&#45;&gt;Node1658 -->
<g id="edge5" class="edge"><title>Node1660&#45;&gt;Node1658</title>
<path fill="none" stroke="midnightblue" d="M202.1,-20.0435C215.94,-24.82 232.674,-30.5954 247.544,-35.7277"/>
<polygon fill="midnightblue" stroke="midnightblue" points="246.404,-39.0365 256.998,-38.9906 248.687,-32.4195 246.404,-39.0365"/>
</g>
</g>
</svg>
