<?xml version="1.0" encoding="UTF-8" standalone="no"?>
<!DOCTYPE svg PUBLIC "-//W3C//DTD SVG 1.1//EN"
 "http://www.w3.org/Graphics/SVG/1.1/DTD/svg11.dtd">
<!-- Generated by graphviz version 2.30.1 (20130221.2233)
 -->
<!-- Title: libraries/AP_Scripting/lua/src/ldebug.c Pages: 1 -->
<!--zoomable 564 -->
<svg id="main" version="1.1" xmlns="http://www.w3.org/2000/svg" xmlns:xlink="http://www.w3.org/1999/xlink" xml:space="preserve" onload="init(evt)">
<style type="text/css"><![CDATA[
.edge:hover path { stroke: red; }
.edge:hover polygon { stroke: red; fill: red; }
]]></style>
<script type="text/javascript"><![CDATA[
var edges = document.getElementsByTagName('g');
if (edges && edges.length) {
  for (var i=0;i<edges.length;i++) {
    if (edges[i].id.substr(0,4)=='edge') {
      edges[i].setAttribute('class','edge');
    }
  }
}
]]></script>
        <defs>
                <circle id="rim" cx="0" cy="0" r="7"/>
                <circle id="rim2" cx="0" cy="0" r="3.5"/>
                <g id="zoomPlus">
                        <use xlink:href="#rim" fill="#404040">
                                <set attributeName="fill" to="#808080" begin="zoomplus.mouseover" end="zoomplus.mouseout"/>
                        </use>
                        <path d="M-4,0h8M0,-4v8" fill="none" stroke="white" stroke-width="1.5" pointer-events="none"/>
                </g>
                <g id="zoomMin">
                        <use xlink:href="#rim" fill="#404040">
                                <set attributeName="fill" to="#808080" begin="zoomminus.mouseover" end="zoomminus.mouseout"/>
                        </use>
                        <path d="M-4,0h8" fill="none" stroke="white" stroke-width="1.5" pointer-events="none"/>
                </g>
                <g id="dirArrow">
                        <path fill="none" stroke="white" stroke-width="1.5" d="M0,-3.0v7 M-2.5,-0.5L0,-3.0L2.5,-0.5"/>
                </g>
               <g id="resetDef">
                       <use xlink:href="#rim2" fill="#404040">
                               <set attributeName="fill" to="#808080" begin="reset.mouseover" end="reset.mouseout"/>
                       </use>
               </g>
        </defs>

<script type="text/javascript">
var viewWidth = 1047;
var viewHeight = 564;
var sectionId = 'dynsection-0';
</script>
<script xlink:href="svgpan.js"/>
<svg id="graph" class="graph">
<g id="viewport">
<title>libraries/AP_Scripting/lua/src/ldebug.c</title>
<polygon fill="white" stroke="white" points="-4,5 -4,-560 1044,-560 1044,5 -4,5"/>
<!-- Node0 -->
<g id="node1" class="node"><title>Node0</title>
<g id="a_node1"><a xlink:title=" ">
<polygon fill="#bfbfbf" stroke="black" points="420.202,-523 420.202,-555 531.798,-555 531.798,-523 420.202,-523"/>
<text text-anchor="start" x="428.202" y="-541" font-family="Helvetica,sans-Serif" font-size="10.00">libraries/AP_Scripting</text>
<text text-anchor="middle" x="476" y="-529" font-family="Helvetica,sans-Serif" font-size="10.00">/lua/src/ldebug.c</text>
</a>
</g>
</g>
<!-- Node1 -->
<g id="node2" class="node"><title>Node1</title>
<g id="a_node2"><a xlink:href="lprefix_8h.html" target="_top" xlink:title=" ">
<polygon fill="white" stroke="black" points="-0.507324,-465 -0.507324,-485 50.5073,-485 50.5073,-465 -0.507324,-465"/>
<text text-anchor="middle" x="25" y="-471" font-family="Helvetica,sans-Serif" font-size="10.00">lprefix.h</text>
</a>
</g>
</g>
<!-- Node0&#45;&gt;Node1 -->
<g id="edge1" class="edge"><title>Node0&#45;&gt;Node1</title>
<path fill="none" stroke="midnightblue" d="M420.164,-533.064C340.799,-525.567 191.005,-509.635 65,-486 63.5489,-485.728 62.072,-485.435 60.5829,-485.125"/>
<polygon fill="midnightblue" stroke="midnightblue" points="61.2455,-481.687 50.7214,-482.909 59.7107,-488.517 61.2455,-481.687"/>
</g>
<!-- Node2 -->
<g id="node3" class="node"><title>Node2</title>
<g id="a_node3"><a xlink:title=" ">
<polygon fill="white" stroke="#bfbfbf" points="679.934,-59 679.934,-79 732.066,-79 732.066,-59 679.934,-59"/>
<text text-anchor="middle" x="706" y="-65" font-family="Helvetica,sans-Serif" font-size="10.00">stdarg.h</text>
</a>
</g>
</g>
<!-- Node0&#45;&gt;Node2 -->
<g id="edge2" class="edge"><title>Node0&#45;&gt;Node2</title>
<path fill="none" stroke="midnightblue" d="M531.817,-536.416C597.649,-532.889 709.337,-521.64 798,-486 868.021,-457.853 899.563,-442.054 922,-370 949.637,-281.247 913.509,-240.93 849,-174 812.512,-136.142 760.835,-102.388 730.629,-84.1926"/>
<polygon fill="midnightblue" stroke="midnightblue" points="732.369,-81.1556 721.984,-79.0581 728.795,-87.1741 732.369,-81.1556"/>
</g>
<!-- Node3 -->
<g id="node4" class="node"><title>Node3</title>
<g id="a_node4"><a xlink:title=" ">
<polygon fill="white" stroke="#bfbfbf" points="608.209,-1 608.209,-21 659.791,-21 659.791,-1 608.209,-1"/>
<text text-anchor="middle" x="634" y="-7" font-family="Helvetica,sans-Serif" font-size="10.00">stddef.h</text>
</a>
</g>
</g>
<!-- Node0&#45;&gt;Node3 -->
<g id="edge3" class="edge"><title>Node0&#45;&gt;Node3</title>
<path fill="none" stroke="midnightblue" d="M419.993,-533.984C337.069,-527.269 186.33,-511.884 139,-486 103.638,-466.661 79,-458.305 79,-418 79,-418 79,-418 79,-126 79,-19.6672 474.84,-11.6285 597.925,-11.6991"/>
<polygon fill="midnightblue" stroke="midnightblue" points="597.967,-15.1992 607.976,-11.7238 597.984,-8.19918 597.967,-15.1992"/>
</g>
<!-- Node4 -->
<g id="node5" class="node"><title>Node4</title>
<g id="a_node5"><a xlink:title=" ">
<polygon fill="white" stroke="#bfbfbf" points="990.604,-465 990.604,-485 1039.4,-485 1039.4,-465 990.604,-465"/>
<text text-anchor="middle" x="1015" y="-471" font-family="Helvetica,sans-Serif" font-size="10.00">string.h</text>
</a>
</g>
</g>
<!-- Node0&#45;&gt;Node4 -->
<g id="edge4" class="edge"><title>Node0&#45;&gt;Node4</title>
<path fill="none" stroke="midnightblue" d="M532,-535.007C625.019,-529.408 816.988,-515.179 977,-486 978.246,-485.773 979.511,-485.526 980.785,-485.264"/>
<polygon fill="midnightblue" stroke="midnightblue" points="981.63,-488.661 990.595,-483.014 980.065,-481.838 981.63,-488.661"/>
</g>
<!-- Node5 -->
<g id="node6" class="node"><title>Node5</title>
<g id="a_node6"><a xlink:href="lua_8h.html" target="_top" xlink:title=" ">
<polygon fill="white" stroke="black" points="565.158,-117 565.158,-137 602.842,-137 602.842,-117 565.158,-117"/>
<text text-anchor="middle" x="584" y="-123" font-family="Helvetica,sans-Serif" font-size="10.00">lua.h</text>
</a>
</g>
</g>
<!-- Node0&#45;&gt;Node5 -->
<g id="edge5" class="edge"><title>Node0&#45;&gt;Node5</title>
<path fill="none" stroke="midnightblue" d="M420.074,-538.119C358.551,-536.046 258.408,-526.027 183,-486 145.799,-466.254 117,-460.117 117,-418 117,-418 117,-418 117,-242 117,-151.412 452.827,-132.483 554.914,-128.822"/>
<polygon fill="midnightblue" stroke="midnightblue" points="555.238,-132.313 565.115,-128.48 555.003,-125.317 555.238,-132.313"/>
</g>
<!-- Node8 -->
<g id="node9" class="node"><title>Node8</title>
<g id="a_node9"><a xlink:href="lapi_8h.html" target="_top" xlink:title=" ">
<polygon fill="white" stroke="black" points="627.047,-407 627.047,-427 666.953,-427 666.953,-407 627.047,-407"/>
<text text-anchor="middle" x="647" y="-413" font-family="Helvetica,sans-Serif" font-size="10.00">lapi.h</text>
</a>
</g>
</g>
<!-- Node0&#45;&gt;Node8 -->
<g id="edge11" class="edge"><title>Node0&#45;&gt;Node8</title>
<path fill="none" stroke="midnightblue" d="M528.856,-522.944C552.008,-514.598 578.507,-502.506 599,-486 615.986,-472.318 629.629,-451.131 637.965,-436.046"/>
<polygon fill="midnightblue" stroke="midnightblue" points="641.086,-437.631 642.659,-427.153 634.896,-434.363 641.086,-437.631"/>
</g>
<!-- Node16 -->
<g id="node17" class="node"><title>Node16</title>
<g id="a_node17"><a xlink:href="lcode_8h.html" target="_top" xlink:title=" ">
<polygon fill="white" stroke="black" points="684.877,-407 684.877,-427 733.123,-427 733.123,-407 684.877,-407"/>
<text text-anchor="middle" x="709" y="-413" font-family="Helvetica,sans-Serif" font-size="10.00">lcode.h</text>
</a>
</g>
</g>
<!-- Node0&#45;&gt;Node16 -->
<g id="edge31" class="edge"><title>Node0&#45;&gt;Node16</title>
<path fill="none" stroke="midnightblue" d="M531.952,-522.97C560.202,-514.213 594.444,-501.768 623,-486 649.108,-471.583 675.474,-449.34 692.001,-434.252"/>
<polygon fill="midnightblue" stroke="midnightblue" points="694.758,-436.468 699.694,-427.094 689.989,-431.344 694.758,-436.468"/>
</g>
<!-- Node20 -->
<g id="node21" class="node"><title>Node20</title>
<g id="a_node21"><a xlink:href="ldebug_8h.html" target="_top" xlink:title=" ">
<polygon fill="white" stroke="black" points="349.815,-465 349.815,-485 404.185,-485 404.185,-465 349.815,-465"/>
<text text-anchor="middle" x="377" y="-471" font-family="Helvetica,sans-Serif" font-size="10.00">ldebug.h</text>
</a>
</g>
</g>
<!-- Node0&#45;&gt;Node20 -->
<g id="edge42" class="edge"><title>Node0&#45;&gt;Node20</title>
<path fill="none" stroke="midnightblue" d="M452.035,-522.992C436.249,-513.105 415.691,-500.231 400.087,-490.458"/>
<polygon fill="midnightblue" stroke="midnightblue" points="401.878,-487.45 391.545,-485.109 398.162,-493.383 401.878,-487.45"/>
</g>
<!-- Node21 -->
<g id="node22" class="node"><title>Node21</title>
<g id="a_node22"><a xlink:href="ldo_8h.html" target="_top" xlink:title=" ">
<polygon fill="white" stroke="black" points="457.158,-407 457.158,-427 494.842,-427 494.842,-407 457.158,-407"/>
<text text-anchor="middle" x="476" y="-413" font-family="Helvetica,sans-Serif" font-size="10.00">ldo.h</text>
</a>
</g>
</g>
<!-- Node0&#45;&gt;Node21 -->
<g id="edge44" class="edge"><title>Node0&#45;&gt;Node21</title>
<path fill="none" stroke="midnightblue" d="M476,-522.802C476,-501.123 476,-461.313 476,-437.49"/>
<polygon fill="midnightblue" stroke="midnightblue" points="479.5,-437.229 476,-427.229 472.5,-437.229 479.5,-437.229"/>
</g>
<!-- Node22 -->
<g id="node23" class="node"><title>Node22</title>
<g id="a_node23"><a xlink:href="lfunc_8h.html" target="_top" xlink:title=" ">
<polygon fill="white" stroke="black" points="745.269,-291 745.269,-311 790.731,-311 790.731,-291 745.269,-291"/>
<text text-anchor="middle" x="768" y="-297" font-family="Helvetica,sans-Serif" font-size="10.00">lfunc.h</text>
</a>
</g>
</g>
<!-- Node0&#45;&gt;Node22 -->
<g id="edge48" class="edge"><title>Node0&#45;&gt;Node22</title>
<path fill="none" stroke="midnightblue" d="M532.141,-536.237C629.753,-529.698 827.796,-500.199 906,-370 931.241,-327.978 849.36,-311.258 800.981,-305.16"/>
<polygon fill="midnightblue" stroke="midnightblue" points="801.268,-301.67 790.928,-303.983 800.454,-308.622 801.268,-301.67"/>
</g>
<!-- Node11 -->
<g id="node12" class="node"><title>Node11</title>
<g id="a_node12"><a xlink:href="lobject_8h.html" target="_top" xlink:title=" ">
<polygon fill="white" stroke="black" points="518.377,-233 518.377,-253 571.623,-253 571.623,-233 518.377,-233"/>
<text text-anchor="middle" x="545" y="-239" font-family="Helvetica,sans-Serif" font-size="10.00">lobject.h</text>
</a>
</g>
</g>
<!-- Node0&#45;&gt;Node11 -->
<g id="edge50" class="edge"><title>Node0&#45;&gt;Node11</title>
<path fill="none" stroke="midnightblue" d="M420.011,-531.505C365.79,-523.927 289.178,-509.365 271,-486 233.239,-437.465 264.411,-407.214 281,-348 288.526,-321.137 283.376,-307.627 305,-290 335.634,-265.029 448.799,-252.04 508.14,-246.819"/>
<polygon fill="midnightblue" stroke="midnightblue" points="508.55,-250.297 518.217,-245.962 507.956,-243.322 508.55,-250.297"/>
</g>
<!-- Node18 -->
<g id="node19" class="node"><title>Node18</title>
<g id="a_node19"><a xlink:href="lopcodes_8h.html" target="_top" xlink:title=" ">
<polygon fill="white" stroke="black" points="832.815,-349 832.815,-369 897.185,-369 897.185,-349 832.815,-349"/>
<text text-anchor="middle" x="865" y="-355" font-family="Helvetica,sans-Serif" font-size="10.00">lopcodes.h</text>
</a>
</g>
</g>
<!-- Node0&#45;&gt;Node18 -->
<g id="edge51" class="edge"><title>Node0&#45;&gt;Node18</title>
<path fill="none" stroke="midnightblue" d="M531.874,-525.409C567.353,-516.49 613.804,-503.082 653,-486 726.814,-453.83 806.587,-400.928 843.729,-375.115"/>
<polygon fill="midnightblue" stroke="midnightblue" points="846.041,-377.769 852.223,-369.165 842.025,-372.035 846.041,-377.769"/>
</g>
<!-- Node10 -->
<g id="node11" class="node"><title>Node10</title>
<g id="a_node11"><a xlink:href="lstate_8h.html" target="_top" xlink:title=" ">
<polygon fill="white" stroke="black" points="370.879,-349 370.879,-369 419.121,-369 419.121,-349 370.879,-349"/>
<text text-anchor="middle" x="395" y="-355" font-family="Helvetica,sans-Serif" font-size="10.00">lstate.h</text>
</a>
</g>
</g>
<!-- Node0&#45;&gt;Node10 -->
<g id="edge52" class="edge"><title>Node0&#45;&gt;Node10</title>
<path fill="none" stroke="midnightblue" d="M469.094,-522.824C454.26,-490.226 419.402,-413.625 403.355,-378.36"/>
<polygon fill="midnightblue" stroke="midnightblue" points="406.517,-376.859 399.19,-369.207 400.146,-379.758 406.517,-376.859"/>
</g>
<!-- Node23 -->
<g id="node24" class="node"><title>Node23</title>
<g id="a_node24"><a xlink:href="lstring_8h.html" target="_top" xlink:title=" ">
<polygon fill="white" stroke="black" points="280.493,-465 280.493,-485 331.507,-485 331.507,-465 280.493,-465"/>
<text text-anchor="middle" x="306" y="-471" font-family="Helvetica,sans-Serif" font-size="10.00">lstring.h</text>
</a>
</g>
</g>
<!-- Node0&#45;&gt;Node23 -->
<g id="edge53" class="edge"><title>Node0&#45;&gt;Node23</title>
<path fill="none" stroke="midnightblue" d="M434.848,-522.992C405.967,-512.459 367.786,-498.534 340.499,-488.582"/>
<polygon fill="midnightblue" stroke="midnightblue" points="341.57,-485.247 330.976,-485.109 339.171,-491.823 341.57,-485.247"/>
</g>
<!-- Node25 -->
<g id="node26" class="node"><title>Node25</title>
<g id="a_node26"><a xlink:href="ltable_8h.html" target="_top" xlink:title=" ">
<polygon fill="white" stroke="black" points="144.877,-407 144.877,-427 193.123,-427 193.123,-407 144.877,-407"/>
<text text-anchor="middle" x="169" y="-413" font-family="Helvetica,sans-Serif" font-size="10.00">ltable.h</text>
</a>
</g>
</g>
<!-- Node0&#45;&gt;Node25 -->
<g id="edge59" class="edge"><title>Node0&#45;&gt;Node25</title>
<path fill="none" stroke="midnightblue" d="M420.02,-532.749C351.466,-525.381 240.341,-510.11 207,-486 190.439,-474.024 180.188,-452.49 174.569,-436.857"/>
<polygon fill="midnightblue" stroke="midnightblue" points="177.834,-435.582 171.398,-427.166 171.181,-437.759 177.834,-435.582"/>
</g>
<!-- Node12 -->
<g id="node13" class="node"><title>Node12</title>
<g id="a_node13"><a xlink:href="ltm_8h.html" target="_top" xlink:title=" ">
<polygon fill="white" stroke="black" points="479.165,-291 479.165,-311 516.835,-311 516.835,-291 479.165,-291"/>
<text text-anchor="middle" x="498" y="-297" font-family="Helvetica,sans-Serif" font-size="10.00">ltm.h</text>
</a>
</g>
</g>
<!-- Node0&#45;&gt;Node12 -->
<g id="edge61" class="edge"><title>Node0&#45;&gt;Node12</title>
<path fill="none" stroke="midnightblue" d="M480.338,-522.572C483.195,-512.249 486.956,-498.345 490,-486 496.324,-460.351 500.093,-454.257 503,-428 507.159,-390.431 503.433,-346.225 500.567,-321.423"/>
<polygon fill="midnightblue" stroke="midnightblue" points="504.004,-320.698 499.305,-311.203 497.057,-321.556 504.004,-320.698"/>
</g>
<!-- Node26 -->
<g id="node27" class="node"><title>Node26</title>
<g id="a_node27"><a xlink:href="lvm_8h.html" target="_top" xlink:title=" ">
<polygon fill="white" stroke="black" points="551.054,-465 551.054,-485 590.946,-485 590.946,-465 551.054,-465"/>
<text text-anchor="middle" x="571" y="-471" font-family="Helvetica,sans-Serif" font-size="10.00">lvm.h</text>
</a>
</g>
</g>
<!-- Node0&#45;&gt;Node26 -->
<g id="edge62" class="edge"><title>Node0&#45;&gt;Node26</title>
<path fill="none" stroke="midnightblue" d="M498.997,-522.992C514.004,-513.198 533.504,-500.471 548.425,-490.733"/>
<polygon fill="midnightblue" stroke="midnightblue" points="550.582,-493.505 557.043,-485.109 546.756,-487.643 550.582,-493.505"/>
</g>
<!-- Node5&#45;&gt;Node2 -->
<g id="edge6" class="edge"><title>Node5&#45;&gt;Node2</title>
<path fill="none" stroke="midnightblue" d="M603.062,-117.25C622.883,-108.152 654.152,-93.7992 677.03,-83.2978"/>
<polygon fill="midnightblue" stroke="midnightblue" points="678.635,-86.4122 686.263,-79.0596 675.715,-80.0504 678.635,-86.4122"/>
</g>
<!-- Node5&#45;&gt;Node3 -->
<g id="edge7" class="edge"><title>Node5&#45;&gt;Node3</title>
<path fill="none" stroke="midnightblue" d="M584.356,-116.771C585.181,-103.278 587.919,-77.6369 597,-58 601.968,-47.2557 609.985,-36.8428 617.288,-28.6494"/>
<polygon fill="midnightblue" stroke="midnightblue" points="619.926,-30.9539 624.214,-21.2658 614.82,-26.1649 619.926,-30.9539"/>
</g>
<!-- Node6 -->
<g id="node7" class="node"><title>Node6</title>
<g id="a_node7"><a xlink:href="luaconf_8h.html" target="_top" xlink:title=" ">
<polygon fill="white" stroke="black" points="605.707,-59 605.707,-79 662.293,-79 662.293,-59 605.707,-59"/>
<text text-anchor="middle" x="634" y="-65" font-family="Helvetica,sans-Serif" font-size="10.00">luaconf.h</text>
</a>
</g>
</g>
<!-- Node5&#45;&gt;Node6 -->
<g id="edge8" class="edge"><title>Node5&#45;&gt;Node6</title>
<path fill="none" stroke="midnightblue" d="M592.256,-116.753C599.537,-108.598 610.325,-96.5158 619.11,-86.6769"/>
<polygon fill="midnightblue" stroke="midnightblue" points="621.848,-88.8657 625.897,-79.0752 616.626,-84.2035 621.848,-88.8657"/>
</g>
<!-- Node7 -->
<g id="node8" class="node"><title>Node7</title>
<g id="a_node8"><a xlink:title=" ">
<polygon fill="white" stroke="#bfbfbf" points="744.443,-1 744.443,-21 791.557,-21 791.557,-1 744.443,-1"/>
<text text-anchor="middle" x="768" y="-7" font-family="Helvetica,sans-Serif" font-size="10.00">limits.h</text>
</a>
</g>
</g>
<!-- Node6&#45;&gt;Node7 -->
<g id="edge9" class="edge"><title>Node6&#45;&gt;Node7</title>
<path fill="none" stroke="midnightblue" d="M655.828,-58.878C677.826,-49.6848 711.984,-35.4095 736.83,-25.0263"/>
<polygon fill="midnightblue" stroke="midnightblue" points="738.305,-28.2034 746.182,-21.1181 735.605,-21.7447 738.305,-28.2034"/>
</g>
<!-- Node6&#45;&gt;Node3 -->
<g id="edge10" class="edge"><title>Node6&#45;&gt;Node3</title>
<path fill="none" stroke="midnightblue" d="M634,-58.7527C634,-51.2504 634,-40.4238 634,-31.0781"/>
<polygon fill="midnightblue" stroke="midnightblue" points="637.5,-31.0752 634,-21.0752 630.5,-31.0752 637.5,-31.0752"/>
</g>
<!-- Node9 -->
<g id="node10" class="node"><title>Node9</title>
<g id="a_node10"><a xlink:href="llimits_8h.html" target="_top" xlink:title=" ">
<polygon fill="white" stroke="black" points="791.333,-175 791.333,-195 840.667,-195 840.667,-175 791.333,-175"/>
<text text-anchor="middle" x="816" y="-181" font-family="Helvetica,sans-Serif" font-size="10.00">llimits.h</text>
</a>
</g>
</g>
<!-- Node8&#45;&gt;Node9 -->
<g id="edge12" class="edge"><title>Node8&#45;&gt;Node9</title>
<path fill="none" stroke="midnightblue" d="M666.954,-409.073C669.982,-408.035 673.072,-406.984 676,-406 724.761,-389.615 746.594,-403.065 786,-370 835.315,-328.621 839.475,-295.674 830,-232 828.65,-222.929 825.881,-213.172 823.159,-204.989"/>
<polygon fill="midnightblue" stroke="midnightblue" points="826.373,-203.581 819.731,-195.327 819.776,-205.921 826.373,-203.581"/>
</g>
<!-- Node8&#45;&gt;Node10 -->
<g id="edge16" class="edge"><title>Node8&#45;&gt;Node10</title>
<path fill="none" stroke="midnightblue" d="M626.804,-411.512C583.772,-401.949 482.637,-379.475 429.304,-367.623"/>
<polygon fill="midnightblue" stroke="midnightblue" points="429.828,-364.154 419.307,-365.401 428.309,-370.988 429.828,-364.154"/>
</g>
<!-- Node9&#45;&gt;Node7 -->
<g id="edge13" class="edge"><title>Node9&#45;&gt;Node7</title>
<path fill="none" stroke="midnightblue" d="M817.825,-174.987C821.71,-153.647 829.113,-98.7635 812,-58 807.087,-46.2976 797.727,-35.8374 788.899,-27.8598"/>
<polygon fill="midnightblue" stroke="midnightblue" points="790.984,-25.0397 781.084,-21.2671 786.471,-30.3903 790.984,-25.0397"/>
</g>
<!-- Node9&#45;&gt;Node3 -->
<g id="edge14" class="edge"><title>Node9&#45;&gt;Node3</title>
<path fill="none" stroke="midnightblue" d="M815.652,-174.961C814.279,-152.087 807.496,-91.3528 774,-58 746.147,-30.2666 701.303,-19.2533 669.893,-14.88"/>
<polygon fill="midnightblue" stroke="midnightblue" points="670.153,-11.3857 659.8,-13.6369 669.297,-18.3332 670.153,-11.3857"/>
</g>
<!-- Node9&#45;&gt;Node5 -->
<g id="edge15" class="edge"><title>Node9&#45;&gt;Node5</title>
<path fill="none" stroke="midnightblue" d="M791.172,-178.007C747.902,-167.563 658.91,-146.082 612.925,-134.982"/>
<polygon fill="midnightblue" stroke="midnightblue" points="613.546,-131.531 603.004,-132.587 611.904,-138.336 613.546,-131.531"/>
</g>
<!-- Node10&#45;&gt;Node5 -->
<g id="edge17" class="edge"><title>Node10&#45;&gt;Node5</title>
<path fill="none" stroke="midnightblue" d="M383.002,-348.939C367.51,-336.07 343.795,-311.652 355,-290 397.807,-207.282 504.462,-157.742 555.677,-137.973"/>
<polygon fill="midnightblue" stroke="midnightblue" points="557.015,-141.209 565.145,-134.416 554.553,-134.657 557.015,-141.209"/>
</g>
<!-- Node10&#45;&gt;Node11 -->
<g id="edge18" class="edge"><title>Node10&#45;&gt;Node11</title>
<path fill="none" stroke="midnightblue" d="M385.093,-348.912C371.288,-335.146 349.504,-308.641 364,-290 381.523,-267.467 460.57,-254.169 508.216,-248.062"/>
<polygon fill="midnightblue" stroke="midnightblue" points="508.666,-251.533 518.161,-246.833 507.807,-244.586 508.666,-251.533"/>
</g>
<!-- Node10&#45;&gt;Node12 -->
<g id="edge22" class="edge"><title>Node10&#45;&gt;Node12</title>
<path fill="none" stroke="midnightblue" d="M412.008,-348.753C428.432,-339.823 453.517,-326.185 472.363,-315.939"/>
<polygon fill="midnightblue" stroke="midnightblue" points="474.194,-318.927 481.308,-311.075 470.851,-312.777 474.194,-318.927"/>
</g>
<!-- Node13 -->
<g id="node14" class="node"><title>Node13</title>
<g id="a_node14"><a xlink:href="lzio_8h.html" target="_top" xlink:title=" ">
<polygon fill="white" stroke="black" points="649.328,-291 649.328,-311 688.672,-311 688.672,-291 649.328,-291"/>
<text text-anchor="middle" x="669" y="-297" font-family="Helvetica,sans-Serif" font-size="10.00">lzio.h</text>
</a>
</g>
</g>
<!-- Node10&#45;&gt;Node13 -->
<g id="edge24" class="edge"><title>Node10&#45;&gt;Node13</title>
<path fill="none" stroke="midnightblue" d="M419.316,-353.03C469.536,-342.766 584.572,-319.255 639.177,-308.095"/>
<polygon fill="midnightblue" stroke="midnightblue" points="640.158,-311.467 649.255,-306.035 638.757,-304.609 640.158,-311.467"/>
</g>
<!-- Node15 -->
<g id="node16" class="node"><title>Node15</title>
<g id="a_node16"><a xlink:title=" ">
<polygon fill="white" stroke="#bfbfbf" points="372.766,-291 372.766,-311 423.234,-311 423.234,-291 372.766,-291"/>
<text text-anchor="middle" x="398" y="-297" font-family="Helvetica,sans-Serif" font-size="10.00">signal.h</text>
</a>
</g>
</g>
<!-- Node10&#45;&gt;Node15 -->
<g id="edge30" class="edge"><title>Node10&#45;&gt;Node15</title>
<path fill="none" stroke="midnightblue" d="M395.495,-348.753C395.897,-341.25 396.477,-330.424 396.978,-321.078"/>
<polygon fill="midnightblue" stroke="midnightblue" points="400.474,-321.248 397.514,-311.075 393.484,-320.874 400.474,-321.248"/>
</g>
<!-- Node11&#45;&gt;Node2 -->
<g id="edge19" class="edge"><title>Node11&#45;&gt;Node2</title>
<path fill="none" stroke="midnightblue" d="M553.656,-232.753C579.536,-205.104 656.6,-122.775 690.126,-86.9584"/>
<polygon fill="midnightblue" stroke="midnightblue" points="693.023,-88.9857 697.301,-79.2932 687.912,-84.2021 693.023,-88.9857"/>
</g>
<!-- Node11&#45;&gt;Node9 -->
<g id="edge20" class="edge"><title>Node11&#45;&gt;Node9</title>
<path fill="none" stroke="midnightblue" d="M571.975,-236.426C621.404,-226.212 726.437,-204.507 781.179,-193.196"/>
<polygon fill="midnightblue" stroke="midnightblue" points="782.023,-196.595 791.108,-191.144 780.606,-189.74 782.023,-196.595"/>
</g>
<!-- Node11&#45;&gt;Node5 -->
<g id="edge21" class="edge"><title>Node11&#45;&gt;Node5</title>
<path fill="none" stroke="midnightblue" d="M548.192,-232.671C554.594,-213.957 569.112,-171.517 577.565,-146.809"/>
<polygon fill="midnightblue" stroke="midnightblue" points="580.948,-147.734 580.873,-137.139 574.325,-145.468 580.948,-147.734"/>
</g>
<!-- Node12&#45;&gt;Node11 -->
<g id="edge23" class="edge"><title>Node12&#45;&gt;Node11</title>
<path fill="none" stroke="midnightblue" d="M505.761,-290.753C512.537,-282.68 522.543,-270.757 530.755,-260.973"/>
<polygon fill="midnightblue" stroke="midnightblue" points="533.635,-262.985 537.383,-253.075 528.274,-258.485 533.635,-262.985"/>
</g>
<!-- Node13&#45;&gt;Node5 -->
<g id="edge25" class="edge"><title>Node13&#45;&gt;Node5</title>
<path fill="none" stroke="midnightblue" d="M664.43,-290.753C650.94,-263.454 611.106,-182.85 593.064,-146.341"/>
<polygon fill="midnightblue" stroke="midnightblue" points="596.161,-144.708 588.593,-137.293 589.885,-147.809 596.161,-144.708"/>
</g>
<!-- Node14 -->
<g id="node15" class="node"><title>Node14</title>
<g id="a_node15"><a xlink:href="lmem_8h.html" target="_top" xlink:title=" ">
<polygon fill="white" stroke="black" points="723.608,-233 723.608,-253 772.392,-253 772.392,-233 723.608,-233"/>
<text text-anchor="middle" x="748" y="-239" font-family="Helvetica,sans-Serif" font-size="10.00">lmem.h</text>
</a>
</g>
</g>
<!-- Node13&#45;&gt;Node14 -->
<g id="edge26" class="edge"><title>Node13&#45;&gt;Node14</title>
<path fill="none" stroke="midnightblue" d="M682.045,-290.753C694.239,-282.109 712.659,-269.052 726.936,-258.931"/>
<polygon fill="midnightblue" stroke="midnightblue" points="729.063,-261.714 735.197,-253.075 725.015,-256.003 729.063,-261.714"/>
</g>
<!-- Node14&#45;&gt;Node3 -->
<g id="edge27" class="edge"><title>Node14&#45;&gt;Node3</title>
<path fill="none" stroke="midnightblue" d="M750.735,-232.922C758.788,-204.24 779.526,-114.144 741,-58 724.983,-34.6585 694.484,-23.0894 670.133,-17.3975"/>
<polygon fill="midnightblue" stroke="midnightblue" points="670.639,-13.9275 660.133,-15.3007 669.202,-20.7785 670.639,-13.9275"/>
</g>
<!-- Node14&#45;&gt;Node9 -->
<g id="edge28" class="edge"><title>Node14&#45;&gt;Node9</title>
<path fill="none" stroke="midnightblue" d="M759.229,-232.753C769.527,-224.272 784.984,-211.543 797.17,-201.507"/>
<polygon fill="midnightblue" stroke="midnightblue" points="799.486,-204.134 804.98,-195.075 795.036,-198.731 799.486,-204.134"/>
</g>
<!-- Node14&#45;&gt;Node5 -->
<g id="edge29" class="edge"><title>Node14&#45;&gt;Node5</title>
<path fill="none" stroke="midnightblue" d="M740.904,-232.577C729.824,-218.374 707.166,-191.306 683,-174 661.151,-158.354 633.133,-145.927 612.483,-137.954"/>
<polygon fill="midnightblue" stroke="midnightblue" points="613.59,-134.631 602.997,-134.403 611.135,-141.187 613.59,-134.631"/>
</g>
<!-- Node17 -->
<g id="node18" class="node"><title>Node17</title>
<g id="a_node18"><a xlink:href="llex_8h.html" target="_top" xlink:title=" ">
<polygon fill="white" stroke="black" points="665.328,-349 665.328,-369 704.672,-369 704.672,-349 665.328,-349"/>
<text text-anchor="middle" x="685" y="-355" font-family="Helvetica,sans-Serif" font-size="10.00">llex.h</text>
</a>
</g>
</g>
<!-- Node16&#45;&gt;Node17 -->
<g id="edge32" class="edge"><title>Node16&#45;&gt;Node17</title>
<path fill="none" stroke="midnightblue" d="M705.037,-406.753C701.752,-399.087 696.979,-387.952 692.916,-378.471"/>
<polygon fill="midnightblue" stroke="midnightblue" points="696.046,-376.888 688.889,-369.075 689.612,-379.645 696.046,-376.888"/>
</g>
<!-- Node16&#45;&gt;Node11 -->
<g id="edge35" class="edge"><title>Node16&#45;&gt;Node11</title>
<path fill="none" stroke="midnightblue" d="M697.838,-406.707C686.972,-397.57 670.084,-383.123 656,-370 629.329,-345.148 622.14,-339.317 598,-312 583.365,-295.439 567.981,-275.36 557.58,-261.331"/>
<polygon fill="midnightblue" stroke="midnightblue" points="560.263,-259.071 551.523,-253.083 554.621,-263.215 560.263,-259.071"/>
</g>
<!-- Node16&#45;&gt;Node18 -->
<g id="edge36" class="edge"><title>Node16&#45;&gt;Node18</title>
<path fill="none" stroke="midnightblue" d="M733.375,-407.25C759.398,-397.909 800.855,-383.027 830.283,-372.462"/>
<polygon fill="midnightblue" stroke="midnightblue" points="831.533,-375.733 839.763,-369.06 829.168,-369.144 831.533,-375.733"/>
</g>
<!-- Node19 -->
<g id="node20" class="node"><title>Node19</title>
<g id="a_node20"><a xlink:href="lparser_8h.html" target="_top" xlink:title=" ">
<polygon fill="white" stroke="black" points="722.82,-349 722.82,-369 777.18,-369 777.18,-349 722.82,-349"/>
<text text-anchor="middle" x="750" y="-355" font-family="Helvetica,sans-Serif" font-size="10.00">lparser.h</text>
</a>
</g>
</g>
<!-- Node16&#45;&gt;Node19 -->
<g id="edge38" class="edge"><title>Node16&#45;&gt;Node19</title>
<path fill="none" stroke="midnightblue" d="M715.77,-406.753C721.621,-398.761 730.234,-386.998 737.356,-377.27"/>
<polygon fill="midnightblue" stroke="midnightblue" points="740.272,-379.211 743.356,-369.075 734.624,-375.076 740.272,-379.211"/>
</g>
<!-- Node17&#45;&gt;Node11 -->
<g id="edge33" class="edge"><title>Node17&#45;&gt;Node11</title>
<path fill="none" stroke="midnightblue" d="M673.543,-348.671C649.53,-329.118 593.71,-283.664 564.153,-259.596"/>
<polygon fill="midnightblue" stroke="midnightblue" points="566.188,-256.74 556.224,-253.139 561.768,-262.168 566.188,-256.74"/>
</g>
<!-- Node17&#45;&gt;Node13 -->
<g id="edge34" class="edge"><title>Node17&#45;&gt;Node13</title>
<path fill="none" stroke="midnightblue" d="M682.358,-348.753C680.191,-341.169 677.054,-330.188 674.364,-320.774"/>
<polygon fill="midnightblue" stroke="midnightblue" points="677.706,-319.729 671.593,-311.075 670.975,-321.652 677.706,-319.729"/>
</g>
<!-- Node18&#45;&gt;Node9 -->
<g id="edge37" class="edge"><title>Node18&#45;&gt;Node9</title>
<path fill="none" stroke="midnightblue" d="M868.188,-348.896C875.165,-327.358 889.728,-272.078 871,-232 864.929,-219.008 853.184,-208.394 842.101,-200.648"/>
<polygon fill="midnightblue" stroke="midnightblue" points="843.772,-197.56 833.476,-195.06 839.966,-203.435 843.772,-197.56"/>
</g>
<!-- Node19&#45;&gt;Node9 -->
<g id="edge39" class="edge"><title>Node19&#45;&gt;Node9</title>
<path fill="none" stroke="midnightblue" d="M764.124,-348.875C775.542,-340.679 790.987,-327.56 799,-312 816.702,-277.624 818.138,-231.297 817.28,-205.47"/>
<polygon fill="midnightblue" stroke="midnightblue" points="820.76,-204.979 816.775,-195.162 813.769,-205.322 820.76,-204.979"/>
</g>
<!-- Node19&#45;&gt;Node11 -->
<g id="edge40" class="edge"><title>Node19&#45;&gt;Node11</title>
<path fill="none" stroke="midnightblue" d="M745.17,-348.586C737.154,-333.893 719.71,-305.58 697,-290 662.125,-266.074 614.469,-254.305 581.87,-248.714"/>
<polygon fill="midnightblue" stroke="midnightblue" points="582.279,-245.235 571.851,-247.109 581.171,-252.147 582.279,-245.235"/>
</g>
<!-- Node19&#45;&gt;Node13 -->
<g id="edge41" class="edge"><title>Node19&#45;&gt;Node13</title>
<path fill="none" stroke="midnightblue" d="M736.624,-348.753C724.122,-340.109 705.236,-327.052 690.597,-316.931"/>
<polygon fill="midnightblue" stroke="midnightblue" points="692.343,-313.883 682.127,-311.075 688.362,-319.641 692.343,-313.883"/>
</g>
<!-- Node20&#45;&gt;Node10 -->
<g id="edge43" class="edge"><title>Node20&#45;&gt;Node10</title>
<path fill="none" stroke="midnightblue" d="M378.473,-464.671C381.415,-446.041 388.069,-403.898 391.977,-379.143"/>
<polygon fill="midnightblue" stroke="midnightblue" points="395.454,-379.563 393.557,-369.139 388.54,-378.471 395.454,-379.563"/>
</g>
<!-- Node21&#45;&gt;Node11 -->
<g id="edge45" class="edge"><title>Node21&#45;&gt;Node11</title>
<path fill="none" stroke="midnightblue" d="M472.427,-406.699C464.62,-384.735 448.392,-328.601 470,-290 478.385,-275.021 493.862,-264.328 508.588,-257.045"/>
<polygon fill="midnightblue" stroke="midnightblue" points="510.414,-260.06 518.075,-252.741 507.522,-253.686 510.414,-260.06"/>
</g>
<!-- Node21&#45;&gt;Node10 -->
<g id="edge46" class="edge"><title>Node21&#45;&gt;Node10</title>
<path fill="none" stroke="midnightblue" d="M462.624,-406.753C450.122,-398.109 431.236,-385.052 416.597,-374.931"/>
<polygon fill="midnightblue" stroke="midnightblue" points="418.343,-371.883 408.127,-369.075 414.362,-377.641 418.343,-371.883"/>
</g>
<!-- Node21&#45;&gt;Node13 -->
<g id="edge47" class="edge"><title>Node21&#45;&gt;Node13</title>
<path fill="none" stroke="midnightblue" d="M491.468,-406.864C525.077,-387.012 604.966,-339.823 645.11,-316.111"/>
<polygon fill="midnightblue" stroke="midnightblue" points="646.896,-319.121 653.726,-311.022 643.336,-313.094 646.896,-319.121"/>
</g>
<!-- Node22&#45;&gt;Node11 -->
<g id="edge49" class="edge"><title>Node22&#45;&gt;Node11</title>
<path fill="none" stroke="midnightblue" d="M744.928,-293.682C740.319,-292.443 735.509,-291.167 731,-290 679.339,-276.632 619.387,-261.955 581.82,-252.859"/>
<polygon fill="midnightblue" stroke="midnightblue" points="582.386,-249.395 571.843,-250.447 580.741,-256.199 582.386,-249.395"/>
</g>
<!-- Node24 -->
<g id="node25" class="node"><title>Node24</title>
<g id="a_node25"><a xlink:href="lgc_8h.html" target="_top" xlink:title=" ">
<polygon fill="white" stroke="black" points="287.438,-407 287.438,-427 324.562,-427 324.562,-407 287.438,-407"/>
<text text-anchor="middle" x="306" y="-413" font-family="Helvetica,sans-Serif" font-size="10.00">lgc.h</text>
</a>
</g>
</g>
<!-- Node23&#45;&gt;Node24 -->
<g id="edge54" class="edge"><title>Node23&#45;&gt;Node24</title>
<path fill="none" stroke="midnightblue" d="M306,-464.753C306,-457.25 306,-446.424 306,-437.078"/>
<polygon fill="midnightblue" stroke="midnightblue" points="309.5,-437.075 306,-427.075 302.5,-437.075 309.5,-437.075"/>
</g>
<!-- Node23&#45;&gt;Node11 -->
<g id="edge57" class="edge"><title>Node23&#45;&gt;Node11</title>
<path fill="none" stroke="midnightblue" d="M298.323,-464.855C291.474,-456.053 281.938,-442.043 278,-428 275.36,-418.585 275.887,-415.547 278,-406 290.29,-350.476 287.564,-325.488 332,-290 358.813,-268.586 454.581,-254.422 508.115,-247.986"/>
<polygon fill="midnightblue" stroke="midnightblue" points="508.701,-251.442 518.226,-246.802 507.887,-244.489 508.701,-251.442"/>
</g>
<!-- Node23&#45;&gt;Node10 -->
<g id="edge58" class="edge"><title>Node23&#45;&gt;Node10</title>
<path fill="none" stroke="midnightblue" d="M313.283,-464.671C328.221,-445.537 362.521,-401.602 381.592,-377.175"/>
<polygon fill="midnightblue" stroke="midnightblue" points="384.47,-379.176 387.865,-369.139 378.952,-374.868 384.47,-379.176"/>
</g>
<!-- Node24&#45;&gt;Node11 -->
<g id="edge55" class="edge"><title>Node24&#45;&gt;Node11</title>
<path fill="none" stroke="midnightblue" d="M306.748,-406.762C309.15,-383.42 318.786,-321.68 355,-290 397.858,-252.507 466.152,-244.401 508.13,-243.266"/>
<polygon fill="midnightblue" stroke="midnightblue" points="508.258,-246.764 518.205,-243.114 508.153,-239.765 508.258,-246.764"/>
</g>
<!-- Node24&#45;&gt;Node10 -->
<g id="edge56" class="edge"><title>Node24&#45;&gt;Node10</title>
<path fill="none" stroke="midnightblue" d="M320.697,-406.753C334.564,-398.027 355.578,-384.805 371.724,-374.646"/>
<polygon fill="midnightblue" stroke="midnightblue" points="373.977,-377.363 380.577,-369.075 370.249,-371.438 373.977,-377.363"/>
</g>
<!-- Node25&#45;&gt;Node11 -->
<g id="edge60" class="edge"><title>Node25&#45;&gt;Node11</title>
<path fill="none" stroke="midnightblue" d="M169.463,-406.898C171.19,-383.33 179.295,-320.061 217,-290 261.337,-254.651 432.035,-246.466 508.08,-244.571"/>
<polygon fill="midnightblue" stroke="midnightblue" points="508.241,-248.068 518.16,-244.343 508.083,-241.07 508.241,-248.068"/>
</g>
<!-- Node26&#45;&gt;Node21 -->
<g id="edge63" class="edge"><title>Node26&#45;&gt;Node21</title>
<path fill="none" stroke="midnightblue" d="M555.313,-464.753C540.372,-455.946 517.66,-442.558 500.364,-432.362"/>
<polygon fill="midnightblue" stroke="midnightblue" points="501.787,-429.138 491.395,-427.075 498.233,-435.169 501.787,-429.138"/>
</g>
<!-- Node26&#45;&gt;Node11 -->
<g id="edge64" class="edge"><title>Node26&#45;&gt;Node11</title>
<path fill="none" stroke="midnightblue" d="M569.981,-464.984C566.147,-431.07 552.539,-310.695 547.186,-263.339"/>
<polygon fill="midnightblue" stroke="midnightblue" points="550.642,-262.747 546.04,-253.204 543.686,-263.534 550.642,-262.747"/>
</g>
<!-- Node26&#45;&gt;Node12 -->
<g id="edge65" class="edge"><title>Node26&#45;&gt;Node12</title>
<path fill="none" stroke="midnightblue" d="M567.075,-464.753C555.539,-437.571 521.572,-357.538 505.984,-320.811"/>
<polygon fill="midnightblue" stroke="midnightblue" points="509.073,-319.131 501.944,-311.293 502.629,-321.866 509.073,-319.131"/>
</g>
</g>
</svg>
        <g id="navigator" transform="translate(0 0)" fill="#404254">
                <rect fill="#f2f5e9" fill-opacity="0.5" stroke="#606060" stroke-width=".5" x="0" y="0" width="60" height="60"/>
                <use id="zoomplus" xlink:href="#zoomPlus" x="17" y="9" onmousedown="handleZoom(evt,'in')"/>
                <use id="zoomminus" xlink:href="#zoomMin" x="42" y="9" onmousedown="handleZoom(evt,'out')"/>
                <use id="reset" xlink:href="#resetDef" x="30" y="36" onmousedown="handleReset()"/>
                <g id="arrowUp" xlink:href="#dirArrow" transform="translate(30 24)" onmousedown="handlePan(0,-1)">
                  <use xlink:href="#rim" fill="#404040">
                        <set attributeName="fill" to="#808080" begin="arrowUp.mouseover" end="arrowUp.mouseout"/>
                  </use>
                  <path fill="none" stroke="white" stroke-width="1.5" d="M0,-3.0v7 M-2.5,-0.5L0,-3.0L2.5,-0.5"/>
                </g>
                <g id="arrowRight" xlink:href="#dirArrow" transform="rotate(90) translate(36 -43)" onmousedown="handlePan(1,0)">
                  <use xlink:href="#rim" fill="#404040">
                        <set attributeName="fill" to="#808080" begin="arrowRight.mouseover" end="arrowRight.mouseout"/>
                  </use>
                  <path fill="none" stroke="white" stroke-width="1.5" d="M0,-3.0v7 M-2.5,-0.5L0,-3.0L2.5,-0.5"/>
                </g>
                <g id="arrowDown" xlink:href="#dirArrow" transform="rotate(180) translate(-30 -48)" onmousedown="handlePan(0,1)">
                  <use xlink:href="#rim" fill="#404040">
                        <set attributeName="fill" to="#808080" begin="arrowDown.mouseover" end="arrowDown.mouseout"/>
                  </use>
                  <path fill="none" stroke="white" stroke-width="1.5" d="M0,-3.0v7 M-2.5,-0.5L0,-3.0L2.5,-0.5"/>
                </g>
                <g id="arrowLeft" xlink:href="#dirArrow" transform="rotate(270) translate(-36 17)" onmousedown="handlePan(-1,0)">
                  <use xlink:href="#rim" fill="#404040">
                        <set attributeName="fill" to="#808080" begin="arrowLeft.mouseover" end="arrowLeft.mouseout"/>
                  </use>
                  <path fill="none" stroke="white" stroke-width="1.5" d="M0,-3.0v7 M-2.5,-0.5L0,-3.0L2.5,-0.5"/>
                </g>
        </g>
        <svg viewBox="0 0 15 15" width="100%" height="30px" preserveAspectRatio="xMaxYMin meet">
         <g id="arrow_out" transform="scale(0.3 0.3)">
          <a xlink:href="ldebug_8c__incl_org.svg" target="_base">
           <rect id="button" ry="5" rx="5" y="6" x="6" height="38" width="38"
                fill="#f2f5e9" fill-opacity="0.5" stroke="#606060" stroke-width="1.0"/>
           <path id="arrow"
             d="M 11.500037,31.436501 C 11.940474,20.09759 22.043105,11.32322 32.158766,21.979434 L 37.068811,17.246167 C 37.068811,17.246167 37.088388,32 37.088388,32 L 22.160133,31.978069 C 22.160133,31.978069 26.997745,27.140456 26.997745,27.140456 C 18.528582,18.264221 13.291696,25.230495 11.500037,31.436501 z"
             style="fill:#404040;"/>
          </a>
         </g>
        </svg>
</svg>
