<?xml version="1.0" encoding="UTF-8" standalone="no"?>
<!DOCTYPE svg PUBLIC "-//W3C//DTD SVG 1.1//EN"
 "http://www.w3.org/Graphics/SVG/1.1/DTD/svg11.dtd">
<!-- Generated by graphviz version 2.30.1 (20130221.2233)
 -->
<!-- Title: markbeingfnz Pages: 1 -->
<!--zoomable 86 -->
<svg id="main" version="1.1" xmlns="http://www.w3.org/2000/svg" xmlns:xlink="http://www.w3.org/1999/xlink" xml:space="preserve" onload="init(evt)">
<style type="text/css"><![CDATA[
.edge:hover path { stroke: red; }
.edge:hover polygon { stroke: red; fill: red; }
]]></style>
<script type="text/javascript"><![CDATA[
var edges = document.getElementsByTagName('g');
if (edges && edges.length) {
  for (var i=0;i<edges.length;i++) {
    if (edges[i].id.substr(0,4)=='edge') {
      edges[i].setAttribute('class','edge');
    }
  }
}
]]></script>
        <defs>
                <circle id="rim" cx="0" cy="0" r="7"/>
                <circle id="rim2" cx="0" cy="0" r="3.5"/>
                <g id="zoomPlus">
                        <use xlink:href="#rim" fill="#404040">
                                <set attributeName="fill" to="#808080" begin="zoomplus.mouseover" end="zoomplus.mouseout"/>
                        </use>
                        <path d="M-4,0h8M0,-4v8" fill="none" stroke="white" stroke-width="1.5" pointer-events="none"/>
                </g>
                <g id="zoomMin">
                        <use xlink:href="#rim" fill="#404040">
                                <set attributeName="fill" to="#808080" begin="zoomminus.mouseover" end="zoomminus.mouseout"/>
                        </use>
                        <path d="M-4,0h8" fill="none" stroke="white" stroke-width="1.5" pointer-events="none"/>
                </g>
                <g id="dirArrow">
                        <path fill="none" stroke="white" stroke-width="1.5" d="M0,-3.0v7 M-2.5,-0.5L0,-3.0L2.5,-0.5"/>
                </g>
               <g id="resetDef">
                       <use xlink:href="#rim2" fill="#404040">
                               <set attributeName="fill" to="#808080" begin="reset.mouseover" end="reset.mouseout"/>
                       </use>
               </g>
        </defs>

<script type="text/javascript">
var viewWidth = 786;
var viewHeight = 86;
var sectionId = 'dynsection-32';
</script>
<script xlink:href="svgpan.js"/>
<svg id="graph" class="graph">
<g id="viewport">
<title>markbeingfnz</title>
<polygon fill="white" stroke="white" points="-4,5 -4,-82 783,-82 783,5 -4,5"/>
<!-- Node1796 -->
<g id="node1" class="node"><title>Node1796</title>
<g id="a_node1"><a xlink:title=" ">
<polygon fill="#bfbfbf" stroke="black" points="701.985,-38 701.985,-58 778.015,-58 778.015,-38 701.985,-38"/>
<text text-anchor="middle" x="740" y="-44" font-family="Helvetica,sans-Serif" font-size="10.00">markbeingfnz</text>
</a>
</g>
</g>
<!-- Node1797 -->
<g id="node2" class="node"><title>Node1797</title>
<g id="a_node2"><a xlink:href="lgc_8c.html#aeeb04d4803ad9d53a05a8605130a31d0" target="_top" xlink:title=" ">
<polygon fill="white" stroke="black" points="600.273,-58 600.273,-78 645.727,-78 645.727,-58 600.273,-58"/>
<text text-anchor="middle" x="623" y="-64" font-family="Helvetica,sans-Serif" font-size="10.00">atomic</text>
</a>
</g>
</g>
<!-- Node1796&#45;&gt;Node1797 -->
<g id="edge1" class="edge"><title>Node1796&#45;&gt;Node1797</title>
<path fill="none" stroke="midnightblue" d="M691.737,-56.2197C675.83,-58.986 658.844,-61.9401 645.861,-64.1981"/>
<polygon fill="midnightblue" stroke="midnightblue" points="692.728,-59.5999 701.98,-54.4382 691.528,-52.7035 692.728,-59.5999"/>
</g>
<!-- Node1806 -->
<g id="node11" class="node"><title>Node1806</title>
<g id="a_node11"><a xlink:href="lgc_8c.html#abc346fb7129981227c874ba0e22a480f" target="_top" xlink:title=" ">
<polygon fill="white" stroke="black" points="579.985,-19 579.985,-39 666.015,-39 666.015,-19 579.985,-19"/>
<text text-anchor="middle" x="623" y="-25" font-family="Helvetica,sans-Serif" font-size="10.00">restartcollection</text>
</a>
</g>
</g>
<!-- Node1796&#45;&gt;Node1806 -->
<g id="edge11" class="edge"><title>Node1796&#45;&gt;Node1806</title>
<path fill="none" stroke="midnightblue" d="M692.094,-40.2503C683.504,-38.8311 674.587,-37.3578 666.146,-35.9632"/>
<polygon fill="midnightblue" stroke="midnightblue" points="691.543,-43.7067 701.98,-41.8837 692.685,-36.8003 691.543,-43.7067"/>
</g>
<!-- Node1798 -->
<g id="node3" class="node"><title>Node1798</title>
<g id="a_node3"><a xlink:href="lgc_8c.html#ae34e22198155f5d365fe500d3735c150" target="_top" xlink:title=" ">
<polygon fill="white" stroke="black" points="482.485,-38 482.485,-58 543.515,-58 543.515,-38 482.485,-38"/>
<text text-anchor="middle" x="513" y="-44" font-family="Helvetica,sans-Serif" font-size="10.00">singlestep</text>
</a>
</g>
</g>
<!-- Node1797&#45;&gt;Node1798 -->
<g id="edge2" class="edge"><title>Node1797&#45;&gt;Node1798</title>
<path fill="none" stroke="midnightblue" d="M589.989,-62.072C575.297,-59.3513 557.986,-56.1456 543.601,-53.4816"/>
<polygon fill="midnightblue" stroke="midnightblue" points="589.674,-65.5732 600.145,-63.9527 590.949,-58.6902 589.674,-65.5732"/>
</g>
<!-- Node1799 -->
<g id="node4" class="node"><title>Node1799</title>
<g id="a_node4"><a xlink:href="lgc_8h.html#a1da32357417ce5766ed5e3ada033c32f" target="_top" xlink:title=" ">
<polygon fill="white" stroke="black" points="360.259,-58 360.259,-78 445.741,-78 445.741,-58 360.259,-58"/>
<text text-anchor="middle" x="403" y="-64" font-family="Helvetica,sans-Serif" font-size="10.00">luaC_runtilstate</text>
</a>
</g>
</g>
<!-- Node1798&#45;&gt;Node1799 -->
<g id="edge3" class="edge"><title>Node1798&#45;&gt;Node1799</title>
<path fill="none" stroke="midnightblue" d="M472.36,-55.3407C463.719,-56.9409 454.549,-58.6391 445.826,-60.2545"/>
<polygon fill="midnightblue" stroke="midnightblue" points="473.007,-58.7805 482.203,-53.518 471.732,-51.8975 473.007,-58.7805"/>
</g>
<!-- Node1805 -->
<g id="node10" class="node"><title>Node1805</title>
<g id="a_node10"><a xlink:href="lgc_8h.html#a6c71cc4b9e503c0e96c0c4ffcff93900" target="_top" xlink:title=" ">
<polygon fill="white" stroke="black" points="260.485,-19 260.485,-39 321.515,-39 321.515,-19 260.485,-19"/>
<text text-anchor="middle" x="291" y="-25" font-family="Helvetica,sans-Serif" font-size="10.00">luaC_step</text>
</a>
</g>
</g>
<!-- Node1798&#45;&gt;Node1805 -->
<g id="edge9" class="edge"><title>Node1798&#45;&gt;Node1805</title>
<path fill="none" stroke="midnightblue" d="M472.138,-44.5573C428.75,-40.8102 360.389,-34.9063 321.551,-31.5521"/>
<polygon fill="midnightblue" stroke="midnightblue" points="472.066,-48.0641 482.33,-45.4376 472.668,-41.09 472.066,-48.0641"/>
</g>
<!-- Node1800 -->
<g id="node5" class="node"><title>Node1800</title>
<g id="a_node5"><a xlink:href="lgc_8h.html#aa0b753c3ed80e1eed0379ec58592c404" target="_top" xlink:title=" ">
<polygon fill="white" stroke="black" points="258.264,-58 258.264,-78 323.736,-78 323.736,-58 258.264,-58"/>
<text text-anchor="middle" x="291" y="-64" font-family="Helvetica,sans-Serif" font-size="10.00">luaC_fullgc</text>
</a>
</g>
</g>
<!-- Node1799&#45;&gt;Node1800 -->
<g id="edge4" class="edge"><title>Node1799&#45;&gt;Node1800</title>
<path fill="none" stroke="midnightblue" d="M350.09,-68C341.139,-68 332.077,-68 323.859,-68"/>
<polygon fill="midnightblue" stroke="midnightblue" points="350.1,-71.5001 360.1,-68 350.1,-64.5001 350.1,-71.5001"/>
</g>
<!-- Node1801 -->
<g id="node6" class="node"><title>Node1801</title>
<g id="a_node6"><a xlink:href="lua_8h.html#a6bac487d3f900b21271e8c591bd801cd" target="_top" xlink:title=" ">
<polygon fill="white" stroke="black" points="160.266,-19 160.266,-39 205.734,-39 205.734,-19 160.266,-19"/>
<text text-anchor="middle" x="183" y="-25" font-family="Helvetica,sans-Serif" font-size="10.00">lua_gc</text>
</a>
</g>
</g>
<!-- Node1800&#45;&gt;Node1801 -->
<g id="edge5" class="edge"><title>Node1800&#45;&gt;Node1801</title>
<path fill="none" stroke="midnightblue" d="M253.205,-54.4621C237.419,-48.654 219.511,-42.0652 205.867,-37.0454"/>
<polygon fill="midnightblue" stroke="midnightblue" points="252.109,-57.7882 262.702,-57.9565 254.526,-51.2188 252.109,-57.7882"/>
</g>
<!-- Node1804 -->
<g id="node9" class="node"><title>Node1804</title>
<g id="a_node9"><a xlink:href="lmem_8h.html#ae7dc8a57fc5dbca825653a88a356a72d" target="_top" xlink:title=" ">
<polygon fill="white" stroke="black" points="143.872,-58 143.872,-78 222.128,-78 222.128,-58 143.872,-58"/>
<text text-anchor="middle" x="183" y="-64" font-family="Helvetica,sans-Serif" font-size="10.00">luaM_realloc_</text>
</a>
</g>
</g>
<!-- Node1800&#45;&gt;Node1804 -->
<g id="edge8" class="edge"><title>Node1800&#45;&gt;Node1804</title>
<path fill="none" stroke="midnightblue" d="M248.035,-68C239.489,-68 230.543,-68 222.14,-68"/>
<polygon fill="midnightblue" stroke="midnightblue" points="248.197,-71.5001 258.197,-68 248.196,-64.5001 248.197,-71.5001"/>
</g>
<!-- Node1802 -->
<g id="node7" class="node"><title>Node1802</title>
<g id="a_node7"><a xlink:href="lbaselib_8c.html#a07f71966c943cc9761ab129f64d4ac80" target="_top" xlink:title=" ">
<polygon fill="white" stroke="black" points="0.689941,-39 0.689941,-59 107.31,-59 107.31,-39 0.689941,-39"/>
<text text-anchor="middle" x="54" y="-45" font-family="Helvetica,sans-Serif" font-size="10.00">luaB_collectgarbage</text>
</a>
</g>
</g>
<!-- Node1801&#45;&gt;Node1802 -->
<g id="edge6" class="edge"><title>Node1801&#45;&gt;Node1802</title>
<path fill="none" stroke="midnightblue" d="M149.946,-34.0479C137.048,-36.0791 121.834,-38.475 107.408,-40.7467"/>
<polygon fill="midnightblue" stroke="midnightblue" points="150.834,-37.4512 160.168,-32.4381 149.745,-30.5364 150.834,-37.4512"/>
</g>
<!-- Node1803 -->
<g id="node8" class="node"><title>Node1803</title>
<g id="a_node8"><a xlink:href="classlua__scripts.html#a9c6e5c7891f202292f25eefb10f05ffa" target="_top" xlink:title=" ">
<polygon fill="white" stroke="black" points="12.0962,-0 12.0962,-20 95.9038,-20 95.9038,-0 12.0962,-0"/>
<text text-anchor="middle" x="54" y="-6" font-family="Helvetica,sans-Serif" font-size="10.00">lua_scripts::run</text>
</a>
</g>
</g>
<!-- Node1801&#45;&gt;Node1803 -->
<g id="edge7" class="edge"><title>Node1801&#45;&gt;Node1803</title>
<path fill="none" stroke="midnightblue" d="M150.014,-24.2147C133.64,-21.7651 113.522,-18.7552 96.0195,-16.1368"/>
<polygon fill="midnightblue" stroke="midnightblue" points="149.76,-27.7156 160.168,-25.7338 150.796,-20.7926 149.76,-27.7156"/>
</g>
<!-- Node1805&#45;&gt;Node1801 -->
<g id="edge10" class="edge"><title>Node1805&#45;&gt;Node1801</title>
<path fill="none" stroke="midnightblue" d="M250.381,-29C235.356,-29 218.795,-29 205.973,-29"/>
<polygon fill="midnightblue" stroke="midnightblue" points="250.473,-32.5001 260.473,-29 250.473,-25.5001 250.473,-32.5001"/>
</g>
<!-- Node1806&#45;&gt;Node1798 -->
<g id="edge12" class="edge"><title>Node1806&#45;&gt;Node1798</title>
<path fill="none" stroke="midnightblue" d="M569.888,-38.1678C560.917,-39.7461 551.876,-41.3367 543.757,-42.765"/>
<polygon fill="midnightblue" stroke="midnightblue" points="570.693,-41.5801 579.935,-36.4003 569.48,-34.686 570.693,-41.5801"/>
</g>
</g>
</svg>
        <g id="navigator" transform="translate(0 0)" fill="#404254">
                <rect fill="#f2f5e9" fill-opacity="0.5" stroke="#606060" stroke-width=".5" x="0" y="0" width="60" height="60"/>
                <use id="zoomplus" xlink:href="#zoomPlus" x="17" y="9" onmousedown="handleZoom(evt,'in')"/>
                <use id="zoomminus" xlink:href="#zoomMin" x="42" y="9" onmousedown="handleZoom(evt,'out')"/>
                <use id="reset" xlink:href="#resetDef" x="30" y="36" onmousedown="handleReset()"/>
                <g id="arrowUp" xlink:href="#dirArrow" transform="translate(30 24)" onmousedown="handlePan(0,-1)">
                  <use xlink:href="#rim" fill="#404040">
                        <set attributeName="fill" to="#808080" begin="arrowUp.mouseover" end="arrowUp.mouseout"/>
                  </use>
                  <path fill="none" stroke="white" stroke-width="1.5" d="M0,-3.0v7 M-2.5,-0.5L0,-3.0L2.5,-0.5"/>
                </g>
                <g id="arrowRight" xlink:href="#dirArrow" transform="rotate(90) translate(36 -43)" onmousedown="handlePan(1,0)">
                  <use xlink:href="#rim" fill="#404040">
                        <set attributeName="fill" to="#808080" begin="arrowRight.mouseover" end="arrowRight.mouseout"/>
                  </use>
                  <path fill="none" stroke="white" stroke-width="1.5" d="M0,-3.0v7 M-2.5,-0.5L0,-3.0L2.5,-0.5"/>
                </g>
                <g id="arrowDown" xlink:href="#dirArrow" transform="rotate(180) translate(-30 -48)" onmousedown="handlePan(0,1)">
                  <use xlink:href="#rim" fill="#404040">
                        <set attributeName="fill" to="#808080" begin="arrowDown.mouseover" end="arrowDown.mouseout"/>
                  </use>
                  <path fill="none" stroke="white" stroke-width="1.5" d="M0,-3.0v7 M-2.5,-0.5L0,-3.0L2.5,-0.5"/>
                </g>
                <g id="arrowLeft" xlink:href="#dirArrow" transform="rotate(270) translate(-36 17)" onmousedown="handlePan(-1,0)">
                  <use xlink:href="#rim" fill="#404040">
                        <set attributeName="fill" to="#808080" begin="arrowLeft.mouseover" end="arrowLeft.mouseout"/>
                  </use>
                  <path fill="none" stroke="white" stroke-width="1.5" d="M0,-3.0v7 M-2.5,-0.5L0,-3.0L2.5,-0.5"/>
                </g>
        </g>
        <svg viewBox="0 0 15 15" width="100%" height="30px" preserveAspectRatio="xMaxYMin meet">
         <g id="arrow_out" transform="scale(0.3 0.3)">
          <a xlink:href="lgc_8c_a593b23b5c0d2d02402e9b5de00bfb141_icgraph_org.svg" target="_base">
           <rect id="button" ry="5" rx="5" y="6" x="6" height="38" width="38"
                fill="#f2f5e9" fill-opacity="0.5" stroke="#606060" stroke-width="1.0"/>
           <path id="arrow"
             d="M 11.500037,31.436501 C 11.940474,20.09759 22.043105,11.32322 32.158766,21.979434 L 37.068811,17.246167 C 37.068811,17.246167 37.088388,32 37.088388,32 L 22.160133,31.978069 C 22.160133,31.978069 26.997745,27.140456 26.997745,27.140456 C 18.528582,18.264221 13.291696,25.230495 11.500037,31.436501 z"
             style="fill:#404040;"/>
          </a>
         </g>
        </svg>
</svg>
