<?xml version="1.0" encoding="UTF-8" standalone="no"?>
<!DOCTYPE svg PUBLIC "-//W3C//DTD SVG 1.1//EN"
 "http://www.w3.org/Graphics/SVG/1.1/DTD/svg11.dtd">
<!-- Generated by graphviz version 2.30.1 (20130221.2233)
 -->
<!-- Title: newfile Pages: 1 -->
<svg width="336pt" height="125pt"
 viewBox="0.00 0.00 336.00 125.00" xmlns="http://www.w3.org/2000/svg" xmlns:xlink="http://www.w3.org/1999/xlink">
<g id="graph0" class="graph" transform="scale(1 1) rotate(0) translate(4 121)">
<title>newfile</title>
<polygon fill="white" stroke="white" points="-4,5 -4,-121 333,-121 333,5 -4,5"/>
<!-- Node6506 -->
<g id="node1" class="node"><title>Node6506</title>
<g id="a_node1"><a xlink:title=" ">
<polygon fill="#bfbfbf" stroke="black" points="280.436,-58 280.436,-78 327.564,-78 327.564,-58 280.436,-58"/>
<text text-anchor="middle" x="304" y="-64" font-family="Helvetica,sans-Serif" font-size="10.00">newfile</text>
</a>
</g>
</g>
<!-- Node6507 -->
<g id="node2" class="node"><title>Node6507</title>
<g id="a_node2"><a xlink:href="liolib_8c.html#ab4a969d43dbe0f89e98307e5b421f8a7" target="_top" xlink:title=" ">
<polygon fill="white" stroke="black" points="186.205,-97 186.205,-117 237.795,-117 237.795,-97 186.205,-97"/>
<text text-anchor="middle" x="212" y="-103" font-family="Helvetica,sans-Serif" font-size="10.00">io_open</text>
</a>
</g>
</g>
<!-- Node6506&#45;&gt;Node6507 -->
<g id="edge1" class="edge"><title>Node6506&#45;&gt;Node6507</title>
<path fill="none" stroke="midnightblue" d="M271.037,-81.8508C259.589,-86.8112 246.911,-92.3054 236.331,-96.8899"/>
<polygon fill="midnightblue" stroke="midnightblue" points="272.505,-85.0289 280.289,-77.8413 269.722,-78.606 272.505,-85.0289"/>
</g>
<!-- Node6508 -->
<g id="node3" class="node"><title>Node6508</title>
<g id="a_node3"><a xlink:href="liolib_8c.html#a0347de9dda8be02044075c96482eddb3" target="_top" xlink:title=" ">
<polygon fill="white" stroke="black" points="182.601,-58 182.601,-78 241.399,-78 241.399,-58 182.601,-58"/>
<text text-anchor="middle" x="212" y="-64" font-family="Helvetica,sans-Serif" font-size="10.00">io_tmpfile</text>
</a>
</g>
</g>
<!-- Node6506&#45;&gt;Node6508 -->
<g id="edge2" class="edge"><title>Node6506&#45;&gt;Node6508</title>
<path fill="none" stroke="midnightblue" d="M270.121,-68C260.744,-68 250.609,-68 241.515,-68"/>
<polygon fill="midnightblue" stroke="midnightblue" points="270.289,-71.5001 280.289,-68 270.289,-64.5001 270.289,-71.5001"/>
</g>
<!-- Node6509 -->
<g id="node4" class="node"><title>Node6509</title>
<g id="a_node4"><a xlink:href="liolib_8c.html#a91ec9c6fa0ef33085f29a15532ac80a7" target="_top" xlink:title=" ">
<polygon fill="white" stroke="black" points="179.815,-19 179.815,-39 244.185,-39 244.185,-19 179.815,-19"/>
<text text-anchor="middle" x="212" y="-25" font-family="Helvetica,sans-Serif" font-size="10.00">opencheck</text>
</a>
</g>
</g>
<!-- Node6506&#45;&gt;Node6509 -->
<g id="edge3" class="edge"><title>Node6506&#45;&gt;Node6509</title>
<path fill="none" stroke="midnightblue" d="M271.037,-54.1492C259.589,-49.1888 246.911,-43.6946 236.331,-39.1101"/>
<polygon fill="midnightblue" stroke="midnightblue" points="269.722,-57.394 280.289,-58.1587 272.505,-50.9711 269.722,-57.394"/>
</g>
<!-- Node6510 -->
<g id="node5" class="node"><title>Node6510</title>
<g id="a_node5"><a xlink:href="liolib_8c.html#aae942558ff528b4e1a483297c64e6886" target="_top" xlink:title=" ">
<polygon fill="white" stroke="black" points="95.1553,-39 95.1553,-59 142.845,-59 142.845,-39 95.1553,-39"/>
<text text-anchor="middle" x="119" y="-45" font-family="Helvetica,sans-Serif" font-size="10.00">g_iofile</text>
</a>
</g>
</g>
<!-- Node6509&#45;&gt;Node6510 -->
<g id="edge4" class="edge"><title>Node6509&#45;&gt;Node6510</title>
<path fill="none" stroke="midnightblue" d="M169.857,-38.0423C160.649,-40.0662 151.2,-42.1428 143.038,-43.9366"/>
<polygon fill="midnightblue" stroke="midnightblue" points="170.667,-41.4479 179.683,-35.8829 169.165,-34.6111 170.667,-41.4479"/>
</g>
<!-- Node6513 -->
<g id="node8" class="node"><title>Node6513</title>
<g id="a_node8"><a xlink:href="liolib_8c.html#ab08031b51605d4ef676ec33a3b96a286" target="_top" xlink:title=" ">
<polygon fill="white" stroke="black" points="94.0444,-0 94.0444,-20 143.956,-20 143.956,-0 94.0444,-0"/>
<text text-anchor="middle" x="119" y="-6" font-family="Helvetica,sans-Serif" font-size="10.00">io_lines</text>
</a>
</g>
</g>
<!-- Node6509&#45;&gt;Node6513 -->
<g id="edge7" class="edge"><title>Node6509&#45;&gt;Node6513</title>
<path fill="none" stroke="midnightblue" d="M169.631,-20.3626C160.923,-18.5444 152.012,-16.6837 144.187,-15.0499"/>
<polygon fill="midnightblue" stroke="midnightblue" points="169.179,-23.8435 179.683,-22.4613 170.609,-16.9912 169.179,-23.8435"/>
</g>
<!-- Node6511 -->
<g id="node6" class="node"><title>Node6511</title>
<g id="a_node6"><a xlink:href="liolib_8c.html#a827044fde6f2c21ab965ba3d729f6a0f" target="_top" xlink:title=" ">
<polygon fill="white" stroke="black" points="3.48535,-58 3.48535,-78 54.5146,-78 54.5146,-58 3.48535,-58"/>
<text text-anchor="middle" x="29" y="-64" font-family="Helvetica,sans-Serif" font-size="10.00">io_input</text>
</a>
</g>
</g>
<!-- Node6510&#45;&gt;Node6511 -->
<g id="edge5" class="edge"><title>Node6510&#45;&gt;Node6511</title>
<path fill="none" stroke="midnightblue" d="M84.8736,-56.1523C74.9071,-58.3042 64.1465,-60.6275 54.8167,-62.6418"/>
<polygon fill="midnightblue" stroke="midnightblue" points="85.843,-59.5237 94.879,-53.992 84.3656,-52.6814 85.843,-59.5237"/>
</g>
<!-- Node6512 -->
<g id="node7" class="node"><title>Node6512</title>
<g id="a_node7"><a xlink:href="liolib_8c.html#a4464f89f0151ad432557b0a51258582c" target="_top" xlink:title=" ">
<polygon fill="white" stroke="black" points="0.42627,-19 0.42627,-39 57.5737,-39 57.5737,-19 0.42627,-19"/>
<text text-anchor="middle" x="29" y="-25" font-family="Helvetica,sans-Serif" font-size="10.00">io_output</text>
</a>
</g>
</g>
<!-- Node6510&#45;&gt;Node6512 -->
<g id="edge6" class="edge"><title>Node6510&#45;&gt;Node6512</title>
<path fill="none" stroke="midnightblue" d="M85.0634,-41.5144C76.0416,-39.464 66.3562,-37.2628 57.6626,-35.287"/>
<polygon fill="midnightblue" stroke="midnightblue" points="84.352,-44.9419 94.879,-43.7452 85.9034,-38.116 84.352,-44.9419"/>
</g>
</g>
</svg>
