<?xml version="1.0" encoding="UTF-8" standalone="no"?>
<!DOCTYPE svg PUBLIC "-//W3C//DTD SVG 1.1//EN"
 "http://www.w3.org/Graphics/SVG/1.1/DTD/svg11.dtd">
<!-- Generated by graphviz version 2.30.1 (20130221.2233)
 -->
<!-- Title: setboolfield Pages: 1 -->
<svg width="264pt" height="67pt"
 viewBox="0.00 0.00 264.00 67.00" xmlns="http://www.w3.org/2000/svg" xmlns:xlink="http://www.w3.org/1999/xlink">
<g id="graph0" class="graph" transform="scale(1 1) rotate(0) translate(4 63)">
<title>setboolfield</title>
<polygon fill="white" stroke="white" points="-4,5 -4,-63 261,-63 261,5 -4,5"/>
<!-- Node3035 -->
<g id="node1" class="node"><title>Node3035</title>
<g id="a_node1"><a xlink:title=" ">
<polygon fill="#bfbfbf" stroke="black" points="188.705,-19 188.705,-39 255.295,-39 255.295,-19 188.705,-19"/>
<text text-anchor="middle" x="222" y="-25" font-family="Helvetica,sans-Serif" font-size="10.00">setboolfield</text>
</a>
</g>
</g>
<!-- Node3036 -->
<g id="node2" class="node"><title>Node3036</title>
<g id="a_node2"><a xlink:href="loslib_8c.html#ae4eca277a29a763a64ef611692c4b894" target="_top" xlink:title=" ">
<polygon fill="white" stroke="black" points="88.6553,-19 88.6553,-39 151.345,-39 151.345,-19 88.6553,-19"/>
<text text-anchor="middle" x="120" y="-25" font-family="Helvetica,sans-Serif" font-size="10.00">setallfields</text>
</a>
</g>
</g>
<!-- Node3035&#45;&gt;Node3036 -->
<g id="edge1" class="edge"><title>Node3035&#45;&gt;Node3036</title>
<path fill="none" stroke="midnightblue" d="M178.529,-29C169.484,-29 160.103,-29 151.606,-29"/>
<polygon fill="midnightblue" stroke="midnightblue" points="178.533,-32.5001 188.533,-29 178.533,-25.5001 178.533,-32.5001"/>
</g>
<!-- Node3037 -->
<g id="node3" class="node"><title>Node3037</title>
<g id="a_node3"><a xlink:href="loslib_8c.html#a6520f2562b500aee87a6a475995adefb" target="_top" xlink:title=" ">
<polygon fill="white" stroke="black" points="0.207031,-39 0.207031,-59 51.793,-59 51.793,-39 0.207031,-39"/>
<text text-anchor="middle" x="26" y="-45" font-family="Helvetica,sans-Serif" font-size="10.00">os_date</text>
</a>
</g>
</g>
<!-- Node3036&#45;&gt;Node3037 -->
<g id="edge2" class="edge"><title>Node3036&#45;&gt;Node3037</title>
<path fill="none" stroke="midnightblue" d="M78.8455,-37.7292C69.6571,-39.7267 60.1525,-41.7929 51.8302,-43.6021"/>
<polygon fill="midnightblue" stroke="midnightblue" points="79.5926,-41.1487 88.6208,-35.6042 78.1055,-34.3084 79.5926,-41.1487"/>
</g>
<!-- Node3038 -->
<g id="node4" class="node"><title>Node3038</title>
<g id="a_node4"><a xlink:href="loslib_8c.html#ae32288bc9696b48450146e11c241f943" target="_top" xlink:title=" ">
<polygon fill="white" stroke="black" points="0.492676,-0 0.492676,-20 51.5073,-20 51.5073,-0 0.492676,-0"/>
<text text-anchor="middle" x="26" y="-6" font-family="Helvetica,sans-Serif" font-size="10.00">os_time</text>
</a>
</g>
</g>
<!-- Node3036&#45;&gt;Node3038 -->
<g id="edge3" class="edge"><title>Node3036&#45;&gt;Node3038</title>
<path fill="none" stroke="midnightblue" d="M78.758,-20.6892C69.4871,-18.7745 59.8991,-16.7944 51.5325,-15.0665"/>
<polygon fill="midnightblue" stroke="midnightblue" points="78.1195,-24.1311 88.6208,-22.726 79.5354,-17.2758 78.1195,-24.1311"/>
</g>
</g>
</svg>
