<?xml version="1.0" encoding="UTF-8" standalone="no"?>
<!DOCTYPE svg PUBLIC "-//W3C//DTD SVG 1.1//EN"
 "http://www.w3.org/Graphics/SVG/1.1/DTD/svg11.dtd">
<!-- Generated by graphviz version 2.30.1 (20130221.2233)
 -->
<!-- Title: classend Pages: 1 -->
<svg width="350pt" height="262pt"
 viewBox="0.00 0.00 350.00 262.00" xmlns="http://www.w3.org/2000/svg" xmlns:xlink="http://www.w3.org/1999/xlink">
<g id="graph0" class="graph" transform="scale(1 1) rotate(0) translate(4 258)">
<title>classend</title>
<polygon fill="white" stroke="white" points="-4,5 -4,-258 347,-258 347,5 -4,5"/>
<!-- Node1465 -->
<g id="node1" class="node"><title>Node1465</title>
<g id="a_node1"><a xlink:title=" ">
<polygon fill="#bfbfbf" stroke="black" points="286.266,-156 286.266,-176 341.734,-176 341.734,-156 286.266,-156"/>
<text text-anchor="middle" x="314" y="-162" font-family="Helvetica,sans-Serif" font-size="10.00">classend</text>
</a>
</g>
</g>
<!-- Node1466 -->
<g id="node2" class="node"><title>Node1466</title>
<g id="a_node2"><a xlink:href="lstrlib_8c.html#a52a45835b75e5d31ec66421456bbb728" target="_top" xlink:title=" ">
<polygon fill="white" stroke="black" points="206.384,-156 206.384,-176 249.616,-176 249.616,-156 206.384,-156"/>
<text text-anchor="middle" x="228" y="-162" font-family="Helvetica,sans-Serif" font-size="10.00">match</text>
</a>
</g>
</g>
<!-- Node1465&#45;&gt;Node1466 -->
<g id="edge1" class="edge"><title>Node1465&#45;&gt;Node1466</title>
<path fill="none" stroke="midnightblue" d="M275.76,-166C266.876,-166 257.704,-166 249.862,-166"/>
<polygon fill="midnightblue" stroke="midnightblue" points="275.96,-169.5 285.959,-166 275.959,-162.5 275.96,-169.5"/>
</g>
<!-- Node1467 -->
<g id="node3" class="node"><title>Node1467</title>
<g id="a_node3"><a xlink:href="lstrlib_8c.html#ad0b55e65b16045801315919fb67a4070" target="_top" xlink:title=" ">
<polygon fill="white" stroke="black" points="96.3696,-234 96.3696,-254 169.63,-254 169.63,-234 96.3696,-234"/>
<text text-anchor="middle" x="133" y="-240" font-family="Helvetica,sans-Serif" font-size="10.00">max_expand</text>
</a>
</g>
</g>
<!-- Node1466&#45;&gt;Node1467 -->
<g id="edge2" class="edge"><title>Node1466&#45;&gt;Node1467</title>
<path fill="none" stroke="midnightblue" d="M205.009,-183.19C194.968,-193.22 182.533,-205.461 170,-215 160.897,-221.929 149.11,-228.009 141.55,-233.792"/>
<polygon fill="midnightblue" stroke="midnightblue" points="207.577,-185.573 212.184,-176.032 202.633,-180.617 207.577,-185.573"/>
</g>
<!-- Node1468 -->
<g id="node4" class="node"><title>Node1468</title>
<g id="a_node4"><a xlink:href="lstrlib_8c.html#a3b42ede2ccaf027b891a6a4f1cdf3902" target="_top" xlink:title=" ">
<polygon fill="white" stroke="black" points="97.7588,-195 97.7588,-215 168.241,-215 168.241,-195 97.7588,-195"/>
<text text-anchor="middle" x="133" y="-201" font-family="Helvetica,sans-Serif" font-size="10.00">min_expand</text>
</a>
</g>
</g>
<!-- Node1466&#45;&gt;Node1468 -->
<g id="edge4" class="edge"><title>Node1466&#45;&gt;Node1468</title>
<path fill="none" stroke="midnightblue" d="M196.802,-172.297C179.773,-178.605 159.405,-187.671 146.582,-194.93"/>
<polygon fill="midnightblue" stroke="midnightblue" points="198.088,-175.555 206.36,-168.935 195.765,-168.951 198.088,-175.555"/>
</g>
<!-- Node1469 -->
<g id="node5" class="node"><title>Node1469</title>
<g id="a_node5"><a xlink:href="lstrlib_8c.html#a31cf026bdaa00bf9c72a1e4f72319147" target="_top" xlink:title=" ">
<polygon fill="white" stroke="black" points="95.8179,-156 95.8179,-176 170.182,-176 170.182,-156 95.8179,-156"/>
<text text-anchor="middle" x="133" y="-162" font-family="Helvetica,sans-Serif" font-size="10.00">start_capture</text>
</a>
</g>
</g>
<!-- Node1466&#45;&gt;Node1469 -->
<g id="edge6" class="edge"><title>Node1466&#45;&gt;Node1469</title>
<path fill="none" stroke="midnightblue" d="M196.324,-159.61C188.001,-159.217 178.911,-159.146 170.31,-159.396"/>
<polygon fill="midnightblue" stroke="midnightblue" points="196.149,-163.106 206.36,-160.28 196.616,-156.122 196.149,-163.106"/>
</g>
<!-- Node1470 -->
<g id="node6" class="node"><title>Node1470</title>
<g id="a_node6"><a xlink:href="lstrlib_8c.html#ab0ecc0f25602beb821f6a5e62517d18e" target="_top" xlink:title=" ">
<polygon fill="white" stroke="black" points="97.1997,-117 97.1997,-137 168.8,-137 168.8,-117 97.1997,-117"/>
<text text-anchor="middle" x="133" y="-123" font-family="Helvetica,sans-Serif" font-size="10.00">end_capture</text>
</a>
</g>
</g>
<!-- Node1466&#45;&gt;Node1470 -->
<g id="edge8" class="edge"><title>Node1466&#45;&gt;Node1470</title>
<path fill="none" stroke="midnightblue" d="M205.382,-151.13C194.615,-145.707 181.324,-139.879 169.141,-135.169"/>
<polygon fill="midnightblue" stroke="midnightblue" points="203.984,-154.35 214.458,-155.952 207.269,-148.169 203.984,-154.35"/>
</g>
<!-- Node1471 -->
<g id="node7" class="node"><title>Node1471</title>
<g id="a_node7"><a xlink:href="lstrlib_8c.html#a692514aa32ae2668683a4db15259d26b" target="_top" xlink:title=" ">
<polygon fill="white" stroke="black" points="97.7612,-78 97.7612,-98 168.239,-98 168.239,-78 97.7612,-78"/>
<text text-anchor="middle" x="133" y="-84" font-family="Helvetica,sans-Serif" font-size="10.00">str_find_aux</text>
</a>
</g>
</g>
<!-- Node1466&#45;&gt;Node1471 -->
<g id="edge10" class="edge"><title>Node1466&#45;&gt;Node1471</title>
<path fill="none" stroke="midnightblue" d="M211.744,-147.946C200.883,-135.761 185.517,-119.811 170,-108 165.221,-104.363 159.702,-100.959 154.444,-98.0271"/>
<polygon fill="midnightblue" stroke="midnightblue" points="209.28,-150.445 218.49,-155.683 214.556,-145.845 209.28,-150.445"/>
</g>
<!-- Node1474 -->
<g id="node10" class="node"><title>Node1474</title>
<g id="a_node10"><a xlink:href="lstrlib_8c.html#ab7cb0ba6191e1aa9455f6522d3483a02" target="_top" xlink:title=" ">
<polygon fill="white" stroke="black" points="97.7612,-39 97.7612,-59 168.239,-59 168.239,-39 97.7612,-39"/>
<text text-anchor="middle" x="133" y="-45" font-family="Helvetica,sans-Serif" font-size="10.00">gmatch_aux</text>
</a>
</g>
</g>
<!-- Node1466&#45;&gt;Node1474 -->
<g id="edge13" class="edge"><title>Node1466&#45;&gt;Node1474</title>
<path fill="none" stroke="midnightblue" d="M219.256,-146.477C210.075,-125.3 193.063,-91.5121 170,-69 166.112,-65.2044 161.359,-61.8998 156.598,-59.1291"/>
<polygon fill="midnightblue" stroke="midnightblue" points="216.046,-147.873 223.126,-155.755 222.506,-145.179 216.046,-147.873"/>
</g>
<!-- Node1476 -->
<g id="node12" class="node"><title>Node1476</title>
<g id="a_node12"><a xlink:href="lstrlib_8c.html#a42337c674d265175bcc2b2f3809c7339" target="_top" xlink:title=" ">
<polygon fill="white" stroke="black" points="105.823,-0 105.823,-20 160.177,-20 160.177,-0 105.823,-0"/>
<text text-anchor="middle" x="133" y="-6" font-family="Helvetica,sans-Serif" font-size="10.00">str_gsub</text>
</a>
</g>
</g>
<!-- Node1466&#45;&gt;Node1476 -->
<g id="edge15" class="edge"><title>Node1466&#45;&gt;Node1476</title>
<path fill="none" stroke="midnightblue" d="M223.091,-145.62C216.603,-116.596 201.12,-63.1014 170,-29 166.856,-25.5547 162.94,-22.623 158.86,-20.1691"/>
<polygon fill="midnightblue" stroke="midnightblue" points="219.743,-146.71 225.215,-155.782 226.595,-145.278 219.743,-146.71"/>
</g>
<!-- Node1467&#45;&gt;Node1466 -->
<g id="edge3" class="edge"><title>Node1467&#45;&gt;Node1466</title>
<path fill="none" stroke="midnightblue" d="M176.996,-227.328C196.933,-210.499 214.785,-189.401 222.703,-176.264"/>
<polygon fill="midnightblue" stroke="midnightblue" points="174.572,-224.786 168.965,-233.776 178.954,-230.245 174.572,-224.786"/>
</g>
<!-- Node1468&#45;&gt;Node1466 -->
<g id="edge5" class="edge"><title>Node1468&#45;&gt;Node1466</title>
<path fill="none" stroke="midnightblue" d="M177.946,-193.312C191.313,-187.801 204.962,-181.427 214.458,-176.048"/>
<polygon fill="midnightblue" stroke="midnightblue" points="176.32,-190.192 168.326,-197.145 178.912,-196.695 176.32,-190.192"/>
</g>
<!-- Node1469&#45;&gt;Node1466 -->
<g id="edge7" class="edge"><title>Node1469&#45;&gt;Node1466</title>
<path fill="none" stroke="midnightblue" d="M180.493,-172.75C189.577,-172.75 198.662,-172.407 206.36,-171.72"/>
<polygon fill="midnightblue" stroke="midnightblue" points="180.359,-169.248 170.31,-172.604 180.259,-176.247 180.359,-169.248"/>
</g>
<!-- Node1470&#45;&gt;Node1466 -->
<g id="edge9" class="edge"><title>Node1470&#45;&gt;Node1466</title>
<path fill="none" stroke="midnightblue" d="M155.788,-141.956C171.061,-149.634 191.347,-158.108 206.36,-163.065"/>
<polygon fill="midnightblue" stroke="midnightblue" points="157.056,-138.666 146.582,-137.07 153.774,-144.85 157.056,-138.666"/>
</g>
<!-- Node1472 -->
<g id="node8" class="node"><title>Node1472</title>
<g id="a_node8"><a xlink:href="lstrlib_8c.html#a362a4bc9ba81ce87253cc3d74f015808" target="_top" xlink:title=" ">
<polygon fill="white" stroke="black" points="5.60352,-117 5.60352,-137 54.3965,-137 54.3965,-117 5.60352,-117"/>
<text text-anchor="middle" x="30" y="-123" font-family="Helvetica,sans-Serif" font-size="10.00">str_find</text>
</a>
</g>
</g>
<!-- Node1471&#45;&gt;Node1472 -->
<g id="edge11" class="edge"><title>Node1471&#45;&gt;Node1472</title>
<path fill="none" stroke="midnightblue" d="M96.6563,-101.648C82.6952,-107.038 67.0309,-113.087 54.5048,-117.924"/>
<polygon fill="midnightblue" stroke="midnightblue" points="97.9221,-104.911 105.99,-98.0435 95.4005,-98.3807 97.9221,-104.911"/>
</g>
<!-- Node1473 -->
<g id="node9" class="node"><title>Node1473</title>
<g id="a_node9"><a xlink:href="lstrlib_8c.html#a4b605e43b8f5738db9eae902bbc00f00" target="_top" xlink:title=" ">
<polygon fill="white" stroke="black" points="0.0493164,-78 0.0493164,-98 59.9507,-98 59.9507,-78 0.0493164,-78"/>
<text text-anchor="middle" x="30" y="-84" font-family="Helvetica,sans-Serif" font-size="10.00">str_match</text>
</a>
</g>
</g>
<!-- Node1471&#45;&gt;Node1473 -->
<g id="edge12" class="edge"><title>Node1471&#45;&gt;Node1473</title>
<path fill="none" stroke="midnightblue" d="M87.3437,-88C78.1706,-88 68.7367,-88 60.2748,-88"/>
<polygon fill="midnightblue" stroke="midnightblue" points="87.5241,-91.5001 97.524,-88 87.524,-84.5001 87.5241,-91.5001"/>
</g>
<!-- Node1475 -->
<g id="node11" class="node"><title>Node1475</title>
<g id="a_node11"><a xlink:href="lstrlib_8c.html#ab55a72bb412d6186c82fd75de44cd031" target="_top" xlink:title=" ">
<polygon fill="white" stroke="black" points="5.60352,-39 5.60352,-59 54.3965,-59 54.3965,-39 5.60352,-39"/>
<text text-anchor="middle" x="30" y="-45" font-family="Helvetica,sans-Serif" font-size="10.00">gmatch</text>
</a>
</g>
</g>
<!-- Node1474&#45;&gt;Node1475 -->
<g id="edge14" class="edge"><title>Node1474&#45;&gt;Node1475</title>
<path fill="none" stroke="midnightblue" d="M87.3158,-49C76.0074,-49 64.3047,-49 54.5167,-49"/>
<polygon fill="midnightblue" stroke="midnightblue" points="87.5241,-52.5001 97.524,-49 87.524,-45.5001 87.5241,-52.5001"/>
</g>
</g>
</svg>
