<?xml version="1.0" encoding="UTF-8" standalone="no"?>
<!DOCTYPE svg PUBLIC "-//W3C//DTD SVG 1.1//EN"
 "http://www.w3.org/Graphics/SVG/1.1/DTD/svg11.dtd">
<!-- Generated by graphviz version 2.30.1 (20130221.2233)
 -->
<!-- Title: getoption Pages: 1 -->
<svg width="270pt" height="106pt"
 viewBox="0.00 0.00 270.00 106.00" xmlns="http://www.w3.org/2000/svg" xmlns:xlink="http://www.w3.org/1999/xlink">
<g id="graph0" class="graph" transform="scale(1 1) rotate(0) translate(4 102)">
<title>getoption</title>
<polygon fill="white" stroke="white" points="-4,5 -4,-102 267,-102 267,5 -4,5"/>
<!-- Node3988 -->
<g id="node1" class="node"><title>Node3988</title>
<g id="a_node1"><a xlink:title=" ">
<polygon fill="#bfbfbf" stroke="black" points="204.426,-39 204.426,-59 261.574,-59 261.574,-39 204.426,-39"/>
<text text-anchor="middle" x="233" y="-45" font-family="Helvetica,sans-Serif" font-size="10.00">getoption</text>
</a>
</g>
</g>
<!-- Node3989 -->
<g id="node2" class="node"><title>Node3989</title>
<g id="a_node2"><a xlink:href="lstrlib_8c.html#a22b9520cbe8f1b1b493e107acfa6a711" target="_top" xlink:title=" ">
<polygon fill="white" stroke="black" points="108.596,-39 108.596,-59 167.404,-59 167.404,-39 108.596,-39"/>
<text text-anchor="middle" x="138" y="-45" font-family="Helvetica,sans-Serif" font-size="10.00">getdetails</text>
</a>
</g>
</g>
<!-- Node3988&#45;&gt;Node3989 -->
<g id="edge1" class="edge"><title>Node3988&#45;&gt;Node3989</title>
<path fill="none" stroke="midnightblue" d="M194.227,-49C185.364,-49 176.063,-49 167.674,-49"/>
<polygon fill="midnightblue" stroke="midnightblue" points="194.349,-52.5001 204.349,-49 194.349,-45.5001 194.349,-52.5001"/>
</g>
<!-- Node3990 -->
<g id="node3" class="node"><title>Node3990</title>
<g id="a_node3"><a xlink:href="lstrlib_8c.html#abcf8553ae8937fd4f4bf85c72f528710" target="_top" xlink:title=" ">
<polygon fill="white" stroke="black" points="9.10352,-78 9.10352,-98 62.8965,-98 62.8965,-78 9.10352,-78"/>
<text text-anchor="middle" x="36" y="-84" font-family="Helvetica,sans-Serif" font-size="10.00">str_pack</text>
</a>
</g>
</g>
<!-- Node3989&#45;&gt;Node3990 -->
<g id="edge2" class="edge"><title>Node3989&#45;&gt;Node3990</title>
<path fill="none" stroke="midnightblue" d="M101.742,-62.7506C88.8631,-67.7734 74.551,-73.3551 62.6652,-77.9906"/>
<polygon fill="midnightblue" stroke="midnightblue" points="103.203,-65.9378 111.248,-59.0435 100.659,-59.4162 103.203,-65.9378"/>
</g>
<!-- Node3991 -->
<g id="node4" class="node"><title>Node3991</title>
<g id="a_node4"><a xlink:href="lstrlib_8c.html#ac548dd917c53c0c6d13518ec3ecc56ee" target="_top" xlink:title=" ">
<polygon fill="white" stroke="black" points="0.211914,-39 0.211914,-59 71.7881,-59 71.7881,-39 0.211914,-39"/>
<text text-anchor="middle" x="36" y="-45" font-family="Helvetica,sans-Serif" font-size="10.00">str_packsize</text>
</a>
</g>
</g>
<!-- Node3989&#45;&gt;Node3991 -->
<g id="edge3" class="edge"><title>Node3989&#45;&gt;Node3991</title>
<path fill="none" stroke="midnightblue" d="M98.1578,-49C89.5582,-49 80.4946,-49 72.0564,-49"/>
<polygon fill="midnightblue" stroke="midnightblue" points="98.344,-52.5001 108.344,-49 98.344,-45.5001 98.344,-52.5001"/>
</g>
<!-- Node3992 -->
<g id="node5" class="node"><title>Node3992</title>
<g id="a_node5"><a xlink:href="lstrlib_8c.html#a3f3c1925e7829cbe972a744fa9168ec3" target="_top" xlink:title=" ">
<polygon fill="white" stroke="black" points="3.54199,-0 3.54199,-20 68.458,-20 68.458,-0 3.54199,-0"/>
<text text-anchor="middle" x="36" y="-6" font-family="Helvetica,sans-Serif" font-size="10.00">str_unpack</text>
</a>
</g>
</g>
<!-- Node3989&#45;&gt;Node3992 -->
<g id="edge4" class="edge"><title>Node3989&#45;&gt;Node3992</title>
<path fill="none" stroke="midnightblue" d="M101.742,-35.2494C88.8631,-30.2266 74.551,-24.6449 62.6652,-20.0094"/>
<polygon fill="midnightblue" stroke="midnightblue" points="100.659,-38.5838 111.248,-38.9565 103.203,-32.0622 100.659,-38.5838"/>
</g>
</g>
</svg>
