<?xml version="1.0" encoding="UTF-8" standalone="no"?>
<!DOCTYPE svg PUBLIC "-//W3C//DTD SVG 1.1//EN"
 "http://www.w3.org/Graphics/SVG/1.1/DTD/svg11.dtd">
<!-- Generated by graphviz version 2.30.1 (20130221.2233)
 -->
<!-- Title: libraries/AP_Scripting/lua/src/ltablib.c Pages: 1 -->
<!--zoomable 332 -->
<svg id="main" version="1.1" xmlns="http://www.w3.org/2000/svg" xmlns:xlink="http://www.w3.org/1999/xlink" xml:space="preserve" onload="init(evt)">
<style type="text/css"><![CDATA[
.edge:hover path { stroke: red; }
.edge:hover polygon { stroke: red; fill: red; }
]]></style>
<script type="text/javascript"><![CDATA[
var edges = document.getElementsByTagName('g');
if (edges && edges.length) {
  for (var i=0;i<edges.length;i++) {
    if (edges[i].id.substr(0,4)=='edge') {
      edges[i].setAttribute('class','edge');
    }
  }
}
]]></script>
        <defs>
                <circle id="rim" cx="0" cy="0" r="7"/>
                <circle id="rim2" cx="0" cy="0" r="3.5"/>
                <g id="zoomPlus">
                        <use xlink:href="#rim" fill="#404040">
                                <set attributeName="fill" to="#808080" begin="zoomplus.mouseover" end="zoomplus.mouseout"/>
                        </use>
                        <path d="M-4,0h8M0,-4v8" fill="none" stroke="white" stroke-width="1.5" pointer-events="none"/>
                </g>
                <g id="zoomMin">
                        <use xlink:href="#rim" fill="#404040">
                                <set attributeName="fill" to="#808080" begin="zoomminus.mouseover" end="zoomminus.mouseout"/>
                        </use>
                        <path d="M-4,0h8" fill="none" stroke="white" stroke-width="1.5" pointer-events="none"/>
                </g>
                <g id="dirArrow">
                        <path fill="none" stroke="white" stroke-width="1.5" d="M0,-3.0v7 M-2.5,-0.5L0,-3.0L2.5,-0.5"/>
                </g>
               <g id="resetDef">
                       <use xlink:href="#rim2" fill="#404040">
                               <set attributeName="fill" to="#808080" begin="reset.mouseover" end="reset.mouseout"/>
                       </use>
               </g>
        </defs>

<script type="text/javascript">
var viewWidth = 652;
var viewHeight = 332;
var sectionId = 'dynsection-0';
</script>
<script xlink:href="svgpan.js"/>
<svg id="graph" class="graph">
<g id="viewport">
<title>libraries/AP_Scripting/lua/src/ltablib.c</title>
<polygon fill="white" stroke="white" points="-4,5 -4,-328 649,-328 649,5 -4,5"/>
<!-- Node0 -->
<g id="node1" class="node"><title>Node0</title>
<g id="a_node1"><a xlink:title=" ">
<polygon fill="#bfbfbf" stroke="black" points="268.202,-291 268.202,-323 379.798,-323 379.798,-291 268.202,-291"/>
<text text-anchor="start" x="276.202" y="-309" font-family="Helvetica,sans-Serif" font-size="10.00">libraries/AP_Scripting</text>
<text text-anchor="middle" x="324" y="-297" font-family="Helvetica,sans-Serif" font-size="10.00">/lua/src/ltablib.c</text>
</a>
</g>
</g>
<!-- Node1 -->
<g id="node2" class="node"><title>Node1</title>
<g id="a_node2"><a xlink:href="lprefix_8h.html" target="_top" xlink:title=" ">
<polygon fill="white" stroke="black" points="-0.507324,-233 -0.507324,-253 50.5073,-253 50.5073,-233 -0.507324,-233"/>
<text text-anchor="middle" x="25" y="-239" font-family="Helvetica,sans-Serif" font-size="10.00">lprefix.h</text>
</a>
</g>
</g>
<!-- Node0&#45;&gt;Node1 -->
<g id="edge1" class="edge"><title>Node0&#45;&gt;Node1</title>
<path fill="none" stroke="midnightblue" d="M268.012,-295.544C215.446,-285.542 134.685,-269.697 65,-254 63.5597,-253.676 62.0919,-253.339 60.6103,-252.993"/>
<polygon fill="midnightblue" stroke="midnightblue" points="61.3192,-249.564 50.7785,-250.633 59.6854,-256.37 61.3192,-249.564"/>
</g>
<!-- Node2 -->
<g id="node3" class="node"><title>Node2</title>
<g id="a_node3"><a xlink:title=" ">
<polygon fill="white" stroke="#bfbfbf" points="83.4434,-59 83.4434,-79 130.557,-79 130.557,-59 83.4434,-59"/>
<text text-anchor="middle" x="107" y="-65" font-family="Helvetica,sans-Serif" font-size="10.00">limits.h</text>
</a>
</g>
</g>
<!-- Node0&#45;&gt;Node2 -->
<g id="edge2" class="edge"><title>Node0&#45;&gt;Node2</title>
<path fill="none" stroke="midnightblue" d="M282.55,-290.954C226.801,-268.022 130.86,-218.317 98,-138 91.532,-122.191 95.1375,-102.75 99.5587,-88.7095"/>
<polygon fill="midnightblue" stroke="midnightblue" points="102.896,-89.7702 102.945,-79.1755 96.2999,-87.4272 102.896,-89.7702"/>
</g>
<!-- Node3 -->
<g id="node4" class="node"><title>Node3</title>
<g id="a_node4"><a xlink:title=" ">
<polygon fill="white" stroke="#bfbfbf" points="347.209,-59 347.209,-79 398.791,-79 398.791,-59 347.209,-59"/>
<text text-anchor="middle" x="373" y="-65" font-family="Helvetica,sans-Serif" font-size="10.00">stddef.h</text>
</a>
</g>
</g>
<!-- Node0&#45;&gt;Node3 -->
<g id="edge3" class="edge"><title>Node0&#45;&gt;Node3</title>
<path fill="none" stroke="midnightblue" d="M345.239,-290.967C379.947,-264.75 446.788,-206.837 465,-138 467.501,-128.547 470.14,-124.317 465,-116 452.737,-96.1574 429.035,-84.5878 408.761,-78.0148"/>
<polygon fill="midnightblue" stroke="midnightblue" points="409.731,-74.6518 399.149,-75.175 407.747,-81.3649 409.731,-74.6518"/>
</g>
<!-- Node4 -->
<g id="node5" class="node"><title>Node4</title>
<g id="a_node5"><a xlink:title=" ">
<polygon fill="white" stroke="#bfbfbf" points="534.604,-233 534.604,-253 583.396,-253 583.396,-233 534.604,-233"/>
<text text-anchor="middle" x="559" y="-239" font-family="Helvetica,sans-Serif" font-size="10.00">string.h</text>
</a>
</g>
</g>
<!-- Node0&#45;&gt;Node4 -->
<g id="edge4" class="edge"><title>Node0&#45;&gt;Node4</title>
<path fill="none" stroke="midnightblue" d="M379.99,-291.228C424.911,-279.377 486.536,-263.118 524.513,-253.099"/>
<polygon fill="midnightblue" stroke="midnightblue" points="525.787,-256.382 534.563,-250.447 524.001,-249.614 525.787,-256.382"/>
</g>
<!-- Node5 -->
<g id="node6" class="node"><title>Node5</title>
<g id="a_node6"><a xlink:href="lua_8h.html" target="_top" xlink:title=" ">
<polygon fill="white" stroke="black" points="226.158,-175 226.158,-195 263.842,-195 263.842,-175 226.158,-175"/>
<text text-anchor="middle" x="245" y="-181" font-family="Helvetica,sans-Serif" font-size="10.00">lua.h</text>
</a>
</g>
</g>
<!-- Node0&#45;&gt;Node5 -->
<g id="edge5" class="edge"><title>Node0&#45;&gt;Node5</title>
<path fill="none" stroke="midnightblue" d="M314.641,-290.858C305.285,-275.816 290.4,-252.15 277,-232 270.67,-222.481 263.41,-212.01 257.406,-203.466"/>
<polygon fill="midnightblue" stroke="midnightblue" points="260.117,-201.236 251.489,-195.087 254.399,-205.274 260.117,-201.236"/>
</g>
<!-- Node8 -->
<g id="node9" class="node"><title>Node8</title>
<g id="a_node9"><a xlink:href="lauxlib_8h.html" target="_top" xlink:title=" ">
<polygon fill="white" stroke="black" points="324.655,-233 324.655,-253 377.345,-253 377.345,-233 324.655,-233"/>
<text text-anchor="middle" x="351" y="-239" font-family="Helvetica,sans-Serif" font-size="10.00">lauxlib.h</text>
</a>
</g>
</g>
<!-- Node0&#45;&gt;Node8 -->
<g id="edge11" class="edge"><title>Node0&#45;&gt;Node8</title>
<path fill="none" stroke="midnightblue" d="M330.536,-290.992C334.255,-282.451 338.946,-271.68 342.898,-262.606"/>
<polygon fill="midnightblue" stroke="midnightblue" points="346.17,-263.856 346.954,-253.29 339.753,-261.061 346.17,-263.856"/>
</g>
<!-- Node14 -->
<g id="node15" class="node"><title>Node14</title>
<g id="a_node15"><a xlink:href="lualib_8h.html" target="_top" xlink:title=" ">
<polygon fill="white" stroke="black" points="221.155,-233 221.155,-253 268.845,-253 268.845,-233 221.155,-233"/>
<text text-anchor="middle" x="245" y="-239" font-family="Helvetica,sans-Serif" font-size="10.00">lualib.h</text>
</a>
</g>
</g>
<!-- Node0&#45;&gt;Node14 -->
<g id="edge21" class="edge"><title>Node0&#45;&gt;Node14</title>
<path fill="none" stroke="midnightblue" d="M304.876,-290.992C292.824,-281.533 277.286,-269.338 265.059,-259.742"/>
<polygon fill="midnightblue" stroke="midnightblue" points="266.865,-256.711 256.838,-253.29 262.544,-262.218 266.865,-256.711"/>
</g>
<!-- Node15 -->
<g id="node16" class="node"><title>Node15</title>
<g id="a_node16"><a xlink:title=" ">
<polygon fill="white" stroke="#bfbfbf" points="601.384,-233 601.384,-253 644.616,-253 644.616,-233 601.384,-233"/>
<text text-anchor="middle" x="623" y="-239" font-family="Helvetica,sans-Serif" font-size="10.00">time.h</text>
</a>
</g>
</g>
<!-- Node0&#45;&gt;Node15 -->
<g id="edge23" class="edge"><title>Node0&#45;&gt;Node15</title>
<path fill="none" stroke="midnightblue" d="M379.87,-297.177C432.152,-288.467 512.549,-273.916 591.024,-254.014"/>
<polygon fill="midnightblue" stroke="midnightblue" points="592.265,-257.309 601.08,-251.432 590.524,-250.529 592.265,-257.309"/>
</g>
<!-- Node6 -->
<g id="node7" class="node"><title>Node6</title>
<g id="a_node7"><a xlink:title=" ">
<polygon fill="white" stroke="#bfbfbf" points="218.934,-117 218.934,-137 271.066,-137 271.066,-117 218.934,-117"/>
<text text-anchor="middle" x="245" y="-123" font-family="Helvetica,sans-Serif" font-size="10.00">stdarg.h</text>
</a>
</g>
</g>
<!-- Node5&#45;&gt;Node6 -->
<g id="edge6" class="edge"><title>Node5&#45;&gt;Node6</title>
<path fill="none" stroke="midnightblue" d="M245,-174.753C245,-167.25 245,-156.424 245,-147.078"/>
<polygon fill="midnightblue" stroke="midnightblue" points="248.5,-147.075 245,-137.075 241.5,-147.075 248.5,-147.075"/>
</g>
<!-- Node5&#45;&gt;Node3 -->
<g id="edge7" class="edge"><title>Node5&#45;&gt;Node3</title>
<path fill="none" stroke="midnightblue" d="M233.764,-174.618C218.74,-160.933 195.577,-135.057 210,-116 210.494,-115.347 289.384,-93.2853 337.217,-79.9562"/>
<polygon fill="midnightblue" stroke="midnightblue" points="338.22,-83.3104 346.914,-77.2554 336.341,-76.5671 338.22,-83.3104"/>
</g>
<!-- Node7 -->
<g id="node8" class="node"><title>Node7</title>
<g id="a_node8"><a xlink:href="luaconf_8h.html" target="_top" xlink:title=" ">
<polygon fill="white" stroke="black" points="106.707,-117 106.707,-137 163.293,-137 163.293,-117 106.707,-117"/>
<text text-anchor="middle" x="135" y="-123" font-family="Helvetica,sans-Serif" font-size="10.00">luaconf.h</text>
</a>
</g>
</g>
<!-- Node5&#45;&gt;Node7 -->
<g id="edge8" class="edge"><title>Node5&#45;&gt;Node7</title>
<path fill="none" stroke="midnightblue" d="M226.836,-174.753C209.136,-165.742 182.016,-151.935 161.83,-141.659"/>
<polygon fill="midnightblue" stroke="midnightblue" points="163.326,-138.493 152.826,-137.075 160.15,-144.731 163.326,-138.493"/>
</g>
<!-- Node7&#45;&gt;Node2 -->
<g id="edge9" class="edge"><title>Node7&#45;&gt;Node2</title>
<path fill="none" stroke="midnightblue" d="M130.376,-116.753C126.503,-109.006 120.857,-97.7142 116.084,-88.1688"/>
<polygon fill="midnightblue" stroke="midnightblue" points="119.14,-86.4542 111.538,-79.0752 112.879,-89.5847 119.14,-86.4542"/>
</g>
<!-- Node7&#45;&gt;Node3 -->
<g id="edge10" class="edge"><title>Node7&#45;&gt;Node3</title>
<path fill="none" stroke="midnightblue" d="M163.455,-119.174C167.984,-118.103 172.619,-117.014 177,-116 248.01,-99.5584 266.308,-97.7596 337,-80 337.102,-79.9743 337.205,-79.9486 337.307,-79.9227"/>
<polygon fill="midnightblue" stroke="midnightblue" points="338.297,-83.2818 347.085,-77.3642 336.524,-76.5098 338.297,-83.2818"/>
</g>
<!-- Node8&#45;&gt;Node3 -->
<g id="edge12" class="edge"><title>Node8&#45;&gt;Node3</title>
<path fill="none" stroke="midnightblue" d="M364.927,-232.84C387.845,-216.825 432.693,-181.284 450,-138 453.63,-128.921 454.826,-124.504 450,-116 441.026,-100.186 424.22,-89.2282 408.592,-81.9865"/>
<polygon fill="midnightblue" stroke="midnightblue" points="409.667,-78.6403 399.095,-77.9475 406.927,-85.082 409.667,-78.6403"/>
</g>
<!-- Node9 -->
<g id="node10" class="node"><title>Node9</title>
<g id="a_node10"><a xlink:href="stdio_8h.html" target="_top" xlink:title=" ">
<polygon fill="white" stroke="black" points="328.269,-175 328.269,-195 373.731,-195 373.731,-175 328.269,-175"/>
<text text-anchor="middle" x="351" y="-181" font-family="Helvetica,sans-Serif" font-size="10.00">stdio.h</text>
</a>
</g>
</g>
<!-- Node8&#45;&gt;Node9 -->
<g id="edge13" class="edge"><title>Node8&#45;&gt;Node9</title>
<path fill="none" stroke="midnightblue" d="M351,-232.753C351,-225.25 351,-214.424 351,-205.078"/>
<polygon fill="midnightblue" stroke="midnightblue" points="354.5,-205.075 351,-195.075 347.5,-205.075 354.5,-205.075"/>
</g>
<!-- Node8&#45;&gt;Node5 -->
<g id="edge20" class="edge"><title>Node8&#45;&gt;Node5</title>
<path fill="none" stroke="midnightblue" d="M333.496,-232.753C316.517,-223.783 290.542,-210.06 271.119,-199.799"/>
<polygon fill="midnightblue" stroke="midnightblue" points="272.655,-196.652 262.178,-195.075 269.385,-202.841 272.655,-196.652"/>
</g>
<!-- Node10 -->
<g id="node11" class="node"><title>Node10</title>
<g id="a_node11"><a xlink:href="posix_8h.html" target="_top" xlink:title=" ">
<polygon fill="white" stroke="black" points="289.158,-117 289.158,-137 336.842,-137 336.842,-117 289.158,-117"/>
<text text-anchor="middle" x="313" y="-123" font-family="Helvetica,sans-Serif" font-size="10.00">posix.h</text>
</a>
</g>
</g>
<!-- Node9&#45;&gt;Node10 -->
<g id="edge14" class="edge"><title>Node9&#45;&gt;Node10</title>
<path fill="none" stroke="midnightblue" d="M344.725,-174.753C339.358,-166.843 331.482,-155.237 324.921,-145.568"/>
<polygon fill="midnightblue" stroke="midnightblue" points="327.669,-143.385 319.158,-137.075 321.877,-147.315 327.669,-143.385"/>
</g>
<!-- Node9&#45;&gt;Node6 -->
<g id="edge17" class="edge"><title>Node9&#45;&gt;Node6</title>
<path fill="none" stroke="midnightblue" d="M333.496,-174.753C316.517,-165.783 290.542,-152.06 271.119,-141.799"/>
<polygon fill="midnightblue" stroke="midnightblue" points="272.655,-138.652 262.178,-137.075 269.385,-144.841 272.655,-138.652"/>
</g>
<!-- Node13 -->
<g id="node14" class="node"><title>Node13</title>
<g id="a_node14"><a xlink:title=" ">
<polygon fill="white" stroke="#bfbfbf" points="392.879,-117 392.879,-137 441.121,-137 441.121,-117 392.879,-117"/>
<text text-anchor="middle" x="417" y="-123" font-family="Helvetica,sans-Serif" font-size="10.00">stdint.h</text>
</a>
</g>
</g>
<!-- Node9&#45;&gt;Node13 -->
<g id="edge18" class="edge"><title>Node9&#45;&gt;Node13</title>
<path fill="none" stroke="midnightblue" d="M361.899,-174.753C371.798,-166.353 386.608,-153.787 398.381,-143.798"/>
<polygon fill="midnightblue" stroke="midnightblue" points="400.944,-146.214 406.304,-137.075 396.415,-140.876 400.944,-146.214"/>
</g>
<!-- Node9&#45;&gt;Node3 -->
<g id="edge19" class="edge"><title>Node9&#45;&gt;Node3</title>
<path fill="none" stroke="midnightblue" d="M352.8,-174.671C356.396,-156.041 364.529,-113.898 369.306,-89.1428"/>
<polygon fill="midnightblue" stroke="midnightblue" points="372.778,-89.6215 371.236,-79.1394 365.905,-88.295 372.778,-89.6215"/>
</g>
<!-- Node11 -->
<g id="node12" class="node"><title>Node11</title>
<g id="a_node12"><a xlink:href="board_8h.html" target="_top" xlink:title=" ">
<polygon fill="white" stroke="black" points="279.042,-59 279.042,-79 328.958,-79 328.958,-59 279.042,-59"/>
<text text-anchor="middle" x="304" y="-65" font-family="Helvetica,sans-Serif" font-size="10.00">board.h</text>
</a>
</g>
</g>
<!-- Node10&#45;&gt;Node11 -->
<g id="edge15" class="edge"><title>Node10&#45;&gt;Node11</title>
<path fill="none" stroke="midnightblue" d="M311.514,-116.753C310.308,-109.25 308.568,-98.4238 307.066,-89.0781"/>
<polygon fill="midnightblue" stroke="midnightblue" points="310.501,-88.3931 305.459,-79.0752 303.59,-89.5039 310.501,-88.3931"/>
</g>
<!-- Node12 -->
<g id="node13" class="node"><title>Node12</title>
<g id="a_node13"><a xlink:title=" ">
<polygon fill="white" stroke="#bfbfbf" points="278.488,-1 278.488,-21 329.512,-21 329.512,-1 278.488,-1"/>
<text text-anchor="middle" x="304" y="-7" font-family="Helvetica,sans-Serif" font-size="10.00">hwdef.h</text>
</a>
</g>
</g>
<!-- Node11&#45;&gt;Node12 -->
<g id="edge16" class="edge"><title>Node11&#45;&gt;Node12</title>
<path fill="none" stroke="midnightblue" d="M304,-58.7527C304,-51.2504 304,-40.4238 304,-31.0781"/>
<polygon fill="midnightblue" stroke="midnightblue" points="307.5,-31.0752 304,-21.0752 300.5,-31.0752 307.5,-31.0752"/>
</g>
<!-- Node14&#45;&gt;Node5 -->
<g id="edge22" class="edge"><title>Node14&#45;&gt;Node5</title>
<path fill="none" stroke="midnightblue" d="M245,-232.753C245,-225.25 245,-214.424 245,-205.078"/>
<polygon fill="midnightblue" stroke="midnightblue" points="248.5,-205.075 245,-195.075 241.5,-205.075 248.5,-205.075"/>
</g>
</g>
</svg>
        <g id="navigator" transform="translate(0 0)" fill="#404254">
                <rect fill="#f2f5e9" fill-opacity="0.5" stroke="#606060" stroke-width=".5" x="0" y="0" width="60" height="60"/>
                <use id="zoomplus" xlink:href="#zoomPlus" x="17" y="9" onmousedown="handleZoom(evt,'in')"/>
                <use id="zoomminus" xlink:href="#zoomMin" x="42" y="9" onmousedown="handleZoom(evt,'out')"/>
                <use id="reset" xlink:href="#resetDef" x="30" y="36" onmousedown="handleReset()"/>
                <g id="arrowUp" xlink:href="#dirArrow" transform="translate(30 24)" onmousedown="handlePan(0,-1)">
                  <use xlink:href="#rim" fill="#404040">
                        <set attributeName="fill" to="#808080" begin="arrowUp.mouseover" end="arrowUp.mouseout"/>
                  </use>
                  <path fill="none" stroke="white" stroke-width="1.5" d="M0,-3.0v7 M-2.5,-0.5L0,-3.0L2.5,-0.5"/>
                </g>
                <g id="arrowRight" xlink:href="#dirArrow" transform="rotate(90) translate(36 -43)" onmousedown="handlePan(1,0)">
                  <use xlink:href="#rim" fill="#404040">
                        <set attributeName="fill" to="#808080" begin="arrowRight.mouseover" end="arrowRight.mouseout"/>
                  </use>
                  <path fill="none" stroke="white" stroke-width="1.5" d="M0,-3.0v7 M-2.5,-0.5L0,-3.0L2.5,-0.5"/>
                </g>
                <g id="arrowDown" xlink:href="#dirArrow" transform="rotate(180) translate(-30 -48)" onmousedown="handlePan(0,1)">
                  <use xlink:href="#rim" fill="#404040">
                        <set attributeName="fill" to="#808080" begin="arrowDown.mouseover" end="arrowDown.mouseout"/>
                  </use>
                  <path fill="none" stroke="white" stroke-width="1.5" d="M0,-3.0v7 M-2.5,-0.5L0,-3.0L2.5,-0.5"/>
                </g>
                <g id="arrowLeft" xlink:href="#dirArrow" transform="rotate(270) translate(-36 17)" onmousedown="handlePan(-1,0)">
                  <use xlink:href="#rim" fill="#404040">
                        <set attributeName="fill" to="#808080" begin="arrowLeft.mouseover" end="arrowLeft.mouseout"/>
                  </use>
                  <path fill="none" stroke="white" stroke-width="1.5" d="M0,-3.0v7 M-2.5,-0.5L0,-3.0L2.5,-0.5"/>
                </g>
        </g>
        <svg viewBox="0 0 15 15" width="100%" height="30px" preserveAspectRatio="xMaxYMin meet">
         <g id="arrow_out" transform="scale(0.3 0.3)">
          <a xlink:href="ltablib_8c__incl_org.svg" target="_base">
           <rect id="button" ry="5" rx="5" y="6" x="6" height="38" width="38"
                fill="#f2f5e9" fill-opacity="0.5" stroke="#606060" stroke-width="1.0"/>
           <path id="arrow"
             d="M 11.500037,31.436501 C 11.940474,20.09759 22.043105,11.32322 32.158766,21.979434 L 37.068811,17.246167 C 37.068811,17.246167 37.088388,32 37.088388,32 L 22.160133,31.978069 C 22.160133,31.978069 26.997745,27.140456 26.997745,27.140456 C 18.528582,18.264221 13.291696,25.230495 11.500037,31.436501 z"
             style="fill:#404040;"/>
          </a>
         </g>
        </svg>
</svg>
