<?xml version="1.0" encoding="UTF-8" standalone="no"?>
<!DOCTYPE svg PUBLIC "-//W3C//DTD SVG 1.1//EN"
 "http://www.w3.org/Graphics/SVG/1.1/DTD/svg11.dtd">
<!-- Generated by graphviz version 2.30.1 (20130221.2233)
 -->
<!-- Title: libraries/AP_Scripting/lua_scripts.h Pages: 1 -->
<svg width="248pt" height="112pt"
 viewBox="0.00 0.00 248.00 112.00" xmlns="http://www.w3.org/2000/svg" xmlns:xlink="http://www.w3.org/1999/xlink">
<g id="graph0" class="graph" transform="scale(1 1) rotate(0) translate(4 108)">
<title>libraries/AP_Scripting/lua_scripts.h</title>
<polygon fill="white" stroke="white" points="-4,5 -4,-108 245,-108 245,5 -4,5"/>
<!-- Node42 -->
<g id="node1" class="node"><title>Node42</title>
<g id="a_node1"><a xlink:title=" ">
<polygon fill="#bfbfbf" stroke="black" points="64.2021,-71 64.2021,-103 175.798,-103 175.798,-71 64.2021,-71"/>
<text text-anchor="start" x="72.2021" y="-89" font-family="Helvetica,sans-Serif" font-size="10.00">libraries/AP_Scripting</text>
<text text-anchor="middle" x="120" y="-77" font-family="Helvetica,sans-Serif" font-size="10.00">/lua_scripts.h</text>
</a>
</g>
</g>
<!-- Node43 -->
<g id="node2" class="node"><title>Node43</title>
<g id="a_node2"><a xlink:href="AP__Scripting_8cpp.html" target="_top" xlink:title=" ">
<polygon fill="white" stroke="black" points="-0.797852,-1 -0.797852,-33 110.798,-33 110.798,-1 -0.797852,-1"/>
<text text-anchor="start" x="7.20215" y="-19" font-family="Helvetica,sans-Serif" font-size="10.00">libraries/AP_Scripting</text>
<text text-anchor="middle" x="55" y="-7" font-family="Helvetica,sans-Serif" font-size="10.00">/AP_Scripting.cpp</text>
</a>
</g>
</g>
<!-- Node42&#45;&gt;Node43 -->
<g id="edge1" class="edge"><title>Node42&#45;&gt;Node43</title>
<path fill="none" stroke="midnightblue" d="M98.5949,-63.6069C89.0096,-53.5793 77.9612,-42.0209 69.3853,-33.0492"/>
<polygon fill="midnightblue" stroke="midnightblue" points="96.1345,-66.0983 105.574,-70.9086 101.195,-61.2614 96.1345,-66.0983"/>
</g>
<!-- Node44 -->
<g id="node3" class="node"><title>Node44</title>
<g id="a_node3"><a xlink:href="lua__scripts_8cpp.html" target="_top" xlink:title=" ">
<polygon fill="white" stroke="black" points="129.202,-1 129.202,-33 240.798,-33 240.798,-1 129.202,-1"/>
<text text-anchor="start" x="137.202" y="-19" font-family="Helvetica,sans-Serif" font-size="10.00">libraries/AP_Scripting</text>
<text text-anchor="middle" x="185" y="-7" font-family="Helvetica,sans-Serif" font-size="10.00">/lua_scripts.cpp</text>
</a>
</g>
</g>
<!-- Node42&#45;&gt;Node44 -->
<g id="edge2" class="edge"><title>Node42&#45;&gt;Node44</title>
<path fill="none" stroke="midnightblue" d="M141.405,-63.6069C150.99,-53.5793 162.039,-42.0209 170.615,-33.0492"/>
<polygon fill="midnightblue" stroke="midnightblue" points="138.805,-61.2614 134.426,-70.9086 143.866,-66.0983 138.805,-61.2614"/>
</g>
</g>
</svg>
