<?xml version="1.0" encoding="UTF-8" standalone="no"?>
<!DOCTYPE svg PUBLIC "-//W3C//DTD SVG 1.1//EN"
 "http://www.w3.org/Graphics/SVG/1.1/DTD/svg11.dtd">
<!-- Generated by graphviz version 2.30.1 (20130221.2233)
 -->
<!-- Title: lua_rawgetp Pages: 1 -->
<!--zoomable 184 -->
<svg id="main" version="1.1" xmlns="http://www.w3.org/2000/svg" xmlns:xlink="http://www.w3.org/1999/xlink" xml:space="preserve" onload="init(evt)">
<style type="text/css"><![CDATA[
.edge:hover path { stroke: red; }
.edge:hover polygon { stroke: red; fill: red; }
]]></style>
<script type="text/javascript"><![CDATA[
var edges = document.getElementsByTagName('g');
if (edges && edges.length) {
  for (var i=0;i<edges.length;i++) {
    if (edges[i].id.substr(0,4)=='edge') {
      edges[i].setAttribute('class','edge');
    }
  }
}
]]></script>
        <defs>
                <circle id="rim" cx="0" cy="0" r="7"/>
                <circle id="rim2" cx="0" cy="0" r="3.5"/>
                <g id="zoomPlus">
                        <use xlink:href="#rim" fill="#404040">
                                <set attributeName="fill" to="#808080" begin="zoomplus.mouseover" end="zoomplus.mouseout"/>
                        </use>
                        <path d="M-4,0h8M0,-4v8" fill="none" stroke="white" stroke-width="1.5" pointer-events="none"/>
                </g>
                <g id="zoomMin">
                        <use xlink:href="#rim" fill="#404040">
                                <set attributeName="fill" to="#808080" begin="zoomminus.mouseover" end="zoomminus.mouseout"/>
                        </use>
                        <path d="M-4,0h8" fill="none" stroke="white" stroke-width="1.5" pointer-events="none"/>
                </g>
                <g id="dirArrow">
                        <path fill="none" stroke="white" stroke-width="1.5" d="M0,-3.0v7 M-2.5,-0.5L0,-3.0L2.5,-0.5"/>
                </g>
               <g id="resetDef">
                       <use xlink:href="#rim2" fill="#404040">
                               <set attributeName="fill" to="#808080" begin="reset.mouseover" end="reset.mouseout"/>
                       </use>
               </g>
        </defs>

<script type="text/javascript">
var viewWidth = 676;
var viewHeight = 184;
var sectionId = 'dynsection-43';
</script>
<script xlink:href="svgpan.js"/>
<svg id="graph" class="graph">
<g id="viewport">
<title>lua_rawgetp</title>
<polygon fill="white" stroke="white" points="-4,5 -4,-180 673,-180 673,5 -4,5"/>
<!-- Node4352 -->
<g id="node1" class="node"><title>Node4352</title>
<g id="a_node1"><a xlink:title=" ">
<polygon fill="#bfbfbf" stroke="black" points="-0.241211,-116 -0.241211,-136 70.2412,-136 70.2412,-116 -0.241211,-116"/>
<text text-anchor="middle" x="35" y="-122" font-family="Helvetica,sans-Serif" font-size="10.00">lua_rawgetp</text>
</a>
</g>
</g>
<!-- Node4353 -->
<g id="node2" class="node"><title>Node4353</title>
<g id="a_node2"><a xlink:href="lapi_8c.html#ae54b9bb381b32c86235a084984e40215" target="_top" xlink:title=" ">
<polygon fill="white" stroke="black" points="106.259,-136 106.259,-156 171.741,-156 171.741,-136 106.259,-136"/>
<text text-anchor="middle" x="139" y="-142" font-family="Helvetica,sans-Serif" font-size="10.00">index2addr</text>
</a>
</g>
</g>
<!-- Node4352&#45;&gt;Node4353 -->
<g id="edge1" class="edge"><title>Node4352&#45;&gt;Node4353</title>
<path fill="none" stroke="midnightblue" d="M70.2483,-132.715C78.5678,-134.347 87.5564,-136.109 96.1826,-137.801"/>
<polygon fill="midnightblue" stroke="midnightblue" points="95.594,-141.252 106.081,-139.741 96.941,-134.382 95.594,-141.252"/>
</g>
<!-- Node4354 -->
<g id="node3" class="node"><title>Node4354</title>
<g id="a_node3"><a xlink:href="ltable_8c.html#a8b4fce00d7db27ee9caac3d49863dea3" target="_top" xlink:title=" ">
<polygon fill="white" stroke="black" points="110.985,-97 110.985,-117 167.015,-117 167.015,-97 110.985,-97"/>
<text text-anchor="middle" x="139" y="-103" font-family="Helvetica,sans-Serif" font-size="10.00">luaH_get</text>
</a>
</g>
</g>
<!-- Node4352&#45;&gt;Node4354 -->
<g id="edge2" class="edge"><title>Node4352&#45;&gt;Node4354</title>
<path fill="none" stroke="midnightblue" d="M70.2483,-119.62C80.0418,-117.796 90.7625,-115.799 100.728,-113.943"/>
<polygon fill="midnightblue" stroke="midnightblue" points="101.579,-117.345 110.768,-112.073 100.297,-110.463 101.579,-117.345"/>
</g>
<!-- Node4355 -->
<g id="node4" class="node"><title>Node4355</title>
<g id="a_node4"><a xlink:href="ltable_8c.html#ae8a52507e1c8966d9cf3f2dd5a0c325f" target="_top" xlink:title=" ">
<polygon fill="white" stroke="black" points="208.315,-156 208.315,-176 297.685,-176 297.685,-156 208.315,-156"/>
<text text-anchor="middle" x="253" y="-162" font-family="Helvetica,sans-Serif" font-size="10.00">luaH_getshortstr</text>
</a>
</g>
</g>
<!-- Node4354&#45;&gt;Node4355 -->
<g id="edge3" class="edge"><title>Node4354&#45;&gt;Node4355</title>
<path fill="none" stroke="midnightblue" d="M156.526,-117.061C170.149,-125.213 190.076,-136.812 208,-146 211.594,-147.842 215.391,-149.698 219.189,-151.498"/>
<polygon fill="midnightblue" stroke="midnightblue" points="217.968,-154.79 228.513,-155.817 220.91,-148.438 217.968,-154.79"/>
</g>
<!-- Node4356 -->
<g id="node5" class="node"><title>Node4356</title>
<g id="a_node5"><a xlink:href="ltable_8c.html#ae142cefd44452389877c3e3187c7973e" target="_top" xlink:title=" ">
<polygon fill="white" stroke="black" points="219.705,-117 219.705,-137 286.295,-137 286.295,-117 219.705,-117"/>
<text text-anchor="middle" x="253" y="-123" font-family="Helvetica,sans-Serif" font-size="10.00">luaH_getint</text>
</a>
</g>
</g>
<!-- Node4354&#45;&gt;Node4356 -->
<g id="edge4" class="edge"><title>Node4354&#45;&gt;Node4356</title>
<path fill="none" stroke="midnightblue" d="M167.112,-111.841C179.823,-114.111 195.269,-116.869 209.483,-119.408"/>
<polygon fill="midnightblue" stroke="midnightblue" points="209.098,-122.894 219.558,-121.207 210.329,-116.003 209.098,-122.894"/>
</g>
<!-- Node4357 -->
<g id="node6" class="node"><title>Node4357</title>
<g id="a_node6"><a xlink:href="lvm_8c.html#acdf7e8db180808362a373d9b5484452e" target="_top" xlink:title=" ">
<polygon fill="white" stroke="black" points="212.754,-78 212.754,-98 293.246,-98 293.246,-78 212.754,-78"/>
<text text-anchor="middle" x="253" y="-84" font-family="Helvetica,sans-Serif" font-size="10.00">luaV_tointeger</text>
</a>
</g>
</g>
<!-- Node4354&#45;&gt;Node4357 -->
<g id="edge5" class="edge"><title>Node4354&#45;&gt;Node4357</title>
<path fill="none" stroke="midnightblue" d="M167.112,-102.401C177.733,-100.599 190.264,-98.4731 202.39,-96.416"/>
<polygon fill="midnightblue" stroke="midnightblue" points="203.156,-99.8362 212.429,-94.7129 201.985,-92.9348 203.156,-99.8362"/>
</g>
<!-- Node4364 -->
<g id="node13" class="node"><title>Node4364</title>
<g id="a_node13"><a xlink:href="ltable_8c.html#a4de8d73b4c27cd4f7cefa861e54caf37" target="_top" xlink:title=" ">
<polygon fill="white" stroke="black" points="221.65,-39 221.65,-59 284.35,-59 284.35,-39 221.65,-39"/>
<text text-anchor="middle" x="253" y="-45" font-family="Helvetica,sans-Serif" font-size="10.00">getgeneric</text>
</a>
</g>
</g>
<!-- Node4354&#45;&gt;Node4364 -->
<g id="edge12" class="edge"><title>Node4354&#45;&gt;Node4364</title>
<path fill="none" stroke="midnightblue" d="M157.115,-96.916C170.74,-89.0158 190.379,-77.9089 208,-69 211.791,-67.0833 215.803,-65.1426 219.801,-63.2622"/>
<polygon fill="midnightblue" stroke="midnightblue" points="221.377,-66.3899 228.992,-59.0241 218.446,-60.0332 221.377,-66.3899"/>
</g>
<!-- Node4358 -->
<g id="node7" class="node"><title>Node4358</title>
<g id="a_node7"><a xlink:href="lobject_8c.html#ab1956c979ca7ff39b07534390714505d" target="_top" xlink:title=" ">
<polygon fill="white" stroke="black" points="334.596,-78 334.596,-98 413.404,-98 413.404,-78 334.596,-78"/>
<text text-anchor="middle" x="374" y="-84" font-family="Helvetica,sans-Serif" font-size="10.00">luaO_str2num</text>
</a>
</g>
</g>
<!-- Node4357&#45;&gt;Node4358 -->
<g id="edge6" class="edge"><title>Node4357&#45;&gt;Node4358</title>
<path fill="none" stroke="midnightblue" d="M293.295,-88C303.247,-88 314.054,-88 324.406,-88"/>
<polygon fill="midnightblue" stroke="midnightblue" points="324.557,-91.5001 334.557,-88 324.557,-84.5001 324.557,-91.5001"/>
</g>
<!-- Node4359 -->
<g id="node8" class="node"><title>Node4359</title>
<g id="a_node8"><a xlink:href="lobject_8c.html#ac5f6271088cb629a2359a93c283dc6ce" target="_top" xlink:title=" ">
<polygon fill="white" stroke="black" points="471.493,-117 471.493,-137 522.507,-137 522.507,-117 471.493,-117"/>
<text text-anchor="middle" x="497" y="-123" font-family="Helvetica,sans-Serif" font-size="10.00">l_str2int</text>
</a>
</g>
</g>
<!-- Node4358&#45;&gt;Node4359 -->
<g id="edge7" class="edge"><title>Node4358&#45;&gt;Node4359</title>
<path fill="none" stroke="midnightblue" d="M406.161,-98.0435C423.135,-103.515 444.176,-110.297 461.627,-115.921"/>
<polygon fill="midnightblue" stroke="midnightblue" points="460.838,-119.344 471.43,-119.081 462.985,-112.682 460.838,-119.344"/>
</g>
<!-- Node4362 -->
<g id="node11" class="node"><title>Node4362</title>
<g id="a_node11"><a xlink:href="lobject_8c.html#a331ebab44d182775ef47eeebeeb58dbd" target="_top" xlink:title=" ">
<polygon fill="white" stroke="black" points="473.993,-78 473.993,-98 520.007,-98 520.007,-78 473.993,-78"/>
<text text-anchor="middle" x="497" y="-84" font-family="Helvetica,sans-Serif" font-size="10.00">l_str2d</text>
</a>
</g>
</g>
<!-- Node4358&#45;&gt;Node4362 -->
<g id="edge10" class="edge"><title>Node4358&#45;&gt;Node4362</title>
<path fill="none" stroke="midnightblue" d="M413.618,-88C429.802,-88 448.401,-88 463.826,-88"/>
<polygon fill="midnightblue" stroke="midnightblue" points="463.93,-91.5001 473.93,-88 463.93,-84.5001 463.93,-91.5001"/>
</g>
<!-- Node4360 -->
<g id="node9" class="node"><title>Node4360</title>
<g id="a_node9"><a xlink:href="lobject_8c.html#a3234b1ccb9cfbbd0892dcc6190a45876" target="_top" xlink:title=" ">
<polygon fill="white" stroke="black" points="604.047,-156 604.047,-176 643.953,-176 643.953,-156 604.047,-156"/>
<text text-anchor="middle" x="624" y="-162" font-family="Helvetica,sans-Serif" font-size="10.00">isneg</text>
</a>
</g>
</g>
<!-- Node4359&#45;&gt;Node4360 -->
<g id="edge8" class="edge"><title>Node4359&#45;&gt;Node4360</title>
<path fill="none" stroke="midnightblue" d="M522.696,-134.705C543.211,-141.106 572.431,-150.222 594.045,-156.966"/>
<polygon fill="midnightblue" stroke="midnightblue" points="593.088,-160.334 603.676,-159.971 595.173,-153.651 593.088,-160.334"/>
</g>
<!-- Node4361 -->
<g id="node10" class="node"><title>Node4361</title>
<g id="a_node10"><a xlink:href="lobject_8c.html#ab73b1325bd3b1a6f9affc08fb46c07ec" target="_top" xlink:title=" ">
<polygon fill="white" stroke="black" points="579.862,-117 579.862,-137 668.138,-137 668.138,-117 579.862,-117"/>
<text text-anchor="middle" x="624" y="-123" font-family="Helvetica,sans-Serif" font-size="10.00">luaO_hexavalue</text>
</a>
</g>
</g>
<!-- Node4359&#45;&gt;Node4361 -->
<g id="edge9" class="edge"><title>Node4359&#45;&gt;Node4361</title>
<path fill="none" stroke="midnightblue" d="M522.696,-127C536.13,-127 553.297,-127 569.616,-127"/>
<polygon fill="midnightblue" stroke="midnightblue" points="569.626,-130.5 579.626,-127 569.626,-123.5 569.626,-130.5"/>
</g>
<!-- Node4363 -->
<g id="node12" class="node"><title>Node4363</title>
<g id="a_node12"><a xlink:href="lobject_8c.html#a58b5660686590a5ed833cc0f89fbe832" target="_top" xlink:title=" ">
<polygon fill="white" stroke="black" points="594.601,-78 594.601,-98 653.399,-98 653.399,-78 594.601,-78"/>
<text text-anchor="middle" x="624" y="-84" font-family="Helvetica,sans-Serif" font-size="10.00">l_str2dloc</text>
</a>
</g>
</g>
<!-- Node4362&#45;&gt;Node4363 -->
<g id="edge11" class="edge"><title>Node4362&#45;&gt;Node4363</title>
<path fill="none" stroke="midnightblue" d="M520.06,-88C537.807,-88 563.179,-88 584.293,-88"/>
<polygon fill="midnightblue" stroke="midnightblue" points="584.572,-91.5001 594.572,-88 584.572,-84.5001 584.572,-91.5001"/>
</g>
<!-- Node4365 -->
<g id="node14" class="node"><title>Node4365</title>
<g id="a_node14"><a xlink:href="ltable_8c.html#a598108bce7f1fdba262aae74191caeec" target="_top" xlink:title=" ">
<polygon fill="white" stroke="black" points="337.929,-39 337.929,-59 410.071,-59 410.071,-39 337.929,-39"/>
<text text-anchor="middle" x="374" y="-45" font-family="Helvetica,sans-Serif" font-size="10.00">mainposition</text>
</a>
</g>
</g>
<!-- Node4364&#45;&gt;Node4365 -->
<g id="edge13" class="edge"><title>Node4364&#45;&gt;Node4365</title>
<path fill="none" stroke="midnightblue" d="M284.645,-49C297.723,-49 313.255,-49 327.621,-49"/>
<polygon fill="midnightblue" stroke="midnightblue" points="327.824,-52.5001 337.824,-49 327.824,-45.5001 327.824,-52.5001"/>
</g>
<!-- Node4366 -->
<g id="node15" class="node"><title>Node4366</title>
<g id="a_node15"><a xlink:href="ltable_8c.html#ac726a5642652c5e7d5417c03047fc3d5" target="_top" xlink:title=" ">
<polygon fill="white" stroke="black" points="464.815,-39 464.815,-59 529.185,-59 529.185,-39 464.815,-39"/>
<text text-anchor="middle" x="497" y="-45" font-family="Helvetica,sans-Serif" font-size="10.00">l_hashfloat</text>
</a>
</g>
</g>
<!-- Node4365&#45;&gt;Node4366 -->
<g id="edge14" class="edge"><title>Node4365&#45;&gt;Node4366</title>
<path fill="none" stroke="midnightblue" d="M410.323,-49C424.132,-49 440.07,-49 454.427,-49"/>
<polygon fill="midnightblue" stroke="midnightblue" points="454.548,-52.5001 464.548,-49 454.548,-45.5001 454.548,-52.5001"/>
</g>
<!-- Node4367 -->
<g id="node16" class="node"><title>Node4367</title>
<g id="a_node16"><a xlink:href="lstring_8c.html#ac51f4a1e06f41eeeb4690a3581016217" target="_top" xlink:title=" ">
<polygon fill="white" stroke="black" points="450.362,-0 450.362,-20 543.638,-20 543.638,-0 450.362,-0"/>
<text text-anchor="middle" x="497" y="-6" font-family="Helvetica,sans-Serif" font-size="10.00">luaS_hashlongstr</text>
</a>
</g>
</g>
<!-- Node4365&#45;&gt;Node4367 -->
<g id="edge15" class="edge"><title>Node4365&#45;&gt;Node4367</title>
<path fill="none" stroke="midnightblue" d="M406.161,-38.9565C421.121,-34.1345 439.24,-28.2945 455.276,-23.1258"/>
<polygon fill="midnightblue" stroke="midnightblue" points="456.501,-26.4085 464.945,-20.0094 454.354,-19.746 456.501,-26.4085"/>
</g>
<!-- Node4368 -->
<g id="node17" class="node"><title>Node4368</title>
<g id="a_node17"><a xlink:href="lstring_8c.html#ac453c0e85b7bb4e9b146fc140b1b7c9e" target="_top" xlink:title=" ">
<polygon fill="white" stroke="black" points="592.37,-0 592.37,-20 655.63,-20 655.63,-0 592.37,-0"/>
<text text-anchor="middle" x="624" y="-6" font-family="Helvetica,sans-Serif" font-size="10.00">luaS_hash</text>
</a>
</g>
</g>
<!-- Node4367&#45;&gt;Node4368 -->
<g id="edge16" class="edge"><title>Node4367&#45;&gt;Node4368</title>
<path fill="none" stroke="midnightblue" d="M543.836,-10C556.231,-10 569.569,-10 581.699,-10"/>
<polygon fill="midnightblue" stroke="midnightblue" points="581.993,-13.5001 591.993,-10 581.993,-6.5001 581.993,-13.5001"/>
</g>
</g>
</svg>
        <g id="navigator" transform="translate(0 0)" fill="#404254">
                <rect fill="#f2f5e9" fill-opacity="0.5" stroke="#606060" stroke-width=".5" x="0" y="0" width="60" height="60"/>
                <use id="zoomplus" xlink:href="#zoomPlus" x="17" y="9" onmousedown="handleZoom(evt,'in')"/>
                <use id="zoomminus" xlink:href="#zoomMin" x="42" y="9" onmousedown="handleZoom(evt,'out')"/>
                <use id="reset" xlink:href="#resetDef" x="30" y="36" onmousedown="handleReset()"/>
                <g id="arrowUp" xlink:href="#dirArrow" transform="translate(30 24)" onmousedown="handlePan(0,-1)">
                  <use xlink:href="#rim" fill="#404040">
                        <set attributeName="fill" to="#808080" begin="arrowUp.mouseover" end="arrowUp.mouseout"/>
                  </use>
                  <path fill="none" stroke="white" stroke-width="1.5" d="M0,-3.0v7 M-2.5,-0.5L0,-3.0L2.5,-0.5"/>
                </g>
                <g id="arrowRight" xlink:href="#dirArrow" transform="rotate(90) translate(36 -43)" onmousedown="handlePan(1,0)">
                  <use xlink:href="#rim" fill="#404040">
                        <set attributeName="fill" to="#808080" begin="arrowRight.mouseover" end="arrowRight.mouseout"/>
                  </use>
                  <path fill="none" stroke="white" stroke-width="1.5" d="M0,-3.0v7 M-2.5,-0.5L0,-3.0L2.5,-0.5"/>
                </g>
                <g id="arrowDown" xlink:href="#dirArrow" transform="rotate(180) translate(-30 -48)" onmousedown="handlePan(0,1)">
                  <use xlink:href="#rim" fill="#404040">
                        <set attributeName="fill" to="#808080" begin="arrowDown.mouseover" end="arrowDown.mouseout"/>
                  </use>
                  <path fill="none" stroke="white" stroke-width="1.5" d="M0,-3.0v7 M-2.5,-0.5L0,-3.0L2.5,-0.5"/>
                </g>
                <g id="arrowLeft" xlink:href="#dirArrow" transform="rotate(270) translate(-36 17)" onmousedown="handlePan(-1,0)">
                  <use xlink:href="#rim" fill="#404040">
                        <set attributeName="fill" to="#808080" begin="arrowLeft.mouseover" end="arrowLeft.mouseout"/>
                  </use>
                  <path fill="none" stroke="white" stroke-width="1.5" d="M0,-3.0v7 M-2.5,-0.5L0,-3.0L2.5,-0.5"/>
                </g>
        </g>
        <svg viewBox="0 0 15 15" width="100%" height="30px" preserveAspectRatio="xMaxYMin meet">
         <g id="arrow_out" transform="scale(0.3 0.3)">
          <a xlink:href="lua_8h_a8aaccfd5ff3c7acbbd8a48f325a0b779_cgraph_org.svg" target="_base">
           <rect id="button" ry="5" rx="5" y="6" x="6" height="38" width="38"
                fill="#f2f5e9" fill-opacity="0.5" stroke="#606060" stroke-width="1.0"/>
           <path id="arrow"
             d="M 11.500037,31.436501 C 11.940474,20.09759 22.043105,11.32322 32.158766,21.979434 L 37.068811,17.246167 C 37.068811,17.246167 37.088388,32 37.088388,32 L 22.160133,31.978069 C 22.160133,31.978069 26.997745,27.140456 26.997745,27.140456 C 18.528582,18.264221 13.291696,25.230495 11.500037,31.436501 z"
             style="fill:#404040;"/>
          </a>
         </g>
        </svg>
</svg>
