<?xml version="1.0" encoding="UTF-8" standalone="no"?>
<!DOCTYPE svg PUBLIC "-//W3C//DTD SVG 1.1//EN"
 "http://www.w3.org/Graphics/SVG/1.1/DTD/svg11.dtd">
<!-- Generated by graphviz version 2.30.1 (20130221.2233)
 -->
<!-- Title: lua_rawgeti Pages: 1 -->
<svg width="180pt" height="67pt"
 viewBox="0.00 0.00 180.00 67.00" xmlns="http://www.w3.org/2000/svg" xmlns:xlink="http://www.w3.org/1999/xlink">
<g id="graph0" class="graph" transform="scale(1 1) rotate(0) translate(4 63)">
<title>lua_rawgeti</title>
<polygon fill="white" stroke="white" points="-4,5 -4,-63 177,-63 177,5 -4,5"/>
<!-- Node4349 -->
<g id="node1" class="node"><title>Node4349</title>
<g id="a_node1"><a xlink:title=" ">
<polygon fill="#bfbfbf" stroke="black" points="0.428711,-19 0.428711,-39 67.5713,-39 67.5713,-19 0.428711,-19"/>
<text text-anchor="middle" x="34" y="-25" font-family="Helvetica,sans-Serif" font-size="10.00">lua_rawgeti</text>
</a>
</g>
</g>
<!-- Node4350 -->
<g id="node2" class="node"><title>Node4350</title>
<g id="a_node2"><a xlink:href="lapi_8c.html#ae54b9bb381b32c86235a084984e40215" target="_top" xlink:title=" ">
<polygon fill="white" stroke="black" points="105.259,-39 105.259,-59 170.741,-59 170.741,-39 105.259,-39"/>
<text text-anchor="middle" x="138" y="-45" font-family="Helvetica,sans-Serif" font-size="10.00">index2addr</text>
</a>
</g>
</g>
<!-- Node4349&#45;&gt;Node4350 -->
<g id="edge1" class="edge"><title>Node4349&#45;&gt;Node4350</title>
<path fill="none" stroke="midnightblue" d="M67.8349,-35.4382C76.4669,-37.1308 85.8974,-38.9799 94.9408,-40.7531"/>
<polygon fill="midnightblue" stroke="midnightblue" points="94.4368,-44.2208 104.923,-42.7105 95.7837,-37.3516 94.4368,-44.2208"/>
</g>
<!-- Node4351 -->
<g id="node3" class="node"><title>Node4351</title>
<g id="a_node3"><a xlink:href="ltable_8c.html#ae142cefd44452389877c3e3187c7973e" target="_top" xlink:title=" ">
<polygon fill="white" stroke="black" points="104.705,-0 104.705,-20 171.295,-20 171.295,-0 104.705,-0"/>
<text text-anchor="middle" x="138" y="-6" font-family="Helvetica,sans-Serif" font-size="10.00">luaH_getint</text>
</a>
</g>
</g>
<!-- Node4349&#45;&gt;Node4351 -->
<g id="edge2" class="edge"><title>Node4349&#45;&gt;Node4351</title>
<path fill="none" stroke="midnightblue" d="M67.8349,-22.8837C76.3822,-21.2915 85.7126,-19.5535 94.6747,-17.8841"/>
<polygon fill="midnightblue" stroke="midnightblue" points="95.3855,-21.312 104.575,-16.0399 94.1036,-14.4304 95.3855,-21.312"/>
</g>
</g>
</svg>
