<?xml version="1.0" encoding="UTF-8" standalone="no"?>
<!DOCTYPE svg PUBLIC "-//W3C//DTD SVG 1.1//EN"
 "http://www.w3.org/Graphics/SVG/1.1/DTD/svg11.dtd">
<!-- Generated by graphviz version 2.30.1 (20130221.2233)
 -->
<!-- Title: dochunk Pages: 1 -->
<svg width="418pt" height="86pt"
 viewBox="0.00 0.00 418.00 86.00" xmlns="http://www.w3.org/2000/svg" xmlns:xlink="http://www.w3.org/1999/xlink">
<g id="graph0" class="graph" transform="scale(1 1) rotate(0) translate(4 82)">
<title>dochunk</title>
<polygon fill="white" stroke="white" points="-4,5 -4,-82 415,-82 415,5 -4,5"/>
<!-- Node778 -->
<g id="node1" class="node"><title>Node778</title>
<g id="a_node1"><a xlink:title=" ">
<polygon fill="#bfbfbf" stroke="black" points="356.096,-38 356.096,-58 409.904,-58 409.904,-38 356.096,-38"/>
<text text-anchor="middle" x="383" y="-44" font-family="Helvetica,sans-Serif" font-size="10.00">dochunk</text>
</a>
</g>
</g>
<!-- Node779 -->
<g id="node2" class="node"><title>Node779</title>
<g id="a_node2"><a xlink:href="lua_8c.html#a9708ea7bd36bee3c2d952cdd787246cc" target="_top" xlink:title=" ">
<polygon fill="white" stroke="black" points="274.047,-58 274.047,-78 313.953,-78 313.953,-58 274.047,-58"/>
<text text-anchor="middle" x="294" y="-64" font-family="Helvetica,sans-Serif" font-size="10.00">dofile</text>
</a>
</g>
</g>
<!-- Node778&#45;&gt;Node779 -->
<g id="edge1" class="edge"><title>Node778&#45;&gt;Node779</title>
<path fill="none" stroke="midnightblue" d="M346.113,-56.2499C335.166,-58.7665 323.554,-61.4358 314.17,-63.5931"/>
<polygon fill="midnightblue" stroke="midnightblue" points="346.936,-59.6522 355.897,-54.0007 345.367,-52.8301 346.936,-59.6522"/>
</g>
<!-- Node783 -->
<g id="node6" class="node"><title>Node783</title>
<g id="a_node6"><a xlink:href="lua_8c.html#ae8312476ab6a3db74a9a5b1a981d023f" target="_top" xlink:title=" ">
<polygon fill="white" stroke="black" points="268.212,-19 268.212,-39 319.788,-39 319.788,-19 268.212,-19"/>
<text text-anchor="middle" x="294" y="-25" font-family="Helvetica,sans-Serif" font-size="10.00">dostring</text>
</a>
</g>
</g>
<!-- Node778&#45;&gt;Node783 -->
<g id="edge6" class="edge"><title>Node778&#45;&gt;Node783</title>
<path fill="none" stroke="midnightblue" d="M345.903,-40.1167C337.153,-38.2058 327.991,-36.205 319.891,-34.4359"/>
<polygon fill="midnightblue" stroke="midnightblue" points="345.381,-43.5851 355.897,-42.2994 346.874,-36.7463 345.381,-43.5851"/>
</g>
<!-- Node780 -->
<g id="node3" class="node"><title>Node780</title>
<g id="a_node3"><a xlink:href="lua_8c.html#a5d9d02779b2853fbef2aa54e2f8e017e" target="_top" xlink:title=" ">
<polygon fill="white" stroke="black" points="154.141,-39 154.141,-59 231.859,-59 231.859,-39 154.141,-39"/>
<text text-anchor="middle" x="193" y="-45" font-family="Helvetica,sans-Serif" font-size="10.00">handle_luainit</text>
</a>
</g>
</g>
<!-- Node779&#45;&gt;Node780 -->
<g id="edge2" class="edge"><title>Node779&#45;&gt;Node780</title>
<path fill="none" stroke="midnightblue" d="M264.023,-62.4388C253.972,-60.5097 242.548,-58.3174 231.887,-56.2712"/>
<polygon fill="midnightblue" stroke="midnightblue" points="263.431,-65.889 273.912,-64.3366 264.751,-59.0145 263.431,-65.889"/>
</g>
<!-- Node781 -->
<g id="node4" class="node"><title>Node781</title>
<g id="a_node4"><a xlink:href="lua_8c.html#aa0f8bc082ef913cb0a4df437bf5f5019" target="_top" xlink:title=" ">
<polygon fill="white" stroke="black" points="74.3818,-39 74.3818,-59 117.618,-59 117.618,-39 74.3818,-39"/>
<text text-anchor="middle" x="96" y="-45" font-family="Helvetica,sans-Serif" font-size="10.00">pmain</text>
</a>
</g>
</g>
<!-- Node779&#45;&gt;Node781 -->
<g id="edge5" class="edge"><title>Node779&#45;&gt;Node781</title>
<path fill="none" stroke="midnightblue" d="M263.944,-70.6913C235.671,-72.679 191.597,-74.1012 154,-68 141.644,-65.9949 128.348,-61.6948 117.707,-57.6918"/>
<polygon fill="midnightblue" stroke="midnightblue" points="264.26,-74.1774 273.96,-69.9163 263.72,-67.1983 264.26,-74.1774"/>
</g>
<!-- Node780&#45;&gt;Node781 -->
<g id="edge3" class="edge"><title>Node780&#45;&gt;Node781</title>
<path fill="none" stroke="midnightblue" d="M143.618,-49C134.456,-49 125.338,-49 117.628,-49"/>
<polygon fill="midnightblue" stroke="midnightblue" points="143.907,-52.5001 153.907,-49 143.907,-45.5001 143.907,-52.5001"/>
</g>
<!-- Node782 -->
<g id="node5" class="node"><title>Node782</title>
<g id="a_node5"><a xlink:href="lua_8c.html#a3c04138a5bfe5d72780bb7e82a18e627" target="_top" xlink:title=" ">
<polygon fill="white" stroke="black" points="0.162598,-39 0.162598,-59 37.8374,-59 37.8374,-39 0.162598,-39"/>
<text text-anchor="middle" x="19" y="-45" font-family="Helvetica,sans-Serif" font-size="10.00">main</text>
</a>
</g>
</g>
<!-- Node781&#45;&gt;Node782 -->
<g id="edge4" class="edge"><title>Node781&#45;&gt;Node782</title>
<path fill="none" stroke="midnightblue" d="M63.8388,-49C55.1203,-49 45.9309,-49 38.2302,-49"/>
<polygon fill="midnightblue" stroke="midnightblue" points="64.1084,-52.5001 74.1083,-49 64.1083,-45.5001 64.1084,-52.5001"/>
</g>
<!-- Node784 -->
<g id="node7" class="node"><title>Node784</title>
<g id="a_node7"><a xlink:href="lua_8c.html#a95a376c847572def6b3f78d33a7bc881" target="_top" xlink:title=" ">
<polygon fill="white" stroke="black" points="168.047,-0 168.047,-20 217.953,-20 217.953,-0 168.047,-0"/>
<text text-anchor="middle" x="193" y="-6" font-family="Helvetica,sans-Serif" font-size="10.00">runargs</text>
</a>
</g>
</g>
<!-- Node783&#45;&gt;Node784 -->
<g id="edge7" class="edge"><title>Node783&#45;&gt;Node784</title>
<path fill="none" stroke="midnightblue" d="M257.902,-22.264C244.794,-19.7484 230.211,-16.9496 218.289,-14.6616"/>
<polygon fill="midnightblue" stroke="midnightblue" points="257.538,-25.7579 268.018,-24.2055 258.857,-18.8834 257.538,-25.7579"/>
</g>
<!-- Node783&#45;&gt;Node780 -->
<g id="edge9" class="edge"><title>Node783&#45;&gt;Node780</title>
<path fill="none" stroke="midnightblue" d="M258.124,-36.0457C249.699,-37.7476 240.654,-39.575 232.09,-41.305"/>
<polygon fill="midnightblue" stroke="midnightblue" points="258.909,-39.4578 268.018,-34.0468 257.523,-32.5964 258.909,-39.4578"/>
</g>
<!-- Node784&#45;&gt;Node781 -->
<g id="edge8" class="edge"><title>Node784&#45;&gt;Node781</title>
<path fill="none" stroke="midnightblue" d="M158.505,-23.7506C144.922,-29.3269 129.66,-35.592 117.738,-40.4865"/>
<polygon fill="midnightblue" stroke="midnightblue" points="160.106,-26.8769 168.027,-19.8413 157.447,-20.4013 160.106,-26.8769"/>
</g>
</g>
</svg>
