<?xml version="1.0" encoding="UTF-8" standalone="no"?>
<!DOCTYPE svg PUBLIC "-//W3C//DTD SVG 1.1//EN"
 "http://www.w3.org/Graphics/SVG/1.1/DTD/svg11.dtd">
<!-- Generated by graphviz version 2.30.1 (20130221.2233)
 -->
<!-- Title: emit_userdata_methods Pages: 1 -->
<svg width="734pt" height="164pt"
 viewBox="0.00 0.00 734.00 164.00" xmlns="http://www.w3.org/2000/svg" xmlns:xlink="http://www.w3.org/1999/xlink">
<g id="graph0" class="graph" transform="scale(1 1) rotate(0) translate(4 160)">
<title>emit_userdata_methods</title>
<polygon fill="white" stroke="white" points="-4,5 -4,-160 731,-160 731,5 -4,5"/>
<!-- Node1088 -->
<g id="node1" class="node"><title>Node1088</title>
<g id="a_node1"><a xlink:title=" ">
<polygon fill="#bfbfbf" stroke="black" points="0.357422,-68 0.357422,-88 123.643,-88 123.643,-68 0.357422,-68"/>
<text text-anchor="middle" x="62" y="-74" font-family="Helvetica,sans-Serif" font-size="10.00">emit_userdata_methods</text>
</a>
</g>
</g>
<!-- Node1089 -->
<g id="node2" class="node"><title>Node1089</title>
<g id="a_node2"><a xlink:href="main_8c.html#ae50a7e710cd80ffa3057fabaa2595b4f" target="_top" xlink:title=" ">
<polygon fill="white" stroke="black" points="159.857,-97 159.857,-117 278.143,-117 278.143,-97 159.857,-97"/>
<text text-anchor="middle" x="219" y="-103" font-family="Helvetica,sans-Serif" font-size="10.00">emit_userdata_method</text>
</a>
</g>
</g>
<!-- Node1088&#45;&gt;Node1089 -->
<g id="edge1" class="edge"><title>Node1088&#45;&gt;Node1089</title>
<path fill="none" stroke="midnightblue" d="M116.776,-88.0614C128.919,-90.3333 141.922,-92.766 154.425,-95.1053"/>
<polygon fill="midnightblue" stroke="midnightblue" points="153.845,-98.5575 164.319,-96.9564 155.133,-91.6769 153.845,-98.5575"/>
</g>
<!-- Node1095 -->
<g id="node8" class="node"><title>Node1095</title>
<g id="a_node8"><a xlink:href="main_8c.html#a838594668e4cd736df866e56ae9c5cf6" target="_top" xlink:title=" ">
<polygon fill="white" stroke="black" points="177.65,-39 177.65,-59 260.35,-59 260.35,-39 177.65,-39"/>
<text text-anchor="middle" x="219" y="-45" font-family="Helvetica,sans-Serif" font-size="10.00">emit_operators</text>
</a>
</g>
</g>
<!-- Node1088&#45;&gt;Node1095 -->
<g id="edge9" class="edge"><title>Node1088&#45;&gt;Node1095</title>
<path fill="none" stroke="midnightblue" d="M116.776,-67.9386C133.286,-64.8498 151.384,-61.4636 167.655,-58.4194"/>
<polygon fill="midnightblue" stroke="midnightblue" points="168.333,-61.8533 177.519,-56.5738 167.046,-54.9727 168.333,-61.8533"/>
</g>
<!-- Node1090 -->
<g id="node3" class="node"><title>Node1090</title>
<g id="a_node3"><a xlink:href="structtype.html#a9bc6db84bdab9cb1893658114058ad41" target="_top" xlink:title=" ">
<polygon fill="white" stroke="black" points="476.32,-136 476.32,-156 535.68,-156 535.68,-136 476.32,-136"/>
<text text-anchor="middle" x="506" y="-142" font-family="Helvetica,sans-Serif" font-size="10.00">type::type</text>
</a>
</g>
</g>
<!-- Node1089&#45;&gt;Node1090 -->
<g id="edge2" class="edge"><title>Node1089&#45;&gt;Node1090</title>
<path fill="none" stroke="midnightblue" d="M238.783,-117.077C257.302,-126.405 286.714,-139.619 314,-145 365.744,-155.204 426.916,-153.115 465.829,-150.069"/>
<polygon fill="midnightblue" stroke="midnightblue" points="466.518,-153.523 476.188,-149.194 465.929,-146.548 466.518,-153.523"/>
</g>
<!-- Node1091 -->
<g id="node4" class="node"><title>Node1091</title>
<g id="a_node4"><a xlink:href="main_8c.html#a7ccd95f327000b023cb2a9f5c3ba41c2" target="_top" xlink:title=" ">
<polygon fill="white" stroke="black" points="339.266,-116 339.266,-136 414.734,-136 414.734,-116 339.266,-116"/>
<text text-anchor="middle" x="377" y="-122" font-family="Helvetica,sans-Serif" font-size="10.00">emit_checker</text>
</a>
</g>
</g>
<!-- Node1089&#45;&gt;Node1091 -->
<g id="edge3" class="edge"><title>Node1089&#45;&gt;Node1091</title>
<path fill="none" stroke="midnightblue" d="M278.532,-114.129C295.128,-116.15 312.98,-118.324 328.813,-120.253"/>
<polygon fill="midnightblue" stroke="midnightblue" points="328.543,-123.746 338.893,-121.481 329.389,-116.797 328.543,-123.746"/>
</g>
<!-- Node1092 -->
<g id="node5" class="node"><title>Node1092</title>
<g id="a_node5"><a xlink:href="main_8c.html#a9d87237c8a191a7bb92fc78770e62592" target="_top" xlink:title=" ">
<polygon fill="white" stroke="black" points="487.443,-78 487.443,-98 524.557,-98 524.557,-78 487.443,-78"/>
<text text-anchor="middle" x="506" y="-84" font-family="Helvetica,sans-Serif" font-size="10.00">error</text>
</a>
</g>
</g>
<!-- Node1089&#45;&gt;Node1092 -->
<g id="edge8" class="edge"><title>Node1089&#45;&gt;Node1092</title>
<path fill="none" stroke="midnightblue" d="M278.362,-103.109C338.97,-99.0687 431.214,-92.9191 477.08,-89.8613"/>
<polygon fill="midnightblue" stroke="midnightblue" points="477.432,-93.3457 487.177,-89.1882 476.966,-86.3612 477.432,-93.3457"/>
</g>
<!-- Node1091&#45;&gt;Node1092 -->
<g id="edge4" class="edge"><title>Node1091&#45;&gt;Node1092</title>
<path fill="none" stroke="midnightblue" d="M411.7,-115.916C432.256,-109.766 458.2,-102.003 477.508,-96.2258"/>
<polygon fill="midnightblue" stroke="midnightblue" points="478.629,-99.5438 487.206,-93.3241 476.623,-92.8376 478.629,-99.5438"/>
</g>
<!-- Node1091&#45;&gt;Node1090 -->
<g id="edge7" class="edge"><title>Node1091&#45;&gt;Node1090</title>
<path fill="none" stroke="midnightblue" d="M415.075,-131.839C431.051,-134.354 449.742,-137.298 465.933,-139.848"/>
<polygon fill="midnightblue" stroke="midnightblue" points="465.735,-143.36 476.158,-141.458 466.824,-136.445 465.735,-143.36"/>
</g>
<!-- Node1093 -->
<g id="node6" class="node"><title>Node1093</title>
<g id="a_node6"><a xlink:href="malloc_8c.html#a7ac38fce3243a7dcf448301ee9ffd392" target="_top" xlink:title=" ">
<polygon fill="white" stroke="black" points="572.552,-58 572.552,-78 617.448,-78 617.448,-58 572.552,-58"/>
<text text-anchor="middle" x="595" y="-64" font-family="Helvetica,sans-Serif" font-size="10.00">malloc</text>
</a>
</g>
</g>
<!-- Node1092&#45;&gt;Node1093 -->
<g id="edge5" class="edge"><title>Node1092&#45;&gt;Node1093</title>
<path fill="none" stroke="midnightblue" d="M524.606,-83.9527C535.497,-81.4489 549.794,-78.1623 562.579,-75.2232"/>
<polygon fill="midnightblue" stroke="midnightblue" points="563.452,-78.6138 572.414,-72.9623 561.884,-71.7917 563.452,-78.6138"/>
</g>
<!-- Node1094 -->
<g id="node7" class="node"><title>Node1094</title>
<g id="a_node7"><a xlink:href="malloc_8c.html#aa5c105052a59261e63119d5203374a41" target="_top" xlink:title=" ">
<polygon fill="white" stroke="black" points="654.209,-58 654.209,-78 725.791,-78 725.791,-58 654.209,-58"/>
<text text-anchor="middle" x="690" y="-64" font-family="Helvetica,sans-Serif" font-size="10.00">malloc_flags</text>
</a>
</g>
</g>
<!-- Node1093&#45;&gt;Node1094 -->
<g id="edge6" class="edge"><title>Node1093&#45;&gt;Node1094</title>
<path fill="none" stroke="midnightblue" d="M617.57,-68C625.445,-68 634.675,-68 643.835,-68"/>
<polygon fill="midnightblue" stroke="midnightblue" points="644.073,-71.5001 654.073,-68 644.073,-64.5001 644.073,-71.5001"/>
</g>
<!-- Node1096 -->
<g id="node9" class="node"><title>Node1096</title>
<g id="a_node9"><a xlink:href="main_8c.html#ae426a7c18856ef4065db87aae263a8a5" target="_top" xlink:title=" ">
<polygon fill="white" stroke="black" points="486.884,-39 486.884,-59 525.116,-59 525.116,-39 486.884,-39"/>
<text text-anchor="middle" x="506" y="-45" font-family="Helvetica,sans-Serif" font-size="10.00">trace</text>
</a>
</g>
</g>
<!-- Node1095&#45;&gt;Node1096 -->
<g id="edge10" class="edge"><title>Node1095&#45;&gt;Node1096</title>
<path fill="none" stroke="midnightblue" d="M260.531,-49C318.946,-49 425.367,-49 476.32,-49"/>
<polygon fill="midnightblue" stroke="midnightblue" points="476.599,-52.5001 486.599,-49 476.599,-45.5001 476.599,-52.5001"/>
</g>
<!-- Node1097 -->
<g id="node10" class="node"><title>Node1097</title>
<g id="a_node10"><a xlink:href="main_8c.html#ae7f3dc7c32d4d0dd02cf906c46db882d" target="_top" xlink:title=" ">
<polygon fill="white" stroke="black" points="314.515,-0 314.515,-20 439.485,-20 439.485,-0 314.515,-0"/>
<text text-anchor="middle" x="377" y="-6" font-family="Helvetica,sans-Serif" font-size="10.00">get_name_for_operation</text>
</a>
</g>
</g>
<!-- Node1095&#45;&gt;Node1097 -->
<g id="edge12" class="edge"><title>Node1095&#45;&gt;Node1097</title>
<path fill="none" stroke="midnightblue" d="M260.174,-38.9565C280.281,-33.9298 304.813,-27.7968 326.115,-22.4713"/>
<polygon fill="midnightblue" stroke="midnightblue" points="327.11,-25.8304 335.962,-20.0094 325.412,-19.0394 327.11,-25.8304"/>
</g>
<!-- Node1096&#45;&gt;Node1093 -->
<g id="edge11" class="edge"><title>Node1096&#45;&gt;Node1093</title>
<path fill="none" stroke="midnightblue" d="M525.45,-53.0294C536.206,-55.3782 550.06,-58.4039 562.495,-61.1197"/>
<polygon fill="midnightblue" stroke="midnightblue" points="561.992,-64.5921 572.508,-63.3064 563.485,-57.7533 561.992,-64.5921"/>
</g>
</g>
</svg>
