<?xml version="1.0" encoding="UTF-8" standalone="no"?>
<!DOCTYPE svg PUBLIC "-//W3C//DTD SVG 1.1//EN"
 "http://www.w3.org/Graphics/SVG/1.1/DTD/svg11.dtd">
<!-- Generated by graphviz version 2.30.1 (20130221.2233)
 -->
<!-- Title: inverse Pages: 1 -->
<!--zoomable 243 -->
<svg id="main" version="1.1" xmlns="http://www.w3.org/2000/svg" xmlns:xlink="http://www.w3.org/1999/xlink" xml:space="preserve" onload="init(evt)">
<style type="text/css"><![CDATA[
.edge:hover path { stroke: red; }
.edge:hover polygon { stroke: red; fill: red; }
]]></style>
<script type="text/javascript"><![CDATA[
var edges = document.getElementsByTagName('g');
if (edges && edges.length) {
  for (var i=0;i<edges.length;i++) {
    if (edges[i].id.substr(0,4)=='edge') {
      edges[i].setAttribute('class','edge');
    }
  }
}
]]></script>
        <defs>
                <circle id="rim" cx="0" cy="0" r="7"/>
                <circle id="rim2" cx="0" cy="0" r="3.5"/>
                <g id="zoomPlus">
                        <use xlink:href="#rim" fill="#404040">
                                <set attributeName="fill" to="#808080" begin="zoomplus.mouseover" end="zoomplus.mouseout"/>
                        </use>
                        <path d="M-4,0h8M0,-4v8" fill="none" stroke="white" stroke-width="1.5" pointer-events="none"/>
                </g>
                <g id="zoomMin">
                        <use xlink:href="#rim" fill="#404040">
                                <set attributeName="fill" to="#808080" begin="zoomminus.mouseover" end="zoomminus.mouseout"/>
                        </use>
                        <path d="M-4,0h8" fill="none" stroke="white" stroke-width="1.5" pointer-events="none"/>
                </g>
                <g id="dirArrow">
                        <path fill="none" stroke="white" stroke-width="1.5" d="M0,-3.0v7 M-2.5,-0.5L0,-3.0L2.5,-0.5"/>
                </g>
               <g id="resetDef">
                       <use xlink:href="#rim2" fill="#404040">
                               <set attributeName="fill" to="#808080" begin="reset.mouseover" end="reset.mouseout"/>
                       </use>
               </g>
        </defs>

<script type="text/javascript">
var viewWidth = 804;
var viewHeight = 243;
var sectionId = 'dynsection-1';
</script>
<script xlink:href="svgpan.js"/>
<svg id="graph" class="graph">
<g id="viewport">
<title>inverse</title>
<polygon fill="white" stroke="white" points="-4,5 -4,-239.305 801,-239.305 801,5 -4,5"/>
<!-- Node0 -->
<g id="node1" class="node"><title>Node0</title>
<g id="a_node1"><a xlink:title=" ">
<polygon fill="#bfbfbf" stroke="black" points="-0.118164,-145.305 -0.118164,-165.305 48.1182,-165.305 48.1182,-145.305 -0.118164,-145.305"/>
<text text-anchor="middle" x="24" y="-151.305" font-family="Helvetica,sans-Serif" font-size="10.00">inverse</text>
</a>
</g>
</g>
<!-- Node1 -->
<g id="node2" class="node"><title>Node1</title>
<g id="a_node2"><a xlink:href="matrix__alg_8cpp.html#a3aede2abf8bd30869b72dadaeb9e2c17" target="_top" xlink:title=" ">
<polygon fill="white" stroke="black" points="86.8203,-187.305 86.8203,-207.305 151.18,-207.305 151.18,-187.305 86.8203,-187.305"/>
<text text-anchor="middle" x="119" y="-193.305" font-family="Helvetica,sans-Serif" font-size="10.00">inverse3x3</text>
</a>
</g>
</g>
<!-- Node0&#45;&gt;Node1 -->
<g id="edge1" class="edge"><title>Node0&#45;&gt;Node1</title>
<path fill="none" stroke="midnightblue" d="M47.5127,-165.472C59.1645,-170.734 73.5835,-177.246 86.3385,-183.007"/>
<polygon fill="midnightblue" stroke="midnightblue" points="85.1403,-186.306 95.6946,-187.232 88.0215,-179.926 85.1403,-186.306"/>
</g>
<!-- Node3 -->
<g id="node4" class="node"><title>Node3</title>
<g id="a_node4"><a xlink:href="matrix__alg_8cpp.html#a5b0d60d12edb0ce4c1ed6599acccc6db" target="_top" xlink:title=" ">
<polygon fill="white" stroke="black" points="86.8203,-145.305 86.8203,-165.305 151.18,-165.305 151.18,-145.305 86.8203,-145.305"/>
<text text-anchor="middle" x="119" y="-151.305" font-family="Helvetica,sans-Serif" font-size="10.00">inverse4x4</text>
</a>
</g>
</g>
<!-- Node0&#45;&gt;Node3 -->
<g id="edge3" class="edge"><title>Node0&#45;&gt;Node3</title>
<path fill="none" stroke="midnightblue" d="M48.4678,-155.305C57.0034,-155.305 66.9241,-155.305 76.5524,-155.305"/>
<polygon fill="midnightblue" stroke="midnightblue" points="76.806,-158.805 86.806,-155.305 76.806,-151.805 76.806,-158.805"/>
</g>
<!-- Node12 -->
<g id="node13" class="node"><title>Node12</title>
<g id="a_node13"><a xlink:href="matrix__alg_8cpp.html#aec3cfc51b8c044f4faa4ab1d3a146435" target="_top" xlink:title=" ">
<polygon fill="white" stroke="black" points="83.7661,-60.3052 83.7661,-80.3052 154.234,-80.3052 154.234,-60.3052 83.7661,-60.3052"/>
<text text-anchor="middle" x="119" y="-66.3052" font-family="Helvetica,sans-Serif" font-size="10.00">mat_inverse</text>
</a>
</g>
</g>
<!-- Node0&#45;&gt;Node12 -->
<g id="edge15" class="edge"><title>Node0&#45;&gt;Node12</title>
<path fill="none" stroke="midnightblue" d="M36.0335,-145.221C51.6949,-130.907 80.5713,-104.514 99.5302,-87.1862"/>
<polygon fill="midnightblue" stroke="midnightblue" points="101.961,-89.7065 106.981,-80.3765 97.2381,-84.5395 101.961,-89.7065"/>
</g>
<!-- Node2 -->
<g id="node3" class="node"><title>Node2</title>
<g id="a_node3"><a xlink:href="AP__Math_8h.html#a2a12cce483e9b870da70d30406d82c60" target="_top" xlink:title=" ">
<polygon fill="white" stroke="black" points="225.882,-189.305 225.882,-209.305 274.118,-209.305 274.118,-189.305 225.882,-189.305"/>
<text text-anchor="middle" x="250" y="-195.305" font-family="Helvetica,sans-Serif" font-size="10.00">is_zero</text>
</a>
</g>
</g>
<!-- Node1&#45;&gt;Node2 -->
<g id="edge2" class="edge"><title>Node1&#45;&gt;Node2</title>
<path fill="none" stroke="midnightblue" d="M151.227,-197.789C170.695,-198.091 195.731,-198.479 215.595,-198.787"/>
<polygon fill="midnightblue" stroke="midnightblue" points="215.689,-202.289 225.742,-198.945 215.797,-195.29 215.689,-202.289"/>
</g>
<!-- Node4 -->
<g id="node5" class="node"><title>Node4</title>
<g id="a_node5"><a xlink:href="classAP__HAL_1_1BetterStream.html#a8534aa004599bb81ad60f3e762791032" target="_top" xlink:title=" ">
<polygon fill="white" stroke="black" points="190.589,-138.305 190.589,-170.305 309.411,-170.305 309.411,-138.305 190.589,-138.305"/>
<text text-anchor="start" x="198.589" y="-156.305" font-family="Helvetica,sans-Serif" font-size="10.00">AP_HAL::BetterStream</text>
<text text-anchor="middle" x="250" y="-144.305" font-family="Helvetica,sans-Serif" font-size="10.00">::printf</text>
</a>
</g>
</g>
<!-- Node3&#45;&gt;Node4 -->
<g id="edge4" class="edge"><title>Node3&#45;&gt;Node4</title>
<path fill="none" stroke="midnightblue" d="M151.227,-155.063C160.119,-154.994 170.173,-154.916 180.365,-154.837"/>
<polygon fill="midnightblue" stroke="midnightblue" points="180.593,-158.336 190.565,-154.758 180.539,-151.336 180.593,-158.336"/>
</g>
<!-- Node3&#45;&gt;Node2 -->
<g id="edge14" class="edge"><title>Node3&#45;&gt;Node2</title>
<path fill="none" stroke="midnightblue" d="M149.282,-165.37C161.819,-169.673 176.624,-174.745 190,-179.305 198.462,-182.19 207.61,-185.297 216.119,-188.182"/>
<polygon fill="midnightblue" stroke="midnightblue" points="215.141,-191.546 225.735,-191.44 217.387,-184.916 215.141,-191.546"/>
</g>
<!-- Node5 -->
<g id="node6" class="node"><title>Node5</title>
<g id="a_node6"><a xlink:href="classAP__HAL_1_1BetterStream.html#aa730be451d385d7ba03ee9677e6d91a2" target="_top" xlink:title=" ">
<polygon fill="white" stroke="black" points="346.589,-138.305 346.589,-170.305 465.411,-170.305 465.411,-138.305 346.589,-138.305"/>
<text text-anchor="start" x="354.589" y="-156.305" font-family="Helvetica,sans-Serif" font-size="10.00">AP_HAL::BetterStream</text>
<text text-anchor="middle" x="406" y="-144.305" font-family="Helvetica,sans-Serif" font-size="10.00">::vprintf</text>
</a>
</g>
</g>
<!-- Node4&#45;&gt;Node5 -->
<g id="edge5" class="edge"><title>Node4&#45;&gt;Node5</title>
<path fill="none" stroke="midnightblue" d="M309.66,-154.305C318.43,-154.305 327.536,-154.305 336.488,-154.305"/>
<polygon fill="midnightblue" stroke="midnightblue" points="336.503,-157.805 346.503,-154.305 336.503,-150.805 336.503,-157.805"/>
</g>
<!-- Node6 -->
<g id="node7" class="node"><title>Node6</title>
<g id="a_node7"><a xlink:href="print__vprintf_8cpp.html#a98e0d5bb436a207f576379beaa786040" target="_top" xlink:title=" ">
<polygon fill="white" stroke="black" points="501.877,-144.305 501.877,-164.305 570.123,-164.305 570.123,-144.305 501.877,-144.305"/>
<text text-anchor="middle" x="536" y="-150.305" font-family="Helvetica,sans-Serif" font-size="10.00">print_vprintf</text>
</a>
</g>
</g>
<!-- Node5&#45;&gt;Node6 -->
<g id="edge6" class="edge"><title>Node5&#45;&gt;Node6</title>
<path fill="none" stroke="midnightblue" d="M465.755,-154.305C474.443,-154.305 483.26,-154.305 491.561,-154.305"/>
<polygon fill="midnightblue" stroke="midnightblue" points="491.751,-157.805 501.751,-154.305 491.751,-150.805 491.751,-157.805"/>
</g>
<!-- Node7 -->
<g id="node8" class="node"><title>Node7</title>
<g id="a_node8"><a xlink:href="classAP__HAL_1_1BetterStream.html#a915cc01273d4b418c2fb2989fb31a508" target="_top" xlink:title=" ">
<polygon fill="white" stroke="black" points="606.589,-203.305 606.589,-235.305 725.411,-235.305 725.411,-203.305 606.589,-203.305"/>
<text text-anchor="start" x="614.589" y="-221.305" font-family="Helvetica,sans-Serif" font-size="10.00">AP_HAL::BetterStream</text>
<text text-anchor="middle" x="666" y="-209.305" font-family="Helvetica,sans-Serif" font-size="10.00">::write</text>
</a>
</g>
</g>
<!-- Node6&#45;&gt;Node7 -->
<g id="edge7" class="edge"><title>Node6&#45;&gt;Node7</title>
<path fill="none" stroke="midnightblue" d="M553.76,-164.398C567.578,-172.569 587.795,-184.177 606,-193.305 609.771,-195.196 613.711,-197.094 617.687,-198.955"/>
<polygon fill="midnightblue" stroke="midnightblue" points="616.422,-202.225 626.971,-203.212 619.34,-195.863 616.422,-202.225"/>
</g>
<!-- Node8 -->
<g id="node9" class="node"><title>Node8</title>
<g id="a_node9"><a xlink:href="ftoa__engine_8cpp.html#a1c28234da8f20b43c85890d4bb452947" target="_top" xlink:title=" ">
<polygon fill="white" stroke="black" points="631.865,-164.305 631.865,-184.305 700.135,-184.305 700.135,-164.305 631.865,-164.305"/>
<text text-anchor="middle" x="666" y="-170.305" font-family="Helvetica,sans-Serif" font-size="10.00">ftoa_engine</text>
</a>
</g>
</g>
<!-- Node6&#45;&gt;Node8 -->
<g id="edge8" class="edge"><title>Node6&#45;&gt;Node8</title>
<path fill="none" stroke="midnightblue" d="M570.296,-159.508C585.877,-161.942 604.64,-164.874 621.341,-167.483"/>
<polygon fill="midnightblue" stroke="midnightblue" points="621.005,-170.973 631.426,-169.059 622.086,-164.057 621.005,-170.973"/>
</g>
<!-- Node10 -->
<g id="node11" class="node"><title>Node10</title>
<g id="a_node11"><a xlink:href="utoa__invert_8cpp.html#a34926f552460b47c414ec4d83b32815c" target="_top" xlink:title=" ">
<polygon fill="white" stroke="black" points="631.04,-125.305 631.04,-145.305 700.96,-145.305 700.96,-125.305 631.04,-125.305"/>
<text text-anchor="middle" x="666" y="-131.305" font-family="Helvetica,sans-Serif" font-size="10.00">ulltoa_invert</text>
</a>
</g>
</g>
<!-- Node6&#45;&gt;Node10 -->
<g id="edge10" class="edge"><title>Node6&#45;&gt;Node10</title>
<path fill="none" stroke="midnightblue" d="M570.296,-149.363C585.755,-147.068 604.345,-144.309 620.946,-141.845"/>
<polygon fill="midnightblue" stroke="midnightblue" points="621.602,-145.286 630.979,-140.355 620.574,-138.361 621.602,-145.286"/>
</g>
<!-- Node11 -->
<g id="node12" class="node"><title>Node11</title>
<g id="a_node12"><a xlink:href="utoa__invert_8cpp.html#a5d99bba8e697c1e11da489d88fca8559" target="_top" xlink:title=" ">
<polygon fill="white" stroke="black" points="632.15,-86.3052 632.15,-106.305 699.85,-106.305 699.85,-86.3052 632.15,-86.3052"/>
<text text-anchor="middle" x="666" y="-92.3052" font-family="Helvetica,sans-Serif" font-size="10.00">ultoa_invert</text>
</a>
</g>
</g>
<!-- Node6&#45;&gt;Node11 -->
<g id="edge12" class="edge"><title>Node6&#45;&gt;Node11</title>
<path fill="none" stroke="midnightblue" d="M553.314,-144.246C567.039,-136.048 587.354,-124.523 606,-116.305 611.326,-113.958 617.02,-111.714 622.691,-109.633"/>
<polygon fill="midnightblue" stroke="midnightblue" points="623.881,-112.925 632.147,-106.296 621.552,-106.324 623.881,-112.925"/>
</g>
<!-- Node9 -->
<g id="node10" class="node"><title>Node9</title>
<g id="a_node10"><a xlink:href="lstrlib_8c.html#a9605f4d16ae762782f8be8b54aef0a22" target="_top" xlink:title=" ">
<polygon fill="white" stroke="black" points="761.828,-125.305 761.828,-145.305 796.172,-145.305 796.172,-125.305 761.828,-125.305"/>
<text text-anchor="middle" x="779" y="-131.305" font-family="Helvetica,sans-Serif" font-size="10.00">digit</text>
</a>
</g>
</g>
<!-- Node8&#45;&gt;Node9 -->
<g id="edge9" class="edge"><title>Node8&#45;&gt;Node9</title>
<path fill="none" stroke="midnightblue" d="M697.062,-164.267C706.355,-161.123 716.615,-157.61 726,-154.305 734.508,-151.309 743.766,-147.957 752.081,-144.912"/>
<polygon fill="midnightblue" stroke="midnightblue" points="753.465,-148.132 761.641,-141.394 751.048,-141.562 753.465,-148.132"/>
</g>
<!-- Node10&#45;&gt;Node9 -->
<g id="edge11" class="edge"><title>Node10&#45;&gt;Node9</title>
<path fill="none" stroke="midnightblue" d="M701.209,-135.305C717.407,-135.305 736.457,-135.305 751.53,-135.305"/>
<polygon fill="midnightblue" stroke="midnightblue" points="751.705,-138.805 761.705,-135.305 751.705,-131.805 751.705,-138.805"/>
</g>
<!-- Node11&#45;&gt;Node9 -->
<g id="edge13" class="edge"><title>Node11&#45;&gt;Node9</title>
<path fill="none" stroke="midnightblue" d="M697.062,-106.344C706.355,-109.488 716.615,-113 726,-116.305 734.508,-119.301 743.766,-122.654 752.081,-125.699"/>
<polygon fill="midnightblue" stroke="midnightblue" points="751.048,-129.048 761.641,-129.216 753.465,-122.479 751.048,-129.048"/>
</g>
<!-- Node13 -->
<g id="node14" class="node"><title>Node13</title>
<g id="a_node14"><a xlink:href="matrix__alg_8cpp.html#a71120309d433abdf23de6c2d78440b1c" target="_top" xlink:title=" ">
<polygon fill="white" stroke="black" points="195.862,-99.3052 195.862,-119.305 304.138,-119.305 304.138,-99.3052 195.862,-99.3052"/>
<text text-anchor="middle" x="250" y="-105.305" font-family="Helvetica,sans-Serif" font-size="10.00">mat_LU_decompose</text>
</a>
</g>
</g>
<!-- Node12&#45;&gt;Node13 -->
<g id="edge16" class="edge"><title>Node12&#45;&gt;Node13</title>
<path fill="none" stroke="midnightblue" d="M153.221,-80.3487C169.321,-85.2163 188.852,-91.121 206.067,-96.3255"/>
<polygon fill="midnightblue" stroke="midnightblue" points="205.307,-99.7521 215.892,-99.2958 207.333,-93.0516 205.307,-99.7521"/>
</g>
<!-- Node17 -->
<g id="node18" class="node"><title>Node17</title>
<g id="a_node18"><a xlink:href="matrix__alg_8cpp.html#ae99d89fadc41e4ff699c74822490a71e" target="_top" xlink:title=" ">
<polygon fill="white" stroke="black" points="203.37,-60.3052 203.37,-80.3052 296.63,-80.3052 296.63,-60.3052 203.37,-60.3052"/>
<text text-anchor="middle" x="250" y="-66.3052" font-family="Helvetica,sans-Serif" font-size="10.00">mat_forward_sub</text>
</a>
</g>
</g>
<!-- Node12&#45;&gt;Node17 -->
<g id="edge20" class="edge"><title>Node12&#45;&gt;Node17</title>
<path fill="none" stroke="midnightblue" d="M154.57,-70.3052C166.347,-70.3052 179.836,-70.3052 192.862,-70.3052"/>
<polygon fill="midnightblue" stroke="midnightblue" points="193.168,-73.8053 203.168,-70.3052 193.168,-66.8053 193.168,-73.8053"/>
</g>
<!-- Node18 -->
<g id="node19" class="node"><title>Node18</title>
<g id="a_node19"><a xlink:href="matrix__alg_8cpp.html#a5f5a54d345886bbaf464910d3a1cf139" target="_top" xlink:title=" ">
<polygon fill="white" stroke="black" points="209.48,-21.3052 209.48,-41.3052 290.52,-41.3052 290.52,-21.3052 209.48,-21.3052"/>
<text text-anchor="middle" x="250" y="-27.3052" font-family="Helvetica,sans-Serif" font-size="10.00">mat_back_sub</text>
</a>
</g>
</g>
<!-- Node12&#45;&gt;Node18 -->
<g id="edge21" class="edge"><title>Node12&#45;&gt;Node18</title>
<path fill="none" stroke="midnightblue" d="M153.221,-60.2618C169.321,-55.3942 188.852,-49.4894 206.067,-44.2849"/>
<polygon fill="midnightblue" stroke="midnightblue" points="207.333,-47.5589 215.892,-41.3147 205.307,-40.8584 207.333,-47.5589"/>
</g>
<!-- Node16 -->
<g id="node17" class="node"><title>Node16</title>
<g id="a_node17"><a xlink:href="matrix__alg_8cpp.html#a9e2d939e8250f6c633d3b87661b04d45" target="_top" xlink:title=" ">
<polygon fill="white" stroke="black" points="378.828,-21.3052 378.828,-41.3052 433.172,-41.3052 433.172,-21.3052 378.828,-21.3052"/>
<text text-anchor="middle" x="406" y="-27.3052" font-family="Helvetica,sans-Serif" font-size="10.00">mat_mul</text>
</a>
</g>
</g>
<!-- Node12&#45;&gt;Node16 -->
<g id="edge22" class="edge"><title>Node12&#45;&gt;Node16</title>
<path fill="none" stroke="midnightblue" d="M128.134,-59.9142C139.964,-45.7435 163.426,-21.0105 190,-11.3052 249.946,10.588 325.242,-5.4811 368.963,-18.7045"/>
<polygon fill="midnightblue" stroke="midnightblue" points="367.993,-22.0685 378.583,-21.7235 370.089,-15.3897 367.993,-22.0685"/>
</g>
<!-- Node14 -->
<g id="node15" class="node"><title>Node14</title>
<g id="a_node15"><a xlink:href="matrix__alg_8cpp.html#a7a49fc8b7a650e05045994ffba7c1dbc" target="_top" xlink:title=" ">
<polygon fill="white" stroke="black" points="376.323,-99.3052 376.323,-119.305 435.677,-119.305 435.677,-99.3052 376.323,-99.3052"/>
<text text-anchor="middle" x="406" y="-105.305" font-family="Helvetica,sans-Serif" font-size="10.00">mat_pivot</text>
</a>
</g>
</g>
<!-- Node13&#45;&gt;Node14 -->
<g id="edge17" class="edge"><title>Node13&#45;&gt;Node14</title>
<path fill="none" stroke="midnightblue" d="M304.43,-109.305C324.712,-109.305 347.41,-109.305 366.102,-109.305"/>
<polygon fill="midnightblue" stroke="midnightblue" points="366.315,-112.805 376.314,-109.305 366.314,-105.805 366.315,-112.805"/>
</g>
<!-- Node13&#45;&gt;Node16 -->
<g id="edge19" class="edge"><title>Node13&#45;&gt;Node16</title>
<path fill="none" stroke="midnightblue" d="M284.893,-99.2481C293.244,-96.3818 302.064,-93.0167 310,-89.3052 335.873,-77.2043 363.54,-59.7412 382.303,-47.1423"/>
<polygon fill="midnightblue" stroke="midnightblue" points="384.454,-49.9124 390.752,-41.3929 380.516,-44.1252 384.454,-49.9124"/>
</g>
<!-- Node15 -->
<g id="node16" class="node"><title>Node15</title>
<g id="a_node16"><a xlink:href="matrix__alg_8cpp.html#a4ae7bd9da0bae1b05a7c352df26008ff" target="_top" xlink:title=" ">
<polygon fill="white" stroke="black" points="516.328,-99.3052 516.328,-119.305 555.672,-119.305 555.672,-99.3052 516.328,-99.3052"/>
<text text-anchor="middle" x="536" y="-105.305" font-family="Helvetica,sans-Serif" font-size="10.00">swap</text>
</a>
</g>
</g>
<!-- Node14&#45;&gt;Node15 -->
<g id="edge18" class="edge"><title>Node14&#45;&gt;Node15</title>
<path fill="none" stroke="midnightblue" d="M435.726,-109.305C456.69,-109.305 484.998,-109.305 506.021,-109.305"/>
<polygon fill="midnightblue" stroke="midnightblue" points="506.273,-112.805 516.273,-109.305 506.273,-105.805 506.273,-112.805"/>
</g>
</g>
</svg>
        <g id="navigator" transform="translate(0 0)" fill="#404254">
                <rect fill="#f2f5e9" fill-opacity="0.5" stroke="#606060" stroke-width=".5" x="0" y="0" width="60" height="60"/>
                <use id="zoomplus" xlink:href="#zoomPlus" x="17" y="9" onmousedown="handleZoom(evt,'in')"/>
                <use id="zoomminus" xlink:href="#zoomMin" x="42" y="9" onmousedown="handleZoom(evt,'out')"/>
                <use id="reset" xlink:href="#resetDef" x="30" y="36" onmousedown="handleReset()"/>
                <g id="arrowUp" xlink:href="#dirArrow" transform="translate(30 24)" onmousedown="handlePan(0,-1)">
                  <use xlink:href="#rim" fill="#404040">
                        <set attributeName="fill" to="#808080" begin="arrowUp.mouseover" end="arrowUp.mouseout"/>
                  </use>
                  <path fill="none" stroke="white" stroke-width="1.5" d="M0,-3.0v7 M-2.5,-0.5L0,-3.0L2.5,-0.5"/>
                </g>
                <g id="arrowRight" xlink:href="#dirArrow" transform="rotate(90) translate(36 -43)" onmousedown="handlePan(1,0)">
                  <use xlink:href="#rim" fill="#404040">
                        <set attributeName="fill" to="#808080" begin="arrowRight.mouseover" end="arrowRight.mouseout"/>
                  </use>
                  <path fill="none" stroke="white" stroke-width="1.5" d="M0,-3.0v7 M-2.5,-0.5L0,-3.0L2.5,-0.5"/>
                </g>
                <g id="arrowDown" xlink:href="#dirArrow" transform="rotate(180) translate(-30 -48)" onmousedown="handlePan(0,1)">
                  <use xlink:href="#rim" fill="#404040">
                        <set attributeName="fill" to="#808080" begin="arrowDown.mouseover" end="arrowDown.mouseout"/>
                  </use>
                  <path fill="none" stroke="white" stroke-width="1.5" d="M0,-3.0v7 M-2.5,-0.5L0,-3.0L2.5,-0.5"/>
                </g>
                <g id="arrowLeft" xlink:href="#dirArrow" transform="rotate(270) translate(-36 17)" onmousedown="handlePan(-1,0)">
                  <use xlink:href="#rim" fill="#404040">
                        <set attributeName="fill" to="#808080" begin="arrowLeft.mouseover" end="arrowLeft.mouseout"/>
                  </use>
                  <path fill="none" stroke="white" stroke-width="1.5" d="M0,-3.0v7 M-2.5,-0.5L0,-3.0L2.5,-0.5"/>
                </g>
        </g>
        <svg viewBox="0 0 15 15" width="100%" height="30px" preserveAspectRatio="xMaxYMin meet">
         <g id="arrow_out" transform="scale(0.3 0.3)">
          <a xlink:href="matrix__alg_8cpp_adfb798dabbcb4c7a82b3a08978bd8738_cgraph_org.svg" target="_base">
           <rect id="button" ry="5" rx="5" y="6" x="6" height="38" width="38"
                fill="#f2f5e9" fill-opacity="0.5" stroke="#606060" stroke-width="1.0"/>
           <path id="arrow"
             d="M 11.500037,31.436501 C 11.940474,20.09759 22.043105,11.32322 32.158766,21.979434 L 37.068811,17.246167 C 37.068811,17.246167 37.088388,32 37.088388,32 L 22.160133,31.978069 C 22.160133,31.978069 26.997745,27.140456 26.997745,27.140456 C 18.528582,18.264221 13.291696,25.230495 11.500037,31.436501 z"
             style="fill:#404040;"/>
          </a>
         </g>
        </svg>
</svg>
