<?xml version="1.0" encoding="UTF-8" standalone="no"?>
<!DOCTYPE svg PUBLIC "-//W3C//DTD SVG 1.1//EN"
 "http://www.w3.org/Graphics/SVG/1.1/DTD/svg11.dtd">
<!-- Generated by graphviz version 2.30.1 (20130221.2233)
 -->
<!-- Title: rewind Pages: 1 -->
<!--zoomable 215 -->
<svg id="main" version="1.1" xmlns="http://www.w3.org/2000/svg" xmlns:xlink="http://www.w3.org/1999/xlink" xml:space="preserve" onload="init(evt)">
<style type="text/css"><![CDATA[
.edge:hover path { stroke: red; }
.edge:hover polygon { stroke: red; fill: red; }
]]></style>
<script type="text/javascript"><![CDATA[
var edges = document.getElementsByTagName('g');
if (edges && edges.length) {
  for (var i=0;i<edges.length;i++) {
    if (edges[i].id.substr(0,4)=='edge') {
      edges[i].setAttribute('class','edge');
    }
  }
}
]]></script>
        <defs>
                <circle id="rim" cx="0" cy="0" r="7"/>
                <circle id="rim2" cx="0" cy="0" r="3.5"/>
                <g id="zoomPlus">
                        <use xlink:href="#rim" fill="#404040">
                                <set attributeName="fill" to="#808080" begin="zoomplus.mouseover" end="zoomplus.mouseout"/>
                        </use>
                        <path d="M-4,0h8M0,-4v8" fill="none" stroke="white" stroke-width="1.5" pointer-events="none"/>
                </g>
                <g id="zoomMin">
                        <use xlink:href="#rim" fill="#404040">
                                <set attributeName="fill" to="#808080" begin="zoomminus.mouseover" end="zoomminus.mouseout"/>
                        </use>
                        <path d="M-4,0h8" fill="none" stroke="white" stroke-width="1.5" pointer-events="none"/>
                </g>
                <g id="dirArrow">
                        <path fill="none" stroke="white" stroke-width="1.5" d="M0,-3.0v7 M-2.5,-0.5L0,-3.0L2.5,-0.5"/>
                </g>
               <g id="resetDef">
                       <use xlink:href="#rim2" fill="#404040">
                               <set attributeName="fill" to="#808080" begin="reset.mouseover" end="reset.mouseout"/>
                       </use>
               </g>
        </defs>

<script type="text/javascript">
var viewWidth = 522;
var viewHeight = 215;
var sectionId = 'dynsection-82';
</script>
<script xlink:href="svgpan.js"/>
<svg id="graph" class="graph">
<g id="viewport">
<title>rewind</title>
<polygon fill="white" stroke="white" points="-4,5 -4,-211.094 519,-211.094 519,5 -4,5"/>
<!-- Node2858 -->
<g id="node1" class="node"><title>Node2858</title>
<g id="a_node1"><a xlink:title="POSIX rewind file to the beginning.">
<polygon fill="#bfbfbf" stroke="black" points="0.270996,-155 0.270996,-175 45.729,-175 45.729,-155 0.270996,-155"/>
<text text-anchor="middle" x="23" y="-161" font-family="Helvetica,sans-Serif" font-size="10.00">rewind</text>
</a>
</g>
</g>
<!-- Node2859 -->
<g id="node2" class="node"><title>Node2859</title>
<g id="a_node2"><a xlink:href="posix_8c.html#a5e25775bd8597f839a28125b616bd241" target="_top" xlink:title="POSIX seek to file possition.">
<polygon fill="white" stroke="black" points="82.0493,-155 82.0493,-175 121.951,-175 121.951,-155 82.0493,-155"/>
<text text-anchor="middle" x="102" y="-161" font-family="Helvetica,sans-Serif" font-size="10.00">fseek</text>
</a>
</g>
</g>
<!-- Node2858&#45;&gt;Node2859 -->
<g id="edge1" class="edge"><title>Node2858&#45;&gt;Node2859</title>
<path fill="none" stroke="midnightblue" d="M45.8591,-165C53.9512,-165 63.2579,-165 71.893,-165"/>
<polygon fill="midnightblue" stroke="midnightblue" points="71.9663,-168.5 81.9663,-165 71.9663,-161.5 71.9663,-168.5"/>
</g>
<!-- Node2860 -->
<g id="node3" class="node"><title>Node2860</title>
<g id="a_node3"><a xlink:href="posix_8c.html#af86fa14728c9bad5418a6d29cad9f9ff" target="_top" xlink:title="Convert POSIX stream pointer to POSIX fileno (index of __iob[])">
<polygon fill="white" stroke="black" points="474.047,-117 474.047,-137 513.953,-137 513.953,-117 474.047,-117"/>
<text text-anchor="middle" x="494" y="-123" font-family="Helvetica,sans-Serif" font-size="10.00">fileno</text>
</a>
</g>
</g>
<!-- Node2859&#45;&gt;Node2860 -->
<g id="edge2" class="edge"><title>Node2859&#45;&gt;Node2860</title>
<path fill="none" stroke="midnightblue" d="M122.173,-171.893C175.096,-189.744 326.663,-232.858 438,-185 456.616,-176.998 471.888,-159.255 481.576,-145.487"/>
<polygon fill="midnightblue" stroke="midnightblue" points="484.493,-147.421 487.114,-137.155 478.663,-143.546 484.493,-147.421"/>
</g>
<!-- Node2861 -->
<g id="node4" class="node"><title>Node2861</title>
<g id="a_node4"><a xlink:href="posix_8c.html#af4a94d1a050fafb23798dd6bcdac74f0" target="_top" xlink:title="POSIX seek to file position.">
<polygon fill="white" stroke="black" points="158.328,-97 158.328,-117 197.672,-117 197.672,-97 158.328,-97"/>
<text text-anchor="middle" x="178" y="-103" font-family="Helvetica,sans-Serif" font-size="10.00">lseek</text>
</a>
</g>
</g>
<!-- Node2859&#45;&gt;Node2861 -->
<g id="edge3" class="edge"><title>Node2859&#45;&gt;Node2861</title>
<path fill="none" stroke="midnightblue" d="M115.89,-154.897C126.896,-146.271 142.942,-133.694 155.831,-123.592"/>
<polygon fill="midnightblue" stroke="midnightblue" points="158.048,-126.301 163.76,-117.378 153.73,-120.792 158.048,-126.301"/>
</g>
<!-- Node2862 -->
<g id="node5" class="node"><title>Node2862</title>
<g id="a_node5"><a xlink:href="posix_8c.html#a1eeda4d85cf3cae5cf1ee8c1e196a686" target="_top" xlink:title="Convert POSIX fileno to FatFS handle NOT POSIX.">
<polygon fill="white" stroke="black" points="233.867,-117 233.867,-137 312.133,-137 312.133,-117 233.867,-117"/>
<text text-anchor="middle" x="273" y="-123" font-family="Helvetica,sans-Serif" font-size="10.00">fileno_to_fatfs</text>
</a>
</g>
</g>
<!-- Node2861&#45;&gt;Node2862 -->
<g id="edge4" class="edge"><title>Node2861&#45;&gt;Node2862</title>
<path fill="none" stroke="midnightblue" d="M197.82,-111.047C205.382,-112.673 214.479,-114.63 223.671,-116.607"/>
<polygon fill="midnightblue" stroke="midnightblue" points="223.103,-120.064 233.615,-118.745 224.575,-113.221 223.103,-120.064"/>
</g>
<!-- Node2861&#45;&gt;Node2860 -->
<g id="edge10" class="edge"><title>Node2861&#45;&gt;Node2860</title>
<path fill="none" stroke="midnightblue" d="M197.793,-97.4812C241.763,-76.6028 353.976,-31.457 438,-68 456.751,-76.1549 472.004,-94.2013 481.65,-108.203"/>
<polygon fill="midnightblue" stroke="midnightblue" points="478.774,-110.199 487.16,-116.675 484.642,-106.383 478.774,-110.199"/>
</g>
<!-- Node2863 -->
<g id="node6" class="node"><title>Node2863</title>
<g id="a_node6"><a xlink:href="posix_8c.html#aeac589354c9d47c7d9c7c49ba4b0d266" target="_top" xlink:title="Test POSIX fileno if it is a Serial Console/TTY.">
<polygon fill="white" stroke="black" points="373.33,-156 373.33,-176 412.67,-176 412.67,-156 373.33,-156"/>
<text text-anchor="middle" x="393" y="-162" font-family="Helvetica,sans-Serif" font-size="10.00">isatty</text>
</a>
</g>
</g>
<!-- Node2861&#45;&gt;Node2863 -->
<g id="edge11" class="edge"><title>Node2861&#45;&gt;Node2863</title>
<path fill="none" stroke="midnightblue" d="M189.831,-117.17C200.283,-126.341 216.984,-139.374 234,-146 276.824,-162.677 330.643,-166.129 363.128,-166.499"/>
<polygon fill="midnightblue" stroke="midnightblue" points="363.273,-170 373.28,-166.521 363.288,-163 363.273,-170"/>
</g>
<!-- Node2864 -->
<g id="node7" class="node"><title>Node2864</title>
<g id="a_node7"><a xlink:href="posix_8c.html#ae0821388c321f66b16fbca4a625022de" target="_top" xlink:title="Convert POSIX fileno to POSIX FILE stream pointer. NOT POSIX.">
<polygon fill="white" stroke="black" points="348.035,-78 348.035,-98 437.965,-98 437.965,-78 348.035,-78"/>
<text text-anchor="middle" x="393" y="-84" font-family="Helvetica,sans-Serif" font-size="10.00">fileno_to_stream</text>
</a>
</g>
</g>
<!-- Node2861&#45;&gt;Node2864 -->
<g id="edge12" class="edge"><title>Node2861&#45;&gt;Node2864</title>
<path fill="none" stroke="midnightblue" d="M197.902,-105.314C228.949,-102.544 291.864,-96.9323 337.674,-92.846"/>
<polygon fill="midnightblue" stroke="midnightblue" points="338.104,-96.3216 347.753,-91.9469 337.482,-89.3493 338.104,-96.3216"/>
</g>
<!-- Node2865 -->
<g id="node8" class="node"><title>Node2865</title>
<g id="a_node8"><a xlink:href="posix_8c.html#aeb68afd2fdf966f8d89cc7aaa9aa7c23" target="_top" xlink:title="Convert FafFs error result to POSIX errno. NOT POSIX.">
<polygon fill="white" stroke="black" points="234.148,-0 234.148,-20 311.852,-20 311.852,-0 234.148,-0"/>
<text text-anchor="middle" x="273" y="-6" font-family="Helvetica,sans-Serif" font-size="10.00">fatfs_to_errno</text>
</a>
</g>
</g>
<!-- Node2861&#45;&gt;Node2865 -->
<g id="edge13" class="edge"><title>Node2861&#45;&gt;Node2865</title>
<path fill="none" stroke="midnightblue" d="M185.187,-96.8346C194.51,-82.0571 213.287,-54.3035 234,-35 237.567,-31.6754 241.625,-28.5001 245.728,-25.5955"/>
<polygon fill="midnightblue" stroke="midnightblue" points="247.68,-28.5009 254.073,-20.0525 243.807,-22.67 247.68,-28.5009"/>
</g>
<!-- Node2862&#45;&gt;Node2863 -->
<g id="edge5" class="edge"><title>Node2862&#45;&gt;Node2863</title>
<path fill="none" stroke="midnightblue" d="M304.388,-137.043C322.625,-143.071 345.675,-150.689 363.554,-156.598"/>
<polygon fill="midnightblue" stroke="midnightblue" points="362.556,-159.955 373.15,-159.77 364.753,-153.308 362.556,-159.955"/>
</g>
<!-- Node2862&#45;&gt;Node2860 -->
<g id="edge7" class="edge"><title>Node2862&#45;&gt;Node2860</title>
<path fill="none" stroke="midnightblue" d="M312.147,-127C355.274,-127 424.555,-127 463.663,-127"/>
<polygon fill="midnightblue" stroke="midnightblue" points="463.847,-130.5 473.847,-127 463.847,-123.5 463.847,-130.5"/>
</g>
<!-- Node2862&#45;&gt;Node2864 -->
<g id="edge8" class="edge"><title>Node2862&#45;&gt;Node2864</title>
<path fill="none" stroke="midnightblue" d="M304.388,-116.957C318.84,-112.18 336.314,-106.405 351.843,-101.272"/>
<polygon fill="midnightblue" stroke="midnightblue" points="353.319,-104.471 361.715,-98.0094 351.122,-97.8244 353.319,-104.471"/>
</g>
<!-- Node2863&#45;&gt;Node2860 -->
<g id="edge6" class="edge"><title>Node2863&#45;&gt;Node2860</title>
<path fill="none" stroke="midnightblue" d="M413.088,-158.48C427.606,-152.761 447.821,-144.798 464.287,-138.311"/>
<polygon fill="midnightblue" stroke="midnightblue" points="465.949,-141.418 473.97,-134.497 463.383,-134.905 465.949,-141.418"/>
</g>
<!-- Node2864&#45;&gt;Node2860 -->
<g id="edge9" class="edge"><title>Node2864&#45;&gt;Node2860</title>
<path fill="none" stroke="midnightblue" d="M419.495,-98.0435C433.273,-103.471 450.326,-110.189 464.537,-115.787"/>
<polygon fill="midnightblue" stroke="midnightblue" points="463.259,-119.046 473.846,-119.454 465.825,-112.533 463.259,-119.046"/>
</g>
</g>
</svg>
        <g id="navigator" transform="translate(0 0)" fill="#404254">
                <rect fill="#f2f5e9" fill-opacity="0.5" stroke="#606060" stroke-width=".5" x="0" y="0" width="60" height="60"/>
                <use id="zoomplus" xlink:href="#zoomPlus" x="17" y="9" onmousedown="handleZoom(evt,'in')"/>
                <use id="zoomminus" xlink:href="#zoomMin" x="42" y="9" onmousedown="handleZoom(evt,'out')"/>
                <use id="reset" xlink:href="#resetDef" x="30" y="36" onmousedown="handleReset()"/>
                <g id="arrowUp" xlink:href="#dirArrow" transform="translate(30 24)" onmousedown="handlePan(0,-1)">
                  <use xlink:href="#rim" fill="#404040">
                        <set attributeName="fill" to="#808080" begin="arrowUp.mouseover" end="arrowUp.mouseout"/>
                  </use>
                  <path fill="none" stroke="white" stroke-width="1.5" d="M0,-3.0v7 M-2.5,-0.5L0,-3.0L2.5,-0.5"/>
                </g>
                <g id="arrowRight" xlink:href="#dirArrow" transform="rotate(90) translate(36 -43)" onmousedown="handlePan(1,0)">
                  <use xlink:href="#rim" fill="#404040">
                        <set attributeName="fill" to="#808080" begin="arrowRight.mouseover" end="arrowRight.mouseout"/>
                  </use>
                  <path fill="none" stroke="white" stroke-width="1.5" d="M0,-3.0v7 M-2.5,-0.5L0,-3.0L2.5,-0.5"/>
                </g>
                <g id="arrowDown" xlink:href="#dirArrow" transform="rotate(180) translate(-30 -48)" onmousedown="handlePan(0,1)">
                  <use xlink:href="#rim" fill="#404040">
                        <set attributeName="fill" to="#808080" begin="arrowDown.mouseover" end="arrowDown.mouseout"/>
                  </use>
                  <path fill="none" stroke="white" stroke-width="1.5" d="M0,-3.0v7 M-2.5,-0.5L0,-3.0L2.5,-0.5"/>
                </g>
                <g id="arrowLeft" xlink:href="#dirArrow" transform="rotate(270) translate(-36 17)" onmousedown="handlePan(-1,0)">
                  <use xlink:href="#rim" fill="#404040">
                        <set attributeName="fill" to="#808080" begin="arrowLeft.mouseover" end="arrowLeft.mouseout"/>
                  </use>
                  <path fill="none" stroke="white" stroke-width="1.5" d="M0,-3.0v7 M-2.5,-0.5L0,-3.0L2.5,-0.5"/>
                </g>
        </g>
        <svg viewBox="0 0 15 15" width="100%" height="30px" preserveAspectRatio="xMaxYMin meet">
         <g id="arrow_out" transform="scale(0.3 0.3)">
          <a xlink:href="posix_8c_aa0cd401f198d33d9d01a9e8aa4026819_cgraph_org.svg" target="_base">
           <rect id="button" ry="5" rx="5" y="6" x="6" height="38" width="38"
                fill="#f2f5e9" fill-opacity="0.5" stroke="#606060" stroke-width="1.0"/>
           <path id="arrow"
             d="M 11.500037,31.436501 C 11.940474,20.09759 22.043105,11.32322 32.158766,21.979434 L 37.068811,17.246167 C 37.068811,17.246167 37.088388,32 37.088388,32 L 22.160133,31.978069 C 22.160133,31.978069 26.997745,27.140456 26.997745,27.140456 C 18.528582,18.264221 13.291696,25.230495 11.500037,31.436501 z"
             style="fill:#404040;"/>
          </a>
         </g>
        </svg>
</svg>
