<?xml version="1.0" encoding="UTF-8" standalone="no"?>
<!DOCTYPE svg PUBLIC "-//W3C//DTD SVG 1.1//EN"
 "http://www.w3.org/Graphics/SVG/1.1/DTD/svg11.dtd">
<!-- Generated by graphviz version 2.30.1 (20130221.2233)
 -->
<!-- Title: feof Pages: 1 -->
<svg width="338pt" height="28pt"
 viewBox="0.00 0.00 338.00 28.00" xmlns="http://www.w3.org/2000/svg" xmlns:xlink="http://www.w3.org/1999/xlink">
<g id="graph0" class="graph" transform="scale(1 1) rotate(0) translate(4 24)">
<title>feof</title>
<polygon fill="white" stroke="white" points="-4,5 -4,-24 335,-24 335,5 -4,5"/>
<!-- Node900 -->
<g id="node1" class="node"><title>Node900</title>
<g id="a_node1"><a xlink:title="feof reports if the stream is at EOF">
<polygon fill="#bfbfbf" stroke="black" points="296.66,-0 296.66,-20 329.34,-20 329.34,-0 296.66,-0"/>
<text text-anchor="middle" x="313" y="-6" font-family="Helvetica,sans-Serif" font-size="10.00">feof</text>
</a>
</g>
</g>
<!-- Node901 -->
<g id="node2" class="node"><title>Node901</title>
<g id="a_node2"><a xlink:href="lauxlib_8c.html#a51d79018e5cbe2f3cd784f3ae22a65fb" target="_top" xlink:title=" ">
<polygon fill="white" stroke="black" points="223.995,-0 223.995,-20 260.005,-20 260.005,-0 223.995,-0"/>
<text text-anchor="middle" x="242" y="-6" font-family="Helvetica,sans-Serif" font-size="10.00">getF</text>
</a>
</g>
</g>
<!-- Node900&#45;&gt;Node901 -->
<g id="edge1" class="edge"><title>Node900&#45;&gt;Node901</title>
<path fill="none" stroke="midnightblue" d="M286.236,-10C277.489,-10 267.939,-10 260.045,-10"/>
<polygon fill="midnightblue" stroke="midnightblue" points="286.343,-13.5001 296.343,-10 286.343,-6.5001 286.343,-13.5001"/>
</g>
<!-- Node902 -->
<g id="node3" class="node"><title>Node902</title>
<g id="a_node3"><a xlink:href="lauxlib_8h.html#a8c38c6dcf9db7e110e525b46742bacf8" target="_top" xlink:title=" ">
<polygon fill="white" stroke="black" points="110.421,-0 110.421,-20 187.579,-20 187.579,-0 110.421,-0"/>
<text text-anchor="middle" x="149" y="-6" font-family="Helvetica,sans-Serif" font-size="10.00">luaL_loadfilex</text>
</a>
</g>
</g>
<!-- Node901&#45;&gt;Node902 -->
<g id="edge2" class="edge"><title>Node901&#45;&gt;Node902</title>
<path fill="none" stroke="midnightblue" d="M213.796,-10C205.624,-10 196.506,-10 187.779,-10"/>
<polygon fill="midnightblue" stroke="midnightblue" points="213.884,-13.5001 223.884,-10 213.884,-6.5001 213.884,-13.5001"/>
</g>
<!-- Node903 -->
<g id="node4" class="node"><title>Node903</title>
<g id="a_node4"><a xlink:href="lbaselib_8c.html#aeb4cb83db820979bbdd7710109b52957" target="_top" xlink:title=" ">
<polygon fill="white" stroke="black" points="0.367188,-0 0.367188,-20 73.6328,-20 73.6328,-0 0.367188,-0"/>
<text text-anchor="middle" x="37" y="-6" font-family="Helvetica,sans-Serif" font-size="10.00">luaB_loadfile</text>
</a>
</g>
</g>
<!-- Node902&#45;&gt;Node903 -->
<g id="edge3" class="edge"><title>Node902&#45;&gt;Node903</title>
<path fill="none" stroke="midnightblue" d="M99.9589,-10C91.1403,-10 82.0791,-10 73.702,-10"/>
<polygon fill="midnightblue" stroke="midnightblue" points="100.144,-13.5001 110.144,-10 100.144,-6.5001 100.144,-13.5001"/>
</g>
</g>
</svg>
