<?xml version="1.0" encoding="UTF-8" standalone="no"?>
<!DOCTYPE svg PUBLIC "-//W3C//DTD SVG 1.1//EN"
 "http://www.w3.org/Graphics/SVG/1.1/DTD/svg11.dtd">
<!-- Generated by graphviz version 2.30.1 (20130221.2233)
 -->
<!-- Title: libraries/AP_HAL_Linux/RCInput_Navio2.cpp Pages: 1 -->
<svg width="1660pt" height="738pt"
 viewBox="0.00 0.00 1660.24 738.00" xmlns="http://www.w3.org/2000/svg" xmlns:xlink="http://www.w3.org/1999/xlink">
<g id="graph0" class="graph" transform="scale(1 1) rotate(0) translate(4 734)">
<title>libraries/AP_HAL_Linux/RCInput_Navio2.cpp</title>
<polygon fill="white" stroke="white" points="-4,5 -4,-734 1657.24,-734 1657.24,5 -4,5"/>
<!-- Node0 -->
<g id="node1" class="node"><title>Node0</title>
<g id="a_node1"><a xlink:title=" ">
<polygon fill="#bfbfbf" stroke="black" points="1376.44,-697 1376.44,-729 1498.05,-729 1498.05,-697 1376.44,-697"/>
<text text-anchor="start" x="1384.44" y="-715" font-family="Helvetica,sans-Serif" font-size="10.00">libraries/AP_HAL_Linux</text>
<text text-anchor="middle" x="1437.24" y="-703" font-family="Helvetica,sans-Serif" font-size="10.00">/RCInput_Navio2.cpp</text>
</a>
</g>
</g>
<!-- Node1 -->
<g id="node2" class="node"><title>Node1</title>
<g id="a_node2"><a xlink:href="AP__HAL_8h.html" target="_top" xlink:title=" ">
<polygon fill="white" stroke="black" points="765.328,-407 765.328,-427 869.156,-427 869.156,-407 765.328,-407"/>
<text text-anchor="middle" x="817.242" y="-413" font-family="Helvetica,sans-Serif" font-size="10.00">AP_HAL/AP_HAL.h</text>
</a>
</g>
</g>
<!-- Node0&#45;&gt;Node1 -->
<g id="edge1" class="edge"><title>Node0&#45;&gt;Node1</title>
<path fill="none" stroke="midnightblue" d="M1403.91,-696.903C1367.78,-677.994 1315.24,-641.912 1315.24,-592 1315.24,-592 1315.24,-592 1315.24,-532 1315.24,-443.612 1013.39,-423.753 879.694,-419.292"/>
<polygon fill="midnightblue" stroke="midnightblue" points="879.701,-415.791 869.596,-418.974 879.48,-422.787 879.701,-415.791"/>
</g>
<!-- Node32 -->
<g id="node33" class="node"><title>Node32</title>
<g id="a_node33"><a xlink:title=" ">
<polygon fill="white" stroke="#bfbfbf" points="1416.18,-639 1416.18,-659 1458.3,-659 1458.3,-639 1416.18,-639"/>
<text text-anchor="middle" x="1437.24" y="-645" font-family="Helvetica,sans-Serif" font-size="10.00">cstdio</text>
</a>
</g>
</g>
<!-- Node0&#45;&gt;Node32 -->
<g id="edge74" class="edge"><title>Node0&#45;&gt;Node32</title>
<path fill="none" stroke="midnightblue" d="M1437.24,-696.992C1437.24,-688.726 1437.24,-678.373 1437.24,-669.489"/>
<polygon fill="midnightblue" stroke="midnightblue" points="1440.74,-669.29 1437.24,-659.29 1433.74,-669.29 1440.74,-669.29"/>
</g>
<!-- Node33 -->
<g id="node34" class="node"><title>Node33</title>
<g id="a_node34"><a xlink:title=" ">
<polygon fill="white" stroke="#bfbfbf" points="1476.73,-639 1476.73,-659 1527.75,-659 1527.75,-639 1476.73,-639"/>
<text text-anchor="middle" x="1502.24" y="-645" font-family="Helvetica,sans-Serif" font-size="10.00">unistd.h</text>
</a>
</g>
</g>
<!-- Node0&#45;&gt;Node33 -->
<g id="edge75" class="edge"><title>Node0&#45;&gt;Node33</title>
<path fill="none" stroke="midnightblue" d="M1452.98,-696.992C1462.7,-687.716 1475.18,-675.811 1485.15,-666.304"/>
<polygon fill="midnightblue" stroke="midnightblue" points="1487.68,-668.725 1492.5,-659.29 1482.85,-663.66 1487.68,-668.725"/>
</g>
<!-- Node34 -->
<g id="node35" class="node"><title>Node34</title>
<g id="a_node35"><a xlink:href="fcntl_8h.html" target="_top" xlink:title=" ">
<polygon fill="white" stroke="black" points="1545.9,-639 1545.9,-659 1588.58,-659 1588.58,-639 1545.9,-639"/>
<text text-anchor="middle" x="1567.24" y="-645" font-family="Helvetica,sans-Serif" font-size="10.00">fcntl.h</text>
</a>
</g>
</g>
<!-- Node0&#45;&gt;Node34 -->
<g id="edge76" class="edge"><title>Node0&#45;&gt;Node34</title>
<path fill="none" stroke="midnightblue" d="M1468.71,-696.992C1490.12,-686.782 1518.21,-673.385 1538.92,-663.509"/>
<polygon fill="midnightblue" stroke="midnightblue" points="1540.62,-666.573 1548.14,-659.109 1537.61,-660.254 1540.62,-666.573"/>
</g>
<!-- Node35 -->
<g id="node36" class="node"><title>Node35</title>
<g id="a_node36"><a xlink:title=" ">
<polygon fill="white" stroke="#bfbfbf" points="1607.07,-639 1607.07,-659 1651.41,-659 1651.41,-639 1607.07,-639"/>
<text text-anchor="middle" x="1629.24" y="-645" font-family="Helvetica,sans-Serif" font-size="10.00">cstdlib</text>
</a>
</g>
</g>
<!-- Node0&#45;&gt;Node35 -->
<g id="edge77" class="edge"><title>Node0&#45;&gt;Node35</title>
<path fill="none" stroke="midnightblue" d="M1483.72,-696.992C1518.82,-685.658 1566.08,-670.397 1597.08,-660.384"/>
<polygon fill="midnightblue" stroke="midnightblue" points="1598.5,-663.607 1606.94,-657.203 1596.34,-656.945 1598.5,-663.607"/>
</g>
<!-- Node24 -->
<g id="node25" class="node"><title>Node24</title>
<g id="a_node25"><a xlink:href="AP__Common_8h.html" target="_top" xlink:title="Common definitions and utility routines for the ArduPilot libraries.">
<polygon fill="white" stroke="black" points="1172.22,-117 1172.22,-137 1318.27,-137 1318.27,-117 1172.22,-117"/>
<text text-anchor="middle" x="1245.24" y="-123" font-family="Helvetica,sans-Serif" font-size="10.00">AP_Common/AP_Common.h</text>
</a>
</g>
</g>
<!-- Node0&#45;&gt;Node24 -->
<g id="edge78" class="edge"><title>Node0&#45;&gt;Node24</title>
<path fill="none" stroke="midnightblue" d="M1426.61,-696.894C1412.2,-674.9 1388.24,-632.281 1388.24,-592 1388.24,-592 1388.24,-592 1388.24,-242 1388.24,-210.498 1389.7,-197.061 1368.24,-174 1352.75,-157.356 1330.67,-146.699 1309.47,-139.89"/>
<polygon fill="midnightblue" stroke="midnightblue" points="1310.41,-136.517 1299.82,-137.025 1308.41,-143.227 1310.41,-136.517"/>
</g>
<!-- Node36 -->
<g id="node37" class="node"><title>Node36</title>
<g id="a_node37"><a xlink:href="RCInput__Navio2_8h.html" target="_top" xlink:title=" ">
<polygon fill="white" stroke="black" points="1119.39,-639 1119.39,-659 1217.1,-659 1217.1,-639 1119.39,-639"/>
<text text-anchor="middle" x="1168.24" y="-645" font-family="Helvetica,sans-Serif" font-size="10.00">RCInput_Navio2.h</text>
</a>
</g>
</g>
<!-- Node0&#45;&gt;Node36 -->
<g id="edge79" class="edge"><title>Node0&#45;&gt;Node36</title>
<path fill="none" stroke="midnightblue" d="M1376.2,-697.931C1328.07,-686.837 1261.83,-671.57 1217.15,-661.272"/>
<polygon fill="midnightblue" stroke="midnightblue" points="1217.93,-657.86 1207.4,-659.025 1216.36,-664.681 1217.93,-657.86"/>
</g>
<!-- Node2 -->
<g id="node3" class="node"><title>Node2</title>
<g id="a_node3"><a xlink:title=" ">
<polygon fill="white" stroke="#bfbfbf" points="906.121,-59 906.121,-79 954.363,-79 954.363,-59 906.121,-59"/>
<text text-anchor="middle" x="930.242" y="-65" font-family="Helvetica,sans-Serif" font-size="10.00">stdint.h</text>
</a>
</g>
</g>
<!-- Node1&#45;&gt;Node2 -->
<g id="edge2" class="edge"><title>Node1&#45;&gt;Node2</title>
<path fill="none" stroke="midnightblue" d="M869.249,-414.685C942.769,-409.746 1068.24,-388.627 1068.24,-302 1068.24,-302 1068.24,-302 1068.24,-184 1068.24,-130.171 1005.06,-96.9941 964.2,-81.1662"/>
<polygon fill="midnightblue" stroke="midnightblue" points="965.189,-77.8 954.596,-77.603 962.754,-84.3629 965.189,-77.8"/>
</g>
<!-- Node3 -->
<g id="node4" class="node"><title>Node3</title>
<g id="a_node4"><a xlink:href="AP__HAL__Namespace_8h.html" target="_top" xlink:title=" ">
<polygon fill="white" stroke="black" points="419.434,-117 419.434,-137 541.05,-137 541.05,-117 419.434,-117"/>
<text text-anchor="middle" x="480.242" y="-123" font-family="Helvetica,sans-Serif" font-size="10.00">AP_HAL_Namespace.h</text>
</a>
</g>
</g>
<!-- Node1&#45;&gt;Node3 -->
<g id="edge3" class="edge"><title>Node1&#45;&gt;Node3</title>
<path fill="none" stroke="midnightblue" d="M765.086,-413.63C674.819,-408.882 493.619,-396.325 436.242,-370 366.761,-338.121 340.086,-323.947 309.242,-254 283.081,-194.673 373.523,-157.403 432.736,-139.877"/>
<polygon fill="midnightblue" stroke="midnightblue" points="434.02,-143.15 442.67,-137.033 432.093,-136.42 434.02,-143.15"/>
</g>
<!-- Node7 -->
<g id="node8" class="node"><title>Node7</title>
<g id="a_node8"><a xlink:href="AP__HAL__Boards_8h.html" target="_top" xlink:title=" ">
<polygon fill="white" stroke="black" points="1336.27,-117 1336.27,-137 1436.21,-137 1436.21,-117 1336.27,-117"/>
<text text-anchor="middle" x="1386.24" y="-123" font-family="Helvetica,sans-Serif" font-size="10.00">AP_HAL_Boards.h</text>
</a>
</g>
</g>
<!-- Node1&#45;&gt;Node7 -->
<g id="edge7" class="edge"><title>Node1&#45;&gt;Node7</title>
<path fill="none" stroke="midnightblue" d="M869.165,-411.75C1016.44,-399.007 1426.24,-358.472 1426.24,-302 1426.24,-302 1426.24,-302 1426.24,-242 1426.24,-206.35 1408.61,-167.786 1396.76,-145.892"/>
<polygon fill="midnightblue" stroke="midnightblue" points="1399.75,-144.079 1391.8,-137.076 1393.65,-147.509 1399.75,-144.079"/>
</g>
<!-- Node8 -->
<g id="node9" class="node"><title>Node8</title>
<g id="a_node9"><a xlink:href="AP__HAL__Macros_8h.html" target="_top" xlink:title=" ">
<polygon fill="white" stroke="black" points="1258.72,-175 1258.72,-195 1359.76,-195 1359.76,-175 1258.72,-175"/>
<text text-anchor="middle" x="1309.24" y="-181" font-family="Helvetica,sans-Serif" font-size="10.00">AP_HAL_Macros.h</text>
</a>
</g>
</g>
<!-- Node1&#45;&gt;Node8 -->
<g id="edge8" class="edge"><title>Node1&#45;&gt;Node8</title>
<path fill="none" stroke="midnightblue" d="M869.404,-412.965C949.112,-407.609 1096.87,-394.644 1143.24,-370 1218.22,-330.152 1276.26,-242.383 1298.91,-204.266"/>
<polygon fill="midnightblue" stroke="midnightblue" points="1302.11,-205.711 1304.12,-195.307 1296.06,-202.191 1302.11,-205.711"/>
</g>
<!-- Node9 -->
<g id="node10" class="node"><title>Node9</title>
<g id="a_node10"><a xlink:href="AP__HAL__Main_8h.html" target="_top" xlink:title=" ">
<polygon fill="white" stroke="black" points="506.277,-349 506.277,-369 596.207,-369 596.207,-349 506.277,-349"/>
<text text-anchor="middle" x="551.242" y="-355" font-family="Helvetica,sans-Serif" font-size="10.00">AP_HAL_Main.h</text>
</a>
</g>
</g>
<!-- Node1&#45;&gt;Node9 -->
<g id="edge10" class="edge"><title>Node1&#45;&gt;Node9</title>
<path fill="none" stroke="midnightblue" d="M774.209,-406.94C727.851,-397.181 654.04,-381.642 604.164,-371.141"/>
<polygon fill="midnightblue" stroke="midnightblue" points="604.72,-367.682 594.213,-369.047 603.278,-374.532 604.72,-367.682"/>
</g>
<!-- Node21 -->
<g id="node22" class="node"><title>Node21</title>
<g id="a_node22"><a xlink:href="UARTDriver_8h.html" target="_top" xlink:title=" ">
<polygon fill="white" stroke="black" points="845.49,-233 845.49,-253 922.994,-253 922.994,-233 845.49,-233"/>
<text text-anchor="middle" x="884.242" y="-239" font-family="Helvetica,sans-Serif" font-size="10.00">UARTDriver.h</text>
</a>
</g>
</g>
<!-- Node1&#45;&gt;Node21 -->
<g id="edge50" class="edge"><title>Node1&#45;&gt;Node21</title>
<path fill="none" stroke="midnightblue" d="M820.844,-406.753C831.432,-379.571 862.608,-299.538 876.914,-262.811"/>
<polygon fill="midnightblue" stroke="midnightblue" points="880.254,-263.882 880.622,-253.293 873.731,-261.341 880.254,-263.882"/>
</g>
<!-- Node11 -->
<g id="node12" class="node"><title>Node11</title>
<g id="a_node12"><a xlink:href="AnalogIn_8h.html" target="_top" xlink:title=" ">
<polygon fill="white" stroke="black" points="109.333,-233 109.333,-253 173.151,-253 173.151,-233 109.333,-233"/>
<text text-anchor="middle" x="141.242" y="-239" font-family="Helvetica,sans-Serif" font-size="10.00">AnalogIn.h</text>
</a>
</g>
</g>
<!-- Node1&#45;&gt;Node11 -->
<g id="edge51" class="edge"><title>Node1&#45;&gt;Node11</title>
<path fill="none" stroke="midnightblue" d="M765.047,-415.866C646.956,-414.877 362.824,-408.445 276.242,-370 221.512,-345.698 174.779,-289.782 153.509,-261.322"/>
<polygon fill="midnightblue" stroke="midnightblue" points="156.244,-259.133 147.52,-253.121 150.591,-263.261 156.244,-259.133"/>
</g>
<!-- Node20 -->
<g id="node21" class="node"><title>Node20</title>
<g id="a_node21"><a xlink:href="Storage_8h.html" target="_top" xlink:title=" ">
<polygon fill="white" stroke="black" points="397.56,-233 397.56,-253 456.924,-253 456.924,-233 397.56,-233"/>
<text text-anchor="middle" x="427.242" y="-239" font-family="Helvetica,sans-Serif" font-size="10.00">Storage.h</text>
</a>
</g>
</g>
<!-- Node1&#45;&gt;Node20 -->
<g id="edge52" class="edge"><title>Node1&#45;&gt;Node20</title>
<path fill="none" stroke="midnightblue" d="M765.311,-414.067C686.075,-410.212 539.707,-399.254 497.242,-370 459.765,-344.183 440.209,-291.46 432.025,-263.087"/>
<polygon fill="midnightblue" stroke="midnightblue" points="435.339,-261.936 429.352,-253.195 428.582,-263.762 435.339,-261.936"/>
</g>
<!-- Node13 -->
<g id="node14" class="node"><title>Node13</title>
<g id="a_node14"><a xlink:href="GPIO_8h.html" target="_top" xlink:title=" ">
<polygon fill="white" stroke="black" points="593.57,-175 593.57,-195 642.914,-195 642.914,-175 593.57,-175"/>
<text text-anchor="middle" x="618.242" y="-181" font-family="Helvetica,sans-Serif" font-size="10.00">GPIO.h</text>
</a>
</g>
</g>
<!-- Node1&#45;&gt;Node13 -->
<g id="edge53" class="edge"><title>Node1&#45;&gt;Node13</title>
<path fill="none" stroke="midnightblue" d="M816.909,-406.879C815.332,-377.288 806.334,-282.926 755.242,-232 721.716,-198.583 698.333,-210.404 652.68,-197.557"/>
<polygon fill="midnightblue" stroke="midnightblue" points="653.505,-194.148 642.917,-194.528 651.43,-200.834 653.505,-194.148"/>
</g>
<!-- Node14 -->
<g id="node15" class="node"><title>Node14</title>
<g id="a_node15"><a xlink:href="RCInput_8h.html" target="_top" xlink:title=" ">
<polygon fill="white" stroke="black" points="318.73,-233 318.73,-253 379.754,-253 379.754,-233 318.73,-233"/>
<text text-anchor="middle" x="349.242" y="-239" font-family="Helvetica,sans-Serif" font-size="10.00">RCInput.h</text>
</a>
</g>
</g>
<!-- Node1&#45;&gt;Node14 -->
<g id="edge54" class="edge"><title>Node1&#45;&gt;Node14</title>
<path fill="none" stroke="midnightblue" d="M765.069,-413.252C681.415,-408.154 521.568,-395.364 471.242,-370 420.918,-344.636 379.593,-290.09 360.557,-261.813"/>
<polygon fill="midnightblue" stroke="midnightblue" points="363.39,-259.75 354.976,-253.311 357.538,-263.592 363.39,-259.75"/>
</g>
<!-- Node15 -->
<g id="node16" class="node"><title>Node15</title>
<g id="a_node16"><a xlink:href="RCOutput_8h.html" target="_top" xlink:title=" ">
<polygon fill="white" stroke="black" points="644.841,-233 644.841,-253 713.643,-253 713.643,-233 644.841,-233"/>
<text text-anchor="middle" x="679.242" y="-239" font-family="Helvetica,sans-Serif" font-size="10.00">RCOutput.h</text>
</a>
</g>
</g>
<!-- Node1&#45;&gt;Node15 -->
<g id="edge55" class="edge"><title>Node1&#45;&gt;Node15</title>
<path fill="none" stroke="midnightblue" d="M786.959,-406.864C767.581,-399.637 743.177,-387.765 727.242,-370 699.342,-338.895 687.013,-289.908 682.105,-263.099"/>
<polygon fill="midnightblue" stroke="midnightblue" points="685.532,-262.371 680.432,-253.084 678.627,-263.524 685.532,-262.371"/>
</g>
<!-- Node28 -->
<g id="node29" class="node"><title>Node28</title>
<g id="a_node29"><a xlink:href="Scheduler_8h.html" target="_top" xlink:title=" ">
<polygon fill="white" stroke="black" points="1133.83,-175 1133.83,-195 1202.65,-195 1202.65,-175 1133.83,-175"/>
<text text-anchor="middle" x="1168.24" y="-181" font-family="Helvetica,sans-Serif" font-size="10.00">Scheduler.h</text>
</a>
</g>
</g>
<!-- Node1&#45;&gt;Node28 -->
<g id="edge56" class="edge"><title>Node1&#45;&gt;Node28</title>
<path fill="none" stroke="midnightblue" d="M869.367,-413.291C937.362,-408.715 1051.31,-397.143 1082.24,-370 1130.53,-327.625 1092.94,-287.529 1125.24,-232 1131.72,-220.859 1141.36,-210.222 1149.86,-201.989"/>
<polygon fill="midnightblue" stroke="midnightblue" points="1152.28,-204.522 1157.23,-195.158 1147.52,-199.387 1152.28,-204.522"/>
</g>
<!-- Node29 -->
<g id="node30" class="node"><title>Node29</title>
<g id="a_node30"><a xlink:href="Semaphores_8h.html" target="_top" xlink:title=" ">
<polygon fill="white" stroke="black" points="958.723,-175 958.723,-195 1039.76,-195 1039.76,-175 958.723,-175"/>
<text text-anchor="middle" x="999.242" y="-181" font-family="Helvetica,sans-Serif" font-size="10.00">Semaphores.h</text>
</a>
</g>
</g>
<!-- Node1&#45;&gt;Node29 -->
<g id="edge61" class="edge"><title>Node1&#45;&gt;Node29</title>
<path fill="none" stroke="midnightblue" d="M834.217,-406.988C848.84,-398.681 869.944,-385.341 885.242,-370 936.463,-318.636 975.256,-240.117 991.24,-204.598"/>
<polygon fill="midnightblue" stroke="midnightblue" points="994.626,-205.595 995.457,-195.033 988.221,-202.771 994.626,-205.595"/>
</g>
<!-- Node30 -->
<g id="node31" class="node"><title>Node30</title>
<g id="a_node31"><a xlink:href="Util_8h.html" target="_top" xlink:title=" ">
<polygon fill="white" stroke="black" points="736.85,-175 736.85,-195 775.634,-195 775.634,-175 736.85,-175"/>
<text text-anchor="middle" x="756.242" y="-181" font-family="Helvetica,sans-Serif" font-size="10.00">Util.h</text>
</a>
</g>
</g>
<!-- Node1&#45;&gt;Node30 -->
<g id="edge64" class="edge"><title>Node1&#45;&gt;Node30</title>
<path fill="none" stroke="midnightblue" d="M817.752,-406.737C818.93,-378.975 819.934,-294.514 793.242,-232 788.594,-221.113 780.608,-210.687 773.243,-202.521"/>
<polygon fill="midnightblue" stroke="midnightblue" points="775.668,-199.992 766.231,-195.175 770.604,-204.826 775.668,-199.992"/>
</g>
<!-- Node27 -->
<g id="node28" class="node"><title>Node27</title>
<g id="a_node28"><a xlink:href="AP__HAL_2OpticalFlow_8h.html" target="_top" xlink:title=" ">
<polygon fill="white" stroke="black" points="551.227,-233 551.227,-253 627.257,-253 627.257,-233 551.227,-233"/>
<text text-anchor="middle" x="589.242" y="-239" font-family="Helvetica,sans-Serif" font-size="10.00">OpticalFlow.h</text>
</a>
</g>
</g>
<!-- Node1&#45;&gt;Node27 -->
<g id="edge67" class="edge"><title>Node1&#45;&gt;Node27</title>
<path fill="none" stroke="midnightblue" d="M786.861,-406.973C763.992,-399.309 732.542,-386.863 708.242,-370 663.132,-338.696 621.867,-287.997 601.886,-261.46"/>
<polygon fill="midnightblue" stroke="midnightblue" points="604.499,-259.107 595.735,-253.153 598.873,-263.272 604.499,-259.107"/>
</g>
<!-- Node31 -->
<g id="node32" class="node"><title>Node31</title>
<g id="a_node32"><a xlink:href="Flash_8h.html" target="_top" xlink:title=" ">
<polygon fill="white" stroke="black" points="526.846,-175 526.846,-195 575.639,-195 575.639,-175 526.846,-175"/>
<text text-anchor="middle" x="551.242" y="-181" font-family="Helvetica,sans-Serif" font-size="10.00">Flash.h</text>
</a>
</g>
</g>
<!-- Node1&#45;&gt;Node31 -->
<g id="edge68" class="edge"><title>Node1&#45;&gt;Node31</title>
<path fill="none" stroke="midnightblue" d="M815.261,-406.648C808.341,-376.347 782.321,-280.058 722.242,-232 675.161,-194.339 647.989,-211.308 585.611,-196.136"/>
<polygon fill="midnightblue" stroke="midnightblue" points="586.281,-192.693 575.719,-193.533 584.5,-199.463 586.281,-192.693"/>
</g>
<!-- Node22 -->
<g id="node23" class="node"><title>Node22</title>
<g id="a_node23"><a xlink:href="BetterStream_8h.html" target="_top" xlink:title=" ">
<polygon fill="white" stroke="black" points="793.836,-175 793.836,-195 902.648,-195 902.648,-175 793.836,-175"/>
<text text-anchor="middle" x="848.242" y="-181" font-family="Helvetica,sans-Serif" font-size="10.00">utility/BetterStream.h</text>
</a>
</g>
</g>
<!-- Node1&#45;&gt;Node22 -->
<g id="edge71" class="edge"><title>Node1&#45;&gt;Node22</title>
<path fill="none" stroke="midnightblue" d="M826.934,-406.977C850.619,-384.158 910.978,-321.167 931.242,-254 934.066,-244.639 936.205,-240.425 931.242,-232 922.24,-216.718 906.131,-206.155 890.484,-199.043"/>
<polygon fill="midnightblue" stroke="midnightblue" points="891.447,-195.653 880.869,-195.05 888.762,-202.118 891.447,-195.653"/>
</g>
<!-- Node10 -->
<g id="node11" class="node"><title>Node10</title>
<g id="a_node11"><a xlink:href="HAL_8h.html" target="_top" xlink:title=" ">
<polygon fill="white" stroke="black" points="515.346,-291 515.346,-311 559.139,-311 559.139,-291 515.346,-291"/>
<text text-anchor="middle" x="537.242" y="-297" font-family="Helvetica,sans-Serif" font-size="10.00">HAL.h</text>
</a>
</g>
</g>
<!-- Node1&#45;&gt;Node10 -->
<g id="edge72" class="edge"><title>Node1&#45;&gt;Node10</title>
<path fill="none" stroke="midnightblue" d="M772.105,-406.933C738.081,-399.283 690.7,-386.873 651.242,-370 616.975,-355.347 580.509,-332.071 558.297,-316.914"/>
<polygon fill="midnightblue" stroke="midnightblue" points="560.186,-313.965 549.97,-311.155 556.204,-319.722 560.186,-313.965"/>
</g>
<!-- Node26 -->
<g id="node27" class="node"><title>Node26</title>
<g id="a_node27"><a xlink:href="system_8h.html" target="_top" xlink:title=" ">
<polygon fill="white" stroke="black" points="1134.24,-233 1134.24,-253 1190.25,-253 1190.25,-233 1134.24,-233"/>
<text text-anchor="middle" x="1162.24" y="-239" font-family="Helvetica,sans-Serif" font-size="10.00">system.h</text>
</a>
</g>
</g>
<!-- Node1&#45;&gt;Node26 -->
<g id="edge73" class="edge"><title>Node1&#45;&gt;Node26</title>
<path fill="none" stroke="midnightblue" d="M869.275,-414.509C945.684,-411.28 1083.21,-401.187 1120.24,-370 1152.18,-343.11 1159.95,-291.231 1161.76,-263.16"/>
<polygon fill="midnightblue" stroke="midnightblue" points="1165.26,-263.189 1162.22,-253.041 1158.27,-262.872 1165.26,-263.189"/>
</g>
<!-- Node4 -->
<g id="node5" class="node"><title>Node4</title>
<g id="a_node5"><a xlink:title=" ">
<polygon fill="white" stroke="#bfbfbf" points="455.846,-59 455.846,-79 504.639,-79 504.639,-59 455.846,-59"/>
<text text-anchor="middle" x="480.242" y="-65" font-family="Helvetica,sans-Serif" font-size="10.00">string.h</text>
</a>
</g>
</g>
<!-- Node3&#45;&gt;Node4 -->
<g id="edge4" class="edge"><title>Node3&#45;&gt;Node4</title>
<path fill="none" stroke="midnightblue" d="M480.242,-116.753C480.242,-109.25 480.242,-98.4238 480.242,-89.0781"/>
<polygon fill="midnightblue" stroke="midnightblue" points="483.742,-89.0752 480.242,-79.0752 476.742,-89.0752 483.742,-89.0752"/>
</g>
<!-- Node5 -->
<g id="node6" class="node"><title>Node5</title>
<g id="a_node6"><a xlink:href="functor_8h.html" target="_top" xlink:title=" ">
<polygon fill="white" stroke="black" points="282.279,-59 282.279,-79 362.205,-79 362.205,-59 282.279,-59"/>
<text text-anchor="middle" x="322.242" y="-65" font-family="Helvetica,sans-Serif" font-size="10.00">utility/functor.h</text>
</a>
</g>
</g>
<!-- Node3&#45;&gt;Node5 -->
<g id="edge5" class="edge"><title>Node3&#45;&gt;Node5</title>
<path fill="none" stroke="midnightblue" d="M454.505,-116.878C428.029,-107.494 386.614,-92.8155 357.187,-82.3857"/>
<polygon fill="midnightblue" stroke="midnightblue" points="358.301,-79.0671 347.706,-79.0253 355.963,-85.665 358.301,-79.0671"/>
</g>
<!-- Node6 -->
<g id="node7" class="node"><title>Node6</title>
<g id="a_node7"><a xlink:title=" ">
<polygon fill="white" stroke="#bfbfbf" points="291.176,-1 291.176,-21 353.308,-21 353.308,-1 291.176,-1"/>
<text text-anchor="middle" x="322.242" y="-7" font-family="Helvetica,sans-Serif" font-size="10.00">type_traits</text>
</a>
</g>
</g>
<!-- Node5&#45;&gt;Node6 -->
<g id="edge6" class="edge"><title>Node5&#45;&gt;Node6</title>
<path fill="none" stroke="midnightblue" d="M322.242,-58.7527C322.242,-51.2504 322.242,-40.4238 322.242,-31.0781"/>
<polygon fill="midnightblue" stroke="midnightblue" points="325.742,-31.0752 322.242,-21.0752 318.742,-31.0752 325.742,-31.0752"/>
</g>
<!-- Node8&#45;&gt;Node7 -->
<g id="edge9" class="edge"><title>Node8&#45;&gt;Node7</title>
<path fill="none" stroke="midnightblue" d="M1321.96,-174.753C1333.73,-166.19 1351.46,-153.298 1365.32,-143.219"/>
<polygon fill="midnightblue" stroke="midnightblue" points="1367.73,-145.788 1373.76,-137.075 1363.62,-140.126 1367.73,-145.788"/>
</g>
<!-- Node9&#45;&gt;Node10 -->
<g id="edge11" class="edge"><title>Node9&#45;&gt;Node10</title>
<path fill="none" stroke="midnightblue" d="M548.93,-348.753C547.055,-341.25 544.348,-330.424 542.012,-321.078"/>
<polygon fill="midnightblue" stroke="midnightblue" points="545.332,-319.928 539.511,-311.075 538.541,-321.626 545.332,-319.928"/>
</g>
<!-- Node10&#45;&gt;Node3 -->
<g id="edge12" class="edge"><title>Node10&#45;&gt;Node3</title>
<path fill="none" stroke="midnightblue" d="M533.33,-290.951C525.691,-273.058 508.55,-231.785 497.242,-196 492.143,-179.864 487.567,-161.193 484.451,-147.503"/>
<polygon fill="midnightblue" stroke="midnightblue" points="487.779,-146.344 482.197,-137.339 480.945,-147.86 487.779,-146.344"/>
</g>
<!-- Node10&#45;&gt;Node11 -->
<g id="edge13" class="edge"><title>Node10&#45;&gt;Node11</title>
<path fill="none" stroke="midnightblue" d="M515.021,-298.037C460.227,-293.005 314.143,-278.427 183.647,-254.307"/>
<polygon fill="midnightblue" stroke="midnightblue" points="183.955,-250.804 173.481,-252.402 182.666,-257.684 183.955,-250.804"/>
</g>
<!-- Node10&#45;&gt;Node13 -->
<g id="edge16" class="edge"><title>Node10&#45;&gt;Node13</title>
<path fill="none" stroke="midnightblue" d="M535.431,-290.843C533.205,-276.988 530.982,-250.367 542.242,-232 551.721,-216.538 568.528,-205.575 583.93,-198.24"/>
<polygon fill="midnightblue" stroke="midnightblue" points="585.518,-201.365 593.261,-194.134 582.698,-194.958 585.518,-201.365"/>
</g>
<!-- Node10&#45;&gt;Node14 -->
<g id="edge19" class="edge"><title>Node10&#45;&gt;Node14</title>
<path fill="none" stroke="midnightblue" d="M515.308,-293.466C484.544,-284.303 428.041,-267.472 389.573,-256.013"/>
<polygon fill="midnightblue" stroke="midnightblue" points="390.307,-252.58 379.723,-253.08 388.308,-259.289 390.307,-252.58"/>
</g>
<!-- Node10&#45;&gt;Node15 -->
<g id="edge21" class="edge"><title>Node10&#45;&gt;Node15</title>
<path fill="none" stroke="midnightblue" d="M559.43,-291.25C582.911,-281.99 620.198,-267.285 646.94,-256.739"/>
<polygon fill="midnightblue" stroke="midnightblue" points="648.251,-259.984 656.269,-253.06 645.683,-253.472 648.251,-259.984"/>
</g>
<!-- Node16 -->
<g id="node17" class="node"><title>Node16</title>
<g id="a_node17"><a xlink:href="SPIDevice_8h.html" target="_top" xlink:title=" ">
<polygon fill="white" stroke="black" points="190.73,-233 190.73,-253 261.754,-253 261.754,-233 190.73,-233"/>
<text text-anchor="middle" x="226.242" y="-239" font-family="Helvetica,sans-Serif" font-size="10.00">SPIDevice.h</text>
</a>
</g>
</g>
<!-- Node10&#45;&gt;Node16 -->
<g id="edge24" class="edge"><title>Node10&#45;&gt;Node16</title>
<path fill="none" stroke="midnightblue" d="M514.876,-295.973C464.137,-286.836 339.478,-264.39 271.776,-252.199"/>
<polygon fill="midnightblue" stroke="midnightblue" points="272.28,-248.734 261.818,-250.406 271.04,-255.623 272.28,-248.734"/>
</g>
<!-- Node10&#45;&gt;Node20 -->
<g id="edge33" class="edge"><title>Node10&#45;&gt;Node20</title>
<path fill="none" stroke="midnightblue" d="M519.078,-290.753C501.378,-281.742 474.258,-267.935 454.072,-257.659"/>
<polygon fill="midnightblue" stroke="midnightblue" points="455.568,-254.493 445.068,-253.075 452.392,-260.731 455.568,-254.493"/>
</g>
<!-- Node10&#45;&gt;Node21 -->
<g id="edge36" class="edge"><title>Node10&#45;&gt;Node21</title>
<path fill="none" stroke="midnightblue" d="M559.212,-296.454C614.135,-287.591 758.478,-264.296 834.995,-251.948"/>
<polygon fill="midnightblue" stroke="midnightblue" points="836.01,-255.329 845.325,-250.281 834.895,-248.419 836.01,-255.329"/>
</g>
<!-- Node10&#45;&gt;Node26 -->
<g id="edge45" class="edge"><title>Node10&#45;&gt;Node26</title>
<path fill="none" stroke="midnightblue" d="M559.486,-298.007C651.941,-289.723 1006.49,-257.955 1124.09,-247.418"/>
<polygon fill="midnightblue" stroke="midnightblue" points="1124.43,-250.902 1134.08,-246.524 1123.8,-243.93 1124.43,-250.902"/>
</g>
<!-- Node10&#45;&gt;Node27 -->
<g id="edge49" class="edge"><title>Node10&#45;&gt;Node27</title>
<path fill="none" stroke="midnightblue" d="M545.829,-290.753C553.401,-282.598 564.62,-270.516 573.756,-260.677"/>
<polygon fill="midnightblue" stroke="midnightblue" points="576.575,-262.785 580.815,-253.075 571.446,-258.022 576.575,-262.785"/>
</g>
<!-- Node12 -->
<g id="node13" class="node"><title>Node12</title>
<g id="a_node13"><a xlink:title=" ">
<polygon fill="white" stroke="#bfbfbf" points="95.8407,-117 95.8407,-137 154.643,-137 154.643,-117 95.8407,-117"/>
<text text-anchor="middle" x="125.242" y="-123" font-family="Helvetica,sans-Serif" font-size="10.00">inttypes.h</text>
</a>
</g>
</g>
<!-- Node11&#45;&gt;Node12 -->
<g id="edge14" class="edge"><title>Node11&#45;&gt;Node12</title>
<path fill="none" stroke="midnightblue" d="M109.291,-241.32C76.8303,-238.714 28.0449,-229.101 4.24204,-196 -1.46644,-188.062 -1.30915,-182.049 4.24204,-174 9.23555,-166.759 53.3694,-151.173 86.9067,-140.155"/>
<polygon fill="midnightblue" stroke="midnightblue" points="88.0554,-143.462 96.4807,-137.038 85.8885,-136.806 88.0554,-143.462"/>
</g>
<!-- Node11&#45;&gt;Node3 -->
<g id="edge15" class="edge"><title>Node11&#45;&gt;Node3</title>
<path fill="none" stroke="midnightblue" d="M154.619,-232.854C176.551,-218.272 221.954,-189.793 264.242,-174 311.127,-156.49 366.359,-144.877 409.235,-137.699"/>
<polygon fill="midnightblue" stroke="midnightblue" points="409.992,-141.122 419.298,-136.058 408.865,-134.213 409.992,-141.122"/>
</g>
<!-- Node13&#45;&gt;Node2 -->
<g id="edge17" class="edge"><title>Node13&#45;&gt;Node2</title>
<path fill="none" stroke="midnightblue" d="M620.736,-174.773C625.296,-159.81 636.472,-130.47 657.242,-116 695.346,-89.4532 831.48,-76.7734 895.936,-72.1519"/>
<polygon fill="midnightblue" stroke="midnightblue" points="896.271,-75.6371 906.005,-71.4539 895.787,-68.6539 896.271,-75.6371"/>
</g>
<!-- Node13&#45;&gt;Node3 -->
<g id="edge18" class="edge"><title>Node13&#45;&gt;Node3</title>
<path fill="none" stroke="midnightblue" d="M595.763,-174.878C573.008,-165.644 537.618,-151.283 512.003,-140.889"/>
<polygon fill="midnightblue" stroke="midnightblue" points="513.294,-137.635 502.712,-137.118 510.662,-144.121 513.294,-137.635"/>
</g>
<!-- Node14&#45;&gt;Node3 -->
<g id="edge20" class="edge"><title>Node14&#45;&gt;Node3</title>
<path fill="none" stroke="midnightblue" d="M359.962,-232.671C382.335,-213.202 434.216,-168.053 461.963,-143.907"/>
<polygon fill="midnightblue" stroke="midnightblue" points="464.494,-146.344 469.74,-137.139 459.899,-141.064 464.494,-146.344"/>
</g>
<!-- Node15&#45;&gt;Node3 -->
<g id="edge22" class="edge"><title>Node15&#45;&gt;Node3</title>
<path fill="none" stroke="midnightblue" d="M644.839,-233.657C600.607,-222.705 528.27,-203.94 518.242,-196 502.391,-183.449 492.094,-162.366 486.27,-146.997"/>
<polygon fill="midnightblue" stroke="midnightblue" points="489.537,-145.735 482.939,-137.445 482.927,-148.04 489.537,-145.735"/>
</g>
<!-- Node15&#45;&gt;Node2 -->
<g id="edge23" class="edge"><title>Node15&#45;&gt;Node2</title>
<path fill="none" stroke="midnightblue" d="M683.02,-232.764C693.05,-209.427 722.664,-147.697 767.242,-116 805.898,-88.5138 860.559,-77.4024 895.705,-72.9431"/>
<polygon fill="midnightblue" stroke="midnightblue" points="896.414,-76.3847 905.947,-71.762 895.612,-69.4308 896.414,-76.3847"/>
</g>
<!-- Node16&#45;&gt;Node12 -->
<g id="edge25" class="edge"><title>Node16&#45;&gt;Node12</title>
<path fill="none" stroke="midnightblue" d="M197.282,-232.953C178.903,-225.764 156.059,-213.9 142.242,-196 131.458,-182.029 127.437,-162.063 125.977,-147.379"/>
<polygon fill="midnightblue" stroke="midnightblue" points="129.466,-147.103 125.29,-137.366 122.482,-147.582 129.466,-147.103"/>
</g>
<!-- Node16&#45;&gt;Node3 -->
<g id="edge26" class="edge"><title>Node16&#45;&gt;Node3</title>
<path fill="none" stroke="midnightblue" d="M232.777,-232.959C243.894,-218.262 267.954,-189.296 295.242,-174 330.207,-154.4 373.496,-143.05 409.406,-136.53"/>
<polygon fill="midnightblue" stroke="midnightblue" points="410.067,-139.968 419.326,-134.817 408.876,-133.07 410.067,-139.968"/>
</g>
<!-- Node17 -->
<g id="node18" class="node"><title>Node17</title>
<g id="a_node18"><a xlink:href="Device_8h.html" target="_top" xlink:title=" ">
<polygon fill="white" stroke="black" points="150.789,-175 150.789,-195 205.695,-195 205.695,-175 150.789,-175"/>
<text text-anchor="middle" x="178.242" y="-181" font-family="Helvetica,sans-Serif" font-size="10.00">Device.h</text>
</a>
</g>
</g>
<!-- Node16&#45;&gt;Node17 -->
<g id="edge27" class="edge"><title>Node16&#45;&gt;Node17</title>
<path fill="none" stroke="midnightblue" d="M218.316,-232.753C211.326,-224.598 200.97,-212.516 192.536,-202.677"/>
<polygon fill="midnightblue" stroke="midnightblue" points="195.186,-200.39 186.021,-195.075 189.871,-204.946 195.186,-200.39"/>
</g>
<!-- Node18 -->
<g id="node19" class="node"><title>Node18</title>
<g id="a_node19"><a xlink:href="OwnPtr_8h.html" target="_top" xlink:title=" ">
<polygon fill="white" stroke="black" points="12.8949,-175 12.8949,-195 95.5892,-195 95.5892,-175 12.8949,-175"/>
<text text-anchor="middle" x="54.242" y="-181" font-family="Helvetica,sans-Serif" font-size="10.00">utility/OwnPtr.h</text>
</a>
</g>
</g>
<!-- Node16&#45;&gt;Node18 -->
<g id="edge31" class="edge"><title>Node16&#45;&gt;Node18</title>
<path fill="none" stroke="midnightblue" d="M198.224,-232.878C169.278,-223.453 123.926,-208.688 91.8667,-198.25"/>
<polygon fill="midnightblue" stroke="midnightblue" points="92.5549,-194.793 81.9626,-195.025 90.3878,-201.449 92.5549,-194.793"/>
</g>
<!-- Node17&#45;&gt;Node12 -->
<g id="edge28" class="edge"><title>Node17&#45;&gt;Node12</title>
<path fill="none" stroke="midnightblue" d="M169.49,-174.753C161.695,-166.516 150.108,-154.274 140.747,-144.382"/>
<polygon fill="midnightblue" stroke="midnightblue" points="143.247,-141.932 133.831,-137.075 138.163,-146.744 143.247,-141.932"/>
</g>
<!-- Node17&#45;&gt;Node3 -->
<g id="edge29" class="edge"><title>Node17&#45;&gt;Node3</title>
<path fill="none" stroke="midnightblue" d="M205.975,-176.978C210.402,-175.932 214.94,-174.903 219.242,-174 284.707,-160.263 359.991,-147.293 412.829,-138.649"/>
<polygon fill="midnightblue" stroke="midnightblue" points="413.449,-142.094 422.756,-137.033 412.324,-135.185 413.449,-142.094"/>
</g>
<!-- Node17&#45;&gt;Node5 -->
<g id="edge30" class="edge"><title>Node17&#45;&gt;Node5</title>
<path fill="none" stroke="midnightblue" d="M190.026,-174.671C214.725,-155.118 272.141,-109.664 302.542,-85.596"/>
<polygon fill="midnightblue" stroke="midnightblue" points="305.03,-88.0906 310.698,-79.1394 300.685,-82.6023 305.03,-88.0906"/>
</g>
<!-- Node19 -->
<g id="node20" class="node"><title>Node19</title>
<g id="a_node20"><a xlink:title=" ">
<polygon fill="white" stroke="#bfbfbf" points="29.1214,-117 29.1214,-137 77.3626,-137 77.3626,-117 29.1214,-117"/>
<text text-anchor="middle" x="53.242" y="-123" font-family="Helvetica,sans-Serif" font-size="10.00">cstddef</text>
</a>
</g>
</g>
<!-- Node18&#45;&gt;Node19 -->
<g id="edge32" class="edge"><title>Node18&#45;&gt;Node19</title>
<path fill="none" stroke="midnightblue" d="M54.0769,-174.753C53.9429,-167.25 53.7496,-156.424 53.5827,-147.078"/>
<polygon fill="midnightblue" stroke="midnightblue" points="57.0822,-147.011 53.4041,-137.075 50.0833,-147.136 57.0822,-147.011"/>
</g>
<!-- Node20&#45;&gt;Node2 -->
<g id="edge34" class="edge"><title>Node20&#45;&gt;Node2</title>
<path fill="none" stroke="midnightblue" d="M421.849,-232.964C408.969,-210.096 379.688,-149.377 410.242,-116 443.001,-80.2156 784.739,-72.1113 895.675,-70.4174"/>
<polygon fill="midnightblue" stroke="midnightblue" points="896.022,-73.9129 905.97,-70.2687 895.92,-66.9136 896.022,-73.9129"/>
</g>
<!-- Node20&#45;&gt;Node3 -->
<g id="edge35" class="edge"><title>Node20&#45;&gt;Node3</title>
<path fill="none" stroke="midnightblue" d="M428.914,-232.842C431.584,-219.436 437.524,-193.905 447.242,-174 452.235,-163.774 459.461,-153.389 465.88,-145.08"/>
<polygon fill="midnightblue" stroke="midnightblue" points="468.621,-147.256 472.149,-137.266 463.161,-142.876 468.621,-147.256"/>
</g>
<!-- Node21&#45;&gt;Node2 -->
<g id="edge37" class="edge"><title>Node21&#45;&gt;Node2</title>
<path fill="none" stroke="midnightblue" d="M891.176,-232.66C897.45,-223.72 906.422,-209.618 911.242,-196 924.109,-159.65 928.263,-114.387 929.603,-89.1998"/>
<polygon fill="midnightblue" stroke="midnightblue" points="933.103,-89.2875 930.043,-79.1442 926.109,-88.982 933.103,-89.2875"/>
</g>
<!-- Node21&#45;&gt;Node3 -->
<g id="edge38" class="edge"><title>Node21&#45;&gt;Node3</title>
<path fill="none" stroke="midnightblue" d="M853.453,-232.926C799.463,-217.03 689.787,-184.808 651.242,-174 608.27,-161.951 559.046,-148.775 524.479,-139.625"/>
<polygon fill="midnightblue" stroke="midnightblue" points="525.254,-136.209 514.691,-137.038 523.465,-142.977 525.254,-136.209"/>
</g>
<!-- Node21&#45;&gt;Node22 -->
<g id="edge39" class="edge"><title>Node21&#45;&gt;Node22</title>
<path fill="none" stroke="midnightblue" d="M878.297,-232.753C873.212,-224.843 865.752,-213.237 859.536,-203.568"/>
<polygon fill="midnightblue" stroke="midnightblue" points="862.428,-201.594 854.076,-195.075 856.54,-205.38 862.428,-201.594"/>
</g>
<!-- Node23 -->
<g id="node24" class="node"><title>Node23</title>
<g id="a_node24"><a xlink:title=" ">
<polygon fill="white" stroke="#bfbfbf" points="776.176,-117 776.176,-137 828.308,-137 828.308,-117 776.176,-117"/>
<text text-anchor="middle" x="802.242" y="-123" font-family="Helvetica,sans-Serif" font-size="10.00">stdarg.h</text>
</a>
</g>
</g>
<!-- Node22&#45;&gt;Node23 -->
<g id="edge40" class="edge"><title>Node22&#45;&gt;Node23</title>
<path fill="none" stroke="midnightblue" d="M840.646,-174.753C834.015,-166.68 824.221,-154.757 816.184,-144.973"/>
<polygon fill="midnightblue" stroke="midnightblue" points="818.749,-142.581 809.697,-137.075 813.34,-147.024 818.749,-142.581"/>
</g>
<!-- Node22&#45;&gt;Node24 -->
<g id="edge41" class="edge"><title>Node22&#45;&gt;Node24</title>
<path fill="none" stroke="midnightblue" d="M903.026,-176.272C972.647,-166.452 1093.11,-149.46 1170.95,-138.479"/>
<polygon fill="midnightblue" stroke="midnightblue" points="1171.76,-141.9 1181.17,-137.037 1170.78,-134.969 1171.76,-141.9"/>
</g>
<!-- Node22&#45;&gt;Node3 -->
<g id="edge44" class="edge"><title>Node22&#45;&gt;Node3</title>
<path fill="none" stroke="midnightblue" d="M793.778,-175.472C790.551,-174.972 787.354,-174.479 784.242,-174 704.155,-161.684 612.157,-147.8 550.532,-138.538"/>
<polygon fill="midnightblue" stroke="midnightblue" points="550.939,-135.06 540.53,-137.035 549.899,-141.982 550.939,-135.06"/>
</g>
<!-- Node24&#45;&gt;Node2 -->
<g id="edge42" class="edge"><title>Node24&#45;&gt;Node2</title>
<path fill="none" stroke="midnightblue" d="M1194.28,-116.94C1129.67,-105.453 1020.02,-85.9597 964.552,-76.0995"/>
<polygon fill="midnightblue" stroke="midnightblue" points="964.988,-72.6222 954.53,-74.3178 963.763,-79.5142 964.988,-72.6222"/>
</g>
<!-- Node25 -->
<g id="node26" class="node"><title>Node25</title>
<g id="a_node26"><a xlink:title=" ">
<polygon fill="white" stroke="#bfbfbf" points="1221.4,-59 1221.4,-79 1269.08,-79 1269.08,-59 1221.4,-59"/>
<text text-anchor="middle" x="1245.24" y="-65" font-family="Helvetica,sans-Serif" font-size="10.00">stdlib.h</text>
</a>
</g>
</g>
<!-- Node24&#45;&gt;Node25 -->
<g id="edge43" class="edge"><title>Node24&#45;&gt;Node25</title>
<path fill="none" stroke="midnightblue" d="M1245.24,-116.753C1245.24,-109.25 1245.24,-98.4238 1245.24,-89.0781"/>
<polygon fill="midnightblue" stroke="midnightblue" points="1248.74,-89.0752 1245.24,-79.0752 1241.74,-89.0752 1248.74,-89.0752"/>
</g>
<!-- Node26&#45;&gt;Node2 -->
<g id="edge46" class="edge"><title>Node26&#45;&gt;Node2</title>
<path fill="none" stroke="midnightblue" d="M1154.06,-232.872C1146.19,-223.857 1134.19,-209.498 1125.24,-196 1102.94,-162.353 1113.48,-141.562 1082.24,-116 1048.35,-88.2729 998.014,-77.2444 964.677,-72.8669"/>
<polygon fill="midnightblue" stroke="midnightblue" points="964.834,-69.3613 954.493,-71.6666 964.015,-76.3132 964.834,-69.3613"/>
</g>
<!-- Node26&#45;&gt;Node24 -->
<g id="edge47" class="edge"><title>Node26&#45;&gt;Node24</title>
<path fill="none" stroke="midnightblue" d="M1174.27,-232.774C1184.96,-224.129 1200.51,-210.41 1211.24,-196 1222.66,-180.669 1232.05,-160.918 1238.04,-146.656"/>
<polygon fill="midnightblue" stroke="midnightblue" points="1241.28,-147.967 1241.78,-137.384 1234.79,-145.345 1241.28,-147.967"/>
</g>
<!-- Node26&#45;&gt;Node8 -->
<g id="edge48" class="edge"><title>Node26&#45;&gt;Node8</title>
<path fill="none" stroke="midnightblue" d="M1186.19,-232.878C1210.53,-223.603 1248.46,-209.156 1275.77,-198.752"/>
<polygon fill="midnightblue" stroke="midnightblue" points="1277.21,-201.949 1285.31,-195.118 1274.72,-195.407 1277.21,-201.949"/>
</g>
<!-- Node28&#45;&gt;Node2 -->
<g id="edge57" class="edge"><title>Node28&#45;&gt;Node2</title>
<path fill="none" stroke="midnightblue" d="M1164.42,-174.916C1157.74,-160.158 1142.47,-131.106 1120.24,-116 1072.83,-83.7817 1005.27,-74.0532 964.788,-71.1627"/>
<polygon fill="midnightblue" stroke="midnightblue" points="964.814,-67.6578 954.619,-70.5405 964.386,-74.6448 964.814,-67.6578"/>
</g>
<!-- Node28&#45;&gt;Node24 -->
<g id="edge58" class="edge"><title>Node28&#45;&gt;Node24</title>
<path fill="none" stroke="midnightblue" d="M1180.96,-174.753C1192.73,-166.19 1210.46,-153.298 1224.32,-143.219"/>
<polygon fill="midnightblue" stroke="midnightblue" points="1226.73,-145.788 1232.76,-137.075 1222.62,-140.126 1226.73,-145.788"/>
</g>
<!-- Node28&#45;&gt;Node7 -->
<g id="edge59" class="edge"><title>Node28&#45;&gt;Node7</title>
<path fill="none" stroke="midnightblue" d="M1202.78,-175.127C1240.27,-165.496 1300.27,-150.084 1341.38,-139.524"/>
<polygon fill="midnightblue" stroke="midnightblue" points="1342.32,-142.895 1351.14,-137.017 1340.58,-136.115 1342.32,-142.895"/>
</g>
<!-- Node28&#45;&gt;Node3 -->
<g id="edge60" class="edge"><title>Node28&#45;&gt;Node3</title>
<path fill="none" stroke="midnightblue" d="M1133.59,-181.09C1109.62,-179.084 1076.99,-176.362 1048.24,-174 869.38,-159.305 658.806,-142.339 551.268,-133.699"/>
<polygon fill="midnightblue" stroke="midnightblue" points="551.435,-130.201 541.187,-132.889 550.874,-137.178 551.435,-130.201"/>
</g>
<!-- Node29&#45;&gt;Node3 -->
<g id="edge62" class="edge"><title>Node29&#45;&gt;Node3</title>
<path fill="none" stroke="midnightblue" d="M958.503,-179.312C943.632,-177.616 926.678,-175.701 911.242,-174 784.559,-160.042 636.853,-144.419 551.39,-135.443"/>
<polygon fill="midnightblue" stroke="midnightblue" points="551.592,-131.945 541.281,-134.382 550.861,-138.907 551.592,-131.945"/>
</g>
<!-- Node29&#45;&gt;Node24 -->
<g id="edge63" class="edge"><title>Node29&#45;&gt;Node24</title>
<path fill="none" stroke="midnightblue" d="M1039.04,-174.94C1081.73,-165.222 1149.6,-149.771 1195.72,-139.273"/>
<polygon fill="midnightblue" stroke="midnightblue" points="1196.53,-142.679 1205.5,-137.047 1194.97,-135.854 1196.53,-142.679"/>
</g>
<!-- Node30&#45;&gt;Node23 -->
<g id="edge65" class="edge"><title>Node30&#45;&gt;Node23</title>
<path fill="none" stroke="midnightblue" d="M763.838,-174.753C770.47,-166.68 780.263,-154.757 788.3,-144.973"/>
<polygon fill="midnightblue" stroke="midnightblue" points="791.145,-147.024 794.787,-137.075 785.735,-142.581 791.145,-147.024"/>
</g>
<!-- Node30&#45;&gt;Node3 -->
<g id="edge66" class="edge"><title>Node30&#45;&gt;Node3</title>
<path fill="none" stroke="midnightblue" d="M736.794,-177.729C732.364,-176.406 727.661,-175.084 723.242,-174 664.457,-159.573 596.727,-147.086 547.73,-138.777"/>
<polygon fill="midnightblue" stroke="midnightblue" points="548.01,-135.276 537.568,-137.069 546.85,-142.179 548.01,-135.276"/>
</g>
<!-- Node31&#45;&gt;Node2 -->
<g id="edge69" class="edge"><title>Node31&#45;&gt;Node2</title>
<path fill="none" stroke="midnightblue" d="M559.37,-174.699C573.127,-159.628 602.609,-130.137 634.242,-116 722.56,-76.53 838.809,-70.1323 895.771,-69.5843"/>
<polygon fill="midnightblue" stroke="midnightblue" points="896.036,-73.0833 906.022,-69.5439 896.008,-66.0834 896.036,-73.0833"/>
</g>
<!-- Node31&#45;&gt;Node3 -->
<g id="edge70" class="edge"><title>Node31&#45;&gt;Node3</title>
<path fill="none" stroke="midnightblue" d="M539.518,-174.753C528.765,-166.272 512.627,-153.543 499.903,-143.507"/>
<polygon fill="midnightblue" stroke="midnightblue" points="501.767,-140.52 491.748,-137.075 497.432,-146.016 501.767,-140.52"/>
</g>
<!-- Node37 -->
<g id="node38" class="node"><title>Node37</title>
<g id="a_node38"><a xlink:href="Linux_2RCInput_8h.html" target="_top" xlink:title=" ">
<polygon fill="white" stroke="black" points="998.73,-581 998.73,-601 1059.75,-601 1059.75,-581 998.73,-581"/>
<text text-anchor="middle" x="1029.24" y="-587" font-family="Helvetica,sans-Serif" font-size="10.00">RCInput.h</text>
</a>
</g>
</g>
<!-- Node36&#45;&gt;Node37 -->
<g id="edge80" class="edge"><title>Node36&#45;&gt;Node37</title>
<path fill="none" stroke="midnightblue" d="M1145.6,-638.878C1122.68,-629.644 1087.03,-615.283 1061.23,-604.889"/>
<polygon fill="midnightblue" stroke="midnightblue" points="1062.46,-601.609 1051.87,-601.118 1059.84,-608.102 1062.46,-601.609"/>
</g>
<!-- Node38 -->
<g id="node39" class="node"><title>Node38</title>
<g id="a_node39"><a xlink:title=" ">
<polygon fill="white" stroke="#bfbfbf" points="1006.52,-523 1006.52,-543 1051.97,-543 1051.97,-523 1006.52,-523"/>
<text text-anchor="middle" x="1029.24" y="-529" font-family="Helvetica,sans-Serif" font-size="10.00">atomic</text>
</a>
</g>
</g>
<!-- Node37&#45;&gt;Node38 -->
<g id="edge81" class="edge"><title>Node37&#45;&gt;Node38</title>
<path fill="none" stroke="midnightblue" d="M1029.24,-580.753C1029.24,-573.25 1029.24,-562.424 1029.24,-553.078"/>
<polygon fill="midnightblue" stroke="midnightblue" points="1032.74,-553.075 1029.24,-543.075 1025.74,-553.075 1032.74,-553.075"/>
</g>
<!-- Node39 -->
<g id="node40" class="node"><title>Node39</title>
<g id="a_node40"><a xlink:href="AP__HAL__Linux_8h.html" target="_top" xlink:title=" ">
<polygon fill="white" stroke="black" points="851.161,-523 851.161,-543 943.323,-543 943.323,-523 851.161,-523"/>
<text text-anchor="middle" x="897.242" y="-529" font-family="Helvetica,sans-Serif" font-size="10.00">AP_HAL_Linux.h</text>
</a>
</g>
</g>
<!-- Node37&#45;&gt;Node39 -->
<g id="edge82" class="edge"><title>Node37&#45;&gt;Node39</title>
<path fill="none" stroke="midnightblue" d="M1007.74,-580.878C986.07,-571.685 952.422,-557.409 927.947,-547.026"/>
<polygon fill="midnightblue" stroke="midnightblue" points="929.307,-543.802 918.735,-543.118 926.574,-550.246 929.307,-543.802"/>
</g>
<!-- Node39&#45;&gt;Node1 -->
<g id="edge83" class="edge"><title>Node39&#45;&gt;Node1</title>
<path fill="none" stroke="midnightblue" d="M879.458,-522.844C865.711,-514.885 847.228,-502.108 836.242,-486 826.323,-471.457 821.554,-451.832 819.278,-437.402"/>
<polygon fill="midnightblue" stroke="midnightblue" points="822.703,-436.603 817.936,-427.141 815.762,-437.51 822.703,-436.603"/>
</g>
<!-- Node40 -->
<g id="node41" class="node"><title>Node40</title>
<g id="a_node41"><a xlink:href="HAL__Linux__Class_8h.html" target="_top" xlink:title=" ">
<polygon fill="white" stroke="black" points="845.328,-465 845.328,-485 949.156,-485 949.156,-465 845.328,-465"/>
<text text-anchor="middle" x="897.242" y="-471" font-family="Helvetica,sans-Serif" font-size="10.00">HAL_Linux_Class.h</text>
</a>
</g>
</g>
<!-- Node39&#45;&gt;Node40 -->
<g id="edge84" class="edge"><title>Node39&#45;&gt;Node40</title>
<path fill="none" stroke="midnightblue" d="M897.242,-522.753C897.242,-515.25 897.242,-504.424 897.242,-495.078"/>
<polygon fill="midnightblue" stroke="midnightblue" points="900.742,-495.075 897.242,-485.075 893.742,-495.075 900.742,-495.075"/>
</g>
<!-- Node40&#45;&gt;Node1 -->
<g id="edge85" class="edge"><title>Node40&#45;&gt;Node1</title>
<path fill="none" stroke="midnightblue" d="M884.032,-464.753C871.683,-456.109 853.03,-443.052 838.573,-432.931"/>
<polygon fill="midnightblue" stroke="midnightblue" points="840.406,-429.943 830.207,-427.075 836.392,-435.677 840.406,-429.943"/>
</g>
</g>
</svg>
