<?xml version="1.0" encoding="UTF-8" standalone="no"?>
<!DOCTYPE svg PUBLIC "-//W3C//DTD SVG 1.1//EN"
 "http://www.w3.org/Graphics/SVG/1.1/DTD/svg11.dtd">
<!-- Generated by graphviz version 2.30.1 (20130221.2233)
 -->
<!-- Title: send_byte Pages: 1 -->
<svg width="392pt" height="28pt"
 viewBox="0.00 0.00 392.00 28.00" xmlns="http://www.w3.org/2000/svg" xmlns:xlink="http://www.w3.org/1999/xlink">
<g id="graph0" class="graph" transform="scale(1 1) rotate(0) translate(4 24)">
<title>send_byte</title>
<polygon fill="white" stroke="white" points="-4,5 -4,-24 389,-24 389,5 -4,5"/>
<!-- Node73 -->
<g id="node1" class="node"><title>Node73</title>
<g id="a_node1"><a xlink:title=" ">
<polygon fill="#bfbfbf" stroke="black" points="321.926,-0 321.926,-20 384.074,-20 384.074,-0 321.926,-0"/>
<text text-anchor="middle" x="353" y="-6" font-family="Helvetica,sans-Serif" font-size="10.00">send_byte</text>
</a>
</g>
</g>
<!-- Node74 -->
<g id="node2" class="node"><title>Node74</title>
<g id="a_node2"><a xlink:href="RCProtocolTest_8cpp.html#aa97f766be0129a0df22d7eeaac90775b" target="_top" xlink:title=" ">
<polygon fill="white" stroke="black" points="182.638,-0 182.638,-20 285.362,-20 285.362,-0 182.638,-0"/>
<text text-anchor="middle" x="234" y="-6" font-family="Helvetica,sans-Serif" font-size="10.00">test_pulse_protocol</text>
</a>
</g>
</g>
<!-- Node73&#45;&gt;Node74 -->
<g id="edge1" class="edge"><title>Node73&#45;&gt;Node74</title>
<path fill="none" stroke="midnightblue" d="M311.845,-10C303.347,-10 294.275,-10 285.452,-10"/>
<polygon fill="midnightblue" stroke="midnightblue" points="311.87,-13.5001 321.87,-10 311.87,-6.5001 311.87,-13.5001"/>
</g>
<!-- Node75 -->
<g id="node3" class="node"><title>Node75</title>
<g id="a_node3"><a xlink:href="RCProtocolTest_8cpp.html#a8978f9b8f5b79013942316719c0cd38f" target="_top" xlink:title=" ">
<polygon fill="white" stroke="black" points="72.3721,-0 72.3721,-20 145.628,-20 145.628,-0 72.3721,-0"/>
<text text-anchor="middle" x="109" y="-6" font-family="Helvetica,sans-Serif" font-size="10.00">test_protocol</text>
</a>
</g>
</g>
<!-- Node74&#45;&gt;Node75 -->
<g id="edge2" class="edge"><title>Node74&#45;&gt;Node75</title>
<path fill="none" stroke="midnightblue" d="M172.398,-10C163.299,-10 154.175,-10 145.821,-10"/>
<polygon fill="midnightblue" stroke="midnightblue" points="172.616,-13.5001 182.616,-10 172.616,-6.5001 172.616,-13.5001"/>
</g>
<!-- Node76 -->
<g id="node4" class="node"><title>Node76</title>
<g id="a_node4"><a xlink:href="RCProtocolTest_8cpp.html#afe461d27b9c48d5921c00d521181f12f" target="_top" xlink:title=" ">
<polygon fill="white" stroke="black" points="0.546875,-0 0.546875,-20 35.4531,-20 35.4531,-0 0.546875,-0"/>
<text text-anchor="middle" x="18" y="-6" font-family="Helvetica,sans-Serif" font-size="10.00">loop</text>
</a>
</g>
</g>
<!-- Node75&#45;&gt;Node76 -->
<g id="edge3" class="edge"><title>Node75&#45;&gt;Node76</title>
<path fill="none" stroke="midnightblue" d="M62.1658,-10C52.77,-10 43.4535,-10 35.894,-10"/>
<polygon fill="midnightblue" stroke="midnightblue" points="62.3131,-13.5001 72.3131,-10 62.3131,-6.5001 62.3131,-13.5001"/>
</g>
</g>
</svg>
