<?xml version="1.0" encoding="UTF-8" standalone="no"?>
<!DOCTYPE svg PUBLIC "-//W3C//DTD SVG 1.1//EN"
 "http://www.w3.org/Graphics/SVG/1.1/DTD/svg11.dtd">
<!-- Generated by graphviz version 2.30.1 (20130221.2233)
 -->
<!-- Title: setup Pages: 1 -->
<svg width="690pt" height="273pt"
 viewBox="0.00 0.00 690.00 273.00" xmlns="http://www.w3.org/2000/svg" xmlns:xlink="http://www.w3.org/1999/xlink">
<g id="graph0" class="graph" transform="scale(1 1) rotate(0) translate(4 269)">
<title>setup</title>
<polygon fill="white" stroke="white" points="-4,5 -4,-269 687,-269 687,5 -4,5"/>
<!-- Node26 -->
<g id="node1" class="node"><title>Node26</title>
<g id="a_node1"><a xlink:title=" ">
<polygon fill="#bfbfbf" stroke="black" points="-0.231445,-109 -0.231445,-129 40.2314,-129 40.2314,-109 -0.231445,-109"/>
<text text-anchor="middle" x="20" y="-115" font-family="Helvetica,sans-Serif" font-size="10.00">setup</text>
</a>
</g>
</g>
<!-- Node27 -->
<g id="node2" class="node"><title>Node27</title>
<g id="a_node2"><a xlink:href="classAP__HAL_1_1BetterStream.html#a8534aa004599bb81ad60f3e762791032" target="_top" xlink:title=" ">
<polygon fill="white" stroke="black" points="76.5889,-168 76.5889,-200 195.411,-200 195.411,-168 76.5889,-168"/>
<text text-anchor="start" x="84.5889" y="-186" font-family="Helvetica,sans-Serif" font-size="10.00">AP_HAL::BetterStream</text>
<text text-anchor="middle" x="136" y="-174" font-family="Helvetica,sans-Serif" font-size="10.00">::printf</text>
</a>
</g>
</g>
<!-- Node26&#45;&gt;Node27 -->
<g id="edge1" class="edge"><title>Node26&#45;&gt;Node27</title>
<path fill="none" stroke="midnightblue" d="M33.6245,-129.067C44.4695,-137.437 60.7272,-149.338 76,-158 79.2587,-159.848 82.6737,-161.658 86.1486,-163.407"/>
<polygon fill="midnightblue" stroke="midnightblue" points="84.8927,-166.687 95.42,-167.881 87.9352,-160.383 84.8927,-166.687"/>
</g>
<!-- Node35 -->
<g id="node10" class="node"><title>Node35</title>
<g id="a_node10"><a xlink:href="GCS_8h.html#a1d3cc361b864ddf64a44c12ab3bd044e" target="_top" xlink:title=" ">
<polygon fill="white" stroke="black" points="120.219,-129 120.219,-149 151.781,-149 151.781,-129 120.219,-129"/>
<text text-anchor="middle" x="136" y="-135" font-family="Helvetica,sans-Serif" font-size="10.00">gcs</text>
</a>
</g>
</g>
<!-- Node26&#45;&gt;Node35 -->
<g id="edge11" class="edge"><title>Node26&#45;&gt;Node35</title>
<path fill="none" stroke="midnightblue" d="M40.3385,-122.393C59.4883,-125.752 88.9033,-130.913 109.857,-134.589"/>
<polygon fill="midnightblue" stroke="midnightblue" points="109.49,-138.078 119.944,-136.359 110.7,-131.183 109.49,-138.078"/>
</g>
<!-- Node37 -->
<g id="node12" class="node"><title>Node37</title>
<g id="a_node12"><a xlink:href="classGCS.html#a9f093f75d5a95970e1f6b09adc775d69" target="_top" xlink:title=" ">
<polygon fill="white" stroke="black" points="103.544,-90 103.544,-110 168.456,-110 168.456,-90 103.544,-90"/>
<text text-anchor="middle" x="136" y="-96" font-family="Helvetica,sans-Serif" font-size="10.00">GCS::chan</text>
</a>
</g>
</g>
<!-- Node26&#45;&gt;Node37 -->
<g id="edge13" class="edge"><title>Node26&#45;&gt;Node37</title>
<path fill="none" stroke="midnightblue" d="M40.3385,-115.777C54.85,-113.358 75.2562,-109.957 93.4083,-106.932"/>
<polygon fill="midnightblue" stroke="midnightblue" points="94.202,-110.348 103.491,-105.252 93.0512,-103.443 94.202,-110.348"/>
</g>
<!-- Node38 -->
<g id="node13" class="node"><title>Node38</title>
<g id="a_node13"><a xlink:href="structGCS__MAVLINK.html#afaf4b53bc2f64b4fb6bd1fe729b2cef3" target="_top" xlink:title=" ">
<polygon fill="white" stroke="black" points="83.6323,-51 83.6323,-71 188.368,-71 188.368,-51 83.6323,-51"/>
<text text-anchor="middle" x="136" y="-57" font-family="Helvetica,sans-Serif" font-size="10.00">GCS_MAVLINK::init</text>
</a>
</g>
</g>
<!-- Node26&#45;&gt;Node38 -->
<g id="edge14" class="edge"><title>Node26&#45;&gt;Node38</title>
<path fill="none" stroke="midnightblue" d="M32.979,-108.864C43.6836,-100.221 60.0901,-87.9654 76,-80 79.843,-78.076 83.9228,-76.2899 88.0721,-74.6454"/>
<polygon fill="midnightblue" stroke="midnightblue" points="89.6238,-77.8041 97.8011,-71.0674 87.2075,-71.2343 89.6238,-77.8041"/>
</g>
<!-- Node28 -->
<g id="node3" class="node"><title>Node28</title>
<g id="a_node3"><a xlink:href="classAP__HAL_1_1BetterStream.html#aa730be451d385d7ba03ee9677e6d91a2" target="_top" xlink:title=" ">
<polygon fill="white" stroke="black" points="232.589,-168 232.589,-200 351.411,-200 351.411,-168 232.589,-168"/>
<text text-anchor="start" x="240.589" y="-186" font-family="Helvetica,sans-Serif" font-size="10.00">AP_HAL::BetterStream</text>
<text text-anchor="middle" x="292" y="-174" font-family="Helvetica,sans-Serif" font-size="10.00">::vprintf</text>
</a>
</g>
</g>
<!-- Node27&#45;&gt;Node28 -->
<g id="edge2" class="edge"><title>Node27&#45;&gt;Node28</title>
<path fill="none" stroke="midnightblue" d="M195.66,-184C204.43,-184 213.536,-184 222.488,-184"/>
<polygon fill="midnightblue" stroke="midnightblue" points="222.503,-187.5 232.503,-184 222.503,-180.5 222.503,-187.5"/>
</g>
<!-- Node29 -->
<g id="node4" class="node"><title>Node29</title>
<g id="a_node4"><a xlink:href="print__vprintf_8cpp.html#a98e0d5bb436a207f576379beaa786040" target="_top" xlink:title=" ">
<polygon fill="white" stroke="black" points="387.877,-174 387.877,-194 456.123,-194 456.123,-174 387.877,-174"/>
<text text-anchor="middle" x="422" y="-180" font-family="Helvetica,sans-Serif" font-size="10.00">print_vprintf</text>
</a>
</g>
</g>
<!-- Node28&#45;&gt;Node29 -->
<g id="edge3" class="edge"><title>Node28&#45;&gt;Node29</title>
<path fill="none" stroke="midnightblue" d="M351.755,-184C360.443,-184 369.26,-184 377.561,-184"/>
<polygon fill="midnightblue" stroke="midnightblue" points="377.751,-187.5 387.751,-184 377.751,-180.5 377.751,-187.5"/>
</g>
<!-- Node30 -->
<g id="node5" class="node"><title>Node30</title>
<g id="a_node5"><a xlink:href="classAP__HAL_1_1BetterStream.html#a915cc01273d4b418c2fb2989fb31a508" target="_top" xlink:title=" ">
<polygon fill="white" stroke="black" points="492.589,-233 492.589,-265 611.411,-265 611.411,-233 492.589,-233"/>
<text text-anchor="start" x="500.589" y="-251" font-family="Helvetica,sans-Serif" font-size="10.00">AP_HAL::BetterStream</text>
<text text-anchor="middle" x="552" y="-239" font-family="Helvetica,sans-Serif" font-size="10.00">::write</text>
</a>
</g>
</g>
<!-- Node29&#45;&gt;Node30 -->
<g id="edge4" class="edge"><title>Node29&#45;&gt;Node30</title>
<path fill="none" stroke="midnightblue" d="M439.76,-194.093C453.578,-202.263 473.795,-213.872 492,-223 495.771,-224.891 499.711,-226.788 503.687,-228.65"/>
<polygon fill="midnightblue" stroke="midnightblue" points="502.422,-231.92 512.971,-232.907 505.34,-225.557 502.422,-231.92"/>
</g>
<!-- Node31 -->
<g id="node6" class="node"><title>Node31</title>
<g id="a_node6"><a xlink:href="ftoa__engine_8cpp.html#a1c28234da8f20b43c85890d4bb452947" target="_top" xlink:title=" ">
<polygon fill="white" stroke="black" points="517.865,-194 517.865,-214 586.135,-214 586.135,-194 517.865,-194"/>
<text text-anchor="middle" x="552" y="-200" font-family="Helvetica,sans-Serif" font-size="10.00">ftoa_engine</text>
</a>
</g>
</g>
<!-- Node29&#45;&gt;Node31 -->
<g id="edge5" class="edge"><title>Node29&#45;&gt;Node31</title>
<path fill="none" stroke="midnightblue" d="M456.296,-189.203C471.877,-191.637 490.64,-194.569 507.341,-197.178"/>
<polygon fill="midnightblue" stroke="midnightblue" points="507.005,-200.668 517.426,-198.754 508.086,-193.752 507.005,-200.668"/>
</g>
<!-- Node33 -->
<g id="node8" class="node"><title>Node33</title>
<g id="a_node8"><a xlink:href="utoa__invert_8cpp.html#a34926f552460b47c414ec4d83b32815c" target="_top" xlink:title=" ">
<polygon fill="white" stroke="black" points="517.04,-155 517.04,-175 586.96,-175 586.96,-155 517.04,-155"/>
<text text-anchor="middle" x="552" y="-161" font-family="Helvetica,sans-Serif" font-size="10.00">ulltoa_invert</text>
</a>
</g>
</g>
<!-- Node29&#45;&gt;Node33 -->
<g id="edge7" class="edge"><title>Node29&#45;&gt;Node33</title>
<path fill="none" stroke="midnightblue" d="M456.296,-179.058C471.755,-176.763 490.345,-174.003 506.946,-171.539"/>
<polygon fill="midnightblue" stroke="midnightblue" points="507.602,-174.98 516.979,-170.05 506.574,-168.056 507.602,-174.98"/>
</g>
<!-- Node34 -->
<g id="node9" class="node"><title>Node34</title>
<g id="a_node9"><a xlink:href="utoa__invert_8cpp.html#a5d99bba8e697c1e11da489d88fca8559" target="_top" xlink:title=" ">
<polygon fill="white" stroke="black" points="518.15,-116 518.15,-136 585.85,-136 585.85,-116 518.15,-116"/>
<text text-anchor="middle" x="552" y="-122" font-family="Helvetica,sans-Serif" font-size="10.00">ultoa_invert</text>
</a>
</g>
</g>
<!-- Node29&#45;&gt;Node34 -->
<g id="edge9" class="edge"><title>Node29&#45;&gt;Node34</title>
<path fill="none" stroke="midnightblue" d="M438.697,-173.908C452.382,-165.41 472.969,-153.339 492,-145 497.175,-142.732 502.708,-140.596 508.236,-138.632"/>
<polygon fill="midnightblue" stroke="midnightblue" points="509.751,-141.814 518.1,-135.292 507.506,-135.184 509.751,-141.814"/>
</g>
<!-- Node32 -->
<g id="node7" class="node"><title>Node32</title>
<g id="a_node7"><a xlink:href="lstrlib_8c.html#a9605f4d16ae762782f8be8b54aef0a22" target="_top" xlink:title=" ">
<polygon fill="white" stroke="black" points="647.828,-155 647.828,-175 682.172,-175 682.172,-155 647.828,-155"/>
<text text-anchor="middle" x="665" y="-161" font-family="Helvetica,sans-Serif" font-size="10.00">digit</text>
</a>
</g>
</g>
<!-- Node31&#45;&gt;Node32 -->
<g id="edge6" class="edge"><title>Node31&#45;&gt;Node32</title>
<path fill="none" stroke="midnightblue" d="M583.062,-193.961C592.355,-190.817 602.615,-187.305 612,-184 620.508,-181.004 629.766,-177.652 638.081,-174.606"/>
<polygon fill="midnightblue" stroke="midnightblue" points="639.465,-177.826 647.641,-171.089 637.048,-171.257 639.465,-177.826"/>
</g>
<!-- Node33&#45;&gt;Node32 -->
<g id="edge8" class="edge"><title>Node33&#45;&gt;Node32</title>
<path fill="none" stroke="midnightblue" d="M587.209,-165C603.407,-165 622.457,-165 637.53,-165"/>
<polygon fill="midnightblue" stroke="midnightblue" points="637.705,-168.5 647.705,-165 637.705,-161.5 637.705,-168.5"/>
</g>
<!-- Node34&#45;&gt;Node32 -->
<g id="edge10" class="edge"><title>Node34&#45;&gt;Node32</title>
<path fill="none" stroke="midnightblue" d="M585.261,-136.031C593.973,-138.838 603.375,-141.955 612,-145 620.559,-148.022 629.831,-151.515 638.143,-154.729"/>
<polygon fill="midnightblue" stroke="midnightblue" points="637.104,-158.081 647.692,-158.46 639.652,-151.561 637.104,-158.081"/>
</g>
<!-- Node36 -->
<g id="node11" class="node"><title>Node36</title>
<g id="a_node11"><a xlink:href="classGCS.html#a684e9575c690f04ad04e105d6e8fde49" target="_top" xlink:title=" ">
<polygon fill="white" stroke="black" points="240.641,-129 240.641,-149 343.359,-149 343.359,-129 240.641,-129"/>
<text text-anchor="middle" x="292" y="-135" font-family="Helvetica,sans-Serif" font-size="10.00">GCS::get_singleton</text>
</a>
</g>
</g>
<!-- Node35&#45;&gt;Node36 -->
<g id="edge12" class="edge"><title>Node35&#45;&gt;Node36</title>
<path fill="none" stroke="midnightblue" d="M152.047,-139C170.179,-139 201.767,-139 230.247,-139"/>
<polygon fill="midnightblue" stroke="midnightblue" points="230.569,-142.5 240.569,-139 230.569,-135.5 230.569,-142.5"/>
</g>
<!-- Node39 -->
<g id="node14" class="node"><title>Node39</title>
<g id="a_node14"><a xlink:href="GCS__MAVLink_8h.html#a17ee8d1ce05b7d160ccc6a78b92b774f" target="_top" xlink:title=" ">
<polygon fill="white" stroke="black" points="253.421,-90 253.421,-110 330.579,-110 330.579,-90 253.421,-90"/>
<text text-anchor="middle" x="292" y="-96" font-family="Helvetica,sans-Serif" font-size="10.00">valid_channel</text>
</a>
</g>
</g>
<!-- Node38&#45;&gt;Node39 -->
<g id="edge15" class="edge"><title>Node38&#45;&gt;Node39</title>
<path fill="none" stroke="midnightblue" d="M176.659,-71.0435C197.047,-76.2066 222.043,-82.5368 243.459,-87.9604"/>
<polygon fill="midnightblue" stroke="midnightblue" points="242.779,-91.3985 253.332,-90.4607 244.497,-84.6128 242.779,-91.3985"/>
</g>
<!-- Node40 -->
<g id="node15" class="node"><title>Node40</title>
<g id="a_node15"><a xlink:href="stdio_8h.html#a37c1e8ce8a2b411fa666dc33972a2cec" target="_top" xlink:title=" ">
<polygon fill="white" stroke="black" points="267.604,-51 267.604,-71 316.396,-71 316.396,-51 267.604,-51"/>
<text text-anchor="middle" x="292" y="-57" font-family="Helvetica,sans-Serif" font-size="10.00">snprintf</text>
</a>
</g>
</g>
<!-- Node38&#45;&gt;Node40 -->
<g id="edge16" class="edge"><title>Node38&#45;&gt;Node40</title>
<path fill="none" stroke="midnightblue" d="M188.708,-61C211.225,-61 236.988,-61 257.025,-61"/>
<polygon fill="midnightblue" stroke="midnightblue" points="257.222,-64.5001 267.222,-61 257.222,-57.5001 257.222,-64.5001"/>
</g>
<!-- Node41 -->
<g id="node16" class="node"><title>Node41</title>
<g id="a_node16"><a xlink:href="classAP__HAL_1_1Util.html#a6b7f7ba5272a4a2f7ae352fe35af90e1" target="_top" xlink:title=" ">
<polygon fill="white" stroke="black" points="243.429,-0 243.429,-32 340.571,-32 340.571,-0 243.429,-0"/>
<text text-anchor="start" x="251.429" y="-18" font-family="Helvetica,sans-Serif" font-size="10.00">AP_HAL::Util::perf</text>
<text text-anchor="middle" x="292" y="-6" font-family="Helvetica,sans-Serif" font-size="10.00">_alloc</text>
</a>
</g>
</g>
<!-- Node38&#45;&gt;Node41 -->
<g id="edge17" class="edge"><title>Node38&#45;&gt;Node41</title>
<path fill="none" stroke="midnightblue" d="M171.561,-50.9011C189.858,-45.5546 212.804,-38.8496 233.681,-32.7491"/>
<polygon fill="midnightblue" stroke="midnightblue" points="234.801,-36.0683 243.418,-29.9039 232.837,-29.3493 234.801,-36.0683"/>
</g>
</g>
</svg>
