<?xml version="1.0" encoding="UTF-8" standalone="no"?>
<!DOCTYPE svg PUBLIC "-//W3C//DTD SVG 1.1//EN"
 "http://www.w3.org/Graphics/SVG/1.1/DTD/svg11.dtd">
<!-- Generated by graphviz version 2.30.1 (20130221.2233)
 -->
<!-- Title: libraries/AP_Mount/SoloGimbalEKF.h Pages: 1 -->
<svg width="114pt" height="112pt"
 viewBox="0.00 0.00 114.00 112.00" xmlns="http://www.w3.org/2000/svg" xmlns:xlink="http://www.w3.org/1999/xlink">
<g id="graph0" class="graph" transform="scale(1 1) rotate(0) translate(4 108)">
<title>libraries/AP_Mount/SoloGimbalEKF.h</title>
<polygon fill="white" stroke="white" points="-4,5 -4,-108 111,-108 111,5 -4,5"/>
<!-- Node54 -->
<g id="node1" class="node"><title>Node54</title>
<g id="a_node1"><a xlink:title=" ">
<polygon fill="#bfbfbf" stroke="black" points="2.75879,-71 2.75879,-103 103.241,-103 103.241,-71 2.75879,-71"/>
<text text-anchor="start" x="10.7588" y="-89" font-family="Helvetica,sans-Serif" font-size="10.00">libraries/AP_Mount</text>
<text text-anchor="middle" x="53" y="-77" font-family="Helvetica,sans-Serif" font-size="10.00">/SoloGimbalEKF.h</text>
</a>
</g>
</g>
<!-- Node55 -->
<g id="node2" class="node"><title>Node55</title>
<g id="a_node2"><a xlink:href="SoloGimbalEKF_8cpp.html" target="_top" xlink:title=" ">
<polygon fill="white" stroke="black" points="-0.854492,-1 -0.854492,-33 106.854,-33 106.854,-1 -0.854492,-1"/>
<text text-anchor="start" x="7.14551" y="-19" font-family="Helvetica,sans-Serif" font-size="10.00">libraries/AP_Mount</text>
<text text-anchor="middle" x="53" y="-7" font-family="Helvetica,sans-Serif" font-size="10.00">/SoloGimbalEKF.cpp</text>
</a>
</g>
</g>
<!-- Node54&#45;&gt;Node55 -->
<g id="edge1" class="edge"><title>Node54&#45;&gt;Node55</title>
<path fill="none" stroke="midnightblue" d="M53,-60.6174C53,-51.3378 53,-41.1413 53,-33.0492"/>
<polygon fill="midnightblue" stroke="midnightblue" points="49.5001,-60.9086 53,-70.9086 56.5001,-60.9086 49.5001,-60.9086"/>
</g>
</g>
</svg>
