<?xml version="1.0" encoding="UTF-8" standalone="no"?>
<!DOCTYPE svg PUBLIC "-//W3C//DTD SVG 1.1//EN"
 "http://www.w3.org/Graphics/SVG/1.1/DTD/svg11.dtd">
<!-- Generated by graphviz version 2.30.1 (20130221.2233)
 -->
<!-- Title: le16toh Pages: 1 -->
<svg width="1172pt" height="447pt"
 viewBox="0.00 0.00 1172.00 446.97" xmlns="http://www.w3.org/2000/svg" xmlns:xlink="http://www.w3.org/1999/xlink">
<g id="graph0" class="graph" transform="scale(1 1) rotate(0) translate(4 442.967)">
<title>le16toh</title>
<polygon fill="white" stroke="white" points="-4,5 -4,-442.967 1169,-442.967 1169,5 -4,5"/>
<!-- Node87 -->
<g id="node1" class="node"><title>Node87</title>
<g id="a_node1"><a xlink:title=" ">
<polygon fill="#bfbfbf" stroke="black" points="1114.6,-210 1114.6,-230 1163.4,-230 1163.4,-210 1114.6,-210"/>
<text text-anchor="middle" x="1139" y="-216" font-family="Helvetica,sans-Serif" font-size="10.00">le16toh</text>
</a>
</g>
</g>
<!-- Node88 -->
<g id="node2" class="node"><title>Node88</title>
<g id="a_node2"><a xlink:href="classLinux_1_1RCInput__SoloLink.html#ada650585cccb9d6a6f2c0c3265e5c78d" target="_top" xlink:title=" ">
<polygon fill="white" stroke="black" points="941.966,-369 941.966,-401 1068.03,-401 1068.03,-369 941.966,-369"/>
<text text-anchor="start" x="949.966" y="-387" font-family="Helvetica,sans-Serif" font-size="10.00">Linux::RCInput_SoloLink</text>
<text text-anchor="middle" x="1005" y="-375" font-family="Helvetica,sans-Serif" font-size="10.00">::_check_hdr</text>
</a>
</g>
</g>
<!-- Node87&#45;&gt;Node88 -->
<g id="edge1" class="edge"><title>Node87&#45;&gt;Node88</title>
<path fill="none" stroke="midnightblue" d="M1134.48,-240.461C1128.28,-270.481 1112.63,-326.42 1078,-359 1073.93,-362.825 1069.27,-366.094 1064.3,-368.888"/>
<polygon fill="midnightblue" stroke="midnightblue" points="1137.98,-240.806 1136.41,-230.328 1131.1,-239.494 1137.98,-240.806"/>
</g>
<!-- Node90 -->
<g id="node4" class="node"><title>Node90</title>
<g id="a_node4"><a xlink:href="classAP__Compass__BMM150.html#a4bb79c52946190d7e4c00e3f45106395" target="_top" xlink:title=" ">
<polygon fill="white" stroke="black" points="940.865,-153 940.865,-185 1069.14,-185 1069.14,-153 940.865,-153"/>
<text text-anchor="start" x="948.865" y="-171" font-family="Helvetica,sans-Serif" font-size="10.00">AP_Compass_BMM150::</text>
<text text-anchor="middle" x="1005" y="-159" font-family="Helvetica,sans-Serif" font-size="10.00">_load_trim_values</text>
</a>
</g>
</g>
<!-- Node87&#45;&gt;Node90 -->
<g id="edge3" class="edge"><title>Node87&#45;&gt;Node90</title>
<path fill="none" stroke="midnightblue" d="M1106.75,-205.934C1097.55,-201.934 1087.42,-197.671 1078,-194 1070.23,-190.973 1061.93,-187.922 1053.82,-185.042"/>
<polygon fill="midnightblue" stroke="midnightblue" points="1105.38,-209.152 1115.94,-209.971 1108.19,-202.744 1105.38,-209.152"/>
</g>
<!-- Node96 -->
<g id="node10" class="node"><title>Node96</title>
<g id="a_node10"><a xlink:href="classAP__InertialSensor__BMI160.html#a1a519a3be822e3db7a19d0d0ed21d0c6" target="_top" xlink:title=" ">
<polygon fill="white" stroke="black" points="936.688,-255 936.688,-287 1073.31,-287 1073.31,-255 936.688,-255"/>
<text text-anchor="start" x="944.688" y="-273" font-family="Helvetica,sans-Serif" font-size="10.00">AP_InertialSensor_BMI160</text>
<text text-anchor="middle" x="1005" y="-261" font-family="Helvetica,sans-Serif" font-size="10.00">::_read_fifo</text>
</a>
</g>
</g>
<!-- Node87&#45;&gt;Node96 -->
<g id="edge9" class="edge"><title>Node87&#45;&gt;Node96</title>
<path fill="none" stroke="midnightblue" d="M1104.97,-234.099C1096.23,-237.735 1086.79,-241.585 1078,-245 1069.45,-248.322 1060.28,-251.742 1051.45,-254.966"/>
<polygon fill="midnightblue" stroke="midnightblue" points="1106.59,-237.215 1114.45,-230.12 1103.88,-230.76 1106.59,-237.215"/>
</g>
<!-- Node89 -->
<g id="node3" class="node"><title>Node89</title>
<g id="a_node3"><a xlink:href="classLinux_1_1RCInput__SoloLink.html#ac8c8b6e68d56f07bcb64a23eb15b5633" target="_top" xlink:title=" ">
<polygon fill="white" stroke="black" points="759.966,-391 759.966,-423 886.034,-423 886.034,-391 759.966,-391"/>
<text text-anchor="start" x="767.966" y="-409" font-family="Helvetica,sans-Serif" font-size="10.00">Linux::RCInput_SoloLink</text>
<text text-anchor="middle" x="823" y="-397" font-family="Helvetica,sans-Serif" font-size="10.00">::_timer_tick</text>
</a>
</g>
</g>
<!-- Node87&#45;&gt;Node89 -->
<g id="edge12" class="edge"><title>Node87&#45;&gt;Node89</title>
<path fill="none" stroke="midnightblue" d="M1138.67,-240.312C1138.75,-280.581 1132.46,-370.087 1078,-410 1017.89,-454.057 926.447,-438.637 871.239,-423.069"/>
<polygon fill="midnightblue" stroke="midnightblue" points="1142.17,-240.073 1138.51,-230.131 1135.17,-240.186 1142.17,-240.073"/>
</g>
<!-- Node99 -->
<g id="node13" class="node"><title>Node99</title>
<g id="a_node13"><a xlink:href="classAP__Compass__BMM150.html#a96b1e2aac46938ae46e0f1b99a87b963" target="_top" xlink:title=" ">
<polygon fill="white" stroke="black" points="940.865,-204 940.865,-236 1069.14,-236 1069.14,-204 940.865,-204"/>
<text text-anchor="start" x="948.865" y="-222" font-family="Helvetica,sans-Serif" font-size="10.00">AP_Compass_BMM150::</text>
<text text-anchor="middle" x="1005" y="-210" font-family="Helvetica,sans-Serif" font-size="10.00">_update</text>
</a>
</g>
</g>
<!-- Node87&#45;&gt;Node99 -->
<g id="edge13" class="edge"><title>Node87&#45;&gt;Node99</title>
<path fill="none" stroke="midnightblue" d="M1104.27,-220C1093.58,-220 1081.4,-220 1069.33,-220"/>
<polygon fill="midnightblue" stroke="midnightblue" points="1104.4,-223.5 1114.4,-220 1104.4,-216.5 1104.4,-223.5"/>
</g>
<!-- Node100 -->
<g id="node14" class="node"><title>Node100</title>
<g id="a_node14"><a xlink:href="classAP__RangeFinder__Benewake__TFMiniPlus.html#a243efd5400100f49042236483d60f9a4" target="_top" xlink:title=" ">
<polygon fill="white" stroke="black" points="932.513,-306 932.513,-350 1077.49,-350 1077.49,-306 932.513,-306"/>
<text text-anchor="start" x="940.513" y="-336" font-family="Helvetica,sans-Serif" font-size="10.00">AP_RangeFinder_Benewake</text>
<text text-anchor="start" x="940.513" y="-324" font-family="Helvetica,sans-Serif" font-size="10.00">_TFMiniPlus::process_raw</text>
<text text-anchor="middle" x="1005" y="-312" font-family="Helvetica,sans-Serif" font-size="10.00">_measure</text>
</a>
</g>
</g>
<!-- Node87&#45;&gt;Node100 -->
<g id="edge15" class="edge"><title>Node87&#45;&gt;Node100</title>
<path fill="none" stroke="midnightblue" d="M1126.71,-239.08C1115.96,-255.902 1098.42,-280.139 1078,-296 1073.35,-299.608 1068.24,-302.907 1062.94,-305.898"/>
<polygon fill="midnightblue" stroke="midnightblue" points="1129.95,-240.498 1132.23,-230.151 1124,-236.819 1129.95,-240.498"/>
</g>
<!-- Node107 -->
<g id="node21" class="node"><title>Node107</title>
<g id="a_node21"><a xlink:href="classAP__Compass__IST8310.html#a546ca67c4cc8055caf14f684278b2e15" target="_top" xlink:title=" ">
<polygon fill="white" stroke="black" points="944.749,-0 944.749,-32 1065.25,-32 1065.25,-0 944.749,-0"/>
<text text-anchor="start" x="952.749" y="-18" font-family="Helvetica,sans-Serif" font-size="10.00">AP_Compass_IST8310</text>
<text text-anchor="middle" x="1005" y="-6" font-family="Helvetica,sans-Serif" font-size="10.00">::timer</text>
</a>
</g>
</g>
<!-- Node87&#45;&gt;Node107 -->
<g id="edge22" class="edge"><title>Node87&#45;&gt;Node107</title>
<path fill="none" stroke="midnightblue" d="M1136.85,-199.498C1133.68,-162.748 1121.89,-85.3628 1078,-41 1074.28,-37.2373 1069.96,-34.0401 1065.33,-31.3235"/>
<polygon fill="midnightblue" stroke="midnightblue" points="1133.39,-200.188 1137.6,-209.909 1140.37,-199.682 1133.39,-200.188"/>
</g>
<!-- Node111 -->
<g id="node25" class="node"><title>Node111</title>
<g id="a_node25"><a xlink:href="classAP__Compass__IST8308.html#a0634dadcf0e11b82ca3a09dce369a867" target="_top" xlink:title=" ">
<polygon fill="white" stroke="black" points="944.749,-51 944.749,-83 1065.25,-83 1065.25,-51 944.749,-51"/>
<text text-anchor="start" x="952.749" y="-69" font-family="Helvetica,sans-Serif" font-size="10.00">AP_Compass_IST8308</text>
<text text-anchor="middle" x="1005" y="-57" font-family="Helvetica,sans-Serif" font-size="10.00">::timer</text>
</a>
</g>
</g>
<!-- Node87&#45;&gt;Node111 -->
<g id="edge28" class="edge"><title>Node87&#45;&gt;Node111</title>
<path fill="none" stroke="midnightblue" d="M1133.76,-199.891C1126.85,-171.888 1110.52,-121.295 1078,-92 1074.26,-88.6344 1070.05,-85.7171 1065.58,-83.1892"/>
<polygon fill="midnightblue" stroke="midnightblue" points="1130.38,-200.788 1136.03,-209.746 1137.2,-199.215 1130.38,-200.788"/>
</g>
<!-- Node114 -->
<g id="node28" class="node"><title>Node114</title>
<g id="a_node28"><a xlink:href="classAP__Compass__QMC5883L.html#ae5604bfb0238991f8e5b24796aa525ec" target="_top" xlink:title=" ">
<polygon fill="white" stroke="black" points="938.082,-102 938.082,-134 1071.92,-134 1071.92,-102 938.082,-102"/>
<text text-anchor="start" x="946.082" y="-120" font-family="Helvetica,sans-Serif" font-size="10.00">AP_Compass_QMC5883L</text>
<text text-anchor="middle" x="1005" y="-108" font-family="Helvetica,sans-Serif" font-size="10.00">::timer</text>
</a>
</g>
</g>
<!-- Node87&#45;&gt;Node114 -->
<g id="edge32" class="edge"><title>Node87&#45;&gt;Node114</title>
<path fill="none" stroke="midnightblue" d="M1127.71,-201.29C1117.28,-183.923 1099.62,-158.487 1078,-143 1073.27,-139.61 1068.03,-136.647 1062.61,-134.064"/>
<polygon fill="midnightblue" stroke="midnightblue" points="1124.71,-203.087 1132.74,-209.994 1130.77,-199.585 1124.71,-203.087"/>
</g>
<!-- Node88&#45;&gt;Node89 -->
<g id="edge2" class="edge"><title>Node88&#45;&gt;Node89</title>
<path fill="none" stroke="midnightblue" d="M931.533,-393.857C916.513,-395.693 900.814,-397.612 886.2,-399.398"/>
<polygon fill="midnightblue" stroke="midnightblue" points="932.301,-397.289 941.802,-392.602 931.451,-390.341 932.301,-397.289"/>
</g>
<!-- Node91 -->
<g id="node5" class="node"><title>Node91</title>
<g id="a_node5"><a xlink:href="classAP__Compass__BMM150.html#abbf9a3c627c7226835bc4ec7a346f221" target="_top" xlink:title=" ">
<polygon fill="white" stroke="black" points="752.473,-159 752.473,-179 893.527,-179 893.527,-159 752.473,-159"/>
<text text-anchor="middle" x="823" y="-165" font-family="Helvetica,sans-Serif" font-size="10.00">AP_Compass_BMM150::init</text>
</a>
</g>
</g>
<!-- Node90&#45;&gt;Node91 -->
<g id="edge4" class="edge"><title>Node90&#45;&gt;Node91</title>
<path fill="none" stroke="midnightblue" d="M930.68,-169C918.499,-169 905.896,-169 893.805,-169"/>
<polygon fill="midnightblue" stroke="midnightblue" points="930.792,-172.5 940.792,-169 930.792,-165.5 930.792,-172.5"/>
</g>
<!-- Node92 -->
<g id="node6" class="node"><title>Node92</title>
<g id="a_node6"><a xlink:href="classAP__Compass__BMM150.html#a4c7a517bac53993bc2e9ae970d6657e8" target="_top" xlink:title=" ">
<polygon fill="white" stroke="black" points="394.865,-148 394.865,-180 523.135,-180 523.135,-148 394.865,-148"/>
<text text-anchor="start" x="402.865" y="-166" font-family="Helvetica,sans-Serif" font-size="10.00">AP_Compass_BMM150::</text>
<text text-anchor="middle" x="459" y="-154" font-family="Helvetica,sans-Serif" font-size="10.00">probe</text>
</a>
</g>
</g>
<!-- Node91&#45;&gt;Node92 -->
<g id="edge5" class="edge"><title>Node91&#45;&gt;Node92</title>
<path fill="none" stroke="midnightblue" d="M741.866,-167.893C676.007,-166.984 583.973,-165.712 523.224,-164.873"/>
<polygon fill="midnightblue" stroke="midnightblue" points="742.155,-171.397 752.203,-168.036 742.252,-164.398 742.155,-171.397"/>
</g>
<!-- Node93 -->
<g id="node7" class="node"><title>Node93</title>
<g id="a_node7"><a xlink:href="classCompass.html#a1c48170d8c8966b22fb150b1634443ec" target="_top" xlink:title=" ">
<polygon fill="white" stroke="black" points="204.518,-83 204.518,-103 349.482,-103 349.482,-83 204.518,-83"/>
<text text-anchor="middle" x="277" y="-89" font-family="Helvetica,sans-Serif" font-size="10.00">Compass::_detect_backends</text>
</a>
</g>
</g>
<!-- Node92&#45;&gt;Node93 -->
<g id="edge6" class="edge"><title>Node92&#45;&gt;Node93</title>
<path fill="none" stroke="midnightblue" d="M407.849,-144.218C373.884,-130.821 330.432,-113.682 303.406,-103.021"/>
<polygon fill="midnightblue" stroke="midnightblue" points="406.568,-147.475 417.155,-147.889 409.137,-140.964 406.568,-147.475"/>
</g>
<!-- Node94 -->
<g id="node8" class="node"><title>Node94</title>
<g id="a_node8"><a xlink:href="classCompass.html#a79db6bfd3fe309c6258d783f126326c6" target="_top" xlink:title=" ">
<polygon fill="white" stroke="black" points="83.7119,-83 83.7119,-103 160.288,-103 160.288,-83 83.7119,-83"/>
<text text-anchor="middle" x="122" y="-89" font-family="Helvetica,sans-Serif" font-size="10.00">Compass::init</text>
</a>
</g>
</g>
<!-- Node93&#45;&gt;Node94 -->
<g id="edge7" class="edge"><title>Node93&#45;&gt;Node94</title>
<path fill="none" stroke="midnightblue" d="M194.412,-93C182.504,-93 170.762,-93 160.345,-93"/>
<polygon fill="midnightblue" stroke="midnightblue" points="194.428,-96.5001 204.428,-93 194.428,-89.5001 194.428,-96.5001"/>
</g>
<!-- Node95 -->
<g id="node9" class="node"><title>Node95</title>
<g id="a_node9"><a xlink:href="AHRS__Test_8cpp.html#a4fc01d736fe50cf5b977f755b675f11d" target="_top" xlink:title=" ">
<polygon fill="white" stroke="black" points="-0.231445,-83 -0.231445,-103 40.2314,-103 40.2314,-83 -0.231445,-83"/>
<text text-anchor="middle" x="20" y="-89" font-family="Helvetica,sans-Serif" font-size="10.00">setup</text>
</a>
</g>
</g>
<!-- Node94&#45;&gt;Node95 -->
<g id="edge8" class="edge"><title>Node94&#45;&gt;Node95</title>
<path fill="none" stroke="midnightblue" d="M73.3636,-93C61.7304,-93 49.9262,-93 40.4775,-93"/>
<polygon fill="midnightblue" stroke="midnightblue" points="73.4792,-96.5001 83.4792,-93 73.4791,-89.5001 73.4792,-96.5001"/>
</g>
<!-- Node97 -->
<g id="node11" class="node"><title>Node97</title>
<g id="a_node11"><a xlink:href="classAP__InertialSensor__BMI160.html#a62d02f0977b50ee599a116e9f85d4ebc" target="_top" xlink:title=" ">
<polygon fill="white" stroke="black" points="754.688,-255 754.688,-287 891.312,-287 891.312,-255 754.688,-255"/>
<text text-anchor="start" x="762.688" y="-273" font-family="Helvetica,sans-Serif" font-size="10.00">AP_InertialSensor_BMI160</text>
<text text-anchor="middle" x="823" y="-261" font-family="Helvetica,sans-Serif" font-size="10.00">::_poll_data</text>
</a>
</g>
</g>
<!-- Node96&#45;&gt;Node97 -->
<g id="edge10" class="edge"><title>Node96&#45;&gt;Node97</title>
<path fill="none" stroke="midnightblue" d="M926.315,-271C914.663,-271 902.73,-271 891.317,-271"/>
<polygon fill="midnightblue" stroke="midnightblue" points="926.463,-274.5 936.463,-271 926.462,-267.5 926.463,-274.5"/>
</g>
<!-- Node98 -->
<g id="node12" class="node"><title>Node98</title>
<g id="a_node12"><a xlink:href="classAP__InertialSensor__BMI160.html#a786f5fe4d157ea0a2313c702402b58c5" target="_top" xlink:title=" ">
<polygon fill="white" stroke="black" points="572.688,-255 572.688,-287 709.312,-287 709.312,-255 572.688,-255"/>
<text text-anchor="start" x="580.688" y="-273" font-family="Helvetica,sans-Serif" font-size="10.00">AP_InertialSensor_BMI160</text>
<text text-anchor="middle" x="641" y="-261" font-family="Helvetica,sans-Serif" font-size="10.00">::start</text>
</a>
</g>
</g>
<!-- Node97&#45;&gt;Node98 -->
<g id="edge11" class="edge"><title>Node97&#45;&gt;Node98</title>
<path fill="none" stroke="midnightblue" d="M744.315,-271C732.663,-271 720.73,-271 709.317,-271"/>
<polygon fill="midnightblue" stroke="midnightblue" points="744.463,-274.5 754.463,-271 744.462,-267.5 744.463,-274.5"/>
</g>
<!-- Node99&#45;&gt;Node91 -->
<g id="edge14" class="edge"><title>Node99&#45;&gt;Node91</title>
<path fill="none" stroke="midnightblue" d="M937.101,-201.045C910.733,-193.574 881.528,-185.3 859.401,-179.03"/>
<polygon fill="midnightblue" stroke="midnightblue" points="936.471,-204.505 947.047,-203.863 938.38,-197.77 936.471,-204.505"/>
</g>
<!-- Node101 -->
<g id="node15" class="node"><title>Node101</title>
<g id="a_node15"><a xlink:href="classAP__RangeFinder__Benewake__TFMiniPlus.html#a9151c1ea60c09e6f45060ca0de1a6472" target="_top" xlink:title=" ">
<polygon fill="white" stroke="black" points="750.513,-312 750.513,-344 895.487,-344 895.487,-312 750.513,-312"/>
<text text-anchor="start" x="758.513" y="-330" font-family="Helvetica,sans-Serif" font-size="10.00">AP_RangeFinder_Benewake</text>
<text text-anchor="middle" x="823" y="-318" font-family="Helvetica,sans-Serif" font-size="10.00">_TFMiniPlus::timer</text>
</a>
</g>
</g>
<!-- Node100&#45;&gt;Node101 -->
<g id="edge16" class="edge"><title>Node100&#45;&gt;Node101</title>
<path fill="none" stroke="midnightblue" d="M922.079,-328C913.278,-328 904.374,-328 895.705,-328"/>
<polygon fill="midnightblue" stroke="midnightblue" points="922.342,-331.5 932.342,-328 922.342,-324.5 922.342,-331.5"/>
</g>
<!-- Node102 -->
<g id="node16" class="node"><title>Node102</title>
<g id="a_node16"><a xlink:href="classAP__RangeFinder__Benewake__TFMiniPlus.html#ad47ddc2d559ad96f7652dfee49e45ecd" target="_top" xlink:title=" ">
<polygon fill="white" stroke="black" points="568.513,-312 568.513,-344 713.487,-344 713.487,-312 568.513,-312"/>
<text text-anchor="start" x="576.513" y="-330" font-family="Helvetica,sans-Serif" font-size="10.00">AP_RangeFinder_Benewake</text>
<text text-anchor="middle" x="641" y="-318" font-family="Helvetica,sans-Serif" font-size="10.00">_TFMiniPlus::init</text>
</a>
</g>
</g>
<!-- Node101&#45;&gt;Node102 -->
<g id="edge17" class="edge"><title>Node101&#45;&gt;Node102</title>
<path fill="none" stroke="midnightblue" d="M740.079,-328C731.278,-328 722.374,-328 713.705,-328"/>
<polygon fill="midnightblue" stroke="midnightblue" points="740.342,-331.5 750.342,-328 740.342,-324.5 740.342,-331.5"/>
</g>
<!-- Node103 -->
<g id="node17" class="node"><title>Node103</title>
<g id="a_node17"><a xlink:href="classAP__RangeFinder__Benewake__TFMiniPlus.html#a6e225501502559c73fde741cfcc5b14d" target="_top" xlink:title=" ">
<polygon fill="white" stroke="black" points="386.513,-312 386.513,-344 531.487,-344 531.487,-312 386.513,-312"/>
<text text-anchor="start" x="394.513" y="-330" font-family="Helvetica,sans-Serif" font-size="10.00">AP_RangeFinder_Benewake</text>
<text text-anchor="middle" x="459" y="-318" font-family="Helvetica,sans-Serif" font-size="10.00">_TFMiniPlus::detect</text>
</a>
</g>
</g>
<!-- Node102&#45;&gt;Node103 -->
<g id="edge18" class="edge"><title>Node102&#45;&gt;Node103</title>
<path fill="none" stroke="midnightblue" d="M558.079,-328C549.278,-328 540.374,-328 531.705,-328"/>
<polygon fill="midnightblue" stroke="midnightblue" points="558.342,-331.5 568.342,-328 558.342,-324.5 558.342,-331.5"/>
</g>
<!-- Node104 -->
<g id="node18" class="node"><title>Node104</title>
<g id="a_node18"><a xlink:href="classRangeFinder.html#a2d16a636e444ce916e524d1e2623d1d3" target="_top" xlink:title=" ">
<polygon fill="white" stroke="black" points="223.695,-312 223.695,-344 330.305,-344 330.305,-312 223.695,-312"/>
<text text-anchor="start" x="231.695" y="-330" font-family="Helvetica,sans-Serif" font-size="10.00">RangeFinder::detect</text>
<text text-anchor="middle" x="277" y="-318" font-family="Helvetica,sans-Serif" font-size="10.00">_instance</text>
</a>
</g>
</g>
<!-- Node103&#45;&gt;Node104 -->
<g id="edge19" class="edge"><title>Node103&#45;&gt;Node104</title>
<path fill="none" stroke="midnightblue" d="M376.214,-328C360.701,-328 344.859,-328 330.553,-328"/>
<polygon fill="midnightblue" stroke="midnightblue" points="376.342,-331.5 386.342,-328 376.342,-324.5 376.342,-331.5"/>
</g>
<!-- Node105 -->
<g id="node19" class="node"><title>Node105</title>
<g id="a_node19"><a xlink:href="classRangeFinder.html#ad3e3b3a548b8da70aedd97c4be3a5b6d" target="_top" xlink:title=" ">
<polygon fill="white" stroke="black" points="75.9238,-318 75.9238,-338 168.076,-338 168.076,-318 75.9238,-318"/>
<text text-anchor="middle" x="122" y="-324" font-family="Helvetica,sans-Serif" font-size="10.00">RangeFinder::init</text>
</a>
</g>
</g>
<!-- Node104&#45;&gt;Node105 -->
<g id="edge20" class="edge"><title>Node104&#45;&gt;Node105</title>
<path fill="none" stroke="midnightblue" d="M213.057,-328C197.983,-328 182.185,-328 168.103,-328"/>
<polygon fill="midnightblue" stroke="midnightblue" points="213.346,-331.5 223.346,-328 213.346,-324.5 213.346,-331.5"/>
</g>
<!-- Node106 -->
<g id="node20" class="node"><title>Node106</title>
<g id="a_node20"><a xlink:href="RFIND__test_8cpp.html#a4fc01d736fe50cf5b977f755b675f11d" target="_top" xlink:title=" ">
<polygon fill="white" stroke="black" points="-0.231445,-318 -0.231445,-338 40.2314,-338 40.2314,-318 -0.231445,-318"/>
<text text-anchor="middle" x="20" y="-324" font-family="Helvetica,sans-Serif" font-size="10.00">setup</text>
</a>
</g>
</g>
<!-- Node105&#45;&gt;Node106 -->
<g id="edge21" class="edge"><title>Node105&#45;&gt;Node106</title>
<path fill="none" stroke="midnightblue" d="M65.4836,-328C56.4862,-328 47.73,-328 40.3996,-328"/>
<polygon fill="midnightblue" stroke="midnightblue" points="65.6814,-331.5 75.6814,-328 65.6814,-324.5 65.6814,-331.5"/>
</g>
<!-- Node108 -->
<g id="node22" class="node"><title>Node108</title>
<g id="a_node22"><a xlink:href="classAP__Compass__IST8310.html#a58e4620d77a0d55d8b73fdd01a5f6cca" target="_top" xlink:title=" ">
<polygon fill="white" stroke="black" points="762.749,-0 762.749,-32 883.251,-32 883.251,-0 762.749,-0"/>
<text text-anchor="start" x="770.749" y="-18" font-family="Helvetica,sans-Serif" font-size="10.00">AP_Compass_IST8310</text>
<text text-anchor="middle" x="823" y="-6" font-family="Helvetica,sans-Serif" font-size="10.00">::init</text>
</a>
</g>
</g>
<!-- Node107&#45;&gt;Node108 -->
<g id="edge23" class="edge"><title>Node107&#45;&gt;Node108</title>
<path fill="none" stroke="midnightblue" d="M934.251,-16C917.449,-16 899.653,-16 883.375,-16"/>
<polygon fill="midnightblue" stroke="midnightblue" points="934.562,-19.5001 944.562,-16 934.562,-12.5001 934.562,-19.5001"/>
</g>
<!-- Node109 -->
<g id="node23" class="node"><title>Node109</title>
<g id="a_node23"><a xlink:href="classAP__Compass__IST8310.html#a6f6f86e57c602b84d7cef10c814f77e5" target="_top" xlink:title=" ">
<polygon fill="white" stroke="black" points="580.749,-0 580.749,-32 701.251,-32 701.251,-0 580.749,-0"/>
<text text-anchor="start" x="588.749" y="-18" font-family="Helvetica,sans-Serif" font-size="10.00">AP_Compass_IST8310</text>
<text text-anchor="middle" x="641" y="-6" font-family="Helvetica,sans-Serif" font-size="10.00">::probe</text>
</a>
</g>
</g>
<!-- Node108&#45;&gt;Node109 -->
<g id="edge24" class="edge"><title>Node108&#45;&gt;Node109</title>
<path fill="none" stroke="midnightblue" d="M752.251,-16C735.449,-16 717.653,-16 701.375,-16"/>
<polygon fill="midnightblue" stroke="midnightblue" points="752.562,-19.5001 762.562,-16 752.562,-12.5001 752.562,-19.5001"/>
</g>
<!-- Node110 -->
<g id="node24" class="node"><title>Node110</title>
<g id="a_node24"><a xlink:href="classCompass.html#a766d77e1b78dc08be50ba76994c8b4ab" target="_top" xlink:title=" ">
<polygon fill="white" stroke="black" points="390.966,-53 390.966,-85 527.034,-85 527.034,-53 390.966,-53"/>
<text text-anchor="start" x="398.966" y="-71" font-family="Helvetica,sans-Serif" font-size="10.00">Compass::_probe_external</text>
<text text-anchor="middle" x="459" y="-59" font-family="Helvetica,sans-Serif" font-size="10.00">_i2c_compasses</text>
</a>
</g>
</g>
<!-- Node109&#45;&gt;Node110 -->
<g id="edge25" class="edge"><title>Node109&#45;&gt;Node110</title>
<path fill="none" stroke="midnightblue" d="M575.844,-34.8904C555.818,-40.7869 533.927,-47.2326 514.62,-52.9176"/>
<polygon fill="midnightblue" stroke="midnightblue" points="576.901,-38.2277 585.506,-32.0456 574.924,-31.5127 576.901,-38.2277"/>
</g>
<!-- Node109&#45;&gt;Node93 -->
<g id="edge27" class="edge"><title>Node109&#45;&gt;Node93</title>
<path fill="none" stroke="midnightblue" d="M570.66,-17.2736C518.946,-19.6808 447.008,-26.1326 386,-43 352.344,-52.3052 316.057,-71.1149 295.281,-82.825"/>
<polygon fill="midnightblue" stroke="midnightblue" points="570.882,-20.7674 580.724,-16.8442 570.584,-13.7737 570.882,-20.7674"/>
</g>
<!-- Node110&#45;&gt;Node93 -->
<g id="edge26" class="edge"><title>Node110&#45;&gt;Node93</title>
<path fill="none" stroke="midnightblue" d="M380.569,-79.3241C370.325,-80.69 359.86,-82.0854 349.718,-83.4377"/>
<polygon fill="midnightblue" stroke="midnightblue" points="381.269,-82.7619 390.719,-77.9708 380.344,-75.8233 381.269,-82.7619"/>
</g>
<!-- Node112 -->
<g id="node26" class="node"><title>Node112</title>
<g id="a_node26"><a xlink:href="classAP__Compass__IST8308.html#a58d7d320cef74856326a30048b8f9f36" target="_top" xlink:title=" ">
<polygon fill="white" stroke="black" points="762.749,-51 762.749,-83 883.251,-83 883.251,-51 762.749,-51"/>
<text text-anchor="start" x="770.749" y="-69" font-family="Helvetica,sans-Serif" font-size="10.00">AP_Compass_IST8308</text>
<text text-anchor="middle" x="823" y="-57" font-family="Helvetica,sans-Serif" font-size="10.00">::init</text>
</a>
</g>
</g>
<!-- Node111&#45;&gt;Node112 -->
<g id="edge29" class="edge"><title>Node111&#45;&gt;Node112</title>
<path fill="none" stroke="midnightblue" d="M934.251,-67C917.449,-67 899.653,-67 883.375,-67"/>
<polygon fill="midnightblue" stroke="midnightblue" points="934.562,-70.5001 944.562,-67 934.562,-63.5001 934.562,-70.5001"/>
</g>
<!-- Node113 -->
<g id="node27" class="node"><title>Node113</title>
<g id="a_node27"><a xlink:href="classAP__Compass__IST8308.html#a363d0b94f0293a29a51baa34245d0d32" target="_top" xlink:title=" ">
<polygon fill="white" stroke="black" points="580.749,-51 580.749,-83 701.251,-83 701.251,-51 580.749,-51"/>
<text text-anchor="start" x="588.749" y="-69" font-family="Helvetica,sans-Serif" font-size="10.00">AP_Compass_IST8308</text>
<text text-anchor="middle" x="641" y="-57" font-family="Helvetica,sans-Serif" font-size="10.00">::probe</text>
</a>
</g>
</g>
<!-- Node112&#45;&gt;Node113 -->
<g id="edge30" class="edge"><title>Node112&#45;&gt;Node113</title>
<path fill="none" stroke="midnightblue" d="M752.251,-67C735.449,-67 717.653,-67 701.375,-67"/>
<polygon fill="midnightblue" stroke="midnightblue" points="752.562,-70.5001 762.562,-67 752.562,-63.5001 752.562,-70.5001"/>
</g>
<!-- Node113&#45;&gt;Node110 -->
<g id="edge31" class="edge"><title>Node113&#45;&gt;Node110</title>
<path fill="none" stroke="midnightblue" d="M570.373,-67.7736C556.176,-67.9314 541.265,-68.0971 527.156,-68.2538"/>
<polygon fill="midnightblue" stroke="midnightblue" points="570.602,-71.2714 580.562,-67.6604 570.524,-64.2718 570.602,-71.2714"/>
</g>
<!-- Node115 -->
<g id="node29" class="node"><title>Node115</title>
<g id="a_node29"><a xlink:href="classAP__Compass__QMC5883L.html#ab9bfbc6e35c505a30635a0854e089816" target="_top" xlink:title=" ">
<polygon fill="white" stroke="black" points="756.082,-102 756.082,-134 889.918,-134 889.918,-102 756.082,-102"/>
<text text-anchor="start" x="764.082" y="-120" font-family="Helvetica,sans-Serif" font-size="10.00">AP_Compass_QMC5883L</text>
<text text-anchor="middle" x="823" y="-108" font-family="Helvetica,sans-Serif" font-size="10.00">::init</text>
</a>
</g>
</g>
<!-- Node114&#45;&gt;Node115 -->
<g id="edge33" class="edge"><title>Node114&#45;&gt;Node115</title>
<path fill="none" stroke="midnightblue" d="M927.972,-118C915.347,-118 902.346,-118 889.995,-118"/>
<polygon fill="midnightblue" stroke="midnightblue" points="927.997,-121.5 937.997,-118 927.997,-114.5 927.997,-121.5"/>
</g>
<!-- Node116 -->
<g id="node30" class="node"><title>Node116</title>
<g id="a_node30"><a xlink:href="classAP__Compass__QMC5883L.html#abd73fb24d1b79b0e669393eec4335731" target="_top" xlink:title=" ">
<polygon fill="white" stroke="black" points="574.082,-102 574.082,-134 707.918,-134 707.918,-102 574.082,-102"/>
<text text-anchor="start" x="582.082" y="-120" font-family="Helvetica,sans-Serif" font-size="10.00">AP_Compass_QMC5883L</text>
<text text-anchor="middle" x="641" y="-108" font-family="Helvetica,sans-Serif" font-size="10.00">::probe</text>
</a>
</g>
</g>
<!-- Node115&#45;&gt;Node116 -->
<g id="edge34" class="edge"><title>Node115&#45;&gt;Node116</title>
<path fill="none" stroke="midnightblue" d="M745.972,-118C733.347,-118 720.346,-118 707.995,-118"/>
<polygon fill="midnightblue" stroke="midnightblue" points="745.997,-121.5 755.997,-118 745.997,-114.5 745.997,-121.5"/>
</g>
<!-- Node116&#45;&gt;Node110 -->
<g id="edge35" class="edge"><title>Node116&#45;&gt;Node110</title>
<path fill="none" stroke="midnightblue" d="M571.105,-99.2453C553.948,-94.5749 535.707,-89.6092 519.071,-85.0805"/>
<polygon fill="midnightblue" stroke="midnightblue" points="570.493,-102.706 581.061,-101.956 572.332,-95.9518 570.493,-102.706"/>
</g>
<!-- Node116&#45;&gt;Node93 -->
<g id="edge36" class="edge"><title>Node116&#45;&gt;Node93</title>
<path fill="none" stroke="midnightblue" d="M563.732,-112.733C500.604,-108.373 411.563,-102.224 349.723,-97.9533"/>
<polygon fill="midnightblue" stroke="midnightblue" points="563.807,-116.246 574.025,-113.444 564.289,-109.263 563.807,-116.246"/>
</g>
</g>
</svg>
