<?xml version="1.0" encoding="UTF-8" standalone="no"?>
<!DOCTYPE svg PUBLIC "-//W3C//DTD SVG 1.1//EN"
 "http://www.w3.org/Graphics/SVG/1.1/DTD/svg11.dtd">
<!-- Generated by graphviz version 2.30.1 (20130221.2233)
 -->
<!-- Title: GCS_MAVLINK::setup_uart Pages: 1 -->
<svg width="1086pt" height="719pt"
 viewBox="0.00 0.00 1086.00 719.00" xmlns="http://www.w3.org/2000/svg" xmlns:xlink="http://www.w3.org/1999/xlink">
<g id="graph0" class="graph" transform="scale(1 1) rotate(0) translate(4 715)">
<title>GCS_MAVLINK::setup_uart</title>
<polygon fill="white" stroke="white" points="-4,5 -4,-715 1083,-715 1083,5 -4,5"/>
<!-- Node11287 -->
<g id="node1" class="node"><title>Node11287</title>
<g id="a_node1"><a xlink:title=" ">
<polygon fill="#bfbfbf" stroke="black" points="0.395996,-413 0.395996,-433 139.604,-433 139.604,-413 0.395996,-413"/>
<text text-anchor="middle" x="70" y="-419" font-family="Helvetica,sans-Serif" font-size="10.00">GCS_MAVLINK::setup_uart</text>
</a>
</g>
</g>
<!-- Node11288 -->
<g id="node2" class="node"><title>Node11288</title>
<g id="a_node2"><a xlink:href="namespaceAP.html#aa01135941499a6cbb5fc30403fc24c65" target="_top" xlink:title=" ">
<polygon fill="white" stroke="black" points="211.87,-682 211.87,-702 310.13,-702 310.13,-682 211.87,-682"/>
<text text-anchor="middle" x="261" y="-688" font-family="Helvetica,sans-Serif" font-size="10.00">AP::serialmanager</text>
</a>
</g>
</g>
<!-- Node11287&#45;&gt;Node11288 -->
<g id="edge1" class="edge"><title>Node11287&#45;&gt;Node11288</title>
<path fill="none" stroke="midnightblue" d="M72.5962,-433.215C78.7974,-469.542 104.59,-593.882 176,-661 183.725,-668.261 193.297,-673.853 203.182,-678.151"/>
<polygon fill="midnightblue" stroke="midnightblue" points="202.118,-681.493 212.705,-681.887 204.674,-674.977 202.118,-681.493"/>
</g>
<!-- Node11290 -->
<g id="node4" class="node"><title>Node11290</title>
<g id="a_node4"><a xlink:href="classAP__SerialManager.html#a58cb32ebb77d9fc18e4756d0270d1970" target="_top" xlink:title=" ">
<polygon fill="white" stroke="black" points="200.192,-586 200.192,-618 321.808,-618 321.808,-586 200.192,-586"/>
<text text-anchor="start" x="208.192" y="-604" font-family="Helvetica,sans-Serif" font-size="10.00">AP_SerialManager::find</text>
<text text-anchor="middle" x="261" y="-592" font-family="Helvetica,sans-Serif" font-size="10.00">_serial</text>
</a>
</g>
</g>
<!-- Node11287&#45;&gt;Node11290 -->
<g id="edge3" class="edge"><title>Node11287&#45;&gt;Node11290</title>
<path fill="none" stroke="midnightblue" d="M75.166,-433.324C86.7924,-460.827 122.302,-536.456 176,-576 180.456,-579.282 185.334,-582.155 190.426,-584.67"/>
<polygon fill="midnightblue" stroke="midnightblue" points="189.216,-587.963 199.776,-588.822 192.057,-581.565 189.216,-587.963"/>
</g>
<!-- Node11293 -->
<g id="node7" class="node"><title>Node11293</title>
<g id="a_node7"><a xlink:href="classAP__SerialManager.html#ac7f526a7c129f9d922e34b0bf3a2c457" target="_top" xlink:title=" ">
<polygon fill="white" stroke="black" points="389.303,-628 389.303,-660 508.697,-660 508.697,-628 389.303,-628"/>
<text text-anchor="start" x="397.303" y="-646" font-family="Helvetica,sans-Serif" font-size="10.00">AP_SerialManager::get</text>
<text text-anchor="middle" x="449" y="-634" font-family="Helvetica,sans-Serif" font-size="10.00">_mavlink_channel</text>
</a>
</g>
</g>
<!-- Node11287&#45;&gt;Node11293 -->
<g id="edge6" class="edge"><title>Node11287&#45;&gt;Node11293</title>
<path fill="none" stroke="midnightblue" d="M72.7009,-433.416C78.978,-468.102 104.315,-580.143 176,-627 236.089,-666.277 320.493,-664.969 379.285,-657.386"/>
<polygon fill="midnightblue" stroke="midnightblue" points="379.794,-660.849 389.222,-656.014 378.837,-653.915 379.794,-660.849"/>
</g>
<!-- Node11294 -->
<g id="node8" class="node"><title>Node11294</title>
<g id="a_node8"><a xlink:href="classAP__HAL_1_1UARTDriver.html#a2a83124757f6f8f6eb4d25b11c9cb97e" target="_top" xlink:title=" ">
<polygon fill="white" stroke="black" points="204.189,-535 204.189,-567 317.811,-567 317.811,-535 204.189,-535"/>
<text text-anchor="start" x="212.189" y="-553" font-family="Helvetica,sans-Serif" font-size="10.00">AP_HAL::UARTDriver</text>
<text text-anchor="middle" x="261" y="-541" font-family="Helvetica,sans-Serif" font-size="10.00">::begin</text>
</a>
</g>
</g>
<!-- Node11287&#45;&gt;Node11294 -->
<g id="edge8" class="edge"><title>Node11287&#45;&gt;Node11294</title>
<path fill="none" stroke="midnightblue" d="M78.7844,-433.306C94.7665,-453.766 133.38,-499.71 176,-525 181.734,-528.402 187.955,-531.4 194.332,-534.033"/>
<polygon fill="midnightblue" stroke="midnightblue" points="193.156,-537.33 203.747,-537.634 195.657,-530.792 193.156,-537.33"/>
</g>
<!-- Node11295 -->
<g id="node9" class="node"><title>Node11295</title>
<g id="a_node9"><a xlink:href="classAP__HAL_1_1UARTDriver.html#acb3d1e747568bdfdd996f06974b53aeb" target="_top" xlink:title=" ">
<polygon fill="white" stroke="black" points="204.189,-484 204.189,-516 317.811,-516 317.811,-484 204.189,-484"/>
<text text-anchor="start" x="212.189" y="-502" font-family="Helvetica,sans-Serif" font-size="10.00">AP_HAL::UARTDriver</text>
<text text-anchor="middle" x="261" y="-490" font-family="Helvetica,sans-Serif" font-size="10.00">::get_flow_control</text>
</a>
</g>
</g>
<!-- Node11287&#45;&gt;Node11295 -->
<g id="edge9" class="edge"><title>Node11287&#45;&gt;Node11295</title>
<path fill="none" stroke="midnightblue" d="M89.581,-433.095C110.27,-444.081 144.9,-461.716 176,-474 181.87,-476.319 188.035,-478.566 194.247,-480.706"/>
<polygon fill="midnightblue" stroke="midnightblue" points="193.416,-484.119 204.01,-483.973 195.638,-477.48 193.416,-484.119"/>
</g>
<!-- Node11296 -->
<g id="node10" class="node"><title>Node11296</title>
<g id="a_node10"><a xlink:href="classAP__HAL_1_1UARTDriver.html#ae831a0d75f4760267d444c522e1271a1" target="_top" xlink:title=" ">
<polygon fill="white" stroke="black" points="204.189,-433 204.189,-465 317.811,-465 317.811,-433 204.189,-433"/>
<text text-anchor="start" x="212.189" y="-451" font-family="Helvetica,sans-Serif" font-size="10.00">AP_HAL::UARTDriver</text>
<text text-anchor="middle" x="261" y="-439" font-family="Helvetica,sans-Serif" font-size="10.00">::set_flow_control</text>
</a>
</g>
</g>
<!-- Node11287&#45;&gt;Node11296 -->
<g id="edge10" class="edge"><title>Node11287&#45;&gt;Node11296</title>
<path fill="none" stroke="midnightblue" d="M139.768,-432.46C157.414,-434.888 176.356,-437.493 193.866,-439.902"/>
<polygon fill="midnightblue" stroke="midnightblue" points="193.605,-443.399 203.989,-441.295 194.559,-436.465 193.605,-443.399"/>
</g>
<!-- Node11297 -->
<g id="node11" class="node"><title>Node11297</title>
<g id="a_node11"><a xlink:href="classAP__HAL_1_1Scheduler.html#ab3175e2e6223ccfe82f957e41cc12b26" target="_top" xlink:title=" ">
<polygon fill="white" stroke="black" points="205.751,-382 205.751,-414 316.249,-414 316.249,-382 205.751,-382"/>
<text text-anchor="start" x="213.751" y="-400" font-family="Helvetica,sans-Serif" font-size="10.00">AP_HAL::Scheduler::</text>
<text text-anchor="middle" x="261" y="-388" font-family="Helvetica,sans-Serif" font-size="10.00">delay</text>
</a>
</g>
</g>
<!-- Node11287&#45;&gt;Node11297 -->
<g id="edge11" class="edge"><title>Node11287&#45;&gt;Node11297</title>
<path fill="none" stroke="midnightblue" d="M139.768,-413.904C157.94,-411.5 177.486,-408.915 195.427,-406.541"/>
<polygon fill="midnightblue" stroke="midnightblue" points="196.04,-409.991 205.495,-405.21 195.122,-403.051 196.04,-409.991"/>
</g>
<!-- Node11298 -->
<g id="node12" class="node"><title>Node11298</title>
<g id="a_node12"><a xlink:href="classAP__HAL_1_1BetterStream.html#a915cc01273d4b418c2fb2989fb31a508" target="_top" xlink:title=" ">
<polygon fill="white" stroke="black" points="888.589,-241 888.589,-273 1007.41,-273 1007.41,-241 888.589,-241"/>
<text text-anchor="start" x="896.589" y="-259" font-family="Helvetica,sans-Serif" font-size="10.00">AP_HAL::BetterStream</text>
<text text-anchor="middle" x="948" y="-247" font-family="Helvetica,sans-Serif" font-size="10.00">::write</text>
</a>
</g>
</g>
<!-- Node11287&#45;&gt;Node11298 -->
<g id="edge12" class="edge"><title>Node11287&#45;&gt;Node11298</title>
<path fill="none" stroke="midnightblue" d="M77.6525,-412.827C92.3717,-391.321 130.06,-341.533 176,-321 286.635,-271.55 326.817,-302 448,-302 448,-302 448,-302 624,-302 712.407,-302 813.134,-285.258 878.262,-272.198"/>
<polygon fill="midnightblue" stroke="midnightblue" points="879.299,-275.559 888.401,-270.137 877.905,-268.699 879.299,-275.559"/>
</g>
<!-- Node11299 -->
<g id="node13" class="node"><title>Node11299</title>
<g id="a_node13"><a xlink:href="classAP__SerialManager.html#a5e363f0274897cdcf5a427d5bbe3eb51" target="_top" xlink:title=" ">
<polygon fill="white" stroke="black" points="200.192,-331 200.192,-363 321.808,-363 321.808,-331 200.192,-331"/>
<text text-anchor="start" x="208.192" y="-349" font-family="Helvetica,sans-Serif" font-size="10.00">AP_SerialManager::find</text>
<text text-anchor="middle" x="261" y="-337" font-family="Helvetica,sans-Serif" font-size="10.00">_baudrate</text>
</a>
</g>
</g>
<!-- Node11287&#45;&gt;Node11299 -->
<g id="edge13" class="edge"><title>Node11287&#45;&gt;Node11299</title>
<path fill="none" stroke="midnightblue" d="M89.5558,-412.841C110.223,-401.799 144.833,-384.114 176,-372 181.052,-370.036 186.325,-368.135 191.659,-366.317"/>
<polygon fill="midnightblue" stroke="midnightblue" points="192.893,-369.595 201.293,-363.138 190.7,-362.948 192.893,-369.595"/>
</g>
<!-- Node11301 -->
<g id="node15" class="node"><title>Node11301</title>
<g id="a_node15"><a xlink:href="structGCS__MAVLINK.html#afaf4b53bc2f64b4fb6bd1fe729b2cef3" target="_top" xlink:title=" ">
<polygon fill="white" stroke="black" points="208.632,-253 208.632,-273 313.368,-273 313.368,-253 208.632,-253"/>
<text text-anchor="middle" x="261" y="-259" font-family="Helvetica,sans-Serif" font-size="10.00">GCS_MAVLINK::init</text>
</a>
</g>
</g>
<!-- Node11287&#45;&gt;Node11301 -->
<g id="edge16" class="edge"><title>Node11287&#45;&gt;Node11301</title>
<path fill="none" stroke="midnightblue" d="M76.0468,-412.783C89.0079,-387.611 125.991,-322.177 176,-288 182.952,-283.249 190.825,-279.383 198.894,-276.243"/>
<polygon fill="midnightblue" stroke="midnightblue" points="200.151,-279.511 208.414,-272.879 197.819,-272.91 200.151,-279.511"/>
</g>
<!-- Node11305 -->
<g id="node19" class="node"><title>Node11305</title>
<g id="a_node19"><a xlink:href="classAP__SerialManager.html#aeec52d0317706a561feba321569f09a9" target="_top" xlink:title=" ">
<polygon fill="white" stroke="black" points="201.303,-202 201.303,-234 320.697,-234 320.697,-202 201.303,-202"/>
<text text-anchor="start" x="209.303" y="-220" font-family="Helvetica,sans-Serif" font-size="10.00">AP_SerialManager::get</text>
<text text-anchor="middle" x="261" y="-208" font-family="Helvetica,sans-Serif" font-size="10.00">_mavlink_protocol</text>
</a>
</g>
</g>
<!-- Node11287&#45;&gt;Node11305 -->
<g id="edge20" class="edge"><title>Node11287&#45;&gt;Node11305</title>
<path fill="none" stroke="midnightblue" d="M74.0286,-412.642C83.5678,-381.862 115.977,-290.164 176,-243 180.752,-239.266 186.051,-236.089 191.614,-233.386"/>
<polygon fill="midnightblue" stroke="midnightblue" points="193.373,-236.439 201.174,-229.27 190.605,-230.01 193.373,-236.439"/>
</g>
<!-- Node11306 -->
<g id="node20" class="node"><title>Node11306</title>
<g id="a_node20"><a xlink:href="structGCS__MAVLINK.html#aa9db7093c9f7f44f6f2e8d4443d7778d" target="_top" xlink:title=" ">
<polygon fill="white" stroke="black" points="176.384,-95 176.384,-115 345.616,-115 345.616,-95 176.384,-95"/>
<text text-anchor="middle" x="261" y="-101" font-family="Helvetica,sans-Serif" font-size="10.00">GCS_MAVLINK::load_signing_key</text>
</a>
</g>
</g>
<!-- Node11287&#45;&gt;Node11306 -->
<g id="edge21" class="edge"><title>Node11287&#45;&gt;Node11306</title>
<path fill="none" stroke="midnightblue" d="M74.2703,-412.682C85.2311,-378.999 122.984,-269.953 176,-192 194.43,-164.901 221.615,-138.503 240.026,-122.027"/>
<polygon fill="midnightblue" stroke="midnightblue" points="242.606,-124.419 247.805,-115.188 237.984,-119.162 242.606,-124.419"/>
</g>
<!-- Node11289 -->
<g id="node3" class="node"><title>Node11289</title>
<g id="a_node3"><a xlink:href="classAP__SerialManager.html#afa2d8d5e467b6c0349d9d0864866cf16" target="_top" xlink:title=" ">
<polygon fill="white" stroke="black" points="389.303,-679 389.303,-711 508.697,-711 508.697,-679 389.303,-679"/>
<text text-anchor="start" x="397.303" y="-697" font-family="Helvetica,sans-Serif" font-size="10.00">AP_SerialManager::get</text>
<text text-anchor="middle" x="449" y="-685" font-family="Helvetica,sans-Serif" font-size="10.00">_singleton</text>
</a>
</g>
</g>
<!-- Node11288&#45;&gt;Node11289 -->
<g id="edge2" class="edge"><title>Node11288&#45;&gt;Node11289</title>
<path fill="none" stroke="midnightblue" d="M310.384,-692.78C331.293,-693.118 356.144,-693.518 378.938,-693.886"/>
<polygon fill="midnightblue" stroke="midnightblue" points="379.189,-697.391 389.244,-694.052 379.302,-690.391 379.189,-697.391"/>
</g>
<!-- Node11291 -->
<g id="node5" class="node"><title>Node11291</title>
<g id="a_node5"><a xlink:href="classAP__SerialManager.html#a073cb2777b00ddb4695dea07acc786d9" target="_top" xlink:title=" ">
<polygon fill="white" stroke="black" points="388.192,-577 388.192,-609 509.808,-609 509.808,-577 388.192,-577"/>
<text text-anchor="start" x="396.192" y="-595" font-family="Helvetica,sans-Serif" font-size="10.00">AP_SerialManager::find</text>
<text text-anchor="middle" x="449" y="-583" font-family="Helvetica,sans-Serif" font-size="10.00">_protocol_instance</text>
</a>
</g>
</g>
<!-- Node11290&#45;&gt;Node11291 -->
<g id="edge4" class="edge"><title>Node11290&#45;&gt;Node11291</title>
<path fill="none" stroke="midnightblue" d="M321.875,-599.103C339.707,-598.24 359.407,-597.287 377.833,-596.395"/>
<polygon fill="midnightblue" stroke="midnightblue" points="378.099,-599.886 387.918,-595.907 377.761,-592.895 378.099,-599.886"/>
</g>
<!-- Node11292 -->
<g id="node6" class="node"><title>Node11292</title>
<g id="a_node6"><a xlink:href="classAP__SerialManager.html#aeecba06b097b0443637b7cf5349fdf68" target="_top" xlink:title=" ">
<polygon fill="white" stroke="black" points="552.466,-602 552.466,-634 693.534,-634 693.534,-602 552.466,-602"/>
<text text-anchor="start" x="560.466" y="-620" font-family="Helvetica,sans-Serif" font-size="10.00">AP_SerialManager::protocol</text>
<text text-anchor="middle" x="623" y="-608" font-family="Helvetica,sans-Serif" font-size="10.00">_match</text>
</a>
</g>
</g>
<!-- Node11291&#45;&gt;Node11292 -->
<g id="edge5" class="edge"><title>Node11291&#45;&gt;Node11292</title>
<path fill="none" stroke="midnightblue" d="M510.157,-601.744C520.615,-603.264 531.635,-604.866 542.515,-606.447"/>
<polygon fill="midnightblue" stroke="midnightblue" points="542.048,-609.916 552.448,-607.891 543.055,-602.989 542.048,-609.916"/>
</g>
<!-- Node11293&#45;&gt;Node11292 -->
<g id="edge7" class="edge"><title>Node11293&#45;&gt;Node11292</title>
<path fill="none" stroke="midnightblue" d="M508.712,-635.125C519.55,-633.487 531.034,-631.751 542.37,-630.037"/>
<polygon fill="midnightblue" stroke="midnightblue" points="542.909,-633.495 552.273,-628.54 541.863,-626.574 542.909,-633.495"/>
</g>
<!-- Node11299&#45;&gt;Node11291 -->
<g id="edge14" class="edge"><title>Node11299&#45;&gt;Node11291</title>
<path fill="none" stroke="midnightblue" d="M322.185,-358.013C330.819,-361.474 339.1,-366.023 346,-372 406.747,-424.619 433.53,-521.03 443.287,-567.124"/>
<polygon fill="midnightblue" stroke="midnightblue" points="439.857,-567.824 445.265,-576.935 446.719,-566.44 439.857,-567.824"/>
</g>
<!-- Node11300 -->
<g id="node14" class="node"><title>Node11300</title>
<g id="a_node14"><a xlink:href="classAP__SerialManager.html#a0b46c00a7f296e98ee118821a2481ffc" target="_top" xlink:title=" ">
<polygon fill="white" stroke="black" points="386.527,-331 386.527,-363 511.473,-363 511.473,-331 386.527,-331"/>
<text text-anchor="start" x="394.527" y="-349" font-family="Helvetica,sans-Serif" font-size="10.00">AP_SerialManager::map</text>
<text text-anchor="middle" x="449" y="-337" font-family="Helvetica,sans-Serif" font-size="10.00">_baudrate</text>
</a>
</g>
</g>
<!-- Node11299&#45;&gt;Node11300 -->
<g id="edge15" class="edge"><title>Node11299&#45;&gt;Node11300</title>
<path fill="none" stroke="midnightblue" d="M321.875,-347C339.178,-347 358.241,-347 376.191,-347"/>
<polygon fill="midnightblue" stroke="midnightblue" points="376.319,-350.5 386.319,-347 376.319,-343.5 376.319,-350.5"/>
</g>
<!-- Node11302 -->
<g id="node16" class="node"><title>Node11302</title>
<g id="a_node16"><a xlink:href="GCS__MAVLink_8h.html#a17ee8d1ce05b7d160ccc6a78b92b774f" target="_top" xlink:title=" ">
<polygon fill="white" stroke="black" points="410.421,-163 410.421,-183 487.579,-183 487.579,-163 410.421,-163"/>
<text text-anchor="middle" x="449" y="-169" font-family="Helvetica,sans-Serif" font-size="10.00">valid_channel</text>
</a>
</g>
</g>
<!-- Node11301&#45;&gt;Node11302 -->
<g id="edge17" class="edge"><title>Node11301&#45;&gt;Node11302</title>
<path fill="none" stroke="midnightblue" d="M313.752,-256.829C325.032,-253.856 336.44,-249.469 346,-243 368.978,-227.45 359.39,-208.08 382,-192 387.614,-188.007 394.057,-184.848 400.667,-182.351"/>
<polygon fill="midnightblue" stroke="midnightblue" points="401.993,-185.599 410.396,-179.145 399.803,-178.951 401.993,-185.599"/>
</g>
<!-- Node11303 -->
<g id="node17" class="node"><title>Node11303</title>
<g id="a_node17"><a xlink:href="stdio_8h.html#a37c1e8ce8a2b411fa666dc33972a2cec" target="_top" xlink:title=" ">
<polygon fill="white" stroke="black" points="424.604,-253 424.604,-273 473.396,-273 473.396,-253 424.604,-253"/>
<text text-anchor="middle" x="449" y="-259" font-family="Helvetica,sans-Serif" font-size="10.00">snprintf</text>
</a>
</g>
</g>
<!-- Node11301&#45;&gt;Node11303 -->
<g id="edge18" class="edge"><title>Node11301&#45;&gt;Node11303</title>
<path fill="none" stroke="midnightblue" d="M313.811,-263C345.837,-263 386.03,-263 414.039,-263"/>
<polygon fill="midnightblue" stroke="midnightblue" points="414.136,-266.5 424.136,-263 414.136,-259.5 414.136,-266.5"/>
</g>
<!-- Node11304 -->
<g id="node18" class="node"><title>Node11304</title>
<g id="a_node18"><a xlink:href="classAP__HAL_1_1Util.html#a6b7f7ba5272a4a2f7ae352fe35af90e1" target="_top" xlink:title=" ">
<polygon fill="white" stroke="black" points="400.429,-202 400.429,-234 497.571,-234 497.571,-202 400.429,-202"/>
<text text-anchor="start" x="408.429" y="-220" font-family="Helvetica,sans-Serif" font-size="10.00">AP_HAL::Util::perf</text>
<text text-anchor="middle" x="449" y="-208" font-family="Helvetica,sans-Serif" font-size="10.00">_alloc</text>
</a>
</g>
</g>
<!-- Node11301&#45;&gt;Node11304 -->
<g id="edge19" class="edge"><title>Node11301&#45;&gt;Node11304</title>
<path fill="none" stroke="midnightblue" d="M304.315,-252.983C317.657,-249.809 332.448,-246.274 346,-243 360.4,-239.521 375.933,-235.732 390.431,-232.181"/>
<polygon fill="midnightblue" stroke="midnightblue" points="391.397,-235.547 400.276,-229.766 389.73,-228.749 391.397,-235.547"/>
</g>
<!-- Node11307 -->
<g id="node21" class="node"><title>Node11307</title>
<g id="a_node21"><a xlink:href="structGCS__MAVLINK.html#acaf8e34bd827814a1b8ccf8907fcfb36" target="_top" xlink:title=" ">
<polygon fill="white" stroke="black" points="387.179,-22 387.179,-54 510.821,-54 510.821,-22 387.179,-22"/>
<text text-anchor="start" x="395.179" y="-40" font-family="Helvetica,sans-Serif" font-size="10.00">GCS_MAVLINK::signing</text>
<text text-anchor="middle" x="449" y="-28" font-family="Helvetica,sans-Serif" font-size="10.00">_key_load</text>
</a>
</g>
</g>
<!-- Node11306&#45;&gt;Node11307 -->
<g id="edge22" class="edge"><title>Node11306&#45;&gt;Node11307</title>
<path fill="none" stroke="midnightblue" d="M289.846,-94.9694C317.149,-85.1346 359.507,-69.8766 393.517,-57.6255"/>
<polygon fill="midnightblue" stroke="midnightblue" points="395.101,-60.7754 403.323,-54.0934 392.728,-54.1896 395.101,-60.7754"/>
</g>
<!-- Node11311 -->
<g id="node25" class="node"><title>Node11311</title>
<g id="a_node25"><a xlink:href="classAP__HAL_1_1BetterStream.html#a8534aa004599bb81ad60f3e762791032" target="_top" xlink:title=" ">
<polygon fill="white" stroke="black" points="389.589,-112 389.589,-144 508.411,-144 508.411,-112 389.589,-112"/>
<text text-anchor="start" x="397.589" y="-130" font-family="Helvetica,sans-Serif" font-size="10.00">AP_HAL::BetterStream</text>
<text text-anchor="middle" x="449" y="-118" font-family="Helvetica,sans-Serif" font-size="10.00">::printf</text>
</a>
</g>
</g>
<!-- Node11306&#45;&gt;Node11311 -->
<g id="edge26" class="edge"><title>Node11306&#45;&gt;Node11311</title>
<path fill="none" stroke="midnightblue" d="M343.041,-115.021C355.08,-116.51 367.391,-118.032 379.149,-119.486"/>
<polygon fill="midnightblue" stroke="midnightblue" points="378.964,-122.99 389.318,-120.744 379.823,-116.043 378.964,-122.99"/>
</g>
<!-- Node11318 -->
<g id="node32" class="node"><title>Node11318</title>
<g id="a_node32"><a xlink:href="GCS__Signing_8cpp.html#ac595dcdecf4f3026f43492bfb94ba75b" target="_top" xlink:title=" ">
<polygon fill="white" stroke="black" points="382.348,-73 382.348,-93 515.652,-93 515.652,-73 382.348,-73"/>
<text text-anchor="middle" x="449" y="-79" font-family="Helvetica,sans-Serif" font-size="10.00">accept_unsigned_callback</text>
</a>
</g>
</g>
<!-- Node11306&#45;&gt;Node11318 -->
<g id="edge36" class="edge"><title>Node11306&#45;&gt;Node11318</title>
<path fill="none" stroke="midnightblue" d="M345.75,-95.0941C354.552,-94.053 363.465,-92.9988 372.17,-91.9691"/>
<polygon fill="midnightblue" stroke="midnightblue" points="372.755,-95.4244 382.275,-90.7739 371.933,-88.4728 372.755,-95.4244"/>
</g>
<!-- Node11308 -->
<g id="node22" class="node"><title>Node11308</title>
<g id="a_node22"><a xlink:href="classStorageAccess.html#aa810ebbc83bfc0986aa6c13f76d08eaf" target="_top" xlink:title=" ">
<polygon fill="white" stroke="black" points="569.702,-51 569.702,-71 676.298,-71 676.298,-51 569.702,-51"/>
<text text-anchor="middle" x="623" y="-57" font-family="Helvetica,sans-Serif" font-size="10.00">StorageAccess::size</text>
</a>
</g>
</g>
<!-- Node11307&#45;&gt;Node11308 -->
<g id="edge23" class="edge"><title>Node11307&#45;&gt;Node11308</title>
<path fill="none" stroke="midnightblue" d="M511.125,-46.1737C526.808,-48.2709 543.699,-50.5295 559.453,-52.6361"/>
<polygon fill="midnightblue" stroke="midnightblue" points="559.241,-56.1389 569.617,-53.9953 560.169,-49.2007 559.241,-56.1389"/>
</g>
<!-- Node11309 -->
<g id="node23" class="node"><title>Node11309</title>
<g id="a_node23"><a xlink:href="classStorageAccess.html#abb169f592c849f2158a48615c8dee90a" target="_top" xlink:title=" ">
<polygon fill="white" stroke="black" points="568.586,-0 568.586,-32 677.414,-32 677.414,-0 568.586,-0"/>
<text text-anchor="start" x="576.586" y="-18" font-family="Helvetica,sans-Serif" font-size="10.00">StorageAccess::read</text>
<text text-anchor="middle" x="623" y="-6" font-family="Helvetica,sans-Serif" font-size="10.00">_block</text>
</a>
</g>
</g>
<!-- Node11307&#45;&gt;Node11309 -->
<g id="edge24" class="edge"><title>Node11307&#45;&gt;Node11309</title>
<path fill="none" stroke="midnightblue" d="M511.125,-30.1817C526.491,-28.2162 543.017,-26.1025 558.497,-24.1225"/>
<polygon fill="midnightblue" stroke="midnightblue" points="559.02,-27.5842 568.495,-22.8436 558.132,-20.6407 559.02,-27.5842"/>
</g>
<!-- Node11310 -->
<g id="node24" class="node"><title>Node11310</title>
<g id="a_node24"><a xlink:href="classAP__HAL_1_1Storage.html#a1c3b1e80b0bec7d4bacd3ecbefb3b3f3" target="_top" xlink:title=" ">
<polygon fill="white" stroke="black" points="730.747,-0 730.747,-32 851.253,-32 851.253,-0 730.747,-0"/>
<text text-anchor="start" x="738.747" y="-18" font-family="Helvetica,sans-Serif" font-size="10.00">AP_HAL::Storage::read</text>
<text text-anchor="middle" x="791" y="-6" font-family="Helvetica,sans-Serif" font-size="10.00">_block</text>
</a>
</g>
</g>
<!-- Node11309&#45;&gt;Node11310 -->
<g id="edge25" class="edge"><title>Node11309&#45;&gt;Node11310</title>
<path fill="none" stroke="midnightblue" d="M677.437,-16C691.089,-16 705.968,-16 720.304,-16"/>
<polygon fill="midnightblue" stroke="midnightblue" points="720.621,-19.5001 730.621,-16 720.621,-12.5001 720.621,-19.5001"/>
</g>
<!-- Node11312 -->
<g id="node26" class="node"><title>Node11312</title>
<g id="a_node26"><a xlink:href="classAP__HAL_1_1BetterStream.html#aa730be451d385d7ba03ee9677e6d91a2" target="_top" xlink:title=" ">
<polygon fill="white" stroke="black" points="563.589,-124 563.589,-156 682.411,-156 682.411,-124 563.589,-124"/>
<text text-anchor="start" x="571.589" y="-142" font-family="Helvetica,sans-Serif" font-size="10.00">AP_HAL::BetterStream</text>
<text text-anchor="middle" x="623" y="-130" font-family="Helvetica,sans-Serif" font-size="10.00">::vprintf</text>
</a>
</g>
</g>
<!-- Node11311&#45;&gt;Node11312 -->
<g id="edge27" class="edge"><title>Node11311&#45;&gt;Node11312</title>
<path fill="none" stroke="midnightblue" d="M508.712,-132.096C523.103,-133.1 538.631,-134.184 553.439,-135.217"/>
<polygon fill="midnightblue" stroke="midnightblue" points="553.334,-138.718 563.553,-135.922 553.821,-131.735 553.334,-138.718"/>
</g>
<!-- Node11313 -->
<g id="node27" class="node"><title>Node11313</title>
<g id="a_node27"><a xlink:href="print__vprintf_8cpp.html#a98e0d5bb436a207f576379beaa786040" target="_top" xlink:title=" ">
<polygon fill="white" stroke="black" points="756.877,-141 756.877,-161 825.123,-161 825.123,-141 756.877,-141"/>
<text text-anchor="middle" x="791" y="-147" font-family="Helvetica,sans-Serif" font-size="10.00">print_vprintf</text>
</a>
</g>
</g>
<!-- Node11312&#45;&gt;Node11313 -->
<g id="edge28" class="edge"><title>Node11312&#45;&gt;Node11313</title>
<path fill="none" stroke="midnightblue" d="M682.525,-143.878C703.572,-145.273 726.925,-146.82 746.471,-148.116"/>
<polygon fill="midnightblue" stroke="midnightblue" points="746.396,-151.618 756.606,-148.787 746.859,-144.633 746.396,-151.618"/>
</g>
<!-- Node11313&#45;&gt;Node11298 -->
<g id="edge29" class="edge"><title>Node11313&#45;&gt;Node11298</title>
<path fill="none" stroke="midnightblue" d="M806.862,-161.164C831.624,-178.098 881.868,-212.458 914.976,-235.1"/>
<polygon fill="midnightblue" stroke="midnightblue" points="913.181,-238.113 923.411,-240.868 917.133,-232.334 913.181,-238.113"/>
</g>
<!-- Node11314 -->
<g id="node28" class="node"><title>Node11314</title>
<g id="a_node28"><a xlink:href="ftoa__engine_8cpp.html#a1c28234da8f20b43c85890d4bb452947" target="_top" xlink:title=" ">
<polygon fill="white" stroke="black" points="913.865,-102 913.865,-122 982.135,-122 982.135,-102 913.865,-102"/>
<text text-anchor="middle" x="948" y="-108" font-family="Helvetica,sans-Serif" font-size="10.00">ftoa_engine</text>
</a>
</g>
</g>
<!-- Node11313&#45;&gt;Node11314 -->
<g id="edge30" class="edge"><title>Node11313&#45;&gt;Node11314</title>
<path fill="none" stroke="midnightblue" d="M825.251,-142.634C848.237,-136.85 879.032,-129.102 903.899,-122.845"/>
<polygon fill="midnightblue" stroke="midnightblue" points="904.96,-126.187 913.804,-120.353 903.252,-119.399 904.96,-126.187"/>
</g>
<!-- Node11316 -->
<g id="node30" class="node"><title>Node11316</title>
<g id="a_node30"><a xlink:href="utoa__invert_8cpp.html#a34926f552460b47c414ec4d83b32815c" target="_top" xlink:title=" ">
<polygon fill="white" stroke="black" points="913.04,-180 913.04,-200 982.96,-200 982.96,-180 913.04,-180"/>
<text text-anchor="middle" x="948" y="-186" font-family="Helvetica,sans-Serif" font-size="10.00">ulltoa_invert</text>
</a>
</g>
</g>
<!-- Node11313&#45;&gt;Node11316 -->
<g id="edge32" class="edge"><title>Node11313&#45;&gt;Node11316</title>
<path fill="none" stroke="midnightblue" d="M825.251,-159.366C848.002,-165.091 878.404,-172.74 903.136,-178.963"/>
<polygon fill="midnightblue" stroke="midnightblue" points="902.449,-182.399 913,-181.445 904.157,-175.611 902.449,-182.399"/>
</g>
<!-- Node11317 -->
<g id="node31" class="node"><title>Node11317</title>
<g id="a_node31"><a xlink:href="utoa__invert_8cpp.html#a5d99bba8e697c1e11da489d88fca8559" target="_top" xlink:title=" ">
<polygon fill="white" stroke="black" points="914.15,-141 914.15,-161 981.85,-161 981.85,-141 914.15,-141"/>
<text text-anchor="middle" x="948" y="-147" font-family="Helvetica,sans-Serif" font-size="10.00">ultoa_invert</text>
</a>
</g>
</g>
<!-- Node11313&#45;&gt;Node11317 -->
<g id="edge34" class="edge"><title>Node11313&#45;&gt;Node11317</title>
<path fill="none" stroke="midnightblue" d="M825.251,-151C848.212,-151 878.966,-151 903.82,-151"/>
<polygon fill="midnightblue" stroke="midnightblue" points="904.07,-154.5 914.07,-151 904.07,-147.5 904.07,-154.5"/>
</g>
<!-- Node11315 -->
<g id="node29" class="node"><title>Node11315</title>
<g id="a_node29"><a xlink:href="lstrlib_8c.html#a9605f4d16ae762782f8be8b54aef0a22" target="_top" xlink:title=" ">
<polygon fill="white" stroke="black" points="1043.83,-141 1043.83,-161 1078.17,-161 1078.17,-141 1043.83,-141"/>
<text text-anchor="middle" x="1061" y="-147" font-family="Helvetica,sans-Serif" font-size="10.00">digit</text>
</a>
</g>
</g>
<!-- Node11314&#45;&gt;Node11315 -->
<g id="edge31" class="edge"><title>Node11314&#45;&gt;Node11315</title>
<path fill="none" stroke="midnightblue" d="M981.261,-122.031C989.973,-124.838 999.375,-127.955 1008,-131 1016.56,-134.022 1025.83,-137.515 1034.14,-140.729"/>
<polygon fill="midnightblue" stroke="midnightblue" points="1033.1,-144.081 1043.69,-144.46 1035.65,-137.561 1033.1,-144.081"/>
</g>
<!-- Node11316&#45;&gt;Node11315 -->
<g id="edge33" class="edge"><title>Node11316&#45;&gt;Node11315</title>
<path fill="none" stroke="midnightblue" d="M979.062,-179.961C988.355,-176.817 998.615,-173.305 1008,-170 1016.51,-167.004 1025.77,-163.652 1034.08,-160.606"/>
<polygon fill="midnightblue" stroke="midnightblue" points="1035.46,-163.826 1043.64,-157.089 1033.05,-157.257 1035.46,-163.826"/>
</g>
<!-- Node11317&#45;&gt;Node11315 -->
<g id="edge35" class="edge"><title>Node11317&#45;&gt;Node11315</title>
<path fill="none" stroke="midnightblue" d="M982.003,-151C998.356,-151 1017.85,-151 1033.25,-151"/>
<polygon fill="midnightblue" stroke="midnightblue" points="1033.64,-154.5 1043.64,-151 1033.64,-147.5 1033.64,-154.5"/>
</g>
</g>
</svg>
