<?xml version="1.0" encoding="UTF-8" standalone="no"?>
<!DOCTYPE svg PUBLIC "-//W3C//DTD SVG 1.1//EN"
 "http://www.w3.org/Graphics/SVG/1.1/DTD/svg11.dtd">
<!-- Generated by graphviz version 2.30.1 (20130221.2233)
 -->
<!-- Title: GCS_MAVLINK::set_ap_message_interval Pages: 1 -->
<svg width="1694pt" height="231pt"
 viewBox="0.00 0.00 1694.00 231.00" xmlns="http://www.w3.org/2000/svg" xmlns:xlink="http://www.w3.org/1999/xlink">
<g id="graph0" class="graph" transform="scale(1 1) rotate(0) translate(4 227)">
<title>GCS_MAVLINK::set_ap_message_interval</title>
<polygon fill="white" stroke="white" points="-4,5 -4,-227 1691,-227 1691,5 -4,5"/>
<!-- Node10683 -->
<g id="node1" class="node"><title>Node10683</title>
<g id="a_node1"><a xlink:title=" ">
<polygon fill="#bfbfbf" stroke="black" points="1564.01,-65 1564.01,-97 1685.99,-97 1685.99,-65 1564.01,-65"/>
<text text-anchor="start" x="1572.01" y="-83" font-family="Helvetica,sans-Serif" font-size="10.00">GCS_MAVLINK::set_ap</text>
<text text-anchor="middle" x="1625" y="-71" font-family="Helvetica,sans-Serif" font-size="10.00">_message_interval</text>
</a>
</g>
</g>
<!-- Node10684 -->
<g id="node2" class="node"><title>Node10684</title>
<g id="a_node2"><a xlink:href="structGCS__MAVLINK.html#a08e5a22c8915300128e6d1b4ade7687a" target="_top" xlink:title=" ">
<polygon fill="white" stroke="black" points="1391.24,-88 1391.24,-132 1518.76,-132 1518.76,-88 1391.24,-88"/>
<text text-anchor="start" x="1399.24" y="-118" font-family="Helvetica,sans-Serif" font-size="10.00">GCS_MAVLINK::initialise</text>
<text text-anchor="start" x="1399.24" y="-106" font-family="Helvetica,sans-Serif" font-size="10.00">_message_intervals_for</text>
<text text-anchor="middle" x="1455" y="-94" font-family="Helvetica,sans-Serif" font-size="10.00">_stream</text>
</a>
</g>
</g>
<!-- Node10683&#45;&gt;Node10684 -->
<g id="edge1" class="edge"><title>Node10683&#45;&gt;Node10684</title>
<path fill="none" stroke="midnightblue" d="M1553.77,-93.1238C1542.19,-95.122 1530.26,-97.182 1518.88,-99.1465"/>
<polygon fill="midnightblue" stroke="midnightblue" points="1554.56,-96.5379 1563.82,-91.3878 1553.37,-89.6399 1554.56,-96.5379"/>
</g>
<!-- Node10704 -->
<g id="node22" class="node"><title>Node10704</title>
<g id="a_node22"><a xlink:href="structGCS__MAVLINK.html#ac2c3d2352c4047cecbce1cf9437631f6" target="_top" xlink:title=" ">
<polygon fill="white" stroke="black" points="1382.62,-37 1382.62,-69 1527.38,-69 1527.38,-37 1382.62,-37"/>
<text text-anchor="start" x="1390.62" y="-55" font-family="Helvetica,sans-Serif" font-size="10.00">GCS_MAVLINK::set_mavlink</text>
<text text-anchor="middle" x="1455" y="-43" font-family="Helvetica,sans-Serif" font-size="10.00">_message_id_interval</text>
</a>
</g>
</g>
<!-- Node10683&#45;&gt;Node10704 -->
<g id="edge22" class="edge"><title>Node10683&#45;&gt;Node10704</title>
<path fill="none" stroke="midnightblue" d="M1553.75,-69.2924C1545.08,-67.8465 1536.2,-66.3671 1527.51,-64.9181"/>
<polygon fill="midnightblue" stroke="midnightblue" points="1553.38,-72.7788 1563.82,-70.9704 1554.53,-65.874 1553.38,-72.7788"/>
</g>
<!-- Node10685 -->
<g id="node3" class="node"><title>Node10685</title>
<g id="a_node3"><a xlink:href="structGCS__MAVLINK.html#ab138669a99fc1a9d86d5aced80454dab" target="_top" xlink:title=" ">
<polygon fill="white" stroke="black" points="1042.01,-117 1042.01,-149 1163.99,-149 1163.99,-117 1042.01,-117"/>
<text text-anchor="start" x="1050.01" y="-135" font-family="Helvetica,sans-Serif" font-size="10.00">GCS_MAVLINK::handle</text>
<text text-anchor="middle" x="1103" y="-123" font-family="Helvetica,sans-Serif" font-size="10.00">_request_data_stream</text>
</a>
</g>
</g>
<!-- Node10684&#45;&gt;Node10685 -->
<g id="edge2" class="edge"><title>Node10684&#45;&gt;Node10685</title>
<path fill="none" stroke="midnightblue" d="M1380.96,-114.8C1316.68,-119.024 1224.22,-125.1 1164.13,-129.048"/>
<polygon fill="midnightblue" stroke="midnightblue" points="1381.27,-118.287 1391.02,-114.139 1380.81,-111.302 1381.27,-118.287"/>
</g>
<!-- Node10687 -->
<g id="node5" class="node"><title>Node10687</title>
<g id="a_node5"><a xlink:href="structGCS__MAVLINK.html#a2377a4ec647d1a9052f654e0e899a696" target="_top" xlink:title=" ">
<polygon fill="white" stroke="black" points="1214.75,-63 1214.75,-107 1345.25,-107 1345.25,-63 1214.75,-63"/>
<text text-anchor="start" x="1222.75" y="-93" font-family="Helvetica,sans-Serif" font-size="10.00">GCS_MAVLINK::initialise</text>
<text text-anchor="start" x="1222.75" y="-81" font-family="Helvetica,sans-Serif" font-size="10.00">_message_intervals_from</text>
<text text-anchor="middle" x="1280" y="-69" font-family="Helvetica,sans-Serif" font-size="10.00">_streamrates</text>
</a>
</g>
</g>
<!-- Node10684&#45;&gt;Node10687 -->
<g id="edge4" class="edge"><title>Node10684&#45;&gt;Node10687</title>
<path fill="none" stroke="midnightblue" d="M1380.81,-99.4232C1369.03,-97.7206 1356.91,-95.9691 1345.35,-94.2994"/>
<polygon fill="midnightblue" stroke="midnightblue" points="1380.66,-102.937 1391.05,-100.904 1381.66,-96.0094 1380.66,-102.937"/>
</g>
<!-- Node10686 -->
<g id="node4" class="node"><title>Node10686</title>
<g id="a_node4"><a xlink:href="structGCS__MAVLINK.html#a13da94a2548ade6552a5250eb3251e89" target="_top" xlink:title=" ">
<polygon fill="white" stroke="black" points="710.009,-16 710.009,-48 831.991,-48 831.991,-16 710.009,-16"/>
<text text-anchor="start" x="718.009" y="-34" font-family="Helvetica,sans-Serif" font-size="10.00">GCS_MAVLINK::handle</text>
<text text-anchor="middle" x="771" y="-22" font-family="Helvetica,sans-Serif" font-size="10.00">_common_message</text>
</a>
</g>
</g>
<!-- Node10685&#45;&gt;Node10686 -->
<g id="edge3" class="edge"><title>Node10685&#45;&gt;Node10686</title>
<path fill="none" stroke="midnightblue" d="M1031.88,-137.63C983.499,-137.745 919.274,-131.575 870,-104 847.649,-91.492 854.337,-74.5693 834,-59 828.593,-54.8607 822.454,-51.2112 816.191,-48.0418"/>
<polygon fill="midnightblue" stroke="midnightblue" points="1031.99,-141.13 1041.95,-137.516 1031.91,-134.13 1031.99,-141.13"/>
</g>
<!-- Node10688 -->
<g id="node6" class="node"><title>Node10688</title>
<g id="a_node6"><a xlink:href="structGCS__MAVLINK.html#a97b3a94ebc165ee34ee93b26e2dee23d" target="_top" xlink:title=" ">
<polygon fill="white" stroke="black" points="1028.11,-75 1028.11,-95 1177.89,-95 1177.89,-75 1028.11,-75"/>
<text text-anchor="middle" x="1103" y="-81" font-family="Helvetica,sans-Serif" font-size="10.00">GCS_MAVLINK::update_send</text>
</a>
</g>
</g>
<!-- Node10687&#45;&gt;Node10688 -->
<g id="edge5" class="edge"><title>Node10687&#45;&gt;Node10688</title>
<path fill="none" stroke="midnightblue" d="M1204.27,-85C1195.62,-85 1186.79,-85 1178.15,-85"/>
<polygon fill="midnightblue" stroke="midnightblue" points="1204.33,-88.5001 1214.33,-85 1204.33,-81.5001 1204.33,-88.5001"/>
</g>
<!-- Node10689 -->
<g id="node7" class="node"><title>Node10689</title>
<g id="a_node7"><a xlink:href="classGCS.html#a07a8ce284513a8ce8336b085d0b8aadf" target="_top" xlink:title=" ">
<polygon fill="white" stroke="black" points="880.471,-75 880.471,-95 981.529,-95 981.529,-75 880.471,-75"/>
<text text-anchor="middle" x="931" y="-81" font-family="Helvetica,sans-Serif" font-size="10.00">GCS::update_send</text>
</a>
</g>
</g>
<!-- Node10688&#45;&gt;Node10689 -->
<g id="edge6" class="edge"><title>Node10688&#45;&gt;Node10689</title>
<path fill="none" stroke="midnightblue" d="M1017.66,-85C1005.41,-85 993.139,-85 981.868,-85"/>
<polygon fill="midnightblue" stroke="midnightblue" points="1017.93,-88.5001 1027.93,-85 1017.93,-81.5001 1017.93,-88.5001"/>
</g>
<!-- Node10690 -->
<g id="node8" class="node"><title>Node10690</title>
<g id="a_node8"><a xlink:href="classAP__BoardConfig.html#ab7d977aecbbe7090266bee755bf2cc32" target="_top" xlink:title=" ">
<polygon fill="white" stroke="black" points="707.968,-69 707.968,-101 834.032,-101 834.032,-69 707.968,-69"/>
<text text-anchor="start" x="715.968" y="-87" font-family="Helvetica,sans-Serif" font-size="10.00">AP_BoardConfig::sensor</text>
<text text-anchor="middle" x="771" y="-75" font-family="Helvetica,sans-Serif" font-size="10.00">_config_error</text>
</a>
</g>
</g>
<!-- Node10689&#45;&gt;Node10690 -->
<g id="edge7" class="edge"><title>Node10689&#45;&gt;Node10690</title>
<path fill="none" stroke="midnightblue" d="M870.262,-85C858.467,-85 846.062,-85 834.189,-85"/>
<polygon fill="midnightblue" stroke="midnightblue" points="870.441,-88.5001 880.441,-85 870.441,-81.5001 870.441,-88.5001"/>
</g>
<!-- Node10691 -->
<g id="node9" class="node"><title>Node10691</title>
<g id="a_node9"><a xlink:href="classAP__InertialSensor.html#a8967734e82a4f472c6d8ddd8db656804" target="_top" xlink:title=" ">
<polygon fill="white" stroke="black" points="558.921,-127 558.921,-159 661.079,-159 661.079,-127 558.921,-127"/>
<text text-anchor="start" x="566.921" y="-145" font-family="Helvetica,sans-Serif" font-size="10.00">AP_InertialSensor::</text>
<text text-anchor="middle" x="610" y="-133" font-family="Helvetica,sans-Serif" font-size="10.00">detect_backends</text>
</a>
</g>
</g>
<!-- Node10690&#45;&gt;Node10691 -->
<g id="edge8" class="edge"><title>Node10690&#45;&gt;Node10691</title>
<path fill="none" stroke="midnightblue" d="M716.536,-104.503C696.531,-111.8 674.054,-119.999 655.001,-126.949"/>
<polygon fill="midnightblue" stroke="midnightblue" points="717.937,-107.717 726.132,-101.002 715.538,-101.141 717.937,-107.717"/>
</g>
<!-- Node10701 -->
<g id="node19" class="node"><title>Node10701</title>
<g id="a_node19"><a xlink:href="classAP__Baro.html#a942db790233528bfbb4d9a07c3454360" target="_top" xlink:title=" ">
<polygon fill="white" stroke="black" points="572.818,-75 572.818,-95 647.182,-95 647.182,-75 572.818,-75"/>
<text text-anchor="middle" x="610" y="-81" font-family="Helvetica,sans-Serif" font-size="10.00">AP_Baro::init</text>
</a>
</g>
</g>
<!-- Node10690&#45;&gt;Node10701 -->
<g id="edge19" class="edge"><title>Node10690&#45;&gt;Node10701</title>
<path fill="none" stroke="midnightblue" d="M697.493,-85C680.172,-85 662.404,-85 647.514,-85"/>
<polygon fill="midnightblue" stroke="midnightblue" points="697.615,-88.5001 707.615,-85 697.615,-81.5001 697.615,-88.5001"/>
</g>
<!-- Node10703 -->
<g id="node21" class="node"><title>Node10703</title>
<g id="a_node21"><a xlink:href="classAP__Param.html#a0c15e6322af82416e599f89db54501e6" target="_top" xlink:title=" ">
<polygon fill="white" stroke="black" points="548.082,-24 548.082,-56 671.918,-56 671.918,-24 548.082,-24"/>
<text text-anchor="start" x="556.082" y="-42" font-family="Helvetica,sans-Serif" font-size="10.00">AP_Param::set_defaults</text>
<text text-anchor="middle" x="610" y="-30" font-family="Helvetica,sans-Serif" font-size="10.00">_from_table</text>
</a>
</g>
</g>
<!-- Node10690&#45;&gt;Node10703 -->
<g id="edge21" class="edge"><title>Node10690&#45;&gt;Node10703</title>
<path fill="none" stroke="midnightblue" d="M703.2,-66.0944C691.342,-62.7382 679.096,-59.2725 667.556,-56.0064"/>
<polygon fill="midnightblue" stroke="midnightblue" points="702.471,-69.5255 713.046,-68.8811 704.378,-62.7901 702.471,-69.5255"/>
</g>
<!-- Node10692 -->
<g id="node10" class="node"><title>Node10692</title>
<g id="a_node10"><a xlink:href="classAP__InertialSensor.html#a9949b7e301b0d7a5f3e59385d2e8d97a" target="_top" xlink:title=" ">
<polygon fill="white" stroke="black" points="398.921,-140 398.921,-172 501.079,-172 501.079,-140 398.921,-140"/>
<text text-anchor="start" x="406.921" y="-158" font-family="Helvetica,sans-Serif" font-size="10.00">AP_InertialSensor::</text>
<text text-anchor="middle" x="450" y="-146" font-family="Helvetica,sans-Serif" font-size="10.00">_start_backends</text>
</a>
</g>
</g>
<!-- Node10691&#45;&gt;Node10692 -->
<g id="edge9" class="edge"><title>Node10691&#45;&gt;Node10692</title>
<path fill="none" stroke="midnightblue" d="M548.488,-147.979C532.876,-149.263 516.243,-150.632 501.219,-151.868"/>
<polygon fill="midnightblue" stroke="midnightblue" points="548.894,-151.457 558.573,-147.149 548.32,-144.481 548.894,-151.457"/>
</g>
<!-- Node10697 -->
<g id="node15" class="node"><title>Node10697</title>
<g id="a_node15"><a xlink:href="classAP__InertialSensor.html#ad649def5689aecaebca16cf910d77fd8" target="_top" xlink:title=" ">
<polygon fill="white" stroke="black" points="398.921,-89 398.921,-121 501.079,-121 501.079,-89 398.921,-89"/>
<text text-anchor="start" x="406.921" y="-107" font-family="Helvetica,sans-Serif" font-size="10.00">AP_InertialSensor::</text>
<text text-anchor="middle" x="450" y="-95" font-family="Helvetica,sans-Serif" font-size="10.00">get_auxiliary_bus</text>
</a>
</g>
</g>
<!-- Node10691&#45;&gt;Node10697 -->
<g id="edge14" class="edge"><title>Node10691&#45;&gt;Node10697</title>
<path fill="none" stroke="midnightblue" d="M548.488,-128.447C532.876,-124.692 516.243,-120.691 501.219,-117.078"/>
<polygon fill="midnightblue" stroke="midnightblue" points="548.032,-131.937 558.573,-130.872 549.669,-125.131 548.032,-131.937"/>
</g>
<!-- Node10698 -->
<g id="node16" class="node"><title>Node10698</title>
<g id="a_node16"><a xlink:href="classAP__Compass__AK8963.html#a0e8c9e0c82de409e0225fc81ed4ed6db" target="_top" xlink:title=" ">
<polygon fill="white" stroke="black" points="388.079,-191 388.079,-223 511.921,-223 511.921,-191 388.079,-191"/>
<text text-anchor="start" x="396.079" y="-209" font-family="Helvetica,sans-Serif" font-size="10.00">AP_Compass_AK8963::</text>
<text text-anchor="middle" x="450" y="-197" font-family="Helvetica,sans-Serif" font-size="10.00">probe_mpu9250</text>
</a>
</g>
</g>
<!-- Node10691&#45;&gt;Node10698 -->
<g id="edge15" class="edge"><title>Node10691&#45;&gt;Node10698</title>
<path fill="none" stroke="midnightblue" d="M559.836,-162.915C537.561,-171.937 511.576,-182.463 490.583,-190.966"/>
<polygon fill="midnightblue" stroke="midnightblue" points="561.175,-166.148 569.13,-159.15 558.547,-159.66 561.175,-166.148"/>
</g>
<!-- Node10693 -->
<g id="node11" class="node"><title>Node10693</title>
<g id="a_node11"><a xlink:href="classAP__InertialSensor.html#a741065b13832b5e4c90bbae17519c0ad" target="_top" xlink:title=" ">
<polygon fill="white" stroke="black" points="221.53,-146 221.53,-166 336.47,-166 336.47,-146 221.53,-146"/>
<text text-anchor="middle" x="279" y="-152" font-family="Helvetica,sans-Serif" font-size="10.00">AP_InertialSensor::init</text>
</a>
</g>
</g>
<!-- Node10692&#45;&gt;Node10693 -->
<g id="edge10" class="edge"><title>Node10692&#45;&gt;Node10693</title>
<path fill="none" stroke="midnightblue" d="M388.434,-156C371.53,-156 353.233,-156 336.569,-156"/>
<polygon fill="midnightblue" stroke="midnightblue" points="388.752,-159.5 398.752,-156 388.752,-152.5 388.752,-159.5"/>
</g>
<!-- Node10694 -->
<g id="node12" class="node"><title>Node10694</title>
<g id="a_node12"><a xlink:href="AHRS__Test_8cpp.html#a4fc01d736fe50cf5b977f755b675f11d" target="_top" xlink:title=" ">
<polygon fill="white" stroke="black" points="-0.231445,-177 -0.231445,-197 40.2314,-197 40.2314,-177 -0.231445,-177"/>
<text text-anchor="middle" x="20" y="-183" font-family="Helvetica,sans-Serif" font-size="10.00">setup</text>
</a>
</g>
</g>
<!-- Node10693&#45;&gt;Node10694 -->
<g id="edge11" class="edge"><title>Node10693&#45;&gt;Node10694</title>
<path fill="none" stroke="midnightblue" d="M211.28,-164.048C154.401,-170.909 76.3296,-180.326 40.46,-184.653"/>
<polygon fill="midnightblue" stroke="midnightblue" points="211.773,-167.514 221.282,-162.841 210.935,-160.564 211.773,-167.514"/>
</g>
<!-- Node10695 -->
<g id="node13" class="node"><title>Node10695</title>
<g id="a_node13"><a xlink:href="classSchedTest.html#ae9afb73f76391e34d47286a516fe5292" target="_top" xlink:title=" ">
<polygon fill="white" stroke="black" points="76.6431,-119 76.6431,-139 169.357,-139 169.357,-119 76.6431,-119"/>
<text text-anchor="middle" x="123" y="-125" font-family="Helvetica,sans-Serif" font-size="10.00">SchedTest::setup</text>
</a>
</g>
</g>
<!-- Node10693&#45;&gt;Node10695 -->
<g id="edge12" class="edge"><title>Node10693&#45;&gt;Node10695</title>
<path fill="none" stroke="midnightblue" d="M211.02,-144.257C197.04,-141.806 182.611,-139.276 169.621,-136.998"/>
<polygon fill="midnightblue" stroke="midnightblue" points="210.639,-147.743 221.094,-146.023 211.848,-140.849 210.639,-147.743"/>
</g>
<!-- Node10696 -->
<g id="node14" class="node"><title>Node10696</title>
<g id="a_node14"><a xlink:href="Scheduler__test_8cpp.html#a7dfd9b79bc5a37d7df40207afbc5431f" target="_top" xlink:title=" ">
<polygon fill="white" stroke="black" points="-0.231445,-119 -0.231445,-139 40.2314,-139 40.2314,-119 -0.231445,-119"/>
<text text-anchor="middle" x="20" y="-125" font-family="Helvetica,sans-Serif" font-size="10.00">setup</text>
</a>
</g>
</g>
<!-- Node10695&#45;&gt;Node10696 -->
<g id="edge13" class="edge"><title>Node10695&#45;&gt;Node10696</title>
<path fill="none" stroke="midnightblue" d="M66.3961,-129C57.0922,-129 48.0218,-129 40.4654,-129"/>
<polygon fill="midnightblue" stroke="midnightblue" points="66.5229,-132.5 76.5229,-129 66.5228,-125.5 66.5229,-132.5"/>
</g>
<!-- Node10699 -->
<g id="node17" class="node"><title>Node10699</title>
<g id="a_node17"><a xlink:href="classCompass.html#a1c48170d8c8966b22fb150b1634443ec" target="_top" xlink:title=" ">
<polygon fill="white" stroke="black" points="206.518,-197 206.518,-217 351.482,-217 351.482,-197 206.518,-197"/>
<text text-anchor="middle" x="279" y="-203" font-family="Helvetica,sans-Serif" font-size="10.00">Compass::_detect_backends</text>
</a>
</g>
</g>
<!-- Node10698&#45;&gt;Node10699 -->
<g id="edge16" class="edge"><title>Node10698&#45;&gt;Node10699</title>
<path fill="none" stroke="midnightblue" d="M377.88,-207C369.175,-207 360.276,-207 351.564,-207"/>
<polygon fill="midnightblue" stroke="midnightblue" points="377.987,-210.5 387.987,-207 377.987,-203.5 377.987,-210.5"/>
</g>
<!-- Node10700 -->
<g id="node18" class="node"><title>Node10700</title>
<g id="a_node18"><a xlink:href="classCompass.html#a79db6bfd3fe309c6258d783f126326c6" target="_top" xlink:title=" ">
<polygon fill="white" stroke="black" points="84.7119,-197 84.7119,-217 161.288,-217 161.288,-197 84.7119,-197"/>
<text text-anchor="middle" x="123" y="-203" font-family="Helvetica,sans-Serif" font-size="10.00">Compass::init</text>
</a>
</g>
</g>
<!-- Node10699&#45;&gt;Node10700 -->
<g id="edge17" class="edge"><title>Node10699&#45;&gt;Node10700</title>
<path fill="none" stroke="midnightblue" d="M196.188,-207C184.032,-207 172.037,-207 161.42,-207"/>
<polygon fill="midnightblue" stroke="midnightblue" points="196.41,-210.5 206.41,-207 196.41,-203.5 196.41,-210.5"/>
</g>
<!-- Node10700&#45;&gt;Node10694 -->
<g id="edge18" class="edge"><title>Node10700&#45;&gt;Node10694</title>
<path fill="none" stroke="midnightblue" d="M74.6155,-197.617C62.4954,-195.217 50.1351,-192.769 40.3413,-190.83"/>
<polygon fill="midnightblue" stroke="midnightblue" points="74.1889,-201.1 84.6783,-199.61 75.5487,-194.234 74.1889,-201.1"/>
</g>
<!-- Node10702 -->
<g id="node20" class="node"><title>Node10702</title>
<g id="a_node20"><a xlink:href="BARO__generic_8cpp.html#a4fc01d736fe50cf5b977f755b675f11d" target="_top" xlink:title=" ">
<polygon fill="white" stroke="black" points="429.769,-50 429.769,-70 470.231,-70 470.231,-50 429.769,-50"/>
<text text-anchor="middle" x="450" y="-56" font-family="Helvetica,sans-Serif" font-size="10.00">setup</text>
</a>
</g>
</g>
<!-- Node10701&#45;&gt;Node10702 -->
<g id="edge20" class="edge"><title>Node10701&#45;&gt;Node10702</title>
<path fill="none" stroke="midnightblue" d="M562.659,-77.6676C531.89,-72.799 493.098,-66.6611 470.276,-63.0501"/>
<polygon fill="midnightblue" stroke="midnightblue" points="562.327,-81.1586 572.752,-79.2645 563.422,-74.2446 562.327,-81.1586"/>
</g>
<!-- Node10705 -->
<g id="node23" class="node"><title>Node10705</title>
<g id="a_node23"><a xlink:href="structGCS__MAVLINK.html#ab03ead633c327ce88a24bf4d00f743b6" target="_top" xlink:title=" ">
<polygon fill="white" stroke="black" points="1214.75,-0 1214.75,-44 1345.25,-44 1345.25,-0 1214.75,-0"/>
<text text-anchor="start" x="1222.75" y="-30" font-family="Helvetica,sans-Serif" font-size="10.00">GCS_MAVLINK::handle</text>
<text text-anchor="start" x="1222.75" y="-18" font-family="Helvetica,sans-Serif" font-size="10.00">_command_set_message</text>
<text text-anchor="middle" x="1280" y="-6" font-family="Helvetica,sans-Serif" font-size="10.00">_interval</text>
</a>
</g>
</g>
<!-- Node10704&#45;&gt;Node10705 -->
<g id="edge23" class="edge"><title>Node10704&#45;&gt;Node10705</title>
<path fill="none" stroke="midnightblue" d="M1372.54,-38.4031C1363.42,-36.7691 1354.23,-35.1218 1345.37,-33.534"/>
<polygon fill="midnightblue" stroke="midnightblue" points="1371.92,-41.8486 1382.39,-40.1673 1373.16,-34.9583 1371.92,-41.8486"/>
</g>
<!-- Node10704&#45;&gt;Node10687 -->
<g id="edge27" class="edge"><title>Node10704&#45;&gt;Node10687</title>
<path fill="none" stroke="midnightblue" d="M1372.54,-68.0678C1363.42,-69.7544 1354.23,-71.4549 1345.37,-73.094"/>
<polygon fill="midnightblue" stroke="midnightblue" points="1373.19,-71.5072 1382.39,-66.2466 1371.92,-64.6239 1373.19,-71.5072"/>
</g>
<!-- Node10706 -->
<g id="node24" class="node"><title>Node10706</title>
<g id="a_node24"><a xlink:href="structGCS__MAVLINK.html#a29e2941413d50ab63cd70f5beadef19a" target="_top" xlink:title=" ">
<polygon fill="white" stroke="black" points="1040.52,-7 1040.52,-39 1165.48,-39 1165.48,-7 1040.52,-7"/>
<text text-anchor="start" x="1048.52" y="-25" font-family="Helvetica,sans-Serif" font-size="10.00">GCS_MAVLINK::handle</text>
<text text-anchor="middle" x="1103" y="-13" font-family="Helvetica,sans-Serif" font-size="10.00">_command_long_packet</text>
</a>
</g>
</g>
<!-- Node10705&#45;&gt;Node10706 -->
<g id="edge24" class="edge"><title>Node10705&#45;&gt;Node10706</title>
<path fill="none" stroke="midnightblue" d="M1204.11,-22.428C1191.22,-22.5016 1177.97,-22.5773 1165.49,-22.6486"/>
<polygon fill="midnightblue" stroke="midnightblue" points="1204.35,-25.9267 1214.33,-22.3695 1204.31,-18.9268 1204.35,-25.9267"/>
</g>
<!-- Node10707 -->
<g id="node25" class="node"><title>Node10707</title>
<g id="a_node25"><a xlink:href="structGCS__MAVLINK.html#abc79cdd8393234b66f2e8217a527f8f9" target="_top" xlink:title=" ">
<polygon fill="white" stroke="black" points="870.009,-10 870.009,-42 991.991,-42 991.991,-10 870.009,-10"/>
<text text-anchor="start" x="878.009" y="-28" font-family="Helvetica,sans-Serif" font-size="10.00">GCS_MAVLINK::handle</text>
<text text-anchor="middle" x="931" y="-16" font-family="Helvetica,sans-Serif" font-size="10.00">_command_long</text>
</a>
</g>
</g>
<!-- Node10706&#45;&gt;Node10707 -->
<g id="edge25" class="edge"><title>Node10706&#45;&gt;Node10707</title>
<path fill="none" stroke="midnightblue" d="M1030.1,-24.2688C1017.45,-24.4921 1004.4,-24.7224 992.105,-24.9393"/>
<polygon fill="midnightblue" stroke="midnightblue" points="1030.21,-27.7676 1040.15,-24.0916 1030.08,-20.7686 1030.21,-27.7676"/>
</g>
<!-- Node10707&#45;&gt;Node10686 -->
<g id="edge26" class="edge"><title>Node10707&#45;&gt;Node10686</title>
<path fill="none" stroke="midnightblue" d="M859.538,-28.6758C850.352,-29.0246 841.01,-29.3794 832.016,-29.7209"/>
<polygon fill="midnightblue" stroke="midnightblue" points="859.956,-32.1625 869.816,-28.2855 859.691,-25.1675 859.956,-32.1625"/>
</g>
</g>
</svg>
