<?xml version="1.0" encoding="UTF-8" standalone="no"?>
<!DOCTYPE svg PUBLIC "-//W3C//DTD SVG 1.1//EN"
 "http://www.w3.org/Graphics/SVG/1.1/DTD/svg11.dtd">
<!-- Generated by graphviz version 2.30.1 (20130221.2233)
 -->
<!-- Title: GCS_MAVLINK::mavlink_coordinate_frame_to_location_alt_frame Pages: 1 -->
<svg width="792pt" height="52pt"
 viewBox="0.00 0.00 792.00 52.00" xmlns="http://www.w3.org/2000/svg" xmlns:xlink="http://www.w3.org/1999/xlink">
<g id="graph0" class="graph" transform="scale(1 1) rotate(0) translate(4 48)">
<title>GCS_MAVLINK::mavlink_coordinate_frame_to_location_alt_frame</title>
<polygon fill="white" stroke="white" points="-4,5 -4,-48 789,-48 789,5 -4,5"/>
<!-- Node7711 -->
<g id="node1" class="node"><title>Node7711</title>
<g id="a_node1"><a xlink:title=" ">
<polygon fill="#bfbfbf" stroke="black" points="658.076,-0 658.076,-44 783.924,-44 783.924,-0 658.076,-0"/>
<text text-anchor="start" x="666.076" y="-30" font-family="Helvetica,sans-Serif" font-size="10.00">GCS_MAVLINK::mavlink</text>
<text text-anchor="start" x="666.076" y="-18" font-family="Helvetica,sans-Serif" font-size="10.00">_coordinate_frame_to</text>
<text text-anchor="middle" x="721" y="-6" font-family="Helvetica,sans-Serif" font-size="10.00">_location_alt_frame</text>
</a>
</g>
</g>
<!-- Node7712 -->
<g id="node2" class="node"><title>Node7712</title>
<g id="a_node2"><a xlink:href="structGCS__MAVLINK.html#ad1b9e681a5c3a530e5522abfaac80a26" target="_top" xlink:title=" ">
<polygon fill="white" stroke="black" points="474.124,-6 474.124,-38 621.876,-38 621.876,-6 474.124,-6"/>
<text text-anchor="start" x="482.124" y="-24" font-family="Helvetica,sans-Serif" font-size="10.00">GCS_MAVLINK::handle</text>
<text text-anchor="middle" x="548" y="-12" font-family="Helvetica,sans-Serif" font-size="10.00">_command_int_do_set_home</text>
</a>
</g>
</g>
<!-- Node7711&#45;&gt;Node7712 -->
<g id="edge1" class="edge"><title>Node7711&#45;&gt;Node7712</title>
<path fill="none" stroke="midnightblue" d="M647.545,-22C639.063,-22 630.405,-22 621.917,-22"/>
<polygon fill="midnightblue" stroke="midnightblue" points="647.781,-25.5001 657.781,-22 647.781,-18.5001 647.781,-25.5001"/>
</g>
<!-- Node7713 -->
<g id="node3" class="node"><title>Node7713</title>
<g id="a_node3"><a xlink:href="structGCS__MAVLINK.html#a2de5c17edcd69201f39b10feec9acbf2" target="_top" xlink:title=" ">
<polygon fill="white" stroke="black" points="316.009,-6 316.009,-38 437.991,-38 437.991,-6 316.009,-6"/>
<text text-anchor="start" x="324.009" y="-24" font-family="Helvetica,sans-Serif" font-size="10.00">GCS_MAVLINK::handle</text>
<text text-anchor="middle" x="377" y="-12" font-family="Helvetica,sans-Serif" font-size="10.00">_command_int_packet</text>
</a>
</g>
</g>
<!-- Node7712&#45;&gt;Node7713 -->
<g id="edge2" class="edge"><title>Node7712&#45;&gt;Node7713</title>
<path fill="none" stroke="midnightblue" d="M463.72,-22C455.059,-22 446.381,-22 438.05,-22"/>
<polygon fill="midnightblue" stroke="midnightblue" points="463.857,-25.5001 473.857,-22 463.857,-18.5001 463.857,-25.5001"/>
</g>
<!-- Node7714 -->
<g id="node4" class="node"><title>Node7714</title>
<g id="a_node4"><a xlink:href="structGCS__MAVLINK.html#a080b5b10d6792fae80833aa9bbca2569" target="_top" xlink:title=" ">
<polygon fill="white" stroke="black" points="158.009,-6 158.009,-38 279.991,-38 279.991,-6 158.009,-6"/>
<text text-anchor="start" x="166.009" y="-24" font-family="Helvetica,sans-Serif" font-size="10.00">GCS_MAVLINK::handle</text>
<text text-anchor="middle" x="219" y="-12" font-family="Helvetica,sans-Serif" font-size="10.00">_command_int</text>
</a>
</g>
</g>
<!-- Node7713&#45;&gt;Node7714 -->
<g id="edge3" class="edge"><title>Node7713&#45;&gt;Node7714</title>
<path fill="none" stroke="midnightblue" d="M305.462,-22C297.01,-22 288.44,-22 280.153,-22"/>
<polygon fill="midnightblue" stroke="midnightblue" points="305.686,-25.5001 315.686,-22 305.686,-18.5001 305.686,-25.5001"/>
</g>
<!-- Node7715 -->
<g id="node5" class="node"><title>Node7715</title>
<g id="a_node5"><a xlink:href="structGCS__MAVLINK.html#a13da94a2548ade6552a5250eb3251e89" target="_top" xlink:title=" ">
<polygon fill="white" stroke="black" points="0.00927734,-6 0.00927734,-38 121.991,-38 121.991,-6 0.00927734,-6"/>
<text text-anchor="start" x="8.00928" y="-24" font-family="Helvetica,sans-Serif" font-size="10.00">GCS_MAVLINK::handle</text>
<text text-anchor="middle" x="61" y="-12" font-family="Helvetica,sans-Serif" font-size="10.00">_common_message</text>
</a>
</g>
</g>
<!-- Node7714&#45;&gt;Node7715 -->
<g id="edge4" class="edge"><title>Node7714&#45;&gt;Node7715</title>
<path fill="none" stroke="midnightblue" d="M147.462,-22C139.01,-22 130.44,-22 122.153,-22"/>
<polygon fill="midnightblue" stroke="midnightblue" points="147.686,-25.5001 157.686,-22 147.686,-18.5001 147.686,-25.5001"/>
</g>
</g>
</svg>
