<?xml version="1.0" encoding="UTF-8" standalone="no"?>
<!DOCTYPE svg PUBLIC "-//W3C//DTD SVG 1.1//EN"
 "http://www.w3.org/Graphics/SVG/1.1/DTD/svg11.dtd">
<!-- Generated by graphviz version 2.30.1 (20130221.2233)
 -->
<!-- Title: GCS_MAVLINK::get_default_interval_for_mavlink_message_id Pages: 1 -->
<!--zoomable 91 -->
<svg id="main" version="1.1" xmlns="http://www.w3.org/2000/svg" xmlns:xlink="http://www.w3.org/1999/xlink" xml:space="preserve" onload="init(evt)">
<style type="text/css"><![CDATA[
.edge:hover path { stroke: red; }
.edge:hover polygon { stroke: red; fill: red; }
]]></style>
<script type="text/javascript"><![CDATA[
var edges = document.getElementsByTagName('g');
if (edges && edges.length) {
  for (var i=0;i<edges.length;i++) {
    if (edges[i].id.substr(0,4)=='edge') {
      edges[i].setAttribute('class','edge');
    }
  }
}
]]></script>
        <defs>
                <circle id="rim" cx="0" cy="0" r="7"/>
                <circle id="rim2" cx="0" cy="0" r="3.5"/>
                <g id="zoomPlus">
                        <use xlink:href="#rim" fill="#404040">
                                <set attributeName="fill" to="#808080" begin="zoomplus.mouseover" end="zoomplus.mouseout"/>
                        </use>
                        <path d="M-4,0h8M0,-4v8" fill="none" stroke="white" stroke-width="1.5" pointer-events="none"/>
                </g>
                <g id="zoomMin">
                        <use xlink:href="#rim" fill="#404040">
                                <set attributeName="fill" to="#808080" begin="zoomminus.mouseover" end="zoomminus.mouseout"/>
                        </use>
                        <path d="M-4,0h8" fill="none" stroke="white" stroke-width="1.5" pointer-events="none"/>
                </g>
                <g id="dirArrow">
                        <path fill="none" stroke="white" stroke-width="1.5" d="M0,-3.0v7 M-2.5,-0.5L0,-3.0L2.5,-0.5"/>
                </g>
               <g id="resetDef">
                       <use xlink:href="#rim2" fill="#404040">
                               <set attributeName="fill" to="#808080" begin="reset.mouseover" end="reset.mouseout"/>
                       </use>
               </g>
        </defs>

<script type="text/javascript">
var viewWidth = 536;
var viewHeight = 91;
var sectionId = 'dynsection-34';
</script>
<script xlink:href="svgpan.js"/>
<svg id="graph" class="graph">
<g id="viewport">
<title>GCS_MAVLINK::get_default_interval_for_mavlink_message_id</title>
<polygon fill="white" stroke="white" points="-4,5 -4,-87 533,-87 533,5 -4,5"/>
<!-- Node1283 -->
<g id="node1" class="node"><title>Node1283</title>
<g id="a_node1"><a xlink:title=" ">
<polygon fill="#bfbfbf" stroke="black" points="0.0151367,-25 0.0151367,-57 169.985,-57 169.985,-25 0.0151367,-25"/>
<text text-anchor="start" x="8.01514" y="-43" font-family="Helvetica,sans-Serif" font-size="10.00">GCS_MAVLINK::get_default</text>
<text text-anchor="middle" x="85" y="-31" font-family="Helvetica,sans-Serif" font-size="10.00">_interval_for_mavlink_message_id</text>
</a>
</g>
</g>
<!-- Node1284 -->
<g id="node2" class="node"><title>Node1284</title>
<g id="a_node2"><a xlink:href="structGCS__MAVLINK.html#a8b947efd39ef128020f20544da6cfc25" target="_top" xlink:title=" ">
<polygon fill="white" stroke="black" points="214.076,-51 214.076,-83 339.924,-83 339.924,-51 214.076,-51"/>
<text text-anchor="start" x="222.076" y="-69" font-family="Helvetica,sans-Serif" font-size="10.00">GCS_MAVLINK::mavlink</text>
<text text-anchor="middle" x="277" y="-57" font-family="Helvetica,sans-Serif" font-size="10.00">_id_to_ap_message_id</text>
</a>
</g>
</g>
<!-- Node1283&#45;&gt;Node1284 -->
<g id="edge1" class="edge"><title>Node1283&#45;&gt;Node1284</title>
<path fill="none" stroke="midnightblue" d="M170.167,-52.5175C181.414,-54.0567 192.867,-55.6239 203.883,-57.1314"/>
<polygon fill="midnightblue" stroke="midnightblue" points="203.477,-60.6083 213.859,-58.4965 204.426,-53.6729 203.477,-60.6083"/>
</g>
<!-- Node1285 -->
<g id="node3" class="node"><title>Node1285</title>
<g id="a_node3"><a xlink:href="structGCS__MAVLINK.html#ac747807d69da72d1d3660c8e962ecd54" target="_top" xlink:title=" ">
<polygon fill="white" stroke="black" points="206.28,-0 206.28,-32 347.72,-32 347.72,-0 206.28,-0"/>
<text text-anchor="start" x="214.28" y="-18" font-family="Helvetica,sans-Serif" font-size="10.00">GCS_MAVLINK::get_default</text>
<text text-anchor="middle" x="277" y="-6" font-family="Helvetica,sans-Serif" font-size="10.00">_interval_for_ap_message</text>
</a>
</g>
</g>
<!-- Node1283&#45;&gt;Node1285 -->
<g id="edge2" class="edge"><title>Node1283&#45;&gt;Node1285</title>
<path fill="none" stroke="midnightblue" d="M170.167,-29.9255C178.799,-28.7896 187.553,-27.6378 196.137,-26.5083"/>
<polygon fill="midnightblue" stroke="midnightblue" points="196.661,-29.9696 206.119,-25.1949 195.748,-23.0294 196.661,-29.9696"/>
</g>
<!-- Node1286 -->
<g id="node4" class="node"><title>Node1286</title>
<g id="a_node4"><a xlink:href="structGCS__MAVLINK.html#aa9263cd0a1bb3697c476dc0be960c507" target="_top" xlink:title=" ">
<polygon fill="white" stroke="black" points="384.174,-0 384.174,-32 527.826,-32 527.826,-0 384.174,-0"/>
<text text-anchor="start" x="392.174" y="-18" font-family="Helvetica,sans-Serif" font-size="10.00">GCS_MAVLINK::get_interval</text>
<text text-anchor="middle" x="456" y="-6" font-family="Helvetica,sans-Serif" font-size="10.00">_for_stream</text>
</a>
</g>
</g>
<!-- Node1285&#45;&gt;Node1286 -->
<g id="edge3" class="edge"><title>Node1285&#45;&gt;Node1286</title>
<path fill="none" stroke="midnightblue" d="M347.955,-16C356.498,-16 365.282,-16 373.969,-16"/>
<polygon fill="midnightblue" stroke="midnightblue" points="374.103,-19.5001 384.103,-16 374.103,-12.5001 374.103,-19.5001"/>
</g>
</g>
</svg>
        <g id="navigator" transform="translate(0 0)" fill="#404254">
                <rect fill="#f2f5e9" fill-opacity="0.5" stroke="#606060" stroke-width=".5" x="0" y="0" width="60" height="60"/>
                <use id="zoomplus" xlink:href="#zoomPlus" x="17" y="9" onmousedown="handleZoom(evt,'in')"/>
                <use id="zoomminus" xlink:href="#zoomMin" x="42" y="9" onmousedown="handleZoom(evt,'out')"/>
                <use id="reset" xlink:href="#resetDef" x="30" y="36" onmousedown="handleReset()"/>
                <g id="arrowUp" xlink:href="#dirArrow" transform="translate(30 24)" onmousedown="handlePan(0,-1)">
                  <use xlink:href="#rim" fill="#404040">
                        <set attributeName="fill" to="#808080" begin="arrowUp.mouseover" end="arrowUp.mouseout"/>
                  </use>
                  <path fill="none" stroke="white" stroke-width="1.5" d="M0,-3.0v7 M-2.5,-0.5L0,-3.0L2.5,-0.5"/>
                </g>
                <g id="arrowRight" xlink:href="#dirArrow" transform="rotate(90) translate(36 -43)" onmousedown="handlePan(1,0)">
                  <use xlink:href="#rim" fill="#404040">
                        <set attributeName="fill" to="#808080" begin="arrowRight.mouseover" end="arrowRight.mouseout"/>
                  </use>
                  <path fill="none" stroke="white" stroke-width="1.5" d="M0,-3.0v7 M-2.5,-0.5L0,-3.0L2.5,-0.5"/>
                </g>
                <g id="arrowDown" xlink:href="#dirArrow" transform="rotate(180) translate(-30 -48)" onmousedown="handlePan(0,1)">
                  <use xlink:href="#rim" fill="#404040">
                        <set attributeName="fill" to="#808080" begin="arrowDown.mouseover" end="arrowDown.mouseout"/>
                  </use>
                  <path fill="none" stroke="white" stroke-width="1.5" d="M0,-3.0v7 M-2.5,-0.5L0,-3.0L2.5,-0.5"/>
                </g>
                <g id="arrowLeft" xlink:href="#dirArrow" transform="rotate(270) translate(-36 17)" onmousedown="handlePan(-1,0)">
                  <use xlink:href="#rim" fill="#404040">
                        <set attributeName="fill" to="#808080" begin="arrowLeft.mouseover" end="arrowLeft.mouseout"/>
                  </use>
                  <path fill="none" stroke="white" stroke-width="1.5" d="M0,-3.0v7 M-2.5,-0.5L0,-3.0L2.5,-0.5"/>
                </g>
        </g>
        <svg viewBox="0 0 15 15" width="100%" height="30px" preserveAspectRatio="xMaxYMin meet">
         <g id="arrow_out" transform="scale(0.3 0.3)">
          <a xlink:href="structGCS__MAVLINK_a37d3fae28018d3432206dd3e706f37f9_cgraph_org.svg" target="_base">
           <rect id="button" ry="5" rx="5" y="6" x="6" height="38" width="38"
                fill="#f2f5e9" fill-opacity="0.5" stroke="#606060" stroke-width="1.0"/>
           <path id="arrow"
             d="M 11.500037,31.436501 C 11.940474,20.09759 22.043105,11.32322 32.158766,21.979434 L 37.068811,17.246167 C 37.068811,17.246167 37.088388,32 37.088388,32 L 22.160133,31.978069 C 22.160133,31.978069 26.997745,27.140456 26.997745,27.140456 C 18.528582,18.264221 13.291696,25.230495 11.500037,31.436501 z"
             style="fill:#404040;"/>
          </a>
         </g>
        </svg>
</svg>
