<?xml version="1.0" encoding="UTF-8" standalone="no"?>
<!DOCTYPE svg PUBLIC "-//W3C//DTD SVG 1.1//EN"
 "http://www.w3.org/Graphics/SVG/1.1/DTD/svg11.dtd">
<!-- Generated by graphviz version 2.30.1 (20130221.2233)
 -->
<!-- Title: NavEKF3_core::rng_bcn_elements Pages: 1 -->
<svg width="148pt" height="112pt"
 viewBox="0.00 0.00 148.38 112.00" xmlns="http://www.w3.org/2000/svg" xmlns:xlink="http://www.w3.org/1999/xlink">
<g id="graph0" class="graph" transform="scale(1 1) rotate(0) translate(4 108)">
<title>NavEKF3_core::rng_bcn_elements</title>
<polygon fill="white" stroke="white" points="-4,5 -4,-108 145.384,-108 145.384,5 -4,5"/>
<!-- Node1 -->
<g id="node1" class="node"><title>Node1</title>
<g id="a_node1"><a xlink:title=" ">
<polygon fill="#bfbfbf" stroke="black" points="-0.750977,-1 -0.750977,-33 124.751,-33 124.751,-1 -0.750977,-1"/>
<text text-anchor="start" x="7.24902" y="-19" font-family="Helvetica,sans-Serif" font-size="10.00">NavEKF3_core::rng_bcn</text>
<text text-anchor="middle" x="62" y="-7" font-family="Helvetica,sans-Serif" font-size="10.00">_elements</text>
</a>
</g>
</g>
<!-- Node2 -->
<g id="node2" class="node"><title>Node2</title>
<g id="a_node2"><a xlink:href="classVector3.html" target="_top" xlink:title=" ">
<polygon fill="white" stroke="black" points="18.9731,-83 18.9731,-103 105.027,-103 105.027,-83 18.9731,-83"/>
<text text-anchor="middle" x="62" y="-89" font-family="Helvetica,sans-Serif" font-size="10.00">Vector3&lt; float &gt;</text>
</a>
</g>
</g>
<!-- Node2&#45;&gt;Node1 -->
<g id="edge1" class="edge"><title>Node2&#45;&gt;Node1</title>
<path fill="none" stroke="#9a32cd" stroke-dasharray="5,2" d="M62,-72.7583C62,-60.3756 62,-44.5144 62,-33.053"/>
<polygon fill="#9a32cd" stroke="#9a32cd" points="58.5001,-72.9261 62,-82.9261 65.5001,-72.9262 58.5001,-72.9261"/>
<text text-anchor="middle" x="101.192" y="-54" font-family="Helvetica,sans-Serif" font-size="10.00"> beacon_posNED</text>
</g>
</g>
</svg>
