<?xml version="1.0" encoding="UTF-8" standalone="no"?>
<!DOCTYPE svg PUBLIC "-//W3C//DTD SVG 1.1//EN"
 "http://www.w3.org/Graphics/SVG/1.1/DTD/svg11.dtd">
<!-- Generated by graphviz version 2.30.1 (20130221.2233)
 -->
<!-- Title: GCS_MAVLINK::handle_system_time_message Pages: 1 -->
<svg width="290pt" height="40pt"
 viewBox="0.00 0.00 290.00 40.00" xmlns="http://www.w3.org/2000/svg" xmlns:xlink="http://www.w3.org/1999/xlink">
<g id="graph0" class="graph" transform="scale(1 1) rotate(0) translate(4 36)">
<title>GCS_MAVLINK::handle_system_time_message</title>
<polygon fill="white" stroke="white" points="-4,5 -4,-36 287,-36 287,5 -4,5"/>
<!-- Node6961 -->
<g id="node1" class="node"><title>Node6961</title>
<g id="a_node1"><a xlink:title=" ">
<polygon fill="#bfbfbf" stroke="black" points="158.089,-0 158.089,-32 281.911,-32 281.911,-0 158.089,-0"/>
<text text-anchor="start" x="166.089" y="-18" font-family="Helvetica,sans-Serif" font-size="10.00">GCS_MAVLINK::handle</text>
<text text-anchor="middle" x="220" y="-6" font-family="Helvetica,sans-Serif" font-size="10.00">_system_time_message</text>
</a>
</g>
</g>
<!-- Node6962 -->
<g id="node2" class="node"><title>Node6962</title>
<g id="a_node2"><a xlink:href="structGCS__MAVLINK.html#a13da94a2548ade6552a5250eb3251e89" target="_top" xlink:title=" ">
<polygon fill="white" stroke="black" points="0.00927734,-0 0.00927734,-32 121.991,-32 121.991,-0 0.00927734,-0"/>
<text text-anchor="start" x="8.00928" y="-18" font-family="Helvetica,sans-Serif" font-size="10.00">GCS_MAVLINK::handle</text>
<text text-anchor="middle" x="61" y="-6" font-family="Helvetica,sans-Serif" font-size="10.00">_common_message</text>
</a>
</g>
</g>
<!-- Node6961&#45;&gt;Node6962 -->
<g id="edge1" class="edge"><title>Node6961&#45;&gt;Node6962</title>
<path fill="none" stroke="midnightblue" d="M147.587,-16C139.105,-16 130.513,-16 122.209,-16"/>
<polygon fill="midnightblue" stroke="midnightblue" points="147.85,-19.5001 157.85,-16 147.85,-12.5001 147.85,-19.5001"/>
</g>
</g>
</svg>
