<?xml version="1.0" encoding="UTF-8" standalone="no"?>
<!DOCTYPE svg PUBLIC "-//W3C//DTD SVG 1.1//EN"
 "http://www.w3.org/Graphics/SVG/1.1/DTD/svg11.dtd">
<!-- Generated by graphviz version 2.30.1 (20130221.2233)
 -->
<!-- Title: NavEKF3_core::imu_elements Pages: 1 -->
<svg width="158pt" height="112pt"
 viewBox="0.00 0.00 158.00 112.00" xmlns="http://www.w3.org/2000/svg" xmlns:xlink="http://www.w3.org/1999/xlink">
<g id="graph0" class="graph" transform="scale(1 1) rotate(0) translate(4 108)">
<title>NavEKF3_core::imu_elements</title>
<polygon fill="white" stroke="white" points="-4,5 -4,-108 155,-108 155,5 -4,5"/>
<!-- Node1 -->
<g id="node1" class="node"><title>Node1</title>
<g id="a_node1"><a xlink:title=" ">
<polygon fill="#bfbfbf" stroke="black" points="-0.807617,-1 -0.807617,-21 150.808,-21 150.808,-1 -0.807617,-1"/>
<text text-anchor="middle" x="75" y="-7" font-family="Helvetica,sans-Serif" font-size="10.00">NavEKF3_core::imu_elements</text>
</a>
</g>
</g>
<!-- Node2 -->
<g id="node2" class="node"><title>Node2</title>
<g id="a_node2"><a xlink:href="classVector3.html" target="_top" xlink:title=" ">
<polygon fill="white" stroke="black" points="31.9731,-83 31.9731,-103 118.027,-103 118.027,-83 31.9731,-83"/>
<text text-anchor="middle" x="75" y="-89" font-family="Helvetica,sans-Serif" font-size="10.00">Vector3&lt; float &gt;</text>
</a>
</g>
</g>
<!-- Node2&#45;&gt;Node1 -->
<g id="edge1" class="edge"><title>Node2&#45;&gt;Node1</title>
<path fill="none" stroke="#9a32cd" stroke-dasharray="5,2" d="M75,-72.7099C75,-56.3291 75,-33.5497 75,-21.07"/>
<polygon fill="#9a32cd" stroke="#9a32cd" points="71.5001,-72.8229 75,-82.823 78.5001,-72.823 71.5001,-72.8229"/>
<text text-anchor="middle" x="91.958" y="-54" font-family="Helvetica,sans-Serif" font-size="10.00"> delAng</text>
<text text-anchor="middle" x="91.958" y="-42" font-family="Helvetica,sans-Serif" font-size="10.00">delVel</text>
</g>
</g>
</svg>
