<?xml version="1.0" encoding="UTF-8" standalone="no"?>
<!DOCTYPE svg PUBLIC "-//W3C//DTD SVG 1.1//EN"
 "http://www.w3.org/Graphics/SVG/1.1/DTD/svg11.dtd">
<!-- Generated by graphviz version 2.30.1 (20130221.2233)
 -->
<!-- Title: GCS_MAVLINK::send_extended_sys_state Pages: 1 -->
<svg width="340pt" height="79pt"
 viewBox="0.00 0.00 340.00 79.00" xmlns="http://www.w3.org/2000/svg" xmlns:xlink="http://www.w3.org/1999/xlink">
<g id="graph0" class="graph" transform="scale(1 1) rotate(0) translate(4 75)">
<title>GCS_MAVLINK::send_extended_sys_state</title>
<polygon fill="white" stroke="white" points="-4,5 -4,-75 337,-75 337,5 -4,5"/>
<!-- Node8687 -->
<g id="node1" class="node"><title>Node8687</title>
<g id="a_node1"><a xlink:title=" ">
<polygon fill="#bfbfbf" stroke="black" points="-0.172852,-22 -0.172852,-54 160.173,-54 160.173,-22 -0.172852,-22"/>
<text text-anchor="start" x="7.82715" y="-40" font-family="Helvetica,sans-Serif" font-size="10.00">GCS_MAVLINK::send_extended</text>
<text text-anchor="middle" x="80" y="-28" font-family="Helvetica,sans-Serif" font-size="10.00">_sys_state</text>
</a>
</g>
</g>
<!-- Node8688 -->
<g id="node2" class="node"><title>Node8688</title>
<g id="a_node2"><a xlink:href="structGCS__MAVLINK.html#ab92bda7b9cd97acd8cbeed37f6cc2523" target="_top" xlink:title=" ">
<polygon fill="white" stroke="black" points="196.623,-51 196.623,-71 331.377,-71 331.377,-51 196.623,-51"/>
<text text-anchor="middle" x="264" y="-57" font-family="Helvetica,sans-Serif" font-size="10.00">GCS_MAVLINK::vtol_state</text>
</a>
</g>
</g>
<!-- Node8687&#45;&gt;Node8688 -->
<g id="edge1" class="edge"><title>Node8687&#45;&gt;Node8688</title>
<path fill="none" stroke="midnightblue" d="M160.298,-48.0212C168.974,-49.1175 177.793,-50.2321 186.434,-51.3241"/>
<polygon fill="midnightblue" stroke="midnightblue" points="186.117,-54.8118 196.477,-52.5932 186.995,-47.867 186.117,-54.8118"/>
</g>
<!-- Node8689 -->
<g id="node3" class="node"><title>Node8689</title>
<g id="a_node3"><a xlink:href="structGCS__MAVLINK.html#a348b56e82e0531e38631b87cdc6715c2" target="_top" xlink:title=" ">
<polygon fill="white" stroke="black" points="203.009,-0 203.009,-32 324.991,-32 324.991,-0 203.009,-0"/>
<text text-anchor="start" x="211.009" y="-18" font-family="Helvetica,sans-Serif" font-size="10.00">GCS_MAVLINK::landed</text>
<text text-anchor="middle" x="264" y="-6" font-family="Helvetica,sans-Serif" font-size="10.00">_state</text>
</a>
</g>
</g>
<!-- Node8687&#45;&gt;Node8689 -->
<g id="edge2" class="edge"><title>Node8687&#45;&gt;Node8689</title>
<path fill="none" stroke="midnightblue" d="M160.298,-28.4145C171.115,-27.107 182.155,-25.7725 192.795,-24.4863"/>
<polygon fill="midnightblue" stroke="midnightblue" points="193.345,-27.9454 202.853,-23.2706 192.505,-20.996 193.345,-27.9454"/>
</g>
</g>
</svg>
