<?xml version="1.0" encoding="UTF-8" standalone="no"?>
<!DOCTYPE svg PUBLIC "-//W3C//DTD SVG 1.1//EN"
 "http://www.w3.org/Graphics/SVG/1.1/DTD/svg11.dtd">
<!-- Generated by graphviz version 2.30.1 (20130221.2233)
 -->
<!-- Title: GCS_MAVLINK::persist_streamrates Pages: 1 -->
<svg width="446pt" height="40pt"
 viewBox="0.00 0.00 446.00 40.00" xmlns="http://www.w3.org/2000/svg" xmlns:xlink="http://www.w3.org/1999/xlink">
<g id="graph0" class="graph" transform="scale(1 1) rotate(0) translate(4 36)">
<title>GCS_MAVLINK::persist_streamrates</title>
<polygon fill="white" stroke="white" points="-4,5 -4,-36 443,-36 443,5 -4,5"/>
<!-- Node7983 -->
<g id="node1" class="node"><title>Node7983</title>
<g id="a_node1"><a xlink:title=" ">
<polygon fill="#bfbfbf" stroke="black" points="316.297,-0 316.297,-32 437.703,-32 437.703,-0 316.297,-0"/>
<text text-anchor="start" x="324.297" y="-18" font-family="Helvetica,sans-Serif" font-size="10.00">GCS_MAVLINK::persist</text>
<text text-anchor="middle" x="377" y="-6" font-family="Helvetica,sans-Serif" font-size="10.00">_streamrates</text>
</a>
</g>
</g>
<!-- Node7984 -->
<g id="node2" class="node"><title>Node7984</title>
<g id="a_node2"><a xlink:href="structGCS__MAVLINK.html#ab138669a99fc1a9d86d5aced80454dab" target="_top" xlink:title=" ">
<polygon fill="white" stroke="black" points="158.009,-0 158.009,-32 279.991,-32 279.991,-0 158.009,-0"/>
<text text-anchor="start" x="166.009" y="-18" font-family="Helvetica,sans-Serif" font-size="10.00">GCS_MAVLINK::handle</text>
<text text-anchor="middle" x="219" y="-6" font-family="Helvetica,sans-Serif" font-size="10.00">_request_data_stream</text>
</a>
</g>
</g>
<!-- Node7983&#45;&gt;Node7984 -->
<g id="edge1" class="edge"><title>Node7983&#45;&gt;Node7984</title>
<path fill="none" stroke="midnightblue" d="M306.088,-16C297.457,-16 288.692,-16 280.223,-16"/>
<polygon fill="midnightblue" stroke="midnightblue" points="306.133,-19.5001 316.132,-16 306.132,-12.5001 306.133,-19.5001"/>
</g>
<!-- Node7985 -->
<g id="node3" class="node"><title>Node7985</title>
<g id="a_node3"><a xlink:href="structGCS__MAVLINK.html#a13da94a2548ade6552a5250eb3251e89" target="_top" xlink:title=" ">
<polygon fill="white" stroke="black" points="0.00927734,-0 0.00927734,-32 121.991,-32 121.991,-0 0.00927734,-0"/>
<text text-anchor="start" x="8.00928" y="-18" font-family="Helvetica,sans-Serif" font-size="10.00">GCS_MAVLINK::handle</text>
<text text-anchor="middle" x="61" y="-6" font-family="Helvetica,sans-Serif" font-size="10.00">_common_message</text>
</a>
</g>
</g>
<!-- Node7984&#45;&gt;Node7985 -->
<g id="edge2" class="edge"><title>Node7984&#45;&gt;Node7985</title>
<path fill="none" stroke="midnightblue" d="M147.462,-16C139.01,-16 130.44,-16 122.153,-16"/>
<polygon fill="midnightblue" stroke="midnightblue" points="147.686,-19.5001 157.686,-16 147.686,-12.5001 147.686,-19.5001"/>
</g>
</g>
</svg>
