<?xml version="1.0" encoding="UTF-8" standalone="no"?>
<!DOCTYPE svg PUBLIC "-//W3C//DTD SVG 1.1//EN"
 "http://www.w3.org/Graphics/SVG/1.1/DTD/svg11.dtd">
<!-- Generated by graphviz version 2.30.1 (20130221.2233)
 -->
<!-- Title: PB_long Pages: 1 -->
<svg width="104pt" height="112pt"
 viewBox="0.00 0.00 104.00 112.00" xmlns="http://www.w3.org/2000/svg" xmlns:xlink="http://www.w3.org/1999/xlink">
<g id="graph0" class="graph" transform="scale(1 1) rotate(0) translate(4 108)">
<title>PB_long</title>
<polygon fill="white" stroke="white" points="-4,5 -4,-108 101,-108 101,5 -4,5"/>
<!-- Node1 -->
<g id="node1" class="node"><title>Node1</title>
<g id="a_node1"><a xlink:title=" ">
<polygon fill="#bfbfbf" stroke="black" points="21.0962,-1 21.0962,-21 74.9038,-21 74.9038,-1 21.0962,-1"/>
<text text-anchor="middle" x="48" y="-7" font-family="Helvetica,sans-Serif" font-size="10.00">PB_long</text>
</a>
</g>
</g>
<!-- Node2 -->
<g id="node2" class="node"><title>Node2</title>
<g id="a_node2"><a xlink:href="structVector2.html" target="_top" xlink:title=" ">
<polygon fill="white" stroke="black" points="-0.588379,-83 -0.588379,-103 96.5884,-103 96.5884,-83 -0.588379,-83"/>
<text text-anchor="middle" x="48" y="-89" font-family="Helvetica,sans-Serif" font-size="10.00">Vector2&lt; int32_t &gt;</text>
</a>
</g>
</g>
<!-- Node2&#45;&gt;Node1 -->
<g id="edge1" class="edge"><title>Node2&#45;&gt;Node1</title>
<path fill="none" stroke="#9a32cd" stroke-dasharray="5,2" d="M48,-72.7099C48,-56.3291 48,-33.5497 48,-21.07"/>
<polygon fill="#9a32cd" stroke="#9a32cd" points="44.5001,-72.8229 48,-82.823 51.5001,-72.823 44.5001,-72.8229"/>
<text text-anchor="middle" x="68.8496" y="-54" font-family="Helvetica,sans-Serif" font-size="10.00"> point</text>
<text text-anchor="middle" x="68.8496" y="-42" font-family="Helvetica,sans-Serif" font-size="10.00">boundary</text>
</g>
</g>
</svg>
