<?xml version="1.0" encoding="UTF-8" standalone="no"?>
<!DOCTYPE svg PUBLIC "-//W3C//DTD SVG 1.1//EN"
 "http://www.w3.org/Graphics/SVG/1.1/DTD/svg11.dtd">
<!-- Generated by graphviz version 2.30.1 (20130221.2233)
 -->
<!-- Title: NavEKF3_core::output_elements Pages: 1 -->
<svg width="177pt" height="124pt"
 viewBox="0.00 0.00 177.00 124.00" xmlns="http://www.w3.org/2000/svg" xmlns:xlink="http://www.w3.org/1999/xlink">
<g id="graph0" class="graph" transform="scale(1 1) rotate(0) translate(4 120)">
<title>NavEKF3_core::output_elements</title>
<polygon fill="white" stroke="white" points="-4,5 -4,-120 174,-120 174,5 -4,5"/>
<!-- Node1 -->
<g id="node1" class="node"><title>Node1</title>
<g id="a_node1"><a xlink:title=" ">
<polygon fill="#bfbfbf" stroke="black" points="20.4165,-1 20.4165,-33 137.583,-33 137.583,-1 20.4165,-1"/>
<text text-anchor="start" x="28.4165" y="-19" font-family="Helvetica,sans-Serif" font-size="10.00">NavEKF3_core::output</text>
<text text-anchor="middle" x="79" y="-7" font-family="Helvetica,sans-Serif" font-size="10.00">_elements</text>
</a>
</g>
</g>
<!-- Node2 -->
<g id="node2" class="node"><title>Node2</title>
<g id="a_node2"><a xlink:href="classQuaternion.html" target="_top" xlink:title=" ">
<polygon fill="white" stroke="black" points="-0.73877,-95 -0.73877,-115 64.7388,-115 64.7388,-95 -0.73877,-95"/>
<text text-anchor="middle" x="32" y="-101" font-family="Helvetica,sans-Serif" font-size="10.00">Quaternion</text>
</a>
</g>
</g>
<!-- Node2&#45;&gt;Node1 -->
<g id="edge1" class="edge"><title>Node2&#45;&gt;Node1</title>
<path fill="none" stroke="#9a32cd" stroke-dasharray="5,2" d="M42.0462,-85.6175C50.5858,-69.9919 62.6996,-47.8262 70.6988,-33.1895"/>
<polygon fill="#9a32cd" stroke="#9a32cd" points="38.7543,-84.3429 37.0298,-94.7965 44.8968,-87.6999 38.7543,-84.3429"/>
<text text-anchor="middle" x="71.1206" y="-60" font-family="Helvetica,sans-Serif" font-size="10.00"> quat</text>
</g>
<!-- Node3 -->
<g id="node3" class="node"><title>Node3</title>
<g id="a_node3"><a xlink:href="classVector3.html" target="_top" xlink:title=" ">
<polygon fill="white" stroke="black" points="82.9731,-95 82.9731,-115 169.027,-115 169.027,-95 82.9731,-95"/>
<text text-anchor="middle" x="126" y="-101" font-family="Helvetica,sans-Serif" font-size="10.00">Vector3&lt; float &gt;</text>
</a>
</g>
</g>
<!-- Node3&#45;&gt;Node1 -->
<g id="edge2" class="edge"><title>Node3&#45;&gt;Node1</title>
<path fill="none" stroke="#9a32cd" stroke-dasharray="5,2" d="M115.954,-85.6175C107.414,-69.9919 95.3004,-47.8262 87.3012,-33.1895"/>
<polygon fill="#9a32cd" stroke="#9a32cd" points="113.103,-87.6999 120.97,-94.7965 119.246,-84.3429 113.103,-87.6999"/>
<text text-anchor="middle" x="128.623" y="-66" font-family="Helvetica,sans-Serif" font-size="10.00"> position</text>
<text text-anchor="middle" x="128.623" y="-54" font-family="Helvetica,sans-Serif" font-size="10.00">velocity</text>
</g>
</g>
</svg>
