<?xml version="1.0" encoding="UTF-8" standalone="no"?>
<!DOCTYPE svg PUBLIC "-//W3C//DTD SVG 1.1//EN"
 "http://www.w3.org/Graphics/SVG/1.1/DTD/svg11.dtd">
<!-- Generated by graphviz version 2.30.1 (20130221.2233)
 -->
<!-- Title: tinf_inflate_block_data Pages: 1 -->
<svg width="478pt" height="67pt"
 viewBox="0.00 0.00 478.00 67.00" xmlns="http://www.w3.org/2000/svg" xmlns:xlink="http://www.w3.org/1999/xlink">
<g id="graph0" class="graph" transform="scale(1 1) rotate(0) translate(4 63)">
<title>tinf_inflate_block_data</title>
<polygon fill="white" stroke="white" points="-4,5 -4,-63 475,-63 475,5 -4,5"/>
<!-- Node76 -->
<g id="node1" class="node"><title>Node76</title>
<g id="a_node1"><a xlink:title=" ">
<polygon fill="#bfbfbf" stroke="black" points="0.241699,-19 0.241699,-39 115.758,-39 115.758,-19 0.241699,-19"/>
<text text-anchor="middle" x="58" y="-25" font-family="Helvetica,sans-Serif" font-size="10.00">tinf_inflate_block_data</text>
</a>
</g>
</g>
<!-- Node77 -->
<g id="node2" class="node"><title>Node77</title>
<g id="a_node2"><a xlink:href="tinflate_8cpp.html#a1fe738435f50b87e1865244f3ad1f845" target="_top" xlink:title=" ">
<polygon fill="white" stroke="black" points="152.527,-39 152.527,-59 257.473,-59 257.473,-39 152.527,-39"/>
<text text-anchor="middle" x="205" y="-45" font-family="Helvetica,sans-Serif" font-size="10.00">tinf_decode_symbol</text>
</a>
</g>
</g>
<!-- Node76&#45;&gt;Node77 -->
<g id="edge1" class="edge"><title>Node76&#45;&gt;Node77</title>
<path fill="none" stroke="midnightblue" d="M115.892,-36.8471C124.56,-38.0427 133.54,-39.2814 142.305,-40.4904"/>
<polygon fill="midnightblue" stroke="midnightblue" points="142.079,-43.9923 152.464,-41.8916 143.036,-37.0579 142.079,-43.9923"/>
</g>
<!-- Node80 -->
<g id="node5" class="node"><title>Node80</title>
<g id="a_node5"><a xlink:href="tinflate_8cpp.html#ad413093431fdade48d5463718689ffa1" target="_top" xlink:title=" ">
<polygon fill="white" stroke="black" points="166.98,-0 166.98,-20 243.02,-20 243.02,-0 166.98,-0"/>
<text text-anchor="middle" x="205" y="-6" font-family="Helvetica,sans-Serif" font-size="10.00">tinf_read_bits</text>
</a>
</g>
</g>
<!-- Node76&#45;&gt;Node80 -->
<g id="edge4" class="edge"><title>Node76&#45;&gt;Node80</title>
<path fill="none" stroke="midnightblue" d="M115.892,-21.5452C129.414,-19.7733 143.698,-17.9017 156.736,-16.1932"/>
<polygon fill="midnightblue" stroke="midnightblue" points="157.428,-19.6326 166.888,-14.8629 156.518,-12.6919 157.428,-19.6326"/>
</g>
<!-- Node78 -->
<g id="node3" class="node"><title>Node78</title>
<g id="a_node3"><a xlink:href="tinflate_8cpp.html#a999f8cd39752d95eeb64e7e3d435226c" target="_top" xlink:title=" ">
<polygon fill="white" stroke="black" points="294.318,-19 294.318,-39 353.682,-39 353.682,-19 294.318,-19"/>
<text text-anchor="middle" x="324" y="-25" font-family="Helvetica,sans-Serif" font-size="10.00">tinf_getbit</text>
</a>
</g>
</g>
<!-- Node77&#45;&gt;Node78 -->
<g id="edge2" class="edge"><title>Node77&#45;&gt;Node78</title>
<path fill="none" stroke="midnightblue" d="M257.658,-40.1695C266.537,-38.6518 275.628,-37.0978 284.1,-35.6497"/>
<polygon fill="midnightblue" stroke="midnightblue" points="284.802,-39.0804 294.069,-33.9454 283.622,-32.1805 284.802,-39.0804"/>
</g>
<!-- Node79 -->
<g id="node4" class="node"><title>Node79</title>
<g id="a_node4"><a xlink:href="tinflate_8cpp.html#ae823e2e87c9862aeaafc219c189fca2f" target="_top" xlink:title=" ">
<polygon fill="white" stroke="black" points="389.754,-19 389.754,-39 470.246,-39 470.246,-19 389.754,-19"/>
<text text-anchor="middle" x="430" y="-25" font-family="Helvetica,sans-Serif" font-size="10.00">uzlib_get_byte</text>
</a>
</g>
</g>
<!-- Node78&#45;&gt;Node79 -->
<g id="edge3" class="edge"><title>Node78&#45;&gt;Node79</title>
<path fill="none" stroke="midnightblue" d="M353.694,-29C361.645,-29 370.513,-29 379.294,-29"/>
<polygon fill="midnightblue" stroke="midnightblue" points="379.501,-32.5001 389.501,-29 379.501,-25.5001 379.501,-32.5001"/>
</g>
<!-- Node80&#45;&gt;Node78 -->
<g id="edge5" class="edge"><title>Node80&#45;&gt;Node78</title>
<path fill="none" stroke="midnightblue" d="M243.341,-16.064C256.323,-18.172 270.91,-20.541 284.021,-22.6701"/>
<polygon fill="midnightblue" stroke="midnightblue" points="283.728,-26.1682 294.16,-24.3165 284.85,-19.2588 283.728,-26.1682"/>
</g>
</g>
</svg>
