<?xml version="1.0" encoding="UTF-8" standalone="no"?>
<!DOCTYPE svg PUBLIC "-//W3C//DTD SVG 1.1//EN"
 "http://www.w3.org/Graphics/SVG/1.1/DTD/svg11.dtd">
<!-- Generated by graphviz version 2.30.1 (20130221.2233)
 -->
<!-- Title: uzlib_uncompress Pages: 1 -->
<svg width="686pt" height="222pt"
 viewBox="0.00 0.00 686.00 222.00" xmlns="http://www.w3.org/2000/svg" xmlns:xlink="http://www.w3.org/1999/xlink">
<g id="graph0" class="graph" transform="scale(1 1) rotate(0) translate(4 218)">
<title>uzlib_uncompress</title>
<polygon fill="white" stroke="white" points="-4,5 -4,-218 683,-218 683,5 -4,5"/>
<!-- Node12 -->
<g id="node1" class="node"><title>Node12</title>
<g id="a_node1"><a xlink:title=" ">
<polygon fill="#bfbfbf" stroke="black" points="0.702148,-96 0.702148,-116 97.2979,-116 97.2979,-96 0.702148,-96"/>
<text text-anchor="middle" x="49" y="-102" font-family="Helvetica,sans-Serif" font-size="10.00">uzlib_uncompress</text>
</a>
</g>
</g>
<!-- Node13 -->
<g id="node2" class="node"><title>Node13</title>
<g id="a_node2"><a xlink:href="tinflate_8cpp.html#a999f8cd39752d95eeb64e7e3d435226c" target="_top" xlink:title=" ">
<polygon fill="white" stroke="black" points="465.318,-108 465.318,-128 524.682,-128 524.682,-108 465.318,-108"/>
<text text-anchor="middle" x="495" y="-114" font-family="Helvetica,sans-Serif" font-size="10.00">tinf_getbit</text>
</a>
</g>
</g>
<!-- Node12&#45;&gt;Node13 -->
<g id="edge1" class="edge"><title>Node12&#45;&gt;Node13</title>
<path fill="none" stroke="midnightblue" d="M97.3466,-104.578C163.397,-102.95 286.918,-101.196 392,-107 412.857,-108.152 436.012,-110.557 454.981,-112.826"/>
<polygon fill="midnightblue" stroke="midnightblue" points="454.696,-116.317 465.048,-114.063 455.55,-109.369 454.696,-116.317"/>
</g>
<!-- Node15 -->
<g id="node4" class="node"><title>Node15</title>
<g id="a_node4"><a xlink:href="tinflate_8cpp.html#ad413093431fdade48d5463718689ffa1" target="_top" xlink:title=" ">
<polygon fill="white" stroke="black" points="300.98,-116 300.98,-136 377.02,-136 377.02,-116 300.98,-116"/>
<text text-anchor="middle" x="339" y="-122" font-family="Helvetica,sans-Serif" font-size="10.00">tinf_read_bits</text>
</a>
</g>
</g>
<!-- Node12&#45;&gt;Node15 -->
<g id="edge3" class="edge"><title>Node12&#45;&gt;Node15</title>
<path fill="none" stroke="midnightblue" d="M97.5573,-109.303C151.029,-113.016 237.336,-119.009 290.701,-122.715"/>
<polygon fill="midnightblue" stroke="midnightblue" points="290.697,-126.223 300.916,-123.425 291.182,-119.24 290.697,-126.223"/>
</g>
<!-- Node16 -->
<g id="node5" class="node"><title>Node16</title>
<g id="a_node5"><a xlink:href="tinflate_8cpp.html#a2616e85d86de18da8fcd2ef7ecddb841" target="_top" xlink:title=" ">
<polygon fill="white" stroke="black" points="136.747,-0 136.747,-20 247.253,-20 247.253,-0 136.747,-0"/>
<text text-anchor="middle" x="192" y="-6" font-family="Helvetica,sans-Serif" font-size="10.00">tinf_build_fixed_trees</text>
</a>
</g>
</g>
<!-- Node12&#45;&gt;Node16 -->
<g id="edge5" class="edge"><title>Node12&#45;&gt;Node16</title>
<path fill="none" stroke="midnightblue" d="M60.1027,-95.751C75.1545,-80.8988 104.834,-53.1852 134,-35 140.367,-31.0301 147.474,-27.3745 154.45,-24.1548"/>
<polygon fill="midnightblue" stroke="midnightblue" points="156.054,-27.273 163.801,-20.0459 153.238,-20.8644 156.054,-27.273"/>
</g>
<!-- Node17 -->
<g id="node6" class="node"><title>Node17</title>
<g id="a_node6"><a xlink:href="tinflate_8cpp.html#ac32796da2aa7e7043652b650700f59f2" target="_top" xlink:title=" ">
<polygon fill="white" stroke="black" points="144.249,-193 144.249,-213 239.751,-213 239.751,-193 144.249,-193"/>
<text text-anchor="middle" x="192" y="-199" font-family="Helvetica,sans-Serif" font-size="10.00">tinf_decode_trees</text>
</a>
</g>
</g>
<!-- Node12&#45;&gt;Node17 -->
<g id="edge6" class="edge"><title>Node12&#45;&gt;Node17</title>
<path fill="none" stroke="midnightblue" d="M58.5546,-116.143C72.717,-132.356 102.603,-164.192 134,-183 137.694,-185.213 141.67,-187.231 145.742,-189.059"/>
<polygon fill="midnightblue" stroke="midnightblue" points="144.749,-192.434 155.329,-192.982 147.4,-185.955 144.749,-192.434"/>
</g>
<!-- Node20 -->
<g id="node9" class="node"><title>Node20</title>
<g id="a_node9"><a xlink:href="tinflate_8cpp.html#abfce4e6800b51652460968cc37f15cf6" target="_top" xlink:title=" ">
<polygon fill="white" stroke="black" points="428.631,-49 428.631,-81 561.369,-81 561.369,-49 428.631,-49"/>
<text text-anchor="start" x="436.631" y="-67" font-family="Helvetica,sans-Serif" font-size="10.00">tinf_inflate_uncompressed</text>
<text text-anchor="middle" x="495" y="-55" font-family="Helvetica,sans-Serif" font-size="10.00">_block</text>
</a>
</g>
</g>
<!-- Node12&#45;&gt;Node20 -->
<g id="edge11" class="edge"><title>Node12&#45;&gt;Node20</title>
<path fill="none" stroke="midnightblue" d="M97.5304,-101.444C109.438,-100.31 122.186,-99.1041 134,-98 232.327,-88.8111 345.786,-78.451 418.628,-71.8309"/>
<polygon fill="midnightblue" stroke="midnightblue" points="418.988,-75.3127 428.631,-70.9221 418.355,-68.3414 418.988,-75.3127"/>
</g>
<!-- Node21 -->
<g id="node10" class="node"><title>Node21</title>
<g id="a_node10"><a xlink:href="tinflate_8cpp.html#ad1d31200df283ff9c5954ee37a2f7cbf" target="_top" xlink:title=" ">
<polygon fill="white" stroke="black" points="134.242,-154 134.242,-174 249.758,-174 249.758,-154 134.242,-154"/>
<text text-anchor="middle" x="192" y="-160" font-family="Helvetica,sans-Serif" font-size="10.00">tinf_inflate_block_data</text>
</a>
</g>
</g>
<!-- Node12&#45;&gt;Node21 -->
<g id="edge13" class="edge"><title>Node12&#45;&gt;Node21</title>
<path fill="none" stroke="midnightblue" d="M74.5603,-116.103C97.3683,-125.485 131.539,-139.541 156.971,-150.002"/>
<polygon fill="midnightblue" stroke="midnightblue" points="155.668,-153.251 166.248,-153.818 158.331,-146.777 155.668,-153.251"/>
</g>
<!-- Node14 -->
<g id="node3" class="node"><title>Node14</title>
<g id="a_node3"><a xlink:href="tinflate_8cpp.html#ae823e2e87c9862aeaafc219c189fca2f" target="_top" xlink:title=" ">
<polygon fill="white" stroke="black" points="597.754,-81 597.754,-101 678.246,-101 678.246,-81 597.754,-81"/>
<text text-anchor="middle" x="638" y="-87" font-family="Helvetica,sans-Serif" font-size="10.00">uzlib_get_byte</text>
</a>
</g>
</g>
<!-- Node13&#45;&gt;Node14 -->
<g id="edge2" class="edge"><title>Node13&#45;&gt;Node14</title>
<path fill="none" stroke="midnightblue" d="M524.874,-112.471C542.945,-109.011 566.702,-104.461 587.694,-100.442"/>
<polygon fill="midnightblue" stroke="midnightblue" points="588.577,-103.836 597.74,-98.5178 587.261,-96.961 588.577,-103.836"/>
</g>
<!-- Node15&#45;&gt;Node13 -->
<g id="edge4" class="edge"><title>Node15&#45;&gt;Node13</title>
<path fill="none" stroke="midnightblue" d="M377.279,-124.063C400.852,-122.839 431.264,-121.259 455.135,-120.019"/>
<polygon fill="midnightblue" stroke="midnightblue" points="455.455,-123.507 465.26,-119.493 455.091,-116.517 455.455,-123.507"/>
</g>
<!-- Node17&#45;&gt;Node15 -->
<g id="edge7" class="edge"><title>Node17&#45;&gt;Node15</title>
<path fill="none" stroke="midnightblue" d="M229.747,-192.925C236.747,-190.236 243.813,-186.951 250,-183 269.338,-170.652 266.848,-158.634 286,-146 289.131,-143.934 292.507,-142.036 295.982,-140.301"/>
<polygon fill="midnightblue" stroke="midnightblue" points="297.636,-143.394 305.309,-136.088 294.755,-137.014 297.636,-143.394"/>
</g>
<!-- Node18 -->
<g id="node7" class="node"><title>Node18</title>
<g id="a_node7"><a xlink:href="tinflate_8cpp.html#a26da373f43c044ccbca3df7adf6f64c5" target="_top" xlink:title=" ">
<polygon fill="white" stroke="black" points="299.589,-194 299.589,-214 378.411,-214 378.411,-194 299.589,-194"/>
<text text-anchor="middle" x="339" y="-200" font-family="Helvetica,sans-Serif" font-size="10.00">tinf_build_tree</text>
</a>
</g>
</g>
<!-- Node17&#45;&gt;Node18 -->
<g id="edge8" class="edge"><title>Node17&#45;&gt;Node18</title>
<path fill="none" stroke="midnightblue" d="M240.077,-203.325C255.815,-203.433 273.382,-203.554 289.245,-203.664"/>
<polygon fill="midnightblue" stroke="midnightblue" points="289.363,-207.165 299.387,-203.734 289.411,-200.165 289.363,-207.165"/>
</g>
<!-- Node19 -->
<g id="node8" class="node"><title>Node19</title>
<g id="a_node8"><a xlink:href="tinflate_8cpp.html#a1fe738435f50b87e1865244f3ad1f845" target="_top" xlink:title=" ">
<polygon fill="white" stroke="black" points="286.527,-155 286.527,-175 391.473,-175 391.473,-155 286.527,-155"/>
<text text-anchor="middle" x="339" y="-161" font-family="Helvetica,sans-Serif" font-size="10.00">tinf_decode_symbol</text>
</a>
</g>
</g>
<!-- Node17&#45;&gt;Node19 -->
<g id="edge9" class="edge"><title>Node17&#45;&gt;Node19</title>
<path fill="none" stroke="midnightblue" d="M231.477,-192.916C249.327,-188.238 270.737,-182.628 289.665,-177.667"/>
<polygon fill="midnightblue" stroke="midnightblue" points="290.809,-180.985 299.595,-175.065 289.035,-174.214 290.809,-180.985"/>
</g>
<!-- Node19&#45;&gt;Node13 -->
<g id="edge10" class="edge"><title>Node19&#45;&gt;Node13</title>
<path fill="none" stroke="midnightblue" d="M373.037,-154.917C397.224,-147.536 430.114,-137.498 455.493,-129.752"/>
<polygon fill="midnightblue" stroke="midnightblue" points="456.622,-133.067 465.165,-126.8 454.579,-126.372 456.622,-133.067"/>
</g>
<!-- Node20&#45;&gt;Node14 -->
<g id="edge12" class="edge"><title>Node20&#45;&gt;Node14</title>
<path fill="none" stroke="midnightblue" d="M561.547,-77.0866C570.341,-78.7082 579.238,-80.3488 587.688,-81.9069"/>
<polygon fill="midnightblue" stroke="midnightblue" points="587.266,-85.3882 597.735,-83.7597 588.536,-78.5043 587.266,-85.3882"/>
</g>
<!-- Node21&#45;&gt;Node19 -->
<g id="edge14" class="edge"><title>Node21&#45;&gt;Node19</title>
<path fill="none" stroke="midnightblue" d="M249.892,-164.392C258.56,-164.452 267.54,-164.514 276.305,-164.575"/>
<polygon fill="midnightblue" stroke="midnightblue" points="276.44,-168.075 286.464,-164.645 276.488,-161.076 276.44,-168.075"/>
</g>
<!-- Node21&#45;&gt;Node15 -->
<g id="edge15" class="edge"><title>Node21&#45;&gt;Node15</title>
<path fill="none" stroke="midnightblue" d="M231.477,-153.916C249.767,-149.123 271.793,-143.351 291.059,-138.302"/>
<polygon fill="midnightblue" stroke="midnightblue" points="292.061,-141.657 300.847,-135.737 290.287,-134.886 292.061,-141.657"/>
</g>
</g>
</svg>
