<?xml version="1.0" encoding="UTF-8" standalone="no"?>
<!DOCTYPE svg PUBLIC "-//W3C//DTD SVG 1.1//EN"
 "http://www.w3.org/Graphics/SVG/1.1/DTD/svg11.dtd">
<!-- Generated by graphviz version 2.30.1 (20130221.2233)
 -->
<!-- Title: libraries/AP_WheelEncoder/WheelEncoder_Backend.h Pages: 1 -->
<svg width="399pt" height="182pt"
 viewBox="0.00 0.00 399.00 182.00" xmlns="http://www.w3.org/2000/svg" xmlns:xlink="http://www.w3.org/1999/xlink">
<g id="graph0" class="graph" transform="scale(1 1) rotate(0) translate(4 178)">
<title>libraries/AP_WheelEncoder/WheelEncoder_Backend.h</title>
<polygon fill="white" stroke="white" points="-4,5 -4,-178 396,-178 396,5 -4,5"/>
<!-- Node53 -->
<g id="node1" class="node"><title>Node53</title>
<g id="a_node1"><a xlink:title=" ">
<polygon fill="#bfbfbf" stroke="black" points="165.86,-141 165.86,-173 304.14,-173 304.14,-141 165.86,-141"/>
<text text-anchor="start" x="173.86" y="-159" font-family="Helvetica,sans-Serif" font-size="10.00">libraries/AP_WheelEncoder</text>
<text text-anchor="middle" x="235" y="-147" font-family="Helvetica,sans-Serif" font-size="10.00">/WheelEncoder_Backend.h</text>
</a>
</g>
</g>
<!-- Node54 -->
<g id="node2" class="node"><title>Node54</title>
<g id="a_node2"><a xlink:href="WheelEncoder__Quadrature_8h.html" target="_top" xlink:title=" ">
<polygon fill="white" stroke="black" points="77.5718,-71 77.5718,-103 226.428,-103 226.428,-71 77.5718,-71"/>
<text text-anchor="start" x="85.5718" y="-89" font-family="Helvetica,sans-Serif" font-size="10.00">libraries/AP_WheelEncoder</text>
<text text-anchor="middle" x="152" y="-77" font-family="Helvetica,sans-Serif" font-size="10.00">/WheelEncoder_Quadrature.h</text>
</a>
</g>
</g>
<!-- Node53&#45;&gt;Node54 -->
<g id="edge1" class="edge"><title>Node53&#45;&gt;Node54</title>
<path fill="none" stroke="midnightblue" d="M208.742,-134.488C196.26,-124.261 181.642,-112.285 170.369,-103.049"/>
<polygon fill="midnightblue" stroke="midnightblue" points="206.626,-137.279 216.58,-140.909 211.062,-131.864 206.626,-137.279"/>
</g>
<!-- Node57 -->
<g id="node5" class="node"><title>Node57</title>
<g id="a_node5"><a xlink:href="WheelEncoder__Backend_8cpp.html" target="_top" xlink:title=" ">
<polygon fill="white" stroke="black" points="244.126,-71 244.126,-103 391.874,-103 391.874,-71 244.126,-71"/>
<text text-anchor="start" x="252.126" y="-89" font-family="Helvetica,sans-Serif" font-size="10.00">libraries/AP_WheelEncoder</text>
<text text-anchor="middle" x="318" y="-77" font-family="Helvetica,sans-Serif" font-size="10.00">/WheelEncoder_Backend.cpp</text>
</a>
</g>
</g>
<!-- Node53&#45;&gt;Node57 -->
<g id="edge4" class="edge"><title>Node53&#45;&gt;Node57</title>
<path fill="none" stroke="midnightblue" d="M261.258,-134.488C273.74,-124.261 288.358,-112.285 299.631,-103.049"/>
<polygon fill="midnightblue" stroke="midnightblue" points="258.938,-131.864 253.42,-140.909 263.374,-137.279 258.938,-131.864"/>
</g>
<!-- Node55 -->
<g id="node3" class="node"><title>Node55</title>
<g id="a_node3"><a xlink:href="AP__WheelEncoder_8cpp.html" target="_top" xlink:title=" ">
<polygon fill="white" stroke="black" points="-0.140137,-1 -0.140137,-33 138.14,-33 138.14,-1 -0.140137,-1"/>
<text text-anchor="start" x="7.85986" y="-19" font-family="Helvetica,sans-Serif" font-size="10.00">libraries/AP_WheelEncoder</text>
<text text-anchor="middle" x="69" y="-7" font-family="Helvetica,sans-Serif" font-size="10.00">/AP_WheelEncoder.cpp</text>
</a>
</g>
</g>
<!-- Node54&#45;&gt;Node55 -->
<g id="edge2" class="edge"><title>Node54&#45;&gt;Node55</title>
<path fill="none" stroke="midnightblue" d="M125.742,-64.4877C113.26,-54.2614 98.6417,-42.2848 87.3689,-33.0492"/>
<polygon fill="midnightblue" stroke="midnightblue" points="123.626,-67.2785 133.58,-70.9086 128.062,-61.8637 123.626,-67.2785"/>
</g>
<!-- Node56 -->
<g id="node4" class="node"><title>Node56</title>
<g id="a_node4"><a xlink:href="WheelEncoder__Quadrature_8cpp.html" target="_top" xlink:title=" ">
<polygon fill="white" stroke="black" points="156.291,-1 156.291,-33 315.709,-33 315.709,-1 156.291,-1"/>
<text text-anchor="start" x="164.291" y="-19" font-family="Helvetica,sans-Serif" font-size="10.00">libraries/AP_WheelEncoder</text>
<text text-anchor="middle" x="236" y="-7" font-family="Helvetica,sans-Serif" font-size="10.00">/WheelEncoder_Quadrature.cpp</text>
</a>
</g>
</g>
<!-- Node54&#45;&gt;Node56 -->
<g id="edge3" class="edge"><title>Node54&#45;&gt;Node56</title>
<path fill="none" stroke="midnightblue" d="M178.574,-64.4877C191.206,-54.2614 206.001,-42.2848 217.41,-33.0492"/>
<polygon fill="midnightblue" stroke="midnightblue" points="176.213,-61.8962 170.642,-70.9086 180.617,-67.3369 176.213,-61.8962"/>
</g>
</g>
</svg>
